<?xml version="1.0" encoding="UTF-8"?><svg id="_レイヤー_2" xmlns="http://www.w3.org/2000/svg" width="54.45" height="51.88" viewBox="0 0 54.45 51.88"><defs><style>.cls-1{fill:#06c755;}.cls-1,.cls-2{stroke-width:0px;}.cls-2{fill:#fff;}</style></defs><g id="design"><path class="cls-2" d="M54.45,22.09C54.45,9.91,42.24,0,27.23,0S0,9.91,0,22.09c0,10.92,9.69,20.07,22.77,21.8.89.19,2.09.58,2.4,1.34.27.69.18,1.77.09,2.46,0,0-.32,1.92-.39,2.33-.12.69-.55,2.69,2.36,1.47,2.91-1.22,15.68-9.23,21.39-15.81h0c3.95-4.33,5.84-8.72,5.84-13.59Z"/><path class="cls-1" d="M45.39,29.13h-7.65c-.29,0-.52-.23-.52-.52h0v-11.87h0c0-.3.23-.53.52-.53h7.65c.29,0,.52.23.52.52v1.93c0,.29-.23.52-.52.52h-5.2v2.01h5.2c.29,0,.52.23.52.52v1.93c0,.29-.23.52-.52.52h-5.2v2.01h5.2c.29,0,.52.23.52.52v1.93c0,.29-.23.52-.52.52Z"/><path class="cls-1" d="M17.1,29.13c.29,0,.52-.23.52-.52v-1.93c0-.29-.23-.52-.52-.52h-5.2v-9.43c0-.29-.23-.52-.52-.52h-1.93c-.29,0-.52.23-.52.52v11.87h0c0,.3.23.53.52.53h7.65Z"/><rect class="cls-1" x="19.25" y="16.21" width="2.97" height="12.92" rx=".52" ry=".52"/><path class="cls-1" d="M34.85,16.21h-1.93c-.29,0-.52.23-.52.52v7.06l-5.44-7.34s-.03-.04-.04-.05c0,0,0,0,0,0-.01-.01-.02-.02-.03-.03,0,0,0,0,0,0,0,0-.02-.02-.03-.02,0,0,0,0-.01-.01,0,0-.02-.01-.03-.02,0,0-.01,0-.02,0,0,0-.02-.01-.03-.02,0,0-.01,0-.02,0,0,0-.02,0-.03-.01,0,0-.01,0-.02,0-.01,0-.02,0-.03-.01,0,0-.01,0-.02,0-.01,0-.02,0-.03,0,0,0-.01,0-.02,0,0,0-.02,0-.03,0,0,0-.02,0-.03,0,0,0-.01,0-.02,0h-1.92c-.29,0-.52.23-.52.52v11.88c0,.29.23.52.52.52h1.93c.29,0,.52-.23.52-.52v-7.06l5.44,7.35c.04.05.08.1.13.13,0,0,0,0,0,0,.01,0,.02.01.03.02,0,0,0,0,.02,0,0,0,.02,0,.03.01,0,0,.02,0,.03.01,0,0,.01,0,.02,0,.01,0,.02,0,.04.01,0,0,0,0,0,0,.04.01.09.02.14.02h1.92c.29,0,.52-.23.52-.52v-11.88c0-.29-.23-.52-.52-.52Z"/></g></svg>