<?xml version="1.0" encoding="UTF-8"?>
<svg id="_レイヤー_2" data-name="レイヤー 2" xmlns="http://www.w3.org/2000/svg" viewBox="0 0 87.22 70.8">
  <defs>
    <style>
      .cls-1 {
        fill: #231815;
      }

      .cls-1, .cls-2, .cls-3, .cls-4, .cls-5 {
        stroke-width: 0px;
      }

      .cls-2 {
        fill: #f5f5f5;
      }

      .cls-3 {
        fill: #f19ca5;
      }

      .cls-4 {
        fill: #dc0857;
      }

      .cls-5 {
        fill: #fff;
      }
    </style>
  </defs>
  <g id="design">
    <g>
      <path class="cls-1" d="M87.18,22.28c.16,1.52-.15,3.39-.52,5.25-.05.24-.18.47-.29.69-.38.84-.83,1.65-1.14,2.52-.45,1.23-1.39,2.01-2.35,2.77-1.85,1.47-3.94,2.51-6.13,3.39-1.87.75-3.75,1.41-5.71,1.89-.41.1-.82.16-1.24.22-2.84.46-5.67,1.05-8.48,1.64-.16.03-.34.04-.51.04-1.48-.02-2.94.06-4.38.46-.35.1-.76.03-1.14,0-.81-.04-1.59.11-2.37.33-.8.22-1.63.36-2.45.49-.66.1-1.33.18-2,.19-.88,0-1.78.01-2.64-.12-1.36-.21-1.98.09-2.55,1.41-.68,1.57-1.47,3.1-1.82,4.8-.06.3-.42.66-.72.78-.4.16-.72-.2-.91-.53-.24-.44-.45-.91-.58-1.39-.53-1.85-1.02-3.71-1.55-5.56-.04-.15-.22-.35-.37-.38-.7-.11-1.42-.24-2.13-.24-1.73,0-3.43-.25-5.14-.47-1.92-.25-3.85-.36-5.77-.59-1.45-.18-2.93-.31-4.32-.72-1.32-.39-2.59-.91-3.98-1.08-.4-.05-.79-.26-1.18-.44-1.59-.73-3.27-1.29-4.73-2.28-.31-.21-.67-.35-.98-.57-.86-.61-1.8-1.14-2.53-1.88-1.44-1.43-2.8-2.94-4.12-4.48-.95-1.11-1.33-2.53-1.67-3.9-.49-1.99-.89-4.03-.76-6.1.11-1.66.58-3.28,1.18-4.85,1.09-2.84,3.12-4.84,5.52-6.58,1.65-1.2,3.37-2.25,5.3-2.85,2.39-.75,4.82-1.36,7.26-1.92,2.12-.49,4.27-.85,6.41-1.22.82-.14,1.66-.22,2.5-.25,2.19-.09,4.33-.61,6.5-.72,1.57-.08,3.16.05,4.76-.01,2.15-.08,4.3.22,6.45.15,1.83-.06,3.63.19,5.42.38,2.5.27,4.96.85,7.49.94.62.02,1.25.15,1.86.27,1.56.3,3.11.65,4.67.93.78.14,1.59.13,2.37.26,1.7.27,3.34.76,4.98,1.27.99.31,2.02.49,3.02.79.52.16,1.01.41,1.48.69.76.45,1.45,1.01,2.22,1.44,1.61.9,3.05,1.98,4.05,3.55.86,1.34,1.68,2.71,2.54,4.06.87,1.36,1.03,2.91,1.17,4.46.08.89.01,1.78.01,3.07ZM40.49,46.07c.78-1.63,1.5-3.17,2.25-4.7.1-.21.27-.52.45-.55.74-.15,1.54-.42,2.23-.25,1.73.43,3.41-.06,5.11-.02,1.01.02,1.97-.38,2.93-.68.55-.17,1.19-.45,1.7-.32.83.21,1.56.02,2.35-.1.83-.12,1.67-.16,2.51-.22.38-.03.77.01,1.14-.06,1.52-.3,3.03-.63,4.55-.95.86-.18,1.71-.45,2.58-.53,1.64-.15,3.23-.51,4.77-1.06,2.21-.79,4.42-1.6,6.54-2.59,1.65-.77,2.94-2.09,4.08-3.52.12-.16.16-.39.24-.57.34-.72.65-1.45,1.03-2.15.26-.49.47-.96.49-1.54.03-1.01.09-2.03.29-3.01.35-1.7.1-3.37-.12-5.04-.16-1.22-.55-2.36-1.25-3.39-.71-1.05-1.39-2.11-2.1-3.17-.91-1.37-2.13-2.36-3.58-3.14-.89-.48-1.66-1.16-2.54-1.66-.49-.28-1.08-.4-1.64-.55-.4-.11-.83-.13-1.22-.25-.96-.29-1.89-.68-2.87-.91-1.62-.4-3.21-1.03-4.93-.9-.17.01-.34-.01-.51-.03-2.4-.35-4.74-1.06-7.19-1.22-1.76-.12-3.49-.57-5.24-.74-2.39-.23-4.75-.72-7.18-.53-2.95.22-5.9-.37-8.85-.05-.28.03-.58-.09-.87-.11-.46-.03-.93-.08-1.38-.03-2.37.28-4.74.6-7.11.89-3.17.4-6.31.93-9.41,1.71-1.86.47-3.75.9-5.53,1.58-3.17,1.21-5.86,3.17-8.08,5.74-.3.35-.62.72-.8,1.14-.67,1.62-1.4,3.21-1.67,4.99-.18,1.19-.24,2.34.07,3.5.08.28.21.57.19.84-.08,1.39.36,2.66.84,3.92.19.51.38,1.05.72,1.46,1.22,1.45,2.44,2.91,3.79,4.24.95.94,2.03,1.74,3.24,2.39,1.15.62,2.31,1.19,3.48,1.75,1.26.61,2.51,1.16,3.93,1.23.28.01.59.1.84.24.97.54,2,.81,3.1.95,1.08.14,2.15.51,3.22.53,1.99.03,3.95.28,5.91.53,2.3.3,4.62.41,6.93.59.74.06.82.12,1.01.82.4,1.45.81,2.9,1.21,4.35.11.38.23.77.35,1.17Z"/>
      <path class="cls-1" d="M50.51,54.38c.27.02.67.06,1.12.07,1.39.04,2.05.84,1.76,2.22-.33,1.55-.77,3.08-1.04,4.64-.42,2.39-1.1,4.73-1.21,7.18-.07,1.52-.84,2.12-2.15,2.05-.75-.04-1.5.16-2.25.15-.79,0-1.6-.06-2.38-.2-1.98-.35-3.93-.28-5.91.02-1.29.19-2.6.21-3.9.26-1.14.04-2.29.02-3.44,0-1.05-.02-1.19-.21-1.32-1.22-.11-.82-.29-1.65-.52-2.44-.32-1.1-.41-2.22-.51-3.35-.11-1.28-.16-2.59-.64-3.82-.47-1.18-.36-2.41-.34-3.63.01-.59.26-.8.89-.83.68-.03,1.36,0,2.04,0,.21,0,.41-.03.72-.05-.34-.61-.64-1.15-.93-1.69-1.06-1.99-1.34-4.1-.98-6.33.11-.71.11-1.42.58-2.03.87-1.11,3.01-1.73,4.34-1.19,1.33.54,2.33,1.32,2.9,2.77.59,1.49.93,2.94.91,4.52-.01.96.14,1.91.23,2.95,1.29.1,2.55.02,3.9-.29,0-.9-.06-1.79.01-2.66.08-.95.24-1.91.42-2.85.18-.94.69-1.71,1.39-2.36.4-.38.81-.75,1.23-1.11.69-.59,1.46-.97,2.41-.92.55.03,1.11.04,1.65,0,.69-.06,1.23.21,1.73.64,1.51,1.31,1.93,2.77,1.24,4.64-.48,1.3-.96,2.6-1.86,3.69-.21.25-.33.58-.49.87-.03.09-.06.18-.09.28.1-.03.25-.03.52,0ZM52.14,55.75c-1.2,0-2.12.01-3.05,0-.86-.01-1.09-.31-.76-1.07.3-.69.62-1.39,1.06-1.98.97-1.3,1.61-2.73,1.98-4.3.24-1.03-.47-2.53-1.48-2.75-.93-.2-1.95-.31-2.86.11-1.01.46-1.83,1.2-2.48,2.11-.64.9-.78,1.93-.78,2.99,0,1.19.02,2.38,0,3.57-.01.69-.33,1.01-.97,1.08-1.33.15-2.66.32-3.99.46-1.15.12-1.83-.52-1.83-1.67,0-1.06,0-2.12-.03-3.18-.03-1.31-.31-2.57-.87-3.76-.8-1.7-1.99-2.22-3.87-1.86-.82.16-1.18.66-1.36,1.31-.39,1.38-.26,3.79.24,5.2.47,1.33,1.28,2.45,2.18,3.51.26.31.52.62.35,1.02-.2.47-.65.25-1.01.25-1.17-.01-2.34,0-3.67,0,.14.98.1,1.86.4,2.61.51,1.28.58,2.63.67,3.94.09,1.44.31,2.83.68,4.21.16.59.31,1.19.45,1.74,1.36,0,2.59.03,3.82,0,2.66-.08,5.32-.2,7.98-.29.64-.02,1.3-.06,1.91.08,1.59.38,3.18.12,4.76.2.29-1.61.56-3.13.85-4.64.43-2.25.88-4.5,1.31-6.76.13-.65.24-1.3.39-2.12Z"/>
      <path class="cls-5" d="M85.6,18.2c-.16-1.22-.55-2.36-1.25-3.39-.71-1.05-1.39-2.11-2.1-3.17-.91-1.37-2.13-2.36-3.58-3.14-.89-.48-1.66-1.16-2.54-1.66-.49-.28-1.08-.4-1.64-.55-.4-.11-.83-.13-1.22-.25-.96-.29-1.89-.68-2.87-.91-1.62-.4-3.21-1.03-4.93-.9-.17.01-.34-.01-.51-.03-2.4-.35-4.74-1.06-7.19-1.22-1.76-.12-3.49-.57-5.24-.74-2.39-.23-4.75-.72-7.18-.53-2.95.22-5.9-.37-8.85-.05-.28.03-.58-.09-.87-.11-.46-.03-.93-.08-1.38-.03-2.37.28-4.74.6-7.11.89-3.17.4-6.31.93-9.41,1.71-1.86.47-3.75.9-5.53,1.58-3.17,1.21-5.86,3.17-8.08,5.74-.3.35-.62.72-.8,1.14-.67,1.62-1.4,3.21-1.67,4.99-.18,1.19-.24,2.34.07,3.5.08.28.21.57.19.84-.08,1.39.36,2.66.84,3.92.19.51.38,1.05.72,1.46,1.22,1.45,2.44,2.91,3.79,4.24.95.94,2.03,1.74,3.24,2.39,1.15.62,2.31,1.19,3.48,1.75,1.26.61,2.51,1.16,3.93,1.23.28.01.59.1.84.24.97.54,2,.81,3.1.95,1.08.14,2.15.51,3.22.53,1.99.03,3.95.28,5.91.53,2.3.3,4.62.41,6.93.59.74.06.82.12,1.01.82.4,1.45.81,2.9,1.21,4.35.11.38.23.77.35,1.17.78-1.63,1.5-3.17,2.25-4.7.1-.21.27-.52.45-.55.74-.15,1.54-.42,2.23-.25,1.73.43,3.41-.06,5.11-.02,1.01.02,1.97-.38,2.93-.68.55-.17,1.19-.45,1.7-.32.83.21,1.56.02,2.35-.1.83-.12,1.67-.16,2.51-.22.38-.03.77.01,1.14-.06,1.52-.3,3.03-.63,4.55-.95.86-.18,1.71-.45,2.58-.53,1.64-.15,3.23-.51,4.77-1.06,2.21-.79,4.42-1.6,6.54-2.59,1.65-.77,2.94-2.09,4.08-3.52.12-.16.16-.39.24-.57.34-.72.65-1.45,1.03-2.15.26-.49.47-.96.49-1.54.03-1.01.09-2.03.29-3.01.35-1.7.1-3.37-.12-5.04Z"/>
      <path class="cls-3" d="M49.1,55.74c-.86-.01-1.09-.31-.76-1.07.3-.69.62-1.39,1.06-1.98.97-1.3,1.61-2.73,1.98-4.3.24-1.03-.47-2.53-1.48-2.75-.93-.2-1.95-.31-2.86.11-1.01.46-1.83,1.2-2.48,2.11-.64.9-.78,1.93-.78,2.99,0,1.19.02,2.38,0,3.57-.01.69-.33,1.01-.97,1.08-1.33.15-2.66.32-3.99.46-1.15.12-1.83-.52-1.83-1.67,0-1.06,0-2.12-.03-3.18-.03-1.31-.31-2.57-.87-3.76-.8-1.7-1.99-2.22-3.87-1.86-.82.16-1.18.66-1.36,1.31-.39,1.38-.26,3.79.24,5.2.47,1.33,1.28,2.45,2.18,3.51.26.31.52.62.35,1.02-.2.47-.65.25-1.01.25-1.17-.01-2.34,0-3.67,0,.14.98.1,1.86.4,2.61.51,1.28.58,2.63.67,3.94.09,1.44.31,2.83.68,4.21.16.59.31,1.19.45,1.74,1.36,0,2.59.03,3.82,0,2.66-.08,5.32-.2,7.98-.29.64-.02,1.3-.06,1.91.08,1.59.38,3.18.12,4.76.2.29-1.61.56-3.13.85-4.64.43-2.25.88-4.5,1.31-6.76.13-.65.24-1.3.39-2.12-1.2,0-2.12.01-3.05,0Z"/>
      <path class="cls-1" d="M35.05,26.47c-.38-.16-.68.26-.88.51-.16.2-.26.52-.25.78.04,1.22.18,2.44.19,3.65,0,1.01-.85,1.84-1.74,1.83-.78,0-1.67-.85-1.75-1.72-.06-.59,0-1.19-.05-1.78-.07-.8-.17-1.59-.31-2.38-.03-.16-.25-.4-.39-.41-.24-.02-.42.16-.48.32-.18.46-.36.95-.39,1.44-.05.76.05,1.52.06,2.29,0,.38.04.78-.07,1.13-.2.66-.7,1.05-1.39,1.14-.64.09-1.19-.15-1.55-.67-.24-.34-.46-.74-.51-1.14-.25-2.05-.44-4.12-.09-6.18.22-1.31.77-1.7,2.08-1.67.2,0,.53.25.65.37.29-.27.47-.42.71-.52,1.13-.44,2.09-.37,3.11.1.35.16.64.08.95-.13.76-.52,1.62-.6,2.53-.64,1.28-.05,2.47.64,2.94,2.14.29.91.43,1.88.51,2.84.09,1.05.03,2.12.04,3.18,0,.04,0,.08,0,.13-.05,1.06-.73,1.84-1.67,1.91-.86.06-1.73-.72-1.84-1.75-.08-.8-.03-1.61-.07-2.41-.04-.79.05-2.22-.33-2.38Z"/>
      <path class="cls-1" d="M35.83,13.65c.11-.66.2-1.32.33-1.98.16-.83.68-1.37,1.49-1.53.82-.16,1.5.15,1.93.89.26.43.79,1.95.79,1.95,0,0,.31-1.39.42-1.8.25-.96.93-1.57,1.73-1.6,1.05-.05,1.82.62,1.81,1.67-.01.75-.19,1.5-.27,2.25-.24,2.71-1.13,6.01-1.3,6.4-.34.77-.89,1.29-1.69,1.33-.73.03-1.4-.37-1.75-1.06-.3-.59-.51-1.24-.82-2.04-.23.51-.42.89-.59,1.29-.39.93-1.06,1.62-2.09,1.55-1.02-.08-1.81-.71-2.1-1.75-.61-2.22-1.51-4.37-1.77-6.68-.05-.48.03-1.01.19-1.48.24-.7,1-1.06,1.75-.97.73.09,1.35.7,1.5,1.51.13.69.23,1.38.34,2.07.04,0,.08,0,.11-.01Z"/>
      <path class="cls-1" d="M12.73,18.6c.24,1.11.49,2.13.67,3.17.15.88-.5,1.82-1.35,2.05-.86.24-1.84-.24-2.1-1.18-.33-1.21-.54-2.46-.8-3.69-.39-1.89-.42-3.84-.98-5.7-.12-.4-.11-.84-.09-1.26.03-.64.34-1.09.93-1.4.62-.33,1.18-.18,1.64.2.34.28.64.69.78,1.1.33.95.55,1.93.84,3,1.29.1,2.56-.47,3.98-.46.04-.93-.22-1.77-.37-2.61-.24-1.36.67-2.43,1.95-2.26.64.09,1.12.42,1.32,1.04.2.64.37,1.29.48,1.95.19,1.12.33,2.24.46,3.37.17,1.42.32,2.84.46,4.26.04.42.09.85.07,1.27-.04.85-.57,1.47-1.35,1.62-.78.16-1.67-.28-1.95-1.08-.24-.71-.36-1.46-.5-2.2-.06-.29-.03-.59-.07-.89-.12-.9-.28-1.01-1.12-.85-.94.18-1.88.35-2.9.54Z"/>
      <path class="cls-1" d="M63.5,22.89c.32-.11.51-.21.71-.23,2.72-.36,4.09,1.03,4.76,3.2.56,1.82.56,3.74-.13,5.6-.42,1.13-1.18,1.6-2.23,1.32-.85-.22-1.33-1.16-1.15-2.21.2-1.2.49-2.4.08-3.62-.27-.79-.59-.95-1.28-.47-.46.32-.8.72-.78,1.36.03,1.06,0,2.12-.03,3.18-.01.37-.06.76-.18,1.11-.3.83-.93,1.23-1.74,1.18-.81-.04-1.43-.53-1.62-1.37-.13-.57-.22-1.17-.21-1.75.06-3,.16-6.01.23-9.01.02-.76.27-1.42.83-1.91.5-.44,1.06-.66,1.75-.34.64.3,1,.75.99,1.47,0,.76,0,1.52,0,2.47Z"/>
      <path class="cls-1" d="M77.28,24.33c-.08.4-.16.9-.29,1.38-.26.96-1,1.37-1.92,1.26-.84-.1-1.44-.71-1.42-1.64.02-.97.13-1.94.3-2.89.12-.69.62-1.25,1.28-1.48.51-.17,1.03-.28,1.58-.4.24-.05.38-.31.29-.54-.16-.4-.47-.71-.77-1.02-.11-.11-.33-.21-.48-.2-.61.03-1.22.1-1.83.17-.5.05-.85.36-1.11.76-.16.25-.31.51-.5.73-.61.67-1.39.83-2.05.44-.71-.41-1.03-1.2-.82-2.04.47-1.9,1.83-2.86,3.59-3.38,1.16-.35,2.35-.34,3.53-.2.59.07,1.15.3,1.62.67,1.89,1.48,2.85,3.41,2.49,5.86-.1.7-.46,1.29-1.11,1.59-.75.35-1.54.61-2.37.93Z"/>
      <path class="cls-1" d="M29.35,12.58c-1.05-.72-2.26-1.27-3.42-1.07-1.97.34-3.39,1.62-4.04,3.61-.32.99-.17,1.98-.03,2.99.3,2.13,1.63,3.98,4.35,3.79,1.45-.02,2.36,0,3.76-1.89.18-.24.33-.5.51-.73,1.43-1.78,1.33-5.02-1.13-6.7Z"/>
      <path class="cls-1" d="M43.44,28.7c.64.14,1.01-2.01.94-3.21-.03-.49.09-1.01.22-1.49.21-.77,1.05-1.37,1.8-1.35.72.01,1.48.54,1.73,1.28.13.39.22.82.23,1.23.02,1.95,0,3.9.02,5.85,0,.68-.21,1.25-.74,1.67-.64.51-1.35.5-2.09-.04-.29-.21-.48-.29-.88-.21-2.93.61-5.34-2.05-5.15-4.32.07-.8,0-1.61.03-2.42.03-.64.13-1.3.63-1.73.43-.37.93-.64,1.61-.39.78.29,1.16.85,1.23,1.59.08.84.04,1.69.06,2.54,0,.37-.08.78.37.99Z"/>
      <path class="cls-1" d="M49.11,27.62c.06-.54.05-1.11.19-1.63.78-3.01,3.11-3.84,5.84-3.56.33.03.66.11.99.19,1.36.31,2.57,1.92,2.46,3.31-.05.69-.38,1.25-1.03,1.47-.61.2-1.27.18-1.77-.35-.15-.15-.32-.3-.41-.48-.23-.51-.65-.6-1.14-.61-1.17-.02-1.88.92-1.49,2.03.07.21.31.39.52.51.5.29,1.05.29,1.59.08.31-.12.6-.3.92-.43.89-.36,1.85-.05,2.3.74.45.78.27,1.62-.5,2.25-1.34,1.08-2.87,1.32-4.53,1.05-1.17-.19-2.13-.76-2.92-1.63-.75-.83-1.11-1.79-1-2.92Z"/>
      <path class="cls-1" d="M73.92,32.3c-1.29,0-2.13-.64-2.3-1.67-.16-1.02.41-2.09,1.43-2.4.67-.2,1.41-.27,2.11-.24.89.04,1.63.74,1.77,1.55.14.84-.21,1.49-.92,1.93-.67.42-1.31.96-2.09.83Z"/>
      <path class="cls-1" d="M43.85,64.91c-.37,0-.51.16-.55.52-.04.32-.09.71-.29.91-.36.35-1.51.06-1.82-.37-.28-.39-.23-.53.25-.82.18-.1.39-.23.58-.54.41-.67.37-1.25-.09-1.97-.43-.66-1.16-.92-2-.73-.32.07-.63.36-.83.58-.46.51-.6,1.87.13,2.43.38.29.48.25.66.39.38.31-.12.79-.37.91-.62.31-1.19.09-1.34-.47-.11-.39-.42-.41-.7-.31-.14.05-.28.29-.3.47-.11.82.55,1.27,1.16,1.34.58.07,1-.02,1.55-.18.36-.11.5-.61,1.11-.11.61.5,1.01.58,1.53.57.52,0,.95-.05,1.35-.59.34-.45.36-.95.45-1.44.06-.33-.07-.58-.47-.58Z"/>
      <path class="cls-1" d="M33.51,60.54c0-.3.24-.76.69-.97,1.01-.48,2-1.02,2.99-1.53.33-.17.7-.51.99-.08.23.35.05.7-.36.92-.84.46-1.64.99-2.5,1.41-.37.18-.62.18-.9.58-.23.32-.5.29-.63.21-.19-.11-.28-.24-.28-.54Z"/>
      <path class="cls-1" d="M43.14,57.7c.24.03,1.3.53,1.88.84.47.26.91.58,1.34.9.2.15.39.41.13.63-.16.14-.44.24-.65.22-.23-.03-.48-.18-.65-.35-.61-.62-1.43-.82-2.19-1.13-.33-.13-.71-.24-.6-.62.07-.23.39-.54.75-.5Z"/>
      <path class="cls-1" d="M42.79,61.88c-.58,0-.96-.33-.99-.87-.02-.39.39-.72.82-.77.73-.09,1.16.54,1.15.9-.01.4-.45.73-.98.74Z"/>
      <path class="cls-1" d="M38.17,62.35c-.54.12-1.16-.31-1.21-.82-.04-.45.4-.96.95-.96.64,0,1.14.29,1.04,1.08-.05.44-.51.64-.78.7Z"/>
      <path class="cls-4" d="M40.81,64.32c-.73.3-1.15-.35-1.08-.82.07-.43.3-.6.78-.61.39,0,.81.28.77.81,0,.17-.04.45-.48.62Z"/>
      <path class="cls-2" d="M27.79,16.42c.11,1.03-.42,1.66-1.05,1.93-.55.23-1.3-.08-1.47-.65-.22-.7-.3-1.39.23-2.07.38-.49.9-.47,1.45-.29.61.2.83.53.85,1.09Z"/>
    </g>
  </g>
</svg>