<?xml version="1.0" encoding="UTF-8"?>
<svg id="_レイヤー_2" data-name="レイヤー 2" xmlns="http://www.w3.org/2000/svg" viewBox="0 0 65.4 44.55">
  <defs>
    <style>
      .cls-1 {
        fill: #231815;
        stroke-width: 0px;
      }

      .cls-2 {
        fill: none;
        stroke: #231815;
        stroke-linecap: round;
        stroke-linejoin: round;
        stroke-width: 2px;
      }
    </style>
  </defs>
  <g id="nav">
    <g>
      <g>
        <path class="cls-1" d="M9.59,15.1c1.21,0,2.2.97,2.2,2.2v2.02c0,.79-.64,1.43-1.43,1.43s-1.43-.64-1.43-1.43v-1.41h-3.74c-.29,0-.55.11-.75.29l-1.21,1.03c-.24.18-.37.46-.37.75v6.49c0,.29.13.57.35.77l.9.75c.2.18.46.29.75.29h4.05v-2.25c0-.79.64-1.43,1.43-1.43s1.45.64,1.45,1.43v2.88c0,1.21-.99,2.2-2.2,2.2l-5.1.02c-.75,0-1.47-.26-2.02-.75l-1.52-1.25c-.59-.53-.95-1.28-.95-2.07v-7.66c0-.79.35-1.54.95-2.05l1.85-1.54c.57-.46,1.28-.73,2-.73h4.8Z"/>
        <path class="cls-1" d="M17.03,31.12c-1.21,0-2.2-.99-2.2-2.2v-12.83c0-.79.64-1.45,1.43-1.45s1.43.66,1.43,1.45v12.17h5.15c.79,0,1.43.64,1.43,1.43s-.64,1.43-1.43,1.43h-5.81Z"/>
        <path class="cls-1" d="M30.2,30.02c0,.79-.64,1.45-1.43,1.45s-1.43-.66-1.43-1.45v-13.8c0-.79.64-1.43,1.43-1.43s1.43.64,1.43,1.43v13.8Z"/>
        <path class="cls-1" d="M42.84,15.1c1.21,0,2.2.97,2.2,2.2v2.02c0,.79-.64,1.43-1.43,1.43s-1.43-.64-1.43-1.43v-1.41h-3.74c-.29,0-.55.11-.75.29l-1.21,1.03c-.24.18-.37.46-.37.75v6.49c0,.29.13.57.35.77l.9.75c.2.18.46.29.75.29h4.05v-2.25c0-.79.64-1.43,1.43-1.43s1.45.64,1.45,1.43v2.88c0,1.21-.99,2.2-2.2,2.2l-5.1.02c-.75,0-1.47-.26-2.02-.75l-1.52-1.25c-.59-.53-.95-1.28-.95-2.07v-7.66c0-.79.35-1.54.95-2.05l1.85-1.54c.57-.46,1.28-.73,2-.73h4.8Z"/>
        <path class="cls-1" d="M55.04,20.8l5.08,8.56c.4.68.15,1.56-.53,1.98-.68.4-1.56.15-1.96-.53l-4.77-8.05-1.87,1.67v5.72c0,.79-.64,1.43-1.43,1.43s-1.43-.64-1.43-1.43v-13.97c0-.79.64-1.43,1.43-1.43s1.43.64,1.43,1.43v4.4l5.96-5.37c.59-.53,1.5-.48,2.02.11.53.57.48,1.5-.11,2.02l-3.83,3.46Z"/>
      </g>
      <line class="cls-2" x1="12.04" y1="1" x2="64.4" y2="7.55"/>
      <line class="cls-2" x1="64.4" y1="37" x2="12.04" y2="43.55"/>
    </g>
  </g>
</svg>