<svg xmlns="http://www.w3.org/2000/svg" width="47" height="47" viewBox="0 0 47 47">
  <g id="グループ_322" data-name="グループ 322" transform="translate(-1198.5 -42.5)">
    <circle id="楕円形_22" data-name="楕円形 22" cx="23.5" cy="23.5" r="23.5" transform="translate(1198.5 42.5)" fill="#06c755"/>
    <rect id="長方形_54" data-name="長方形 54" width="34" height="34" rx="7.665" transform="translate(1205 49)" fill="#06c755"/>
    <g id="グループ_290" data-name="グループ 290">
      <g id="グループ_289" data-name="グループ 289">
        <g id="グループ_287" data-name="グループ 287">
          <path id="パス_990" data-name="パス 990" d="M1233.332,64.4c0-5.072-5.085-9.2-11.335-9.2s-11.336,4.127-11.336,9.2c0,4.548,4.033,8.356,9.48,9.076.369.08.872.243,1,.559a2.32,2.32,0,0,1,.036,1.025s-.133.8-.161.97c-.05.287-.228,1.121.982.611a36.593,36.593,0,0,0,8.906-6.581h0A8.185,8.185,0,0,0,1233.332,64.4Z" fill="#fff"/>
        </g>
        <g id="グループ_288" data-name="グループ 288">
          <path id="パス_991" data-name="パス 991" d="M1229.561,67.327h-3.185a.216.216,0,0,1-.216-.216v0h0V62.169h0v0a.217.217,0,0,1,.216-.217h3.185a.217.217,0,0,1,.217.217v.8a.217.217,0,0,1-.217.217H1227.4v.835h2.164a.217.217,0,0,1,.217.216v.8a.217.217,0,0,1-.217.217H1227.4v.834h2.164a.218.218,0,0,1,.217.217v.8A.217.217,0,0,1,1229.561,67.327Z" fill="#06c755"/>
          <path id="パス_992" data-name="パス 992" d="M1217.781,67.327a.216.216,0,0,0,.216-.216v-.8a.217.217,0,0,0-.216-.217h-2.165V62.164a.217.217,0,0,0-.216-.217h-.8a.216.216,0,0,0-.216.217v4.943h0v0a.216.216,0,0,0,.216.216h3.185Z" fill="#06c755"/>
          <rect id="長方形_55" data-name="長方形 55" width="1.237" height="5.38" rx="0.216" transform="translate(1218.678 61.947)" fill="#06c755"/>
          <path id="パス_993" data-name="パス 993" d="M1225.171,61.947h-.8a.217.217,0,0,0-.217.217V65.1l-2.263-3.057-.017-.022,0,0-.013-.013,0,0-.012-.01-.006,0-.011-.008-.007,0-.012-.007-.007,0-.012-.006-.007,0-.013,0-.008,0-.013,0-.009,0h-.83a.217.217,0,0,0-.217.217v4.947a.217.217,0,0,0,.217.216h.8a.216.216,0,0,0,.216-.216V64.173l2.266,3.061a.222.222,0,0,0,.056.054l0,0,.013.008.007,0,.01,0,.011,0,.007,0,.015,0h0a.262.262,0,0,0,.056.007h.8a.216.216,0,0,0,.216-.216V62.164A.217.217,0,0,0,1225.171,61.947Z" fill="#06c755"/>
        </g>
      </g>
    </g>
  </g>
</svg>
