<svg xmlns="http://www.w3.org/2000/svg" width="20.789" height="20" viewBox="0 0 20.789 20">
  <g id="グループ_155" data-name="グループ 155" transform="translate(-1119.313 -10036)">
    <path id="パス_359" data-name="パス 359" d="M1131.646,10038.983l1.509,2.758-.547.315a.288.288,0,0,0,.051.521l2.2.752a.288.288,0,0,0,.375-.217l.447-2.279a.287.287,0,0,0-.425-.3l-.45.26-1.5-2.745a3.933,3.933,0,0,0-6.9,0l-2.634,4.813a.286.286,0,0,0,.108.386l1.15.664a.285.285,0,0,0,.4-.111l2.649-4.839a2,2,0,0,1,1.766-1.056A2.06,2.06,0,0,1,1131.646,10038.983Z" fill="#33d178"/>
    <g id="グループ_154" data-name="グループ 154">
      <path id="パス_360" data-name="パス 360" d="M1139.667,10049.937l-2.955-5.4a.287.287,0,0,0-.4-.111l-1.15.664a.286.286,0,0,0-.108.386l2.94,5.372a1.6,1.6,0,0,1-.031,1.6,1.634,1.634,0,0,1-1.406.782h-3.729v-.572a.287.287,0,0,0-.476-.218l-1.752,1.524a.288.288,0,0,0,0,.434l1.747,1.528a.287.287,0,0,0,.477-.216v-.579h3.723a3.542,3.542,0,0,0,3.028-1.676A3.483,3.483,0,0,0,1139.667,10049.937Z" fill="#33d178"/>
      <path id="パス_361" data-name="パス 361" d="M1122.861,10055.133l6.153-.075a.286.286,0,0,0,.284-.3l-.046-1.327a.288.288,0,0,0-.291-.276l-6.123.074a1.6,1.6,0,0,1-1.4-.778,1.636,1.636,0,0,1-.031-1.609l1.751-3.292.505.27a.288.288,0,0,0,.416-.318l-.524-2.263a.287.287,0,0,0-.382-.2l-2.171.825a.287.287,0,0,0-.033.521l.511.273-1.748,3.287a3.545,3.545,0,0,0,.059,3.461A3.48,3.48,0,0,0,1122.861,10055.133Z" fill="#33d178"/>
    </g>
  </g>
</svg>
