<svg xmlns="http://www.w3.org/2000/svg" width="30" height="30" viewBox="0 0 30 30">
  <g id="グループ_143" data-name="グループ 143" transform="translate(-1260.717 -10103.21)">
    <path id="パス_312" data-name="パス 312" d="M1275.717,10105.913c4.005,0,4.48.015,6.061.087a8.3,8.3,0,0,1,2.786.517,4.969,4.969,0,0,1,2.846,2.847,8.287,8.287,0,0,1,.517,2.786c.072,1.581.087,2.056.087,6.061s-.015,4.48-.087,6.062a8.286,8.286,0,0,1-.517,2.785,4.969,4.969,0,0,1-2.846,2.847,8.3,8.3,0,0,1-2.786.517c-1.581.072-2.055.087-6.061.087s-4.48-.015-6.061-.087a8.291,8.291,0,0,1-2.785-.517,4.967,4.967,0,0,1-2.847-2.847,8.282,8.282,0,0,1-.517-2.785c-.072-1.581-.087-2.057-.087-6.062s.015-4.479.087-6.061a8.283,8.283,0,0,1,.517-2.786,4.967,4.967,0,0,1,2.847-2.847,8.291,8.291,0,0,1,2.785-.517c1.582-.072,2.056-.087,6.061-.087m0-2.7c-4.074,0-4.584.017-6.184.09a11.006,11.006,0,0,0-3.641.7,7.667,7.667,0,0,0-4.387,4.386,11.016,11.016,0,0,0-.7,3.643c-.073,1.6-.09,2.109-.09,6.184s.017,4.585.09,6.185a11.015,11.015,0,0,0,.7,3.642,7.672,7.672,0,0,0,4.387,4.387,11.034,11.034,0,0,0,3.641.7c1.6.073,2.11.09,6.184.09s4.585-.017,6.185-.09a11.039,11.039,0,0,0,3.641-.7,7.673,7.673,0,0,0,4.387-4.387,11.043,11.043,0,0,0,.7-3.642c.073-1.6.09-2.11.09-6.185s-.017-4.585-.09-6.184a11.045,11.045,0,0,0-.7-3.643,7.667,7.667,0,0,0-4.387-4.386,11.011,11.011,0,0,0-3.641-.7c-1.6-.073-2.111-.09-6.185-.09Z" fill="#fff"/>
    <path id="パス_313" data-name="パス 313" d="M1275.717,10110.507a7.7,7.7,0,1,0,7.7,7.7A7.7,7.7,0,0,0,1275.717,10110.507Zm0,12.7a5,5,0,1,1,5-5A5,5,0,0,1,1275.717,10123.21Z" fill="#fff"/>
    <circle id="楕円形_19" data-name="楕円形 19" cx="1.8" cy="1.8" r="1.8" transform="translate(1281.924 10108.403)" fill="#fff"/>
  </g>
</svg>
