<svg xmlns="http://www.w3.org/2000/svg" width="28" height="26.938" viewBox="0 0 28 26.938">
  <g id="グループ_317" data-name="グループ 317" transform="translate(-1477 -446.541)">
    <path id="パス_1046" data-name="パス 1046" d="M1493.61,450.559l2.034,3.714-.738.426a.388.388,0,0,0,.068.7l2.96,1.012a.387.387,0,0,0,.505-.291l.6-3.069a.387.387,0,0,0-.574-.41l-.6.349-2.024-3.7a5.3,5.3,0,0,0-9.293,0L1483,455.777a.388.388,0,0,0,.146.522l1.549.894a.387.387,0,0,0,.533-.15l3.567-6.518a2.7,2.7,0,0,1,2.379-1.422A2.773,2.773,0,0,1,1493.61,450.559Z" fill="#fff"/>
    <g id="グループ_316" data-name="グループ 316">
      <path id="パス_1047" data-name="パス 1047" d="M1504.413,465.312l-3.979-7.27a.387.387,0,0,0-.533-.15l-1.549.894a.387.387,0,0,0-.146.521l3.96,7.235a2.147,2.147,0,0,1-.042,2.153,2.2,2.2,0,0,1-1.893,1.054h-5.023v-.771a.387.387,0,0,0-.641-.293l-2.36,2.053a.388.388,0,0,0,0,.584l2.354,2.06a.387.387,0,0,0,.642-.291v-.78h5.014a4.773,4.773,0,0,0,4.079-2.258A4.689,4.689,0,0,0,1504.413,465.312Z" fill="#fff"/>
      <path id="パス_1048" data-name="パス 1048" d="M1481.779,472.31l8.287-.1a.388.388,0,0,0,.383-.4l-.063-1.786a.386.386,0,0,0-.391-.374l-8.247.1a2.15,2.15,0,0,1-1.882-1.048,2.2,2.2,0,0,1-.041-2.167l2.358-4.434.68.363a.387.387,0,0,0,.559-.429l-.7-3.047a.388.388,0,0,0-.515-.275l-2.924,1.111a.387.387,0,0,0-.045.7l.689.367-2.354,4.428a4.775,4.775,0,0,0,.078,4.661A4.69,4.69,0,0,0,1481.779,472.31Z" fill="#fff"/>
    </g>
  </g>
</svg>
