<svg xmlns="http://www.w3.org/2000/svg" width="47" height="47" viewBox="0 0 47 47">
  <g id="グループ_323" data-name="グループ 323" transform="translate(-1268.5 -42.5)">
    <circle id="楕円形_24" data-name="楕円形 24" cx="23.5" cy="23.5" r="23.5" transform="translate(1268.5 42.5)" fill="#fff"/>
    <path id="パス_997" data-name="パス 997" d="M1299.117,71.781a5.155,5.155,0,0,0-1.744-1.947,2,2,0,0,0-2.2.151,5.1,5.1,0,0,0-1.54,1.7,8.867,8.867,0,0,1-3.963-3.786,9.412,9.412,0,0,1-1.493-5.5,4.755,4.755,0,0,0,2.118-.688,2.211,2.211,0,0,0,1.107-2,5.431,5.431,0,0,0-.882-2.508,5.158,5.158,0,0,0-1.745-1.947,2,2,0,0,0-2.194.152,5.437,5.437,0,0,0-1.946,2.542,5.082,5.082,0,0,0-.251.876,7.117,7.117,0,0,0-.293,1.323c-.355,2.861.232,5.987,2.487,9.779s4.673,5.716,7.277,6.635a6.21,6.21,0,0,0,1.326.311,4.671,4.671,0,0,0,.673.106,5.02,5.02,0,0,0,3.034-.7,2.213,2.213,0,0,0,1.106-2A5.43,5.43,0,0,0,1299.117,71.781Z" fill="#231815"/>
  </g>
</svg>
