<svg xmlns="http://www.w3.org/2000/svg" width="19" height="20" viewBox="0 0 19 20">
  <g id="グループ_160" data-name="グループ 160" transform="translate(-1129.043 -9985)">
    <path id="パス_362" data-name="パス 362" d="M1147.634,9993.673l-8.381-8.38a1.006,1.006,0,0,0-1.419,0l-8.381,8.38c-.713.714-.471,1.3.538,1.3h0a.589.589,0,0,1,.588.588V10004a1.006,1.006,0,0,0,1,1h4.572a.587.587,0,0,0,.588-.588v-5.472a.588.588,0,0,1,.588-.589h2.425a.588.588,0,0,1,.588.589v5.472a.587.587,0,0,0,.588.588h4.572a1.006,1.006,0,0,0,1-1v-8.438a.588.588,0,0,1,.588-.588h0C1148.106,9994.971,1148.347,9994.387,1147.634,9993.673Z" fill="#faaa0a"/>
  </g>
</svg>
