<svg xmlns="http://www.w3.org/2000/svg" width="31.485" height="30.001" viewBox="0 0 31.485 30.001">
  <g id="グループ_148" data-name="グループ 148" transform="translate(-1324.515 -10104.709)">
    <g id="グループ_147" data-name="グループ 147">
      <g id="グループ_146" data-name="グループ 146">
        <g id="グループ_144" data-name="グループ 144">
          <path id="パス_314" data-name="パス 314" d="M1356,10117.484c0-7.044-7.062-12.775-15.743-12.775s-15.742,5.731-15.742,12.775c0,6.315,5.6,11.6,13.165,12.6.513.11,1.211.338,1.387.776a3.228,3.228,0,0,1,.051,1.423s-.184,1.111-.224,1.348c-.069.4-.317,1.558,1.363.85s9.066-5.339,12.369-9.141h0A11.365,11.365,0,0,0,1356,10117.484Z" fill="#fff"/>
        </g>
        <g id="グループ_145" data-name="グループ 145">
          <path id="パス_315" data-name="パス 315" d="M1350.763,10121.552h-4.423a.3.3,0,0,1-.3-.3v0h0v-6.858h0v-.006a.3.3,0,0,1,.3-.3h4.423a.3.3,0,0,1,.3.3v1.116a.3.3,0,0,1-.3.3h-3.006v1.159h3.006a.3.3,0,0,1,.3.3v1.116a.3.3,0,0,1-.3.3h-3.006v1.159h3.006a.3.3,0,0,1,.3.3v1.116A.3.3,0,0,1,1350.763,10121.552Z" fill="#06c755"/>
          <path id="パス_316" data-name="パス 316" d="M1334.4,10121.552a.3.3,0,0,0,.3-.3v-1.116a.3.3,0,0,0-.3-.3H1331.4v-5.453a.3.3,0,0,0-.3-.3h-1.116a.3.3,0,0,0-.3.3v6.865h0v0a.3.3,0,0,0,.3.3h4.422Z" fill="#06c755"/>
          <rect id="長方形_24" data-name="長方形 24" width="1.718" height="7.472" rx="0.301" transform="translate(1335.648 10114.08)" fill="#06c755"/>
          <path id="パス_317" data-name="パス 317" d="M1344.666,10114.08h-1.117a.3.3,0,0,0-.3.3v4.081l-3.143-4.245a.343.343,0,0,0-.024-.032l0,0-.018-.018-.006-.006-.016-.013-.008-.007-.016-.011-.009-.006-.017-.009-.01,0-.017-.008-.01,0-.018-.006-.011,0-.018,0-.012,0-.017,0h-1.136a.3.3,0,0,0-.3.3v6.87a.3.3,0,0,0,.3.3h1.116a.3.3,0,0,0,.3-.3v-4.079l3.147,4.251a.317.317,0,0,0,.078.075l0,0,.019.011.009,0,.014.008.015.006.01,0,.02.006.005,0a.339.339,0,0,0,.078.01h1.111a.3.3,0,0,0,.3-.3v-6.87A.3.3,0,0,0,1344.666,10114.08Z" fill="#06c755"/>
        </g>
      </g>
    </g>
  </g>
</svg>
