<svg xmlns="http://www.w3.org/2000/svg" width="47" height="47" viewBox="0 0 47 47">
  <g id="グループ_321" data-name="グループ 321" transform="translate(-1128.5 -42.5)">
    <circle id="楕円形_20" data-name="楕円形 20" cx="23.5" cy="23.5" r="23.5" transform="translate(1128.5 42.5)" fill="#ffc700"/>
    <path id="パス_987" data-name="パス 987" d="M1152,56.162c3.2,0,3.584.012,4.849.07a6.665,6.665,0,0,1,2.228.413,3.977,3.977,0,0,1,2.278,2.278,6.637,6.637,0,0,1,.413,2.228c.058,1.265.07,1.645.07,4.849s-.012,3.584-.07,4.849a6.637,6.637,0,0,1-.413,2.228,3.977,3.977,0,0,1-2.278,2.278,6.639,6.639,0,0,1-2.228.413c-1.265.058-1.645.07-4.849.07s-3.584-.012-4.849-.07a6.639,6.639,0,0,1-2.228-.413,3.977,3.977,0,0,1-2.278-2.278,6.663,6.663,0,0,1-.413-2.228c-.058-1.265-.07-1.645-.07-4.849s.012-3.584.07-4.849a6.662,6.662,0,0,1,.413-2.228,3.977,3.977,0,0,1,2.278-2.278,6.665,6.665,0,0,1,2.228-.413c1.265-.058,1.645-.07,4.849-.07M1152,54c-3.259,0-3.668.014-4.948.072a8.785,8.785,0,0,0-2.912.558,6.133,6.133,0,0,0-3.51,3.51,8.785,8.785,0,0,0-.558,2.912c-.058,1.28-.072,1.689-.072,4.948s.014,3.668.072,4.948a8.785,8.785,0,0,0,.558,2.912,6.133,6.133,0,0,0,3.51,3.51,8.785,8.785,0,0,0,2.912.558c1.28.058,1.689.072,4.948.072s3.668-.014,4.948-.072a8.785,8.785,0,0,0,2.912-.558,6.133,6.133,0,0,0,3.51-3.51,8.785,8.785,0,0,0,.558-2.912c.058-1.28.072-1.689.072-4.948s-.014-3.668-.072-4.948a8.785,8.785,0,0,0-.558-2.912,6.133,6.133,0,0,0-3.51-3.51,8.785,8.785,0,0,0-2.912-.558c-1.28-.058-1.689-.072-4.948-.072Z" fill="#fff"/>
    <path id="パス_988" data-name="パス 988" d="M1152,59.838A6.162,6.162,0,1,0,1158.162,66,6.162,6.162,0,0,0,1152,59.838ZM1152,70a4,4,0,1,1,4-4A4,4,0,0,1,1152,70Z" fill="#fff"/>
    <circle id="楕円形_21" data-name="楕円形 21" cx="1.44" cy="1.44" r="1.44" transform="translate(1156.966 58.154)" fill="#fff"/>
  </g>
</svg>
