<?xml version="1.0" encoding="UTF-8"?>
<svg id="_レイヤー_2" data-name="レイヤー 2" xmlns="http://www.w3.org/2000/svg" viewBox="0 0 115.83 183.78">
  <defs>
    <style>
      .cls-1 {
        fill: none;
        stroke: #231815;
        stroke-linecap: round;
        stroke-linejoin: round;
        stroke-width: 5.7px;
      }

      .cls-2 {
        fill: #ffff6e;
      }

      .cls-3 {
        fill: #231815;
      }

      .cls-4 {
        fill: #ff5d60;
      }
    </style>
  </defs>
  <g id="_レイヤー_3" data-name="レイヤー 3">
    <g>
      <g>
        <path class="cls-3" d="M57.9,169.29c-.99,0-2.05-.03-3.13-.08-4.9-.06-8.73-1.08-11.75-3.12l-7.36-6.44c-1.93-1.66-2.78-3.89-3.68-6.26-.41-1.09-.84-2.21-1.38-3.25l-.29-.55-25.02,.48c-.75-.44-1.54-.5-2.09-.5-.51,0-1.05,.06-1.56,.11-.52,.06,.49-.18,0,0-.92,.34-1.68-.47-1.48-1.78l-.03-1.01-.05-.98c-.14-2.33-.29-4.98,.92-7.43,1-2.03,1.96-4.11,2.89-6.13,.87-1.89,1.77-3.85,2.7-5.74,1.19-2.42,2.53-4.81,3.83-7.12l.57-1.01c4.8-8.97,10.49-14.99,17.4-18.43l.09-.04,.08-.06c7.53-5.74,16.13-7.8,25.78-9.71l.8-.16,.1-24.56h-.08c.02-.1,.03-.22,.05-.33,.19-1.22,.38-2.48,.39-3.76,.03-2.85-.04-5.74-.11-8.53-.03-1.07-.05-2.14-.07-3.2-.03-1.64-.06-3.28-.09-4.92-.04-2.24-.09-4.54,.17-6.77l.56-21.5h-.17S56.18,.24,56.18,.24c.18-.08,.36-.16,.54-.24,1.69,1.05,1.86,1.93,1.61,3.51-.16,.99-.16,1.99-.16,2.95v.15c0,1.4,.02,2.8,.03,4.19,.02,2.6,.05,5.28,.01,7.92-.01,.82-.12,1.64-.23,2.51-.1,.79-.21,1.61-.24,2.44-.05,1.41-.03,2.83-.01,4.21,.01,.73,.02,1.47,.02,2.2,0,.86-.01,1.72-.02,2.58-.02,1.54-.04,3.14,0,4.72,.03,1.22,.12,2.44,.19,3.63,.1,1.57,.21,3.2,.21,4.78,0,1.55-.18,3.13-.35,4.79-.08,.79-.17,1.6-.24,2.45v.11s.36,19.3,.36,19.3h-.22s.31,16.11,.31,16.11l.2,.26c.77,1.01,1.78,1.52,3,1.52,.9,0,1.76-.27,2.59-.53,.51-.16,.99-.31,1.42-.37,.5-.07,1.01-.11,1.53-.11,1.76,0,3.43,.42,5.04,.83l.79,.2c3.14,.79,6.38,1.6,9.36,2.83,2.79,1.14,5.4,2.86,7.84,4.52,2.17,1.48,4.33,3.23,6.4,5.21,.83,.79,1.56,1.67,2.33,2.61,.94,1.14,1.91,2.31,3.06,3.3,2.54,2.17,3.99,5.01,5.51,8.01,.29,.56,.57,1.12,.86,1.68,.76,1.45,1.27,3.02,1.82,4.69,.31,.94,.62,1.91,.99,2.86,.25,.64,.65,1.19,.94,1.59,.06,.08,.12,.16,.17,.23,.2,.75,.41,1.48,.6,2.2,.47,1.69,.91,3.28,1.29,4.88,.81,3.37,1.55,6.79,2.09,9.39,0,0,0,0,0,0-.01,0-.05,.14-.21,.38-.14,.24-.29,.46-.43,.69-.28,.43-.57,.88-.83,1.38-1.24,.76-4.15,1.28-6.14,1.28h0c-.77,0-1.13-.08-1.25-.11l-.14-.04-18.26,.35-.22,.68c-1.87,5.86-5.98,10.91-12.57,15.45-4.94,3.4-10.45,4.92-17.87,4.92Z"/>
        <path class="cls-4" d="M111.82,144.65c-25.31,.48-50.24,.95-75.18,1.43,0,.04,0,.08,.01,.11-11.1,.21-22.2,.42-33.66,.64,.46-2.87-.77-5.97,1.56-7.84,1.45-3.34,2.45-6.28,3.93-8.96,2.98-5.41,6.22-10.68,9.37-15.99,2-3.37,4.97-5.84,8.04-8.13,3.03-2.26,6.23-4.3,9.4-6.37,.47-.3,1.17-.24,1.71-.52,3.94-2.09,8.17-3.25,12.53-4.02,6.04-2.08,12.42-1.9,18.53-1.69,6.21,.21,12.07,3.12,18.15,6.09,.7,.61,1.73,1.7,2.96,2.5,3.03,1.98,4.86,5.11,7.43,7.52,1.1,1.03,1.85,2.52,3.08,3.32,2.94,1.92,3.54,5.11,4.77,7.95,1.64,3.8,3.21,7.63,4.63,11.52,.62,1.68,.72,3.55,1.15,5.31,.37,1.47,.95,2.88,1.32,4.35,.21,.85,.18,1.75,.26,2.78Z"/>
        <path class="cls-3" d="M92.78,175.45c-.52,.46-1.1,.98-1.86,1.65-2.6-1.41-4.87-3.04-6-5.84,2.25-2.22,6.6,.14,7.86,4.19Z"/>
        <path class="cls-2" d="M83.33,149.13c.34-.02,.7,.31,1.58,.74-1.25,1.77-2.39,3.38-3.53,4.99-.46,.65-.89,1.34-1.44,1.91-3.4,3.53-7.26,6.59-11.85,8.19-3.2,1.12-6.67,1.88-10.31,.9-1.9-.51-4.1,.2-6.13,0-2.08-.2-4.49,.09-5.15-1.27-5.45-4.53-10.4-7.95-12.71-14.34,4.09-.08,7.99-.16,11.88-.23,3.78-.06,7.57-.12,11.35-.17,4.45-.05,8.9-.08,13.35-.13,2.36-.03,4.71-.04,7.06-.15,1.97-.09,3.94-.34,5.91-.45Z"/>
        <path class="cls-3" d="M58.65,174.62c.57,.29,1.16,1.19,1.17,1.84,.04,2.33-.16,4.66-.29,7.33-1.5-.2-2.65-.36-3.93-.53,.08-2.33,.15-4.36,.24-6.88,.09-.11,.43-.72,.95-1.07,.55-.38,1.45-.89,1.86-.68Z"/>
        <path class="cls-3" d="M32.57,170.02c.42,2.41-2.15,6.57-4.47,7.51-2.58-1.45-2.6-2.33-.15-5.48,.52-.67,1-1.36,1.69-2.31,.94,.09,1.96,.19,2.93,.28Z"/>
      </g>
      <g>
        <g>
          <path class="cls-1" d="M43.75,132.65c-1.24,.24-2.66,.36-4.23,.36l-.91-12.01-4.07,11.82c-1.01,.18-1.99,.26-2.98,.24l-3.92-12.21-1.24,12.15c-1.22-.11-2.43-.18-3.64-.21l2.35-16.59c1.48-.1,2.96-.25,4.44-.46l3.7,11.71,4.27-11.58c1.41,.12,2.82,.17,4.24,.18l2,16.59h0Z"/>
          <path class="cls-1" d="M58.34,132.84h-10.94v-16.8h10.69c.09,1.08-.1,2.23-.15,3.34h-6.38v3.56h5.35c.08,.89-.08,1.85-.13,2.78h-5.22v3.71h6.94c.1,1.1-.1,2.27-.16,3.41Z"/>
          <path class="cls-1" d="M76.78,115.96v16.88l-2.86,.11-8.45-10.59v10.48c-1.27,.15-2.4,.18-3.59,.07v-16.87c1.25,0,2.34-.04,2.99-.1l8.32,10.29v-6.14h0v-4.05c1.82,0,3.12-.04,3.59-.08Z"/>
          <path class="cls-1" d="M91.88,116.03c1.94,0,3.33-.05,3.84-.08v9.41c0,4.85-2.66,7.8-7.27,7.8s-7.52-2.96-7.52-7.8v-9.33c2.1,0,3.61-.05,4.16-.09v9.42c0,2.61,1.28,4.21,3.42,4.21s3.37-1.6,3.37-4.21v-5.28h0v-4.05h0Z"/>
        </g>
        <g>
          <path class="cls-2" d="M43.75,132.65c-1.24,.24-2.66,.36-4.23,.36l-.91-12.01-4.07,11.82c-1.01,.18-1.99,.26-2.98,.24l-3.92-12.21-1.24,12.15c-1.22-.11-2.43-.18-3.64-.21l2.35-16.59c1.48-.1,2.96-.25,4.44-.46l3.7,11.71,4.27-11.58c1.41,.12,2.82,.17,4.24,.18l2,16.59h0Z"/>
          <path class="cls-2" d="M58.34,132.84h-10.94v-16.8h10.69c.09,1.08-.1,2.23-.15,3.34h-6.38v3.56h5.35c.08,.89-.08,1.85-.13,2.78h-5.22v3.71h6.94c.1,1.1-.1,2.27-.16,3.41Z"/>
          <path class="cls-2" d="M76.78,115.96v16.88l-2.86,.11-8.45-10.59v10.48c-1.27,.15-2.4,.18-3.59,.07v-16.87c1.25,0,2.34-.04,2.99-.1l8.32,10.29v-6.14h0v-4.05c1.82,0,3.12-.04,3.59-.08Z"/>
          <path class="cls-2" d="M91.88,116.03c1.94,0,3.33-.05,3.84-.08v9.41c0,4.85-2.66,7.8-7.27,7.8s-7.52-2.96-7.52-7.8v-9.33c2.1,0,3.61-.05,4.16-.09v9.42c0,2.61,1.28,4.21,3.42,4.21s3.37-1.6,3.37-4.21v-5.28h0v-4.05h0Z"/>
        </g>
      </g>
    </g>
  </g>
</svg>