<?xml version="1.0" encoding="UTF-8"?>
<svg id="_レイヤー_2" data-name="レイヤー 2" xmlns="http://www.w3.org/2000/svg" viewBox="0 0 1823.45 87.82">
  <defs>
    <style>
      .cls-1 {
        fill: gray;
      }

      .cls-2 {
        fill: #ccc;
      }

      .cls-3 {
        fill: #231815;
      }
    </style>
  </defs>
  <g id="design">
    <g>
      <g>
        <polygon class="cls-1" points="1765.26 84.78 1757.9 85.9 1750.82 85.9 1743.76 85.53 1736.47 84.51 1729.05 85.08 1721.95 86.16 1714.9 85.81 1707.59 85.61 1700.54 86.16 1693.26 84.58 1685.95 85.94 1678.94 85.49 1671.7 84.59 1664.38 84.9 1657.15 84.89 1649.95 85.82 1642.84 85.87 1635.72 85.52 1628.55 85.05 1621.24 84.83 1614.05 85.19 1606.85 84.82 1599.58 85.15 1592.4 85.92 1585.24 85.53 1577.95 86.02 1570.92 86.18 1563.7 85.36 1556.48 85.66 1549.2 85.03 1541.94 86.16 1534.98 86.18 1527.75 84.95 1520.39 85.3 1513.18 85.36 1506.05 86.04 1498.88 85.49 1491.72 85.85 1484.58 84.94 1477.19 84.72 1470.01 85.61 1462.79 85.23 1455.57 86.26 1448.54 86.13 1441.31 85.48 1434.15 85.66 1426.83 84.56 1419.52 85.89 1412.54 85.96 1405.23 85.15 1398.08 86.25 1390.99 85.01 1383.54 85.08 1376.47 86.26 1369.29 85.04 1361.95 86.04 1354.98 86.15 1347.82 84.98 1340.47 84.63 1333.2 84.94 1326.07 85.33 1318.89 84.86 1311.54 85.03 1304.4 85.99 1297.27 85.62 1290.09 85.86 1282.86 85.35 1275.72 85.83 1268.54 84.8 1261.2 85.12 1254.12 85.85 1247 84.57 1239.66 84.59 1232.34 84.76 1225.25 85.75 1218.16 84.89 1210.74 84.76 1203.65 86.02 1196.46 84.79 1189.16 86.04 1182.2 85.78 1174.9 84.61 1167.66 85.37 1160.43 84.54 1153.26 85.62 1146.14 84.52 1138.79 84.86 1131.62 85 1124.37 85.41 1117.18 85.73 1110.09 85.81 1102.89 85.27 1095.73 85.36 1088.5 84.51 1081.18 84.82 1073.89 85.22 1066.82 86.29 1059.73 85.41 1052.5 85.51 1045.26 84.88 1037.95 85.32 1030.8 85.51 1023.69 85.94 1016.45 84.93 1009.06 85.77 1002.05 86.29 994.97 85.62 987.64 84.5 980.39 85.56 973.17 84.95 965.99 86.1 958.9 85.31 951.61 85.37 944.44 85.5 937.3 85.14 929.95 84.79 922.76 85.79 915.71 85.37 908.47 85.12 901.2 85.21 894.02 84.84 886.74 85.15 879.63 85.44 872.51 84.95 865.07 84.55 857.99 86.2 850.97 84.72 843.57 84.61 836.31 85.06 829.06 85.72 822.08 85.91 814.76 84.89 807.46 86.21 800.48 86.16 793.26 85.29 785.96 85.43 778.68 85.91 771.65 85.98 764.53 85.23 757.09 84.86 749.84 86.07 742.93 86.13 735.56 84.51 728.2 86.23 721.17 86.21 714.12 86.06 706.77 84.71 699.54 86 692.49 84.97 685.11 84.87 677.93 85.54 670.77 85.26 663.51 85.6 656.47 85.9 649.26 84.77 641.91 85.11 634.67 85.91 627.67 86.15 620.51 84.92 613.2 84.78 598.74 85.13 591.64 84.86 584.33 84.73 577.05 85.37 570.01 85.52 562.78 85.01 555.56 85.46 548.34 85.08 541.04 85.7 534.07 85.86 526.87 84.72 519.53 84.92 512.27 85.38 505.13 86.22 498.01 85.66 490.85 85.73 483.61 84.81 476.27 85.23 469.19 85.58 461.94 84.92 454.75 85.73 447.58 84.97 440.36 85.42 433.14 84.79 425.91 85.45 418.7 85.11 411.48 85.8 404.37 85.6 397.2 85.25 389.83 84.72 382.69 86.15 375.54 85.05 368.2 86.01 361.14 86.16 354.05 85.75 346.77 84.76 339.43 85.13 332.14 85.37 325.16 86.1 317.93 84.71 310.63 85.76 303.51 85.21 296.3 85.43 289.1 84.97 281.82 85.19 274.6 85.5 267.55 85.78 260.22 84.58 252.91 86.06 245.92 85.93 238.62 85.26 231.5 86.11 224.34 84.61 216.93 85.06 209.86 85.75 202.67 84.58 195.29 85.19 188.13 86 181 86.02 173.85 85.81 166.56 85.67 159.42 86.26 152.24 85.41 144.98 85.85 137.86 85.46 130.67 84.61 123.31 84.6 116.05 85.16 108.9 85.82 101.87 85.72 94.52 84.62 87.3 85.9 80.26 85.01 72.88 84.68 65.55 85.44 58.49 85.91 51.36 85.6 44.16 84.95 36.88 84.95 29.67 84.94 22.34 85.26 15.2 86.18 8.08 85.71 2.18 85.75 2.92 79.84 2.97 72.44 1.56 65.4 2.78 58.38 2.77 51.08 2.52 43.87 2.26 36.7 2.12 29.56 2.38 22.48 2.41 15.17 1.51 8.06 2.04 2.48 8.06 3.27 15.36 1.86 22.42 1.85 29.61 1.89 36.68 1.77 43.95 3.21 51.32 2.39 58.47 2.16 65.62 1.67 72.73 2.11 80.02 2.12 87.25 1.67 94.24 1.8 101.51 3.33 108.84 2.82 116.05 3.04 123.27 2.41 130.33 2.41 137.63 3.12 144.86 2.11 152 2.5 159.12 2 166.34 3.2 173.62 2.43 180.85 2.91 187.95 1.81 195.03 3.21 202.44 3.3 209.72 2.65 216.76 1.9 223.97 2.93 231.17 2.07 238.32 3.14 245.75 2.72 252.8 1.64 259.91 2.65 267.24 2.39 274.35 2.58 281.66 2.42 288.73 1.79 295.99 2.92 303.31 1.66 310.21 1.64 317.47 3.26 324.82 2.61 332.03 2.78 339.21 2.05 346.42 2.37 353.52 1.61 360.77 2.94 368.06 1.62 375.01 2.06 382.35 3.27 389.78 2.28 396.73 1.71 403.91 2.71 411.12 2.34 418.29 3.26 425.75 3.17 432.85 1.55 439.92 2.38 447.11 1.98 454.35 3 461.65 2.16 468.81 2.21 476 1.75 483.07 1.87 490.21 2.66 497.68 3.06 504.79 1.64 511.86 2.88 519.14 2.71 526.44 3.22 533.69 2.05 540.76 2.13 547.9 1.75 555.04 2.82 562.38 3.04 569.7 2.71 576.84 1.81 583.93 2 591.21 1.81 598.26 1.98 605.57 2.97 612.87 2.06 619.86 2.09 627.07 3.25 634.48 3.16 641.76 2.26 648.79 1.81 655.98 2.13 663.19 1.8 670.34 2 677.52 2.26 684.79 2.22 691.98 1.83 699.11 2.19 706.31 2.1 713.51 2.95 720.92 2.86 728.03 1.74 735.19 2.51 742.46 1.72 749.49 1.84 756.81 2.66 764.04 1.66 771.08 2.18 778.29 2.71 785.51 3.1 792.95 3.09 800.05 1.7 807.21 2.67 814.35 1.6 821.51 3.18 828.95 2.42 836.07 1.74 843.2 1.75 850.31 2.2 857.65 3.15 864.95 1.77 871.88 1.72 879.1 3.08 886.46 2.87 893.66 3 900.81 2.47 907.96 3.08 915.23 3.02 922.46 2.58 929.6 2.7 936.83 3.27 944.15 2.69 951.25 1.76 958.27 2.5 965.63 2.82 972.89 2.53 980.01 1.94 987.18 2.81 994.57 2.43 1001.68 1.51 1008.73 2.04 1015.97 2.91 1023.21 2.81 1030.43 3.26 1037.82 2.99 1044.97 1.6 1052 1.84 1059.18 2.22 1066.47 2.18 1073.66 2.17 1080.9 2.47 1088.1 2.29 1095.19 2.42 1102.54 3.05 1109.78 1.7 1116.87 1.97 1124.12 1.71 1131.26 1.73 1138.41 1.98 1145.55 2.51 1152.82 2.69 1160.04 3.06 1167.38 2.84 1174.45 1.84 1181.55 2.85 1188.87 2.81 1196.17 2.86 1203.3 1.8 1210.32 2.48 1217.64 3.19 1224.96 2.67 1232.06 2.65 1239.3 2.45 1246.41 2.3 1253.6 2.88 1260.87 2.83 1268.01 3.11 1275.4 3.08 1282.61 1.81 1289.69 1.71 1296.79 2.06 1304.08 1.97 1311.31 1.75 1318.45 1.84 1325.57 2.06 1332.72 2.83 1340.11 3.22 1347.29 2.57 1354.54 3.11 1361.71 2.01 1368.92 2.84 1376.11 1.63 1383.22 2.65 1390.56 2.32 1397.76 2.02 1404.87 2.14 1412.06 1.86 1419.3 2.5 1426.63 1.89 1433.77 1.61 1440.77 1.59 1448.03 2.99 1455.44 2.4 1462.52 2.03 1469.73 2.46 1476.87 2.01 1484.01 3.05 1491.46 3.23 1498.55 1.9 1505.6 3.11 1513.03 3.32 1520.26 2.32 1527.36 2.29 1534.63 2.23 1541.68 1.62 1548.96 3.09 1556.19 1.75 1563.34 2.94 1570.74 2.15 1577.74 1.58 1584.9 2.71 1592.17 2.48 1599.29 3.05 1606.77 3.27 1613.86 1.55 1620.98 2.92 1628.22 1.92 1635.3 2.89 1642.71 3.07 1649.95 2.05 1656.99 1.91 1664.13 2.45 1671.39 3.2 1678.81 2.93 1685.89 1.6 1693.02 2.57 1700.4 1.9 1707.45 1.51 1714.63 2.11 1721.91 2 1729.05 2.2 1736.23 2.15 1743.42 2.89 1750.7 2.95 1757.94 3.27 1765.22 2.85 1772.39 2.61 1779.52 1.97 1786.65 2.83 1794.04 2.98 1801.22 2.13 1808.31 2.46 1815.52 2.85 1820.92 2.83 1820.96 8.03 1820.47 15.28 1821.3 22.41 1820.45 29.63 1821.94 36.8 1821.16 43.73 1820.74 51.06 1821.12 58.31 1821.63 65.34 1820.6 72.51 1821.19 79.86 1821.44 85.53 1815.69 85.25 1808.38 84.93 1801.21 85.66 1793.96 85.06 1786.74 86.21 1779.61 85.84 1772.52 86.31 1765.26 84.78"/>
        <path class="cls-3" d="M1001.72,3.01l6.83,.52,7.14,.85,.2,.02h.2s7.09-.1,7.09-.1l7.09,.45h.15s.15,0,.15,0l7.2-.26h.23s.23-.05,.23-.05l6.87-1.34,6.83,.24,7.18,.38h.09s.09,0,.09,0l7.19-.04h7.14s7.14,.29,7.14,.29h.1s.1,0,.1,0l7.14-.18,7.04,.13,7.1,.61,.41,.03,.4-.07,6.87-1.28,6.87,.26h.11s.11,0,.11,0l7.14-.25h7.09s7.09,.26,7.09,.26l7.14,.53h.07s.07,0,.07,0l7.16,.18,7.16,.36h.12s.12,0,.12,0l7.2-.21h.17s.17-.03,.17-.03l6.78-.96,6.78,.97,.22,.03h.22s7.17-.04,7.17-.04l7.2,.05h.23s.23-.03,.23-.03l6.84-1.01,6.83,.65,7.2,.7,.25,.02,.25-.02,7.1-.5,7.1-.03h.07s7.18-.2,7.18-.2l7.05-.15,7.05,.57h.13s.13,0,.13,0l7.13-.05,7.13,.28h.07s.07,0,.07,0l7.2-.03h.26s.25-.05,.25-.05l6.96-1.23,6.86-.1,7.1,.35h.09s.09,0,.09,0l7.2-.09h.03s.03,0,.03,0l7.14-.22,7.11,.08,7.05,.22,7.09,.77h.08s.08,.01,.08,.01l7.2,.37h.21s.21,0,.21,0l6.95-.63,6.95,.52,.34,.03,.34-.05,6.81-1.04,6.81,.78,.42,.05,.42-.07,6.74-1.13,6.74,.97,.28,.04h.28s7.19-.34,7.19-.34l7.11-.3,7.11,.12h.09s.08,0,.08,0l7.01-.28,7.01,.62,.26,.02,.26-.02,7.13-.59,7.08-.27,6.86-.02,6.92,1.33,.4,.08,.41-.03,7.16-.57,7-.36,7.04,.42h.18s.18,0,.18,0l6.89-.44,6.89,1.01,.18,.03h.18s7.2,.17,7.2,.17h.31s.31-.05,.31-.05l6.67-1.25,6.67,1.15,.21,.04h.21s7.21,.2,7.21,.2h.25s.24-.03,.24-.03l7.01-.96,7.02-.03,7.2-.06h.12s.12-.01,.12-.01l6.77-.59,6.78,1.38,.57,.12,.57-.11,6.69-1.24,6.69,1.11,.4,.07,.41-.04,7.17-.76,6.81-.56,6.85,1.08,.28,.04h.28s7.04-.23,7.04-.23l7.04,.56h.07s.07,0,.07,0l7.2,.21h.4s.39-.08,.39-.08l6.58-1.59,6.56,1.26,.48,.09,.49-.07,6.79-.93,6.8,.92,.16,.02h.17s7.21,.18,7.21,.18h.25s.24-.03,.24-.03l7.02-.99,6.88-.14,7.02,.53,7.17,.74,.21,.02h.21s7.21-.27,7.21-.27h.22s.22-.05,.22-.05l6.73-1.26,6.72,.92,.34,.05,.34-.03,7.15-.65,6.95-.38,7,.58h.15s.15,0,.15,0l7.14-.11,7.15,.2h.05s.05,0,.05,0l7.04-.05,7.04,.73h.14s.14,.02,.14,.02l7.16,.06,7.15,.32h.15s.15,0,.15,0l7.17-.42,7.17-.24h.08s.08,0,.08,0l6.9-.61,6.9,.83,.15,.02h.15s7.21,.15,7.21,.15h.21s.21-.02,.21-.02l6.96-.83,6.94,.33,7.22,.39h.09s.09,0,.09,0h3.82s.03,3.64,.03,3.64l-.48,7.05-.02,.28,.03,.28,.8,6.81-.81,6.81-.06,.49,.1,.48,1.39,6.69-.75,6.69v.08s-.01,.08-.01,.08l-.4,7.17v.16s0,.16,0,.16l.38,7.17v.03s0,.03,0,.03l.49,6.84-.99,6.85-.05,.33,.03,.34,.58,7.12,.18,4.02-4.12-.2-7.2-.31h-.22s-.22,.01-.22,.01l-6.93,.7-6.92-.58-.36-.03-.36,.06-6.89,1.1-6.88-.36h-.18s-.18,0-.18,0l-6.79,.45-6.8-1.43-.53-.11-.54,.08-6.98,1.06h-6.9s-6.99-.36-6.99-.36l-7.07-.99-.32-.04-.32,.03-7.2,.56h-.11s-.11,.03-.11,.03l-6.9,1.04-6.9-.34h-.03s-.03,0-.03,0l-7.2-.19h-.16s-.15,0-.15,0l-6.76,.52-6.77-1.47-.59-.13-.6,.11-6.83,1.28-6.73-.44-7.11-.88-.25-.03h-.25s-7.13,.31-7.13,.31h-7.14s-.19,0-.19,0l-.19,.02-7.02,.91-6.93,.05-7.07-.35-7.2-.46h-.05s-.05,0-.05,0l-7.2-.22h-.12s-.12,0-.12,0l-7.05,.35-7.05-.36h-.14s-.15,0-.15,0l-7.2,.33h-.09s-.09,.01-.09,.01l-6.96,.75-6.96-.37h-.18s-.18,0-.18,0l-7.14,.48-6.92,.16-7-.79-.23-.03h-.23s-7,.3-7,.3l-7.01-.61-.36-.03-.36,.06-6.97,1.09h-6.71s-6.95-1.16-6.95-1.16l-.32-.05h-.32s-7.15,.35-7.15,.35l-7.14,.06h-.13s-.13,.01-.13,.01l-6.94,.66-6.94-.53h-.19s-.19,0-.19,0l-6.93,.35-6.94-.88-.14-.02h-.14s-7.2-.22-7.2-.22h-.23s-.23,.02-.23,.02l-6.94,.86-6.94-.36h-.29s-.29,.03-.29,.03l-6.96,.99-6.85-.12-7.09-.65-.17-.02h-.17s-6.94,.18-6.94,.18l-6.94-1.04-.49-.07-.49,.09-6.95,1.26-6.76,.07-7.02-.78-.4-.04-.39,.06-6.71,1.04-6.71-1.18-.27-.05h-.28s-7.2,.07-7.2,.07h-.23s-.23,.04-.23,.04l-6.7,1.12-6.7-1.14-.45-.08-.46,.06-7.02,.96-6.75,.1-6.94-1.13-.17-.03h-.17s-7.2-.35-7.2-.35h-.13s-.13,0-.13,0l-7.24,.3-7.02,.39-7.02-.47h-.14s-.14,0-.14,0l-7.2,.17h-.16s-.16,.03-.16,.03l-6.92,.93-6.92-.36h-.13s-.13,0-.13,0l-7.04,.23-7.04-.5h-.21s-.21,0-.21,0l-6.88,.46-6.89-.99-.28-.04h-.28s-7.2,.33-7.2,.33h-.09s-.09,.01-.09,.01l-6.78,.71-6.78-1.22-.27-.05h-.27s-7.2,.02-7.2,.02h-.06s-7.2,.17-7.2,.17h-.17s-.17,.03-.17,.03l-6.81,.95-6.81-.83-.16-.02h-.16s-7.2-.12-7.2-.12h-.29s-.29,.05-.29,.05l-6.68,1.19-6.68-1.15-.51-.09-.51,.09-6.89,1.18-6.71-.25-7.02-1.12-.39-.06-.4,.04-6.87,.72-6.87-.79-.4-.05-.4,.06-6.75,1.02-6.75-1.04-.3-.05h-.3s-7.16,.34-7.16,.34l-7.16,.14h-.05s-.05,0-.05,0l-7.17,.4-7.15,.32-7.02,.09-7.07-.53h-.13s-.13,0-.13,0l-7.01,.09-7.01-.83-.24-.03h-.24s-7.24,.31-7.24,.31l-7.2,.4h-.14s-.14,.03-.14,.03l-6.79,1.03-6.79-.84-.2-.03h-.21s-7.05,.1-7.05,.1l-7.05-.62-.22-.02h-.22s-7.16,.45-7.16,.45l-7.15,.19h-.05s-.05,0-.05,0l-6.91,.41-6.91-.96-.37-.05-.37,.04-7.15,.81-6.89,.52-6.86-.65-7.12-1.09-.45-.07-.45,.07-6.86,1.01-6.85-.58-.37-.03-.36,.06-6.8,1.09-6.8-.75-.18-.02h-.18s-7.24,.05-7.24,.05l-7.1,.14-7.11-.36-7.2-.35h-.28s-.28,.03-.28,.03l-6.91,.96-6.9-.41h-.04s-.04,0-.04,0l-7.2-.25h-.07s-.07,0-.07,0l-7.11,.09-7.11-.36h-.14s-.14,0-.14,0l-7.19,.31-7.04,.29-7.08-.49-7.2-.39-.43-.02-.42,.1-6.55,1.52-6.55-1.38-.28-.06h-.29s-7.2-.12-7.2-.12h-.12s-.12,0-.12,0l-7.2,.45h-.04s-.04,0-.04,0l-7.11,.65-6.86,.19-6.95-.97-.48-.07-.47,.09-6.92,1.26-6.75-.06-7.03-.84-.21-.03h-.21s-7.2,.15-7.2,.15h-.07s-.07,0-.07,0l-7.12,.47-6.95,.07-7.03-.74h-.08s-.08-.01-.08-.01l-7.2-.36-.32-.02-.32,.05-6.97,1.16-6.63,.06-6.87-1.51-.66-.15-.66,.16-6.86,1.6-6.83-.02-6.93-.14-6.96-1.29-.54-.1-.54,.1-6.72,1.2-6.72-.98-.19-.03h-.2s-7.2-.1-7.2-.1h-.16s-.16,.01-.16,.01l-7,.66-7-.27h-.13s-.13,0-.13,0l-7.18,.34-6.9,.29-6.91-1.09-.3-.05h-.3s-7.2,.34-7.2,.34h-.1s-.1,.02-.1,.02l-7.09,.79-6.78,.23-6.9-1.19-.22-.04h-.23s-7.2-.14-7.2-.14h-.06s-.06,0-.06,0l-7.2,.17-7.1,.17-7.1-.28h-.03s-.03,0-.03,0l-7.2-.12h-.15s-.15,.01-.15,.01l-7.11,.62-6.96,.16-7.07-.5h-.2s-.2,0-.2,0l-7.03,.44-7.03-.37h-.21s-.21,0-.21,0l-7.1,.61-6.84,.16-6.93-1.09-.27-.04h-.27s-7.2,.2-7.2,.2h-.05s-.05,0-.05,0l-7.2,.46h-.08s-.08,.01-.08,.01l-6.91,.81-6.91-.54h-.13s-.13,0-.13,0l-7,.06-7-.88-.27-.03-.27,.02-7.18,.41-6.99,.35-6.99-.64-.31-.03-.3,.03-6.88,.78-6.88-.73-.25-.03-.25,.02-6.98,.44-6.98-.61-.27-.02-.27,.02-6.99,.64-6.99-.33h-.21s-.21,.01-.21,.01l-7.02,.67-6.99-.2-7.13-.35-7.17-.51-.41-.03-.4,.08-6.68,1.35-6.68-1.03-.42-.07-.42,.06-7.04,.92-6.92,.15-6.97-.4-7.09-.96-.27-.04h-.28s-7.16,.37-7.16,.37l-7.2,.24h-.11s-.11,.01-.11,.01l-6.76,.71-6.77-1.3-.5-.09-.5,.07-6.88,.99-6.87-.53h-.16s-.16,0-.16,0l-7.06,.22-7.06-.46h-.14s-.14,0-.14,0l-7.24,.22-7.2,.3-6.9,.28-6.91-1.13-.54-.09-.54,.11-6.88,1.39-6.77-.13-7.1-.65-.32-.03-.32,.04-6.72,.81-6.72-1.41-.39-.08-.4,.02-7.2,.43h-.06s-.06,0-.06,0l-6.82,.67-6.82-1.11-.36-.06-.37,.03-7.2,.59h-.04s-.04,0-.04,0l-7.04,.79-6.99,.02-7.18-.2-7.2-.14h-.15s-.15,0-.15,0l-6.91,.57-6.9-.82-.27-.03-.27,.02-7.03,.43-6.94-.38-7.11-.84-.17-.02h-7.38s-.12-.01-.12-.01h-.12s-7.25,.58-7.25,.58l-7.05,.65-6.85-.1-7.01-1.05-.48-.07-.48,.09-6.76,1.19-6.76-.85h-.12s-.12-.02-.12-.02l-7.21-.33h-.22s-.22,.01-.22,.01l-7.16,.74-6.98,.47-6.97-.3-7.14-.65h-.14s-.14-.01-.14-.01h-7.2s-7.21,0-7.21,0h-.14s-7.21,.32-7.21,.32h-.13s-.13,.02-.13,.02l-6.92,.89-6.93-.45h-.11s-.11,0-.11,0l-4.14,.02,.52-4.12,.02-.18v-.18s.05-7.17,.05-7.17v-.31s-.06-.3-.06-.3l-1.33-6.61,1.15-6.61,.05-.26v-.26s-.02-7.17-.02-7.17v-.05s0-.05,0-.05l-.24-7.17-.26-7.13-.13-7.06,.26-7.08v-.05s0-.05,0-.05l.02-7.17v-.19s-.02-.19-.02-.19l-.87-6.84,.37-3.87,4.24,.56,.48,.06,.48-.09,6.92-1.33h6.89s7.2,.03,7.2,.03h.07l6.88-.11,6.89,1.36,.45,.09,.46-.05,7.09-.79,7.08-.22h.06s.06,0,.06,0l7.01-.48,7,.43h.09s.09,0,.09,0h7.2s.09,0,.09,0h.09s7.08-.44,7.08-.44l6.8,.13,6.92,1.45,.41,.09,.42-.03,7.05-.49,7.05,.21h.18s.18-.01,.18-.01l7.07-.62h6.92s7.05,.69,7.05,.69l.36,.04,.35-.05,6.91-.97,6.91,.38h.19s.19,0,.19,0l6.85-.48,6.85,1.14,.4,.07,.41-.04,6.94-.74,6.94,.46,.33,.02,.33-.05,6.68-1.04,6.68,1.32,.27,.05h.27s7.2,.09,7.2,.09h.15s.15-.01,.15-.01l7.2-.64h.03s.03,0,.03,0l6.83-.73,6.83,.98,.39,.06,.39-.05,6.8-.81,6.8,1.02,.31,.05,.31-.02,7.2-.42h.14s.14-.03,.14-.03l6.76-1.03,6.76,.95,.26,.04h.26s7.11-.25,7.11-.25l7.11,.18h.07s.07,0,.07,0l7.2-.15h.1s.1-.01,.1-.01l6.83-.61,6.83,1.07,.49,.08,.49-.08,6.95-1.2,6.61-.02,6.87,1.54,.46,.1,.46-.04,7.03-.62,7.03,.16h.19s.19-.01,.19-.01l6.98-.71,6.98,.31h.23s.23-.01,.23-.01l6.77-.73,6.77,1.25,.54,.1,.54-.1,6.84-1.25,6.68,.43,7.05,1.16,.44,.07,.44-.06,7.13-.96,6.79-.55,6.87,.96,.28,.04h.29s6.93-.37,6.93-.37l6.93,.89,.21,.03h.21s7.2-.09,7.2-.09h.32s.31-.08,.31-.08l6.69-1.53,6.68,.79,.26,.03h.26s6.9-.4,6.9-.4l6.91,.97,.38,.05,.38-.04,7.02-.81,7.02,.05h.11s.11,0,.11,0l7.08-.46,6.94,.12,7.06,.79h.09s.09,.01,.09,.01l7.2,.38,.38,.02,.37-.07,6.65-1.33,6.64,1.17,.29,.05h.3s7.06-.18,7.06-.18l7.06,.49,.35,.02,.34-.05,6.95-1.12,6.94,.08h.1s.1,0,.1,0l6.9-.37,6.9,1.03,.18,.03h.18s7.2,.21,7.2,.21h.11s.11,0,.11,0l7.2-.32h.12s.12-.02,.12-.02l6.97-.88,6.97,.19h.08s.08,0,.08,0l7.13-.19,6.96,.16,7.04,.95,.39,.05,.39-.05,7.01-.87,6.78,.04,6.97,1.12,.25,.04h.26s7.2-.09,7.2-.09h.17s.16-.02,.16-.02l7.11-.88,6.95-.45,7.04,.31h.14s.14,0,.14,0l7.09-.33,7.06,.2,7.2,.27h.07s.07,0,.07,0l7.2-.05h.14s7.05-.39,7.05-.39l7.04,.36h.1s.09,0,.09,0l7.01-.09,7.01,.83,.19,.02h.2s7.2-.09,7.2-.09h.21s.21-.04,.21-.04l6.81-1.07,6.81,.72,.32,.03,.32-.04,7.02-.76,6.87,.11,7.06,.79,.37,.04,.37-.05,6.88-.95,6.89,.51,7.2,.52h.03s.03,0,.03,0l7.2,.4h.09s.09,0,.09,0h7.2s.29-.01,.29-.01l.28-.06,6.71-1.32,6.71,.91,.42,.06,.42-.06,6.65-1,6.66,1.47,.47,.1,.48-.05,7.18-.73,7.06-.68h6.96s7.01,.46,7.01,.46l7.11,.91,.47,.06,.47-.09,6.94-1.3,6.64-.05,6.92,1.3,.32,.06h.32s7.13-.21,7.13-.21l7.13,.13h.14s.14,0,.14,0l6.96-.52,6.96,.6h.14s.14,.01,.14,.01l7.2-.06h.08s.08,0,.08,0l7.09-.43,6.99,.11,7.11,.57,.24,.02,.24-.02,7.2-.57h.08s.08-.02,.08-.02l6.85-.9,6.85,.72h.09s.09,.01,.09,.01l7.2,.31h.13s.13,0,.13,0l7.2-.29h.07s.06,0,.06,0l6.89-.58,6.9,.84,.26,.03h.26s7.2-.38,7.2-.38h.12s.12-.02,.12-.02l6.9-.9m-.08-3.01l-7.2,.94-7.2,.37-7.2-.88-7.2,.6-7.2,.29-7.2-.31-7.2-.76-7.2,.94-7.2,.57-7.2-.57-7.2-.11-7.2,.44-7.2,.06-7.2-.62-7.2,.54-7.2-.13-7.2,.2-7.2-1.35-7.2,.05-7.2,1.35-7.2-.92-7.2-.46h-7.2s-7.2,.68-7.2,.68l-7.2,.73-7.2-1.59-7.2,1.08-7.2-.97-7.2,1.41h-7.2s-7.2-.38-7.2-.38l-7.2-.52-7.2-.54-7.2,.99-7.2-.81-7.2-.12-7.2,.78-7.2-.77-7.2,1.13-7.2,.09-7.2-.85-7.2,.09-7.2-.37-7.2,.39-7.2,.05-7.2-.27-7.2-.2-7.2,.33-7.2-.32-7.2,.46-7.2,.89-7.2,.09-7.2-1.16-7.2-.04-7.2,.9-7.2-.97-7.2-.17-7.2,.19-7.2-.2-7.2,.91-7.2,.32-7.2-.21-7.2-1.08-7.2,.38-7.2-.08-7.2,1.16-7.2-.5-7.2,.17-7.2-1.27-7.2,1.44-7.2-.38-7.2-.8-7.2-.12-7.2,.47-7.2-.05-7.2,.83-7.2-1.01-7.2,.4-7.2-.85-7.2,1.64-7.2,.09-7.2-.92-7.2,.37-7.2-1-7.2,.59-7.2,.97-7.2-1.19-7.2-.46-7.2,1.31-7.2-1.32-7.2,.77-7.2-.32-7.2,.73-7.2-.17-7.2,.64-7.2-1.61-7.2,.02-7.2,1.24-7.2-1.13-7.2,.64-7.2,.15-7.2-.18-7.2,.25-7.2-1.01-7.2,1.09-7.2,.42-7.2-1.08-7.2,.86-7.2-1.03-7.2,.77-7.2,.64-7.2-.09-7.2-1.42-7.2,1.12-7.2-.48-7.2,.77-7.2-1.2-7.2,.5-7.2-.39-7.2,1.01-7.2-.7h-7.2s-7.2,.62-7.2,.62l-7.2-.22-7.2,.5-7.2-1.51-7.2-.13-7.2,.44h-7.2s-7.2-.44-7.2-.44l-7.2,.49-7.2,.23-7.2,.8-7.2-1.42-7.2,.12-7.2-.04h-7.2s-7.2,1.4-7.2,1.4L.69,.79l-.69,7.3,.91,7.17-.02,7.17-.26,7.16,.13,7.17,.27,7.17,.24,7.17,.02,7.17L.03,65.41l1.44,7.17-.05,7.17-.95,7.51,7.56-.04,7.22,.47,7.21-.93,7.21-.31,7.21,.02h7.21s7.21,.65,7.21,.65l7.21,.31,7.21-.49,7.21-.75,7.21,.33,7.21,.9,7.21-1.27,7.21,1.08,7.21,.1,7.21-.66,7.21-.56h7.21s7.21,.86,7.21,.86l7.2,.39,7.21-.44,7.2,.85,7.21-.59,7.2,.14,7.2,.21,7.21-.02,7.2-.81,7.2-.59,7.2,1.17,7.21-.71,7.2-.43,7.21,1.51,7.2-.86,7.21,.66,7.21,.14,7.2-1.46,7.21,1.18,7.2-.29,7.2-.3,7.21-.22,7.2,.47,7.2-.22,7.2,.56,7.21-1.04,7.2,1.38,7.2-.75,7.2-.24,7.21-.35,7.2,.98,7.2,.42,7.2-.16,7.2-.94,7.2,1.11,7.2-1.45,7.2,.52,7.2,.35,7.2,.21,7.2-.69,7.2,.34,7.2-.66,7.2,.63,7.2-.45,7.2,.77,7.2-.81,7.2,.66,7.2-.36,7.2-.41,7.2,.91,7.2-.07,7.2,.56,7.2-.84,7.2-.46,7.2-.19,7.2,1.13,7.2-.16,7.2-.61,7.2,.38,7.2-.45,7.2,.51,7.2-.17,7.2-.62,7.2,.12,7.2,.28,7.2-.18,7.2-.17,7.2,.13,7.2,1.24,7.2-.25,7.2-.8,7.2-.33,7.2,1.13,7.2-.3,7.2-.34,7.2,.28,7.2-.67,7.2,.1,7.2,1.05,7.2-1.29,7.2,1.33,7.2,.15,7.2,.02,7.2-1.68,7.2,1.58,7.2-.06,7.2-1.2,7.2,.36,7.2,.76,7.2-.07,7.2-.48,7.2-.14,7.2,.86,7.2,.06,7.2-1.31,7.2,1.01,7.2-.2,7.2-.65,7.2-.45,7.2,.11,7.2,1.52,7.2-1.67,7.2,.39,7.2,.5,7.2-.29,7.2-.31,7.2,.37,7.2-.09,7.2,.25,7.2,.42,7.2-1,7.2,.34,7.2,.37,7.2-.14,7.2-.05,7.2,.8,7.2-1.16,7.2,.61,7.2-1.06,7.2,1.11,7.2,.68,7.2-.54,7.2-.81,7.2,1,7.2-.43,7.2-.19,7.2-.44,7.2,.63,7.2-.1,7.2,.89,7.2-1.1,7.2-.4,7.2-.3,7.2,.85,7.2-.09,7.2,.54,7.2-.09,7.2-.32,7.2-.4,7.2-.14,7.2-.33,7.2,1.11,7.2-1.09,7.2,.83,7.2-.76,7.2,1.15,7.2,.26,7.2-1.23,7.2,1.24,7.2-1.28,7.2,.12,7.2,.88,7.2-1.01,7.2-.17,7.2-.02,7.2,1.3,7.2-.75,7.2-.31,7.2,1.03,7.2-.48,7.2,.51,7.2-.24,7.2,.38,7.2-.96,7.2-.17,7.2,.48,7.2-.4,7.2-.3,7.2,.34,7.2,1.17,7.2-.11,7.2-.99,7.2,1.22,7.2-1.2,7.2-.07,7.2,1.26,7.2-1.11,7.2,.8,7.2-.07,7.2-1.3,7.2,1.07,7.2-.18,7.2,.66,7.2,.13,7.2-1.03,7.2,.37,7.2-.89,7.2,.22,7.2,.91,7.2-.36,7.2,.55,7.2-.68,7.2-.07,7.2-.34,7.2,1.22h7.2s7.2-1.14,7.2-1.14l7.2,.63,7.2-.3,7.2,.82,7.2-.17,7.2-.48,7.2,.39,7.2-.78,7.2-.33,7.2,.37,7.2-.36,7.2,.22,7.2,.46,7.2,.35,7.2-.05,7.2-.93h7.2s7.2-.3,7.2-.3l7.2,.89,7.2,.47,7.2-1.34,7.2,1.56,7.2-.55,7.2,.19,7.2,.36,7.2-1.09,7.2-.56,7.2,1.01,7.2,.37h7.2s7.2-1.09,7.2-1.09l7.2,1.52,7.2-.48,7.2,.37,7.2-1.15,7.2,.6,7.2-.73,7.2,.31,7.4,.36-.33-7.37-.58-7.18,1.04-7.17-.52-7.16-.38-7.17,.4-7.17,.81-7.17-1.49-7.17,.85-7.16-.84-7.17,.49-7.17-.05-6.75-6.81,.02-7.22-.39-7.21-.34-7.21,.86-7.21-.15-7.21-.87-7.21,.64-7.21,.24-7.2,.42-7.21-.32-7.21-.06-7.21-.75-7.21,.06-7.21-.2-7.21,.11-7.21-.6-7.21,.39-7.21,.66-7.21-.98-7.2,1.35-7.21,.26-7.2-.74-7.21-.55-7.2,.14-7.2,1.02-7.21-.18-7.2-.98-7.2,.99-7.2-1.38-7.21,1.74-7.2-.21-7.21-.57-7.2,.22-7.21-1.14-7.21,.59-7.2,.77-7.21-1.2-7.2,1.33-7.2-1.46-7.21,.62-7.2,.06-7.2,.03-7.2,.99-7.21-.2-7.2-1.24-7.2,1.35-7.2-.17-7.21-1.06-7.2,.46-7.2-.43-7.2,.37-7.2,.58-7.2-1.39-7.2,.03-7.2,.28-7.2,.6-7.2-.64-7.2,.29-7.2-.12-7.2,.3-7.2,.33-7.2-1.03-7.2,1.21-7.2-.83-7.2,1.1-7.2-.54-7.2,.65-7.2-.37-7.2-.78-7.2-.23-7.2-.08-7.2,.22-7.2,.09-7.2-.36-7.2,.11-7.2,1.27-7.2,.03-7.2-.28-7.2,.05-7.2-.58-7.2,.15-7.2,.2-7.2,.03-7.2,.5-7.2-.7-7.2-.69-7.2,1.06-7.2-.05-7.2,.04-7.2-1.03-7.2,1.02-7.2,.21-7.2-.36-7.2-.18-7.2-.53-7.2-.25h-7.2s-7.2,.24-7.2,.24l-7.2-.27-7.2,1.34-7.2-.62-7.2-.13-7.2,.18-7.2-.3h-7.2s-7.2,.04-7.2,.04l-7.2-.38-7.2-.25-7.2,1.4-7.2,.26-7.2-.45-7.2,.1-7.2-.86-7.2-.55h0Z"/>
      </g>
      <g>
        <path class="cls-2" d="M189.37,37.12s-.09,0-.13,0l-7.18-.37-7.27-.63-7.13-.46c-1.38-.09-2.42-1.28-2.33-2.66,.09-1.38,1.28-2.41,2.66-2.33l7.18,.46,7.24,.63,6.87,.36,3.14-.41c1.37-.18,2.62,.78,2.8,2.15s-.78,2.62-2.15,2.8l-3.37,.44c-.11,.01-.22,.02-.33,.02Z"/>
        <path class="cls-2" d="M1460.88,37.19c-.12,0-.24,0-.36-.03l-7.02-1.03-6.93-.07-7.1,.43c-.12,0-.24,0-.37,0h-.12c-1.38-.13-2.39-1.34-2.28-2.72,.12-1.36,1.3-2.38,2.64-2.28l7.01-.42c.06,0,.12,0,.18,0l7.19,.07c.11,0,.23,0,.34,.03l6.88,1.01,6.88-.71,7.21-.67c.16-.02,.33-.01,.49,0l6.9,.71,6.26-.79c1.37-.18,2.62,.79,2.8,2.16,.17,1.37-.79,2.62-2.16,2.8l-6.54,.83c-.19,.02-.38,.03-.57,0l-6.94-.72-6.94,.64-7.16,.74c-.09,0-.17,.01-.26,.01Zm-402.32,0c-.1,0-.21,0-.31-.02l-7.04-.89-6.89-.08-3.82,.41c-1.37,.15-2.61-.84-2.75-2.22-.15-1.37,.85-2.61,2.22-2.75l3.97-.43c.1-.01,.2-.02,.3-.01l7.18,.08c.1,0,.19,0,.29,.02l6.85,.87,6.85-.99c.16-.02,.33-.03,.49-.02l7.18,.37,7.11,.17,7.08,.33,2.65-.2c1.37-.11,2.58,.93,2.68,2.3,.1,1.38-.93,2.58-2.3,2.68l-2.81,.21c-.1,0-.2,0-.31,0l-7.18-.34-7.12-.17-7-.36-6.94,1c-.12,.02-.24,.03-.36,.03Zm-689.65-.02c-.07,0-.14,0-.21,0l-7.18-.61-7.08-.53-7.1-.08-4.96-.13c-1.38-.04-2.47-1.19-2.43-2.57,.04-1.38,1.18-2.48,2.57-2.43l4.93,.13,7.14,.08c.05,0,.1,0,.16,0l7.18,.53,6.92,.59,6.89-1.03c.09-.01,.18-.02,.27-.03l7.18-.28c.12,0,.25,0,.38,.01l7.13,.8,1.79,.12c1.38,.09,2.42,1.28,2.33,2.66-.09,1.38-1.28,2.43-2.66,2.33l-1.85-.12s-.07,0-.11,0l-6.99-.78-6.86,.27-7.05,1.05c-.12,.02-.25,.03-.37,.03Zm1314.78,0c-.1,0-.2,0-.3-.02l-7.04-.84-6.97,.05-7.13,.39c-.09,0-.19,0-.28,0l-7.01-.4-7.01,.59c-.16,.01-.32,.01-.48,0l-7.01-.75-2.08,.07c-1.39,.05-2.54-1.03-2.59-2.41s1.03-2.54,2.41-2.58l2.26-.08c.12,0,.24,0,.35,.01l6.95,.75,6.95-.58c.12,0,.23-.01,.35,0l7.05,.41,7.05-.39s.08,0,.12,0l7.19-.05c.11,0,.21,0,.31,.02l6.98,.83,4.28-.21c1.39-.07,2.55,.99,2.62,2.37s-.99,2.55-2.37,2.62l-4.49,.22s-.08,0-.12,0Zm-1391.04-.01h-.03l-2.75-.03c-.09,0-.18,0-.27-.02l-7.06-.83-7.05-.1-7.15-.3-7.08,.28-7.21,.2-7.24,.03s-.07,0-.11,0l-4.13-.16c-1.38-.05-2.46-1.21-2.4-2.59,.05-1.38,1.21-2.47,2.6-2.4l4.07,.16,7.13-.03,7.13-.19,7.15-.28c.07,0,.14,0,.2,0l7.18,.3,7.11,.1c.09,0,.17,0,.26,.02l7.05,.83,2.62,.03c1.38,.01,2.49,1.14,2.48,2.52-.01,1.37-1.13,2.48-2.5,2.48Zm1053.24,0c-.1,0-.2,0-.29-.02l-6.31-.75c-1.37-.16-2.35-1.41-2.19-2.78,.16-1.37,1.4-2.35,2.78-2.19l5.99,.71,6.87-.97c.22-.03,.45-.03,.67,0l6.9,.89,6.9-.7s.08,0,.12,0l7.18-.37,7.24-.21c.17,0,.33,0,.5,.04l6.91,1.2h.01c1.38-.07,2.55,.99,2.62,2.37,.07,1.38-.99,2.55-2.37,2.62h-.29c-.18,.02-.37,.01-.55-.02l-6.94-1.2-6.93,.2-7.06,.37-7.13,.72c-.19,.02-.38,.02-.57,0l-6.85-.88-6.85,.97c-.12,.02-.23,.02-.35,.02Zm-797.4-.02c-.05,0-.1,0-.16,0l-6.55-.41c-1.38-.09-2.43-1.27-2.34-2.65,.09-1.38,1.27-2.41,2.65-2.34l6.33,.4,6.97-.79c.18-.02,.35-.02,.53,0l7.04,.71,6.86-.1,7.01-1.11c.19-.03,.39-.04,.58-.02l7.05,.53,7.05-.22c.12,0,.25,0,.37,.02l.18,.02c1.37,.16,2.35,1.41,2.19,2.78-.16,1.37-1.41,2.34-2.77,2.19l-7,.21c-.09,0-.18,0-.26,0l-6.89-.52-6.89,1.09c-.12,.02-.23,.03-.35,.03l-7.18,.11c-.1,0-.19,0-.29-.01l-6.92-.69-6.92,.78c-.09,.01-.19,.02-.28,.02Zm718.37,0h-.05l-7.19-.13c-.09,0-.19,0-.28-.02l-6.94-.93-6.94,.44c-.09,0-.18,0-.26,0l-5.43-.23c-1.38-.06-2.45-1.22-2.39-2.6,.06-1.38,1.22-2.44,2.6-2.39l5.3,.22,7.05-.45c.16,0,.33,0,.49,.02l7.05,.94,6.88,.13,7.02-.78c.12-.01,.24-.02,.35-.01l7,.22,7-.79c.22-.03,.45-.02,.67,.01l1.31,.2c1.36,.21,2.3,1.49,2.08,2.86-.21,1.36-1.49,2.3-2.86,2.08l-.98-.15-6.85,.77c-.12,.01-.24,.02-.36,.01l-7.01-.22-7.01,.78c-.09,.01-.18,.02-.27,.02Zm-811.75-.02c-.13,0-.27-.01-.4-.03l-6.88-1.11-5.34,.46c-1.37,.12-2.59-.9-2.71-2.27-.12-1.38,.9-2.59,2.27-2.71l5.65-.49c.21-.02,.41,0,.62,.02l6.76,1.09,6.76-1.23c.21-.04,.43-.05,.64-.03l6.96,.54,6.96-.71c.12-.01,.24-.01,.36-.01l7.1,.29,8.13-.17h.03c1.37,0,2.48,1.1,2.5,2.47,.02,1.38-1.09,2.51-2.47,2.53h-1s-7.16,.17-7.16,.17c-.05,0-.11,0-.16,0l-7-.29-7,.72c-.15,.01-.3,.02-.45,0l-6.86-.53-6.86,1.25c-.15,.03-.3,.04-.45,.04Zm301.7-.02c-.17,0-.33-.02-.49-.05l-6.76-1.36-6.75,1c-.1,.01-.19,.02-.29,.03l-1.06,.03c-1.38,.04-2.53-1.04-2.58-2.42s1.04-2.53,2.42-2.58l.92-.03,7.04-1.05c.29-.04,.58-.04,.86,.02l6.82,1.37,6.82-.65c.12-.01,.25-.02,.37,0l7.13,.39,14.31,.16,5.63,.12c1.38,.03,2.48,1.17,2.45,2.55-.03,1.36-1.14,2.45-2.5,2.45h-.05l-5.61-.12-14.34-.16s-.07,0-.11,0l-7-.38-7,.67c-.08,0-.16,.01-.24,.01Zm790.31-.12c-.15,0-.29-.01-.44-.04l-6.9-1.22-.8,.04c-1.37,.1-2.56-.98-2.63-2.36s.98-2.56,2.36-2.63l1.09-.06c.19-.01,.38,0,.57,.03l6.88,1.22,6.87-.53s.08,0,.12,0l7.18-.21c.08,0,.16,0,.24,0l7.04,.46,7.04-.37s.07,0,.11,0l7.19-.06c.1,0,.22,0,.33,.02l5.63,.71c1.37,.17,2.34,1.42,2.17,2.79-.17,1.37-1.42,2.35-2.79,2.17l-5.47-.69-6.97,.06-7.13,.37c-.1,0-.19,0-.29,0l-7.06-.46-7.01,.21-7.13,.55c-.06,0-.13,0-.19,0Zm-596.34-.01c-.13,0-.27-.01-.4-.03l-6.9-1.11-2.73,.18c-1.37,.1-2.57-.95-2.66-2.33-.09-1.38,.95-2.57,2.33-2.66l3.02-.2c.19-.01,.38,0,.56,.03l6.95,1.12,6.79-.18,7.03-1.09c.16-.03,.32-.03,.49-.03l7.18,.29,7.03,.18,7.07-.45c.12,0,.24,0,.36,0l3.7,.3c1.38,.11,2.4,1.32,2.29,2.7-.11,1.38-1.32,2.41-2.7,2.29l-3.51-.29-7,.45c-.07,0-.15,0-.22,0l-7.18-.18-6.98-.29-6.94,1.08c-.11,.02-.21,.03-.32,.03l-7.18,.19s-.04,0-.06,0Zm-107.77-.03s-.04,0-.05,0l-2.17-.05c-1.38-.03-2.47-1.17-2.44-2.55,.03-1.38,1.18-2.48,2.55-2.44l1.95,.04,6.96-1.1c.17-.03,.35-.04,.52-.03l7.04,.38,7.04-.46c.07,0,.14,0,.21,0l7.19,.13,7.15,.34,7.08-.27c.07,0,.14,0,.21,0l4.63,.21c1.38,.06,2.45,1.23,2.38,2.61-.06,1.38-1.23,2.43-2.61,2.38l-4.53-.21-7.08,.27c-.07,0-.14,0-.21,0l-7.19-.34-7.01-.13-7.08,.46c-.1,0-.2,0-.3,0l-6.92-.37-6.92,1.09c-.13,.02-.26,.03-.39,.03Zm-179.6-.13s-.1,0-.14,0l-7.11-.41h-7.11s-7.69-.28-7.69-.28c-1.38-.07-2.44-1.25-2.36-2.63,.07-1.38,1.25-2.47,2.63-2.36l.37,.02,7.14,.26h7.09s.1,0,.14,0l7.06,.4,7.06-.31,7.08-.6c.15-.01,.3-.01,.45,0l6.94,.67,6.22-.59c1.37-.13,2.6,.88,2.73,2.25,.13,1.38-.88,2.6-2.25,2.73l-6.46,.62c-.16,.02-.32,.02-.48,0l-6.96-.67-6.96,.58-7.28,.32s-.07,0-.11,0Zm517.23-.12s-.08,0-.13,0l-7.1-.36-7.1,.11c-.06,0-.12,0-.19,0l-7.18-.43-7.11-.23-6.9-.03-4.56,.75c-1.36,.23-2.65-.7-2.87-2.06s.7-2.65,2.06-2.87l4.77-.79c.14-.02,.28-.02,.42-.03l7.18,.03,7.25,.23,7.15,.42,7.09-.11c.05,0,.11,0,.17,0l7.04,.36,7.04-.46c.09,0,.19,0,.28,0l2.08,.09c1.38,.06,2.45,1.23,2.38,2.61-.06,1.38-1.23,2.46-2.61,2.38l-1.94-.09-7.05,.46c-.05,0-.11,0-.16,0Z"/>
        <path class="cls-2" d="M1755.62,37.07c-.11,0-.22,0-.33-.02l-6.96-.92-6.95,.45c-.16,0-.32,0-.48-.02l-3.26-.42c-1.37-.18-2.33-1.43-2.16-2.8,.18-1.37,1.43-2.33,2.8-2.16l3.02,.39,6.95-.45c.16,0,.33,0,.49,.02l6.9,.91,6.9-.74c1.37-.15,2.6,.85,2.75,2.22,.15,1.37-.85,2.61-2.22,2.75l-7.2,.77c-.09,0-.18,.01-.27,.01Z"/>
      </g>
    </g>
  </g>
</svg>