<svg xmlns="http://www.w3.org/2000/svg" width="60.306" height="26.299" viewBox="0 0 60.306 26.299">
  <g id="グループ_135" data-name="グループ 135" transform="translate(-798.694 -9733.209)">
    <path id="パス_258" data-name="パス 258" d="M852.685,9753.2c1.052-.7,2.109-1.4,3.16-2.11v-2.1h1.049c1.223-2.147.046-2.312,2.106-4.209a13.284,13.284,0,0,0-1.047-5.248c-1.761-.37-3.514-.7-5.268-1.074a8.639,8.639,0,0,1-2.1,4.211h-1.054v2.111c-3.959,5.859-6.993,5.571-5.263,14.735,6.775-.329,5.615-2.394,8.42-6.312" fill="#64dc96" fill-rule="evenodd"/>
    <path id="パス_259" data-name="パス 259" d="M821.1,9738.45c.394,6.486,2.189,10.2,2.109,17.923,1.187.869.159-.166,1.043,1.033,2.541,0,5.16.331,6.327-1.033v-2.105c.7-.37,1.4-.7,2.1-1.071a1.565,1.565,0,0,0-1.043-2.11c-.375-2.722.575-3.714,1.043-5.244h-1.043v-8.421h-1.057v-1.074c-5.032,0-6.674.618-9.479,2.1" fill="#64dc96" fill-rule="evenodd"/>
    <path id="パス_260" data-name="パス 260" d="M806.364,9734.24c-2.1-.621-.911.163-2.107-1.031a13.629,13.629,0,0,0-5.265,1.031c-.106,4.171-1.037,12.471,1.053,14.741-.037,7.226.8,6.483,3.161,10.526,2.1-.329,4.208-.7,6.318-1.03,1.184-6.894-.628-17.671-3.16-24.237" fill="#64dc96" fill-rule="evenodd"/>
  </g>
</svg>
