<?xml version="1.0" encoding="UTF-8"?>
<svg id="_レイヤー_2" data-name="レイヤー 2" xmlns="http://www.w3.org/2000/svg" viewBox="0 0 253.47 178.14">
  <defs>
    <style>
      .cls-1 {
        fill: #f09ca5;
      }

      .cls-2 {
        fill: #5a5752;
      }

      .cls-3 {
        fill: #393631;
      }

      .cls-4 {
        fill: #53504d;
      }

      .cls-5 {
        fill: #994729;
      }

      .cls-6 {
        fill: #ee9aa4;
      }

      .cls-7 {
        fill: #595651;
      }

      .cls-8 {
        fill: #e7e8e7;
      }

      .cls-9 {
        fill: #faa2ad;
      }

      .cls-10 {
        fill: #934527;
      }

      .cls-11 {
        fill: #e8e8e8;
      }

      .cls-12 {
        fill: #9a4729;
      }

      .cls-13 {
        fill: #231815;
      }

      .cls-14 {
        fill: #f03c3c;
      }
    </style>
  </defs>
  <g id="design">
    <g>
      <path class="cls-13" d="M252.07,94.39c-3.38-6.55-9.63-9.69-17.24-8.77-1.23,.15-3.17,1.56-3.22-1.4-.06-4.15-.59-8.32-.3-12.44,.76-10.89,1.5-21.78,1.66-32.71,.14-9.49-2.64-13.29-12.2-14.88-3.67-.61-7.62-.14-11.1-1.23-6.68-2.09-13.44-1.76-20.21-1.82-4.44-.04-8.79-.09-13.22-.96-4.28-.84-8.72-.84-13.22-.55-7.57,.49-15.2,.79-22.82-.49-4.77-.8-9.8-.64-14.12,1.86-4.1,2.37-8.45,4.05-13,6.25-.37-2.34-.77-4.36-1-6.4-1.19-10.51-6.14-15.89-16.37-17.87-2.03-.39-4.17-.81-5.95-1.77-3.05-1.65-6.19-1.63-8.7,.16-3.78,2.69-8.19,4.75-11.06,8.5-6.37,8.34-8.39,17.86-6.98,28.19,.2,1.47,1.5,3.46-.92,4.21-3.53,1.09-6.59,3.43-10.42,3.84-.08-.44-.23-.85-.2-1.25,.06-.83,.1-1.69,.35-2.47,3.08-9.55,1.1-18.63-2.56-27.52-1.6-3.9-4.07-6.81-8.09-8.94-5.41-2.86-10.97-2.47-16.59-2.58-4.26-.08-7.82,1.6-10.52,4.95-1.57,1.94-2.94,4.08-4.69,5.83-3.95,3.93-5.31,9.02-4.92,14.04,.69,8.76,1.68,17.65,6.87,25.27,1.2,1.77,.54,2.2-1.15,3.28-6.19,3.96-10.87,8.36-9.65,17.29,1.22,8.95,.26,18.21,.26,27.33,0,9.36-1.77,18.66-.09,28.1,.86,4.85,1.07,9.95,.42,14.92-.72,5.51,2.06,9,7.65,9.04,2.63,.02,5.27-.14,7.9-.35,2.33-.19,2.89,.7,3.12,3.06,.44,4.4,1.69,8.87,5.21,11.81,9.04,7.54,21.82,2.97,24.04-8.54,.59-3.07,2.09-3.65,4.61-2.74,3.19,1.15,6.48,1.88,9.8,1.45,10.06-1.31,19.71,2.21,29.61,2.3,6.53,.06,12.93,1.79,19.36,1.53,3.37-.13,4.35,.56,4.78,3.47,1.18,7.97,6.47,11.82,13.9,12.51,6.36,.59,13,.5,17.04-5.93,3.34-5.32,6.43-10.81,5.35-17.49-.4-2.47,.93-3.25,2.97-4.1,3.74-1.56,8.23-1.37,11.42-3.41,6.41-4.09,14.41-2.8,20.53-7.81,.45,2.09,.78,3.42,1.03,4.77,1.72,9.49,4.79,12.25,14.35,12.87,6.15,.4,15.27-5.23,16.5-10.53,1-4.3,2.28-8.64,1.78-13.13-.34-3.04,.42-4.98,3.71-5.55,2-.35,3.06-1.7,3.22-3.79,.24-3.17,.73-6.34,.8-9.51,.05-2.26,.39-3.23,3.05-2.8,5.35,.86,10.52,0,15.25-2.82,5.23-3.11,6.79-8.82,3.96-14.3Z"/>
      <path class="cls-9" d="M97.54,66.04c4.5-.71,8.3,.18,12.15,.65,2.6,.32,3.38,1.63,3.17,3.83-.19,2.05-.8,4.07-1.02,6.12-1.13,10.58-1.6,21.14-.77,31.81,.48,6.14-.94,12.39-1.59,18.54-.95,9.1-.22,18.25-1.53,27.32-.33,2.26-.49,3.46-2.99,2.54-4.15-1.52-8.47-.36-12.69-.64-9.43-.63-18.61-2.97-28.27-2.53-8.83,.4-17.77-1.92-26.67-3.06-.82-.1-1.64-.49-2.43-.43-8.01,.61-15.88-1.41-23.88-1.14-5.4,.18-6.37-.81-5.48-5.97,1.01-5.89,.7-11.58-1.26-17.19-1.12-3.22,.38-6.32,.27-9.47-.41-10.98,1.47-21.79,2.21-32.69,.29-4.3-.3-8.58-1.59-12.72-.86-2.75-1.06-4.38,2.96-4.8,3.47-.36,6.88-.3,10.32-.38,3.37-.08,4.21-1.5,2.59-4.49-2.03-3.73-4.73-7.01-6.67-10.83-4.39-8.62-6.65-17.66-4.92-27.18C11.98,9.36,30.17,2.48,41.6,10.95c2.11,1.56,3.25,3.91,4.26,6.45,3.03,7.65,4.04,15.23,2.31,23.44-1.43,6.76-3.14,13.31-6.31,19.45-.55,1.06-1.05,2.48-.16,3.08,5.48,3.7,2.94,9.33,3.62,14.17,.08,.54-.03,1.11-.02,1.66,.08,2.8,.95,3.56,3.52,1.72,2.6-1.86,5.17-3.48,7.7,.71,1.56,2.58,4.17,1.55,5.2-.85,.76-1.77,1.49-2.45,3.38-2.86,2.31-.5,2.8-2.59,2.86-4.9,.1-3.49-.31-7.2,3.35-9.63,1.15-.76,1.17-2.55,.23-3.81-3.54-4.73-3.49-10.28-4.02-15.8-.76-7.86-1.55-15.56,1.19-23.33,1.75-4.96,4.92-8.08,8.71-11.54,8.06-7.37,15.62-1.32,23.36-.45,1.01,.11,2,1.42,2.78,2.36,5.29,6.33,6.15,14.19,4.85,21.55-1.06,5.99-2.53,12.37-6.79,17.59-3.25,3.99-7.15,7.25-10.69,10.9-1.15,1.18-2.31,1.93-1.72,3.67,.59,1.74,2.14,1.47,3.51,1.49,1.8,.03,3.6,0,4.82,0Z"/>
      <path class="cls-9" d="M182.13,28.19c5.04-.77,10.08-1.57,15.12-2.29,1.23-.17,2.59-.36,3.73-.02,7.05,2.09,14.47,1.78,21.55,3.48,4.85,1.17,5.51,3.85,5.61,8.8,.26,12.36-1.53,24.59-1.67,36.88-.07,5.61,1.46,11.23-.84,16.73-.19,.45-.24,1.19-.1,1.66,2.59,8.85-.69,17.5-.85,26.25-.04,1.93-.23,3.9-2.48,4.15-2.11,.23-1.33-1.98-1.83-3.07-2.91-6.36-7.31-8.3-15.74-6.78-9.5,1.71-14.85,7.82-14.91,17.43-.02,2.37-.75,3.38-2.96,4.09-10.52,3.37-21.01,6.84-31.44,10.47-1.36,.47-2.79-.27-3.1-1.68s-.81-2.85-1.3-4.25c-2.51-7.24-4.91-8.69-12.29-9.51-7.29-.81-12.84,2.06-18.01,6.61-4.27,3.76-4.96,8.75-5.14,13.96-.04,1.11,.14,2.22,.06,3.33-.12,1.62-1.44,2.63-2.7,2.58-1.1-.05-1.35-1.79-1.17-2.76,1.67-8.74,1.21-17.65,1.78-26.45,.49-7.53,1.87-15.01,1.37-22.69-.67-10.33-.74-20.74,1.51-30.98,.48-2.18,.52-4.43,.04-6.62-.56-2.55-2.07-4.05-4.82-4.39-4.39-.53-8.71-1.86-13.44-1.05-.72,.12-1.22-.7-.75-1.26,2.56-3.04,8.26-4.93,8.92-5.2,6.11-1.88,11.96-4.4,17.6-7.4,3.23-1.72,6.93-2.04,10.2-3.43,13.65-5.78,28.27-8.91,41.64-15.39,2.07-1,4.17-1.38,6.42-1.21Z"/>
      <path class="cls-3" d="M149.65,154.35c.74,5.14-.93,10.12-3.83,14.86-2.21,3.59-6.53,5.82-10.52,5.17-.92-.15-1.44-.75-1.93-1.42-4-5.42-6.33-11.39-5.28-18.22,.63-4.07,1.54-8.12,2.55-12.12,1.02-4.07,4.34-6.49,8.3-6.99,4.72-.6,7.3,1.88,8.96,5.72,1.72,3.98,2.35,8.19,1.75,13.01Z"/>
      <path class="cls-3" d="M200.5,137.45c-.55-6.41,2.23-11.36,4.57-16.29,1.3-2.74,4.38-4.54,7.57-4.17,3.18,.37,4.75,3.86,4.89,6.1,.49,8.09,2.74,16.41-2.23,24.17-1.78,2.78-4.08,4.41-6.9,4.66-2.65,.23-3.47-2.66-4.62-4.69-1.82-3.24-4.33-6.23-3.28-9.78Z"/>
      <path class="cls-1" d="M111.02,40.64c1.3-4.96,1.08-7.68,4.08-9.2,6.44-3.28,11.92-6.81,19.29-7.84,6.41-.89,12.67,1.85,19.36,.2-.83,4.09-4.01,2.44-5.78,3.67-.46,.43-2.88,1.11-3.34,1.59h.01c-.42,.5-1.22,.3-1.61,.86-1.41,.61-18.27,5.63-20.07,6.81-.6,.28-1.28,.29-1.87,.59,0,0-3.26,1.21-4.68,1.79l-.06,.03c-.53,.39-4.46,1.02-5.32,1.5Z"/>
      <path class="cls-9" d="M236.45,107.35c-6.07-.01-6.53-.4-5.66-6.29,.25-1.72,.12-3.52-.42-4.78-1.67-3.86,.69-4.84,3.41-5.85,7.04-2.62,15.1,2.64,15.06,9.72-.02,2.35-.81,3.77-2.98,4.82-3.21,1.54-5.84,2.39-9.41,2.39Z"/>
      <path class="cls-5" d="M47.24,68.54c-.3-2.58,.36-3.88,3.45-3.04,4.56,1.24,9.21,1.71,13.83,.12,1.13-.39,2.08-.24,1.72,1.19-.59,2.29-.83,4.59-.83,6.94,0,.94-.55,1.52-1.47,1.72-.54,.12-1.36-.01-1.59,.31-2.46,3.35-4.7,5.19-6.71-.36-.23-.64-1.16-.32-1.86-.11q-5.66,1.68-6.36-3.82c-.12-.96-.12-1.93-.18-2.94Z"/>
      <path class="cls-3" d="M32.09,157.64c-.19-2.73,.78-4.14,4.16-3.01,1.93,.65,4.05,.76,6.08,1.12,3.16,.55,4.42,3.07,2.57,5.73-1.94,2.79-4.46,5.33-8.26,4.08-3.43-1.13-4.59-4.11-4.55-7.92Z"/>
      <path class="cls-6" d="M46.59,60.76c1.14-5.12,1.73-9.67,7.64-10.34,3.29-.37,5.92-2.7,9.02-3.63,2.03,4.61,.66,7.19-3.92,8.69-4.14,1.35-8.07,3.32-12.74,5.29Z"/>
      <path class="cls-7" d="M127.23,139.12c-.73,4.62-3.49,8.66-3.51,13.55-.04,9.3,.43,11.68,5.46,21.06-8.89-1.58-11.81-25.57-2.76-35.48,.81-.21,1.06,.09,.81,.87Z"/>
      <path class="cls-2" d="M194.77,129.11c1.73-3.86,3.09-7.97,7.84-11.41-6.4,12.46-8.69,23.92,.24,35.2-3.74,.73-4.82-2.07-6.51-3.89-.77-.67-.08-1.83-.85-2.51h0c-.9-.95,.06-2.38-.83-3.35h.01c-.67-4.68-.85-9.37,.08-14.04Z"/>
      <path class="cls-10" d="M52.8,61.57c4.53-2.15,7.9-3.93,11.41-5.32,1.52-.6,1.81,1.35,2.5,2.27,.53,.7,.67,1.67-.39,2.06-3.98,1.46-8.01,2.53-13.52,1Z"/>
      <path class="cls-4" d="M30.11,166.62c-2.92-1.84-5.49-8.56-4.52-10.9,.3-.72,.81-1.11,1.55-1.08,1,.03,.9,.86,.89,1.5-.02,1.78-.03,3.55,.54,5.28,.5,1.53,.92,3.09,1.55,5.2Z"/>
      <path class="cls-9" d="M17.64,61.22c-.44,1.93-1.97,1.1-3.18,1.27-1.21,.17-3.95,.5-3.21-.66,1.24-1.95,3.13-4.06,4.22-3.53,1.13,.19,2.1,1.68,2.17,2.92Z"/>
      <path class="cls-13" d="M134.03,34.99c-.78,.68-1.7,.78-2.68,.64,.73-.92,1.72-.69,2.68-.64Z"/>
      <path class="cls-13" d="M138.16,34.15c-.61,.23-1.22,.46-1.83,.69,.44-.67,1.11-.75,1.83-.69Z"/>
      <path class="cls-13" d="M36.92,132.38c3.71,.14,7.06-1.14,10.38-2.58,1.94-.85,1.75-2.63,1.99-4.23,.26-1.73-1.17-1.57-2.15-1.86-3.7-1.13-6.64-3.1-7-7.28-.35-3.98,1-7.38,4.51-9.64,3.88-2.5,7.84-2.41,11.78-.15,3.44,1.98,5.07,5.02,4.89,8.97-.16,3.65-2.49,5.92-5.56,7.1-3.65,1.4-3,4.2-2.18,6.49,1.93,5.42,13.32,8.23,17.7,4.62,2.51-2.06,3.45-4.31,.89-7.03-.83-.88-2.09-1.86-.78-3.13,1.19-1.15,2.3-.11,3.28,.65,3.05,2.37,3.67,6.44,1.5,9.65-3.16,4.66-8.64,6.37-14.77,4.46-1.84-.57-4.08-1.03-5.25-2.33-3.88-4.3-7.85-3.27-12.4-1.4-4.33,1.78-8.95,1.74-13.42,.06-2.25-.85-3.67-2.52-3.93-4.93-.28-2.53,.86-4.57,2.7-6.21,.74-.66,1.65-1.17,2.6-.36,.75,.64,.55,1.47,.22,2.28-2.26,5.68-1.42,6.82,5,6.86Z"/>
      <path class="cls-13" d="M201.9,95.29c-.02-.31-.11-1.55-.2-2.79-.13-1.83-.81-2.59-2.91-2.34-9.23,1.09-9.03,1.01-9.24-8.37-.09-3.89,.79-5.63,4.97-5.38,2.39,.14,6.91-.35,6.91-.35,0,0,0-2.53,.1-4.94-.08-.96,.59-1.97,1.78-1.88,1.22,.09,1.47,1.18,1.39,2.16-.21,2.81-.21,4.46-.21,4.46,0,0,3.05-.65,4.72-.86,6.31-.77,7.39,.51,6.51,6.78-.17,1.23-.16,2.49-.35,3.71-.33,2.14-1.21,3.66-3.81,3.28-.93-.14-1.94,.26-2.89,.16-3.46-.34-4.32,1.37-3.81,4.44,.25,1.49,.35,3.03,.33,4.54-.02,1.34,.03,3.09-2.02,2.88-1.8-.18-1.38-1.71-1.28-2.93,.04-.55,0-1.11,0-2.59Z"/>
      <path class="cls-13" d="M125.16,102.72c-.6-3.02,.57-5.21,4.78-4.98,1.08,.06,2.2-.28,3.28-.52,1.51-.33,1.41-1.57,1.25-2.65-.2-1.29-1.18-.74-1.95-.64-2.06,.28-4.11,.59-6.18,.8-1.02,.1-2.09-.19-2.25-1.35-.2-1.46,.96-1.77,2.13-1.96,2.73-.45,5.45-.91,8.17-1.41,.99-.18,2.04-.38,2.71,.48,1.96,2.53,.61,5.36,.44,8.03-.13,2.04-2.08,1.75-3.51,2.15-2.17,.61-6.49-1.12-5.57,3.24,.68,3.26,3.89,.61,5.85,.49,4.2-.26,5.61,.8,5.36,5.04-.36,6-4.19,9.98-8.56,8.78-1.27-.35-3.17-.65-2.96-2.36,.25-2.05,2.01-1.16,3.33-1.03,2.94,.3,5.67-3.33,4.74-6.12-.37-1.12-1.06-1.03-1.93-.85-1.09,.22-2.19,.35-3.28,.57-5.39,1.07-5.98,.57-5.84-5.71Z"/>
      <path class="cls-13" d="M149.74,111.84c0,1.24,.04,1.93,0,2.62-.07,1.05-.49,1.93-1.69,1.96-1.23,.04-1.71-.82-1.73-1.89-.13-7.89-.96-15.72-1.73-23.56-.11-1.16-.31-2.79,1.52-2.81,1.66-.02,1.76,1.48,1.87,2.73,.61,7.16,1.21,14.32,1.77,20.95Z"/>
      <path class="cls-13" d="M143.96,155.02c-.21,1.07-.29,2.19-.66,3.2-.76,2.1-1.69,4.43-4.22,4.6-2.47,.17-3.79-1.78-4.87-3.85-1.36-2.6-2.63-5.18-2.05-8.24,.52-2.73,1.74-5.34,4.63-5.69,2.84-.34,5.19,.83,5.76,4.41,.29,1.82,1.58,3.5,1.42,5.55Z"/>
      <path class="cls-13" d="M203.67,132.21c-.09-3.47,.85-6.33,4.32-7.77,2.71-1.12,6.45,.25,7.29,2.91,.95,3.01,1.56,6.11,.32,9.31-1.05,2.72-2.12,4.97-5.7,4.92-3.7-.05-5.12-2.19-5.77-5.29-.28-1.34-.32-2.72-.47-4.09Z"/>
      <path class="cls-14" d="M50.36,119.88c-4.12,0-6.52-1.95-6.49-5.27,.04-3.53,2.74-6.16,6.38-6.24,3.99-.08,7.24,2.76,7.27,6.35,.03,3.08-2.86,5.15-7.17,5.15Z"/>
      <path class="cls-9" d="M192.96,84.22c.07-4.32,1.11-5.13,6.39-4.98,3.15,.09,1.77,2.6,1.92,4.04,.52,5.12-3.71,3.63-6.28,4.11-2.95,.55-1.82-1.9-2.02-3.17Z"/>
      <path class="cls-9" d="M204.68,81.97c-1.02-4.74,2.65-3.39,4.93-3.66,1.36-.16,3.19-.75,3.2,1.86,.02,4.32-.94,5.15-5.11,5.59-3.47,.37-3.12-1.66-3.03-3.79Z"/>
      <path class="cls-13" d="M187.25,104.47c-.2-1.58-2.16-1.31-3.84-1.04-1.69,.26-7.22,1.58-11.48,.72-4.26-.86,0,0,0,0,0,0-3.77-.54-6.26-2.04-.13-1.53-.13-2.71-.09-4.63,1.32-.16,4.56,.09,4.08-1.78-.26-.99-.85-.89-1.27-.86-1.25,.08-1.89,.35-3.08,.41-.14-1.46-.21-2.25-.22-3.7,.45,0,1.17-.1,2.49-.19,.53-.04,2.64,0,2.18-1.85-.4-1.64-1.86-.95-2.84-.92-.84,.02-1.27,.21-2.48,.21-.29-.48-.32-1.54-.42-2.35,.95,0,2.21,.11,3.11,.05,1.26-.09,2.39-2.62,.62-3.17s-3.12,.31-4.26,.24c-.12-1.64,.02-2.04,.11-3.3,.06-.83-.83-1.44-1.78-1.32-.76,.09-1.22,.72-1.26,1.41-.06,1.26-.04,2.06,.04,3.44-1.74,.45-4.37-.97-4.92,.3-.75,1.75,1.31,2.7,3.14,2.7,.62,0,1.47-.09,2.32-.25,.02,.99,.14,1.42,.27,2.27-.68,.12-1.7,.07-2.6,.17-.55,.06-1.1,.02-1.65,.06-1.18,.07-2.32,.37-2.31,1.79,0,1.47,1.19,1.66,2.36,1.65,1.37-.01,3.52-.39,4.9-.42,.37,3.64,.45,5.22,.53,8.57-.85-.27-1.02-.31-1.59-.72,.03-1.87,.34-5.57-1.15-5.73-1.49-.16-1.93,.71-1.82,2.37,.07,1.17,.02,3.51,.02,3.51,.07,1.41-.24,2.75-.94,3.97-.72,1.26-2.39,2.84-.17,3.74,1.76,.71,2.23-.77,2.97-2.03,.56-.96,.66-1.27,1.05-2.85,6.13,5.01,15.72,4.68,18.57,4.61,1.94-.05,5.24-.48,6.13-.83,.96-.38,1.69-1.12,1.55-2.2Z"/>
      <path class="cls-8" d="M138.47,158.88c-2.79-3.17-2.96-6.4-1.18-10.16,3.6,3.16,3.39,6.43,1.18,10.16Z"/>
      <path class="cls-11" d="M212.06,132.16c-.25,1.6-.56,3.77-2.26,5.37-.51,.48-1.01,.11-1.3-.4-1.2-2.15-.45-4.25,.26-6.31,.37-1.09,.58-2.83,2.15-2.43,1.28,.33,1.32,1.91,1.16,3.76Z"/>
      <path class="cls-13" d="M181.81,76.29c1.81,.81,2.57,1.61,2.4,2.52-.15,.79-1.26,1.22-2.32,.89-2.17-.67-3.07-1.88-2.5-3.02s1.39-.85,2.41-.39Z"/>
      <path class="cls-13" d="M186.36,94.75c-1.88-.5-2.02,2.14-2.41,3.74-1.08-.87-2.45-1.8-2.52-2.4,.77-.85,2.33-5.68,2.63-8.13,.07-.55-.32-1.04-.86-1.11l-.81-.1c-.55-.07-1.06,.31-1.15,.86-.27,1.72-.9,5.19-1.44,6.51-1.3-2.55-1.87-7.04-2.19-9.33,.89-.1,4.19-.12,4.76-.26s1.49-.46,1.39-1.28c-.11-.9-1-1.35-2.2-1.24s-3.28,.43-4.35,.32c.08-1.85,.36-4.17-.69-4.65-.9-.41-2,.03-2.05,1-.07,1.22,.18,2.27,.42,3.8-2.27,.63-4.35,.36-4.88,.55-.75,.28-.4,2.2-.18,2.52s.53-.07,.74,1.64,.67,7.12,1.02,10.18c-1.47,1.06-1.73,.65-2.61,1.21-1.03,.66,.16,2.42,1.34,2.45,.68,.02,2.05-.3,3.48-1.45,1.43-1.15,2.68-1.67,3.02-2.54s-.56-2.69-1.57-2c-1.19,.82-1.43,1.29-1.43,1.29-.55-5.05-.79-8.87-.79-10.97,1.12-.08,1.2-.3,2.38-.36,.13,1.89,.76,4.38,1.48,7.07,.71,2.69,.8,2.78,1.45,4.57,0,0-.8,1.19-1.48,1.79s-.88,.58-1.63,1.32,.61,2.76,1.82,2.08,2.15-2.2,2.93-2.98c.82,.71,1.95,1.9,2.98,2.57s2.77,1.14,3.42-.83c1.11-3.35,1.85-5.38-.05-5.88Z"/>
      <path class="cls-12" d="M123.23,45.33c3.96-2.12,8.9-2.28,12.87-4.19,13.13-6.29,27.73-8.65,40.66-15.43l-.43-1.01c-3.32-.95-8.77-.85-11.14-.85-7.69,1.83-4.81,2.6-11.56,4.11-5.53,1.24-10.01,4.89-15.47,6.17-.56,.36-24.31,8.64-25.76,8.35-.6,.29-1.32,.27-1.89,.65-1.84,2.79-3.78,5.06-5.58,7.87-.52,.82-1.45,1.7-.61,2.14,1.19,.61,12.43-4.36,18.9-7.83Z"/>
      <path class="cls-13" d="M219.56,30.78c-5.63-.52-10.38,2.57-15.4,4.3-8.48,2.93-16.87,6.39-25.76,7.47-9.43,1.15-17.84,5.18-26.7,7.91-2.32,.71-4.87,1.1-7.01,2.33-7.27,4.16-15.21,6.4-23.28,8.28-1.35,.32-3,.43-2.73,2.38,.27,1.93,1.77,2.34,3.45,2.06,5.85-.98,11.66-2.65,17.14-4.55,4.49-1.56,8.53-5.06,13.43-6.07,6.1-1.27,11.32-4.77,17.42-6.09,7.77-1.69,15.71-2.4,23.34-5.16,4.5-1.63,9.02-3.13,13.5-4.91,3.98-1.58,7.97-3.98,12.95-3.68,1.43-.45,4.51,1.4,4.69-1.84,.19-3.57-3.11-2.23-5.03-2.41Z"/>
      <path class="cls-13" d="M36.23,105.2c-3.34-.02-4.04-2.8-4.16-4.45-.23-3.16,2.42-4.17,4.71-4.47,2.49,.56,4.42,1.2,4.78,3.69,.15,1.02-.25,2.14-1.12,3.15-1.09,1.27-2.74,2.09-4.19,2.09h-.03Z"/>
      <path class="cls-13" d="M67.76,105.98c-2.43,0-3.84-1.54-4.18-4.57-.09-.83,.25-1.73,.96-2.53,.97-1.08,2.41-1.75,3.78-1.75,.15,0,.29,0,.44,.02,2.27,.25,3.57,1.72,3.85,4.36-.2,2.8-1.74,4.33-4.57,4.45-.09,0-.18,0-.27,0Z"/>
      <path class="cls-13" d="M22.03,93.34c-.52-.15-.86-.38-1.02-.69-.17-.32-.15-.74,.04-1.26,.64-1.68,1.87-2.89,3.76-3.7,3.66-1.56,7.8-3.33,11.17-6.45,.58-.53,1.41-.87,2.22-1.2,.19-.08,.38-.15,.56-.23,.34-.15,.84-.34,1.27-.34,.31,0,.69,.08,.96,.73,.31,.77-.06,1.1-.93,1.75-.11,.09-.23,.17-.35,.27-3.52,2.78-7.44,5.08-11.23,7.31-1.76,1.03-3.58,2.1-5.34,3.21-.31,.19-.63,.36-.92,.5l-.19,.1Z"/>
      <path class="cls-13" d="M89.67,95.98c-.39,0-.87-.12-1.19-1.06-1.08-3.24-3.39-5.18-7.5-6.3-1.2-.33-2.25-1.04-3.37-1.79-1.61-1.09-3.27-2.21-5.48-2.21-.18,0-.37,0-.56,.02,0,0-.02,0-.03,0-.1,0-.24-.02-.37-.2-.19-.27-.23-.73-.08-1.12,.31-.84,.91-1.2,1.99-1.2,.16,0,.33,0,.5,.02,1.39,.64,2.84,1.21,4.23,1.76,4.68,1.85,9.1,3.6,12.16,7.79,.46,.62,.81,1.49,.99,2.45,.2,1.01-.08,1.61-.83,1.78-.17,.04-.33,.06-.47,.06Z"/>
    </g>
  </g>
</svg>