<svg xmlns="http://www.w3.org/2000/svg" width="196.515" height="80" viewBox="0 0 196.515 80">
  <g id="グループ_279" data-name="グループ 279" transform="translate(-40 -40)">
    <path id="パス_945" data-name="パス 945" d="M96.977,43.142a48.209,48.209,0,0,1,1.044,10.414q-.327,1.694-.761,4.069a8.676,8.676,0,0,1-.124,2.109,7.234,7.234,0,0,1-1.632,2.5,5.891,5.891,0,0,1-2.17,1.875,24.4,24.4,0,0,1-6.839.607q-5.177-.288-5.644-.264Q81.7,70,82.942,80.456a39.841,39.841,0,0,1-.014,7q-.141,3.154-.4,6.244a60.215,60.215,0,0,1-.5,7.689,20.871,20.871,0,0,1-2.048,3.829q-2.055,3.076-3.119,3.343-1.687.432-5.954-.373-2.892-.585-5.782-1.172-3.421-.453-3.718-2.362L58.649,66.7a6.342,6.342,0,0,0-3.485-1.618q-1.9-.225-3.632-.351-3.136-.051-6.266-.105-4.866-.182-5.25-1.688a12.975,12.975,0,0,1,.166-2.312q.213-2.51.207-3.644-.211-2.687-.167-8.085.041-.577,2.089-2.186A12.62,12.62,0,0,1,44.8,44.989q5.5-1.4,9.033-2.016,1.175-.2,8.35-.236,8.418.033,11.685-.14,4.263-.327,13.347-.657,2.953-.277,8.441-.258Q96.613,41.722,96.977,43.142Z" fill="#231815"/>
    <path id="パス_946" data-name="パス 946" d="M43.911,49.657l-.225-.887a4.014,4.014,0,0,0-1.461,1.316,86.792,86.792,0,0,1,.309,9.751,8.744,8.744,0,0,0,1.525-1.805,37.21,37.21,0,0,0,.134-5.043A14.6,14.6,0,0,0,43.911,49.657Z" fill="#fd4233"/>
    <path id="パス_947" data-name="パス 947" d="M94.944,45.928l-.519-2.042a73.752,73.752,0,0,1-8.151.657,34.466,34.466,0,0,0-5.488-.021q-5.46.447-17.322.631a56.772,56.772,0,0,0-12.746,1.166l-4.7,1.2q.051,1.313.021,4.91a32.966,32.966,0,0,0-.074,3.421l.385,1.507q4.039-.839,14.128.185c.991-.062,1.963-.089,2.91-.079q1.979-.03,2.27,1.124a20.782,20.782,0,0,1,.021,2.12,12.3,12.3,0,0,0,.133,2.565,283.593,283.593,0,0,1,2.642,36q3.869.342,11.179.841.612-6.867.714-19.842-.257-3.238-2.176-15.229a32.028,32.028,0,0,0-.908-4.3c-.013-.059-.133-.345-.358-.855a8.2,8.2,0,0,1-.4-1.03q-.207-1.175,1.3-1.561a9.971,9.971,0,0,1,1.521.037,7.14,7.14,0,0,0,1.789-.029q4.08-1.039,14.055-1.595Q95.554,48.326,94.944,45.928Z" fill="#fff"/>
    <path id="パス_948" data-name="パス 948" d="M63.3,63.059l-.181-.711q-.3.267-2.335,2.117.043.554.792,13.4.822,8.772,1.991,24.828a20.676,20.676,0,0,0,2.294-3.232,118.118,118.118,0,0,0-.513-15.369Q63.79,64.633,63.3,63.059Z" fill="#fd4233"/>
    <path id="パス_949" data-name="パス 949" d="M166.739,103.157q-.814.131-8.993-2.262-7.307-2.158-9.772-3.062a116.263,116.263,0,0,1,3.257-20.657l-.073-.453a22.843,22.843,0,0,0-2.217,3.513q-1.489,2.838-2.033,2.926a28.923,28.923,0,0,1-5.291-.308,21.644,21.644,0,0,1-5.206-.923,3.831,3.831,0,0,1-1.562-2.207q-.415-1.415-.828-2.835-.076,5.859-.485,17.706a10.469,10.469,0,0,1-1.785,4.461q-1.869,2.808-3.586,3.084a39.232,39.232,0,0,1-5.4-.707q-5.34-.9-6.507-.945a9,9,0,0,1-2.85-.7,6.266,6.266,0,0,1-2.658-1.52q-.583-.738-.685-4.248-.464-9.2-.927-18.406-.381-10.422-.188-18.431a18.7,18.7,0,0,1,.4-4.983,18.23,18.23,0,0,1,14.131-10.164q16.186-2.61,17.607-.7a12.439,12.439,0,0,1,1.446,2.643q.951,2.445,1.114,2.882a11.134,11.134,0,0,1,2.14-4.567,7.427,7.427,0,0,1,4.339-1.859q.9-.147,7.928,1.412,8.436,1.7,9.01,1.794l3.792.5q2.571.421,3.289,1.418a7.666,7.666,0,0,1,.681,2.488q.919,5.694.094,24.755-.933,19.542-2.521,24.063a17.222,17.222,0,0,1-2.624,3.579Q167.553,103.027,166.739,103.157Z" fill="#231815"/>
    <path id="パス_950" data-name="パス 950" d="M115.815,48.56a16.321,16.321,0,0,0-3.64,5.04,31.061,31.061,0,0,0-.131,4.939q-.195,8.011.132,29.016.27,2.833.636,7.97,1.193-.657,3.67-1.984.063-3.628.117-10.781Q116.162,71.418,115.815,48.56Z" fill="#fd4233"/>
    <path id="パス_951" data-name="パス 951" d="M172.091,47.743q-6.486-1.087-19.45-3.822Q147.8,57.041,145.9,57.347q-1.176.19-3.567-6.012-2.613-7-3.5-7.878a106.5,106.5,0,0,0-11.883.524q-2.172.351-8.036,1.946a80.717,80.717,0,0,0-.151,11.156q.35,5.607.695,11.206.095,2.307-.155,12.273a62.811,62.811,0,0,0,.673,12.229q1.9.252,10.5,1.833.335-9.423.671-18.849.654-15.5,1.4-16.646a1.487,1.487,0,0,1,.86-.417q1.266-.2,4.778,7.765,2.2,5.025,4.494,10.037,1.7.19,5.239.268,2.286-5.377,4.484-10.743,3.765-8.862,4.58-9,1.628-.262,2.094,2.632a66.8,66.8,0,0,1,.215,16.293q-.916,8.127-1.833,16.253,6.934,1.017,12.111,2.036a19.4,19.4,0,0,0,.671-4.468q1.455-24.912,1.808-40Z" fill="#fff"/>
    <path id="パス_952" data-name="パス 952" d="M139.77,77.447q-1.667-4-4.981-11.907-.076.106-.394,3.31a14.433,14.433,0,0,0,.073,3.33,13.776,13.776,0,0,0,1.335,3.68q1.313,2.944,1.622,3.728Q138.228,78.81,139.77,77.447Z" fill="#fd4233"/>
    <path id="パス_953" data-name="パス 953" d="M156.079,74.445a20.015,20.015,0,0,0-2.527,2.171q-.367.617-1.429,8.4-1.017,6.938-1.27,9.389a31.241,31.241,0,0,1,3.658-2.631A130.942,130.942,0,0,0,156.079,74.445Z" fill="#fd4233"/>
    <path id="パス_954" data-name="パス 954" d="M149.616,43.574l-1.809.292a16.016,16.016,0,0,0-1.69,3.613,8.5,8.5,0,0,0-.757,3.646,4.505,4.505,0,0,0,.49,1.313Q148.061,47.164,149.616,43.574Z" fill="#fd4233"/>
    <path id="パス_955" data-name="パス 955" d="M236.515,100.011a37.037,37.037,0,0,1-15.387,3.078q-17.795,0-30.68-13.753-1.923-2.115-3.557-8.847a46.045,46.045,0,0,1-1.347-9.714,43.893,43.893,0,0,1,1.058-10q1.633-6.825,7.838-12.887t12.935-6.827A141.9,141.9,0,0,1,222.858,40h2.116q6.926,4.137,6.925,5.867,0,3.079-.386,7.5-.576,6.057-1.345,6.3c-.515.161-1.107.337-1.78.53s-3.125.994-7.357,2.4a19.505,19.505,0,0,0-6.925,3.462,10.829,10.829,0,0,0-2.6,3.318,8.391,8.391,0,0,0-1.25,3.9q0,6.252,2.98,9.04h.579a69.634,69.634,0,0,0,8.078-.482q.67-.093,2.692-.576a13.386,13.386,0,0,1,2.693-.386q1.056,0,4.472,3.7t3.7,4.856A86.915,86.915,0,0,1,236.515,100.011Z" fill="#231815"/>
    <path id="パス_956" data-name="パス 956" d="M227.859,93.952q-.577-3.365-1.25-10-5.1,1.733-16.541,1.731-2.694,0-6.251-3.75t-4.328-6.636a19.108,19.108,0,0,1-.674-5q0-8.173,8.56-12.6,6.153-3.267,15.772-4.039.192-3.462.864-10.29h-3.268q-9.81,0-15.195,1.731a20.35,20.35,0,0,0-11.829,9.039q-.867,1.062-2.308,3.175-2.5,4.713-2.5,13.175a39.76,39.76,0,0,0,1.443,8.944q1.536,6.347,3.076,8.271A25.2,25.2,0,0,0,204.3,94.721a37.175,37.175,0,0,0,12.79,2.308,25.415,25.415,0,0,0,5.29-1.25Q226.128,94.626,227.859,93.952Z" fill="#fff"/>
    <path id="パス_957" data-name="パス 957" d="M215.934,61.448a10.637,10.637,0,0,0-5.1-1.348,7.478,7.478,0,0,0-6.2,3.03,11.037,11.037,0,0,0-2.357,6.972,11.607,11.607,0,0,0,1.635,6.154,30.982,30.982,0,0,0,4.135,4.905,16.713,16.713,0,0,1-1.154-6.732Q206.893,66.351,215.934,61.448Z" fill="#fd4233"/>
    <path id="パス_958" data-name="パス 958" d="M228.725,47.31a1.769,1.769,0,0,0-.507-1.154c-.336-.385-.659-.77-.965-1.154q-.095,3.462-.644,10.29a5.348,5.348,0,0,1,1.656,1.442q0-1.634.229-4.761T228.725,47.31Z" fill="#fd4233"/>
    <path id="パス_959" data-name="パス 959" d="M233.245,95.683q-.193-2.4-.482-4.809-.192-1.921-2.884-4.519v1.538Q229.879,94.24,233.245,95.683Z" fill="#fd4233"/>
    <g id="グループ_278" data-name="グループ 278">
      <path id="パス_960" data-name="パス 960" d="M45.7,119.815v-5.294H44.147v-1.638h5v1.638H47.59v5.294Z" fill="#231815"/>
      <path id="パス_961" data-name="パス 961" d="M51.482,119.815l2.391-6.932h2.368l2.4,6.932h-1.88l-.35-1.24H53.722l-.36,1.24Zm2.647-2.59h1.88l-.7-2.287q-.035-.1-.09-.336t-.147-.6q-.063.255-.121.488c-.039.154-.08.3-.121.445Z" fill="#231815"/>
      <path id="パス_962" data-name="パス 962" d="M61.531,119.815v-6.932H63.4v3.149l2.192-3.149h2.2l-2.562,3.381,2.785,3.551H65.66L63.4,116.7v3.111Z" fill="#231815"/>
      <path id="パス_963" data-name="パス 963" d="M69.979,119.815l2.391-6.932h2.368l2.4,6.932h-1.88l-.35-1.24H72.219l-.36,1.24Zm2.647-2.59h1.88l-.706-2.287q-.033-.1-.09-.336t-.146-.6c-.041.17-.082.333-.121.488s-.08.3-.121.445Z" fill="#231815"/>
      <path id="パス_964" data-name="パス 964" d="M80.028,119.815v-6.932H81.9v3.149l2.193-3.149h2.2l-2.562,3.381,2.785,3.551H84.157L81.9,116.7v3.111Z" fill="#231815"/>
      <path id="パス_965" data-name="パス 965" d="M89.248,112.883h1.885v3.371a10.563,10.563,0,0,0,.037,1.068,2.038,2.038,0,0,0,.128.542.782.782,0,0,0,.379.4,1.419,1.419,0,0,0,.658.14,1.4,1.4,0,0,0,.656-.14.8.8,0,0,0,.381-.4,2,2,0,0,0,.128-.542,10.484,10.484,0,0,0,.038-1.068v-3.371h1.88v3.665a7.515,7.515,0,0,1-.137,1.683,2.274,2.274,0,0,1-.464.926,2.154,2.154,0,0,1-.976.633,5.512,5.512,0,0,1-3.014,0,2.188,2.188,0,0,1-.978-.633,2.32,2.32,0,0,1-.461-.926,7.3,7.3,0,0,1-.14-1.683v-3.665Z" fill="#231815"/>
      <path id="パス_966" data-name="パス 966" d="M99.083,119.815v-6.932h1.975a8.145,8.145,0,0,1,1.617.107,2.045,2.045,0,0,1,.789.357,1.87,1.87,0,0,1,.575.724,2.315,2.315,0,0,1,.2.971,2.06,2.06,0,0,1-.395,1.31,1.931,1.931,0,0,1-1.153.669l1.889,2.794h-2.136l-1.591-2.713v2.713Zm1.771-3.655h.351a1.513,1.513,0,0,0,.892-.209.759.759,0,0,0,.282-.653.922.922,0,0,0-.263-.742,1.387,1.387,0,0,0-.883-.22h-.379Z" fill="#231815"/>
      <path id="パス_967" data-name="パス 967" d="M106.717,119.815l2.392-6.932h2.367l2.4,6.932h-1.879l-.351-1.24h-2.685l-.36,1.24Zm2.647-2.59h1.88l-.705-2.287c-.023-.069-.052-.181-.09-.336s-.087-.355-.147-.6c-.041.17-.082.333-.121.488s-.079.3-.121.445Z" fill="#231815"/>
      <path id="パス_968" data-name="パス 968" d="M129.983,119.815h-1.766l-.408-3q-.042-.318-.078-.706c-.024-.258-.045-.541-.064-.847a8.557,8.557,0,0,1-.26,1.1c-.029.091-.049.159-.062.2l-.942,3.248h-1.26l-.942-3.248q-.019-.067-.057-.2a7.542,7.542,0,0,1-.26-1.094c-.019.263-.042.522-.067.78s-.055.513-.09.769l-.407,3h-1.757l1.07-6.932H124.5l1.046,3.575c.007.024.019.066.038.123a4.563,4.563,0,0,1,.185.819,3.407,3.407,0,0,1,.071-.41c.035-.149.082-.329.142-.542l1.056-3.565h1.875Z" fill="#231815"/>
      <path id="パス_969" data-name="パス 969" d="M140.349,116.363a3.529,3.529,0,0,1-1.075,2.572,3.8,3.8,0,0,1-1.213.788,3.773,3.773,0,0,1-2.838,0,3.635,3.635,0,0,1-1.2-.788,3.5,3.5,0,0,1-.812-1.175,3.669,3.669,0,0,1,0-2.8,3.515,3.515,0,0,1,.812-1.171,3.638,3.638,0,0,1,1.2-.789,3.794,3.794,0,0,1,2.846,0,3.687,3.687,0,0,1,1.205.789,3.55,3.55,0,0,1,1.075,2.571Zm-3.7,2.036a1.665,1.665,0,0,0,1.3-.577,2.308,2.308,0,0,0-.007-2.913,1.736,1.736,0,0,0-2.592,0,2.342,2.342,0,0,0-.007,2.919A1.663,1.663,0,0,0,136.646,118.4Z" fill="#231815"/>
      <path id="パス_970" data-name="パス 970" d="M145.747,119.815l-2.908-6.932h2.008l1.388,3.878c.013.042.039.14.078.295s.091.368.154.633c.05-.212.1-.4.142-.573s.077-.289.1-.355l1.378-3.878h2.008l-2.907,6.932Z" fill="#231815"/>
      <path id="パス_971" data-name="パス 971" d="M152.936,119.815v-6.932h1.908v6.932Z" fill="#231815"/>
      <path id="パス_972" data-name="パス 972" d="M158.6,119.815v-6.932h1.824l2.618,3.565a4.7,4.7,0,0,1,.249.438q.173.33.381.784c-.038-.288-.065-.543-.083-.767s-.026-.422-.026-.6v-3.423h1.814v6.932h-1.814l-2.619-3.58a4.066,4.066,0,0,1-.253-.438c-.115-.219-.241-.478-.376-.774.037.291.065.548.082.772s.027.422.027.6v3.423Z" fill="#231815"/>
      <path id="パス_973" data-name="パス 973" d="M172.389,117.263v-1.454H176.1c0,.047.006.1.007.156s0,.141,0,.251a3.861,3.861,0,0,1-.944,2.778,3.512,3.512,0,0,1-2.659.987,4.114,4.114,0,0,1-1.5-.254,3.3,3.3,0,0,1-1.172-.774,3.5,3.5,0,0,1-.765-1.177,3.79,3.79,0,0,1-.272-1.422,3.75,3.75,0,0,1,.265-1.428,3.508,3.508,0,0,1,1.987-1.939,4,4,0,0,1,1.456-.261,3.9,3.9,0,0,1,1.8.4,3.517,3.517,0,0,1,1.318,1.2l-1.638.786a1.983,1.983,0,0,0-.661-.6,1.712,1.712,0,0,0-.821-.2,1.672,1.672,0,0,0-1.336.567,2.288,2.288,0,0,0-.487,1.545,2.313,2.313,0,0,0,.487,1.558,1.67,1.67,0,0,0,1.336.569,1.969,1.969,0,0,0,1.2-.354,1.34,1.34,0,0,0,.561-.939Z" fill="#231815"/>
      <path id="パス_974" data-name="パス 974" d="M189.787,113.153v2.064a2.827,2.827,0,0,0-.774-.632,1.763,1.763,0,0,0-.826-.2,1.692,1.692,0,0,0-1.319.557,2.076,2.076,0,0,0-.5,1.451,1.944,1.944,0,0,0,.513,1.382,1.717,1.717,0,0,0,1.31.55,1.775,1.775,0,0,0,.826-.2,2.822,2.822,0,0,0,.774-.638v2.07a4.47,4.47,0,0,1-.9.327,3.747,3.747,0,0,1-.9.108,3.907,3.907,0,0,1-1.049-.134,3.025,3.025,0,0,1-.884-.41,3.494,3.494,0,0,1-1.183-1.312,3.823,3.823,0,0,1-.408-1.78,3.915,3.915,0,0,1,.258-1.447,3.534,3.534,0,0,1,.779-1.181,3.241,3.241,0,0,1,1.111-.758,3.611,3.611,0,0,1,1.376-.251,3.749,3.749,0,0,1,.9.109A4.47,4.47,0,0,1,189.787,113.153Z" fill="#231815"/>
      <path id="パス_975" data-name="パス 975" d="M193.084,119.815v-6.932h4.247v1.52h-2.4v1.2h2.268v1.487h-2.268v1.17h2.4v1.553Z" fill="#231815"/>
      <path id="パス_976" data-name="パス 976" d="M200.812,119.815v-6.932h1.823l2.619,3.565a5.024,5.024,0,0,1,.248.438c.115.22.243.481.381.784-.037-.288-.065-.543-.082-.767s-.027-.422-.027-.6v-3.423h1.814v6.932h-1.814l-2.618-3.58a4.021,4.021,0,0,1-.254-.438c-.115-.219-.24-.478-.376-.774.038.291.065.548.083.772s.026.422.026.6v3.423Z" fill="#231815"/>
      <path id="パス_977" data-name="パス 977" d="M212.3,119.815v-5.294h-1.553v-1.638h5v1.638H214.2v5.294Z" fill="#231815"/>
      <path id="パス_978" data-name="パス 978" d="M218.9,119.815v-6.932h4.247v1.52h-2.4v1.2h2.268v1.487h-2.268v1.17h2.4v1.553Z" fill="#231815"/>
      <path id="パス_979" data-name="パス 979" d="M226.63,119.815v-6.932H228.6a8.137,8.137,0,0,1,1.617.107,2.039,2.039,0,0,1,.789.357,1.861,1.861,0,0,1,.575.724,2.315,2.315,0,0,1,.2.971,2.061,2.061,0,0,1-.4,1.31,1.931,1.931,0,0,1-1.153.669l1.89,2.794h-2.136L228.4,117.1v2.713Zm1.771-3.655h.35a1.516,1.516,0,0,0,.893-.209.759.759,0,0,0,.282-.653.922.922,0,0,0-.263-.742,1.391,1.391,0,0,0-.883-.22H228.4Z" fill="#231815"/>
    </g>
  </g>
</svg>
