<?xml version="1.0" encoding="UTF-8"?>
<svg id="_レイヤー_2" data-name="レイヤー 2" xmlns="http://www.w3.org/2000/svg" viewBox="0 0 183.68 188.79">
  <defs>
    <style>
      .cls-1 {
        fill: #231815;
      }

      .cls-1, .cls-2, .cls-3 {
        stroke-width: 0px;
      }

      .cls-2 {
        fill: #faa2ad;
      }

      .cls-3 {
        fill: #f03c3c;
      }
    </style>
  </defs>
  <g id="design">
    <g>
      <path class="cls-1" d="M112.81,176.11c.52-5.08-1.23-10.06-.32-15.24-1.63,0-2.89-.02-4.14,0-3.43.08-5.6-1.97-5.66-5.46-.02-1.06.02-2.15.21-3.19.69-3.9,1.12-7.75-.1-11.65-.34-1.07-.09-2.33-.1-3.51,0-1.37,0-2.75,0-4.3-2.52,1.13-4.72,1.5-6.64-.52-.41-.43-.88-.9-1.08-1.44-.8-2.19-1.66-4.37-2.21-6.62-1.08-4.44.89-7.93,5.18-9.52.66-.24,1.31-.5,2.19-.83-.15-2.94.26-5.99-.29-9.15h-6.78c.03,2.03-.36,4.01-1.84,5.47-1.18,1.17-2.81.87-4.28.78-2.98-.18-3.94-1.68-4.03-6.35h-18.08c0-1.24.04-2.17,0-3.09-.22-4.33-.46-8.65-.72-13.55-.72.8-1.17,1.14-1.42,1.59-1.69,3.09-3.5,6.07-6.03,8.59-1.03,1.02-1.56,2.52-2.48,3.67-1.11,1.39-2.32,2.72-3.62,3.94-.92.87-2.15,1.41-3.09,2.26-2.99,2.7-6.55,4.23-10.31,5.48-4.04,1.34-7.74.71-11.28-1.43-1-.61-1.96-1.27-2.93-1.93-1.53-1.05-2.6-2.34-3.19-4.21-.87-2.73-1.86-5.39-1.72-8.53-4.14-.17-7.7-1.5-10.97-3.83-4.22-3.01-5.9-7.37-6.9-12.12-.26-1.23-.11-2.55-.13-3.83-.05-2.77.8-5.22,2.63-7.31,1.41-1.6,2.86-3.16,4.27-4.76,2.3-2.6,4.96-4.52,8.39-5.53,4.46-1.3,8.78-3.08,13.23-4.45,2.85-.88,5.82-1.14,8.83-.92,2.86.21,5.71.04,8.77-.37-.09-.75-.18-1.33-.22-1.92-.11-1.47-.43-2.98-.22-4.41.25-1.69,1.13-3.05,2.9-3.9,2.25-1.08,4.44-1.71,6.99-1.77,4.01-.1,8.01-.71,12.01-1.11,2-.2,4.09-.12,5.98-.69,4.67-1.41,9.43-1.31,14.21-1.37,2.32-.03,4.64-.46,6.95-.71,3.48-.39,6.95-.79,10.43-1.17,2.85-.31,5.69-.63,8.55-.88,1.69-.14,3.4-.23,5.09-.18,1.69.05,3.38.45,5.06.44,6.82-.04,13.54.97,20.28,1.81,2.53.31,5.07.61,7.61.69,2.54.09,4.16,1.3,5.25,3.48.56,1.13,1.2,2.22,1.83,3.32.84,1.47,1.61,2.87,1.02,4.72-.27.84.04,1.89.18,2.83.43,2.96.53,5.77-.52,8.76-.89,2.53-.91,5.42-1.04,8.17-.2,3.92-.24,7.85-1.29,11.68-.36,1.32-.7,2.65-1.07,3.97-.2.72-.66,1.42-.64,2.13.15,5.17-2.29,9.92-2.32,15.06,0,.62-.22,1.24-.39,1.84-.87,3.16-1.57,6.31-.74,9.62.2.79.04,1.72-.14,2.54-.99,4.53-1.6,9.21-3.2,13.52-1.3,3.51-1.84,7.09-2.69,10.65-.39,1.64-1,3.23-1.45,4.85-.53,1.92-.71,3.78-.51,5.88.39,4.18-1.12,7.61-6.36,7.38-1.79-.08-3.58-.38-5.37-.41-3.12-.05-3.57.31-4.24,3.45-.3,1.44-.33,2.93-.44,4.41-.24,3.07-.49,6.14-.64,9.21-.04.82.21,1.67.41,2.48.96,3.95-.24,5.85-4.22,6.57-.62.11-1.44.03-1.81.39-1.9,1.87-4.21,1.74-6.58,1.69-3.71-.07-7.35.05-11.05,1.01-2.76.71-5.86.69-8.81-.28-1.86-.61-2.94-1.6-3.07-3.52-.13-1.98.13-3.7,2.08-4.96,5.46-3.52,11.27-4.74,17.62-3.22.19.04.41-.06,1.25-.2ZM103.29,115.7c3.59-3.03,6.54-6.02,8.9-9.56,3.11-4.66,6.55-9.11,9.04-14.17.14-.28.29-.58.5-.81,1.17-1.25,2.34-2.49,3.55-3.7.72-.72,1.54-1.21,2.5-.32.95.89.48,1.75-.08,2.56-.42.61-.97,1.12-1.43,1.71-1.04,1.34-2.34,2.57-3.03,4.08-1.78,3.9-4.18,7.37-6.78,10.74-.39.5-.65,1.1-1.05,1.58-2.36,2.87-4.62,5.84-7.18,8.52-1.2,1.25-2.91,2.12-4.54,2.84-2.74,1.21-2.79,1.1-4.99-1.39-.72.73-1.8,1.33-2.03,2.17-.37,1.38-.47,2.97-.17,4.36.44,2.01,1.35,3.93,2.14,6.11,1.53-.57,2.87-1.07,4.22-1.57-1.96-4.97-1.07-7.01,3.59-8.8,1.18-.45,2.63-.69,3.45-1.52,3.73-3.78,7.61-7.49,10.77-11.71,2.02-2.71,3.79-5.59,6.16-8.06,1.62-1.69,3.03-3.58,4.56-5.35.4-.47.85-1,1.39-1.23.51-.22,1.39-.32,1.7-.03.46.43.67,1.23.78,1.9.06.33-.3.78-.55,1.1-1.13,1.41-2.31,2.79-3.45,4.19-2.61,3.2-5.69,6.01-7.53,9.84-.67,1.39-1.94,2.52-3,3.7-1.13,1.26-2.45,2.36-3.49,3.68-2.77,3.52-6.08,6.18-10.48,7.36-.49.13-.93.5-1.39.76,1.2,1.8,1.72,3.63.74,5.7-.2.42-.1,1.01-.06,1.52.12,1.79.29,3.58.41,5.37.07,1.06-.12,2.18.15,3.18,1,3.69.8,7.35.08,11.03-1.05,5.35.48,6.74,5.89,5.32.78-.21,1.6-.27,2.22-.37,1.4,1.42,1.35,2.9,1.3,4.42-.12,4.04-.31,8.07.51,12.1.25,1.26-.13,2.76-.56,4.04-.87,2.61-2.38,3.35-5.16,2.73-4.99-1.11-9.62-.28-13.99,2.35-1.09.65-1.6,1.31-1.08,2.52,2.19.8,4.29.95,6.55.28,4.42-1.31,8.96-1.64,13.56-1.32.7.05,1.41-.09,2.39-.16-.18-2.1-.35-3.98-.51-5.86-.07-.84-.2-1.69-.16-2.52.08-1.47.31-2.93.43-4.4.29-3.59.52-7.19.82-10.79.08-.94.37-1.87.51-2.81.17-1.18.82-1.9,2.06-2.35,1.02.73,1.92,1.33,1.46,3.04-.43,1.62-.32,3.37-.45,5.07-.06.84-.07,1.69-.2,2.52-.86,5.25-1.56,10.51-.33,15.8.04.17.29.29.52.5.44-.1.93-.22,1.64-.38-.19-1.05-.4-1.97-.52-2.9-.13-.93-.28-1.88-.23-2.82.1-2,.32-4,.49-5.99.24-2.75.39-5.5.77-8.23.17-1.23.69-2.44,1.24-3.58.3-.63.9-1.41,1.49-1.54,1.84-.4,3.75-.71,5.63-.7,2.2,0,4.39.36,6.3.54,1.42-1.57,1.55-3.04,1.07-4.51-.43-1.3-.27-2.44.12-3.71.83-2.72,1.76-5.45,2.18-8.25.53-3.55,1.08-7,2.84-10.24.72-1.32.47-3.14.97-4.63.7-2.08.75-4.15.61-6.28-.06-.93-.11-1.98.25-2.8.79-1.82.94-3.66.91-5.59-.02-1.03.31-2.08.49-3.11.28-1.66.56-3.32.86-4.98.44-2.49.91-4.99,1.35-7.48.4-2.28.78-4.57,1.19-6.85.13-.72.23-1.45.46-2.15,1.2-3.74,2.05-7.52,2.14-11.48.09-3.71.43-7.42.69-11.12.03-.41.14-.85.36-1.2,1.15-1.85.88-3.86.93-5.89.05-1.99-1.06-3.93-.15-5.94.11-.25-.01-.63-.1-.93-1.14-4-4.11-6.27-8.31-6.51-3.07-.18-6.19-.25-9.19-.83-7.24-1.4-14.6-.82-21.87-1.65-1.96-.22-4,.28-6,.44-3.5.27-7,.48-10.49.8-2,.18-4,.46-5.97.81-3.13.56-6.26,1-9.46.95-2.23-.04-4.57-.19-6.68.37-5.16,1.37-10.42,1.77-15.67,2.27-3.17.3-6.35.35-9.53.58-3.29.24-4.37,1.93-3.88,5.3.62,4.18-.39,6.85-5.3,6.92-2.67.04-5.35-.02-8.01.06-1.68.05-3.41.1-5.03.5-3.38.81-6.76,1.68-10.03,2.83-7.66,2.71-7.55,2.87-13.4,8.61-2.79,2.74-4.08,5.63-3.76,9.64.63,7.84,5.37,12,12.01,13.62,1.32.32,2.4-.35,3.04-1.64.66-1.32,1.25-2.68,2-3.95.7-1.18,1.72-2.18,2.33-3.39,1.72-3.42,4.19-6.09,7.32-8.27,1.56-1.09,3.32-2.18,4.32-3.71,2.07-3.15,5.06-4.67,8.36-5.98,2.26-.9,4.44-1.98,6.65-2.99,1.65-.75,3.3-1.45,5.17-1.34,1.92.12,2.22.64,1.7,2.97-1.6.42-3.4.54-4.81,1.34-2.42,1.37-4.95,2.35-7.53,3.34-2.67,1.02-5.14,2.38-6.75,5.01-.74,1.21-2,2.17-3.2,3-3.36,2.33-6.55,4.75-8.11,8.74-.22.57-.73,1.04-1.13,1.53-4.35,5.3-4.21,11.07-1.73,17.05.27.65.78,1.3,1.36,1.7,1.39.96,2.88,1.79,4.35,2.64,1.97,1.14,4.14,1.13,6.22.63,6-1.44,10.47-5.43,14.95-9.33.69-.6,1.05-1.58,1.58-2.37.77-1.14,1.42-2.42,2.38-3.37,2.02-1.97,3.44-4.32,4.81-6.72.84-1.47,1.67-2.95,2.54-4.41.32-.54.71-1.08,1.18-1.48.94-.8,2.12-.52,2.64.6.3.65.37,1.44.76,2.02,1.24,1.83,1.84,3.79,1.71,5.99-.04.74-.11,1.57.16,2.22.77,1.86.55,3.76.5,5.67-.02.7,0,1.41,0,2.24h28.67c1.35-2.57,1.15-4.95-.31-7.27-.22-.36-.53-.76-.52-1.14.02-.58.11-1.41.48-1.65.41-.27,1.24-.16,1.77.06.43.18.81.72,1.01,1.19,1.05,2.41,2.38,4.77,1.15,7.57-.28.63-.14,1.44-.2,2.11,2.17,1.51,2.54,2.01,2.62,4.44.09,2.86.02,5.73.02,9.1ZM90.68,104.54c-1.33,0-1.97,0-2.61,0-.21,0-.43-.01-.64,0-1.56.09-2.05.52-2.05,1.78,0,1.45.54,1.97,2.17,2.07.63.04,1.26,0,2.15,0,.31-1.21.6-2.35.98-3.86Z"/>
      <path class="cls-1" d="M45.8,6.99c.69,1,1.63,1.85,1.92,2.87,1.23,4.27,2.44,8.56,2.37,13.06-.03,1.97-.29,2.44-2.19,2.98-3.75,1.06-7.54,1.99-11.33,2.94-.76.19-1.56.09-1.84-.82-.3-.97-.29-2.03.72-2.54,1.02-.51,2.17-.79,3.29-1.09,2.53-.68,5.07-1.31,7.69-1.98-.33-3.95-.88-7.54-2.32-11.12-3.2.99-6.21,1.96-9.23,2.86-1,.3-2.05.56-3.08.59-.5.01-1.27-.44-1.45-.88-.2-.47,0-1.28.31-1.73.33-.48.97-.86,1.54-1.04,4.43-1.38,8.88-2.7,13.59-4.11Z"/>
      <path class="cls-1" d="M153.66,22.96c-1.09.07-1.85.25-2.57.13-.54-.09-1.39-.5-1.45-.87-.09-.61.15-1.56.6-1.9.72-.55,1.72-.93,2.63-1,5.33-.4,14.93,1.55,18,8.88,1.87,4.48,3.82,8.94,5.3,13.56.53,1.66-.14,3.75-.44,5.62-.17,1.05-1.02,1.63-2.15,1.41-1.14-.22-1.76-1.11-1.4-2.11,1.15-3.22-.1-5.99-1.3-8.84-.61-1.46-.91-3.05-1.52-4.5-3.28-7.83-7.01-10.04-15.7-10.36Z"/>
      <path class="cls-1" d="M86.07,126.39c-3.75-2.23-4.48-3.11-6.49-7.73-1.69,0-3.49.03-5.28-.01-.73-.02-1.51-.04-2.18-.31-.39-.15-.8-.78-.81-1.21-.01-.42.37-1.03.75-1.25.52-.3,1.21-.41,1.82-.41,4.38-.04,8.75-.06,13.13-.02,1.77.02,2.06.29,2.09,2.03.08,4.69.08,9.38.13,14.08.01,1.06-.19,1.97-1.5,1.98-1.24,0-1.63-.86-1.66-1.91-.04-1.7-.01-3.4-.01-5.23ZM85.82,123.63v-4.9h-3.96c1.14,2.04,1.61,4.16,3.96,4.9Z"/>
      <path class="cls-1" d="M183.68,28.35c-.32,1.43-.55,2.89-.99,4.29-.39,1.22-1.51,1.76-2.48,1.35-1.05-.44-1.41-1.37-1.07-2.37,1.41-4.2.22-7.81-2.06-11.39-2.08-3.26-5.1-4.95-8.58-6.11-.6-.2-1.23-.3-1.83-.49-1-.32-1.78-.92-1.53-2.06.21-.92,1.01-1.32,1.96-1.28.74.03,1.51,0,2.22.18,8.73,2.2,14.09,10.45,14.37,17.89Z"/>
      <path class="cls-1" d="M10.41,11.8c-.82,1.47-1.45,2.54-2.02,3.64-.48.94-.83,1.94-1.32,2.87-.78,1.46-1.71,1.88-2.73,1.33-1.02-.55-1.23-1.47-.53-3.05.77-1.74,1.65-3.43,2.48-5.14.05-.1.09-.19.15-.28,1.54-2.51,3.89-3.34,6.52-2.08,1.71.82,3.35,1.83,4.9,2.93,2.07,1.47,4.04,3.1,6.02,4.69.58.46,1.31.95,1.52,1.58.23.68.16,1.69-.21,2.28-.23.36-1.36.43-1.93.23-.76-.27-1.39-.93-2.07-1.44-2.54-1.91-5.07-3.85-7.64-5.73-.84-.61-1.8-1.05-3.14-1.82Z"/>
      <path class="cls-1" d="M48.75,145.65c-.95-.65-.74-2.14.36-2.46,1.28-.37,2.76-.03,3.52-1.51-1.06,0-2.01.06-2.95-.01-2.58-.2-4.28-1.9-4.53-4.44-.23-2.35,1.28-4.45,3.68-5.14,3.76-1.08,6.21.31,7.02,4.06.33,1.53.72,3.14.6,4.67-.29,3.83-3.86,5.46-6.72,5.24-.34-.03-.66-.19-.99-.42ZM50.97,138.49c.4-.06.76-.29.98-.63.57-.91,1.06-1.72.08-2.67-.95-.92-2.04-.64-2.83.05-.52.46-1.01,1.49-.86,2.1.36,1.42,1.45,1.32,2.63,1.16Z"/>
      <path class="cls-1" d="M68.86,20.56c-.24-1.36-.52-3.02-.85-4.67-.1-.51-.4-.99-.5-1.5-.29-1.51.23-2.59,1.34-2.81,1.43-.29,1.89.8,2.24,1.78,1.61,4.5,1.71,8.99.39,13.67-1.03,3.66-2.85,6.56-5.83,8.81-.42.32-.85.63-1.3.92-.98.63-1.99.88-2.83-.17-.92-1.15-.13-1.95.66-2.72.31-.29.62-.59.97-.82,4.46-2.87,5.11-7.48,5.7-12.49Z"/>
      <path class="cls-1" d="M68,133.34c.02,1.8.12,3.61.05,5.41-.14,3.76-3.34,6-6.84,4.75-.74-.26-1.49-.93-1.9-1.6-1.33-2.2-2.33-4.58-2.07-7.2.12-1.21.56-2.52,1.25-3.51,2-2.88,5.68-2.9,7.86-.16.62.77,1.15,1.61,1.72,2.42l-.08-.09ZM63.34,140.41c.84-.05,1.52-.69,1.6-1.52.2-1.84.19-3.56-.59-5.24-.42-.9-1.03-1.68-2.15-1.49-1.2.2-1.85,1.11-1.8,2.25.05,1.33.23,2.71.63,3.98.56,1.79.73,2.12,2.31,2.03Z"/>
      <path class="cls-1" d="M20.42,0c3.1.01,5.11,1.9,5.1,4.8,0,2.49-2.8,5.22-5.42,5.29-2.95.08-5.33-2.18-5.31-5.05C14.82,1.86,16.91-.02,20.42,0ZM21.29,5.38c.43-.59.09-1.43-.63-1.55-.33-.06-.63-.09-.92-.07-.41.03-1.09.51-1.1.8-.01.54.25,1.23.64,1.59.25.23,1.08.17,1.4-.08.23-.18.42-.41.62-.68Z"/>
      <path class="cls-1" d="M68.08,133.43c-.02-.73-.04-1.47-.04-2.2-.01-2.17,1.15-3.77,3.05-4.22,2.21-.52,3.81.23,4.7,2.2.85,1.88.28,4.77-1.29,5.7-1.47.86-3.06.67-4.51-.17-.7-.4-1.32-.93-1.98-1.41l.08.09ZM70.72,130.77c.49,1.17,1.05,1.92,2.14,1.23.28-.18.44-1.08.24-1.37-.69-1.01-1.51-.71-2.38.14Z"/>
      <path class="cls-1" d="M60.74,26.91c-.54-.7-1.34-1.33-1.59-2.13-.76-2.42-1.32-4.89-1.92-7.36-.12-.51-.1-1.06-.11-1.59-.02-.97.31-1.66,1.4-1.77.97-.09,1.66.21,1.94,1.23.55,2.04,1.12,4.07,1.67,6.1.19.71.39,1.43.54,2.15.37,1.7.27,1.86-1.93,3.37Z"/>
      <path class="cls-2" d="M103.29,115.7c0-3.37.07-6.24-.02-9.1-.07-2.43-.45-2.93-2.62-4.44.05-.67-.08-1.48.2-2.11,1.23-2.8-.1-5.16-1.15-7.57-.2-.47-.58-1.01-1.01-1.19-.53-.22-1.36-.34-1.77-.06-.37.25-.47,1.08-.48,1.65-.01.37.3.78.52,1.14,1.45,2.33,1.66,4.71.31,7.27h-28.67c0-.84-.02-1.54,0-2.24.05-1.91.27-3.81-.5-5.67-.27-.65-.2-1.48-.16-2.22.13-2.21-.48-4.17-1.71-5.99-.39-.58-.46-1.37-.76-2.02-.51-1.12-1.69-1.4-2.64-.6-.47.4-.86.94-1.18,1.48-.88,1.45-1.7,2.93-2.54,4.41-1.37,2.41-2.79,4.75-4.81,6.72-.97.95-1.61,2.22-2.38,3.37-.54.79-.89,1.77-1.58,2.37-4.48,3.9-8.95,7.89-14.95,9.33-2.08.5-4.25.51-6.22-.63-1.47-.85-2.95-1.68-4.35-2.64-.58-.4-1.09-1.05-1.36-1.7-2.49-5.98-2.62-11.74,1.73-17.05.4-.49.91-.96,1.13-1.53,1.56-3.99,4.75-6.41,8.11-8.74,1.2-.83,2.46-1.8,3.2-3,1.61-2.63,4.08-3.99,6.75-5.01,2.57-.99,5.11-1.96,7.53-3.34,1.41-.8,3.21-.92,4.81-1.34.53-2.33.22-2.86-1.7-2.97-1.87-.11-3.52.59-5.17,1.34-2.21,1.01-4.39,2.1-6.65,2.99-3.29,1.31-6.29,2.82-8.36,5.98-1,1.53-2.76,2.63-4.32,3.71-3.13,2.18-5.6,4.85-7.32,8.27-.61,1.21-1.63,2.22-2.33,3.39-.75,1.27-1.34,2.63-2,3.95-.65,1.29-1.72,1.96-3.04,1.64-6.64-1.61-11.37-5.78-12.01-13.62-.32-4.01.97-6.91,3.76-9.64,5.84-5.74,5.73-5.9,13.4-8.61,3.27-1.16,6.65-2.02,10.03-2.83,1.62-.39,3.35-.44,5.03-.5,2.67-.09,5.34-.03,8.01-.06,4.92-.07,5.92-2.74,5.3-6.92-.49-3.36.58-5.05,3.88-5.3,3.17-.23,6.36-.28,9.53-.58,5.26-.5,10.52-.9,15.67-2.27,2.11-.56,4.45-.41,6.68-.37,3.2.05,6.33-.39,9.46-.95,1.98-.35,3.97-.63,5.97-.81,3.49-.32,6.99-.53,10.49-.8,2-.15,4.04-.66,6-.44,7.27.83,14.63.25,21.87,1.65,3.01.58,6.12.65,9.19.83,4.2.25,7.17,2.51,8.31,6.51.09.3.21.68.1.93-.91,2,.2,3.95.15,5.94-.05,2.03.22,4.05-.93,5.89-.21.34-.33.79-.36,1.2-.26,3.71-.6,7.41-.69,11.12-.09,3.96-.94,7.74-2.14,11.48-.22.69-.33,1.43-.46,2.15-.4,2.28-.78,4.57-1.19,6.85-.44,2.49-.9,4.99-1.35,7.48-.29,1.66-.57,3.32-.86,4.98-.18,1.04-.51,2.08-.49,3.11.03,1.93-.12,3.77-.91,5.59-.36.82-.31,1.87-.25,2.8.14,2.14.09,4.2-.61,6.28-.5,1.49-.25,3.3-.97,4.63-1.76,3.24-2.31,6.69-2.84,10.24-.42,2.8-1.35,5.53-2.18,8.25-.39,1.26-.55,2.41-.12,3.71.48,1.47.35,2.94-1.07,4.51-1.91-.18-4.1-.54-6.3-.54-1.88,0-3.79.3-5.63.7-.59.13-1.19.91-1.49,1.54-.54,1.13-1.07,2.35-1.24,3.58-.38,2.73-.53,5.48-.77,8.23-.17,2-.39,3.99-.49,5.99-.05.93.11,1.88.23,2.82.13.93.33,1.84.52,2.9-.7.17-1.2.28-1.64.38-.23-.21-.48-.33-.52-.5-1.23-5.29-.53-10.54.33-15.8.14-.83.14-1.68.2-2.52.13-1.69.02-3.45.45-5.07.45-1.7-.44-2.3-1.46-3.04-1.23.45-1.89,1.17-2.06,2.35-.13.94-.43,1.86-.51,2.81-.3,3.59-.54,7.19-.82,10.79-.12,1.47-.35,2.93-.43,4.4-.05.84.09,1.68.16,2.52.16,1.88.33,3.77.51,5.86-.98.07-1.69.2-2.39.16-4.6-.32-9.14.01-13.56,1.32-2.25.67-4.36.51-6.55-.28-.51-1.21,0-1.87,1.08-2.52,4.37-2.63,9-3.46,13.99-2.35,2.78.62,4.28-.12,5.16-2.73.43-1.28.81-2.77.56-4.04-.81-4.03-.63-8.06-.51-12.1.05-1.51.1-2.99-1.3-4.42-.61.1-1.43.17-2.22.37-5.4,1.42-6.94.03-5.89-5.32.72-3.67.92-7.34-.08-11.03-.27-1-.08-2.12-.15-3.18-.12-1.79-.29-3.58-.41-5.37-.03-.51-.14-1.09.06-1.52.98-2.07.46-3.9-.74-5.7.46-.26.89-.62,1.39-.76,4.4-1.18,7.71-3.85,10.48-7.36,1.04-1.32,2.36-2.42,3.49-3.68,1.06-1.19,2.33-2.31,3-3.7,1.84-3.83,4.92-6.64,7.53-9.84,1.15-1.4,2.32-2.78,3.45-4.19.26-.32.61-.77.55-1.1-.11-.68-.32-1.47-.78-1.9-.31-.29-1.2-.19-1.7.03-.54.23-.98.76-1.39,1.23-1.53,1.78-2.94,3.67-4.56,5.35-2.37,2.46-4.14,5.35-6.16,8.06-3.16,4.23-7.04,7.94-10.77,11.71-.82.83-2.27,1.06-3.45,1.52-4.66,1.79-5.56,3.83-3.59,8.8-1.35.5-2.69,1-4.22,1.57-.79-2.18-1.7-4.1-2.14-6.11-.31-1.39-.2-2.98.17-4.36.23-.84,1.31-1.44,2.03-2.17,2.2,2.49,2.25,2.6,4.99,1.39,1.63-.72,3.34-1.58,4.54-2.84,2.56-2.68,4.82-5.65,7.18-8.52.4-.49.66-1.08,1.05-1.58,2.6-3.36,5-6.83,6.78-10.74.69-1.51,1.99-2.74,3.03-4.08.46-.59,1.01-1.1,1.43-1.71.56-.81,1.03-1.68.08-2.56-.96-.89-1.78-.41-2.5.32-1.21,1.21-2.38,2.45-3.55,3.7-.21.23-.36.52-.5.81-2.49,5.06-5.93,9.51-9.04,14.17-2.36,3.54-5.31,6.54-8.9,9.56ZM80.85,96.2c-.52.27-1.07.52-1.59.83-.71.41-1.25,1.1-.8,1.83.33.53,1.11.85,1.76,1.08.33.12.82-.1,1.21-.25,1.89-.72,2.98-2.75,2.67-4.92-.31-2.14-2.56-4.33-4.55-4.21-.61.03-1.41.56-1.72,1.09-.44.74.09,1.59.85,1.79,1.41.37,2.24,1.04,2.19,2.77Z"/>
      <path class="cls-3" d="M90.68,104.54c-.38,1.51-.67,2.65-.98,3.86-.89,0-1.52.03-2.15,0-1.63-.1-2.17-.62-2.17-2.07,0-1.26.49-1.69,2.05-1.78.21-.01.43,0,.64,0,.64,0,1.28,0,2.61,0Z"/>
      <path class="cls-1" d="M80.85,96.2c.05-1.73-.78-2.4-2.19-2.77-.75-.2-1.28-1.05-.85-1.79.31-.53,1.11-1.06,1.72-1.09,1.99-.11,4.25,2.08,4.55,4.21.31,2.17-.77,4.2-2.67,4.92-.39.15-.88.37-1.21.25-.65-.24-1.43-.55-1.76-1.08-.45-.73.09-1.42.8-1.83.52-.3,1.07-.56,1.59-.83Z"/>
    </g>
  </g>
</svg>