<?xml version="1.0" encoding="UTF-8"?>
<svg id="_レイヤー_2" data-name="レイヤー 2" xmlns="http://www.w3.org/2000/svg" viewBox="0 0 807.23 113.39">
  <defs>
    <style>
      .cls-1 {
        fill: #fff;
        stroke-width: 0px;
      }
    </style>
  </defs>
  <g id="design">
    <g>
      <path class="cls-1" d="M107.02,112.45l-3.37-67.72-20.81,65.99c-8.83,1.57-17.4,2.28-25.98,2.04l-19.3-70.37-6.11,69.81c-10.51-.84-20.98-1.36-31.45-1.6L15.75,4.08c13.21-.85,26.4-2.2,39.56-4.08l16.96,63.85L95.27,1.28c12.26.88,24.51,1.24,36.75,1.15l12.52,106.78c-11.01,2.15-23.66,3.24-37.52,3.24Z"/>
      <path class="cls-1" d="M245.89,110.99h-75.55V2.49h75.04c.78,8.97-.75,18.6-1.23,27.9h-36.92v14.51h30.38c.61,6.98-.58,14.47-.95,21.7h-29.42v15.72h39.92c.81,9.22-.77,19.12-1.26,28.67Z"/>
      <path class="cls-1" d="M273.94,107.97c-4.28-11.05-5.36-22.1-4.46-33.16,5.71,3.76,17.57,9.25,30.71,9.25,9.05,0,14.44-2.5,14.44-6.47s-5.59-6.16-15.77-9.86c-10.22-3.71-29.23-10.48-29.23-32.21S287.33.23,316.13.23c12.62,0,23.69,2.68,28.7,4.71-.18,7.13-2.21,18.93-6.52,29.12-4.28-3.39-13.9-7.35-24.84-7.35-6.03,0-8.91,1.57-8.91,4.43,0,3.92,5.74,6,15.56,9.82,10.69,4.16,29.6,11.32,29.6,34.21s-18.15,38.09-47.54,38.09c-13.57,0-23.54-3.28-28.24-5.28Z"/>
      <path class="cls-1" d="M375.77,107.97c-4.28-11.05-5.36-22.1-4.46-33.16,5.71,3.76,17.57,9.25,30.71,9.25,9.05,0,14.44-2.5,14.44-6.47s-5.59-6.16-15.77-9.86c-10.22-3.71-29.23-10.48-29.23-32.21S389.17.23,417.96.23c12.62,0,23.7,2.68,28.7,4.71-.18,7.13-2.21,18.93-6.52,29.12-4.28-3.39-13.9-7.35-24.84-7.35-6.03,0-8.91,1.57-8.91,4.43,0,3.92,5.74,6,15.56,9.82,10.69,4.16,29.6,11.32,29.6,34.21s-18.15,38.09-47.54,38.09c-13.57,0-23.54-3.28-28.24-5.28Z"/>
      <path class="cls-1" d="M536.09,89.28h-30.06l-6.86,22.67-33.14-.95L506.98,2.49c11.51,0,21.75-.31,33.34-1.78l41.63,110.28-39.67,2.33-6.19-24.04ZM511.89,69.91h19.22l-8.83-34.33-10.38,34.33h0Z"/>
      <path class="cls-1" d="M703.5,49v61.99c-7.98.91-15.39,1.1-22.72.44l-5.64-5.96c-6.8,4.59-15.8,7.91-26.78,7.91-28.26,0-50.54-21.09-50.54-53.29,0-36.36,27.26-59.99,63.39-59.99,15.98,0,30.12,4.69,36.32,8.23-.25,6.1-2.11,20.03-7.07,30.77-4.83-4.11-15.79-9.55-28.12-9.55-17.6,0-27.63,10.71-27.63,27.02,0,20.89,14.58,27.86,27.91,27.86,1.9,0,3.76-.12,5.58-.35v-13.38h-13.74c1-7.23,3-14.64,3-21.7h46.04,0Z"/>
      <path class="cls-1" d="M805.74,110.99h-75.55V2.49h75.04c.78,8.97-.75,18.6-1.23,27.9h-36.92v14.51h30.38c.61,6.98-.58,14.47-.95,21.7h-29.42v15.72h39.92c.81,9.22-.77,19.12-1.26,28.67Z"/>
    </g>
  </g>
</svg>