<?xml version="1.0" encoding="UTF-8"?>
<svg id="_レイヤー_2" data-name="レイヤー 2" xmlns="http://www.w3.org/2000/svg" xmlns:xlink="http://www.w3.org/1999/xlink" viewBox="0 0 374 280">
  <defs>
    <style>
      .cls-1 {
        stroke: #231815;
        stroke-linecap: round;
        stroke-linejoin: round;
        stroke-width: .5px;
      }

      .cls-1, .cls-2 {
        fill: #231815;
      }

      .cls-3 {
        fill: #ffe6f3;
      }

      .cls-3, .cls-2, .cls-4, .cls-5, .cls-6, .cls-7, .cls-8 {
        stroke-width: 0px;
      }

      .cls-4 {
        fill: none;
      }

      .cls-5, .cls-6 {
        fill: #fff;
      }

      .cls-6 {
        fill-rule: evenodd;
      }

      .cls-7 {
        fill: #d3e9f2;
      }

      .cls-8 {
        fill: url(#_新規パターン_7);
      }
    </style>
    <pattern id="_新規パターン_7" data-name="新規パターン 7" x="0" y="0" width="97.024" height="97.017" patternTransform="translate(-5032.081 -3369.06) scale(1.04)" patternUnits="userSpaceOnUse" viewBox="0 0 97.024 97.017">
      <g>
        <rect class="cls-4" y="0" width="97.024" height="97.017"/>
        <path class="cls-3" d="m115.666,97.496c0,.679.222,1.344.176,1.98-.049.676-.267,1.315-.366,1.944-.106.669-.219,1.314-.379,1.931-.17.655-.289,1.309-.517,1.906-.24.629-.468,1.259-.769,1.826-.314.592-.714,1.13-1.089,1.655-.387.541-.948.923-1.396,1.394-.454.478-.912.927-1.423,1.335-.511.409-1.053.753-1.617,1.094-.557.337-1.043.816-1.646,1.09-.591.268-1.236.425-1.866.633-.615.203-1.261.315-1.909.463-.631.144-1.262.321-1.921.414-.641.091-1.288.235-1.952.279-.647.043-1.308-.121-1.972-.121-.678,0-1.339.076-1.984.039-.677-.038-1.327-.154-1.968-.233-.675-.083-1.329-.148-1.962-.276-.666-.136-1.285-.357-1.903-.544-.649-.196-1.292-.339-1.887-.592-.622-.265-1.165-.637-1.727-.965-.578-.338-1.114-.697-1.627-1.104-.52-.412-.965-.875-1.416-1.358-.448-.48-.974-.89-1.353-1.441-.368-.536-.692-1.111-.993-1.715-.288-.577-.546-1.183-.772-1.822-.213-.606-.422-1.233-.578-1.896-.147-.624-.184-1.288-.28-1.964-.09-.635-.291-1.279-.335-1.961-.042-.642-.032-1.308-.032-1.99,0-.693.208-1.359.249-2.017.043-.692-.027-1.371.062-2.023.094-.687.155-1.364.3-2.007.152-.676.347-1.326.555-1.952.219-.655.368-1.332.648-1.931.292-.622.783-1.129,1.142-1.69.367-.574.709-1.158,1.148-1.666.441-.511.991-.909,1.503-1.351.506-.436.958-.955,1.534-1.324.558-.357,1.189-.618,1.813-.911.596-.279,1.184-.637,1.841-.856.623-.208,1.297-.328,1.974-.48.638-.144,1.306-.245,1.993-.339.651-.089,1.324-.19,2.019-.234.657-.041,1.337-.125,2.034-.125.671,0,1.349-.02,2.002.038.668.059,1.281.478,1.927.596.659.121,1.331.124,1.963.305.643.184,1.335.236,1.945.482.619.25,1.113.768,1.694,1.079.587.314,1.117.693,1.66,1.069.546.378,1.092.733,1.589,1.172.496.437.986.873,1.43,1.369.439.491,1.027.879,1.41,1.427.376.538.449,1.272.767,1.862.309.575.69,1.116.94,1.74.242.605.336,1.261.519,1.911.176.626.644,1.199.762,1.865.113.639-.084,1.336-.028,2.011.054.647.068,1.299.068,1.978Z"/>
        <path class="cls-3" d="m18.642,97.496c0,.679.222,1.344.176,1.98-.049.676-.267,1.315-.366,1.944-.106.669-.219,1.314-.379,1.931-.17.655-.289,1.309-.517,1.906-.24.629-.468,1.259-.769,1.826-.314.592-.714,1.13-1.089,1.655-.387.541-.948.923-1.396,1.394-.454.478-.912.927-1.423,1.335-.511.409-1.053.753-1.617,1.094-.557.337-1.043.816-1.646,1.09-.591.268-1.236.425-1.866.633-.615.203-1.261.315-1.91.463-.631.144-1.262.321-1.921.414-.642.091-1.288.235-1.952.279-.647.043-1.308-.121-1.972-.121-.678,0-1.339.076-1.984.039-.678-.038-1.327-.154-1.968-.233-.675-.083-1.329-.148-1.962-.276-.666-.136-1.285-.357-1.903-.544-.649-.196-1.292-.339-1.887-.592-.622-.265-1.165-.637-1.727-.965-.579-.338-1.114-.697-1.628-1.104-.52-.412-.965-.875-1.416-1.358-.448-.48-.974-.89-1.353-1.441-.368-.536-.692-1.111-.993-1.715-.288-.577-.546-1.183-.772-1.822-.213-.606-.422-1.233-.578-1.896-.147-.624-.184-1.288-.28-1.964-.09-.635-.291-1.279-.335-1.961-.042-.642-.032-1.308-.032-1.99,0-.693.208-1.359.249-2.017.043-.692-.027-1.371.062-2.023.094-.687.155-1.364.3-2.007.152-.676.347-1.326.555-1.952.219-.655.368-1.332.648-1.931.292-.622.783-1.129,1.142-1.69.367-.574.709-1.158,1.148-1.666.441-.511.991-.909,1.503-1.351.506-.436.958-.955,1.534-1.324.558-.357,1.189-.618,1.813-.911.596-.279,1.184-.637,1.841-.856.623-.208,1.297-.328,1.974-.48.638-.144,1.306-.245,1.993-.339.651-.089,1.324-.19,2.019-.234.657-.041,1.337-.125,2.034-.125.671,0,1.349-.02,2.002.038.668.059,1.281.478,1.927.596.659.121,1.331.124,1.963.305.643.184,1.335.236,1.945.482.619.25,1.113.768,1.694,1.079.587.314,1.117.693,1.66,1.069.546.378,1.092.733,1.59,1.172.496.437.986.873,1.43,1.369.439.491,1.027.879,1.41,1.427.376.538.449,1.272.767,1.862.309.575.69,1.116.94,1.74.242.605.336,1.261.519,1.911.176.626.644,1.199.762,1.865.113.639-.084,1.336-.028,2.011.054.647.068,1.299.068,1.978Z"/>
        <path class="cls-3" d="m115.666.479c0,.679.222,1.344.176,1.98-.049.676-.267,1.315-.366,1.944-.106.669-.219,1.314-.379,1.931-.17.655-.289,1.309-.517,1.906-.24.629-.468,1.259-.769,1.826-.314.592-.714,1.13-1.089,1.655-.387.541-.948.923-1.396,1.394-.454.478-.912.927-1.423,1.336s-1.053.753-1.617,1.094c-.557.337-1.043.816-1.646,1.09-.591.268-1.236.425-1.866.633-.615.203-1.261.315-1.909.463-.631.144-1.262.32-1.921.414-.641.091-1.288.235-1.952.279-.647.043-1.308-.121-1.972-.121-.678,0-1.339.076-1.984.039-.677-.038-1.327-.154-1.968-.233-.675-.083-1.329-.148-1.962-.277-.666-.136-1.285-.357-1.903-.544-.649-.196-1.292-.339-1.887-.592-.622-.265-1.165-.637-1.727-.965-.578-.338-1.114-.697-1.627-1.104-.52-.412-.965-.875-1.416-1.358-.448-.48-.974-.89-1.353-1.441-.368-.536-.692-1.111-.993-1.715-.288-.577-.546-1.183-.772-1.822-.213-.606-.422-1.233-.578-1.896-.147-.624-.184-1.288-.28-1.964-.09-.635-.291-1.279-.335-1.961-.042-.641-.032-1.307-.032-1.99,0-.693.208-1.359.249-2.017.043-.692-.027-1.371.062-2.023.094-.687.155-1.364.3-2.007.152-.676.347-1.326.555-1.952.219-.655.368-1.332.648-1.931.292-.622.783-1.129,1.142-1.69.367-.574.709-1.158,1.148-1.666.441-.511.991-.909,1.503-1.351.506-.436.958-.955,1.534-1.324.558-.357,1.189-.618,1.813-.911.596-.279,1.184-.637,1.841-.855.623-.208,1.297-.328,1.974-.48.638-.144,1.306-.245,1.993-.339.651-.089,1.324-.19,2.019-.234.657-.041,1.337-.125,2.034-.125.671,0,1.349-.02,2.002.038.668.059,1.281.478,1.927.596.659.121,1.331.124,1.963.305.643.185,1.335.236,1.945.482.619.249,1.113.768,1.694,1.079.587.314,1.117.693,1.66,1.069.546.378,1.092.733,1.589,1.172.496.437.986.872,1.43,1.368.439.491,1.027.879,1.41,1.427.376.538.449,1.272.767,1.862.309.575.69,1.116.94,1.74.242.605.336,1.262.519,1.911.176.626.644,1.199.762,1.865.113.639-.084,1.336-.028,2.011.054.647.068,1.299.068,1.978Z"/>
        <g>
          <path class="cls-3" d="m18.642.479c0,.679.222,1.344.176,1.98-.049.676-.267,1.315-.366,1.944-.106.669-.219,1.314-.379,1.931-.17.655-.289,1.309-.517,1.906-.24.629-.468,1.259-.769,1.826-.314.592-.714,1.13-1.089,1.655-.387.541-.948.923-1.396,1.394-.454.478-.912.927-1.423,1.336s-1.053.753-1.617,1.094c-.557.337-1.043.816-1.646,1.09-.591.268-1.236.425-1.866.633-.615.203-1.261.315-1.91.463-.631.144-1.262.32-1.921.414-.642.091-1.288.235-1.952.279-.647.043-1.308-.121-1.972-.121-.678,0-1.339.076-1.984.039-.678-.038-1.327-.154-1.968-.233-.675-.083-1.329-.148-1.962-.277-.666-.136-1.285-.357-1.903-.544-.649-.196-1.292-.339-1.887-.592-.622-.265-1.165-.637-1.727-.965-.579-.338-1.114-.697-1.628-1.104-.52-.412-.965-.875-1.416-1.358-.448-.48-.974-.89-1.353-1.441-.368-.536-.692-1.111-.993-1.715-.288-.577-.546-1.183-.772-1.822-.213-.606-.422-1.233-.578-1.896-.147-.624-.184-1.288-.28-1.964-.09-.635-.291-1.279-.335-1.961-.042-.641-.032-1.307-.032-1.99,0-.693.208-1.359.249-2.017.043-.692-.027-1.371.062-2.023.094-.687.155-1.364.3-2.007.152-.676.347-1.326.555-1.952.219-.655.368-1.332.648-1.931.292-.622.783-1.129,1.142-1.69.367-.574.709-1.158,1.148-1.666.441-.511.991-.909,1.503-1.351.506-.436.958-.955,1.534-1.324.558-.357,1.189-.618,1.813-.911.596-.279,1.184-.637,1.841-.855.623-.208,1.297-.328,1.974-.48.638-.144,1.306-.245,1.993-.339.651-.089,1.324-.19,2.019-.234.657-.041,1.337-.125,2.034-.125.671,0,1.349-.02,2.002.038.668.059,1.281.478,1.927.596.659.121,1.331.124,1.963.305.643.185,1.335.236,1.945.482.619.249,1.113.768,1.694,1.079.587.314,1.117.693,1.66,1.069.546.378,1.092.733,1.59,1.172.496.437.986.872,1.43,1.368.439.491,1.027.879,1.41,1.427.376.538.449,1.272.767,1.862.309.575.69,1.116.94,1.74.242.605.336,1.262.519,1.911.176.626.644,1.199.762,1.865.113.639-.084,1.336-.028,2.011.054.647.068,1.299.068,1.978Z"/>
          <path class="cls-7" d="m67.154,48.987c0,.679.222,1.344.176,1.98-.049.676-.267,1.315-.366,1.944-.106.669-.219,1.314-.379,1.931-.17.655-.289,1.309-.517,1.906-.24.629-.468,1.259-.769,1.826-.314.592-.714,1.13-1.089,1.655-.387.541-.948.923-1.396,1.394-.454.478-.912.927-1.423,1.335-.511.409-1.053.753-1.617,1.094-.557.337-1.043.816-1.646,1.09-.591.268-1.236.425-1.867.633-.615.203-1.261.315-1.909.463-.631.144-1.262.32-1.921.414-.641.091-1.288.235-1.952.279-.647.043-1.308-.121-1.972-.121-.679,0-1.339.076-1.984.039-.678-.038-1.327-.154-1.968-.233-.675-.083-1.329-.148-1.962-.276-.666-.136-1.285-.357-1.903-.544-.649-.196-1.292-.339-1.887-.592-.622-.265-1.165-.637-1.727-.965-.578-.338-1.114-.697-1.628-1.104-.52-.412-.965-.875-1.416-1.359-.448-.48-.974-.89-1.353-1.441-.368-.536-.692-1.111-.993-1.715-.288-.577-.546-1.183-.772-1.822-.213-.606-.422-1.233-.578-1.896-.147-.624-.184-1.288-.28-1.964-.09-.635-.291-1.279-.335-1.961-.041-.642-.032-1.308-.032-1.99,0-.693.207-1.359.249-2.017.043-.692-.027-1.371.062-2.023.094-.687.155-1.364.3-2.007.152-.676.347-1.326.555-1.952.218-.655.368-1.332.648-1.931.292-.622.783-1.129,1.142-1.69.367-.574.709-1.159,1.148-1.666.441-.511.991-.909,1.503-1.351.506-.436.958-.955,1.534-1.324.558-.357,1.188-.619,1.813-.911.596-.279,1.184-.637,1.841-.856.623-.207,1.297-.327,1.974-.48.638-.144,1.306-.245,1.993-.339.651-.089,1.324-.19,2.019-.234.657-.041,1.337-.125,2.034-.125.671,0,1.349-.02,2.002.038.668.059,1.281.478,1.927.597.659.121,1.331.124,1.962.305.643.185,1.335.237,1.945.482.619.25,1.113.768,1.694,1.079.587.314,1.117.693,1.66,1.069.546.378,1.092.734,1.589,1.172.496.437.986.873,1.43,1.369.439.491,1.027.879,1.41,1.427.376.538.449,1.272.767,1.862.31.575.69,1.116.94,1.74.243.605.336,1.262.519,1.911.176.626.644,1.199.762,1.865.113.639-.084,1.336-.028,2.011.054.647.068,1.299.068,1.978Z"/>
        </g>
      </g>
    </pattern>
    <image id="image" width="370" height="370" xlink:href="../Links/⑧.png"/>
  </defs>
  <g id="design">
    <g>
      <use transform="translate(108.827 16.881) scale(.534)" xlink:href="#image"/>
      <g>
        <rect class="cls-5" width="374" height="280"/>
        <rect class="cls-8" width="374" height="280"/>
      </g>
      <use transform="translate(77 6) scale(.595)" xlink:href="#image"/>
      <g>
        <path class="cls-2" d="m96.194,249.227c-.417-.017-.771-.171-1.062-.462-.292-.292-.43-.646-.412-1.062,0-.433.149-.795.449-1.087.301-.292.658-.429,1.075-.413,1.366.017,2.404-.2,3.112-.65.709-.45,1.062-1.133,1.062-2.05,0-.883-.387-1.559-1.162-2.025-.775-.466-1.879-.7-3.312-.7-.566,0-1.108.025-1.625.075-.517.05-1.017.117-1.5.2v3.15c0,1.717-.392,2.979-1.175,3.788-.784.808-1.917,1.212-3.4,1.212-1.2,0-2.2-.309-3-.925-.8-.617-1.2-1.6-1.2-2.95,0-1.383.521-2.625,1.562-3.725,1.042-1.1,2.463-1.958,4.263-2.575v-3.725c-.717.067-1.412.117-2.087.15-.676.034-1.305.059-1.888.075-.417,0-.775-.142-1.075-.425-.3-.283-.45-.633-.45-1.05s.146-.767.438-1.05.646-.425,1.062-.425c.583-.016,1.217-.042,1.9-.075.683-.033,1.383-.075,2.1-.125v-3.075c0-.433.142-.796.425-1.087s.634-.438,1.051-.438.766.146,1.05.438c.283.292.425.654.425,1.087v2.825c.383-.033.741-.075,1.075-.125.333-.05.658-.092.975-.125.417-.066.792.008,1.125.225.333.217.533.534.601.95.066.417-.025.775-.275,1.075-.25.3-.584.483-1,.55-.35.067-.737.125-1.162.175-.426.05-.871.109-1.338.175v3.3c1-.15,2.059-.225,3.175-.225,1.533,0,2.858.217,3.976.65,1.116.434,1.979,1.054,2.587,1.862.608.809.913,1.771.913,2.888,0,1.85-.643,3.283-1.926,4.3s-3.066,1.491-5.35,1.425Zm-7.95-2.875c.5,0,.896-.141,1.188-.425.292-.283.438-.858.438-1.725v-2.25c-.899.417-1.596.913-2.087,1.488-.492.575-.738,1.171-.738,1.787,0,.75.4,1.125,1.2,1.125Zm13.4-9.275c-.267-.2-.592-.42-.976-.663-.383-.241-.767-.475-1.149-.7-.384-.225-.717-.404-1-.538-.367-.183-.63-.466-.788-.85-.158-.383-.154-.758.013-1.125.2-.4.496-.658.888-.775.392-.116.771-.083,1.138.1.35.167.75.383,1.2.65.449.267.896.538,1.337.812s.804.521,1.088.737c.333.234.524.55.575.95.05.4-.042.767-.275,1.1-.25.317-.571.504-.963.562-.392.059-.754-.029-1.087-.263Z"/>
        <path class="cls-2" d="m113.869,250.052c-1.2,0-1.825-.517-1.875-1.55-.017-.467.125-.863.425-1.188.301-.325.759-.496,1.375-.513.95-.033,1.684-.108,2.2-.225.517-.116.904-.329,1.163-.637.258-.309.445-.779.562-1.413.033-.233.074-.488.125-.763.05-.275.091-.554.125-.837.083-.683.021-1.133-.188-1.35-.209-.216-.722-.325-1.538-.325h-2.175c-1.167,0-2.066-.113-2.7-.338-.634-.225-1.046-.641-1.237-1.25-.191-.608-.213-1.471-.062-2.587.15-1.016.371-1.792.662-2.325.292-.533.754-.9,1.388-1.1.634-.2,1.517-.3,2.65-.3h1.899c.617,0,1.025-.079,1.226-.237.2-.158.3-.521.3-1.087s-.1-.929-.3-1.087-.608-.238-1.226-.238h-5.625c-.366,0-.679-.129-.938-.387-.258-.258-.387-.571-.387-.938s.129-.679.387-.938c.259-.258.571-.388.938-.388h5.625c1.25,0,2.213.117,2.888.35s1.142.633,1.4,1.2c.258.567.388,1.367.388,2.4,0,1.017-.13,1.812-.388,2.387-.259.575-.726.979-1.4,1.212-.675.234-1.638.35-2.888.35h-1.949c-.617,0-1.029.08-1.238.238-.208.158-.354.504-.438,1.037-.066.467-.012.796.163.988.175.192.57.288,1.188.288h2.55c1.2,0,2.129.125,2.787.375s1.104.671,1.338,1.262c.233.592.291,1.413.175,2.462-.033.4-.087.834-.162,1.3-.075.467-.138.858-.188,1.175-.25,1.367-.634,2.409-1.15,3.125s-1.241,1.204-2.175,1.462-2.167.388-3.7.388Zm14.05.225c-.434,0-.809-.146-1.125-.438-.316-.292-.475-.679-.475-1.163v-19.9c0-.483.158-.871.475-1.163.316-.292.691-.438,1.125-.438.45,0,.829.146,1.138.438.309.292.463.679.463,1.163v19.9c0,.483-.154.871-.463,1.163-.309.292-.688.438-1.138.438Z"/>
        <path class="cls-2" d="m134.919,249.977c-.316-.133-.537-.358-.662-.675-.125-.317-.121-.642.013-.975.283-.683.554-1.491.812-2.425.258-.933.483-1.883.675-2.85.191-.966.329-1.833.412-2.6.033-.366.18-.658.438-.875.259-.216.571-.308.938-.275.367.034.654.167.863.4.208.234.295.525.262.875-.017.284-.041.575-.074.875-.034.3-.067.6-.101.9.184.334.371.65.562.95s.388.575.588.825v-6.425h-3.351c-.333,0-.621-.121-.862-.362s-.362-.529-.362-.863.121-.621.362-.862c.241-.241.529-.362.862-.362h2.95v-2.45h-2.399c-.317,0-.597-.116-.838-.35-.242-.233-.362-.516-.362-.85s.12-.616.362-.85c.241-.233.521-.35.838-.35h2.399v-1.95c0-.433.138-.775.413-1.025.274-.25.604-.375.987-.375s.712.125.987.375.412.592.412,1.025v1.95h2.125c.334,0,.621.117.863.35.241.233.362.517.362.85s-.121.617-.362.85c-.242.234-.529.35-.863.35h-2.125v2.45l2.476-.025c.333,0,.62.121.862.363.241.242.362.529.362.862,0,.35-.121.646-.362.888-.242.242-.529.362-.862.362h-2.2v2.125h1.85c.351,0,.65.125.9.375s.375.55.375.9c0,.1-.009.188-.025.263s-.041.154-.074.237c.133-.033.271-.07.412-.112.142-.042.296-.096.463-.163l-.025-6.075c0-.934.121-1.667.362-2.2.241-.533.638-.917,1.188-1.15s1.292-.358,2.226-.375c-.018-.483-.029-.983-.038-1.5s-.013-1.05-.013-1.6c0-.417.121-.737.363-.962.241-.225.554-.337.938-.337.366,0,.675.112.925.337s.366.538.35.938c-.017.55-.029,1.083-.037,1.6-.009.517-.005,1.025.013,1.525h4.149c.333,0,.612.112.838.337.225.225.337.504.337.837,0,.317-.112.592-.337.825-.226.233-.505.35-.838.35h-4.05c.066.867.15,1.691.25,2.475.1.784.233,1.517.4,2.2.433-.933.783-1.866,1.05-2.8.1-.35.308-.592.625-.725.316-.133.633-.142.95-.025.316.117.537.312.662.587s.138.579.037.913c-.283.867-.616,1.725-1,2.575-.383.85-.824,1.667-1.324,2.45.116.217.232.425.35.625.116.2.241.392.375.575.166.234.304.338.412.312.108-.025.221-.162.338-.412.066-.184.129-.35.188-.5.059-.15.121-.316.188-.5.133-.316.342-.538.625-.663s.608-.121.975.012c.283.117.488.317.613.6.125.284.129.583.012.9-.217.634-.508,1.3-.875,2-.483.967-1.104,1.484-1.862,1.55-.759.067-1.471-.325-2.138-1.175-.133-.183-.267-.366-.399-.55-.134-.183-.267-.375-.4-.575-.783.95-1.675,1.817-2.675,2.6-.283.234-.617.342-1,.325-.384-.017-.691-.183-.925-.5-.2-.283-.271-.583-.213-.9s.246-.583.562-.8c.601-.433,1.163-.908,1.688-1.425.525-.517,1.013-1.066,1.463-1.65-.351-.934-.642-2.013-.875-3.238s-.417-2.646-.55-4.262c-.518.017-.867.125-1.051.325-.184.2-.274.55-.274,1.05v5.225c.116-.033.225-.066.325-.1.1-.033.191-.066.274-.1.366-.133.684-.142.95-.025s.45.342.55.675c.116.333.101.634-.05.9-.15.267-.392.475-.725.625-.317.134-.734.3-1.25.5-.518.2-1.047.4-1.588.6-.542.2-1.021.367-1.438.5-.367.117-.696.096-.987-.062-.292-.158-.496-.404-.612-.737-.101-.283-.092-.575.024-.875-.017.017-.042.025-.075.025h-1.85v3.825c.767.334,1.646.571,2.638.713.991.142,2.162.212,3.513.212,1.616,0,3.021-.021,4.212-.062s2.279-.096,3.263-.163c.533-.033.967.071,1.3.312.333.242.491.612.476,1.112-.034.883-.625,1.342-1.775,1.375h-1.838c-.675,0-1.366.004-2.074.013-.709.008-1.371.013-1.988.013h-1.574c-2.567,0-4.692-.325-6.375-.975-1.684-.65-3.092-1.75-4.226-3.3-.167.7-.35,1.371-.55,2.013s-.408,1.229-.625,1.763c-.15.366-.396.608-.737.725-.342.117-.688.117-1.038,0Zm21.625-18.825c-.25.217-.541.317-.875.3-.333-.016-.616-.133-.85-.35-.15-.15-.346-.341-.588-.575-.241-.233-.454-.441-.637-.625-.217-.233-.321-.513-.312-.837.008-.325.129-.596.362-.812.267-.233.546-.346.837-.338.292.009.571.121.838.338.066.05.188.162.362.337.175.175.351.346.525.512.175.167.296.284.362.35.25.234.366.517.35.85-.017.333-.142.617-.375.85Z"/>
        <path class="cls-2" d="m163.919,250.077c-.467.167-.921.2-1.362.1s-.746-.409-.912-.925c-.134-.417-.108-.8.075-1.15.183-.35.5-.6.949-.75,1.917-.683,3.325-1.629,4.226-2.837.899-1.208,1.425-2.746,1.575-4.612h-5.976c-.384,0-.712-.138-.987-.413s-.412-.604-.412-.987.137-.708.412-.975.604-.4.987-.4h8.775v-3.075h-4.8c-.4.65-.768,1.208-1.101,1.675-.267.367-.612.609-1.037.725-.425.117-.847.042-1.263-.225-.334-.216-.546-.521-.638-.912s-.021-.746.213-1.062c.366-.483.75-1.075,1.149-1.775.4-.7.775-1.4,1.125-2.1.351-.7.617-1.3.801-1.8.166-.4.445-.67.837-.812.392-.141.779-.146,1.163-.012.433.167.721.429.862.787.142.359.146.729.013,1.113-.167.517-.393,1.067-.676,1.65h3.351v-2.725c0-.483.153-.871.462-1.163.309-.291.688-.438,1.138-.438.434,0,.809.146,1.125.438.316.292.476.68.476,1.163v2.725h6c.383,0,.708.134.975.4.267.267.4.592.4.975,0,.367-.134.688-.4.962s-.592.413-.975.413h-6v3.075h8.225c.383,0,.708.133.975.4s.4.592.4.975-.134.712-.4.987-.592.413-.975.413h-6.225v5.7c0,.617.158,1.029.475,1.238s.958.312,1.925.312c.566,0,1-.042,1.3-.125.301-.083.538-.25.713-.5s.329-.608.463-1.075c.133-.417.387-.708.762-.875.375-.167.796-.175,1.263-.025.417.15.7.392.851.725.149.333.166.725.05,1.175-.284,1.284-.838,2.204-1.663,2.763-.824.558-2.096.837-3.812.837-1.333,0-2.387-.108-3.162-.325s-1.321-.608-1.638-1.175-.475-1.366-.475-2.4v-6.25h-2.075c-.2,2.517-.888,4.629-2.062,6.337-1.175,1.708-2.996,2.987-5.463,3.837Z"/>
        <path class="cls-2" d="m201.494,248.102c-.417.1-.809.042-1.175-.175-.367-.216-.6-.525-.7-.925-.1-.4-.042-.779.175-1.138s.525-.587.926-.688c1.85-.483,3.212-1.267,4.087-2.35.875-1.083,1.312-2.458,1.312-4.125,0-1.05-.233-1.991-.7-2.825s-1.129-1.508-1.987-2.025c-.858-.516-1.888-.833-3.087-.95-.301,2.8-.805,5.221-1.513,7.262-.709,2.042-1.542,3.617-2.5,4.725-.959,1.109-1.963,1.663-3.013,1.663-.884,0-1.691-.258-2.425-.775s-1.312-1.258-1.737-2.225c-.426-.966-.638-2.125-.638-3.475,0-1.383.263-2.679.787-3.887.525-1.208,1.271-2.271,2.237-3.188s2.104-1.633,3.413-2.15c1.308-.516,2.745-.775,4.312-.775,1.899,0,3.587.363,5.062,1.087,1.475.725,2.638,1.734,3.487,3.025s1.275,2.796,1.275,4.512c0,2.417-.646,4.429-1.938,6.038-1.292,1.608-3.18,2.729-5.663,3.362Zm-8.149-4.625c.3,0,.646-.254,1.037-.762s.787-1.229,1.188-2.163c.4-.933.767-2.038,1.1-3.312.334-1.275.584-2.688.75-4.237-1.3.25-2.392.729-3.274,1.438-.884.708-1.55,1.55-2,2.525s-.684,1.996-.7,3.062c0,1.133.179,1.992.537,2.575.358.584.812.875,1.363.875Z"/>
        <path class="cls-2" d="m223.319,250.577c-.5,0-.896-.104-1.188-.312-.292-.208-.454-.562-.487-1.062-.034-.4.087-.733.362-1,.275-.266.646-.408,1.112-.425.934-.033,1.559-.233,1.875-.6.316-.366.476-1.025.476-1.975v-.288c0-.091-.009-.179-.025-.262-.816.534-1.771,1.083-2.862,1.65-1.092.567-2.226,1.092-3.4,1.575-1.175.483-2.296.866-3.362,1.15-.434.116-.816.108-1.15-.025-.333-.134-.566-.409-.699-.825-.117-.383-.088-.725.087-1.025.175-.3.454-.5.838-.6.783-.2,1.62-.466,2.513-.8.891-.333,1.795-.704,2.712-1.113.917-.408,1.796-.833,2.638-1.275.842-.441,1.596-.871,2.263-1.288-.067-.216-.142-.425-.226-.625-.083-.2-.175-.4-.274-.6-.733.517-1.579,1.021-2.538,1.513-.958.492-1.954.946-2.987,1.362-1.033.417-2.017.775-2.95,1.075-.467.15-.846.15-1.137,0-.292-.15-.505-.392-.638-.725-.117-.333-.101-.658.05-.975.15-.316.434-.533.85-.65.967-.25,1.95-.566,2.95-.95s1.954-.796,2.862-1.238c.908-.441,1.696-.871,2.363-1.288-.117-.133-.229-.271-.338-.412s-.229-.279-.362-.413c-1.017.534-2.084,1.025-3.2,1.475-1.117.45-2.275.842-3.475,1.175-.934.25-1.534.017-1.801-.7-.133-.35-.129-.683.013-1,.142-.316.429-.533.862-.65,1.167-.283,2.325-.646,3.476-1.087,1.149-.441,2.233-.921,3.25-1.438h-2.675c-.367,0-.659-.121-.875-.362-.217-.242-.325-.521-.325-.838,0-.333.108-.616.325-.85.216-.233.508-.35.875-.35h11.875c.383,0,.679.117.887.35.209.233.312.517.312.85,0,.317-.104.596-.312.838-.208.242-.504.362-.887.362h-4.775c-.467.367-.959.708-1.475,1.025,1.033.884,1.841,1.917,2.425,3.1.55-.333,1.129-.696,1.737-1.087s1.191-.779,1.75-1.163c.559-.383,1.013-.716,1.362-1,.366-.283.746-.404,1.138-.362s.679.196.862.462c.233.367.321.721.263,1.062-.059.342-.254.629-.588.862-.616.417-1.342.884-2.175,1.4-.833.517-1.658.992-2.475,1.425.666.583,1.399,1.146,2.2,1.688.8.542,1.607,1.034,2.425,1.475.816.441,1.575.812,2.274,1.112.384.167.65.434.801.8.149.367.133.717-.051,1.05-.233.466-.559.741-.975.825-.417.083-.825.025-1.225-.175-.634-.316-1.321-.7-2.062-1.15-.742-.45-1.476-.95-2.2-1.5-.726-.55-1.388-1.125-1.987-1.725.033.167.05.337.05.513v.537c0,1.884-.409,3.267-1.226,4.15-.816.883-2.059,1.325-3.725,1.325Zm-7.725-15.025c-.4,0-.738-.125-1.013-.375-.275-.25-.413-.591-.413-1.025v-.95c0-1.316.312-2.25.938-2.8.625-.55,1.696-.825,3.213-.825h5.225v-1.275c0-.433.154-.796.463-1.087s.679-.438,1.112-.438.804.146,1.112.438.463.654.463,1.087v1.275h5.1c1.533,0,2.613.275,3.238.825.625.55.938,1.483.938,2.8v.95c0,.434-.143.775-.426,1.025s-.625.375-1.024.375-.742-.116-1.025-.35c-.283-.233-.425-.566-.425-1v-.825c0-.467-.117-.8-.35-1-.234-.2-.659-.3-1.275-.3h-12.775c-.616,0-1.041.1-1.274.3-.233.2-.351.533-.351,1v.825c0,.434-.142.767-.425,1-.283.234-.625.35-1.024.35Z"/>
        <path class="cls-2" d="m240.119,249.877c-.366-.167-.604-.43-.712-.788-.109-.359-.08-.721.087-1.087.533-1.15.963-2.309,1.288-3.475.324-1.167.558-2.441.699-3.825.142-1.383.213-2.95.213-4.7v-4.075c0-1.05.142-1.871.425-2.462.283-.591.775-1.008,1.476-1.25.699-.242,1.666-.363,2.899-.363h10.8c1.134,0,1.996.084,2.588.25.592.167.991.463,1.2.888.208.425.312,1.046.312,1.862,0,.8-.104,1.43-.312,1.888-.209.458-.608.779-1.2.962-.592.184-1.454.275-2.588.275h-12.774v1.15h16.975c.333,0,.601.112.8.337.2.225.301.487.301.788s-.101.562-.301.787c-.199.225-.467.338-.8.338h-3.675c.5.434,1.05.929,1.65,1.487.6.559,1.083,1.038,1.449,1.438.267.267.396.592.388.975s-.162.708-.462.975c-.268.25-.592.367-.976.35-.384-.016-.7-.166-.95-.45-.1-.117-.208-.242-.324-.375-.117-.133-.242-.267-.375-.4-.534.033-1.138.075-1.812.125-.676.05-1.38.1-2.113.15v1.725h4.301c.333,0,.607.112.824.337s.325.504.325.837c0,.317-.108.587-.325.812s-.491.337-.824.337h-4.301v1.675h6.851c.333,0,.608.112.825.337.216.225.324.496.324.812s-.108.587-.324.812c-.217.225-.492.337-.825.337h-16.05c-.317,0-.592-.112-.825-.337s-.351-.496-.351-.812.117-.587.351-.812.508-.337.825-.337h6.274v-1.675h-4.45c-.316,0-.587-.112-.812-.337-.225-.225-.337-.496-.337-.812,0-.333.112-.612.337-.837.226-.225.496-.337.812-.337h4.45v-1.55c-.934.05-1.829.092-2.688.125-.858.034-1.604.067-2.237.1-.417.017-.742-.079-.975-.288-.234-.208-.359-.496-.375-.862-.018-.367.083-.658.3-.875.216-.216.524-.325.925-.325.283-.016.583-.025.9-.025s.649-.008,1-.025c.216-.35.441-.733.675-1.15s.441-.792.625-1.125h-5.025c-.033,1.667-.138,3.171-.312,4.512-.175,1.342-.421,2.596-.737,3.763s-.725,2.317-1.225,3.45c-.167.383-.459.65-.875.8-.417.15-.825.141-1.226-.025Zm4.4-18.2h12.55c.583,0,.95-.05,1.1-.15.15-.1.226-.308.226-.625,0-.333-.075-.55-.226-.65-.149-.1-.508-.15-1.074-.15h-10.551c-.566,0-.996.038-1.287.113-.292.075-.487.225-.588.45-.1.225-.149.562-.149,1.013Zm6.774,7.85c.834-.033,1.676-.066,2.525-.1.85-.033,1.642-.066,2.375-.1-.117-.116-.229-.225-.338-.325-.108-.1-.204-.184-.287-.25-.2-.184-.316-.404-.35-.663-.034-.258.008-.496.125-.712h-2.75c-.2.333-.409.684-.625,1.05-.217.367-.442.733-.676,1.1Z"/>
        <path class="cls-2" d="m280.244,248.102c-.417.1-.809.042-1.175-.175-.367-.216-.6-.525-.7-.925-.1-.4-.042-.779.175-1.138s.525-.587.926-.688c1.85-.483,3.212-1.267,4.087-2.35.875-1.083,1.312-2.458,1.312-4.125,0-1.05-.233-1.991-.7-2.825s-1.129-1.508-1.987-2.025c-.858-.516-1.888-.833-3.087-.95-.301,2.8-.805,5.221-1.513,7.262-.709,2.042-1.542,3.617-2.5,4.725-.959,1.109-1.963,1.663-3.013,1.663-.884,0-1.691-.258-2.425-.775s-1.312-1.258-1.737-2.225c-.426-.966-.638-2.125-.638-3.475,0-1.383.263-2.679.787-3.887.525-1.208,1.271-2.271,2.237-3.188s2.104-1.633,3.413-2.15c1.308-.516,2.745-.775,4.312-.775,1.899,0,3.587.363,5.062,1.087,1.475.725,2.638,1.734,3.487,3.025s1.275,2.796,1.275,4.512c0,2.417-.646,4.429-1.938,6.038-1.292,1.608-3.18,2.729-5.663,3.362Zm-8.149-4.625c.3,0,.646-.254,1.037-.762s.787-1.229,1.188-2.163c.4-.933.767-2.038,1.1-3.312.334-1.275.584-2.688.75-4.237-1.3.25-2.392.729-3.274,1.438-.884.708-1.55,1.55-2,2.525s-.684,1.996-.7,3.062c0,1.133.179,1.992.537,2.575.358.584.812.875,1.363.875Z"/>
        <path class="cls-2" d="m296.845,250.427c-.384,0-.717-.134-1-.4-.284-.267-.426-.6-.426-1v-11.725c-.383.617-.767,1.175-1.149,1.675-.233.317-.542.504-.925.562-.384.059-.742-.021-1.075-.237-.317-.233-.513-.529-.588-.888-.075-.358-.004-.688.213-.987.466-.65.938-1.383,1.412-2.2.476-.816.929-1.654,1.362-2.512s.821-1.691,1.163-2.5c.341-.808.612-1.529.812-2.163.133-.417.375-.708.725-.875.351-.167.726-.183,1.125-.05.366.117.646.329.838.637.191.309.221.671.087,1.087-.149.5-.32,1.009-.512,1.525-.192.517-.404,1.042-.638,1.575v17.05c0,.433-.142.779-.425,1.037-.284.258-.617.388-1,.388Zm10.149-.15c-.399,0-.741-.134-1.024-.4-.284-.267-.426-.617-.426-1.05v-5.175c-.717.784-1.512,1.571-2.387,2.362-.875.792-1.705,1.462-2.488,2.013-.333.233-.708.329-1.125.288-.416-.042-.75-.238-1-.588-.217-.316-.287-.662-.212-1.037s.271-.663.587-.863c.551-.35,1.167-.8,1.851-1.35.683-.55,1.362-1.125,2.037-1.725.675-.6,1.246-1.15,1.713-1.65h-4.375c-.367,0-.684-.129-.95-.387s-.4-.571-.4-.938.134-.679.4-.938.583-.388.95-.388h5.399v-2h-.125c-1.184,0-2.121-.129-2.812-.387s-1.184-.696-1.475-1.312c-.292-.617-.438-1.458-.438-2.525,0-1.083.146-1.929.438-2.537.291-.608.779-1.042,1.463-1.3.683-.258,1.625-.387,2.824-.387h3.101c1.2,0,2.146.129,2.837.387.691.259,1.18.692,1.463,1.3s.425,1.454.425,2.537c0,1.067-.142,1.909-.425,2.525s-.771,1.054-1.463,1.312-1.637.387-2.837.387h-.075v2h5.4c.383,0,.703.129.962.388s.388.571.388.938-.129.679-.388.938-.579.387-.962.387h-4.375c.466.467,1.037.992,1.712,1.575.675.583,1.358,1.142,2.05,1.675.691.534,1.305.967,1.838,1.3.333.217.529.512.588.887.058.375-.021.721-.238,1.038-.233.35-.559.554-.975.613-.417.058-.8-.029-1.15-.263-.483-.333-1.008-.733-1.574-1.2-.567-.466-1.134-.966-1.7-1.5-.567-.533-1.092-1.05-1.575-1.55v5.15c0,.433-.142.783-.425,1.05-.284.266-.625.4-1.025.4Zm-1.5-16.5h2.95c.684,0,1.142-.1,1.375-.3.233-.2.35-.616.35-1.25,0-.65-.116-1.075-.35-1.275-.233-.2-.691-.3-1.375-.3h-2.95c-.667,0-1.116.1-1.35.3-.233.2-.351.625-.351,1.275,0,.634.117,1.05.351,1.25.233.2.683.3,1.35.3Z"/>
        <path class="cls-2" d="m319.294,234.127c-.316,0-.583-.113-.8-.338-.217-.225-.325-.496-.325-.812,0-.3.108-.562.325-.787.217-.225.483-.338.8-.338h7.051c.3,0,.558.113.774.338.217.225.325.487.325.787,0,.317-.108.588-.325.812-.217.225-.475.338-.774.338h-7.051Zm13.2,7.225c-1.083,0-1.908-.091-2.475-.275-.567-.183-.95-.483-1.15-.9-.2-.417-.3-.966-.3-1.65v-1.45c-.066.083-.129.159-.188.225-.059.067-.121.142-.188.225-.233.267-.525.413-.875.438s-.667-.071-.95-.288c-.116-.1-.2-.2-.25-.3-.217.133-.441.2-.675.2h-5.125c-.316,0-.584-.112-.8-.337-.217-.225-.325-.487-.325-.788,0-.316.108-.587.325-.812.216-.225.483-.337.8-.337h5.125c.416,0,.741.184.975.55.367-.416.746-.891,1.138-1.425.392-.533.759-1.075,1.101-1.625.341-.55.62-1.05.837-1.5.2-.417.533-.642,1-.675v-.075h-2.475c-.267,0-.5-.1-.7-.3-.2-.2-.3-.434-.3-.7,0-.283.1-.521.3-.712.2-.191.434-.288.7-.288h2.475v-.4c0-.383.125-.691.375-.925.25-.233.55-.35.9-.35s.649.117.899.35c.25.234.375.542.375.925v.4h2.551v-.4c0-.383.125-.691.375-.925.25-.233.55-.35.899-.35s.646.117.888.35c.241.234.362.542.362.925v.4h2.5c.283,0,.521.096.713.288.191.192.287.429.287.712,0,.267-.096.5-.287.7-.192.2-.43.3-.713.3h-2.5v.325c0,.383-.121.691-.362.925-.242.233-.537.35-.888.35h-.075c0,.017-.017.059-.05.125-.017.067-.05.142-.1.225s-.101.175-.15.275h3.95c.233,0,.425.075.575.225.149.15.225.342.225.575s-.075.429-.225.587c-.15.159-.342.238-.575.238h-3.925v.775h3.3c.2,0,.371.071.513.212.142.142.212.321.212.538,0,.2-.07.371-.212.513s-.312.212-.513.212h-3.3v.75h3.3c.2,0,.371.071.513.212s.212.312.212.513c0,.217-.07.396-.212.537-.142.142-.312.213-.513.213h-3.3v.85h4.149c.233,0,.43.075.588.225s.237.342.237.575c0,.217-.079.409-.237.575-.158.167-.354.25-.588.25h-8.175Zm-12.125-10.675c-.316,0-.592-.116-.825-.35-.233-.233-.35-.508-.35-.825s.116-.592.35-.825.509-.35.825-.35h5.05c.334,0,.608.117.825.35s.325.509.325.825-.108.592-.325.825c-.217.234-.491.35-.825.35h-5.05Zm-.05,10.375c-.316,0-.584-.112-.8-.337-.217-.225-.325-.496-.325-.812s.108-.587.325-.812c.216-.225.483-.337.8-.337h5.125c.316,0,.583.112.8.337s.325.496.325.812-.108.587-.325.812-.483.337-.8.337h-5.125Zm2.6,8.725c-.983,0-1.746-.121-2.287-.363-.542-.242-.912-.637-1.112-1.188-.2-.55-.3-1.283-.3-2.2,0-.933.1-1.675.3-2.225s.57-.946,1.112-1.188c.541-.241,1.304-.362,2.287-.362,1,0,1.767.121,2.301.362.533.242.899.638,1.1,1.188s.3,1.292.3,2.225c0,.917-.1,1.65-.3,2.2-.2.55-.566.946-1.1,1.188-.534.242-1.301.363-2.301.363Zm0-2.275c.5,0,.829-.1.988-.3.158-.2.237-.591.237-1.175s-.079-.979-.237-1.188c-.159-.208-.488-.312-.988-.312-.483,0-.804.104-.962.312-.159.208-.237.604-.237,1.188s.078.975.237,1.175c.158.2.479.3.962.3Zm5.9,2.875c-.417.066-.771.033-1.062-.1-.292-.134-.496-.384-.612-.75-.101-.384-.046-.717.162-1,.208-.284.513-.458.913-.525.783-.117,1.541-.275,2.274-.475.733-.2,1.425-.433,2.075-.7-.884-.783-1.658-1.7-2.325-2.75h-1.7c-.267,0-.496-.1-.688-.3-.191-.2-.287-.433-.287-.7,0-.283.096-.521.287-.712.191-.191.421-.288.688-.288h8.325c.833,0,1.479.192,1.938.575s.688.858.688,1.425-.283,1.117-.85,1.65c-.217.217-.446.43-.688.638-.242.208-.496.404-.763.587.533.217,1.108.413,1.725.587.617.175,1.267.312,1.95.413.4.067.704.233.913.5.208.267.271.591.188.975-.184.75-.768,1.05-1.75.9-1.95-.3-3.75-.934-5.4-1.9-.85.433-1.771.816-2.763,1.15s-2.071.6-3.237.8Zm2.325-15.2h2.774v-.775h-2.774v.775Zm0,2.225h2.774v-.75h-2.774v.75Zm1.35,2.325h1.425v-.85h-2.75c.033.316.146.537.338.662s.521.188.987.188Zm-.975-6.95h2.3l.575-1.375c.1-.25.263-.438.487-.562s.463-.188.713-.188v-.1h-2.551v.325c0,.367-.121.667-.362.9s-.529.358-.862.375c-.033.1-.066.184-.1.25-.018.067-.047.129-.088.188-.042.059-.079.121-.112.188Zm3.35,12.9c.217-.133.425-.267.625-.4s.384-.258.55-.375c.283-.216.4-.408.351-.575-.05-.167-.267-.25-.65-.25h-2.725c.283.284.579.562.888.837.308.275.629.529.962.763Z"/>
      </g>
      <g>
        <path class="cls-6" d="m70.161,240c0,1.336-.316,2.6-.566,3.863-.257,1.301-.105,2.734-.601,3.931-.505,1.218-1.578,2.157-2.303,3.239-.73,1.09-1.322,2.309-2.246,3.233s-1.995,1.736-3.086,2.466c-1.082.724-2.366,1.101-3.584,1.606-1.197.496-2.373,1.119-3.674,1.376-1.262.25-2.586-.017-3.922-.017s-2.578-.145-3.84-.395c-1.301-.257-2.469-.685-3.666-1.182-1.218-.505-2.683-.527-3.766-1.252-1.09-.73-2.142-1.606-3.067-2.53-.925-.925-1.767-1.999-2.497-3.089-.724-1.082-1.056-2.411-1.561-3.629-.496-1.197-1.09-2.392-1.348-3.692-.25-1.262.092-2.592.092-3.928s-.433-2.683-.183-3.946c.257-1.301.975-2.464,1.471-3.661.505-1.218.844-2.534,1.568-3.616.73-1.09,1.618-2.106,2.543-3.031s2.129-1.531,3.219-2.261c1.082-.724,2.05-1.73,3.268-2.234,1.197-.496,2.567-.59,3.868-.847,1.262-.25,2.563-.767,3.898-.767s2.705.168,3.968.418c1.301.257,2.497.954,3.694,1.451,1.218.505,2.368,1.141,3.45,1.865,1.09.73,2.291,1.378,3.215,2.303.925.925,1.37,2.261,2.1,3.351.724,1.082,1.515,2.117,2.02,3.334.496,1.197,1.294,2.362,1.551,3.663.25,1.262-.018,2.642-.018,3.978Z"/>
        <path class="cls-1" d="m49.339,248c-.28.014-.521-.07-.725-.252-.203-.182-.305-.413-.305-.693s.102-.515.305-.704.444-.27.725-.241c.224.028.462.052.714.073s.497.039.735.053c.126,0,.188-.063.188-.189v-2.52c0-.126-.062-.189-.188-.189h-5.901c-.406,0-.692-.195-.86-.588-.042-.126-.063-.266-.063-.42,0-.238.063-.448.189-.63l6.11-8.967c.266-.42.644-.63,1.134-.63.364,0,.68.14.945.42.266.28.399.595.399.944v7.98c0,.126.062.189.188.189h2.101c.237,0,.44.081.608.242s.252.36.252.598-.084.441-.252.609-.371.252-.608.252h-2.101c-.126,0-.188.063-.188.189v2.52c0,.126.062.189.188.189.238-.014.483-.032.735-.053s.49-.045.714-.073c.28-.028.521.052.725.241s.305.424.305.704-.102.511-.305.693c-.203.182-.444.266-.725.252-.434-.042-.861-.077-1.281-.105s-.833-.042-1.238-.042-.816.014-1.229.042c-.413.028-.844.063-1.292.105Zm1.638-12.831c0-.084-.024-.14-.073-.168-.049-.028-.102,0-.157.084l-4.305,6.321c-.028.056-.042.091-.042.105,0,.084.056.126.168.126h4.221c.126,0,.188-.063.188-.189v-6.279Z"/>
      </g>
    </g>
  </g>
</svg>