<?xml version="1.0" encoding="UTF-8"?>
<svg id="_レイヤー_2" data-name="レイヤー 2" xmlns="http://www.w3.org/2000/svg" xmlns:xlink="http://www.w3.org/1999/xlink" viewBox="0 0 374 280">
  <defs>
    <style>
      .cls-1 {
        stroke-width: .5px;
      }

      .cls-1, .cls-2, .cls-3 {
        fill: #231815;
      }

      .cls-1, .cls-4, .cls-5, .cls-6, .cls-7, .cls-8, .cls-9 {
        stroke-linecap: round;
        stroke-linejoin: round;
      }

      .cls-1, .cls-4, .cls-5, .cls-8 {
        stroke: #231815;
      }

      .cls-2, .cls-10, .cls-11, .cls-12, .cls-13, .cls-3, .cls-14, .cls-15, .cls-16, .cls-17 {
        stroke-width: 0px;
      }

      .cls-18 {
        clip-path: url(#clippath-2);
      }

      .cls-4, .cls-5, .cls-10, .cls-11 {
        fill: none;
      }

      .cls-4, .cls-8 {
        stroke-width: 2px;
      }

      .cls-5 {
        stroke-width: 1.626px;
      }

      .cls-19 {
        clip-path: url(#clippath-1);
      }

      .cls-11 {
        clip-rule: evenodd;
      }

      .cls-6 {
        fill: #c69c6d;
        stroke: #c69c6d;
      }

      .cls-6, .cls-3, .cls-15, .cls-8, .cls-9, .cls-17 {
        fill-rule: evenodd;
      }

      .cls-6, .cls-7, .cls-9 {
        stroke-width: 1.544px;
      }

      .cls-12 {
        fill: #fffdee;
      }

      .cls-13 {
        fill: #fff8c4;
      }

      .cls-14, .cls-15, .cls-8, .cls-9 {
        fill: #fff;
      }

      .cls-20 {
        opacity: .3;
      }

      .cls-7 {
        fill: #64c882;
        stroke: #64c882;
      }

      .cls-21 {
        clip-path: url(#clippath);
      }

      .cls-16 {
        fill: #f2e9d3;
      }

      .cls-9 {
        stroke: #fff;
      }

      .cls-17 {
        fill: #ffef7f;
      }
    </style>
    <clipPath id="clippath">
      <rect class="cls-10" width="374" height="280"/>
    </clipPath>
    <clipPath id="clippath-1">
      <rect class="cls-10" width="374" height="280"/>
    </clipPath>
    <clipPath id="clippath-2">
      <path class="cls-11" d="m98.515,255.185V17.639h113.411l7.516,113.346,65.795,56.803v69.606l-186.722-2.21Z"/>
    </clipPath>
  </defs>
  <g id="design">
    <g>
      <g>
        <g class="cls-21">
          <rect class="cls-13" width="374" height="280"/>
          <g>
            <path class="cls-17" d="m382.84,289.841c-1.264,1.276-1.636.29-3.432.29s-1.796-.46-3.592-.46-1.796.207-3.593.207-1.796-.221-3.593-.221-1.797.372-3.593.372-1.797.256-3.594.256-1.797-.618-3.595-.618-1.798.156-3.596.156-1.798.157-3.597.157-1.798-.278-3.596-.278-1.797-.011-3.595-.011-1.797.109-3.594.109-1.797.189-3.594.189-1.797-.046-3.593-.046-1.797.167-3.593.167-1.797-.199-3.593-.199-1.797.141-3.594.141-1.797.316-3.594.316-1.797-.276-3.595-.276-1.798.125-3.596.125-1.798-.252-3.597-.252-1.798.084-3.596.084-1.797-.364-3.595-.364-1.797.189-3.594.189-1.797.246-3.594.246-1.797.144-3.594.144-1.797-.073-3.594-.073-1.797-.227-3.594-.227-1.798.035-3.595.035-1.798.197-3.596.197-1.798-.261-3.597-.261-1.798-.016-3.596-.016-1.798.124-3.595.124-1.797-.383-3.595-.383-1.797.3-3.595.3-1.797.068-3.595.068-1.798-.315-3.595-.315-1.798.666-3.596.666-1.798-.307-3.597-.307-1.798.062-3.596.062-1.798-.376-3.596-.376-1.798.278-3.595.278-1.797-.276-3.595-.276-1.798.19-3.595.19-1.798-.022-3.596-.022-1.799-.317-3.597-.317-1.798.486-3.597.486-1.798-.366-3.596-.366-1.798.444-3.595.444-1.798.042-3.595.042-1.798-.232-3.596-.232-1.799-.317-3.597-.317-1.798.015-3.597.015-1.798.061-3.596.061-1.798.348-3.596.348-1.796-.195-3.591-.195-1.795.337-3.591.337-1.795-.206-3.591-.206-1.796-.022-3.592-.022-1.797.245-3.593.245-1.798-.643-3.595-.643-1.799.743-3.598.743-1.798.038-3.596.038-1.797-.304-3.594-.304-1.797.253-3.593.253-1.796-.591-3.593-.591-1.797.607-3.593.607-1.797-.691-3.595-.691-1.799.267-3.597.267-1.799-.32-3.598-.32-1.798.673-3.596.673-1.797.006-3.594.006-1.797-.671-3.594-.671-1.798.437-3.596.437-1.799.251-3.598.251-1.799-.327-3.598-.327-1.798.149-3.596.149-1.798.239-3.596.239-1.799-.402-3.597-.402-1.8-.088-3.6-.088-1.799.461-3.597.461-1.798-.235-3.597-.235-1.799.147-3.598.147-1.8-.06-3.599-.06-1.799.064-3.597.064-1.799-.031-3.598-.031-1.8-.019-3.6-.019-1.799-.149-3.598-.149-1.8-.19-3.6-.19-1.799.147-3.599.147-1.8.245-3.599.245-1.8-.549-3.599-.549-1.8.306-3.6.306-1.798.146-3.595.146-1.8-.373-3.6-.373-1.798-.01-3.596-.01-1.8.209-3.6.209-1.799-.057-3.598-.057-1.801.366-3.601.366-1.799-.303-3.599-.303-1.8.296-3.601.296-1.801.025-3.602.025-1.801-.216-3.602-.216-1.801-.132-3.602-.132-1.801-.112-3.601-.112-1.801.512-3.602.512-1.801-.588-3.603-.588-1.804-.156-3.609-.156-2.366,1.688-3.64.411-.122-1.839-.122-3.647-.236-1.807-.236-3.614-.002-1.807-.002-3.613.389-1.807.389-3.615.127-1.809.127-3.618-.444-1.807-.444-3.615.29-1.807.29-3.614.407-1.808.407-3.616-.331-1.808-.331-3.617-.264-1.808-.264-3.615.036-1.808.036-3.616-.018-1.809-.018-3.617-.096-1.808-.096-3.616.303-1.809.303-3.618-.003-1.808-.003-3.617-.205-1.809-.205-3.617-.18-1.809-.18-3.617-.011-1.809-.011-3.618.014-1.809.014-3.617.639-1.809.639-3.617-.186-1.807-.186-3.613-.288-1.809-.288-3.617.197-1.808.197-3.615-.207-1.809-.207-3.619-.019-1.808-.019-3.616.119-1.809.119-3.618.179-1.81.179-3.62-.254-1.81-.254-3.62.456-1.81.456-3.62-.441-1.809-.441-3.619.066-1.81.066-3.619.355-1.81.355-3.62-.43-1.813-.43-3.626-.896-2.151.38-3.439c1.264-1.276,1.608-.267,3.404-.267s1.796.437,3.592.437,1.796-.262,3.593-.262,1.796-.143,3.593-.143,1.797.33,3.593.33,1.797-.557,3.594-.557,1.797.389,3.595.389,1.798-.472,3.596-.472,1.798.714,3.597.714,1.798-.648,3.596-.648,1.797.386,3.595.386,1.797-.343,3.594-.343,1.797-.102,3.594-.102,1.797.586,3.593.586,1.797-.558,3.593-.558,1.797.537,3.593.537,1.797.118,3.594.118,1.797-.116,3.594-.116,1.797-.183,3.595-.183,1.798-.199,3.596-.199,1.798-.056,3.597-.056,1.798.449,3.596.449,1.797.158,3.595.158,1.797-.583,3.594-.583,1.797.451,3.594.451,1.797-.065,3.594-.065,1.797-.005,3.594-.005,1.797-.202,3.594-.202,1.798-.253,3.595-.253,1.798.309,3.596.309,1.798-.28,3.597-.28,1.798-.055,3.596-.055,1.798.671,3.595.671,1.797-.325,3.595-.325,1.797-.343,3.595-.343,1.797.585,3.595.585,1.798-.006,3.595-.006,1.798-.107,3.596-.107,1.798-.488,3.597-.488,1.798.217,3.596.217,1.798.389,3.596.389,1.798-.504,3.595-.504,1.797.251,3.595.251,1.798-.173,3.595-.173,1.798.19,3.596.19,1.799.236,3.597.236,1.798-.506,3.597-.506,1.798-.077,3.596-.077,1.798.614,3.595.614,1.798-.077,3.595-.077,1.798-.273,3.596-.273,1.799.169,3.597.169,1.798-.398,3.597-.398,1.798-.137,3.596-.137,1.798.031,3.596.031,1.796.158,3.591.158,1.795.186,3.591.186,1.795.355,3.591.355,1.796.046,3.592.046,1.797-.162,3.593-.162,1.798.167,3.595.167,1.799-.778,3.598-.778,1.798.187,3.596.187,1.797.494,3.594.494,1.797-.335,3.593-.335,1.796-.235,3.593-.235,1.797.184,3.593.184,1.797.098,3.595.098,1.799.371,3.597.371,1.799.002,3.598.002,1.798-.448,3.596-.448,1.797.369,3.594.369,1.797-.669,3.594-.669,1.798.137,3.596.137,1.799.507,3.598.507,1.799-.216,3.598-.216,1.798-.271,3.596-.271,1.798.148,3.596.148,1.799-.324,3.597-.324,1.8.072,3.6.072,1.799-.07,3.597-.07,1.798.112,3.597.112,1.799.479,3.598.479,1.8-.382,3.599-.382,1.799.504,3.597.504,1.799-.534,3.598-.534,1.8.402,3.6.402,1.799-.22,3.598-.22,1.8-.104,3.6-.104,1.799-.002,3.599-.002,1.8-.099,3.599-.099,1.8-.127,3.599-.127,1.8.427,3.6.427,1.798.117,3.595.117,1.8-.263,3.6-.263,1.798-.232,3.596-.232,1.8.015,3.6.015,1.799.114,3.598.114,1.801.537,3.601.537,1.799-.009,3.599-.009,1.8-.098,3.601-.098,1.801-.324,3.602-.324,1.801.38,3.602.38,1.801-.566,3.602-.566,1.801-.136,3.601-.136,1.801.316,3.602.316,1.801.299,3.603.299,1.804-.617,3.609-.617,2.458-1.009,3.733.268-.206,1.932-.206,3.739-.173,1.807-.173,3.614.131,1.807.131,3.613-.124,1.807-.124,3.615.092,1.809.092,3.618.422,1.807.422,3.615-.182,1.807-.182,3.614.23,1.808.23,3.616.001,1.808.001,3.617-.207,1.808-.207,3.615.257,1.808.257,3.616-.583,1.809-.583,3.617.482,1.808.482,3.616-.128,1.809-.128,3.618-.199,1.808-.199,3.617-.121,1.809-.121,3.617.16,1.809.16,3.617.021,1.809.021,3.618-.227,1.809-.227,3.617-.101,1.809-.101,3.617.558,1.807.558,3.613-.428,1.809-.428,3.617.397,1.808.397,3.615.128,1.809.128,3.619-.492,1.808-.492,3.616,0,1.809,0,3.618-.097,1.81-.097,3.62-.099,1.81-.099,3.62.046,1.81.046,3.62-.049,1.809-.049,3.619.64,1.81.64,3.619.077,1.81.077,3.62-.931,1.892-.589,3.672c.349,1.816,1.356,2.133.08,3.421Z"/>
            <path class="cls-4" d="m382.84,289.841c-1.264,1.276-1.636.29-3.432.29s-1.796-.46-3.592-.46-1.796.207-3.593.207-1.796-.221-3.593-.221-1.797.372-3.593.372-1.797.256-3.594.256-1.797-.618-3.595-.618-1.798.156-3.596.156-1.798.157-3.597.157-1.798-.278-3.596-.278-1.797-.011-3.595-.011-1.797.109-3.594.109-1.797.189-3.594.189-1.797-.046-3.593-.046-1.797.167-3.593.167-1.797-.199-3.593-.199-1.797.141-3.594.141-1.797.316-3.594.316-1.797-.276-3.595-.276-1.798.125-3.596.125-1.798-.252-3.597-.252-1.798.084-3.596.084-1.797-.364-3.595-.364-1.797.189-3.594.189-1.797.246-3.594.246-1.797.144-3.594.144-1.797-.073-3.594-.073-1.797-.227-3.594-.227-1.798.035-3.595.035-1.798.197-3.596.197-1.798-.261-3.597-.261-1.798-.016-3.596-.016-1.798.124-3.595.124-1.797-.383-3.595-.383-1.797.3-3.595.3-1.797.068-3.595.068-1.798-.315-3.595-.315-1.798.666-3.596.666-1.798-.307-3.597-.307-1.798.062-3.596.062-1.798-.376-3.596-.376-1.798.278-3.595.278-1.797-.276-3.595-.276-1.798.19-3.595.19-1.798-.022-3.596-.022-1.799-.317-3.597-.317-1.798.486-3.597.486-1.798-.366-3.596-.366-1.798.444-3.595.444-1.798.042-3.595.042-1.798-.232-3.596-.232-1.799-.317-3.597-.317-1.798.015-3.597.015-1.798.061-3.596.061-1.798.348-3.596.348-1.796-.195-3.591-.195-1.795.337-3.591.337-1.795-.206-3.591-.206-1.796-.022-3.592-.022-1.797.245-3.593.245-1.798-.643-3.595-.643-1.799.743-3.598.743-1.798.038-3.596.038-1.797-.304-3.594-.304-1.797.253-3.593.253-1.796-.591-3.593-.591-1.797.607-3.593.607-1.797-.691-3.595-.691-1.799.267-3.597.267-1.799-.32-3.598-.32-1.798.673-3.596.673-1.797.006-3.594.006-1.797-.671-3.594-.671-1.798.437-3.596.437-1.799.251-3.598.251-1.799-.327-3.598-.327-1.798.149-3.596.149-1.798.239-3.596.239-1.799-.402-3.597-.402-1.8-.088-3.6-.088-1.799.461-3.597.461-1.798-.235-3.597-.235-1.799.147-3.598.147-1.8-.06-3.599-.06-1.799.064-3.597.064-1.799-.031-3.598-.031-1.8-.019-3.6-.019-1.799-.149-3.598-.149-1.8-.19-3.6-.19-1.799.147-3.599.147-1.8.245-3.599.245-1.8-.549-3.599-.549-1.8.306-3.6.306-1.798.146-3.595.146-1.8-.373-3.6-.373-1.798-.01-3.596-.01-1.8.209-3.6.209-1.799-.057-3.598-.057-1.801.366-3.601.366-1.799-.303-3.599-.303-1.8.296-3.601.296-1.801.025-3.602.025-1.801-.216-3.602-.216-1.801-.132-3.602-.132-1.801-.112-3.601-.112-1.801.512-3.602.512-1.801-.588-3.603-.588-1.804-.156-3.609-.156-2.366,1.688-3.64.411-.122-1.839-.122-3.647-.236-1.807-.236-3.614-.002-1.807-.002-3.613.389-1.807.389-3.615.127-1.809.127-3.618-.444-1.807-.444-3.615.29-1.807.29-3.614.407-1.808.407-3.616-.331-1.808-.331-3.617-.264-1.808-.264-3.615.036-1.808.036-3.616-.018-1.809-.018-3.617-.096-1.808-.096-3.616.303-1.809.303-3.618-.003-1.808-.003-3.617-.205-1.809-.205-3.617-.18-1.809-.18-3.617-.011-1.809-.011-3.618.014-1.809.014-3.617.639-1.809.639-3.617-.186-1.807-.186-3.613-.288-1.809-.288-3.617.197-1.808.197-3.615-.207-1.809-.207-3.619-.019-1.808-.019-3.616.119-1.809.119-3.618.179-1.81.179-3.62-.254-1.81-.254-3.62.456-1.81.456-3.62-.441-1.809-.441-3.619.066-1.81.066-3.619.355-1.81.355-3.62-.43-1.813-.43-3.626-.896-2.151.38-3.439c1.264-1.276,1.608-.267,3.404-.267s1.796.437,3.592.437,1.796-.262,3.593-.262,1.796-.143,3.593-.143,1.797.33,3.593.33,1.797-.557,3.594-.557,1.797.389,3.595.389,1.798-.472,3.596-.472,1.798.714,3.597.714,1.798-.648,3.596-.648,1.797.386,3.595.386,1.797-.343,3.594-.343,1.797-.102,3.594-.102,1.797.586,3.593.586,1.797-.558,3.593-.558,1.797.537,3.593.537,1.797.118,3.594.118,1.797-.116,3.594-.116,1.797-.183,3.595-.183,1.798-.199,3.596-.199,1.798-.056,3.597-.056,1.798.449,3.596.449,1.797.158,3.595.158,1.797-.583,3.594-.583,1.797.451,3.594.451,1.797-.065,3.594-.065,1.797-.005,3.594-.005,1.797-.202,3.594-.202,1.798-.253,3.595-.253,1.798.309,3.596.309,1.798-.28,3.597-.28,1.798-.055,3.596-.055,1.798.671,3.595.671,1.797-.325,3.595-.325,1.797-.343,3.595-.343,1.797.585,3.595.585,1.798-.006,3.595-.006,1.798-.107,3.596-.107,1.798-.488,3.597-.488,1.798.217,3.596.217,1.798.389,3.596.389,1.798-.504,3.595-.504,1.797.251,3.595.251,1.798-.173,3.595-.173,1.798.19,3.596.19,1.799.236,3.597.236,1.798-.506,3.597-.506,1.798-.077,3.596-.077,1.798.614,3.595.614,1.798-.077,3.595-.077,1.798-.273,3.596-.273,1.799.169,3.597.169,1.798-.398,3.597-.398,1.798-.137,3.596-.137,1.798.031,3.596.031,1.796.158,3.591.158,1.795.186,3.591.186,1.795.355,3.591.355,1.796.046,3.592.046,1.797-.162,3.593-.162,1.798.167,3.595.167,1.799-.778,3.598-.778,1.798.187,3.596.187,1.797.494,3.594.494,1.797-.335,3.593-.335,1.796-.235,3.593-.235,1.797.184,3.593.184,1.797.098,3.595.098,1.799.371,3.597.371,1.799.002,3.598.002,1.798-.448,3.596-.448,1.797.369,3.594.369,1.797-.669,3.594-.669,1.798.137,3.596.137,1.799.507,3.598.507,1.799-.216,3.598-.216,1.798-.271,3.596-.271,1.798.148,3.596.148,1.799-.324,3.597-.324,1.8.072,3.6.072,1.799-.07,3.597-.07,1.798.112,3.597.112,1.799.479,3.598.479,1.8-.382,3.599-.382,1.799.504,3.597.504,1.799-.534,3.598-.534,1.8.402,3.6.402,1.799-.22,3.598-.22,1.8-.104,3.6-.104,1.799-.002,3.599-.002,1.8-.099,3.599-.099,1.8-.127,3.599-.127,1.8.427,3.6.427,1.798.117,3.595.117,1.8-.263,3.6-.263,1.798-.232,3.596-.232,1.8.015,3.6.015,1.799.114,3.598.114,1.801.537,3.601.537,1.799-.009,3.599-.009,1.8-.098,3.601-.098,1.801-.324,3.602-.324,1.801.38,3.602.38,1.801-.566,3.602-.566,1.801-.136,3.601-.136,1.801.316,3.602.316,1.801.299,3.603.299,1.804-.617,3.609-.617,2.458-1.009,3.733.268-.206,1.932-.206,3.739-.173,1.807-.173,3.614.131,1.807.131,3.613-.124,1.807-.124,3.615.092,1.809.092,3.618.422,1.807.422,3.615-.182,1.807-.182,3.614.23,1.808.23,3.616.001,1.808.001,3.617-.207,1.808-.207,3.615.257,1.808.257,3.616-.583,1.809-.583,3.617.482,1.808.482,3.616-.128,1.809-.128,3.618-.199,1.808-.199,3.617-.121,1.809-.121,3.617.16,1.809.16,3.617.021,1.809.021,3.618-.227,1.809-.227,3.617-.101,1.809-.101,3.617.558,1.807.558,3.613-.428,1.809-.428,3.617.397,1.808.397,3.615.128,1.809.128,3.619-.492,1.808-.492,3.616,0,1.809,0,3.618-.097,1.81-.097,3.62-.099,1.81-.099,3.62.046,1.81.046,3.62-.049,1.809-.049,3.619.64,1.81.64,3.619.077,1.81.077,3.62-.931,1.892-.589,3.672c.349,1.816,1.356,2.133.08,3.421Z"/>
          </g>
          <g>
            <g>
              <polygon class="cls-16" points="56.592 149.457 55.866 149.517 55.139 149.557 54.409 149.472 53.676 149.42 52.946 149.464 52.217 149.548 51.487 149.532 50.753 149.543 50.021 149.466 49.289 149.488 48.554 149.448 47.821 149.5 47.088 149.52 46.357 149.522 45.622 149.433 44.885 149.515 44.147 149.423 43.408 149.55 42.718 149.435 42.129 149.073 41.645 148.594 41.352 147.981 41.154 147.312 41.246 146.587 41.181 145.862 41.275 145.137 41.245 144.412 41.259 143.685 41.234 142.958 41.233 142.232 41.172 141.506 41.257 140.779 41.175 140.058 41.225 139.337 41.244 138.613 41.192 137.887 41.236 137.158 41.279 136.432 41.168 135.707 41.251 134.98 41.201 134.251 41.275 133.523 41.162 132.794 41.164 132.064 41.217 131.335 41.184 130.606 41.241 129.878 41.261 129.147 41.29 128.414 41.201 127.68 41.264 126.945 41.325 126.268 41.602 125.633 42.122 125.175 42.722 124.834 43.408 124.833 44.134 124.755 44.861 124.694 45.591 124.695 46.324 124.787 47.054 124.764 47.783 124.809 48.513 124.835 49.247 124.813 49.979 124.767 50.711 124.715 51.446 124.835 52.179 124.764 52.912 124.708 53.643 124.832 54.378 124.824 55.115 124.781 55.853 124.724 56.592 124.798 57.253 124.912 57.86 125.2 58.298 125.706 58.727 126.252 58.788 126.945 58.737 127.671 58.742 128.395 58.727 129.12 58.738 129.846 58.711 130.572 58.818 131.3 58.759 132.026 58.744 132.752 58.705 133.478 58.824 134.199 58.71 134.921 58.8 135.644 58.802 136.371 58.817 137.099 58.706 137.826 58.729 138.551 58.789 139.277 58.816 140.007 58.826 140.735 58.715 141.463 58.834 142.194 58.793 142.923 58.82 143.652 58.738 144.379 58.777 145.111 58.734 145.843 58.826 146.578 58.746 147.312 58.647 147.98 58.306 148.558 57.885 149.093 57.275 149.417 56.592 149.457"/>
              <polygon class="cls-5" points="56.592 149.457 55.866 149.517 55.139 149.557 54.409 149.472 53.676 149.42 52.946 149.464 52.217 149.548 51.487 149.532 50.753 149.543 50.021 149.466 49.289 149.488 48.554 149.448 47.821 149.5 47.088 149.52 46.357 149.522 45.622 149.433 44.885 149.515 44.147 149.423 43.408 149.55 42.718 149.435 42.129 149.073 41.645 148.594 41.352 147.981 41.154 147.312 41.246 146.587 41.181 145.862 41.275 145.137 41.245 144.412 41.259 143.685 41.234 142.958 41.233 142.232 41.172 141.506 41.257 140.779 41.175 140.058 41.225 139.337 41.244 138.613 41.192 137.887 41.236 137.158 41.279 136.432 41.168 135.707 41.251 134.98 41.201 134.251 41.275 133.523 41.162 132.794 41.164 132.064 41.217 131.335 41.184 130.606 41.241 129.878 41.261 129.147 41.29 128.414 41.201 127.68 41.264 126.945 41.325 126.268 41.602 125.633 42.122 125.175 42.722 124.834 43.408 124.833 44.134 124.755 44.861 124.694 45.591 124.695 46.324 124.787 47.054 124.764 47.783 124.809 48.513 124.835 49.247 124.813 49.979 124.767 50.711 124.715 51.446 124.835 52.179 124.764 52.912 124.708 53.643 124.832 54.378 124.824 55.115 124.781 55.853 124.724 56.592 124.798 57.253 124.912 57.86 125.2 58.298 125.706 58.727 126.252 58.788 126.945 58.737 127.671 58.742 128.395 58.727 129.12 58.738 129.846 58.711 130.572 58.818 131.3 58.759 132.026 58.744 132.752 58.705 133.478 58.824 134.199 58.71 134.921 58.8 135.644 58.802 136.371 58.817 137.099 58.706 137.826 58.729 138.551 58.789 139.277 58.816 140.007 58.826 140.735 58.715 141.463 58.834 142.194 58.793 142.923 58.82 143.652 58.738 144.379 58.777 145.111 58.734 145.843 58.826 146.578 58.746 147.312 58.647 147.98 58.306 148.558 57.885 149.093 57.275 149.417 56.592 149.457"/>
            </g>
            <g>
              <polygon class="cls-12" points="54.424 134.716 53.691 134.686 52.954 134.692 52.218 134.711 51.483 134.668 50.745 134.711 50.009 134.665 49.273 134.695 48.538 134.694 47.799 134.711 47.059 134.707 46.318 134.677 45.576 134.662 44.907 134.434 44.676 133.765 44.651 133.063 44.622 132.362 44.678 131.657 44.654 130.952 44.641 130.244 44.679 129.536 44.935 128.896 45.576 128.642 46.309 128.639 47.046 128.586 47.782 128.585 48.517 128.604 49.255 128.608 49.991 128.611 50.727 128.581 51.462 128.623 52.201 128.619 52.941 128.623 53.682 128.642 54.424 128.621 55.08 128.881 55.373 129.536 55.351 130.239 55.354 130.94 55.337 131.644 55.354 132.35 55.344 133.057 55.353 133.765 55.086 134.427 54.424 134.716"/>
              <polygon class="cls-5" points="54.424 134.716 53.691 134.686 52.954 134.692 52.218 134.711 51.483 134.668 50.745 134.711 50.009 134.665 49.273 134.695 48.538 134.694 47.799 134.711 47.059 134.707 46.318 134.677 45.576 134.662 44.907 134.434 44.676 133.765 44.651 133.063 44.622 132.362 44.678 131.657 44.654 130.952 44.641 130.244 44.679 129.536 44.935 128.896 45.576 128.642 46.309 128.639 47.046 128.586 47.782 128.585 48.517 128.604 49.255 128.608 49.991 128.611 50.727 128.581 51.462 128.623 52.201 128.619 52.941 128.623 53.682 128.642 54.424 128.621 55.08 128.881 55.373 129.536 55.351 130.239 55.354 130.94 55.337 131.644 55.354 132.35 55.344 133.057 55.353 133.765 55.086 134.427 54.424 134.716"/>
            </g>
            <polygon class="cls-2" points="52.215 133.57 52.215 133.574 52.634 133.371 52.635 132.564 52.617 131.756 52.633 130.946 52.613 130.136 52.215 129.934 52.215 129.924 51.808 130.136 51.812 130.943 51.816 131.75 51.808 132.561 51.81 133.371 52.215 133.57"/>
            <polygon class="cls-2" points="47.785 133.576 47.785 133.583 47.371 133.371 47.379 132.564 47.367 131.756 47.371 130.946 47.368 130.136 47.785 129.933 47.785 129.931 48.193 130.136 48.186 130.943 48.2 131.75 48.194 132.561 48.185 133.371 47.785 133.576"/>
            <g>
              <polygon class="cls-12" points="54.424 144.969 53.691 144.937 52.954 144.955 52.218 144.921 51.483 144.934 50.745 144.972 50.009 144.972 49.273 144.959 48.538 144.979 47.799 144.98 47.059 144.933 46.318 144.981 45.576 144.942 44.932 144.67 44.658 144.027 44.665 143.325 44.652 142.624 44.626 141.919 44.67 141.214 44.629 140.506 44.662 139.798 44.907 139.13 45.576 138.901 46.309 138.865 47.046 138.845 47.782 138.891 48.517 138.849 49.255 138.901 49.991 138.871 50.727 138.868 51.462 138.854 52.201 138.899 52.941 138.899 53.682 138.874 54.424 138.891 55.095 139.128 55.33 139.798 55.326 140.5 55.329 141.201 55.375 141.906 55.338 142.612 55.337 143.319 55.346 144.027 55.066 144.668 54.424 144.969"/>
              <polygon class="cls-5" points="54.424 144.969 53.691 144.937 52.954 144.955 52.218 144.921 51.483 144.934 50.745 144.972 50.009 144.972 49.273 144.959 48.538 144.979 47.799 144.98 47.059 144.933 46.318 144.981 45.576 144.942 44.932 144.67 44.658 144.027 44.665 143.325 44.652 142.624 44.626 141.919 44.67 141.214 44.629 140.506 44.662 139.798 44.907 139.13 45.576 138.901 46.309 138.865 47.046 138.845 47.782 138.891 48.517 138.849 49.255 138.901 49.991 138.871 50.727 138.868 51.462 138.854 52.201 138.899 52.941 138.899 53.682 138.874 54.424 138.891 55.095 139.128 55.33 139.798 55.326 140.5 55.329 141.201 55.375 141.906 55.338 142.612 55.337 143.319 55.346 144.027 55.066 144.668 54.424 144.969"/>
            </g>
            <polygon class="cls-2" points="52.215 143.731 52.215 143.723 52.619 143.53 52.629 142.723 52.633 141.915 52.618 141.105 52.62 140.295 52.215 140.084 52.215 140.101 51.797 140.295 51.798 141.102 51.815 141.91 51.817 142.72 51.805 143.53 52.215 143.731"/>
            <polygon class="cls-2" points="47.785 143.725 47.785 143.733 47.384 143.53 47.369 142.723 47.379 141.915 47.382 141.105 47.378 140.295 47.785 140.098 47.785 140.094 48.191 140.295 48.186 141.102 48.19 141.91 48.194 142.72 48.197 143.53 47.785 143.725"/>
          </g>
          <g>
            <g>
              <path class="cls-3" d="m326.293,67.886c-.278-.139-.552-.274-.828-.414v-1.244c-.689-.548-1.381-1.1-2.068-1.653-.139-.413-.278-.826-.416-1.244h-.828c-.274-.413-.552-.826-.826-1.24h-.828c-.966-1.105-1.931-2.209-2.898-3.31h-.828c-.139-.279-.273-.552-.413-.831h-.828v-.413h-.828v-.413h-2.897v-.414h-.827c.634-.628,4.927-1.436,6.622-.83v.417h.829v.413h2.068c.137.274.275.553.415.827h.827v.413c.413-.134.827-.274,1.241-.413.138-.552.276-1.105.416-1.657h.414c-.139-.687-.279-1.379-.414-2.066h-.416c-.316-1.127-.099-.943-1.241-1.244v-1.24c-1.024-.301-.67-.215-1.241-.83h-.416v-.827c-.274-.139-.551-.273-.827-.413v-.413c-1.888-1.325-5.603-2.389-8.69-2.484.116-1.667,1.082-1.864.826-3.31h-.413c-.116-.628.413-.817.413-.83v-.414h-.413v-2.483h-.413v-1.657h-.416c-.137-.548-.276-1.101-.416-1.653h-.413v-1.657h-.414c-.139-.552-.276-1.105-.413-1.653-.276-.139-.552-.279-.828-.418-.137-.552-.276-1.1-.413-1.653-.276-.139-.552-.278-.828-.413v-.831c-.552-.413-1.105-.826-1.655-1.239-.416-.552-.828-1.105-1.242-1.657h-.826v-.413h-.831v-.413h-1.24c-1.224-.463-3.737-1.294-5.796-.831v.417c-.413-.139-.828-.278-1.241-.417-.137.278-.273.552-.413.831h-1.657v.413c-1.572.732-2.758,1.185-4.965,1.24.275-2.524,1.439-4.262,1.654-6.62h2.484v.413h.827v.413c3.311.139,6.624.278,9.934.413v.417h1.657c.138.274.274.548.413.827,1.518.274,3.036.552,4.554.826.355-.418.709-.584,1.24-.826-.036-2.322-.472-2.376-1.24-3.728v-.826c-.416-.274-.828-.553-1.244-.826-1.347-2.039-1.316-3.957-4.136-4.554v-.826c-1.42-.387-1.067-.885-2.484-1.244-.139-.413-.278-.827-.416-1.24-1.796-.422-4.92-2.744-7.864-1.657v.413h-.828c-.148.09-.408.593-.826.831v-.831c1.195-.301,1.372-.445,1.654-1.653,1.206-.207,2.116-.679,3.312,0,.138.274.274.548.414.826h1.241v.413c.551-.139,1.103-.274,1.655-.413v.413h5.38v.413h2.484v.413c3.103.889,7.433-1.083,9.105,1.244,1.817.063,2.51.243,2.899-1.244h.413c-.139-.413-.276-.827-.413-1.24h.413v-.826c-.828-.692-1.657-1.383-2.484-2.07v-.831c-.552-.413-1.105-.826-1.657-1.239v-.827h-.414c-.273-.413-.552-.831-.826-1.244-.552-.139-1.105-.274-1.657-.413-.274-.413-.552-.826-.827-1.24-.413-.139-.828-.278-1.244-.418-.135-.274-.274-.548-.413-.826h-1.24c-.279-.413-.552-.826-.828-1.24h-.828c-.274-.417-.552-.831-.827-1.244-6.966.041-10.806,1.761-14.901,4.554h-.827v.413c-.961.844-1.405,2.2-2.483,2.897v3.728c-1.069.274-1.19.422-1.658,1.239h-.413c.273.827.552,1.657.827,2.484-2.529-.597-1.465-1.406-4.552-.826-.166-.93-.68-1.599-.416-2.897.02-.09.53-.148.416-.831h-.416V-.405h-.413c0-.575.669-.669.413-1.657h-.413v-2.07h-.414c-.114-.678.395-.736.414-.826.31-1.496-.238-2.695-.414-3.723.537-.341.494-.287.827-.831h.831c.134-.413.273-.826.413-1.24h.413v-.831h.414v-.826c.275-.139.552-.274.828-.413v-1.244h.413c1.053-3.161-1.186-5.771-1.655-7.446h-.826c-.416-.553-.831-1.105-1.244-1.657h-.827c-.139-.278-.276-.552-.413-.826h-.831c-.274-.418-.55-.831-.826-1.244h-.414v-.826c-.276-.139-.552-.278-.828-.413v-.418c-.752-.696-1.825-.858-2.484-1.653h-2.481c-.279.413-.552.826-.831,1.24-1.63,1.127-3.35,2.268-5.793,2.483-.256.934-.35,1.019-.827,1.657h-.415v.826h-.414v2.07c-.137.692-.276,1.379-.416,2.07.158.889,1.002,2.228,1.244,3.31,1.402.4,1.873,1.298,2.898,2.07v.413h1.239v.413c.553.139,1.106.278,1.658.413v.418h2.07v.413c.552.135,1.103.274,1.655.413v.413c.777.602,1.314.997,2.484,1.244.067,1.051.02,1.451.413,2.066h.416v.831h.413v2.066h.414c.116.642-.409.799-.414.831.137,1.24.274,2.484.414,3.723-.117.575-.494-.166-.414.413h.414v5.38c-.133.449-.641-.126-.414.418h.414v2.897h-.414v.413h-1.241c-.532-2.057-2.472-3.638-3.312-5.38-.611-1.271.267-1.487-.827-2.484-.366-1.365-1.487-1.833-2.897-2.07-.581-2.246-2.854-2.982-4.554-4.141-.139-.274-.276-.548-.414-.827h-.828c-.276-.413-.552-.826-.828-1.239h-.826c-.139-.278-.279-.553-.414-.831h-1.244v-.413c-1.378-.139-2.757-.274-4.138-.413v.413h-2.068v.413h-1.657v.413h-1.655c-.137.278-.276.552-.416.831-.826.274-1.653.553-2.484.826-.135.279-.274.553-.413.827h-.827v.417c-.552.413-1.105.827-1.657,1.24v.826c-.274.139-.552.278-.826.418V.008c-.414.274-.829.552-1.242.826v.831c-.276.135-.552.274-.828.413-.137.552-.274,1.1-.413,1.653-.276.139-.552.278-.827.413-.139.552-.279,1.105-.416,1.657-.276.139-.552.278-.828.413-.137.552-.273,1.105-.413,1.657-.276.139-.552.274-.827.413.137.827.274,1.657.414,2.484.826.139,1.654.274,2.483.413.138-.274.274-.552.414-.827h1.241c.137-.278.276-.552.413-.826h.829v-.417h1.654v-.413c.552-.135,1.103-.274,1.655-.413v-.413h.828v-.413h.828v-.413c.689.135,1.379.274,2.071.413v-.413h2.481v-.418h1.655v-.413h1.244v-.413h1.653v-.413c.968-.139,1.933-.274,2.898-.413v-.413h1.242v-.418c.413.139.826.278,1.241.418v-.418c.414-.135.828-.274,1.242-.413v.413c.791.135,2.07-.413,2.07-.413v.413h2.068c.488.274.164,1.15.416,1.657h.413v.826h.414v1.244c.276.139.552.274.826.413.588.723,1.061,1.841,1.244,2.897h-2.484c-.646.202-2.647,1.621-4.141.831-.273-.552-.552-1.105-.826-1.657h-2.071c-.137-.278-.273-.552-.413-.826h-1.242c-2.89-1.19-4.567-1.931-8.279-1.244v.827h-1.24v.831c-1.859.476-1.976,1.545-2.897,2.897-.279.139-.552.274-.831.413v.826c-.274.139-.55.278-.826.413v.831h-.414v1.24h-.413v1.657h-.416v2.897c-.406,1.384-1.443,4.828-.828,7.038h.416v2.483h.413c.137.687.276,1.379.416,2.071.025.045.629.467.827.826h3.725v-.413h.828c.137-.278.274-.552.413-.831h1.242v-.413h.828v-.413h1.24c.139-.274.278-.552.416-.827h1.241v-.413c1.253-.602,2.376-.813,4.138-.831.295-1.136.796-1.509,1.242-2.483.552-.135,1.105-.274,1.655-.413v-.413c1.547-.674,2.696-.472,3.725-1.657.869.719.698,1.307,2.07,1.657.382,1.634,1.271,1.805,1.655,3.31h.828c.427,2.16,2.686,3.53,4.967,3.728.22,1.038.876,2.807,0,3.723v2.484c-.416-.139-.828-.274-1.244-.414v-.413h-.827v-.413h-.828c-.137-.279-.276-.553-.413-.831h-2.068v-.413c-1.837-.535-4.302.499-5.383.826h-2.068v.418c-2.155.646-3.175.026-5.38,0-.251-.827.056-.359-.415-.831-.138-.413-.276-.826-.416-1.24h-1.653v.413h-.416c-.6-.036-2.742-1.401-4.139-.826-.139.274-.276.552-.413.826h-.828v.826c-1.593.422-1.26.925-2.068,2.071-.416.278-.831.552-1.244.826v1.244h-.413v.827h-.414v2.897h-.413c-.202.903.413,1.244.413,1.244v2.897h.414v2.897h.413v1.657h.413v1.24h.416v1.244c.276.135.552.274.828.413.137.414.274.827.414,1.24,2.831-.103,3.907-1.096,5.379-2.484.139-.273.276-.552.414-.826h.828c.276-.413.552-.827.828-1.24h1.655v-.417h1.241c.139-.274.276-.552.413-.827h2.071v-.413h2.07v-.414c1.721-.57,2.619-.031,3.723-1.243.692.138,1.381.278,2.071.413.233,1.72.862,1.446,1.241,2.901h.828c.544,2.304,2.358,3.539,2.897,5.793h2.071c-2.491,2.107-4.478-1.567-6.211-1.244v.414h-2.484c-.134.278-.273.552-.413.83h-1.24v.414h-.828v.413h-.828c-.139.278-.274.552-.413.826-.552.139-1.105.279-1.658.418-.274.413-.55.826-.826,1.24-.692.552-1.379,1.105-2.071,1.657v.827h-.413c-.139.691-.276,1.378-.413,2.07h-.414c-.139.827-.278,1.653-.415,2.484h-.828v1.653h-1.24c.137-.413.273-.826.413-1.24.274-.139.552-.278.827-.413v-.831h.413c.333-.943-.503-1.145-.413-1.653h.413v-3.728c-.497-.404-.934-1.068-1.24-1.653-.963-.391-2.47-1.307-4.141-.831-1.487.427-4.208,1.456-6.62.831v-.413h-.416v.413h-.413v-.413h-2.899v-.418h-.826c-.139-.273-.276-.548-.414-.826h-.828v-.413h-7.45v.413c-.276-.139-.55-.274-.828-.413-.138.273-.274.552-.414.826-.884.696-1.908,1.087-3.309,1.244v.827c-.276.139-.552.273-.828.413-.137.413-.276.831-.416,1.244h-.827v.413c-.413.274-.826.552-1.241.827v.826c-.276.139-.55.279-.828.418-.137.552-.274,1.1-.414,1.653h-.413c-.276.831-.552,1.657-.828,2.484h-.413c-.137,1.105-.276,2.209-.416,3.314h-.413v1.24h-.414c-.191,1.244.674.858.827,1.24v1.244c3.709-.058,6.061-.161,8.28-1.657.415-.552.828-1.1,1.241-1.653h2.071v-.414h.826c.139-.278.276-.552.413-.83.552-.139,1.106-.274,1.658-.414v-.413h1.654v-.413h1.242v-.413h1.241v-.418h1.242v-.413c.965-.135,1.93-.274,2.897-.413v-.414c2.074-.669,5.026.243,6.624.414.134.691.274,1.378.413,2.07h.413c.513.808,2.632,2.241,3.726,2.484.244.92.343,1.042.828,1.653h.413v.831c.274.139.552.274.827.413v.413c.278.139.552.279.828.414,1.3,1.85,1.731,4.212,3.725,5.38v1.243h-6.622v-.413c-.829-.139-1.655-.278-2.484-.413-.414-1.545-.863-1.123-1.655-2.071-2.937.243-5.459,1.258-6.624,3.31-1.554-.167-2.208-.791-3.31-1.24-.414.135-.827.273-1.242.413v-.413h-4.138c-2.344,1.1-4.693,2.205-7.038,3.31-.386,1.415-.88,1.065-1.239,2.484h-1.244c-.454.966-.975,1.747-1.655,2.484-.276.135-.55.274-.828.413-.478.696.002.943-.827,1.658.041,2.151.148,1.612.827,2.897,3.175.134,6.348.273,9.521.413v-.413h2.07v-.418h.827v-.413c1.81-.634,2.472.565,3.725-.827h3.726c.949.485.745,2.35,1.241,3.31h.413c.137.552.276,1.105.416,1.657h.413v1.24h.414v.831c.276.134.552.273.826.413v.827c.416.278.831.552,1.244.83v.827c.274.139.552.273.827.413v.827c.413.278.828.552,1.244.83v.827c.523.728,1.502,1.038,2.068,2.071,4.789-.297,7.444-4.716,10.761-6.624v-1.653c1.253-.336,1.426-.772,1.654-2.07,1.404-.319,1.902-.961,3.312-1.244.552,1.105,1.103,2.209,1.655,3.314.276.135.552.274.828.414v1.24c.276.139.551.278.828.413.137.692.274,1.383.414,2.07h.413v.827h.413v.831c.279.139.552.274.828.413v1.24c.276.139.552.278.828.417v1.24h.414c.139.827.276,1.657.413,2.484h.416v.827h.413v1.243h.416c.288.971-.449,1.1-.416,1.653h.416v11.178h.413v.413h-.413v.413h.413c.202.858-.413,1.244-.413,1.244v.414h.413v4.554h.414v3.31h.413v2.07h.413v.413c-.696,1.091.038,2.978-.413,4.554h-.413v5.793h-.414c-.087.31-.413,3.723-.413,3.723h.413v2.484h.414v2.483c.691.966,1.378,1.931,2.07,2.897,1.85.401,4.779,1.689,7.036.831v-.417h.828v-.414c.413-.134.827-.273,1.24-.413.314-1.226.673-1.019.83-2.484.851-1.311-1.324-1.136-.83-3.31h.416c.182-.853-.416-1.244-.416-1.244-.113-.858.416-.827.416-.827v-7.037h.415c.252-.974-.46-1.788-.415-2.065h.415c-.04-.589-.318.161-.415-.418.137-1.518.276-3.036.415-4.549h-.415c-.097-.458.415-.831.415-.831v-.413h-.415v-7.037c.154-.561.361.17.415-.413-.139-.552-.278-1.106-.415-1.653,0,0,.622-.426.415-1.244h-.415c-.416-2.757-.828-5.519-1.242-8.277h.414v-2.897c.278-.139.552-.278.828-.413v-.831h.415v-.826h.414v-1.657h.413v-2.898h.413v-1.653h.414v-1.657h.415v-.827h.416c.135-.552.274-1.105.413-1.657h.414c.139-1.105.276-2.209.413-3.309h.413v-1.244c.279-.135.553-.274.828-.414.138-.965.277-1.93.416-2.897h.827c.346-1.455,1.058-1.863,1.657-2.897v-.826c.274-.139.551-.279.827-.418v-.826c.276-.139.552-.274.826-.414.139-.552.279-1.105.416-1.657,1.242.139,2.484.279,3.725.413.277.418.553.831.827,1.244h.828v.414h1.242v.413h1.241v.413h1.241v.418h1.242v.413h1.241v.413h.827v.413c.692.139,1.381.274,2.07.414v.413c1.379.279,2.76.552,4.142.831v.413h.826v.413c1.242.139,2.484.274,3.725.414.928-.27,1.703-1.19,2.484-1.658-.308-1.077-.648-1.324-1.241-2.066h-.413c-.139-.552-.279-1.105-.414-1.657h-.416v-1.24h-.415v-1.244h-.414c-.137-.552-.274-1.105-.413-1.658h-.413v-.826c-.276-.139-.553-.274-.828-.413v-.827c-.277-.139-.551-.278-.829-.417v-.827h-.413c-.48-.611-.597-.728-.826-1.653h-.829v-.831c-1.358-.372-1.946-1.279-2.898-2.07v-.414h-.827c-.139-.273-.276-.552-.413-.826h-.828c-.137-.279-.276-.552-.416-.827h-.827v-.417h-1.657v-.413h-3.31v-.414c-1.655.139-3.31.279-4.967.414v.413h-.827v.417h-1.244v.414h-2.068v.413h-1.241v.413c-1.334.4-1.958-.566-2.897-.413v.413h-2.897c-.139.279-.276.552-.414.827h-.83v.417c-.413.135-.827.274-1.24.413-.362-.948-.44-1.832-.413-3.314,1.028-.292.664-.215,1.24-.827h.413v-.826c.416-.139.83-.279,1.244-.414.274-.417.552-.83.826-1.243h.828c.138-.274.276-.553.416-.827h.827v-.413h1.241c.138-.279.276-.553.413-.831h.829c.274-.413.552-.827.826-1.24h.828v-.413c.553-.413,1.103-.831,1.655-1.244v-1.24c2.484.135,4.967.274,7.451.413.108.023.134.53.828.414v-.414h1.654v-.413h1.658v.413h5.793v.414h1.241v.413h.829v.413c.826.139,1.653.279,2.483.418.274.413.551.826.827,1.239h1.241v.414h1.242c1.769.686.851.731,2.897.413.249-.827-.058-.355.413-.827-.011-2.285-.35-3.57-1.24-4.967Zm-53.807,16.971v-.413c-.552-.139-1.106-.279-1.658-.417v-.414c-1.309-.525-3.59.004-4.552-.826-.695-.472-.577-.251-.828-1.244h-.826c-.465-1.68-1.008-.898-1.242-2.897h-.828c-.343-1.303-.952-1.501-1.24-2.897,2.068.139,4.136.278,6.207.413v.413h4.967c1.444.436,2.596,1.168,4.554,1.244v10.761c-1.17-.31-1.19-.741-2.071-1.24v-.831c-1.23-.336-1.628-.965-2.483-1.653Zm4.138,21.108c-.469-.274-.532-1.549-.828-2.071-.66-1.163-1.527-1.446-1.655-3.31h-.828c-.137-.692-.273-1.379-.413-2.071,1.497-.341,2.075-1.086,3.312-1.657.618,1.644-.24,4.563.413,6.624h.416c.137.827.274,1.657.413,2.484h-.828Zm1.655-79.883v.413c-.696.494-1.177-.166-2.068.827h-1.655c-.139-.413-.279-.827-.416-1.24-.276-.139-.55-.274-.828-.413-.48-.517-.702-1.195-1.24-1.657v-.826c2.754-.184,4.024-1.437,6.62-1.657.042,1.424.283,3.799-.413,4.554Zm4.141-3.31c-.041-1.496-.324-4.168.413-4.967v-.413c.741.395.642.593,1.655.826-.052,3.112-1.013,4.482-1.241,7.037h-.414v-2.483h-.413Zm7.45,67.877v.414c.687-.139,1.379-.274,2.068-.414.993.212,1.741.782,3.312.827.138.413.274.831.414,1.244h-.829c-.319,1.513-.909,2.583-1.654,3.723-.276.139-.552.278-.827.413v1.244h-.416v.827h-.415c-.138.691-.274,1.378-.414,2.07h-.413v1.24c-.276.139-.552.279-.827.417v1.653h-.415c-.546,1.401-.214,1.971-1.242,2.897v.413h-.413v-.413h-.413c.779-1.77-.436-1.968,0-3.723,1.031-4.177-.049-9.014,0-13.657.826.273,1.653.548,2.483.826Zm-3.727-39.319v3.723c-.414.279-.827.552-1.24.827v1.244h-.416v.413h-.413c-.398-1.064-.07-2.133-.416-3.31-1.622-5.565-.305-10.447,0-16.141h.416v-.418h2.484c.137.278.275.552.413.831h1.241v.413c1.379.274,2.76.552,4.141.827v.413c.274-.135.55-.273.827-.413v.413h.826c.139.279.279.552.416.831h3.312v.413h1.24v.413h2.484v.414h1.244v.413c.826.279,1.653.552,2.481.831v.413h.828v.413c.414.274.827.552,1.242.827v.413h-.416v.418c-1.41-.521-2.363-.449-3.723,0h-1.657v.413c-.552.139-1.103.274-1.655.413-.137.274-.276.552-.416.827h-.826v.413h-2.071v.417h-.413v-.417c-.413-.135-.827-.273-1.242-.413v.413h-1.654v.417h-.827v.414c-1.105.134-2.209.273-3.314.413-1.226.521-1.248,1.657-2.897,2.07Zm23.178,5.794h-2.484c-.413.552-.827,1.105-1.24,1.657h-.828c-.416.548-.828,1.1-1.242,1.653h-.826c-.139.279-.279.552-.416.831h-.828c-1.024.529-2.575,1.814-4.552,1.24v-.414h-1.655c-.552-.691-1.105-1.378-1.657-2.07-1.379-.413-2.757-.827-4.138-1.24v-1.657c.707.265,1.098.161,2.068.413v.413c2.762-.413,5.519-.826,8.279-1.24v-.413c2.261-.673,7.763.099,9.519.413v.414Z"/>
              <path class="cls-7" d="m247.65-.405c-.57,2.219-3.071,3.768-3.722,6.207.689-.139,1.378-.274,2.07-.413v-.413h1.24c.139-.279.278-.553.413-.831,1.244-.135,2.484-.274,3.728-.413.584.036-.173.417.413.413v-.413h1.655v-.413h1.241v-.413h1.242v-.413h1.241v-.413h1.657v-.413h.827v-.418h2.071v-.413c.965-.139,1.93-.274,2.897-.413V.008c-.712-.467-.562-.26-.828-1.244-1.399-.287-1.594-.894-2.897-1.239v-.827c-1.556-.193-4.349-1.644-6.622-.831v.413h-.828v.417c-.689.135-1.379.274-2.068.413-.139.274-.279.552-.413.826h-1.244v.413c-.77.579-.971.934-2.071,1.244Z"/>
              <path class="cls-7" d="m294.422.834v.831h-1.241v.413c-.472.472-.167,0-.414.827,2.363.206,3.573,1.482,5.38,2.07h3.723v.413h5.796v.413h2.068v.413c.586.027-.161-.319.416-.413h2.068c-.359-1.419-.853-1.064-1.24-2.484-1.158-.247-1.725-.629-2.484-1.24v-.413h-.828c-.413-.552-.828-1.105-1.241-1.657h-1.242v-.413h-.828v-.413c-.573-.377-.723-.288-1.653-.418v.418h-2.899c-1.744.535-3.155,1.442-5.38,1.653Z"/>
              <path class="cls-7" d="m255.101,11.182c-.44.53-.728.431-1.24.831v.413h-.828c-.416.552-.828,1.1-1.242,1.653h-.413c-2.391,3.373-2.904,9.912-2.897,14.901.746.391.651.575,1.653.826v-.413h1.244c.137-.274.274-.552.413-.826h.827v-.413h1.244v-.413h1.24v-.417c.552-.135,1.105-.274,1.657-.413v-.413h1.24v-.413h.83c.414-.692.827-1.379,1.24-2.07,1.379-.413,2.762-.826,4.141-1.24v-.413h.827c.139-.278.276-.552.413-.831h.828v-.413c3.174-.826,6.348-1.657,9.519-2.483.139-.413.279-.826.416-1.24h.413c-.413-.831-.828-1.657-1.241-2.484h-2.071c-.826-.139-1.653-.278-2.484-.418-1.401.368-4.307,1.577-6.62.831v-.413h-1.244c-.137-.278-.274-.552-.413-.831h-.826c-.139-.274-.279-.552-.414-.826-1.558-1.019-3.907-1.878-6.211-2.07Z"/>
              <path class="cls-7" d="m303.115,19.045v-1.239c-1.163-.683-1.41-1.671-2.897-2.071v-.826c-1.884-.346-1.464-.885-2.484-1.657-.416-.139-.828-.274-1.244-.413v-.826h-2.897v-.418h-.413v.418h-1.242v.413c-.552.135-1.102.274-1.654.413v.413h-1.244c-.773.314-2.035.885-2.897,1.239.139.279.278.553.416.831,1.93.966,3.864,1.931,5.795,2.897h6.62c1.038.296,2.861.701,4.141.826Z"/>
              <path class="cls-7" d="m302.286,30.224h-.828v-.831c-1.383-.251-6.002-1.621-7.864-.826-.137.274-.273.553-.413.826h-1.242v.413h-.828v.418c-.826.135-1.654.274-2.483.413v.413c-2.944.93-6.886-1.172-9.519-1.244v.418c.99.66,1.076,1.823,2.068,2.484v.413h2.071v.413h.828v.413h1.241v.413h2.484c.137.278.274.552.413.826h1.242v.418h.828v.413h1.24v.413h2.07v.413h.828v.413c2.481.413,4.967.831,7.449,1.244v.413h1.244v.414c.827.278,1.655.552,2.484.826l.413-.413v.413c.735.319.341.552.827,0h.416v-.413c-1.076-.988-.274-1.105-.828-2.484h-.414v-.826h-.413v-1.244h-.416c-.137-.548-.276-1.1-.413-1.653-.276-.139-.552-.278-.828-.413v-.831h-.414c-.592-.727-.945-.993-1.241-2.066Z"/>
              <path class="cls-7" d="m251.791,40.985h-.826c-.261,1.141-.972,1.985-1.244,2.897v2.071h.413v2.483c.395,1.298.955,3.09,1.244,4.55h.827v-1.24c.74-.468,1.241-1.302,1.657-2.071.413.139.826.279,1.24.414.139-.274.278-.553.416-.827,1.93-.139,3.864-.279,5.795-.413v-.414h2.482v-.417h.828v-.413c.965-.135,1.931-.274,2.897-.414.276-.413.552-.826.826-1.239.959-.603,1.325.13,1.658,0v-.418h.826v-.413c1.381-.413,2.763-.827,4.141-1.24v-.827c-1.019-.597-1.154-1.302-2.483-1.657-.607-.602-4.168-1.397-5.794-.826v.413h-.828v.413h-3.312v.413c-1.518-.139-3.036-.273-4.554-.413v-.413h-.827v-.413h-.826v-.418h-.828c-.138-.273-.276-.548-.416-.826-1.085-.454-2.147.278-2.897.413-.138.413-.274.831-.414,1.244Z"/>
              <path class="cls-15" d="m274.969,51.745h.827c.139-1.518.279-3.036.416-4.554h-.416c-.615.616-2.052.903-2.897,1.244.653,1.195,1.689,1.891,2.07,3.31Z"/>
              <path class="cls-7" d="m317.186,52.571v-.826h-1.24v-.827c-.692-.139-1.381-.278-2.071-.417v-.413h-2.484v-.414h-5.38c-.49-.134-2.627-.903-3.725-.413-.137.273-.276.552-.416.827-.686.138-1.378.278-2.068.413v.417h-.828v.413h-1.655v.414h-.828v.413h-1.24v.413c-.797.167-1.589-.813-2.897-.413v.413c-.692.139-1.381.279-2.07.414v.417h.413c1.262,1.091,2.78-.247,4.554,0v.413h.414v-.413h2.897v-.417h2.07v-.414h5.794v.414c3.588-.135,7.177-.274,10.761-.414Z"/>
              <path class="cls-7" d="m305.183,62.919v.831c-1.102.413-2.208.826-3.312,1.24v.413h.416c2.032,1.945,6.73-.077,9.932.826v.418c1.931.134,3.864.273,5.796.413v.413h.828v.414c1.24.413,2.484.826,3.723,1.244v-.418c-.966-1.1-1.931-2.205-2.897-3.31h-.826v-.413c-.611-.485-.734-.584-1.657-.827v-.831h-.827v-.826h-.828v-.827c-1.154-.251-1.978-.952-2.897-1.244-1.655.139-3.312.279-4.967.413-.536.988-1.237,1.757-2.484,2.071Z"/>
              <path class="cls-7" d="m261.726,71.614c.689.134,1.378.274,2.068.413v.413h4.138v.413h2.484v.414h3.312v.413c.965.139,1.931.278,2.897.417v.414c1.381-.139,2.76-.279,4.139-.414v.414h1.244v.413h1.24v.413c1.378-.139,2.759-.273,4.141-.413,1.432-2.299,6.337-3.404,7.035-5.793h.413v-.418h-.413v-1.653c-.276-.139-.552-.279-.828-.413-.137-.418-.273-.831-.413-1.244h-.414c-.139-.413-.278-.827-.413-1.24-1.118-.314-1.269-.679-2.07-1.244v-.413h-2.071c-.139-.274-.276-.552-.413-.827h-1.241v-.413c-1.741-.575-3.283.507-4.139.826h-1.657c-.138.274-.274.552-.414.827-1.654.139-3.31.279-4.967.413,0,0,.045-.445-.827-.413v.413h-.416v-.413c-2.207-.139-4.414-.274-6.622-.413v.413c-1.962.499-3.135,2.605-4.139,4.141-.276.139-.552.274-.828.413-.273,1.379-.552,2.758-.826,4.142Z"/>
              <path class="cls-7" d="m227.787,67.472c-.198,1.586-2.883,5.057-2.071,5.794v.413h1.24v-.413h1.244v-.414c.561-.48.633-.754.826-1.657,1.128-.296,1.263-.683,2.071-1.24v-.413h4.139v-.413h1.241v-.418h2.071v-.413h1.239v-.413h.831v-.414h1.653v-.413h2.071v-.413c3.076-.894,6.379.772,9.105.826.573-1.082.734-.701.828-2.483h-.413v-.414c-3.056,1.15-10.191.395-12.831-.413h-2.07v-.413h-.827v-.418h-5.382c-.64,1.02-.472.256-1.242.831-.137.273-.273.552-.413.827-.827.691-1.657,1.378-2.484,2.07v.413h-.826Z"/>
              <path class="cls-9" d="m280.763,78.647c.139.691.276,1.378.413,2.07l-.413.413.413.414h-.413v5.38c.276.139.552.278.828.417v1.24h.416c.134.552.273,1.105.413,1.657.413.135.827.274,1.24.413v-4.966c.622-.737.08-3.925,0-5.793h-.413v.413c-.703-.081-.634-.741-.827-.827h-.828v-.83h-.828Z"/>
              <path class="cls-7" d="m290.697,87.341c4.138.274,8.277.552,12.418.827v.413h1.24v.413c.552.139,1.105.279,1.657.413v.418h1.242v.413h.828v.413h1.653v.414h.831v.413h1.653c2.192.881,3.997,2.286,7.037,2.484-.243-2.439-1.738-2.636-2.07-4.967h-.827v-.826c-1.276-.786-1.244-2.03-2.897-2.484v-.827h-.828v-.83c-.552-.135-1.103-.274-1.655-.414-.139-.274-.276-.552-.413-.826-.692-.139-1.381-.279-2.071-.414v-.413h-5.793v.413h-.416c-.225-.198.119-.66-.416-.413-.137.274-.274.548-.413.827h-1.24v.413h-2.071v.413h-.828v.414c-2.481.417-4.967.83-7.449,1.243.266,1.132.539.943.827,2.071Z"/>
              <path class="cls-7" d="m247.65,87.341c-.274,1.792-.55,3.584-.826,5.38h.413v.827h.413c.279,1.378.552,2.757.831,4.141h.413v.826h.414v1.24c.516,1.158,1.01,1.033,1.241,2.901h.828c.137.414.274.827.413,1.24.276.139.552.274.827.414v.83c.416.274.828.548,1.244.827v.413h1.655c.471-.471.002-.166.828-.413v-.827h1.24c.709-1.217,1.199-1.186,1.243-3.314h.827v-.827c.827-.278,1.657-.552,2.484-.826.516-1.68.211-.504,1.241-1.244.138-.274.276-.552.414-.827h.828c.139-.279.274-.552.413-.831h.828c.276-.413.55-.826.828-1.24.827-.139,1.653-.273,2.484-.413.137-.278.274-.552.413-.826h.827v-.418h.413v.418h.416v-.418c.416.139.828.279,1.242.418v-.418c.903-.768.866-1.985.826-3.723-1.24-1.105-2.484-2.209-3.723-3.31-1.794.135-3.587.274-5.38.413v.414h-.828v.413h-1.654v.413h-2.071v-.413c-.66-.135-.777.404-.827.413-.278-.134-.552-.273-.83-.413v.413c-2.066-.413-4.136-.826-6.207-1.24v-.413h-.826v-.417h-.831v-.414c-1.421-.408-1.24.638-1.653.831h-.831Z"/>
              <path class="cls-7" d="m232.337,89.825c-.595,2.205-1.879,1.747-3.312,2.897-.273.552-.552,1.1-.826,1.653h6.206c1.267-1.167,2.789-.202,4.554-.826v-.414h.826v-.413c1.244-.139,2.484-.279,3.728-.413v-2.484c-1.212-.283-1.356-.462-1.657-1.657-1.033-.086-1.177-.373-1.655-.414l-.415.414v-.414h-1.653v-.413h-.416v.413h-1.241v.414h-.827c-1.077.548-1.856,1.338-3.312,1.657Z"/>
              <path class="cls-9" d="m280.763,93.548c-.122,5.124-1.132,12.723,2.484,14.901v.413h.413v-2.071c.898-1.181.454-7.94.416-11.174-1.152-.467-2.116-.727-2.484-2.07h-.828Z"/>
              <path class="cls-9" d="m280.763,111.346c-.138,1.105-.274,2.205-.414,3.31.276.139.552.279.827.414v.83h.416c.33.956-.164,2.026-.416,2.484h-.413v2.066c.691.553,1.378,1.106,2.07,1.658v.826h.414c.57.616.211.544,1.241.831v-.413h-.413v-5.385h-.416v-.414h.416c.292-1.625-.177-4.266-.828-4.966v-.414h-1.655c-.034-.018-.454-.633-.828-.826Z"/>
              <path class="cls-9" d="m282.833,136.594v.827h.827v.827c.692.413,1.381.83,2.07,1.244v-9.108h-.413c.139-.274.273-.552.413-.827h-.413c-1.109-1.23-2.362-.862-2.897-2.897-1.174-.292-1.195-.737-2.071-1.244v.831c.737.84.108,2.344.414,3.723h.413c.132.836-.413.827-.413.827-.409,1.85.188,4.087.413,5.385h.416v.413h1.241Z"/>
              <path class="cls-9" d="m283.66,148.182c1.136.269.943.544,2.07.827v-4.963h-1.241c-.137-.552-.276-1.105-.413-1.657-1.013-.238-.914-.436-1.655-.827v.827h-.413c-.507.875.144,3.292.413,3.722.413.279.827.552,1.24.831v1.24Z"/>
              <path class="cls-15" d="m281.592,151.078c-.276,1.657-.552,3.315-.828,4.967h.413v1.657h.416v.827h.416c.134.691.273,1.378.413,2.07h.413c.319.423.507.409.827.827.833-.238.359.049.828-.414,1.503-1.271.303-5.222,1.241-7.037h-.413c-.53-.669-1.503-1.406-2.484-1.653-.301-1.145-.116-.926-1.241-1.244Z"/>
            </g>
            <g>
              <path class="cls-3" d="m272.43,184.305v-.828c-2.052-.195-2.08-1.192-3.728-1.655-.137-.413-.274-.828-.413-1.241h-.413v-.827c-.276-.139-.553-.276-.827-.413-.416-1.244-.828-2.484-1.244-3.728v-6.619h-.413c-.193-.908.413-1.238.413-1.244v-4.967h.416v-1.655h.413c.276-2.207.552-4.414.828-6.622h.414c.718-1.99.911-3.975,1.657-5.793.701-.296,1.331-1.106,2.481-.829v.416c.416.137.828.274,1.241.414v-.414c.414-.139.829-.278,1.242-.416.676.349,2.847.757,4.138.416v-.416c.988-.249,1.083.416,1.658.416v-.416h2.484v-.415c2.757.139,5.517.278,8.277.415v.416c.826-.139,1.654-.278,2.484-.416v.416c.689-.139,1.378-.278,2.07-.416v-.415h2.484c1.805,1.975,2.551.163,2.484,4.554h.413v2.897h.413v1.657h.414v1.24h.413v1.658h.416v2.897h.413v2.897h.416v2.07h.413v4.967h.414v.413h-.414c-.139.966-.276,1.931-.413,2.897h-.416v.828h-.413v1.655h-.416v.828h-.413v.828c-.414.274-.827.553-1.24.827.137.828.273,1.657.413,2.484h-.413v.828h-.416c-.137.276-.276.551-.416.828h-.826c-.277.413-.553.827-.827,1.24h-2.484c-1.253-1.113-5.425-.827-7.864-.827h-5.382s-.34.607-1.242.414c0,0-.108-.357-.826-.414h-5.796v-.413c-.689-.139-1.379-.278-2.068-.416Z"/>
              <path class="cls-6" d="m271.186,176.857c.153,1.599.64,1.713.828,3.31.936.252,1.02.352,1.655.826v.416h.828v.413h5.382v.416c.514.081.692-.651,1.653-.416v.416h4.967s.148-.5,1.244-.416v.416h.414v-.416h3.722v-.413c.828.137,1.658.276,2.484.413v-.413c.611-.319.696-.298,1.657-.416.258-.918.341-1.037.827-1.653h.416c1.102-2.07,2.207-4.141,3.312-6.211.462-1.473-.546-5.271-.831-6.207-.137-1.795-.274-3.588-.413-5.38h-.413v-2.484h-.414v-1.244h-.413v-1.653c-.416-1.381-.828-2.762-1.244-4.141-1.068-.065-1.429-.058-2.068-.413v-.414h-7.036c-4.338-1.217-10.154.005-14.901,0-.462.876-1.307,1.914-1.657,2.897v2.07h-.413c-.138,1.653-.274,3.31-.414,4.965-.276.137-.552.276-.826.416.137.273.273.552.413.827h-.413v.828h-.416c-.11.574.364-.169.416.413.071.856-.416.828-.416.828-.195.862.416,1.242.416,1.242.13.622-.416.828-.416.828.137.274.276.55.416.826h-.416v.414h.416v6.209c-.126.573-.539-.157-.416.415h.416v.827h.413v1.241h.413c.472.472,0,.164.827.416Z"/>
            </g>
          </g>
        </g>
        <g class="cls-20">
          <rect class="cls-14" width="374" height="280"/>
        </g>
      </g>
      <g class="cls-19">
        <path class="cls-8" d="m279-36s-10.037,10-19.037,46c-9,36,1.904,79.92-6.096,88.92-8,9-22.963,11-22.963,11,0,0,26-1.534,29,22.466,3,24,31.059,58.004,77.096,45.614,61.597-16.578,52.438-173.177,38-197-20-33-71-54-96-17Z"/>
        <g class="cls-18">
          <image width="370" height="320" transform="translate(76.418 13.22) scale(.764)" xlink:href="../Links/47.png"/>
        </g>
        <g>
          <path class="cls-2" d="m326.347,44.28c.066.133.1.275.1.425,0,.25-.092.487-.274.712-.184.225-.442.337-.775.337-.217,0-.421-.058-.612-.175-.192-.116-.338-.283-.438-.5-.284-.6-.597-1.158-.938-1.675-.342-.517-.663-.967-.963-1.35-.066-.1-.134-.091-.2.025-.416,1.15-.949,2.15-1.6,3s-1.292,1.567-1.925,2.15c-.167.167-.375.25-.625.25-.367,0-.65-.15-.851-.45-.133-.217-.199-.434-.199-.65,0-.383.141-.7.425-.95.933-.867,1.691-1.858,2.274-2.975.584-1.116.95-2.316,1.101-3.6.033-.1-.009-.15-.125-.15h-2.601c-.283,0-.529-.104-.737-.312-.208-.208-.312-.462-.312-.763,0-.283.104-.533.312-.75.208-.216.454-.325.737-.325h2.676c.1,0,.149-.05.149-.15v-4.35c0-.1-.05-.15-.149-.15h-.9c-.1,0-.158.042-.175.125-.15.383-.317.758-.5,1.125-.184.367-.384.717-.601,1.05-.217.317-.5.475-.85.475-.267,0-.492-.083-.675-.25-.267-.2-.4-.492-.4-.875,0-.25.066-.475.2-.675.816-1.283,1.358-3.008,1.625-5.175.033-.267.15-.487.35-.663.2-.175.426-.262.676-.262.366,0,.666.133.899.4s.333.575.3.925c-.033.234-.07.479-.112.738s-.096.512-.162.762c-.034.117.008.175.125.175h4.075c.283,0,.528.104.737.312.208.208.312.454.312.737,0,.3-.104.554-.312.763-.209.208-.454.312-.737.312h-1.476c-.1,0-.149.05-.149.15v4.35c0,.1.05.15.149.15h2.675c.283,0,.533.104.75.312s.325.462.325.762c0,.284-.104.534-.312.75-.208.217-.462.325-.763.325h-2.725c-.117,0-.175.05-.175.15l-.025.3c0,.083.009.133.025.15.517.55,1.087,1.262,1.712,2.137s1.18,1.821,1.663,2.838Zm8.399,1.9c-.033.05-.037.092-.012.125.024.034.062.05.112.05h2.649c.283,0,.533.104.75.312.217.208.325.455.325.738,0,.3-.108.55-.325.75-.217.2-.467.3-.75.3h-10.85c-.283,0-.529-.1-.737-.3-.209-.2-.312-.45-.312-.75,0-.283.104-.529.312-.738.208-.208.454-.312.737-.312h3.175c.116,0,.125-.05.025-.15-.167-.133-.275-.316-.325-.55-.35-1.383-.925-2.7-1.725-3.95-.101-.183-.15-.358-.15-.525,0-.433.191-.725.575-.875.149-.05.308-.075.475-.075.533,0,.917.225,1.15.675.316.6.625,1.267.925,2s.55,1.475.75,2.225c.017.05.025.125.025.225,0,.384-.143.675-.426.875-.116.083-.1.125.051.125h.649c.066,0,.125-.025.175-.075.634-.717,1.176-1.554,1.625-2.513.45-.958.801-1.896,1.051-2.812.083-.233.221-.421.412-.562s.404-.212.638-.212c.3,0,.554.108.763.325.208.217.312.467.312.75,0,.117-.009.209-.025.275-.184.733-.454,1.508-.812,2.325-.358.817-.763,1.592-1.213,2.325Zm2.7-16.375h-10.75c-.283,0-.529-.104-.737-.312-.209-.208-.312-.454-.312-.738,0-.3.104-.55.312-.75.208-.2.454-.3.737-.3h10.75c.283,0,.529.1.737.3.209.2.312.45.312.75,0,.267-.104.509-.312.725-.208.217-.454.325-.737.325Zm-8.675,2.125h6.625c.434,0,.816.159,1.15.475.333.316.5.708.5,1.175v4.75c0,.45-.163.837-.488,1.163-.324.325-.712.487-1.162.487h-6.625c-.45,0-.838-.158-1.162-.475-.325-.316-.488-.708-.488-1.175v-4.75c0-.45.158-.837.476-1.163.316-.325.708-.487,1.175-.487Zm.5,5.8c0,.1.05.15.15.15h5.324c.101,0,.15-.05.15-.15v-3.55c0-.1-.05-.15-.15-.15h-5.324c-.101,0-.15.05-.15.15v3.55Z"/>
          <path class="cls-2" d="m324.197,70.905c-.7,0-1.388-.233-2.062-.7-.675-.466-1.283-1.116-1.825-1.95-.541-.833-.975-1.8-1.3-2.9s-.487-2.275-.487-3.525c0-.85.088-1.725.263-2.625s.454-1.808.837-2.725c.184-.433.517-.65,1-.65.167,0,.316.034.45.1.217.1.379.242.487.425.108.184.163.375.163.575,0,.15-.025.292-.075.425-.367.817-.629,1.613-.787,2.388-.159.775-.238,1.529-.238,2.262,0,.967.113,1.859.338,2.675.225.817.521,1.525.888,2.125.366.6.758,1.067,1.175,1.4.416.333.809.5,1.175.5.3,0,.566-.125.8-.375s.408-.633.525-1.15c.066-.3.213-.542.438-.725.225-.183.479-.275.763-.275.3,0,.55.108.75.325.2.217.3.459.3.725,0,.1-.009.175-.025.225-.517,2.3-1.699,3.45-3.55,3.45Zm11.875-4.7c-.366,0-.662-.133-.888-.4-.225-.267-.337-.591-.337-.975,0-1.233-.321-2.275-.963-3.125s-1.546-1.433-2.712-1.75c-.301-.083-.538-.263-.713-.538s-.229-.554-.162-.837c.083-.283.232-.517.449-.7.217-.183.459-.275.726-.275.05,0,.142.017.274.05.983.267,1.908.754,2.775,1.462.866.708,1.554,1.579,2.062,2.612.508,1.034.713,2.184.612,3.45-.017.284-.134.525-.35.725-.217.2-.476.3-.775.3Z"/>
          <path class="cls-2" d="m328.897,80.23c0,.1.05.15.15.15h8.1c.3,0,.559.109.775.325.216.217.324.475.324.775,0,.317-.108.58-.324.788-.217.208-.476.312-.775.312h-9.575c-.1,0-.149.05-.149.15-.051.583-.109,1.146-.176,1.688-.066.542-.158,1.08-.274,1.613,0,.117.05.175.149.175h7.051c.466,0,.854.163,1.162.487.309.325.454.721.438,1.188-.033.767-.079,1.655-.138,2.663-.059,1.009-.129,1.93-.212,2.763-.117,1.117-.351,2.083-.7,2.9-.351.817-.896,1.446-1.638,1.888-.742.441-1.763.663-3.062.663-.167,0-.346-.004-.537-.013-.192-.009-.388-.021-.588-.038-.283-.034-.517-.159-.7-.375-.184-.217-.274-.458-.274-.725,0-.367.137-.654.412-.862.275-.208.57-.296.888-.263.383.05.725.075,1.024.075.816,0,1.426-.154,1.825-.462.4-.308.675-.733.825-1.275s.25-1.171.3-1.888c.066-.683.125-1.413.175-2.188.051-.775.092-1.504.125-2.188,0-.1-.05-.15-.149-.15h-6.825c-.066,0-.125.042-.175.125-.717,2.317-1.742,4.3-3.075,5.95-1.334,1.65-2.967,2.934-4.9,3.85-.066.017-.133.038-.199.062-.067.025-.134.038-.2.038-.267,0-.505-.1-.713-.3-.208-.2-.312-.45-.312-.75,0-.533.25-.941.75-1.225,4.417-2.216,6.917-6.691,7.5-13.425.033-.1-.009-.15-.125-.15h-6.675c-.316,0-.584-.108-.8-.325-.217-.216-.325-.475-.325-.775s.112-.558.338-.775c.225-.216.487-.325.787-.325h8.1c.101,0,.15-.05.15-.15v-2.25c0-.316.112-.579.338-.788.225-.208.487-.312.787-.312.316,0,.583.109.8.325.217.217.325.475.325.775v2.25Z"/>
          <path class="cls-2" d="m325.397,107.18v.05c0,.134.075.2.225.2.184-.033.363-.05.538-.05h.513c.85,0,1.541.117,2.074.35.533.234.941.534,1.226.9.283.367.479.758.587,1.175.108.417.163.817.163,1.2v.325c0,.1-.009.192-.025.275-.066.867-.167,1.742-.3,2.625-.134.884-.279,1.688-.438,2.413s-.296,1.296-.412,1.712c-.684,2.334-1.926,3.5-3.726,3.5-.866,0-1.884-.291-3.05-.875-.384-.216-.575-.533-.575-.95,0-.333.112-.604.338-.812.225-.208.471-.312.737-.312.2,0,.383.05.55.15.4.217.759.384,1.075.5.316.117.608.175.875.175.533,0,.963-.266,1.287-.8.325-.533.604-1.408.838-2.625.233-1.216.458-2.85.675-4.9.017-.066.025-.138.025-.212v-.213c0-.25-.05-.496-.15-.737-.1-.241-.292-.441-.575-.6-.283-.158-.717-.237-1.3-.237-.399,0-.899.05-1.5.15-.134.017-.217.092-.25.225-.384,1.5-.833,2.996-1.35,4.487-.517,1.492-1.097,2.917-1.737,4.275-.643,1.359-1.33,2.596-2.062,3.713-.217.316-.509.475-.875.475-.2,0-.409-.066-.625-.2-.284-.234-.426-.533-.426-.9,0-.233.059-.434.176-.6,1.033-1.583,1.938-3.292,2.712-5.125.775-1.833,1.421-3.691,1.938-5.575,0-.016.004-.033.013-.05.008-.017.013-.033.013-.05,0-.116-.075-.158-.226-.125-.283.017-.574.038-.875.062-.3.025-.608.038-.925.038-.184,0-.375-.004-.575-.012-.199-.008-.416-.021-.649-.038-.267-.017-.492-.129-.675-.337-.184-.208-.275-.454-.275-.738,0-.316.121-.575.362-.775s.521-.292.838-.275c.45.05.858.075,1.225.075s.721-.021,1.062-.062c.342-.041.713-.096,1.112-.162.117-.017.184-.083.2-.2.15-.733.279-1.454.388-2.163.108-.708.195-1.404.263-2.087.033-.283.158-.517.375-.7.216-.183.458-.275.725-.275.3,0,.554.117.763.35.208.233.296.509.263.825-.067.566-.146,1.146-.237,1.737-.092.592-.205,1.196-.338,1.812Zm13,9.375c.05.117.075.242.075.375,0,.233-.079.462-.237.688-.159.225-.371.388-.638.487-.067.017-.125.029-.175.038-.051.009-.109.013-.176.013-.25,0-.475-.079-.675-.238-.2-.158-.342-.362-.425-.612-.3-1.1-.696-2.158-1.188-3.175-.492-1.017-1.033-1.963-1.625-2.838s-1.188-1.629-1.787-2.262c-.2-.233-.301-.5-.301-.8,0-.333.125-.608.375-.825.25-.2.533-.3.851-.3.366,0,.675.142.925.425.45.534.921,1.171,1.412,1.913.492.742.967,1.529,1.426,2.362.458.833.879,1.659,1.262,2.475.384.817.684,1.575.9,2.275Z"/>
          <path class="cls-2" d="m326.122,147.837c-.3-.017-.546-.134-.737-.35-.191-.217-.287-.466-.287-.75,0-.333.12-.604.362-.812.241-.208.521-.296.838-.263.5.05.966.075,1.399.075,1.4,0,2.55-.188,3.45-.562s1.566-.858,2-1.45c.434-.591.65-1.212.65-1.862,0-.333-.051-.658-.15-.975-.217-.733-.629-1.292-1.237-1.675s-1.321-.575-2.138-.575c-1.066,0-2.225.337-3.475,1.013-1.25.675-2.393,1.712-3.426,3.112-.3.434-.708.65-1.225.65-.417,0-.759-.141-1.025-.425-.267-.283-.399-.608-.399-.975.017-1.1.104-2.229.263-3.388.158-1.158.375-2.275.649-3.35.275-1.075.596-2.021.963-2.838.083-.2.216-.354.399-.462.184-.108.375-.163.575-.163.333,0,.601.113.8.338.2.225.301.479.301.762,0,.167-.034.317-.101.45-.217.534-.438,1.171-.662,1.913-.226.742-.425,1.504-.601,2.287-.175.784-.304,1.509-.387,2.175v.05c0,.067.028.113.087.138s.121.004.188-.062c1.134-1.1,2.325-1.904,3.575-2.413,1.25-.508,2.441-.763,3.575-.763,1.366,0,2.554.338,3.562,1.013,1.008.675,1.638,1.621,1.888,2.837.033.2.062.4.087.6.025.2.038.409.038.625,0,.767-.163,1.513-.488,2.237-.324.725-.837,1.379-1.537,1.963s-1.604,1.046-2.713,1.387-2.454.513-4.037.513h-.5c-.167,0-.342-.009-.525-.025Zm3.5-16.35c-1.3-.75-2.858-1.2-4.675-1.35-.283-.033-.521-.154-.712-.362-.192-.208-.288-.446-.288-.713,0-.333.125-.616.375-.85s.55-.333.9-.3c2,.2,3.767.717,5.3,1.55.416.233.625.592.625,1.075,0,.15-.042.325-.125.525-.066.167-.184.305-.35.413-.167.109-.342.163-.525.163-.167,0-.342-.05-.525-.15Z"/>
          <path class="cls-2" d="m290.472,40.23c-.5.234-1.059.475-1.675.725-.084.017-.125.075-.125.175v6.525c0,.3-.109.558-.325.775-.217.216-.476.325-.775.325s-.559-.108-.774-.325c-.217-.217-.325-.475-.325-.775v-5.65c0-.116-.059-.158-.175-.125-.734.25-1.45.467-2.15.65-.033.017-.075.025-.125.025h-.125c-.267,0-.509-.1-.725-.3-.217-.2-.325-.45-.325-.75,0-.25.079-.479.237-.688.158-.208.362-.346.612-.412.417-.117.851-.246,1.3-.388.45-.142.9-.296,1.351-.462.083-.033.125-.091.125-.175v-5.55c0-.1-.05-.15-.15-.15h-2.175c-.283,0-.533-.108-.75-.325-.217-.216-.325-.475-.325-.775s.104-.558.312-.775c.208-.216.463-.325.763-.325h2.175c.101,0,.15-.05.15-.15v-3.25c0-.316.108-.579.325-.788.216-.208.475-.312.774-.312.316,0,.579.109.788.325.208.217.312.475.312.775v3.25c0,.1.05.15.149.15h1.601c.3,0,.558.109.774.325.217.217.325.475.325.775s-.108.559-.325.775c-.217.217-.475.325-.774.325h-1.601c-.1,0-.149.05-.149.15v4.575c0,.133.058.175.175.125.166-.083.329-.163.487-.238.158-.075.312-.146.463-.212.133-.066.291-.1.475-.1.267,0,.491.096.675.288.184.192.275.454.275.788,0,.25-.067.483-.2.7-.134.217-.316.375-.55.475Zm3.675-5.7c0,.1.05.15.15.15h9.125c.283,0,.528.104.737.312.208.208.312.462.312.762,0,.284-.104.534-.312.75-.209.217-.454.325-.737.325h-2.5c-.101,0-.15.05-.15.15v10.675c0,.3-.104.562-.312.787-.209.225-.471.338-.787.338s-.58-.113-.788-.338c-.208-.225-.312-.487-.312-.787v-10.675c0-.1-.05-.15-.149-.15h-4.125c-.101,0-.15.05-.15.15-.017,1.634-.129,3.371-.338,5.212-.208,1.842-.621,3.705-1.237,5.588-.083.266-.241.479-.475.637-.233.158-.492.238-.775.238-.316,0-.571-.104-.763-.312-.191-.209-.287-.446-.287-.713,0-.133.025-.258.075-.375.466-1.25.812-2.537,1.037-3.862.226-1.325.375-2.642.45-3.95.075-1.308.112-2.537.112-3.688v-4.4c0-.466.154-.871.463-1.212.308-.341.695-.538,1.162-.587,1.684-.183,3.333-.45,4.95-.8,1.616-.35,3.083-.758,4.4-1.225.066-.033.125-.05.175-.05h.175c.267,0,.496.092.688.275.191.184.287.434.287.75,0,.267-.074.513-.225.738s-.35.379-.6.462c-1.367.467-2.859.871-4.476,1.212-1.616.342-3.167.604-4.649.788-.101.017-.15.075-.15.175v2.65Z"/>
          <path class="cls-2" d="m293.422,72.83c-1.101,0-1.976-.159-2.625-.475-.65-.316-1.113-.721-1.388-1.212-.275-.491-.413-.987-.413-1.487,0-.283.033-.546.101-.788.066-.242.158-.462.274-.663.517-.917,1.167-1.375,1.95-1.375,1.233,0,2.8,1.125,4.7,3.375.083.1.184.125.3.075.634-.233,1.196-.529,1.688-.888s.896-.763,1.213-1.212c.399-.583.6-1.216.6-1.9,0-.75-.271-1.446-.812-2.088-.542-.641-1.362-1.021-2.462-1.137-.167-.017-.325-.029-.476-.038-.149-.008-.309-.013-.475-.013-1.267,0-2.529.3-3.788.9-1.258.6-2.587,1.525-3.987,2.775-.233.184-.491.275-.774.275-.25,0-.459-.058-.625-.175-.284-.184-.426-.441-.426-.775,0-.183.051-.35.15-.5,1.05-1.583,2.146-3.125,3.287-4.625s2.296-2.866,3.463-4.1c.05-.083.075-.133.075-.15,0-.1-.067-.133-.2-.1-.417.066-.888.112-1.412.137-.525.025-1.055.038-1.588.038h-.675c-.233,0-.459-.008-.675-.025-.284-.017-.525-.133-.726-.35-.2-.216-.3-.475-.3-.775,0-.316.116-.579.35-.788.233-.208.509-.304.825-.288.684.05,1.342.075,1.976.075.833,0,1.637-.05,2.412-.15.775-.1,1.529-.275,2.263-.525.133-.05.258-.075.375-.075.517,0,.883.233,1.1.7.083.2.125.392.125.575,0,.434-.167.8-.5,1.1-1.066.934-2.021,1.875-2.862,2.825-.842.95-1.654,1.975-2.438,3.075-.033.067-.05.108-.05.125,0,.134.083.159.25.075.916-.434,1.8-.75,2.649-.95.851-.2,1.642-.3,2.375-.3,1.417,0,2.608.316,3.575.95.967.634,1.608,1.484,1.925,2.55.184.633.275,1.217.275,1.75,0,1.2-.371,2.296-1.112,3.287-.742.992-1.759,1.784-3.05,2.375-1.292.592-2.771.888-4.438.888Zm.274-2.05c.101,0,.163-.033.188-.1.025-.066-.004-.133-.087-.2-.534-.616-.988-1.042-1.363-1.275s-.679-.35-.912-.35c-.184,0-.321.059-.412.175-.092.117-.138.25-.138.4,0,.05.004.1.013.15.008.05.021.1.037.15.133.333.441.592.925.775.483.184,1.066.275,1.75.275Z"/>
          <path class="cls-2" d="m301.047,94.23c.416.234.625.6.625,1.1,0,.184-.034.35-.101.5-.066.184-.188.33-.362.438-.175.109-.354.163-.537.163-.184,0-.351-.05-.5-.15-.551-.316-1.25-.688-2.101-1.113s-1.75-.795-2.7-1.112c-.017,0-.029-.004-.037-.013-.009-.008-.021-.012-.037-.012-.117,0-.176.075-.176.225-.05.767-.283,1.429-.699,1.987-.417.559-.946.983-1.588,1.275s-1.329.438-2.062.438c-.75,0-1.504-.167-2.263-.5-.759-.333-1.429-.85-2.013-1.55-.399-.483-.6-1.042-.6-1.675,0-.533.162-1.05.487-1.55s.842-.917,1.55-1.25c.709-.333,1.629-.5,2.763-.5.583,0,1.208.05,1.875.15h.075c.133,0,.2-.066.2-.2-.017-.4-.046-.95-.088-1.65-.042-.7-.092-1.487-.149-2.362-.059-.875-.125-1.779-.2-2.712s-.154-1.842-.237-2.725c-.084-.883-.167-1.667-.25-2.35-.034-.333.054-.625.262-.875.209-.25.488-.375.838-.375.267,0,.504.087.713.263.208.175.328.404.362.688.083.55.162,1.217.237,2s.146,1.617.213,2.5c.033.15.116.217.25.2.883-.116,1.758-.262,2.625-.438.866-.175,1.591-.346,2.175-.512.05-.017.1-.025.149-.025h.125c.283,0,.533.1.75.3.217.2.325.45.325.75,0,.267-.079.508-.237.725s-.371.367-.638.45c-.649.167-1.434.342-2.35.525-.917.184-1.834.325-2.75.425-.15.034-.217.117-.2.25.066,1.017.129,2.008.188,2.975s.096,1.817.112,2.55c0,.117.059.2.175.25.566.134,1.204.342,1.913.625.708.284,1.403.596,2.087.938.684.342,1.283.663,1.801.962Zm-12.375.625c.333.267.708.479,1.125.638.416.159.816.237,1.199.237.517,0,.967-.158,1.351-.475.383-.316.575-.85.575-1.6,0-.167-.101-.275-.301-.325-.699-.15-1.35-.225-1.949-.225-.717,0-1.312.092-1.788.275-.475.184-.712.425-.712.725,0,.234.166.484.5.75Z"/>
          <path class="cls-2" d="m294.897,121.405c-.25.267-.525.4-.825.4s-.566-.104-.8-.312c-.233-.208-.35-.446-.35-.712,0-.216.1-.433.3-.65.35-.35.612-.667.787-.95.175-.283.296-.587.362-.913.066-.325.101-.721.101-1.188,0-.383-.112-.792-.338-1.225-.225-.433-.509-.9-.85-1.4-.342-.5-.684-1.038-1.025-1.612-.342-.575-.625-1.183-.85-1.825-.226-.641-.338-1.321-.338-2.038,0-.65.129-1.337.388-2.062.258-.725.695-1.487,1.312-2.287.217-.267.467-.4.75-.4s.533.109.75.325c.217.217.325.475.325.775,0,.267-.092.5-.275.7-.483.617-.825,1.188-1.024,1.712-.2.525-.301,1.013-.301,1.462,0,.567.117,1.104.351,1.613s.524,1.004.875,1.487c.35.483.695.975,1.037,1.475s.629,1.038.862,1.612c.233.575.351,1.205.351,1.888,0,.8-.125,1.517-.375,2.15-.25.634-.65,1.292-1.2,1.975Z"/>
        </g>
      </g>
      <g>
        <g>
          <path class="cls-2" d="m123.215,250.38c-.399,0-.737-.129-1.012-.388-.275-.259-.413-.604-.413-1.038v-2.675c-.116.017-.229.034-.337.05-.109.017-.205.034-.288.05-.467.066-.846-.021-1.138-.263-.291-.241-.462-.554-.512-.938-.034-.383.058-.725.274-1.025.217-.3.559-.475,1.025-.525.149-.033.308-.059.475-.075s.333-.033.5-.05v-11.25c0-1.184.233-2.046.7-2.588.467-.541,1.283-.945,2.45-1.212.666-.15,1.388-.325,2.162-.525.775-.2,1.446-.375,2.013-.525.45-.117.829-.096,1.138.062.308.159.521.404.638.737.116.35.1.696-.051,1.038-.149.342-.434.562-.85.663-.634.167-1.292.325-1.975.475-.684.15-1.325.283-1.926.4-.566.117-.954.279-1.162.487-.209.208-.312.638-.312,1.288v.325h3.9c.399,0,.716.129.949.387.233.259.351.571.351.938s-.117.675-.351.925-.55.375-.949.375h-3.9v2.275h3.9c.399,0,.716.125.949.375s.351.559.351.925-.117.679-.351.938c-.233.259-.55.388-.949.388h-3.9v2.7c.767-.116,1.517-.237,2.25-.362s1.375-.229,1.925-.312c.434-.083.783-.042,1.05.125.267.167.434.442.5.825.084.383.046.717-.112,1s-.446.467-.862.55c-.55.117-1.259.254-2.125.413-.867.159-1.742.312-2.625.462v3.15c0,.433-.134.779-.4,1.038-.267.258-.6.388-1,.388Zm6.976-.275c-.45.117-.847.088-1.188-.087-.342-.175-.571-.446-.688-.812-.117-.367-.097-.708.062-1.025.158-.316.445-.533.862-.65.934-.283,1.842-.633,2.725-1.05.884-.416,1.7-.9,2.45-1.45-1.05-1.35-1.858-2.941-2.425-4.775h-.65c-.366,0-.662-.121-.887-.363-.226-.241-.338-.529-.338-.862s.112-.621.338-.863c.225-.241.521-.362.887-.362h7.051c.866,0,1.537.179,2.012.538.476.358.754.825.838,1.4.083.575-.05,1.196-.4,1.862-.333.65-.712,1.275-1.137,1.875-.426.6-.88,1.167-1.363,1.7.584.45,1.221.85,1.913,1.2.691.35,1.445.633,2.263.85.449.117.778.334.987.65.208.316.237.691.087,1.125-.133.416-.396.7-.787.85-.392.15-.805.158-1.237.025-2.05-.684-3.8-1.642-5.25-2.875-1.75,1.366-3.792,2.4-6.125,3.1Zm2.149-13.225c-.316.233-.679.342-1.087.325-.409-.016-.737-.167-.987-.45-.234-.267-.338-.571-.312-.913.024-.341.17-.621.438-.837.449-.367.795-.729,1.037-1.088.241-.358.416-.8.525-1.325.107-.525.162-1.204.162-2.038.017-1.033.291-1.758.825-2.175.533-.417,1.475-.625,2.825-.625s2.291.212,2.824.637c.533.425.801,1.154.801,2.188v2.975c0,.217.054.367.162.45s.287.125.537.125c.316,0,.533-.079.65-.238.116-.158.233-.521.35-1.087.084-.366.283-.629.601-.788s.658-.188,1.024-.087c.384.117.658.309.825.575s.217.583.15.95c-.217,1.25-.604,2.109-1.163,2.575-.559.467-1.404.7-2.537.7-1.184,0-2.025-.179-2.525-.537s-.75-1.046-.75-2.062v-3.05c0-.333-.062-.558-.188-.675s-.379-.175-.762-.175c-.367,0-.613.059-.738.175s-.195.333-.212.65c-.034,1.517-.25,2.708-.65,3.575-.399.867-1.009,1.617-1.825,2.25Zm4.101,6.4c.283-.3.541-.613.774-.938.233-.325.459-.654.676-.988.416-.733.199-1.1-.65-1.1h-2.525c.417,1.083.992,2.092,1.726,3.025Z"/>
          <path class="cls-2" d="m149.766,245.255c-.367.217-.759.271-1.176.162-.416-.108-.733-.346-.949-.712-.217-.383-.268-.775-.15-1.175.116-.4.358-.716.725-.95.684-.45,1.388-.975,2.113-1.575.725-.6,1.37-1.208,1.938-1.825.283-.316.62-.513,1.012-.587.392-.075.754.004,1.088.237.333.25.537.583.612,1,.075.417-.013.792-.263,1.125-.416.534-.908,1.067-1.475,1.6-.566.534-1.15,1.034-1.75,1.5-.6.467-1.175.867-1.725,1.2Zm5.024,3.15c-.417,0-.774-.15-1.075-.45-.3-.3-.449-.658-.449-1.075,0-.434.149-.8.449-1.1.301-.3.658-.45,1.075-.45.783,0,1.292-.112,1.525-.337s.35-.696.35-1.413v-6.925h-6.625c-.417,0-.767-.146-1.05-.438s-.425-.646-.425-1.062.142-.771.425-1.062.633-.438,1.05-.438h6.625v-2.7c0-.433.15-.795.45-1.087.3-.292.658-.438,1.075-.438.433,0,.796.146,1.087.438.292.292.438.654.438,1.087v2.7h6.176c.416,0,.766.146,1.05.438.283.292.425.646.425,1.062s-.142.771-.425,1.062c-.284.292-.634.438-1.05.438h-6.176v7.1c0,1.7-.379,2.9-1.137,3.6-.759.7-2.021,1.05-3.788,1.05Zm13.45-3.7c-.316.284-.688.409-1.112.375-.425-.033-.788-.2-1.088-.5-.316-.333-.712-.712-1.188-1.137-.475-.425-.958-.842-1.45-1.25-.491-.408-.938-.746-1.337-1.013-.351-.233-.562-.558-.638-.975-.075-.417.004-.792.237-1.125.233-.35.554-.562.963-.637.408-.075.787.004,1.138.237.433.284.933.65,1.5,1.1.566.45,1.129.913,1.688,1.387.558.475,1.028.921,1.412,1.338.3.3.438.671.412,1.112-.024.442-.204.804-.537,1.087Zm-.975-11.9c-.217.2-.479.288-.788.263-.309-.025-.554-.154-.737-.388-.2-.233-.45-.521-.75-.862s-.575-.646-.825-.913c-.167-.167-.25-.379-.25-.638s.101-.496.3-.712c.2-.183.43-.275.688-.275s.496.083.713.25c.267.2.575.467.925.8.351.333.634.642.851.925.183.217.266.475.25.775-.018.3-.143.559-.375.775Zm.75-2.25c-.217-.233-.484-.504-.801-.812-.316-.308-.608-.587-.875-.837-.166-.15-.262-.358-.287-.625s.062-.508.263-.725c.166-.2.383-.308.649-.325.267-.016.509.05.726.2.267.167.583.404.95.712.366.309.675.596.925.863.216.217.325.471.325.762s-.109.554-.325.788c-.2.217-.454.325-.763.325s-.571-.108-.787-.325Z"/>
          <path class="cls-2" d="m176.965,240.33c-.416,0-.779-.154-1.087-.462-.309-.308-.463-.671-.463-1.087,0-.433.154-.8.463-1.1.308-.3.671-.45,1.087-.45h15.575c.434,0,.8.15,1.101.45.3.3.449.667.449,1.1,0,.417-.149.779-.449,1.087-.301.309-.667.462-1.101.462h-15.575Z"/>
          <path class="cls-2" d="m201.266,246.53c-.384.167-.775.179-1.176.038-.399-.142-.691-.404-.875-.788-.166-.383-.179-.779-.037-1.188.142-.408.404-.696.787-.863,1.351-.633,2.417-1.404,3.2-2.312.783-.908,1.342-1.941,1.675-3.1.334-1.158.5-2.404.5-3.738,0-.433.15-.8.45-1.1.3-.3.658-.45,1.075-.45.434,0,.796.15,1.088.45.291.3.438.667.438,1.1-.018,2.867-.643,5.317-1.875,7.35-1.234,2.034-2.984,3.567-5.25,4.6Zm16.375-1.6c-1.45.55-2.717.792-3.801.725-1.083-.066-1.929-.462-2.537-1.188s-.912-1.796-.912-3.212v-7.95c0-.433.153-.8.462-1.1.309-.3.671-.45,1.088-.45.433,0,.796.15,1.087.45.292.3.438.667.438,1.1v7.475c0,1.583.959,2.025,2.875,1.325.75-.283,1.571-.616,2.463-1,.892-.383,1.688-.741,2.388-1.075.383-.183.774-.212,1.175-.087s.7.379.9.762c.199.367.237.759.112,1.175s-.38.717-.763.9c-.767.367-1.592.746-2.475,1.137-.884.392-1.717.729-2.5,1.013Z"/>
          <path class="cls-2" d="m243.241,249.305c-2.233.316-4.117.438-5.65.362-1.533-.075-2.762-.304-3.688-.688-.925-.383-1.596-.896-2.012-1.537-.417-.642-.625-1.371-.625-2.188,0-1.25.504-2.417,1.512-3.5,1.009-1.083,2.471-2.033,4.388-2.85-.267-.333-.592-.558-.975-.675-.834-.25-1.654-.158-2.463.275s-1.596,1.066-2.362,1.9c-.283.3-.654.462-1.112.487-.459.025-.829-.112-1.112-.413-.268-.316-.388-.683-.363-1.1.025-.417.196-.758.513-1.025.816-.7,1.538-1.458,2.163-2.275.625-.816,1.153-1.658,1.587-2.525-.717.017-1.388.029-2.013.038s-1.162.004-1.612-.013c-.417,0-.767-.146-1.05-.438-.283-.292-.425-.646-.425-1.062.017-.417.175-.758.475-1.025s.658-.392,1.075-.375c.583.017,1.287.021,2.112.013s1.688-.021,2.588-.038c.083-.316.158-.625.225-.925.066-.3.125-.6.175-.9.066-.417.25-.754.551-1.012.3-.258.658-.363,1.074-.312.417.05.75.233,1,.55.25.317.351.684.301,1.1-.018.217-.051.442-.101.675-.05.234-.108.467-.175.7.633-.033,1.225-.071,1.775-.113.55-.041,1.041-.096,1.475-.162.416-.05.787.046,1.112.287.325.242.513.571.562.988s-.054.784-.312,1.1-.587.492-.987.525c-.617.067-1.325.125-2.125.175-.8.05-1.634.092-2.5.125-.367.817-.767,1.583-1.2,2.3.4-.083.783-.113,1.15-.088.366.025.716.088,1.05.188.5.134.987.363,1.463.688.475.325.896.779,1.262,1.363.816-.233,1.688-.45,2.613-.65.925-.2,1.903-.375,2.938-.525.399-.066.766.021,1.1.263.333.242.525.571.575.987.066.417-.025.784-.275,1.1-.25.317-.583.509-1,.575-.967.117-1.858.254-2.675.413s-1.575.329-2.275.512c.084.45.15.942.2,1.475.05.534.075,1.108.075,1.725,0,.417-.146.771-.438,1.062-.292.292-.646.438-1.062.438s-.767-.146-1.05-.438c-.284-.292-.425-.646-.425-1.062,0-.85-.051-1.608-.15-2.275-1.367.566-2.354,1.171-2.963,1.812s-.912,1.262-.912,1.862c0,.45.267.817.8,1.1.533.284,1.425.442,2.675.475s2.959-.092,5.125-.375c.4-.05.767.046,1.101.287.333.242.524.571.575.988.05.4-.051.758-.301,1.075s-.574.508-.975.575Z"/>
          <path class="cls-2" d="m255.541,250.405c-.467,0-.829-.129-1.087-.388-.259-.258-.413-.596-.463-1.012-.033-.4.059-.75.275-1.05.216-.3.516-.475.899-.525.483-.066.792-.167.925-.3.134-.133.2-.408.2-.825v-4.1c-.3.117-.583.225-.85.325s-.517.192-.75.275c-.467.167-.892.163-1.275-.013-.384-.175-.642-.479-.774-.912-.117-.417-.088-.8.087-1.15.175-.35.471-.583.888-.7.366-.117.779-.25,1.237-.4.458-.15.938-.309,1.438-.475v-4.5h-2.125c-.417,0-.75-.133-1-.4s-.375-.592-.375-.975.125-.704.375-.962.583-.388,1-.388h2.125v-3.575c0-.433.138-.775.413-1.025.274-.25.596-.375.962-.375.384,0,.713.125.987.375.275.25.413.592.413,1.025v3.575h1.575c.433,0,.771.129,1.012.388.242.258.363.579.363.962s-.121.708-.363.975c-.241.267-.579.4-1.012.4h-1.575v3.525c.25-.083.487-.167.712-.25.226-.083.421-.158.588-.225.416-.167.783-.179,1.1-.038.316.142.533.379.65.713.133.367.146.708.037,1.025-.108.317-.371.567-.787.75-.283.117-.625.258-1.025.425-.399.167-.824.342-1.274.525v5.875c0,1.167-.279,2.029-.838,2.588-.559.558-1.454.837-2.688.837Zm14.8.025c-.416,0-.767-.134-1.05-.4-.283-.267-.425-.625-.425-1.075v-11.3h-3c-.033,2.517-.325,4.729-.875,6.637-.55,1.909-1.392,3.604-2.525,5.088-.267.35-.608.566-1.024.65-.417.083-.809-.009-1.175-.275-.317-.234-.5-.55-.551-.95-.05-.4.051-.75.301-1.05,1.083-1.333,1.854-2.85,2.312-4.55.458-1.7.688-3.758.688-6.175v-3.05c0-1.083.12-1.95.362-2.6.241-.65.671-1.158,1.287-1.525.616-.366,1.483-.658,2.601-.875.783-.15,1.675-.358,2.675-.625,1-.266,1.933-.508,2.8-.725.5-.133.925-.133,1.275,0,.35.133.583.383.699.75.15.4.15.779,0,1.137-.149.359-.425.596-.824.712-.551.134-1.192.284-1.926.45-.733.167-1.454.321-2.162.462-.709.142-1.321.263-1.838.363-.816.167-1.371.412-1.662.737-.292.325-.438.904-.438,1.737v.95h8.575c.416,0,.75.129,1,.388s.375.579.375.962-.125.708-.375.975-.584.4-1,.4h-2.65v11.3c0,.45-.142.808-.425,1.075-.283.266-.625.4-1.025.4Z"/>
          <path class="cls-2" d="m290.666,249.255c-1.517-.034-2.712-.4-3.587-1.1-.875-.7-1.297-1.658-1.263-2.875.033-.716.237-1.341.612-1.875.375-.533.888-.938,1.537-1.212.65-.275,1.392-.371,2.226-.288,1.333.117,2.267.571,2.8,1.362.533.792.691,1.696.475,2.712.584-.283,1.062-.695,1.438-1.237.375-.542.562-1.246.562-2.112,0-.65-.188-1.238-.562-1.763s-.899-.933-1.574-1.225c-.676-.292-1.455-.413-2.338-.362-.884.05-1.834.312-2.85.788-1.018.475-2.059,1.229-3.125,2.262-.301.284-.676.421-1.125.413-.45-.008-.817-.179-1.101-.513-.267-.316-.388-.679-.362-1.087.025-.408.195-.729.513-.962,1.033-.783,2.066-1.612,3.1-2.487s2.021-1.738,2.963-2.588c.941-.85,1.771-1.625,2.487-2.325.45-.433.604-.792.463-1.075-.143-.283-.505-.383-1.088-.3-.566.067-1.213.15-1.938.25s-1.404.192-2.037.275c-.4.067-.768-.025-1.101-.275s-.524-.583-.575-1c-.066-.4.025-.763.275-1.087.25-.325.583-.521,1-.588.366-.05.829-.1,1.388-.15.558-.05,1.133-.1,1.725-.15s1.096-.091,1.513-.125c1.083-.083,1.967.059,2.65.425.683.367,1.149.863,1.399,1.488s.263,1.304.038,2.038c-.226.733-.705,1.425-1.438,2.075-.334.284-.755.65-1.263,1.1-.509.45-1.029.909-1.562,1.375.95-.183,1.875-.196,2.774-.038.9.159,1.704.479,2.413.962.708.484,1.271,1.121,1.688,1.913.416.792.625,1.721.625,2.788,0,1.517-.334,2.771-1,3.763-.667.992-1.584,1.717-2.75,2.175-1.167.458-2.509.671-4.025.638Zm-.45-2.775h.15c.05,0,.112.004.188.013.075.009.162.004.263-.013.233-.55.274-1.008.125-1.375-.15-.366-.45-.583-.9-.65-.399-.05-.729.004-.987.163-.259.159-.404.413-.438.763-.017.667.517,1.033,1.6,1.1Z"/>
        </g>
        <g>
          <path class="cls-15" d="m108.904,240c0,1.336.382,2.672.132,3.934-.257,1.301-.671,2.578-1.168,3.774-.505,1.218-1.274,2.308-1.999,3.39-.73,1.09-1.687,1.976-2.611,2.901s-1.854,1.815-2.945,2.545c-1.082.724-2.222,1.333-3.44,1.837-1.197.496-2.335,1.362-3.635,1.619-1.262.25-2.643.308-3.979.308s-2.664-.322-3.927-.571c-1.301-.257-2.644-.491-3.841-.987-1.218-.505-2.314-1.319-3.396-2.044-1.09-.73-2.051-1.644-2.976-2.569s-1.545-2.081-2.275-3.172c-.724-1.082-1.658-2.054-2.163-3.272-.496-1.197-.781-2.492-1.038-3.793-.25-1.262-.337-2.567-.337-3.902s.054-2.647.304-3.909c.257-1.301.425-2.652.921-3.849.505-1.218,1.193-2.393,1.917-3.475.73-1.09,1.563-2.166,2.487-3.091s1.93-1.862,3.021-2.592c1.082-.724,2.32-1.327,3.537-1.831,1.197-.496,2.561-.617,3.862-.874,1.262-.25,2.568-.592,3.904-.592s2.661.241,3.924.491c1.301.257,2.671.419,3.868.915,1.218.505,2.078,1.694,3.16,2.418,1.09.73,2.4,1.191,3.324,2.115s1.53,2.136,2.26,3.227c.724,1.082,1.606,2.107,2.111,3.324.496,1.197.834,2.497,1.091,3.797.25,1.262-.093,2.591-.093,3.926Z"/>
          <path class="cls-1" d="m93.72,243.527c.294,0,.539.102.735.304.195.203.279.445.252.725l-.126,1.764c-.015.392-.161.721-.441.987s-.608.399-.986.399h-8.736c-.393,0-.722-.14-.987-.42-.266-.28-.385-.609-.356-.987.126-1.064.44-1.974.944-2.73.504-.756,1.169-1.421,1.995-1.995.826-.574,1.785-1.099,2.877-1.575.854-.392,1.551-.742,2.09-1.05.539-.308.927-.672,1.165-1.092.238-.42.322-.973.252-1.659-.252-1.652-1.351-2.478-3.297-2.478-1.638,0-2.716.546-3.233,1.638-.015.028-.021.056-.021.084,0,.07.035.126.105.168.21.14.363.312.462.514.098.203.146.417.146.641,0,.35-.126.676-.378.977s-.602.451-1.05.451c-.476,0-.84-.168-1.092-.504-.252-.336-.378-.756-.378-1.26,0-.546.146-1.113.44-1.701.49-.91,1.187-1.592,2.09-2.047.903-.455,1.845-.683,2.824-.683.784,0,1.54.144,2.269.431.728.287,1.354.718,1.879,1.292.525.574.872,1.295,1.04,2.163.042.266.062.532.062.798,0,.728-.146,1.348-.44,1.858-.294.511-.69.959-1.187,1.344-.497.385-1.047.732-1.648,1.04-.603.308-1.219.609-1.849.903s-1.225.616-1.785.966c-.56.35-1.043.756-1.448,1.218-.406.462-.687,1.015-.84,1.659v.042c0,.112.056.168.168.168h7.392c.126,0,.189-.063.189-.189-.015-.21-.032-.417-.053-.62-.021-.203-.031-.402-.031-.598,0-.266.094-.49.283-.672.188-.182.423-.273.703-.273Z"/>
        </g>
      </g>
    </g>
  </g>
</svg>