<?xml version="1.0" encoding="UTF-8"?>
<svg id="_レイヤー_2" data-name="レイヤー 2" xmlns="http://www.w3.org/2000/svg" xmlns:xlink="http://www.w3.org/1999/xlink" viewBox="0 0 374 280">
  <defs>
    <style>
      .cls-1 {
        stroke-width: .5px;
      }

      .cls-1, .cls-2 {
        fill: #231815;
      }

      .cls-1, .cls-3, .cls-4 {
        stroke: #231815;
        stroke-linecap: round;
        stroke-linejoin: round;
      }

      .cls-2, .cls-5, .cls-6, .cls-7, .cls-8, .cls-9 {
        stroke-width: 0px;
      }

      .cls-10 {
        clip-path: url(#clippath-2);
      }

      .cls-3, .cls-5, .cls-6 {
        fill: none;
      }

      .cls-3, .cls-4 {
        stroke-width: 2px;
      }

      .cls-11 {
        clip-path: url(#clippath-1);
      }

      .cls-6 {
        clip-rule: evenodd;
      }

      .cls-7, .cls-8, .cls-4 {
        fill: #fff;
      }

      .cls-8, .cls-4 {
        fill-rule: evenodd;
      }

      .cls-12 {
        clip-path: url(#clippath);
      }

      .cls-13 {
        clip-path: url(#clippath-3);
      }

      .cls-9 {
        fill: #ffef4c;
      }
    </style>
    <clipPath id="clippath">
      <rect class="cls-5" width="374" height="280"/>
    </clipPath>
    <clipPath id="clippath-1">
      <rect class="cls-5" width="374" height="280"/>
    </clipPath>
    <clipPath id="clippath-2">
      <polygon class="cls-6" points="54.176 204 54.176 46.37 164.893 46.37 164.893 80.716 272.176 80.716 272.176 204 54.176 204"/>
    </clipPath>
    <clipPath id="clippath-3">
      <rect class="cls-5" x="-25.577" y="5.086" width="350.914" height="262.716"/>
    </clipPath>
  </defs>
  <g id="design">
    <g>
      <g class="cls-12">
        <image width="1600" height="1200" transform="translate(-16.101 -14.685) scale(.254)" xlink:href="../Links/24740580.jpg"/>
      </g>
      <path class="cls-7" d="m275.397,120c0,6.56-5.974,12.36-7.37,18.497-1.441,6.337,1.391,14.148-1.367,19.866-2.804,5.812-10.705,8.452-14.691,13.444-4.006,5.017-4.836,13.301-9.852,17.306-4.992,3.986-13.247,2.966-19.058,5.77-5.718,2.758-10.048,9.875-16.385,11.316-6.138,1.395-13.113-3.106-19.673-3.106s-13.535,4.501-19.673,3.106c-6.337-1.441-10.668-8.557-16.386-11.316-5.812-2.804-14.066-1.783-19.059-5.77-5.017-4.006-5.846-12.29-9.852-17.306-3.986-4.992-11.887-7.632-14.691-13.444-2.758-5.718.074-13.528-1.367-19.865-1.395-6.138-7.37-11.938-7.37-18.498s5.974-12.36,7.37-18.497c1.441-6.337-1.391-14.148,1.367-19.866,2.804-5.812,10.705-8.452,14.691-13.444,4.006-5.017,4.836-13.301,9.852-17.306,4.992-3.986,13.247-2.966,19.058-5.77,5.718-2.758,10.048-9.875,16.385-11.316,6.138-1.395,13.113,3.106,19.673,3.106s13.535-4.501,19.673-3.106c6.337,1.441,10.668,8.557,16.386,11.316,5.812,2.804,14.066,1.783,19.059,5.77,5.017,4.006,5.846,12.29,9.852,17.306,3.986,4.992,11.887,7.632,14.691,13.444,2.758,5.718-.074,13.528,1.367,19.865,1.395,6.138,7.37,11.938,7.37,18.498Z"/>
      <g class="cls-11">
        <g class="cls-10">
          <g class="cls-13">
            <image width="370" height="320" transform="translate(45.732 .395) scale(.649)" xlink:href="../Links/IMG_1938.png"/>
          </g>
        </g>
        <path class="cls-4" d="m284.104-16.029s-50.148-18.467-80.457,22.441c-18.255,24.639-2.51,45.618-12.405,65.588-5.346,10.79-16,11-16,11,0,0,13.288-4.029,16.288,19.971,2.003,16.025-7.901,78.5,51.394,86.265,7.053,12.84,21.109,27.978,47.312,28.156,116.217.788,110.66-158.832,83.765-220.862-15.35-35.403-64.896-49.559-89.896-12.559Z"/>
        <g>
          <path class="cls-2" d="m355.738,34.123c.383.215.575.544.575.989,0,.153-.031.291-.092.414-.185.398-.483.598-.897.598-.153,0-.314-.046-.482-.138-.828-.506-1.695-1.192-2.6-2.059s-1.778-1.863-2.622-2.99c-.843-1.127-1.587-2.326-2.23-3.599-.645-1.273-1.12-2.568-1.427-3.887-.015-.077-.042-.115-.08-.115s-.073.023-.104.069c-.445.659-.974,1.315-1.587,1.966-.613.652-1.273,1.285-1.979,1.897-.046.046-.068.1-.068.161v5.934c0,.107.046.153.138.138.858-.153,1.694-.348,2.507-.586.812-.237,1.664-.541,2.554-.908.122-.046.245-.069.367-.069.23,0,.438.081.621.242.185.161.276.395.276.702,0,.23-.062.445-.184.644-.123.199-.292.345-.507.437-.583.245-1.23.479-1.943.701-.713.223-1.445.414-2.196.575s-1.465.288-2.139.379c-.414.046-.774-.069-1.081-.345-.308-.276-.46-.621-.46-1.035v-5.106c0-.138-.055-.168-.161-.092-.476.307-.943.591-1.403.851-.46.261-.912.483-1.356.667-.107.046-.23.069-.368.069-.246,0-.472-.092-.679-.276s-.311-.421-.311-.713c0-.214.062-.421.184-.621.123-.199.292-.345.507-.437.889-.398,1.801-.935,2.736-1.61s1.821-1.411,2.657-2.208c.835-.797,1.529-1.572,2.081-2.323.076-.107.046-.161-.092-.161h-6.486c-.276,0-.514-.1-.713-.299-.199-.199-.299-.437-.299-.713,0-.26.096-.49.287-.69.191-.199.434-.299.725-.299h7.406c.092,0,.138-.046.138-.138v-2.323c0-.292.104-.533.311-.725s.448-.288.725-.288.518.096.725.288.311.433.311.725v2.323c0,.092.046.138.138.138h7.406c.276,0,.514.096.713.287.199.192.299.426.299.702s-.1.514-.299.713c-.199.2-.437.299-.713.299h-6.647c-.107,0-.153.046-.138.138.169.798.414,1.606.736,2.427.321.82.705,1.637,1.149,2.449.046.077.107.092.185.046.475-.292.988-.656,1.541-1.093.552-.437,1.065-.916,1.541-1.438.214-.23.482-.345.805-.345.276,0,.498.084.667.253.23.23.345.499.345.805,0,.276-.092.506-.275.69-.476.506-1.027,1.012-1.656,1.518-.629.506-1.258.951-1.886,1.334-.062.046-.062.123,0,.23.735,1.028,1.521,1.967,2.357,2.818.835.851,1.651,1.522,2.449,2.012Z"/>
          <path class="cls-2" d="m337.154,48.911c-.062.016-.146.023-.253.023-.245,0-.472-.092-.679-.276s-.311-.421-.311-.713c0-.23.073-.441.219-.633.146-.191.333-.318.563-.379.629-.184,1.311-.425,2.047-.725.736-.299,1.403-.64,2.001-1.023.062-.046.092-.107.092-.184v-4.209c0-.276.1-.509.3-.701.198-.192.437-.288.713-.288s.514.096.713.288.299.425.299.701v8.418c0,.276-.1.51-.299.701-.199.192-.438.288-.713.288s-.515-.096-.713-.288c-.2-.191-.3-.425-.3-.701v-1.541c0-.107-.062-.138-.184-.092-.552.292-1.135.552-1.748.782s-1.196.414-1.748.552Zm18.078,8.786c.261.031.479.146.655.345.176.2.265.429.265.69,0,.306-.115.56-.345.759-.23.199-.491.284-.782.253-1.947-.292-3.657-.939-5.129-1.943-1.472-1.004-2.668-2.342-3.588-4.014-.046-.077-.107-.092-.185-.046-.598.368-1.223.713-1.874,1.035-.652.322-1.315.621-1.989.897-.077.015-.115.069-.115.161v1.403c0,.107.054.146.161.115.506-.153,1.012-.314,1.518-.483.506-.168.981-.337,1.426-.506.062-.031.115-.046.161-.046h.161c.23,0,.438.084.621.253.184.169.276.399.276.69,0,.23-.069.445-.207.644-.139.199-.314.337-.529.414-.598.214-1.254.429-1.967.644-.713.214-1.406.406-2.081.575-.046.015-.092.023-.139.023h-.138c-.337,0-.629-.119-.874-.356s-.368-.541-.368-.908v-1.679c0-.107-.054-.146-.161-.115-.49.169-.974.322-1.448.46-.476.138-.936.261-1.38.368-.047.016-.115.023-.207.023-.262,0-.491-.095-.69-.287s-.299-.426-.299-.702c0-.261.08-.491.241-.69s.364-.33.609-.391c1.15-.291,2.312-.64,3.484-1.046,1.174-.406,2.258-.863,3.255-1.369.062-.031.088-.065.08-.104-.008-.038-.05-.058-.126-.058h-6.395c-.261,0-.486-.095-.678-.287-.192-.192-.288-.418-.288-.679s.093-.487.276-.679c.184-.191.414-.287.689-.287h7.729c.092,0,.138-.046.138-.138v-.782c0-.276.1-.509.299-.701s.43-.288.69-.288.49.096.69.288c.198.192.299.425.299.701v.782c0,.092.046.138.138.138h7.729c.26,0,.486.092.678.276s.288.414.288.69c0,.261-.097.487-.288.679s-.418.287-.678.287h-6.671c-.107,0-.138.054-.092.161.476.874,1.035,1.641,1.68,2.3.046.046.106.054.184.023.629-.215,1.238-.456,1.828-.725.591-.268,1.123-.525,1.599-.771.153-.077.299-.115.438-.115.398,0,.667.192.805.575.046.138.069.269.069.391,0,.199-.055.395-.161.586-.107.192-.261.333-.46.425-.338.169-.687.337-1.047.506-.36.169-.725.33-1.093.483-.062.015-.096.042-.104.081s.012.073.058.104c.506.261,1.035.468,1.587.621.553.154,1.143.269,1.771.345Zm-18.492-15.18c-.199-.077-.356-.203-.472-.379-.114-.176-.172-.364-.172-.563,0-.291.096-.521.287-.69.191-.168.41-.253.655-.253h.149c.054,0,.104.015.149.046.445.169.916.387,1.415.655.498.269.938.533,1.322.793.276.184.414.468.414.851,0,.184-.046.368-.138.552-.139.276-.376.414-.713.414-.185,0-.354-.054-.506-.161-.354-.261-.74-.498-1.162-.713s-.832-.398-1.23-.552Zm11.776,2.07c0-.092-.046-.138-.139-.138h-4.048c-.245,0-.464-.096-.655-.288-.191-.191-.287-.417-.287-.678s.092-.483.275-.667c.185-.184.406-.276.667-.276h4.048c.093,0,.139-.046.139-.138v-1.679c0-.276.1-.51.299-.702.199-.191.429-.287.689-.287.276,0,.51.1.702.299.191.199.287.43.287.69v1.679c0,.092.046.138.139.138h4.231c.261,0,.483.092.667.276.184.184.276.406.276.667s-.093.487-.276.678c-.184.192-.406.288-.667.288h-4.231c-.093,0-.139.046-.139.138v2.208c0,.092.046.138.139.138h3.335c.26,0,.486.092.678.276.191.184.288.407.288.667s-.097.487-.288.679c-.191.192-.418.288-.678.288h-8.74c-.246,0-.464-.096-.655-.288-.192-.191-.288-.417-.288-.679s.092-.483.276-.667c.184-.184.406-.276.667-.276h3.15c.093,0,.139-.046.139-.138v-2.208Z"/>
          <path class="cls-2" d="m353.231,68.462c.291,0,.536.104.736.31.198.207.299.449.299.725,0,.292-.101.537-.299.736-.2.199-.445.299-.736.299h-2.128c-.667,0-1.292.008-1.874.023-.138,0-.207.069-.207.207-.016,2.668-.537,4.88-1.564,6.635-1.027,1.756-2.591,3.155-4.691,4.198-.123.061-.269.092-.438.092-.444,0-.751-.207-.92-.621-.062-.123-.092-.261-.092-.414,0-.46.215-.79.644-.989,1.043-.506,1.887-1.088,2.53-1.748.645-.659,1.135-1.372,1.472-2.139.338-.767.575-1.572.714-2.415.138-.843.222-1.702.253-2.576,0-.138-.069-.207-.207-.207-.798.016-1.503.035-2.116.058s-1.166.058-1.656.104c-.077.015-.153.062-.229.138-.521.736-1.089,1.415-1.702,2.036s-1.234,1.162-1.863,1.622c-.169.123-.36.184-.575.184-.368,0-.659-.161-.874-.483-.123-.199-.184-.399-.184-.598,0-.368.153-.659.46-.874,1.165-.874,2.101-1.797,2.806-2.771.705-.974,1.246-1.913,1.622-2.817.375-.905.64-1.687.793-2.346.077-.26.215-.472.414-.632.199-.161.422-.242.667-.242.337,0,.605.123.805.368.199.246.269.521.207.828-.229,1.119-.598,2.193-1.104,3.22-.077.169-.077.253,0,.253.613-.046,1.326-.076,2.139-.092.812-.015,1.783-.031,2.91-.046s2.457-.023,3.99-.023Z"/>
          <path class="cls-2" d="m345.986,103.836c-.291,0-.533-.1-.725-.299-.191-.199-.287-.437-.287-.713v-14.352c0-.276.1-.514.299-.713s.437-.299.713-.299c.291,0,.532.1.725.299.191.199.287.437.287.713v14.352c0,.276-.1.514-.299.713-.199.2-.437.299-.713.299Z"/>
          <path class="cls-2" d="m354.565,126.099c.138.184.207.391.207.621,0,.368-.146.674-.438.92-.184.138-.383.207-.598.207-.338,0-.613-.138-.828-.414-.476-.705-1.043-1.38-1.702-2.024s-1.354-1.219-2.081-1.725c-.729-.506-1.461-.904-2.196-1.196-.107-.046-.2-.031-.276.046-.981.92-2.104,1.817-3.369,2.691-1.266.874-2.695,1.671-4.29,2.392-.123.061-.261.092-.414.092-.245,0-.468-.092-.667-.276s-.299-.421-.299-.713c0-.23.065-.444.195-.644.13-.199.303-.345.518-.437,1.487-.659,2.825-1.407,4.014-2.243,1.188-.835,2.223-1.694,3.105-2.576.881-.882,1.613-1.725,2.196-2.53.582-.805,1.012-1.491,1.288-2.058.307-.659.46-1.166.46-1.518,0-.475-.308-.713-.92-.713h-.288c-.1,0-.211.016-.333.046-.521.077-1.22.153-2.094.23-.873.077-1.828.138-2.863.184-1.035.046-2.051.069-3.047.069-.262,0-.487-.096-.679-.288-.192-.191-.288-.425-.288-.702,0-.291.1-.536.3-.736.198-.199.444-.299.735-.299h1.035c1.35,0,2.622-.046,3.818-.138,1.195-.092,2.123-.199,2.783-.322.168-.031.329-.054.482-.069.153-.015.307-.023.46-.023.92,0,1.637.25,2.15.748.514.499.771,1.162.771,1.99,0,.767-.215,1.587-.644,2.461-.246.506-.561,1.05-.943,1.633-.383.583-.836,1.188-1.356,1.817-.031.031-.046.077-.046.138,0,.062.038.115.114.161.767.383,1.525.862,2.277,1.438.751.575,1.449,1.188,2.093,1.84.645.652,1.196,1.292,1.656,1.92Z"/>
          <path class="cls-2" d="m346.906,149.95c-.291.031-.56-.061-.805-.276-.246-.215-.368-.483-.368-.805,0-.245.084-.46.253-.644s.376-.299.621-.345c1.87-.291,3.308-.92,4.312-1.886,1.004-.966,1.507-2.2,1.507-3.703,0-.889-.216-1.702-.645-2.438-.43-.736-1.016-1.33-1.76-1.782-.743-.452-1.575-.702-2.495-.748-.123,0-.199.062-.23.184-.321,1.457-.717,2.848-1.184,4.174-.469,1.327-.997,2.507-1.588,3.542-.59,1.035-1.219,1.852-1.886,2.45-.667.598-1.36.897-2.081.897-.185,0-.368-.023-.553-.069-.767-.184-1.345-.644-1.736-1.38-.391-.736-.586-1.602-.586-2.599,0-.904.157-1.847.472-2.829.313-.981.785-1.901,1.414-2.76.904-1.227,2.013-2.139,3.323-2.737,1.312-.598,2.634-.897,3.968-.897,1.104,0,2.158.192,3.162.575,1.005.384,1.879.955,2.622,1.714.744.759,1.269,1.69,1.576,2.794.184.613.275,1.257.275,1.932,0,.828-.149,1.656-.448,2.484-.299.828-.756,1.598-1.368,2.312-.614.713-1.399,1.319-2.357,1.817-.959.499-2.098.839-3.416,1.023Zm-7.015-3.887c.184.322.414.483.689.483.368,0,.771-.268,1.208-.805.437-.537.87-1.242,1.299-2.116.43-.874.828-1.828,1.196-2.863s.659-2.043.874-3.024v-.023c0-.107-.092-.161-.275-.161-.047,0-.093.004-.139.012s-.092.019-.138.034c-.89.261-1.652.656-2.289,1.185-.636.529-1.157,1.131-1.563,1.806s-.705,1.353-.897,2.035c-.191.683-.287,1.315-.287,1.897,0,.644.107,1.158.322,1.541Z"/>
          <path class="cls-2" d="m316.998,20.437c0,.092.046.138.139.138h5.91c.414,0,.771.146,1.07.437.299.292.448.652.448,1.081v6.118c0,.414-.149.771-.448,1.069-.3.299-.656.448-1.07.448h-5.91c-.093,0-.139.046-.139.138v5.957c0,.276-.096.514-.287.713-.192.199-.426.299-.701.299s-.515-.096-.714-.288c-.199-.192-.299-.434-.299-.725v-5.957c0-.092-.046-.138-.138-.138h-5.934c-.414,0-.771-.149-1.07-.448-.299-.299-.448-.656-.448-1.069v-6.118c0-.414.149-.771.448-1.069.3-.299.656-.449,1.07-.449h5.934c.092,0,.138-.046.138-.138v-2.668c0-.26.096-.49.288-.69.191-.199.433-.299.725-.299.26,0,.49.096.689.288s.299.425.299.701v2.668Zm-7.429,2.116c-.092,0-.138.046-.138.138v4.899c0,.092.046.138.138.138h5.29c.092,0,.138-.046.138-.138v-4.899c0-.092-.046-.138-.138-.138h-5.29Zm7.429,5.037c0,.092.046.138.139.138h5.267c.092,0,.138-.046.138-.138v-4.899c0-.092-.046-.138-.138-.138h-5.267c-.093,0-.139.046-.139.138v4.899Z"/>
          <path class="cls-2" d="m325.462,47.302c.215.215.322.468.322.759,0,.261-.077.476-.229.644-.981,1.242-2.193,2.431-3.635,3.565-.062.046-.092.107-.092.184v4.485c0,.905-.284,1.606-.851,2.104-.567.499-1.357.748-2.369.748-.307,0-.621-.023-.943-.069-.245-.031-.448-.138-.609-.322-.161-.184-.241-.399-.241-.644,0-.337.122-.605.368-.805.245-.199.521-.284.828-.253.321.046.598.069.827.069.368,0,.625-.065.771-.195s.219-.341.219-.633v-2.921c0-.138-.054-.168-.161-.092-1.609,1.073-3.339,2.032-5.187,2.875s-3.729,1.526-5.646,2.047c-.046.015-.092.023-.138.023h-.115c-.261,0-.49-.092-.689-.276-.2-.184-.299-.421-.299-.713,0-.215.064-.406.195-.575.13-.168.295-.284.494-.345,1.732-.506,3.323-1.077,4.772-1.714,1.449-.636,2.756-1.307,3.922-2.012.061-.031.084-.069.068-.115-.015-.046-.062-.061-.138-.046-1.533.23-3.098.429-4.692.598s-3.143.299-4.646.391c-.276.016-.525-.072-.747-.264-.223-.192-.334-.433-.334-.725,0-.261.084-.479.253-.655s.376-.272.621-.288c.429-.031.862-.065,1.3-.104.437-.038.885-.073,1.345-.104.093,0,.139-.046.139-.138v-8.556c0-.414.149-.771.448-1.069s.655-.448,1.069-.448h2.3c.077,0,.139-.031.185-.092.291-.46.529-.943.713-1.449.076-.215.203-.38.38-.495.176-.115.363-.172.563-.172.291,0,.524.096.701.287.176.192.265.418.265.679,0,.062-.004.115-.012.161s-.02.092-.034.138c-.046.138-.097.272-.149.403-.055.13-.112.257-.173.379-.046.107-.008.161.115.161h3.795c.414,0,.771.149,1.069.448s.448.656.448,1.069v6.279c0,.062.02.1.058.115.038.016.072,0,.104-.046.444-.398.847-.782,1.208-1.15.359-.368.686-.721.978-1.058.152-.214.375-.322.667-.322.244,0,.451.084.62.253Zm-5.772-2.438c.092,0,.138-.046.138-.138v-.897c0-.092-.046-.138-.138-.138h-7.406c-.092,0-.138.046-.138.138v.897c0,.092.046.138.138.138h7.406Zm-7.544,2.99c0,.092.046.138.138.138h7.406c.092,0,.138-.046.138-.138v-.897c0-.092-.046-.138-.138-.138h-7.406c-.092,0-.138.046-.138.138v.897Zm7.682,2.208c0-.092-.046-.138-.138-.138h-7.406c-.092,0-.138.046-.138.138v1.518c0,.092.046.13.138.115,1.257-.138,2.519-.295,3.783-.472,1.266-.176,2.48-.379,3.646-.609.077-.031.115-.077.115-.138v-.414Z"/>
          <path class="cls-2" d="m309.822,64.092c.291,0,.529.107.713.322.185.215.276.453.276.713,0,.046-.004.092-.012.138s-.02.092-.034.138c-.292.997-.537,2.2-.736,3.611-.199,1.411-.299,2.921-.299,4.531,0,1.135.064,2.292.195,3.473.13,1.181.341,2.354.633,3.519.015.046.022.092.022.138v.115c0,.261-.092.499-.275.713-.185.214-.422.322-.713.322-.216,0-.407-.065-.575-.195-.169-.131-.284-.311-.346-.541-.307-1.227-.536-2.507-.689-3.841s-.23-2.675-.23-4.025c0-1.502.093-2.971.276-4.404s.46-2.779.828-4.037c.076-.214.203-.383.379-.506.177-.123.372-.184.587-.184Zm14.237,14.697c.275.184.414.445.414.782,0,.215-.069.429-.207.644-.185.261-.453.391-.806.391-.199,0-.398-.061-.598-.184-.782-.567-1.587-1.02-2.415-1.357-.031-.015-.062-.023-.092-.023-.077,0-.131.054-.161.161-.215.89-.671,1.568-1.368,2.036-.698.467-1.599.701-2.703.701-.797,0-1.51-.13-2.139-.391-.629-.261-1.123-.613-1.483-1.058-.36-.444-.541-.943-.541-1.495,0-.674.177-1.215.529-1.622.353-.406.836-.701,1.449-.885s1.296-.276,2.047-.276c.705,0,1.426.069,2.162.207h.046c.122,0,.184-.062.184-.184,0-.797-.022-1.656-.068-2.576s-.101-1.84-.161-2.76c-.016-.138-.092-.207-.23-.207-.904.046-1.836.081-2.794.104-.959.023-1.905.034-2.841.034-.275,0-.51-.1-.701-.299-.192-.199-.288-.437-.288-.713s.1-.51.3-.702c.198-.191.437-.288.713-.288h.896c.721,0,1.473-.011,2.254-.034.782-.023,1.549-.05,2.301-.081.152,0,.214-.069.184-.207-.062-.705-.127-1.361-.195-1.967-.069-.605-.143-1.13-.219-1.575-.046-.291.026-.552.219-.782.191-.23.44-.345.747-.345.245,0,.46.077.645.23.184.153.299.36.345.621.076.46.153,1.012.229,1.656.077.644.146,1.334.207,2.07.031.138.107.2.23.184,1.042-.046,1.97-.115,2.783-.207.291-.03.54.046.747.23s.311.422.311.713c0,.245-.088.471-.265.678-.176.207-.395.326-.655.356-.384.031-.809.065-1.276.104-.468.039-.963.073-1.483.104-.139.031-.199.107-.185.23.077,1.027.139,2.066.185,3.117s.068,2.012.068,2.886c0,.123.062.207.185.253.659.23,1.288.487,1.886.771.598.284,1.135.602,1.61.955Zm-7.936,1.15c.675,0,1.181-.099,1.519-.299.337-.199.552-.537.644-1.012v-.046c0-.107-.062-.176-.184-.207-.384-.076-.768-.13-1.15-.161s-.774-.046-1.173-.046c-.629,0-1.085.073-1.368.219-.284.146-.426.326-.426.541,0,.246.191.476.575.69.383.215.904.322,1.563.322Z"/>
          <path class="cls-2" d="m324.428,89.805c-.66-1.073-1.503-2.024-2.53-2.852-.307-.245-.46-.529-.46-.851,0-.306.118-.575.356-.805.237-.23.51-.345.816-.345.261,0,.498.084.713.253,1.181.936,2.216,2.04,3.105,3.312.152.215.229.445.229.69,0,.322-.13.602-.391.84s-.553.356-.874.356c-.169,0-.342-.05-.518-.149-.177-.1-.326-.249-.448-.449Z"/>
          <path class="cls-2" d="m313.135,108.068c0,.092.046.138.138.138h4.024c.261,0,.479.088.656.265.176.176.265.395.265.655,0,.246-.089.46-.265.644-.177.184-.396.276-.656.276h-10.258c-.245,0-.46-.092-.644-.276-.185-.184-.276-.398-.276-.644,0-.26.092-.479.276-.655.184-.176.398-.265.644-.265h4.025c.092,0,.138-.046.138-.138v-.828c0-.092-.046-.138-.138-.138h-2.76c-.246,0-.457-.088-.633-.264-.177-.176-.265-.387-.265-.633,0-.26.088-.475.265-.644.176-.168.387-.253.633-.253h2.76c.092,0,.138-.046.138-.138v-.966c0-.092-.046-.138-.138-.138h-2.6c-.245,0-.46-.092-.644-.276s-.276-.398-.276-.644c0-.184.047-.345.139-.483.046-.077.054-.115.022-.115-.062,0-.119.011-.172.034-.055.023-.119.035-.196.035-.245,0-.468-.096-.667-.288-.199-.191-.299-.417-.299-.678v-1.403c0-.414.149-.771.449-1.069.299-.299.655-.449,1.069-.449h3.15c.093,0,.139-.046.139-.138v-.483c0-.261.096-.491.287-.69.191-.199.426-.299.701-.299.261,0,.491.096.69.288.199.192.299.425.299.702v.483c0,.092.046.138.138.138h3.151c.414,0,.771.146,1.069.437.299.292.448.652.448,1.081v1.403c0,.261-.096.487-.287.678-.191.192-.418.288-.679.288-.062,0-.114-.003-.161-.012-.046-.007-.092-.019-.138-.034-.107-.046-.13-.023-.069.069.107.123.161.292.161.506,0,.246-.088.46-.265.644-.176.184-.395.276-.655.276h-2.599c-.092,0-.138.046-.138.138v.966c0,.092.046.138.138.138h2.76c.261,0,.476.088.645.265.168.176.253.387.253.632s-.089.457-.265.633c-.177.176-.388.264-.633.264h-2.76c-.092,0-.138.046-.138.138v.828Zm-3.864,2.783h5.888c.414,0,.771.146,1.069.437.299.292.449.652.449,1.081v3.289c0,.414-.146.771-.438,1.069-.291.299-.651.449-1.081.449h-5.888c-.43,0-.79-.149-1.081-.449-.292-.299-.438-.655-.438-1.069v-3.289c0-.414.146-.771.438-1.069.291-.299.651-.449,1.081-.449Zm-.806-8.625h2.6c.092,0,.138-.046.138-.138v-.391c0-.261.096-.487.288-.679.191-.191.417-.288.678-.288.276,0,.507.096.69.288.184.192.276.418.276.679v.391c0,.092.046.138.138.138h2.599c.077,0,.161.016.253.046.093.016.115-.007.069-.069-.107-.184-.161-.368-.161-.552v-.92c0-.092-.046-.138-.138-.138h-7.43c-.092,0-.138.046-.138.138v.92c0,.107-.016.203-.046.287-.031.084-.069.165-.115.242-.062.077-.046.107.046.092.093-.03.177-.046.253-.046Zm1.242,12.903c0,.092.046.138.139.138h4.737c.093,0,.139-.046.139-.138v-2.231c0-.092-.046-.138-.139-.138h-4.737c-.093,0-.139.046-.139.138v2.231Zm11.155-15.157v11.684c0,.276-.1.51-.299.702s-.43.287-.69.287c-.275,0-.514-.1-.713-.299s-.299-.429-.299-.69v-11.684c0-.276.1-.51.299-.702.199-.191.438-.287.713-.287s.51.096.702.287c.191.192.287.426.287.702Zm3.266-2.668c.276,0,.51.096.702.288.191.192.287.425.287.701v15.755c0,1.211-.333,2.062-1,2.553s-1.768.705-3.301.644c-.261-.016-.487-.123-.679-.322-.191-.2-.287-.43-.287-.69,0-.292.104-.533.311-.725s.456-.28.747-.265c.659.016,1.143,0,1.449-.046s.51-.157.609-.333.149-.449.149-.816v-15.755c0-.276.1-.509.299-.701s.438-.288.713-.288Z"/>
          <path class="cls-2" d="m325.808,134.771c.199.2.299.43.299.69,0,.291-.107.529-.322.713-.721.629-1.449,1.135-2.185,1.518-.185.092-.392.169-.621.23-.23.061-.476.092-.736.092-.476,0-.947-.138-1.414-.414-.468-.276-.859-.771-1.173-1.483-.314-.713-.472-1.713-.472-3.001,0-.644.05-1.369.149-2.173.1-.805.249-1.698.448-2.68.016-.077.03-.153.046-.23s.023-.153.023-.23c0-.123-.031-.226-.092-.311-.062-.084-.192-.126-.392-.126-.307,0-.82.153-1.541.46-.751.337-1.487.713-2.208,1.127s-1.434.89-2.139,1.426c-.077.077-.115.161-.115.253,0,1.349.042,2.706.127,4.071.084,1.365.203,2.668.356,3.91.03.291-.055.56-.253.805-.2.245-.453.368-.76.368-.245,0-.46-.081-.644-.242-.184-.161-.299-.364-.345-.609-.107-.812-.2-1.755-.276-2.829-.077-1.073-.131-2.2-.161-3.381,0-.107-.022-.172-.069-.195-.046-.023-.107.004-.184.081-.337.399-.667.824-.989,1.276-.321.453-.636.932-.942,1.438-.016.046-.031.084-.046.115-.016.031-.039.069-.069.115-.092.246-.188.499-.287.759-.101.261-.188.521-.265.782-.062.199-.181.36-.356.483-.177.123-.372.184-.587.184-.291,0-.521-.1-.689-.299-.169-.199-.254-.422-.254-.667,0-.062.004-.119.012-.173.008-.053.02-.111.035-.172.49-1.288,1.146-2.683,1.966-4.186.82-1.502,1.714-2.952,2.68-4.347.062-.076.092-.13.092-.161v-.023c-.659.123-1.33.23-2.013.322-.682.092-1.299.153-1.851.184-.276.015-.515-.073-.714-.265-.199-.191-.299-.425-.299-.702s.1-.509.299-.701c.199-.191.43-.288.69-.288.552-.031,1.161-.077,1.828-.138.667-.061,1.323-.153,1.967-.276.107-.015.176-.092.207-.23.092-1.441.23-2.729.414-3.864.03-.23.138-.418.322-.563.184-.146.398-.219.644-.219.322,0,.583.126.782.379s.268.533.207.84c-.077.445-.142.924-.195,1.438-.055.514-.111,1.062-.173,1.645v.046c0,.077.062.13.184.161.185.016.346.084.483.207.245.2.368.445.368.736,0,.23-.085.445-.253.644-.062.077-.131.161-.207.253-.077.092-.153.184-.23.276-.062.062-.229.261-.506.598v.023c.904-.644,1.786-1.181,2.646-1.61.858-.429,1.641-.729,2.346-.897.261-.062.506-.107.736-.138.229-.031.444-.046.644-.046,1.41,0,2.116.721,2.116,2.162,0,.2-.016.403-.046.61-.031.207-.069.433-.115.678-.199.905-.345,1.733-.437,2.484-.093.751-.139,1.411-.139,1.978,0,1.733.398,2.599,1.196,2.599.536,0,1.227-.421,2.07-1.265.184-.199.421-.299.713-.299.26,0,.482.092.667.276Z"/>
          <path class="cls-2" d="m313.617,154.366c.016.031.023.069.023.115v.115c0,.521-.238.882-.713,1.081-.185.062-.376.126-.575.195-.199.069-.399.135-.599.196-.076.031-.114.077-.114.138v6.164c0,.276-.097.506-.288.69s-.418.276-.679.276-.486-.092-.678-.276c-.192-.184-.288-.414-.288-.69v-5.589c0-.107-.054-.146-.161-.115-.429.107-.858.204-1.287.288-.43.084-.828.165-1.196.242-.246.046-.472-.015-.679-.184-.207-.168-.311-.383-.311-.644,0-.276.088-.521.265-.736.176-.215.402-.353.679-.414.398-.077.816-.165,1.253-.265.438-.1.878-.203,1.323-.311.076-.03.114-.077.114-.138v-5.037c0-.092-.046-.138-.138-.138h-.759c-.092,0-.146.039-.161.115-.169.383-.353.751-.552,1.104-.2.353-.422.682-.667.989-.153.2-.36.299-.621.299-.276,0-.506-.115-.69-.345-.169-.199-.253-.429-.253-.69s.084-.514.253-.759c.43-.583.755-1.257.978-2.024.223-.767.372-1.548.448-2.346.031-.261.142-.483.334-.667.191-.184.418-.276.679-.276s.482.088.667.265c.184.176.275.395.275.656s-.02.521-.058.782c-.038.261-.08.521-.126.782-.016.092.03.138.138.138h.115c.092,0,.138-.046.138-.138v-2.944c0-.26.096-.486.288-.678.191-.192.417-.288.678-.288s.487.092.679.276.288.414.288.69v2.944c0,.092.046.138.138.138h.966c.276,0,.51.1.702.299.191.199.287.429.287.69s-.096.491-.287.69c-.192.199-.426.299-.702.299h-.966c-.092,0-.138.046-.138.138v4.416c0,.107.054.146.161.115.122-.046.237-.092.345-.138.106-.046.215-.084.322-.115.046-.03.095-.046.149-.046h.149c.214,0,.402.058.563.172.161.115.256.28.287.495Zm4.048-7.636c-.046.108-.008.161.115.161h6.072c.429,0,.789.149,1.081.449.291.299.437.655.437,1.069,0,.644-.008,1.38-.022,2.208-.016.828-.035,1.687-.058,2.576-.023.889-.05,1.744-.081,2.564-.03.82-.062,1.545-.092,2.173-.107,1.871-.518,3.239-1.23,4.105s-1.806,1.3-3.277,1.3c-.138,0-.276-.004-.414-.012-.138-.008-.284-.02-.437-.035-.262-.031-.476-.142-.645-.333s-.253-.41-.253-.655c0-.307.122-.563.368-.771.245-.207.521-.295.828-.265.152.016.295.027.425.035.131.008.249.011.356.011.537,0,.959-.107,1.266-.322.307-.214.536-.579.689-1.092s.261-1.215.322-2.105c.046-.567.081-1.219.104-1.955.023-.736.046-1.51.069-2.323.022-.812.042-1.613.058-2.403.015-.79.022-1.507.022-2.15,0-.092-.03-.138-.092-.138s-.107.039-.138.115c-.384,1.855-.967,3.604-1.748,5.244-.782,1.641-1.729,3.121-2.841,4.439-1.112,1.319-2.373,2.438-3.783,3.358-.077.046-.157.084-.242.115-.084.03-.172.046-.264.046-.169,0-.334-.046-.495-.138-.161-.092-.279-.222-.356-.391-.092-.168-.138-.337-.138-.506,0-.398.168-.705.506-.92,1.87-1.227,3.415-2.783,4.635-4.669,1.219-1.886,2.104-4.063,2.656-6.532,0-.107-.046-.161-.138-.161h-.713c-.062,0-.107.039-.139.115-.261.997-.613,1.917-1.058,2.76-.445.843-.928,1.61-1.449,2.3s-1.043,1.288-1.563,1.794c-.521.506-.981.913-1.381,1.219-.169.123-.345.184-.528.184-.368,0-.637-.176-.806-.529-.046-.076-.076-.161-.092-.253-.016-.092-.022-.176-.022-.253,0-.414.161-.736.482-.966.997-.782,1.871-1.702,2.622-2.76s1.326-2.208,1.726-3.45c.03-.107-.009-.161-.115-.161h-1.127c-.092,0-.146.031-.161.092-.338.552-.687,1.062-1.047,1.53s-.717.878-1.069,1.23c-.169.169-.376.253-.621.253-.138,0-.275-.031-.414-.092-.138-.062-.253-.153-.345-.276-.153-.199-.23-.421-.23-.667,0-.307.107-.567.322-.782.751-.782,1.399-1.694,1.943-2.737.545-1.042.962-2.169,1.254-3.381.061-.245.188-.444.38-.598.191-.153.409-.23.655-.23.322,0,.578.115.771.345.191.23.257.491.195.782-.153.828-.399,1.641-.736,2.438Z"/>
          <path class="cls-2" d="m313.802,171.088v.046c0,.123.068.184.207.184.168-.031.333-.046.494-.046h.472c.781,0,1.418.107,1.909.322.49.215.865.491,1.127.828.26.337.44.698.54,1.081s.149.751.149,1.104v.299c0,.092-.008.176-.022.253-.062.797-.154,1.603-.276,2.415-.123.813-.257,1.552-.402,2.219-.146.667-.272,1.193-.38,1.576-.629,2.147-1.771,3.22-3.427,3.22-.798,0-1.733-.268-2.806-.805-.354-.199-.529-.491-.529-.874,0-.307.104-.556.311-.748.207-.191.433-.288.679-.288.184,0,.353.046.506.138.368.199.697.353.989.46.291.107.559.161.805.161.49,0,.886-.245,1.185-.736.299-.49.556-1.295.771-2.415.214-1.119.421-2.622.621-4.508.015-.061.022-.126.022-.195v-.196c0-.23-.046-.456-.138-.678s-.269-.406-.529-.552c-.261-.146-.659-.218-1.195-.218-.368,0-.828.046-1.381.138-.122.016-.199.084-.229.207-.354,1.38-.767,2.757-1.242,4.129s-1.009,2.683-1.599,3.933c-.59,1.25-1.223,2.389-1.897,3.416-.199.291-.468.437-.805.437-.185,0-.376-.062-.575-.184-.261-.215-.391-.49-.391-.828,0-.215.053-.399.161-.552.95-1.457,1.782-3.028,2.495-4.715.713-1.687,1.307-3.396,1.782-5.129,0-.015.004-.031.012-.046.008-.015.012-.03.012-.046,0-.107-.069-.146-.207-.115-.261.015-.529.034-.806.058-.275.023-.56.034-.851.034-.169,0-.345-.003-.529-.011-.184-.008-.383-.019-.598-.035-.245-.015-.452-.119-.621-.311-.169-.191-.253-.417-.253-.678,0-.292.111-.529.334-.713.222-.184.479-.268.77-.253.414.046.79.069,1.128.069s.663-.019.978-.057c.313-.038.655-.088,1.023-.149.106-.015.168-.077.184-.184.138-.675.257-1.338.356-1.99.1-.651.18-1.292.241-1.92.031-.261.146-.475.346-.644.198-.168.421-.253.667-.253.275,0,.509.107.701.322.191.215.272.468.241.759-.062.521-.134,1.054-.218,1.599-.085.544-.188,1.1-.311,1.667Zm7.359.322c.414.491.848,1.078,1.3,1.76s.889,1.407,1.311,2.173.809,1.526,1.162,2.277c.353.751.628,1.449.828,2.093.046.107.068.222.068.345,0,.215-.072.426-.218.633-.146.207-.342.356-.587.448-.062.016-.115.027-.161.035s-.1.011-.161.011c-.229,0-.437-.072-.621-.218-.184-.146-.314-.333-.391-.563-.276-1.012-.641-1.986-1.093-2.921-.452-.936-.951-1.806-1.495-2.611-.544-.805-1.092-1.499-1.645-2.082-.184-.214-.275-.46-.275-.736,0-.307.114-.56.345-.759.23-.184.49-.276.782-.276.337,0,.621.13.851.391Zm1.726-.092c-.354-.951-.874-1.725-1.564-2.323-.153-.153-.229-.337-.229-.552,0-.184.053-.337.16-.46.169-.169.36-.253.575-.253.153,0,.307.062.46.184.812.751,1.457,1.687,1.933,2.806.046.092.068.192.068.299,0,.337-.153.567-.46.69-.092.046-.184.069-.275.069-.322,0-.545-.153-.667-.46Zm3.22-1.426c.046.092.069.184.069.276,0,.322-.154.544-.461.667-.092.046-.184.069-.275.069-.307,0-.521-.153-.645-.46-.367-.935-.904-1.748-1.609-2.438-.153-.153-.23-.314-.23-.483,0-.199.069-.353.207-.46.153-.153.322-.23.506-.23.169,0,.33.062.483.184.444.399.812.816,1.104,1.253.292.437.575.978.852,1.622Z"/>
          <path class="cls-2" d="m295.462,34.812c.43.246.645.598.645,1.058,0,.276-.089.506-.265.69-.177.184-.388.276-.633.276-.062,0-.118-.012-.172-.035s-.111-.042-.173-.058c-.874-.414-1.729-.989-2.564-1.725-.836-.736-1.625-1.598-2.369-2.587-.744-.989-1.422-2.055-2.035-3.197s-1.127-2.319-1.541-3.531c-.016-.061-.043-.092-.081-.092s-.072.031-.104.092c-.552,1.671-1.303,3.24-2.254,4.704-.95,1.464-2.017,2.737-3.196,3.818-1.182,1.081-2.393,1.897-3.635,2.45-.107.046-.222.069-.345.069-.229,0-.44-.088-.633-.265-.191-.176-.287-.41-.287-.701,0-.46.207-.812.621-1.058,1.104-.598,2.17-1.372,3.197-2.323,1.026-.95,1.955-2.062,2.782-3.335.828-1.272,1.495-2.702,2.001-4.289.507-1.587.782-3.324.828-5.21,0-.061-.046-.092-.138-.092h-3.703c-.261,0-.491-.096-.689-.288-.2-.191-.3-.425-.3-.701s.096-.514.288-.713c.191-.199.426-.299.701-.299h4.347c.414,0,.771.149,1.07.449.299.299.448.655.448,1.069v1.196c.046,1.211.237,2.419.575,3.623.337,1.204.777,2.369,1.322,3.496.544,1.127,1.157,2.177,1.84,3.151.683.974,1.406,1.833,2.174,2.576.767.744,1.525,1.338,2.276,1.782Z"/>
          <path class="cls-2" d="m287.665,55.098c-.275.016-.514-.077-.713-.276s-.299-.437-.299-.713c0-.245.088-.452.265-.621.176-.168.387-.253.633-.253,1.042-.031,1.95-.196,2.725-.495s1.419-.679,1.933-1.139.9-.958,1.161-1.495.392-1.058.392-1.564c0-.46-.104-.881-.311-1.265s-.518-.682-.932-.897c-.215-.123-.441-.207-.679-.253-.238-.046-.487-.069-.747-.069-.599,0-1.235.107-1.909.322-.675.215-1.377.468-2.104.759-.729.292-1.469.544-2.22.759-.752.215-1.511.322-2.277.322-.275,0-.567-.023-.874-.069-.215-.031-.395-.138-.54-.322-.146-.184-.219-.391-.219-.621,0-.306.111-.544.334-.713.222-.168.479-.237.771-.207.106.016.207.027.299.035s.191.012.299.012c.659,0,1.33-.107,2.013-.322.682-.214,1.384-.467,2.104-.759s1.444-.544,2.173-.759c.729-.214,1.469-.322,2.22-.322h.276c.092,0,.184.008.275.023.828.077,1.53.326,2.104.748.575.422,1.013.951,1.312,1.587s.448,1.322.448,2.059c0,.721-.153,1.449-.46,2.185-.307.736-.782,1.418-1.426,2.047-.645.629-1.465,1.146-2.461,1.552-.997.407-2.186.648-3.565.725Z"/>
          <path class="cls-2" d="m290.379,67.725c-.076.016-.16.046-.253.092-1.549.997-2.752,2.135-3.61,3.416-.859,1.28-1.288,2.534-1.288,3.76,0,1.027.307,1.947.92,2.76.552.705,1.188,1.204,1.909,1.495.721.292,1.44.437,2.162.437.612,0,1.219-.084,1.816-.253.046-.015.092-.026.138-.034.047-.008.093-.012.139-.012.261,0,.486.088.679.265.191.176.287.418.287.724,0,.246-.073.476-.219.69s-.349.353-.609.414c-.337.092-.679.157-1.023.196-.345.038-.694.058-1.047.058-1.211,0-2.354-.261-3.427-.782s-1.939-1.257-2.599-2.208c-.322-.46-.575-.997-.759-1.61-.185-.613-.276-1.272-.276-1.978,0-1.012.229-2.078.69-3.197.46-1.119,1.249-2.215,2.368-3.289.046-.046.069-.092.069-.138,0-.077-.054-.107-.161-.092-1.304.138-2.645.207-4.024.207-1.15,0-2.301-.046-3.45-.138-.261-.015-.479-.123-.655-.322-.177-.199-.265-.429-.265-.69,0-.307.114-.56.345-.759.229-.199.49-.284.782-.253,1.104.092,2.192.138,3.266.138,1.84,0,3.596-.134,5.268-.402,1.671-.268,3.242-.67,4.715-1.208.122-.046.237-.069.345-.069.261,0,.502.096.725.287.222.192.333.441.333.748,0,.2-.054.388-.16.563-.108.177-.269.303-.483.38-.859.307-1.74.575-2.646.805Z"/>
          <path class="cls-2" d="m282.697,103.215c-.644,0-1.276-.215-1.897-.644s-1.181-1.027-1.679-1.794c-.499-.767-.897-1.656-1.196-2.668-.299-1.012-.448-2.093-.448-3.243,0-.782.08-1.587.241-2.415s.418-1.664.771-2.507c.169-.399.476-.598.92-.598.153,0,.291.031.414.092.199.092.349.223.448.391.1.169.149.345.149.529,0,.138-.022.268-.068.391-.338.751-.579,1.484-.725,2.197-.146.713-.219,1.407-.219,2.082,0,.889.104,1.71.311,2.461.207.751.479,1.403.816,1.955.337.552.697.981,1.081,1.288.383.307.744.46,1.081.46.276,0,.521-.115.736-.345.214-.23.375-.583.482-1.058.062-.276.196-.498.402-.667.207-.168.441-.253.702-.253.275,0,.506.1.689.299.185.2.276.422.276.667,0,.092-.008.161-.023.207-.475,2.116-1.563,3.174-3.266,3.174Zm10.925-4.324c-.337,0-.609-.123-.816-.368-.207-.245-.311-.544-.311-.897,0-1.134-.295-2.093-.886-2.875-.59-.782-1.422-1.318-2.495-1.61-.276-.077-.494-.241-.655-.495-.161-.253-.211-.509-.149-.771.076-.26.214-.475.414-.644.199-.169.421-.253.667-.253.046,0,.13.016.253.046.904.245,1.755.694,2.553,1.345.797.652,1.43,1.453,1.897,2.404s.655,2.009.563,3.174c-.016.261-.123.483-.322.667s-.437.276-.713.276Z"/>
          <path class="cls-2" d="m287.39,113.818c-1.013.506-2.17.912-3.474,1.219-.123.046-.191.115-.207.207-.521,1.58-1.153,3.224-1.897,4.934-.743,1.71-1.637,3.362-2.679,4.957-.185.307-.469.46-.852.46-.215,0-.406-.054-.575-.161-.291-.199-.437-.483-.437-.851,0-.23.054-.421.161-.575.904-1.411,1.687-2.813,2.346-4.209.659-1.395,1.227-2.76,1.702-4.094,0-.015.003-.03.012-.046.007-.015.011-.031.011-.046,0-.123-.068-.168-.207-.138-.307.016-.617.035-.931.058-.314.023-.625.035-.932.035h-.334c-.115,0-.233-.008-.356-.023-.261-.03-.476-.142-.644-.333-.169-.191-.253-.41-.253-.655,0-.276.104-.514.311-.713s.448-.299.724-.299c.507,0,1.027-.015,1.564-.046.536-.03,1.089-.084,1.656-.161.122-.03.191-.092.207-.184.168-.537.325-1.058.471-1.564.146-.506.28-1.004.403-1.495.122-.506.437-.759.942-.759.307,0,.553.104.736.311s.276.441.276.702c0,.107-.009.192-.023.253-.077.292-.165.602-.265.932s-.195.663-.287,1c0,.015-.004.027-.012.034-.008.008-.012.02-.012.035,0,.138.077.184.23.138.598-.199,1.188-.445,1.771-.736.185-.076.337-.115.46-.115.398,0,.683.176.852.529.061.123.092.276.092.46,0,.43-.184.744-.552.943Zm6.738,10.925c.261.184.392.445.392.782,0,.215-.069.414-.207.598-.185.261-.452.391-.805.391-.216,0-.407-.061-.575-.184-.308-.23-.671-.486-1.093-.771-.422-.283-.878-.548-1.368-.793-.031-.015-.069-.023-.115-.023-.092,0-.138.062-.138.184-.016.383-.119.809-.311,1.276-.192.468-.521.871-.989,1.208s-1.131.506-1.989.506c-.813,0-1.519-.157-2.116-.471-.599-.314-1.059-.717-1.38-1.208-.322-.491-.483-.997-.483-1.518,0-.46.138-.893.414-1.299s.705-.736,1.288-.989,1.334-.379,2.254-.379h.38c.13,0,.256.008.379.023h.046c.139,0,.192-.069.161-.207-.046-.506-.068-.966-.068-1.38,0-.889.1-1.618.299-2.185.199-.567.464-1.012.793-1.334.33-.322.679-.567,1.047-.736.184-.077.176-.13-.023-.161-.199-.015-.406-.023-.621-.023h-.62c-.262,0-.487-.088-.679-.265-.192-.176-.288-.402-.288-.679,0-.26.089-.486.265-.678.177-.191.402-.295.679-.311,1.119-.046,2.031.039,2.737.253.705.215,1.223.495,1.552.839.33.345.495.687.495,1.024,0,.291-.119.548-.356.771-.238.222-.579.356-1.023.402-.844.077-1.449.28-1.817.609-.368.33-.552.932-.552,1.806,0,.322.022.687.069,1.092.046.407.106.855.184,1.346.015.107.1.192.253.253.828.292,1.579.648,2.254,1.069.675.422,1.234.809,1.679,1.162Zm-8.832.713c.169.184.406.337.714.46.306.123.605.184.896.184.398,0,.739-.142,1.023-.425.283-.284.387-.786.311-1.507-.016-.123-.1-.207-.253-.253-.199-.061-.395-.104-.587-.126-.191-.023-.371-.034-.54-.034-.537,0-.985.096-1.346.287-.36.192-.54.441-.54.748,0,.23.106.453.321.667Z"/>
          <path class="cls-2" d="m280.489,133.092c.322,0,.567.104.736.311.168.207.253.441.253.701,0,.123-.023.246-.069.368-.858,2.224-1.288,4.554-1.288,6.992,0,2.223.36,4.569,1.081,7.038.016.046.026.092.035.138.007.046.011.092.011.138,0,.245-.096.475-.287.69-.192.215-.434.322-.725.322-.46,0-.767-.222-.92-.667-.399-1.334-.687-2.625-.862-3.875-.177-1.25-.265-2.434-.265-3.553,0-1.61.142-3.086.426-4.428.283-1.341.616-2.526,1-3.553.153-.414.444-.621.874-.621Zm14.283,4.853c0,.245-.081.471-.241.678-.161.207-.372.333-.633.38-.828.153-1.679.291-2.553.414-.139.016-.207.092-.207.23v.782c0,1.61-.153,3.067-.46,4.37-.308,1.303-.867,2.43-1.68,3.381s-1.985,1.725-3.519,2.323c-.107.046-.23.069-.368.069-.245,0-.476-.092-.69-.276-.215-.184-.321-.437-.321-.759,0-.214.061-.414.184-.598.123-.184.284-.314.483-.391.858-.353,1.575-.755,2.15-1.208s1.035-1.004,1.38-1.656c.345-.651.587-1.449.725-2.392.138-.943.199-2.089.184-3.438,0-.153-.068-.23-.207-.23-.705.046-1.418.069-2.139.069-.69,0-1.388-.023-2.093-.069-.706-.046-1.411-.107-2.116-.184-.245-.03-.452-.141-.621-.333-.169-.191-.253-.41-.253-.655,0-.307.111-.552.333-.736.223-.184.479-.261.771-.23.659.077,1.354.142,2.082.195s1.476.081,2.242.081c.276,0,.56-.003.852-.012.291-.007.582-.019.874-.034.138-.031.199-.107.184-.23-.031-.567-.084-1.123-.161-1.667s-.176-1.162-.299-1.852c-.046-.307.026-.579.219-.816.191-.238.44-.357.747-.357.261,0,.491.077.69.23.199.154.322.361.368.621.168,1.012.291,2.224.367,3.634.031.138.107.199.23.184.383-.062.767-.13,1.15-.207.383-.077.767-.161,1.149-.253.062-.015.146-.023.253-.023.261,0,.483.088.667.265.185.176.276.411.276.702Z"/>
          <path class="cls-2" d="m295.808,169.271c.199.2.299.43.299.69,0,.291-.107.529-.322.713-.721.629-1.449,1.135-2.185,1.518-.185.092-.392.169-.621.23-.23.061-.476.092-.736.092-.476,0-.947-.138-1.414-.414-.468-.276-.859-.771-1.173-1.483-.314-.713-.472-1.713-.472-3.001,0-.644.05-1.369.149-2.173.1-.805.249-1.698.448-2.68.016-.077.03-.153.046-.23s.023-.153.023-.23c0-.123-.031-.226-.092-.311-.062-.084-.192-.126-.392-.126-.307,0-.82.153-1.541.46-.751.337-1.487.713-2.208,1.127s-1.434.89-2.139,1.426c-.077.077-.115.161-.115.253,0,1.349.042,2.706.127,4.071.084,1.365.203,2.668.356,3.91.03.291-.055.56-.253.805-.2.245-.453.368-.76.368-.245,0-.46-.081-.644-.242-.184-.161-.299-.364-.345-.609-.107-.812-.2-1.755-.276-2.829-.077-1.073-.131-2.2-.161-3.381,0-.107-.022-.172-.069-.195-.046-.023-.107.004-.184.081-.337.399-.667.824-.989,1.276-.321.453-.636.932-.942,1.438-.016.046-.031.084-.046.115-.016.031-.039.069-.069.115-.092.246-.188.499-.287.759-.101.261-.188.521-.265.782-.062.199-.181.36-.356.483-.177.123-.372.184-.587.184-.291,0-.521-.1-.689-.299-.169-.199-.254-.422-.254-.667,0-.062.004-.119.012-.173.008-.053.02-.111.035-.172.49-1.288,1.146-2.683,1.966-4.186.82-1.502,1.714-2.952,2.68-4.347.062-.076.092-.13.092-.161v-.023c-.659.123-1.33.23-2.013.322-.682.092-1.299.153-1.851.184-.276.015-.515-.073-.714-.265-.199-.191-.299-.425-.299-.702s.1-.509.299-.701c.199-.191.43-.288.69-.288.552-.031,1.161-.077,1.828-.138.667-.061,1.323-.153,1.967-.276.107-.015.176-.092.207-.23.092-1.441.23-2.729.414-3.864.03-.23.138-.418.322-.563.184-.146.398-.219.644-.219.322,0,.583.126.782.379s.268.533.207.84c-.077.445-.142.924-.195,1.438-.055.514-.111,1.062-.173,1.645v.046c0,.077.062.13.184.161.185.016.346.084.483.207.245.2.368.445.368.736,0,.23-.085.445-.253.644-.062.077-.131.161-.207.253-.077.092-.153.184-.23.276-.062.062-.229.261-.506.598v.023c.904-.644,1.786-1.181,2.646-1.61.858-.429,1.641-.729,2.346-.897.261-.062.506-.107.736-.138.229-.031.444-.046.644-.046,1.41,0,2.116.721,2.116,2.162,0,.2-.016.403-.046.61-.031.207-.069.433-.115.678-.199.905-.345,1.733-.437,2.484-.093.751-.139,1.411-.139,1.978,0,1.733.398,2.599,1.196,2.599.536,0,1.227-.421,2.07-1.265.184-.199.421-.299.713-.299.26,0,.482.092.667.276Z"/>
          <path class="cls-2" d="m279.822,179.092c.291,0,.529.107.713.322.185.215.276.453.276.713,0,.046-.004.092-.012.138s-.02.092-.034.138c-.292.997-.537,2.2-.736,3.611-.199,1.411-.299,2.921-.299,4.531,0,1.135.064,2.292.195,3.473.13,1.181.341,2.354.633,3.519.015.046.022.092.022.138v.115c0,.261-.092.499-.275.713-.185.214-.422.322-.713.322-.216,0-.407-.065-.575-.195-.169-.131-.284-.311-.346-.541-.307-1.227-.536-2.507-.689-3.841s-.23-2.675-.23-4.025c0-1.502.093-2.971.276-4.404s.46-2.779.828-4.037c.076-.214.203-.383.379-.506.177-.123.372-.184.587-.184Zm14.237,14.697c.275.184.414.445.414.782,0,.215-.069.429-.207.644-.185.261-.453.391-.806.391-.199,0-.398-.061-.598-.184-.782-.567-1.587-1.02-2.415-1.357-.031-.015-.062-.023-.092-.023-.077,0-.131.054-.161.161-.215.89-.671,1.568-1.368,2.036-.698.467-1.599.701-2.703.701-.797,0-1.51-.13-2.139-.391-.629-.261-1.123-.613-1.483-1.058-.36-.444-.541-.943-.541-1.495,0-.674.177-1.215.529-1.622.353-.406.836-.701,1.449-.885s1.296-.276,2.047-.276c.705,0,1.426.069,2.162.207h.046c.122,0,.184-.062.184-.184,0-.797-.022-1.656-.068-2.576s-.101-1.84-.161-2.76c-.016-.138-.092-.207-.23-.207-.904.046-1.836.081-2.794.104-.959.023-1.905.034-2.841.034-.275,0-.51-.1-.701-.299-.192-.199-.288-.437-.288-.713s.1-.51.3-.702c.198-.191.437-.288.713-.288h.896c.721,0,1.473-.011,2.254-.034.782-.023,1.549-.05,2.301-.081.152,0,.214-.069.184-.207-.062-.705-.127-1.361-.195-1.967-.069-.605-.143-1.13-.219-1.575-.046-.291.026-.552.219-.782.191-.23.44-.345.747-.345.245,0,.46.077.645.23.184.153.299.36.345.621.076.46.153,1.012.229,1.656.077.644.146,1.334.207,2.07.031.138.107.2.23.184,1.042-.046,1.97-.115,2.783-.207.291-.03.54.046.747.23s.311.422.311.713c0,.245-.088.471-.265.678-.176.207-.395.326-.655.356-.384.031-.809.065-1.276.104-.468.039-.963.073-1.483.104-.139.031-.199.107-.185.23.077,1.027.139,2.066.185,3.117s.068,2.012.068,2.886c0,.123.062.207.185.253.659.23,1.288.487,1.886.771.598.284,1.135.602,1.61.955Zm-7.936,1.15c.675,0,1.181-.099,1.519-.299.337-.199.552-.537.644-1.012v-.046c0-.107-.062-.176-.184-.207-.384-.076-.768-.13-1.15-.161s-.774-.046-1.173-.046c-.629,0-1.085.073-1.368.219-.284.146-.426.326-.426.541,0,.246.191.476.575.69.383.215.904.322,1.563.322Zm4.692-15.479c-.153-.138-.23-.322-.23-.552,0-.184.054-.337.161-.46.169-.168.36-.253.575-.253.153,0,.307.062.46.184.429.383.797.801,1.104,1.253.307.452.582.97.827,1.552.047.092.069.192.069.299,0,.337-.153.567-.46.69-.092.046-.184.069-.276.069-.321,0-.544-.153-.667-.46-.353-.951-.874-1.725-1.563-2.323Zm4.784.897c.046.092.068.184.068.276,0,.199-.065.372-.195.518s-.303.218-.518.218c-.307,0-.521-.153-.644-.46-.199-.475-.43-.912-.69-1.311-.261-.398-.575-.774-.942-1.127-.154-.153-.23-.314-.23-.483,0-.199.069-.353.207-.46.153-.153.322-.23.506-.23.169,0,.33.062.483.184.444.398.812.816,1.104,1.253s.575.978.852,1.622Z"/>
          <path class="cls-2" d="m264.221,24.853c0,.246-.093.46-.276.644s-.406.269-.667.253c-.997-.03-1.955.023-2.875.161-.92.138-1.81.33-2.668.575-.062.015-.138.046-.23.092-.904.537-1.587,1.097-2.047,1.679-.46.583-.771,1.135-.932,1.656-.16.521-.241.974-.241,1.357,0,.169.012.318.034.449.023.13.043.234.058.311.185.69.69,1.223,1.519,1.599.828.375,1.863.563,3.104.563.322,0,.651-.012.989-.035.337-.023.69-.065,1.058-.126.261-.031.495.039.702.207.207.169.311.383.311.644,0,.292-.097.544-.288.759s-.425.337-.701.368c-.307.015-.605.034-.897.058-.291.023-.574.034-.851.034-1.901,0-3.45-.311-4.646-.931-1.196-.621-1.933-1.499-2.208-2.634-.093-.398-.139-.79-.139-1.173,0-.583.096-1.142.288-1.679.191-.537.448-1.042.771-1.518.061-.076.076-.13.046-.161-.031-.031-.085-.031-.161,0-.752.292-1.495.556-2.231.793-.735.238-1.464.441-2.185.609-.046.016-.107.023-.185.023-.199,0-.379-.065-.54-.195s-.257-.295-.287-.495c-.016-.061-.023-.146-.023-.253,0-.398.169-.728.506-.989,1.656-1.15,3.062-2.312,4.221-3.484,1.157-1.173,2.174-2.304,3.048-3.393.03-.03.046-.077.046-.138,0-.092-.069-.115-.207-.069-.552.2-1.188.372-1.909.518-.721.146-1.533.265-2.438.356-.275.016-.521-.069-.735-.253-.215-.184-.322-.421-.322-.713,0-.261.092-.487.276-.679.184-.191.398-.295.644-.311.966-.076,1.89-.195,2.771-.356.882-.161,1.622-.433,2.22-.816.261-.168.494-.284.701-.345.207-.062.402-.092.587-.092.337,0,.605.073.805.219s.33.257.392.333c.214.292.321.621.321.989,0,.246-.046.491-.138.736-.092.246-.238.476-.438.69-.735.797-1.525,1.652-2.368,2.564-.844.912-1.779,1.828-2.807,2.749-.046.046-.068.092-.068.138,0,.077.061.092.184.046,1.119-.429,2.192-.828,3.22-1.196s2.097-.659,3.209-.874c1.111-.214,2.334-.314,3.668-.299.291,0,.533.1.725.299.191.2.288.445.288.736Z"/>
          <path class="cls-2" d="m256.906,57.95c-.291.031-.56-.061-.805-.276-.246-.215-.368-.483-.368-.805,0-.245.084-.46.253-.644s.376-.299.621-.345c1.87-.291,3.308-.92,4.312-1.886,1.004-.966,1.507-2.2,1.507-3.703,0-.889-.216-1.702-.645-2.438-.43-.736-1.016-1.33-1.76-1.782-.743-.452-1.575-.702-2.495-.748-.123,0-.199.062-.23.184-.321,1.457-.717,2.848-1.184,4.174-.469,1.327-.997,2.507-1.588,3.542-.59,1.035-1.219,1.852-1.886,2.45-.667.598-1.36.897-2.081.897-.185,0-.368-.023-.553-.069-.767-.184-1.345-.644-1.736-1.38-.391-.736-.586-1.602-.586-2.599,0-.904.157-1.847.472-2.829.313-.981.785-1.901,1.414-2.76.904-1.227,2.013-2.139,3.323-2.737,1.312-.598,2.634-.897,3.968-.897,1.104,0,2.158.192,3.162.575,1.005.384,1.879.955,2.622,1.714.744.759,1.269,1.69,1.576,2.794.184.613.275,1.257.275,1.932,0,.828-.149,1.656-.448,2.484-.299.828-.756,1.598-1.368,2.312-.614.713-1.399,1.319-2.357,1.817-.959.499-2.098.839-3.416,1.023Zm-7.015-3.887c.184.322.414.483.689.483.368,0,.771-.268,1.208-.805.437-.537.87-1.242,1.299-2.116.43-.874.828-1.828,1.196-2.863s.659-2.043.874-3.024v-.023c0-.107-.092-.161-.275-.161-.047,0-.093.004-.139.012s-.092.019-.138.034c-.89.261-1.652.656-2.289,1.185-.636.529-1.157,1.131-1.563,1.806s-.705,1.353-.897,2.035c-.191.683-.287,1.315-.287,1.897,0,.644.107,1.158.322,1.541Z"/>
          <path class="cls-2" d="m262.933,68.255c-.645.031-1.415.073-2.312.126-.897.054-1.844.111-2.841.172-.138.016-.207.092-.207.23.03.368.05.744.058,1.127.008.383.019.774.034,1.173,0,.138.069.2.207.184.645-.046,1.272-.107,1.887-.184.612-.076,1.203-.168,1.771-.276.307-.046.583.027.828.219s.368.448.368.771c0,.23-.073.437-.219.621-.146.184-.334.292-.563.322-.613.107-1.262.203-1.943.288-.683.084-1.369.149-2.059.195-.138.016-.207.092-.207.23.03.583.05,1.143.058,1.679s.019,1.027.034,1.472c0,.138.062.215.185.23.674.184,1.376.414,2.104.69.728.276,1.49.613,2.288,1.012.414.215.621.552.621,1.012,0,.322-.1.571-.299.748-.2.176-.43.264-.69.264-.184,0-.345-.038-.482-.115-.553-.322-1.132-.633-1.737-.932s-1.245-.556-1.92-.771c-.016-.015-.046-.023-.092-.023-.093,0-.146.054-.161.161-.46,2.009-1.825,3.013-4.095,3.013-.598,0-1.161-.107-1.69-.322-.528-.215-.978-.51-1.345-.886-.368-.375-.621-.801-.76-1.276-.046-.184-.068-.368-.068-.552,0-.721.383-1.334,1.149-1.84.767-.506,1.863-.759,3.289-.759.23,0,.472.008.725.023.253.016.51.039.771.069.153,0,.23-.069.23-.207-.016-.383-.027-.79-.035-1.219s-.026-.882-.058-1.357c0-.138-.068-.207-.206-.207-.262.015-.521.023-.782.023h-.759c-.537,0-1.051-.012-1.541-.035-.491-.023-.943-.049-1.357-.081-.261-.015-.479-.119-.655-.311-.177-.191-.265-.41-.265-.655,0-.307.111-.556.333-.748.223-.191.472-.28.748-.265.49.031.978.058,1.46.081.483.023.963.035,1.438.035h.667c.23,0,.452-.008.667-.023.139,0,.207-.069.207-.207-.015-.383-.03-.763-.046-1.139-.016-.375-.03-.748-.046-1.115,0-.153-.068-.215-.207-.184-1.257.077-2.453.157-3.588.241-1.135.084-2.055.142-2.76.173-.276.015-.514-.077-.713-.276-.2-.199-.299-.444-.299-.736,0-.261.092-.483.275-.667.185-.184.398-.284.645-.299.705-.031,1.625-.092,2.76-.184,1.135-.092,2.33-.176,3.588-.253.138-.031.207-.107.207-.23-.016-.399-.034-.767-.058-1.104-.022-.337-.034-.636-.034-.897,0-.276.096-.514.287-.713.191-.199.434-.299.725-.299.261,0,.483.088.667.265s.283.395.299.655c.016.261.031.556.046.886.016.33.031.687.046,1.069,0,.138.069.2.207.184.967-.061,1.894-.119,2.783-.172s1.679-.088,2.369-.104c.291-.015.532.077.725.276.191.199.287.445.287.736,0,.261-.092.483-.275.667-.185.184-.406.284-.667.299Zm-9.2,11.661c.689,0,1.181-.149,1.472-.448.291-.299.476-.656.552-1.07,0-.015.004-.026.012-.034s.012-.019.012-.035c0-.107-.062-.161-.184-.161-.308-.046-.621-.08-.943-.104-.322-.023-.652-.019-.989.012-.721.016-1.242.107-1.563.276-.322.169-.483.36-.483.575,0,.246.191.472.575.678.383.207.896.311,1.541.311Z"/>
          <path class="cls-2" d="m262.933,91.255c-.645.031-1.415.073-2.312.126-.897.054-1.844.111-2.841.172-.138.016-.207.092-.207.23.03.368.05.744.058,1.127.008.383.019.774.034,1.173,0,.138.069.2.207.184.645-.046,1.272-.107,1.887-.184.612-.076,1.203-.168,1.771-.276.307-.046.583.027.828.219s.368.448.368.771c0,.23-.073.437-.219.621-.146.184-.334.292-.563.322-.613.107-1.262.203-1.943.288-.683.084-1.369.149-2.059.195-.138.016-.207.092-.207.23.03.583.05,1.143.058,1.679s.019,1.027.034,1.472c0,.138.062.215.185.23.674.184,1.376.414,2.104.69.728.276,1.49.613,2.288,1.012.414.215.621.552.621,1.012,0,.322-.1.571-.299.748-.2.176-.43.264-.69.264-.184,0-.345-.038-.482-.115-.553-.322-1.132-.633-1.737-.932s-1.245-.556-1.92-.771c-.016-.015-.046-.023-.092-.023-.093,0-.146.054-.161.161-.46,2.009-1.825,3.013-4.095,3.013-.598,0-1.161-.107-1.69-.322-.528-.215-.978-.51-1.345-.886-.368-.375-.621-.801-.76-1.276-.046-.184-.068-.368-.068-.552,0-.721.383-1.334,1.149-1.84.767-.506,1.863-.759,3.289-.759.23,0,.472.008.725.023.253.016.51.039.771.069.153,0,.23-.069.23-.207-.016-.383-.027-.79-.035-1.219s-.026-.882-.058-1.357c0-.138-.068-.207-.206-.207-.262.015-.521.023-.782.023h-.759c-.537,0-1.051-.012-1.541-.035-.491-.023-.943-.049-1.357-.081-.261-.015-.479-.119-.655-.311-.177-.191-.265-.41-.265-.655,0-.307.111-.556.333-.748.223-.191.472-.28.748-.265.49.031.978.058,1.46.081.483.023.963.035,1.438.035h.667c.23,0,.452-.008.667-.023.139,0,.207-.069.207-.207-.015-.383-.03-.763-.046-1.139-.016-.375-.03-.748-.046-1.115,0-.153-.068-.215-.207-.184-1.257.077-2.453.157-3.588.241-1.135.084-2.055.142-2.76.173-.276.015-.514-.077-.713-.276-.2-.199-.299-.444-.299-.736,0-.261.092-.483.275-.667.185-.184.398-.284.645-.299.705-.031,1.625-.092,2.76-.184,1.135-.092,2.33-.176,3.588-.253.138-.031.207-.107.207-.23-.016-.399-.034-.767-.058-1.104-.022-.337-.034-.636-.034-.897,0-.276.096-.514.287-.713.191-.199.434-.299.725-.299.261,0,.483.088.667.265s.283.395.299.655c.016.261.031.556.046.886.016.33.031.687.046,1.069,0,.138.069.2.207.184.967-.061,1.894-.119,2.783-.172s1.679-.088,2.369-.104c.291-.015.532.077.725.276.191.199.287.445.287.736,0,.261-.092.483-.275.667-.185.184-.406.284-.667.299Zm-9.2,11.661c.689,0,1.181-.149,1.472-.448.291-.299.476-.656.552-1.07,0-.015.004-.026.012-.034s.012-.019.012-.035c0-.107-.062-.161-.184-.161-.308-.046-.621-.08-.943-.104-.322-.023-.652-.019-.989.012-.721.016-1.242.107-1.563.276-.322.169-.483.36-.483.575,0,.246.191.472.575.678.383.207.896.311,1.541.311Z"/>
          <path class="cls-2" d="m260.839,118.234c.89.245,1.622.617,2.197,1.115.574.499,1.004,1.069,1.288,1.713.283.644.425,1.304.425,1.978,0,.813-.195,1.587-.586,2.323-.392.736-.959,1.338-1.702,1.806-.744.467-1.66.701-2.749.701-1.533,0-2.714-.452-3.542-1.357-.153-.168-.229-.375-.229-.621,0-.307.122-.575.368-.805.168-.153.375-.23.621-.23.291,0,.536.092.735.276.307.245.641.429,1.001.552.36.123.717.184,1.069.184.536,0,1.035-.107,1.495-.322s.835-.518,1.127-.909c.291-.391.437-.839.437-1.346,0-.076-.004-.149-.011-.218-.008-.069-.02-.134-.035-.195-.169-.997-.621-1.748-1.356-2.254-.736-.506-1.648-.759-2.737-.759-.644,0-1.334.092-2.07.276-.735.184-1.487.476-2.254.874-.107.046-.161.123-.161.23.016.751.008,1.507-.022,2.266-.031.759-.085,1.499-.161,2.22-.184,1.411-.851,2.116-2.001,2.116-.506,0-1.058-.123-1.656-.368-.735-.306-1.368-.663-1.897-1.069s-.793-.909-.793-1.506c0-.383.138-.809.414-1.277.275-.467.735-.992,1.38-1.575.858-.767,1.725-1.426,2.599-1.978.092-.077.138-.161.138-.253-.015-.613-.038-1.208-.068-1.783-.031-.575-.069-1.138-.115-1.69-.016-.123-.092-.176-.23-.161-1.241.215-2.515.353-3.817.414-.292.016-.533-.077-.725-.276-.192-.199-.287-.444-.287-.736,0-.261.095-.483.287-.667.191-.184.41-.284.655-.299.629-.03,1.254-.081,1.875-.149s1.215-.157,1.782-.265c.153-.03.215-.115.184-.253-.092-.628-.191-1.219-.299-1.771-.107-.552-.223-1.058-.345-1.518-.016-.046-.023-.092-.023-.138v-.115c0-.26.084-.486.253-.678s.399-.288.69-.288c.229,0,.44.065.633.195.191.13.317.318.379.563.123.445.237.947.346,1.507.106.56.206,1.154.299,1.782.03.153.106.207.229.161.353-.092.69-.191,1.013-.299.321-.107.628-.222.92-.345.138-.046.268-.069.391-.069.199,0,.383.05.552.149s.291.241.368.425c.062.123.092.261.092.414,0,.414-.199.706-.598.874-.399.153-.809.303-1.23.449s-.855.28-1.3.402c-.138.031-.191.107-.161.23.031.46.065.924.104,1.392s.065.947.081,1.438c.03.169.13.215.299.138,1.456-.598,2.875-.897,4.255-.897.767,0,1.495.092,2.185.276Zm-10.694,6.992c.49.246.862.434,1.115.563.253.13.434.196.541.196.122,0,.191-.065.207-.196.015-.13.03-.318.046-.563.03-.26.053-.636.068-1.127.016-.491.031-.974.046-1.449,0-.199-.084-.245-.253-.138-.337.246-.651.495-.942.748-.292.253-.553.502-.782.748-.368.368-.552.629-.552.782,0,.092.046.169.138.23.092.062.215.13.368.207Zm15.134-9.43c.276.184.414.452.414.805,0,.23-.069.437-.207.621-.184.261-.438.391-.759.391-.215,0-.414-.069-.599-.207-1.181-.843-2.606-1.334-4.277-1.472-.246-.03-.46-.142-.645-.333-.184-.191-.275-.41-.275-.655,0-.291.106-.537.321-.736.215-.199.468-.283.76-.253.996.062,1.946.253,2.852.575.904.322,1.71.744,2.415,1.265Z"/>
          <path class="cls-2" d="m256.446,149.605h8.396c.275,0,.509.1.701.299.191.199.287.437.287.713s-.096.514-.287.713c-.192.199-.426.299-.701.299h-8.396c-2.821,0-4.945-.798-6.371-2.392-.046-.077-.107-.077-.184,0-.384.46-.824.913-1.323,1.357-.498.444-.985.82-1.46,1.127-.062.046-.131.077-.207.092-.077.015-.153.023-.23.023-.383,0-.651-.184-.805-.552-.062-.123-.092-.253-.092-.391,0-.414.169-.728.506-.943.398-.276.832-.636,1.3-1.081.468-.444.877-.927,1.23-1.449.03-.062.046-.115.046-.161v-5.014c0-.092-.046-.138-.138-.138h-1.588c-.275,0-.51-.1-.701-.299-.191-.199-.287-.429-.287-.69,0-.276.096-.51.287-.702.191-.191.426-.287.701-.287h2.231c.414,0,.771.149,1.069.448s.448.656.448,1.069v5.244c0,.077.016.13.047.161.582.89,1.307,1.538,2.173,1.943.866.407,1.981.609,3.347.609Zm-9.729-14.881c-.23-.046-.418-.165-.563-.356-.146-.191-.219-.41-.219-.655,0-.276.1-.502.299-.679s.422-.265.667-.265h.115c.046,0,.084.008.114.023.521.108,1.093.257,1.714.449.621.192,1.223.402,1.806.632.229.092.406.242.529.449.122.207.184.433.184.678,0,.261-.088.476-.265.644-.176.169-.379.253-.609.253-.107,0-.223-.023-.345-.069-.491-.214-1.039-.421-1.645-.621-.606-.199-1.2-.36-1.782-.483Zm5.796.989c-.262,0-.491-.096-.69-.288-.199-.191-.299-.426-.299-.702v-1.173c0-.414.149-.771.448-1.069.299-.299.655-.449,1.069-.449h11.247c.414,0,.771.146,1.069.437.3.292.449.652.449,1.081v1.173c0,.261-.097.491-.288.69-.191.2-.418.299-.678.299-.262,0-.491-.096-.69-.288-.199-.191-.299-.426-.299-.702v-.667c0-.092-.046-.138-.139-.138h-4.369c-.123,0-.139.046-.047.138.215.184.322.422.322.713v.368c0,.092.046.138.139.138h3.266c.261,0,.486.092.679.276.191.184.287.406.287.667,0,.246-.096.464-.287.655-.192.192-.418.288-.679.288h-3.266c-.093,0-.139.046-.139.138v.46c0,.092.046.138.139.138h2.714c.414,0,.771.146,1.069.437.299.291.448.652.448,1.081v4.14c0,.414-.149.771-.448,1.069-.299.299-.655.449-1.069.449h-2.714c-.093,0-.139.046-.139.138v.483c0,.092.046.138.139.138h4.853c.261,0,.486.092.679.276.191.184.287.406.287.667,0,.245-.096.464-.287.655-.192.192-.418.288-.679.288h-4.853c-.093,0-.139.046-.139.138v.621c0,.246-.092.464-.275.656-.185.192-.407.288-.667.288-.262,0-.487-.096-.679-.288-.192-.191-.288-.41-.288-.656v-.621c0-.092-.046-.138-.138-.138h-4.853c-.246,0-.464-.092-.656-.276-.191-.184-.287-.406-.287-.667s.092-.483.276-.667c.184-.184.405-.276.667-.276h4.853c.092,0,.138-.046.138-.138v-.483c0-.092-.046-.138-.138-.138h-2.69c-.414,0-.771-.146-1.07-.437-.299-.291-.448-.651-.448-1.081v-4.14c0-.414.146-.771.438-1.069.291-.299.651-.448,1.081-.448h2.69c.092,0,.138-.046.138-.138v-.46c0-.092-.046-.138-.138-.138h-3.243c-.261,0-.486-.092-.679-.276-.191-.184-.287-.406-.287-.667s.096-.483.287-.667c.192-.184.418-.276.679-.276h3.243c.092,0,.138-.046.138-.138v-.368c0-.276.115-.513.346-.713.092-.092.076-.138-.046-.138h-4.394c-.092,0-.138.046-.138.138v.667c0,.276-.096.51-.288.702-.191.192-.418.288-.678.288Zm5.06,4.853c.092,0,.138-.046.138-.138v-.529c0-.092-.046-.138-.138-.138h-2.162c-.092,0-.138.046-.138.138v.529c0,.092.046.138.138.138h2.162Zm-2.162,1.84c-.092,0-.138.046-.138.138v.529c0,.092.046.138.138.138h2.162c.092,0,.138-.046.138-.138v-.529c0-.092-.046-.138-.138-.138h-2.162Zm6.532-1.84c.092,0,.138-.046.138-.138v-.529c0-.092-.046-.138-.138-.138h-2.185c-.093,0-.139.046-.139.138v.529c0,.092.046.138.139.138h2.185Zm-2.185,1.84c-.093,0-.139.046-.139.138v.529c0,.092.046.138.139.138h2.185c.092,0,.138-.046.138-.138v-.529c0-.092-.046-.138-.138-.138h-2.185Z"/>
          <path class="cls-2" d="m253.641,173.687c-1.135,0-2.104-.276-2.91-.828-.805-.552-1.422-1.288-1.852-2.208-.429-.92-.644-1.94-.644-3.059,0-1.089.219-2.227.655-3.416.438-1.188,1.107-2.319,2.013-3.393.046-.046.069-.092.069-.138,0-.061-.062-.076-.185-.046-.521.138-1.065.207-1.633.207-.199,0-.402-.011-.609-.035-.207-.023-.41-.049-.609-.08-.23-.046-.414-.161-.552-.345-.139-.184-.207-.398-.207-.644,0-.291.095-.525.287-.702.191-.176.418-.264.679-.264h.115c.046,0,.084.008.114.023.169.031.33.054.483.069.153.016.307.023.46.023.598,0,1.165-.088,1.702-.264.536-.176,1.027-.38,1.472-.61s.82-.414,1.127-.552c.185-.092.368-.138.552-.138.307,0,.571.104.794.311.222.207.333.464.333.771,0,.2-.054.402-.16.609-.107.207-.292.418-.553.633-1.717,1.61-2.913,3.093-3.588,4.45s-1.012,2.55-1.012,3.577c0,.767.146,1.438.437,2.013.291.575.659,1.031,1.104,1.368.444.337.904.544,1.38.621.23.046.476.069.736.069.536,0,1.073-.107,1.609-.322.537-.214,1.027-.563,1.473-1.046.444-.483.801-1.127,1.069-1.932.268-.805.402-1.797.402-2.979v-.632c0-.207-.016-.418-.046-.633-.031-.398-.062-.881-.092-1.449-.031-.567-.055-1.131-.069-1.69-.016-.56-.027-1.027-.034-1.403-.008-.375-.012-.579-.012-.609,0-.414.13-.736.391-.966s.553-.345.874-.345c.215,0,.418.054.609.161.192.107.342.284.449.529.307.644.628,1.242.966,1.794.337.552.743,1.081,1.219,1.587.476.506,1.073,1.02,1.794,1.541.322.23.483.544.483.943,0,.322-.096.571-.288.748-.191.176-.402.264-.632.264-.2,0-.36-.053-.483-.161-.613-.414-1.185-.874-1.714-1.38-.528-.506-.977-.997-1.345-1.472-.062-.061-.115-.092-.161-.092s-.069.039-.069.115c0,.368.012.782.034,1.242.023.46.05.905.081,1.334.03.43.038.782.022,1.058-.046,1.564-.345,2.929-.896,4.094-.552,1.166-1.312,2.07-2.277,2.714s-2.085.966-3.357.966Zm9.844-13.938c-.307,0-.521-.153-.645-.46-.184-.49-.395-.916-.632-1.276-.238-.36-.541-.709-.908-1.046-.169-.138-.254-.322-.254-.552,0-.153.062-.307.185-.46.138-.168.322-.253.552-.253.169,0,.33.062.483.184.797.736,1.434,1.679,1.909,2.829.046.092.068.184.068.276,0,.199-.073.376-.219.529-.146.154-.325.23-.54.23Zm1.932-.851c-.307,0-.521-.153-.644-.46-.354-.935-.897-1.755-1.633-2.461-.139-.138-.207-.299-.207-.483s.061-.337.184-.46c.153-.153.33-.23.529-.23.153,0,.307.062.46.184.444.414.812.836,1.104,1.265s.575.966.852,1.61c.046.092.068.184.068.276,0,.2-.065.376-.195.529-.13.154-.303.23-.518.23Z"/>
          <path class="cls-2" d="m222.697,34.215c-.644,0-1.276-.215-1.897-.644s-1.181-1.027-1.679-1.794c-.499-.767-.897-1.656-1.196-2.668-.299-1.012-.448-2.093-.448-3.243,0-.782.08-1.587.241-2.415s.418-1.664.771-2.507c.169-.399.476-.598.92-.598.153,0,.291.031.414.092.199.092.349.223.448.391.1.169.149.345.149.529,0,.138-.022.268-.068.391-.338.751-.579,1.484-.725,2.197-.146.713-.219,1.407-.219,2.082,0,.889.104,1.71.311,2.461.207.751.479,1.403.816,1.955.337.552.697.981,1.081,1.288.383.307.744.46,1.081.46.276,0,.521-.115.736-.345.214-.23.375-.583.482-1.058.062-.276.196-.498.402-.667.207-.168.441-.253.702-.253.275,0,.506.1.689.299.185.2.276.422.276.667,0,.092-.008.161-.023.207-.475,2.116-1.563,3.174-3.266,3.174Zm10.925-4.324c-.337,0-.609-.123-.816-.368-.207-.245-.311-.544-.311-.897,0-1.134-.295-2.093-.886-2.875-.59-.782-1.422-1.318-2.495-1.61-.276-.077-.494-.241-.655-.495-.161-.253-.211-.509-.149-.771.076-.26.214-.475.414-.644.199-.169.421-.253.667-.253.046,0,.13.016.253.046.904.245,1.755.694,2.553,1.345.797.652,1.43,1.453,1.897,2.404s.655,2.009.563,3.174c-.016.261-.123.483-.322.667s-.437.276-.713.276Z"/>
          <path class="cls-2" d="m227.021,45.576c-.414.246-.855.457-1.322.632-.469.177-.963.326-1.484.449-.092.016-.153.084-.184.207-.43,2.085-1.023,4.075-1.782,5.968-.759,1.894-1.591,3.592-2.496,5.095-.092.153-.215.272-.367.356-.154.084-.314.126-.483.126-.215,0-.398-.054-.552-.161-.322-.214-.483-.506-.483-.874,0-.199.046-.375.138-.529.905-1.533,1.68-3.089,2.323-4.669.645-1.579,1.158-3.197,1.541-4.853v-.046c0-.153-.068-.215-.207-.184-1.135.123-2.292.169-3.473.138-.261-.015-.487-.119-.679-.311s-.287-.418-.287-.679c0-.291.1-.537.299-.736s.444-.291.736-.276c.198.015.395.023.586.023h.587c.46,0,.912-.012,1.356-.035s.882-.065,1.312-.126c.122-.015.191-.084.207-.207.092-.537.164-1.084.218-1.645.054-.56.096-1.123.127-1.69.015-.261.122-.491.322-.69.199-.199.429-.299.689-.299.307,0,.56.1.759.299s.292.452.276.759c-.016.445-.042.89-.08,1.334-.039.445-.089.89-.149,1.334v.046c0,.154.068.2.207.138.413-.153.827-.345,1.241-.575.169-.092.346-.138.529-.138.368,0,.659.146.874.437.123.169.184.353.184.552,0,.353-.16.629-.482.828Zm8.096,11.201c0,.23-.069.445-.207.644s-.33.337-.575.414c-.552.153-1.104.268-1.655.345-.553.077-1.104.115-1.656.115-1.119,0-2.212-.161-3.277-.483-1.066-.322-2.082-.812-3.048-1.472-.291-.199-.437-.468-.437-.805,0-.214.068-.414.207-.598.184-.276.452-.414.805-.414.184,0,.375.061.575.184,1.563,1.028,3.273,1.541,5.129,1.541.966,0,1.939-.138,2.921-.414.061-.015.146-.023.253-.023.261,0,.486.088.679.265.191.176.287.411.287.702Zm-8.9-9.476c0-.261.084-.487.253-.679.168-.191.375-.302.62-.333.292-.03.583-.053.874-.069.292-.015.583-.023.874-.023.936,0,1.848.077,2.737.23s1.687.383,2.393.69c.184.077.329.204.437.379.107.177.161.365.161.563,0,.292-.096.529-.288.713-.191.184-.417.276-.678.276-.169,0-.314-.031-.438-.092-1.304-.567-2.752-.851-4.347-.851-.245,0-.499.008-.759.023-.261.015-.521.038-.782.069-.276.031-.521-.042-.736-.219-.215-.176-.321-.402-.321-.678Z"/>
          <path class="cls-2" d="m222.398,80.468c-.736-.644-1.284-1.487-1.645-2.53-.36-1.042-.541-2.323-.541-3.841,0-.812.05-1.69.15-2.633.099-.943.249-1.959.448-3.048.138-.72.207-1.28.207-1.679,0-.337-.039-.625-.115-.863-.077-.237-.192-.479-.345-.724-.107-.153-.161-.337-.161-.552,0-.153.034-.299.104-.437s.18-.245.333-.322c.185-.092.368-.138.553-.138.168,0,.333.039.494.115s.287.199.38.368c.245.384.425.778.54,1.185s.173.862.173,1.369c0,.292-.02.606-.058.943-.039.337-.096.706-.173,1.104-.199,1.073-.345,2.062-.437,2.967-.093.905-.139,1.725-.139,2.461,0,2.039.398,3.504,1.196,4.393.751.859,1.648,1.288,2.691,1.288.904,0,1.848-.322,2.829-.966.98-.644,1.924-1.595,2.828-2.852.215-.261.476-.391.782-.391.245,0,.452.077.621.23.276.246.414.552.414.92,0,.23-.069.453-.207.667-.981,1.411-2.108,2.496-3.381,3.255-1.273.759-2.538,1.138-3.795,1.138-.675,0-1.33-.119-1.967-.356-.637-.237-1.23-.594-1.782-1.069Z"/>
          <path class="cls-2" d="m232.933,91.255c-.645.031-1.415.073-2.312.126-.897.054-1.844.111-2.841.172-.138.016-.207.092-.207.23.03.368.05.744.058,1.127.008.383.019.774.034,1.173,0,.138.069.2.207.184.645-.046,1.272-.107,1.887-.184.612-.076,1.203-.168,1.771-.276.307-.046.583.027.828.219s.368.448.368.771c0,.23-.073.437-.219.621-.146.184-.334.292-.563.322-.613.107-1.262.203-1.943.288-.683.084-1.369.149-2.059.195-.138.016-.207.092-.207.23.03.583.05,1.143.058,1.679s.019,1.027.034,1.472c0,.138.062.215.185.23.674.184,1.376.414,2.104.69.728.276,1.49.613,2.288,1.012.414.215.621.552.621,1.012,0,.322-.1.571-.299.748-.2.176-.43.264-.69.264-.184,0-.345-.038-.482-.115-.553-.322-1.132-.633-1.737-.932s-1.245-.556-1.92-.771c-.016-.015-.046-.023-.092-.023-.093,0-.146.054-.161.161-.46,2.009-1.825,3.013-4.095,3.013-.598,0-1.161-.107-1.69-.322-.528-.215-.978-.51-1.345-.886-.368-.375-.621-.801-.76-1.276-.046-.184-.068-.368-.068-.552,0-.721.383-1.334,1.149-1.84.767-.506,1.863-.759,3.289-.759.23,0,.472.008.725.023.253.016.51.039.771.069.153,0,.23-.069.23-.207-.016-.383-.027-.79-.035-1.219s-.026-.882-.058-1.357c0-.138-.068-.207-.206-.207-.262.015-.521.023-.782.023h-.759c-.537,0-1.051-.012-1.541-.035-.491-.023-.943-.049-1.357-.081-.261-.015-.479-.119-.655-.311-.177-.191-.265-.41-.265-.655,0-.307.111-.556.333-.748.223-.191.472-.28.748-.265.49.031.978.058,1.46.081.483.023.963.035,1.438.035h.667c.23,0,.452-.008.667-.023.139,0,.207-.069.207-.207-.015-.383-.03-.763-.046-1.139-.016-.375-.03-.748-.046-1.115,0-.153-.068-.215-.207-.184-1.257.077-2.453.157-3.588.241-1.135.084-2.055.142-2.76.173-.276.015-.514-.077-.713-.276-.2-.199-.299-.444-.299-.736,0-.261.092-.483.275-.667.185-.184.398-.284.645-.299.705-.031,1.625-.092,2.76-.184,1.135-.092,2.33-.176,3.588-.253.138-.031.207-.107.207-.23-.016-.399-.034-.767-.058-1.104-.022-.337-.034-.636-.034-.897,0-.276.096-.514.287-.713.191-.199.434-.299.725-.299.261,0,.483.088.667.265s.283.395.299.655c.016.261.031.556.046.886.016.33.031.687.046,1.069,0,.138.069.2.207.184.967-.061,1.894-.119,2.783-.172s1.679-.088,2.369-.104c.291-.015.532.077.725.276.191.199.287.445.287.736,0,.261-.092.483-.275.667-.185.184-.406.284-.667.299Zm-9.2,11.661c.689,0,1.181-.149,1.472-.448.291-.299.476-.656.552-1.07,0-.015.004-.026.012-.034s.012-.019.012-.035c0-.107-.062-.161-.184-.161-.308-.046-.621-.08-.943-.104-.322-.023-.652-.019-.989.012-.721.016-1.242.107-1.563.276-.322.169-.483.36-.483.575,0,.246.191.472.575.678.383.207.896.311,1.541.311Z"/>
          <path class="cls-2" d="m233.783,112.484c.261.046.468.165.621.356s.23.418.23.678c0,.292-.107.533-.322.725-.215.192-.468.265-.759.219-.414-.062-.84-.104-1.277-.127-.437-.023-.885-.034-1.345-.034-.399,0-.802.008-1.208.023-.406.016-.824.039-1.253.069-.139.016-.207.092-.207.23v3.45c0,.046.003.088.011.126.008.039.02.081.035.126.383.936.575,1.878.575,2.829,0,.828-.139,1.633-.414,2.415-.276.782-.698,1.495-1.266,2.139s-1.28,1.166-2.139,1.564c-.859.399-1.863.621-3.013.667-.276.015-.518-.073-.725-.264-.207-.192-.311-.433-.311-.725s.104-.537.311-.736.456-.307.747-.322c1.272-.03,2.35-.383,3.231-1.058.882-.674,1.415-1.541,1.599-2.599v-.023c0-.092-.034-.153-.104-.184s-.142-.008-.219.069c-.275.246-.571.426-.885.541-.314.115-.633.172-.955.172-.476,0-.939-.115-1.392-.345s-.832-.548-1.139-.955-.49-.87-.552-1.392c-.016-.077-.022-.161-.022-.253v-.253c0-.659.142-1.242.425-1.748.284-.506.656-.9,1.116-1.185.46-.284.966-.425,1.518-.425.444,0,.904.107,1.38.322.03.016.069.023.115.023.092,0,.138-.061.138-.184v-1.656c0-.153-.068-.214-.207-.184-.889.062-1.771.123-2.645.184-.874.062-1.718.092-2.53.092-.491,0-.966-.015-1.426-.046-.46-.03-.897-.077-1.312-.138-.261-.046-.471-.172-.632-.379s-.242-.44-.242-.701c0-.292.111-.525.334-.702.222-.176.472-.242.747-.195.43.061.87.107,1.323.138.452.031.908.046,1.368.046.812,0,1.637-.034,2.473-.104.835-.069,1.675-.134,2.519-.195.138-.031.207-.107.207-.23v-1.932c-.016-.276.072-.509.265-.701.191-.192.425-.288.701-.288s.51.1.701.299c.191.2.288.43.288.69v1.771c0,.154.076.215.229.184.43-.03.852-.054,1.266-.069.413-.015.819-.023,1.219-.023.49,0,.97.015,1.438.046s.924.084,1.368.161Zm-10.12,7.636c.077.23.23.422.46.575.23.153.476.23.736.23.337,0,.651-.153.943-.46.291-.307.444-.836.46-1.587,0-.107-.031-.199-.093-.276-.169-.23-.36-.395-.574-.494-.215-.1-.43-.15-.645-.15-.368,0-.693.138-.978.414s-.426.637-.426,1.081c0,.184.038.407.115.667Z"/>
          <path class="cls-2" d="m225.986,151.17c-.43,0-.802-.154-1.115-.46-.314-.307-.472-.674-.472-1.104,0-.444.157-.82.472-1.127.313-.306.686-.46,1.115-.46.444,0,.82.154,1.127.46.307.307.46.683.46,1.127,0,.43-.153.797-.46,1.104s-.683.46-1.127.46Zm0-4.278c-.245,0-.456-.088-.633-.265-.176-.176-.265-.387-.265-.632l-.299-12.282c-.016-.337.096-.625.334-.863.237-.237.524-.356.862-.356s.625.119.862.356c.237.238.349.525.334.863l-.299,12.282c0,.246-.085.457-.254.632-.169.177-.383.265-.644.265Z"/>
        </g>
        <g>
          <path class="cls-9" d="m179.928,50.618c-5.268,1.778-6.709,3.219-8.487,8.487-1.778-5.268-3.219-6.709-8.487-8.487,5.268-1.778,6.709-3.219,8.487-8.487,1.778,5.268,3.219,6.709,8.487,8.487Z"/>
          <path class="cls-3" d="m179.928,50.618c-5.268,1.778-6.709,3.219-8.487,8.487-1.778-5.268-3.219-6.709-8.487-8.487,5.268-1.778,6.709-3.219,8.487-8.487,1.778,5.268,3.219,6.709,8.487,8.487Z"/>
        </g>
        <g>
          <path class="cls-9" d="m44.191,99.235c-4.5,1.519-5.731,2.75-7.25,7.25-1.519-4.5-2.75-5.731-7.25-7.25,4.5-1.519,5.731-2.75,7.25-7.25,1.519,4.5,2.75,5.731,7.25,7.25Z"/>
          <path class="cls-3" d="m44.191,99.235c-4.5,1.519-5.731,2.75-7.25,7.25-1.519-4.5-2.75-5.731-7.25-7.25,4.5-1.519,5.731-2.75,7.25-7.25,1.519,4.5,2.75,5.731,7.25,7.25Z"/>
        </g>
        <g>
          <path class="cls-9" d="m72.216,70.235c-8.172,2.758-10.408,4.994-13.166,13.166-2.758-8.172-4.994-10.408-13.166-13.166,8.172-2.758,10.408-4.994,13.166-13.166,2.758,8.172,4.994,10.408,13.166,13.166Z"/>
          <path class="cls-3" d="m72.216,70.235c-8.172,2.758-10.408,4.994-13.166,13.166-2.758-8.172-4.994-10.408-13.166-13.166,8.172-2.758,10.408-4.994,13.166-13.166,2.758,8.172,4.994,10.408,13.166,13.166Z"/>
        </g>
      </g>
      <g>
        <g>
          <path class="cls-2" d="m99.448,250.377c-.367,0-.688-.121-.963-.363s-.412-.571-.412-.987v-7.875c-.167.25-.338.492-.513.725s-.347.45-.513.65c-.267.317-.588.512-.963.587s-.746-.013-1.112-.263c-.3-.216-.475-.512-.524-.887-.051-.375.041-.704.274-.988.384-.466.788-1.016,1.213-1.65.425-.633.841-1.3,1.25-2,.408-.7.778-1.375,1.112-2.025.333-.65.6-1.216.8-1.7.134-.366.379-.625.737-.775s.721-.158,1.088-.025c.383.134.65.379.8.737.15.359.15.729,0,1.113-.116.284-.25.587-.399.913-.15.325-.317.662-.5,1.012v12.45c0,.417-.134.746-.4.987s-.592.363-.975.363Zm3.25-16.65c-.417,0-.768-.133-1.051-.4-.283-.266-.425-.625-.425-1.075v-.55h-5.075c-.333,0-.625-.125-.875-.375s-.375-.542-.375-.875c0-.35.125-.65.375-.9s.542-.375.875-.375h5.075v-.75c0-.45.142-.808.425-1.075.283-.266.634-.4,1.051-.4.399,0,.745.134,1.037.4.291.267.438.625.438,1.075v.75h4.2v-.75c0-.45.142-.808.425-1.075.283-.266.633-.4,1.05-.4s.767.134,1.05.4c.283.267.426.625.426,1.075v.75h4.949c.334,0,.625.125.875.375s.375.55.375.9c0,.333-.125.625-.375.875s-.541.375-.875.375h-4.949v.55c0,.45-.143.809-.426,1.075-.283.267-.633.4-1.05.4s-.767-.133-1.05-.4c-.283-.266-.425-.625-.425-1.075v-.55h-4.2v.55c0,.45-.146.809-.438,1.075-.292.267-.638.4-1.037.4Zm8.675,16.6c-.45,0-.821-.125-1.112-.375-.292-.25-.455-.6-.488-1.05-.017-.4.101-.746.351-1.038.25-.292.625-.462,1.125-.513.517-.05.854-.141,1.013-.275.158-.133.237-.408.237-.825v-9.375h-9.325c-.35,0-.646-.125-.888-.375s-.362-.55-.362-.9c0-.333.121-.625.362-.875s.538-.375.888-.375h13.6c.351,0,.646.125.888.375s.362.542.362.875c0,.35-.121.65-.362.9s-.537.375-.888.375h-1.35v9.8c0,1.284-.305,2.212-.912,2.788-.609.575-1.654.862-3.138.862Zm-4.775-4.2c-.983,0-1.767-.117-2.35-.35-.584-.233-1-.633-1.25-1.2-.25-.566-.375-1.341-.375-2.325,0-1,.125-1.783.375-2.35.25-.566.666-.966,1.25-1.2.583-.233,1.366-.35,2.35-.35s1.767.117,2.351.35c.583.234,1,.634,1.25,1.2.25.567.375,1.35.375,2.35,0,.983-.125,1.758-.375,2.325-.25.567-.667.967-1.25,1.2-.584.233-1.367.35-2.351.35Zm0-2.475c.5,0,.842-.091,1.025-.275.183-.184.274-.559.274-1.125,0-.583-.092-.963-.274-1.138-.184-.175-.525-.263-1.025-.263s-.842.088-1.024.263c-.184.175-.275.554-.275,1.138,0,.566.092.941.275,1.125.183.184.524.275,1.024.275Z"/>
          <path class="cls-2" d="m128.723,250.302c-.399,0-.737-.125-1.013-.375-.274-.25-.412-.592-.412-1.025v-6.65c-.5.184-.967.358-1.4.525s-.809.3-1.125.4c-.416.15-.812.129-1.188-.062-.375-.191-.629-.496-.762-.913-.117-.433-.092-.825.074-1.175.167-.35.476-.583.926-.7.449-.133.982-.3,1.6-.5.616-.2,1.241-.408,1.875-.625v-4.525h-1.525c-.066.384-.142.754-.225,1.112-.084.359-.167.696-.25,1.013-.1.417-.296.717-.588.9-.291.184-.629.242-1.012.175-.351-.066-.63-.242-.838-.525-.209-.283-.254-.608-.138-.975.233-.8.454-1.717.663-2.75.208-1.033.346-2.008.412-2.925.033-.383.184-.675.45-.875.267-.2.583-.283.95-.25.366.017.658.15.875.4.216.25.308.575.274.975-.017.167-.033.342-.05.525-.017.184-.042.367-.075.55h1.075v-3.625c0-.433.138-.779.412-1.038.275-.258.613-.388,1.013-.388s.733.129,1,.388c.267.259.4.604.4,1.038v3.625h.95c.399,0,.716.129.949.387.233.259.351.571.351.938v.125c.383-.85.733-1.737,1.05-2.662.316-.925.575-1.796.775-2.613.1-.4.316-.683.649-.85.333-.166.691-.208,1.075-.125.366.084.638.271.812.562.175.292.221.629.138,1.013-.117.483-.255.979-.413,1.487-.158.509-.329,1.029-.512,1.562h4.699c1.2,0,2.158.142,2.875.425.717.284,1.233.767,1.551,1.45.316.684.458,1.634.425,2.85-.034,1.567-.121,3.138-.263,4.712-.142,1.575-.305,2.938-.487,4.088-.184,1.167-.476,2.092-.875,2.775-.4.683-.954,1.17-1.663,1.462-.708.292-1.629.454-2.762.487-.467.017-.859-.083-1.176-.3-.316-.217-.5-.559-.55-1.025-.05-.45.05-.825.3-1.125.25-.3.608-.466,1.075-.5.717-.05,1.254-.138,1.612-.263s.621-.337.788-.637c.166-.3.308-.75.425-1.35.083-.433.166-.975.25-1.625.083-.65.166-1.354.25-2.113.083-.758.154-1.521.213-2.287.058-.767.096-1.483.112-2.15.017-.983-.233-1.641-.75-1.975-.417,3.35-1.317,6.158-2.7,8.425-1.384,2.267-3.217,4.117-5.5,5.55-.367.233-.763.321-1.188.263-.425-.059-.746-.271-.963-.638-.199-.333-.254-.679-.162-1.037s.312-.638.662-.838c4.066-2.4,6.525-6.425,7.375-12.075h-1.149c-.317,1.95-.938,3.775-1.862,5.475-.926,1.7-2.088,3.133-3.488,4.3-.316.25-.671.354-1.062.312-.392-.042-.712-.212-.962-.513-.233-.283-.325-.608-.275-.975s.217-.658.5-.875c1.233-.9,2.241-2.042,3.025-3.425.783-1.383,1.333-2.816,1.649-4.3h-1c-.199.467-.408.909-.625,1.325-.217.417-.441.817-.675,1.2-.184.317-.458.538-.825.663-.366.125-.717.104-1.05-.062-.316-.167-.529-.421-.638-.763-.108-.341-.07-.663.113-.962.133-.233.266-.471.399-.712s.259-.496.375-.763c-.116.1-.25.184-.399.25-.15.067-.317.1-.5.1h-.95v3.55l.899-.325c.351-.133.68-.129.988.012.308.142.528.379.662.713.133.333.142.671.025,1.012-.117.342-.367.596-.75.763-.217.1-.484.212-.801.337s-.658.263-1.024.413v7.75c0,.433-.134.775-.4,1.025s-.6.375-1,.375Z"/>
          <path class="cls-2" d="m166.048,249.302c-2.233.316-4.117.438-5.65.362-1.533-.075-2.762-.304-3.688-.688-.925-.383-1.596-.896-2.012-1.537-.417-.642-.625-1.371-.625-2.188,0-1.25.504-2.417,1.512-3.5,1.009-1.083,2.471-2.033,4.388-2.85-.267-.333-.592-.558-.975-.675-.834-.25-1.654-.158-2.463.275s-1.596,1.066-2.362,1.9c-.283.3-.654.462-1.112.487-.459.025-.829-.112-1.112-.413-.268-.316-.388-.683-.363-1.1.025-.417.196-.758.513-1.025.816-.7,1.538-1.458,2.163-2.275.625-.816,1.153-1.658,1.587-2.525-.717.017-1.388.029-2.013.038s-1.162.004-1.612-.013c-.417,0-.767-.146-1.05-.438-.283-.292-.425-.646-.425-1.062.017-.417.175-.758.475-1.025s.658-.392,1.075-.375c.583.017,1.287.021,2.112.013s1.688-.021,2.588-.038c.083-.316.158-.625.225-.925.066-.3.125-.6.175-.9.066-.417.25-.754.551-1.012.3-.258.658-.363,1.074-.312.417.05.75.233,1,.55.25.317.351.684.301,1.1-.018.217-.051.442-.101.675-.05.234-.108.467-.175.7.633-.033,1.225-.071,1.775-.113.55-.041,1.041-.096,1.475-.162.416-.05.787.046,1.112.287.325.242.513.571.562.988s-.054.784-.312,1.1-.587.492-.987.525c-.617.067-1.325.125-2.125.175-.8.05-1.634.092-2.5.125-.367.817-.767,1.583-1.2,2.3.4-.083.783-.113,1.15-.088.366.025.716.088,1.05.188.5.134.987.363,1.463.688.475.325.896.779,1.262,1.363.816-.233,1.688-.45,2.613-.65.925-.2,1.903-.375,2.938-.525.399-.066.766.021,1.1.263.333.242.525.571.575.987.066.417-.025.784-.275,1.1-.25.317-.583.509-1,.575-.967.117-1.858.254-2.675.413s-1.575.329-2.275.512c.084.45.15.942.2,1.475.05.534.075,1.108.075,1.725,0,.417-.146.771-.438,1.062-.292.292-.646.438-1.062.438s-.767-.146-1.05-.438c-.284-.292-.425-.646-.425-1.062,0-.85-.051-1.608-.15-2.275-1.367.566-2.354,1.171-2.963,1.812s-.912,1.262-.912,1.862c0,.45.267.817.8,1.1.533.284,1.425.442,2.675.475s2.959-.092,5.125-.375c.4-.05.767.046,1.101.287.333.242.524.571.575.988.05.4-.051.758-.301,1.075s-.574.508-.975.575Z"/>
          <path class="cls-2" d="m183.823,249.677c-1.367,0-2.467-.321-3.301-.962-.833-.642-1.25-1.596-1.25-2.863,0-1.133.421-2.041,1.263-2.725s1.971-1.025,3.388-1.025c.5,0,1,.025,1.5.075l-.075-2.825c-1.733.05-3.267.05-4.6,0-.417-.033-.755-.204-1.013-.512-.259-.308-.379-.663-.362-1.062.033-.4.204-.733.513-1,.308-.267.662-.383,1.062-.35.633.034,1.32.054,2.062.062.741.009,1.495.004,2.262-.013-.017-.4-.024-.8-.024-1.2s-.009-.792-.025-1.175c-.816.017-1.608.021-2.375.013-.767-.008-1.467-.021-2.1-.038-.417-.016-.755-.179-1.013-.487-.259-.308-.379-.671-.362-1.087.033-.4.204-.733.513-1,.308-.267.662-.383,1.062-.35,1.232.083,2.641.108,4.225.075v-2.15c0-.417.142-.771.425-1.062.283-.292.634-.438,1.05-.438s.771.146,1.062.438c.292.292.438.646.438,1.062v.962c0,.342.009.705.025,1.088.684-.05,1.342-.104,1.975-.163.634-.058,1.209-.121,1.726-.188.399-.05.763.046,1.087.288.325.242.513.562.562.962.051.417-.046.788-.287,1.112-.242.325-.562.513-.963.562-.583.067-1.221.125-1.912.175-.691.05-1.404.092-2.138.125,0,.383.004.775.013,1.175.008.4.021.8.037,1.2.667-.033,1.305-.079,1.913-.138.608-.058,1.171-.121,1.688-.188.399-.066.763.025,1.087.275.325.25.513.575.562.975.051.4-.046.763-.287,1.087-.242.325-.562.513-.963.562-.566.067-1.184.125-1.85.175-.667.05-1.367.092-2.1.125.033.667.054,1.3.062,1.9.008.6.021,1.159.037,1.675.967.284,1.883.634,2.75,1.05.866.417,1.633.858,2.3,1.325.333.217.538.534.612.95.075.417-.004.792-.237,1.125s-.554.538-.962.612c-.409.075-.779-.004-1.113-.237-.467-.333-.983-.654-1.55-.962s-1.158-.588-1.774-.838c-.067,1.317-.5,2.284-1.301,2.9-.8.616-1.908.925-3.324.925Zm-.025-2.825c.684,0,1.133-.121,1.35-.362.217-.241.325-.587.325-1.038v-.475c-.566-.1-1.125-.15-1.675-.15-.533,0-.925.092-1.175.275-.25.184-.375.434-.375.75,0,.667.517,1,1.55,1Z"/>
          <path class="cls-2" d="m218.772,248.902c-2.684.366-5.017.404-7,.112s-3.512-.929-4.587-1.913c-1.075-.983-1.612-2.316-1.612-4,0-1.466.37-2.721,1.112-3.762.741-1.042,1.771-1.946,3.087-2.712-.116-.65-.283-1.392-.5-2.225s-.441-1.663-.675-2.488c-.233-.825-.441-1.521-.625-2.087-.116-.383-.071-.758.138-1.125.208-.366.504-.608.888-.725.416-.116.804-.07,1.162.138.358.208.596.513.713.913.283.967.562,2.012.837,3.137.275,1.125.504,2.205.688,3.238.801-.316,1.65-.604,2.551-.863.899-.258,1.833-.496,2.8-.712.399-.1.774-.042,1.125.175.35.217.566.525.649.925.084.417.017.796-.199,1.138-.217.342-.525.554-.926.637-2.083.434-3.774.896-5.074,1.388-1.301.492-2.297,1.008-2.988,1.55-.691.542-1.166,1.1-1.425,1.675-.259.575-.388,1.171-.388,1.787,0,1.317.801,2.246,2.4,2.788,1.6.542,4.092.562,7.475.062.417-.066.788.029,1.113.288.324.259.512.587.562.987.05.417-.051.788-.301,1.113-.25.325-.583.512-1,.562Z"/>
          <path class="cls-2" d="m240.223,248.277c-.417.016-.779-.104-1.087-.363-.309-.258-.479-.596-.513-1.012-.034-.417.083-.783.35-1.1.267-.316.608-.483,1.025-.5,1.816-.133,3.212-.638,4.188-1.513.975-.875,1.462-2.087,1.462-3.637,0-1.033-.324-1.938-.975-2.712-.65-.775-1.542-1.329-2.675-1.663-.65,1.867-1.467,3.534-2.45,5,.15.117.3.233.45.35.149.117.291.225.425.325.333.234.537.554.612.962.075.409-.004.788-.237,1.138-.233.333-.555.538-.963.612-.408.075-.779-.012-1.112-.262-.35-.25-.7-.525-1.05-.825-.467.484-.967.925-1.5,1.325s-1.092.767-1.675,1.1c-1.034.566-2.029.816-2.987.75-.959-.066-1.738-.438-2.338-1.113-.6-.675-.9-1.621-.9-2.837,0-1.417.309-2.712.926-3.888.616-1.175,1.433-2.188,2.449-3.037-.666-1.184-1.199-2.309-1.6-3.375-.15-.383-.129-.763.062-1.138s.479-.629.862-.763c.384-.133.763-.108,1.138.075.375.184.629.467.763.85.149.45.329.909.537,1.375.208.467.438.942.688,1.425.816-.383,1.679-.675,2.588-.875.908-.2,1.829-.3,2.763-.3h.375c.116-.433.221-.875.312-1.325.091-.45.179-.908.262-1.375.066-.417.267-.746.601-.987.333-.242.708-.321,1.125-.238.399.067.721.267.962.6.242.333.329.708.263,1.125-.066.45-.149.892-.25,1.325-.1.434-.2.867-.3,1.3,1.8.5,3.217,1.371,4.25,2.613s1.55,2.729,1.55,4.462c0,1.55-.333,2.913-1,4.087s-1.621,2.108-2.862,2.8c-1.242.692-2.746,1.104-4.513,1.238Zm-7.149-5.275c.933-.5,1.791-1.158,2.574-1.975-.899-1.033-1.733-2.117-2.5-3.25-1.3,1.3-1.949,2.767-1.949,4.4,0,.517.166.862.5,1.038.333.175.791.104,1.375-.212Zm4.375-4.325c.283-.483.558-.996.824-1.538.267-.542.509-1.121.726-1.737-.65.034-1.263.117-1.838.25s-1.112.309-1.612.525c.566.867,1.2,1.7,1.9,2.5Z"/>
          <path class="cls-2" d="m271.048,248.977c-1.967-.283-3.592-.854-4.875-1.712-1.283-.858-2.237-1.896-2.862-3.112-.625-1.216-.938-2.483-.938-3.8,0-1.333.263-2.579.787-3.737.525-1.158,1.279-2.163,2.263-3.013-1,.15-2.066.321-3.2.513-1.134.192-2.233.384-3.3.575s-2,.362-2.8.512c-.4.067-.767-.025-1.101-.275-.333-.25-.533-.575-.6-.975-.066-.417.025-.788.275-1.112.25-.325.583-.521,1-.587.533-.083,1.216-.196,2.05-.338.833-.141,1.767-.295,2.8-.462,1.033-.167,2.092-.341,3.175-.525,1.083-.183,2.146-.362,3.188-.538,1.042-.175,1.996-.337,2.862-.487.867-.15,1.575-.275,2.125-.375.384-.066.742.017,1.075.25s.542.542.625.925c.083.4.013.775-.212,1.125-.226.35-.538.559-.938.625-1.217.167-2.271.513-3.163,1.038s-1.629,1.159-2.212,1.9c-.584.742-1.018,1.529-1.301,2.363s-.425,1.642-.425,2.425c0,1.617.55,2.921,1.65,3.913,1.1.992,2.591,1.629,4.475,1.913.417.066.75.267,1,.6.25.334.342.7.275,1.1-.067.417-.263.75-.588,1s-.696.341-1.112.275Z"/>
          <path class="cls-2" d="m292.923,249.227c-.417-.017-.771-.171-1.062-.462-.292-.292-.43-.646-.412-1.062,0-.433.149-.795.449-1.087.301-.292.658-.429,1.075-.413,1.366.017,2.404-.2,3.112-.65.709-.45,1.062-1.133,1.062-2.05,0-.883-.387-1.559-1.162-2.025-.775-.466-1.879-.7-3.312-.7-.566,0-1.108.025-1.625.075-.517.05-1.017.117-1.5.2v3.15c0,1.717-.392,2.979-1.175,3.788-.784.808-1.917,1.212-3.4,1.212-1.2,0-2.2-.309-3-.925-.8-.617-1.2-1.6-1.2-2.95,0-1.383.521-2.625,1.562-3.725,1.042-1.1,2.463-1.958,4.263-2.575v-3.725c-.717.067-1.412.117-2.087.15-.676.034-1.305.059-1.888.075-.417,0-.775-.142-1.075-.425-.3-.283-.45-.633-.45-1.05s.146-.767.438-1.05.646-.425,1.062-.425c.583-.016,1.217-.042,1.9-.075.683-.033,1.383-.075,2.1-.125v-3.075c0-.433.142-.796.425-1.087s.634-.438,1.051-.438.766.146,1.05.438c.283.292.425.654.425,1.087v2.825c.383-.033.741-.075,1.075-.125.333-.05.658-.092.975-.125.417-.066.792.008,1.125.225.333.217.533.534.601.95.066.417-.025.775-.275,1.075-.25.3-.584.483-1,.55-.35.067-.737.125-1.162.175-.426.05-.871.109-1.338.175v3.3c1-.15,2.059-.225,3.175-.225,1.533,0,2.858.217,3.976.65,1.116.434,1.979,1.054,2.587,1.862.608.809.913,1.771.913,2.888,0,1.85-.643,3.283-1.926,4.3s-3.066,1.491-5.35,1.425Zm-7.95-2.875c.5,0,.896-.141,1.188-.425.292-.283.438-.858.438-1.725v-2.25c-.899.417-1.596.913-2.087,1.488-.492.575-.738,1.171-.738,1.787,0,.75.4,1.125,1.2,1.125Zm13.4-9.275c-.267-.2-.592-.42-.976-.663-.383-.241-.767-.475-1.149-.7-.384-.225-.717-.404-1-.538-.367-.183-.63-.466-.788-.85-.158-.383-.154-.758.013-1.125.2-.4.496-.658.888-.775.392-.116.771-.083,1.138.1.35.167.75.383,1.2.65.449.267.896.538,1.337.812s.804.521,1.088.737c.333.234.524.55.575.95.05.4-.042.767-.275,1.1-.25.317-.571.504-.963.562-.392.059-.754-.029-1.087-.263Z"/>
          <path class="cls-2" d="m320.998,249.727c-.334.233-.709.312-1.125.238-.417-.075-.742-.271-.976-.587-.566-.817-1.204-1.667-1.912-2.55-.709-.883-1.412-1.729-2.112-2.538-.7-.808-1.334-1.496-1.9-2.062-.983-.966-1.642-1.875-1.975-2.725-.334-.85-.325-1.696.024-2.538.351-.841,1.042-1.746,2.075-2.712.351-.316.771-.717,1.263-1.2.491-.483,1.013-1,1.562-1.55.55-.55,1.083-1.1,1.6-1.65.517-.55.983-1.041,1.4-1.475.283-.3.638-.454,1.062-.463.425-.008.787.129,1.088.413.3.267.453.613.462,1.038s-.129.788-.412,1.087c-.584.634-1.229,1.304-1.938,2.013-.709.708-1.396,1.383-2.062,2.025-.667.642-1.242,1.179-1.726,1.612-.649.6-1.079,1.113-1.287,1.538-.209.425-.209.846,0,1.263.208.417.604.934,1.188,1.55.566.583,1.213,1.284,1.938,2.1.725.817,1.454,1.667,2.188,2.55.733.884,1.375,1.725,1.925,2.525.25.316.338.688.263,1.112s-.279.754-.612.987Z"/>
        </g>
        <g>
          <path class="cls-8" d="m83.582,240c0,1.336.324,2.657.074,3.92-.257,1.301-.721,2.541-1.218,3.738-.505,1.218-1.455,2.156-2.18,3.238-.73,1.09-1.192,2.37-2.117,3.295s-1.931,1.794-3.022,2.524c-1.082.724-2.181,1.537-3.398,2.042-1.197.496-2.642.219-3.943.476-1.262.25-2.491.976-3.826.976s-2.601-.538-3.864-.788c-1.301-.257-2.709-.169-3.905-.666-1.218-.505-2.397-1.196-3.479-1.921-1.09-.73-1.981-1.756-2.905-2.681s-2.069-1.736-2.799-2.826c-.724-1.082-.878-2.515-1.383-3.732-.496-1.197-.856-2.425-1.113-3.725-.25-1.262-.725-2.534-.725-3.869s.388-2.624.638-3.887c.257-1.301.713-2.508,1.21-3.705.505-1.218.661-2.647,1.385-3.729.73-1.09,1.8-1.972,2.724-2.897s1.871-1.897,2.962-2.627c1.082-.724,2.299-1.333,3.516-1.838,1.197-.496,2.462-1.048,3.763-1.305,1.262-.25,2.64-.245,3.976-.245s2.694.095,3.956.345c1.301.257,2.521.867,3.717,1.364,1.218.505,2.401,1.103,3.483,1.827,1.09.73,1.909,1.783,2.833,2.707s1.9,1.795,2.63,2.885c.724,1.082,1.244,2.278,1.749,3.496.496,1.197,1.324,2.34,1.581,3.64.25,1.262-.321,2.633-.321,3.969Z"/>
          <path class="cls-1" d="m63.112,248c-.28.014-.521-.07-.725-.252-.203-.182-.305-.413-.305-.693s.102-.515.305-.704.444-.269.725-.241c.224.028.462.052.714.073s.497.039.735.052c.126,0,.188-.063.188-.189v-2.52c0-.126-.062-.189-.188-.189h-5.901c-.406,0-.692-.196-.86-.588-.042-.126-.063-.266-.063-.42,0-.238.063-.448.189-.63l6.11-8.967c.266-.42.644-.63,1.134-.63.364,0,.68.14.945.42s.399.595.399.945v7.98c0,.126.062.189.188.189h2.101c.237,0,.44.081.608.241.168.161.252.361.252.598s-.084.441-.252.609-.371.252-.608.252h-2.101c-.126,0-.188.063-.188.189v2.52c0,.126.062.189.188.189.238-.014.483-.031.735-.052s.49-.045.714-.073c.28-.028.521.052.725.241s.305.424.305.704-.102.511-.305.693c-.203.182-.444.266-.725.252-.434-.042-.861-.077-1.281-.105s-.833-.042-1.238-.042-.816.014-1.229.042c-.413.028-.844.063-1.292.105Zm1.638-12.831c0-.084-.024-.14-.073-.168s-.102,0-.157.084l-4.305,6.321c-.028.056-.042.091-.042.105,0,.084.056.126.168.126h4.221c.126,0,.188-.063.188-.189v-6.279Z"/>
        </g>
      </g>
    </g>
  </g>
</svg>