<?xml version="1.0" encoding="UTF-8"?>
<svg xmlns="http://www.w3.org/2000/svg" xmlns:xlink="http://www.w3.org/1999/xlink" viewBox="0 0 374 280">
  <defs>
    <style>
      .cls-1 {
        stroke-width: .5px;
      }

      .cls-1, .cls-2 {
        fill: #231815;
      }

      .cls-1, .cls-3 {
        stroke: #231815;
        stroke-linecap: round;
        stroke-linejoin: round;
      }

      .cls-4 {
        fill: url(#_名称未設定グラデーション_2-5);
      }

      .cls-4, .cls-5, .cls-6, .cls-7, .cls-2, .cls-8, .cls-9, .cls-10, .cls-11, .cls-12, .cls-13, .cls-14, .cls-15, .cls-16, .cls-17, .cls-18, .cls-19, .cls-20, .cls-21, .cls-22, .cls-23, .cls-24, .cls-25, .cls-26, .cls-27, .cls-28, .cls-29, .cls-30, .cls-31 {
        stroke-width: 0px;
      }

      .cls-4, .cls-6, .cls-7, .cls-9, .cls-10, .cls-13, .cls-16, .cls-17, .cls-18, .cls-23, .cls-24, .cls-25, .cls-27, .cls-28, .cls-29, .cls-31 {
        mix-blend-mode: screen;
      }

      .cls-5 {
        fill: url(#_名称未設定グラデーション_443-4);
      }

      .cls-5, .cls-8, .cls-11, .cls-14, .cls-21, .cls-22, .cls-26, .cls-30 {
        mix-blend-mode: overlay;
        opacity: .52;
      }

      .cls-6 {
        fill: url(#_名称未設定グラデーション_2-4);
      }

      .cls-7 {
        fill: url(#_名称未設定グラデーション_2-9);
      }

      .cls-7, .cls-24, .cls-25 {
        opacity: .53;
      }

      .cls-8 {
        fill: url(#_名称未設定グラデーション_443-6);
      }

      .cls-9 {
        fill: url(#_名称未設定グラデーション_2-6);
      }

      .cls-10 {
        fill: url(#_名称未設定グラデーション_2-14);
      }

      .cls-32 {
        clip-path: url(#clippath-2);
      }

      .cls-33 {
        isolation: isolate;
      }

      .cls-11 {
        fill: url(#_名称未設定グラデーション_443-8);
      }

      .cls-12 {
        fill: url(#_名称未設定グラデーション_10);
      }

      .cls-13 {
        fill: url(#_名称未設定グラデーション_2-16);
      }

      .cls-14 {
        fill: url(#_名称未設定グラデーション_443-7);
      }

      .cls-15 {
        fill: none;
      }

      .cls-34 {
        clip-path: url(#clippath-1);
      }

      .cls-16 {
        fill: url(#_名称未設定グラデーション_2-12);
      }

      .cls-17 {
        fill: url(#_名称未設定グラデーション_2-15);
        opacity: .5;
      }

      .cls-18 {
        fill: url(#_名称未設定グラデーション_2-10);
      }

      .cls-19 {
        fill: url(#radial-gradient);
        opacity: .34;
      }

      .cls-19, .cls-35 {
        mix-blend-mode: color-dodge;
      }

      .cls-20, .cls-3 {
        fill: #fff;
        fill-rule: evenodd;
      }

      .cls-21 {
        fill: url(#_名称未設定グラデーション_443-5);
      }

      .cls-35 {
        opacity: .47;
      }

      .cls-22 {
        fill: url(#_名称未設定グラデーション_443-3);
      }

      .cls-36 {
        clip-path: url(#clippath);
      }

      .cls-23 {
        fill: url(#_名称未設定グラデーション_2-8);
      }

      .cls-3 {
        stroke-width: 2px;
      }

      .cls-24 {
        fill: url(#_名称未設定グラデーション_2-7);
      }

      .cls-25 {
        fill: url(#_名称未設定グラデーション_2-3);
      }

      .cls-26 {
        fill: url(#_名称未設定グラデーション_443);
      }

      .cls-27 {
        fill: url(#_名称未設定グラデーション_2-11);
      }

      .cls-28 {
        fill: url(#_名称未設定グラデーション_2-13);
      }

      .cls-29 {
        fill: url(#_名称未設定グラデーション_2-2);
      }

      .cls-30 {
        fill: url(#_名称未設定グラデーション_443-2);
      }

      .cls-31 {
        fill: url(#_名称未設定グラデーション_2);
      }
    </style>
    <clipPath id="clippath">
      <rect class="cls-15" width="374" height="280"/>
    </clipPath>
    <clipPath id="clippath-1">
      <rect class="cls-15" x="-9.684" y=".931" width="393.368" height="278.139"/>
    </clipPath>
    <radialGradient id="_名称未設定グラデーション_10" data-name="名称未設定グラデーション 10" cx="402.804" cy="15.727" fx="402.804" fy="15.727" r="474.693" gradientUnits="userSpaceOnUse">
      <stop offset="0" stop-color="#faf2f6"/>
      <stop offset="1" stop-color="#ffbcd0"/>
    </radialGradient>
    <radialGradient id="radial-gradient" cx="364.069" cy="17.416" fx="364.069" fy="17.416" r="147.857" gradientTransform="translate(341.784 -346.387) rotate(83.756)" gradientUnits="userSpaceOnUse">
      <stop offset="0" stop-color="#ffddc9"/>
      <stop offset=".135" stop-color="#cbb0a0"/>
      <stop offset=".311" stop-color="#8e7b70"/>
      <stop offset=".48" stop-color="#5b4f47"/>
      <stop offset=".638" stop-color="#332c28"/>
      <stop offset=".782" stop-color="#171412"/>
      <stop offset=".907" stop-color="#060504"/>
      <stop offset="1" stop-color="#000"/>
    </radialGradient>
    <linearGradient id="_名称未設定グラデーション_2" data-name="名称未設定グラデーション 2" x1="-2864.924" y1="79.492" x2="-2762.704" y2="79.492" gradientTransform="translate(2725.156 833.599) rotate(15.937) scale(.978)" gradientUnits="userSpaceOnUse">
      <stop offset="0" stop-color="#f9f3ac"/>
      <stop offset=".285" stop-color="#f2df96"/>
      <stop offset=".492" stop-color="#edce84"/>
      <stop offset=".811" stop-color="#c89f56"/>
      <stop offset="1" stop-color="#b68840"/>
    </linearGradient>
    <linearGradient id="_名称未設定グラデーション_2-2" data-name="名称未設定グラデーション 2" x1="1783.836" y1="-588.328" x2="1875.279" y2="-588.328" gradientTransform="translate(-1222.306 850.159) rotate(-7.478) scale(.924)" xlink:href="#_名称未設定グラデーション_2"/>
    <linearGradient id="_名称未設定グラデーション_2-3" data-name="名称未設定グラデーション 2" x1="2498.812" y1="-205.805" x2="2590.256" y2="-205.805" gradientTransform="translate(-2085.827 803.671) rotate(-12.534) scale(.932)" xlink:href="#_名称未設定グラデーション_2"/>
    <linearGradient id="_名称未設定グラデーション_2-4" data-name="名称未設定グラデーション 2" x1="-761.549" y1="16.604" x2="-689.677" y2="16.604" gradientTransform="translate(821.186 242.072) rotate(4.623) scale(.985)" xlink:href="#_名称未設定グラデーション_2"/>
    <linearGradient id="_名称未設定グラデーション_2-5" data-name="名称未設定グラデーション 2" x1="-2338.275" y1="-390.733" x2="-2266.4" y2="-390.733" gradientTransform="translate(2036.013 1091.032) rotate(12.508) scale(.936)" xlink:href="#_名称未設定グラデーション_2"/>
    <linearGradient id="_名称未設定グラデーション_2-6" data-name="名称未設定グラデーション 2" x1="2490.154" y1="-377.787" x2="2562.031" y2="-377.787" gradientTransform="translate(-2015.04 1054.55) rotate(-11.943) scale(.909)" xlink:href="#_名称未設定グラデーション_2"/>
    <linearGradient id="_名称未設定グラデーション_2-7" data-name="名称未設定グラデーション 2" x1="1563.603" y1="19.719" x2="1622.695" y2="19.719" gradientTransform="translate(-1253.425 372.411) rotate(-7.166) scale(.966)" xlink:href="#_名称未設定グラデーション_2"/>
    <linearGradient id="_名称未設定グラデーション_2-8" data-name="名称未設定グラデーション 2" x1="-753.692" y1="-1075.567" x2="-694.606" y2="-1075.567" gradientTransform="translate(598.847 1074.209) rotate(4.251) scale(.903)" xlink:href="#_名称未設定グラデーション_2"/>
    <linearGradient id="_名称未設定グラデーション_2-9" data-name="名称未設定グラデーション 2" x1="905.979" y1="-642.363" x2="965.071" y2="-642.363" gradientTransform="translate(-512.149 662.156) rotate(-3.087) scale(.932)" xlink:href="#_名称未設定グラデーション_2"/>
    <linearGradient id="_名称未設定グラデーション_2-10" data-name="名称未設定グラデーション 2" x1="2966.769" y1="-203.214" x2="3025.858" y2="-203.214" gradientTransform="translate(-2447.004 926.862) rotate(-15.043) scale(.923)" xlink:href="#_名称未設定グラデーション_2"/>
    <linearGradient id="_名称未設定グラデーション_2-11" data-name="名称未設定グラデーション 2" x1="-1248.289" y1="-504.879" x2="-1189.201" y2="-504.879" gradientTransform="translate(1405.62 823.054) rotate(8.494) scale(.932)" xlink:href="#_名称未設定グラデーション_2"/>
    <linearGradient id="_名称未設定グラデーション_2-12" data-name="名称未設定グラデーション 2" x1="593.504" y1="-750.689" x2="652.594" y2="-750.689" gradientTransform="translate(-174.847 852.213) rotate(-.889) scale(.916)" xlink:href="#_名称未設定グラデーション_2"/>
    <linearGradient id="_名称未設定グラデーション_2-13" data-name="名称未設定グラデーション 2" x1="2494.327" y1="170.609" x2="2566.199" y2="170.609" gradientTransform="translate(-2174.389 541.125) rotate(-12.57) scale(.961)" xlink:href="#_名称未設定グラデーション_2"/>
    <linearGradient id="_名称未設定グラデーション_2-14" data-name="名称未設定グラデーション 2" x1="-1943.818" y1="-844.456" x2="-1856.349" y2="-844.456" gradientTransform="translate(1808.421 1219.339) rotate(11.716) scale(.905)" xlink:href="#_名称未設定グラデーション_2"/>
    <linearGradient id="_名称未設定グラデーション_2-15" data-name="名称未設定グラデーション 2" x1="595.227" y1="231.265" x2="667.102" y2="231.265" gradientTransform="translate(-262.529 55.344) rotate(-1.414)" xlink:href="#_名称未設定グラデーション_2"/>
    <linearGradient id="_名称未設定グラデーション_2-16" data-name="名称未設定グラデーション 2" x1="309.758" y1="-203.05" x2="381.635" y2="-203.05" gradientTransform="translate(-237.426 494.832) rotate(-1.275) scale(.953)" xlink:href="#_名称未設定グラデーション_2"/>
    <linearGradient id="_名称未設定グラデーション_443" data-name="名称未設定グラデーション 443" x1="-1122.989" y1="-972.878" x2="-1073.202" y2="-972.878" gradientTransform="translate(1041.75 1170.441) rotate(8.303) scale(.989)" gradientUnits="userSpaceOnUse">
      <stop offset="0" stop-color="#f2a3c5"/>
      <stop offset=".166" stop-color="#df7e98"/>
      <stop offset=".35" stop-color="#ce5c6f"/>
      <stop offset=".53" stop-color="#c1414e"/>
      <stop offset=".702" stop-color="#b72e37"/>
      <stop offset=".862" stop-color="#b12228"/>
      <stop offset="1" stop-color="#b01f24"/>
    </linearGradient>
    <linearGradient id="_名称未設定グラデーション_443-2" data-name="名称未設定グラデーション 443" x1="-630.941" y1="-486.214" x2="-592.804" y2="-486.214" gradientTransform="translate(598.53 488.349) rotate(3.729) scale(.906)" xlink:href="#_名称未設定グラデーション_443"/>
    <linearGradient id="_名称未設定グラデーション_443-3" data-name="名称未設定グラデーション 443" x1="1012.604" y1="654.416" x2="1075.662" y2="654.416" gradientTransform="translate(-1025.255 -336.521) rotate(-5.933) scale(.932)" xlink:href="#_名称未設定グラデーション_443"/>
    <linearGradient id="_名称未設定グラデーション_443-4" data-name="名称未設定グラデーション 443" x1="-4573.92" y1="-994.208" x2="-4510.863" y2="-994.208" gradientTransform="translate(3466.314 2870.551) rotate(25.173) scale(.932)" xlink:href="#_名称未設定グラデーション_443"/>
    <linearGradient id="_名称未設定グラデーション_443-5" data-name="名称未設定グラデーション 443" x1="-5858.255" y1="557.145" x2="-5795.197" y2="557.145" gradientTransform="translate(5340.608 3102.092) rotate(34.684)" xlink:href="#_名称未設定グラデーション_443"/>
    <linearGradient id="_名称未設定グラデーション_443-6" data-name="名称未設定グラデーション 443" x1="2109.805" y1="1240.424" x2="2182.919" y2="1240.424" gradientTransform="translate(-2103.035 -577.049) rotate(-12.271) scale(.949)" xlink:href="#_名称未設定グラデーション_443"/>
    <linearGradient id="_名称未設定グラデーション_443-7" data-name="名称未設定グラデーション 443" x1="-1745.336" y1="-261.868" x2="-1672.224" y2="-261.868" gradientTransform="translate(1799.766 580.013) rotate(10.473) scale(.95)" xlink:href="#_名称未設定グラデーション_443"/>
    <linearGradient id="_名称未設定グラデーション_443-8" data-name="名称未設定グラデーション 443" x1="5642.568" y1="2804.127" x2="5715.686" y2="2804.127" gradientTransform="translate(-5526.556 1072.39) rotate(-34.635) scale(.933)" xlink:href="#_名称未設定グラデーション_443"/>
    <clipPath id="clippath-2">
      <rect class="cls-15" width="374" height="280"/>
    </clipPath>
  </defs>
  <g class="cls-33">
    <g id="_レイヤー_2" data-name="レイヤー 2">
      <g id="design">
        <g>
          <g class="cls-36">
            <g class="cls-34">
              <rect class="cls-12" x="-9.684" y=".931" width="393.368" height="278.139"/>
              <circle class="cls-19" cx="364.069" cy="17.416" r="147.857" transform="translate(307.158 377.431) rotate(-83.756)"/>
              <g class="cls-35">
                <path class="cls-31" d="m75.069,117.406c-5.878,4.115-9.637,9.857-12.511,16.179-.003.006-.006.013-.009.019.901-6.894.743-13.761-2.079-20.367-9.701-19.347-38.383-17.361-45.101,3.508-1.907,6.858-.77,13.898,1.163,20.638,4.625,13.68,10.252,27.057,16.691,40.158,3.3,6.652,6.878,13.284,11.108,19.864,0,0,0,0,0,0,0,0,0,0,0,0t0,0s0,0,0,0c.001,0,.003-.001.004-.002,7.065-3.354,13.603-7.095,19.918-11.001,12.386-7.725,24.228-16.114,35.379-25.29,5.201-4.703,9.884-10.081,11.885-16.912,5.314-21.27-17.994-38.102-36.448-26.795Z"/>
                <path class="cls-29" d="m384.401,58.234c-3.175,5.162-4.161,10.874-4.267,16.739,0,.006,0,.012,0,.018-1.615-5.646-4.043-10.915-8.446-15.088-14.012-11.739-35.575-.574-33.779,17.855.824,5.955,4.067,11.03,7.828,15.605,8.176,9.051,17.026,17.53,26.413,25.523,4.79,4.049,9.789,7.987,15.275,11.668,0,0,0,0,0,0,0,0,0,0,0,0t0,0s0,0,0,0c0,0,.002-.002.002-.003,4.35-4.971,8.162-10.065,11.745-15.211,7.007-10.144,13.37-20.62,18.934-31.474,2.453-5.39,4.277-11.13,3.536-17.096-3.02-18.269-26.734-23.492-37.242-8.535Z"/>
                <path class="cls-25" d="m185.961,68.354c-2.731,5.47-3.214,11.297-2.799,17.2,0,.006,0,.012,0,.018-2.125-5.53-5.034-10.609-9.83-14.411-15.125-10.551-35.801,2.587-32.356,20.948,1.357,5.911,5.069,10.723,9.254,14.985,9.021,8.368,18.669,16.102,28.814,23.299,5.174,3.642,10.548,7.155,16.388,10.366,0,0,0,0,0,0,0,0,0,0,0,0t0,0s0,0,0,0c0,0,.001-.002.002-.003,3.929-5.382,7.307-10.84,10.45-16.331,6.139-10.818,11.601-21.911,16.227-33.313,1.985-5.635,3.308-11.565,2.033-17.495-4.66-18.09-28.955-21.23-38.184-5.264Z"/>
                <path class="cls-6" d="m114.886,173.848c-3.51,3.674-5.322,8.183-6.44,12.973-.001.005-.003.009-.004.014-.332-4.912-1.396-9.659-4.272-13.854-9.424-12.087-29.064-6.724-30.831,8.701-.372,5.027,1.396,9.758,3.674,14.169,5.112,8.857,10.877,17.364,17.168,25.567,3.216,4.161,6.621,8.269,10.472,12.25,0,0,0,0,0,0,0,0,0,0,0,0h0s0,0,0,0c0,0,.002-.001.003-.002,4.44-3.311,8.461-6.817,12.302-10.406,7.528-7.085,14.585-14.555,21.054-22.475,2.958-3.988,5.463-8.373,5.904-13.394.736-15.508-17.787-23.958-29.031-13.543Z"/>
                <path class="cls-4" d="m22.2,242.994c-3.782,3-6.075,7.007-7.751,11.369-.002.004-.004.009-.005.013.328-4.666-.055-9.271-2.215-13.594-7.293-12.602-26.474-10.114-30.147,4.171-1.005,4.682.042,9.364,1.612,13.813,3.656,9.001,7.973,17.758,12.824,26.297,2.484,4.335,5.154,8.644,8.259,12.893h0s0,0,0,0h0s0,0,0,0c0,0,.002-.001.003-.001,4.609-2.537,8.85-5.312,12.933-8.189,8.007-5.686,15.622-11.796,22.741-18.407,3.303-3.367,6.232-7.168,7.301-11.835,2.713-14.498-13.617-24.863-25.555-16.527Z"/>
                <path class="cls-9" d="m161.191,217.174c-2.139,4.175-2.556,8.642-2.284,13.175,0,.005,0,.009,0,.014-1.587-4.259-3.778-8.18-7.428-11.134-11.521-8.215-27.489,1.702-24.991,15.816.995,4.546,3.804,8.267,6.982,11.571,6.855,6.492,14.196,12.502,21.922,18.104,3.941,2.836,8.036,5.574,12.492,8.083,0,0,0,0,0,0,0,0,0,0,0,0h0s0,0,0,0l.002-.002c3.057-4.098,5.692-8.259,8.147-12.447,4.796-8.251,9.075-16.719,12.714-25.431,1.568-4.308,2.63-8.847,1.698-13.407-3.432-13.917-22.047-16.518-29.255-4.341Z"/>
                <path class="cls-24" d="m277.365,176.85c-2.164,3.478-2.852,7.334-2.944,11.298,0,.004,0,.008,0,.012-1.071-3.821-2.693-7.392-5.654-10.228-9.427-7.985-24.042-.517-22.895,11.945.535,4.028,2.709,7.47,5.234,10.575,5.493,6.147,11.444,11.91,17.759,17.346,3.223,2.754,6.587,5.434,10.282,7.941,0,0,0,0,0,0,0,0,0,0,0,0h0s.001-.001.002-.002c2.958-3.344,5.553-6.773,7.993-10.238,4.773-6.831,9.111-13.888,12.911-21.204,1.677-3.634,2.931-7.507,2.452-11.542-1.975-12.358-17.983-15.975-25.139-5.904Z"/>
                <path class="cls-23" d="m24.565,37.337c-2.626,2.784-3.969,6.189-4.787,9.802,0,.004-.002.007-.003.011-.274-3.698-1.098-7.268-3.286-10.413-7.156-9.057-21.922-4.922-23.177,6.704-.255,3.788,1.099,7.342,2.837,10.654,3.893,6.646,8.277,13.025,13.055,19.172,2.442,3.118,5.027,6.195,7.947,9.175h0s0,0,0,0t0,0s0,0,0,0c0,0,.001,0,.002-.001,3.328-2.515,6.339-5.175,9.215-7.897,5.635-5.373,10.914-11.033,15.747-17.03,2.208-3.018,4.073-6.333,4.381-10.117.478-11.684-13.514-17.957-21.931-10.058Z"/>
                <path class="cls-7" d="m329.511-4.324c-2.323,3.199-3.249,6.864-3.611,10.673,0,.004,0,.008-.001.011-.769-3.752-2.084-7.301-4.74-10.235-8.527-8.335-23.109-2.151-22.861,9.926.238,3.914,2.094,7.377,4.312,10.54,4.865,6.295,10.198,12.252,15.904,17.919,2.913,2.872,5.968,5.684,9.352,8.352,0,0,0,0,0,0,0,0,0,0,0,0t0,0s0,0,0,0c0,0,.001-.001.002-.002,3.077-3.016,5.811-6.138,8.399-9.306,5.064-6.248,9.726-12.743,13.886-19.525,1.864-3.383,3.338-7.025,3.154-10.943-1.051-12.033-16.214-16.614-23.795-7.411Z"/>
                <path class="cls-18" d="m174.032,6.292c-1.594,3.575-1.739,7.316-1.308,11.08,0,.004,0,.008.001.011-1.514-3.477-3.517-6.645-6.691-8.942-9.97-6.325-22.827,2.658-20.109,14.305,1.034,3.743,3.542,6.716,6.339,9.326,6.004,5.1,12.392,9.776,19.083,14.095,3.412,2.185,6.947,4.281,10.773,6.171,0,0,0,0,0,0,0,0,0,0,0,0t0,0h0s0-.002.001-.002c2.362-3.553,4.37-7.138,6.226-10.738,3.624-7.091,6.807-14.34,9.446-21.763,1.112-3.66,1.792-7.49.81-11.247-3.487-11.44-19.115-12.768-24.571-2.297Z"/>
                <path class="cls-27" d="m359.423,169.679c-2.915,2.666-4.558,6.068-5.676,9.724-.001.004-.002.007-.004.011,0-3.828-.576-7.565-2.587-10.97-6.675-9.87-22.191-6.74-24.37,5.131-.552,3.88.571,7.642,2.107,11.183,3.5,7.138,7.526,14.039,11.975,20.732,2.276,3.396,4.702,6.761,7.48,10.051h0s0,0,0,0t0,0s0,0,0,0c0,0,.001,0,.002-.001,3.617-2.335,6.92-4.843,10.088-7.426,6.211-5.101,12.077-10.524,17.51-16.328,2.504-2.938,4.676-6.208,5.282-10.08,1.384-11.99-12.54-19.516-21.808-12.028Z"/>
                <path class="cls-16" d="m388.676,135.083c-2.4,3.052-3.447,6.614-3.946,10.339,0,.004-.001.007-.002.011-.613-3.712-1.771-7.244-4.266-10.223-8.054-8.501-22.598-2.98-22.809,8.88.086,3.851,1.778,7.319,3.835,10.507,4.538,6.361,9.547,12.408,14.934,18.185,2.751,2.929,5.643,5.803,8.864,8.548,0,0,0,0,0,0,0,0,0,0,0,0t0,0s0,0,0,0c0,0,.001-.001.002-.002,3.134-2.844,5.934-5.805,8.593-8.817,5.205-5.941,10.024-12.14,14.363-18.639,1.957-3.25,3.54-6.769,3.507-10.62-.579-11.849-15.287-16.916-23.074-8.169Z"/>
                <path class="cls-28" d="m233.459,144.786c-2.211,4.435-2.599,9.159-2.26,13.943,0,.005,0,.01,0,.014-1.726-4.481-4.085-8.597-7.975-11.675-12.265-8.544-29.017,2.116-26.215,16.996,1.103,4.791,4.114,8.689,7.509,12.142,7.316,6.778,15.14,13.042,23.366,18.87,4.196,2.95,8.553,5.794,13.289,8.394,0,0,0,0,0,0h0s0,0,0,0c0,0,0,0,0,0,0,0,.001-.002.002-.003,3.182-4.364,5.917-8.79,8.462-13.242,4.971-8.771,9.392-17.766,13.135-27.01,1.606-4.568,2.675-9.376,1.639-14.181-3.786-14.66-23.48-17.193-30.952-4.247Z"/>
                <path class="cls-10" d="m292.562,93.472c-4.4,3.59-7.032,8.34-8.932,13.497-.002.005-.004.01-.006.015.31-5.493-.215-10.904-2.826-15.953-8.782-14.704-31.303-11.467-35.39,5.394-1.106,5.523.201,11.013,2.119,16.22,4.446,10.527,9.666,20.757,15.51,30.722,2.992,5.058,6.202,10.083,9.922,15.03,0,0,0,0,0,0,0,0,0,0,0,0t0,0s0,0,0,0c.001,0,.002-.001.003-.002,5.38-3.059,10.323-6.392,15.079-9.842,9.326-6.818,18.183-14.128,26.45-22.018,3.831-4.014,7.213-8.531,8.396-14.039,2.956-17.096-16.419-29.023-30.325-19.025Z"/>
                <path class="cls-17" d="m374.365,241.654c-3.128,4.055-4.467,8.766-5.079,13.685,0,.005-.001.01-.002.015-.853-4.888-2.423-9.533-5.751-13.432-10.726-11.115-29.842-3.658-29.978,11.989.161,5.078,2.433,9.632,5.185,13.812,6.062,8.335,12.742,16.25,19.917,23.805,3.664,3.829,7.513,7.585,11.794,11.168,0,0,0,0,0,0,0,0,0,0,0,0t0,0s0,0,0,0c0,0,.002-.001.002-.002,4.099-3.789,7.757-7.729,11.227-11.734,6.793-7.899,13.075-16.134,18.719-24.758,2.542-4.31,4.587-8.971,4.497-14.05-.907-15.621-20.368-22.127-30.532-10.496Z"/>
                <path class="cls-13" d="m92.082,267.5c-3.011,3.883-4.306,8.399-4.904,13.117,0,.005-.001.009-.002.014-.808-4.691-2.303-9.151-5.486-12.9-10.265-10.688-28.622-3.578-28.788,11.433.142,4.872,2.312,9.246,4.942,13.263,5.797,8.01,12.187,15.62,19.053,22.884,3.506,3.682,7.19,7.294,11.29,10.741,0,0,0,0,0,0,0,0,0,0,0,0t0,0s0,0,0,0c0,0,.001-.001.002-.002,3.941-3.625,7.46-7.397,10.798-11.231,6.536-7.563,12.581-15.449,18.016-23.709,2.449-4.13,4.422-8.596,4.347-13.47-.834-14.989-19.489-21.275-29.268-10.14Z"/>
              </g>
              <g>
                <path class="cls-26" d="m112.644,43.333c-2.599,2.393-4.058,5.44-5.047,8.714-.001.003-.002.006-.003.01-.011-3.423-.538-6.764-2.347-9.803-6-8.807-19.866-5.962-21.78,4.662-.482,3.471.533,6.833,1.918,9.995,3.152,6.373,6.773,12.533,10.772,18.506,2.046,3.031,4.226,6.032,6.72,8.967h0s0,0,0,0t0,0s0,0,0,0c0,0,.001,0,.002-.001,3.228-2.099,6.174-4.352,9-6.672,5.539-4.58,10.769-9.449,15.611-14.656,2.23-2.635,4.164-5.566,4.694-9.03,1.202-10.728-11.273-17.417-19.539-10.692Z"/>
                <path class="cls-30" d="m77.706-.266c-1.684,1.819-2.533,4.031-3.042,6.376,0,.002-.001.005-.002.007-.199-2.393-.754-4.7-2.189-6.724-4.688-5.823-14.226-3.057-14.97,4.479-.143,2.454.755,4.748,1.9,6.882,2.561,4.28,5.437,8.385,8.568,12.338,1.6,2.005,3.292,3.982,5.201,5.894h0s0,0,0,0t0,0h0s0,0,.001-.001c2.14-1.648,4.074-3.389,5.92-5.169,3.617-3.513,7.002-7.21,10.096-11.122,1.412-1.967,2.6-4.125,2.777-6.577.24-7.569-8.858-11.549-14.262-6.383Z"/>
                <path class="cls-22" d="m7.447,146.272c-2.305,3.53-3.098,7.484-3.281,11.56,0,.004,0,.008,0,.012-1.017-3.956-2.607-7.666-5.591-10.651-9.524-8.427-24.728-1.067-23.825,11.783.461,4.157,2.622,7.747,5.151,10.999,5.516,6.447,11.511,12.51,17.889,18.245,3.255,2.905,6.658,5.738,10.404,8.4,0,0,0,0,0,0,0,0,0,0,0,0t0,0s0,0,0,0c0,0,.001-.001.002-.002,3.118-3.375,5.865-6.846,8.453-10.358,5.063-6.923,9.684-14.089,13.757-21.532,1.807-3.702,3.183-7.66,2.78-11.823-1.757-12.761-18.15-16.838-25.738-6.634Z"/>
                <path class="cls-5" d="m43.894,213.379c-3.797,1.832-6.518,4.807-8.782,8.203-.002.003-.005.007-.007.01,1.173-3.913,1.729-7.911.716-12.007-3.801-12.135-20.622-13.689-26.487-2.22-1.753,3.797-1.758,7.987-1.272,12.078,1.392,8.37,3.393,16.658,5.891,24.863,1.286,4.169,2.736,8.352,4.568,12.567,0,0,0,0,0,0,0,0,0,0,0,0t0,0s0,0,0,0c0,0,.002,0,.003,0,4.413-1.279,8.558-2.832,12.589-4.501,7.912-3.312,15.571-7.06,22.903-11.329,3.46-2.237,6.683-4.914,8.488-8.686,5.088-11.834-6.841-23.794-18.61-18.977Z"/>
                <path class="cls-21" d="m259.381,232.479c-4.336,1.264-7.738,3.926-10.73,7.114-.003.003-.006.006-.009.009,1.932-3.927,3.227-8.053,2.881-12.561-1.869-13.495-19.367-18.113-27.594-7.032-2.524,3.702-3.27,8.129-3.481,12.537-.01,9.09.638,18.202,1.826,27.314.621,4.633,1.413,9.31,2.603,14.087,0,0,0,0,0,0h0s0,0,0,0c0,0,0,0,0,0,0,0,.002,0,.003,0,4.89-.57,9.544-1.478,14.098-2.529,8.946-2.099,17.702-4.704,26.205-7.918,4.051-1.751,7.931-4.01,10.506-7.677,7.47-11.604-3.018-26.352-16.306-23.345Z"/>
                <path class="cls-8" d="m138.11,113.275c-2.246,4.447-2.662,9.193-2.345,14.004,0,.005,0,.01,0,.015-1.711-4.514-4.061-8.663-7.955-11.779-12.284-8.654-29.181,1.973-26.443,16.946,1.084,4.822,4.089,8.756,7.484,12.245,7.319,6.852,15.151,13.191,23.389,19.093,4.202,2.987,8.567,5.87,13.314,8.509,0,0,0,0,0,0,0,0,0,0,0,0t0,0s0,0,0,0c0,0,.001-.002.002-.003,3.222-4.371,5.995-8.805,8.576-13.267,5.043-8.791,9.536-17.81,13.348-27.082,1.639-4.584,2.739-9.411,1.722-14.247-3.728-14.758-23.512-17.408-31.093-4.434Z"/>
                <path class="cls-14" d="m259.548,15.077c-3.79,3.233-6.008,7.449-7.577,12.009-.002.005-.003.009-.005.014.167-4.824-.396-9.56-2.783-13.938-7.984-12.73-27.675-9.461-30.938,5.407-.864,4.866.387,9.656,2.168,14.186,4.101,9.149,8.874,18.022,14.19,26.65,2.721,4.379,5.632,8.726,8.99,12.994,0,0,0,0,0,0,0,0,0,0,0,0t0,0s0,0,0,0c0,0,.002-.001.003-.002,4.661-2.785,8.932-5.803,13.038-8.92,8.049-6.158,15.679-12.739,22.779-19.817,3.283-3.594,6.164-7.621,7.096-12.474,2.266-15.052-14.955-25.143-26.962-16.108Z"/>
                <path class="cls-11" d="m311.836,188.478c-.378,4.883,1.019,9.354,3.107,13.61.002.004.004.009.006.013-3.244-3.464-6.933-6.357-11.639-7.733-14.405-3.273-25.792,12.71-17.702,25.299,2.789,3.978,6.993,6.431,11.385,8.333,9.217,3.492,18.709,6.325,28.407,8.609,4.938,1.144,9.985,2.132,15.288,2.755,0,0,0,0,0,0,0,0,0,0,0,0h0s0,0,0,0c0,0,0-.002,0-.003,1.294-5.179,2.156-10.248,2.834-15.27,1.296-9.879,2.007-19.759,2.004-29.616-.225-4.78-1.03-9.581-3.764-13.597-8.91-12.022-27.889-7.031-29.927,7.601Z"/>
              </g>
            </g>
          </g>
          <g class="cls-32">
            <image width="370" height="320" transform="translate(36.906 -1.249) scale(.716)" xlink:href="../Links/24.png"/>
            <path class="cls-3" d="m245.336,161.293c4.969-2.316,8.028-4.751,10.052-7.628,2.114-3.007,3.097-6.5,3.932-10.86,1.005-5.242-.087-10.618-1.862-15.716-1.767-5.071-4.209-9.867-5.914-13.979-7.16-17.261-15.345-55.154.456-88.111-4-47,33.478-58.818,53.11-62.115,29.437-4.945,59.211,14.483,70.492,45.802,11.152,30.962,14.415,86.634-10.674,125.363-12.934,19.965-38.625,38.414-73.433,23.553-8.817-3.764-13.906-2.541-20.14-.525-6.062,1.96-13.215,4.676-26.019,4.216h0Z"/>
          </g>
          <g>
            <path class="cls-2" d="m333.04,37.227c.966.267,1.762.671,2.387,1.213s1.092,1.162,1.4,1.862.463,1.417.463,2.15c0,.884-.213,1.725-.638,2.525-.425.8-1.042,1.455-1.851,1.963-.809.508-1.804.762-2.987.762-1.667,0-2.95-.492-3.85-1.475-.167-.183-.25-.408-.25-.675,0-.333.133-.625.399-.875.184-.167.408-.25.676-.25.316,0,.583.1.8.3.333.267.695.467,1.087.6.392.134.779.2,1.163.2.583,0,1.125-.117,1.625-.35s.908-.562,1.225-.987c.316-.425.476-.913.476-1.463,0-.083-.005-.162-.013-.237-.009-.075-.021-.146-.038-.212-.184-1.083-.675-1.9-1.475-2.45-.8-.55-1.792-.825-2.975-.825-.7,0-1.45.1-2.25.3-.801.2-1.617.517-2.45.95-.117.05-.175.133-.175.25.016.816.008,1.637-.025,2.462-.033.825-.092,1.629-.175,2.413-.2,1.533-.925,2.3-2.175,2.3-.551,0-1.15-.134-1.801-.4-.8-.333-1.487-.721-2.062-1.163-.574-.441-.862-.987-.862-1.638,0-.416.15-.879.45-1.387s.8-1.079,1.5-1.712c.934-.833,1.875-1.55,2.825-2.15.1-.083.149-.175.149-.275-.017-.667-.041-1.312-.074-1.938-.034-.625-.075-1.237-.125-1.837-.018-.133-.101-.191-.25-.175-1.351.233-2.734.383-4.15.45-.316.017-.579-.083-.787-.3-.209-.216-.312-.483-.312-.8,0-.283.104-.525.312-.725.208-.2.445-.309.712-.325.684-.033,1.362-.087,2.038-.163.675-.075,1.32-.17,1.938-.288.166-.033.232-.125.199-.275-.1-.683-.208-1.325-.324-1.925-.117-.6-.242-1.15-.375-1.65-.018-.05-.025-.1-.025-.15v-.125c0-.283.092-.529.275-.737.183-.208.433-.312.75-.312.25,0,.479.071.688.212.208.142.346.346.412.613.133.483.258,1.029.375,1.637.116.609.225,1.254.325,1.938.033.167.116.225.25.175.383-.1.75-.208,1.1-.325.351-.116.684-.241,1-.375.15-.05.292-.075.425-.075.217,0,.417.055.601.163.183.109.316.263.399.462.066.134.101.284.101.45,0,.45-.217.767-.65.95-.434.167-.879.329-1.337.487-.459.159-.93.304-1.413.438-.149.034-.208.117-.175.25.033.5.07,1.004.112,1.513s.071,1.029.088,1.562c.033.184.142.233.325.15,1.583-.65,3.125-.975,4.625-.975.833,0,1.625.1,2.375.3Zm-11.625,7.6c.533.267.938.471,1.212.613.275.142.471.212.588.212.133,0,.208-.071.225-.212s.033-.346.05-.613c.033-.283.059-.691.075-1.225.017-.533.033-1.058.05-1.575,0-.216-.092-.267-.274-.15-.367.267-.709.537-1.025.812-.316.275-.6.546-.85.812-.4.4-.601.684-.601.85,0,.1.051.184.15.25.1.067.233.142.4.225Zm16.449-10.25c.301.2.45.492.45.875,0,.25-.075.475-.225.675-.2.283-.476.425-.825.425-.233,0-.45-.075-.65-.225-1.283-.917-2.833-1.45-4.649-1.6-.267-.033-.5-.154-.7-.362-.2-.208-.3-.446-.3-.712,0-.316.116-.583.35-.8.233-.216.509-.308.825-.275,1.083.067,2.116.275,3.1.625s1.858.809,2.625,1.375Z"/>
            <path class="cls-2" d="m325.964,65.627h-.726c-.1,0-.149.05-.149.15v5.75c0,1.5-.934,2.233-2.8,2.2-.268,0-.496-.104-.688-.312-.192-.208-.288-.454-.288-.737s.101-.521.3-.712c.2-.191.434-.288.7-.288.483,0,.726-.025.726-.075v-5.825c0-.1-.051-.15-.15-.15h-.8c-.45,0-.838-.158-1.163-.475-.324-.316-.487-.708-.487-1.175v-5.375c0-.45.158-.837.476-1.162.316-.325.708-.488,1.175-.488h.425c.1,0,.158-.033.175-.1.316-.55.55-1.241.7-2.075v-.05c0-.083-.05-.125-.15-.125h-3.125c-.1,0-.149.05-.149.15v1.2c0,2.484-.017,4.717-.05,6.7-.034,1.983-.125,3.792-.275,5.425-.15,1.634-.408,3.192-.775,4.675-.05.233-.179.429-.387.587-.209.158-.438.237-.688.237-.301,0-.547-.1-.738-.3-.191-.2-.287-.434-.287-.7,0-.117.008-.2.025-.25.333-1.316.574-2.762.725-4.337s.241-3.346.275-5.312c.033-1.966.05-4.208.05-6.725v-1.8c0-.45.162-.837.487-1.163s.713-.487,1.162-.487h7.226c.3,0,.554.104.763.312.208.208.312.454.312.737s-.104.529-.312.737-.463.312-.763.312h-1.05c-.084,0-.143.05-.176.15-.05.316-.112.646-.188.987-.074.342-.171.688-.287,1.038-.033.117.008.175.125.175h.825c.466,0,.858.163,1.175.488.316.325.475.712.475,1.162v5.375c0,.45-.158.838-.475,1.163-.316.325-.709.488-1.175.488Zm-3.95,1.25c.283,0,.513.096.688.287.175.192.263.404.263.638,0,.083-.009.15-.025.2-.167.733-.425,1.425-.774,2.075-.351.65-.768,1.192-1.25,1.625-.15.134-.342.2-.575.2-.3,0-.542-.117-.726-.35-.116-.133-.175-.316-.175-.55,0-.283.092-.517.275-.7.75-.75,1.258-1.683,1.524-2.8.033-.2.125-.354.275-.463.15-.108.316-.162.5-.162Zm.425-6.75c0,.1.05.15.15.15h2.85c.101,0,.15-.05.15-.15v-1.025c0-.1-.05-.15-.15-.15h-2.85c-.101,0-.15.05-.15.15v1.025Zm3.15,2.325c0-.1-.05-.15-.15-.15h-2.85c-.101,0-.15.05-.15.15v1.025c0,.1.05.15.15.15h2.85c.101,0,.15-.05.15-.15v-1.025Zm2.875,8.425c-.15.25-.384.375-.7.375-.2,0-.367-.066-.5-.2-.483-.466-.9-.979-1.25-1.538-.35-.558-.617-1.121-.8-1.688-.017-.05-.029-.096-.038-.137-.008-.042-.012-.088-.012-.138,0-.2.078-.388.237-.562.158-.175.354-.263.587-.263.351,0,.608.175.775.525.184.383.416.787.7,1.212.283.425.55.788.8,1.087.217.233.325.509.325.825,0,.2-.042.367-.125.5Zm9.875.85c.383.2.575.525.575.975,0,.316-.101.566-.301.75-.199.183-.425.275-.675.275-.116,0-.241-.025-.375-.075-.483-.234-1.017-.562-1.6-.988-.584-.425-1.092-.896-1.525-1.412-.149-.184-.225-.375-.225-.575,0-.316.158-.583.475-.8-.05-.066-.116-.1-.2-.1h-2.399c-.067,0-.146.004-.237.012-.092.009-.13.021-.113.038.017,0,.059.017.125.05.316.217.476.492.476.825,0,.2-.067.384-.2.55-.417.483-.941.95-1.575,1.4-.634.45-1.267.792-1.899,1.025-.051.017-.104.029-.163.038-.059.008-.112.012-.162.012-.45,0-.759-.233-.925-.7-.018-.05-.029-.096-.038-.138s-.013-.087-.013-.137c0-.467.226-.8.676-1,.449-.2.891-.45,1.324-.75.434-.3.792-.592,1.075-.875.033-.033.075-.071.125-.113.05-.042.101-.079.15-.112.166-.083.158-.125-.025-.125-.45,0-.837-.158-1.162-.475-.325-.316-.487-.708-.487-1.175v-10c0-.45.162-.838.487-1.163.325-.325.712-.488,1.162-.488h.625c.083,0,.15-.033.2-.1.35-.467.616-1.075.8-1.825.033-.116-.009-.175-.125-.175h-3.274c-.284,0-.529-.1-.738-.3-.208-.2-.312-.441-.312-.725s.104-.525.312-.725c.209-.2.454-.3.738-.3h8.55c.283,0,.528.1.737.3.208.2.312.441.312.725,0,.267-.104.504-.312.713-.209.208-.454.312-.737.312h-2.8c-.084,0-.143.042-.176.125-.066.316-.142.625-.225.925-.084.3-.191.592-.325.875-.05.117-.009.175.125.175h1.851c.449,0,.837.163,1.162.488.325.325.487.712.487,1.163v10c0,.45-.162.837-.487,1.162-.325.325-.713.488-1.162.488-.117,0-.109.042.024.125.05.034.125.1.226.2.3.284.633.567,1,.85.366.284.758.542,1.175.775Zm-7.15-11.675c0,.1.05.15.15.15h3.925c.1,0,.15-.05.15-.15v-1.35c0-.1-.051-.15-.15-.15h-3.925c-.101,0-.15.05-.15.15v1.35Zm0,3.7c0,.1.05.15.15.15h3.925c.1,0,.15-.05.15-.15v-1.325c0-.1-.051-.15-.15-.15h-3.925c-.101,0-.15.05-.15.15v1.325Zm4.226,2.375c0-.1-.051-.15-.15-.15h-3.925c-.101,0-.15.05-.15.15v1.45c0,.1.05.15.15.15h3.925c.1,0,.15-.05.15-.15v-1.45Z"/>
            <path class="cls-2" d="m324.189,95.902c-.7,0-1.388-.233-2.062-.7-.675-.466-1.283-1.116-1.825-1.95-.541-.833-.975-1.8-1.3-2.9-.325-1.1-.487-2.275-.487-3.525,0-.85.088-1.725.263-2.625s.454-1.808.837-2.725c.184-.433.517-.65,1-.65.167,0,.316.034.45.1.217.1.379.242.487.425.108.184.163.375.163.575,0,.15-.025.292-.075.425-.367.817-.629,1.613-.787,2.388-.159.775-.238,1.529-.238,2.263,0,.967.113,1.858.338,2.675.225.817.521,1.525.888,2.125.366.6.758,1.067,1.175,1.4.416.333.809.5,1.175.5.3,0,.566-.125.8-.375s.408-.633.525-1.15c.066-.3.213-.542.438-.725.225-.183.479-.275.763-.275.3,0,.55.108.75.325s.3.458.3.725c0,.1-.009.175-.025.225-.517,2.3-1.699,3.45-3.55,3.45Zm11.875-4.7c-.366,0-.662-.133-.888-.4-.225-.267-.337-.591-.337-.975,0-1.233-.321-2.275-.963-3.125s-1.546-1.433-2.712-1.75c-.301-.083-.538-.262-.713-.538-.175-.275-.229-.554-.162-.837.083-.283.232-.516.449-.7s.459-.275.726-.275c.05,0,.142.017.274.05.983.267,1.908.754,2.775,1.462.866.708,1.554,1.579,2.062,2.612.508,1.034.713,2.184.612,3.45-.017.284-.134.525-.35.725-.217.2-.476.3-.775.3Z"/>
            <path class="cls-2" d="m289.864,46.177c-.8-.7-1.396-1.616-1.787-2.75-.392-1.133-.588-2.525-.588-4.175,0-.883.055-1.838.163-2.863s.271-2.129.487-3.312c.15-.783.225-1.391.225-1.825,0-.367-.041-.679-.125-.938-.083-.258-.208-.521-.375-.788-.116-.167-.175-.367-.175-.6,0-.167.038-.325.112-.475.075-.15.196-.266.363-.35.199-.1.399-.15.6-.15.184,0,.362.042.537.125.176.083.312.217.413.4.267.417.462.846.587,1.288.125.442.188.938.188,1.488,0,.316-.021.658-.062,1.025-.041.367-.104.767-.188,1.2-.217,1.167-.375,2.242-.475,3.225-.1.984-.15,1.875-.15,2.675,0,2.217.434,3.809,1.301,4.775.816.934,1.791,1.4,2.925,1.4.983,0,2.008-.35,3.075-1.05,1.066-.7,2.091-1.733,3.074-3.1.233-.283.517-.425.851-.425.267,0,.491.084.675.25.3.267.45.6.45,1,0,.25-.075.492-.226.725-1.066,1.534-2.291,2.712-3.675,3.538s-2.759,1.237-4.125,1.237c-.733,0-1.446-.129-2.138-.387s-1.337-.646-1.938-1.163Z"/>
            <path class="cls-2" d="m301.314,57.902c-.7.034-1.537.079-2.513.137-.975.059-2.004.121-3.087.188-.15.017-.226.1-.226.25.033.4.055.809.062,1.225.009.417.021.842.038,1.275,0,.15.075.217.225.2.7-.05,1.384-.116,2.05-.2.667-.083,1.309-.183,1.926-.3.333-.05.633.029.899.237.267.209.4.488.4.838,0,.25-.079.475-.237.675-.159.2-.363.317-.613.35-.666.117-1.371.221-2.112.312-.741.092-1.487.163-2.237.212-.15.017-.225.1-.225.25.033.634.054,1.242.062,1.825.008.583.021,1.117.037,1.6,0,.15.066.234.2.25.733.2,1.495.45,2.287.75.792.3,1.621.667,2.487,1.1.45.234.676.6.676,1.1,0,.35-.109.621-.325.812-.217.192-.467.288-.75.288-.2,0-.375-.042-.525-.125-.6-.35-1.229-.688-1.888-1.013-.658-.325-1.354-.604-2.087-.837-.017-.017-.05-.025-.101-.025-.1,0-.158.059-.175.175-.5,2.184-1.983,3.275-4.45,3.275-.649,0-1.262-.117-1.837-.35-.575-.233-1.062-.554-1.463-.963-.399-.408-.675-.871-.825-1.387-.05-.2-.074-.4-.074-.6,0-.783.416-1.45,1.25-2,.833-.55,2.024-.825,3.574-.825.25,0,.513.009.788.025.274.017.554.042.837.075.167,0,.25-.075.25-.225-.017-.416-.029-.858-.037-1.325-.009-.466-.029-.958-.062-1.475,0-.15-.075-.225-.225-.225-.284.017-.567.025-.851.025h-.825c-.583,0-1.142-.012-1.675-.037-.533-.025-1.024-.054-1.475-.088-.284-.016-.521-.129-.713-.337-.191-.208-.287-.446-.287-.712,0-.333.12-.604.362-.812.241-.208.513-.304.812-.288.533.034,1.062.062,1.588.087.524.025,1.045.038,1.562.038h.725c.25,0,.491-.008.725-.025.15,0,.226-.075.226-.225-.017-.417-.034-.829-.05-1.237-.018-.408-.034-.812-.051-1.212,0-.167-.074-.233-.225-.2-1.367.083-2.667.171-3.9.263s-2.233.154-3,.188c-.3.017-.559-.083-.774-.3-.217-.216-.325-.483-.325-.8,0-.283.1-.525.3-.725s.434-.308.7-.325c.767-.033,1.767-.1,3-.2s2.533-.191,3.9-.275c.149-.033.225-.117.225-.25-.017-.434-.037-.833-.062-1.2-.025-.366-.037-.691-.037-.975,0-.3.104-.558.312-.775.208-.216.471-.325.787-.325.283,0,.525.096.725.288.2.192.309.429.325.712.017.284.033.604.05.963s.033.746.051,1.162c0,.15.074.217.225.2,1.05-.066,2.059-.129,3.025-.188.966-.058,1.824-.096,2.574-.112.316-.017.579.083.788.3.208.217.312.483.312.8,0,.284-.101.525-.3.725-.2.2-.442.309-.726.325Zm-10,12.675c.75,0,1.283-.163,1.601-.487.316-.325.516-.712.6-1.163,0-.017.004-.029.013-.038.008-.008.013-.021.013-.038,0-.116-.067-.175-.2-.175-.334-.05-.675-.087-1.025-.112-.35-.025-.708-.021-1.075.012-.783.017-1.35.117-1.699.3-.351.184-.525.392-.525.625,0,.267.208.512.625.737.416.225.975.337,1.675.337Z"/>
            <path class="cls-2" d="m294.889,96.402c-.25.267-.525.4-.825.4s-.566-.104-.8-.312c-.233-.208-.35-.446-.35-.712,0-.216.1-.433.3-.65.35-.35.612-.667.787-.95.175-.283.296-.587.362-.913.066-.325.101-.721.101-1.188,0-.383-.112-.792-.338-1.225-.225-.433-.509-.9-.85-1.4-.342-.5-.684-1.038-1.025-1.612-.342-.575-.625-1.183-.85-1.825-.226-.641-.338-1.321-.338-2.038,0-.65.129-1.337.388-2.062.258-.725.695-1.487,1.312-2.287.217-.267.467-.4.75-.4s.533.109.75.325c.217.217.325.475.325.775,0,.267-.092.5-.275.7-.483.617-.825,1.188-1.024,1.712-.2.525-.301,1.013-.301,1.462,0,.567.117,1.104.351,1.613s.524,1.004.875,1.487c.35.483.695.975,1.037,1.475s.629,1.038.862,1.612c.233.575.351,1.205.351,1.888,0,.8-.125,1.517-.375,2.15-.25.634-.65,1.292-1.2,1.975Z"/>
            <path class="cls-2" d="m302.239,105.977c.283.05.509.18.676.388.166.208.25.454.25.737,0,.317-.117.58-.351.788-.233.208-.509.288-.825.238-.449-.066-.912-.113-1.387-.138-.476-.025-.963-.038-1.463-.038-.434,0-.871.009-1.312.025-.441.017-.896.042-1.362.075-.15.017-.226.1-.226.25v3.75c0,.05.004.096.013.138s.021.087.038.137c.416,1.017.625,2.042.625,3.075,0,.9-.15,1.775-.45,2.625s-.759,1.625-1.375,2.325c-.617.7-1.392,1.267-2.325,1.7s-2.025.675-3.275.725c-.3.016-.562-.08-.787-.288-.225-.208-.338-.471-.338-.788s.113-.583.338-.8c.225-.216.496-.333.812-.35,1.383-.033,2.554-.417,3.513-1.15.958-.733,1.537-1.675,1.737-2.825v-.025c0-.1-.037-.167-.112-.2-.075-.033-.154-.008-.237.075-.301.267-.621.462-.963.587s-.688.188-1.037.188c-.518,0-1.021-.125-1.513-.375-.492-.25-.904-.596-1.237-1.038-.334-.441-.534-.945-.601-1.512-.017-.083-.024-.175-.024-.275v-.275c0-.716.153-1.35.462-1.9.309-.55.713-.979,1.213-1.288.5-.308,1.05-.462,1.649-.462.483,0,.983.117,1.5.35.033.017.075.025.125.025.101,0,.15-.066.15-.2v-1.8c0-.167-.075-.233-.225-.2-.967.066-1.926.133-2.875.2-.95.067-1.867.1-2.75.1-.534,0-1.051-.017-1.551-.05s-.975-.083-1.425-.15c-.283-.05-.513-.188-.688-.412-.175-.225-.263-.479-.263-.763,0-.316.121-.571.363-.763.241-.191.512-.262.812-.212.466.067.945.117,1.438.15.491.034.987.05,1.487.05.883,0,1.778-.038,2.688-.113.908-.075,1.82-.146,2.737-.212.15-.033.225-.116.225-.25v-2.1c-.017-.3.079-.554.288-.762.208-.208.462-.312.763-.312s.554.108.762.325c.209.217.312.467.312.75v1.925c0,.167.084.233.25.2.467-.033.926-.058,1.375-.075.45-.017.892-.025,1.325-.025.533,0,1.054.017,1.562.05.509.034,1.004.092,1.487.175Zm-11,8.3c.084.25.25.458.5.625s.517.25.801.25c.366,0,.708-.167,1.024-.5s.483-.908.5-1.725c0-.116-.033-.216-.1-.3-.184-.25-.392-.429-.625-.538s-.467-.163-.7-.163c-.4,0-.754.15-1.062.45-.309.3-.463.691-.463,1.175,0,.2.042.442.125.725Z"/>
          </g>
          <g>
            <g>
              <path class="cls-2" d="m96.634,250.377c-.399,0-.737-.129-1.012-.388-.275-.259-.413-.604-.413-1.038v-2.675c-.116.017-.229.034-.337.05-.109.017-.205.034-.288.05-.467.066-.846-.021-1.138-.263-.291-.241-.462-.554-.512-.938-.034-.383.058-.725.274-1.025.217-.3.559-.475,1.025-.525.149-.033.308-.059.475-.075s.333-.033.5-.05v-11.25c0-1.184.233-2.046.7-2.588.467-.541,1.283-.945,2.45-1.212.666-.15,1.388-.325,2.162-.525.775-.2,1.446-.375,2.013-.525.45-.117.829-.096,1.138.062.308.159.521.404.638.737.116.35.1.696-.051,1.038-.149.342-.434.562-.85.663-.634.167-1.292.325-1.975.475-.684.15-1.325.283-1.926.4-.566.117-.954.279-1.162.487-.209.208-.312.638-.312,1.288v.325h3.9c.399,0,.716.129.949.387.233.259.351.571.351.938s-.117.675-.351.925-.55.375-.949.375h-3.9v2.275h3.9c.399,0,.716.125.949.375s.351.559.351.925-.117.679-.351.938c-.233.259-.55.388-.949.388h-3.9v2.7c.767-.116,1.517-.237,2.25-.362s1.375-.229,1.925-.312c.434-.083.783-.042,1.05.125.267.167.434.442.5.825.084.383.046.717-.112,1s-.446.467-.862.55c-.55.117-1.259.254-2.125.413-.867.159-1.742.312-2.625.462v3.15c0,.433-.134.779-.4,1.038-.267.258-.6.388-1,.388Zm6.976-.275c-.45.117-.847.088-1.188-.087-.342-.175-.571-.446-.688-.812-.117-.367-.097-.708.062-1.025.158-.316.445-.533.862-.65.934-.283,1.842-.633,2.725-1.05.884-.416,1.7-.9,2.45-1.45-1.05-1.35-1.858-2.941-2.425-4.775h-.65c-.366,0-.662-.121-.887-.363-.226-.241-.338-.529-.338-.862s.112-.621.338-.863c.225-.241.521-.362.887-.362h7.051c.866,0,1.537.179,2.012.538.476.358.754.825.838,1.4.083.575-.05,1.196-.4,1.862-.333.65-.712,1.275-1.137,1.875-.426.6-.88,1.167-1.363,1.7.584.45,1.221.85,1.913,1.2.691.35,1.445.633,2.263.85.449.117.778.334.987.65.208.316.237.691.087,1.125-.133.416-.396.7-.787.85-.392.15-.805.158-1.237.025-2.05-.684-3.8-1.642-5.25-2.875-1.75,1.366-3.792,2.4-6.125,3.1Zm2.149-13.225c-.316.233-.679.342-1.087.325-.409-.016-.737-.167-.987-.45-.234-.267-.338-.571-.312-.913.024-.341.17-.621.438-.837.449-.367.795-.729,1.037-1.088.241-.358.416-.8.525-1.325.107-.525.162-1.204.162-2.038.017-1.033.291-1.758.825-2.175.533-.417,1.475-.625,2.825-.625s2.291.212,2.824.637c.533.425.801,1.154.801,2.188v2.975c0,.217.054.367.162.45s.287.125.537.125c.316,0,.533-.079.65-.238.116-.158.233-.521.35-1.087.084-.366.283-.629.601-.788s.658-.188,1.024-.087c.384.117.658.309.825.575s.217.583.15.95c-.217,1.25-.604,2.109-1.163,2.575-.559.467-1.404.7-2.537.7-1.184,0-2.025-.179-2.525-.537s-.75-1.046-.75-2.062v-3.05c0-.333-.062-.558-.188-.675s-.379-.175-.762-.175c-.367,0-.613.059-.738.175s-.195.333-.212.65c-.034,1.517-.25,2.708-.65,3.575-.399.867-1.009,1.617-1.825,2.25Zm4.101,6.4c.283-.3.541-.613.774-.938.233-.325.459-.654.676-.988.416-.733.199-1.1-.65-1.1h-2.525c.417,1.083.992,2.092,1.726,3.025Z"/>
              <path class="cls-2" d="m123.185,245.252c-.367.217-.759.271-1.176.162-.416-.108-.733-.346-.949-.712-.217-.383-.268-.775-.15-1.175.116-.4.358-.716.725-.95.684-.45,1.388-.975,2.113-1.575.725-.6,1.37-1.208,1.938-1.825.283-.316.62-.513,1.012-.587.392-.075.754.004,1.088.237.333.25.537.583.612,1,.075.417-.013.792-.263,1.125-.416.534-.908,1.067-1.475,1.6-.566.534-1.15,1.034-1.75,1.5-.6.467-1.175.867-1.725,1.2Zm5.024,3.15c-.417,0-.774-.15-1.075-.45-.3-.3-.449-.658-.449-1.075,0-.434.149-.8.449-1.1.301-.3.658-.45,1.075-.45.783,0,1.292-.112,1.525-.337s.35-.696.35-1.413v-6.925h-6.625c-.417,0-.767-.146-1.05-.438s-.425-.646-.425-1.062.142-.771.425-1.062.633-.438,1.05-.438h6.625v-2.7c0-.433.15-.795.45-1.087.3-.292.658-.438,1.075-.438.433,0,.796.146,1.087.438.292.292.438.654.438,1.087v2.7h6.176c.416,0,.766.146,1.05.438.283.292.425.646.425,1.062s-.142.771-.425,1.062c-.284.292-.634.438-1.05.438h-6.176v7.1c0,1.7-.379,2.9-1.137,3.6-.759.7-2.021,1.05-3.788,1.05Zm13.45-3.7c-.316.284-.688.409-1.112.375-.425-.033-.788-.2-1.088-.5-.316-.333-.712-.712-1.188-1.137-.475-.425-.958-.842-1.45-1.25-.491-.408-.938-.746-1.337-1.013-.351-.233-.562-.558-.638-.975-.075-.417.004-.792.237-1.125.233-.35.554-.562.963-.637.408-.075.787.004,1.138.237.433.284.933.65,1.5,1.1.566.45,1.129.913,1.688,1.387.558.475,1.028.921,1.412,1.338.3.3.438.671.412,1.112-.024.442-.204.804-.537,1.087Zm-.975-11.9c-.217.2-.479.288-.788.263-.309-.025-.554-.154-.737-.388-.2-.233-.45-.521-.75-.862s-.575-.646-.825-.913c-.167-.167-.25-.379-.25-.638s.101-.496.3-.712c.2-.183.43-.275.688-.275s.496.083.713.25c.267.2.575.467.925.8.351.333.634.642.851.925.183.217.266.475.25.775-.018.3-.143.559-.375.775Zm.75-2.25c-.217-.233-.484-.504-.801-.812-.316-.308-.608-.587-.875-.837-.166-.15-.262-.358-.287-.625s.062-.508.263-.725c.166-.2.383-.308.649-.325.267-.016.509.05.726.2.267.167.583.404.95.712.366.309.675.596.925.863.216.217.325.471.325.762s-.109.554-.325.788c-.2.217-.454.325-.763.325s-.571-.108-.787-.325Z"/>
              <path class="cls-2" d="m150.384,240.327c-.416,0-.779-.154-1.087-.462-.309-.308-.463-.671-.463-1.087,0-.433.154-.8.463-1.1.308-.3.671-.45,1.087-.45h15.575c.434,0,.8.15,1.101.45.3.3.449.667.449,1.1,0,.417-.149.779-.449,1.087-.301.309-.667.462-1.101.462h-15.575Z"/>
              <path class="cls-2" d="m174.685,246.527c-.384.167-.775.179-1.176.038-.399-.142-.691-.404-.875-.788-.166-.383-.179-.779-.037-1.188.142-.408.404-.696.787-.863,1.351-.633,2.417-1.404,3.2-2.312.783-.908,1.342-1.941,1.675-3.1.334-1.158.5-2.404.5-3.738,0-.433.15-.8.45-1.1.3-.3.658-.45,1.075-.45.434,0,.796.15,1.088.45.291.3.438.667.438,1.1-.018,2.867-.643,5.317-1.875,7.35-1.234,2.034-2.984,3.567-5.25,4.6Zm16.375-1.6c-1.45.55-2.717.792-3.801.725-1.083-.066-1.929-.462-2.537-1.188s-.912-1.796-.912-3.212v-7.95c0-.433.153-.8.462-1.1.309-.3.671-.45,1.088-.45.433,0,.796.15,1.087.45.292.3.438.667.438,1.1v7.475c0,1.583.959,2.025,2.875,1.325.75-.283,1.571-.616,2.463-1,.892-.383,1.688-.741,2.388-1.075.383-.183.774-.212,1.175-.087s.7.379.9.762c.199.367.237.759.112,1.175s-.38.717-.763.9c-.767.367-1.592.746-2.475,1.137-.884.392-1.717.729-2.5,1.013Z"/>
              <path class="cls-2" d="m216.659,249.302c-2.233.316-4.117.438-5.65.362-1.533-.075-2.762-.304-3.688-.688-.925-.383-1.596-.896-2.012-1.537-.417-.642-.625-1.371-.625-2.188,0-1.25.504-2.417,1.512-3.5,1.009-1.083,2.471-2.033,4.388-2.85-.267-.333-.592-.558-.975-.675-.834-.25-1.654-.158-2.463.275s-1.596,1.066-2.362,1.9c-.283.3-.654.462-1.112.487-.459.025-.829-.112-1.112-.413-.268-.316-.388-.683-.363-1.1.025-.417.196-.758.513-1.025.816-.7,1.538-1.458,2.163-2.275.625-.816,1.153-1.658,1.587-2.525-.717.017-1.388.029-2.013.038s-1.162.004-1.612-.013c-.417,0-.767-.146-1.05-.438-.283-.292-.425-.646-.425-1.062.017-.417.175-.758.475-1.025s.658-.392,1.075-.375c.583.017,1.287.021,2.112.013s1.688-.021,2.588-.038c.083-.316.158-.625.225-.925.066-.3.125-.6.175-.9.066-.417.25-.754.551-1.012.3-.258.658-.363,1.074-.312.417.05.75.233,1,.55.25.317.351.684.301,1.1-.018.217-.051.442-.101.675-.05.234-.108.467-.175.7.633-.033,1.225-.071,1.775-.113.55-.041,1.041-.096,1.475-.162.416-.05.787.046,1.112.287.325.242.513.571.562.988s-.054.784-.312,1.1-.587.492-.987.525c-.617.067-1.325.125-2.125.175-.8.05-1.634.092-2.5.125-.367.817-.767,1.583-1.2,2.3.4-.083.783-.113,1.15-.088.366.025.716.088,1.05.188.5.134.987.363,1.463.688.475.325.896.779,1.262,1.363.816-.233,1.688-.45,2.613-.65.925-.2,1.903-.375,2.938-.525.399-.066.766.021,1.1.263.333.242.525.571.575.987.066.417-.025.784-.275,1.1-.25.317-.583.509-1,.575-.967.117-1.858.254-2.675.413s-1.575.329-2.275.512c.084.45.15.942.2,1.475.05.534.075,1.108.075,1.725,0,.417-.146.771-.438,1.062-.292.292-.646.438-1.062.438s-.767-.146-1.05-.438c-.284-.292-.425-.646-.425-1.062,0-.85-.051-1.608-.15-2.275-1.367.566-2.354,1.171-2.963,1.812s-.912,1.262-.912,1.862c0,.45.267.817.8,1.1.533.284,1.425.442,2.675.475s2.959-.092,5.125-.375c.4-.05.767.046,1.101.287.333.242.524.571.575.988.05.4-.051.758-.301,1.075s-.574.508-.975.575Z"/>
              <path class="cls-2" d="m228.209,240.652c-.399,0-.737-.133-1.013-.4-.274-.267-.412-.617-.412-1.05v-1.05c0-1.25.279-2.158.838-2.725.558-.566,1.596-.883,3.112-.95l-.025-.075c-.066-.1-.162-.263-.287-.488-.125-.225-.25-.454-.375-.688-.125-.233-.222-.4-.288-.5-.166-.283-.208-.596-.125-.938.084-.341.283-.596.601-.762h-.851c-.416,0-.758-.121-1.024-.363-.267-.241-.4-.57-.4-.987-.017-.4.121-.712.413-.938.291-.225.662-.329,1.112-.312,1.2.017,2.475-.004,3.825-.062,1.35-.058,2.699-.142,4.05-.25,1.35-.108,2.642-.246,3.875-.413,1.233-.167,2.325-.35,3.274-.55.483-.1.884-.062,1.2.112.316.175.517.429.601.763.133.434.083.8-.15,1.1-.233.3-.517.492-.85.575-.217.034-.434.071-.65.113s-.441.079-.675.112l.024.025c.351.134.592.371.726.712.133.342.116.705-.05,1.088-.117.267-.312.667-.588,1.2-.275.534-.537,1.042-.787,1.525h.75c1.166,0,2.078.109,2.737.325.658.217,1.125.583,1.399,1.1.275.517.413,1.217.413,2.1v1.2c0,.434-.142.784-.425,1.05-.284.267-.625.4-1.025.4s-.742-.133-1.025-.4-.425-.617-.425-1.05v-1.125c0-.483-.116-.812-.35-.987-.233-.175-.692-.263-1.375-.263h-12.601c-.684,0-1.142.087-1.375.263-.233.175-.35.504-.35.987v1.125c0,.434-.142.784-.425,1.05-.284.267-.625.4-1.025.4Zm.525,9.575c-.534.066-.967-.008-1.3-.225-.334-.217-.525-.55-.575-1-.05-.434.066-.796.35-1.088.283-.291.675-.462,1.175-.512,1.384-.133,2.667-.354,3.851-.663,1.183-.308,2.283-.696,3.3-1.163-.617-.633-1.171-1.329-1.662-2.087-.492-.758-.922-1.587-1.288-2.487h-1.024c-.334,0-.621-.125-.863-.375-.241-.25-.362-.55-.362-.9,0-.333.121-.625.362-.875.242-.25.529-.375.863-.375h8.449c1.316,0,2.292.254,2.926.763.633.509.938,1.142.912,1.9-.025.759-.371,1.529-1.037,2.312-.334.4-.688.779-1.062,1.138s-.755.704-1.138,1.038c1.767.867,4.008,1.383,6.725,1.55.5.017.892.179,1.175.487.283.309.408.679.375,1.113-.1.966-.717,1.408-1.85,1.325-3.684-.2-6.733-1.066-9.15-2.6-1.217.683-2.583,1.254-4.1,1.712-1.517.458-3.2.795-5.05,1.012Zm4.3-15.75h3.175c-.017-.05-.059-.125-.125-.225-.05-.117-.134-.3-.25-.55s-.233-.5-.35-.75c-.117-.25-.2-.433-.25-.55-.117-.283-.142-.571-.075-.863.066-.291.225-.521.475-.688-.666.034-1.329.062-1.987.088-.658.025-1.312.054-1.962.087.133.067.266.192.399.375.066.1.167.279.3.538.134.258.271.508.413.75s.229.396.263.462c.266.483.258.925-.025,1.325Zm5.1,9.55c.733-.533,1.408-1.15,2.025-1.85.3-.333.4-.612.3-.837-.1-.225-.417-.337-.95-.337h-3.824c.649,1.184,1.466,2.191,2.449,3.025Zm.375-9.55h1.926c.166-.333.357-.754.574-1.262s.43-1.004.638-1.488c.208-.483.354-.841.438-1.075.033-.1.079-.188.138-.263.059-.075.121-.146.188-.212-.783.117-1.612.217-2.487.3-.875.084-1.771.167-2.688.25.216.1.383.275.5.525.05.1.138.287.263.562.125.275.25.546.375.812s.203.441.237.525c.216.517.183.958-.101,1.325Z"/>
              <path class="cls-2" d="m257.409,248.177c-.417.083-.792.013-1.125-.212-.334-.225-.542-.538-.625-.938-.167-.783-.305-1.712-.412-2.788-.109-1.075-.184-2.225-.226-3.45-.042-1.225-.046-2.466-.013-3.725s.104-2.483.213-3.675c.108-1.191.271-2.279.487-3.262.083-.417.296-.733.638-.95.342-.216.713-.283,1.112-.2.4.084.708.296.925.638.217.342.283.721.2,1.138-.25,1.184-.429,2.483-.537,3.9s-.159,2.842-.15,4.275c.009,1.434.066,2.8.175,4.1.108,1.3.263,2.434.463,3.4.083.4.017.771-.2,1.112-.217.342-.524.555-.925.638Zm8.425.6c-.316.266-.688.391-1.112.375-.425-.017-.779-.175-1.062-.475-.283-.317-.412-.683-.388-1.1.025-.417.196-.766.513-1.05.9-.8,1.588-1.65,2.062-2.55.475-.9.8-1.95.975-3.15.176-1.2.263-2.633.263-4.3-.816.067-1.604.142-2.362.225-.759.083-1.446.175-2.062.275-.417.067-.792-.013-1.125-.238-.334-.225-.542-.537-.625-.938-.066-.416.013-.791.237-1.125.226-.333.546-.533.963-.6.633-.1,1.388-.191,2.263-.275.875-.083,1.778-.158,2.712-.225v-3.425c0-.417.142-.771.425-1.062.283-.292.634-.438,1.051-.438s.766.146,1.05.438c.283.292.425.646.425,1.062v3.25c.583-.033,1.129-.05,1.638-.05h1.312c.416.017.767.175,1.05.475.283.3.408.658.375,1.075-.017.417-.18.759-.487,1.025-.309.267-.671.392-1.088.375-.8-.033-1.733-.033-2.8,0v.15c0,1.717-.104,3.316-.312,4.8-.209,1.483-.612,2.85-1.213,4.1-.6,1.25-1.491,2.375-2.675,3.375Z"/>
              <path class="cls-2" d="m288.509,250.377c-.416,0-.767-.134-1.05-.4s-.425-.625-.425-1.075v-3.75c-.6.2-1.3.425-2.1.675-.801.25-1.58.492-2.338.725-.759.233-1.379.425-1.862.575-.467.133-.867.112-1.2-.062-.334-.175-.566-.471-.7-.888-.116-.383-.083-.737.101-1.062.183-.325.5-.546.949-.663.167-.033.354-.075.562-.125.209-.05.43-.108.663-.175v-13.5h-.976c-.366,0-.675-.129-.925-.388-.25-.258-.375-.562-.375-.913,0-.366.125-.679.375-.938.25-.258.559-.387.925-.387h10.5c.367,0,.676.129.926.387.25.259.375.571.375.938,0,.15-.025.3-.075.45.033,0,.062-.004.087-.013.025-.008.055-.012.088-.012h4.425c1.217,0,2.15.146,2.8.438.65.292,1.071.762,1.263,1.413.191.65.188,1.525-.013,2.625-.5,2.867-1.425,5.492-2.774,7.875,1.083,1.417,2.45,2.742,4.1,3.975.333.234.533.562.601.988.066.425-.042.804-.325,1.137-.284.333-.65.521-1.101.562-.449.042-.842-.079-1.175-.362-.717-.6-1.392-1.216-2.024-1.85-.634-.633-1.217-1.292-1.75-1.975-1.101,1.434-2.393,2.75-3.875,3.95-.317.267-.692.392-1.125.375-.434-.017-.775-.2-1.025-.55l-.05-.05v.575c0,.45-.142.808-.425,1.075-.284.267-.634.4-1.051.4Zm-4.449-17.275h2.975v-2.45h-2.975v2.45Zm0,4.925h2.975v-2.45h-2.975v2.45Zm0,5.35c.55-.15,1.083-.296,1.6-.438s.975-.263,1.375-.363v-2.075h-2.975v2.875Zm5.925,3.325c.033-.05.075-.096.125-.137s.1-.079.149-.113c.834-.633,1.592-1.312,2.275-2.038.684-.725,1.309-1.471,1.875-2.237-1.316-2.216-2.259-4.75-2.825-7.6-.083-.417-.013-.766.213-1.05.225-.283.521-.458.888-.525.383-.066.725-.004,1.024.188s.483.487.55.887c.2.984.446,1.921.738,2.812.291.892.646,1.738,1.062,2.538.85-1.716,1.425-3.525,1.725-5.425.083-.583.037-.983-.138-1.2-.175-.216-.596-.325-1.263-.325h-4.35c-.367,0-.684-.133-.95-.4-.267-.266-.399-.583-.399-.95,0-.2.033-.367.1-.5-.033.017-.084.025-.15.025h-.649v16.05Z"/>
              <path class="cls-2" d="m317.084,249.252c-1.517-.034-2.712-.4-3.587-1.1-.875-.7-1.297-1.658-1.263-2.875.033-.716.237-1.341.612-1.875.375-.533.888-.938,1.537-1.212.65-.275,1.392-.371,2.226-.288,1.333.117,2.267.571,2.8,1.362.533.792.691,1.696.475,2.712.584-.283,1.062-.695,1.438-1.237.375-.542.562-1.246.562-2.112,0-.65-.188-1.238-.562-1.763s-.899-.933-1.574-1.225c-.676-.292-1.455-.413-2.338-.362-.884.05-1.834.312-2.85.788-1.018.475-2.059,1.229-3.125,2.262-.301.284-.676.421-1.125.413-.45-.008-.817-.179-1.101-.513-.267-.316-.388-.679-.362-1.087.025-.408.195-.729.513-.962,1.033-.783,2.066-1.612,3.1-2.487s2.021-1.738,2.963-2.588c.941-.85,1.771-1.625,2.487-2.325.45-.433.604-.792.463-1.075-.143-.283-.505-.383-1.088-.3-.566.067-1.213.15-1.938.25s-1.404.192-2.037.275c-.4.067-.768-.025-1.101-.275s-.524-.583-.575-1c-.066-.4.025-.763.275-1.087.25-.325.583-.521,1-.588.366-.05.829-.1,1.388-.15.558-.05,1.133-.1,1.725-.15s1.096-.091,1.513-.125c1.083-.083,1.967.059,2.65.425.683.367,1.149.863,1.399,1.488s.263,1.304.038,2.038c-.226.733-.705,1.425-1.438,2.075-.334.284-.755.65-1.263,1.1-.509.45-1.029.909-1.562,1.375.95-.183,1.875-.196,2.774-.038.9.159,1.704.479,2.413.962.708.484,1.271,1.121,1.688,1.913.416.792.625,1.721.625,2.788,0,1.517-.334,2.771-1,3.763-.667.992-1.584,1.717-2.75,2.175-1.167.458-2.509.671-4.025.638Zm-.45-2.775h.15c.05,0,.112.004.188.013.075.009.162.004.263-.013.233-.55.274-1.008.125-1.375-.15-.366-.45-.583-.9-.65-.399-.05-.729.004-.987.163-.259.159-.404.413-.438.763-.017.667.517,1.033,1.6,1.1Z"/>
            </g>
            <g>
              <path class="cls-20" d="m82.678,240c0,1.336-.263,2.583-.513,3.845-.257,1.301-.492,2.554-.988,3.751-.505,1.218-.983,2.434-1.708,3.516-.73,1.09-1.4,2.269-2.325,3.194s-2.217,1.425-3.307,2.155c-1.082.724-2.24,1.237-3.458,1.742-1.197.496-2.314,1.272-3.614,1.529-1.262.25-2.59.161-3.925.161s-2.629-.083-3.892-.332c-1.301-.257-2.663-.352-3.86-.848-1.218-.505-2.246-1.406-3.328-2.131-1.09-.73-2.361-1.292-3.286-2.216s-1.866-1.941-2.596-3.032c-.724-1.082-1.031-2.454-1.536-3.671-.496-1.197-1.02-2.427-1.277-3.728-.25-1.262.137-2.598.137-3.934s.07-2.581.32-3.844c.257-1.301.362-2.607.858-3.803.505-1.218.976-2.47,1.7-3.552.73-1.09,1.826-1.886,2.751-2.811s1.901-1.75,2.992-2.48c1.082-.724,2.131-1.52,3.348-2.025,1.197-.496,2.394-1.209,3.694-1.466,1.262-.25,2.639.218,3.974.218s2.629-.046,3.891.204c1.301.257,2.538.652,3.735,1.149,1.218.505,2.436,1.008,3.518,1.732,1.09.73,1.996,1.689,2.92,2.614s1.518,2.075,2.248,3.166c.724,1.082,1.321,2.168,1.826,3.385.496,1.197,1.13,2.328,1.387,3.628.25,1.262.313,2.549.313,3.884Z"/>
              <path class="cls-1" d="m65.738,246.005c.28-.028.518.052.714.241s.294.424.294.704-.098.511-.294.693c-.196.182-.434.266-.714.252-.462-.042-.945-.077-1.449-.105s-1.001-.042-1.49-.042-.974.014-1.449.042c-.477.028-.917.063-1.323.105-.28.014-.521-.07-.725-.252-.203-.182-.305-.413-.305-.693s.102-.515.305-.704.444-.269.725-.241c.588.056,1.176.098,1.764.126.126,0,.189-.063.189-.189v-11.109c0-.182-.077-.231-.231-.147l-1.448.693c-.168.07-.315.105-.441.105-.378,0-.658-.175-.84-.525-.057-.112-.084-.252-.084-.42,0-.182.045-.35.137-.504.091-.154.22-.266.388-.336l3.087-1.491c.141-.07.28-.105.421-.105.237,0,.447.084.63.252.182.168.272.392.272.672v12.915c0,.126.07.189.21.189.588-.028,1.142-.07,1.659-.126Z"/>
            </g>
          </g>
        </g>
      </g>
    </g>
  </g>
</svg>