<?xml version="1.0" encoding="UTF-8"?>
<svg id="_レイヤー_2" data-name="レイヤー 2" xmlns="http://www.w3.org/2000/svg" xmlns:xlink="http://www.w3.org/1999/xlink" viewBox="0 0 374 280">
  <defs>
    <style>
      .cls-1 {
        stroke: #231815;
        stroke-linecap: round;
        stroke-linejoin: round;
        stroke-width: .5px;
      }

      .cls-1, .cls-2 {
        fill: #231815;
      }

      .cls-3 {
        fill: #ffe6f3;
      }

      .cls-3, .cls-2, .cls-4, .cls-5, .cls-6, .cls-7, .cls-8 {
        stroke-width: 0px;
      }

      .cls-4 {
        fill: none;
      }

      .cls-5, .cls-6 {
        fill: #fff;
      }

      .cls-6 {
        fill-rule: evenodd;
      }

      .cls-7 {
        fill: #d3e9f2;
      }

      .cls-8 {
        fill: url(#_新規パターン_7);
      }
    </style>
    <pattern id="_新規パターン_7" data-name="新規パターン 7" x="0" y="0" width="97.024" height="97.017" patternTransform="translate(-3821.215 -3369.06) scale(1.04)" patternUnits="userSpaceOnUse" viewBox="0 0 97.024 97.017">
      <g>
        <rect class="cls-4" y="0" width="97.024" height="97.017"/>
        <path class="cls-3" d="m115.666,97.496c0,.679.222,1.344.176,1.98-.049.676-.267,1.315-.366,1.944-.106.669-.219,1.314-.379,1.931-.17.655-.289,1.309-.517,1.906-.24.629-.468,1.259-.769,1.826-.314.592-.714,1.13-1.089,1.655-.387.541-.948.923-1.396,1.394-.454.478-.912.927-1.423,1.335-.511.409-1.053.753-1.617,1.094-.557.337-1.043.816-1.646,1.09-.591.268-1.236.425-1.866.633-.615.203-1.261.315-1.909.463-.631.144-1.262.321-1.921.414-.641.091-1.288.235-1.952.279-.647.043-1.308-.121-1.972-.121-.678,0-1.339.076-1.984.039-.677-.038-1.327-.154-1.968-.233-.675-.083-1.329-.148-1.962-.276-.666-.136-1.285-.357-1.903-.544-.649-.196-1.292-.339-1.887-.592-.622-.265-1.165-.637-1.727-.965-.578-.338-1.114-.697-1.627-1.104-.52-.412-.965-.875-1.416-1.358-.448-.48-.974-.89-1.353-1.441-.368-.536-.692-1.111-.993-1.715-.288-.577-.546-1.183-.772-1.822-.213-.606-.422-1.233-.578-1.896-.147-.624-.184-1.288-.28-1.964-.09-.635-.291-1.279-.335-1.961-.042-.642-.032-1.308-.032-1.99,0-.693.208-1.359.249-2.017.043-.692-.027-1.371.062-2.023.094-.687.155-1.364.3-2.007.152-.676.347-1.326.555-1.952.219-.655.368-1.332.648-1.931.292-.622.783-1.129,1.142-1.69.367-.574.709-1.158,1.148-1.666.441-.511.991-.909,1.503-1.351.506-.436.958-.955,1.534-1.324.558-.357,1.189-.618,1.813-.911.596-.279,1.184-.637,1.841-.856.623-.208,1.297-.328,1.974-.48.638-.144,1.306-.245,1.993-.339.651-.089,1.324-.19,2.019-.234.657-.041,1.337-.125,2.034-.125.671,0,1.349-.02,2.002.038.668.059,1.281.478,1.927.596.659.121,1.331.124,1.963.305.643.184,1.335.236,1.945.482.619.25,1.113.768,1.694,1.079.587.314,1.117.693,1.66,1.069.546.378,1.092.733,1.589,1.172.496.437.986.873,1.43,1.369.439.491,1.027.879,1.41,1.427.376.538.449,1.272.767,1.862.309.575.69,1.116.94,1.74.242.605.336,1.261.519,1.911.176.626.644,1.199.762,1.865.113.639-.084,1.336-.028,2.011.054.647.068,1.299.068,1.978Z"/>
        <path class="cls-3" d="m18.642,97.496c0,.679.222,1.344.176,1.98-.049.676-.267,1.315-.366,1.944-.106.669-.219,1.314-.379,1.931-.17.655-.289,1.309-.517,1.906-.24.629-.468,1.259-.769,1.826-.314.592-.714,1.13-1.089,1.655-.387.541-.948.923-1.396,1.394-.454.478-.912.927-1.423,1.335-.511.409-1.053.753-1.617,1.094-.557.337-1.043.816-1.646,1.09-.591.268-1.236.425-1.866.633-.615.203-1.261.315-1.91.463-.631.144-1.262.321-1.921.414-.642.091-1.288.235-1.952.279-.647.043-1.308-.121-1.972-.121-.678,0-1.339.076-1.984.039-.678-.038-1.327-.154-1.968-.233-.675-.083-1.329-.148-1.962-.276-.666-.136-1.285-.357-1.903-.544-.649-.196-1.292-.339-1.887-.592-.622-.265-1.165-.637-1.727-.965-.579-.338-1.114-.697-1.628-1.104-.52-.412-.965-.875-1.416-1.358-.448-.48-.974-.89-1.353-1.441-.368-.536-.692-1.111-.993-1.715-.288-.577-.546-1.183-.772-1.822-.213-.606-.422-1.233-.578-1.896-.147-.624-.184-1.288-.28-1.964-.09-.635-.291-1.279-.335-1.961-.042-.642-.032-1.308-.032-1.99,0-.693.208-1.359.249-2.017.043-.692-.027-1.371.062-2.023.094-.687.155-1.364.3-2.007.152-.676.347-1.326.555-1.952.219-.655.368-1.332.648-1.931.292-.622.783-1.129,1.142-1.69.367-.574.709-1.158,1.148-1.666.441-.511.991-.909,1.503-1.351.506-.436.958-.955,1.534-1.324.558-.357,1.189-.618,1.813-.911.596-.279,1.184-.637,1.841-.856.623-.208,1.297-.328,1.974-.48.638-.144,1.306-.245,1.993-.339.651-.089,1.324-.19,2.019-.234.657-.041,1.337-.125,2.034-.125.671,0,1.349-.02,2.002.038.668.059,1.281.478,1.927.596.659.121,1.331.124,1.963.305.643.184,1.335.236,1.945.482.619.25,1.113.768,1.694,1.079.587.314,1.117.693,1.66,1.069.546.378,1.092.733,1.59,1.172.496.437.986.873,1.43,1.369.439.491,1.027.879,1.41,1.427.376.538.449,1.272.767,1.862.309.575.69,1.116.94,1.74.242.605.336,1.261.519,1.911.176.626.644,1.199.762,1.865.113.639-.084,1.336-.028,2.011.054.647.068,1.299.068,1.978Z"/>
        <path class="cls-3" d="m115.666.479c0,.679.222,1.344.176,1.98-.049.676-.267,1.315-.366,1.944-.106.669-.219,1.314-.379,1.931-.17.655-.289,1.309-.517,1.906-.24.629-.468,1.259-.769,1.826-.314.592-.714,1.13-1.089,1.655-.387.541-.948.923-1.396,1.394-.454.478-.912.927-1.423,1.336s-1.053.753-1.617,1.094c-.557.337-1.043.816-1.646,1.09-.591.268-1.236.425-1.866.633-.615.203-1.261.315-1.909.463-.631.144-1.262.32-1.921.414-.641.091-1.288.235-1.952.279-.647.043-1.308-.121-1.972-.121-.678,0-1.339.076-1.984.039-.677-.038-1.327-.154-1.968-.233-.675-.083-1.329-.148-1.962-.277-.666-.136-1.285-.357-1.903-.544-.649-.196-1.292-.339-1.887-.592-.622-.265-1.165-.637-1.727-.965-.578-.338-1.114-.697-1.627-1.104-.52-.412-.965-.875-1.416-1.358-.448-.48-.974-.89-1.353-1.441-.368-.536-.692-1.111-.993-1.715-.288-.577-.546-1.183-.772-1.822-.213-.606-.422-1.233-.578-1.896-.147-.624-.184-1.288-.28-1.964-.09-.635-.291-1.279-.335-1.961-.042-.641-.032-1.307-.032-1.99,0-.693.208-1.359.249-2.017.043-.692-.027-1.371.062-2.023.094-.687.155-1.364.3-2.007.152-.676.347-1.326.555-1.952.219-.655.368-1.332.648-1.931.292-.622.783-1.129,1.142-1.69.367-.574.709-1.158,1.148-1.666.441-.511.991-.909,1.503-1.351.506-.436.958-.955,1.534-1.324.558-.357,1.189-.618,1.813-.911.596-.279,1.184-.637,1.841-.855.623-.208,1.297-.328,1.974-.48.638-.144,1.306-.245,1.993-.339.651-.089,1.324-.19,2.019-.234.657-.041,1.337-.125,2.034-.125.671,0,1.349-.02,2.002.038.668.059,1.281.478,1.927.596.659.121,1.331.124,1.963.305.643.185,1.335.236,1.945.482.619.249,1.113.768,1.694,1.079.587.314,1.117.693,1.66,1.069.546.378,1.092.733,1.589,1.172.496.437.986.872,1.43,1.368.439.491,1.027.879,1.41,1.427.376.538.449,1.272.767,1.862.309.575.69,1.116.94,1.74.242.605.336,1.262.519,1.911.176.626.644,1.199.762,1.865.113.639-.084,1.336-.028,2.011.054.647.068,1.299.068,1.978Z"/>
        <g>
          <path class="cls-3" d="m18.642.479c0,.679.222,1.344.176,1.98-.049.676-.267,1.315-.366,1.944-.106.669-.219,1.314-.379,1.931-.17.655-.289,1.309-.517,1.906-.24.629-.468,1.259-.769,1.826-.314.592-.714,1.13-1.089,1.655-.387.541-.948.923-1.396,1.394-.454.478-.912.927-1.423,1.336s-1.053.753-1.617,1.094c-.557.337-1.043.816-1.646,1.09-.591.268-1.236.425-1.866.633-.615.203-1.261.315-1.91.463-.631.144-1.262.32-1.921.414-.642.091-1.288.235-1.952.279-.647.043-1.308-.121-1.972-.121-.678,0-1.339.076-1.984.039-.678-.038-1.327-.154-1.968-.233-.675-.083-1.329-.148-1.962-.277-.666-.136-1.285-.357-1.903-.544-.649-.196-1.292-.339-1.887-.592-.622-.265-1.165-.637-1.727-.965-.579-.338-1.114-.697-1.628-1.104-.52-.412-.965-.875-1.416-1.358-.448-.48-.974-.89-1.353-1.441-.368-.536-.692-1.111-.993-1.715-.288-.577-.546-1.183-.772-1.822-.213-.606-.422-1.233-.578-1.896-.147-.624-.184-1.288-.28-1.964-.09-.635-.291-1.279-.335-1.961-.042-.641-.032-1.307-.032-1.99,0-.693.208-1.359.249-2.017.043-.692-.027-1.371.062-2.023.094-.687.155-1.364.3-2.007.152-.676.347-1.326.555-1.952.219-.655.368-1.332.648-1.931.292-.622.783-1.129,1.142-1.69.367-.574.709-1.158,1.148-1.666.441-.511.991-.909,1.503-1.351.506-.436.958-.955,1.534-1.324.558-.357,1.189-.618,1.813-.911.596-.279,1.184-.637,1.841-.855.623-.208,1.297-.328,1.974-.48.638-.144,1.306-.245,1.993-.339.651-.089,1.324-.19,2.019-.234.657-.041,1.337-.125,2.034-.125.671,0,1.349-.02,2.002.038.668.059,1.281.478,1.927.596.659.121,1.331.124,1.963.305.643.185,1.335.236,1.945.482.619.249,1.113.768,1.694,1.079.587.314,1.117.693,1.66,1.069.546.378,1.092.733,1.59,1.172.496.437.986.872,1.43,1.368.439.491,1.027.879,1.41,1.427.376.538.449,1.272.767,1.862.309.575.69,1.116.94,1.74.242.605.336,1.262.519,1.911.176.626.644,1.199.762,1.865.113.639-.084,1.336-.028,2.011.054.647.068,1.299.068,1.978Z"/>
          <path class="cls-7" d="m67.154,48.987c0,.679.222,1.344.176,1.98-.049.676-.267,1.315-.366,1.944-.106.669-.219,1.314-.379,1.931-.17.655-.289,1.309-.517,1.906-.24.629-.468,1.259-.769,1.826-.314.592-.714,1.13-1.089,1.655-.387.541-.948.923-1.396,1.394-.454.478-.912.927-1.423,1.335-.511.409-1.053.753-1.617,1.094-.557.337-1.043.816-1.646,1.09-.591.268-1.236.425-1.867.633-.615.203-1.261.315-1.909.463-.631.144-1.262.32-1.921.414-.641.091-1.288.235-1.952.279-.647.043-1.308-.121-1.972-.121-.679,0-1.339.076-1.984.039-.678-.038-1.327-.154-1.968-.233-.675-.083-1.329-.148-1.962-.276-.666-.136-1.285-.357-1.903-.544-.649-.196-1.292-.339-1.887-.592-.622-.265-1.165-.637-1.727-.965-.578-.338-1.114-.697-1.628-1.104-.52-.412-.965-.875-1.416-1.359-.448-.48-.974-.89-1.353-1.441-.368-.536-.692-1.111-.993-1.715-.288-.577-.546-1.183-.772-1.822-.213-.606-.422-1.233-.578-1.896-.147-.624-.184-1.288-.28-1.964-.09-.635-.291-1.279-.335-1.961-.041-.642-.032-1.308-.032-1.99,0-.693.207-1.359.249-2.017.043-.692-.027-1.371.062-2.023.094-.687.155-1.364.3-2.007.152-.676.347-1.326.555-1.952.218-.655.368-1.332.648-1.931.292-.622.783-1.129,1.142-1.69.367-.574.709-1.159,1.148-1.666.441-.511.991-.909,1.503-1.351.506-.436.958-.955,1.534-1.324.558-.357,1.188-.619,1.813-.911.596-.279,1.184-.637,1.841-.856.623-.207,1.297-.327,1.974-.48.638-.144,1.306-.245,1.993-.339.651-.089,1.324-.19,2.019-.234.657-.041,1.337-.125,2.034-.125.671,0,1.349-.02,2.002.038.668.059,1.281.478,1.927.597.659.121,1.331.124,1.962.305.643.185,1.335.237,1.945.482.619.25,1.113.768,1.694,1.079.587.314,1.117.693,1.66,1.069.546.378,1.092.734,1.589,1.172.496.437.986.873,1.43,1.369.439.491,1.027.879,1.41,1.427.376.538.449,1.272.767,1.862.31.575.69,1.116.94,1.74.243.605.336,1.262.519,1.911.176.626.644,1.199.762,1.865.113.639-.084,1.336-.028,2.011.054.647.068,1.299.068,1.978Z"/>
        </g>
      </g>
    </pattern>
  </defs>
  <g id="design">
    <g>
      <g>
        <rect class="cls-5" width="374" height="280"/>
        <rect class="cls-8" width="374" height="280"/>
      </g>
      <image width="370" height="370" transform="translate(82 6) scale(.595)" xlink:href="../Links/⑥.png"/>
      <g>
        <path class="cls-2" d="m156.707,250.577c-.5,0-.896-.104-1.188-.312-.292-.208-.454-.562-.487-1.062-.034-.4.087-.733.362-1,.275-.266.646-.408,1.112-.425.934-.033,1.559-.233,1.875-.6.316-.366.476-1.025.476-1.975v-.288c0-.091-.009-.179-.025-.262-.816.534-1.771,1.083-2.862,1.65-1.092.567-2.226,1.092-3.4,1.575-1.175.483-2.296.866-3.362,1.15-.434.116-.816.108-1.15-.025-.333-.134-.566-.409-.699-.825-.117-.383-.088-.725.087-1.025.175-.3.454-.5.838-.6.783-.2,1.62-.466,2.513-.8.891-.333,1.795-.704,2.712-1.113.917-.408,1.796-.833,2.638-1.275.842-.441,1.596-.871,2.263-1.288-.067-.216-.142-.425-.226-.625-.083-.2-.175-.4-.274-.6-.733.517-1.579,1.021-2.538,1.513-.958.492-1.954.946-2.987,1.362-1.033.417-2.017.775-2.95,1.075-.467.15-.846.15-1.137,0-.292-.15-.505-.392-.638-.725-.117-.333-.101-.658.05-.975.15-.316.434-.533.85-.65.967-.25,1.95-.566,2.95-.95s1.954-.796,2.862-1.238c.908-.441,1.696-.871,2.363-1.288-.117-.133-.229-.271-.338-.412s-.229-.279-.362-.413c-1.017.534-2.084,1.025-3.2,1.475-1.117.45-2.275.842-3.475,1.175-.934.25-1.534.017-1.801-.7-.133-.35-.129-.683.013-1,.142-.316.429-.533.862-.65,1.167-.283,2.325-.646,3.476-1.087,1.149-.441,2.233-.921,3.25-1.438h-2.675c-.367,0-.659-.121-.875-.362-.217-.242-.325-.521-.325-.838,0-.333.108-.616.325-.85.216-.233.508-.35.875-.35h11.875c.383,0,.679.117.887.35.209.233.312.517.312.85,0,.317-.104.596-.312.838-.208.242-.504.362-.887.362h-4.775c-.467.367-.959.708-1.475,1.025,1.033.884,1.841,1.917,2.425,3.1.55-.333,1.129-.696,1.737-1.087s1.191-.779,1.75-1.163c.559-.383,1.013-.716,1.362-1,.366-.283.746-.404,1.138-.362s.679.196.862.462c.233.367.321.721.263,1.062-.059.342-.254.629-.588.862-.616.417-1.342.884-2.175,1.4-.833.517-1.658.992-2.475,1.425.666.583,1.399,1.146,2.2,1.688.8.542,1.607,1.034,2.425,1.475.816.441,1.575.812,2.274,1.112.384.167.65.434.801.8.149.367.133.717-.051,1.05-.233.466-.559.741-.975.825-.417.083-.825.025-1.225-.175-.634-.316-1.321-.7-2.062-1.15-.742-.45-1.476-.95-2.2-1.5-.726-.55-1.388-1.125-1.987-1.725.033.167.05.337.05.513v.537c0,1.884-.409,3.267-1.226,4.15-.816.883-2.059,1.325-3.725,1.325Zm-7.725-15.025c-.4,0-.738-.125-1.013-.375-.275-.25-.413-.591-.413-1.025v-.95c0-1.316.312-2.25.938-2.8.625-.55,1.696-.825,3.213-.825h5.225v-1.275c0-.433.154-.796.463-1.087s.679-.438,1.112-.438.804.146,1.112.438.463.654.463,1.087v1.275h5.1c1.533,0,2.613.275,3.238.825.625.55.938,1.483.938,2.8v.95c0,.434-.143.775-.426,1.025s-.625.375-1.024.375-.742-.116-1.025-.35c-.283-.233-.425-.566-.425-1v-.825c0-.467-.117-.8-.35-1-.234-.2-.659-.3-1.275-.3h-12.775c-.616,0-1.041.1-1.274.3-.233.2-.351.533-.351,1v.825c0,.434-.142.767-.425,1-.283.234-.625.35-1.024.35Z"/>
        <path class="cls-2" d="m174.007,249.877c-.366-.167-.604-.43-.712-.788-.109-.359-.08-.721.087-1.087.533-1.15.963-2.309,1.288-3.475.324-1.167.558-2.441.699-3.825.142-1.383.213-2.95.213-4.7v-4.075c0-1.05.142-1.871.425-2.462.283-.591.775-1.008,1.476-1.25.699-.242,1.666-.363,2.899-.363h10.8c1.134,0,1.996.084,2.588.25.592.167.991.463,1.2.888.208.425.312,1.046.312,1.862,0,.8-.104,1.43-.312,1.888-.209.458-.608.779-1.2.962-.592.184-1.454.275-2.588.275h-12.774v1.15h16.975c.333,0,.601.112.8.337.2.225.301.487.301.788s-.101.562-.301.787c-.199.225-.467.338-.8.338h-3.675c.5.434,1.05.929,1.65,1.487.6.559,1.083,1.038,1.449,1.438.267.267.396.592.388.975s-.162.708-.462.975c-.268.25-.592.367-.976.35-.384-.016-.7-.166-.95-.45-.1-.117-.208-.242-.324-.375-.117-.133-.242-.267-.375-.4-.534.033-1.138.075-1.812.125-.676.05-1.38.1-2.113.15v1.725h4.301c.333,0,.607.112.824.337s.325.504.325.837c0,.317-.108.587-.325.812s-.491.337-.824.337h-4.301v1.675h6.851c.333,0,.608.112.825.337.216.225.324.496.324.812s-.108.587-.324.812c-.217.225-.492.337-.825.337h-16.05c-.317,0-.592-.112-.825-.337s-.351-.496-.351-.812.117-.587.351-.812.508-.337.825-.337h6.274v-1.675h-4.45c-.316,0-.587-.112-.812-.337-.225-.225-.337-.496-.337-.812,0-.333.112-.612.337-.837.226-.225.496-.337.812-.337h4.45v-1.55c-.934.05-1.829.092-2.688.125-.858.034-1.604.067-2.237.1-.417.017-.742-.079-.975-.288-.234-.208-.359-.496-.375-.862-.018-.367.083-.658.3-.875.216-.216.524-.325.925-.325.283-.016.583-.025.9-.025s.649-.008,1-.025c.216-.35.441-.733.675-1.15s.441-.792.625-1.125h-5.025c-.033,1.667-.138,3.171-.312,4.512-.175,1.342-.421,2.596-.737,3.763s-.725,2.317-1.225,3.45c-.167.383-.459.65-.875.8-.417.15-.825.141-1.226-.025Zm4.4-18.2h12.55c.583,0,.95-.05,1.1-.15.15-.1.226-.308.226-.625,0-.333-.075-.55-.226-.65-.149-.1-.508-.15-1.074-.15h-10.551c-.566,0-.996.038-1.287.113-.292.075-.487.225-.588.45-.1.225-.149.562-.149,1.013Zm6.774,7.85c.834-.033,1.676-.066,2.525-.1.85-.033,1.642-.066,2.375-.1-.117-.116-.229-.225-.338-.325-.108-.1-.204-.184-.287-.25-.2-.184-.316-.404-.35-.663-.034-.258.008-.496.125-.712h-2.75c-.2.333-.409.684-.625,1.05-.217.367-.442.733-.676,1.1Z"/>
        <path class="cls-2" d="m214.632,248.102c-.417.1-.809.042-1.175-.175-.367-.216-.6-.525-.7-.925-.1-.4-.042-.779.175-1.138s.525-.587.926-.688c1.85-.483,3.212-1.267,4.087-2.35.875-1.083,1.312-2.458,1.312-4.125,0-1.05-.233-1.991-.7-2.825s-1.129-1.508-1.987-2.025c-.858-.516-1.888-.833-3.087-.95-.301,2.8-.805,5.221-1.513,7.262-.709,2.042-1.542,3.617-2.5,4.725-.959,1.109-1.963,1.663-3.013,1.663-.884,0-1.691-.258-2.425-.775s-1.312-1.258-1.737-2.225c-.426-.966-.638-2.125-.638-3.475,0-1.383.263-2.679.787-3.887.525-1.208,1.271-2.271,2.237-3.188s2.104-1.633,3.413-2.15c1.308-.516,2.745-.775,4.312-.775,1.899,0,3.587.363,5.062,1.087,1.475.725,2.638,1.734,3.487,3.025s1.275,2.796,1.275,4.512c0,2.417-.646,4.429-1.938,6.038-1.292,1.608-3.18,2.729-5.663,3.362Zm-8.149-4.625c.3,0,.646-.254,1.037-.762s.787-1.229,1.188-2.163c.4-.933.767-2.038,1.1-3.312.334-1.275.584-2.688.75-4.237-1.3.25-2.392.729-3.274,1.438-.884.708-1.55,1.55-2,2.525s-.684,1.996-.7,3.062c0,1.133.179,1.992.537,2.575.358.584.812.875,1.363.875Z"/>
        <path class="cls-2" d="m231.732,250.427c-.384,0-.717-.134-1-.4-.284-.267-.426-.6-.426-1v-11.725c-.383.617-.767,1.175-1.149,1.675-.233.317-.542.504-.925.562-.384.059-.742-.021-1.075-.237-.317-.233-.513-.529-.588-.888-.075-.358-.004-.688.213-.987.466-.65.938-1.383,1.412-2.2.476-.816.929-1.654,1.362-2.512s.821-1.691,1.163-2.5c.341-.808.612-1.529.812-2.163.133-.417.375-.708.725-.875.351-.167.726-.183,1.125-.05.366.117.646.329.838.637.191.309.221.671.087,1.087-.149.5-.32,1.009-.512,1.525-.192.517-.404,1.042-.638,1.575v17.05c0,.433-.142.779-.425,1.037-.284.258-.617.388-1,.388Zm10.149-.15c-.399,0-.741-.134-1.024-.4-.284-.267-.426-.617-.426-1.05v-5.175c-.717.784-1.512,1.571-2.387,2.362-.875.792-1.705,1.462-2.488,2.013-.333.233-.708.329-1.125.288-.416-.042-.75-.238-1-.588-.217-.316-.287-.662-.212-1.037s.271-.663.587-.863c.551-.35,1.167-.8,1.851-1.35.683-.55,1.362-1.125,2.037-1.725.675-.6,1.246-1.15,1.713-1.65h-4.375c-.367,0-.684-.129-.95-.387s-.4-.571-.4-.938.134-.679.4-.938.583-.388.95-.388h5.399v-2h-.125c-1.184,0-2.121-.129-2.812-.387s-1.184-.696-1.475-1.312c-.292-.617-.438-1.458-.438-2.525,0-1.083.146-1.929.438-2.537.291-.608.779-1.042,1.463-1.3.683-.258,1.625-.387,2.824-.387h3.101c1.2,0,2.146.129,2.837.387.691.259,1.18.692,1.463,1.3s.425,1.454.425,2.537c0,1.067-.142,1.909-.425,2.525s-.771,1.054-1.463,1.312-1.637.387-2.837.387h-.075v2h5.4c.383,0,.703.129.962.388s.388.571.388.938-.129.679-.388.938-.579.387-.962.387h-4.375c.466.467,1.037.992,1.712,1.575.675.583,1.358,1.142,2.05,1.675.691.534,1.305.967,1.838,1.3.333.217.529.512.588.887.058.375-.021.721-.238,1.038-.233.35-.559.554-.975.613-.417.058-.8-.029-1.15-.263-.483-.333-1.008-.733-1.574-1.2-.567-.466-1.134-.966-1.7-1.5-.567-.533-1.092-1.05-1.575-1.55v5.15c0,.433-.142.783-.425,1.05-.284.266-.625.4-1.025.4Zm-1.5-16.5h2.95c.684,0,1.142-.1,1.375-.3.233-.2.35-.616.35-1.25,0-.65-.116-1.075-.35-1.275-.233-.2-.691-.3-1.375-.3h-2.95c-.667,0-1.116.1-1.35.3-.233.2-.351.625-.351,1.275,0,.634.117,1.05.351,1.25.233.2.683.3,1.35.3Z"/>
        <path class="cls-2" d="m254.682,234.127c-.316,0-.583-.113-.8-.338-.217-.225-.325-.496-.325-.812,0-.3.108-.562.325-.787.217-.225.483-.338.8-.338h7.051c.3,0,.558.113.774.338.217.225.325.487.325.787,0,.317-.108.588-.325.812-.217.225-.475.338-.774.338h-7.051Zm13.2,7.225c-1.083,0-1.908-.091-2.475-.275-.567-.183-.95-.483-1.15-.9-.2-.417-.3-.966-.3-1.65v-1.45c-.066.083-.129.159-.188.225-.059.067-.121.142-.188.225-.233.267-.525.413-.875.438s-.667-.071-.95-.288c-.116-.1-.2-.2-.25-.3-.217.133-.441.2-.675.2h-5.125c-.316,0-.584-.112-.8-.337-.217-.225-.325-.487-.325-.788,0-.316.108-.587.325-.812.216-.225.483-.337.8-.337h5.125c.416,0,.741.184.975.55.367-.416.746-.891,1.138-1.425.392-.533.759-1.075,1.101-1.625.341-.55.62-1.05.837-1.5.2-.417.533-.642,1-.675v-.075h-2.475c-.267,0-.5-.1-.7-.3-.2-.2-.3-.434-.3-.7,0-.283.1-.521.3-.712.2-.191.434-.288.7-.288h2.475v-.4c0-.383.125-.691.375-.925.25-.233.55-.35.9-.35s.649.117.899.35c.25.234.375.542.375.925v.4h2.551v-.4c0-.383.125-.691.375-.925.25-.233.55-.35.899-.35s.646.117.888.35c.241.234.362.542.362.925v.4h2.5c.283,0,.521.096.713.288.191.192.287.429.287.712,0,.267-.096.5-.287.7-.192.2-.43.3-.713.3h-2.5v.325c0,.383-.121.691-.362.925-.242.233-.537.35-.888.35h-.075c0,.017-.017.059-.05.125-.017.067-.05.142-.1.225s-.101.175-.15.275h3.95c.233,0,.425.075.575.225.149.15.225.342.225.575s-.075.429-.225.587c-.15.159-.342.238-.575.238h-3.925v.775h3.3c.2,0,.371.071.513.212.142.142.212.321.212.538,0,.2-.07.371-.212.513s-.312.212-.513.212h-3.3v.75h3.3c.2,0,.371.071.513.212s.212.312.212.513c0,.217-.07.396-.212.537-.142.142-.312.213-.513.213h-3.3v.85h4.149c.233,0,.43.075.588.225s.237.342.237.575c0,.217-.079.409-.237.575-.158.167-.354.25-.588.25h-8.175Zm-12.125-10.675c-.316,0-.592-.116-.825-.35-.233-.233-.35-.508-.35-.825s.116-.592.35-.825.509-.35.825-.35h5.05c.334,0,.608.117.825.35s.325.509.325.825-.108.592-.325.825c-.217.234-.491.35-.825.35h-5.05Zm-.05,10.375c-.316,0-.584-.112-.8-.337-.217-.225-.325-.496-.325-.812s.108-.587.325-.812c.216-.225.483-.337.8-.337h5.125c.316,0,.583.112.8.337s.325.496.325.812-.108.587-.325.812-.483.337-.8.337h-5.125Zm2.6,8.725c-.983,0-1.746-.121-2.287-.363-.542-.242-.912-.637-1.112-1.188-.2-.55-.3-1.283-.3-2.2,0-.933.1-1.675.3-2.225s.57-.946,1.112-1.188c.541-.241,1.304-.362,2.287-.362,1,0,1.767.121,2.301.362.533.242.899.638,1.1,1.188s.3,1.292.3,2.225c0,.917-.1,1.65-.3,2.2-.2.55-.566.946-1.1,1.188-.534.242-1.301.363-2.301.363Zm0-2.275c.5,0,.829-.1.988-.3.158-.2.237-.591.237-1.175s-.079-.979-.237-1.188c-.159-.208-.488-.312-.988-.312-.483,0-.804.104-.962.312-.159.208-.237.604-.237,1.188s.078.975.237,1.175c.158.2.479.3.962.3Zm5.9,2.875c-.417.066-.771.033-1.062-.1-.292-.134-.496-.384-.612-.75-.101-.384-.046-.717.162-1,.208-.284.513-.458.913-.525.783-.117,1.541-.275,2.274-.475.733-.2,1.425-.433,2.075-.7-.884-.783-1.658-1.7-2.325-2.75h-1.7c-.267,0-.496-.1-.688-.3-.191-.2-.287-.433-.287-.7,0-.283.096-.521.287-.712.191-.191.421-.288.688-.288h8.325c.833,0,1.479.192,1.938.575s.688.858.688,1.425-.283,1.117-.85,1.65c-.217.217-.446.43-.688.638-.242.208-.496.404-.763.587.533.217,1.108.413,1.725.587.617.175,1.267.312,1.95.413.4.067.704.233.913.5.208.267.271.591.188.975-.184.75-.768,1.05-1.75.9-1.95-.3-3.75-.934-5.4-1.9-.85.433-1.771.816-2.763,1.15s-2.071.6-3.237.8Zm2.325-15.2h2.774v-.775h-2.774v.775Zm0,2.225h2.774v-.75h-2.774v.75Zm1.35,2.325h1.425v-.85h-2.75c.033.316.146.537.338.662s.521.188.987.188Zm-.975-6.95h2.3l.575-1.375c.1-.25.263-.438.487-.562s.463-.188.713-.188v-.1h-2.551v.325c0,.367-.121.667-.362.9s-.529.358-.862.375c-.033.1-.066.184-.1.25-.018.067-.047.129-.088.188-.042.059-.079.121-.112.188Zm3.35,12.9c.217-.133.425-.267.625-.4s.384-.258.55-.375c.283-.216.4-.408.351-.575-.05-.167-.267-.25-.65-.25h-2.725c.283.284.579.562.888.837.308.275.629.529.962.763Z"/>
      </g>
      <g>
        <path class="cls-6" d="m134.131,240c0,1.336-.263,2.583-.513,3.845-.257,1.301-.492,2.554-.988,3.751-.505,1.218-.983,2.434-1.708,3.516-.73,1.09-1.4,2.269-2.325,3.194s-2.217,1.425-3.307,2.155c-1.082.724-2.24,1.237-3.458,1.742-1.197.496-2.314,1.272-3.614,1.529-1.262.25-2.59.161-3.925.161s-2.629-.083-3.892-.332c-1.301-.257-2.663-.352-3.86-.848-1.218-.505-2.246-1.406-3.328-2.131-1.09-.73-2.361-1.292-3.286-2.216s-1.866-1.941-2.596-3.032c-.724-1.082-1.031-2.454-1.536-3.671-.496-1.197-1.02-2.427-1.277-3.728-.25-1.262.137-2.598.137-3.934s.07-2.581.32-3.844c.257-1.301.362-2.607.858-3.803.505-1.218.976-2.47,1.7-3.552.73-1.09,1.826-1.886,2.751-2.811.925-.925,1.901-1.75,2.992-2.48,1.082-.724,2.131-1.52,3.348-2.025,1.197-.496,2.394-1.209,3.694-1.466,1.262-.25,2.639.218,3.974.218s2.629-.046,3.891.204c1.301.257,2.538.652,3.735,1.149,1.218.505,2.436,1.008,3.518,1.732,1.09.73,1.996,1.689,2.92,2.614.925.925,1.518,2.075,2.248,3.166.724,1.082,1.321,2.168,1.826,3.385.496,1.197,1.13,2.328,1.387,3.628.25,1.262.313,2.549.313,3.884Z"/>
        <path class="cls-1" d="m117.19,246.005c.28-.027.518.053.714.242s.294.423.294.704-.098.511-.294.693-.434.266-.714.252c-.462-.042-.945-.077-1.449-.105s-1.001-.042-1.49-.042-.974.014-1.449.042c-.477.028-.917.063-1.323.105-.28.014-.521-.07-.725-.252s-.305-.413-.305-.693.102-.515.305-.704.444-.269.725-.242c.588.057,1.176.099,1.764.126.126,0,.189-.062.189-.188v-11.109c0-.182-.077-.231-.231-.147l-1.448.693c-.168.07-.315.105-.441.105-.378,0-.658-.175-.84-.525-.057-.112-.084-.252-.084-.42,0-.182.045-.35.137-.504.091-.154.22-.266.388-.336l3.087-1.491c.141-.07.28-.105.421-.105.237,0,.447.084.63.252.182.168.272.392.272.672v12.915c0,.126.07.188.21.188.588-.027,1.142-.069,1.659-.126Z"/>
      </g>
    </g>
  </g>
</svg>