<?xml version="1.0" encoding="UTF-8"?>
<svg id="_レイヤー_2" data-name="レイヤー 2" xmlns="http://www.w3.org/2000/svg" xmlns:xlink="http://www.w3.org/1999/xlink" viewBox="0 0 374 280">
  <defs>
    <style>
      .cls-1 {
        stroke: #231815;
        stroke-linecap: round;
        stroke-linejoin: round;
        stroke-width: .5px;
      }

      .cls-1, .cls-2 {
        fill: #231815;
      }

      .cls-3 {
        fill: #fedbe7;
      }

      .cls-3, .cls-2, .cls-4, .cls-5, .cls-6, .cls-7, .cls-8, .cls-9, .cls-10 {
        stroke-width: 0px;
      }

      .cls-4 {
        fill: #e6e6e6;
      }

      .cls-5 {
        fill: none;
      }

      .cls-6, .cls-8 {
        fill: #fff;
      }

      .cls-11 {
        opacity: .3;
      }

      .cls-7 {
        fill: #ffff6e;
      }

      .cls-8 {
        fill-rule: evenodd;
      }

      .cls-12 {
        clip-path: url(#clippath);
      }

      .cls-9 {
        fill: #fffbd6;
      }

      .cls-10 {
        fill: #faa2ad;
      }
    </style>
    <clipPath id="clippath">
      <rect class="cls-5" width="374" height="280"/>
    </clipPath>
  </defs>
  <g id="design">
    <g>
      <rect class="cls-3" width="374" height="280"/>
      <g class="cls-12">
        <g>
          <g>
            <g>
              <g>
                <path class="cls-10" d="m44.414,176.479c-.224,0-.443-.075-.622-.217-.229-.182-.367-.455-.378-.748l-.132-3.711.01-3.635c0-.044.003-.089.009-.133l.477-3.472-.4-3.477c-.009-.077-.008-.154,0-.231l.413-3.518-.156-3.517-.234-3.576c-.003-.047-.002-.095,0-.143l.275-3.521-.253-3.522-.027-3.663c0-.036.001-.072.005-.107l.357-3.524-.178-3.525.171-3.696.122-3.518-.347-3.532c-.004-.045-.006-.091-.004-.136l.136-3.539-.289-3.542c-.004-.054-.004-.109,0-.163l.29-3.521-.264-3.521c-.003-.036-.003-.072-.002-.108l.122-3.599-.099-3.539.185-3.681-.09-3.525.104-3.653.222-3.633-.053-3.527-.027-3.607.114-3.64-.143-3.531-.004-3.64.125-3.638-.106-3.538-.072-3.612.081-3.644-.167-3.535-.07-3.626.081-3.644.29-3.655.04-3.535.007-3.591-.003-3.601-.151-3.561.026-3.654v-3.597s-.133-3.569-.133-3.569l.159-3.686-.044-3.548-.02-3.612-.149-3.57c-.001-.037,0-.075.001-.112l.255-3.611-.075-3.609c-.005-.267.097-.525.283-.716s.441-.301.708-.303l3.724-.035,3.719.289,3.551-.017,3.628.25,3.563-.299c.028-.002.056-.003.083-.003.035,0,.069.002.104.005l3.63.378,3.537.014,3.583-.179,3.66.175,3.569-.336c.031-.003.101-.004.105-.004l3.635.041,3.624-.005,3.708.271,3.593.106,3.563-.162s3.68-.01,3.681-.01c.042,0,.084.002.125.008l3.575.452,3.527.072,3.582-.328,3.71-.073,3.656.004,3.692.214,3.595.056,3.679.212,3.536.085,3.574-.404c.037-.004.075-.006.112-.006.029,0,.058.001.087.004l3.635.318,3.545-.029,3.717.247,3.42.051c.548.008.988.457.985,1.005l-.019,3.452.305,3.535.111,3.679-.195,3.707-.141,3.612.167,3.543-.028,3.683-.166,3.609.23,3.571c.002.04.002.079,0,.118l-.195,3.625.042,3.562.288,3.561-.015,3.714-.036,3.632.005,3.616-.172,3.677.018,3.579-.258,3.704-.042,3.505.418,3.566c.006.054.008.109.006.164l-.339,7.259-.153,3.563.29,3.569-.006,3.713.06,3.612-.015,3.651-.035,3.637-.123,3.654.092,3.573.064,3.639-.005,3.649-.336,3.624.338,3.538.143,3.686c.002.049,0,.097-.005.146l-.384,3.563.109,3.561-.162,3.707.027,3.582.048,3.627-.056,3.662.201,3.562-.016,3.693-.109,3.659.19,3.554.024,3.833c.003.52-.393.956-.911,1.002l-3.694.33-3.421.613-3.568.303-3.402.812c-.049.012-.1.02-.15.024l-3.554.292-3.445.542-3.56.453-3.539.432-3.566.361-3.454.562-3.475.663c-.042.008-.084.013-.127.016l-3.498.209-3.432.677-3.527.623c-.036.006-.073.011-.109.013l-3.472.225-3.377.859c-.035.009-.07.016-.105.021l-3.525.504c-.039.006-.077.009-.116.01l-3.467.088-3.362.856c-.05.013-.102.021-.153.026l-3.497.327-3.45.679c-.045.009-.09.015-.135.018l-3.47.203-3.377.867c-.047.012-.096.021-.145.026l-3.546.371-3.621.199-3.439.489-3.411.762-3.567.602-3.546.524-3.583.264-3.565.697c-.064.013-.128.019-.192.019Z"/>
                <path class="cls-2" d="m48.521-8.414l3.631.287,3.633-.014,3.632.253,3.639-.305,3.63.378,3.635.02,3.638-.181,3.633.179,3.64-.343,3.635.041,3.636-.005,3.633.267,3.636.109,3.638-.162,3.636-.008,3.627.458,3.635.074,3.638-.332,3.638-.069,3.635.004,3.635.213,3.638.057,3.637.211,3.638.089,3.642-.412,3.635.318,3.64-.025,3.643.244,3.472.053-.019,3.452.308,3.625.108,3.624-.194,3.625-.141,3.626.167,3.629-.029,3.629-.167,3.627.234,3.626-.195,3.626.04,3.627.291,3.63-.018,3.629-.036,3.627.005,3.627-.171,3.628.017,3.631-.255,3.628-.044,3.628.426,3.63-.17,3.63-.17,3.628-.156,3.629.295,3.631-.009,3.629.06,3.631-.014,3.63-.035,3.631-.122,3.63.092,3.632.064,3.631-.005,3.631-.341,3.626.347,3.631.139,3.629-.391,3.632.111,3.63-.162,3.632.026,3.634.047,3.634-.056,3.634.203,3.633-.018,3.633-.109,3.634.191,3.637.022,3.785-3.694.33-3.508.625-3.552.297-3.475.829-3.553.292-3.518.55-3.531.449-3.534.431-3.546.359-3.514.571-3.502.667-3.565.213-3.498.69-3.508.619-3.564.231-3.467.882-3.525.504-3.58.091-3.471.883-3.548.332-3.5.689-3.566.208-3.471.891-3.546.371-3.572.195-3.524.497-3.489.776-3.515.592-3.526.521-3.569.26-3.624.708-.133-3.711.011-3.596.494-3.597-.415-3.602.422-3.598-.159-3.597-.235-3.596.281-3.595-.259-3.597-.025-3.598.364-3.6-.182-3.601.172-3.598.124-3.597-.353-3.598.139-3.598-.293-3.602.296-3.6-.27-3.599.122-3.598-.099-3.6.184-3.603-.089-3.6.104-3.599.22-3.601-.051-3.602-.027-3.6.114-3.601-.144-3.603-.003-3.601.125-3.603-.107-3.602-.071-3.603.08-3.602-.167-3.604-.069-3.598.08-3.603.287-3.598.042-3.603.008-3.601-.003-3.604-.152-3.602.027-3.604v-3.605s-.134-3.605-.134-3.605l.158-3.605-.043-3.604-.019-3.605-.151-3.606.255-3.611-.072-3.699,3.724-.035m0-2h-.019l-3.724.035c-.534.005-1.044.223-1.416.606-.372.383-.575.899-.565,1.433l.07,3.609-.249,3.521c-.005.075-.006.15-.003.225l.149,3.569.019,3.569.043,3.562-.156,3.549c-.002.054-.002.107,0,.161l.131,3.57v3.569s-.026,3.588-.026,3.588c0,.033,0,.066.002.1l.15,3.561.003,3.563-.008,3.594-.042,3.516-.282,3.53c-.003.038-.005.076-.006.115l-.08,3.603c0,.027,0,.055,0,.083l.069,3.598c0,.018,0,.036.002.054l.164,3.535-.078,3.533c0,.028,0,.056,0,.084l.071,3.603.105,3.557-.123,3.539c0,.024-.001.048-.001.071l.003,3.601c0,.026,0,.052.001.078l.141,3.531-.112,3.529c0,.026-.001.052,0,.078l.027,3.6.05,3.541-.216,3.525c-.001.021-.002.043-.003.065l-.104,3.599c0,.036,0,.072,0,.107l.088,3.525-.18,3.527c-.003.052-.003.104-.002.157l.097,3.539-.12,3.537c-.002.072,0,.145.004.217l.258,3.443-.283,3.443c-.009.109-.009.218,0,.326l.284,3.482-.134,3.479c-.003.091,0,.182.008.272l.34,3.467-.119,3.465-.171,3.572c-.003.065-.003.131,0,.196l.174,3.45-.349,3.449c-.007.071-.011.143-.01.215l.025,3.598c0,.043.002.086.005.13l.248,3.447-.27,3.446c-.008.095-.008.191-.002.286l.235,3.596.15,3.394-.404,3.438c-.018.154-.018.309,0,.462l.386,3.351-.459,3.347c-.012.088-.018.177-.019.266l-.011,3.596c0,.026,0,.052.001.078l.133,3.711c.021.585.297,1.131.755,1.495.357.283.796.434,1.244.434.128,0,.256-.012.384-.037l3.506-.686,3.449-.252c.049-.003.098-.009.147-.016l3.526-.521,3.555-.598c.034-.006.068-.012.102-.02l3.412-.759,3.361-.474,3.486-.19c.033-.002.066-.004.099-.008l3.546-.371c.097-.01.194-.027.289-.052l3.284-.843,3.373-.197c.091-.005.181-.017.27-.034l3.401-.669,3.447-.322c.104-.01.206-.028.307-.053l3.253-.828,3.355-.085c.078-.002.156-.008.232-.019l3.525-.504c.071-.01.141-.024.21-.042l3.288-.836,3.38-.219c.073-.005.146-.013.218-.026l3.508-.619,3.405-.671,3.43-.205c.086-.005.171-.016.255-.032l3.475-.662,3.427-.557,3.486-.353,3.575-.436,3.541-.45c.019-.002.038-.005.057-.008l3.446-.539,3.48-.286c.101-.008.202-.024.3-.048l3.328-.794,3.401-.284c.062-.005.123-.013.185-.024l3.422-.61,3.607-.323c1.036-.093,1.828-.964,1.822-2.004l-.022-3.785c0-.031-.001-.062-.003-.093l-.187-3.554.106-3.551c0-.017,0-.033,0-.05l.018-3.633c0-.041,0-.081-.003-.121l-.199-3.562.055-3.562c0-.019,0-.038,0-.057l-.047-3.634-.026-3.57.16-3.58c.002-.05.002-.1,0-.15l-.107-3.492.376-3.495c.01-.097.014-.194.01-.291l-.139-3.629c-.001-.038-.004-.076-.008-.114l-.329-3.442.323-3.438c.006-.062.009-.123.009-.185l.005-3.631-.064-3.668-.091-3.589.12-3.571.036-3.679.014-3.642-.06-3.672.01-3.592c0-.056-.002-.111-.007-.167l-.285-3.508.151-3.505.169-3.621.17-3.63c.005-.109.001-.218-.011-.326l-.411-3.502.042-3.441.251-3.57c.003-.05.005-.1.005-.15l-.017-3.58.169-3.576c.001-.032.002-.064.002-.097l-.005-3.627.036-3.605.018-3.639c0-.057-.002-.113-.006-.17l-.286-3.561-.039-3.494.191-3.561c.004-.079.004-.158-.001-.236l-.227-3.515.162-3.516c.001-.025.002-.051.002-.076l.029-3.629c0-.036,0-.072-.002-.108l-.163-3.544.138-3.541.192-3.595c.003-.055.004-.111.002-.166l-.108-3.624c0-.037-.003-.073-.006-.11l-.301-3.535.018-3.362c.006-1.097-.873-1.994-1.969-2.011l-3.421-.052-3.591-.241c-.044-.003-.089-.004-.134-.004h-.014l-3.545.024-3.542-.31c-.058-.005-.116-.008-.174-.008-.075,0-.15.004-.225.013l-3.506.396-3.468-.084-3.603-.209c-.028-.002-.056-.003-.084-.003l-3.595-.056-3.593-.211c-.038-.002-.077-.003-.115-.003l-3.635-.004-3.679.07c-.048,0-.096.003-.144.008l-3.526.322-3.419-.07-3.523-.445c-.083-.01-.167-.016-.251-.016h-.005l-3.636.008c-.028,0-.056,0-.084.002l-3.563.159-3.518-.105-3.59-.264c-.049-.004-.098-.005-.147-.005h-.002l-3.636.005-3.61-.041h-.022c-.063,0-.125.003-.188.009l-3.497.33-3.49-.172c-.033-.002-.066-.002-.098-.002-.033,0-.066,0-.099.002l-3.583.178-3.482-.019-3.532-.367c-.069-.007-.138-.011-.207-.011-.056,0-.112.002-.167.007l-3.486.292-3.479-.242c-.046-.003-.093-.005-.139-.005h-.008l-3.551.014-3.549-.28c-.052-.004-.105-.006-.157-.006h0Z"/>
              </g>
              <g>
                <path class="cls-3" d="m62.985,156.71c-.243,0-.479-.088-.664-.252-.219-.194-.342-.476-.336-.77l.079-3.685-.088-3.54.127-3.641-.165-3.498-.042-3.614.261-3.604-.165-3.521-.07-3.607c0-.046.001-.092.007-.137l.412-3.471-.335-3.471c-.004-.042-.006-.083-.004-.125l.102-3.579-.115-3.516.006-3.612.24-3.637-.05-3.498.169-3.568-.293-3.514c-.004-.053-.004-.107,0-.161l.278-3.577-.022-3.494-.185-3.531.116-3.662.15-3.584-.183-3.485-.067-3.609.073-3.614.048-3.57-.054-3.547-.132-3.553c-.001-.041,0-.081.003-.121l.295-3.497-.249-3.501c-.004-.055-.003-.109.002-.164l.326-3.485-.3-3.484c-.005-.056-.005-.112,0-.167l.284-3.482-.351-3.486c-.005-.053-.006-.106-.003-.159l.211-3.576.082-3.538.123-3.583-.231-3.474-.152-3.596.074-3.639.174-3.586c.026-.532.465-.951.998-.952l3.561-.005,3.53-.168,3.605-.044,3.58-.006,3.575.333,3.478-.312s3.648-.12,3.659-.12c.024,0,3.646.268,3.646.268l3.503.025s3.542-.175,3.558-.175c.02,0,3.56.206,3.56.206l3.496-.277c.026-.002.106-.002.12-.002l3.569.146,3.481-.147,3.659.179,3.512-.008,3.491-.276c.026-.002.098-.003.107-.002l3.568.104,3.51.126,3.5-.333c.031-.003.104-.004.108-.004l3.641.048c.268.003.523.114.708.308.186.193.286.452.278.72l-.102,3.697.018,3.593.081,3.602-.021,3.647.033,3.604-.248,3.63.233,3.553.091,3.66-.072,3.663-.287,3.611.172,3.555c.001.035.001.07,0,.105l-.205,3.614.089,3.536.276,3.561c.004.053.004.106,0,.159l-.293,3.558.124,3.558.159,3.609.013,3.657-.269,3.693-.042,3.556.061,3.588.124,3.598-.019,3.656-.138,3.648-.172,3.57.216,3.562c.002.034.002.068,0,.103l-.152,3.615.185,3.521-.066,3.684.133,3.562-.026,3.658.104,3.577-.025,3.649-.23,3.671.039,3.542-.156,3.667.148,3.528-.099,3.61c-.014.499-.394.911-.89.966l-3.52.387-3.537.521-3.649.329-3.54.446-3.518.587-3.592.512-3.532.596c-.04.007-.079.011-.119.013l-3.531.167-3.457.733c-.043.009-.086.016-.13.019l-3.541.275-3.495.657-3.684.333-3.462.625-3.681.315-3.469.597-3.608.467-3.636.311-3.567.363-3.518.524-3.596.45-3.646.519c-.047.006-.094.01-.141.01Z"/>
                <path class="cls-2" d="m134.726,8.48l3.641.048-.102,3.697.017,3.626.082,3.62-.022,3.619.033,3.619-.25,3.619.238,3.62.089,3.62-.072,3.618-.289,3.616.176,3.618-.205,3.615.088,3.617.279,3.613-.298,3.616.126,3.617.159,3.618.012,3.617-.266,3.617-.045,3.616.061,3.617.124,3.616-.019,3.617-.137,3.615-.174,3.615.219,3.617-.152,3.615.185,3.614-.068,3.615.133,3.617-.027,3.615.104,3.613-.026,3.613-.228,3.615.037,3.616-.156,3.613.149,3.612-.1,3.541-3.519.387-3.573.525-3.593.323-3.576.45-3.557.593-3.569.507-3.557.601-3.612.171-3.537.75-3.594.28-3.547.666-3.588.32-3.55.636-3.588.302-3.553.608-3.568.461-3.593.306-3.584.365-3.563.53-3.573.447-3.664.521.079-3.685-.089-3.586.127-3.58-.166-3.58-.042-3.579.262-3.58-.167-3.581-.069-3.58.424-3.578-.346-3.578.102-3.579-.115-3.576.007-3.578.237-3.573-.047-3.577.171-3.573-.298-3.579.278-3.577-.019-3.577-.186-3.577.117-3.577.149-3.576-.183-3.578-.065-3.576.073-3.575.049-3.577-.054-3.576-.133-3.575.301-3.574-.254-3.578.334-3.574-.307-3.574.291-3.573-.359-3.576.211-3.576.083-3.574.122-3.572-.232-3.573-.151-3.574.075-3.576.173-3.558,3.56-.005,3.576-.169,3.571-.043,3.57-.006,3.571.338,3.569-.321,3.57-.116,3.572.265,3.569.028,3.566-.175,3.57.208,3.564-.283,3.569.146,3.563-.147,3.569.178,3.563-.006,3.567-.28,3.568.104,3.568.129,3.565-.339m0-2c-.063,0-.126.003-.189.009l-3.435.327-3.437-.124-3.582-.105c-.02,0-.039,0-.059,0-.052,0-.104.002-.156.006l-3.491.274-3.436.006-3.517-.176c-.033-.002-.067-.002-.1-.002-.027,0-.055,0-.083.002l-3.481.144-3.487-.142c-.027-.001-.054-.002-.082-.002-.053,0-.105.002-.158.006l-3.427.272-3.433-.2c-.039-.002-.078-.003-.116-.003-.032,0-.065,0-.098.002l-3.51.172-3.446-.027-3.506-.26c-.049-.003-.099-.005-.148-.005-.022,0-.043,0-.065,0l-3.57.116c-.038.001-.076.004-.114.007l-3.385.304-3.387-.32c-.062-.006-.125-.009-.188-.009h-.004l-3.57.006-3.591.044c-.023,0-.047,0-.07.002l-3.53.167-3.514.005c-1.066.001-1.943.839-1.995,1.903l-.173,3.558c0,.018-.002.037-.002.055l-.075,3.576c0,.042,0,.084.001.127l.151,3.574.228,3.519-.119,3.473-.083,3.56-.209,3.54c-.006.106-.004.212.007.318l.341,3.395-.276,3.392c-.009.111-.009.223,0,.334l.292,3.396-.317,3.396c-.01.109-.011.218-.004.327l.243,3.424-.288,3.42c-.007.081-.009.161-.006.242l.133,3.575.052,3.503-.048,3.548-.072,3.562c0,.026,0,.052,0,.077l.065,3.576c0,.022.001.044.002.066l.178,3.485-.145,3.483-.118,3.595c-.002.057-.001.113.002.17l.184,3.53.019,3.448-.271,3.494c-.008.107-.008.214,0,.321l.287,3.448-.165,3.442c-.002.041-.002.081-.002.122l.046,3.498-.232,3.494c-.003.043-.004.086-.004.129l-.007,3.578c0,.023,0,.045,0,.068l.113,3.515-.1,3.518c-.002.083,0,.167.009.249l.325,3.364-.399,3.364c-.011.091-.015.182-.014.274l.069,3.58c0,.018,0,.036.002.055l.161,3.461-.253,3.46c-.004.056-.006.113-.005.169l.042,3.579c0,.023,0,.046.002.07l.162,3.498-.124,3.499c-.001.04-.002.08,0,.12l.087,3.54-.078,3.639c-.012.587.233,1.15.673,1.539.368.327.841.504,1.327.504.094,0,.188-.007.281-.02l3.664-.521,3.54-.442,3.563-.529,3.538-.36,3.56-.303c.029-.002.058-.005.087-.009l3.568-.461c.027-.003.054-.007.081-.012l3.469-.593,3.503-.295c.062-.005.124-.013.185-.024l3.463-.621,3.5-.312c.064-.006.128-.015.191-.027l3.441-.646,3.487-.272c.087-.007.174-.019.26-.037l3.378-.716,3.45-.163c.08-.004.159-.012.238-.026l3.532-.596,3.543-.504,3.565-.594,3.501-.441,3.557-.32c.037-.003.075-.008.112-.013l3.537-.52,3.483-.383c.992-.109,1.752-.934,1.781-1.932l.1-3.541c.001-.046,0-.093,0-.139l-.145-3.528.152-3.529c.002-.036.002-.071.002-.107l-.037-3.542.223-3.542c.002-.037.004-.074.004-.112l.026-3.613c0-.024,0-.048,0-.072l-.104-3.576.026-3.579c0-.029,0-.059-.001-.088l-.131-3.562.067-3.559c0-.047,0-.093-.002-.14l-.18-3.521.148-3.522c.003-.068.002-.137-.002-.205l-.212-3.509.169-3.506.138-3.636c0-.022.001-.044.001-.065l.019-3.617c0-.026,0-.053-.001-.079l-.124-3.616-.059-3.553.044-3.525.261-3.556c.004-.051.006-.102.005-.153l-.012-3.617c0-.027,0-.054-.002-.082l-.159-3.618-.122-3.481.288-3.5c.009-.106.009-.212,0-.318l-.275-3.561-.085-3.483.2-3.534c.004-.07.004-.14,0-.21l-.169-3.49.278-3.488c.003-.04.005-.08.006-.119l.072-3.618c0-.03,0-.059,0-.089l-.089-3.62c0-.027-.002-.055-.004-.082l-.229-3.485.241-3.485c.004-.052.005-.104.005-.156l-.033-3.619.022-3.588c0-.019,0-.039,0-.058l-.082-3.62-.017-3.558.101-3.665c.015-.535-.186-1.054-.557-1.44-.371-.386-.881-.608-1.417-.615l-3.641-.048c-.009,0-.018,0-.026,0h0Z"/>
              </g>
              <g>
                <path class="cls-9" d="m82.629,108.195c-.246,0-.485-.091-.67-.257-.208-.188-.328-.454-.33-.734l-.036-4.381.048-4.4c.006-.51.394-.934.901-.984l3.441-.341,3.46-.303,3.475-.238,3.429-.31,3.486-.219,3.424-.296,3.44-.331,3.455-.316,3.479-.244,3.445-.293,3.454-.318c.031-.003.062-.004.092-.004.247,0,.485.091.67.258.208.187.327.452.33.732l.044,4.241-.029,4.277c-.003.516-.399.945-.914.989l-3.479.302-3.456.289-3.45.298-6.89.677-3.443.35-3.486.258-3.44.303-3.428.375-3.489.29-3.44.327c-.032.003-.063.004-.095.004Z"/>
                <path class="cls-2" d="m120.624,95.225l.044,4.241-.028,4.26-3.48.302-3.453.288-3.453.298-3.451.338-3.451.34-3.446.35-3.459.256-3.455.304-3.449.377-3.463.287-3.452.328-.036-4.381.048-4.381,3.441-.341,3.448-.302,3.456-.237,3.451-.311,3.459-.217,3.448-.298,3.449-.331,3.451-.316,3.458-.242,3.459-.294,3.461-.319m0-2c-.061,0-.122.003-.184.009l-3.461.319-3.445.292-3.429.24-3.493.32-3.458.332-3.429.297-3.412.214c-.018.001-.036.002-.054.004l-3.451.311-3.413.233-3.486.305-3.463.343c-1.015.101-1.792.948-1.803,1.968l-.048,4.381.036,4.419c.005.56.244,1.093.66,1.469.369.333.847.515,1.34.515.063,0,.126-.003.189-.009l3.452-.328,3.439-.285c.017-.001.035-.003.052-.005l3.449-.377,3.413-.3,3.431-.253c.018-.001.037-.003.055-.005l3.446-.35,3.444-.339,3.45-.338,3.43-.296,3.447-.288,3.487-.303c1.029-.089,1.82-.947,1.827-1.979l.028-4.26-.044-4.275c-.006-.559-.245-1.09-.66-1.464-.369-.333-.847-.515-1.34-.515h0Z"/>
              </g>
              <g>
                <g>
                  <path class="cls-9" d="m146.077,72.368c-.113,0-.226-.019-.334-.058l-3.261-1.157c-.265-.094-.478-.294-.587-.553l-1.348-3.191c-.103-.244-.105-.518-.006-.763l1.356-3.36c.093-.231.27-.419.494-.527l3.261-1.567c.136-.065.285-.099.433-.099.114,0,.228.02.337.059l3.244,1.161c.264.094.477.295.585.554l1.338,3.187c.103.244.104.518.005.763l-1.355,3.346c-.092.229-.266.415-.487.523l-3.235,1.582c-.138.067-.289.102-.439.102Z"/>
                  <path class="cls-2" d="m146.085,62.093l3.243,1.161,1.338,3.187-1.355,3.346-3.235,1.582-3.26-1.156-1.348-3.192,1.356-3.36,3.261-1.568m0-2c-.297,0-.594.066-.866.198l-3.261,1.568c-.449.216-.802.592-.988,1.054l-1.356,3.36c-.198.49-.193,1.039.012,1.527l1.348,3.192c.219.517.645.919,1.174,1.107l3.26,1.156c.217.077.443.115.669.115.302,0,.602-.068.879-.203l3.235-1.582c.443-.217.79-.589.975-1.046l1.355-3.346c.198-.49.195-1.038-.01-1.525l-1.338-3.187c-.217-.517-.642-.919-1.17-1.108l-3.243-1.161c-.219-.078-.447-.117-.674-.117h0Z"/>
                </g>
                <g>
                  <path class="cls-9" d="m128.379,69.761c-.262,0-.514-.103-.702-.288l-.38-.374c-.189-.187-.297-.441-.298-.708l-.011-2.132c-.001-.256.096-.502.271-.689l.391-.417c.177-.189.42-.302.679-.314l3.738-.188,3.709-.276,3.75-.23,3.757-.19s3.768-.268,3.791-.268c.275,0,.54.114.729.316l.348.371c.175.187.272.433.271.689l-.01,2.094c0,.235-.085.462-.237.642l-.338.399c-.178.209-.433.336-.707.352l-3.738.209-3.713.281-3.764.197-3.72.272s-3.793.253-3.815.253Z"/>
                  <path class="cls-2" d="m147.074,64.687l.348.371-.01,2.094-.339.399-3.738.209-3.734.283-3.74.196-3.741.273-3.742.25-.38-.374-.011-2.132.391-.417,3.738-.188,3.733-.278,3.737-.229,3.746-.189,3.741-.267m0-2c-.047,0-.095.002-.143.005l-3.741.267-3.704.187-3.759.231-3.759.28-3.691.185c-.518.026-1.005.252-1.359.63l-.391.417c-.35.373-.543.866-.541,1.377l.011,2.132c.003.532.218,1.042.597,1.415l.38.374c.375.37.88.575,1.403.575.044,0,.089-.001.134-.004l3.742-.25,3.753-.274,3.699-.193,3.78-.286,3.698-.206c.547-.031,1.058-.284,1.413-.702l.339-.399c.305-.359.473-.814.476-1.285l.01-2.094c.002-.511-.191-1.005-.541-1.378l-.348-.371c-.379-.405-.908-.632-1.459-.632h0Z"/>
                </g>
              </g>
              <g>
                <g>
                  <path class="cls-9" d="m146.089,60.542c-.058,0-.116-.01-.171-.03l-2.788-1.017c-.131-.048-.236-.148-.29-.277l-1.141-2.74c-.051-.122-.051-.258-.002-.38l1.155-2.853c.047-.117.137-.211.251-.265l2.78-1.305c.067-.031.14-.047.212-.047.059,0,.117.01.173.031l2.761,1.021c.13.048.234.147.288.275l1.142,2.722c.051.121.052.257.003.379l-1.14,2.851c-.047.117-.136.211-.249.266l-2.77,1.322c-.068.033-.142.049-.215.049Z"/>
                  <path class="cls-2" d="m146.095,52.127l2.762,1.021,1.142,2.722-1.14,2.851-2.77,1.322-2.787-1.016-1.141-2.741,1.156-2.853,2.779-1.306m0-1c-.146,0-.291.032-.425.095l-2.779,1.306c-.228.107-.407.296-.501.53l-1.156,2.853c-.099.244-.098.517.004.76l1.141,2.741c.107.258.318.459.581.555l2.787,1.016c.111.041.227.061.343.061.147,0,.295-.033.431-.097l2.77-1.322c.227-.108.405-.298.498-.531l1.14-2.851c.097-.244.095-.516-.006-.758l-1.142-2.722c-.107-.256-.315-.455-.575-.551l-2.762-1.021c-.112-.042-.229-.062-.347-.062h0Z"/>
                </g>
                <g>
                  <path class="cls-7" d="m145.527,58.043c-.127,0-.251-.049-.344-.137-.1-.095-.157-.227-.156-.364l.01-3.28c0-.265.208-.483.473-.498,0,0,1.136-.061,1.145-.061.128,0,.251.049.345.138.1.095.156.227.155.364l-.012,3.277c0,.264-.208.482-.472.497,0,0-1.134.064-1.144.064Z"/>
                  <path class="cls-2" d="m146.655,54.203l-.012,3.277-1.116.063.01-3.28,1.118-.06m0-1c-.018,0-.036,0-.054.001l-1.118.06c-.529.028-.945.465-.946.995l-.01,3.28c0,.276.112.539.312.729.186.177.433.274.688.274.019,0,.038,0,.056-.001l1.116-.063c.528-.03.942-.466.944-.995l.012-3.277c0-.275-.111-.539-.311-.728-.186-.177-.433-.275-.689-.275h0Zm0,2h.005-.005Z"/>
                </g>
              </g>
            </g>
            <g>
              <g>
                <path class="cls-10" d="m266.696,144.341c-.238,0-.47-.085-.653-.243-.221-.19-.347-.468-.347-.759l.008-3.698.27-3.556-.264-3.48-.101-3.603.209-7.167.125-3.512-.253-3.504c-.002-.036-.003-.071-.002-.107l.124-3.556-.002-3.521-.134-3.521.193-3.651-.148-3.462.02-3.604-.034-3.542.28-3.646-.038-3.47-.013-3.564.095-3.523-.379-3.491c-.004-.041-.006-.083-.006-.124l.057-3.56.202-3.536-.247-3.496c-.004-.057-.003-.114.002-.171l.349-3.457-.361-3.458c-.005-.046-.006-.092-.005-.138l.121-3.556.147-3.567-.118-3.481-.044-3.581-.035-3.561-.045-3.558.25-3.641-.109-3.461-.025-3.585.151-3.558-.228-3.509.085-3.651.106-3.567.188-3.522-.26-3.505-.025-3.72c-.001-.269.105-.527.296-.717.188-.186.44-.29.704-.29.005,0,3.684.056,3.684.056,0,0,3.569-.055,3.574-.055.034,0,.067.001.1.005l3.583.361,3.51.076,3.543-.082,3.585-.1,3.617.018,3.607.089,3.543.216,3.516-.315c.03-.002.06-.004.089-.004.029,0,.058.001.087.004l3.583.312,3.507.012,3.563-.073,3.603-.026,3.581-.067,3.651.158,3.523-.09,3.657.156,3.539-.031,3.635.134,3.545-.057,3.701.146c.55.021.979.484.96,1.034l-.127,3.607.275,3.559c.003.045.004.091,0,.137l-.216,3.617.076,3.536-.081,3.658.038,3.582-.018,3.631-.025,3.621.009,3.607-.15,3.659.135,3.539.038,3.645-.203,3.622.231,3.557c.002.042.002.083,0,.125l-.215,3.55.266,3.549.042,3.683-.092,3.654v3.593s.171,3.57.171,3.57l-.004,3.668-.046,3.629-.229,3.668.124,3.518-.004,3.654.143,3.574c.002.042,0,.083-.002.124l-.298,3.537.292,3.534c.004.05.004.1,0,.15l-.246,3.619.093,3.528.05,3.632.1,3.607-.008,3.65-.115,3.65.006,3.588-.227,3.688.103,3.456c.015.502-.345.936-.84,1.016l-3.5.564-3.554.646c-.036.006-.072.011-.108.014l-3.555.252-3.483.765c-.033.007-.067.013-.101.017l-3.606.413-3.573.355-3.497.754c-.053.011-.106.019-.16.021l-3.57.182-3.498.666-3.626.546-3.516.701c-.045.009-.091.015-.137.018l-3.583.21-3.527.589-3.615.322-3.458.896c-.04.01-.079.018-.12.023l-3.6.477-3.605.465-3.585.501-3.628.428-3.587.335-3.511.741-3.791.572c-.05.008-.1.011-.149.011Z"/>
                <path class="cls-2" d="m266.801-2.808l3.669.056,3.589-.055,3.584.361,3.587.081,3.589-.082,3.59-.1,3.584.018,3.587.089,3.582.219,3.592-.322,3.583.312,3.59.016,3.588-.073,3.59-.026,3.592-.067,3.589.156,3.592-.09,3.588.155,3.591-.03,3.59.134,3.598-.056,3.646.145-.129,3.663.279,3.614-.216,3.617.074,3.616-.081,3.615.038,3.614-.018,3.616-.025,3.618.008,3.616-.148,3.615.134,3.617.038,3.618-.205,3.616.235,3.617-.219,3.618.271,3.617.039,3.618-.091,3.617v3.618s.172,3.618.172,3.618l-.004,3.619-.047,3.618-.226,3.618.122,3.614-.005,3.618.144,3.616-.305,3.62.3,3.617-.246,3.619.091,3.621.05,3.621.101,3.621-.008,3.62-.115,3.62.005,3.621-.224,3.625.101,3.547-3.5.564-3.573.649-3.628.258-3.554.78-3.606.413-3.615.36-3.552.766-3.639.186-3.565.678-3.589.54-3.563.709-3.636.214-3.58.598-3.621.319-3.538.917-3.6.477-3.602.464-3.595.503-3.607.425-3.62.338-3.567.752-3.733.561.008-3.698.272-3.558-.27-3.556-.098-3.555.107-3.555.101-3.556.127-3.558-.258-3.558.125-3.556-.002-3.556-.135-3.557.192-3.56-.148-3.557.021-3.557-.034-3.558.277-3.559-.035-3.557-.013-3.558.097-3.56-.386-3.558.057-3.56.204-3.559-.251-3.56.359-3.559-.372-3.561.121-3.555.146-3.56-.117-3.556-.044-3.56-.034-3.558-.046-3.561.248-3.559-.108-3.561-.024-3.562.153-3.562-.231-3.562.086-3.562.106-3.562.191-3.563-.265-3.569-.023-3.652m0-2c-.527,0-1.033.208-1.408.579-.382.379-.595.895-.592,1.433l.023,3.652c0,.045.002.091.006.136l.256,3.441-.184,3.435-.108,3.609-.087,3.573c-.001.059,0,.119.004.178l.225,3.455-.148,3.455c-.001.033-.002.066-.002.099l.024,3.562.106,3.508-.241,3.459c-.004.055-.005.11-.005.165l.046,3.561.034,3.551.044,3.565.115,3.522-.143,3.486-.122,3.57c-.003.092,0,.184.01.276l.351,3.356-.339,3.354c-.011.114-.013.228-.005.342l.242,3.432-.197,3.431c-.001.028-.002.055-.003.083l-.057,3.56c-.001.083.002.166.011.248l.372,3.423-.093,3.424c0,.021,0,.041,0,.062l.013,3.558.034,3.482-.27,3.472c-.005.058-.007.116-.006.175l.034,3.558-.021,3.526c0,.031,0,.063.002.095l.144,3.462-.187,3.464c-.003.061-.004.122-.001.183l.133,3.52.002,3.483-.123,3.52c-.002.072-.001.143.004.214l.25,3.45-.123,3.45-.102,3.571-.107,3.551c-.001.039-.001.077,0,.116l.098,3.555c0,.032.003.064.005.096l.258,3.404-.26,3.406c-.004.049-.006.099-.006.148l-.008,3.698c-.001.583.252,1.138.694,1.519.365.315.83.486,1.306.486.099,0,.198-.007.297-.022l3.733-.561c.039-.006.077-.013.115-.021l3.455-.729,3.506-.328,3.655-.43,3.638-.509,3.581-.461,3.607-.478c.081-.011.161-.026.24-.047l3.377-.876,3.456-.305c.051-.004.103-.011.154-.02l3.474-.58,3.53-.207c.092-.005.183-.017.273-.035l3.517-.7,3.542-.533c.025-.004.051-.008.076-.013l3.43-.653,3.502-.179c.108-.005.215-.02.32-.042l3.441-.742,3.502-.349,3.635-.416c.068-.008.135-.019.201-.033l3.412-.749,3.483-.248c.072-.005.144-.014.215-.027l3.573-.649,3.46-.557c.991-.16,1.71-1.029,1.681-2.031l-.099-3.457.219-3.534c.003-.042.004-.084.004-.126l-.005-3.588.114-3.587c0-.02,0-.039,0-.059l.008-3.62c0-.02,0-.04,0-.06l-.101-3.621-.05-3.593-.089-3.551.24-3.526c.007-.1.006-.201-.002-.301l-.286-3.451.291-3.453c.007-.082.009-.165.005-.248l-.143-3.575.005-3.577c0-.023,0-.047-.001-.07l-.118-3.518.22-3.522c.002-.033.003-.066.004-.099l.047-3.618.005-3.642c0-.032,0-.065-.002-.097l-.169-3.57v-3.546s.09-3.592.09-3.592c0-.024,0-.048,0-.072l-.039-3.618c0-.043-.002-.085-.006-.128l-.261-3.482.211-3.483c.005-.083.005-.167,0-.251l-.228-3.495.198-3.495c.002-.045.004-.09.003-.134l-.038-3.618c0-.018,0-.035-.001-.053l-.131-3.538.145-3.538c.001-.029.002-.058.002-.087l-.008-3.616.025-3.6.018-3.62-.037-3.612.08-3.582c0-.029,0-.057,0-.086l-.073-3.536.211-3.537c.006-.091.005-.182-.002-.273l-.271-3.502.125-3.551c.039-1.1-.819-2.025-1.92-2.069l-3.646-.145c-.026,0-.053-.001-.079-.001-.01,0-.021,0-.031,0l-3.545.056-3.537-.132c-.025,0-.05-.001-.074-.001h-.017l-3.54.029-3.537-.153c-.029-.001-.058-.002-.087-.002-.017,0-.033,0-.05,0l-3.523.088-3.521-.153c-.029-.001-.058-.002-.087-.002-.012,0-.025,0-.037,0l-3.592.067-3.567.026-3.615.074-3.457-.016-3.501-.305c-.058-.005-.116-.008-.174-.008-.06,0-.119.003-.179.008l-3.441.309-3.431-.21c-.024-.001-.049-.002-.073-.003l-3.587-.088-3.623-.019h-.01c-.018,0-.037,0-.055,0l-3.59.1-3.533.081-3.464-.078-3.506-.353c-.067-.007-.134-.01-.2-.01-.01,0-.02,0-.03,0l-3.558.054-3.639-.055c-.01,0-.02,0-.031,0h0Z"/>
              </g>
              <g>
                <path class="cls-3" d="m280.111,127.776c-.231,0-.457-.08-.637-.229-.213-.176-.344-.434-.361-.71l-.213-3.541c-.002-.034-.002-.067,0-.101l.148-3.603-.132-3.519.196-3.686-.052-3.526.015-3.614-.039-3.581.137-3.645-.19-3.502.163-3.691-.08-3.527-.144-3.573-.007-3.631.224-3.652.055-3.547-.226-3.509c-.002-.036-.002-.072,0-.108l.16-3.593-.027-3.541-.158-3.556.169-3.683.026-3.553.084-3.557-.275-3.543c-.003-.038-.004-.076-.002-.114l.133-3.591.176-3.603-.162-3.499.059-3.653-.035-3.563.104-3.629-.19-3.511.082-3.667.087-3.499c.013-.535.445-.964.979-.975l3.532-.072,3.665.071,3.519-.283c.026-.002.096-.003.104-.002l3.618.092,3.643.181,3.532-.128,3.669.056,7.21-.064,3.585-.135,3.635-.069,3.641.029,3.604-.009,3.594-.071,3.649.059c.542.009.978.447.984.988l.043,3.618-.122,3.664.088,3.556.134,3.6-.036,3.659.036,3.594-.133,3.659.138,3.538c.001.034,0,.067,0,.101l-.224,3.561.144,3.558-.11,3.683.082,3.555-.113,3.664.012,3.572.023,3.607.181,3.562c.002.044.002.088-.002.132l-.289,3.546.17,3.545.051,3.644-.019,3.628.091,3.58-.164,3.68-.137,3.603.073,3.55.082,3.605-.116,3.665.053,3.562-.011,3.625-.026,3.612.149,3.595c.022.538-.386.997-.923,1.038l-3.683.281-3.563.495-3.592.56-3.695.353-3.545.563-3.627.525-3.695.329-3.592.437-3.513.702c-.039.007-.078.013-.117.016l-3.641.285-3.533.55-7.258.952-3.677.316-3.517.456c-.043.005-.086.008-.128.008Z"/>
                <path class="cls-2" d="m330.749,11.543l3.614.059.043,3.618-.121,3.619.088,3.614.134,3.612-.036,3.612.036,3.613-.133,3.613.139,3.613-.227,3.611.146,3.61-.111,3.612.082,3.608-.113,3.611.011,3.606.023,3.61.183,3.606-.294,3.611.173,3.61.05,3.61-.019,3.609.092,3.61-.164,3.609-.137,3.61.072,3.609.082,3.608-.116,3.61.052,3.609-.01,3.607-.026,3.608.15,3.643-3.683.281-3.623.501-3.609.562-3.636.345-3.607.571-3.614.523-3.639.322-3.625.44-3.588.714-3.641.285-3.608.559-3.615.477-3.618.471-3.634.312-3.56.461-.213-3.541.148-3.603-.131-3.596.195-3.595-.051-3.594.015-3.596-.039-3.595.136-3.596-.19-3.594.163-3.592-.079-3.594-.144-3.591-.006-3.593.222-3.589.057-3.593-.228-3.589.159-3.594-.025-3.593-.159-3.593.169-3.592.027-3.593.085-3.591-.279-3.593.133-3.592.176-3.591-.162-3.593.06-3.592-.035-3.59.103-3.591-.191-3.593.083-3.59.088-3.497,3.532-.071,3.625.071,3.617-.286,3.618.092,3.618.18,3.617-.127,3.618.056,3.618-.034,3.616-.03,3.614-.135,3.617-.069,3.614.029,3.615-.009,3.611-.071m0-2c-.013,0-.026,0-.04,0l-3.611.071-3.581.008-3.593-.029h-.016c-.013,0-.025,0-.038,0l-3.617.069-3.622.135-3.587.03-3.595.034-3.594-.056c-.01,0-.021,0-.031,0-.023,0-.047,0-.07.001l-3.532.125-3.533-.176-3.667-.093c-.017,0-.034,0-.051,0-.052,0-.105.002-.157.006l-3.519.278-3.526-.069c-.013,0-.026,0-.039,0-.013,0-.027,0-.04,0l-3.532.071c-1.069.021-1.932.88-1.959,1.949l-.088,3.497-.083,3.594c-.001.051,0,.102.002.152l.186,3.511-.101,3.509c0,.026,0,.051,0,.077l.035,3.563-.06,3.565c0,.041,0,.083.002.124l.158,3.499-.171,3.497-.134,3.615c-.003.076-.001.153.005.229l.271,3.492-.083,3.49-.027,3.585-.167,3.553c-.003.061-.003.122,0,.183l.157,3.555.025,3.505-.157,3.542c-.003.072-.002.144.002.215l.223,3.51-.055,3.468-.219,3.543c-.003.042-.004.084-.004.127l.006,3.593c0,.026,0,.051.002.077l.144,3.591.076,3.491-.16,3.525c-.003.065-.003.131,0,.197l.186,3.504-.133,3.505c-.001.032-.002.065-.001.097l.039,3.595-.015,3.566.05,3.562-.192,3.527c-.003.06-.004.121-.002.181l.128,3.519-.145,3.526c-.003.068-.002.135.002.202l.213,3.541c.033.553.295,1.068.722,1.421.361.298.812.459,1.275.459.085,0,.171-.005.257-.017l3.517-.455,3.591-.308c.029-.002.058-.006.087-.01l3.618-.471,3.618-.477,3.578-.554,3.566-.279c.079-.006.157-.017.234-.032l3.514-.699,3.517-.427,3.607-.319c.037-.003.073-.008.11-.013l3.614-.523,3.572-.565,3.574-.339c.04-.004.08-.009.119-.015l3.609-.562,3.529-.487,3.622-.277c1.074-.082,1.89-1,1.846-2.076l-.148-3.594.026-3.559.01-3.616-.052-3.597.115-3.563c.001-.037.001-.073,0-.11l-.082-3.608-.071-3.546.135-3.552.163-3.594c.002-.047.002-.094.001-.142l-.091-3.58.019-3.578-.05-3.648c0-.023,0-.045-.002-.068l-.167-3.481.283-3.482c.007-.088.009-.176.004-.263l-.18-3.562-.023-3.566-.011-3.565.112-3.576c.001-.036.001-.072,0-.108l-.081-3.555.109-3.559c.001-.047.001-.095,0-.142l-.142-3.506.221-3.508c.004-.067.005-.135.002-.202l-.136-3.538.13-3.538c.001-.031.002-.062.001-.094l-.036-3.613.036-3.573c0-.031,0-.062-.001-.094l-.134-3.612-.086-3.53.119-3.561c.001-.03.001-.061,0-.091l-.043-3.618c-.013-1.083-.885-1.958-1.967-1.976l-3.614-.059c-.011,0-.022,0-.032,0h0Z"/>
              </g>
              <g>
                <path class="cls-9" d="m294.066,96.243c-.249,0-.489-.093-.674-.262-.206-.188-.324-.453-.326-.731l-.026-3.717.022-3.734c.003-.513.394-.941.905-.99l3.432-.327,3.455-.269,3.43-.278,3.419-.324,6.903-.503,3.424-.306,3.452-.332c.032-.003.064-.004.096-.004.247,0,.486.091.67.258.208.188.328.456.33.737l.02,3.633-.021,3.639c-.003.513-.394.941-.905.99l-3.448.329-3.454.278-3.412.339-3.447.307-3.418.356-3.478.244-3.399.373-3.466.292c-.028.002-.056.003-.083.003Z"/>
                <path class="cls-2" d="m321.58,85.466l.02,3.633-.021,3.628-3.448.328-3.44.277-3.43.34-3.437.307-3.433.357-3.445.241-3.438.376-3.441.289-.027-3.718.022-3.721,3.432-.327,3.438-.267,3.433-.278,3.433-.324,3.439-.253,3.441-.249,3.441-.307,3.459-.333m0-2c-.063,0-.127.003-.191.009l-3.459.333-3.428.305-3.407.246-3.442.254-3.474.328-3.406.276-3.431.266-3.467.33c-1.022.097-1.804.953-1.81,1.979l-.022,3.721.027,3.744c.004.557.24,1.087.652,1.463.37.338.852.523,1.348.523.056,0,.112-.002.167-.007l3.441-.289c.017-.001.033-.003.05-.005l3.399-.372,3.406-.238c.022-.001.045-.003.067-.006l3.433-.357,3.408-.304,3.45-.342,3.403-.274,3.478-.331c1.022-.097,1.804-.953,1.81-1.979l.021-3.628-.02-3.656c-.003-.562-.242-1.096-.659-1.473-.369-.334-.848-.516-1.341-.516h0Z"/>
              </g>
              <g>
                <g>
                  <path class="cls-9" d="m340.131,65.8c-.141,0-.282-.03-.414-.089l-2.491-1.131c-.252-.115-.445-.329-.534-.591l-.891-2.64c-.069-.205-.07-.426-.002-.631l.903-2.758c.077-.234.237-.432.451-.555l2.474-1.426c.154-.089.327-.134.5-.134.142,0,.285.03.417.091l2.467,1.134c.25.115.441.327.529.586l.894,2.625c.069.204.071.425.005.63l-.891,2.755c-.076.234-.235.432-.447.556l-2.466,1.441c-.155.091-.33.137-.504.137Z"/>
                  <path class="cls-2" d="m340.127,56.845l2.467,1.134.893,2.625-.891,2.755-2.466,1.44-2.491-1.131-.89-2.64.903-2.758,2.474-1.426m0-2c-.346,0-.69.09-.999.267l-2.474,1.426c-.427.246-.749.642-.902,1.111l-.903,2.758c-.134.41-.132.853.006,1.261l.89,2.64c.177.525.564.953,1.068,1.182l2.491,1.131c.264.12.546.179.827.179.35,0,.698-.092,1.009-.273l2.466-1.44c.425-.248.743-.644.894-1.112l.891-2.755c.133-.41.129-.852-.01-1.26l-.893-2.625c-.177-.52-.56-.944-1.058-1.173l-2.467-1.134c-.266-.122-.551-.183-.835-.183h0Z"/>
                </g>
                <g>
                  <path class="cls-9" d="m327.19,63.411c-.288,0-.564-.125-.754-.344l-.278-.32c-.157-.18-.244-.411-.246-.65l-.011-1.82c-.001-.23.077-.454.221-.633l.286-.355c.178-.221.442-.356.726-.372l3.415-.182,3.409-.2,3.409-.232s3.465-.224,3.487-.224c.285,0,.558.122.748.336l.28.316c.161.182.25.415.252.658l.01,1.792c.001.24-.084.473-.24.656l-.288.337c-.174.204-.423.329-.691.348l-3.412.236-3.425.205s-6.877.448-6.898.448Z"/>
                  <path class="cls-2" d="m340.854,59.08l.28.315.01,1.792-.288.337-3.412.236-3.415.205-3.42.221-3.419.225-.278-.32-.011-1.821.286-.355,3.415-.182,3.415-.2,3.418-.232,3.419-.221m0-2c-.043,0-.086.001-.129.004l-3.419.221-3.425.233-3.396.199-3.404.181c-.567.03-1.095.3-1.451.742l-.286.355c-.289.359-.445.806-.443,1.267l.011,1.821c.003.479.177.941.492,1.302l.278.32c.381.438.932.687,1.508.687.044,0,.088-.001.132-.004l3.419-.225,3.417-.22,3.406-.204,3.431-.238c.536-.037,1.034-.288,1.382-.696l.288-.337c.312-.365.482-.83.479-1.311l-.01-1.792c-.003-.485-.182-.953-.504-1.316l-.28-.315c-.381-.429-.926-.672-1.495-.672h0Z"/>
                </g>
              </g>
              <g>
                <g>
                  <path class="cls-9" d="m340.127,55.64c-.143,0-.279-.061-.374-.168l-2.915-3.287c-.162-.183-.168-.456-.015-.646l2.911-3.595c.093-.114.23-.182.377-.186h.011c.143,0,.279.061.374.168l2.916,3.286c.162.183.168.457.015.647l-2.913,3.596c-.093.114-.23.182-.377.185h-.011Z"/>
                  <path class="cls-2" d="m340.124,48.258l2.916,3.286-2.912,3.596-2.915-3.286,2.911-3.596m0-1c-.008,0-.015,0-.022,0-.294.007-.57.142-.755.371l-2.911,3.596c-.308.38-.295.927.029,1.293l2.915,3.286c.19.214.462.336.748.336.007,0,.015,0,.022,0,.294-.007.57-.142.755-.37l2.912-3.596c.308-.38.296-.927-.029-1.293l-2.916-3.286c-.19-.214-.462-.336-.748-.336h0Z"/>
                </g>
                <g>
                  <path class="cls-7" d="m339.716,53.448c-.127,0-.251-.049-.344-.137-.1-.094-.156-.226-.156-.363v-2.806c.001-.266.209-.485.475-.499,0,0,.834-.044.843-.044.128,0,.251.049.344.137.1.095.156.226.156.363l-.002,2.805c0,.265-.208.484-.473.499,0,0-.835.045-.844.045Z"/>
                  <path class="cls-2" d="m340.534,50.099v2.805s-.818.044-.818.044v-2.806s.818-.043.818-.043m0-1c-.018,0-.035,0-.053.001l-.817.043c-.531.028-.947.467-.947.998v2.806c-.002.275.111.537.311.726.186.177.433.274.688.274.018,0,.036,0,.054-.001l.817-.044c.53-.029.946-.467.946-.998v-2.805c.002-.274-.111-.537-.31-.726-.186-.177-.433-.274-.688-.274h0Zm0,2h.005-.005Z"/>
                </g>
              </g>
            </g>
          </g>
          <g>
            <polygon class="cls-4" points="3.92 289.133 .203 288.826 -3.486 289.16 -6.439 289.338 -6.554 286.496 -5.617 282.791 -6.487 279.099 -6.241 275.649 -6.041 272.032 -5.901 268.413 -6.065 264.778 -5.858 261.167 -6.082 257.626 -5.425 253.931 -6.379 250.241 -6.385 246.77 -6.204 243.159 -6.467 239.648 -5.66 235.984 -6.407 232.336 -6.017 228.894 -5.629 225.158 -6.194 221.433 -6.48 218.042 -5.765 214.516 -5.532 210.85 -5.598 207.167 -5.472 203.541 -5.934 199.973 -5.601 196.411 -5.804 192.738 -5.877 189.176 -5.962 185.576 -6.142 182.758 -3.338 182.583 .315 182.158 3.947 181.432 7.389 180.837 11.102 180.921 14.759 179.917 18.21 179.042 21.737 178.558 25.266 177.921 28.825 177.811 32.485 177.51 36.192 177.13 39.694 176.102 43.129 175.761 46.902 175.891 50.474 174.767 53.898 174.295 57.593 174.33 61.188 173.541 64.814 173.162 68.406 172.138 71.74 171.292 75.476 171.573 78.931 170.352 82.676 170.776 86.215 169.232 89.591 168.887 93.335 168.994 96.94 168.021 100.393 167.459 103.959 167.34 107.614 167.026 111.363 166.516 114.766 165.142 118.221 165.013 121.863 164.758 125.563 164.536 129.077 163.632 132.697 163.427 136.184 162.509 139.858 162.519 143.336 161.411 146.994 161.489 150.512 160.351 153.998 160.164 157.739 160.036 161.244 158.948 164.793 158.735 168.466 158.117 171.96 157.074 175.336 156.516 179.03 156.804 182.706 156.106 186.128 155.26 189.877 155.489 193.327 154.111 196.947 154.334 200.482 153.378 204.11 153.427 207.685 152.651 211.351 152.413 214.954 151.221 218.351 150.36 221.872 149.88 225.36 149.576 229.089 149.739 232.751 148.972 236.307 148.101 239.666 147.508 243.473 147.863 247.001 146.415 250.513 146.141 253.996 145.426 257.675 145.573 261.335 144.719 264.789 143.999 268.33 143.726 271.907 143.217 275.483 143.146 279.249 142.701 282.748 141.684 286.194 141.287 289.92 141.279 293.555 140.238 296.957 139.314 300.467 139.063 304.176 138.585 307.611 137.619 311.262 137.675 314.857 136.699 318.233 136.153 322.037 136.578 325.636 135.251 328.991 134.659 332.671 134.85 336.337 134.126 339.896 133.304 343.36 132.517 346.892 132.181 350.597 132.113 354.089 131.007 361.263 130.823 364.892 130.359 368.504 129.641 371.958 128.883 375.618 128.822 378.108 128.134 377.993 130.619 378.229 134.285 378.225 137.824 378.107 141.395 377.739 145.033 378.122 148.664 377.962 152.193 377.973 155.786 377.552 159.412 377.745 163.097 378.148 166.675 377.949 170.189 377.564 173.933 378.54 177.459 377.688 180.924 377.684 184.731 378.333 188.354 378.479 191.725 377.452 195.301 377.421 199.104 377.875 202.77 378.164 206.198 377.487 209.897 378.504 213.467 377.649 216.987 378.109 220.768 378.492 224.227 377.972 227.696 377.495 231.412 377.735 235.053 377.556 238.722 378.321 242.374 378.528 245.763 377.773 249.34 377.833 253.123 378.402 256.71 378.387 260.106 377.502 263.707 377.525 267.428 377.472 271.155 378.5 274.751 378.433 278.197 378.375 281.689 377.524 285.386 378.071 288.258 375.403 288.199 371.803 288.422 368.168 287.899 364.435 288.272 360.901 288.617 357.362 288.429 353.714 288.359 350.134 288.169 346.434 287.953 342.732 288.432 339.208 288.574 335.695 288.374 332.122 288.414 328.41 287.668 324.754 288.473 321.171 288.096 317.658 288.699 314.009 287.588 310.299 288.498 306.807 288.16 303.072 288.183 299.603 288.71 296.011 287.726 292.213 288.139 288.641 288.399 285.106 288.387 281.565 288.129 277.943 288.133 274.321 287.715 270.64 287.812 267.022 287.735 263.361 288.069 259.809 288.198 256.204 288.315 252.589 288.456 249.071 288.58 245.398 288.079 241.754 288.692 238.259 288.496 234.687 287.939 230.943 287.809 227.264 288.236 223.792 288.557 220.226 288.103 216.551 288.16 212.857 288.546 209.404 288.96 205.891 288.2 202.108 287.902 198.516 288.4 194.86 288.032 191.274 288.913 187.856 288.476 184.186 287.955 180.435 288.031 176.854 288.565 173.335 288.461 169.653 288.145 166.084 288.762 162.504 288.192 158.878 288.609 155.335 288.195 151.532 288.136 147.984 289.128 144.51 288.664 140.834 288.691 137.22 289 133.683 288.81 130.09 288.563 126.338 288.169 122.703 289.106 119.245 288.953 115.588 288.425 112.009 288.971 108.35 288.261 104.656 289.21 101.288 289.176 97.556 288.337 93.866 289.21 90.351 289.023 86.836 289.196 83.266 288.342 79.393 288.242 75.878 289.32 72.423 288.618 68.659 288.603 65.136 289.01 61.46 288.392 57.834 289.308 54.317 288.859 50.76 289.106 47.173 288.294 43.317 288.401 39.822 289.397 36.282 288.732 32.594 289.279 29.158 289.224 25.475 288.521 21.819 289.024 18.178 288.702 14.664 289.425 11.012 288.423 7.328 289.505 3.92 289.133"/>
            <path class="cls-2" d="m377.045,129.465l-.049,1.052-.005.111.007.111.229,3.545-.002,3.508-.114,3.503-.356,3.535-.021.205.021.205.364,3.454-.156,3.454-.002.048v.048s.011,3.485.011,3.485l-.404,3.484-.019.167.009.168.188,3.601.003.061.007.06.389,3.434-.191,3.385-.365,3.555-.039.375.101.363.856,3.094-.761,3.094-.058.234v.241s-.004,3.597-.004,3.597v.178s.031.176.031.176l.621,3.47.136,3.141-.944,3.288-.075.263-.002.273-.029,3.6v.131s.015.13.015.13l.44,3.563.279,3.295-.61,3.339-.084.458.128.448.881,3.092-.75,3.087-.086.353.044.361.435,3.579.369,3.341-.507,3.383-.461,3.599-.024.192.013.193.23,3.487-.17,3.484-.012.256.052.251.723,3.455.195,3.182-.704,3.334-.046.22.004.225.057,3.6.002.142.022.14.546,3.437-.015,3.197-.826,3.365-.059.241v.248s.023,3.556.023,3.556l-.051,3.599-.004.295.081.283.946,3.31-.064,3.302-.057,3.385-.78,3.389-.094.41.079.413.276,1.451-1.431-.032-.085-.002-.085.005-3.413.215-3.411-.49-.241-.035-.242.024-3.607.36-3.462.337-3.464-.183-.034-.002h-.034s-3.58-.069-3.58-.069l-3.57-.189-3.613-.21-.187-.011-.186.024-3.522.456-3.428.141-3.513-.195-.067-.004h-.067s-3.4.041-3.4.041l-3.402-.683-.413-.083-.411.091-3.292.725-3.285-.346-.275-.029-.273.047-3.142.54-3.16-.962-.525-.16-.533.131-3.278.804-3.272-.317-.102-.01h-.103s-3.611.023-3.611.023h-.145s-.144.023-.144.023l-3.187.485-3.204-.878-.367-.101-.379.041-3.572.389-3.497.256-3.466-.01-3.541-.255-.073-.005h-.073l-3.491.006-3.493-.403-.141-.016-.142.004-3.563.094-3.561-.075-.112-.002-.112.01-3.552.324-3.544.129-3.621.118-3.603.14-3.435.122-3.437-.469-.302-.041-.301.051-3.383.57-3.286-.184-3.514-.544-.117-.018-.119-.004-3.609-.125-.15-.005-.15.017-3.559.413-3.385.313-3.387-.431-.141-.018-.143.002-3.604.056h-.09s-.089.011-.089.011l-3.632.384-3.273.392-3.283-.71-.132-.029-.134-.01-3.607-.284-.217-.017-.215.03-3.366.467-3.366-.339-.343-.034-.334.082-3.238.795-3.206-.41-3.604-.511-.16-.023-.162.003-3.607.073-.128.002-.127.019-3.429.512-3.374-.1-3.554-.304-.257-.022-.254.044-3.278.568-3.28-.522-.271-.043-.272.031-3.375.388-3.378-.395-.1-.012h-.101s-3.608-.058-3.608-.058l-.291-.005-.28.078-3.209.898-3.2-.429-.14-.019h-.141s-3.606.028-3.606.028h-.079s-.078.008-.078.008l-3.465.3-3.437-.185-3.573-.245-3.572-.375-.359-.038-.35.09-3.316.855-3.211-.143-3.51-.503-.293-.042-.292.045-3.262.498-3.267-.634-.442-.086-.436.112-3.349.86-3.131-.031-3.402-.766-.45-.101-.449.106-3.326.787-3.321-.177-.102-.006-.102.005-3.321.163-3.33-.796-.204-.049-.209-.005-3.605-.094-.326-.009-.312.096-3.116.955-3.109-.632-.193-.039h-.197s-3.606-.015-3.606-.015h-.119s-.119.013-.119.013l-3.323.385-3.328-.56-.415-.07-.407.103-3.238.818-3.233-.412-.195-.025-.196.014-3.312.23-3.321-.752-.246-.055-.252.007-3.604.1-.251.007-.242.069-3.148.897-3.142-.591-.33-.062-.333.049-3.441.51-3.269-.052-3.438-.655-.322-.062-.325.045-3.381.465-3.383-.299-.292-.026-.287.059-3.136.645-3.147-.863-.548-.15-.545.16-3.219.946-3.208-.351-.027-.003-.027-.002-3.605-.297-.172-.014-.172.015-3.572.323-1.936.117-.067-1.678.841-3.328.12-.474-.112-.476-.779-3.306.237-3.329.201-3.635.139-3.602.003-.084-.004-.084-.161-3.499.201-3.499.007-.12-.008-.12-.211-3.362.597-3.363.076-.429-.109-.422-.868-3.356-.005-3.293.177-3.549.006-.125-.009-.125-.248-3.302.73-3.313.092-.415-.085-.416-.673-3.284.375-3.304.373-3.599.026-.254-.038-.252-.536-3.534-.275-3.247.673-3.319.027-.134.009-.137.229-3.598.005-.082v-.083s-.068-3.546-.068-3.546l.122-3.546.006-.163-.021-.162-.437-3.377.315-3.378.014-.148-.008-.148-.197-3.563-.074-3.568-.084-3.597v-.041s-.004-.041-.004-.041l-.114-1.778,1.804-.113.054-.003.053-.006,3.599-.42.081-.01.081-.016,3.525-.708,3.346-.579,3.469.079.293.007.283-.078,3.477-.956,3.417-.866,3.471-.476.042-.006.042-.008,3.413-.617,3.485-.107h.052s.052-.006.052-.006l3.649-.302,3.595-.369.183-.019.176-.052,3.324-.975,3.276-.325,3.534.121.342.012.326-.103,3.329-1.047,3.269-.45,3.508.033.226.002.221-.048,3.43-.752,3.484-.364.173-.018.167-.048,3.478-.992,3.177-.806,3.364.253.42.031.396-.14,3.04-1.074,3.25.368.533.06.492-.215,3.15-1.374,3.156-.323,3.531.101.294.008.284-.077,3.413-.922,3.339-.543,3.502-.117.053-.002.053-.004,3.602-.311.049-.004.049-.007,3.577-.488.247-.034.231-.093,3.125-1.261,3.28-.123h.032s.033-.003.033-.003l3.59-.252,3.614-.217.192-.011.187-.048,3.326-.856,3.421-.193.201-.011.195-.051,3.263-.86,3.387.009h.313s.299-.094.299-.094l3.17-1.01,3.322.071.337.007.321-.104,3.234-1.047,3.317-.177,3.626-.124.268-.009.256-.08,3.26-1.012,3.375-.203.107-.006.105-.018,3.56-.599.122-.02.118-.035,3.374-1.006,3.194-.529,3.439.268.266.021.262-.05,3.545-.673.054-.01.054-.013,3.22-.798,3.372.206.447.027.416-.166,3.033-1.211,3.232.199.328.02.317-.086,3.243-.877,3.374.045.228.003.223-.048,3.391-.736,3.463-.225.255-.017.243-.081,3.414-1.129,3.342-.849,3.418-.466,3.422-.3,3.537.155.251.011.246-.052,3.54-.741.033-.007.033-.008,3.459-.848,3.226-.571,3.427.32.49.046.455-.187,3.155-1.295,3.293-.257.124-.01.122-.025,3.303-.677,3.423.137.271.011.264-.062,3.481-.813,3.414-.712,3.477-.268.065-.005.064-.009,3.453-.493,3.515-.07.099-.002.099-.012,3.585-.429.163-.02.158-.046,3.338-.97,3.306-.381,3.531-.008h.278s.268-.077.268-.077l3.475-.995,3.321-.902,3.414-.244.057-.004.056-.007,3.58-.462.145-.019.141-.04,3.225-.908,3.363.052.282.004.273-.074,3.409-.926,3.19-.515,3.432.383.469.052.443-.163,3.295-1.214,3.154-.556,3.444.178.248.013.243-.048,3.544-.699.032-.006.031-.007,3.521-.814,3.405-.774,3.392-.323,3.56-.067.29-.006.277-.088,3.219-1.02,3.351-.084,3.631-.095.101-.003.1-.013,3.579-.457.069-.009.069-.014,3.58-.715,3.337-.733,3.434-.057.254-.004.245-.068,1.038-.287m2.126-2.662l-3.696,1.021-3.634.06-3.532.776-3.543.707-3.579.457-3.631.095-3.633.091-3.489,1.106-3.636.069-3.596.342-3.53.803-3.528.815-3.544.699-3.671-.19-3.554.627-3.462,1.276-3.703-.413-3.563.575-3.51.953-3.655-.057-3.505.987-3.58.462-3.608.258-3.509.953-3.501,1.002-3.643.008-3.586.413-3.5,1.017-3.585.429-3.637.072-3.573.51-3.606.278-3.54.738-3.528.824-3.666-.146-3.542.726-3.606.281-3.446,1.415-3.696-.345-3.556.63-3.522.864-3.54.741-3.668-.161-3.601.316-3.578.488-3.52.894-3.482,1.152-3.612.235-3.536.767-3.653-.049-3.512.95-3.679-.227-3.45,1.378-3.678-.225-3.517.872-3.545.673-3.682-.287-3.558.589-3.495,1.042-3.56.599-3.617.217-3.492,1.084-3.627.124-3.616.193-3.482,1.127-3.655-.078-3.487,1.111-3.649-.01-3.516.926-3.617.204-3.516.905-3.614.217-3.61.253-3.629.135-3.449,1.392-3.577.488-3.602.311-3.63.121-3.567.58-3.512.948-3.662-.104-3.596.368-3.436,1.499-3.708-.42-3.474,1.228-3.689-.277-3.521.893-3.508,1-3.595.376-3.539.776-3.654-.034-3.58.493-3.49,1.097-3.668-.125-3.595.356-3.504,1.028-3.595.369-3.609.298-3.633.112-3.56.644-3.583.491-3.525.894-3.515.966-3.664-.084-3.564.617-3.552.713-3.599.42-3.803.237.242,3.778.084,3.597.075,3.596.198,3.598-.335,3.599.465,3.597-.124,3.598.068,3.6-.229,3.598-.73,3.6.305,3.599.546,3.6-.373,3.599-.408,3.6.736,3.595-.793,3.6.27,3.595-.179,3.6.006,3.598.932,3.601-.639,3.599.227,3.601-.207,3.602.166,3.602-.139,3.602-.2,3.601-.257,3.602.849,3.603-.912,3.608.161,4.007,4.002-.242,3.603-.326,3.605.297,3.606.394,3.603-1.059,3.609.99,3.606-.742,3.607.319,3.604-.495,3.607.688,3.605.058,3.603-.534,3.606.678,3.602-1.027,3.604-.1,3.607.817,3.605-.25,3.608.46,3.605-.911,3.608.607,3.605-.417,3.606.015,3.607.733,3.602-1.104,3.605.094,3.608.862,3.606-.177,3.608.192,3.606-.853,3.609.812,3.606.036,3.604-.926,3.607.7,3.604-.55,3.607.517,3.607.16,3.606-.93,3.608.379,3.607.248,3.607.194,3.605-.312,3.606-.027,3.608.483,3.605-1.009,3.608.057,3.608.422,3.605-.415,3.608.575,3.605-.625,3.609.309,3.608.107,3.606-.538,3.607-.073,3.604.511,3.603.461,3.6-.884,3.604.363,3.603-.5,3.607.284,3.611.781,3.606-.432,3.604-.381,3.604-.056,3.605.459,3.604-.333,3.605-.418,3.609.125,3.61.558,3.607.202,3.604-.607,3.607.492,3.607-.128,3.609-.14,3.608-.117,3.607-.132,3.606-.329,3.608.076,3.611-.096,3.609.417,3.608-.006,3.61.26,3.61.011,3.608-.264,3.608-.393,3.614.991,3.607-.549,3.611-.022,3.611.35,3.608-.885,3.613,1.1,3.61-.62,3.608.38,3.609-.794,3.608.725,3.611-.043,3.609.2,3.612-.149,3.609-.467,3.613.21,3.614.191,3.614.069,3.614.191,3.612-.352,3.612-.361,3.615.52,3.619-.228,3.903.087-.739-3.88.827-3.594.06-3.595.07-3.596-1.029-3.599.051-3.599-.022-3.597.883-3.596.017-3.596-.571-3.597-.057-3.6.76-3.599-.22-3.597-.753-3.597.176-3.599-.237-3.601.461-3.599.539-3.598-.398-3.6-.438-3.601.874-3.599-1.025-3.6.658-3.601-.304-3.599-.445-3.601.029-3.6,1.034-3.601-.156-3.601-.644-3.602.004-3.597.885-3.601-.995-3.597.37-3.601.203-3.599-.408-3.603-.188-3.601.417-3.602-.011-3.604.162-3.604-.379-3.604.363-3.603.117-3.603.002-3.604-.233-3.61.177-3.807h0Z"/>
          </g>
        </g>
        <g class="cls-11">
          <rect class="cls-6" y="-.785" width="374" height="280"/>
        </g>
      </g>
      <image width="370" height="370" transform="translate(84.717 14.072) scale(.553)" xlink:href="../Links/⑨.png"/>
      <g>
        <path class="cls-2" d="m153.962,250.277c-.417,0-.746-.117-.987-.35-.242-.233-.38-.542-.413-.925-.033-.35.046-.663.237-.938.191-.275.463-.438.812-.488.434-.05.704-.137.812-.262s.163-.379.163-.763v-5.35l-.825.325c-.384.133-.742.129-1.075-.013-.333-.141-.566-.42-.7-.837-.116-.383-.104-.733.038-1.05s.421-.533.837-.65c.25-.083.521-.166.812-.25.292-.083.596-.175.913-.275v-3.975h-1.351c-.383,0-.684-.121-.899-.362-.217-.241-.325-.529-.325-.862s.108-.621.325-.863c.216-.241.517-.362.899-.362h1.351v-3.725c0-.383.12-.688.362-.913.241-.225.537-.337.888-.337.333,0,.625.112.875.337s.375.529.375.913v3.725h.825c.383,0,.683.121.899.362.217.242.325.529.325.863s-.108.621-.325.862c-.217.242-.517.362-.899.362h-.825v3.125l.325-.1c.583-.184,1.024-.042,1.324.425.033,0,.066-.004.101-.013.033-.008.066-.012.1-.012l.55-.05v-4.625c0-1.016.138-1.766.413-2.25.274-.483.787-.8,1.537-.95.101-.316.213-.683.338-1.1.125-.417.221-.75.287-1,.101-.383.309-.658.625-.825.316-.166.65-.208,1-.125.384.084.658.263.825.538.166.275.191.596.075.962-.067.2-.142.43-.226.688-.083.259-.166.504-.25.738,1.084.083,1.809.367,2.176.85.366.483.55,1.309.55,2.475v2.85l.05-.05c.267-.433.487-.879.662-1.337.176-.458.312-.996.413-1.613.1-.616.149-1.366.149-2.25s.184-1.504.551-1.862c.366-.358,1.024-.538,1.975-.538,1,0,1.691.179,2.075.538.383.358.575.987.575,1.887v3.55c0,.15.024.25.074.3.051.05.158.075.325.075.134,0,.226-.058.275-.175.05-.116.108-.316.175-.6.083-.267.246-.467.487-.6s.521-.158.838-.075c.283.067.5.208.649.425.15.217.2.492.15.825-.15.967-.441,1.646-.875,2.038s-1.059.587-1.875.587c-.834,0-1.438-.137-1.812-.413-.375-.275-.562-.804-.562-1.587v-4.025c0-.183-.025-.312-.075-.388-.05-.075-.167-.112-.35-.112-.184,0-.309.034-.375.1-.067.067-.101.192-.101.375,0,1.167-.116,2.279-.35,3.337-.233,1.059-.566,1.938-1,2.638-.167.283-.425.467-.775.55.033.067.059.125.075.175.017.05.025.117.025.2.033.1.033.2,0,.3h3.625c1.183,0,1.991.284,2.425.85.434.567.525,1.384.275,2.45-.317,1.367-.859,2.684-1.625,3.95.683.75,1.5,1.475,2.449,2.175.283.2.446.471.488.812.041.341-.038.646-.238.913-.233.316-.541.475-.925.475s-.717-.117-1-.35c-.8-.65-1.524-1.35-2.175-2.1-.334.383-.696.754-1.088,1.112s-.812.704-1.262,1.038c-.268.216-.584.316-.95.3-.367-.017-.667-.184-.9-.5-.184-.233-.254-.512-.212-.837.041-.325.195-.571.462-.737.483-.333.934-.696,1.351-1.087.416-.392.8-.804,1.149-1.238-.934-1.5-1.55-3.15-1.85-4.95-.317-.033-.571-.154-.763-.363-.191-.208-.287-.462-.287-.762,0-.05.004-.096.012-.138.009-.042.013-.087.013-.138l-.35.05v7.875c0,1.116-.237,1.908-.713,2.375-.475.466-1.254.7-2.337.7-.801,0-1.226-.4-1.275-1.2-.017-.367.079-.663.287-.888.209-.225.471-.346.788-.362.45-.033.733-.1.85-.2s.175-.35.175-.75v-7.25l-.649.075v5.7c0,.267-.088.475-.263.625-.175.15-.379.225-.612.225s-.438-.075-.612-.225c-.176-.15-.263-.358-.263-.625v-5.475l-.55.05c-.018,1.5-.084,2.821-.2,3.962-.117,1.142-.292,2.167-.525,3.075-.233.909-.542,1.779-.925,2.612-.117.3-.338.5-.662.6-.325.1-.63.091-.913-.025-.3-.134-.504-.346-.612-.638s-.096-.571.037-.837c.367-.767.663-1.554.888-2.362.226-.809.4-1.708.525-2.7.125-.991.195-2.129.212-3.413l-.25.025c-.467.05-.816-.083-1.05-.4-.149.067-.316.134-.5.2-.184.067-.384.142-.6.225v6.875c0,1.066-.25,1.858-.75,2.375-.5.516-1.292.775-2.375.775Zm7.725-12.65c.483-.05.976-.1,1.476-.15.5-.05.982-.1,1.449-.15v-3.95c0-.533-.087-.879-.262-1.038-.176-.158-.58-.238-1.213-.238-.617,0-1.013.08-1.188.238-.175.159-.263.504-.263,1.038v4.25Zm2.101-.775c-.317.117-.601.117-.851,0-.25-.116-.417-.333-.5-.65-.083-.3-.184-.641-.3-1.025-.117-.383-.225-.716-.325-1-.1-.3-.083-.566.05-.8.134-.233.334-.383.601-.45.3-.1.575-.091.825.025.25.117.433.333.55.65.083.267.188.588.312.963s.221.704.287.987c.184.65-.033,1.083-.649,1.3Zm7.625,6.65c.283-.583.508-1.158.675-1.725.116-.417.112-.712-.013-.888-.125-.175-.43-.262-.912-.262h-.801c.217,1.017.566,1.975,1.051,2.875Z"/>
        <path class="cls-2" d="m181.736,249.552c-.399.25-.833.341-1.3.275-.467-.067-.825-.309-1.075-.725-.217-.383-.258-.792-.125-1.225.134-.434.408-.767.825-1,1.866-1.083,3.479-2.404,4.838-3.963,1.358-1.558,2.441-3.233,3.25-5.025.808-1.792,1.287-3.571,1.438-5.337.066-.667-.038-1.133-.312-1.4-.275-.267-.812-.4-1.612-.4h-2.726c-.384,0-.712-.138-.987-.413s-.412-.604-.412-.988.137-.712.412-.987.604-.413.987-.413h2.726c1.25,0,2.237.125,2.962.375.726.25,1.246.679,1.562,1.288s.476,1.454.476,2.538c0,2.05.366,3.967,1.1,5.75.733,1.784,1.779,3.425,3.138,4.925s2.962,2.85,4.812,4.05c.383.25.612.608.688,1.075s-.021.883-.288,1.25c-.267.4-.637.621-1.112.663-.475.042-.912-.079-1.312-.362-1.967-1.383-3.725-2.983-5.274-4.8-1.551-1.816-2.717-3.875-3.5-6.175-.967,2.284-2.226,4.362-3.775,6.237s-3.35,3.471-5.4,4.788Z"/>
        <path class="cls-2" d="m211.262,241.427c-.767,0-1.417-.267-1.95-.8s-.8-1.184-.8-1.95.267-1.417.8-1.95c.533-.533,1.184-.8,1.95-.8s1.416.267,1.95.8c.533.534.8,1.184.8,1.95s-.267,1.417-.8,1.95c-.534.533-1.184.8-1.95.8Z"/>
        <path class="cls-2" d="m221.137,234.052c-.367,0-.65-.112-.85-.337-.2-.225-.301-.496-.301-.812,0-.333.101-.613.301-.837.199-.225.482-.338.85-.338h7.725c.351,0,.629.113.838.338.208.225.312.504.312.837,0,.317-.104.587-.312.812-.209.225-.487.337-.838.337h-7.725Zm1.2,3.525c-.367,0-.65-.116-.851-.35-.199-.233-.3-.508-.3-.825s.101-.591.3-.825c.2-.233.483-.35.851-.35h5.524c.367,0,.654.117.863.35.208.234.312.509.312.825s-.104.592-.312.825c-.209.234-.496.35-.863.35h-5.524Zm0,3.525c-.367,0-.65-.116-.851-.35-.199-.233-.3-.508-.3-.825s.101-.591.3-.825c.2-.233.483-.35.851-.35h5.524c.367,0,.654.117.863.35.208.234.312.509.312.825s-.104.592-.312.825c-.209.233-.496.35-.863.35h-5.524Zm.05-10.55c-.367,0-.654-.121-.862-.362-.209-.242-.312-.521-.312-.838,0-.333.104-.616.312-.85.208-.233.495-.35.862-.35h5.45c.383,0,.679.117.888.35.208.233.312.517.312.85,0,.317-.104.596-.312.838-.209.242-.505.362-.888.362h-5.45Zm2.775,19.2c-1,0-1.784-.117-2.351-.35-.566-.234-.962-.621-1.188-1.163-.225-.542-.337-1.288-.337-2.237,0-.967.112-1.717.337-2.25.226-.533.621-.913,1.188-1.138s1.351-.337,2.351-.337c1.016,0,1.804.112,2.362.337.558.225.954.604,1.188,1.138s.35,1.283.35,2.25c0,.95-.116,1.696-.35,2.237s-.63.929-1.188,1.163c-.559.233-1.347.35-2.362.35Zm0-2.35c.55,0,.908-.091,1.074-.275.167-.184.25-.559.25-1.125,0-.533-.083-.896-.25-1.088-.166-.191-.524-.287-1.074-.287s-.904.096-1.062.287c-.159.192-.238.555-.238,1.088,0,.566.079.941.238,1.125.158.184.512.275,1.062.275Zm5.949,2.5c-.416.167-.804.179-1.162.038-.358-.142-.612-.396-.763-.763-.149-.35-.158-.688-.024-1.013.133-.325.399-.57.8-.737,1.566-.65,2.983-1.441,4.25-2.375-1.117-1.417-1.942-3.017-2.476-4.8h-1.024c-.367,0-.663-.125-.888-.375s-.338-.542-.338-.875.113-.625.338-.875.521-.375.888-.375h7.6c.851,0,1.513.179,1.987.537.476.359.754.83.838,1.413.083.583-.05,1.208-.4,1.875-.684,1.284-1.517,2.475-2.5,3.575.584.417,1.213.788,1.888,1.112.675.325,1.396.604,2.163.837.416.117.721.338.912.663.191.325.221.671.088,1.038-.134.417-.393.716-.775.9-.384.183-.816.208-1.3.075-1-.317-1.921-.705-2.763-1.163s-1.604-.979-2.287-1.562c-1.45,1.15-3.134,2.1-5.051,2.85Zm.75-12.75c-.316.25-.684.375-1.1.375s-.767-.142-1.05-.425c-.267-.283-.392-.612-.375-.987s.175-.688.475-.938c.434-.35.771-.704,1.013-1.062.241-.358.412-.788.513-1.288.1-.5.149-1.15.149-1.95,0-.767.117-1.375.351-1.825s.633-.771,1.2-.962c.566-.191,1.357-.288,2.375-.288s1.808.096,2.375.288c.566.192.962.512,1.188.962.225.45.337,1.067.337,1.85v2.625c0,.233.062.392.188.475s.338.125.638.125c.333,0,.55-.088.65-.263.1-.175.216-.546.35-1.112.083-.383.291-.65.625-.8.333-.15.691-.183,1.075-.1.383.084.675.263.875.538s.258.629.175,1.062c-.217,1.267-.617,2.146-1.2,2.638s-1.467.737-2.649.737c-1.268,0-2.163-.188-2.688-.562-.525-.375-.788-1.087-.788-2.137v-2.7c0-.433-.071-.716-.212-.85-.143-.133-.446-.2-.913-.2s-.774.066-.925.2c-.15.134-.233.417-.25.85,0,1.3-.217,2.429-.65,3.388s-1.017,1.737-1.75,2.337Zm4.375,6.15c.301-.316.584-.642.851-.975.267-.333.508-.667.725-1,.45-.716.226-1.075-.675-1.075h-2.675c.399,1.1.991,2.117,1.774,3.05Z"/>
        <path class="cls-2" d="m258.062,246.977c-1.267,0-2.246-.121-2.938-.362-.691-.241-1.175-.642-1.45-1.2-.274-.558-.412-1.304-.412-2.237v-2.55c0-.9.125-1.621.375-2.163s.688-.941,1.312-1.2c.625-.258,1.504-.404,2.638-.438v-.85h-9.575c-.316,0-.584-.108-.8-.325-.217-.216-.325-.475-.325-.775,0-.316.108-.583.325-.8.216-.216.483-.325.8-.325h9.575v-.925h-4.775c-1.333,0-2.25-.204-2.75-.612-.5-.408-.75-1.096-.75-2.062,0-.983.25-1.675.75-2.075s1.417-.6,2.75-.6h11.4c1.333,0,2.25.2,2.75.6s.75,1.092.75,2.075c0,.967-.25,1.654-.75,2.062-.5.409-1.417.612-2.75.612h-3.675v.925h8.475c.333,0,.6.108.8.325.2.217.3.484.3.8,0,.3-.1.559-.3.775-.2.217-.467.325-.8.325h-8.475v.85h1.324c1.267,0,2.246.121,2.938.363s1.176.642,1.45,1.2c.275.559.413,1.304.413,2.238v2.55c0,.934-.138,1.679-.413,2.237-.274.559-.759.959-1.45,1.2-.691.242-1.671.362-2.938.362h-3.8Zm-4.425,3.175c-1.4,0-2.483-.138-3.25-.413s-1.3-.742-1.6-1.4c-.301-.658-.45-1.571-.45-2.738v-6.1c0-.434.142-.775.425-1.025s.616-.375,1-.375.717.125,1,.375.425.592.425,1.025v6.1c0,.6.071,1.055.213,1.363.142.309.388.517.737.625s.85.163,1.5.163h15.25c.316,0,.588.125.812.375s.338.525.338.825c0,.316-.113.596-.338.837s-.496.363-.812.363h-15.25Zm-.65-19.325h1.726v-1.325h-1.75c-.317,0-.542.037-.675.112-.134.075-.2.254-.2.538,0,.267.07.446.212.538s.371.137.688.137Zm3.025,11.55h7.875v-.975h-7.875v.975Zm.075-2.675h7.725c-.083-.383-.271-.633-.562-.75-.292-.116-.754-.175-1.388-.175h-3.8c-.616,0-1.075.059-1.375.175-.3.117-.5.367-.6.75Zm1.975,5.325h3.8c.634,0,1.096-.062,1.388-.188s.479-.388.562-.788h-7.725c.083.4.274.663.575.788.3.125.766.188,1.399.188Zm-.875-14.2h2.65v-1.325h-2.65v1.325Zm5.125,0h1.726c.333,0,.566-.045.699-.137.134-.092.2-.271.2-.538,0-.283-.071-.462-.212-.538-.143-.075-.38-.112-.713-.112h-1.7v1.325Z"/>
      </g>
      <g>
        <path class="cls-8" d="m141.076,240c0,1.336-.263,2.583-.513,3.845-.257,1.301-.492,2.554-.988,3.751-.505,1.218-.983,2.434-1.708,3.516-.73,1.09-1.4,2.269-2.325,3.194s-2.217,1.425-3.307,2.155c-1.082.724-2.24,1.237-3.458,1.742-1.197.496-2.314,1.272-3.614,1.529-1.262.25-2.59.161-3.925.161s-2.629-.083-3.892-.332c-1.301-.257-2.663-.352-3.86-.848-1.218-.505-2.246-1.406-3.328-2.131-1.09-.73-2.361-1.292-3.286-2.216s-1.866-1.941-2.596-3.032c-.724-1.082-1.031-2.454-1.536-3.671-.496-1.197-1.02-2.427-1.277-3.728-.25-1.262.137-2.598.137-3.934s.07-2.581.32-3.844c.257-1.301.362-2.607.858-3.803.505-1.218.976-2.47,1.7-3.552.73-1.09,1.826-1.886,2.751-2.811.925-.925,1.901-1.75,2.992-2.48,1.082-.724,2.131-1.52,3.348-2.025,1.197-.496,2.394-1.209,3.694-1.466,1.262-.25,2.639.218,3.974.218s2.629-.046,3.891.204c1.301.257,2.538.652,3.735,1.149,1.218.505,2.436,1.008,3.518,1.732,1.09.73,1.996,1.689,2.92,2.614.925.925,1.518,2.075,2.248,3.166.724,1.082,1.321,2.168,1.826,3.385.496,1.197,1.13,2.328,1.387,3.628.25,1.262.313,2.549.313,3.884Z"/>
        <path class="cls-1" d="m118.738,233.993c-.14,0-.21.063-.21.189l-.336,4.2c0,.154.07.21.21.168,1.064-.238,1.995-.357,2.793-.357,1.274,0,2.317.228,3.129.683.812.455,1.41,1.046,1.796,1.774.385.728.577,1.505.577,2.331,0,.532-.122,1.085-.367,1.659-.245.574-.612,1.106-1.103,1.596-.49.49-1.1.889-1.827,1.197-.728.308-1.575.462-2.541.462-.979,0-1.872-.157-2.678-.472-.805-.315-1.459-.773-1.963-1.375-.477-.56-.714-1.099-.714-1.617,0-.266.062-.504.188-.714.266-.476.679-.714,1.239-.714.434,0,.777.144,1.029.43.252.287.378.613.378.977,0,.238-.063.476-.189.714-.07.112-.056.196.042.252.686.504,1.575.756,2.667.756.756,0,1.436-.133,2.037-.399s1.082-.63,1.438-1.092c.357-.462.543-.973.557-1.533.07-2.142-1.337-3.213-4.221-3.213-.574,0-1.113.056-1.617.168-.504.112-1.029.266-1.575.462-.056.014-.108.024-.157.031-.05.007-.095.011-.137.011-.266,0-.493-.095-.683-.284-.188-.189-.276-.423-.263-.704l.483-6.027c.027-.392.182-.721.462-.987s.616-.399,1.008-.399h6.51c.252,0,.47.091.651.273s.273.399.273.651-.092.465-.273.641c-.182.175-.399.262-.651.262h-5.964Z"/>
      </g>
    </g>
  </g>
</svg>