<?xml version="1.0" encoding="UTF-8"?>
<svg id="_レイヤー_2" data-name="レイヤー 2" xmlns="http://www.w3.org/2000/svg" xmlns:xlink="http://www.w3.org/1999/xlink" viewBox="0 0 374 280">
  <defs>
    <style>
      .cls-1 {
        stroke-width: .5px;
      }

      .cls-1, .cls-2 {
        fill: #231815;
      }

      .cls-1, .cls-3 {
        stroke: #231815;
      }

      .cls-1, .cls-3, .cls-4 {
        stroke-linecap: round;
        stroke-linejoin: round;
      }

      .cls-2, .cls-5, .cls-6 {
        stroke-width: 0px;
      }

      .cls-5, .cls-3, .cls-4 {
        fill: none;
      }

      .cls-7 {
        clip-path: url(#clippath-1);
      }

      .cls-6 {
        fill: #fff;
        fill-rule: evenodd;
      }

      .cls-8 {
        clip-path: url(#clippath);
      }

      .cls-4 {
        stroke: #fff;
        stroke-width: 9px;
      }
    </style>
    <clipPath id="clippath">
      <rect class="cls-5" width="374" height="280"/>
    </clipPath>
    <clipPath id="clippath-1">
      <rect class="cls-5" width="374" height="280"/>
    </clipPath>
  </defs>
  <g id="design">
    <g>
      <g class="cls-8">
        <image width="1600" height="1200" transform="translate(-12.647 -9.912) scale(.25)" xlink:href="../Links/24740210.jpg"/>
      </g>
      <g class="cls-7">
        <g>
          <g>
            <path class="cls-4" d="m18.489,111.975c1.415-1.559,3.815-4.655,5.589-7.429l1.433,1.293c-1.439,2.279-3.586,5.278-4.804,6.877.115.311.076.632-.108.868l-2.109-1.609Zm2.708-22.931c3.655,1.008,8.198,1.157,11.877.513l.027,2.073c-.393.043-.748.107-1.096.201-1.535.411-2.684,1.34-3.995,3.399l-1.941-.288c.595-1.028,1.613-2.326,2.439-2.952-2.183.088-5.024-.206-7.936-1.103l.624-1.844Zm6.136,8.294c-.268.972-.372,1.745-.193,2.412.318,1.188,1.431,1.977,3.729,2.789,2.774.965,4.433,2.632,4.991,4.719.715,2.666-.868,4.985-3.506,5.691-1.478.396-3.234.215-6.142-.436.107-.525.147-1.188.129-1.835,2.775.623,4.312.676,5.268.42,1.826-.49,2.524-1.825,2.121-3.332-.35-1.305-1.743-2.795-4.246-3.677-2.504-.882-3.869-2.038-4.296-3.632-.249-.927-.202-2.027.14-3.298l2.005.177Zm7.443,1.701c3.682.411,7.585,2.347,9.967,5.901l-1.604,1.547c-2.164-3.209-5.772-5.317-9.031-5.655l.669-1.794Z"/>
            <path class="cls-4" d="m64.428,87.646c-2.366,1.597-5.377,2.995-8.269,4.141,1.317,1.324,3.667,3.024,5.999,3.269l-.716,1.962c-.461-.095-1.306-.24-1.914-.419-.699-.061-2.173.117-3.535.482-.405.108-.804.246-1.173.376l-.832-1.485c.97-.322,2.404-.645,3.275-.754-1.007-.63-2.269-1.627-3.166-2.661-1.887.723-4.008,1.384-7.689,2.371-1.418.38-3.012.807-4.324,1.128l-.518-1.818c1.311-.32,3-.742,4.449-1.13,2.375-.637,4.723-1.266,7.016-2.098-.561-.813-1.466-2.34-2.162-3.551-1.129.426-2.417.833-3.605,1.152-1.564.419-3.564.955-4.941,1.262l-.481-1.796c1.762-.378,3.675-.891,4.921-1.225,1.042-.279,2.215-.656,3.292-1.038-.616-1.263-1.334-2.779-2-4.34l2.992-.771c.093.348-.114.62-.612.848.509,1.199,1.068,2.477,1.604,3.545,2.653-.991,5.425-2.354,7.314-3.762l.974,1.665c-1.905,1.349-4.626,2.668-7.438,3.764.788,1.435,1.53,2.695,2.118,3.501,2.986-1.142,6.14-2.701,8.528-4.335l.895,1.716Zm-.992,16.696c-1.562.543-3.46,1.113-6.328,1.881-4.702,1.229-8.758.701-9.577-2.589-.429-1.718.589-3.947,2.193-5.495l1.662.983c-1.441,1.348-2.101,2.83-1.806,3.931.552,2.057,3.343,2.272,7.03,1.315,2.173-.583,4.432-1.311,6.364-1.984l.461,1.957Z"/>
          </g>
          <g>
            <path class="cls-3" d="m18.489,111.975c1.415-1.559,3.815-4.655,5.589-7.429l1.433,1.293c-1.439,2.279-3.586,5.278-4.804,6.877.115.311.076.632-.108.868l-2.109-1.609Zm2.708-22.931c3.655,1.008,8.198,1.157,11.877.513l.027,2.073c-.393.043-.748.107-1.096.201-1.535.411-2.684,1.34-3.995,3.399l-1.941-.288c.595-1.028,1.613-2.326,2.439-2.952-2.183.088-5.024-.206-7.936-1.103l.624-1.844Zm6.136,8.294c-.268.972-.372,1.745-.193,2.412.318,1.188,1.431,1.977,3.729,2.789,2.774.965,4.433,2.632,4.991,4.719.715,2.666-.868,4.985-3.506,5.691-1.478.396-3.234.215-6.142-.436.107-.525.147-1.188.129-1.835,2.775.623,4.312.676,5.268.42,1.826-.49,2.524-1.825,2.121-3.332-.35-1.305-1.743-2.795-4.246-3.677-2.504-.882-3.869-2.038-4.296-3.632-.249-.927-.202-2.027.14-3.298l2.005.177Zm7.443,1.701c3.682.411,7.585,2.347,9.967,5.901l-1.604,1.547c-2.164-3.209-5.772-5.317-9.031-5.655l.669-1.794Z"/>
            <path class="cls-3" d="m64.428,87.646c-2.366,1.597-5.377,2.995-8.269,4.141,1.317,1.324,3.667,3.024,5.999,3.269l-.716,1.962c-.461-.095-1.306-.24-1.914-.419-.699-.061-2.173.117-3.535.482-.405.108-.804.246-1.173.376l-.832-1.485c.97-.322,2.404-.645,3.275-.754-1.007-.63-2.269-1.627-3.166-2.661-1.887.723-4.008,1.384-7.689,2.371-1.418.38-3.012.807-4.324,1.128l-.518-1.818c1.311-.32,3-.742,4.449-1.13,2.375-.637,4.723-1.266,7.016-2.098-.561-.813-1.466-2.34-2.162-3.551-1.129.426-2.417.833-3.605,1.152-1.564.419-3.564.955-4.941,1.262l-.481-1.796c1.762-.378,3.675-.891,4.921-1.225,1.042-.279,2.215-.656,3.292-1.038-.616-1.263-1.334-2.779-2-4.34l2.992-.771c.093.348-.114.62-.612.848.509,1.199,1.068,2.477,1.604,3.545,2.653-.991,5.425-2.354,7.314-3.762l.974,1.665c-1.905,1.349-4.626,2.668-7.438,3.764.788,1.435,1.53,2.695,2.118,3.501,2.986-1.142,6.14-2.701,8.528-4.335l.895,1.716Zm-.992,16.696c-1.562.543-3.46,1.113-6.328,1.881-4.702,1.229-8.758.701-9.577-2.589-.429-1.718.589-3.947,2.193-5.495l1.662.983c-1.441,1.348-2.101,2.83-1.806,3.931.552,2.057,3.343,2.272,7.03,1.315,2.173-.583,4.432-1.311,6.364-1.984l.461,1.957Z"/>
          </g>
          <g>
            <path class="cls-2" d="m18.489,111.975c1.415-1.559,3.815-4.655,5.589-7.429l1.433,1.293c-1.439,2.279-3.586,5.278-4.804,6.877.115.311.076.632-.108.868l-2.109-1.609Zm2.708-22.931c3.655,1.008,8.198,1.157,11.877.513l.027,2.073c-.393.043-.748.107-1.096.201-1.535.411-2.684,1.34-3.995,3.399l-1.941-.288c.595-1.028,1.613-2.326,2.439-2.952-2.183.088-5.024-.206-7.936-1.103l.624-1.844Zm6.136,8.294c-.268.972-.372,1.745-.193,2.412.318,1.188,1.431,1.977,3.729,2.789,2.774.965,4.433,2.632,4.991,4.719.715,2.666-.868,4.985-3.506,5.691-1.478.396-3.234.215-6.142-.436.107-.525.147-1.188.129-1.835,2.775.623,4.312.676,5.268.42,1.826-.49,2.524-1.825,2.121-3.332-.35-1.305-1.743-2.795-4.246-3.677-2.504-.882-3.869-2.038-4.296-3.632-.249-.927-.202-2.027.14-3.298l2.005.177Zm7.443,1.701c3.682.411,7.585,2.347,9.967,5.901l-1.604,1.547c-2.164-3.209-5.772-5.317-9.031-5.655l.669-1.794Z"/>
            <path class="cls-2" d="m64.428,87.646c-2.366,1.597-5.377,2.995-8.269,4.141,1.317,1.324,3.667,3.024,5.999,3.269l-.716,1.962c-.461-.095-1.306-.24-1.914-.419-.699-.061-2.173.117-3.535.482-.405.108-.804.246-1.173.376l-.832-1.485c.97-.322,2.404-.645,3.275-.754-1.007-.63-2.269-1.627-3.166-2.661-1.887.723-4.008,1.384-7.689,2.371-1.418.38-3.012.807-4.324,1.128l-.518-1.818c1.311-.32,3-.742,4.449-1.13,2.375-.637,4.723-1.266,7.016-2.098-.561-.813-1.466-2.34-2.162-3.551-1.129.426-2.417.833-3.605,1.152-1.564.419-3.564.955-4.941,1.262l-.481-1.796c1.762-.378,3.675-.891,4.921-1.225,1.042-.279,2.215-.656,3.292-1.038-.616-1.263-1.334-2.779-2-4.34l2.992-.771c.093.348-.114.62-.612.848.509,1.199,1.068,2.477,1.604,3.545,2.653-.991,5.425-2.354,7.314-3.762l.974,1.665c-1.905,1.349-4.626,2.668-7.438,3.764.788,1.435,1.53,2.695,2.118,3.501,2.986-1.142,6.14-2.701,8.528-4.335l.895,1.716Zm-.992,16.696c-1.562.543-3.46,1.113-6.328,1.881-4.702,1.229-8.758.701-9.577-2.589-.429-1.718.589-3.947,2.193-5.495l1.662.983c-1.441,1.348-2.101,2.83-1.806,3.931.552,2.057,3.343,2.272,7.03,1.315,2.173-.583,4.432-1.311,6.364-1.984l.461,1.957Z"/>
          </g>
        </g>
        <g>
          <g>
            <path class="cls-4" d="m266.146,126.855c1.415-1.559,3.815-4.655,5.589-7.429l1.433,1.293c-1.439,2.279-3.586,5.278-4.804,6.877.115.311.076.632-.108.868l-2.109-1.609Zm2.708-22.931c3.655,1.008,8.198,1.157,11.877.513l.027,2.073c-.393.043-.748.107-1.096.201-1.535.411-2.684,1.34-3.995,3.399l-1.941-.288c.595-1.028,1.613-2.326,2.439-2.952-2.183.088-5.024-.206-7.936-1.103l.624-1.844Zm6.136,8.294c-.268.972-.372,1.745-.193,2.412.318,1.188,1.431,1.977,3.729,2.789,2.774.965,4.433,2.632,4.991,4.719.715,2.666-.868,4.985-3.506,5.691-1.478.396-3.234.215-6.142-.436.107-.525.147-1.188.129-1.835,2.775.623,4.312.676,5.268.42,1.826-.49,2.524-1.825,2.121-3.332-.35-1.305-1.743-2.795-4.246-3.677-2.504-.882-3.869-2.038-4.296-3.632-.249-.927-.202-2.027.14-3.298l2.005.177Zm7.443,1.701c3.682.411,7.585,2.347,9.967,5.901l-1.604,1.547c-2.164-3.209-5.772-5.317-9.031-5.655l.669-1.794Z"/>
            <path class="cls-4" d="m312.085,102.527c-2.366,1.597-5.377,2.995-8.269,4.141,1.317,1.324,3.667,3.024,5.999,3.269l-.716,1.962c-.461-.095-1.306-.24-1.914-.419-.699-.061-2.173.117-3.535.482-.405.108-.804.246-1.173.376l-.832-1.485c.97-.322,2.404-.645,3.275-.754-1.007-.63-2.269-1.627-3.166-2.661-1.887.723-4.008,1.384-7.689,2.371-1.418.38-3.012.807-4.324,1.128l-.518-1.818c1.311-.32,3-.742,4.449-1.13,2.375-.637,4.723-1.266,7.016-2.098-.561-.813-1.466-2.34-2.162-3.551-1.129.426-2.417.833-3.605,1.152-1.564.419-3.564.955-4.941,1.262l-.481-1.796c1.762-.378,3.675-.891,4.921-1.225,1.042-.279,2.215-.656,3.292-1.038-.616-1.263-1.334-2.779-2-4.34l2.992-.771c.093.348-.114.62-.612.848.509,1.199,1.068,2.477,1.604,3.545,2.653-.991,5.425-2.354,7.314-3.762l.974,1.665c-1.905,1.349-4.626,2.668-7.438,3.764.788,1.435,1.53,2.695,2.118,3.501,2.986-1.142,6.14-2.701,8.528-4.335l.895,1.716Zm-.992,16.696c-1.562.543-3.46,1.113-6.328,1.881-4.702,1.229-8.758.701-9.577-2.589-.429-1.718.589-3.947,2.193-5.495l1.662.983c-1.441,1.348-2.101,2.83-1.806,3.931.552,2.057,3.343,2.272,7.03,1.315,2.173-.583,4.432-1.311,6.364-1.984l.461,1.957Z"/>
          </g>
          <g>
            <path class="cls-3" d="m266.146,126.855c1.415-1.559,3.815-4.655,5.589-7.429l1.433,1.293c-1.439,2.279-3.586,5.278-4.804,6.877.115.311.076.632-.108.868l-2.109-1.609Zm2.708-22.931c3.655,1.008,8.198,1.157,11.877.513l.027,2.073c-.393.043-.748.107-1.096.201-1.535.411-2.684,1.34-3.995,3.399l-1.941-.288c.595-1.028,1.613-2.326,2.439-2.952-2.183.088-5.024-.206-7.936-1.103l.624-1.844Zm6.136,8.294c-.268.972-.372,1.745-.193,2.412.318,1.188,1.431,1.977,3.729,2.789,2.774.965,4.433,2.632,4.991,4.719.715,2.666-.868,4.985-3.506,5.691-1.478.396-3.234.215-6.142-.436.107-.525.147-1.188.129-1.835,2.775.623,4.312.676,5.268.42,1.826-.49,2.524-1.825,2.121-3.332-.35-1.305-1.743-2.795-4.246-3.677-2.504-.882-3.869-2.038-4.296-3.632-.249-.927-.202-2.027.14-3.298l2.005.177Zm7.443,1.701c3.682.411,7.585,2.347,9.967,5.901l-1.604,1.547c-2.164-3.209-5.772-5.317-9.031-5.655l.669-1.794Z"/>
            <path class="cls-3" d="m312.085,102.527c-2.366,1.597-5.377,2.995-8.269,4.141,1.317,1.324,3.667,3.024,5.999,3.269l-.716,1.962c-.461-.095-1.306-.24-1.914-.419-.699-.061-2.173.117-3.535.482-.405.108-.804.246-1.173.376l-.832-1.485c.97-.322,2.404-.645,3.275-.754-1.007-.63-2.269-1.627-3.166-2.661-1.887.723-4.008,1.384-7.689,2.371-1.418.38-3.012.807-4.324,1.128l-.518-1.818c1.311-.32,3-.742,4.449-1.13,2.375-.637,4.723-1.266,7.016-2.098-.561-.813-1.466-2.34-2.162-3.551-1.129.426-2.417.833-3.605,1.152-1.564.419-3.564.955-4.941,1.262l-.481-1.796c1.762-.378,3.675-.891,4.921-1.225,1.042-.279,2.215-.656,3.292-1.038-.616-1.263-1.334-2.779-2-4.34l2.992-.771c.093.348-.114.62-.612.848.509,1.199,1.068,2.477,1.604,3.545,2.653-.991,5.425-2.354,7.314-3.762l.974,1.665c-1.905,1.349-4.626,2.668-7.438,3.764.788,1.435,1.53,2.695,2.118,3.501,2.986-1.142,6.14-2.701,8.528-4.335l.895,1.716Zm-.992,16.696c-1.562.543-3.46,1.113-6.328,1.881-4.702,1.229-8.758.701-9.577-2.589-.429-1.718.589-3.947,2.193-5.495l1.662.983c-1.441,1.348-2.101,2.83-1.806,3.931.552,2.057,3.343,2.272,7.03,1.315,2.173-.583,4.432-1.311,6.364-1.984l.461,1.957Z"/>
          </g>
          <g>
            <path class="cls-2" d="m266.146,126.855c1.415-1.559,3.815-4.655,5.589-7.429l1.433,1.293c-1.439,2.279-3.586,5.278-4.804,6.877.115.311.076.632-.108.868l-2.109-1.609Zm2.708-22.931c3.655,1.008,8.198,1.157,11.877.513l.027,2.073c-.393.043-.748.107-1.096.201-1.535.411-2.684,1.34-3.995,3.399l-1.941-.288c.595-1.028,1.613-2.326,2.439-2.952-2.183.088-5.024-.206-7.936-1.103l.624-1.844Zm6.136,8.294c-.268.972-.372,1.745-.193,2.412.318,1.188,1.431,1.977,3.729,2.789,2.774.965,4.433,2.632,4.991,4.719.715,2.666-.868,4.985-3.506,5.691-1.478.396-3.234.215-6.142-.436.107-.525.147-1.188.129-1.835,2.775.623,4.312.676,5.268.42,1.826-.49,2.524-1.825,2.121-3.332-.35-1.305-1.743-2.795-4.246-3.677-2.504-.882-3.869-2.038-4.296-3.632-.249-.927-.202-2.027.14-3.298l2.005.177Zm7.443,1.701c3.682.411,7.585,2.347,9.967,5.901l-1.604,1.547c-2.164-3.209-5.772-5.317-9.031-5.655l.669-1.794Z"/>
            <path class="cls-2" d="m312.085,102.527c-2.366,1.597-5.377,2.995-8.269,4.141,1.317,1.324,3.667,3.024,5.999,3.269l-.716,1.962c-.461-.095-1.306-.24-1.914-.419-.699-.061-2.173.117-3.535.482-.405.108-.804.246-1.173.376l-.832-1.485c.97-.322,2.404-.645,3.275-.754-1.007-.63-2.269-1.627-3.166-2.661-1.887.723-4.008,1.384-7.689,2.371-1.418.38-3.012.807-4.324,1.128l-.518-1.818c1.311-.32,3-.742,4.449-1.13,2.375-.637,4.723-1.266,7.016-2.098-.561-.813-1.466-2.34-2.162-3.551-1.129.426-2.417.833-3.605,1.152-1.564.419-3.564.955-4.941,1.262l-.481-1.796c1.762-.378,3.675-.891,4.921-1.225,1.042-.279,2.215-.656,3.292-1.038-.616-1.263-1.334-2.779-2-4.34l2.992-.771c.093.348-.114.62-.612.848.509,1.199,1.068,2.477,1.604,3.545,2.653-.991,5.425-2.354,7.314-3.762l.974,1.665c-1.905,1.349-4.626,2.668-7.438,3.764.788,1.435,1.53,2.695,2.118,3.501,2.986-1.142,6.14-2.701,8.528-4.335l.895,1.716Zm-.992,16.696c-1.562.543-3.46,1.113-6.328,1.881-4.702,1.229-8.758.701-9.577-2.589-.429-1.718.589-3.947,2.193-5.495l1.662.983c-1.441,1.348-2.101,2.83-1.806,3.931.552,2.057,3.343,2.272,7.03,1.315,2.173-.583,4.432-1.311,6.364-1.984l.461,1.957Z"/>
          </g>
        </g>
        <g>
          <g>
            <path class="cls-4" d="m76.031,123.18c1.415-1.56,3.815-4.656,5.589-7.43l1.433,1.293c-1.439,2.28-3.586,5.278-4.804,6.878.115.311.076.631-.108.867l-2.109-1.608Zm2.708-22.932c3.655,1.008,8.198,1.157,11.877.514l.027,2.073c-.393.043-.748.108-1.096.201-1.535.412-2.684,1.341-3.995,3.4l-1.941-.288c.595-1.028,1.613-2.326,2.439-2.952-2.183.088-5.024-.207-7.936-1.103l.624-1.845Zm6.136,8.294c-.268.973-.372,1.746-.193,2.412.318,1.188,1.431,1.977,3.729,2.79,2.774.965,4.433,2.632,4.991,4.718.715,2.666-.868,4.985-3.506,5.692-1.478.396-3.234.214-6.142-.436.107-.525.147-1.188.129-1.835,2.775.623,4.312.677,5.268.421,1.826-.489,2.524-1.825,2.121-3.332-.35-1.304-1.743-2.794-4.246-3.677-2.504-.882-3.869-2.038-4.296-3.631-.249-.927-.202-2.027.14-3.298l2.005.177Zm7.443,1.702c3.682.412,7.585,2.347,9.967,5.901l-1.604,1.548c-2.164-3.209-5.772-5.316-9.031-5.654l.669-1.794Z"/>
            <path class="cls-4" d="m121.97,98.851c-2.366,1.598-5.377,2.994-8.269,4.141,1.317,1.325,3.667,3.024,5.999,3.269l-.716,1.962c-.461-.094-1.306-.241-1.914-.419-.699-.061-2.173.117-3.535.481-.405.109-.804.247-1.173.377l-.832-1.485c.97-.322,2.404-.645,3.275-.754-1.007-.631-2.269-1.628-3.166-2.66-1.887.723-4.008,1.384-7.689,2.37-1.418.38-3.012.808-4.324,1.128l-.518-1.818c1.311-.321,3-.742,4.449-1.13,2.375-.637,4.723-1.266,7.016-2.098-.561-.813-1.466-2.34-2.162-3.55-1.129.426-2.417.833-3.605,1.151-1.564.419-3.564.955-4.941,1.262l-.481-1.796c1.762-.378,3.675-.891,4.921-1.225,1.042-.279,2.215-.655,3.292-1.038-.616-1.263-1.334-2.779-2-4.339l2.992-.771c.093.348-.114.621-.612.848.509,1.199,1.068,2.478,1.604,3.546,2.653-.99,5.425-2.354,7.314-3.762l.974,1.664c-1.905,1.35-4.626,2.669-7.438,3.764.788,1.436,1.53,2.696,2.118,3.501,2.986-1.142,6.14-2.701,8.528-4.335l.895,1.716Zm-.992,16.696c-1.562.543-3.46,1.113-6.328,1.881-4.702,1.229-8.758.7-9.577-2.589-.429-1.718.589-3.947,2.193-5.494l1.662.983c-1.441,1.348-2.101,2.83-1.806,3.931.552,2.057,3.343,2.272,7.03,1.315,2.173-.582,4.432-1.311,6.364-1.984l.461,1.957Z"/>
          </g>
          <g>
            <path class="cls-3" d="m76.031,123.18c1.415-1.56,3.815-4.656,5.589-7.43l1.433,1.293c-1.439,2.28-3.586,5.278-4.804,6.878.115.311.076.631-.108.867l-2.109-1.608Zm2.708-22.932c3.655,1.008,8.198,1.157,11.877.514l.027,2.073c-.393.043-.748.108-1.096.201-1.535.412-2.684,1.341-3.995,3.4l-1.941-.288c.595-1.028,1.613-2.326,2.439-2.952-2.183.088-5.024-.207-7.936-1.103l.624-1.845Zm6.136,8.294c-.268.973-.372,1.746-.193,2.412.318,1.188,1.431,1.977,3.729,2.79,2.774.965,4.433,2.632,4.991,4.718.715,2.666-.868,4.985-3.506,5.692-1.478.396-3.234.214-6.142-.436.107-.525.147-1.188.129-1.835,2.775.623,4.312.677,5.268.421,1.826-.489,2.524-1.825,2.121-3.332-.35-1.304-1.743-2.794-4.246-3.677-2.504-.882-3.869-2.038-4.296-3.631-.249-.927-.202-2.027.14-3.298l2.005.177Zm7.443,1.702c3.682.412,7.585,2.347,9.967,5.901l-1.604,1.548c-2.164-3.209-5.772-5.316-9.031-5.654l.669-1.794Z"/>
            <path class="cls-3" d="m121.97,98.851c-2.366,1.598-5.377,2.994-8.269,4.141,1.317,1.325,3.667,3.024,5.999,3.269l-.716,1.962c-.461-.094-1.306-.241-1.914-.419-.699-.061-2.173.117-3.535.481-.405.109-.804.247-1.173.377l-.832-1.485c.97-.322,2.404-.645,3.275-.754-1.007-.631-2.269-1.628-3.166-2.66-1.887.723-4.008,1.384-7.689,2.37-1.418.38-3.012.808-4.324,1.128l-.518-1.818c1.311-.321,3-.742,4.449-1.13,2.375-.637,4.723-1.266,7.016-2.098-.561-.813-1.466-2.34-2.162-3.55-1.129.426-2.417.833-3.605,1.151-1.564.419-3.564.955-4.941,1.262l-.481-1.796c1.762-.378,3.675-.891,4.921-1.225,1.042-.279,2.215-.655,3.292-1.038-.616-1.263-1.334-2.779-2-4.339l2.992-.771c.093.348-.114.621-.612.848.509,1.199,1.068,2.478,1.604,3.546,2.653-.99,5.425-2.354,7.314-3.762l.974,1.664c-1.905,1.35-4.626,2.669-7.438,3.764.788,1.436,1.53,2.696,2.118,3.501,2.986-1.142,6.14-2.701,8.528-4.335l.895,1.716Zm-.992,16.696c-1.562.543-3.46,1.113-6.328,1.881-4.702,1.229-8.758.7-9.577-2.589-.429-1.718.589-3.947,2.193-5.494l1.662.983c-1.441,1.348-2.101,2.83-1.806,3.931.552,2.057,3.343,2.272,7.03,1.315,2.173-.582,4.432-1.311,6.364-1.984l.461,1.957Z"/>
          </g>
          <g>
            <path class="cls-2" d="m76.031,123.18c1.415-1.56,3.815-4.656,5.589-7.43l1.433,1.293c-1.439,2.28-3.586,5.278-4.804,6.878.115.311.076.631-.108.867l-2.109-1.608Zm2.708-22.932c3.655,1.008,8.198,1.157,11.877.514l.027,2.073c-.393.043-.748.108-1.096.201-1.535.412-2.684,1.341-3.995,3.4l-1.941-.288c.595-1.028,1.613-2.326,2.439-2.952-2.183.088-5.024-.207-7.936-1.103l.624-1.845Zm6.136,8.294c-.268.973-.372,1.746-.193,2.412.318,1.188,1.431,1.977,3.729,2.79,2.774.965,4.433,2.632,4.991,4.718.715,2.666-.868,4.985-3.506,5.692-1.478.396-3.234.214-6.142-.436.107-.525.147-1.188.129-1.835,2.775.623,4.312.677,5.268.421,1.826-.489,2.524-1.825,2.121-3.332-.35-1.304-1.743-2.794-4.246-3.677-2.504-.882-3.869-2.038-4.296-3.631-.249-.927-.202-2.027.14-3.298l2.005.177Zm7.443,1.702c3.682.412,7.585,2.347,9.967,5.901l-1.604,1.548c-2.164-3.209-5.772-5.316-9.031-5.654l.669-1.794Z"/>
            <path class="cls-2" d="m121.97,98.851c-2.366,1.598-5.377,2.994-8.269,4.141,1.317,1.325,3.667,3.024,5.999,3.269l-.716,1.962c-.461-.094-1.306-.241-1.914-.419-.699-.061-2.173.117-3.535.481-.405.109-.804.247-1.173.377l-.832-1.485c.97-.322,2.404-.645,3.275-.754-1.007-.631-2.269-1.628-3.166-2.66-1.887.723-4.008,1.384-7.689,2.37-1.418.38-3.012.808-4.324,1.128l-.518-1.818c1.311-.321,3-.742,4.449-1.13,2.375-.637,4.723-1.266,7.016-2.098-.561-.813-1.466-2.34-2.162-3.55-1.129.426-2.417.833-3.605,1.151-1.564.419-3.564.955-4.941,1.262l-.481-1.796c1.762-.378,3.675-.891,4.921-1.225,1.042-.279,2.215-.655,3.292-1.038-.616-1.263-1.334-2.779-2-4.339l2.992-.771c.093.348-.114.621-.612.848.509,1.199,1.068,2.478,1.604,3.546,2.653-.99,5.425-2.354,7.314-3.762l.974,1.664c-1.905,1.35-4.626,2.669-7.438,3.764.788,1.436,1.53,2.696,2.118,3.501,2.986-1.142,6.14-2.701,8.528-4.335l.895,1.716Zm-.992,16.696c-1.562.543-3.46,1.113-6.328,1.881-4.702,1.229-8.758.7-9.577-2.589-.429-1.718.589-3.947,2.193-5.494l1.662.983c-1.441,1.348-2.101,2.83-1.806,3.931.552,2.057,3.343,2.272,7.03,1.315,2.173-.582,4.432-1.311,6.364-1.984l.461,1.957Z"/>
          </g>
        </g>
        <g>
          <g>
            <path class="cls-4" d="m93.845,58.484c1.415-1.56,3.815-4.656,5.589-7.43l1.433,1.293c-1.439,2.28-3.586,5.278-4.804,6.878.115.311.076.631-.108.867l-2.109-1.608Zm2.708-22.932c3.655,1.008,8.198,1.157,11.877.514l.027,2.073c-.393.043-.748.108-1.096.201-1.535.412-2.684,1.341-3.995,3.4l-1.941-.288c.595-1.028,1.613-2.326,2.439-2.952-2.183.088-5.024-.207-7.936-1.103l.624-1.845Zm6.136,8.294c-.268.973-.372,1.746-.193,2.412.318,1.188,1.431,1.977,3.729,2.79,2.774.965,4.433,2.632,4.991,4.718.715,2.666-.868,4.985-3.506,5.692-1.478.396-3.234.214-6.142-.436.107-.525.147-1.188.129-1.835,2.775.623,4.312.677,5.268.421,1.826-.489,2.524-1.825,2.121-3.332-.35-1.304-1.743-2.794-4.246-3.677-2.504-.882-3.869-2.038-4.296-3.631-.249-.927-.202-2.027.14-3.298l2.005.177Zm7.443,1.702c3.682.412,7.585,2.347,9.967,5.901l-1.604,1.548c-2.164-3.209-5.772-5.316-9.031-5.654l.669-1.794Z"/>
            <path class="cls-4" d="m139.783,34.155c-2.366,1.598-5.377,2.994-8.269,4.141,1.317,1.325,3.667,3.024,5.999,3.269l-.716,1.962c-.461-.094-1.306-.241-1.914-.419-.699-.061-2.173.117-3.535.481-.405.109-.804.247-1.173.377l-.832-1.485c.97-.322,2.404-.645,3.275-.754-1.007-.631-2.269-1.628-3.166-2.66-1.887.723-4.008,1.384-7.689,2.37-1.418.38-3.012.808-4.324,1.128l-.518-1.818c1.311-.321,3-.742,4.449-1.13,2.375-.637,4.723-1.266,7.016-2.098-.561-.813-1.466-2.34-2.162-3.55-1.129.426-2.417.833-3.605,1.151-1.564.419-3.564.955-4.941,1.262l-.481-1.796c1.762-.378,3.675-.891,4.921-1.225,1.042-.279,2.215-.655,3.292-1.038-.616-1.263-1.334-2.779-2-4.339l2.992-.771c.093.348-.114.621-.612.848.509,1.199,1.068,2.478,1.604,3.546,2.653-.99,5.425-2.354,7.314-3.762l.974,1.664c-1.905,1.35-4.626,2.669-7.438,3.764.788,1.436,1.53,2.696,2.118,3.501,2.986-1.142,6.14-2.701,8.528-4.335l.895,1.716Zm-.992,16.696c-1.562.543-3.46,1.113-6.328,1.881-4.702,1.229-8.758.7-9.577-2.589-.429-1.718.589-3.947,2.193-5.494l1.662.983c-1.441,1.348-2.101,2.83-1.806,3.931.552,2.057,3.343,2.272,7.03,1.315,2.173-.582,4.432-1.311,6.364-1.984l.461,1.957Z"/>
          </g>
          <g>
            <path class="cls-3" d="m93.845,58.484c1.415-1.56,3.815-4.656,5.589-7.43l1.433,1.293c-1.439,2.28-3.586,5.278-4.804,6.878.115.311.076.631-.108.867l-2.109-1.608Zm2.708-22.932c3.655,1.008,8.198,1.157,11.877.514l.027,2.073c-.393.043-.748.108-1.096.201-1.535.412-2.684,1.341-3.995,3.4l-1.941-.288c.595-1.028,1.613-2.326,2.439-2.952-2.183.088-5.024-.207-7.936-1.103l.624-1.845Zm6.136,8.294c-.268.973-.372,1.746-.193,2.412.318,1.188,1.431,1.977,3.729,2.79,2.774.965,4.433,2.632,4.991,4.718.715,2.666-.868,4.985-3.506,5.692-1.478.396-3.234.214-6.142-.436.107-.525.147-1.188.129-1.835,2.775.623,4.312.677,5.268.421,1.826-.489,2.524-1.825,2.121-3.332-.35-1.304-1.743-2.794-4.246-3.677-2.504-.882-3.869-2.038-4.296-3.631-.249-.927-.202-2.027.14-3.298l2.005.177Zm7.443,1.702c3.682.412,7.585,2.347,9.967,5.901l-1.604,1.548c-2.164-3.209-5.772-5.316-9.031-5.654l.669-1.794Z"/>
            <path class="cls-3" d="m139.783,34.155c-2.366,1.598-5.377,2.994-8.269,4.141,1.317,1.325,3.667,3.024,5.999,3.269l-.716,1.962c-.461-.094-1.306-.241-1.914-.419-.699-.061-2.173.117-3.535.481-.405.109-.804.247-1.173.377l-.832-1.485c.97-.322,2.404-.645,3.275-.754-1.007-.631-2.269-1.628-3.166-2.66-1.887.723-4.008,1.384-7.689,2.37-1.418.38-3.012.808-4.324,1.128l-.518-1.818c1.311-.321,3-.742,4.449-1.13,2.375-.637,4.723-1.266,7.016-2.098-.561-.813-1.466-2.34-2.162-3.55-1.129.426-2.417.833-3.605,1.151-1.564.419-3.564.955-4.941,1.262l-.481-1.796c1.762-.378,3.675-.891,4.921-1.225,1.042-.279,2.215-.655,3.292-1.038-.616-1.263-1.334-2.779-2-4.339l2.992-.771c.093.348-.114.621-.612.848.509,1.199,1.068,2.478,1.604,3.546,2.653-.99,5.425-2.354,7.314-3.762l.974,1.664c-1.905,1.35-4.626,2.669-7.438,3.764.788,1.436,1.53,2.696,2.118,3.501,2.986-1.142,6.14-2.701,8.528-4.335l.895,1.716Zm-.992,16.696c-1.562.543-3.46,1.113-6.328,1.881-4.702,1.229-8.758.7-9.577-2.589-.429-1.718.589-3.947,2.193-5.494l1.662.983c-1.441,1.348-2.101,2.83-1.806,3.931.552,2.057,3.343,2.272,7.03,1.315,2.173-.582,4.432-1.311,6.364-1.984l.461,1.957Z"/>
          </g>
          <g>
            <path class="cls-2" d="m93.845,58.484c1.415-1.56,3.815-4.656,5.589-7.43l1.433,1.293c-1.439,2.28-3.586,5.278-4.804,6.878.115.311.076.631-.108.867l-2.109-1.608Zm2.708-22.932c3.655,1.008,8.198,1.157,11.877.514l.027,2.073c-.393.043-.748.108-1.096.201-1.535.412-2.684,1.341-3.995,3.4l-1.941-.288c.595-1.028,1.613-2.326,2.439-2.952-2.183.088-5.024-.207-7.936-1.103l.624-1.845Zm6.136,8.294c-.268.973-.372,1.746-.193,2.412.318,1.188,1.431,1.977,3.729,2.79,2.774.965,4.433,2.632,4.991,4.718.715,2.666-.868,4.985-3.506,5.692-1.478.396-3.234.214-6.142-.436.107-.525.147-1.188.129-1.835,2.775.623,4.312.677,5.268.421,1.826-.489,2.524-1.825,2.121-3.332-.35-1.304-1.743-2.794-4.246-3.677-2.504-.882-3.869-2.038-4.296-3.631-.249-.927-.202-2.027.14-3.298l2.005.177Zm7.443,1.702c3.682.412,7.585,2.347,9.967,5.901l-1.604,1.548c-2.164-3.209-5.772-5.316-9.031-5.654l.669-1.794Z"/>
            <path class="cls-2" d="m139.783,34.155c-2.366,1.598-5.377,2.994-8.269,4.141,1.317,1.325,3.667,3.024,5.999,3.269l-.716,1.962c-.461-.094-1.306-.241-1.914-.419-.699-.061-2.173.117-3.535.481-.405.109-.804.247-1.173.377l-.832-1.485c.97-.322,2.404-.645,3.275-.754-1.007-.631-2.269-1.628-3.166-2.66-1.887.723-4.008,1.384-7.689,2.37-1.418.38-3.012.808-4.324,1.128l-.518-1.818c1.311-.321,3-.742,4.449-1.13,2.375-.637,4.723-1.266,7.016-2.098-.561-.813-1.466-2.34-2.162-3.55-1.129.426-2.417.833-3.605,1.151-1.564.419-3.564.955-4.941,1.262l-.481-1.796c1.762-.378,3.675-.891,4.921-1.225,1.042-.279,2.215-.655,3.292-1.038-.616-1.263-1.334-2.779-2-4.339l2.992-.771c.093.348-.114.621-.612.848.509,1.199,1.068,2.478,1.604,3.546,2.653-.99,5.425-2.354,7.314-3.762l.974,1.664c-1.905,1.35-4.626,2.669-7.438,3.764.788,1.436,1.53,2.696,2.118,3.501,2.986-1.142,6.14-2.701,8.528-4.335l.895,1.716Zm-.992,16.696c-1.562.543-3.46,1.113-6.328,1.881-4.702,1.229-8.758.7-9.577-2.589-.429-1.718.589-3.947,2.193-5.494l1.662.983c-1.441,1.348-2.101,2.83-1.806,3.931.552,2.057,3.343,2.272,7.03,1.315,2.173-.582,4.432-1.311,6.364-1.984l.461,1.957Z"/>
          </g>
        </g>
        <g>
          <g>
            <path class="cls-4" d="m254.535,53.977c1.415-1.559,3.815-4.655,5.589-7.429l1.433,1.293c-1.439,2.279-3.586,5.278-4.804,6.877.115.311.076.632-.108.868l-2.109-1.609Zm2.708-22.931c3.655,1.008,8.198,1.157,11.877.513l.027,2.073c-.393.043-.748.107-1.096.201-1.535.411-2.684,1.34-3.995,3.399l-1.941-.288c.595-1.028,1.613-2.326,2.439-2.952-2.183.088-5.024-.206-7.936-1.103l.624-1.844Zm6.136,8.294c-.268.972-.372,1.745-.193,2.412.318,1.188,1.431,1.977,3.729,2.789,2.774.965,4.433,2.632,4.991,4.719.715,2.666-.868,4.985-3.506,5.691-1.478.396-3.234.215-6.142-.436.107-.525.147-1.188.129-1.835,2.775.623,4.312.676,5.268.42,1.826-.49,2.524-1.825,2.121-3.332-.35-1.305-1.743-2.795-4.246-3.677-2.504-.882-3.869-2.038-4.296-3.632-.249-.927-.202-2.027.14-3.298l2.005.177Zm7.443,1.701c3.682.411,7.585,2.347,9.967,5.901l-1.604,1.547c-2.164-3.209-5.772-5.317-9.031-5.655l.669-1.794Z"/>
            <path class="cls-4" d="m300.474,29.648c-2.366,1.597-5.377,2.995-8.269,4.141,1.317,1.324,3.667,3.024,5.999,3.269l-.716,1.962c-.461-.095-1.306-.24-1.914-.419-.699-.061-2.173.117-3.535.482-.405.108-.804.246-1.173.376l-.832-1.485c.97-.322,2.404-.645,3.275-.754-1.007-.63-2.269-1.627-3.166-2.661-1.887.723-4.008,1.384-7.689,2.371-1.418.38-3.012.807-4.324,1.128l-.518-1.818c1.311-.32,3-.742,4.449-1.13,2.375-.637,4.723-1.266,7.016-2.098-.561-.813-1.466-2.34-2.162-3.551-1.129.426-2.417.833-3.605,1.152-1.564.419-3.564.955-4.941,1.262l-.481-1.796c1.762-.378,3.675-.891,4.921-1.225,1.042-.279,2.215-.656,3.292-1.038-.616-1.263-1.334-2.779-2-4.34l2.992-.771c.093.348-.114.62-.612.848.509,1.199,1.068,2.477,1.604,3.545,2.653-.991,5.425-2.354,7.314-3.762l.974,1.665c-1.905,1.349-4.626,2.668-7.438,3.764.788,1.435,1.53,2.695,2.118,3.501,2.986-1.142,6.14-2.701,8.528-4.335l.895,1.716Zm-.992,16.696c-1.562.543-3.46,1.113-6.328,1.881-4.702,1.229-8.758.701-9.577-2.589-.429-1.718.589-3.947,2.193-5.495l1.662.983c-1.441,1.348-2.101,2.83-1.806,3.931.552,2.057,3.343,2.272,7.03,1.315,2.173-.583,4.432-1.311,6.364-1.984l.461,1.957Z"/>
          </g>
          <g>
            <path class="cls-3" d="m254.535,53.977c1.415-1.559,3.815-4.655,5.589-7.429l1.433,1.293c-1.439,2.279-3.586,5.278-4.804,6.877.115.311.076.632-.108.868l-2.109-1.609Zm2.708-22.931c3.655,1.008,8.198,1.157,11.877.513l.027,2.073c-.393.043-.748.107-1.096.201-1.535.411-2.684,1.34-3.995,3.399l-1.941-.288c.595-1.028,1.613-2.326,2.439-2.952-2.183.088-5.024-.206-7.936-1.103l.624-1.844Zm6.136,8.294c-.268.972-.372,1.745-.193,2.412.318,1.188,1.431,1.977,3.729,2.789,2.774.965,4.433,2.632,4.991,4.719.715,2.666-.868,4.985-3.506,5.691-1.478.396-3.234.215-6.142-.436.107-.525.147-1.188.129-1.835,2.775.623,4.312.676,5.268.42,1.826-.49,2.524-1.825,2.121-3.332-.35-1.305-1.743-2.795-4.246-3.677-2.504-.882-3.869-2.038-4.296-3.632-.249-.927-.202-2.027.14-3.298l2.005.177Zm7.443,1.701c3.682.411,7.585,2.347,9.967,5.901l-1.604,1.547c-2.164-3.209-5.772-5.317-9.031-5.655l.669-1.794Z"/>
            <path class="cls-3" d="m300.474,29.648c-2.366,1.597-5.377,2.995-8.269,4.141,1.317,1.324,3.667,3.024,5.999,3.269l-.716,1.962c-.461-.095-1.306-.24-1.914-.419-.699-.061-2.173.117-3.535.482-.405.108-.804.246-1.173.376l-.832-1.485c.97-.322,2.404-.645,3.275-.754-1.007-.63-2.269-1.627-3.166-2.661-1.887.723-4.008,1.384-7.689,2.371-1.418.38-3.012.807-4.324,1.128l-.518-1.818c1.311-.32,3-.742,4.449-1.13,2.375-.637,4.723-1.266,7.016-2.098-.561-.813-1.466-2.34-2.162-3.551-1.129.426-2.417.833-3.605,1.152-1.564.419-3.564.955-4.941,1.262l-.481-1.796c1.762-.378,3.675-.891,4.921-1.225,1.042-.279,2.215-.656,3.292-1.038-.616-1.263-1.334-2.779-2-4.34l2.992-.771c.093.348-.114.62-.612.848.509,1.199,1.068,2.477,1.604,3.545,2.653-.991,5.425-2.354,7.314-3.762l.974,1.665c-1.905,1.349-4.626,2.668-7.438,3.764.788,1.435,1.53,2.695,2.118,3.501,2.986-1.142,6.14-2.701,8.528-4.335l.895,1.716Zm-.992,16.696c-1.562.543-3.46,1.113-6.328,1.881-4.702,1.229-8.758.701-9.577-2.589-.429-1.718.589-3.947,2.193-5.495l1.662.983c-1.441,1.348-2.101,2.83-1.806,3.931.552,2.057,3.343,2.272,7.03,1.315,2.173-.583,4.432-1.311,6.364-1.984l.461,1.957Z"/>
          </g>
          <g>
            <path class="cls-2" d="m254.535,53.977c1.415-1.559,3.815-4.655,5.589-7.429l1.433,1.293c-1.439,2.279-3.586,5.278-4.804,6.877.115.311.076.632-.108.868l-2.109-1.609Zm2.708-22.931c3.655,1.008,8.198,1.157,11.877.513l.027,2.073c-.393.043-.748.107-1.096.201-1.535.411-2.684,1.34-3.995,3.399l-1.941-.288c.595-1.028,1.613-2.326,2.439-2.952-2.183.088-5.024-.206-7.936-1.103l.624-1.844Zm6.136,8.294c-.268.972-.372,1.745-.193,2.412.318,1.188,1.431,1.977,3.729,2.789,2.774.965,4.433,2.632,4.991,4.719.715,2.666-.868,4.985-3.506,5.691-1.478.396-3.234.215-6.142-.436.107-.525.147-1.188.129-1.835,2.775.623,4.312.676,5.268.42,1.826-.49,2.524-1.825,2.121-3.332-.35-1.305-1.743-2.795-4.246-3.677-2.504-.882-3.869-2.038-4.296-3.632-.249-.927-.202-2.027.14-3.298l2.005.177Zm7.443,1.701c3.682.411,7.585,2.347,9.967,5.901l-1.604,1.547c-2.164-3.209-5.772-5.317-9.031-5.655l.669-1.794Z"/>
            <path class="cls-2" d="m300.474,29.648c-2.366,1.597-5.377,2.995-8.269,4.141,1.317,1.324,3.667,3.024,5.999,3.269l-.716,1.962c-.461-.095-1.306-.24-1.914-.419-.699-.061-2.173.117-3.535.482-.405.108-.804.246-1.173.376l-.832-1.485c.97-.322,2.404-.645,3.275-.754-1.007-.63-2.269-1.627-3.166-2.661-1.887.723-4.008,1.384-7.689,2.371-1.418.38-3.012.807-4.324,1.128l-.518-1.818c1.311-.32,3-.742,4.449-1.13,2.375-.637,4.723-1.266,7.016-2.098-.561-.813-1.466-2.34-2.162-3.551-1.129.426-2.417.833-3.605,1.152-1.564.419-3.564.955-4.941,1.262l-.481-1.796c1.762-.378,3.675-.891,4.921-1.225,1.042-.279,2.215-.656,3.292-1.038-.616-1.263-1.334-2.779-2-4.34l2.992-.771c.093.348-.114.62-.612.848.509,1.199,1.068,2.477,1.604,3.545,2.653-.991,5.425-2.354,7.314-3.762l.974,1.665c-1.905,1.349-4.626,2.668-7.438,3.764.788,1.435,1.53,2.695,2.118,3.501,2.986-1.142,6.14-2.701,8.528-4.335l.895,1.716Zm-.992,16.696c-1.562.543-3.46,1.113-6.328,1.881-4.702,1.229-8.758.701-9.577-2.589-.429-1.718.589-3.947,2.193-5.495l1.662.983c-1.441,1.348-2.101,2.83-1.806,3.931.552,2.057,3.343,2.272,7.03,1.315,2.173-.583,4.432-1.311,6.364-1.984l.461,1.957Z"/>
          </g>
        </g>
        <g>
          <g>
            <path class="cls-4" d="m312.541,79.508c1.415-1.559,3.815-4.655,5.589-7.429l1.433,1.293c-1.439,2.279-3.586,5.278-4.804,6.877.115.311.076.632-.108.868l-2.109-1.609Zm2.708-22.931c3.655,1.008,8.198,1.157,11.877.513l.027,2.073c-.393.043-.748.107-1.096.201-1.535.411-2.684,1.34-3.995,3.399l-1.941-.288c.595-1.028,1.613-2.326,2.439-2.952-2.183.088-5.024-.206-7.936-1.103l.624-1.844Zm6.136,8.294c-.268.972-.372,1.745-.193,2.412.318,1.188,1.431,1.977,3.729,2.789,2.774.965,4.433,2.632,4.991,4.719.715,2.666-.868,4.985-3.506,5.691-1.478.396-3.234.215-6.142-.436.107-.525.147-1.188.129-1.835,2.775.623,4.312.676,5.268.42,1.826-.49,2.524-1.825,2.121-3.332-.35-1.305-1.743-2.795-4.246-3.677-2.504-.882-3.869-2.038-4.296-3.632-.249-.927-.202-2.027.14-3.298l2.005.177Zm7.443,1.701c3.682.411,7.585,2.347,9.967,5.901l-1.604,1.547c-2.164-3.209-5.772-5.317-9.031-5.655l.669-1.794Z"/>
            <path class="cls-4" d="m358.479,55.179c-2.366,1.597-5.377,2.995-8.269,4.141,1.317,1.324,3.667,3.024,5.999,3.269l-.716,1.962c-.461-.095-1.306-.24-1.914-.419-.699-.061-2.173.117-3.535.482-.405.108-.804.246-1.173.376l-.832-1.485c.97-.322,2.404-.645,3.275-.754-1.007-.63-2.269-1.627-3.166-2.661-1.887.723-4.008,1.384-7.689,2.371-1.418.38-3.012.807-4.324,1.128l-.518-1.818c1.311-.32,3-.742,4.449-1.13,2.375-.637,4.723-1.266,7.016-2.098-.561-.813-1.466-2.34-2.162-3.551-1.129.426-2.417.833-3.605,1.152-1.564.419-3.564.955-4.941,1.262l-.481-1.796c1.762-.378,3.675-.891,4.921-1.225,1.042-.279,2.215-.656,3.292-1.038-.616-1.263-1.334-2.779-2-4.34l2.992-.771c.093.348-.114.62-.612.848.509,1.199,1.068,2.477,1.604,3.545,2.653-.991,5.425-2.354,7.314-3.762l.974,1.665c-1.905,1.349-4.626,2.668-7.438,3.764.788,1.435,1.53,2.695,2.118,3.501,2.986-1.142,6.14-2.701,8.528-4.335l.895,1.716Zm-.992,16.696c-1.562.543-3.46,1.113-6.328,1.881-4.702,1.229-8.758.701-9.577-2.589-.429-1.718.589-3.947,2.193-5.495l1.662.983c-1.441,1.348-2.101,2.83-1.806,3.931.552,2.057,3.343,2.272,7.03,1.315,2.173-.583,4.432-1.311,6.364-1.984l.461,1.957Z"/>
          </g>
          <g>
            <path class="cls-3" d="m312.541,79.508c1.415-1.559,3.815-4.655,5.589-7.429l1.433,1.293c-1.439,2.279-3.586,5.278-4.804,6.877.115.311.076.632-.108.868l-2.109-1.609Zm2.708-22.931c3.655,1.008,8.198,1.157,11.877.513l.027,2.073c-.393.043-.748.107-1.096.201-1.535.411-2.684,1.34-3.995,3.399l-1.941-.288c.595-1.028,1.613-2.326,2.439-2.952-2.183.088-5.024-.206-7.936-1.103l.624-1.844Zm6.136,8.294c-.268.972-.372,1.745-.193,2.412.318,1.188,1.431,1.977,3.729,2.789,2.774.965,4.433,2.632,4.991,4.719.715,2.666-.868,4.985-3.506,5.691-1.478.396-3.234.215-6.142-.436.107-.525.147-1.188.129-1.835,2.775.623,4.312.676,5.268.42,1.826-.49,2.524-1.825,2.121-3.332-.35-1.305-1.743-2.795-4.246-3.677-2.504-.882-3.869-2.038-4.296-3.632-.249-.927-.202-2.027.14-3.298l2.005.177Zm7.443,1.701c3.682.411,7.585,2.347,9.967,5.901l-1.604,1.547c-2.164-3.209-5.772-5.317-9.031-5.655l.669-1.794Z"/>
            <path class="cls-3" d="m358.479,55.179c-2.366,1.597-5.377,2.995-8.269,4.141,1.317,1.324,3.667,3.024,5.999,3.269l-.716,1.962c-.461-.095-1.306-.24-1.914-.419-.699-.061-2.173.117-3.535.482-.405.108-.804.246-1.173.376l-.832-1.485c.97-.322,2.404-.645,3.275-.754-1.007-.63-2.269-1.627-3.166-2.661-1.887.723-4.008,1.384-7.689,2.371-1.418.38-3.012.807-4.324,1.128l-.518-1.818c1.311-.32,3-.742,4.449-1.13,2.375-.637,4.723-1.266,7.016-2.098-.561-.813-1.466-2.34-2.162-3.551-1.129.426-2.417.833-3.605,1.152-1.564.419-3.564.955-4.941,1.262l-.481-1.796c1.762-.378,3.675-.891,4.921-1.225,1.042-.279,2.215-.656,3.292-1.038-.616-1.263-1.334-2.779-2-4.34l2.992-.771c.093.348-.114.62-.612.848.509,1.199,1.068,2.477,1.604,3.545,2.653-.991,5.425-2.354,7.314-3.762l.974,1.665c-1.905,1.349-4.626,2.668-7.438,3.764.788,1.435,1.53,2.695,2.118,3.501,2.986-1.142,6.14-2.701,8.528-4.335l.895,1.716Zm-.992,16.696c-1.562.543-3.46,1.113-6.328,1.881-4.702,1.229-8.758.701-9.577-2.589-.429-1.718.589-3.947,2.193-5.495l1.662.983c-1.441,1.348-2.101,2.83-1.806,3.931.552,2.057,3.343,2.272,7.03,1.315,2.173-.583,4.432-1.311,6.364-1.984l.461,1.957Z"/>
          </g>
          <g>
            <path class="cls-2" d="m312.541,79.508c1.415-1.559,3.815-4.655,5.589-7.429l1.433,1.293c-1.439,2.279-3.586,5.278-4.804,6.877.115.311.076.632-.108.868l-2.109-1.609Zm2.708-22.931c3.655,1.008,8.198,1.157,11.877.513l.027,2.073c-.393.043-.748.107-1.096.201-1.535.411-2.684,1.34-3.995,3.399l-1.941-.288c.595-1.028,1.613-2.326,2.439-2.952-2.183.088-5.024-.206-7.936-1.103l.624-1.844Zm6.136,8.294c-.268.972-.372,1.745-.193,2.412.318,1.188,1.431,1.977,3.729,2.789,2.774.965,4.433,2.632,4.991,4.719.715,2.666-.868,4.985-3.506,5.691-1.478.396-3.234.215-6.142-.436.107-.525.147-1.188.129-1.835,2.775.623,4.312.676,5.268.42,1.826-.49,2.524-1.825,2.121-3.332-.35-1.305-1.743-2.795-4.246-3.677-2.504-.882-3.869-2.038-4.296-3.632-.249-.927-.202-2.027.14-3.298l2.005.177Zm7.443,1.701c3.682.411,7.585,2.347,9.967,5.901l-1.604,1.547c-2.164-3.209-5.772-5.317-9.031-5.655l.669-1.794Z"/>
            <path class="cls-2" d="m358.479,55.179c-2.366,1.597-5.377,2.995-8.269,4.141,1.317,1.324,3.667,3.024,5.999,3.269l-.716,1.962c-.461-.095-1.306-.24-1.914-.419-.699-.061-2.173.117-3.535.482-.405.108-.804.246-1.173.376l-.832-1.485c.97-.322,2.404-.645,3.275-.754-1.007-.63-2.269-1.627-3.166-2.661-1.887.723-4.008,1.384-7.689,2.371-1.418.38-3.012.807-4.324,1.128l-.518-1.818c1.311-.32,3-.742,4.449-1.13,2.375-.637,4.723-1.266,7.016-2.098-.561-.813-1.466-2.34-2.162-3.551-1.129.426-2.417.833-3.605,1.152-1.564.419-3.564.955-4.941,1.262l-.481-1.796c1.762-.378,3.675-.891,4.921-1.225,1.042-.279,2.215-.656,3.292-1.038-.616-1.263-1.334-2.779-2-4.34l2.992-.771c.093.348-.114.62-.612.848.509,1.199,1.068,2.477,1.604,3.545,2.653-.991,5.425-2.354,7.314-3.762l.974,1.665c-1.905,1.349-4.626,2.668-7.438,3.764.788,1.435,1.53,2.695,2.118,3.501,2.986-1.142,6.14-2.701,8.528-4.335l.895,1.716Zm-.992,16.696c-1.562.543-3.46,1.113-6.328,1.881-4.702,1.229-8.758.701-9.577-2.589-.429-1.718.589-3.947,2.193-5.495l1.662.983c-1.441,1.348-2.101,2.83-1.806,3.931.552,2.057,3.343,2.272,7.03,1.315,2.173-.583,4.432-1.311,6.364-1.984l.461,1.957Z"/>
          </g>
        </g>
      </g>
      <image width="370" height="370" transform="translate(91.765 25) scale(.514)" xlink:href="../Links/⑩.png"/>
      <g>
        <g>
          <path class="cls-2" d="m102.027,249.752c-1.768-.034-3.238-.354-4.413-.963s-2.054-1.408-2.638-2.4c-.583-.991-.875-2.079-.875-3.262,0-.684.125-1.354.375-2.013.25-.658.617-1.263,1.101-1.812-1.233.15-2.442.292-3.625.425-1.184.134-2.226.25-3.125.35-.417.034-.779-.079-1.088-.337-.309-.258-.479-.596-.513-1.013-.033-.4.079-.758.338-1.075.258-.316.588-.483.987-.5.434-.033.896-.079,1.388-.138.491-.058.971-.104,1.438-.137,1.217-.583,2.4-1.338,3.55-2.263,1.15-.925,2.204-1.917,3.163-2.975.958-1.058,1.754-2.062,2.387-3.012.233-.35.551-.566.95-.65.4-.083.775-.008,1.125.225.333.217.542.529.625.938.083.409.009.788-.225,1.138-.667,1.017-1.546,2.046-2.638,3.087-1.092,1.042-2.254,2.004-3.487,2.888,1.333-.167,2.616-.338,3.85-.513s2.309-.337,3.226-.487c.399-.083.771-.013,1.112.212.341.225.546.538.612.938.083.4.013.771-.213,1.112-.225.342-.537.546-.938.613-.416.066-.896.129-1.438.188-.541.059-1.104.129-1.688.212-1.066.133-1.912.429-2.537.887-.625.459-1.075,1.004-1.35,1.638-.275.634-.413,1.267-.413,1.9,0,1.05.421,1.938,1.263,2.663s2.104,1.104,3.787,1.138c.417.017.767.171,1.051.462.283.292.416.646.399,1.062,0,.417-.149.771-.45,1.062-.3.292-.658.429-1.074.413Zm-8.851-16.575l-2.45-2.45c-.283-.283-.425-.633-.425-1.05s.142-.775.425-1.075c.283-.283.634-.425,1.051-.425s.766.142,1.05.425l2.45,2.45c.3.284.449.634.449,1.05s-.149.767-.449,1.05c-.284.3-.634.45-1.051.45s-.767-.141-1.05-.425Z"/>
          <path class="cls-2" d="m126.177,248.102c-.417.1-.809.042-1.175-.175-.367-.216-.6-.525-.7-.925-.1-.4-.042-.779.175-1.138s.525-.587.926-.688c1.85-.483,3.212-1.267,4.087-2.35.875-1.083,1.312-2.458,1.312-4.125,0-1.05-.233-1.991-.7-2.825s-1.129-1.508-1.987-2.025c-.858-.516-1.888-.833-3.087-.95-.301,2.8-.805,5.221-1.513,7.262-.709,2.042-1.542,3.617-2.5,4.725-.959,1.109-1.963,1.663-3.013,1.663-.884,0-1.691-.258-2.425-.775s-1.312-1.258-1.737-2.225c-.426-.966-.638-2.125-.638-3.475,0-1.383.263-2.679.787-3.887.525-1.208,1.271-2.271,2.237-3.188s2.104-1.633,3.413-2.15c1.308-.516,2.745-.775,4.312-.775,1.899,0,3.587.363,5.062,1.087,1.475.725,2.638,1.734,3.487,3.025s1.275,2.796,1.275,4.512c0,2.417-.646,4.429-1.938,6.038-1.292,1.608-3.18,2.729-5.663,3.362Zm-8.149-4.625c.3,0,.646-.254,1.037-.762s.787-1.229,1.188-2.163c.4-.933.767-2.038,1.1-3.312.334-1.275.584-2.688.75-4.237-1.3.25-2.392.729-3.274,1.438-.884.708-1.55,1.55-2,2.525s-.684,1.996-.7,3.062c0,1.133.179,1.992.537,2.575.358.584.812.875,1.363.875Z"/>
          <path class="cls-2" d="m143.277,250.427c-.384,0-.713-.129-.988-.388-.274-.258-.412-.596-.412-1.012v-11.425c-.184.284-.371.559-.562.825s-.379.525-.562.775c-.233.317-.542.513-.925.587-.384.075-.742.004-1.075-.212-.334-.233-.533-.533-.6-.9-.067-.366.016-.708.25-1.025.449-.6.92-1.308,1.412-2.125.491-.816.967-1.671,1.425-2.562s.871-1.758,1.237-2.6c.367-.841.658-1.587.875-2.237.134-.417.379-.708.738-.875.357-.167.737-.184,1.137-.05.367.117.638.333.812.65.176.317.196.684.062,1.1-.184.567-.396,1.146-.637,1.738-.242.592-.505,1.196-.788,1.812v4.35c.184-.233.441-.4.775-.5l1.899-.575v-5.25c0-.45.142-.808.426-1.075.283-.266.625-.4,1.024-.4.417,0,.763.134,1.038.4.274.267.412.625.412,1.075v4.4l2.025-.625v-5.7c0-.433.141-.779.425-1.037.283-.258.616-.388,1-.388s.712.129.987.388.412.604.412,1.037v4.875l.15-.05c1.65-.5,2.883-.508,3.7-.025.816.483,1.225,1.583,1.225,3.3v3.675c0,1.267-.267,2.171-.8,2.712s-1.367.837-2.5.887c-.417.017-.767-.091-1.05-.325-.284-.233-.45-.575-.5-1.025-.017-.333.079-.65.287-.95s.479-.475.812-.525c.384-.05.634-.138.75-.263s.175-.396.175-.812v-2.95c0-.55-.112-.896-.337-1.038-.226-.142-.654-.121-1.288.062l-.625.2v7.1c0,.417-.137.754-.412,1.013s-.604.387-.987.387-.717-.129-1-.387c-.284-.258-.425-.596-.425-1.013v-6.25l-2.025.625v6.975c0,.65.1,1.138.3,1.462.2.325.601.546,1.2.663.6.117,1.491.175,2.675.175,1.134,0,1.987-.062,2.562-.188s.983-.325,1.226-.6c.241-.275.42-.646.537-1.113.116-.433.375-.75.775-.95.399-.2.841-.217,1.324-.05.434.134.717.384.851.75.133.367.142.767.024,1.2-.184.684-.429,1.262-.737,1.737s-.725.854-1.25,1.138c-.524.283-1.217.491-2.075.625-.858.133-1.938.2-3.237.2-1.833,0-3.267-.133-4.3-.4s-1.754-.75-2.162-1.45c-.409-.7-.613-1.691-.613-2.975v-6.3l-1.125.35c-.649.184-1.166.009-1.55-.525v10.475c0,.417-.138.754-.412,1.012-.275.258-.604.388-.987.388Z"/>
          <path class="cls-2" d="m173.927,250.502c-1.533-1.534-2.771-3.275-3.712-5.225-.942-1.95-1.413-4.15-1.413-6.6s.471-4.654,1.413-6.612c.941-1.958,2.179-3.696,3.712-5.213.184-.166.396-.254.638-.262.241-.008.445.079.612.262.184.167.279.367.288.6.008.234-.08.442-.263.625-1.45,1.517-2.575,3.113-3.375,4.788s-1.2,3.612-1.2,5.812.4,4.134,1.2,5.8c.8,1.667,1.925,3.267,3.375,4.8.183.167.271.371.263.612-.009.242-.104.446-.288.613-.167.166-.371.25-.612.25s-.454-.084-.638-.25Z"/>
          <path class="cls-2" d="m183.477,250.427c-.366,0-.679-.117-.938-.35-.258-.233-.387-.559-.387-.975v-12.1c-.101.167-.205.333-.312.5-.109.167-.213.333-.312.5-.2.3-.496.504-.888.612s-.771.029-1.138-.237c-.283-.184-.459-.458-.525-.825-.066-.366.009-.708.226-1.025.517-.75,1.037-1.617,1.562-2.6.524-.983,1.008-1.983,1.45-3,.441-1.017.787-1.95,1.037-2.8.133-.4.362-.667.688-.8.325-.133.671-.141,1.037-.025.367.1.642.304.825.612.184.309.208.663.075,1.062-.017.067-.033.134-.05.2-.017.067-.042.142-.075.225.1-.183.246-.337.438-.462s.421-.188.688-.188h7.275c.399,0,.721.129.962.387.241.259.362.571.362.938s-.121.675-.362.925-.562.375-.962.375h-3.5c-.051.467-.109.929-.176,1.387-.066.458-.142.904-.225,1.337h1.1c1.134,0,1.921.267,2.363.8.441.534.57,1.367.387,2.5-.416,2.567-1.171,4.837-2.262,6.812-1.092,1.975-2.455,3.688-4.088,5.137-.316.267-.675.413-1.075.438-.399.025-.75-.129-1.05-.462-.233-.267-.342-.587-.325-.962s.158-.671.425-.888c1.667-1.416,3.009-3.125,4.025-5.125-.267-.183-.596-.404-.987-.662s-.746-.488-1.062-.688c-.067.117-.138.233-.213.35-.075.117-.154.242-.237.375-.2.317-.479.513-.838.588-.358.075-.704.021-1.037-.163-.334-.183-.525-.458-.575-.825v7.775c0,.417-.129.742-.388.975-.258.233-.57.35-.938.35Zm1.325-9.6c.033-.183.101-.358.2-.525.783-1.233,1.438-2.629,1.963-4.188.524-1.558.87-3.138,1.037-4.737h-1.125c-.4,0-.717-.125-.95-.375s-.35-.559-.35-.925c0-.1.008-.175.024-.225-.116.317-.241.646-.375.988-.133.342-.274.688-.425,1.038v8.95Zm6.025-1.15c.2-.6.35-1.216.45-1.85.083-.383.066-.65-.051-.8-.116-.15-.392-.225-.824-.225h-.851c-.1.3-.2.596-.3.888s-.217.579-.35.862c.266.15.587.333.962.55.375.217.696.409.963.575Zm5.725,4.575c-.366,0-.675-.117-.925-.35s-.375-.55-.375-.95v-11.15c0-.4.125-.716.375-.95.25-.233.559-.35.925-.35s.675.117.925.35c.25.234.375.55.375.95v11.15c0,.4-.125.717-.375.95s-.559.35-.925.35Zm1.15,5.925c-.4,0-.742-.125-1.025-.375s-.434-.583-.45-1c-.017-.384.101-.716.351-1,.25-.283.6-.433,1.05-.45.7-.05,1.15-.175,1.35-.375.2-.2.301-.616.301-1.25v-17.125c0-.4.129-.716.387-.95.259-.233.571-.35.938-.35s.676.117.926.35.375.55.375.95v17.65c0,1.45-.317,2.466-.95,3.05-.634.583-1.717.875-3.25.875Z"/>
          <path class="cls-2" d="m211.752,235.577c-.584,0-1.079-.208-1.487-.625-.409-.417-.612-.917-.612-1.5s.203-1.079.612-1.487c.408-.408.903-.613,1.487-.613s1.083.205,1.5.613c.416.409.625.904.625,1.487s-.209,1.083-.625,1.5c-.417.417-.917.625-1.5.625Zm0,10.45c-.584,0-1.079-.208-1.487-.625-.409-.417-.612-.917-.612-1.5s.203-1.079.612-1.488c.408-.408.903-.612,1.487-.612s1.083.204,1.5.612c.416.409.625.904.625,1.488s-.209,1.083-.625,1.5c-.417.417-.917.625-1.5.625Z"/>
          <path class="cls-2" d="m223.552,250.627c-.384,0-.708-.125-.975-.375s-.4-.584-.4-1v-12.4c0-.933.121-1.666.362-2.2.242-.533.646-.908,1.213-1.125.566-.216,1.333-.325,2.3-.325h1.025c-.233-.167-.392-.375-.476-.625-.066-.233-.146-.487-.237-.762-.092-.275-.196-.554-.312-.838h-1.225c-.217.334-.446.663-.688.988-.242.325-.479.629-.713.913-.25.316-.571.521-.962.612-.393.092-.755.021-1.088-.212-.316-.216-.5-.504-.55-.863-.05-.358.041-.67.274-.938.483-.566.967-1.2,1.45-1.9.483-.7.884-1.4,1.2-2.1.184-.35.445-.575.787-.675s.696-.066,1.062.1c.367.15.604.387.713.712s.088.654-.062.987c-.033.034-.066.092-.1.175h4.75c.333,0,.6.108.8.325.2.217.3.475.3.775,0,.316-.1.579-.3.787-.2.209-.467.312-.8.312h-2.051c.051.134.104.263.163.388.058.125.096.237.112.337.133.317.142.613.025.888-.117.275-.325.487-.625.637.75.05,1.341.192,1.774.425s.746.617.938,1.15c.191.534.288,1.267.288,2.2,0,1.033-.121,1.8-.363,2.3-.241.5-.646.829-1.212.987-.567.159-1.342.238-2.325.238h-2.7v8.725c0,.416-.134.75-.399,1-.268.25-.592.375-.976.375Zm1.375-11.95h2.325c.55,0,.925-.054,1.125-.163.2-.108.325-.396.375-.862h-3.825v1.025Zm.025-2.6h3.774c-.033-.433-.154-.708-.362-.825s-.579-.175-1.112-.175h-.825c-.517,0-.879.062-1.087.188-.209.125-.338.396-.388.812Zm7.25,13.125c-1.25,0-2.209-.104-2.875-.312-.667-.208-1.125-.596-1.375-1.163s-.375-1.383-.375-2.45.125-1.883.375-2.45c.25-.566.708-.954,1.375-1.163.666-.208,1.625-.312,2.875-.312,1.267,0,2.233.104,2.899.312.667.209,1.121.596,1.363,1.163.241.567.362,1.384.362,2.45s-.121,1.883-.362,2.45c-.242.566-.696.954-1.363,1.163-.666.208-1.633.312-2.899.312Zm-1.875-4.825h3.75c-.05-.5-.204-.809-.463-.925-.259-.116-.729-.175-1.412-.175s-1.154.059-1.413.175c-.258.117-.412.425-.462.925Zm1.875,2.9c.7,0,1.179-.062,1.438-.188.258-.125.412-.446.462-.962h-3.774c.05.517.2.837.45.962s.725.188,1.425.188Zm6.475,3.25c-.434,0-.774-.129-1.024-.388s-.393-.571-.426-.938c-.033-.333.042-.654.226-.962.183-.308.475-.496.875-.562.533-.066.879-.171,1.037-.312s.237-.438.237-.888v-5.95h-2.699c-.984,0-1.759-.079-2.325-.238-.567-.158-.972-.487-1.213-.987s-.362-1.267-.362-2.3c0-1.05.121-1.85.362-2.4.241-.55.646-.92,1.213-1.112.566-.191,1.341-.288,2.325-.288h.399c-.217-.15-.375-.358-.475-.625-.067-.233-.15-.487-.25-.762-.101-.275-.2-.554-.3-.838h-1.301c-.217.35-.434.692-.649,1.025-.217.333-.442.642-.675.925-.234.317-.551.521-.95.612-.4.092-.767.021-1.101-.212-.316-.216-.5-.5-.55-.85-.05-.35.033-.666.25-.95.483-.566.941-1.2,1.375-1.9.434-.7.809-1.408,1.125-2.125.15-.35.4-.575.75-.675.351-.1.708-.075,1.075.075.366.15.608.387.725.712.117.325.092.654-.074.987l-.075.175h6.149c.334,0,.601.108.801.325.199.217.3.475.3.775,0,.316-.101.579-.3.787-.2.209-.467.312-.801.312h-3.274c.05.134.1.263.149.388.051.125.092.237.125.337.134.317.146.609.038.875-.108.267-.305.475-.588.625,1.333.034,2.259.312,2.775.837.517.525.774,1.463.774,2.812v10.3c0,1.25-.304,2.125-.912,2.625s-1.529.75-2.763.75Zm-2.899-14.45h3.8c-.05-.417-.18-.688-.388-.812-.209-.125-.579-.188-1.112-.188h-.8c-.534,0-.904.059-1.113.175-.208.117-.337.392-.387.825Zm1.5,2.6h2.324v-1.025h-3.824c.033.467.153.754.362.862.208.109.587.163,1.138.163Z"/>
          <path class="cls-2" d="m263.777,250.227c-.5,0-.904-.112-1.213-.337s-.487-.546-.537-.962c-.067-.417.016-.788.25-1.112.232-.325.583-.504,1.05-.538.5-.05.888-.113,1.162-.188.275-.075.483-.212.625-.413s.263-.491.362-.875c.084-.35.167-.763.25-1.237.084-.475.158-.938.226-1.388.116-.7.054-1.196-.188-1.487-.242-.292-.755-.438-1.538-.438h-.125c-.416,1.033-.945,2.062-1.587,3.087s-1.367,1.996-2.175,2.913c-.809.917-1.663,1.733-2.562,2.45-.334.267-.722.392-1.163.375s-.787-.184-1.037-.5c-.233-.3-.325-.637-.275-1.012s.226-.671.525-.888c1.133-.833,2.183-1.825,3.149-2.975s1.733-2.3,2.301-3.45h-2.2c-.567.983-1.288,1.967-2.163,2.95-.875.984-1.837,1.896-2.887,2.738-1.051.842-2.125,1.545-3.226,2.112-.366.167-.737.204-1.112.112s-.654-.312-.838-.662c-.166-.333-.195-.671-.087-1.013.108-.341.346-.604.712-.788.816-.417,1.646-.929,2.488-1.538.841-.608,1.629-1.254,2.362-1.938.733-.683,1.341-1.341,1.825-1.975h-2.476c-.634.566-1.287,1.092-1.962,1.575-.676.484-1.347.892-2.013,1.225-.367.2-.742.246-1.125.138-.384-.108-.667-.346-.851-.713-.166-.333-.195-.67-.087-1.012.108-.341.337-.604.688-.788,1.033-.583,2.083-1.271,3.149-2.062,1.066-.792,1.967-1.596,2.7-2.413-1.017-.266-1.721-.729-2.112-1.387s-.588-1.571-.588-2.738v-1.15c0-1.083.167-1.946.5-2.587.334-.642.904-1.104,1.713-1.388.809-.283,1.929-.425,3.362-.425h3.95c1.434,0,2.554.142,3.362.425.809.284,1.379.746,1.713,1.388.333.642.5,1.504.5,2.587v1.15c0,1.067-.167,1.925-.5,2.575-.334.65-.904,1.117-1.713,1.4-.809.284-1.929.425-3.362.425h-3.9c-.3.45-.649.9-1.05,1.35h8.75c1.5,0,2.604.342,3.312,1.025.708.684.979,1.725.812,3.125-.083.667-.175,1.309-.274,1.925-.101.617-.217,1.225-.351,1.825-.3,1.334-.804,2.25-1.513,2.75-.708.5-1.712.75-3.012.75Zm-9.226-18.825h8.95c-.05-.617-.25-1.029-.6-1.238-.351-.208-.984-.312-1.9-.312h-3.95c-.917,0-1.55.104-1.899.312-.351.209-.551.621-.601,1.238Zm2.5,3.75h3.95c.916,0,1.55-.104,1.9-.312.35-.208.55-.621.6-1.238h-8.95c.05.617.25,1.029.601,1.238.35.208.982.312,1.899.312Z"/>
          <path class="cls-2" d="m289.752,250.377c-.384,0-.713-.125-.987-.375-.275-.25-.413-.584-.413-1v-6.15h-.3c-.6,0-.987.08-1.162.238-.175.159-.263.487-.263.987v3.15c0,.417-.129.746-.388.988-.259.241-.579.362-.962.362-.367,0-.684-.121-.95-.362-.267-.242-.4-.571-.4-.988v-3.15c0-.483.021-.9.062-1.25s.121-.658.237-.925c-.149.05-.316.075-.5.075-.366,0-.691-.133-.975-.4-.283-.266-.425-.591-.425-.975v-.65c-.05.034-.104.062-.163.087-.059.025-.121.055-.188.088-.25.117-.537.242-.862.375s-.671.275-1.037.425v5.9c0,1.2-.284,2.087-.851,2.663s-1.517.862-2.85.862c-.967,0-1.5-.458-1.6-1.375-.034-.4.07-.746.312-1.037.241-.292.587-.471,1.037-.538.483-.083.791-.188.925-.312s.2-.388.2-.788v-4.3c-.217.083-.421.162-.612.237-.192.075-.38.146-.562.212-.45.167-.858.163-1.226-.012-.366-.175-.616-.471-.75-.888-.133-.417-.112-.792.062-1.125.176-.333.496-.583.963-.75.283-.083.604-.191.963-.325.357-.133.745-.266,1.162-.4v-4.6h-1.85c-.367,0-.684-.133-.95-.4-.267-.266-.4-.583-.4-.95s.134-.684.4-.95.583-.4.95-.4h1.85v-3.275c0-.434.142-.779.425-1.038s.616-.388,1-.388.713.129.987.388c.275.258.413.604.413,1.038v3.275h1.325c.383,0,.703.133.962.4s.388.583.388.95-.129.684-.388.95c-.259.267-.579.4-.962.4h-1.325v3.6l.925-.325c.75-.233,1.3-.092,1.65.425.25-.483.662-.812,1.237-.987.575-.175,1.379-.263,2.412-.263h7.05c1.051,0,1.863.092,2.438.275.575.184.979.509,1.213.975.233.467.35,1.134.35,2v.525c0,.384-.142.708-.425.975s-.616.4-1,.4c-.184,0-.375-.042-.575-.125.134.267.221.587.263.962s.062.805.062,1.288v1.025c0,1.184-.233,2.034-.7,2.55s-1.241.8-2.324.85c-.4.016-.729-.08-.988-.288-.258-.208-.412-.488-.462-.837-.034-.333.037-.646.212-.938.176-.292.446-.471.812-.538.351-.066.566-.146.65-.238.083-.091.125-.32.125-.688v-.9c0-.5-.088-.829-.263-.987-.175-.158-.571-.238-1.188-.238h-.425v6.15c0,.416-.134.75-.4,1s-.592.375-.975.375Zm-5.125-14.425c-.3,0-.555-.104-.763-.312-.208-.208-.312-.462-.312-.762,0-.316.104-.579.312-.788s.463-.312.763-.312h6.375c.633,0,1.062-.054,1.287-.163.226-.108.354-.371.388-.788h-7.675c-.3,0-.55-.1-.75-.3-.2-.2-.3-.45-.3-.75,0-.283.1-.525.3-.725s.45-.3.75-.3h7.675c-.033-.4-.167-.65-.399-.75-.234-.1-.659-.15-1.275-.15h-6.375c-.3,0-.555-.104-.763-.312-.208-.208-.312-.471-.312-.787,0-.3.104-.554.312-.763.208-.208.463-.312.763-.312h6.375c1.217,0,2.154.096,2.812.288.658.192,1.112.538,1.362,1.038s.375,1.208.375,2.125v1.375c0,.917-.125,1.625-.375,2.125s-.704.846-1.362,1.037c-.658.192-1.596.288-2.812.288h-6.375Zm.5,4.975c.316-.167.717-.283,1.2-.35.483-.066,1.058-.1,1.725-.1h.3v-1.35h-2c-.5,0-.824.062-.975.188s-.225.396-.225.812v.475c0,.15-.009.259-.025.325Zm9.45.05c-.017-.066-.029-.133-.038-.2-.008-.066-.012-.133-.012-.2v-.45c0-.417-.075-.688-.226-.812-.149-.125-.475-.188-.975-.188h-2.2v1.35h.425c.717,0,1.321.038,1.812.113.491.075.896.204,1.213.387Z"/>
          <path class="cls-2" d="m302.877,250.352c-.384,0-.704-.121-.963-.362-.258-.242-.387-.571-.387-.987v-17.925c0-.917.107-1.625.324-2.125s.613-.846,1.188-1.038c.575-.191,1.404-.287,2.488-.287,1.699,0,2.85.333,3.449,1,.601.667.625,1.608.075,2.825-.2.434-.434.934-.7,1.5-.267.567-.5,1.05-.699,1.45-.184.367-.309.667-.375.9-.067.233-.059.442.024.625.083.184.241.417.476.7.816.934,1.308,1.917,1.475,2.95.083-.266.237-.483.463-.65.225-.167.495-.25.812-.25h4.074v-1.925h-2.649c-.384,0-.688-.125-.913-.375-.225-.25-.337-.55-.337-.9,0-.066.004-.129.013-.188.008-.058.021-.121.037-.188-.3.25-.575.475-.825.675-.316.25-.671.342-1.062.275-.392-.066-.704-.241-.938-.525-.2-.283-.271-.613-.212-.988.058-.375.229-.67.512-.887.566-.417,1.184-.921,1.851-1.513.666-.591,1.316-1.208,1.95-1.85.633-.641,1.175-1.221,1.625-1.737,1.399-1.6,2.891-1.633,4.475-.1.45.434,1.025.942,1.725,1.525.7.584,1.417,1.154,2.15,1.713s1.383,1.029,1.95,1.412c.316.217.524.517.625.9.1.383.041.742-.175,1.075-.234.367-.559.592-.976.675s-.809-.008-1.175-.275c-.584-.433-1.221-.938-1.912-1.512-.692-.575-1.363-1.163-2.013-1.763-.65-.6-1.2-1.125-1.65-1.575-.267-.267-.504-.396-.712-.388-.209.009-.438.154-.688.438-.45.5-.996,1.075-1.638,1.725s-1.288,1.267-1.938,1.85c.033,0,.07-.004.112-.013.041-.008.088-.013.138-.013h7.925c.383,0,.688.125.912.375.226.25.338.542.338.875,0,.35-.112.65-.338.9-.225.25-.529.375-.912.375h-2.45v1.925h4.75c.417,0,.746.129.987.388.242.258.363.579.363.962,0,.367-.121.684-.363.95-.241.267-.57.4-.987.4h-4.75v5.125c0,.967-.138,1.721-.412,2.262-.275.542-.692.917-1.25,1.125-.559.208-1.263.321-2.112.337-.467,0-.851-.121-1.15-.362-.3-.242-.467-.579-.5-1.013s.088-.783.362-1.05c.275-.267.612-.417,1.013-.45.533-.066.871-.162,1.013-.287s.212-.446.212-.963v-4.725h-4.074c-.284,0-.529-.066-.738-.2-.208-.133-.362-.3-.462-.5,0,1.4-.329,2.458-.987,3.175-.659.717-1.604,1.117-2.838,1.2-.533.034-.959-.083-1.275-.35v4.3c0,.416-.129.746-.387.987-.259.241-.58.362-.963.362Zm1.35-7.85c.084-.083.184-.15.301-.2.116-.05.241-.083.375-.1.616-.116,1.028-.312,1.237-.587.208-.275.312-.829.312-1.663,0-.516-.101-1.004-.3-1.462-.2-.458-.467-.888-.801-1.288-.333-.4-.562-.733-.688-1-.125-.266-.158-.562-.1-.887.059-.325.195-.746.412-1.263.134-.333.316-.788.551-1.362.232-.575.441-1.088.625-1.538.149-.35.17-.6.062-.75-.109-.15-.404-.225-.888-.225-.417,0-.704.054-.862.163-.159.108-.238.346-.238.712v11.45Zm3.926,5.25c-.268-.267-.4-.588-.4-.963s.133-.688.4-.938c.283-.266.612-.6.987-1,.375-.4.741-.812,1.1-1.237s.638-.779.838-1.062c.233-.3.537-.483.912-.55s.713.017,1.013.25c.333.217.537.508.612.875s-.004.717-.237,1.05c-.233.333-.537.725-.912,1.175-.375.45-.759.888-1.15,1.312-.392.425-.729.779-1.013,1.062-.3.284-.662.43-1.087.438-.426.009-.779-.129-1.062-.412Zm13.675.025c-.284-.283-.634-.65-1.05-1.1-.417-.45-.825-.917-1.226-1.4-.399-.483-.725-.892-.975-1.225-.217-.3-.292-.633-.226-1,.066-.366.259-.65.575-.85.316-.2.658-.266,1.025-.2.366.066.658.242.875.525.216.284.504.629.862,1.038s.733.809,1.125,1.2c.392.392.729.712,1.013.962.283.25.421.575.412.975s-.146.734-.412,1c-.284.284-.617.434-1,.45-.384.017-.717-.108-1-.375Z"/>
          <path class="cls-2" d="m328.577,250.502c-.167-.167-.255-.371-.263-.613-.009-.242.07-.446.237-.612,1.45-1.533,2.575-3.133,3.375-4.8.8-1.666,1.2-3.6,1.2-5.8s-.4-4.138-1.2-5.812-1.925-3.271-3.375-4.788c-.167-.183-.246-.391-.237-.625.008-.233.096-.433.263-.6.183-.183.396-.271.638-.262.241.008.445.096.612.262,1.533,1.517,2.771,3.254,3.712,5.213s1.413,4.162,1.413,6.612-.472,4.65-1.413,6.6c-.941,1.95-2.179,3.691-3.712,5.225-.167.166-.371.25-.612.25s-.455-.084-.638-.25Z"/>
        </g>
        <g>
          <path class="cls-6" d="m72.835,240c0,1.336-.263,2.583-.513,3.845-.257,1.301-.492,2.554-.988,3.751-.505,1.218-.983,2.434-1.708,3.516-.73,1.09-1.4,2.269-2.325,3.194s-2.217,1.425-3.307,2.155c-1.082.724-2.24,1.237-3.458,1.742-1.197.496-2.314,1.272-3.614,1.529-1.262.25-2.59.161-3.925.161s-2.629-.083-3.892-.332c-1.301-.257-2.663-.352-3.86-.848-1.218-.505-2.246-1.406-3.328-2.131-1.09-.73-2.361-1.292-3.286-2.216s-1.866-1.941-2.596-3.032c-.724-1.082-1.031-2.454-1.536-3.671-.496-1.197-1.02-2.427-1.277-3.728-.25-1.262.137-2.598.137-3.934s.07-2.581.32-3.844c.257-1.301.362-2.607.858-3.803.505-1.218.976-2.47,1.7-3.552.73-1.09,1.826-1.886,2.751-2.811.925-.925,1.901-1.75,2.992-2.48,1.082-.724,2.131-1.52,3.348-2.025,1.197-.496,2.394-1.209,3.694-1.466,1.262-.25,2.639.218,3.974.218s2.629-.046,3.891.204c1.301.257,2.538.652,3.735,1.149,1.218.505,2.436,1.008,3.518,1.732,1.09.73,1.996,1.689,2.92,2.614.925.925,1.518,2.075,2.248,3.166.724,1.082,1.321,2.168,1.826,3.385.496,1.197,1.13,2.328,1.387,3.628.25,1.262.313,2.549.313,3.884Z"/>
          <path class="cls-1" d="m53.091,238.046c1.051-.056,1.978.123,2.783.536.805.413,1.435,1.005,1.89,1.775.455.77.683,1.673.683,2.709,0,.882-.238,1.687-.714,2.415-.477.728-1.113,1.309-1.911,1.743s-1.688.651-2.667.651c-1.876,0-3.314-.616-4.315-1.848s-1.502-3.003-1.502-5.313c0-2.771.532-4.928,1.597-6.468,1.063-1.54,2.568-2.31,4.515-2.31.91,0,1.684.151,2.32.452s1.12.679,1.449,1.134c.329.455.493.907.493,1.354,0,.435-.137.791-.409,1.071-.273.28-.599.42-.977.42s-.683-.137-.913-.41c-.231-.273-.347-.57-.347-.892,0-.224.056-.434.168-.63.069-.112.062-.203-.021-.273-.35-.294-.924-.441-1.722-.441-.756,0-1.467.224-2.132.672-.665.448-1.204,1.121-1.617,2.016-.413.896-.626,2.03-.64,3.402,0,.084.034.126.104.126s.161-.056.273-.168c.56-.602,1.172-1.036,1.837-1.302.665-.266,1.257-.405,1.774-.42Zm.063,8.064c.756,0,1.393-.15,1.911-.452.518-.301.906-.686,1.165-1.155.259-.469.389-.948.389-1.438,0-.91-.175-1.607-.525-2.09-.35-.483-.78-.815-1.291-.998-.512-.182-1.012-.273-1.502-.273-.686,0-1.319.172-1.9.515s-1.047.795-1.396,1.354c-.35.56-.524,1.169-.524,1.827,0,.126.014.217.042.272.279.826.71,1.438,1.291,1.838.581.399,1.361.599,2.342.599Z"/>
        </g>
      </g>
    </g>
  </g>
</svg>