<?xml version="1.0" encoding="UTF-8"?>
<svg id="_レイヤー_2" data-name="レイヤー 2" xmlns="http://www.w3.org/2000/svg" xmlns:xlink="http://www.w3.org/1999/xlink" viewBox="0 0 374 280">
  <defs>
    <style>
      .cls-1 {
        stroke-width: .5px;
      }

      .cls-1, .cls-2 {
        fill: #231815;
      }

      .cls-1, .cls-3, .cls-4 {
        stroke: #231815;
        stroke-linecap: round;
        stroke-linejoin: round;
      }

      .cls-2, .cls-5, .cls-6, .cls-7, .cls-8, .cls-9, .cls-10, .cls-11 {
        stroke-width: 0px;
      }

      .cls-3 {
        stroke-width: 2px;
      }

      .cls-3, .cls-4, .cls-5 {
        fill: none;
      }

      .cls-4 {
        stroke-width: 1.626px;
      }

      .cls-6 {
        fill: #fffdee;
      }

      .cls-7 {
        fill: #fff8c4;
      }

      .cls-8, .cls-9 {
        fill: #fff;
      }

      .cls-12 {
        opacity: .3;
      }

      .cls-9, .cls-11 {
        fill-rule: evenodd;
      }

      .cls-13 {
        clip-path: url(#clippath);
      }

      .cls-10 {
        fill: #f2e9d3;
      }

      .cls-11 {
        fill: #ffef7f;
      }
    </style>
    <clipPath id="clippath">
      <rect class="cls-5" width="374" height="280"/>
    </clipPath>
  </defs>
  <g id="design">
    <g>
      <g class="cls-13">
        <rect class="cls-7" width="374" height="280"/>
        <g>
          <path class="cls-11" d="m382.875,289.876c-1.264,1.276-1.671.34-3.467.34s-1.796-.307-3.592-.307-1.796.183-3.593.183c-1.796,0-1.796.136-3.593.136s-1.797-.036-3.593-.036c-1.797,0-1.797-.283-3.594-.283-1.797,0-1.797-.286-3.595-.286-1.798,0-1.798.408-3.596.408-1.798,0-1.798-.301-3.597-.301-1.798,0-1.798-.114-3.596-.114-1.797,0-1.797.201-3.595.201s-1.797.21-3.594.21-1.797.13-3.594.13-1.797-.478-3.593-.478-1.797.081-3.593.081-1.797.524-3.593.524-1.797-.63-3.594-.63c-1.797,0-1.797.045-3.594.045-1.797,0-1.797.304-3.595.304s-1.798-.387-3.596-.387-1.798.327-3.597.327c-1.798,0-1.798-.032-3.596-.032s-1.797-.171-3.595-.171-1.797.304-3.594.304c-1.797,0-1.797.337-3.594.337-1.797,0-1.797-.342-3.594-.342-1.797,0-1.797-.066-3.594-.066s-1.797.348-3.594.348c-1.798,0-1.798-.055-3.595-.055-1.798,0-1.798-.299-3.596-.299s-1.798,0-3.597,0-1.798-.158-3.596-.158c-1.798,0-1.798.157-3.595.157s-1.797.215-3.595.215-1.797-.448-3.595-.448c-1.797,0-1.797.148-3.595.148s-1.798-.156-3.595-.156c-1.798,0-1.798.619-3.596.619s-1.798-.584-3.597-.584c-1.798,0-1.798.082-3.596.082s-1.798.243-3.596.243-1.798.159-3.595.159c-1.797,0-1.797-.458-3.595-.458s-1.798-.132-3.595-.132c-1.798,0-1.798-.015-3.596-.015s-1.799.263-3.597.263c-1.798,0-1.798.44-3.597.44-1.798,0-1.798-.188-3.596-.188s-1.798.177-3.595.177c-1.798,0-1.798-.382-3.595-.382-1.798,0-1.798.301-3.596.301s-1.799-.503-3.597-.503c-1.798,0-1.798.594-3.597.594s-1.798-.502-3.596-.502c-1.798,0-1.798.248-3.596.248-1.796,0-1.796.112-3.591.112-1.795,0-1.795-.544-3.591-.544s-1.795.055-3.591.055-1.796.365-3.592.365c-1.797,0-1.797.062-3.593.062-1.798,0-1.798-.2-3.595-.2s-1.799.393-3.598.393-1.798-.263-3.596-.263c-1.797,0-1.797-.216-3.594-.216-1.797,0-1.797.423-3.593.423-1.796,0-1.796-.401-3.593-.401s-1.797.411-3.593.411-1.797-.355-3.595-.355c-1.799,0-1.799.285-3.597.285s-1.799-.208-3.598-.208c-1.798,0-1.798.271-3.596.271-1.797,0-1.797-.2-3.594-.2s-1.797-.175-3.594-.175-1.798-.256-3.596-.256-1.799.604-3.598.604-1.799-.014-3.598-.014-1.798-.135-3.596-.135-1.798-.266-3.596-.266c-1.799,0-1.799.048-3.597.048s-1.8.3-3.6.3c-1.799,0-1.799-.42-3.597-.42s-1.798-.097-3.597-.097-1.799.676-3.598.676c-1.8,0-1.8-.636-3.599-.636-1.799,0-1.799.491-3.597.491s-1.799-.538-3.598-.538-1.8.262-3.6.262c-1.799,0-1.799.336-3.598.336s-1.8-.091-3.6-.091-1.799.182-3.599.182-1.8-.372-3.599-.372-1.8-.011-3.599-.011c-1.8,0-1.8.402-3.6.402s-1.798-.434-3.595-.434c-1.8,0-1.8-.104-3.6-.104s-1.798.355-3.596.355c-1.8,0-1.8-.096-3.6-.096s-1.799-.145-3.598-.145c-1.801,0-1.801-.272-3.601-.272-1.799,0-1.799.091-3.599.091-1.8,0-1.8-.013-3.601-.013s-1.801.262-3.602.262-1.801.312-3.602.312c-1.801,0-1.801-.406-3.602-.406s-1.801.073-3.601.073-1.801.139-3.602.139-1.801-.062-3.603-.062c-1.804,0-1.804-.249-3.609-.249-1.804,0-2.352,1.478-3.627.201s-.065-1.826-.065-3.634-.051-1.807-.051-3.614c0-1.807-.134-1.807-.134-3.613,0-1.807.227-1.807.227-3.615,0-1.809-.315-1.809-.315-3.618,0-1.807.084-1.807.084-3.615,0-1.807-.046-1.807-.046-3.614,0-1.808.155-1.808.155-3.616s.494-1.808.494-3.617c0-1.808-.206-1.808-.206-3.615s-.37-1.808-.37-3.616.253-1.809.253-3.617c0-1.808.276-1.808.276-3.616,0-1.809-.498-1.809-.498-3.618s.537-1.808.537-3.617c0-1.809-.183-1.809-.183-3.617,0-1.809.121-1.809.121-3.617s-.004-1.809-.004-3.618c0-1.809-.631-1.809-.631-3.617s.433-1.809.433-3.617c0-1.807-.153-1.807-.153-3.613s.14-1.809.14-3.617c0-1.808-.112-1.808-.112-3.615s.094-1.809.094-3.619c0-1.808.135-1.808.135-3.616s.174-1.809.174-3.618-.575-1.81-.575-3.62c0-1.81.618-1.81.618-3.62q0-1.81.003-3.62c0-1.809-.269-1.809-.269-3.619,0-1.81-.214-1.81-.214-3.619s.207-1.81.207-3.62c0-1.813.273-1.813.273-3.626,0-1.813-1.89-2.572-.614-3.86,1.264-1.276,2.032.578,3.828.578s1.796-.496,3.592-.496,1.796.222,3.593.222,1.796-.329,3.593-.329,1.797.472,3.593.472,1.797.045,3.594.045,1.797-.355,3.595-.355,1.798.465,3.596.465,1.798-.689,3.597-.689,1.798-.061,3.596-.061,1.797.559,3.595.559,1.797-.163,3.594-.163,1.797.318,3.594.318,1.797-.611,3.593-.611,1.797.417,3.593.417,1.797-.276,3.593-.276,1.797.016,3.594.016,1.797.503,3.594.503,1.797-.741,3.595-.741,1.798.07,3.596.07,1.798.59,3.597.59,1.798-.114,3.596-.114,1.797.136,3.595.136,1.797-.571,3.594-.571,1.797.556,3.594.556,1.797.031,3.594.031,1.797-.62,3.594-.62,1.797.48,3.594.48,1.798-.366,3.595-.366,1.798.356,3.596.356,1.798.115,3.597.115,1.798-.624,3.596-.624,1.798.263,3.595.263,1.797.174,3.595.174,1.797.138,3.595.138,1.797-.205,3.595-.205,1.798-.012,3.595-.012,1.798.333,3.596.333,1.798-.677,3.597-.677,1.798.045,3.596.045,1.798.292,3.596.292,1.798-.274,3.595-.274,1.797.395,3.595.395,1.798-.416,3.595-.416,1.798.215,3.596.215,1.799.079,3.597.079,1.798-.358,3.597-.358,1.798-.043,3.596-.043,1.798.352,3.595.352,1.798.318,3.595.318,1.798-.592,3.596-.592,1.799.252,3.597.252,1.798-.332,3.597-.332,1.798.199,3.596.199,1.798.535,3.596.535,1.796-.286,3.591-.286,1.795-.252,3.591-.252,1.795-.032,3.591-.032,1.796.317,3.592.317,1.797-.219,3.593-.219,1.798-.277,3.595-.277,1.799.091,3.598.091,1.798.384,3.596.384,1.797.143,3.594.143,1.797-.405,3.593-.405,1.796.34,3.593.34,1.797-.08,3.593-.08,1.797-.088,3.595-.088,1.799-.073,3.597-.073,1.799-.083,3.598-.083,1.798-.216,3.596-.216,1.797.058,3.594.058,1.797-.058,3.594-.058,1.798.288,3.596.288,1.799.002,3.598.002,1.799.182,3.598.182,1.798.014,3.596.014,1.798-.172,3.596-.172,1.799-.26,3.597-.26,1.8.677,3.6.677,1.799-.365,3.597-.365,1.798-.009,3.597-.009,1.799.243,3.598.243,1.8-.593,3.599-.593,1.799.751,3.597.751,1.799-.413,3.598-.413,1.8.264,3.6.264,1.799-.532,3.598-.532,1.8.497,3.6.497,1.799-.023,3.599-.023,1.8.142,3.599.142,1.8-.094,3.599-.094,1.8-.31,3.6-.31,1.798.149,3.595.149,1.8.136,3.6.136,1.798.053,3.596.053,1.8.136,3.6.136,1.799-.232,3.598-.232,1.801-.238,3.601-.238,1.799.358,3.599.358,1.8-.148,3.601-.148,1.801.145,3.602.145,1.801-.58,3.602-.58,1.801.56,3.602.56,1.801.041,3.601.041,1.801.047,3.602.047,1.801-.696,3.603-.696,1.804.034,3.609.034,2.572-1.193,3.847.084c1.277,1.279-.499,2.045-.499,3.853s-.011,1.807-.011,3.614c0,1.807.387,1.807.387,3.613s.039,1.807.039,3.615c0,1.809-.514,1.809-.514,3.618,0,1.807.149,1.807.149,3.615,0,1.807.51,1.807.51,3.614,0,1.808-.119,1.808-.119,3.616s.161,1.808.161,3.617c0,1.808-.312,1.808-.312,3.615,0,1.808-.365,1.808-.365,3.616s.269,1.809.269,3.617.296,1.808.296,3.616c0,1.809-.592,1.809-.592,3.618,0,1.808.694,1.808.694,3.617s-.445,1.809-.445,3.617c0,1.809.206,1.809.206,3.617,0,1.809.302,1.809.302,3.618,0,1.809-.02,1.809-.02,3.617,0,1.809-.7,1.809-.7,3.617,0,1.807.106,1.807.106,3.613s.436,1.809.436,3.617-.003,1.808-.003,3.615-.599,1.809-.599,3.619c0,1.808.674,1.808.674,3.616,0,1.809-.25,1.809-.25,3.618,0,1.81-.138,1.81-.138,3.62,0,1.81.276,1.81.276,3.62s.127,1.81.127,3.62c0,1.809-.282,1.809-.282,3.619s.007,1.81.007,3.619c0,1.81-.11,1.81-.11,3.62s-.097,1.814.254,3.593c.361,1.833.981,2.247-.295,3.535Z"/>
          <path class="cls-3" d="m382.875,289.876c-1.264,1.276-1.671.34-3.467.34s-1.796-.307-3.592-.307-1.796.183-3.593.183c-1.796,0-1.796.136-3.593.136s-1.797-.036-3.593-.036c-1.797,0-1.797-.283-3.594-.283-1.797,0-1.797-.286-3.595-.286-1.798,0-1.798.408-3.596.408-1.798,0-1.798-.301-3.597-.301-1.798,0-1.798-.114-3.596-.114-1.797,0-1.797.201-3.595.201s-1.797.21-3.594.21-1.797.13-3.594.13-1.797-.478-3.593-.478-1.797.081-3.593.081-1.797.524-3.593.524-1.797-.63-3.594-.63c-1.797,0-1.797.045-3.594.045-1.797,0-1.797.304-3.595.304s-1.798-.387-3.596-.387-1.798.327-3.597.327c-1.798,0-1.798-.032-3.596-.032s-1.797-.171-3.595-.171-1.797.304-3.594.304c-1.797,0-1.797.337-3.594.337-1.797,0-1.797-.342-3.594-.342-1.797,0-1.797-.066-3.594-.066s-1.797.348-3.594.348c-1.798,0-1.798-.055-3.595-.055-1.798,0-1.798-.299-3.596-.299s-1.798,0-3.597,0-1.798-.158-3.596-.158c-1.798,0-1.798.157-3.595.157s-1.797.215-3.595.215-1.797-.448-3.595-.448c-1.797,0-1.797.148-3.595.148s-1.798-.156-3.595-.156c-1.798,0-1.798.619-3.596.619s-1.798-.584-3.597-.584c-1.798,0-1.798.082-3.596.082s-1.798.243-3.596.243-1.798.159-3.595.159c-1.797,0-1.797-.458-3.595-.458s-1.798-.132-3.595-.132c-1.798,0-1.798-.015-3.596-.015s-1.799.263-3.597.263c-1.798,0-1.798.44-3.597.44-1.798,0-1.798-.188-3.596-.188s-1.798.177-3.595.177c-1.798,0-1.798-.382-3.595-.382-1.798,0-1.798.301-3.596.301s-1.799-.503-3.597-.503c-1.798,0-1.798.594-3.597.594s-1.798-.502-3.596-.502c-1.798,0-1.798.248-3.596.248-1.796,0-1.796.112-3.591.112-1.795,0-1.795-.544-3.591-.544s-1.795.055-3.591.055-1.796.365-3.592.365c-1.797,0-1.797.062-3.593.062-1.798,0-1.798-.2-3.595-.2s-1.799.393-3.598.393-1.798-.263-3.596-.263c-1.797,0-1.797-.216-3.594-.216-1.797,0-1.797.423-3.593.423-1.796,0-1.796-.401-3.593-.401s-1.797.411-3.593.411-1.797-.355-3.595-.355c-1.799,0-1.799.285-3.597.285s-1.799-.208-3.598-.208c-1.798,0-1.798.271-3.596.271-1.797,0-1.797-.2-3.594-.2s-1.797-.175-3.594-.175-1.798-.256-3.596-.256-1.799.604-3.598.604-1.799-.014-3.598-.014-1.798-.135-3.596-.135-1.798-.266-3.596-.266c-1.799,0-1.799.048-3.597.048s-1.8.3-3.6.3c-1.799,0-1.799-.42-3.597-.42s-1.798-.097-3.597-.097-1.799.676-3.598.676c-1.8,0-1.8-.636-3.599-.636-1.799,0-1.799.491-3.597.491s-1.799-.538-3.598-.538-1.8.262-3.6.262c-1.799,0-1.799.336-3.598.336s-1.8-.091-3.6-.091-1.799.182-3.599.182-1.8-.372-3.599-.372-1.8-.011-3.599-.011c-1.8,0-1.8.402-3.6.402s-1.798-.434-3.595-.434c-1.8,0-1.8-.104-3.6-.104s-1.798.355-3.596.355c-1.8,0-1.8-.096-3.6-.096s-1.799-.145-3.598-.145c-1.801,0-1.801-.272-3.601-.272-1.799,0-1.799.091-3.599.091-1.8,0-1.8-.013-3.601-.013s-1.801.262-3.602.262-1.801.312-3.602.312c-1.801,0-1.801-.406-3.602-.406s-1.801.073-3.601.073-1.801.139-3.602.139-1.801-.062-3.603-.062c-1.804,0-1.804-.249-3.609-.249-1.804,0-2.352,1.478-3.627.201s-.065-1.826-.065-3.634-.051-1.807-.051-3.614c0-1.807-.134-1.807-.134-3.613,0-1.807.227-1.807.227-3.615,0-1.809-.315-1.809-.315-3.618,0-1.807.084-1.807.084-3.615,0-1.807-.046-1.807-.046-3.614,0-1.808.155-1.808.155-3.616s.494-1.808.494-3.617c0-1.808-.206-1.808-.206-3.615s-.37-1.808-.37-3.616.253-1.809.253-3.617c0-1.808.276-1.808.276-3.616,0-1.809-.498-1.809-.498-3.618s.537-1.808.537-3.617c0-1.809-.183-1.809-.183-3.617,0-1.809.121-1.809.121-3.617s-.004-1.809-.004-3.618c0-1.809-.631-1.809-.631-3.617s.433-1.809.433-3.617c0-1.807-.153-1.807-.153-3.613s.14-1.809.14-3.617c0-1.808-.112-1.808-.112-3.615s.094-1.809.094-3.619c0-1.808.135-1.808.135-3.616s.174-1.809.174-3.618-.575-1.81-.575-3.62c0-1.81.618-1.81.618-3.62q0-1.81.003-3.62c0-1.809-.269-1.809-.269-3.619,0-1.81-.214-1.81-.214-3.619s.207-1.81.207-3.62c0-1.813.273-1.813.273-3.626,0-1.813-1.89-2.572-.614-3.86,1.264-1.276,2.032.578,3.828.578s1.796-.496,3.592-.496,1.796.222,3.593.222,1.796-.329,3.593-.329,1.797.472,3.593.472,1.797.045,3.594.045,1.797-.355,3.595-.355,1.798.465,3.596.465,1.798-.689,3.597-.689,1.798-.061,3.596-.061,1.797.559,3.595.559,1.797-.163,3.594-.163,1.797.318,3.594.318,1.797-.611,3.593-.611,1.797.417,3.593.417,1.797-.276,3.593-.276,1.797.016,3.594.016,1.797.503,3.594.503,1.797-.741,3.595-.741,1.798.07,3.596.07,1.798.59,3.597.59,1.798-.114,3.596-.114,1.797.136,3.595.136,1.797-.571,3.594-.571,1.797.556,3.594.556,1.797.031,3.594.031,1.797-.62,3.594-.62,1.797.48,3.594.48,1.798-.366,3.595-.366,1.798.356,3.596.356,1.798.115,3.597.115,1.798-.624,3.596-.624,1.798.263,3.595.263,1.797.174,3.595.174,1.797.138,3.595.138,1.797-.205,3.595-.205,1.798-.012,3.595-.012,1.798.333,3.596.333,1.798-.677,3.597-.677,1.798.045,3.596.045,1.798.292,3.596.292,1.798-.274,3.595-.274,1.797.395,3.595.395,1.798-.416,3.595-.416,1.798.215,3.596.215,1.799.079,3.597.079,1.798-.358,3.597-.358,1.798-.043,3.596-.043,1.798.352,3.595.352,1.798.318,3.595.318,1.798-.592,3.596-.592,1.799.252,3.597.252,1.798-.332,3.597-.332,1.798.199,3.596.199,1.798.535,3.596.535,1.796-.286,3.591-.286,1.795-.252,3.591-.252,1.795-.032,3.591-.032,1.796.317,3.592.317,1.797-.219,3.593-.219,1.798-.277,3.595-.277,1.799.091,3.598.091,1.798.384,3.596.384,1.797.143,3.594.143,1.797-.405,3.593-.405,1.796.34,3.593.34,1.797-.08,3.593-.08,1.797-.088,3.595-.088,1.799-.073,3.597-.073,1.799-.083,3.598-.083,1.798-.216,3.596-.216,1.797.058,3.594.058,1.797-.058,3.594-.058,1.798.288,3.596.288,1.799.002,3.598.002,1.799.182,3.598.182,1.798.014,3.596.014,1.798-.172,3.596-.172,1.799-.26,3.597-.26,1.8.677,3.6.677,1.799-.365,3.597-.365,1.798-.009,3.597-.009,1.799.243,3.598.243,1.8-.593,3.599-.593,1.799.751,3.597.751,1.799-.413,3.598-.413,1.8.264,3.6.264,1.799-.532,3.598-.532,1.8.497,3.6.497,1.799-.023,3.599-.023,1.8.142,3.599.142,1.8-.094,3.599-.094,1.8-.31,3.6-.31,1.798.149,3.595.149,1.8.136,3.6.136,1.798.053,3.596.053,1.8.136,3.6.136,1.799-.232,3.598-.232,1.801-.238,3.601-.238,1.799.358,3.599.358,1.8-.148,3.601-.148,1.801.145,3.602.145,1.801-.58,3.602-.58,1.801.56,3.602.56,1.801.041,3.601.041,1.801.047,3.602.047,1.801-.696,3.603-.696,1.804.034,3.609.034,2.572-1.193,3.847.084c1.277,1.279-.499,2.045-.499,3.853s-.011,1.807-.011,3.614c0,1.807.387,1.807.387,3.613s.039,1.807.039,3.615c0,1.809-.514,1.809-.514,3.618,0,1.807.149,1.807.149,3.615,0,1.807.51,1.807.51,3.614,0,1.808-.119,1.808-.119,3.616s.161,1.808.161,3.617c0,1.808-.312,1.808-.312,3.615,0,1.808-.365,1.808-.365,3.616s.269,1.809.269,3.617.296,1.808.296,3.616c0,1.809-.592,1.809-.592,3.618,0,1.808.694,1.808.694,3.617s-.445,1.809-.445,3.617c0,1.809.206,1.809.206,3.617,0,1.809.302,1.809.302,3.618,0,1.809-.02,1.809-.02,3.617,0,1.809-.7,1.809-.7,3.617,0,1.807.106,1.807.106,3.613s.436,1.809.436,3.617-.003,1.808-.003,3.615-.599,1.809-.599,3.619c0,1.808.674,1.808.674,3.616,0,1.809-.25,1.809-.25,3.618,0,1.81-.138,1.81-.138,3.62,0,1.81.276,1.81.276,3.62s.127,1.81.127,3.62c0,1.809-.282,1.809-.282,3.619s.007,1.81.007,3.619c0,1.81-.11,1.81-.11,3.62s-.097,1.814.254,3.593c.361,1.833.981,2.247-.295,3.535Z"/>
        </g>
        <g>
          <g>
            <polygon class="cls-10" points="344.112 149.422 343.387 149.5 342.66 149.45 341.929 149.551 341.197 149.457 340.467 149.461 339.738 149.434 339.007 149.452 338.274 149.51 337.542 149.482 336.81 149.457 336.075 149.446 335.342 149.421 334.609 149.465 333.878 149.51 333.142 149.442 332.406 149.47 331.667 149.443 330.929 149.552 330.269 149.342 329.679 149.033 329.216 148.557 328.789 148.008 328.686 147.312 328.684 146.587 328.797 145.862 328.799 145.137 328.726 144.412 328.718 143.685 328.816 142.958 328.788 142.232 328.691 141.506 328.714 140.779 328.683 140.058 328.742 139.337 328.811 138.613 328.76 137.887 328.704 137.158 328.816 136.432 328.685 135.707 328.769 134.98 328.73 134.251 328.673 133.523 328.677 132.794 328.809 132.064 328.789 131.335 328.707 130.606 328.707 129.878 328.821 129.147 328.693 128.414 328.741 127.68 328.767 126.945 328.822 126.261 329.118 125.629 329.645 125.177 330.253 124.865 330.929 124.779 331.655 124.731 332.382 124.777 333.112 124.792 333.845 124.793 334.575 124.763 335.304 124.752 336.034 124.79 336.768 124.796 337.5 124.741 338.232 124.704 338.966 124.753 339.7 124.82 340.432 124.759 341.164 124.754 341.899 124.691 342.635 124.738 343.374 124.731 344.112 124.71 344.788 124.867 345.418 125.149 345.925 125.629 346.153 126.282 346.227 126.945 346.307 127.671 346.347 128.395 346.332 129.12 346.364 129.846 346.33 130.572 346.34 131.3 346.354 132.026 346.312 132.752 346.298 133.478 346.259 134.199 346.271 134.921 346.271 135.644 346.329 136.371 346.338 137.099 346.268 137.826 346.311 138.551 346.293 139.277 346.367 140.007 346.23 140.735 346.336 141.463 346.283 142.194 346.333 142.923 346.292 143.652 346.36 144.379 346.319 145.111 346.299 145.843 346.362 146.578 346.296 147.312 346.119 147.965 345.843 148.57 345.422 149.116 344.807 149.45 344.112 149.422"/>
            <polygon class="cls-4" points="344.112 149.422 343.387 149.5 342.66 149.45 341.929 149.551 341.197 149.457 340.467 149.461 339.738 149.434 339.007 149.452 338.274 149.51 337.542 149.482 336.81 149.457 336.075 149.446 335.342 149.421 334.609 149.465 333.878 149.51 333.142 149.442 332.406 149.47 331.667 149.443 330.929 149.552 330.269 149.342 329.679 149.033 329.216 148.557 328.789 148.008 328.686 147.312 328.684 146.587 328.797 145.862 328.799 145.137 328.726 144.412 328.718 143.685 328.816 142.958 328.788 142.232 328.691 141.506 328.714 140.779 328.683 140.058 328.742 139.337 328.811 138.613 328.76 137.887 328.704 137.158 328.816 136.432 328.685 135.707 328.769 134.98 328.73 134.251 328.673 133.523 328.677 132.794 328.809 132.064 328.789 131.335 328.707 130.606 328.707 129.878 328.821 129.147 328.693 128.414 328.741 127.68 328.767 126.945 328.822 126.261 329.118 125.629 329.645 125.177 330.253 124.865 330.929 124.779 331.655 124.731 332.382 124.777 333.112 124.792 333.845 124.793 334.575 124.763 335.304 124.752 336.034 124.79 336.768 124.796 337.5 124.741 338.232 124.704 338.966 124.753 339.7 124.82 340.432 124.759 341.164 124.754 341.899 124.691 342.635 124.738 343.374 124.731 344.112 124.71 344.788 124.867 345.418 125.149 345.925 125.629 346.153 126.282 346.227 126.945 346.307 127.671 346.347 128.395 346.332 129.12 346.364 129.846 346.33 130.572 346.34 131.3 346.354 132.026 346.312 132.752 346.298 133.478 346.259 134.199 346.271 134.921 346.271 135.644 346.329 136.371 346.338 137.099 346.268 137.826 346.311 138.551 346.293 139.277 346.367 140.007 346.23 140.735 346.336 141.463 346.283 142.194 346.333 142.923 346.292 143.652 346.36 144.379 346.319 145.111 346.299 145.843 346.362 146.578 346.296 147.312 346.119 147.965 345.843 148.57 345.422 149.116 344.807 149.45 344.112 149.422"/>
          </g>
          <g>
            <polygon class="cls-6" points="341.945 134.687 341.211 134.71 340.474 134.678 339.739 134.712 339.004 134.694 338.266 134.688 337.529 134.717 336.793 134.72 336.059 134.692 335.32 134.665 334.58 134.714 333.838 134.693 333.096 134.721 332.432 134.429 332.201 133.765 332.178 133.063 332.157 132.362 332.154 131.657 332.18 130.952 332.162 130.244 332.14 129.536 332.425 128.865 333.096 128.619 333.83 128.63 334.567 128.597 335.302 128.625 336.038 128.619 336.776 128.611 337.512 128.605 338.248 128.599 338.983 128.581 339.722 128.586 340.461 128.581 341.203 128.604 341.945 128.605 342.593 128.888 342.861 129.536 342.875 130.239 342.896 130.94 342.841 131.644 342.871 132.35 342.871 133.057 342.851 133.765 342.62 134.44 341.945 134.687"/>
            <polygon class="cls-4" points="341.945 134.687 341.211 134.71 340.474 134.678 339.739 134.712 339.004 134.694 338.266 134.688 337.529 134.717 336.793 134.72 336.059 134.692 335.32 134.665 334.58 134.714 333.838 134.693 333.096 134.721 332.432 134.429 332.201 133.765 332.178 133.063 332.157 132.362 332.154 131.657 332.18 130.952 332.162 130.244 332.14 129.536 332.425 128.865 333.096 128.619 333.83 128.63 334.567 128.597 335.302 128.625 336.038 128.619 336.776 128.611 337.512 128.605 338.248 128.599 338.983 128.581 339.722 128.586 340.461 128.581 341.203 128.604 341.945 128.605 342.593 128.888 342.861 129.536 342.875 130.239 342.896 130.94 342.841 131.644 342.871 132.35 342.871 133.057 342.851 133.765 342.62 134.44 341.945 134.687"/>
          </g>
          <polygon class="cls-2" points="339.736 133.581 339.736 133.581 340.134 133.371 340.147 132.564 340.142 131.756 340.146 130.946 340.143 130.136 339.736 129.932 339.736 129.928 339.317 130.136 339.334 130.943 339.316 131.75 339.316 132.561 339.324 133.371 339.736 133.581"/>
          <polygon class="cls-2" points="335.306 133.578 335.306 133.576 334.902 133.371 334.896 132.564 334.894 131.756 334.893 130.946 334.889 130.136 335.306 129.932 335.306 129.923 335.722 130.136 335.723 130.943 335.719 131.75 335.705 132.561 335.711 133.371 335.306 133.578"/>
          <g>
            <polygon class="cls-6" points="341.945 144.96 341.211 144.943 340.474 144.921 339.739 144.979 339.004 144.924 338.266 144.964 337.529 144.946 336.793 144.973 336.059 144.934 335.32 144.931 334.58 144.96 333.838 144.922 333.096 144.978 332.42 144.703 332.186 144.027 332.173 143.325 332.199 142.624 332.149 141.919 332.183 141.214 332.16 140.506 332.162 139.798 332.465 139.166 333.096 138.844 333.83 138.85 334.567 138.898 335.302 138.889 336.038 138.9 336.776 138.853 337.512 138.899 338.248 138.901 338.983 138.85 339.722 138.89 340.461 138.86 341.203 138.889 341.945 138.898 342.618 139.126 342.875 139.798 342.86 140.5 342.849 141.201 342.866 141.906 342.867 142.612 342.839 143.319 342.895 144.027 342.614 144.696 341.945 144.96"/>
            <polygon class="cls-4" points="341.945 144.96 341.211 144.943 340.474 144.921 339.739 144.979 339.004 144.924 338.266 144.964 337.529 144.946 336.793 144.973 336.059 144.934 335.32 144.931 334.58 144.96 333.838 144.922 333.096 144.978 332.42 144.703 332.186 144.027 332.173 143.325 332.199 142.624 332.149 141.919 332.183 141.214 332.16 140.506 332.162 139.798 332.465 139.166 333.096 138.844 333.83 138.85 334.567 138.898 335.302 138.889 336.038 138.9 336.776 138.853 337.512 138.899 338.248 138.901 338.983 138.85 339.722 138.89 340.461 138.86 341.203 138.889 341.945 138.898 342.618 139.126 342.875 139.798 342.86 140.5 342.849 141.201 342.866 141.906 342.867 142.612 342.839 143.319 342.895 144.027 342.614 144.696 341.945 144.96"/>
          </g>
          <polygon class="cls-2" points="339.736 143.744 339.736 143.735 340.147 143.53 340.152 142.723 340.144 141.915 340.134 141.105 340.144 140.295 339.736 140.091 339.736 140.101 339.334 140.295 339.326 141.102 339.326 141.91 339.321 142.72 339.326 143.53 339.736 143.744"/>
          <polygon class="cls-2" points="335.306 143.728 335.306 143.739 334.899 143.53 334.894 142.723 334.89 141.915 334.891 141.105 334.899 140.295 335.306 140.102 335.306 140.091 335.707 140.295 335.704 141.102 335.709 141.91 335.715 142.72 335.719 143.53 335.306 143.728"/>
        </g>
        <g class="cls-12">
          <rect class="cls-8" width="374" height="280"/>
        </g>
        <image width="370" height="370" transform="translate(67.707 -9.824) scale(.659)" xlink:href="../Links/⑦.png"/>
      </g>
      <g>
        <path class="cls-2" d="m156.733,250.577c-.5,0-.896-.104-1.188-.312-.292-.208-.454-.562-.487-1.062-.034-.4.087-.733.362-1,.275-.266.646-.408,1.112-.425.934-.033,1.559-.233,1.875-.6.316-.366.476-1.025.476-1.975v-.288c0-.091-.009-.179-.025-.262-.816.534-1.771,1.083-2.862,1.65-1.092.567-2.226,1.092-3.4,1.575-1.175.483-2.296.866-3.362,1.15-.434.116-.816.108-1.15-.025-.333-.134-.566-.409-.699-.825-.117-.383-.088-.725.087-1.025.175-.3.454-.5.838-.6.783-.2,1.62-.466,2.513-.8.891-.333,1.795-.704,2.712-1.113.917-.408,1.796-.833,2.638-1.275.842-.441,1.596-.871,2.263-1.288-.067-.216-.142-.425-.226-.625-.083-.2-.175-.4-.274-.6-.733.517-1.579,1.021-2.538,1.513-.958.492-1.954.946-2.987,1.362-1.033.417-2.017.775-2.95,1.075-.467.15-.846.15-1.137,0-.292-.15-.505-.392-.638-.725-.117-.333-.101-.658.05-.975.15-.316.434-.533.85-.65.967-.25,1.95-.566,2.95-.95s1.954-.796,2.862-1.238c.908-.441,1.696-.871,2.363-1.288-.117-.133-.229-.271-.338-.412s-.229-.279-.362-.413c-1.017.534-2.084,1.025-3.2,1.475-1.117.45-2.275.842-3.475,1.175-.934.25-1.534.017-1.801-.7-.133-.35-.129-.683.013-1,.142-.316.429-.533.862-.65,1.167-.283,2.325-.646,3.476-1.087,1.149-.441,2.233-.921,3.25-1.438h-2.675c-.367,0-.659-.121-.875-.362-.217-.242-.325-.521-.325-.838,0-.333.108-.616.325-.85.216-.233.508-.35.875-.35h11.875c.383,0,.679.117.887.35.209.233.312.517.312.85,0,.317-.104.596-.312.838-.208.242-.504.362-.887.362h-4.775c-.467.367-.959.708-1.475,1.025,1.033.884,1.841,1.917,2.425,3.1.55-.333,1.129-.696,1.737-1.087s1.191-.779,1.75-1.163c.559-.383,1.013-.716,1.362-1,.366-.283.746-.404,1.138-.362s.679.196.862.462c.233.367.321.721.263,1.062-.059.342-.254.629-.588.862-.616.417-1.342.884-2.175,1.4-.833.517-1.658.992-2.475,1.425.666.583,1.399,1.146,2.2,1.688.8.542,1.607,1.034,2.425,1.475.816.441,1.575.812,2.274,1.112.384.167.65.434.801.8.149.367.133.717-.051,1.05-.233.466-.559.741-.975.825-.417.083-.825.025-1.225-.175-.634-.316-1.321-.7-2.062-1.15-.742-.45-1.476-.95-2.2-1.5-.726-.55-1.388-1.125-1.987-1.725.033.167.05.337.05.513v.537c0,1.884-.409,3.267-1.226,4.15-.816.883-2.059,1.325-3.725,1.325Zm-7.725-15.025c-.4,0-.738-.125-1.013-.375-.275-.25-.413-.591-.413-1.025v-.95c0-1.316.312-2.25.938-2.8.625-.55,1.696-.825,3.213-.825h5.225v-1.275c0-.433.154-.796.463-1.087s.679-.438,1.112-.438.804.146,1.112.438.463.654.463,1.087v1.275h5.1c1.533,0,2.613.275,3.238.825.625.55.938,1.483.938,2.8v.95c0,.434-.143.775-.426,1.025s-.625.375-1.024.375-.742-.116-1.025-.35c-.283-.233-.425-.566-.425-1v-.825c0-.467-.117-.8-.35-1-.234-.2-.659-.3-1.275-.3h-12.775c-.616,0-1.041.1-1.274.3-.233.2-.351.533-.351,1v.825c0,.434-.142.767-.425,1-.283.234-.625.35-1.024.35Z"/>
        <path class="cls-2" d="m177.208,250.102c-.399.133-.783.125-1.149-.025-.367-.15-.617-.434-.75-.85-.117-.367-.108-.717.024-1.05.134-.333.408-.566.825-.7.866-.283,1.792-.654,2.775-1.112.983-.458,1.841-.921,2.575-1.388h-6.575c-.367,0-.663-.116-.888-.35s-.338-.517-.338-.85.113-.621.338-.863c.225-.241.521-.362.888-.362h20.6c.384,0,.679.121.888.362.208.242.312.529.312.863s-.104.617-.312.85c-.209.233-.504.35-.888.35h-6.5c.733.45,1.583.904,2.55,1.363s1.875.829,2.726,1.112c.416.134.7.367.85.7.15.333.158.683.025,1.05-.134.417-.388.7-.763.85s-.754.158-1.138.025c-.6-.2-1.254-.471-1.962-.812-.709-.342-1.4-.704-2.075-1.087s-1.279-.758-1.812-1.125c-.284-.2-.463-.462-.538-.788-.074-.325-.021-.637.163-.938.1-.15.2-.266.3-.35h-4.275c.101.084.209.209.325.375.184.3.241.613.175.938-.066.325-.241.588-.524.788-.534.367-1.142.746-1.825,1.138-.684.391-1.375.754-2.075,1.087-.7.333-1.35.6-1.95.8Zm6.426-8.55c-1.434,0-2.555-.146-3.363-.438-.809-.292-1.375-.804-1.699-1.538-.325-.733-.488-1.758-.488-3.075v-3.775c0-1.333.163-2.362.488-3.087.324-.725.891-1.233,1.699-1.525.809-.292,1.93-.438,3.363-.438h3.225c1.434,0,2.554.146,3.362.438.809.292,1.375.8,1.7,1.525s.487,1.754.487,3.087v3.775c0,1.316-.162,2.342-.487,3.075-.325.734-.892,1.246-1.7,1.538-.809.292-1.929.438-3.362.438h-3.225Zm-2.601-6.175h8.45v-1.575h-8.45v1.575Zm.025-3.675h8.375c-.067-.65-.284-1.075-.65-1.275s-1.042-.3-2.024-.3h-3c-.967,0-1.638.1-2.013.3s-.604.625-.688,1.275Zm2.7,7.375h3c.982,0,1.658-.1,2.024-.3.366-.2.583-.625.65-1.275h-8.375c.066.65.287,1.075.662,1.275.375.2,1.054.3,2.038.3Z"/>
        <path class="cls-2" d="m214.658,248.102c-.417.1-.809.042-1.175-.175-.367-.216-.6-.525-.7-.925-.1-.4-.042-.779.175-1.138s.525-.587.926-.688c1.85-.483,3.212-1.267,4.087-2.35.875-1.083,1.312-2.458,1.312-4.125,0-1.05-.233-1.991-.7-2.825s-1.129-1.508-1.987-2.025c-.858-.516-1.888-.833-3.087-.95-.301,2.8-.805,5.221-1.513,7.262-.709,2.042-1.542,3.617-2.5,4.725-.959,1.109-1.963,1.663-3.013,1.663-.884,0-1.691-.258-2.425-.775s-1.312-1.258-1.737-2.225c-.426-.966-.638-2.125-.638-3.475,0-1.383.263-2.679.787-3.887.525-1.208,1.271-2.271,2.237-3.188s2.104-1.633,3.413-2.15c1.308-.516,2.745-.775,4.312-.775,1.899,0,3.587.363,5.062,1.087,1.475.725,2.638,1.734,3.487,3.025s1.275,2.796,1.275,4.512c0,2.417-.646,4.429-1.938,6.038-1.292,1.608-3.18,2.729-5.663,3.362Zm-8.149-4.625c.3,0,.646-.254,1.037-.762s.787-1.229,1.188-2.163c.4-.933.767-2.038,1.1-3.312.334-1.275.584-2.688.75-4.237-1.3.25-2.392.729-3.274,1.438-.884.708-1.55,1.55-2,2.525s-.684,1.996-.7,3.062c0,1.133.179,1.992.537,2.575.358.584.812.875,1.363.875Z"/>
        <path class="cls-2" d="m231.708,250.252c-.35,0-.646-.113-.887-.338-.242-.225-.363-.521-.363-.887v-8.625c-.233.534-.467,1.038-.699,1.512-.234.475-.45.888-.65,1.238-.167.317-.421.521-.763.612-.342.092-.662.054-.962-.112-.301-.183-.492-.438-.575-.763-.084-.325-.034-.629.149-.913.301-.45.621-.996.963-1.637s.679-1.316,1.013-2.025c.333-.708.633-1.396.899-2.062s.476-1.242.625-1.725v-.05h-2.175c-.366,0-.658-.116-.875-.35s-.325-.508-.325-.825c0-.333.108-.616.325-.85.217-.233.509-.35.875-.35h2.175v-3.75c0-.383.121-.688.363-.912.241-.225.537-.338.887-.338.334,0,.621.113.863.338.241.225.362.529.362.912v3.75h1.6c.366,0,.658.117.875.35.217.234.325.517.325.85,0,.317-.108.592-.325.825s-.509.35-.875.35h-1.6v1.375c.216.35.5.775.85,1.275.351.5.7.979,1.05,1.438.351.458.634.821.851,1.087.033.017.066.059.1.125v-6.425c0-1.316.179-2.362.538-3.137.357-.775.971-1.333,1.837-1.675.866-.341,2.05-.512,3.55-.512h1.875c1.517,0,2.717.171,3.601.512.883.342,1.517.9,1.899,1.675.384.775.575,1.821.575,3.137v10.925c0,1.3-.191,2.342-.575,3.125-.383.783-1.017,1.346-1.899,1.688-.884.341-2.084.512-3.601.512h-1.875c-1.5,0-2.684-.171-3.55-.512-.866-.342-1.479-.904-1.837-1.688-.359-.783-.538-1.825-.538-3.125v-3.2c-.066.1-.134.184-.2.25-.233.217-.512.309-.837.275-.325-.033-.579-.183-.763-.45-.134-.183-.292-.413-.475-.688-.184-.275-.375-.562-.575-.863v9.425c0,.366-.121.663-.362.887-.242.225-.529.338-.863.338Zm6.625-8.6c.334-.483.68-1.025,1.038-1.625s.7-1.2,1.024-1.8c.325-.6.596-1.133.812-1.6h-1.675c-.35,0-.629-.117-.837-.35-.209-.233-.312-.508-.312-.825s.104-.587.312-.812c.208-.225.487-.337.837-.337h2.025v-1.95c0-.366.116-.654.35-.862.233-.208.509-.312.825-.312.333,0,.616.104.85.312.233.208.351.496.351.862v1.95h1.95c.366,0,.649.112.85.337s.3.496.3.812-.1.592-.3.825-.483.35-.85.35h-1.601c.217.483.483,1.017.8,1.6.316.584.654,1.159,1.013,1.725.358.567.704,1.083,1.038,1.55v-8.2c0-1.033-.226-1.758-.676-2.175-.449-.417-1.258-.625-2.425-.625h-2.6c-1.167,0-1.976.208-2.425.625-.45.417-.676,1.142-.676,2.175v8.35Zm3.101,5.475h2.6c1.134,0,1.934-.204,2.4-.613.466-.408.7-1.137.7-2.188v-1.05c-.018.017-.059.042-.125.075-.268.184-.555.246-.863.188-.309-.058-.554-.221-.737-.487-.233-.366-.479-.763-.737-1.188-.259-.425-.504-.862-.737-1.312v4.675c0,.367-.117.654-.351.863s-.517.312-.85.312c-.316,0-.592-.104-.825-.312s-.35-.496-.35-.863v-4.65c-.267.484-.534.958-.8,1.425-.268.467-.525.892-.775,1.275-.167.267-.412.434-.737.5-.325.067-.612,0-.862-.2l-.051-.05v.8c0,1.05.238,1.779.713,2.188.475.409,1.271.613,2.388.613Z"/>
        <path class="cls-2" d="m270.183,244.727c-.517.017-.938-.091-1.263-.325s-.504-.558-.537-.975c-.051-.433.05-.804.3-1.112s.575-.479.975-.513c.65-.066,1.088-.175,1.312-.325.226-.15.396-.475.513-.975.066-.333.125-.821.175-1.463.05-.641.092-1.316.125-2.025.033-.708.05-1.321.05-1.837.017-.833-.146-1.408-.487-1.725-.342-.316-.938-.475-1.787-.475h-10.226c-.449.8-.916,1.571-1.399,2.312-.483.742-.942,1.379-1.375,1.913-.267.317-.601.521-1,.613-.4.092-.784.004-1.15-.263-.316-.216-.504-.508-.562-.875-.059-.366.029-.691.263-.975.4-.5.82-1.079,1.263-1.737.441-.658.866-1.35,1.274-2.075s.779-1.441,1.113-2.15c.333-.708.591-1.362.774-1.962.134-.4.379-.688.737-.863.358-.175.738-.204,1.138-.087.4.117.684.354.851.712.166.359.183.729.05,1.113-.084.267-.188.55-.312.85-.125.3-.255.608-.388.925h9.375c3.166,0,4.741,1.45,4.725,4.35-.017,1.417-.07,2.692-.162,3.825-.092,1.134-.213,2.1-.362,2.9-.2,1.15-.63,1.967-1.288,2.45-.658.484-1.562.742-2.712.775Zm-6.726,5.1c-1.166,0-2.108-.108-2.824-.325-.717-.217-1.242-.6-1.575-1.15-.334-.55-.5-1.316-.5-2.3v-2.675c0-1.217.283-2.083.85-2.6s1.491-.775,2.775-.775h1.825c.482,0,.816-.083,1-.25.183-.167.274-.492.274-.975,0-.5-.092-.833-.274-1-.184-.167-.518-.25-1-.25h-4.301c-.383,0-.695-.121-.938-.363s-.362-.554-.362-.938c0-.4.121-.729.362-.987.242-.258.555-.388.938-.388h5.325c.8,0,1.438.109,1.913.325.475.217.816.608,1.024,1.175.208.567.312,1.375.312,2.425,0,1.034-.104,1.829-.312,2.387-.208.559-.55.942-1.024,1.15-.476.208-1.113.312-1.913.312h-2.225c-.5,0-.847.096-1.038.287-.191.192-.287.538-.287,1.038v1.525c0,.617.146,1.034.438,1.25.291.217.812.325,1.562.325h7.175c.7,0,1.25-.058,1.65-.175.399-.117.721-.321.962-.613.242-.292.454-.696.638-1.212.134-.333.379-.583.737-.75.358-.167.738-.183,1.138-.05.4.117.691.342.875.675.184.333.226.708.125,1.125-.233.95-.583,1.7-1.05,2.25s-1.075.941-1.825,1.175-1.684.35-2.8.35h-7.65Z"/>
      </g>
      <g>
        <path class="cls-9" d="m134.105,240c0,1.336-.263,2.583-.513,3.845-.257,1.301-.492,2.554-.988,3.751-.505,1.218-.983,2.434-1.708,3.516-.73,1.09-1.4,2.269-2.325,3.194s-2.217,1.425-3.307,2.155c-1.082.724-2.24,1.237-3.458,1.742-1.197.496-2.314,1.272-3.614,1.529-1.262.25-2.59.161-3.925.161s-2.629-.083-3.892-.332c-1.301-.257-2.663-.352-3.86-.848-1.218-.505-2.246-1.406-3.328-2.131-1.09-.73-2.361-1.292-3.286-2.216-.925-.925-1.866-1.941-2.596-3.032-.724-1.082-1.031-2.454-1.536-3.671-.496-1.197-1.02-2.427-1.277-3.728-.25-1.262.137-2.598.137-3.934s.07-2.581.32-3.844c.257-1.301.362-2.607.858-3.803.505-1.218.976-2.47,1.7-3.552.73-1.09,1.826-1.886,2.751-2.811s1.901-1.75,2.992-2.48c1.082-.724,2.131-1.52,3.348-2.025,1.197-.496,2.394-1.209,3.694-1.466,1.262-.25,2.639.218,3.974.218s2.629-.046,3.891.204c1.301.257,2.538.652,3.735,1.149,1.218.505,2.436,1.008,3.518,1.732,1.09.73,1.996,1.689,2.92,2.614.925.925,1.518,2.075,2.248,3.166.724,1.082,1.321,2.168,1.826,3.385.496,1.197,1.13,2.328,1.387,3.628.25,1.262.313,2.549.313,3.884Z"/>
        <path class="cls-1" d="m118.728,243.527c.294,0,.539.102.735.304.195.203.279.445.252.725l-.126,1.764c-.015.392-.161.721-.441.987s-.608.399-.986.399h-8.736c-.393,0-.722-.14-.987-.42-.266-.28-.385-.609-.356-.987.126-1.063.44-1.974.944-2.729s1.169-1.421,1.995-1.995,1.785-1.099,2.877-1.575c.854-.392,1.551-.742,2.09-1.05.539-.308.927-.672,1.165-1.092.238-.42.322-.973.252-1.659-.252-1.652-1.351-2.478-3.297-2.478-1.638,0-2.716.546-3.233,1.638-.015.028-.021.056-.021.084,0,.07.035.126.105.168.21.14.363.312.462.514.098.203.146.417.146.641,0,.35-.126.675-.378.977s-.602.452-1.05.452c-.476,0-.84-.168-1.092-.504-.252-.336-.378-.756-.378-1.26,0-.546.146-1.113.44-1.701.49-.91,1.187-1.592,2.09-2.047s1.845-.683,2.824-.683c.784,0,1.54.144,2.269.431.728.287,1.354.718,1.879,1.292.525.574.872,1.295,1.04,2.163.042.267.062.532.062.798,0,.728-.146,1.348-.44,1.858-.294.511-.69.959-1.187,1.344-.497.385-1.047.731-1.648,1.039-.603.309-1.219.609-1.849.903s-1.225.616-1.785.966c-.56.351-1.043.756-1.448,1.218-.406.462-.687,1.016-.84,1.659v.042c0,.112.056.168.168.168h7.392c.126,0,.189-.062.189-.188-.015-.21-.032-.417-.053-.62-.021-.202-.031-.402-.031-.598,0-.266.094-.49.283-.672.188-.182.423-.272.703-.272Z"/>
      </g>
    </g>
  </g>
</svg>