<?xml version="1.0" encoding="UTF-8"?>
<svg id="_レイヤー_2" data-name="レイヤー 2" xmlns="http://www.w3.org/2000/svg" xmlns:xlink="http://www.w3.org/1999/xlink" viewBox="0 0 374 280">
  <defs>
    <style>
      .cls-1 {
        stroke-width: .5px;
      }

      .cls-1, .cls-2, .cls-3 {
        fill: #231815;
      }

      .cls-1, .cls-4, .cls-5, .cls-6 {
        stroke: #231815;
      }

      .cls-1, .cls-4, .cls-5, .cls-6, .cls-7, .cls-8, .cls-9, .cls-10 {
        stroke-linecap: round;
        stroke-linejoin: round;
      }

      .cls-2, .cls-11, .cls-12, .cls-13, .cls-3, .cls-14, .cls-15, .cls-16, .cls-17 {
        stroke-width: 0px;
      }

      .cls-4 {
        stroke-width: 2px;
      }

      .cls-4, .cls-5, .cls-11, .cls-6, .cls-9 {
        fill: none;
      }

      .cls-5 {
        stroke-width: 1.626px;
      }

      .cls-18 {
        clip-path: url(#clippath-1);
      }

      .cls-7 {
        fill: #c69c6d;
        stroke: #c69c6d;
      }

      .cls-7, .cls-3, .cls-15, .cls-10, .cls-17 {
        fill-rule: evenodd;
      }

      .cls-7, .cls-8, .cls-10 {
        stroke-width: 1.544px;
      }

      .cls-12 {
        fill: #fffdee;
      }

      .cls-13 {
        fill: #fff8c4;
      }

      .cls-14, .cls-15, .cls-10 {
        fill: #fff;
      }

      .cls-19 {
        opacity: .3;
      }

      .cls-8 {
        fill: #64c882;
        stroke: #64c882;
      }

      .cls-20 {
        clip-path: url(#clippath);
      }

      .cls-9 {
        stroke-width: 9px;
      }

      .cls-9, .cls-10 {
        stroke: #fff;
      }

      .cls-16 {
        fill: #f2e9d3;
      }

      .cls-17 {
        fill: #ffef7f;
      }
    </style>
    <clipPath id="clippath">
      <rect class="cls-11" width="374" height="280"/>
    </clipPath>
    <clipPath id="clippath-1">
      <polygon class="cls-11" points="148.471 0 152.471 89 100.471 122 100.471 218.118 284.471 218.118 284.471 0 148.471 0"/>
    </clipPath>
  </defs>
  <g id="design">
    <g>
      <g>
        <g class="cls-20">
          <rect class="cls-13" width="374" height="280"/>
          <g>
            <path class="cls-17" d="m383.902,288.726c-1.28,1.273-1.766.071-3.571.071s-1.805.076-3.61.076-1.805-.027-3.61-.027-1.805.271-3.61.271-1.805-.709-3.611-.709-1.806.091-3.611.091-1.806.467-3.612.467-1.806-.371-3.613-.371-1.807-.144-3.614-.144-1.806.55-3.613.55-1.806.082-3.612.082-1.806-.701-3.611-.701-1.805.096-3.611.096-1.805.241-3.611.241-1.805.233-3.611.233-1.805-.348-3.611-.348-1.805-.229-3.611-.229-1.806.079-3.611.079-1.806.182-3.612.182-1.807.459-3.613.459-1.807-.308-3.614-.308-1.807-.28-3.613-.28-1.806.346-3.612.346-1.806.04-3.612.04-1.806-.154-3.611-.154-1.806.289-3.611.289-1.806-.461-3.611-.461-1.806.081-3.612.081-1.806-.129-3.612-.129-1.807.143-3.613.143-1.807.241-3.614.241-1.807-.105-3.613-.105-1.806.223-3.612.223-1.806-.288-3.612-.288-1.806-.277-3.612-.277-1.806.094-3.612.094-1.806-.015-3.612-.015-1.807-.047-3.613-.047-1.807.026-3.614.026-1.807.24-3.614.24-1.806-.117-3.613-.117-1.806.234-3.612.234-1.806-.328-3.612-.328-1.806.185-3.613.185-1.807.188-3.613.188-1.807-.12-3.614-.12-1.807.078-3.614.078-1.807-.074-3.613-.074-1.806-.319-3.613-.319-1.806.527-3.613.527-1.807-.183-3.613-.183-1.807-.195-3.614-.195-1.807.336-3.614.336-1.807.119-3.613.119-1.807-.55-3.613-.55-1.804.59-3.608.59-1.804-.519-3.608-.519-1.804.126-3.608.126-1.804.297-3.609.297-1.805-.22-3.61-.22-1.806.078-3.612.078-1.808.268-3.615.268-1.807-.589-3.613-.589-1.806.191-3.611.191-1.805-.377-3.61-.377-1.805.746-3.61.746-1.805-.435-3.611-.435-1.806.384-3.612.384-1.807-.669-3.615-.669-1.808.45-3.615.45-1.806.275-3.613.275-1.806-.45-3.612-.45-1.806.412-3.612.412-1.807-.673-3.613-.673-1.808.486-3.616.486-1.807-.207-3.615-.207-1.807-.055-3.613-.055-1.806.464-3.613.464-1.807-.573-3.614-.573-1.809.611-3.617.611-1.807-.349-3.614-.349-1.807-.406-3.614-.406-1.808.276-3.615.276-1.808.036-3.616.036-1.807-.119-3.615-.119-1.808.116-3.615.116-1.808-.031-3.617-.031-1.808.375-3.615.375-1.809.009-3.617.009-1.808-.416-3.616-.416-1.808-.252-3.617-.252-1.808.725-3.617.725-1.809-.403-3.618-.403-1.808-.056-3.617-.056-1.808.078-3.617.078-1.806.191-3.613.191-1.808-.54-3.617-.54-1.807.058-3.615.058-1.809.347-3.618.347-1.808.28-3.616.28-1.809-.622-3.618-.622-1.81-.023-3.619-.023-1.81.08-3.619.08-1.81.478-3.619.478-1.809-.559-3.618-.559-1.809.693-3.619.693-1.81,0-3.62,0-1.813-.103-3.626-.103-2.103.793-3.393-.481c-1.274-1.257-.364-1.554-.364-3.344s.316-1.789.316-3.577-.564-1.789-.564-3.577.769-1.789.769-3.579-.613-1.791-.613-3.581.4-1.789.4-3.579-.047-1.789-.047-3.578-.327-1.79-.327-3.58.169-1.79.169-3.581-.328-1.789-.328-3.579.294-1.79.294-3.58-.166-1.791-.166-3.581-.102-1.79-.102-3.579.347-1.791.347-3.581.281-1.79.281-3.58-.008-1.79-.008-3.581-.153-1.79-.153-3.581-.052-1.791-.052-3.582-.082-1.788-.082-3.577-.024-1.791-.024-3.581-.342-1.789-.342-3.577.331-1.791.331-3.581-.007-1.79-.007-3.579.287-1.791.287-3.583-.378-1.79-.378-3.58.214-1.791.214-3.582.061-1.792.061-3.584-.386-1.792-.386-3.584.387-1.792.387-3.584-.318-1.791-.318-3.583-.205-1.792-.205-3.583.633-1.792.633-3.584-.216-1.795-.216-3.59-1.135-2.144.138-3.41c1.28-1.273,1.626-.44,3.431-.44s1.805.553,3.61.553,1.805-.121,3.61-.121,1.805-.461,3.61-.461,1.805.184,3.611.184,1.806.365,3.611.365,1.806-.466,3.612-.466,1.806.362,3.613.362,1.807.024,3.614.024,1.806-.168,3.613-.168,1.806-.258,3.612-.258,1.806-.098,3.611-.098,1.805.628,3.611.628,1.805-.432,3.611-.432,1.805.194,3.611.194,1.805-.194,3.611-.194,1.805.441,3.611.441,1.806.072,3.611.072,1.806-.645,3.612-.645,1.807.242,3.613.242,1.807-.083,3.614-.083,1.807.176,3.613.176,1.806.15,3.612.15,1.806-.424,3.612-.424,1.806.135,3.611.135,1.806-.261,3.611-.261,1.806.458,3.611.458,1.806-.294,3.612-.294,1.806.069,3.612.069,1.807.368,3.613.368,1.807-.361,3.614-.361,1.807-.157,3.613-.157,1.806.09,3.612.09,1.806.347,3.612.347,1.806-.465,3.612-.465,1.806.085,3.612.085,1.806.384,3.612.384,1.807-.396,3.613-.396,1.807.419,3.614.419,1.807-.067,3.614-.067,1.806-.51,3.613-.51,1.806.658,3.612.658,1.806-.505,3.612-.505,1.806.508,3.613.508,1.807-.23,3.613-.23,1.807.112,3.614.112,1.807-.477,3.614-.477,1.807.31,3.613.31,1.806-.188,3.613-.188,1.806-.053,3.613-.053,1.807.476,3.613.476,1.807-.378,3.614-.378,1.807.251,3.614.251,1.807.111,3.613.111,1.807-.04,3.613-.04,1.804-.568,3.608-.568,1.804.663,3.608.663,1.804.079,3.608.079,1.804-.293,3.609-.293,1.805-.261,3.61-.261,1.806-.161,3.612-.161,1.808.022,3.615.022,1.807.535,3.613.535,1.806-.324,3.611-.324,1.805-.07,3.61-.07,1.805.108,3.61.108,1.805.439,3.611.439,1.806-.437,3.612-.437,1.807-.016,3.615-.016,1.808.412,3.615.412,1.806-.544,3.613-.544,1.806.259,3.612.259,1.806-.142,3.612-.142,1.807-.07,3.613-.07,1.808-.013,3.616-.013,1.807-.089,3.615-.089,1.807.02,3.613.02,1.806.338,3.613.338,1.807-.094,3.614-.094,1.809.008,3.617.008,1.807.111,3.614.111,1.807-.391,3.614-.391,1.808.231,3.615.231,1.808.378,3.616.378,1.807-.114,3.615-.114,1.808.013,3.615.013,1.808-.525,3.617-.525,1.808.523,3.615.523,1.809-.093,3.617-.093,1.808-.121,3.616-.121,1.808.392,3.617.392,1.808-.451,3.617-.451,1.809.088,3.618.088,1.808-.067,3.617-.067,1.808-.331,3.617-.331,1.806.28,3.613.28,1.808-.246,3.617-.246,1.807.682,3.615.682,1.809-.347,3.618-.347,1.808.326,3.616.326,1.809-.303,3.618-.303,1.81-.391,3.619-.391,1.81.071,3.619.071,1.81.158,3.619.158,1.809.424,3.618.424,1.809.093,3.619.093,1.81-.614,3.62-.614,1.813-.103,3.626-.103,2.408-1,3.698.273c1.274,1.257.184,1.863.184,3.653s.03,1.789.03,3.577.089,1.789.089,3.577-.755,1.789-.755,3.579.049,1.791.049,3.581.527,1.789.527,3.579-.579,1.789-.579,3.578.22,1.79.22,3.58.099,1.79.099,3.581.391,1.789.391,3.579-.535,1.79-.535,3.58.226,1.791.226,3.581-.056,1.79-.056,3.579.253,1.791.253,3.581-.577,1.79-.577,3.58.072,1.79.072,3.581.248,1.79.248,3.581-.245,1.791-.245,3.582.045,1.788.045,3.577-.015,1.791-.015,3.581.142,1.789.142,3.577-.245,1.791-.245,3.581.69,1.79.69,3.579.063,1.791.063,3.583-.414,1.79-.414,3.58.121,1.791.121,3.582-.124,1.792-.124,3.584-.191,1.792-.191,3.584.25,1.792.25,3.584-.294,1.791-.294,3.583.012,1.792.012,3.583.203,1.792.203,3.584-.283,1.825.086,3.581c.39,1.856,1.193,2.294-.08,3.56Z"/>
            <path class="cls-4" d="m383.902,288.726c-1.28,1.273-1.766.071-3.571.071s-1.805.076-3.61.076-1.805-.027-3.61-.027-1.805.271-3.61.271-1.805-.709-3.611-.709-1.806.091-3.611.091-1.806.467-3.612.467-1.806-.371-3.613-.371-1.807-.144-3.614-.144-1.806.55-3.613.55-1.806.082-3.612.082-1.806-.701-3.611-.701-1.805.096-3.611.096-1.805.241-3.611.241-1.805.233-3.611.233-1.805-.348-3.611-.348-1.805-.229-3.611-.229-1.806.079-3.611.079-1.806.182-3.612.182-1.807.459-3.613.459-1.807-.308-3.614-.308-1.807-.28-3.613-.28-1.806.346-3.612.346-1.806.04-3.612.04-1.806-.154-3.611-.154-1.806.289-3.611.289-1.806-.461-3.611-.461-1.806.081-3.612.081-1.806-.129-3.612-.129-1.807.143-3.613.143-1.807.241-3.614.241-1.807-.105-3.613-.105-1.806.223-3.612.223-1.806-.288-3.612-.288-1.806-.277-3.612-.277-1.806.094-3.612.094-1.806-.015-3.612-.015-1.807-.047-3.613-.047-1.807.026-3.614.026-1.807.24-3.614.24-1.806-.117-3.613-.117-1.806.234-3.612.234-1.806-.328-3.612-.328-1.806.185-3.613.185-1.807.188-3.613.188-1.807-.12-3.614-.12-1.807.078-3.614.078-1.807-.074-3.613-.074-1.806-.319-3.613-.319-1.806.527-3.613.527-1.807-.183-3.613-.183-1.807-.195-3.614-.195-1.807.336-3.614.336-1.807.119-3.613.119-1.807-.55-3.613-.55-1.804.59-3.608.59-1.804-.519-3.608-.519-1.804.126-3.608.126-1.804.297-3.609.297-1.805-.22-3.61-.22-1.806.078-3.612.078-1.808.268-3.615.268-1.807-.589-3.613-.589-1.806.191-3.611.191-1.805-.377-3.61-.377-1.805.746-3.61.746-1.805-.435-3.611-.435-1.806.384-3.612.384-1.807-.669-3.615-.669-1.808.45-3.615.45-1.806.275-3.613.275-1.806-.45-3.612-.45-1.806.412-3.612.412-1.807-.673-3.613-.673-1.808.486-3.616.486-1.807-.207-3.615-.207-1.807-.055-3.613-.055-1.806.464-3.613.464-1.807-.573-3.614-.573-1.809.611-3.617.611-1.807-.349-3.614-.349-1.807-.406-3.614-.406-1.808.276-3.615.276-1.808.036-3.616.036-1.807-.119-3.615-.119-1.808.116-3.615.116-1.808-.031-3.617-.031-1.808.375-3.615.375-1.809.009-3.617.009-1.808-.416-3.616-.416-1.808-.252-3.617-.252-1.808.725-3.617.725-1.809-.403-3.618-.403-1.808-.056-3.617-.056-1.808.078-3.617.078-1.806.191-3.613.191-1.808-.54-3.617-.54-1.807.058-3.615.058-1.809.347-3.618.347-1.808.28-3.616.28-1.809-.622-3.618-.622-1.81-.023-3.619-.023-1.81.08-3.619.08-1.81.478-3.619.478-1.809-.559-3.618-.559-1.809.693-3.619.693-1.81,0-3.62,0-1.813-.103-3.626-.103-2.103.793-3.393-.481c-1.274-1.257-.364-1.554-.364-3.344s.316-1.789.316-3.577-.564-1.789-.564-3.577.769-1.789.769-3.579-.613-1.791-.613-3.581.4-1.789.4-3.579-.047-1.789-.047-3.578-.327-1.79-.327-3.58.169-1.79.169-3.581-.328-1.789-.328-3.579.294-1.79.294-3.58-.166-1.791-.166-3.581-.102-1.79-.102-3.579.347-1.791.347-3.581.281-1.79.281-3.58-.008-1.79-.008-3.581-.153-1.79-.153-3.581-.052-1.791-.052-3.582-.082-1.788-.082-3.577-.024-1.791-.024-3.581-.342-1.789-.342-3.577.331-1.791.331-3.581-.007-1.79-.007-3.579.287-1.791.287-3.583-.378-1.79-.378-3.58.214-1.791.214-3.582.061-1.792.061-3.584-.386-1.792-.386-3.584.387-1.792.387-3.584-.318-1.791-.318-3.583-.205-1.792-.205-3.583.633-1.792.633-3.584-.216-1.795-.216-3.59-1.135-2.144.138-3.41c1.28-1.273,1.626-.44,3.431-.44s1.805.553,3.61.553,1.805-.121,3.61-.121,1.805-.461,3.61-.461,1.805.184,3.611.184,1.806.365,3.611.365,1.806-.466,3.612-.466,1.806.362,3.613.362,1.807.024,3.614.024,1.806-.168,3.613-.168,1.806-.258,3.612-.258,1.806-.098,3.611-.098,1.805.628,3.611.628,1.805-.432,3.611-.432,1.805.194,3.611.194,1.805-.194,3.611-.194,1.805.441,3.611.441,1.806.072,3.611.072,1.806-.645,3.612-.645,1.807.242,3.613.242,1.807-.083,3.614-.083,1.807.176,3.613.176,1.806.15,3.612.15,1.806-.424,3.612-.424,1.806.135,3.611.135,1.806-.261,3.611-.261,1.806.458,3.611.458,1.806-.294,3.612-.294,1.806.069,3.612.069,1.807.368,3.613.368,1.807-.361,3.614-.361,1.807-.157,3.613-.157,1.806.09,3.612.09,1.806.347,3.612.347,1.806-.465,3.612-.465,1.806.085,3.612.085,1.806.384,3.612.384,1.807-.396,3.613-.396,1.807.419,3.614.419,1.807-.067,3.614-.067,1.806-.51,3.613-.51,1.806.658,3.612.658,1.806-.505,3.612-.505,1.806.508,3.613.508,1.807-.23,3.613-.23,1.807.112,3.614.112,1.807-.477,3.614-.477,1.807.31,3.613.31,1.806-.188,3.613-.188,1.806-.053,3.613-.053,1.807.476,3.613.476,1.807-.378,3.614-.378,1.807.251,3.614.251,1.807.111,3.613.111,1.807-.04,3.613-.04,1.804-.568,3.608-.568,1.804.663,3.608.663,1.804.079,3.608.079,1.804-.293,3.609-.293,1.805-.261,3.61-.261,1.806-.161,3.612-.161,1.808.022,3.615.022,1.807.535,3.613.535,1.806-.324,3.611-.324,1.805-.07,3.61-.07,1.805.108,3.61.108,1.805.439,3.611.439,1.806-.437,3.612-.437,1.807-.016,3.615-.016,1.808.412,3.615.412,1.806-.544,3.613-.544,1.806.259,3.612.259,1.806-.142,3.612-.142,1.807-.07,3.613-.07,1.808-.013,3.616-.013,1.807-.089,3.615-.089,1.807.02,3.613.02,1.806.338,3.613.338,1.807-.094,3.614-.094,1.809.008,3.617.008,1.807.111,3.614.111,1.807-.391,3.614-.391,1.808.231,3.615.231,1.808.378,3.616.378,1.807-.114,3.615-.114,1.808.013,3.615.013,1.808-.525,3.617-.525,1.808.523,3.615.523,1.809-.093,3.617-.093,1.808-.121,3.616-.121,1.808.392,3.617.392,1.808-.451,3.617-.451,1.809.088,3.618.088,1.808-.067,3.617-.067,1.808-.331,3.617-.331,1.806.28,3.613.28,1.808-.246,3.617-.246,1.807.682,3.615.682,1.809-.347,3.618-.347,1.808.326,3.616.326,1.809-.303,3.618-.303,1.81-.391,3.619-.391,1.81.071,3.619.071,1.81.158,3.619.158,1.809.424,3.618.424,1.809.093,3.619.093,1.81-.614,3.62-.614,1.813-.103,3.626-.103,2.408-1,3.698.273c1.274,1.257.184,1.863.184,3.653s.03,1.789.03,3.577.089,1.789.089,3.577-.755,1.789-.755,3.579.049,1.791.049,3.581.527,1.789.527,3.579-.579,1.789-.579,3.578.22,1.79.22,3.58.099,1.79.099,3.581.391,1.789.391,3.579-.535,1.79-.535,3.58.226,1.791.226,3.581-.056,1.79-.056,3.579.253,1.791.253,3.581-.577,1.79-.577,3.58.072,1.79.072,3.581.248,1.79.248,3.581-.245,1.791-.245,3.582.045,1.788.045,3.577-.015,1.791-.015,3.581.142,1.789.142,3.577-.245,1.791-.245,3.581.69,1.79.69,3.579.063,1.791.063,3.583-.414,1.79-.414,3.58.121,1.791.121,3.582-.124,1.792-.124,3.584-.191,1.792-.191,3.584.25,1.792.25,3.584-.294,1.791-.294,3.583.012,1.792.012,3.583.203,1.792.203,3.584-.283,1.825.086,3.581c.39,1.856,1.193,2.294-.08,3.56Z"/>
          </g>
          <g>
            <g>
              <polygon class="cls-16" points="56.592 149.456 55.866 149.452 55.139 149.429 54.409 149.559 53.676 149.461 52.946 149.499 52.217 149.443 51.487 149.532 50.753 149.505 50.021 149.453 49.289 149.462 48.554 149.455 47.821 149.42 47.088 149.5 46.357 149.512 45.622 149.484 44.885 149.482 44.147 149.51 43.408 149.559 42.715 149.446 42.169 149.019 41.664 148.579 41.293 148 41.18 147.312 41.201 146.587 41.192 145.862 41.242 145.137 41.219 144.412 41.204 143.685 41.255 142.958 41.267 142.232 41.202 141.506 41.236 140.779 41.185 140.058 41.153 139.337 41.172 138.613 41.249 137.887 41.17 137.158 41.291 136.432 41.178 135.707 41.203 134.98 41.183 134.251 41.257 133.523 41.201 132.794 41.206 132.064 41.227 131.335 41.158 130.606 41.184 129.878 41.222 129.147 41.168 128.414 41.16 127.68 41.158 126.945 41.295 126.258 41.59 125.624 42.095 125.138 42.742 124.896 43.408 124.78 44.134 124.751 44.861 124.814 45.591 124.814 46.324 124.835 47.054 124.729 47.783 124.809 48.513 124.8 49.247 124.785 49.979 124.811 50.711 124.712 51.446 124.77 52.179 124.754 52.912 124.752 53.643 124.697 54.378 124.773 55.115 124.766 55.853 124.78 56.592 124.791 57.256 124.901 57.831 125.24 58.302 125.703 58.61 126.29 58.805 126.945 58.793 127.671 58.702 128.395 58.8 129.12 58.83 129.846 58.774 130.572 58.742 131.3 58.817 132.026 58.719 132.752 58.834 133.478 58.809 134.199 58.822 134.921 58.712 135.644 58.784 136.371 58.842 137.099 58.735 137.826 58.728 138.551 58.811 139.277 58.714 140.007 58.703 140.735 58.718 141.463 58.765 142.194 58.726 142.923 58.704 143.652 58.741 144.379 58.795 145.111 58.777 145.843 58.724 146.578 58.789 147.312 58.612 147.969 58.378 148.61 57.853 149.049 57.251 149.342 56.592 149.456"/>
              <polygon class="cls-5" points="56.592 149.456 55.866 149.452 55.139 149.429 54.409 149.559 53.676 149.461 52.946 149.499 52.217 149.443 51.487 149.532 50.753 149.505 50.021 149.453 49.289 149.462 48.554 149.455 47.821 149.42 47.088 149.5 46.357 149.512 45.622 149.484 44.885 149.482 44.147 149.51 43.408 149.559 42.715 149.446 42.169 149.019 41.664 148.579 41.293 148 41.18 147.312 41.201 146.587 41.192 145.862 41.242 145.137 41.219 144.412 41.204 143.685 41.255 142.958 41.267 142.232 41.202 141.506 41.236 140.779 41.185 140.058 41.153 139.337 41.172 138.613 41.249 137.887 41.17 137.158 41.291 136.432 41.178 135.707 41.203 134.98 41.183 134.251 41.257 133.523 41.201 132.794 41.206 132.064 41.227 131.335 41.158 130.606 41.184 129.878 41.222 129.147 41.168 128.414 41.16 127.68 41.158 126.945 41.295 126.258 41.59 125.624 42.095 125.138 42.742 124.896 43.408 124.78 44.134 124.751 44.861 124.814 45.591 124.814 46.324 124.835 47.054 124.729 47.783 124.809 48.513 124.8 49.247 124.785 49.979 124.811 50.711 124.712 51.446 124.77 52.179 124.754 52.912 124.752 53.643 124.697 54.378 124.773 55.115 124.766 55.853 124.78 56.592 124.791 57.256 124.901 57.831 125.24 58.302 125.703 58.61 126.29 58.805 126.945 58.793 127.671 58.702 128.395 58.8 129.12 58.83 129.846 58.774 130.572 58.742 131.3 58.817 132.026 58.719 132.752 58.834 133.478 58.809 134.199 58.822 134.921 58.712 135.644 58.784 136.371 58.842 137.099 58.735 137.826 58.728 138.551 58.811 139.277 58.714 140.007 58.703 140.735 58.718 141.463 58.765 142.194 58.726 142.923 58.704 143.652 58.741 144.379 58.795 145.111 58.777 145.843 58.724 146.578 58.789 147.312 58.612 147.969 58.378 148.61 57.853 149.049 57.251 149.342 56.592 149.456"/>
            </g>
            <g>
              <polygon class="cls-12" points="54.424 134.693 53.691 134.71 52.954 134.683 52.218 134.691 51.483 134.718 50.745 134.676 50.009 134.704 49.273 134.666 48.538 134.701 47.799 134.702 47.059 134.689 46.318 134.676 45.576 134.717 44.918 134.423 44.632 133.765 44.666 133.063 44.668 132.362 44.667 131.657 44.64 130.952 44.681 130.244 44.649 129.536 44.901 128.861 45.576 128.605 46.309 128.616 47.046 128.611 47.782 128.583 48.517 128.614 49.255 128.631 49.991 128.612 50.727 128.621 51.462 128.623 52.201 128.592 52.941 128.585 53.682 128.58 54.424 128.598 55.087 128.874 55.356 129.536 55.322 130.239 55.335 130.94 55.363 131.644 55.328 132.35 55.37 133.057 55.376 133.765 55.089 134.43 54.424 134.693"/>
              <polygon class="cls-5" points="54.424 134.693 53.691 134.71 52.954 134.683 52.218 134.691 51.483 134.718 50.745 134.676 50.009 134.704 49.273 134.666 48.538 134.701 47.799 134.702 47.059 134.689 46.318 134.676 45.576 134.717 44.918 134.423 44.632 133.765 44.666 133.063 44.668 132.362 44.667 131.657 44.64 130.952 44.681 130.244 44.649 129.536 44.901 128.861 45.576 128.605 46.309 128.616 47.046 128.611 47.782 128.583 48.517 128.614 49.255 128.631 49.991 128.612 50.727 128.621 51.462 128.623 52.201 128.592 52.941 128.585 53.682 128.58 54.424 128.598 55.087 128.874 55.356 129.536 55.322 130.239 55.335 130.94 55.363 131.644 55.328 132.35 55.37 133.057 55.376 133.765 55.089 134.43 54.424 134.693"/>
            </g>
            <polygon class="cls-2" points="52.215 133.569 52.215 133.585 52.62 133.371 52.634 132.564 52.619 131.756 52.618 130.946 52.614 130.136 52.215 129.938 52.215 129.934 51.799 130.136 51.814 130.943 51.798 131.75 51.816 132.561 51.812 133.371 52.215 133.569"/>
            <polygon class="cls-2" points="47.785 133.57 47.785 133.581 47.37 133.371 47.38 132.564 47.371 131.756 47.374 130.946 47.369 130.136 47.785 129.929 47.785 129.932 48.2 130.136 48.185 130.943 48.193 131.75 48.194 132.561 48.183 133.371 47.785 133.57"/>
            <g>
              <polygon class="cls-12" points="54.424 144.921 53.691 144.934 52.954 144.982 52.218 144.971 51.483 144.947 50.745 144.959 50.009 144.974 49.273 144.956 48.538 144.947 47.799 144.968 47.059 144.947 46.318 144.922 45.576 144.942 44.906 144.697 44.639 144.027 44.629 143.325 44.673 142.624 44.65 141.919 44.651 141.214 44.634 140.506 44.679 139.798 44.925 139.148 45.576 138.843 46.309 138.889 47.046 138.857 47.782 138.896 48.517 138.905 49.255 138.87 49.991 138.889 50.727 138.882 51.462 138.883 52.201 138.857 52.941 138.867 53.682 138.886 54.424 138.867 55.101 139.122 55.351 139.798 55.362 140.5 55.363 141.201 55.379 141.906 55.344 142.612 55.376 143.319 55.335 144.027 55.074 144.677 54.424 144.921"/>
              <polygon class="cls-5" points="54.424 144.921 53.691 144.934 52.954 144.982 52.218 144.971 51.483 144.947 50.745 144.959 50.009 144.974 49.273 144.956 48.538 144.947 47.799 144.968 47.059 144.947 46.318 144.922 45.576 144.942 44.906 144.697 44.639 144.027 44.629 143.325 44.673 142.624 44.65 141.919 44.651 141.214 44.634 140.506 44.679 139.798 44.925 139.148 45.576 138.843 46.309 138.889 47.046 138.857 47.782 138.896 48.517 138.905 49.255 138.87 49.991 138.889 50.727 138.882 51.462 138.883 52.201 138.857 52.941 138.867 53.682 138.886 54.424 138.867 55.101 139.122 55.351 139.798 55.362 140.5 55.363 141.201 55.379 141.906 55.344 142.612 55.376 143.319 55.335 144.027 55.074 144.677 54.424 144.921"/>
            </g>
            <polygon class="cls-2" points="52.215 143.729 52.215 143.744 52.628 143.53 52.613 142.723 52.62 141.915 52.629 141.105 52.632 140.295 52.215 140.085 52.215 140.081 51.797 140.295 51.799 141.102 51.806 141.91 51.8 142.72 51.817 143.53 52.215 143.729"/>
            <polygon class="cls-2" points="47.785 143.73 47.785 143.727 47.374 143.53 47.37 142.723 47.368 141.915 47.365 141.105 47.374 140.295 47.785 140.091 47.785 140.093 48.193 140.295 48.2 141.102 48.189 141.91 48.191 142.72 48.199 143.53 47.785 143.73"/>
          </g>
          <g>
            <g>
              <path class="cls-3" d="m326.293,67.886c-.278-.139-.552-.274-.828-.414v-1.244c-.689-.548-1.381-1.1-2.068-1.653-.139-.413-.278-.826-.416-1.244h-.828c-.274-.413-.552-.826-.826-1.24h-.828c-.966-1.105-1.931-2.209-2.898-3.31h-.828c-.139-.279-.273-.552-.413-.831h-.828v-.413h-.828v-.413h-2.897v-.414h-.827c.634-.628,4.927-1.436,6.622-.83v.417h.829v.413h2.068c.137.274.275.553.415.827h.827v.413c.413-.134.827-.274,1.241-.413.138-.552.276-1.105.416-1.657h.414c-.139-.687-.279-1.379-.414-2.066h-.416c-.316-1.127-.099-.943-1.241-1.244v-1.24c-1.024-.301-.67-.215-1.241-.83h-.416v-.827c-.274-.139-.551-.273-.827-.413v-.413c-1.888-1.325-5.603-2.389-8.69-2.484.116-1.667,1.082-1.864.826-3.31h-.413c-.116-.628.413-.817.413-.83v-.414h-.413v-2.483h-.413v-1.657h-.416c-.137-.548-.276-1.101-.416-1.653h-.413v-1.657h-.414c-.139-.552-.276-1.105-.413-1.653-.276-.139-.552-.279-.828-.418-.137-.552-.276-1.1-.413-1.653-.276-.139-.552-.278-.828-.413v-.831c-.552-.413-1.105-.826-1.655-1.239-.416-.552-.828-1.105-1.242-1.657h-.826v-.413h-.831v-.413h-1.24c-1.224-.463-3.737-1.294-5.796-.831v.417c-.413-.139-.828-.278-1.241-.417-.137.278-.273.552-.413.831h-1.657v.413c-1.572.732-2.758,1.185-4.965,1.24.275-2.524,1.439-4.262,1.654-6.62h2.484v.413h.827v.413c3.311.139,6.624.278,9.934.413v.417h1.657c.138.274.274.548.413.827,1.518.274,3.036.552,4.554.826.355-.418.709-.584,1.24-.826-.036-2.322-.472-2.376-1.24-3.728v-.826c-.416-.274-.828-.553-1.244-.826-1.347-2.039-1.316-3.957-4.136-4.554v-.826c-1.42-.387-1.067-.885-2.484-1.244-.139-.413-.278-.827-.416-1.24-1.796-.422-4.92-2.744-7.864-1.657v.413h-.828c-.148.09-.408.593-.826.831v-.831c1.195-.301,1.372-.445,1.654-1.653,1.206-.207,2.116-.679,3.312,0,.138.274.274.548.414.826h1.241v.413c.551-.139,1.103-.274,1.655-.413v.413h5.38v.413h2.484v.413c3.103.889,7.433-1.083,9.105,1.244,1.817.063,2.51.243,2.899-1.244h.413c-.139-.413-.276-.827-.413-1.24h.413v-.826c-.828-.692-1.657-1.383-2.484-2.07v-.831c-.552-.413-1.105-.826-1.657-1.239v-.827h-.414c-.273-.413-.552-.831-.826-1.244-.552-.139-1.105-.274-1.657-.413-.274-.413-.552-.826-.827-1.24-.413-.139-.828-.278-1.244-.418-.135-.274-.274-.548-.413-.826h-1.24c-.279-.413-.552-.826-.828-1.24h-.828c-.274-.417-.552-.831-.827-1.244-6.966.041-10.806,1.761-14.901,4.554h-.827v.413c-.961.844-1.405,2.2-2.483,2.897v3.728c-1.069.274-1.19.422-1.658,1.239h-.413c.273.827.552,1.657.827,2.484-2.529-.597-1.465-1.406-4.552-.826-.166-.93-.68-1.599-.416-2.897.02-.09.53-.148.416-.831h-.416V-.405h-.413c0-.575.669-.669.413-1.657h-.413v-2.07h-.414c-.114-.678.395-.736.414-.826.31-1.496-.238-2.695-.414-3.723.537-.341.494-.287.827-.831h.831c.134-.413.273-.826.413-1.24h.413v-.831h.414v-.826c.275-.139.552-.274.828-.413v-1.244h.413c1.053-3.161-1.186-5.771-1.655-7.446h-.826c-.416-.553-.831-1.105-1.244-1.657h-.827c-.139-.278-.276-.552-.413-.826h-.831c-.274-.418-.55-.831-.826-1.244h-.414v-.826c-.276-.139-.552-.278-.828-.413v-.418c-.752-.696-1.825-.858-2.484-1.653h-2.481c-.279.413-.552.826-.831,1.24-1.63,1.127-3.35,2.268-5.793,2.483-.256.934-.35,1.019-.827,1.657h-.415v.826h-.414v2.07c-.137.692-.276,1.379-.416,2.07.158.889,1.002,2.228,1.244,3.31,1.402.4,1.873,1.298,2.898,2.07v.413h1.239v.413c.553.139,1.106.278,1.658.413v.418h2.07v.413c.552.135,1.103.274,1.655.413v.413c.777.602,1.314.997,2.484,1.244.067,1.051.02,1.451.413,2.066h.416v.831h.413v2.066h.414c.116.642-.409.799-.414.831.137,1.24.274,2.484.414,3.723-.117.575-.494-.166-.414.413h.414v5.38c-.133.449-.641-.126-.414.418h.414v2.897h-.414v.413h-1.241c-.532-2.057-2.472-3.638-3.312-5.38-.611-1.271.267-1.487-.827-2.484-.366-1.365-1.487-1.833-2.897-2.07-.581-2.246-2.854-2.982-4.554-4.141-.139-.274-.276-.548-.414-.827h-.828c-.276-.413-.552-.826-.828-1.239h-.826c-.139-.278-.279-.553-.414-.831h-1.244v-.413c-1.378-.139-2.757-.274-4.138-.413v.413h-2.068v.413h-1.657v.413h-1.655c-.137.278-.276.552-.416.831-.826.274-1.653.553-2.484.826-.135.279-.274.553-.413.827h-.827v.417c-.552.413-1.105.827-1.657,1.24v.826c-.274.139-.552.278-.826.418V.008c-.414.274-.829.552-1.242.826v.831c-.276.135-.552.274-.828.413-.137.552-.274,1.1-.413,1.653-.276.139-.552.278-.827.413-.139.552-.279,1.105-.416,1.657-.276.139-.552.278-.828.413-.137.552-.273,1.105-.413,1.657-.276.139-.552.274-.827.413.137.827.274,1.657.414,2.484.826.139,1.654.274,2.483.413.138-.274.274-.552.414-.827h1.241c.137-.278.276-.552.413-.826h.829v-.417h1.654v-.413c.552-.135,1.103-.274,1.655-.413v-.413h.828v-.413h.828v-.413c.689.135,1.379.274,2.071.413v-.413h2.481v-.418h1.655v-.413h1.244v-.413h1.653v-.413c.968-.139,1.933-.274,2.898-.413v-.413h1.242v-.418c.413.139.826.278,1.241.418v-.418c.414-.135.828-.274,1.242-.413v.413c.791.135,2.07-.413,2.07-.413v.413h2.068c.488.274.164,1.15.416,1.657h.413v.826h.414v1.244c.276.139.552.274.826.413.588.723,1.061,1.841,1.244,2.897h-2.484c-.646.202-2.647,1.621-4.141.831-.273-.552-.552-1.105-.826-1.657h-2.071c-.137-.278-.273-.552-.413-.826h-1.242c-2.89-1.19-4.567-1.931-8.279-1.244v.827h-1.24v.831c-1.859.476-1.976,1.545-2.897,2.897-.279.139-.552.274-.831.413v.826c-.274.139-.55.278-.826.413v.831h-.414v1.24h-.413v1.657h-.416v2.897c-.406,1.384-1.443,4.828-.828,7.038h.416v2.483h.413c.137.687.276,1.379.416,2.071.025.045.629.467.827.826h3.725v-.413h.828c.137-.278.274-.552.413-.831h1.242v-.413h.828v-.413h1.24c.139-.274.278-.552.416-.827h1.241v-.413c1.253-.602,2.376-.813,4.138-.831.295-1.136.796-1.509,1.242-2.483.552-.135,1.105-.274,1.655-.413v-.413c1.547-.674,2.696-.472,3.725-1.657.869.719.698,1.307,2.07,1.657.382,1.634,1.271,1.805,1.655,3.31h.828c.427,2.16,2.686,3.53,4.967,3.728.22,1.038.876,2.807,0,3.723v2.484c-.416-.139-.828-.274-1.244-.414v-.413h-.827v-.413h-.828c-.137-.279-.276-.553-.413-.831h-2.068v-.413c-1.837-.535-4.302.499-5.383.826h-2.068v.418c-2.155.646-3.175.026-5.38,0-.251-.827.056-.359-.415-.831-.138-.413-.276-.826-.416-1.24h-1.653v.413h-.416c-.6-.036-2.742-1.401-4.139-.826-.139.274-.276.552-.413.826h-.828v.826c-1.593.422-1.26.925-2.068,2.071-.416.278-.831.552-1.244.826v1.244h-.413v.827h-.414v2.897h-.413c-.202.903.413,1.244.413,1.244v2.897h.414v2.897h.413v1.657h.413v1.24h.416v1.244c.276.135.552.274.828.413.137.414.274.827.414,1.24,2.831-.103,3.907-1.096,5.379-2.484.139-.273.276-.552.414-.826h.828c.276-.413.552-.827.828-1.24h1.655v-.417h1.241c.139-.274.276-.552.413-.827h2.071v-.413h2.07v-.414c1.721-.57,2.619-.031,3.723-1.243.692.138,1.381.278,2.071.413.233,1.72.862,1.446,1.241,2.901h.828c.544,2.304,2.358,3.539,2.897,5.793h2.071c-2.491,2.107-4.478-1.567-6.211-1.244v.414h-2.484c-.134.278-.273.552-.413.83h-1.24v.414h-.828v.413h-.828c-.139.278-.274.552-.413.826-.552.139-1.105.279-1.658.418-.274.413-.55.826-.826,1.24-.692.552-1.379,1.105-2.071,1.657v.827h-.413c-.139.691-.276,1.378-.413,2.07h-.414c-.139.827-.278,1.653-.415,2.484h-.828v1.653h-1.24c.137-.413.273-.826.413-1.24.274-.139.552-.278.827-.413v-.831h.413c.333-.943-.503-1.145-.413-1.653h.413v-3.728c-.497-.404-.934-1.068-1.24-1.653-.963-.391-2.47-1.307-4.141-.831-1.487.427-4.208,1.456-6.62.831v-.413h-.416v.413h-.413v-.413h-2.899v-.418h-.826c-.139-.273-.276-.548-.414-.826h-.828v-.413h-7.45v.413c-.276-.139-.55-.274-.828-.413-.138.273-.274.552-.414.826-.884.696-1.908,1.087-3.309,1.244v.827c-.276.139-.552.273-.828.413-.137.413-.276.831-.416,1.244h-.827v.413c-.413.274-.826.552-1.241.827v.826c-.276.139-.55.279-.828.418-.137.552-.274,1.1-.414,1.653h-.413c-.276.831-.552,1.657-.828,2.484h-.413c-.137,1.105-.276,2.209-.416,3.314h-.413v1.24h-.414c-.191,1.244.674.858.827,1.24v1.244c3.709-.058,6.061-.161,8.28-1.657.415-.552.828-1.1,1.241-1.653h2.071v-.414h.826c.139-.278.276-.552.413-.83.552-.139,1.106-.274,1.658-.414v-.413h1.654v-.413h1.242v-.413h1.241v-.418h1.242v-.413c.965-.135,1.93-.274,2.897-.413v-.414c2.074-.669,5.026.243,6.624.414.134.691.274,1.378.413,2.07h.413c.513.808,2.632,2.241,3.726,2.484.244.92.343,1.042.828,1.653h.413v.831c.274.139.552.274.827.413v.413c.278.139.552.279.828.414,1.3,1.85,1.731,4.212,3.725,5.38v1.243h-6.622v-.413c-.829-.139-1.655-.278-2.484-.413-.414-1.545-.863-1.123-1.655-2.071-2.937.243-5.459,1.258-6.624,3.31-1.554-.167-2.208-.791-3.31-1.24-.414.135-.827.273-1.242.413v-.413h-4.138c-2.344,1.1-4.693,2.205-7.038,3.31-.386,1.415-.88,1.065-1.239,2.484h-1.244c-.454.966-.975,1.747-1.655,2.484-.276.135-.55.274-.828.413-.478.696.002.943-.827,1.658.041,2.151.148,1.612.827,2.897,3.175.134,6.348.273,9.521.413v-.413h2.07v-.418h.827v-.413c1.81-.634,2.472.565,3.725-.827h3.726c.949.485.745,2.35,1.241,3.31h.413c.137.552.276,1.105.416,1.657h.413v1.24h.414v.831c.276.134.552.273.826.413v.827c.416.278.831.552,1.244.83v.827c.274.139.552.273.827.413v.827c.413.278.828.552,1.244.83v.827c.523.728,1.502,1.038,2.068,2.071,4.789-.297,7.444-4.716,10.761-6.624v-1.653c1.253-.336,1.426-.772,1.654-2.07,1.404-.319,1.902-.961,3.312-1.244.552,1.105,1.103,2.209,1.655,3.314.276.135.552.274.828.414v1.24c.276.139.551.278.828.413.137.692.274,1.383.414,2.07h.413v.827h.413v.831c.279.139.552.274.828.413v1.24c.276.139.552.278.828.417v1.24h.414c.139.827.276,1.657.413,2.484h.416v.827h.413v1.243h.416c.288.971-.449,1.1-.416,1.653h.416v11.178h.413v.413h-.413v.413h.413c.202.858-.413,1.244-.413,1.244v.414h.413v4.554h.414v3.31h.413v2.07h.413v.413c-.696,1.091.038,2.978-.413,4.554h-.413v5.793h-.414c-.087.31-.413,3.723-.413,3.723h.413v2.484h.414v2.483c.691.966,1.378,1.931,2.07,2.897,1.85.401,4.779,1.689,7.036.831v-.417h.828v-.414c.413-.134.827-.273,1.24-.413.314-1.226.673-1.019.83-2.484.851-1.311-1.324-1.136-.83-3.31h.416c.182-.853-.416-1.244-.416-1.244-.113-.858.416-.827.416-.827v-7.037h.415c.252-.974-.46-1.788-.415-2.065h.415c-.04-.589-.318.161-.415-.418.137-1.518.276-3.036.415-4.549h-.415c-.097-.458.415-.831.415-.831v-.413h-.415v-7.037c.154-.561.361.17.415-.413-.139-.552-.278-1.106-.415-1.653,0,0,.622-.426.415-1.244h-.415c-.416-2.757-.828-5.519-1.242-8.277h.414v-2.897c.278-.139.552-.278.828-.413v-.831h.415v-.826h.414v-1.657h.413v-2.898h.413v-1.653h.414v-1.657h.415v-.827h.416c.135-.552.274-1.105.413-1.657h.414c.139-1.105.276-2.209.413-3.309h.413v-1.244c.279-.135.553-.274.828-.414.138-.965.277-1.93.416-2.897h.827c.346-1.455,1.058-1.863,1.657-2.897v-.826c.274-.139.551-.279.827-.418v-.826c.276-.139.552-.274.826-.414.139-.552.279-1.105.416-1.657,1.242.139,2.484.279,3.725.413.277.418.553.831.827,1.244h.828v.414h1.242v.413h1.241v.413h1.241v.418h1.242v.413h1.241v.413h.827v.413c.692.139,1.381.274,2.07.414v.413c1.379.279,2.76.552,4.142.831v.413h.826v.413c1.242.139,2.484.274,3.725.414.928-.27,1.703-1.19,2.484-1.658-.308-1.077-.648-1.324-1.241-2.066h-.413c-.139-.552-.279-1.105-.414-1.657h-.416v-1.24h-.415v-1.244h-.414c-.137-.552-.274-1.105-.413-1.658h-.413v-.826c-.276-.139-.553-.274-.828-.413v-.827c-.277-.139-.551-.278-.829-.417v-.827h-.413c-.48-.611-.597-.728-.826-1.653h-.829v-.831c-1.358-.372-1.946-1.279-2.898-2.07v-.414h-.827c-.139-.273-.276-.552-.413-.826h-.828c-.137-.279-.276-.552-.416-.827h-.827v-.417h-1.657v-.413h-3.31v-.414c-1.655.139-3.31.279-4.967.414v.413h-.827v.417h-1.244v.414h-2.068v.413h-1.241v.413c-1.334.4-1.958-.566-2.897-.413v.413h-2.897c-.139.279-.276.552-.414.827h-.83v.417c-.413.135-.827.274-1.24.413-.362-.948-.44-1.832-.413-3.314,1.028-.292.664-.215,1.24-.827h.413v-.826c.416-.139.83-.279,1.244-.414.274-.417.552-.83.826-1.243h.828c.138-.274.276-.553.416-.827h.827v-.413h1.241c.138-.279.276-.553.413-.831h.829c.274-.413.552-.827.826-1.24h.828v-.413c.553-.413,1.103-.831,1.655-1.244v-1.24c2.484.135,4.967.274,7.451.413.108.023.134.53.828.414v-.414h1.654v-.413h1.658v.413h5.793v.414h1.241v.413h.829v.413c.826.139,1.653.279,2.483.418.274.413.551.826.827,1.239h1.241v.414h1.242c1.769.686.851.731,2.897.413.249-.827-.058-.355.413-.827-.011-2.285-.35-3.57-1.24-4.967Zm-53.807,16.971v-.413c-.552-.139-1.106-.279-1.658-.417v-.414c-1.309-.525-3.59.004-4.552-.826-.695-.472-.577-.251-.828-1.244h-.826c-.465-1.68-1.008-.898-1.242-2.897h-.828c-.343-1.303-.952-1.501-1.24-2.897,2.068.139,4.136.278,6.207.413v.413h4.967c1.444.436,2.596,1.168,4.554,1.244v10.761c-1.17-.31-1.19-.741-2.071-1.24v-.831c-1.23-.336-1.628-.965-2.483-1.653Zm4.138,21.108c-.469-.274-.532-1.549-.828-2.071-.66-1.163-1.527-1.446-1.655-3.31h-.828c-.137-.692-.273-1.379-.413-2.071,1.497-.341,2.075-1.086,3.312-1.657.618,1.644-.24,4.563.413,6.624h.416c.137.827.274,1.657.413,2.484h-.828Zm1.655-79.883v.413c-.696.494-1.177-.166-2.068.827h-1.655c-.139-.413-.279-.827-.416-1.24-.276-.139-.55-.274-.828-.413-.48-.517-.702-1.195-1.24-1.657v-.826c2.754-.184,4.024-1.437,6.62-1.657.042,1.424.283,3.799-.413,4.554Zm4.141-3.31c-.041-1.496-.324-4.168.413-4.967v-.413c.741.395.642.593,1.655.826-.052,3.112-1.013,4.482-1.241,7.037h-.414v-2.483h-.413Zm7.45,67.877v.414c.687-.139,1.379-.274,2.068-.414.993.212,1.741.782,3.312.827.138.413.274.831.414,1.244h-.829c-.319,1.513-.909,2.583-1.654,3.723-.276.139-.552.278-.827.413v1.244h-.416v.827h-.415c-.138.691-.274,1.378-.414,2.07h-.413v1.24c-.276.139-.552.279-.827.417v1.653h-.415c-.546,1.401-.214,1.971-1.242,2.897v.413h-.413v-.413h-.413c.779-1.77-.436-1.968,0-3.723,1.031-4.177-.049-9.014,0-13.657.826.273,1.653.548,2.483.826Zm-3.727-39.319v3.723c-.414.279-.827.552-1.24.827v1.244h-.416v.413h-.413c-.398-1.064-.07-2.133-.416-3.31-1.622-5.565-.305-10.447,0-16.141h.416v-.418h2.484c.137.278.275.552.413.831h1.241v.413c1.379.274,2.76.552,4.141.827v.413c.274-.135.55-.273.827-.413v.413h.826c.139.279.279.552.416.831h3.312v.413h1.24v.413h2.484v.414h1.244v.413c.826.279,1.653.552,2.481.831v.413h.828v.413c.414.274.827.552,1.242.827v.413h-.416v.418c-1.41-.521-2.363-.449-3.723,0h-1.657v.413c-.552.139-1.103.274-1.655.413-.137.274-.276.552-.416.827h-.826v.413h-2.071v.417h-.413v-.417c-.413-.135-.827-.273-1.242-.413v.413h-1.654v.417h-.827v.414c-1.105.134-2.209.273-3.314.413-1.226.521-1.248,1.657-2.897,2.07Zm23.178,5.794h-2.484c-.413.552-.827,1.105-1.24,1.657h-.828c-.416.548-.828,1.1-1.242,1.653h-.826c-.139.279-.279.552-.416.831h-.828c-1.024.529-2.575,1.814-4.552,1.24v-.414h-1.655c-.552-.691-1.105-1.378-1.657-2.07-1.379-.413-2.757-.827-4.138-1.24v-1.657c.707.265,1.098.161,2.068.413v.413c2.762-.413,5.519-.826,8.279-1.24v-.413c2.261-.673,7.763.099,9.519.413v.414Z"/>
              <path class="cls-8" d="m247.65-.405c-.57,2.219-3.071,3.768-3.722,6.207.689-.139,1.378-.274,2.07-.413v-.413h1.24c.139-.279.278-.553.413-.831,1.244-.135,2.484-.274,3.728-.413.584.036-.173.417.413.413v-.413h1.655v-.413h1.241v-.413h1.242v-.413h1.241v-.413h1.657v-.413h.827v-.418h2.071v-.413c.965-.139,1.93-.274,2.897-.413V.008c-.712-.467-.562-.26-.828-1.244-1.399-.287-1.594-.894-2.897-1.239v-.827c-1.556-.193-4.349-1.644-6.622-.831v.413h-.828v.417c-.689.135-1.379.274-2.068.413-.139.274-.279.552-.413.826h-1.244v.413c-.77.579-.971.934-2.071,1.244Z"/>
              <path class="cls-8" d="m294.422.834v.831h-1.241v.413c-.472.472-.167,0-.414.827,2.363.206,3.573,1.482,5.38,2.07h3.723v.413h5.796v.413h2.068v.413c.586.027-.161-.319.416-.413h2.068c-.359-1.419-.853-1.064-1.24-2.484-1.158-.247-1.725-.629-2.484-1.24v-.413h-.828c-.413-.552-.828-1.105-1.241-1.657h-1.242v-.413h-.828v-.413c-.573-.377-.723-.288-1.653-.418v.418h-2.899c-1.744.535-3.155,1.442-5.38,1.653Z"/>
              <path class="cls-8" d="m255.101,11.182c-.44.53-.728.431-1.24.831v.413h-.828c-.416.552-.828,1.1-1.242,1.653h-.413c-2.391,3.373-2.904,9.912-2.897,14.901.746.391.651.575,1.653.826v-.413h1.244c.137-.274.274-.552.413-.826h.827v-.413h1.244v-.413h1.24v-.417c.552-.135,1.105-.274,1.657-.413v-.413h1.24v-.413h.83c.414-.692.827-1.379,1.24-2.07,1.379-.413,2.762-.826,4.141-1.24v-.413h.827c.139-.278.276-.552.413-.831h.828v-.413c3.174-.826,6.348-1.657,9.519-2.483.139-.413.279-.826.416-1.24h.413c-.413-.831-.828-1.657-1.241-2.484h-2.071c-.826-.139-1.653-.278-2.484-.418-1.401.368-4.307,1.577-6.62.831v-.413h-1.244c-.137-.278-.274-.552-.413-.831h-.826c-.139-.274-.279-.552-.414-.826-1.558-1.019-3.907-1.878-6.211-2.07Z"/>
              <path class="cls-8" d="m303.115,19.045v-1.239c-1.163-.683-1.41-1.671-2.897-2.071v-.826c-1.884-.346-1.464-.885-2.484-1.657-.416-.139-.828-.274-1.244-.413v-.826h-2.897v-.418h-.413v.418h-1.242v.413c-.552.135-1.102.274-1.654.413v.413h-1.244c-.773.314-2.035.885-2.897,1.239.139.279.278.553.416.831,1.93.966,3.864,1.931,5.795,2.897h6.62c1.038.296,2.861.701,4.141.826Z"/>
              <path class="cls-8" d="m302.286,30.224h-.828v-.831c-1.383-.251-6.002-1.621-7.864-.826-.137.274-.273.553-.413.826h-1.242v.413h-.828v.418c-.826.135-1.654.274-2.483.413v.413c-2.944.93-6.886-1.172-9.519-1.244v.418c.99.66,1.076,1.823,2.068,2.484v.413h2.071v.413h.828v.413h1.241v.413h2.484c.137.278.274.552.413.826h1.242v.418h.828v.413h1.24v.413h2.07v.413h.828v.413c2.481.413,4.967.831,7.449,1.244v.413h1.244v.414c.827.278,1.655.552,2.484.826l.413-.413v.413c.735.319.341.552.827,0h.416v-.413c-1.076-.988-.274-1.105-.828-2.484h-.414v-.826h-.413v-1.244h-.416c-.137-.548-.276-1.1-.413-1.653-.276-.139-.552-.278-.828-.413v-.831h-.414c-.592-.727-.945-.993-1.241-2.066Z"/>
              <path class="cls-8" d="m251.791,40.985h-.826c-.261,1.141-.972,1.985-1.244,2.897v2.071h.413v2.483c.395,1.298.955,3.09,1.244,4.55h.827v-1.24c.74-.468,1.241-1.302,1.657-2.071.413.139.826.279,1.24.414.139-.274.278-.553.416-.827,1.93-.139,3.864-.279,5.795-.413v-.414h2.482v-.417h.828v-.413c.965-.135,1.931-.274,2.897-.414.276-.413.552-.826.826-1.239.959-.603,1.325.13,1.658,0v-.418h.826v-.413c1.381-.413,2.763-.827,4.141-1.24v-.827c-1.019-.597-1.154-1.302-2.483-1.657-.607-.602-4.168-1.397-5.794-.826v.413h-.828v.413h-3.312v.413c-1.518-.139-3.036-.273-4.554-.413v-.413h-.827v-.413h-.826v-.418h-.828c-.138-.273-.276-.548-.416-.826-1.085-.454-2.147.278-2.897.413-.138.413-.274.831-.414,1.244Z"/>
              <path class="cls-15" d="m274.969,51.745h.827c.139-1.518.279-3.036.416-4.554h-.416c-.615.616-2.052.903-2.897,1.244.653,1.195,1.689,1.891,2.07,3.31Z"/>
              <path class="cls-8" d="m317.186,52.571v-.826h-1.24v-.827c-.692-.139-1.381-.278-2.071-.417v-.413h-2.484v-.414h-5.38c-.49-.134-2.627-.903-3.725-.413-.137.273-.276.552-.416.827-.686.138-1.378.278-2.068.413v.417h-.828v.413h-1.655v.414h-.828v.413h-1.24v.413c-.797.167-1.589-.813-2.897-.413v.413c-.692.139-1.381.279-2.07.414v.417h.413c1.262,1.091,2.78-.247,4.554,0v.413h.414v-.413h2.897v-.417h2.07v-.414h5.794v.414c3.588-.135,7.177-.274,10.761-.414Z"/>
              <path class="cls-8" d="m305.183,62.919v.831c-1.102.413-2.208.826-3.312,1.24v.413h.416c2.032,1.945,6.73-.077,9.932.826v.418c1.931.134,3.864.273,5.796.413v.413h.828v.414c1.24.413,2.484.826,3.723,1.244v-.418c-.966-1.1-1.931-2.205-2.897-3.31h-.826v-.413c-.611-.485-.734-.584-1.657-.827v-.831h-.827v-.826h-.828v-.827c-1.154-.251-1.978-.952-2.897-1.244-1.655.139-3.312.279-4.967.413-.536.988-1.237,1.757-2.484,2.071Z"/>
              <path class="cls-8" d="m261.726,71.614c.689.134,1.378.274,2.068.413v.413h4.138v.413h2.484v.414h3.312v.413c.965.139,1.931.278,2.897.417v.414c1.381-.139,2.76-.279,4.139-.414v.414h1.244v.413h1.24v.413c1.378-.139,2.759-.273,4.141-.413,1.432-2.299,6.337-3.404,7.035-5.793h.413v-.418h-.413v-1.653c-.276-.139-.552-.279-.828-.413-.137-.418-.273-.831-.413-1.244h-.414c-.139-.413-.278-.827-.413-1.24-1.118-.314-1.269-.679-2.07-1.244v-.413h-2.071c-.139-.274-.276-.552-.413-.827h-1.241v-.413c-1.741-.575-3.283.507-4.139.826h-1.657c-.138.274-.274.552-.414.827-1.654.139-3.31.279-4.967.413,0,0,.045-.445-.827-.413v.413h-.416v-.413c-2.207-.139-4.414-.274-6.622-.413v.413c-1.962.499-3.135,2.605-4.139,4.141-.276.139-.552.274-.828.413-.273,1.379-.552,2.758-.826,4.142Z"/>
              <path class="cls-8" d="m227.787,67.472c-.198,1.586-2.883,5.057-2.071,5.794v.413h1.24v-.413h1.244v-.414c.561-.48.633-.754.826-1.657,1.128-.296,1.263-.683,2.071-1.24v-.413h4.139v-.413h1.241v-.418h2.071v-.413h1.239v-.413h.831v-.414h1.653v-.413h2.071v-.413c3.076-.894,6.379.772,9.105.826.573-1.082.734-.701.828-2.483h-.413v-.414c-3.056,1.15-10.191.395-12.831-.413h-2.07v-.413h-.827v-.418h-5.382c-.64,1.02-.472.256-1.242.831-.137.273-.273.552-.413.827-.827.691-1.657,1.378-2.484,2.07v.413h-.826Z"/>
              <path class="cls-10" d="m280.763,78.647c.139.691.276,1.378.413,2.07l-.413.413.413.414h-.413v5.38c.276.139.552.278.828.417v1.24h.416c.134.552.273,1.105.413,1.657.413.135.827.274,1.24.413v-4.966c.622-.737.08-3.925,0-5.793h-.413v.413c-.703-.081-.634-.741-.827-.827h-.828v-.83h-.828Z"/>
              <path class="cls-8" d="m290.697,87.341c4.138.274,8.277.552,12.418.827v.413h1.24v.413c.552.139,1.105.279,1.657.413v.418h1.242v.413h.828v.413h1.653v.414h.831v.413h1.653c2.192.881,3.997,2.286,7.037,2.484-.243-2.439-1.738-2.636-2.07-4.967h-.827v-.826c-1.276-.786-1.244-2.03-2.897-2.484v-.827h-.828v-.83c-.552-.135-1.103-.274-1.655-.414-.139-.274-.276-.552-.413-.826-.692-.139-1.381-.279-2.071-.414v-.413h-5.793v.413h-.416c-.225-.198.119-.66-.416-.413-.137.274-.274.548-.413.827h-1.24v.413h-2.071v.413h-.828v.414c-2.481.417-4.967.83-7.449,1.243.266,1.132.539.943.827,2.071Z"/>
              <path class="cls-8" d="m247.65,87.341c-.274,1.792-.55,3.584-.826,5.38h.413v.827h.413c.279,1.378.552,2.757.831,4.141h.413v.826h.414v1.24c.516,1.158,1.01,1.033,1.241,2.901h.828c.137.414.274.827.413,1.24.276.139.552.274.827.414v.83c.416.274.828.548,1.244.827v.413h1.655c.471-.471.002-.166.828-.413v-.827h1.24c.709-1.217,1.199-1.186,1.243-3.314h.827v-.827c.827-.278,1.657-.552,2.484-.826.516-1.68.211-.504,1.241-1.244.138-.274.276-.552.414-.827h.828c.139-.279.274-.552.413-.831h.828c.276-.413.55-.826.828-1.24.827-.139,1.653-.273,2.484-.413.137-.278.274-.552.413-.826h.827v-.418h.413v.418h.416v-.418c.416.139.828.279,1.242.418v-.418c.903-.768.866-1.985.826-3.723-1.24-1.105-2.484-2.209-3.723-3.31-1.794.135-3.587.274-5.38.413v.414h-.828v.413h-1.654v.413h-2.071v-.413c-.66-.135-.777.404-.827.413-.278-.134-.552-.273-.83-.413v.413c-2.066-.413-4.136-.826-6.207-1.24v-.413h-.826v-.417h-.831v-.414c-1.421-.408-1.24.638-1.653.831h-.831Z"/>
              <path class="cls-8" d="m232.337,89.825c-.595,2.205-1.879,1.747-3.312,2.897-.273.552-.552,1.1-.826,1.653h6.206c1.267-1.167,2.789-.202,4.554-.826v-.414h.826v-.413c1.244-.139,2.484-.279,3.728-.413v-2.484c-1.212-.283-1.356-.462-1.657-1.657-1.033-.086-1.177-.373-1.655-.414l-.415.414v-.414h-1.653v-.413h-.416v.413h-1.241v.414h-.827c-1.077.548-1.856,1.338-3.312,1.657Z"/>
              <path class="cls-10" d="m280.763,93.548c-.122,5.124-1.132,12.723,2.484,14.901v.413h.413v-2.071c.898-1.181.454-7.94.416-11.174-1.152-.467-2.116-.727-2.484-2.07h-.828Z"/>
              <path class="cls-10" d="m280.763,111.346c-.138,1.105-.274,2.205-.414,3.31.276.139.552.279.827.414v.83h.416c.33.956-.164,2.026-.416,2.484h-.413v2.066c.691.553,1.378,1.106,2.07,1.658v.826h.414c.57.616.211.544,1.241.831v-.413h-.413v-5.385h-.416v-.414h.416c.292-1.625-.177-4.266-.828-4.966v-.414h-1.655c-.034-.018-.454-.633-.828-.826Z"/>
              <path class="cls-10" d="m282.833,136.594v.827h.827v.827c.692.413,1.381.83,2.07,1.244v-9.108h-.413c.139-.274.273-.552.413-.827h-.413c-1.109-1.23-2.362-.862-2.897-2.897-1.174-.292-1.195-.737-2.071-1.244v.831c.737.84.108,2.344.414,3.723h.413c.132.836-.413.827-.413.827-.409,1.85.188,4.087.413,5.385h.416v.413h1.241Z"/>
              <path class="cls-10" d="m283.66,148.182c1.136.269.943.544,2.07.827v-4.963h-1.241c-.137-.552-.276-1.105-.413-1.657-1.013-.238-.914-.436-1.655-.827v.827h-.413c-.507.875.144,3.292.413,3.722.413.279.827.552,1.24.831v1.24Z"/>
              <path class="cls-15" d="m281.592,151.078c-.276,1.657-.552,3.315-.828,4.967h.413v1.657h.416v.827h.416c.134.691.273,1.378.413,2.07h.413c.319.423.507.409.827.827.833-.238.359.049.828-.414,1.503-1.271.303-5.222,1.241-7.037h-.413c-.53-.669-1.503-1.406-2.484-1.653-.301-1.145-.116-.926-1.241-1.244Z"/>
            </g>
            <g>
              <path class="cls-3" d="m272.43,184.305v-.828c-2.052-.195-2.08-1.192-3.728-1.655-.137-.413-.274-.828-.413-1.241h-.413v-.827c-.276-.139-.553-.276-.827-.413-.416-1.244-.828-2.484-1.244-3.728v-6.619h-.413c-.193-.908.413-1.238.413-1.244v-4.967h.416v-1.655h.413c.276-2.207.552-4.414.828-6.622h.414c.718-1.99.911-3.975,1.657-5.793.701-.296,1.331-1.106,2.481-.829v.416c.416.137.828.274,1.241.414v-.414c.414-.139.829-.278,1.242-.416.676.349,2.847.757,4.138.416v-.416c.988-.249,1.083.416,1.658.416v-.416h2.484v-.415c2.757.139,5.517.278,8.277.415v.416c.826-.139,1.654-.278,2.484-.416v.416c.689-.139,1.378-.278,2.07-.416v-.415h2.484c1.805,1.975,2.551.163,2.484,4.554h.413v2.897h.413v1.657h.414v1.24h.413v1.658h.416v2.897h.413v2.897h.416v2.07h.413v4.967h.414v.413h-.414c-.139.966-.276,1.931-.413,2.897h-.416v.828h-.413v1.655h-.416v.828h-.413v.828c-.414.274-.827.553-1.24.827.137.828.273,1.657.413,2.484h-.413v.828h-.416c-.137.276-.276.551-.416.828h-.826c-.277.413-.553.827-.827,1.24h-2.484c-1.253-1.113-5.425-.827-7.864-.827h-5.382s-.34.607-1.242.414c0,0-.108-.357-.826-.414h-5.796v-.413c-.689-.139-1.379-.278-2.068-.416Z"/>
              <path class="cls-7" d="m271.186,176.857c.153,1.599.64,1.713.828,3.31.936.252,1.02.352,1.655.826v.416h.828v.413h5.382v.416c.514.081.692-.651,1.653-.416v.416h4.967s.148-.5,1.244-.416v.416h.414v-.416h3.722v-.413c.828.137,1.658.276,2.484.413v-.413c.611-.319.696-.298,1.657-.416.258-.918.341-1.037.827-1.653h.416c1.102-2.07,2.207-4.141,3.312-6.211.462-1.473-.546-5.271-.831-6.207-.137-1.795-.274-3.588-.413-5.38h-.413v-2.484h-.414v-1.244h-.413v-1.653c-.416-1.381-.828-2.762-1.244-4.141-1.068-.065-1.429-.058-2.068-.413v-.414h-7.036c-4.338-1.217-10.154.005-14.901,0-.462.876-1.307,1.914-1.657,2.897v2.07h-.413c-.138,1.653-.274,3.31-.414,4.965-.276.137-.552.276-.826.416.137.273.273.552.413.827h-.413v.828h-.416c-.11.574.364-.169.416.413.071.856-.416.828-.416.828-.195.862.416,1.242.416,1.242.13.622-.416.828-.416.828.137.274.276.55.416.826h-.416v.414h.416v6.209c-.126.573-.539-.157-.416.415h.416v.827h.413v1.241h.413c.472.472,0,.164.827.416Z"/>
            </g>
          </g>
        </g>
        <g class="cls-19">
          <rect class="cls-14" width="374" height="280"/>
        </g>
      </g>
      <g>
        <g>
          <path class="cls-9" d="m90.615,80.424c-.494-.884-2.862-5.307-3.461-6.294l4.321-1.957c.122.35.041.905-.637,1.399.246.494.494.987,2.738,5.266,4.977-2.697,10.223-5.478,13.287-7.063l1.421,2.839c-3.538,1.668-8.475,4.243-13.288,6.858,1.689,3.167,3.255,6.088,4.511,8.289,1.091,1.152,1.79,2.345,2.655,4.073.659,1.316,1.298,2.9,1.586,4.196,1.341,5.349-.076,11.357-5.875,17.861-.885-.431-2.304-1.007-3.272-1.294,5.162-5.414,6.826-10.517,5.899-14.94l-.043.021c-.246,1.667-1.294,3.375-3.146,4.302-3.661,1.833-8.414.456-10.515-3.74-2.225-4.341-.354-9.443,3.553-11.399,1.481-.742,3.271-.969,4.466-.641-.351-.699-1.813-3.414-2.78-5.142-4.237,2.224-17.011,9.184-18.656,10.11l-1.441-2.674,9.256-4.942,9.421-5.128Zm8.01,14.048c-.803-1.604-2.677-5.348-6.873-3.247-2.818,1.462-3.743,4.651-2.28,7.675,1.441,2.879,4.569,3.68,6.955,2.486,2.921-1.462,3.393-4.528,2.198-6.914Z"/>
          <path class="cls-9" d="m105.675,84.718c.657-.536,1.974-1.708,3.166-2.82,4.34-4.077,9.605-8.461,13.431-10.376,5.554-2.78,12.015-2.31,15.371,4.396,4.53,9.051-2.77,16.872-13.32,23.235-.474-.534-1.586-1.727-2.079-2.098,9.316-5.539,16.104-12.435,12.561-19.51-2.574-5.142-7.348-5.531-11.688-3.307-3.27,1.689-7.979,5.539-12.277,9.902-.781.803-1.625,1.688-2.18,2.224.082.37-.062.802-.31,1.029l-2.675-2.673Z"/>
        </g>
        <g>
          <path class="cls-6" d="m90.615,80.424c-.494-.884-2.862-5.307-3.461-6.294l4.321-1.957c.122.35.041.905-.637,1.399.246.494.494.987,2.738,5.266,4.977-2.697,10.223-5.478,13.287-7.063l1.421,2.839c-3.538,1.668-8.475,4.243-13.288,6.858,1.689,3.167,3.255,6.088,4.511,8.289,1.091,1.152,1.79,2.345,2.655,4.073.659,1.316,1.298,2.9,1.586,4.196,1.341,5.349-.076,11.357-5.875,17.861-.885-.431-2.304-1.007-3.272-1.294,5.162-5.414,6.826-10.517,5.899-14.94l-.043.021c-.246,1.667-1.294,3.375-3.146,4.302-3.661,1.833-8.414.456-10.515-3.74-2.225-4.341-.354-9.443,3.553-11.399,1.481-.742,3.271-.969,4.466-.641-.351-.699-1.813-3.414-2.78-5.142-4.237,2.224-17.011,9.184-18.656,10.11l-1.441-2.674,9.256-4.942,9.421-5.128Zm8.01,14.048c-.803-1.604-2.677-5.348-6.873-3.247-2.818,1.462-3.743,4.651-2.28,7.675,1.441,2.879,4.569,3.68,6.955,2.486,2.921-1.462,3.393-4.528,2.198-6.914Z"/>
          <path class="cls-6" d="m105.675,84.718c.657-.536,1.974-1.708,3.166-2.82,4.34-4.077,9.605-8.461,13.431-10.376,5.554-2.78,12.015-2.31,15.371,4.396,4.53,9.051-2.77,16.872-13.32,23.235-.474-.534-1.586-1.727-2.079-2.098,9.316-5.539,16.104-12.435,12.561-19.51-2.574-5.142-7.348-5.531-11.688-3.307-3.27,1.689-7.979,5.539-12.277,9.902-.781.803-1.625,1.688-2.18,2.224.082.37-.062.802-.31,1.029l-2.675-2.673Z"/>
        </g>
        <g>
          <path class="cls-2" d="m90.615,80.424c-.494-.884-2.862-5.307-3.461-6.294l4.321-1.957c.122.35.041.905-.637,1.399.246.494.494.987,2.738,5.266,4.977-2.697,10.223-5.478,13.287-7.063l1.421,2.839c-3.538,1.668-8.475,4.243-13.288,6.858,1.689,3.167,3.255,6.088,4.511,8.289,1.091,1.152,1.79,2.345,2.655,4.073.659,1.316,1.298,2.9,1.586,4.196,1.341,5.349-.076,11.357-5.875,17.861-.885-.431-2.304-1.007-3.272-1.294,5.162-5.414,6.826-10.517,5.899-14.94l-.043.021c-.246,1.667-1.294,3.375-3.146,4.302-3.661,1.833-8.414.456-10.515-3.74-2.225-4.341-.354-9.443,3.553-11.399,1.481-.742,3.271-.969,4.466-.641-.351-.699-1.813-3.414-2.78-5.142-4.237,2.224-17.011,9.184-18.656,10.11l-1.441-2.674,9.256-4.942,9.421-5.128Zm8.01,14.048c-.803-1.604-2.677-5.348-6.873-3.247-2.818,1.462-3.743,4.651-2.28,7.675,1.441,2.879,4.569,3.68,6.955,2.486,2.921-1.462,3.393-4.528,2.198-6.914Z"/>
          <path class="cls-2" d="m105.675,84.718c.657-.536,1.974-1.708,3.166-2.82,4.34-4.077,9.605-8.461,13.431-10.376,5.554-2.78,12.015-2.31,15.371,4.396,4.53,9.051-2.77,16.872-13.32,23.235-.474-.534-1.586-1.727-2.079-2.098,9.316-5.539,16.104-12.435,12.561-19.51-2.574-5.142-7.348-5.531-11.688-3.307-3.27,1.689-7.979,5.539-12.277,9.902-.781.803-1.625,1.688-2.18,2.224.082.37-.062.802-.31,1.029l-2.675-2.673Z"/>
        </g>
      </g>
      <g class="cls-18">
        <image width="370" height="320" transform="translate(10.471) scale(.692)" xlink:href="../Links/48.png"/>
      </g>
      <g>
        <path class="cls-2" d="m64.592,250.152c-.349-.134-.57-.379-.665-.738-.096-.358-.063-.704.095-1.037.649-1.517,1.124-3.2,1.425-5.05s.451-4.033.451-6.55v-1.775c0-1.283.158-2.304.476-3.062.316-.758.866-1.309,1.65-1.65.783-.341,1.888-.512,3.312-.512h2.731v-1.3c0-.45.15-.82.451-1.112.301-.292.657-.438,1.069-.438.428,0,.791.146,1.092.438.301.292.452.663.452,1.112v1.3h7.671c.38,0,.677.125.891.375s.32.55.32.9-.106.65-.32.9-.511.375-.891.375h-13.467c-.807,0-1.417.071-1.828.212-.412.142-.688.404-.831.788-.143.384-.214.942-.214,1.675v1.775c0,1.9-.063,3.587-.19,5.062s-.332,2.817-.617,4.025c-.285,1.208-.673,2.371-1.164,3.487-.174.4-.436.675-.783.825-.349.15-.721.142-1.116-.025Zm16.814-1.175c-.887-.833-1.698-1.95-2.435-3.35-.736-1.4-1.326-3.017-1.769-4.85h-4.086v2.75c.649-.117,1.259-.229,1.829-.337s1.006-.196,1.307-.263c.348-.066.641-.013.879.163.237.175.388.429.451.762.079.367.027.675-.154.925-.183.25-.456.417-.819.5-.302.067-.749.167-1.343.3-.594.134-1.23.267-1.911.4-.682.134-1.326.263-1.936.388-.61.125-1.089.229-1.438.312-.396.067-.729.009-.997-.175-.27-.184-.443-.458-.522-.825-.063-.35.004-.663.201-.938.198-.275.495-.446.891-.513l.998-.2v-5.725c0-.966.114-1.741.345-2.325.229-.583.633-1.033,1.211-1.35s1.39-.55,2.435-.7c1.171-.167,2.366-.366,3.586-.6,1.219-.233,2.431-.491,3.634-.775.364-.1.696-.091.997.025.301.117.499.342.594.675.127.417.127.771,0,1.062s-.372.479-.736.562c-.586.15-1.188.292-1.805.425-.617.134-1.227.259-1.828.375.031.467.066.917.106,1.35.039.434.091.858.154,1.275h5.392c.363,0,.648.121.854.362.206.242.309.538.309.888s-.103.642-.309.875-.491.35-.854.35h-4.869c.316,1.217.713,2.304,1.188,3.262.475.959,1.029,1.763,1.662,2.413.27.267.479.392.63.375.15-.016.281-.208.392-.575.048-.184.099-.371.154-.562s.115-.396.179-.613c.11-.35.309-.612.594-.788.285-.175.625-.195,1.021-.062.349.117.598.33.749.638.149.309.17.654.059,1.038-.095.317-.21.684-.344,1.1-.135.417-.273.816-.416,1.2-.412,1.1-.997,1.708-1.758,1.825-.76.116-1.583-.234-2.47-1.05Zm-11.613.825c-.349,0-.63-.121-.844-.362-.214-.242-.32-.529-.32-.863,0-.35.106-.646.32-.887s.495-.363.844-.363h8.692c.364,0,.653.121.866.363.214.242.321.537.321.887,0,.333-.107.621-.321.863-.213.241-.502.362-.866.362h-8.692Zm3.324-11.5h3.61c-.095-.7-.166-1.425-.214-2.175-.253.033-.511.071-.771.112-.262.042-.511.079-.748.112-.507.067-.899.159-1.176.275-.277.117-.463.3-.559.55-.095.25-.143.625-.143,1.125Z"/>
        <path class="cls-2" d="m91.666,249.177c-.396.066-.752-.017-1.068-.25-.317-.233-.515-.55-.594-.95-.095-.55-.166-1.3-.214-2.25-.048-.95-.079-2.016-.095-3.2-.016-1.183-.012-2.413.012-3.688s.067-2.517.131-3.725c.062-1.208.146-2.308.249-3.3.103-.992.226-1.796.368-2.413.095-.4.309-.708.642-.925.332-.216.688-.275,1.068-.175s.673.325.879.675c.205.35.261.725.166,1.125-.143.617-.261,1.392-.356,2.325-.095.934-.174,1.954-.237,3.062s-.106,2.246-.131,3.413c-.023,1.167-.027,2.296-.012,3.387.016,1.092.052,2.084.107,2.975.055.892.13,1.621.226,2.188.079.4.004.767-.226,1.1-.229.333-.534.542-.915.625Zm7.909-.025c-1.267,0-2.284-.33-3.052-.988-.769-.658-1.152-1.604-1.152-2.837,0-1.183.384-2.121,1.152-2.812.768-.691,1.824-1.038,3.171-1.038.411,0,.831.025,1.259.075-.017-.783-.036-1.638-.06-2.562-.024-.925-.052-1.871-.083-2.837-.84.05-1.651.083-2.435.1-.784.017-1.461.017-2.031,0-.396-.017-.724-.171-.985-.463-.261-.291-.384-.646-.368-1.062.032-.4.187-.737.463-1.012.277-.275.606-.404.986-.388.554.017,1.207.021,1.959.013s1.54-.038,2.363-.087c-.016-.633-.023-1.242-.023-1.825v-1.65c0-.417.134-.771.403-1.062s.602-.438.998-.438c.411,0,.751.146,1.021.438s.404.646.404,1.062c0,.517.004,1.05.012,1.6.008.55.012,1.108.012,1.675.696-.066,1.334-.133,1.912-.2.577-.066,1.064-.133,1.46-.2.381-.083.729-.004,1.046.237.316.242.506.562.569.962.063.4-.02.767-.249,1.1-.229.333-.534.525-.914.575-.444.067-.994.137-1.651.212s-1.365.146-2.125.212c.031,1.167.062,2.292.095,3.375.031,1.083.056,2.042.071,2.875.87.3,1.689.659,2.458,1.075.768.417,1.437.85,2.007,1.3.316.25.507.58.57.988.062.408-.017.779-.237,1.112-.223.333-.527.542-.915.625-.388.083-.74,0-1.057-.25-.396-.316-.831-.625-1.307-.925-.475-.3-.966-.566-1.472-.8-.159,2.55-1.584,3.825-4.275,3.825Zm0-2.825c.981,0,1.473-.491,1.473-1.475,0-.05-.004-.116-.012-.2-.009-.083-.013-.175-.013-.275-.475-.1-.958-.15-1.448-.15s-.852.1-1.081.3c-.229.2-.344.458-.344.775s.11.567.332.75c.222.184.586.275,1.093.275Z"/>
        <path class="cls-2" d="m113.849,248.977c-.301-.283-.459-.637-.475-1.062-.017-.425.11-.795.38-1.112,1.234-1.4,2.292-2.979,3.171-4.737.878-1.758,1.562-3.663,2.054-5.713-.887.05-1.714.096-2.481.138-.769.042-1.271.071-1.509.087-.396.017-.744-.121-1.045-.413-.301-.291-.459-.646-.475-1.062-.016-.433.11-.808.38-1.125.27-.316.602-.483.998-.5.189-.016.53-.033,1.021-.05.491-.017,1.065-.038,1.722-.062.657-.025,1.318-.054,1.983-.087.19-1.25.309-2.542.356-3.875.016-.433.174-.796.475-1.087s.649-.421,1.045-.388c.412.017.757.179,1.033.487.277.309.4.68.368,1.113-.016.617-.056,1.225-.118,1.825-.063.6-.135,1.2-.214,1.8l.688-.025c1.726-.066,3.056.158,3.99.675.934.517,1.535,1.375,1.805,2.575.27,1.2.253,2.809-.047,4.825-.254,1.7-.618,3.083-1.093,4.15-.476,1.067-1.037,1.871-1.687,2.413s-1.386.875-2.209,1-1.718.104-2.684-.062c-.396-.067-.712-.275-.95-.625-.237-.35-.324-.733-.261-1.15.079-.433.281-.771.605-1.013.324-.241.685-.32,1.081-.237.522.1,1.001.125,1.437.075.436-.05.831-.233,1.188-.55.356-.316.673-.837.95-1.562.276-.725.519-1.721.725-2.987.205-1.316.265-2.304.178-2.962s-.364-1.096-.831-1.312c-.468-.217-1.168-.309-2.103-.275-.237,0-.688.025-1.354.075-.569,2.517-1.377,4.875-2.422,7.075-1.046,2.2-2.249,4.083-3.61,5.65-.27.316-.605.479-1.01.487-.403.008-.756-.129-1.057-.413Zm15.557-14.9c-.206-.233-.464-.504-.772-.812-.309-.308-.598-.579-.866-.812-.159-.15-.25-.358-.273-.625-.023-.266.051-.508.226-.725.174-.2.384-.312.629-.337.246-.025.479.038.701.188.253.167.558.4.914.7.356.3.653.583.891.85.206.217.309.471.309.762s-.095.554-.284.788c-.19.217-.432.329-.725.337-.293.009-.543-.096-.748-.312Zm1.995-2.325c-.223-.217-.499-.467-.832-.75-.332-.283-.633-.533-.902-.75-.174-.133-.281-.333-.32-.6-.04-.267.02-.517.178-.75.143-.216.337-.346.582-.388.245-.042.479.004.701.138.269.15.594.362.974.637.38.275.696.529.949.763.222.2.341.45.356.75s-.063.567-.237.8c-.158.234-.384.367-.677.4s-.551-.05-.771-.25Z"/>
        <path class="cls-2" d="m152.894,247.352c-.349.2-.717.234-1.104.1-.388-.133-.685-.383-.891-.75-.158-.3-.372-.65-.641-1.05-.27-.4-.562-.833-.879-1.3-.919.167-1.964.338-3.135.513-1.172.175-2.388.342-3.646.5-1.259.159-2.474.3-3.646.425s-2.208.221-3.111.288c-.396.034-.748-.091-1.057-.375-.309-.283-.479-.633-.511-1.05-.016-.433.115-.808.393-1.125.276-.316.613-.483,1.009-.5.253-.033.515-.058.784-.075.269-.016.554-.033.854-.05.476-.733.978-1.587,1.509-2.562.53-.975,1.048-1.988,1.556-3.038.506-1.05.969-2.058,1.389-3.025.42-.966.764-1.8,1.033-2.5.143-.4.396-.691.76-.875.364-.183.736-.2,1.116-.05.381.15.661.421.844.812.182.392.193.779.035,1.163-.349.867-.783,1.863-1.306,2.988s-1.093,2.275-1.71,3.45c-.618,1.175-1.243,2.288-1.877,3.337,1.172-.116,2.355-.237,3.551-.362s2.3-.254,3.313-.388c-.333-.433-.657-.841-.974-1.225-.317-.383-.61-.708-.879-.975-.27-.316-.4-.683-.392-1.1.008-.417.162-.767.463-1.05s.648-.417,1.045-.4c.396.017.728.175.997.475.412.434.887.988,1.426,1.663.538.675,1.088,1.388,1.65,2.138.562.75,1.08,1.467,1.556,2.15.475.684.839,1.258,1.092,1.725.206.367.246.758.119,1.175-.127.417-.372.725-.736.925Z"/>
        <path class="cls-2" d="m161.42,248.802c-.349.183-.717.221-1.104.112s-.685-.346-.891-.712c-.206-.366-.253-.754-.143-1.163.11-.408.341-.721.689-.938,1.63-.933,2.956-2.091,3.978-3.475s1.658-2.883,1.912-4.5h-6.864c-.396,0-.732-.146-1.009-.438-.277-.292-.416-.646-.416-1.062s.139-.771.416-1.062c.276-.292.613-.438,1.009-.438h15.723c.396,0,.732.146,1.01.438.276.292.415.646.415,1.062s-.139.771-.415,1.062c-.277.292-.614.438-1.01.438h-5.984c-.175,1.434-.582,2.829-1.224,4.188s-1.477,2.596-2.506,3.712-2.225,2.042-3.586,2.775Zm.333-16.05c-.396,0-.729-.146-.998-.438s-.403-.646-.403-1.062.134-.771.403-1.062.602-.438.998-.438h10.426c.396,0,.732.146,1.01.438.276.292.415.646.415,1.062s-.139.771-.415,1.062c-.277.292-.614.438-1.01.438h-10.426Z"/>
        <path class="cls-2" d="m181.54,240.327c-.334,0-.624-.154-.87-.462-.247-.308-.37-.671-.37-1.087,0-.433.123-.8.37-1.1.246-.3.536-.45.87-.45h12.46c.347,0,.64.15.88.45s.36.667.36,1.1c0,.417-.12.779-.36,1.087-.24.309-.533.462-.88.462h-12.46Z"/>
        <path class="cls-2" d="m201.766,248.602c-.364.167-.736.171-1.116.013-.38-.159-.657-.429-.831-.812-.158-.4-.166-.804-.023-1.212.143-.408.396-.696.76-.863,2.47-1.166,4.556-2.566,6.258-4.2s2.941-3.408,3.717-5.325c.349-.833.404-1.462.167-1.887-.237-.425-.823-.638-1.758-.638h-8.906c-.396,0-.736-.154-1.021-.462-.285-.308-.427-.671-.427-1.087,0-.434.142-.8.427-1.1.285-.3.626-.45,1.021-.45h9.025c1.456,0,2.584.279,3.384.837.8.559,1.271,1.334,1.413,2.325.143.992-.047,2.154-.569,3.487-.935,2.334-2.38,4.479-4.335,6.438-1.955,1.959-4.351,3.604-7.185,4.938Zm14.749-15.1c-.665,0-1.231-.246-1.698-.738-.467-.491-.7-1.087-.7-1.788s.233-1.295.7-1.787,1.033-.738,1.698-.738c.649,0,1.207.246,1.675.738.467.492.7,1.087.7,1.787s-.233,1.296-.7,1.788c-.468.492-1.025.738-1.675.738Zm0-1.45c.285,0,.526-.104.725-.312.197-.208.297-.462.297-.763s-.1-.554-.297-.762c-.198-.208-.439-.312-.725-.312s-.53.104-.736.312-.309.462-.309.762.103.555.309.763c.206.208.451.312.736.312Z"/>
        <path class="cls-2" d="m236.56,249.302c-2.121.316-3.91.438-5.367.362-1.457-.075-2.624-.304-3.503-.688s-1.517-.896-1.912-1.537-.594-1.371-.594-2.188c0-1.25.479-2.417,1.437-3.5s2.348-2.033,4.169-2.85c-.254-.333-.562-.558-.927-.675-.792-.25-1.571-.158-2.339.275-.769.434-1.517,1.066-2.245,1.9-.269.3-.621.462-1.057.487s-.788-.112-1.057-.413c-.254-.316-.368-.683-.345-1.1.024-.417.187-.758.487-1.025.775-.7,1.461-1.458,2.055-2.275.594-.816,1.096-1.658,1.508-2.525-.681.017-1.318.029-1.912.038s-1.104.004-1.532-.013c-.396,0-.728-.146-.997-.438-.27-.292-.403-.646-.403-1.062.016-.417.166-.758.451-1.025.284-.267.625-.392,1.021-.375.555.017,1.224.021,2.007.013.784-.008,1.604-.021,2.459-.038.079-.316.149-.625.213-.925.063-.3.119-.6.167-.9.062-.417.237-.754.522-1.012s.625-.363,1.021-.312c.396.05.713.233.95.55.237.317.333.684.285,1.1-.016.217-.048.442-.095.675-.048.234-.104.467-.166.7.602-.033,1.163-.071,1.686-.113.522-.041.989-.096,1.401-.162.396-.05.748.046,1.057.287.31.242.487.571.535.988.047.417-.052.784-.297,1.1-.246.316-.559.492-.938.525-.586.067-1.259.125-2.019.175-.76.05-1.552.092-2.375.125-.349.817-.729,1.583-1.141,2.3.381-.083.744-.113,1.093-.088.349.025.681.088.998.188.475.134.938.363,1.389.688.451.325.852.779,1.199,1.363.776-.233,1.604-.45,2.482-.65.879-.2,1.809-.375,2.791-.525.38-.066.728.021,1.045.263.316.242.498.571.546.987.063.417-.023.784-.262,1.1-.237.317-.554.509-.949.575-.919.117-1.766.254-2.542.413-.775.158-1.496.329-2.161.512.079.45.143.942.19,1.475.047.534.071,1.108.071,1.725,0,.417-.139.771-.416,1.062s-.613.438-1.009.438-.729-.146-.998-.438-.403-.646-.403-1.062c0-.85-.048-1.608-.143-2.275-1.299.566-2.236,1.171-2.814,1.812s-.867,1.262-.867,1.862c0,.45.253.817.76,1.1.507.284,1.354.442,2.542.475s2.81-.092,4.868-.375c.38-.05.729.046,1.045.287.317.242.499.571.547.988.047.4-.048.758-.285,1.075s-.546.508-.927.575Z"/>
        <path class="cls-2" d="m255.062,250.327c-.412,0-.769-.15-1.069-.45-.301-.3-.451-.684-.451-1.15v-10.35h-7.766c-.396,0-.736-.154-1.021-.463-.285-.308-.428-.67-.428-1.087,0-.433.143-.795.428-1.087.285-.292.625-.438,1.021-.438h7.766v-6.65c0-.483.15-.871.451-1.163.301-.292.657-.438,1.069-.438.427,0,.791.146,1.092.438.301.292.451.679.451,1.163v6.65h7.838c.412,0,.756.146,1.033.438.276.292.416.654.416,1.087,0,.417-.14.779-.416,1.087-.277.309-.621.463-1.033.463h-7.838v10.35c0,.467-.15.85-.451,1.15-.301.3-.665.45-1.092.45Z"/>
        <path class="cls-2" d="m276.128,250.627c-.412,0-.765-.142-1.058-.425-.293-.284-.439-.65-.439-1.1,0-.383.143-.717.428-1s.649-.433,1.093-.45c1.045-.033,1.793-.254,2.244-.663.451-.408.677-1.112.677-2.112,0-.566-.071-1.083-.214-1.55h-9.832c-.38,0-.686-.129-.914-.387-.23-.258-.345-.571-.345-.938s.114-.675.345-.925c.229-.25.534-.375.914-.375h7.908c-.222-.233-.36-.525-.415-.875-.056-.35.043-.675.297-.975.253-.316.562-.508.926-.575.364-.066.736.025,1.116.275.063.034.123.071.179.112.055.042.114.088.178.138l1.33-.875c.27-.167.384-.333.345-.5-.04-.167-.21-.25-.511-.25h-6.603c-.396,0-.709-.129-.938-.388-.229-.258-.344-.57-.344-.938s.114-.679.344-.938c.229-.258.542-.387.938-.387h8.312c.681,0,1.23.15,1.65.45.419.3.692.675.819,1.125.127.45.099.921-.083,1.413-.183.492-.534.929-1.057,1.312-.285.217-.661.484-1.128.8-.468.316-.931.633-1.39.95l.071.125h7.647c.38,0,.685.125.914.375s.345.559.345.925-.115.679-.345.938-.534.387-.914.387h-6.674c.095.55.143,1.125.143,1.725,0,1.917-.487,3.325-1.461,4.225s-2.474,1.35-4.5,1.35Zm-6.033-13.95c-.396,0-.74-.133-1.033-.4s-.439-.633-.439-1.1v-1.275c0-1.383.337-2.358,1.01-2.925.673-.566,1.801-.85,3.385-.85h4.156v-1.675c0-.5.154-.891.463-1.175.309-.283.685-.425,1.128-.425s.819.142,1.128.425c.309.284.463.675.463,1.175v1.675h4.323c1.599,0,2.731.283,3.396.85.665.567.998,1.542.998,2.925v1.275c0,.467-.139.833-.416,1.1s-.621.4-1.033.4c-.396,0-.74-.125-1.033-.375s-.438-.608-.438-1.075v-1.25c0-.483-.115-.829-.345-1.037s-.653-.312-1.271-.312h-11.376c-.603,0-1.021.104-1.259.312-.238.208-.356.554-.356,1.037v1.25c0,.467-.139.825-.416,1.075s-.621.375-1.033.375Z"/>
        <path class="cls-2" d="m295.959,248.577c-.396.066-.753-.017-1.069-.25-.316-.233-.515-.55-.594-.95-.143-.85-.253-1.838-.332-2.963s-.119-2.312-.119-3.562.032-2.508.096-3.775c.062-1.266.162-2.479.297-3.637.134-1.158.297-2.196.486-3.113.079-.4.285-.712.617-.938.333-.225.689-.295,1.069-.212.38.1.677.321.891.663.214.342.28.721.202,1.137-.254,1.184-.452,2.467-.594,3.85-.143,1.384-.234,2.788-.273,4.212-.04,1.425-.021,2.809.06,4.15.079,1.342.214,2.562.403,3.662.079.4.004.767-.226,1.1-.229.333-.534.542-.914.625Zm9.737-1.35c-2.059,0-3.591-.391-4.596-1.175-1.006-.783-1.611-1.933-1.816-3.45-.063-.4.02-.766.249-1.1s.542-.533.938-.6c.38-.05.728.046,1.045.288.316.242.506.571.569.987.096.717.42,1.25.974,1.6.555.35,1.457.525,2.708.525,1.188,0,2.62-.191,4.299-.575.38-.1.736-.033,1.068.2.333.233.538.55.618.95.078.4.008.771-.214,1.112-.223.342-.522.562-.903.663-.854.217-1.706.367-2.553.45-.847.084-1.643.125-2.387.125Zm-4.347-12.375c-.38.084-.732.013-1.057-.212s-.526-.545-.605-.962c-.079-.4-.012-.775.202-1.125s.519-.558.914-.625c.887-.183,1.876-.304,2.969-.362s2.177-.066,3.254-.025c1.076.042,2.026.138,2.85.288.396.067.704.271.927.613.222.342.293.721.214,1.137-.063.417-.258.738-.582.962-.325.225-.677.305-1.057.238-1.283-.233-2.613-.346-3.99-.337-1.378.008-2.724.146-4.038.412Z"/>
        <path class="cls-2" d="m316.193,249.727c-.284-.167-.467-.429-.546-.787-.079-.359-.023-.671.166-.938.19-.267.404-.588.642-.963s.467-.758.688-1.15c.222-.391.396-.729.522-1.012.143-.3.368-.513.677-.638s.613-.121.915.013c.316.133.534.367.652.7.119.333.107.659-.035.975-.127.317-.305.684-.534,1.1s-.463.821-.701,1.212c-.237.392-.451.729-.641,1.013-.206.316-.479.525-.819.625-.341.1-.669.05-.986-.15Zm4.441-5.875c-1.108,0-1.959-.104-2.553-.312-.594-.208-1.002-.558-1.224-1.05-.222-.491-.332-1.154-.332-1.987v-9.225c0-.85.11-1.517.332-2s.63-.829,1.224-1.038c.594-.208,1.444-.312,2.553-.312,1.124,0,1.983.104,2.577.312.594.208,1.001.554,1.223,1.038s.333,1.15.333,2v9.225c0,.833-.111,1.496-.333,1.987-.222.492-.629.842-1.223,1.05-.594.209-1.453.312-2.577.312Zm-1.567-11.275h3.135v-.95c0-.533-.091-.879-.272-1.038-.183-.158-.614-.238-1.295-.238-.665,0-1.093.08-1.282.238-.19.159-.285.504-.285,1.038v.95Zm0,4.4h3.135v-2.325h-3.135v2.325Zm1.567,4.475c.681,0,1.112-.083,1.295-.25.182-.167.272-.516.272-1.05v-1.075h-3.135v1.075c0,.534.095.883.285,1.05.189.167.617.25,1.282.25Zm4.489,8.025c-.301.217-.614.3-.938.25-.324-.05-.598-.225-.819-.525-.175-.25-.388-.575-.642-.975-.253-.4-.498-.808-.736-1.225-.237-.417-.427-.767-.569-1.05-.143-.3-.158-.616-.048-.95s.316-.566.617-.7c.301-.133.602-.146.903-.038.3.109.53.312.688.613.222.4.515.879.879,1.438s.681,1.029.95,1.412c.205.267.284.575.237.925-.048.35-.223.625-.522.825Zm5.984-.175c-1.314,0-2.343-.146-3.087-.438-.745-.292-1.263-.804-1.556-1.538-.293-.733-.439-1.758-.439-3.075,0-1.1.095-1.988.285-2.663.189-.675.522-1.191.997-1.55.476-.358,1.124-.596,1.947-.712v-10.675c0-.433.131-.779.393-1.038.261-.258.581-.388.962-.388s.7.129.962.388c.261.259.392.604.392,1.038v3.3h4.133c.396,0,.704.125.926.375s.332.567.332.95c0,.367-.11.679-.332.938s-.53.387-.926.387h-4.133v4.65c1.093.05,1.943.233,2.553.55.609.317,1.041.829,1.295,1.538.253.708.38,1.679.38,2.913,0,1.316-.146,2.342-.439,3.075-.293.734-.808,1.246-1.544,1.538-.736.292-1.77.438-3.1.438Zm0-2.675c.649,0,1.137-.059,1.461-.175.324-.116.546-.346.665-.688.119-.341.178-.846.178-1.512,0-.65-.059-1.146-.178-1.488-.119-.341-.341-.571-.665-.688-.324-.116-.812-.175-1.461-.175-.633,0-1.116.059-1.448.175-.333.117-.559.346-.677.688-.119.342-.179.837-.179,1.488,0,.684.063,1.196.19,1.537.126.342.359.567.7.675s.812.163,1.413.163Z"/>
        <path class="cls-2" d="m348.826,249.252c-1.44-.034-2.577-.4-3.408-1.1-.831-.7-1.231-1.658-1.199-2.875.031-.716.226-1.341.582-1.875.356-.533.843-.938,1.46-1.212.618-.275,1.322-.371,2.114-.288,1.267.117,2.153.571,2.66,1.362.507.792.656,1.696.451,2.712.554-.283,1.009-.695,1.365-1.237.356-.542.534-1.246.534-2.112,0-.65-.178-1.238-.534-1.763s-.854-.933-1.496-1.225c-.642-.292-1.382-.413-2.221-.362-.839.05-1.742.312-2.707.788-.966.475-1.956,1.229-2.969,2.262-.285.284-.642.421-1.069.413-.427-.008-.775-.179-1.045-.513-.253-.316-.368-.679-.344-1.087.023-.408.186-.729.486-.962.981-.783,1.963-1.612,2.945-2.487.981-.875,1.92-1.738,2.814-2.588.895-.85,1.682-1.625,2.363-2.325.427-.433.573-.792.439-1.075-.135-.283-.479-.383-1.033-.3-.539.067-1.152.15-1.841.25s-1.334.192-1.936.275c-.38.067-.729-.025-1.045-.275-.317-.25-.499-.583-.547-1-.063-.4.024-.763.262-1.087.237-.325.554-.521.95-.588.348-.05.787-.1,1.317-.15.53-.05,1.077-.1,1.639-.15.562-.05,1.041-.091,1.438-.125,1.029-.083,1.868.059,2.518.425.648.367,1.092.863,1.33,1.488.237.625.249,1.304.035,2.038s-.669,1.425-1.365,2.075c-.317.284-.717.65-1.199,1.1-.483.45-.979.909-1.484,1.375.902-.183,1.781-.196,2.636-.038.855.159,1.619.479,2.292.962.673.484,1.207,1.121,1.604,1.913.396.792.594,1.721.594,2.788,0,1.517-.317,2.771-.95,3.763-.634.992-1.505,1.717-2.612,2.175-1.108.458-2.384.671-3.824.638Zm-.428-2.775h.143c.048,0,.107.004.179.013.071.009.154.004.249-.013.222-.55.261-1.008.119-1.375-.143-.366-.428-.583-.855-.65-.38-.05-.692.004-.938.163-.245.159-.384.413-.415.763-.017.667.49,1.033,1.52,1.1Z"/>
      </g>
      <g>
        <path class="cls-15" d="m54.321,240c0,1.336.301,2.656.051,3.918-.257,1.301-.812,2.502-1.308,3.699-.505,1.218-.81,2.563-1.534,3.645-.73,1.09-1.826,1.917-2.75,2.842s-1.835,1.895-2.926,2.625c-1.082.724-2.406,1.002-3.624,1.507-1.197.496-2.325,1.249-3.626,1.507-1.262.25-2.592-.116-3.927-.116s-2.629.182-3.891-.067c-1.301-.257-2.619-.458-3.816-.954-1.218-.505-2.183-1.46-3.265-2.185-1.09-.73-1.993-1.607-2.918-2.531s-2.167-1.583-2.897-2.673c-.724-1.082-.981-2.43-1.486-3.647-.496-1.197-.985-2.386-1.242-3.686-.25-1.262-.218-2.547-.218-3.882s-.298-2.673-.048-3.935c.257-1.301.72-2.558,1.216-3.755.505-1.218,1.351-2.245,2.076-3.328.73-1.09,1.638-1.985,2.563-2.909s1.527-2.268,2.618-2.998c1.082-.724,2.357-1.241,3.575-1.746,1.197-.496,2.52-.744,3.82-1.001,1.262-.25,2.578-.233,3.913-.233s2.694-.235,3.957.014c1.301.257,2.433,1.08,3.63,1.577,1.218.505,2.248,1.251,3.33,1.976,1.09.73,2.162,1.411,3.086,2.336s1.835,1.842,2.565,2.933c.724,1.082,1.574,2.128,2.079,3.346.496,1.197.555,2.552.812,3.853.25,1.262.184,2.536.184,3.871Z"/>
        <path class="cls-1" d="m37.363,239.642c-.07.028-.104.06-.104.094,0,.035.042.067.126.094,1.624.588,2.436,1.785,2.436,3.591,0,.854-.241,1.617-.725,2.289-.482.672-1.141,1.2-1.974,1.585-.833.385-1.774.577-2.824.577-1.358,0-2.507-.319-3.444-.955-.938-.637-1.547-1.515-1.827-2.635-.042-.154-.07-.297-.084-.431-.014-.133-.021-.269-.021-.409,0-.532.136-.973.409-1.323.273-.35.647-.525,1.123-.525.448,0,.795.147,1.04.441s.367.623.367.987c0,.252-.06.493-.179.724s-.312.41-.577.536c-.112.042-.146.119-.104.231.434,1.092,1.532,1.638,3.297,1.638.378,0,.78-.052,1.207-.157s.83-.266,1.208-.483.686-.49.924-.819c.237-.329.356-.717.356-1.166,0-.322-.035-.64-.104-.956-.07-.315-.231-.609-.483-.882-.252-.273-.654-.5-1.207-.683-.554-.182-1.312-.294-2.278-.336-.225-.014-.417-.101-.578-.262-.161-.161-.241-.354-.241-.578s.084-.416.252-.577c.168-.161.364-.249.588-.262,2.562-.126,3.843-1.022,3.843-2.688,0-.42-.126-.833-.378-1.239s-.623-.742-1.112-1.008c-.49-.266-1.093-.399-1.807-.399-1.582,0-2.646.518-3.191,1.554-.015.028-.021.056-.021.084,0,.07.035.126.105.168.21.14.367.315.472.525.105.21.158.427.158.651,0,.35-.123.676-.368.977s-.591.451-1.039.451c-.462,0-.829-.168-1.103-.504-.273-.336-.409-.763-.409-1.281,0-.112.007-.234.021-.368.014-.133.042-.269.084-.409.322-1.092.956-1.96,1.9-2.604.945-.644,2.076-.966,3.392-.966.868,0,1.624.136,2.269.41.644.273,1.179.634,1.606,1.081.427.448.745.924.955,1.428.21.504.315.987.315,1.449,0,.728-.203,1.386-.609,1.974-.406.588-.959,1.043-1.659,1.365Z"/>
      </g>
    </g>
  </g>
</svg>