<?xml version="1.0" encoding="UTF-8"?><svg id="_レイヤー_2" xmlns="http://www.w3.org/2000/svg" width="750" height="480" viewBox="0 0 750 480"><defs><style>.cls-1{fill:#fdebf5;}.cls-1,.cls-2{stroke-width:0px;}.cls-2{fill:#fff;}</style></defs><g id="design"><rect class="cls-2" width="750" height="480"/><rect class="cls-1" x="666.17" width="1" height="480"/><rect class="cls-1" y="435.86" width="750" height="1"/><rect class="cls-1" y="392.23" width="750" height="1"/><rect class="cls-1" y="348.59" width="750" height="1"/><rect class="cls-1" y="304.95" width="750" height="1"/><rect class="cls-1" y="261.32" width="750" height="1"/><rect class="cls-1" y="217.68" width="750" height="1"/><rect class="cls-1" y="174.05" width="750" height="1"/><rect class="cls-1" y="130.41" width="750" height="1"/><rect class="cls-1" y="86.77" width="750" height="1"/><rect class="cls-1" y="43.14" width="750" height="1"/><rect class="cls-1" x="624.5" width="1" height="480"/><rect class="cls-1" x="582.83" width="1" height="480"/><rect class="cls-1" x="541.17" width="1" height="480"/><rect class="cls-1" x="707.83" width="1" height="480"/><rect class="cls-1" x="499.5" width="1" height="480"/><rect class="cls-1" x="457.83" width="1" height="480"/><rect class="cls-1" x="416.17" width="1" height="480"/><rect class="cls-1" x="374.5" width="1" height="480"/><rect class="cls-1" x="332.83" width="1" height="480"/><rect class="cls-1" x="291.17" width="1" height="480"/><rect class="cls-1" x="249.5" width="1" height="480"/><rect class="cls-1" x="207.83" width="1" height="480"/><rect class="cls-1" x="166.17" width="1" height="480"/><rect class="cls-1" x="124.5" width="1" height="480"/><rect class="cls-1" x="82.83" width="1" height="480"/><rect class="cls-1" x="41.17" width="1" height="480"/></g></svg>