<?xml version="1.0" encoding="UTF-8"?>
<svg id="_レイヤー_2" data-name="レイヤー 2" xmlns="http://www.w3.org/2000/svg" viewBox="0 0 148.64 111.23">
  <defs>
    <style>
      .cls-1, .cls-2, .cls-3, .cls-4, .cls-5, .cls-6, .cls-7, .cls-8 {
        stroke-width: 0px;
      }

      .cls-1, .cls-4 {
        fill: #faa2ad;
      }

      .cls-2 {
        fill: #231815;
      }

      .cls-2, .cls-4, .cls-5, .cls-7 {
        fill-rule: evenodd;
      }

      .cls-3 {
        fill: #f03c3c;
      }

      .cls-5 {
        fill: #954828;
      }

      .cls-6 {
        fill: #0f0c0d;
      }

      .cls-7, .cls-8 {
        fill: #fff;
      }
    </style>
  </defs>
  <g id="design">
    <g>
      <path class="cls-7" d="M77.26,104.35c.28-1.07,1.2-1.97,1.75-2.98.53-.98.87-2.07,1.46-3.01,4.91-7.73,9.28-15.81,14.69-23.22.61-.84,4.95-8.14,5.56-8.98,1.57-2.15,2.39-4.7,3.82-6.93.06-.1.19-.21.18-.31-.09-1.07.8-1.69,1.14-2.56.34-.87.62-1.75,1.14-2.56,1.54-2.4,3.01-4.85,4.55-7.35-1.78-1.1-3.49-2.15-5.19-3.2-1.87-1.15-3.76-2.27-5.6-3.46-1.8-1.17-3.83-2.02-5.29-3.68-2.24-1.07-3.92-2.96-6.06-4.17-1.06-.6-2.11-1.24-3.11-1.92-1.39-.94-3.13-1.18-4.44-2.28-.09-.08-.36-.07-.46.01-.36.28-.77.55-.99.92-.91,1.52-2.13,2.77-3.33,4.04-.61.65-.94,1.56-1.47,2.31-.51.71-1.17,1.31-1.64,2.04-.48.74-1.13,1.11-1.94,1.39-.53.18-.51-.16-.69-.43-.62-.95-.99-1.99-1.21-3.09-.1-.51-.47-.58-.8-.36-.72.48-1.53.63-2.34.79-.94.19-1.49-.38-1.47-1.4.02-.73-.02-1.46-.03-2.14-1.21.35-2.28.71-3.38.97-.87.21-1.47-.42-1.11-1.2.44-.96.6-2.04,1.31-2.88.3-.36.6-.8.7-1.25.29-1.32.87-2.57,1.55-3.67,1.21-1.93,1.75-4.18,3.15-5.92-.51-.21-1.1-.26-1.29-.56-.68-1.1-1.84-1.5-2.84-2.12-4.29-2.68-8.64-5.28-12.91-7.99-1.93-1.22-4.19-1.8-6-3.24-.1-.08-.22-.2-.31-.18-1,.25-1.48-.69-2.25-.96-.76-.27-1.52-.55-2.43-.88-1.25,2.03-2.46,4.08-3.75,6.07-1.3,2.01-2.53,4.05-4,5.96-2.56,3.34-8.09,13.68-10.89,16.9-.55.63-.95,1.42-1.35,2.17-.4.77-.67,1.61-1.07,2.39-.92,1.8-2.26,3.36-2.92,5.35-.41,1.24-1.39,2.28-2.04,3.45-.63,1.13-1.08,2.37-1.75,3.47-2.13,3.56-4.26,7.12-6.54,10.59-1.23,1.87-1.89,4-3.11,5.86-.48.73-.26,1.39.5,1.82,3.41,1.93,6.55,4.29,10.16,5.9,2.21.99,4.21,2.46,6.25,3.8,2.05,1.35,4.23,2.46,6.12,4.1,1.88,1.64,4.2,2.72,6.22,4.25,3.65,2.76,7.89,4.65,11.52,7.53,1.66,1.32,3.74,2.1,5.63,3.11,2.17,1.15,4.03,2.81,6.44,3.59,1.15.37,2.15,1.18,3.33,1.63,1.48.57,2.77,1.56,4.26,2.21,1.88.81,3.57,2.1,5.32,3.2,1.72,1.08,3.75,1.58,5.37,2.86.41.33.9.56,1.44.9.72-1.74,1.98-2.97,2.45-4.73Z"/>
      <g>
        <path class="cls-4" d="M79.27,107.54c.6-1.25,1.18-2.44,1.9-3.56.52-.79.9-1.62,1.26-2.43.42-.92.82-1.79,1.38-2.51l.2-.26.06-.33c.33-1.74,1.48-3.25,2.54-4.53,1.56-1.9,2.81-3.98,4.01-5.99.68-1.13,1.35-2.26,2.08-3.36.08-.12.17-.24.26-.36.42-.57.96-1.32,1.04-2.34l1.33-1.58c.28-.33.46-.68.6-.96.09-.18.23-.45.29-.47.38-.16.71-.46.98-.91.21-.34.6-.95,1.1-1.72,2.69-4.21,5.37-8.44,5.92-9.87.45-1.16,1.09-2.2,1.77-3.3l.43-.71c.43-.72.7-1.43.97-2.12l.25-.64c.09-.23.24-.43.37-.64.35-.53.81-1.25.9-2.23.05-.07.11-.15.17-.22.19-.25.38-.52.51-.78.12-.24.28-.46.44-.68.41-.58.95-1.34,1.05-2.38,1.12-.76,1.67-1.86,2.13-2.76.1-.19.19-.38.29-.57.57-1.04,1.31-1.43,2.94-1.53,2.53-.16,5.23-.34,7.91-.67,2.66-.33,5.33-.51,7.36-.62,1.36-.08,2.72-.12,4.09-.16,1.57-.05,3.14-.1,4.7-.2.55-.03,1.1-.14,1.65-.26.46-.1.89-.19,1.3-.21l-1.62,2.64c-3.84,6.25-7.67,12.49-11.54,18.72-.43.69-.92,1.34-1.41,1.99-.51.68-1.02,1.36-1.47,2.07-.4.63-.68,1.28-.96,1.9-.18.4-.35.8-.56,1.18-.17.31-.38.6-.59.9-.45.63-.95,1.35-1.19,2.23-.14.53-.45,1.04-.77,1.58-.3.49-.6,1-.84,1.59-.18.46-1.35,2.52-2.29,4.16-1.81,3.18-2.93,5.16-3.18,5.95-.19.58-.6,1.19-1.04,1.83-.13.19-.25.37-.38.56-.83.38-1.21,1.15-1.41,1.55-.05.1-.09.19-.15.28-1.18,1.86-2.34,3.74-3.47,5.64-.05.09-.12.17-.18.26-.28.38-.77,1.02-.76,1.93-.94.6-1.41,1.49-1.76,2.17-.09.17-.18.34-.27.5,0,0-.01,0-.02,0-1.77.08-3.48.2-5.2.32-1.41.1-2.81.19-4.22.27l-.71.04c-1.77.09-3.61.18-5.45.59-.38.09-.85.09-1.34.09-.42,0-.84,0-1.25.05-.57.06-1.14.15-1.71.24-.43.07-.87.14-1.3.19l-1.06.13c-1.59.2-3.09.39-4.63.36-.47-.01-.98-.02-1.53-.02Z"/>
        <path class="cls-8" d="M140.69,47.52l-.03.05c-3.83,6.24-7.67,12.49-11.54,18.71-.38.62-.85,1.23-1.34,1.88-.51.68-1.04,1.38-1.53,2.16-.46.72-.78,1.45-1.06,2.09-.16.36-.32.73-.5,1.07-.12.21-.3.48-.5.76-.49.69-1.1,1.56-1.39,2.68-.09.34-.34.75-.62,1.22-.31.51-.66,1.1-.93,1.79-.2.46-1.36,2.5-2.21,3.99-2.07,3.64-3.01,5.33-3.29,6.21-.13.39-.48.91-.86,1.47-.06.09-.13.18-.19.28-1.01.62-1.48,1.57-1.69,2.01-.03.06-.05.11-.07.14-1.23,1.94-2.41,3.85-3.49,5.66-.03.05-.07.1-.11.15-.28.37-.79,1.06-.98,2.02-.78.66-1.23,1.44-1.55,2.06-1.48.08-2.97.18-4.45.28-1.4.1-2.8.19-4.2.27l-.7.04c-1.83.09-3.73.19-5.68.62-.23.05-.62.05-1.04.06-.41,0-.88,0-1.39.05-.6.06-1.19.15-1.79.25-.41.07-.83.13-1.25.18l-1.07.13c-1.29.16-2.52.32-3.73.35.26-.49.53-.97.83-1.42.57-.88.99-1.8,1.36-2.61.39-.84.75-1.64,1.21-2.24l.41-.53.13-.66c.27-1.41,1.26-2.71,2.24-3.91,1.63-1.98,2.9-4.11,4.13-6.16.69-1.15,1.34-2.24,2.05-3.3.07-.1.15-.21.22-.31.41-.56,1.02-1.39,1.23-2.56l1.08-1.28c.38-.45.61-.89.78-1.22,0-.02.02-.04.03-.06.47-.29.87-.7,1.2-1.23.21-.34.6-.94,1.09-1.71,3.42-5.34,5.5-8.71,6.05-10.11.4-1.04,1.01-2.03,1.65-3.08l.44-.72c.49-.82.8-1.62,1.07-2.33.08-.2.16-.41.24-.61.03-.07.16-.27.25-.41.36-.55.88-1.35,1.07-2.45.18-.24.41-.55.6-.94.05-.1.19-.31.32-.48.38-.54.95-1.34,1.2-2.42,1.08-.91,1.65-2.04,2.09-2.91.09-.18.18-.36.27-.53.23-.42.39-.72,1.8-.81,2.55-.16,5.27-.34,8-.68,2.62-.33,5.26-.5,7.27-.61,1.35-.08,2.7-.12,4.05-.16,1.55-.05,3.15-.1,4.75-.2.03,0,.05,0,.08,0M145.72,44.31c-.13-.08-.77-.08-2.13-.05-1.09.02-2.11.41-3.16.48-2.92.18-5.85.19-8.78.36-2.49.14-4.98.32-7.46.63-2.6.33-5.21.5-7.82.66-1.78.11-3.16.57-4.08,2.26-.58,1.07-1.02,2.32-2.2,2.98-.19.1-.38.4-.37.61.04,1.2-.9,1.92-1.36,2.86-.24.49-.79.93-.81,1.41-.05,1.06-.82,1.7-1.18,2.56-.35.87-.63,1.75-1.13,2.57-.82,1.37-1.7,2.68-2.3,4.22-.7,1.79-5.87,9.7-6.9,11.36-.09.14-.21.3-.36.37-.8.35-.91,1.23-1.4,1.81-.52.62-1.05,1.24-1.57,1.86-.04.05-.1.11-.09.16.1,1-.58,1.67-1.07,2.39-2.04,3.05-3.65,6.37-6.01,9.24-1.22,1.48-2.44,3.13-2.83,5.16-1.18,1.53-1.67,3.44-2.71,5.03-1.21,1.86-2.03,3.89-3.04,5.89,1.29-.2,2.57-.18,3.8-.15,2,.05,3.93-.26,5.89-.5,1-.12,1.98-.33,2.98-.43.92-.09,1.87.04,2.75-.16,1.96-.44,3.94-.49,5.92-.59,3.12-.17,6.23-.44,9.35-.58.51-.02.79-.02,1.1-.5.57-.88.85-2,1.92-2.52.23-.11.51-.54.46-.75-.21-.8.38-1.24.71-1.78,1.12-1.89,2.28-3.75,3.45-5.61.34-.53.47-1.29,1.28-1.4.63-1.04,1.48-2.01,1.84-3.14.41-1.28,4.95-8.79,5.44-10.02.45-1.14,1.32-2.06,1.66-3.33.27-1.02,1.13-1.86,1.65-2.83.53-.98.87-2.07,1.46-3,.89-1.4,2.01-2.66,2.88-4.06,4.44-7.15,8.84-14.32,13.24-21.49.37-.61.7-1.25,1-1.9.01-.02,0-.04-.02-.06h0Z"/>
      </g>
      <g>
        <path class="cls-4" d="M103.62,38.25c-.36-.22-.72-.46-1.07-.69l-.54-.36c-.37-.24-.71-.54-1.05-.83-.35-.3-.71-.61-1.09-.88-.1-.07-.21-.14-.32-.21-.24-.15-.5-.29-.76-.42-.2-.1-.39-.2-.58-.32-.17-.11-.29-.2-.36-.28-.63-.77-1.36-1.27-2.06-1.7l-.88-.53c-.21-.13-.42-.27-.62-.41-.26-.19-.53-.36-.8-.53l-.78-.47c-.55-.34-.98-.65-1.32-1.05-.35-.43-.73-.77-1.12-1.01-.53-.33-1.1-.49-1.67-.48,0,0-.37-.22-.53-.32.74,0,1.43-.13,2.1-.26.37-.07.73-.15,1.1-.18.88-.09,1.76-.17,2.65-.24,1.45-.12,2.9-.25,4.34-.44,1.33-.18,2.65-.31,4.06-.38l1.06-.06c1.99-.11,3.86-.22,5.75-.02,1.03.11,2.23.21,3.41.04.68-.1,1.18,0,1.73.34.55.37.99.65,1.44.92,1.64,1.01,3.34,1.92,4.99,2.81,1.61.87,3.28,1.76,4.85,2.73.61.37,1.21.76,1.8,1.17.22.15.44.29.66.43s.47.28.71.41c.62.34,1.23.7,1.84,1.06,1.52.9,3.1,1.82,4.8,2.49,1.14.45,2.17,1.08,3.26,1.74.52.32,1.04.64,1.58.94.12.07.25.13.37.19-2.7.27-5.18.41-7.61.43-1.3.01-2.58.14-3.82.26-.71.07-1.42.14-2.14.19-.99.07-1.98.15-2.97.23-1.03.09-2.05.18-3.08.24-.85.05-1.7.14-2.55.23-.61.06-1.22.13-1.83.18-.54.04-1.08.13-1.61.21-.4.06-.81.13-1.22.17-.51.05-.73,0-.9-.11-.68-.44-1.33-.87-2-1.28-.56-.34-1.12-.68-1.7-.99-.19-.11-.38-.22-.57-.33l-1.13-.71c-.58-.36-1.28-.76-2.11-1.05-.49-.17-1.03-.44-1.69-.85Z"/>
        <path class="cls-8" d="M135.94,40.37c-1.03.05-2.03.08-3.02.09-1.36.01-2.67.14-3.94.26-.7.07-1.4.14-2.1.18-1,.07-2,.15-2.99.24-1.02.09-2.03.17-3.05.24-.87.05-1.74.15-2.61.24-.6.06-1.2.13-1.8.18-.61.05-1.17.14-1.72.22-.38.06-.76.12-1.14.16-.06,0-.11,0-.14.01-.62-.41-1.25-.81-1.88-1.2-.58-.36-1.16-.7-1.76-1.03-.17-.1-.34-.2-.51-.3-.18-.11-.35-.22-.53-.33-.2-.13-.4-.25-.6-.38-.64-.39-1.43-.84-2.38-1.18-.4-.14-.85-.37-1.42-.72-.35-.21-.69-.44-1.03-.67l-.55-.36c-.27-.18-.58-.44-.9-.72-.35-.3-.74-.64-1.19-.96-.13-.09-.26-.18-.39-.26-.27-.17-.56-.32-.85-.47-.17-.09-.33-.17-.49-.27h-.02s-.03-.03-.05-.04c-.75-.9-1.61-1.49-2.36-1.94l-.47-.28-.41-.24c-.18-.11-.36-.22-.53-.35-.29-.21-.59-.41-.89-.6l-.42-.25-.36-.22c-.43-.26-.76-.49-.97-.75-.02-.03-.04-.05-.06-.08.54-.05,1.08-.1,1.62-.14,1.44-.12,2.92-.25,4.41-.45,1.29-.18,2.58-.3,3.94-.37l1.07-.06c1.93-.11,3.75-.21,5.52-.03,1.11.12,2.41.23,3.76.03.38-.06.55,0,.85.18h.02c.45.31.91.6,1.37.89,1.67,1.03,3.39,1.95,5.06,2.85,1.67.9,3.24,1.74,4.77,2.68.63.39,1.19.76,1.74,1.13.24.16.48.32.72.47s.51.3.76.44c.61.34,1.21.69,1.81,1.04,1.57.92,3.19,1.88,5,2.59.38.15.75.32,1.12.51M143.92,41.38c-.96-.59-2.09-.81-3.07-1.36-1.66-.93-3.18-2.05-5.01-2.76-2.26-.89-4.33-2.28-6.47-3.47-.22-.12-.44-.25-.65-.38-.2-.12-.4-.25-.6-.39-.61-.42-1.23-.83-1.86-1.22-3.2-1.97-6.63-3.56-9.83-5.53-.43-.27-.86-.54-1.28-.82-.05-.04-.11-.07-.16-.1-.83-.51-1.66-.68-2.66-.53-1,.14-2.05.06-3.06-.05-2.35-.25-4.68-.05-7.03.07-1.4.07-2.78.2-4.17.39-2.3.31-4.63.44-6.94.68-1.06.11-2.11.47-3.16.43-1.07-.04-2.05.57-3.12.27-.09-.03-.28.18-.38.31-.04.06,0,.27.07.31l.15.09c1.19.73,2.39,1.45,3.58,2.17.48-.11.9.01,1.26.23.32.2.58.47.78.71.48.58,1.06.99,1.67,1.36.26.16.52.31.78.47.24.15.48.3.71.47.23.17.47.33.72.48.29.18.59.35.88.53.62.38,1.22.8,1.71,1.4.19.23.44.42.71.59.42.26.91.47,1.34.74.08.05.16.1.24.16.76.54,1.41,1.23,2.19,1.74.54.35,1.09.73,1.65,1.07.63.39,1.28.74,1.96.98.67.23,1.26.56,1.84.92.38.23.75.48,1.13.71.21.13.42.25.63.37.55.3,1.1.63,1.64.96.66.4,1.3.82,1.94,1.24.02.01.04.02.06.04.57.35,1.16.37,1.77.31.94-.1,1.86-.3,2.8-.38,1.45-.12,2.91-.32,4.35-.41,2.02-.13,4.03-.34,6.05-.48,1.96-.13,3.9-.42,5.88-.44,4.03-.04,8.06-.4,12.3-.98-.23-.14-.4-.23-.54-.31-.08-.05-.14-.09-.2-.15-.18-.16-.38-.31-.58-.43h0Z"/>
      </g>
      <g>
        <path class="cls-4" d="M50.44,3.75c2.05.14,3.89.24,5.81.24,1.43,0,2.85.16,4.36.33.7.08,1.4.15,2.1.22.29.03.59.07.89.11.82.12,1.74.25,2.68.08.44-.08.92-.03,1.48.03.73.07,1.55.16,2.44-.04.07.02.14.05.22.08.32.12.71.26,1.18.27.76.02,1.51.1,2.26.17.64.06,1.28.13,1.93.16.75.04,1.51.06,2.26.07.61,0,1.23.02,1.84.05.08,0,.21.04.32.1.55.33,3.09,1.89,3.09,1.89.74.45,1.48.91,2.22,1.35.09.06.17.12.25.18.16.12.32.24.49.35.42.26.86.4,1.3.41.28.3.61.56,1,.79.5.31,1.01.52,1.5.73.39.16.77.32,1.13.54.08.05.17.11.24.17.61.47,1.25.9,1.91,1.3.21.13.42.25.63.38-.2,0-.4.02-.6.03-2.62.14-5.19.01-7.91-.13l-.65-.03c-1.27-.06-2.51.07-3.71.2-.44.05-.88.09-1.32.13-.83.07-1.65.14-2.48.22-.96.09-1.93.18-2.9.25-.33.03-.66.03-.98.04-.61.01-1.24.02-1.9.14-.58.1-1.1.12-1.62.04l-.26-.02c-.39-.13-.83-.06-1.27.2-.15-.1-.31-.21-.46-.31-.51-.34-1.03-.69-1.5-1.08-.49-.41-1.15-.94-1.89-1.39s-1.38-.74-2.09-.95h0s-.39-.16-1.98-1.14c-1.9-1.17-4.32-2.77-4.75-3.09-.65-.49-1.33-.94-2.02-1.37s-1.4-.82-2.12-1.19c-.19-.1-.41-.18-.63-.26-.14-.05-.28-.09-.4-.16l-.08-.05Z"/>
        <path class="cls-8" d="M88.94,12.36c-1.12-.03-2.26-.09-3.42-.15l-.65-.03c-1.37-.07-2.67.07-3.93.2-.43.05-.86.09-1.29.13-.83.07-1.66.14-2.49.22-.96.09-1.92.18-2.88.25-.3.02-.6.03-.89.03-.63.01-1.35.02-2.12.16-.43.08-.8.09-1.18.03-.08-.01-.16-.02-.24-.03-.35-.07-.8-.09-1.3.02-.46-.31-.89-.6-1.25-.91-.53-.44-1.24-1.01-2.05-1.51-.76-.47-1.52-.82-2.3-1.06-.14-.07-.6-.31-1.77-1.03-1.94-1.2-4.29-2.75-4.64-3.02-.12-.09-.25-.18-.38-.28.03,0,.06,0,.08,0,1.35,0,2.74.16,4.2.32.71.08,1.42.16,2.13.22.27.02.54.06.81.1.88.12,1.97.28,3.12.07.24-.04.65,0,1.09.04.7.07,1.53.16,2.47.01.36.13.86.29,1.47.31.7.02,1.41.09,2.17.17.66.06,1.32.13,1.98.17.77.04,1.54.06,2.32.07.54,0,1.07.02,1.61.04.5.3.99.6,1.49.91l.72.44.72.45c.74.46,1.49.91,2.21,1.34.05.03.09.07.14.11.2.15.4.3.61.43.49.3.96.47,1.41.56.27.23.56.45.89.65.39.24.77.42,1.13.58M98.51,14.38c-.69-.42-1.43-.53-2.05-.87-.81-.45-1.62-.9-2.4-1.38-.62-.38-1.22-.78-1.79-1.22-.12-.09-.24-.17-.37-.25-.83-.51-1.8-.76-2.63-1.27-.37-.23-.7-.5-.98-.88-.04-.05-.1-.1-.16-.14-.05-.03-.11-.05-.14-.04-.41.14-.73.03-1.01-.15-.26-.16-.49-.37-.74-.53,0,0-.02-.01-.03-.02-.74-.44-1.47-.89-2.2-1.34-.48-.3-.96-.59-1.44-.89-.55-.34-1.11-.68-1.66-1.01-.29-.17-.64-.28-.97-.3-1.36-.06-2.73-.04-4.09-.11-1.41-.08-2.81-.29-4.22-.33-.55-.02-1.16-.47-1.64-.35-1.34.35-2.63-.21-3.97.03-1.02.18-2.13-.11-3.2-.2-2.19-.19-4.38-.54-6.58-.55-2.5,0-4.99-.18-7.47-.36-1.34-.1-2.68-.15-4.03-.22.18.33.42.64.65.78.1.06.2.09.29.07.42-.08.73.04,1.01.22.18.11.35.25.54.36.03.02.05.03.08.05.28.16.56.33.84.5.35.21.69.43,1.04.64.21.13.42.25.63.38.34.2.79.3,1.1.46.69.35,1.37.73,2.03,1.14s1.3.84,1.92,1.3c.48.36,2.92,1.97,4.85,3.16,1.09.67,2.01,1.2,2.32,1.29.63.19,1.21.47,1.75.8.6.37,1.17.81,1.72,1.28.82.69,1.76,1.23,2.62,1.86.02.01.04.03.05.04.55.34.7-.55,1.18-.41.11.03.22.02.34.04.69.1,1.36.08,2.07-.05.9-.16,1.84-.09,2.75-.16,1.8-.14,3.59-.33,5.38-.47,1.61-.13,3.24-.4,4.84-.32,2.9.15,5.79.32,8.7.16,1.88-.1,3.78-.07,5.83-.09-.24-.28-.49-.49-.75-.65h0Z"/>
      </g>
      <polygon class="cls-1" points="72.96 105.57 69.45 103.32 65.49 101.29 61.52 99.26 58.07 96.38 54.16 94.27 50.37 91.94 46.73 89.39 42.73 87.39 38.98 85 35.04 82.92 31.55 80.1 27.68 77.92 23.9 75.59 20.22 73.07 16.15 71.19 12.61 68.45 8.83 66.07 5.06 63.93 7.53 60.22 9.42 56.02 11.92 52.18 14.16 48.19 16.74 44.4 19.28 40.58 21.47 36.56 24.02 32.74 26.6 28.96 28.69 24.88 30.68 20.73 33.44 17.04 35.3 12.8 38.36 9.29 40.39 4.93 44.51 7.47 48.34 10.13 52.5 12.25 56.14 15.21 60.3 17.35 64.06 20.12 67.97 22.66 72.1 24.83 76.35 26.83 80.08 29.66 84.07 32.05 88.1 34.39 92.05 36.87 96.18 39.07 99.93 41.87 103.75 44.58 108.29 46.63 105.55 50.64 103.2 54.56 100.85 58.49 98.23 62.26 95.95 66.23 93.57 70.14 91.78 74.41 89.13 78.16 87.08 82.26 85.06 86.39 82.77 90.36 80.07 94.09 77.73 98.03 75.22 101.87 72.96 105.57"/>
      <path class="cls-5" d="M111.2,23.04c-3.97-.19-7.61-.18-11.25.19-1.5.15-2.99.41-4.5.45-1.47.04-2.94.3-4.4.61-1.41.3-2.89.3-4.33.43-.11.01-.23-.09-.33-.07-1.83.34-3.65.67-5.47,1.04-.26.05-.54.25-.7.46-.48.66-.95,1.3-1.55,1.89-1.03,1.04-1.48,1.48-2.38,2.65-.42.55-.96,1.01-1.36,1.56-.43.59-.73,1.28-1.18,1.85-.31.39-.77.66-1.24,1.05-.25-1.07-.51-2.1-.74-3.14-.09-.4-.25-.5-.7-.57-1.23-.2-2.01.68-3.02,1.01-.16.05-.46.28-.45-.19.01-.46-.02-.91,0-1.37.07-2.32-.06-2.43-2.29-1.76-.49.15-.95.42-1.66.73.6-1.12.67-2.19,1.3-3.12.49-.71.72-1.59,1.08-2.38.36-.79.67-.55.81-1.52.1-.72.81-1.34,1.17-2.04.43-.85,1.23-1.49,1.34-2.52.01-.13.26-.28.43-.33,1.31-.34,2.64-.45,4-.45,1.5,0,3.01-.07,4.49-.27,2.19-.3,4.39-.38,6.59-.47.62-.03,1.25.01,1.87.09,2.63.32,5.25-.06,7.87-.02.8.01,1.61-.09,2.4-.02,1.7.13,3.41.06,5.12.08.42,0,.62,0,.8.44.12.28.5.48.8.66.93.59,1.89,1.12,2.79,1.74.76.53,1.43,1.2,2.19,1.74.73.52,1.52.95,2.51,1.56Z"/>
      <path class="cls-2" d="M9.08,48.82c-.91,1.55-1.87,3.06-2.81,4.59-.23,1.12-.69,2.1-1.39,2.93,0,0,0,0,0,0-1.02,1.67-2.08,3.3-3.05,4.99-.69,1.2-1.44,2.4-1.83,3.7.4.58.71,1.17,1.07,1.7,0-.01.02-.03.03-.04l1.57.97c3.53,2.17,7.05,4.36,10.6,6.5.58.35,3.95,2.11,4.31,2.25.96.38,1.53,1.27,2.34,1.84,1.09.77,2.27,1.43,3.42,2.12,1.32.8,2.3,2.04,3.72,2.75,1.35.69,2.66,1.5,3.88,2.4.59.44,4.49,3.14,4.99,3.46,3.53,2.17,7.1,4.28,10.58,6.54,2.89,1.87,5.91,3.49,8.98,4.99,1.28.63,2.48,1.43,3.79,1.91.96.35,1.82.8,2.69,1.29.29.17,2.93,1.74,3.34,2.08,1.51,1.23,3.47,1.55,5.05,2.64,1.55,1.07,4.08,2.42,4.48,2.54,2.19.69,3.81-.46,4.41-.5,1.96-.14,3.85.19,5.81-.03,3.48-.4,4.85-1.43,10.45-1.26,1.79.06,3.57-.09,5.34-.21,1.79-.12,2.72-.49,4.51-.72.41-.05,1.48.21,2.17.18s1.9.12,2.64-1.15c1.38-2.37,2.83-4.7,4.33-7,1.47-2.26,2.61-4.73,4.49-6.73.68-.73,1.3-1.65,1.43-2.82.09-.84,4.94-7.75,5.07-8.72.12-.91.72-1.69,1.03-2.56.4-1.12,1.26-2.08,1.85-3.14.56-1.03,1.04-2.11,1.54-3.17.84-1.82,2.4-3.12,3.41-4.81,1.19-1.99,2.44-3.94,3.63-5.93.41-.7,1.07-1.29.99-2.24-.02-.24.16-.82.38-.9.79-.27,1.11-.83,1.44-1.44,1.42-2.57,3.38-4.83,4.36-7.68.2-.59.71-.55,1.34-1.56.63-1.01,2.13-3.42,3.14-5.16.12-.21-.02-.76-.22-.94-.45-.4-1.05-.63-1.53-.99-.45-.35-2.98-1.88-3.49-2.14-1.8-.93-3.38-2.22-5.34-2.92-1.65-.59-2.97-2-4.76-2.43-3.85-2.25-7.53-4.79-11.57-6.75-2.67-1.3-5.14-3.04-7.65-4.66-2.52-1.62-5.14-3.08-7.52-4.96-2.23-1.76-4.81-3.11-7.28-4.55-2.43-1.42-4.64-3.26-7.38-4.13-3.48-2.14-6.96-4.29-10.44-6.42-.4-.24-.73-.5-1.31-.39-1.87.34-3.76.06-5.63-.03-.28-.01-.54-.25-.81-.25-3.24.03-6.47-.28-9.7-.43-4.29-.2-8.58-.56-12.87-.81-3.05-.17-6.1-.36-9.16-.53-.79-.05-1.58-.1-2.38-.11-.18,0-.43.1-.54.24-.32.44-.55.95-.89,1.38-.35.45-.86.78-1.17,1.25-.94,1.43-1.8,2.9-2.7,4.35-.93,1.51-1.82,3.04-2.79,4.51-.92,1.38-1.99,2.67-2.89,4.06-1.3,1.99-6.41,10.39-7.66,12.41-1.25,2.03-2.41,4.11-3.76,6.06-1.35,1.94-2.03,4.21-3.32,6.16-.64.97-1.51,1.9-1.75,2.97-.28,1.26-2.25,4.14-3,5.42ZM145.74,44.37c-.3.65-.63,1.29-1,1.9-4.4,7.17-8.8,14.34-13.24,21.49-.87,1.41-1.99,2.66-2.88,4.06-.59.93-.94,2.02-1.46,3-.52.96-1.38,1.81-1.65,2.83-.34,1.27-1.21,2.18-1.66,3.33-.49,1.23-5.03,8.74-5.44,10.02-.36,1.13-1.21,2.1-1.84,3.14-.81.12-.94.87-1.28,1.4-1.18,1.85-2.33,3.72-3.45,5.61-.32.54-.91.98-.71,1.78.05.21-.23.64-.46.75-1.08.52-1.35,1.64-1.92,2.52-.31.48-.59.47-1.1.5-3.12.14-6.23.42-9.35.58-1.99.1-3.97.16-5.92.59-.88.2-1.84.07-2.75.16-1,.1-1.99.31-2.98.43-1.95.23-3.89.55-5.89.5-1.23-.03-2.51-.05-3.8.15,1.01-1.99,1.83-4.03,3.04-5.89,1.04-1.59,1.52-3.5,2.7-5.03.39-2.02,1.61-3.67,2.83-5.16,2.36-2.87,3.97-6.19,6.01-9.24.48-.72,1.17-1.39,1.07-2.39,0-.05.05-.11.09-.16.52-.62,1.05-1.24,1.57-1.86.49-.58.6-1.46,1.4-1.81.15-.06.27-.22.36-.37,1.03-1.66,6.21-9.57,6.9-11.36.6-1.54,1.48-2.86,2.3-4.22.49-.82.77-1.7,1.13-2.57.35-.86,1.13-1.5,1.18-2.56.02-.48.57-.92.81-1.41.46-.95,1.41-1.66,1.36-2.86,0-.2.19-.5.37-.61,1.19-.66,1.62-1.91,2.2-2.98.92-1.68,2.29-2.15,4.08-2.25,2.61-.16,5.22-.34,7.82-.66,2.47-.31,4.97-.49,7.46-.63,2.92-.16,5.86-.17,8.78-.36,1.05-.07,2.07-.46,3.16-.48,1.62-.04,2.22-.03,2.15.11ZM115.14,25.45c4.18,2.78,8.85,4.7,12.98,7.57.4.28.82.53,1.25.77,2.15,1.19,4.21,2.58,6.47,3.47,1.82.71,3.35,1.83,5.01,2.76,1.19.67,2.61.85,3.66,1.79.17.15.38.24.74.46-4.25.58-8.27.94-12.3.98-1.98.02-3.92.31-5.88.44-2.02.13-4.03.35-6.05.48-1.44.09-2.9.29-4.35.41-.94.08-1.86.28-2.8.38-.63.06-1.25.04-1.83-.35-1.17-.77-2.35-1.53-3.58-2.2-1.2-.66-2.25-1.53-3.6-2-1.29-.45-2.45-1.29-3.61-2.05-.78-.51-1.43-1.2-2.19-1.74-.74-.53-1.74-.81-2.28-1.48-.92-1.12-2.21-1.6-3.3-2.4-1.04-.77-2.28-1.23-3.15-2.3-.42-.51-1.12-1.15-2.03-.93-1.25-.75-2.5-1.5-3.74-2.27-.07-.04-.12-.25-.07-.31.09-.13.28-.34.38-.31,1.07.3,2.05-.31,3.12-.27,1.04.04,2.1-.32,3.16-.43,2.31-.24,4.64-.37,6.94-.68,1.39-.19,2.77-.32,4.17-.39,2.34-.12,4.68-.32,7.03-.08,1.01.11,2.06.19,3.06.05,1.07-.16,1.94.04,2.82.63ZM102.91,17.32c.12.28.5.48.8.66.93.59,1.89,1.12,2.79,1.74.76.53,1.43,1.2,2.19,1.74.73.52,1.52.95,2.51,1.56-3.97-.19-7.61-.18-11.25.19-1.5.15-2.99.41-4.5.45-1.47.04-2.94.3-4.4.61-1.41.3-2.89.3-4.33.43-.11.01-.23-.09-.33-.07-1.83.34-3.65.67-5.47,1.04-.26.05-.54.25-.7.46-.48.66-.95,1.3-1.55,1.89-1.03,1.04-1.48,1.48-2.38,2.65-.42.55-.96,1.01-1.36,1.56-.43.59-.73,1.28-1.18,1.85-.31.39-.77.66-1.24,1.05-.25-1.07-.51-2.1-.74-3.14-.09-.4-.25-.5-.7-.57-1.23-.2-2.01.68-3.02,1.01-.16.05-.46.28-.45-.19.01-.46-.02-.91,0-1.37.07-2.32-.06-2.43-2.29-1.76-.49.15-.95.42-1.66.73.6-1.12.67-2.19,1.3-3.12.49-.71.72-1.59,1.08-2.38.36-.79.67-.55.81-1.52.1-.72.81-1.34,1.17-2.04.43-.85,1.23-1.49,1.34-2.52.01-.13.26-.28.43-.33,1.31-.34,2.64-.45,4-.45,1.5,0,3.01-.07,4.49-.27,2.19-.3,4.39-.38,6.59-.47.62-.03,1.25.01,1.87.09,2.63.32,5.25-.06,7.87-.02.8.01,1.61-.09,2.4-.02,1.7.13,3.41.06,5.12.08.42,0,.62,0,.8.44ZM48.77,2.23c2.49.18,4.97.36,7.47.36,2.19,0,4.38.35,6.58.55,1.07.09,2.18.39,3.2.2,1.34-.24,2.64.32,3.97-.03.48-.12,1.08.33,1.64.35,1.42.04,2.81.26,4.22.33,1.36.08,2.73.05,4.09.11.33.01.69.13.97.3,1.77,1.07,3.52,2.18,5.3,3.24.54.32.99.95,1.77.69.07-.02.24.09.3.18.99,1.34,2.73,1.43,3.97,2.39,1.3,1,2.75,1.8,4.19,2.6.85.47,1.94.49,2.8,1.52-2.05.03-3.95-.01-5.83.09-2.91.16-5.8-.01-8.7-.16-1.6-.08-3.23.19-4.84.32-1.79.15-3.59.33-5.38.47-.92.07-1.85,0-2.75.16-.7.13-1.38.15-2.07.05-.11-.02-.23,0-.34-.04-.49-.15-.63.8-1.23.37-.87-.63-1.8-1.18-2.62-1.86-1.06-.88-2.14-1.68-3.47-2.08-.86-.25-6.42-3.89-7.17-4.45-1.24-.92-2.57-1.74-3.95-2.44-.31-.16-.76-.26-1.1-.46-.84-.49-1.65-1.04-2.5-1.52-.5-.28-.89-.76-1.62-.62-.29.06-.68-.38-.94-.86,1.34.07,2.69.12,4.03.22ZM21.01,30.9c2.8-3.22,8.33-13.56,10.89-16.9,1.47-1.92,2.7-3.95,4-5.96,1.29-2,2.5-4.04,3.75-6.07.91.33,1.67.6,2.43.88.77.27,1.25,1.21,2.25.96.08-.02.21.11.31.18,1.81,1.43,4.07,2.01,6,3.24,4.27,2.71,8.62,5.31,12.91,7.99.99.62,2.15,1.02,2.84,2.12.19.3.78.35,1.29.56-1.4,1.73-1.65,3.11-2.85,5.04-.68,1.1-1.26,2.34-1.55,3.67-.1.45-.4.89-.7,1.25-.7.85-.87,1.93-1.31,2.88-.35.78.24,1.41,1.11,1.2,1.1-.26,2.16-.62,3.38-.97.01.68.05,1.41.03,2.14-.02,1.01.53,1.58,1.47,1.4.81-.16,1.62-.32,2.34-.79.32-.22.7-.15.8.36.21,1.1.58,2.14,1.21,3.09.18.27.17.61.69.43.8-.28,1.45-.65,1.94-1.39.48-.73,1.14-1.33,1.64-2.04.53-.74.86-1.65,1.47-2.31,1.21-1.28,2.12-1.65,3.04-3.17.22-.37.64-.64.99-.92.1-.08.37-.09.46-.01,1.31,1.09,3.05,1.34,4.44,2.28,1.01.68,2.05,1.32,3.11,1.92,2.14,1.22,3.82,3.11,6.06,4.17,1.46,1.66,3.49,2.51,5.29,3.68,1.84,1.19,3.73,2.31,5.6,3.46,1.7,1.05,3.41,2.1,5.19,3.2-1.54,2.5-3.01,4.95-4.55,7.35-.52.81-.8,1.69-1.14,2.56-.34.87-1.24,1.49-1.14,2.56,0,.1-.12.21-.18.31-1.43,2.22-2.25,4.78-3.82,6.93-.61.83-4.95,8.14-5.56,8.98-5.41,7.42-9.78,15.49-14.69,23.22-.59.93-.93,2.03-1.46,3.01-.55,1.02-1.47,1.91-1.75,2.98-.47,1.75-1.73,2.99-2.45,4.73-.55-.34-1.03-.57-1.44-.9-1.62-1.28-3.64-1.78-5.37-2.86-1.76-1.1-3.44-2.38-5.32-3.2-1.5-.65-2.78-1.64-4.26-2.21-1.18-.46-2.18-1.26-3.33-1.63-2.4-.78-4.27-2.44-6.44-3.59-1.9-1.01-3.98-1.79-5.63-3.11-3.62-2.88-7.86-4.77-11.52-7.53-2.02-1.53-4.34-2.61-6.22-4.25-1.89-1.64-4.07-2.75-6.12-4.1-2.04-1.34-4.04-2.81-6.25-3.8-3.61-1.61-6.75-3.98-10.16-5.9-.76-.43-.98-1.09-.5-1.82,1.22-1.86,1.88-3.99,3.11-5.86,2.28-3.46,4.4-7.03,6.54-10.59.67-1.11,1.12-2.34,1.75-3.47.65-1.17,1.63-2.21,2.04-3.45.66-1.99,1.99-3.54,2.92-5.35.4-.78.66-1.62,1.07-2.39.39-.76.79-1.54,1.35-2.17Z"/>
      <g>
        <path class="cls-6" d="M60.4,72.55c-2.86,3.93-6.29,4.74-10.57,1.48-.42-.32-.82-.71-1.14-1.14-.98-1.28-1.67-3.09-2.95-3.73-1.19-.59-2.94-.4-4.43-.68-2.25-.43-4.29-1.28-6.11-2.65-3.25-2.44-3.61-7.1-.8-9.95.19-.19.36-.41.58-.55.55-.36,1.17-.63,1.72-.1.63.6.56,1.36-.07,1.89-1.71,1.44-1.86,3.13-1.03,5.08.3.69.75,1.21,1.29,1.69,1.99,1.8,4.57,2.17,7.01,2.35,2.59.2,4.75-4.21,3.22-6.38-1.69-2.39-2.09-4.83-1.26-7.62.49-1.62,1.54-2.36,3.06-2.61,2.46-.4,4.83.11,7.09,1.03,1.34.54,1.85,1.9,2.38,3.12,1.97,4.54-1.01,8.97-5.89,8.69-1.27-.07-2.07.14-2.4,1.46-.1.42-.4.8-.66,1.16-1.67,2.4-1.68,2.72.23,4.98.75.89,1.49,1.89,2.46,2.46,2.95,1.73,4.89,1,6.44-2.24.38-.79.45-1.73.66-2.6.19-.79.6-1.37,1.49-1.17.83.19,1.13.92,1,1.68-.26,1.5-.44,3.03-1.3,4.35ZM50.32,58.93c1.43.92,3.77,1.13,4.65.3,1.04-.98,1.24-2.34,1.02-3.69-.3-1.86-1.67-2.85-4.12-3.15-3.03-.37-4.46,1.53-3.29,4.38.38.93.93,1.73,1.75,2.15Z"/>
        <path class="cls-6" d="M71.33,41.78c3.45,2.95,5.63,6.66,6.61,11.06.2.87.24,1.78-.1,2.64-.25.63-.7,1.03-1.44.95-.62-.07-.96-.49-1.06-1.04-.15-.79-.14-1.6-.32-2.38-.73-3.11-2.24-5.81-4.43-8.13-.43-.45-.88-.89-1.23-1.4-.44-.64-.56-1.39.09-1.94.64-.53,1.33-.37,1.88.24Z"/>
        <path class="cls-6" d="M40.12,33.33c.6-.88,1.49-1.37,2.51-1.32,3.95.21,7.83-.37,11.71-.92.26-.04.54-.05.8-.01.58.08.97.41,1.09,1.01.11.59-.06,1.1-.6,1.36-.56.27-1.16.53-1.76.59-3.18.36-6.33,1.14-9.58.77-.88-.1-1.74-.14-2.52.53-.56.48-1.35.62-1.92-.08-.56-.69-.2-1.34.27-1.94Z"/>
        <path class="cls-6" d="M45.66,45.35c-1.66-.98-2.18-2.96-1.2-4.64.86-1.48,3.39-1.77,5.28-.6,1.47.91,1.87,2.71.92,4.18-1,1.56-3.32,2.04-4.99,1.05Z"/>
        <path class="cls-6" d="M68.04,50.88c2.05,1.35,2.45,2.76,1.26,4.44-1,1.41-3.24,1.97-4.51,1.12-1.38-.92-1.95-3.76-1.01-5.05.94-1.3,2.73-1.52,4.27-.51Z"/>
        <path class="cls-3" d="M50.32,58.93c-.81-.43-1.37-1.22-1.75-2.15-1.16-2.85.27-4.75,3.29-4.38,2.44.3,3.81,1.29,4.12,3.15.22,1.35.03,2.71-1.02,3.69-.88.82-3.22.62-4.65-.3Z"/>
      </g>
    </g>
  </g>
</svg>