<?xml version="1.0" encoding="UTF-8"?>
<svg id="_レイヤー_2" data-name="レイヤー 2" xmlns="http://www.w3.org/2000/svg" viewBox="0 0 348 348">
  <defs>
    <style>
      .cls-1 {
        fill: #e6e6e6;
        stroke-width: 0px;
      }
    </style>
  </defs>
  <g id="design">
    <path class="cls-1" d="M348,174c0,11.35-9.04,21.67-11.16,32.4-2.19,11.06,2.17,24.03-2.04,34.21s-16.59,16.43-22.75,25.62c-6.21,9.27-7.15,22.95-15.01,30.81s-21.54,8.8-30.81,15.01-15.28,18.46-25.62,22.75-23.15-.14-34.21,2.04-21.05,11.16-32.4,11.16-21.67-9.04-32.4-11.16-24.03,2.17-34.21-2.04-16.43-16.59-25.62-22.75c-9.27-6.21-22.95-7.15-30.81-15.01s-8.8-21.54-15.01-30.81-18.46-15.28-22.75-25.62c-4.22-10.17.14-23.15-2.04-34.21-2.12-10.73-11.16-21.05-11.16-32.4s9.04-21.67,11.16-32.4c2.19-11.06-2.17-24.03,2.04-34.21s16.59-16.43,22.75-25.62c6.21-9.27,7.15-22.95,15.01-30.81,7.86-7.86,21.54-8.8,30.81-15.01s15.28-18.46,25.62-22.75,23.15.14,34.21-2.04S162.65,0,174,0s21.67,9.04,32.4,11.16,24.03-2.17,34.21,2.04,16.43,16.59,25.62,22.75c9.27,6.21,22.95,7.15,30.81,15.01s8.8,21.54,15.01,30.81,18.46,15.28,22.75,25.62-.14,23.15,2.04,34.21c2.12,10.73,11.16,21.05,11.16,32.4Z"/>
  </g>
</svg>