<?xml version="1.0" encoding="UTF-8"?>
<svg id="_レイヤー_2" data-name="レイヤー 2" xmlns="http://www.w3.org/2000/svg" viewBox="0 0 193 145.97">
  <defs>
    <style>
      .cls-1 {
        fill: #231815;
      }

      .cls-1, .cls-2, .cls-3, .cls-4, .cls-5, .cls-6, .cls-7, .cls-8, .cls-9, .cls-10, .cls-11, .cls-12, .cls-13, .cls-14, .cls-15, .cls-16, .cls-17, .cls-18, .cls-19, .cls-20 {
        stroke-width: 0px;
      }

      .cls-2 {
        fill: #70cbf9;
      }

      .cls-3 {
        fill: #eee31b;
      }

      .cls-4 {
        fill: #f4e81b;
      }

      .cls-5 {
        fill: #daf2f6;
      }

      .cls-6 {
        fill: #00f5f5;
      }

      .cls-7 {
        fill: #00fdfd;
      }

      .cls-8 {
        fill: #0e090a;
      }

      .cls-9 {
        fill: #faa2ad;
      }

      .cls-10 {
        fill: #f4f4f4;
      }

      .cls-11 {
        fill: #f8fcfe;
      }

      .cls-12 {
        fill: #73cefc;
      }

      .cls-13 {
        fill: #f7931e;
      }

      .cls-14 {
        fill: #00f8f8;
      }

      .cls-15 {
        fill: #f03c3c;
      }

      .cls-16 {
        fill: #8debfa;
      }

      .cls-17 {
        fill: #00f0f0;
      }

      .cls-18 {
        fill: #994729;
      }

      .cls-19 {
        fill: #5d5856;
      }

      .cls-20 {
        fill: #def7fb;
      }
    </style>
  </defs>
  <g id="design">
    <g>
      <path class="cls-1" d="M68.22,28.15h9.82c.72-.94,1.37-1.71,1.92-2.54,1.95-2.95,4.74-4.32,8.22-4.53,1.29-.08,2.58-.55,3.86-.55,1.18,0,2.57.08,3.49.7,2.81,1.87,5.49,3.97,8.12,6.09.92.74,1.59,1.32,2.94.93.97-.28,2.13.08,3.21.19,1.73.18,3.45.38,5.44.6-.11-.76-.2-1.31-.27-1.86-.19-1.5-.61-3.01-.49-4.49.19-2.43.28-5.02,1.21-7.2,2.24-5.22,4.53-10.71,9.93-13.47,3.82-1.94,8-3.3,12.14-.13,1.65,1.27,3.68,2.04,5.41,3.21,2.01,1.36,2.79,3.67,3.85,5.71.78,1.49,1.32,3.15,1.69,4.8.5,2.23.66,4.42-.02,6.8-.92,3.22-1.13,6.63-1.66,9.96-.08.49-.22.97-.36,1.59,3.19.26,6.17-.57,9.06-1.76,3.89-1.6,10.03.41,11.91,3.99,1.74,3.3,1.47,4.58-1.22,7.06-1.45,1.33-3.06,2.15-4.98,2.57-1.57.34-2.23,1.4-1.55,2.64,1.4,2.56,1.18,5.45,1.98,8.12,1.03,3.43,1.72,6.96,2.78,10.37.56,1.8,1.62,3.45,2.53,5.34.31,0,.92.08,1.49-.02,1.39-.23,2.5.39,3.22,1.36,1.86,2.48,4.47,4.43,5.5,7.53.06.18.27.3.54.59.65-.38,1.28-.91,2-1.14,2.24-.74,4.32.29,6.18,1.96,1.98,1.78,2.18,4.18,2.9,6.36.51,1.52-.21,3.17-1.07,4.59-.4.67-.86,1.31-1.39,2.1.87.65,1.54,1.27,2.32,1.71,2.55,1.43,3.48,3.79,3.89,6.47.72,4.6-.5,8.91-2.44,12.96-1.04,2.17-2.86,3.75-5.37,4.56-9.3,3.01-17.57,1.24-25.06-4.92-2.56,1.05-5.17,2.1-8.17,1.73-1.12-.14-2.47.08-3.46.62-3.63,1.98-7.62,2.98-11.56,3.67-3.82.67-7.34,2.68-11.34,2.44-.36-.02-.85.15-1.09.4-1.69,1.79-3.89,1.89-6.12,1.98-.81.03-1.81-.12-2.4.28-3.12,2.14-6.74,1.39-10.41,1.84-.29,1.46-.61,2.91-.86,4.37-.16.89-.17,1.81-.33,2.7-.64,3.55-2.79,5.77-6.12,6.97-1.38.5-2.72,1.13-4.09,1.66-4.52,1.76-8.85.89-12.6-1.74-2.95-2.07-5.28-4.96-5.64-8.88-.18-1.92-.33-3.84-.5-5.77-1.66-.52-3.13-.59-4.82-.37-2.37.32-4.83-.06-7.25-.15-1.01-.04-2.01-.14-3.01-.2-2.27-.14-4.54-.28-6.74-.41.07,1.65.18,3.3.2,4.96.03,3.7-.36,4.55-3.58,5.64-2.58.87-5.29.75-8.02-.41-3.51,2.42-7.4,4.41-12.11,3.63-.65-.11-1.44-.35-1.85-.81-2.14-2.4-4.18-4.89-6.34-7.46-3.41,1.07-5.24-1.68-7.17-4.02-2.68-3.24-1.13-6.39.18-9.13-.36-2.05-.55-3.82-1.02-5.51-.58-2.09-1.31-4.15-2.15-6.16-1.43-3.43-3.1-6.72-3.46-10.55-.21-2.23-1.37-4.36-1.84-6.59-.83-3.92-2.15-7.66-3.71-11.34-.66-1.57-.98-3.27-.57-4.98.52-2.17-.13-4.15-.86-6.13-.31-.85-.68-1.69-.92-2.56-.33-1.24-.28-2.56.89-3.29,3.13-1.95,5.51-4.97,9.23-6.11,1.09-.33,1.98-1.42,2.87-2.25,2.33-2.19,4.67-4.29,7.95-5.06.87-.2,1.61-1.13,2.32-1.82,1.6-1.57,3.03-3.32,4.74-4.75,1.25-1.04,2.83-1.67,4.51-2.62-1.35-1.14-1.89-2.88-3.94-3.4-.83-.21-1.56-1.58-1.94-2.57-.66-1.71.29-2.88,2.21-3.07.59-.06,1.23-.21,1.77-.05,2.36.71,4.01-.38,5.44-2.03,1.83-2.11,4.4-2.14,6.85-2.5.43-.06.93.36,1.67.68-.11-.7-.26-1.23-.28-1.76-.12-3.21,1.78-5.87,5.22-7.39.37-.16.75-.28,1.11-.46,3.16-1.61,5.88-1.26,8.26,1.58,1.18,1.42,2.91,2.12,4.76,2.42,3.16.5,4.2,1.73,4.27,5.03,0,.4.08.8.14,1.44ZM44,115.99c.73.84,1.2,1.75,1.95,2.15,1.56.84,1.88,2.32,2.25,3.74.6,2.28,1.11,2.78,3.46,2.86,3.31.12,6.65.01,9.92.45,4.65.62,9.26.05,13.33.19,1.29-2.06,2.19-3.86,3.42-5.39,1.92-2.39,4.2-4.02,7.43-4.82,2.28-.56,4.53-1.31,7.08-1.49.2-3.23-.67-6.2-1.52-9.16-.41-1.43-1.22-2.76-1.56-4.2-.82-3.5-1.47-7.04-2.21-10.67-2.17-.04-4.33,1.33-6.37-.54-1.85-1.7-2.69-3.63-2.4-6.04-1.48-.51-2.79-.97-3.7-1.28-1.83,1.47-3.4,2.84-5.1,4.05-1.39.99-2.96,1.62-4.77,1.33-.7-.11-1.45-.11-2.15,0-2.13.32-3.74-.73-5.21-1.98-2.1-1.8-3.23-2.44-5.85-2.41-2.29.02-3.94-.9-4.88-2.91-.95-2.02-.53-3.98,1.1-5.44.99-.89,1-1.61.48-2.65-.35-.7-.55-1.47-.92-2.52-1.83,0-3.67-.2-5.44.08-1.02.16-1.93.23-2.85-.11-.98-.36-1.9-.35-2.89-.09-.65.17-1.37.09-2.05.15-2.9.26-5.57-1.11-8.37-1.23-4.98-.21-9.98-.18-14.96-.1-2.29.04-4.57.46-6.53.67.13,2.08.66,3.97.26,5.64-.57,2.36.13,4.3.89,6.37.98,2.65,1.96,5.3,2.74,8.01.5,1.72.28,3.73,1.07,5.26.69,1.33.93,2.6,1.16,3.98.16.98.45,1.94.8,2.87,1.15,3.09,2.34,6.17,3.55,9.33.74-.34,1.54-.48,1.98-.95,1.04-1.12,2.34-1.36,3.64-1.05,1.76.42,2.61-.42,3.45-1.74,1.38-2.16,3.86-3.09,6.27-2.2,1.66.62,3.17,1.64,4.77,2.5,2.91-.61,5.79-.88,7.91,2.2.24.35.75.65,1.2.86,0,0,1.21,4.24-.37,6.31ZM147.73,97.02c-.79-4.31,1.05-5.89,5.74-7.79-1.16-2.72-.86-5.47.78-7.79,1.55-2.18,2.55-4.85,4.93-6.36,1.51-.96,3.14-1.72,5.07-2.76-.77-1.54-1.79-2.97-2.21-4.55-1.3-4.93-3.37-9.67-3.73-14.83-.05-.69-.27-1.41-.57-2.03-.51-1.03-1.09-1.68-2.58-1.17-2.95,1.02-5.99,1.77-9.03,2.51-1.94.47-3.53,1.38-4.9,2.83-.83.88-1.73,2.02-2.8,2.28-3.19.8-6.28,2.01-9.71,1.97-1.83-.03-3.83.63-5.46,1.51-3.89,2.09-7.88,3.44-12.34,3.48-1.68.01-3.5.25-4.99.95-1.97.91-3.78,2.24-5.48,3.61-2.2,1.79-4.6,2.78-7.41,2.73-.95-.01-1.91-.13-3.18-.22.96,2.91.59,5.36-1.2,7.27.6,1.69,1.48,3.24,1.63,4.86.15,1.66-.9,3.5-.53,5.05.38,1.62.97,3.19,1.26,4.89.37,2.12.36,4.3,1.45,6.37,1.97,3.74,2.9,7.88,3.31,12.09.3,3.07,2.01,5.57,3.22,8.23.97,2.12,2.77,3.88,4.29,5.71.4.49,1.19,1,1.76.95,3.16-.29,6.45.35,9.44-1.35.83-.48,1.9-.56,2.88-.76,1.84-.39,3.88-.07,5.46-1.44.98-.85,2.14-.92,3.35-1.1,1.76-.25,3.67-.47,5.14-1.34,1.04-.62,2.02-.97,3.08-.99,5.02-.07,9.49-1.86,13.85-3.83-.82-2.71-1.78-5.06-1.24-7.8.49-2.49,1.89-4.15,3.65-5.2-.86-1.5-1.59-2.77-2.31-4.05-.05-.68.47-1.54-.59-1.91ZM109.04,49.93c-.68-1.63-1.49-3.15-1.95-4.78-.68-2.39-1.03-4.88-1.68-7.28-.47-1.73-1.26-3.38-1.79-5.1-1.48-4.73-6.27-6.03-9.37-9.08-.18-.18-.59-.24-.88-.2-3.84.58-7.65.15-10.97,3.67-3.34,3.54-3.31,7.88-4.96,11.79-.04.08-.02.21.02.3,1.12,2.8,1.95,5.88,4.61,7.63,1.65,1.09,3.13,2.32,4.18,3.88,1.24,1.82,3.04,2.88,4.56,4.31,2.15,2.01,4.27,2.23,6.88,1.26,2.79-1.04,5.65-1.91,8.48-2.81,3.34-1.07,6.73-1.99,10.03-3.17,2.63-.95,5.09-2.41,7.74-3.27,3.8-1.22,7.7-2.05,11.27-4,1.74-.95,3.79-1.31,5.81-1.97,2.01-4.4,3.69-9,3.89-14.07.08-2.08.74-4.14,1.14-6.21.17-.88.77-1.95.47-2.62-1.84-4.08-1.98-9.22-6.9-11.46-.33-.15-.45-.71-.77-.92-2.17-1.46-4.23-3.15-7.17-2.61-3.57.65-6.67,1.78-8.76,5.17-2.78,4.5-5.6,8.9-5.42,14.47.04,1.15-.09,2.36.21,3.44,1.19,4.21,2.48,8.4,3.82,12.56.85,2.63,1.7,5.2-.57,8.02-3.35.95-7.09,2.01-10.83,3.06-.19.05-.41,0-1.07,0ZM86.49,55.68c-1.89-2.32-3.2-4.72-5.75-5.95-.53-.25-1.18-.34-1.78-.35-2.78-.03-5.56-.89-8.35.13-.7.26-1.61-.1-2.42-.12-2.48-.07-4.96-.15-7.44-.14-.44,0-.94.33-1.3.64-1.92,1.58-3.76,3.26-5.7,4.81-3.15,2.52-6.87,2.54-10.65,2.28-2.78-.19-5.1-1.09-6.72-3.54-.53-.8-1.48-1.32-2.16-2.04-1.17-1.22-2.36-1.95-4.21-1.4-1.52.45-3.1.18-4.34-.97-1.73,2.75-4.69,3.46-6.86,5.22-1.75-.34-2.69,1.07-3.53,2.04-1.99,2.31-4.62,3.61-7.22,4.85-1.62.77-2.16,1.84-2.57,3.32.42.23.68.51.93.5,3.25-.14,6.49-.21,9.7.47.65.14,1.39-.11,2.08-.18,3.24-.36,6.46-.63,9.71.21,2.34.6,4.91,1.49,7.16,1.07,4.25-.78,8.36.33,12.72-.12.5-2.02,2.12-3.15,4.17-4.04,2.04-.89,4.03-.55,5.75-.2.79-1.99,1.33-3.84,2.24-5.49.88-1.62,2.84-1.62,4.36-2.3,2.58-1.15,5.12-1.11,7.55.12,1.68.85,3.31,1.96,4.66,3.26.83.81,1.09,2.21,1.65,3.46,1.25-1.61,5.1-4.17,8.34-5.53ZM159.67,104.46c-.23,1.74,1.01,7.9,2.15,9.56.22.33.54.6.85.85,6.21,5.05,13.15,6.15,20.75,3.84,1.93-.59,3.47-1.4,4.1-3.51.49-1.64,1.38-3.16,1.82-4.81,1.12-4.2,1.16-8.18-2.62-11.34-2.61-2.18-5.26-3.72-8.89-3.87-3.46-.14-6.53.86-9.76,1.59-2.18.49-3.64,1.54-4.77,3.47-.84,1.43-2.18,2.57-3.62,4.22ZM164.02,95.17c.57,0,.92.1,1.17-.01,5.84-2.62,11.83-3.69,18.15-1.89.52.15,1.38-.19,1.83-.6,2.05-1.87,2.18-5.56.37-7.65-2.47-2.86-5.04-2.96-7.77-.29-.22.21-.35.52-.58.71-1.22.94-2.73.45-2.64-1.02.15-2.67-1.07-4.57-2.7-6.47-2.69-3.13-4.13-3.67-7.87-2.36-1.09.38-2.3.84-3.07,1.63-1.46,1.5-2.73,3.22-3.92,4.95-.61.89-1.05,1.98-1.25,3.05-.32,1.66.26,2.95,1.5,3.23,3.65.81,5.63,3.24,6.8,6.72ZM61.04,34.71c-1.61-.23-2.84-.08-4.13.86-1.27.93-2.81,1.72-4.34,1.99-2.7.47-5.51.42-7.24,3.1-.12.19-.59.13-.86.26-2.61,1.24-5.16,1.54-7.47-.53-.43.75-.65,1.5-1.14,1.95-1.06.94-1.02,2.13-1.14,3.36-.23,2.35,1.53,3.5,2.68,5.11,1.27,1.78,2.73,3.01,4.87,3.17,2.08.16,4.3.47,6.25-.05,3.56-.95,6.58-2.99,8.68-6.17.32-.48.67-1,1.13-1.32,1.75-1.2,2.82-2.7,3.1-4.9.3-2.32-.17-4.51-.39-6.83ZM17.98,121.07c-2.09,2.55-2.32,4.68-.51,7.15,1.93,2.62,4.39,2.83,6.05.04.85-1.44,1.75-2.66,3.26-3.53,1.28-.73,2.43-1.76,3.46-2.82,1.47-1.52,3.26-1.71,5.07-1.28,2.8.67,5.32,2.01,7.51,3.9.42.36.91.63,1.36.93,2.72-4.95-1.04-6.57-4.3-8.38.44-.85.72-1.5,1.09-2.1,1.71-2.79,1.58-2.67-.43-5.2-1.11-1.4-2.32-.85-3.07-.95-1.09,1.07-1.77,2.28-2.69,2.49-1.31.31-1.58-1.01-2.01-2.14-.88-2.29-3.86-3.42-5.76-2.19-.99.64-1.52,1.98-2.25,3,.4.54.67.97,1.01,1.33,2.25,2.37,1.93,4.9.59,7.58-.67,1.34-1.63,2.11-3.09,2.16-1.8.07-3.61.02-5.29.02ZM83.68,118.44c-1.18,1.29-2.6,2.64-3.75,4.19-.83,1.12-1.8,2.5-1.82,3.77-.05,4.32-.19,8.68,2.83,12.42,2.08,2.58,4.64,3.68,7.96,3.92.13-.54.12-.98.32-1.29,1.92-3.06,3.66-6.22,4.47-9.75.33-1.43.45-3.1.02-4.47-1.46-4.68-4.68-7.62-10.02-8.79ZM61.76,70.9c3.61-1.52,6.67.19,9.65,2.32,1-1.38,1.88-2.73,2.9-3.95,1.94-2.34,1.37-4.92.84-7.5-.32-1.57-1.16-2.88-2.54-3.65-2.04-1.15-4.18-2-6.64-1.83-3.79.26-6.72,4.06-5.88,7.8.5,2.23,1.08,4.44,1.66,6.83ZM32.14,138.55c5.61-.12,8.41-1.84,10.41-6.35.5-1.14,1.3-2.49.41-3.77-2.22-3.18-5.46-4.64-9.22-5.04-.56-.06-1.23.21-1.75.5-2.61,1.45-4.87,3.35-6.63,5.76-.73,1-1.15,2.1-.03,3.26.97,1.01,1.96,2.09,2.61,3.31,1.07,2.01,2.58,2.72,4.2,2.32ZM63.79,84.45c2.43.81,4.35-.52,6.22-1.67,2.3-1.42,2.29-2.18,1.27-4.66-.64-1.55-1.79-2.6-2.86-3.74-1.28-1.37-2.88-1.67-4.73-1.26-2.9.63-4,3.11-5.43,5.19-.89,1.29-.53,2.59.48,3.87,1.33,1.7,2.7,2.98,5.05,2.28ZM83.01,68.48c-4.07.2-7.17,1.89-8.71,5.92-.64,1.66-.22,3.54,1.24,4.37,2.41,1.38,4.84,1.87,7.65.64,1.95-.85,2.88-2.65,4.59-3.74,0-.25,0-.54,0-.83,0-2.17-.08-4.21-2.94-4.69-.66-.11-1.17-1.05-1.82-1.67ZM126.76,56.18c6.45.3,10.96-1.23,12.84-4.38-1.56-1.48-3.11-3.01-4.75-4.45-.31-.27-1-.36-1.42-.23-3.02.87-6.02,1.82-9.11,2.76.88,2.26,1.63,4.2,2.44,6.29ZM89.3,117.24c2.13,1.62,3.71,3.03,5.09,4.77,1.81,2.27,2.7,4.62,2.73,7.43.03,3.58-1.41,6.71-2.99,9.79-.43.84-.91,1.66-1.47,2.67,4.59-.25,7.01-1.91,8.23-5.41,1.04-2.99,1.31-6.19-.24-8.88-1.97-3.42-4.6-6.46-6.96-9.66-1-1.36-2.33-1.46-4.38-.71ZM124.27,56.99c-.76-1.81-1.58-3.77-2.33-5.57-4.17,1.27-7.95,2.42-11.99,3.65.24,2.32.46,4.39.67,6.42,5.09-.12,9.31-1.88,13.64-4.5ZM159.03,91.73c-2.26-.51-3.88.39-5.63.73-1.66.33-2.73,1.24-2.86,2.48-.15,1.35.2,3.24,1.1,4.09,1.39,1.32,3.38,2.09,5.22,2.83.53.21,1.57-.32,2.14-.8,1.08-.92,1.97-2.04,3.17-3.32-1.06-2.04-2.15-4.13-3.13-6.01ZM64.45,39.88c.06,2.62-.42,5.01-2.24,7.06,2.53.26,4.91-.95,7.53-.06,2.38.81,4.82-1.63,7.57-.45-1.02-2.42-1.91-4.52-2.76-6.55h-10.09ZM57.83,21.55c-1.94-1.85-3.94-2.24-6.01-1.19-1.8.91-4.12,1.48-4.23,4.13-.08,2.05.2,4.02,1.58,5.71.81.99,1.84.78,2.71.51,1.4-.44,2.71-1.18,4.18-1.85-.98-2.89.4-5.07,1.78-7.31ZM158.71,113.94c-.66-2.33-1.46-4.5-1.86-6.73-.38-2.09-1.2-3.51-3.37-3.8-.6.71-1.17,1.38-1.74,2.06-1.85,2.2-2.75,4.53-1.52,7.44.37.88.07,2.09,1.4,2.29.96.14,1.98.24,2.92.06,1.34-.27,2.63-.81,4.17-1.31ZM96.88,59.54c-2.63-.53-3.36-.36-5.3,1.35-2.09,1.85-4.18,3.72-6.22,5.54.88,2.58,3.34,1.44,4.97,2.21,1.87.89,4.02.1,5.92-.38.22-3,.43-5.85.64-8.72ZM164.21,41.33c-6.86-2.35-11.99-3.68-18.99-.94,3.72,1.72,7.63,3.52,11.62,5.36,1.46-2.86,5.14-2.03,7.37-4.42ZM76.63,30.28c-4.6,1.64-9.13-.54-12.58,1.97.17,1.87.3,3.39.46,5.15,3.6-.21,6.92-.4,10.57-.62.46-1.92.93-3.93,1.55-6.5ZM152.91,47.23c-.63-.56-1.01-1.1-1.52-1.31-2.14-.9-4.3-1.71-6.47-2.52-1.28-.48-2.38-.46-3.67.43-1.24.86-2.89,1.13-4.56,1.73,1.22,1.02,2.5,1.87,3.5,2.97,1.73,1.91,1.64,1.94,4.04,1.21,2.76-.84,5.54-1.6,8.69-2.51ZM108.43,37.55h10.12c-.8-2.17-1.5-4.07-2.11-5.73-3.55-.3-6.81-.58-10.27-.88.86,2.52,1.58,4.64,2.25,6.61ZM54.2,64.28c-2.37,0-3.76,1.53-3.36,3.88.23,1.35.49,2.87,1.28,3.91.7.93,2.09,1.51,3.28,1.83,1.01.27,2.24.04,2.79-1.19.28-.64.46-1.33.65-2,1.09-4.03-1.85-6.68-4.63-6.43ZM46.61,35.02c-2.16-5.64-4.47-6.68-8.64-4-.8.52-1.39,1.46-1.91,2.3-.23.37-.18,1.03-.05,1.5.91,3.22,5.04,5.15,7.93,3.45,1.18-.69,1.87-2.23,2.68-3.25ZM24.91,115.71c-.02-3.01-2.04-5.17-4.79-5.13-1.99.03-3.85,1.8-3.88,3.71-.04,2.51,2.32,4.98,4.73,4.96,2.13-.02,3.95-1.66,3.94-3.54ZM107.56,56.16c-.81.31-1.35.63-1.92.71-3.65.49-6.28,1.97-6.39,6.14-.03,1.03-.22,2.06-.43,3.83,2.9-2.94,5.72-4.52,8.97-5.36-.08-1.68-.15-3.28-.24-5.3ZM46.94,126.22c-.31.59-.89,1.32-1.09,2.15-.6,2.39-1.05,4.81-1.63,7.58,1.13,0,2.48-.04,3.83.01,1.56.06,2.84-.96,3.11-2.03.42-1.65.74-3.62-.63-5.17-.24-.27-.71-.31-1.02-.54-.81-.59-1.58-1.22-2.57-1.99ZM77.87,66.95c2.19-.82,4.5-.21,6.07-2.36.69-.94,1.74-1.61,2.57-2.45,1.25-1.26,2.47-2.56,3.89-4.04-5.63.46-11.75,4.66-12.54,8.85ZM64.66,24.52c-1.13-.16-2.31-.31-3.48-.48-1.34-.2-2.04.5-2.61,1.63-.8,1.57-.03,2.96.5,4.29.19.46,1.42.87,2.05.73,2.48-.54,3.96-3.2,3.53-6.17ZM165.57,38.92c.04-.73.23-1.29.06-1.45-.97-.86-1.92-1.85-3.07-2.36-3.49-1.56-7.49-.95-9.72,1.34,4.31-.05,8.39.75,12.73,2.47ZM81.33,83.26c.03,2.12,1.08,4.06,2.42,4.38.91.22,3.08-1.02,3.62-2.07.99-1.88.79-2.52-1.19-4.34-1.64.69-3.15,1.32-4.86,2.03ZM55.69,79.05c-2.17-4.48-3.52-4.38-6.71-1.69.81,1.12.71,2.73,2.67,3.23,2,.52,2.27-1.79,4.04-1.54ZM119.92,43.25c-.15-.18-.31-.35-.46-.53-3.31.73-6.64,1.38-9.39,3.73.93,1.13,1.76.64,2.62.32,2.06-.76,4.15-1.44,6.19-2.26.45-.18.71-.83,1.05-1.27ZM57.6,31.72c-3.19-.2-6.95,1.47-8,3.45,3.23.34,5.42-1.5,8-3.45ZM117.07,40.33h-7.99c.27,1.08.49,2.01.72,2.95,2.4-.97,4.6-1.87,7.27-2.95ZM32.19,46.92v-3.34c-2.53.2-3.23,2.45-4.6,4.12,1.44-.24,2.88-.49,4.6-.78ZM146.82,36.66c.01.14.03.27.04.41.42-.05.84-.1,1.26-.15-.01-.13-.03-.26-.04-.4-.42.05-.84.09-1.25.14Z"/>
      <path class="cls-9" d="M162.04,67.76c-1.3-4.93-3.37-9.67-3.73-14.83-.05-.69-.27-1.41-.57-2.03-.51-1.03-1.09-1.68-2.58-1.17-2.95,1.02-5.99,1.77-9.03,2.51-1.94.47-3.53,1.38-4.9,2.83-.83.88-1.73,2.02-2.8,2.28-3.19.8-6.28,2.01-9.71,1.97-1.83-.03-3.83.63-5.46,1.51-3.89,2.09-7.88,3.44-12.34,3.48-1.68.01-3.5.25-4.99.95-1.97.91-3.78,2.24-5.48,3.61-2.2,1.79-4.6,2.78-7.41,2.73-.95-.01-1.91-.13-3.18-.22.96,2.91.59,5.36-1.2,7.27.6,1.69,1.48,3.24,1.63,4.86.15,1.66-.9,3.5-.53,5.05.38,1.62.97,3.19,1.26,4.89.37,2.12.36,4.3,1.45,6.37,1.97,3.74,2.9,7.88,3.31,12.09.3,3.07,2.01,5.57,3.22,8.23.97,2.12,2.77,3.88,4.29,5.71.4.49,1.19,1,1.75.95,3.16-.29,6.45.35,9.44-1.35.83-.48,1.9-.56,2.88-.76,1.85-.39,3.88-.07,5.46-1.44.98-.85,2.14-.92,3.35-1.1,1.76-.25,3.67-.47,5.14-1.34,1.04-.62,2.02-.97,3.08-.99,5.02-.07,9.49-1.86,13.85-3.83-.82-2.71-1.78-5.06-1.24-7.8.49-2.49,1.89-4.15,3.65-5.2-.86-1.5-2.41-6.11-2.23-6.05-.79-4.31.37-5.8,5.06-7.7-1.16-2.72-.86-5.47.78-7.79,1.55-2.18,2.55-4.85,4.93-6.36,1.51-.96,3.14-1.72,5.07-2.76-.77-1.54-1.79-2.97-2.21-4.55Z"/>
      <path class="cls-9" d="M91.35,104.57c-.41-1.43-1.22-2.76-1.56-4.2-.82-3.5-1.47-7.04-2.21-10.67-2.17-.04-4.33,1.33-6.37-.54-1.85-1.7-2.69-3.63-2.4-6.04-1.48-.51-2.79-.97-3.7-1.28-1.83,1.47-3.4,2.84-5.1,4.05-1.39.99-2.96,1.62-4.77,1.33-.7-.11-1.45-.11-2.15,0-2.13.32-3.74-.73-5.21-1.98-2.1-1.8-3.23-2.44-5.85-2.41-2.29.02-3.94-.9-4.88-2.91-.95-2.02-.53-3.98,1.1-5.44.99-.89,1-1.61.48-2.65-.35-.7-.55-1.47-.92-2.52-1.83,0-3.67-.2-5.44.08-1.02.16-1.93.23-2.85-.11-.98-.36-1.9-.35-2.89-.09-.65.17-1.37.09-2.05.15-2.9.26-5.57-1.11-8.37-1.23-4.98-.21-9.98-.18-14.96-.1-2.29.04-4.57.46-6.53.67.13,2.08.66,3.97.26,5.64-.57,2.36.13,4.3.89,6.37.98,2.65,1.96,5.3,2.75,8.01.5,1.72.28,3.73,1.07,5.26.69,1.33.93,2.6,1.16,3.98.16.98.45,1.94.8,2.87,1.15,3.09,2.34,6.17,3.55,9.33.74-.34,1.54-.48,1.98-.95,1.04-1.12,2.34-1.36,3.64-1.05,1.76.42,2.61-.42,3.45-1.74,1.38-2.16,3.86-3.09,6.27-2.2,1.66.62,3.17,1.64,4.77,2.5,2.91-.61,5.79-.88,7.91,2.2.23.34.21.71.67,1.42s1.32,3.73-.24,5.78c.73.84,1.6,1.72,2.35,2.12,1.56.84,1.88,2.32,2.25,3.74.6,2.28,1.11,2.78,3.46,2.86,3.31.12,6.65.01,9.92.45,4.65.62,9.26.05,13.33.19,1.29-2.06,2.19-3.86,3.42-5.39,1.92-2.39,4.2-4.02,7.43-4.82,2.28-.56,4.53-1.31,7.08-1.49.2-3.23-.67-6.2-1.52-9.16Z"/>
      <path class="cls-9" d="M109.04,49.93c.66,0,.88.05,1.07,0,3.74-1.05,7.48-2.11,10.83-3.06,2.27-2.82,1.42-5.39.57-8.02-1.34-4.17-2.63-8.35-3.82-12.56-.31-1.08-.18-2.29-.21-3.44-.17-5.57,2.65-9.97,5.42-14.47,2.09-3.38,5.19-4.51,8.76-5.17,2.93-.53,5,1.15,7.17,2.61.32.22.44.77.77.92,4.92,2.24,5.06,7.38,6.9,11.46.3.67-.3,1.73-.47,2.62-.4,2.07-1.05,4.13-1.14,6.21-.2,5.07-1.88,9.66-3.89,14.07-2.02.66-4.07,1.02-5.81,1.97-3.57,1.95-7.47,2.78-11.27,4-2.66.85-5.11,2.32-7.74,3.27-3.3,1.19-6.69,2.11-10.03,3.17-2.84.91-5.7,1.77-8.48,2.81-2.6.98-4.73.76-6.88-1.26-1.52-1.43-3.32-2.49-4.56-4.31-1.06-1.55-2.53-2.79-4.18-3.88-2.66-1.75-3.49-4.83-4.61-7.63-.04-.09-.05-.22-.02-.3,1.65-3.9,1.62-8.25,4.96-11.79,3.32-3.51,7.12-3.09,10.97-3.67.28-.04.69.02.88.2,3.1,3.05,7.89,4.35,9.37,9.08.54,1.72,1.33,3.36,1.79,5.1.65,2.4,1,4.89,1.68,7.28.46,1.62,1.27,3.15,1.95,4.78Z"/>
      <path class="cls-9" d="M86.49,55.68c-3.24,1.35-7.09,3.91-8.34,5.53-.56-1.24-.82-2.65-1.65-3.46-1.35-1.31-2.98-2.41-4.66-3.26-2.42-1.23-4.97-1.27-7.55-.12-1.52.68-3.48.68-4.36,2.3-.9,1.66-1.45,3.51-2.24,5.49-1.72-.35-3.71-.69-5.75.2-2.04.89-3.67,2.02-4.17,4.04-4.35.45-8.47-.66-12.72.12-2.25.41-4.81-.47-7.16-1.07-3.25-.84-6.46-.57-9.71-.21-.69.08-1.43.32-2.08.18-3.22-.68-6.45-.62-9.7-.47-.25.01-.52-.27-.93-.5.41-1.48.96-2.55,2.57-3.32,2.6-1.24,5.23-2.54,7.22-4.85.84-.98,1.78-2.38,3.53-2.04,2.17-1.76,5.13-2.47,6.86-5.22,1.24,1.16,2.83,1.42,4.34.97,1.84-.55,3.04.18,4.21,1.4.69.72,1.63,1.24,2.16,2.04,1.61,2.45,3.93,3.35,6.72,3.54,3.78.26,7.5.24,10.65-2.28,1.94-1.55,3.78-3.22,5.7-4.81.37-.3.87-.64,1.3-.64,2.48,0,4.96.07,7.44.14.81.02,1.72.38,2.42.12,2.8-1.02,5.57-.16,8.35-.13.6,0,1.25.1,1.78.35,2.56,1.23,3.86,3.63,5.75,5.95Z"/>
      <path class="cls-12" d="M159.67,104.46c1.45-1.65,2.79-2.79,3.62-4.22,1.13-1.94,2.6-2.98,4.77-3.47,3.23-.73,6.3-1.73,9.76-1.59,3.63.15,6.28,1.69,8.89,3.87,3.78,3.16,3.74,7.14,2.62,11.34-.44,1.65-1.34,3.17-1.82,4.81-.63,2.11-2.16,2.92-4.1,3.51-7.6,2.3-14.53,1.21-20.75-3.84-.31-.25-.62-.53-.85-.85-1.14-1.66-2.38-7.82-2.15-9.56ZM173.22,114.85c.67,0,.99.06,1.28-.01.58-.15,1.15-.36,1.7-.58,1.5-.61,2.26-1.86,1.89-3.06-.33-1.05-1.31-1.34-3.07-.9-2.74.69-4.13.11-5.62-2.25-.41-.65-.88-1.3-1.45-1.81-.96-.87-2.13-.95-2.99.03-.72.82-.62,1.83.17,2.74.73.83,1.4,1.73,1.98,2.67,1.51,2.42,4.01,2.75,6.11,3.18Z"/>
      <path class="cls-16" d="M164.02,95.17c-1.17-3.48-3.14-5.91-6.8-6.72-1.24-.27-1.82-1.57-1.5-3.23.2-1.06.64-2.16,1.25-3.05,1.19-1.74,2.46-3.45,3.92-4.95.77-.79,1.98-1.25,3.07-1.63,3.74-1.31,5.19-.78,7.87,2.36,1.62,1.89,2.85,3.79,2.7,6.47-.08,1.47,1.43,1.96,2.64,1.02.24-.18.37-.49.58-.71,2.73-2.66,5.3-2.56,7.77.29,1.81,2.09,1.68,5.78-.37,7.65-.44.4-1.3.75-1.83.6-6.32-1.8-12.31-.73-18.15,1.89-.25.11-.6.01-1.17.01Z"/>
      <path class="cls-4" d="M61.04,34.71c.22,2.32.68,4.51.39,6.83-.28,2.2-1.36,3.7-3.1,4.9-.46.32-.81.84-1.13,1.32-2.1,3.17-5.13,5.21-8.68,6.17-1.95.52-4.17.21-6.25.05-2.13-.16-3.6-1.39-4.87-3.17-1.15-1.61-2.91-2.76-2.68-5.11.12-1.23.08-2.41,1.14-3.36.5-.44.72-1.19,1.14-1.95,2.31,2.07,4.86,1.77,7.47.53.27-.13.74-.07.86-.26,1.73-2.69,4.54-2.63,7.24-3.1,1.53-.27,3.07-1.06,4.34-1.99,1.29-.95,2.52-1.09,4.13-.86Z"/>
      <path class="cls-2" d="M17.98,121.07c1.68,0,3.49.05,5.29-.02,1.45-.05,2.42-.82,3.09-2.16,1.34-2.68,1.65-5.2-.59-7.58-.34-.36-.61-.79-1.01-1.33.73-1.01,1.26-2.35,2.25-3,1.89-1.24,4.87-.1,5.76,2.19.44,1.13.71,2.45,2.01,2.14.91-.21,1.59-1.42,2.69-2.49.76.1,1.96-.45,3.07.95,2.01,2.52,2.14,2.41.43,5.2-.37.6-.65,1.25-1.09,2.1,3.27,1.82,7.02,3.43,4.3,8.38-.44-.3-.94-.56-1.36-.93-2.2-1.9-4.72-3.24-7.51-3.9-1.81-.43-3.6-.24-5.07,1.28-1.03,1.07-2.18,2.09-3.46,2.82-1.5.87-2.4,2.1-3.26,3.53-1.66,2.79-4.12,2.58-6.05-.04-1.81-2.46-1.58-4.6.51-7.15Z"/>
      <path class="cls-19" d="M83.68,118.44c5.35,1.17,8.57,4.11,10.02,8.79.42,1.36.3,3.04-.02,4.47-.8,3.53-2.54,6.7-4.47,9.75-.2.31-.19.75-.32,1.29-3.32-.24-5.88-1.34-7.96-3.92-3.02-3.74-2.88-8.11-2.83-12.42.02-1.27.99-2.65,1.82-3.77,1.15-1.55,2.57-2.9,3.75-4.19ZM81.17,128.18c-.18,2.4-.16,4.34,1.12,6.14.97,1.37,2.65,2.18,4.1,1.35,2.13-1.21,3.35-2.99,3.38-5.61.03-2.49-.71-4.3-3.41-5.3-1.65,1.08-3.4,2.24-5.19,3.41Z"/>
      <path class="cls-16" d="M61.76,70.9c-.58-2.39-1.16-4.6-1.66-6.83-.85-3.74,2.08-7.53,5.88-7.8,2.46-.17,4.6.69,6.64,1.83,1.38.77,2.22,2.08,2.54,3.65.53,2.58,1.1,5.16-.84,7.5-1.02,1.23-1.89,2.57-2.9,3.95-2.99-2.13-6.04-3.84-9.65-2.32Z"/>
      <path class="cls-16" d="M32.14,138.55c-1.62.39-3.14-.32-4.2-2.32-.65-1.22-1.64-2.3-2.61-3.31-1.12-1.16-.7-2.26.03-3.26,1.76-2.41,4.02-4.31,6.63-5.76.52-.29,1.19-.56,1.75-.5,3.76.39,6.99,1.86,9.22,5.04.89,1.27.1,2.63-.41,3.77-1.99,4.51-4.8,6.23-10.41,6.35Z"/>
      <path class="cls-2" d="M63.79,84.45c-2.36.71-3.72-.58-5.05-2.28-1.01-1.29-1.37-2.58-.48-3.87,1.43-2.08,2.53-4.56,5.43-5.19,1.84-.4,3.45-.11,4.73,1.26,1.07,1.14,2.21,2.19,2.86,3.74,1.03,2.48,1.04,3.24-1.27,4.66-1.87,1.15-3.79,2.48-6.22,1.67Z"/>
      <path class="cls-20" d="M83.01,68.48c.65.62,1.17,1.56,1.82,1.67,2.87.48,2.94,2.52,2.94,4.69,0,.29,0,.58,0,.83-1.71,1.09-2.64,2.89-4.59,3.74-2.81,1.23-5.24.74-7.65-.64-1.46-.83-1.87-2.71-1.24-4.37,1.54-4.03,4.64-5.71,8.71-5.92Z"/>
      <path class="cls-14" d="M126.76,56.18c-.81-2.09-1.57-4.03-2.44-6.29,3.09-.95,6.09-1.89,9.11-2.76.43-.12,1.11-.04,1.42.23,1.64,1.44,3.19,2.97,4.75,4.45-1.88,3.14-6.39,4.68-12.84,4.38Z"/>
      <path class="cls-19" d="M89.3,117.24c2.05-.75,3.37-.65,4.38.71,2.36,3.19,5,6.23,6.96,9.66,1.55,2.7,1.28,5.9.24,8.88-1.22,3.5-3.64,5.15-8.23,5.41.56-1.01,1.04-1.83,1.47-2.67,1.59-3.08,3.02-6.21,2.99-9.79-.02-2.81-.92-5.16-2.73-7.43-1.38-1.73-2.96-3.15-5.09-4.77Z"/>
      <path class="cls-7" d="M124.27,56.99c-4.33,2.62-8.56,4.38-13.64,4.5-.21-2.03-.43-4.1-.67-6.42,4.04-1.23,7.82-2.38,11.99-3.65.75,1.8,1.57,3.76,2.33,5.57Z"/>
      <path class="cls-2" d="M159.03,91.73c.98,1.88,2.07,3.97,3.13,6.01-1.2,1.28-2.1,2.41-3.17,3.32-.56.48-1.6,1.01-2.14.8-1.84-.74-3.83-1.5-5.22-2.83-.9-.85-1.25-2.75-1.1-4.09.14-1.24,1.21-2.15,2.86-2.48,1.74-.35,3.37-1.24,5.63-.73Z"/>
      <path class="cls-18" d="M64.45,39.88h10.09c.86,2.03,1.74,4.13,2.76,6.55-2.75-1.19-5.19,1.25-7.57.45-2.62-.89-4.99.32-7.53.06,1.82-2.05,2.3-4.44,2.24-7.06Z"/>
      <path class="cls-2" d="M57.83,21.55c-1.37,2.24-2.76,4.41-1.78,7.31-1.47.67-2.78,1.4-4.18,1.85-.87.28-1.9.48-2.71-.51-1.38-1.69-1.66-3.66-1.58-5.71.11-2.65,2.43-3.22,4.23-4.13,2.08-1.05,4.07-.66,6.01,1.19Z"/>
      <path class="cls-5" d="M158.71,113.94c-1.55.5-2.83,1.05-4.17,1.31-.93.19-1.96.08-2.92-.06-1.33-.19-1.03-1.4-1.4-2.29-1.23-2.92-.32-5.24,1.52-7.44.56-.67,1.14-1.35,1.74-2.06,2.18.29,2.99,1.71,3.37,3.8.41,2.24,1.2,4.4,1.86,6.73Z"/>
      <path class="cls-14" d="M96.88,59.54c-.21,2.87-.42,5.73-.64,8.72-1.9.47-4.04,1.27-5.92.38-1.62-.77-4.09.37-4.97-2.21,2.05-1.82,4.13-3.69,6.22-5.54,1.94-1.71,2.67-1.88,5.3-1.35Z"/>
      <path class="cls-6" d="M164.21,41.33c-2.23,2.39-5.9,1.56-7.37,4.42-4-1.84-7.9-3.64-11.62-5.36,7-2.73,12.14-1.41,18.99.94Z"/>
      <path class="cls-9" d="M76.63,30.28c-.61,2.58-1.09,4.59-1.55,6.5-3.66.21-6.97.41-10.57.62-.16-1.75-.29-3.27-.46-5.15,3.45-2.51,7.98-.33,12.58-1.97Z"/>
      <path class="cls-14" d="M152.91,47.23c-3.15.9-5.93,1.67-8.69,2.51-2.39.73-2.31.71-4.04-1.21-1-1.1-2.27-1.95-3.5-2.97,1.67-.6,3.33-.87,4.56-1.73,1.28-.89,2.39-.91,3.67-.43,2.17.81,4.34,1.63,6.47,2.52.51.21.89.75,1.52,1.31Z"/>
      <path class="cls-9" d="M108.43,37.55c-.67-1.97-1.39-4.09-2.25-6.61,3.45.3,6.72.58,10.27.88.61,1.66,1.31,3.56,2.11,5.73h-10.12Z"/>
      <path class="cls-5" d="M54.2,64.28c2.78-.25,5.72,2.4,4.63,6.43-.18.68-.36,1.37-.65,2-.54,1.23-1.78,1.46-2.79,1.19-1.2-.32-2.58-.91-3.28-1.83-.79-1.04-1.04-2.56-1.28-3.91-.41-2.36.99-3.88,3.36-3.88Z"/>
      <path class="cls-3" d="M46.61,35.02c-.81,1.02-1.49,2.55-2.68,3.25-2.89,1.69-7.02-.23-7.93-3.45-.13-.47-.18-1.12.05-1.5.52-.84,1.1-1.78,1.91-2.3,4.18-2.67,6.48-1.64,8.64,4Z"/>
      <path class="cls-5" d="M24.91,115.71c.01,1.88-1.81,3.51-3.94,3.54-2.41.03-4.77-2.45-4.73-4.96.03-1.91,1.88-3.68,3.88-3.71,2.75-.04,4.77,2.12,4.79,5.13Z"/>
      <path class="cls-14" d="M107.56,56.16c.09,2.02.16,3.62.24,5.3-3.26.84-6.07,2.42-8.97,5.36.2-1.76.4-2.79.43-3.83.11-4.17,2.74-5.65,6.39-6.14.57-.08,1.1-.4,1.92-.71Z"/>
      <path class="cls-5" d="M46.94,126.22c.98.77,1.76,1.4,2.57,1.99.31.23.79.27,1.02.54,1.37,1.56,1.04,3.53.63,5.17-.27,1.07-1.55,2.09-3.11,2.03-1.35-.05-2.7-.01-3.83-.01.58-2.76,1.03-5.19,1.63-7.58.21-.83.79-1.57,1.09-2.15Z"/>
      <path class="cls-17" d="M77.87,66.95c.79-4.19,6.91-8.39,12.54-8.85-1.42,1.48-2.64,2.78-3.89,4.04-.84.84-1.88,1.51-2.57,2.45-1.58,2.15-3.89,1.54-6.07,2.36Z"/>
      <path class="cls-16" d="M64.66,24.52c.43,2.97-1.05,5.63-3.53,6.17-.63.14-1.87-.27-2.05-.73-.53-1.33-1.3-2.71-.5-4.29.57-1.13,1.27-1.82,2.61-1.63,1.17.17,2.34.32,3.48.48Z"/>
      <path class="cls-17" d="M165.57,38.92c-4.34-1.72-8.42-2.52-12.73-2.47,2.23-2.28,6.23-2.89,9.72-1.34,1.15.51,2.1,1.51,3.07,2.36.17.15-.02.71-.06,1.45Z"/>
      <path class="cls-11" d="M81.33,83.26c1.71-.72,3.22-1.35,4.86-2.03,1.97,1.82,2.17,2.46,1.19,4.34-.55,1.05-2.72,2.29-3.62,2.07-1.34-.32-2.4-2.26-2.42-4.38Z"/>
      <path class="cls-10" d="M55.69,79.05c-1.77-.24-2.04,2.06-4.04,1.54-1.96-.51-1.86-2.12-2.67-3.23,3.19-2.69,4.53-2.79,6.71,1.69Z"/>
      <path class="cls-17" d="M119.92,43.25c-.35.44-.6,1.09-1.05,1.27-2.03.82-4.13,1.5-6.19,2.26-.86.32-1.69.81-2.62-.32,2.75-2.36,6.09-3.01,9.39-3.73.15.18.31.35.46.53Z"/>
      <path class="cls-9" d="M57.6,31.72c-2.57,1.95-4.77,3.8-8,3.45,1.05-1.98,4.81-3.66,8-3.45Z"/>
      <path class="cls-18" d="M117.07,40.33c-2.67,1.08-4.87,1.98-7.27,2.95-.23-.93-.46-1.86-.72-2.95h7.99Z"/>
      <path class="cls-18" d="M32.19,46.92c-1.71.29-3.16.53-4.6.78,1.37-1.66,2.07-3.92,4.6-4.12v3.34Z"/>
      <path class="cls-8" d="M146.82,36.66c.42-.05.84-.09,1.25-.14.01.13.03.26.04.4-.42.05-.84.1-1.26.15-.01-.14-.03-.27-.04-.41Z"/>
      <g>
        <path class="cls-1" d="M28.48,90.27l-.96-2.99-2.75,1.02s-.18,3.53-2.52,2.93c-1.45-.37-.64-2.15-.5-2.59.52-1.66.82-1.77.35-3.59-.51-1.98.32-2.12.95-2.18,1.66-.15,1.58,2.05,1.69,3.26.88-.3,1.08-.42,1.84-.61-.55-1.44-2.47-3.56-.93-4.41,3.01-1.19,3.5,3.61,3.5,3.61,0,0,3.76-2.29,4.69-.96.93,1.33-.32,2.4-3.94,2.96l1.06,2.98c1.86-.25,4.81-2.92,5.76-.87s-2.15,2.41-4,2.86l2.44,6.03,2.24-.68c0-.86-.68-2.21,0-2.76s1.13-.32,1.49-.15c2.18,1.09,2.21,4.16,1.33,4.88s-2.38,1.25-3.66,1.43c-2.19.3-3.3-.61-4.04-2.39-.76-1.83-.99-2.82-1.54-5.62-.61.3-1.04.4-1.3.59.43,3.25-.32,6.55-2.26,8.83-1.3,1.53-2.47,1.8-3.45,1.04-.57-.44-.56-1.28-.05-1.78,1.67-1.64,3.88-4.82,3.74-7.4-1.11-.05-4.84,2.25-5.39.96-.99-2.33,1.95-2.29,6.2-4.4Z"/>
        <path class="cls-1" d="M21.66,95.1c.66.14.95.43,1.05,1.17s-.54,2.9-1.13,5.11c-.31,1.19-1.37,2.41-2.88,2.14-.44-.08-.91-.45-1.06-.76-.19-.36-.15-1.18.12-1.38,1.43-1.12,1.69-2.81,1.97-4.33.36-1.98,1.28-2.09,1.94-1.95Z"/>
        <path class="cls-1" d="M19.19,87.77c-1.53-.08-2.67-.96-3.85-1.69-.51-.32-.7-1.01-.35-1.51.4-.57,1.33-.8,2.04-.57,1.28.42,2.57.77,3.24,2.19.37.77-.23,1.62-1.08,1.57Z"/>
        <path class="cls-1" d="M16.1,91.7c-.56-.28-.57-1.1,0-1.36,1.52-.67,3.1-.44,3.86.27s.66,1.27.5,1.8c-.17.58-.79,1.16-1.69.65-.8-.46-1.63-.86-2.67-1.37Z"/>
      </g>
      <path class="cls-11" d="M173.22,114.85c-2.11-.43-4.61-.75-6.11-3.18-.58-.94-1.26-1.84-1.98-2.67-.79-.91-.89-1.92-.17-2.74.86-.98,2.03-.9,2.99-.03.57.51,1.04,1.16,1.45,1.81,1.49,2.36,2.88,2.94,5.62,2.25,1.76-.44,2.74-.15,3.07.9.37,1.2-.39,2.46-1.89,3.06-.56.22-1.12.43-1.7.58-.29.08-.61.01-1.28.01Z"/>
      <path class="cls-1" d="M81.17,128.18c1.79-1.18,3.54-2.33,5.19-3.41,2.71,1,3.45,2.81,3.41,5.3-.03,2.62-1.26,4.4-3.38,5.61-1.45.83-3.13.01-4.1-1.35-1.28-1.8-1.3-3.74-1.12-6.14ZM83.65,129.67q.41,2.3,2.12,3.16c1.19-1.49,1.57-3.08.72-4.86-.94.56-1.82,1.08-2.85,1.7Z"/>
      <path class="cls-10" d="M83.65,129.67c1.03-.61,1.9-1.14,2.85-1.7.84,1.78.47,3.37-.72,4.86q-1.71-.85-2.12-3.16Z"/>
      <path class="cls-1" d="M65.58,99.44c.9-1.21,2.75-1.69,3.04-1.78,1.75-.54,3.09-1.33,3.09-1.33,0,0-.46-1.47-.85-2.93-.13-.47-.17-.97-.21-1.47-.04-.46.33-.87.79-.86,1.38.03,1.87.47,2.21,1.67.29,1.02.54,2.05.81,3.08,2.37-.69,4.31-1.8,6.98-1.4.66.1,1.42.75,1.68,1.37.95,2.29,1.49,4.15,2.05,6.18.49,1.75-.71,2.41-2.56,3.05-1.51.53-2.97,1.17-4.71,1.86.19.89.34,1.76.57,2.59.27.96.95,2.06,1.03,3.04.15,1.89-1.12,2.56-2.18,1.71-1.11-.89-1.64-4.39-2.55-6.73-1.27.45-2.4.79-3.47,1.24-2.73,1.16-3.71.63-4.47-2.28-.43-1.64-.8-2.46-1.4-4.06-.07-.18-.76-1.71.16-2.96ZM80.59,96.87c-1.35.38-2.31.61-3.24.92-1.97.66-2.17.71-2.17.71l1.59,5.63s3.99-1.49,5.65-1.99l-1.84-5.28ZM74.2,104.86l-1.78-5.96c-1.57.67-3.25,1.33-4.57,1.89.35,2.38,1,3.83,1.89,5.52l4.45-1.44Z"/>
      <path class="cls-11" d="M35.35,133.3c-.35.12-.69-.22-.58-.57.23-.7.37-1.18.57-1.63.65-1.54.83-1.94.06-2.68-.71-.69-.51-1.9.4-2.28.64-.27,1.29-.24,1.86.11.88.54,1.56,2.51,1.08,3.46-.71,1.39-1.38,2.88-3.39,3.6Z"/>
      <path class="cls-20" d="M32.69,134.26c.71.06.93.68.95.97.02.3-.38.83-.67.88-.27.05-.82-.36-.89-.65-.07-.28-.1-1.26.6-1.2Z"/>
      <path class="cls-11" d="M183.94,111.16l-1.3-.35c-.81-.22-1.27-1.06-1-1.85.68-2,1.35-1.99,3.55-.38.53.39.72,1.08.49,1.69v.02c-.28.68-1.02,1.05-1.73.86Z"/>
      <path class="cls-1" d="M147.62,99.15c-.62,5.82-.74,6.01-6.24,7.53-2.18.6-4.43,1.51-6.51-.16-.18-.14-.38-.78-.45-.56-1.11,3.33-3.86,5.76-6.71,6.66-2.76.87-5.61.36-7.53-2.15-.4-.52-.48-1.22-.23-1.83,1.39-3.41,1.58-3.44,3.38-2.35.11.07.18.2.15.33l-.53,2.58c-.03.16.07.33.23.37,3.96,1.07,6.42.26,7.58-2.61.46-1.14,1.67-4.11,1.72-5.4-.97-.24-2.14-.62-3.29-1.43-1.96-1.39-2.77-3.76-3.36-5.91-.25-.92,1.08-2.37,1.87-3.45.38-.52,1.22-.69,1.81-1.07,4.58-3.01,6.83-.59,9.26,2.99.39.58.44,1.57.3,2.31-.29,1.48-2.65,3.84-4.37,4.67-.16.08-.23.26-.15.42.63,1.24,1.26,2.48,1.88,3.69.33.64,1.05.97,1.75.79.97-.25,1.94-.49,2.92-.68,2.37-.44,3.78-1.94,3.87-4.27,0-.25.01-.5.01-.76,0-.96-.05-1.43,1.23-1.77s1.44,1.98,1.43,2.07Z"/>
      <path class="cls-15" d="M136.82,93.79c.11,2.37-2.88,4.96-5.64,3.79s-2.72-1.68-2.48-3.01c.2-1.11,1.59-2.52,2.96-3.42.76-.5,5.01-.54,5.16,2.64Z"/>
      <path class="cls-1" d="M106.79,88.75c-.63.89-2.04.6-2.22-.47-.16-.96.1-1.78.58-2.52,1.8-2.75,3.58-5.45,6.58-7.26,1.82-1.09,3.14-3.05,4.61-4.68.93-1.04,1.32-1.4,2.22-1.12.85.26,1.16,1.3.58,1.98-1.47,1.75-2.69,3.65-4.54,5.01-2.27,1.67-4.46,3.4-6.01,5.78-.64.98-1.08,2.1-1.69,3.1-.04.06-.07.12-.12.18Z"/>
      <path class="cls-1" d="M148.5,72.83c-3.82-.9-7.66-1.68-11.41-2.95-1.65-.56-.89-3.09.77-2.6.02,0,.03,0,.05.01,3.47,1.05,6.87,2.32,10.55,2.66.79.07,1.43.49,1.67,1.21.32.98-.62,1.91-1.62,1.67Z"/>
      <path class="cls-1" d="M141.11,84.68c-1.5.52-3.3-.02-4.04-1.42-.91-1.71-.55-3.2.67-4.38,1.57-1.52,2.96-1.13,4.67.03,2.07,1.4,1.12,4.89-1.23,5.74-.02,0-.04.02-.07.02Z"/>
      <path class="cls-1" d="M122.39,89.18s0,.02-.01.03c-.46.87-1.32,1.45-2.29,1.58-2.51.34-3.67-.16-4.17-1.69-.47-1.44.61-3.67,2.06-4.24,1.77-.7,3.07-.36,4.24,1.25.65.89.68,2.09.17,3.07Z"/>
      <path class="cls-1" d="M40.43,35.74c-1.44-.37-1.63-2.39-.37-3.18.93-.58,1.64-.52,2.11.15.42.6.43,1.73.17,2.45-.14.39-1.31.72-1.89.58,0,0-.02,0-.02,0Z"/>
      <path class="cls-1" d="M51.99,42.53c-.95-.52-1.64-.89-2.29-1.25.11-.37.11-.66.23-.72,1.45-.73,2.73-.69,3.92.06.8.51,1,1.6.4,2.34-1.58,1.95-3.25,3.78-5.99,4.29-1.88.35-3.77.52-5.57-.27-.59-.26-1.22-.77-1.49-1.33-.32-.66-.73-1.6.2-2.18.78-.48,1.22.13,1.79.64,1.72,1.52,4.42,1.53,6.39.16.74-.52,1.47-1.06,2.42-1.75Z"/>
      <path class="cls-13" d="M31.72,36.6l2.8.2h0c-.01.43-.35.78-.78.81l-1.52.09c-.33.02-.6-.27-.56-.6l.06-.5Z"/>
      <ellipse class="cls-13" cx="31.16" cy="33.98" rx="1.42" ry="2.9" transform="translate(-5.48 61.96) rotate(-84.86)"/>
      <g>
        <path class="cls-1" d="M64.29,102.74s0-.02,0-.03c-.12-.78-.85-1.32-1.63-1.21s-1.38.24-2.7.74-4.3,1.74-4.3,1.74l-.65-1.67s3.84-.81,5.15-2.45c.36-.45.24-1.39-.23-2.75-.32-.94-.56-1.94-.92-2.83-.82-2.05-1.68-2.44-2.6-2.27s-4.75,1.23-4.75,1.23l-.24-.61s4.53-1.35,5.07-1.42c.95-.32,2.88-.42,2.81-1.86-.04-.88-.65-1.65-2.17-1.28-1.75.43-5.75,1.69-6.28,1.91-.22-1-.32-1.82-.78-2.62s-1.19-1.31-2.03-1.04c-.53.17-1.48.75-1.15,2.01.16.6,1.09,2.64,1.09,2.64,0,0-3.98,1.18-5.22,1.57s-1.74.94-1.26,2.04c.62,1.44,3.28.13,4.23-.28.37-.16,3.35-1.17,3.35-1.17l.2.62s-4.78,1.62-5.59,2.23c-1.08.82-1.15,1.69-.93,2.37.7,2.18,1.43,5.21,2.69,6.44s4.67-.54,5.21-.73c.35-.24,1.68-.68,1.68-.68l.41,1.16s-6.78,1.92-7.65,2.34c-1.09.53-1.24,1.96-.65,2.52s2.11.39,3.01.17c2.1-.53,3.93-1.74,5.9-2.28.36,1.96.92,4.3,2.84,3.54,1.38-.55,1-2.35.12-4.51,2.11-.72,4.2-1.17,6.7-2.04.41-.14,1.36-1.1,1.3-1.53Z"/>
        <path class="cls-9" d="M46.24,99.23c-.26,0-.51-.17-.59-.43-.11-.33.07-.68.4-.79l3-.98c.33-.11.68.07.79.4.11.33-.07.68-.4.79l-3,.98c-.06.02-.13.03-.19.03Z"/>
        <path class="cls-9" d="M53.44,96.94c-.26,0-.51-.17-.59-.43-.11-.33.07-.68.4-.79l2.25-.74c.33-.11.68.07.79.4.11.33-.07.68-.4.79l-2.25.74c-.06.02-.13.03-.19.03Z"/>
        <path class="cls-9" d="M47.41,101.84c-.26,0-.51-.17-.59-.43-.11-.33.07-.68.4-.79l3-.98c.33-.11.68.07.79.4.11.33-.07.68-.4.79l-3,.98c-.06.02-.13.03-.19.03Z"/>
        <path class="cls-9" d="M54.61,99.55c-.26,0-.51-.17-.59-.43-.11-.33.07-.68.4-.79l2.25-.74c.33-.11.68.07.79.4s-.07.68-.4.79l-2.25.74c-.06.02-.13.03-.19.03Z"/>
      </g>
    </g>
  </g>
</svg>