<?xml version="1.0" encoding="UTF-8"?>
<svg id="_レイヤー_2" data-name="レイヤー 2" xmlns="http://www.w3.org/2000/svg" viewBox="0 0 144 142.012">
  <defs>
    <style>
      .cls-1 {
        fill: #fddee8;
        stroke-width: 0px;
      }
    </style>
  </defs>
  <g id="design">
    <path class="cls-1" d="m144,71.006c0,4.147-4.331,7.865-5.022,11.814-.711,4.061,2.077,9.031.698,12.819-1.404,3.855-6.747,5.866-8.774,9.371-2.047,3.538-1.132,9.168-3.745,12.279s-8.327,3.19-11.447,5.811c-3.111,2.613-4.165,8.223-7.703,10.27-3.505,2.028-8.888.15-12.743,1.553-3.788,1.379-6.699,6.289-10.76,7.001-3.949.692-8.357-2.918-12.504-2.918s-8.555,3.609-12.504,2.918c-4.061-.711-6.972-5.622-10.76-7.001-3.855-1.404-9.238.474-12.743-1.554-3.538-2.047-4.592-7.657-7.703-10.27-3.12-2.621-8.826-2.691-11.447-5.811-2.613-3.111-1.698-8.741-3.745-12.279-2.028-3.505-7.371-5.516-8.774-9.371-1.379-3.788,1.409-8.757.698-12.818-.692-3.949-5.022-7.667-5.022-11.814s4.331-7.865,5.022-11.814c.711-4.061-2.077-9.031-.698-12.819,1.404-3.855,6.747-5.866,8.774-9.371,2.047-3.538,1.132-9.168,3.745-12.279s8.327-3.19,11.447-5.811c3.111-2.613,4.165-8.223,7.703-10.27,3.505-2.028,8.888-.15,12.743-1.553,3.788-1.379,6.699-6.289,10.76-7.001,3.949-.692,8.357,2.918,12.504,2.918S80.555-.604,84.504.088c4.061.711,6.972,5.622,10.76,7.001,3.855,1.404,9.238-.474,12.743,1.554,3.538,2.047,4.592,7.657,7.703,10.27,3.12,2.621,8.826,2.691,11.447,5.811s1.698,8.741,3.745,12.279c2.028,3.505,7.371,5.516,8.774,9.371,1.379,3.788-1.409,8.757-.698,12.818.692,3.949,5.022,7.667,5.022,11.814Z"/>
  </g>
</svg>