<?xml version="1.0" encoding="UTF-8"?>
<svg id="_レイヤー_2" data-name="レイヤー 2" xmlns="http://www.w3.org/2000/svg" viewBox="0 0 282.83 198.77">
  <defs>
    <style>
      .cls-1 {
        fill: #231815;
      }

      .cls-1, .cls-2, .cls-3, .cls-4, .cls-5, .cls-6, .cls-7, .cls-8, .cls-9, .cls-10, .cls-11, .cls-12, .cls-13, .cls-14 {
        stroke-width: 0px;
      }

      .cls-2 {
        fill: #e7e8e7;
      }

      .cls-3 {
        fill: #ee9aa4;
      }

      .cls-4 {
        fill: #595651;
      }

      .cls-5 {
        fill: #934527;
      }

      .cls-6 {
        fill: #f09ca5;
      }

      .cls-7 {
        fill: #faa2ad;
      }

      .cls-8 {
        fill: #393631;
      }

      .cls-9 {
        fill: #9a4729;
      }

      .cls-10 {
        fill: #f03c3c;
      }

      .cls-11 {
        fill: #e8e8e8;
      }

      .cls-12 {
        fill: #5a5752;
      }

      .cls-13 {
        fill: #53504d;
      }

      .cls-14 {
        fill: #994729;
      }
    </style>
  </defs>
  <g id="design">
    <g>
      <path class="cls-1" d="M281.27,105.32c-3.78-7.3-10.74-10.81-19.23-9.78-1.37.17-3.54,1.74-3.59-1.56-.07-4.63-.66-9.28-.34-13.88.85-12.16,1.67-24.3,1.85-36.49.16-10.59-2.94-14.83-13.61-16.6-4.1-.68-8.5-.16-12.39-1.38-7.45-2.33-15-1.96-22.55-2.04-4.95-.05-9.81-.1-14.75-1.07-4.77-.94-9.73-.94-14.75-.61-8.44.55-16.96.88-25.46-.54-5.33-.89-10.94-.71-15.76,2.07-4.58,2.64-9.43,4.52-14.51,6.97-.41-2.61-.86-4.86-1.12-7.14-1.32-11.73-6.85-17.73-18.26-19.94-2.26-.44-4.65-.9-6.64-1.98-3.4-1.84-6.91-1.81-9.71.18-4.22,3-9.14,5.29-12.34,9.49-7.11,9.3-9.36,19.93-7.79,31.46.22,1.64,1.68,3.86-1.02,4.69-3.94,1.21-7.35,3.83-11.62,4.29-.08-.5-.25-.95-.22-1.39.07-.92.11-1.88.39-2.75,3.44-10.65,1.23-20.79-2.86-30.71-1.79-4.35-4.54-7.6-9.03-9.98-6.04-3.2-12.24-2.76-18.52-2.87-4.75-.09-8.72,1.78-11.74,5.52-1.75,2.17-3.28,4.55-5.24,6.5-4.41,4.38-5.93,10.07-5.49,15.67.77,9.77,1.87,19.7,7.67,28.2,1.34,1.97.6,2.46-1.28,3.66-6.9,4.42-12.13,9.33-10.77,19.3,1.37,9.99.29,20.31.29,30.49,0,10.44-1.97,20.82-.1,31.35.96,5.41,1.2,11.1.47,16.65-.81,6.14,2.3,10.04,8.54,10.09,2.94.02,5.89-.16,8.82-.39,2.6-.21,3.22.78,3.48,3.41.49,4.91,1.88,9.9,5.81,13.17,10.08,8.42,24.35,3.32,26.83-9.52.66-3.43,2.34-4.07,5.14-3.06,3.56,1.29,7.24,2.1,10.94,1.62,11.23-1.47,21.99,2.46,33.04,2.57,7.29.07,14.43,1.99,21.6,1.71,3.76-.15,4.85.63,5.33,3.88,1.31,8.89,7.22,13.19,15.51,13.96,7.1.66,14.5.56,19.02-6.61,3.73-5.93,7.18-12.06,5.97-19.52-.45-2.75,1.04-3.63,3.31-4.58,4.17-1.74,9.18-1.53,12.75-3.8,7.15-4.57,16.08-3.12,22.91-8.71.5,2.33.87,3.82,1.15,5.33,1.92,10.59,5.35,13.67,16.01,14.36,6.86.44,17.04-5.84,18.42-11.75,1.12-4.79,2.55-9.64,1.98-14.65-.38-3.39.47-5.56,4.14-6.19,2.23-.39,3.41-1.9,3.59-4.23.27-3.54.82-7.07.89-10.62.05-2.52.44-3.6,3.41-3.12,5.97.96,11.74,0,17.02-3.14,5.84-3.47,7.58-9.84,4.42-15.96Z"/>
      <path class="cls-7" d="M108.84,73.68c5.02-.79,9.26.2,13.56.72,2.91.35,3.77,1.82,3.54,4.28-.22,2.29-.9,4.54-1.14,6.83-1.27,11.8-1.79,23.58-.86,35.49.53,6.85-1.05,13.83-1.77,20.69-1.06,10.16-.24,20.37-1.7,30.48-.36,2.52-.55,3.86-3.33,2.83-4.63-1.7-9.45-.4-14.16-.71-10.52-.7-20.76-3.31-31.55-2.82-9.85.44-19.83-2.14-29.75-3.41-.91-.12-1.83-.54-2.71-.48-8.93.68-17.72-1.58-26.64-1.27-6.02.21-7.11-.9-6.12-6.66,1.12-6.57.78-12.92-1.41-19.18-1.25-3.59.43-7.05.3-10.57-.46-12.25,1.64-24.32,2.46-36.47.33-4.8-.34-9.57-1.78-14.19-.96-3.07-1.18-4.88,3.3-5.35,3.87-.41,7.67-.34,11.51-.43,3.76-.09,4.7-1.68,2.89-5.01-2.26-4.16-5.28-7.83-7.45-12.09-4.89-9.62-7.42-19.71-5.49-30.33,2.83-15.6,23.13-23.27,35.89-13.82,2.35,1.74,3.63,4.36,4.75,7.2,3.38,8.53,4.51,16.99,2.58,26.16-1.59,7.55-3.5,14.85-7.04,21.7-.61,1.19-1.17,2.76-.17,3.44,6.11,4.13,3.28,10.41,4.04,15.81.09.61-.04,1.24-.02,1.86.09,3.12,1.06,3.97,3.93,1.92,2.9-2.07,5.77-3.89,8.59.79,1.74,2.88,4.65,1.73,5.8-.94.85-1.97,1.67-2.73,3.77-3.19,2.57-.56,3.12-2.89,3.19-5.47.11-3.9-.34-8.03,3.74-10.75,1.28-.85,1.31-2.85.26-4.25-3.95-5.27-3.89-11.47-4.49-17.63-.85-8.77-1.73-17.36,1.33-26.03,1.95-5.53,5.49-9.01,9.71-12.88,9-8.23,17.43-1.48,26.07-.51,1.12.13,2.23,1.59,3.1,2.63,5.91,7.07,6.86,15.84,5.41,24.05-1.18,6.69-2.83,13.81-7.57,19.63-3.63,4.45-7.98,8.09-11.93,12.16-1.28,1.32-2.57,2.15-1.91,4.1.66,1.94,2.39,1.64,3.91,1.67,2.01.03,4.02,0,5.38,0Z"/>
      <path class="cls-7" d="M203.23,31.46c5.62-.86,11.24-1.76,16.88-2.55,1.37-.19,2.88-.4,4.16-.02,7.86,2.33,16.15,1.99,24.04,3.89,5.41,1.3,6.15,4.3,6.26,9.82.28,13.79-1.71,27.44-1.87,41.16-.07,6.26,1.63,12.53-.94,18.67-.21.5-.27,1.33-.11,1.85,2.89,9.88-.76,19.53-.95,29.3-.04,2.15-.25,4.35-2.77,4.63-2.36.26-1.49-2.21-2.04-3.43-3.25-7.1-8.16-9.26-17.56-7.56-10.6,1.91-16.57,8.73-16.64,19.44-.02,2.64-.83,3.77-3.31,4.56-11.74,3.76-23.44,7.64-35.09,11.68-1.52.53-3.11-.31-3.46-1.87s-.91-3.18-1.45-4.74c-2.8-8.08-5.48-9.7-13.71-10.62-8.14-.9-14.33,2.29-20.09,7.38-4.77,4.2-5.53,9.77-5.73,15.58-.04,1.24.16,2.48.07,3.71-.13,1.81-1.6,2.93-3.01,2.87-1.23-.05-1.51-2-1.3-3.08,1.86-9.75,1.35-19.69,1.98-29.51.54-8.4,2.09-16.75,1.53-25.32-.75-11.52-.83-23.14,1.69-34.57.53-2.43.58-4.94.04-7.39-.63-2.85-2.31-4.52-5.37-4.89-4.89-.6-9.71-2.08-14.99-1.17-.8.14-1.36-.78-.83-1.4,2.86-3.39,9.21-5.5,9.95-5.8,6.82-2.1,13.35-4.91,19.64-8.25,3.61-1.92,7.74-2.28,11.38-3.82,15.23-6.45,31.54-9.94,46.46-17.17,2.31-1.12,4.65-1.55,7.16-1.35Z"/>
      <path class="cls-8" d="M166.98,172.23c.83,5.73-1.03,11.3-4.27,16.58-2.46,4.01-7.29,6.49-11.74,5.77-1.03-.17-1.6-.84-2.16-1.59-4.47-6.05-7.06-12.71-5.89-20.33.7-4.55,1.72-9.06,2.84-13.52,1.14-4.54,4.85-7.24,9.26-7.8,5.27-.67,8.15,2.1,10,6.39,1.92,4.44,2.62,9.14,1.95,14.51Z"/>
      <path class="cls-8" d="M223.72,153.37c-.61-7.15,2.49-12.68,5.1-18.18,1.45-3.05,4.89-5.07,8.45-4.66,3.54.41,5.3,4.31,5.45,6.81.55,9.02,3.06,18.31-2.49,26.97-1.99,3.11-4.56,4.93-7.7,5.2-2.96.26-3.88-2.97-5.15-5.23-2.03-3.61-4.83-6.96-3.66-10.92Z"/>
      <path class="cls-6" d="M123.88,45.35c1.45-5.54,1.2-8.57,4.55-10.27,7.18-3.66,13.3-7.6,21.53-8.75,7.15-1,14.13,2.06,21.6.23-.93,4.56-4.47,2.72-6.45,4.1-.52.48-3.21,1.24-3.73,1.78h.02c-.46.56-1.36.33-1.8.96-1.58.68-20.38,6.28-22.39,7.6-.67.31-1.43.32-2.09.66,0,0-3.64,1.35-5.23,2l-.07.04c-.59.44-4.97,1.14-5.94,1.67Z"/>
      <path class="cls-7" d="M263.83,119.79c-6.77-.01-7.29-.44-6.32-7.02.28-1.92.14-3.93-.47-5.33-1.86-4.31.77-5.4,3.81-6.53,7.85-2.93,16.85,2.94,16.8,10.84-.02,2.62-.9,4.21-3.32,5.38-3.58,1.72-6.51,2.67-10.5,2.66Z"/>
      <path class="cls-14" d="M52.71,76.47c-.33-2.88.4-4.33,3.85-3.39,5.09,1.38,10.28,1.91,15.43.14,1.27-.44,2.32-.27,1.92,1.33-.65,2.56-.93,5.12-.93,7.74,0,1.05-.61,1.7-1.63,1.92-.6.13-1.51-.01-1.77.34-2.74,3.74-5.24,5.79-7.48-.4-.26-.72-1.3-.36-2.08-.13q-6.32,1.88-7.1-4.27c-.13-1.07-.13-2.15-.2-3.29Z"/>
      <path class="cls-8" d="M35.81,175.89c-.21-3.05.87-4.62,4.64-3.36,2.16.72,4.51.85,6.78,1.25,3.53.62,4.93,3.43,2.87,6.39-2.17,3.12-4.98,5.95-9.22,4.56-3.83-1.26-5.12-4.59-5.07-8.84Z"/>
      <path class="cls-3" d="M51.98,67.8c1.27-5.72,1.93-10.79,8.52-11.54,3.67-.42,6.6-3.01,10.06-4.05,2.26,5.14.73,8.02-4.37,9.69-4.61,1.51-9.01,3.7-14.21,5.9Z"/>
      <path class="cls-4" d="M141.97,155.23c-.81,5.16-3.89,9.66-3.92,15.11-.04,10.38.48,13.03,6.09,23.5-9.92-1.76-13.18-28.53-3.08-39.59.9-.24,1.18.1.9.97Z"/>
      <path class="cls-12" d="M217.32,144.06c1.93-4.31,3.44-8.89,8.75-12.73-7.14,13.9-9.7,26.69.27,39.28-4.18.81-5.38-2.32-7.27-4.34-.86-.75-.09-2.05-.94-2.8h0c-1.01-1.07.06-2.65-.92-3.74h.02c-.74-5.22-.95-10.45.09-15.67Z"/>
      <path class="cls-5" d="M58.91,68.7c5.06-2.4,8.81-4.39,12.74-5.94,1.7-.67,2.02,1.51,2.79,2.53.59.78.75,1.86-.44,2.3-4.44,1.63-8.94,2.82-15.09,1.11Z"/>
      <path class="cls-13" d="M33.6,185.92c-3.26-2.06-6.12-9.55-5.05-12.16.33-.8.9-1.24,1.73-1.21,1.11.04,1,.96.99,1.67-.02,1.99-.03,3.96.6,5.89.56,1.71,1.03,3.45,1.73,5.81Z"/>
      <path class="cls-7" d="M19.68,68.31c-.49,2.15-2.2,1.22-3.54,1.41s-4.4.56-3.58-.73c1.39-2.17,3.49-4.53,4.71-3.94,1.26.21,2.34,1.87,2.42,3.26Z"/>
      <path class="cls-1" d="M149.56,39.04c-.87.75-1.9.87-2.99.71.81-1.02,1.92-.77,2.99-.71Z"/>
      <path class="cls-1" d="M154.16,38.1c-.68.26-1.36.51-2.04.77.49-.75,1.24-.84,2.04-.77Z"/>
      <path class="cls-1" d="M41.19,147.71c4.14.15,7.88-1.27,11.58-2.88,2.16-.94,1.95-2.93,2.22-4.72.29-1.93-1.3-1.75-2.4-2.08-4.12-1.26-7.4-3.46-7.81-8.12-.39-4.44,1.12-8.23,5.03-10.75,4.33-2.79,8.75-2.69,13.14-.16,3.84,2.21,5.66,5.6,5.46,10.01-.18,4.07-2.78,6.6-6.2,7.92-4.07,1.57-3.35,4.69-2.44,7.24,2.16,6.05,14.86,9.18,19.75,5.15,2.8-2.3,3.85-4.81.99-7.85-.93-.98-2.33-2.08-.87-3.49,1.33-1.28,2.56-.12,3.66.73,3.4,2.64,4.1,7.19,1.68,10.76-3.53,5.21-9.65,7.11-16.48,4.98-2.05-.64-4.55-1.15-5.86-2.6-4.33-4.8-8.76-3.64-13.84-1.56-4.83,1.98-9.99,1.95-14.97.06-2.51-.95-4.09-2.81-4.39-5.51-.31-2.83.96-5.1,3.01-6.93.82-.74,1.84-1.31,2.9-.4.83.72.61,1.64.25,2.54-2.52,6.33-1.59,7.61,5.58,7.65Z"/>
      <path class="cls-1" d="M225.28,106.32c-.02-.35-.12-1.73-.22-3.11-.14-2.04-.9-2.89-3.25-2.61-10.3,1.22-10.08,1.13-10.31-9.33-.09-4.34.88-6.28,5.55-6,2.66.16,7.72-.39,7.72-.39,0,0,0-2.82.11-5.51-.09-1.07.66-2.2,1.99-2.1,1.36.11,1.64,1.32,1.56,2.41-.24,3.14-.24,4.97-.24,4.97,0,0,3.4-.73,5.27-.95,7.05-.86,8.24.57,7.26,7.57-.19,1.37-.18,2.78-.39,4.14-.37,2.38-1.34,4.08-4.26,3.66-1.04-.15-2.16.29-3.22.18-3.86-.38-4.82,1.53-4.25,4.96.28,1.67.39,3.38.37,5.07-.03,1.49.03,3.45-2.26,3.22-2-.2-1.54-1.91-1.43-3.27.05-.61,0-1.23,0-2.89Z"/>
      <path class="cls-1" d="M139.66,114.62c-.67-3.37.64-5.81,5.33-5.56,1.21.07,2.45-.31,3.66-.58,1.68-.37,1.57-1.76,1.39-2.96-.22-1.44-1.32-.83-2.18-.71-2.3.31-4.59.66-6.89.89-1.14.11-2.34-.22-2.51-1.5-.22-1.62,1.07-1.98,2.38-2.19,3.04-.5,6.09-1.01,9.12-1.57,1.1-.2,2.28-.42,3.02.54,2.18,2.83.68,5.98.49,8.96-.14,2.27-2.32,1.95-3.92,2.4-2.42.68-7.24-1.25-6.22,3.62.76,3.64,4.34.68,6.52.54,4.69-.29,6.26.9,5.98,5.62-.4,6.7-4.68,11.13-9.55,9.8-1.42-.39-3.53-.72-3.3-2.63.28-2.29,2.24-1.3,3.72-1.15,3.28.34,6.33-3.71,5.29-6.83-.42-1.25-1.18-1.15-2.15-.95-1.21.25-2.44.39-3.66.63-6.02,1.19-6.67.64-6.51-6.37Z"/>
      <path class="cls-1" d="M167.09,124.79c0,1.38.04,2.15-.01,2.92-.08,1.18-.54,2.15-1.88,2.19-1.37.04-1.91-.92-1.93-2.1-.14-8.8-1.07-17.54-1.93-26.29-.13-1.3-.34-3.11,1.7-3.13,1.85-.02,1.96,1.65,2.08,3.05.68,7.99,1.35,15.98,1.97,23.37Z"/>
      <path class="cls-1" d="M160.63,172.97c-.24,1.2-.32,2.44-.74,3.57-.85,2.34-1.89,4.94-4.71,5.14-2.75.19-4.23-1.98-5.44-4.3-1.51-2.91-2.94-5.78-2.29-9.19.58-3.04,1.94-5.96,5.16-6.35,3.17-.38,5.79.93,6.42,4.92.32,2.03,1.77,3.9,1.59,6.2Z"/>
      <path class="cls-1" d="M227.26,147.52c-.1-3.87.94-7.07,4.82-8.66,3.03-1.25,7.2.28,8.14,3.25,1.06,3.36,1.74,6.82.36,10.39-1.18,3.03-2.37,5.55-6.36,5.49-4.13-.06-5.71-2.45-6.43-5.9-.31-1.49-.36-3.04-.53-4.56Z"/>
      <path class="cls-10" d="M56.19,133.77c-4.6,0-7.28-2.18-7.24-5.88.04-3.94,3.06-6.88,7.12-6.96,4.45-.09,8.08,3.08,8.11,7.09.03,3.43-3.19,5.75-8,5.75Z"/>
      <path class="cls-7" d="M215.31,93.97c.08-4.83,1.24-5.73,7.13-5.56,3.52.1,1.97,2.91,2.14,4.51.58,5.71-4.14,4.05-7.01,4.58-3.29.61-2.03-2.12-2.25-3.53Z"/>
      <path class="cls-7" d="M228.39,91.46c-1.14-5.29,2.96-3.79,5.51-4.08,1.52-.18,3.56-.84,3.57,2.08.03,4.82-1.05,5.74-5.7,6.23-3.88.41-3.48-1.85-3.38-4.23Z"/>
      <path class="cls-1" d="M208.94,116.57c-.22-1.76-2.41-1.46-4.29-1.16-1.88.29-8.05,1.76-12.81.8s0,0,0,0c0,0-4.21-.61-6.98-2.28-.15-1.71-.15-3.03-.1-5.16,1.48-.18,5.09.1,4.55-1.98-.29-1.11-.95-.99-1.42-.96-1.39.09-2.11.39-3.44.46-.16-1.63-.23-2.51-.25-4.13.5,0,1.31-.12,2.78-.22.59-.04,2.94,0,2.44-2.06-.45-1.83-2.07-1.06-3.17-1.03-.94.03-1.41.24-2.76.24-.32-.54-.35-1.71-.46-2.62,1.06,0,2.46.13,3.47.05,1.4-.1,2.67-2.92.69-3.54s-3.48.35-4.76.26c-.14-1.83.02-2.27.12-3.68.07-.93-.92-1.6-1.99-1.48-.85.1-1.36.8-1.4,1.58-.07,1.4-.04,2.3.05,3.84-1.94.5-4.88-1.08-5.49.34-.84,1.96,1.46,3.01,3.5,3.01.69,0,1.64-.1,2.58-.28.02,1.1.15,1.59.3,2.54-.76.13-1.89.08-2.91.19-.61.07-1.23.03-1.84.06-1.31.08-2.59.41-2.58,2,0,1.64,1.33,1.85,2.63,1.84,1.53-.01,3.93-.44,5.46-.47.41,4.06.5,5.82.59,9.57-.95-.3-1.14-.35-1.77-.8.03-2.09.38-6.21-1.28-6.39-1.66-.18-2.15.8-2.03,2.64.08,1.3.02,3.92.02,3.92.08,1.58-.27,3.07-1.05,4.43-.8,1.4-2.67,3.17-.19,4.17,1.96.79,2.49-.86,3.32-2.27.63-1.07.74-1.41,1.18-3.18,6.84,5.59,17.55,5.22,20.72,5.14,2.17-.06,5.85-.53,6.84-.92,1.07-.42,1.88-1.25,1.73-2.46Z"/>
      <path class="cls-2" d="M154.51,177.28c-3.11-3.54-3.31-7.14-1.32-11.33,4.02,3.53,3.78,7.18,1.32,11.33Z"/>
      <path class="cls-11" d="M236.62,147.46c-.27,1.78-.63,4.21-2.53,6-.57.53-1.13.13-1.45-.44-1.34-2.39-.5-4.74.29-7.04.42-1.22.65-3.16,2.39-2.71,1.43.37,1.47,2.13,1.29,4.19Z"/>
      <path class="cls-1" d="M202.87,85.13c2.01.9,2.87,1.79,2.68,2.81-.16.89-1.4,1.36-2.58,1-2.42-.74-3.43-2.1-2.79-3.37s1.55-.95,2.69-.44Z"/>
      <path class="cls-1" d="M207.95,105.72c-2.1-.56-2.26,2.38-2.68,4.18-1.21-.97-2.74-2.01-2.81-2.68.86-.95,2.6-6.34,2.94-9.07.08-.61-.35-1.16-.96-1.24l-.9-.12c-.62-.08-1.19.34-1.28.96-.3,1.92-1,5.79-1.6,7.26-1.45-2.85-2.09-7.85-2.44-10.41.99-.11,4.68-.13,5.32-.29s1.67-.51,1.56-1.42c-.12-1-1.11-1.51-2.46-1.38s-3.66.48-4.85.35c.09-2.06.4-4.65-.77-5.18-1-.45-2.23.04-2.29,1.12-.07,1.36.21,2.53.47,4.24-2.53.71-4.85.4-5.44.62-.84.31-.45,2.46-.2,2.82s.59-.08.83,1.83.75,7.95,1.14,11.36c-1.64,1.18-1.93.72-2.91,1.35-1.15.74.18,2.7,1.5,2.74.76.02,2.29-.34,3.88-1.62,1.6-1.28,2.99-1.86,3.36-2.83s-.63-3-1.75-2.23c-1.32.91-1.59,1.44-1.59,1.44-.62-5.63-.88-9.9-.88-12.24,1.25-.09,1.34-.34,2.65-.4.15,2.11.85,4.89,1.65,7.89s.9,3.11,1.62,5.1c0,0-.89,1.33-1.65,2s-.98.65-1.82,1.47.68,3.08,2.03,2.32,2.4-2.46,3.26-3.32c.91.79,2.18,2.12,3.33,2.87s3.09,1.28,3.82-.93c1.24-3.74,2.06-6-.05-6.56Z"/>
      <path class="cls-9" d="M137.5,50.58c4.42-2.37,9.93-2.54,14.37-4.67,14.65-7.02,30.94-9.66,45.37-17.21l-.48-1.12c-3.71-1.06-9.78-.95-12.43-.95-8.58,2.04-5.37,2.9-12.9,4.59-6.17,1.39-11.17,5.46-17.26,6.88-.62.4-27.12,9.64-28.74,9.32-.67.33-1.47.3-2.11.73-2.05,3.11-4.22,5.64-6.22,8.78-.58.91-1.62,1.9-.68,2.38,1.33.68,13.87-4.86,21.09-8.74Z"/>
      <path class="cls-1" d="M244.99,34.35c-6.28-.58-11.58,2.87-17.18,4.8-9.46,3.27-18.83,7.13-28.75,8.34-10.52,1.28-19.91,5.78-29.79,8.82-2.59.8-5.43,1.22-7.83,2.6-8.11,4.64-16.97,7.14-25.97,9.24-1.51.35-3.35.48-3.05,2.66.3,2.16,1.97,2.61,3.85,2.3,6.53-1.09,13.01-2.96,19.12-5.08,5.01-1.74,9.52-5.64,14.98-6.77,6.8-1.41,12.63-5.32,19.44-6.8,8.67-1.89,17.52-2.68,26.05-5.76,5.02-1.82,10.06-3.49,15.06-5.48,4.44-1.77,8.9-4.44,14.45-4.11,1.59-.5,5.04,1.56,5.23-2.06.21-3.98-3.47-2.49-5.61-2.69Z"/>
      <path class="cls-1" d="M40.42,117.38c-3.73-.02-4.51-3.12-4.64-4.97-.25-3.52,2.7-4.66,5.26-4.98,2.78.62,4.93,1.34,5.34,4.12.17,1.14-.28,2.38-1.25,3.51-1.22,1.41-3.06,2.33-4.68,2.33h-.03Z"/>
      <path class="cls-1" d="M75.61,118.26c-2.71,0-4.28-1.71-4.66-5.1-.1-.93.27-1.93,1.07-2.82,1.08-1.21,2.69-1.95,4.21-1.95.16,0,.33,0,.49.03,2.54.28,3.98,1.92,4.29,4.87-.22,3.13-1.94,4.83-5.1,4.97-.1,0-.2,0-.3,0Z"/>
      <path class="cls-1" d="M24.59,104.15c-.58-.17-.96-.43-1.14-.77-.19-.35-.17-.83.05-1.4.71-1.88,2.08-3.23,4.19-4.13,4.08-1.74,8.7-3.72,12.46-7.2.64-.59,1.57-.97,2.47-1.34.21-.09.42-.17.62-.26.38-.16.94-.38,1.42-.38.34,0,.78.09,1.07.82.35.86-.06,1.22-1.03,1.96-.13.1-.26.19-.39.3-3.93,3.1-8.3,5.67-12.53,8.15-1.96,1.15-4,2.34-5.96,3.58-.34.22-.71.4-1.02.56l-.21.11Z"/>
      <path class="cls-1" d="M100.05,107.09c-.43,0-.98-.13-1.32-1.18-1.2-3.61-3.78-5.78-8.37-7.03-1.33-.36-2.51-1.16-3.75-2-1.79-1.21-3.65-2.47-6.12-2.47-.2,0-.41,0-.62.03,0,0-.02,0-.03,0-.11,0-.27-.02-.42-.23-.21-.31-.25-.82-.09-1.25.35-.94,1.01-1.34,2.22-1.34.18,0,.37,0,.56.02,1.55.71,3.16,1.35,4.72,1.97,5.22,2.06,10.16,4.02,13.57,8.69.51.7.9,1.66,1.11,2.73.22,1.13-.09,1.8-.93,1.99-.19.04-.37.07-.52.07Z"/>
    </g>
  </g>
</svg>