<?xml version="1.0" encoding="UTF-8"?>
<svg id="_レイヤー_2" data-name="レイヤー 2" xmlns="http://www.w3.org/2000/svg" viewBox="0 0 348 348">
  <defs>
    <style>
      .cls-1 {
        fill: #231815;
      }

      .cls-1, .cls-2 {
        stroke-width: 0px;
      }

      .cls-2 {
        fill: #e6e6e6;
      }
    </style>
  </defs>
  <g id="design">
    <g>
      <path class="cls-2" d="M174,346.5c-6.16,0-12.23-2.92-18.11-5.75-4.54-2.18-9.23-4.44-14-5.38-2.35-.47-4.91-.68-8.03-.68-2.46,0-4.98.14-7.42.27-2.38.13-4.84.26-7.19.26-4.79,0-8.27-.56-11.29-1.81-5.59-2.32-10.05-7.31-14.37-12.15-3.39-3.79-6.89-7.71-11-10.47-4.16-2.79-9.16-4.54-13.99-6.24-6.36-2.24-12.37-4.35-16.59-8.58s-6.34-10.23-8.58-16.59c-1.7-4.83-3.46-9.83-6.25-13.99-2.75-4.11-6.67-7.61-10.47-11-4.83-4.32-9.83-8.78-12.15-14.36-2.26-5.45-1.91-11.78-1.55-18.48.28-5.15.57-10.47-.41-15.44-.94-4.77-3.2-9.46-5.38-14-2.83-5.87-5.75-11.95-5.75-18.11s2.92-12.23,5.75-18.11c2.18-4.54,4.44-9.23,5.38-14,.98-4.98.69-10.3.41-15.44-.37-6.7-.71-13.03,1.55-18.48,2.32-5.59,7.31-10.05,12.15-14.37,3.79-3.39,7.71-6.89,10.47-11,2.79-4.16,4.54-9.16,6.24-13.99,2.24-6.36,4.35-12.37,8.58-16.59,4.22-4.22,10.23-6.34,16.59-8.58,4.83-1.7,9.83-3.46,13.99-6.24,4.11-2.75,7.61-6.67,11-10.47,4.32-4.83,8.78-9.83,14.37-12.15,3.02-1.25,6.5-1.81,11.29-1.81,2.35,0,4.81.13,7.19.26,2.44.13,4.95.27,7.42.27,3.12,0,5.67-.22,8.03-.68,4.77-.94,9.46-3.2,14-5.38,5.88-2.83,11.95-5.75,18.11-5.75s12.23,2.92,18.11,5.75c4.54,2.18,9.23,4.44,14,5.38,2.35.47,4.91.68,8.03.68,2.46,0,4.98-.14,7.41-.27,2.38-.13,4.84-.26,7.19-.26,4.79,0,8.27.56,11.29,1.81,5.59,2.32,10.05,7.31,14.37,12.15,3.39,3.79,6.89,7.71,11,10.47,4.16,2.79,9.16,4.54,13.99,6.24,6.36,2.24,12.37,4.35,16.59,8.58,4.22,4.22,6.34,10.23,8.58,16.59,1.7,4.83,3.46,9.83,6.25,13.99,2.75,4.11,6.67,7.61,10.47,11,4.83,4.32,9.83,8.78,12.15,14.36,2.26,5.45,1.91,11.78,1.55,18.48-.28,5.15-.57,10.47.41,15.44.94,4.77,3.2,9.46,5.38,14,2.83,5.87,5.75,11.95,5.75,18.11s-2.92,12.23-5.75,18.11c-2.18,4.54-4.44,9.23-5.38,14-.98,4.98-.69,10.3-.41,15.44.37,6.7.71,13.03-1.55,18.48-2.32,5.59-7.31,10.05-12.15,14.37-3.79,3.39-7.71,6.89-10.47,11-2.79,4.16-4.54,9.16-6.24,13.99-2.24,6.36-4.35,12.37-8.58,16.59-4.22,4.22-10.23,6.34-16.59,8.58-4.83,1.7-9.83,3.46-13.99,6.24-4.11,2.75-7.61,6.67-11,10.47-4.32,4.83-8.78,9.83-14.37,12.15-3.02,1.25-6.5,1.81-11.29,1.81-2.35,0-4.81-.13-7.19-.26-2.43-.13-4.95-.27-7.42-.27-3.12,0-5.67.22-8.03.68-4.77.94-9.46,3.2-14,5.38-5.88,2.83-11.95,5.75-18.11,5.75Z"/>
      <path class="cls-1" d="M174,3c5.82,0,11.47,2.72,17.46,5.6,4.62,2.22,9.4,4.52,14.36,5.5,2.45.49,5.1.71,8.32.71,2.5,0,5.04-.14,7.5-.27,2.47-.13,4.8-.26,7.11-.26,4.58,0,7.89.52,10.72,1.7,5.27,2.19,9.42,6.84,13.82,11.76,3.45,3.86,7.02,7.86,11.28,10.71,4.32,2.89,9.41,4.68,14.33,6.41,6.19,2.18,12.05,4.24,16.03,8.22,3.98,3.98,6.04,9.83,8.22,16.03,1.73,4.92,3.52,10.01,6.41,14.33,2.86,4.27,6.85,7.84,10.71,11.28,4.92,4.4,9.58,8.55,11.76,13.82,2.13,5.13,1.79,11.3,1.43,17.82-.29,5.24-.58,10.66.44,15.82.98,4.96,3.28,9.74,5.5,14.36,2.88,5.99,5.6,11.64,5.6,17.46s-2.72,11.47-5.6,17.46c-2.22,4.62-4.52,9.4-5.5,14.36-1.02,5.16-.72,10.58-.44,15.82.36,6.53.69,12.69-1.43,17.82-2.19,5.27-6.84,9.42-11.76,13.82-3.86,3.45-7.86,7.02-10.71,11.28-2.89,4.32-4.68,9.41-6.41,14.33-2.18,6.19-4.24,12.05-8.22,16.03-3.98,3.98-9.83,6.04-16.03,8.22-4.92,1.73-10.01,3.52-14.33,6.41-4.27,2.86-7.84,6.85-11.28,10.71-4.4,4.92-8.55,9.58-13.82,11.76-2.83,1.17-6.14,1.7-10.72,1.7-2.31,0-4.64-.13-7.11-.26-2.45-.13-4.99-.27-7.5-.27-3.22,0-5.87.23-8.32.71-4.96.98-9.74,3.28-14.36,5.5-5.99,2.88-11.64,5.6-17.46,5.6s-11.47-2.72-17.46-5.6c-4.62-2.22-9.4-4.52-14.36-5.5-2.45-.49-5.1-.71-8.32-.71-2.5,0-5.04.14-7.5.27-2.47.13-4.8.26-7.1.26-4.58,0-7.89-.52-10.72-1.7-5.27-2.19-9.42-6.84-13.82-11.76-3.45-3.86-7.02-7.86-11.28-10.71-4.32-2.89-9.41-4.68-14.33-6.41-6.19-2.18-12.05-4.24-16.03-8.22-3.98-3.98-6.04-9.83-8.22-16.03-1.73-4.92-3.52-10.01-6.41-14.33-2.86-4.27-6.85-7.84-10.71-11.28-4.92-4.4-9.58-8.55-11.76-13.82-2.13-5.13-1.79-11.3-1.43-17.82.29-5.24.58-10.66-.44-15.82-.98-4.96-3.28-9.74-5.5-14.36-2.88-5.99-5.6-11.64-5.6-17.46s2.72-11.47,5.6-17.46c2.22-4.62,4.52-9.4,5.5-14.36,1.02-5.16.72-10.58.44-15.82-.36-6.53-.69-12.69,1.43-17.82,2.19-5.27,6.84-9.42,11.76-13.82,3.86-3.45,7.86-7.02,10.71-11.28,2.89-4.32,4.68-9.41,6.41-14.33,2.18-6.19,4.24-12.05,8.22-16.03,3.98-3.98,9.83-6.04,16.03-8.22,4.92-1.73,10.01-3.52,14.33-6.41,4.27-2.86,7.84-6.85,11.28-10.71,4.4-4.92,8.55-9.58,13.82-11.76,2.83-1.17,6.14-1.7,10.72-1.7,2.31,0,4.64.13,7.1.26,2.46.13,4.99.27,7.5.27,3.22,0,5.87-.23,8.32-.71,4.96-.98,9.74-3.28,14.36-5.5,5.99-2.88,11.64-5.6,17.46-5.6M174,0c-11.35,0-21.67,9.04-32.4,11.16-2.5.49-5.1.65-7.74.65-4.83,0-9.81-.54-14.6-.54-4.17,0-8.2.41-11.87,1.93-10.35,4.29-16.43,16.59-25.62,22.75-9.27,6.21-22.95,7.15-30.81,15.01-7.86,7.86-8.8,21.54-15.01,30.81-6.16,9.2-18.46,15.28-22.75,25.62-4.22,10.17.14,23.15-2.04,34.21-2.12,10.73-11.16,21.05-11.16,32.4s9.04,21.67,11.16,32.4c2.19,11.06-2.17,24.03,2.04,34.21,4.29,10.35,16.6,16.43,22.75,25.62,6.21,9.27,7.15,22.95,15.01,30.81,7.86,7.86,21.54,8.8,30.81,15.01,9.2,6.16,15.28,18.46,25.62,22.75,3.67,1.52,7.69,1.93,11.87,1.93,4.79,0,9.77-.54,14.6-.54,2.64,0,5.24.16,7.74.65,10.73,2.12,21.05,11.16,32.4,11.16s21.67-9.04,32.4-11.16c2.5-.49,5.1-.65,7.74-.65,4.83,0,9.81.54,14.6.54,4.17,0,8.2-.41,11.87-1.93,10.35-4.29,16.43-16.59,25.62-22.75,9.27-6.21,22.95-7.15,30.81-15.01,7.86-7.86,8.8-21.54,15.01-30.81,6.16-9.2,18.46-15.28,22.75-25.62,4.22-10.17-.14-23.15,2.04-34.21,2.12-10.73,11.16-21.05,11.16-32.4s-9.04-21.67-11.16-32.4c-2.19-11.06,2.17-24.03-2.04-34.21-4.29-10.35-16.6-16.43-22.75-25.62-6.21-9.27-7.15-22.95-15.01-30.81-7.86-7.86-21.54-8.8-30.81-15.01-9.2-6.16-15.28-18.46-25.62-22.75-3.67-1.52-7.69-1.93-11.87-1.93-4.79,0-9.77.54-14.6.54-2.64,0-5.24-.16-7.74-.65-10.73-2.12-21.05-11.16-32.4-11.16h0Z"/>
    </g>
  </g>
</svg>