<?xml version="1.0" encoding="UTF-8"?>
<svg id="_レイヤー_2" data-name="レイヤー 2" xmlns="http://www.w3.org/2000/svg" viewBox="0 0 111.15 174.68">
  <g id="design">
    <g>
      <path d="M108.23,170.47c-1.72-.02-3.47.27-5.29-.72,2.58-2.96,5.09-5.89,6.95-9.3,1.78-3.27.37-6.65-3.26-7.83-2.54-1.61-5.63-1.22-8.34-2.27-2.47-.96-4.91-3.71-4.12-5.1,1.26-2.2.02-3.23-1.64-4-3.31-1.53-5.81-4.03-8.28-6.58-1.57-1.61-2.33-3.42-1.53-5.78.59-1.74.78-3.62,1.14-5.43-.2-5.85-.42-11.7-1.12-17.52.46-.7.21-1.38-.08-2.06.39-4.16.38-8.28-1.19-12.26-1.39-2.28-3.44-4.44-5.78-4.91-4.54-.91-7.74-3.84-11.4-6.06-3.43-2.08-6.27-4.87-9.35-8.53,3.66.31,5.51-.99,5.57-3.79.05-2.35.58-4.49,1.39-6.63h0c1.27-2.34,2.27-4.79,2.96-7.37,0,0,0,0,0,0l3.65-10.41c.2-.65-.11-1.46.63-1.94h0c1.02-.74.97-1.95,1.26-2.98,2.09-7.37.46-8.5-4.95-9.37-.11-.02-.17-.31-.24-.43,1.48-1.7,3.01-3.33,4.4-5.07,1.4-1.75,2.78-3.53,3.96-5.43,3.89-6.27,1.45-12-5.7-13.41-1.84-.36-4.37-.95-6.09.25-4.12,2.88-6.68,5.82-7.29,11.08-.15,1.31-.29,2.64-.67,3.89-1.45,4.78-1.44,4.62-6.31,3.3-2.15-.58-1.51-1.25-.64-2.36,1.57-2.01,3-4.08,4.19-6.36,4.46-8.51,2.47-12.88-6.82-14.7-8.45-1.66-12.7,1.76-12.76,10.39-.02,2.54.24,5.08.36,7.61.1,1.9-.32,3.02-2.57,1.93-1.67-.81-3.53-.99-5.37-1.18-4.22-.42-5.59.72-6.68,4.85-1.79,6.78-3.82,13.49-5.61,20.26-1.27,4.82-2.05,9.74-2.69,14.68-.3,2.33.72,3.69,3.13,3.9h0c1.34,1.39,4.11.32,4.83,2.78-1.11,1.76-.66,2.4-1.46,5.74-.8,3.34-2.94,15.3-3.58,17.14-.64,1.84-.92,5.52.09,6.24s2.88,1.35,4.46,1.52c1.26.13,2.43.26,2.98,1.61h0c.72,2.39,3.73,3.42,4.83,3.6,1.1.18,2.37.6,4.58.02,1.44-.38,4.34-1.81,6.59-2.53,1.93-.44,3.68.3,5.48.78,4.99,2.51,10.16,2.25,15.4.97h0c.97-.02,2.16.1,1.95,1.32s-6.11,16.71-6.23,17.76-1.33,2.12.29,2.96h0c-.16.35-.25.93-.5,1.01-5.42,1.73-9.55,5.69-14.48,8.27-.99.52-2.57,1.12-2.12,2.24,1.13,2.84-1.03,3.22-2.61,4.05-2.24,1.17-4.53,2.24-6.82,3.36-.78-1.18-.53-2.47-.88-3.62-1.06-3.52-1.95-7.21-6.09-8.49-6.14-1.9-12.82,3.29-12.55,9.91.15,3.65.59,7.32,1.32,10.89,1.51,7.49,9.96,10.45,15.57,5.21,5.01-4.68,10.99-7.25,17.13-9.71,1.38-.55,2.96-1.21,4.33.05,2.03,1.88,3.95,1.31,6.15.21,5.44-2.74,10.93-5.41,16.97-6.68,2.8,4.59,4.97,9.59,9,13.38,1.56,1.46,3.25,2.54,5.11,1.08,1.73-1.37,2.42-.41,3.42.73,1.22,1.39,1.91,3.41,4.13,3.71h0c.57.48.77,1.05.45,1.75-4.82,2.08-4.56,6.06-3.6,10.35-.74,0-1.24-.01-1.75,0-8.26.25-16.53-.03-24.81.36-6.37.3-12.82.48-19.27-.1-7.4-.66-14.89-.31-22.34-.35-1.17,0-2.39.32-2.36,1.81.03,1.5,1.26,1.69,2.44,1.65,3.68-.13,7.36.41,11,.32,9.7-.25,19.38,1.09,29.07.3,6.62-.54,13.26-.37,19.89-.33,5.28.03,10.57.07,15.86,0,4.79-.06,9.55.98,14.36.37,1.34-.17,2.93-.14,2.87-1.97-.06-1.67-1.5-2.02-2.92-2.03ZM50.46,88.43c-1.1-.04-1.68-.56-1.48-1.78.28-.59-.06-1.9,1.06-1.68,1.23.24,1.92,1.52,2.06,2.67.1.82-.95.81-1.65.79Z" style="fill: #231815; stroke-width: 0px;"/>
      <path d="M60.92,28.2c4.19-2.08,6.36-5.89,8.97-9.37,1.97-2.62,2.34-6.91.72-9.64-1.18-1.99-6.11-3.13-7.61-1.52-1.92,2.05-4,4.06-4.99,6.82,0,0,0,0,0,0-.58,4.04-1.86,7.91-2.96,11.82-.31,1.1-.46,2.31-1.97,2.18-1.97-.18-2.54,1.18-3.13,2.59-.65,1.27.08,2.05.93,2.87,1.89,1.83,3.08,4.12,4.26,6.41-1.19-1.52-2.22-3.14-3.27-4.74-.83-1.26-1.75-2.55-3.63-2.12-1.66-.25-3.31-.55-4.98-.75-3.36-.41-3.81-1.25-2.6-4.51.41-1.09,1.45-2.11.84-3.43-.72-1.55.25-2.42,1.13-3.45,2.29-2.67,4.91-5.17,6.22-8.48.89-2.25,2.56-4.68.38-7.18-3.04-3.49-6.41-4.68-11.41-2.34-.5.17-.78.41-1.03.62-2.47,1.32-2.44,4.47-2.51,6.59-.11,3.45.04,6.92.33,10.37.22,2.67-1.07,3.34-3.29,2.92-2.2-.41-4.35-1.13-6.54-1.61-3.56-.78-4.04-.39-4.86,3.06-.44,1.87-1.22,3.67-1.71,5.54-1.72,6.47-3.62,12.92-4.96,19.47-.53,2.56-1.42,5.86-1.75,7.64-.32,1.78,1.05,2.41,2.8,3.1s7.91,2.26,8.76,2.44c1.64.47,5.35-.07,5.35-.07,2,0,3.9.49,5.72,1.29,1.72.57,3.19,1.94,5.11,1.87,4.23-.17,8.25.87,12.35,1.74,5.57,1.17,5.77,1.01,6.54-4.64.49-3.57,2.87-6.2,3.96-9.43,1.6-1.99,1.4-4.53,2.06-6.8-.19-1.72,3.62-12.13,4.21-13.88-2.34-.68-4.71-1.28-7.01-2.08-2.11-.74-2.27-2.39-.45-3.29ZM58.09,14.63c.2.39.29.78.31,1.15-.03-.37-.13-.76-.31-1.15Z" style="fill: #faa2ad; stroke-width: 0px;"/>
      <path d="M66.18,85.15c-3.37.77-5.74,1.31-8.11,1.86-1.32.31-2.39-.13-3.3-1.07-1.19-1.24-2.39-2.48-3.56-3.74-.86-.94.14-7.12,1.2-7.6.49-.22.77.11,1.05.38,3.65,3.63,7.4,7.15,12.71,10.18Z" style="fill: #f91c46; stroke-width: 0px;"/>
      <path d="M34.08,73.15c-.56-.19-.73-1.84-1.09-1.98-.49-.19-1.87,2.32-2.28.73-.27-1.06.14-2.44.61-3.51.54-1.23,1.79-.61,2.71-.43,1.19.24,2.31.75,3.49,1.07.99.27,1.67.68,1.47,1.88-.18,1.08-.84,2.31-1.71,2.31-.69,0-1.08-1.8-1.4-1.74s-1.2,1.89-1.81,1.68Z" style="fill: #964628; stroke-width: 0px;"/>
      <path d="M36.05,90.6c-1.41.56-2.42.67-3.35-.46.99.25,2.06-.71,3.35.46Z" style="fill: #56411c; stroke-width: 0px;"/>
      <path d="M45.82,69.98c-4.36-.99-5.28-1.59-6.48,2.57-.3,1.05-1.31,2.38-2.13,2.41-.66.02-.37-1.74-1.35-1.74-.55,0-1.13,1.65-2.27,1.3-.69-.21-.91-1.12-1.43-1.15s-1.33.66-1.68.57c-1.61-.39-1.51-1.54-1.15-5.2.14-1.43-.03-1.74-.46-1.96s-2.83-.5-4.2-.75c-1.37-.24-2.07-.1-3.07-.34-3.13-.76-2.96.99-3.31,2.48-1,4.33-4.19,19.24-4.43,20.42-.25,1.18-.98,4.21-.07,4.84.91.63,1.4.39,2.85.56.36.04,1.18.09,1.52.09s1.23.24,1.66-.63c.43-.87.97-3.5,3.14-3.15,1.75.28,2.53-.37,3.38-1.71.68-1.07,2.11-1.66,3.24-1.08,1.46.74,2.98.46,4.44.73,1.75.32,3.46.24,3.85,2.54.12.68,1.15,1.05,1.43.66,1.69-2.39,4.22-3.19,6.82-3.97.16-.05.26-.53.28-.82.33-3.97,1.79-7.69,2.65-11.55.94-4.19,1.02-4.17-3.23-5.13Z" style="fill: #faa2ad; stroke-width: 0px;"/>
      <path d="M80.21,128.35c-.99,2.83-1.5,3.09-5.6,6.1s-14.69,4.17-21.71,7.25c-1.92.84-3.56,2.99-5.75,2.4-2.12-.57-2.74-3.15-4.21-4.67-1.13-1.16-2.48-2.09-3.66-3.2-.9-.85-1.14-1.74.35-2.29,4.74-1.74,8.02-5.9,12.77-7.71,1.05-.4,2.28-.77,3.22-1.55.65-.38,1.36.03,2.02.21.72.18,1.46.21,2.2.27,2.3.6,10.45,2.14,12.27,2.04,1.82-.1,5.43-.2,6.25-.45s2.14-1.11,1.86,1.6Z" style="fill: #716f5b; stroke-width: 0px;"/>
      <path d="M46.08,29.91c-.34-.06-1.53,1.06-1.9,1.11s-.27-1.17-.64-1.2c-.51-.03-1.17,1.53-1.42.9-.39-.97.09-2.58.69-3.59,1.02-1.7,2.56-1.12,3.77-.69,1.16.4,3.41.38,3.15,1.94-.26,1.54-1.57,3.98-3.19,3.57-.34-.09.14-1.81-.45-2.04Z" style="fill: #974729; stroke-width: 0px;"/>
      <path d="M49.96,31.08c.72,2.59,3.55,3.68,4.45,6.15.1.27.39.46.56.71.92,1.33,2.4,3.33,1,4.21-1.66,1.05-1.62-1.67-2.41-2.62-1.71-2.07-2.5-4.92-5.31-6.03.5-.85.72-1.9,1.7-2.42Z" style="fill: #100e0f; stroke-width: 0px;"/>
      <path d="M22.94,144.32c.09,1.91-2.09,2.69-3.47,3.81-1.87,1.51-2.2,2.8-.59,4.51,1.36,1.44.5,2.07-.83,2.63-2.56,1.07-5.42.27-6.51-2.31-2.11-5.03-2.88-10.38-2.47-15.8.22-2.92,3.31-5.16,6.32-5.17,2.68,0,5.99,2.61,6.63,5.5.46,2.07.57,4.22.9,6.84Z" style="fill: #f89008; stroke-width: 0px;"/>
      <path d="M76.5,136.37c2.35-1.79,4.12-.83,5.86,1.06,1.09,1.19,2.38,2.22,3.68,3.19,1.29.97,2.71,1.79,4.21,2.77-.4,1.19-1.46,1.76-2.5,2.3-2.1,1.09-3.99,2.48-5.57,4.22-1.49,1.64-2.39,2.01-4.27.06-2.76-2.87-4.35-6.34-6.36-9.61-.75-1.21-.49-1.76.7-2.18,1.18-.42,3-.8,4.24-1.81Z" style="fill: #615f52; stroke-width: 0px;"/>
      <path d="M21.7,152.66c-.41-.45-.83-.86-1.21-1.31-.49-.57-.3-1.03.18-1.58,4.36-4.98,10.1-7.84,16.08-10.23,1.87-.74,3.05,1.16,4.24,2.31.48.46-.11.87-.62,1.05-6.41,2.16-12.57,4.79-17.76,9.28-.22.19-.52.28-.91.48Z" style="fill: #f7d898; stroke-width: 0px;"/>
      <path d="M103.49,160.78c1.3-.6,2.04-1.54,1.85-3.04.5-1.03.85-2.36,2.45-1.23,1.39,1.13.27,2.28-.2,3.18-1.07,2.04-2.35,3.98-3.69,5.86-3.92,5.49-8.02,5.2-13.72,3.71-2.63-.69-3.19-3.75-1.27-5.94.73-.83,1.6-1.54,2.4-2.3,2.17-.73,4.35-.6,6.55-.16,1.88.37,3.76.45,5.63-.06Z" style="fill: #f89009; stroke-width: 0px;"/>
      <path d="M103.44,154.23c.48,3.35-1.04,5.11-4.08,4.62-2.39-.38-4.81-.71-7.04-1.74-1.12-.76-2.69-.8-3.47-2.11-.28-.42-.53-.86-.83-1.26-2.57-3.4-2.46-3.62,1.49-5.6,1.26-.63,2.09-.46,2.86.57,1.14,1.54,2.65,2.62,4.31,3.52,2.12,1.1,4.61.99,6.76,2Z" style="fill: #f8d999; stroke-width: 0px;"/>
      <path d="M40.07,59.31c2.52,2.05,4.86.57,7.08-.54,1.31-.66.59-1.95.19-2.98-.2-.53-.24-1.01.29-1.32.54-.31.95.02,1.33.39,1.38,1.35,1.3,4.02-.17,5.21-3.51,2.87-8.5,2.6-11.56-.77-.9-.99-1.57-1.13-2.85-.82-3.18.77-6.32.76-8.79-1.92-2.01-2.18-2.01-5.73-.02-7.09.52-.35,1.06-.71,1.67-.25.47.36.61.92.14,1.3-1.85,1.52-1.67,3.1-.19,4.68,1.95,2.07,4.38,2.44,6.86,1.33,2.96-1.33,3.23-2.78,1.47-5.7-1.49-2.47-1.15-5.62.74-6.91,2.3-1.56,5.76-1.01,7.45,1.18,1.51,1.96,1.16,4.67-.8,6.3-.9.75-1.97,1.02-3.12,1.13-1.09.11-1.17.96-1.23,1.8-.48,1.94.51,3.45,1.49,4.96Z" style="fill: #231815; stroke-width: 0px;"/>
      <path d="M38.56,31.21c-.16.19-.33.61-.64.75-3.1,1.43-6.22,2.82-9.33,4.22-.62.28-.97-.06-1.15-.56-.21-.6-.09-1.52.38-1.62,3.38-.77,6.21-2.92,9.57-3.7.5-.12,1,.1,1.17.92Z" style="fill: #231815; stroke-width: 0px;"/>
      <path d="M49.76,44.87c-.67.9-3.65,1.39-4.53-1.09-.37-1.05-.1-2.23,1-2.94,1.46-.93,3.33-.28,3.85.63.52.91.35,2.49-.32,3.39Z" style="fill: #231815; stroke-width: 0px;"/>
      <path d="M34.64,37.1c2.01.04,2.74.94,2.79,2.48.05,1.69-1.04,2.41-2.48,2.38-1.55-.04-2.76-.89-2.65-2.64.1-1.57,1.22-2.19,2.34-2.22Z" style="fill: #231815; stroke-width: 0px;"/>
      <path d="M39.87,50.68c-2.47,0-3.32-1.07-3.38-3.03-.08-2.25,1.42-2.85,3.14-2.77,1.72.08,3.18.98,3.1,3.02-.07,2.02-1.46,2.72-2.85,2.78Z" style="fill: #f03c3c; stroke-width: 0px;"/>
      <path d="M76.85,90.5c-3.47-2.28-7.11-3.17-11.29-2.11-4.15,1.04-8.39,1.79-12.63,2.44-2.3.35-4.67.18-7.01.33-3.09.2-3.36,2.5-3.39,4.82-.03,2.6,2.12,2.34,3.76,2.54,1.29.15,2.34.58,5.46.36s6.5-1.92,9.76-1.2c2.16.28,9.64-.02,11.09-.85s2.34-1.39,3.24-2.44c.69-1.2,2.71-2.06,1.01-3.88Z" style="fill: #fbee1c; stroke-width: 0px;"/>
      <path d="M35.36,96.49c-1.09-.22-.38-.27-2.52,1.07-4.57,2.86-6.26,1.8-7.9,1.5-3.34-1.44-3.66-3.22-1.07-5.54.46-.41.77-.15,1.04-.01,2.7,1.31,3.42-1.18,4.03-3.59,2.08,2.83,5.06,3.85,8.05,4.14,1.06.1,2.02.24,2.54,1.31-.75,2.7-2.63,1.28-4.17,1.13Z" style="fill: #f6d798; stroke-width: 0px;"/>
      <g>
        <path d="M4.77,45.49c.36.7.84,1.38,1.05,2.13.19.65.29,1.53-.43,1.95-1.04.62-1.7,1.28-1.38,2.62.19.81-.52,1.28-1.05,1.73-.75.62-1.01,1.21-.25,2.02.26.28.38.71.51,1.09.11.33-.6.87-.96.75-2.11-.7-2.93-2.69-1.65-4.42.64-.86,1.14-1.61.98-2.7-.1-.66.17-1.24.7-1.59,1.16-.76,1.24-1.64.54-2.78-.69-1.11-.38-2.07.7-2.77.5-.33,1.04-.6,1.54-.92.57-.37.78-.75.33-1.46-.29-.46-.33-1.21.52-1.43.71-.19,1.18.2,1.52.74,1.04,1.66.71,2.89-.98,3.89-.51.3-1.18.35-1.7,1.16Z" style="fill: #231815; stroke-width: 0px;"/>
        <path d="M72.92,49.59c-.84-.07-1.14-.09-1.45-.12-.35-.03-.52-.22-.61-.55-.09-.36.11-.72.34-.77,1.81-.41,2.02-2.4,3.33-3.3.32-.22.57-.6.51-1.05-.2-1.61.35-2.69,1.93-3.33.96-.39.52-1.41.55-2.19.02-.57-.26-1.34.54-1.54.71-.17,1.03.46,1.31,1.01,1.07,2.07.92,3.11-1.11,4.31-1.06.63-1.49,1.26-1.32,2.39.12.79-.24,1.35-.79,1.87-.51.48-1.04.91-1.23,1.68-.32,1.27-1.25,1.75-2,1.59Z" style="fill: #231815; stroke-width: 0px;"/>
      </g>
    </g>
  </g>
</svg>