<?xml version="1.0" encoding="UTF-8"?>
<svg id="_レイヤー_2" data-name="レイヤー 2" xmlns="http://www.w3.org/2000/svg" viewBox="0 0 70.34 156.02">
  <g id="design">
    <g>
      <path d="M9.88,112.63c-3.08.34-5.29-.85-7.38-2.31-.4-.28-.88-.66-1.02-1.09-.6-1.86-1.09-3.69-.48-5.73.8-2.66,1.9-5.19,2.82-7.8.09-.25.42-.47.42-.7-.04-2.35,1.32-3.82,2.97-5.24,1.51-1.3,1.44-1.74-.18-3.28-.62-.59-.7-1.23-.67-1.98.08-1.93.15-3.85.2-5.78.02-.61.21-1.26-.63-1.63-.22-.1-.26-.79-.25-1.21.03-1.72.3-3.46-.81-4.99.09-2.35-1.24-4.46-1.06-6.88.14-1.96-.12-3.97-.33-5.94-.06-.56-.51-1.14-.91-1.6C.13,53.67-.39,50.42.26,46.88c.06-.34.37-.71.3-.99-.12-.49-.71-.92-.06-1.42.49-.38.95-.85,1.51-1.07.99-.39,2.02-.75,3.06-.89,1.78-.24,3.59-.27,5.39-.45,1.22-.12,2.43-.32,3.74-.5-1.04-2.42-2.28-4.3-4.33-5.64-.81-.53-1.5-1.31-1.76-2.45-.23-1.03-.78-2.07-1.45-2.89-1.19-1.45-1.76-3.12-2.27-4.86-.42-1.44-.73-2.98-1.5-4.21-.61-.97-.62-1.84-.59-2.83.03-1.19.21-2.4.1-3.58-.11-1.14.53-2.19.22-3.33-.07-.27.14-.65.29-.94,1.24-2.41,2.7-4.69,4.72-6.49,2.11-1.89,4.6-3.1,7.56-2.91.37.02.73.03,1.1.04,5.62.18,5.61.2,9.95,3.33,1.21.87,1.62,2.21,2.03,3.46.33.99.63,1.98,1.47,2.5,1.46.89,2.15,2.33,2.18,3.77.05,2.1.66,4.05,1.14,6.01.45,1.82.33,3.59.31,5.4,0,.72-.15,1.6.19,2.13.83,1.31.52,2.51.13,3.81-.68,2.28-1.27,4.59-1.89,6.87,2.13,1.11,3.64-.74,5.52-.83.04-.42.22-.83.1-1.11-.76-1.77-1.29-3.56-.98-5.52-.97-1.25-.32-2.65-.37-3.98-.11-3.25-.26-6.51-.16-9.76.07-2.06.26-4.21.93-6.13,1.05-2.97,2.65-5.7,5.76-7.11.57-.26,1.24-.53,1.58-1,1.14-1.56,3.01-1.98,4.49-3.01.46-.32,1.21-.32,1.82-.3,2.29.06,4.59.11,6.87.34.83.08,1.72.53,2.39,1.05,2.64,2.09,4.45,4.72,5.54,7.76,1.23,3.43,1.2,3.43.93,8.2-.12,2.01-.6,3.83-1.47,5.69-1.05,2.23-1.58,4.71-2.34,7.08-.13.42-.21.89-.46,1.23-1.78,2.48-3.19,5.19-4.77,7.79-.08.14-.04.35-.06.61,1.08.52,2.12.62,3.41.52,1.42-.11,2.91.71,4.38,1.06,1.34.32,1.37.26,2.41,1.53.22,1.77-.39,3.54.33,5.35.3.74-.36,1.88-.62,2.82-.09.34-.44.66-.43.97.18,3.36-1.28,6.29-2.41,9.31-.15.39-.22.92-.09,1.3.65,1.8.37,3.53-.15,5.29-.21.69-.35,1.44-.31,2.15.13,2.4-.48,4.64-1.24,6.88-.28.84-.1,1.83-.35,2.69-.47,1.63-1.05,3.23-2.31,4.48-.29.29-.45.72-.69,1.13,2.4,2.28,4.7,4.45,6.98,6.63,1.22,1.17,1.79,2.91,3.43,3.76.45.23.81,1.07.83,1.65.08,2.17.15,4.37-.69,6.45-.13.32-.34.68-.61.88-2.18,1.54-4.39,3.04-7.16,3.67-.68,2.05-.92,4.25-.95,6.53-.02,1.24-.45,2.47-.71,3.7-.2.96-.58,1.92-.58,2.88-.01,1.21-.33,2.19-1.32,2.82-1.52.96-1.89,2.29-1.75,3.99.15,1.74-.22,3.4-1.24,4.91-.38.56-.45,1.35-.62,2.04-.26,1.04-.3,2.18-.75,3.11-1.28,2.64-2.22,5.43-4.03,7.84-1.21,1.62-2.03,3.54-2.98,5.35-.49.94-.74,2.04-1.38,2.85-.42.53-1.3.86-2.02.95-1.17.14-2.38.02-3.57,0-1.53-.04-3.06-.25-4.47.67-.32.21-.87.12-1.31.11-2.2-.04-4.41-.19-6.6-.13-2.27.06-3.7-1.19-4.94-2.82-1.2-1.58-1.87-3.39-2.39-5.3-.39-1.44-1.11-2.8-1.69-4.19-.59-1.4-1.25-2.77-1.78-4.19-.49-1.34-.82-2.74-1.26-4.1-.47-1.43-.96-2.86-1.5-4.27-.1-.26-.5-.53-.79-.57-1.16-.16-1.59-1.18-2.19-1.91-.42-.51-.51-1.3-.69-1.99-.17-.64.27-1.42-.71-1.88-.31-.15-.2-1.16-.3-1.77-.12-.7-.56-1.52-.33-2.07,1.05-2.56.29-5.24.89-8.17ZM30.51,87.91c2.23.13,4.58.97,6.6-1.22-2.09-.08-4.06-.17-6.03-.2-.19,0-.38.3-.57.46l-3.39-.13c.93,1.64,2.2,1.22,3.39,1.09ZM10.36,84.64c3.18-.1,6.23-.2,9.29-.3.09,0,.17-.06.26-.07,1.85-.25,3.69-.52,5.55-.74.34-.04.71.08,1.06.15.79.15,1.57.4,2.36.45,1.7.11,3.42.31,5.07-.34,4.54.57,9.07-.32,13.6-.05,1.61.1,3.22.28,4.75-.63.48-.29,1.23-.18,1.85-.18.99,0,1.98.06,3.18.11.57-1.43,1.02-2.78,1.63-4.06.66-1.37.26-2.95.79-4.22,1.03-2.5,1.24-5.06,1.3-7.68.03-1.19.07-2.39.2-3.58.1-.88.36-1.74.55-2.61-1.21-.89.22-1.6.21-2.43,0-.63.64-1.25.9-1.91.33-.82,1.03-1.93.74-2.49-.95-1.85.15-3.32.55-4.89.46-1.81.62-3.48-.34-4.99-.7-.15-1.23-.25-1.75-.39-1.2-.32-2.4-.66-3.6-.99-1.5,1.13-3.33-.03-4.97.8-1.16.58-2.04-.35-2.03-1.72,0-.76.11-1.47.79-1.94,1.85-1.29,2.78-3.24,3.78-5.14.29-.55.68-1.06,1.09-1.54,1.98-2.29,2.99-5.14,3.66-7.93.44-1.87.92-3.61,1.86-5.26.34-.61.85-1.47.66-1.97-.75-1.99.13-4-.27-5.94-.35-1.65-.69-3.43-1.58-4.79-.97-1.47-2.53-2.57-3.91-3.75-.44-.38-1.25-.78-1.69-.63-1.89.67-3.79.08-5.67.29-.94.11-2.25.23-2.7.85-1.04,1.42-2.52,2.05-3.93,2.71-2.02.95-2.74,2.88-3.5,4.56-.75,1.65-.68,3.68-.91,5.55-.22,1.79.1,3.64-.64,5.38-.15.36.04.88.09,1.32.09.8.29,1.59.28,2.39-.03,2.11-.14,4.21-.22,6.42,1.92,1.61,2.2,3.76,1.92,6.01-.56.55-1.14.93-1.46,1.47-.68,1.17-1.69,1.54-2.93,1.46-1.64-.11-3.21.09-4.77.69-1.03.4-1.97-.26-2.58-1.26-.66-1.07-.62-2.42-.17-3.14.95-1.52.95-3.24,1.59-4.79.78-1.92.96-3.93.4-6.05-.68-2.6-.74-5.32-.95-8.01-.17-2.22-.62-4.41-2.39-6.07-1.07-1-1.82-2.17-2.23-3.65-.24-.87-1.04-1.7-1.78-2.3-.96-.78-2.11-1.35-3.2-1.96-.45-.25-1.1-.67-1.43-.51-1.51.69-3.05.26-4.57.35-2.02.12-4.03.38-5.27,2.19-1.24,1.82-2.31,3.77-3.4,5.69-.21.37-.44.99-.28,1.27.9,1.58.21,3.22.32,4.82.04.64-.21,1.36.01,1.91.92,2.31,1.9,4.6,3,6.83.87,1.76,2.17,3.28,2.57,5.29.1.48.49,1.09.91,1.28,2.53,1.18,3.06,4.13,5.13,5.71.22.17.25.67.25,1.01-.02.71-.12,1.42-.19,2.13-.59.3-1.04.64-1.54.76-3.62.89-7.11,2.38-10.96,2.14-1.7-.11-2.04.46-1.67,2.12.14.6.23,1.23.22,1.84-.02,1.4.27,2.67,1.22,3.75.73.83,1.13,1.78,1.34,2.89.58,3.16,1.6,6.26,1.24,9.55-.1.91-.08,1.82-.11,2.67.77.93,1.47,1.77,2.21,2.66-.77,4.46.29,8.76,1.24,13.41ZM41.86,108.15c-1.82,1.16-3.55,2.23-5.25,3.35-1.82,1.21-3.93.8-6.04,1.02.26,1.29-.02,2.38.39,3.6.32.98.5,2.24.51,3.38.02,2.2-.08,4.41-.22,6.61-.12,1.82-1.04,2.51-2.9,3.32-1.92.84-3.78.06-5.39.57-.59.35-1.18.69-1.78,1.04,3.15,1.77,6.03,3.62,9.55,4.6.28-.87.54-1.7.82-2.52.53-1.57.98-3.18,1.63-4.7.66-1.55,1.6-2.06,2.95-1.44.7.32,1.32,1.22,1.58,1.99.76,2.29,2.27,3.78,4.29,4.83.63-.31,1.26-.48,1.73-.86,2.39-1.98,4.76-3.99,7.08-6.05.43-.38.53-1.1.91-1.55.51-.6.37-1.91,1.71-1.63,1.62-1.27,3.84-2.06,3.51-4.83-.08-.64.52-1.33.54-2.01.06-1.99,1-3.82.84-5.86-.12-1.45.08-2.93.13-4.43.66-.63,1.32-1.26,1.95-1.86,3.01.13,5.05-1.59,6.77-3.09-.09-1.45-.16-2.58-.24-3.72-3.25-4.41-7.77-7.57-11.2-11.58-3.23-.54-6.14.48-9.23.85-.02.59-.15,1.15-.04,1.65.61,2.92.55,5.1-.29,7.36-.91,2.45-2.24,3.36-4.84,3.32-.44,0-.87.02-1.47.04-.43.98-.84,1.91-1.27,2.89,3.2.67,3.44,1.1,3.28,5.7ZM34.15,152.74c.23-1.13.62-2.16.6-3.18-.04-1.49-.38-2.97-.58-4.46-.09-.7-.26-1.41-.21-2.11.06-.78,1.22-1.73,1.71-1.71.65.52,1.22.97,1.58,1.26-.05,1.37,0,2.39-.15,3.39-.19,1.28.98,2.14.95,3.27-.03,1.18-.44,2.36-.71,3.67,1.67-.34,3.01-.79,4.37-.84,1.32-.06,1.97-.7,2.42-1.76,1.05-2.44,2.32-4.74,3.82-6.95.77-1.13,1.38-2.38,1.67-3.86.25-1.29,1.45-2.4,2.21-3.6.08-.13,0-.37.04-.54.43-1.8.89-3.59,1.29-5.4.08-.35-.04-.75-.11-1.59-1.3,1.49-2.18,2.78-3.33,3.75-1.77,1.51-3.7,2.84-5.6,4.19-1.24.88-2.49,1.05-3.96.22-1.95-1.1-3.27-2.76-4.69-4.58-.59,1.2-1.15,2.29-1.66,3.4-.14.31-.09.7-.18,1.05-.57,2.27-1.41,2.85-3.65,2.45-.51-.09-1-.35-1.46-.59-1.84-.98-3.94-1.24-5.65-2.76-1.1-.98-2.6-2.12-4.45-2.01.47,1.73.99,3.29,1.31,4.9.24,1.23.67,2.33,1.16,3.47.69,1.63,1.86,3.04,2.28,4.74.43,1.76,1.28,3.26,2.15,4.8.83,1.46,2.21,2.1,3.59,1.72,1.64-.45,3.21-.28,5.23-.33ZM26.73,103.85c-2.98-.11-5.53-.22-8.09-.29-.8-.02-1.62-.08-2.29.62-1.7,1.76-3.09,3.64-3.19,6.23-.07,1.82-.14,3.66-.51,5.43-.21.99-.45,1.76-.05,2.83.29.79-.4,1.89-.41,2.86-.01,1.16.26,2.31.35,3.48.09,1.16.55,2.08,1.65,2.84,2.03-1.51,3.77.36,5.67.65,2.23-2.09,5.05-1.67,7.74-1.96,1.1-1.27,1.18-2.75.83-4.32-.1-.43-.29-.88-.25-1.29.5-4.74-.85-9.39-.68-14.11.03-.92-.48-1.87-.79-2.97ZM19.59,87.32c-.87.11-1.47.26-2.06.26-1.37,0-2.75-.1-4.12-.14-1.14-.03-2.13.37-2.48,1.52-.42,1.36-1.31,2.27-2.27,3.22-.67.66-1.43,1.56-1.51,2.41-.17,1.75-1.11,3.15-1.57,4.73-.34,1.17-1.42,2-1.19,3.5.19,1.24-.34,2.58-.52,3.89-.16,1.18.27,1.78,1.56,2.04.74.15,1.71.25,2.24.63,1.37.98,2.27.29,3.06-.19.84-1.06-.81-1.61-.02-2.48.59-.64.39-1.71,1.27-2.28.76-.49,1.41-1.17,2.02-1.85,1.09-1.23,2.51-1.59,4.05-1.7.36-.02.74.08,1.09.02,3.09-.57,3.08-.55,5.7.19.55.16,1.2,0,1.9-.03-.28-.98-.51-1.77-.7-2.45-1.3.27-2.49.6-3.7.73-1.07.11-2.42-.05-2.63-1.22-.29-1.62-1.83-3.17-.48-4.98.14-.19-.04-.7-.18-1.01-.44-.97-.35-1.88.08-2.84.25-.55.29-1.19.46-1.96ZM35.85,92.88c1.2.95,2.35,1.92,3.56,2.81,1.42,1.04,3.83.51,3.98-1.02.17-1.72,1.35-3.55-.16-5.28-.28-.32-.22-.94-.37-1.67-1.75.63-3.32,1.15-4.85,1.76-1.53.61-2.42,1.68-2.16,3.4ZM29.98,100.87c.72-.11,1.11-.09,1.42-.23,1.55-.73,2.56.09,3.5,1.15.26.29.45.63.87,1.22.45-2.09.82-3.82,1.18-5.52-.85-.62-1.53-1.06-2.15-1.57-.78-.63-1.54-.85-2.48-.31-.35.2-.85.17-1.29.2-1.73.14-2.28.72-1.99,2.39.15.86.58,1.67.94,2.66ZM28.16,90.5c-.66-.02-1.21.11-1.58-.09-1-.54-1.88-1.3-2.88-1.82-.39-.2-1.1-.2-1.45.04-.36.25-.76,1.06-.61,1.32.87,1.57.26,3.2.3,4.78.02.77.08,1.41.78,1.79,1.66-1.32,4-1.52,5.34-3.39.03-.85.07-1.74.1-2.63ZM32.65,105.41c-.06-.58-.13-1.19-.19-1.76-1.39-.32-1.97.55-2.58,1.25.38,1.61.74,3.15,1.1,4.68q6.64-1.7,8.37-3.91c-2.47.76-4.59,1.36-6.7-.26ZM33.72,92.53c-.34-1.36-.95-1.91-1.98-1.48-.24.1-.2.88-.3,1.39l2.28.09Z" style="fill: #231815; stroke-width: 0px;"/>
      <path d="M41.86,108.15c.16-4.59-.08-5.02-3.28-5.7.43-.98.84-1.91,1.27-2.89.59-.02,1.03-.04,1.47-.04,2.6.04,3.93-.86,4.84-3.32.84-2.26.91-4.44.29-7.36-.11-.51.02-1.07.04-1.65,3.1-.37,6-1.39,9.23-.85,3.43,4.02,7.95,7.17,11.2,11.58.07,1.13.14,2.27.24,3.72-1.72,1.5-3.76,3.22-6.77,3.09-.63.6-1.29,1.23-1.95,1.86-.06,1.49-.25,2.97-.13,4.43.16,2.04-.78,3.87-.84,5.86-.02.68-.62,1.37-.54,2.01.33,2.76-1.89,3.56-3.51,4.83-1.34-.28-1.21,1.03-1.71,1.63-.38.45-.49,1.17-.91,1.55-2.32,2.06-4.69,4.07-7.08,6.05-.46.38-1.09.56-1.73.86-2.02-1.05-3.53-2.54-4.29-4.83-.26-.77-.88-1.67-1.58-1.99-1.34-.61-2.29-.11-2.95,1.44-.65,1.52-1.1,3.13-1.63,4.7-.28.82-.53,1.65-.82,2.52-3.52-.98-6.4-2.83-9.55-4.6.59-.35,1.19-.69,1.78-1.04,1.61-.51,3.47.27,5.39-.57,1.86-.82,2.78-1.51,2.9-3.32.14-2.2.25-4.41.22-6.61-.01-1.14-.19-2.4-.51-3.38-.4-1.22-.13-2.31-.39-3.6,2.11-.22,4.23.19,6.04-1.02,1.69-1.13,3.43-2.19,5.25-3.35Z" style="fill: #433e40; stroke-width: 0px;"/>
      <path d="M34.15,152.74c-2.02.06-3.6-.12-5.23.33-1.37.38-2.75-.26-3.59-1.72-.88-1.54-1.72-3.04-2.15-4.8-.42-1.7-1.59-3.11-2.28-4.74-.49-1.15-.91-2.25-1.16-3.47-.32-1.61-.84-3.17-1.31-4.9,1.85-.1,3.35,1.03,4.45,2.01,1.7,1.51,3.81,1.77,5.65,2.76.46.25.95.5,1.46.59,2.25.41,3.09-.17,3.65-2.45.09-.34.04-.74.18-1.05.51-1.11,1.07-2.2,1.66-3.4,1.42,1.82,2.74,3.48,4.69,4.58,1.47.82,2.71.66,3.96-.22,1.9-1.35,3.83-2.68,5.6-4.19,1.14-.98,2.02-2.26,3.33-3.75.07.83.19,1.23.11,1.59-.4,1.8-.86,3.6-1.29,5.4-.04.18.05.41-.04.54-.76,1.2-1.96,2.31-2.21,3.6-.29,1.48-.9,2.72-1.67,3.86-1.5,2.21-2.77,4.51-3.82,6.95-.45,1.06-1.1,1.71-2.42,1.76-1.36.06-2.7.5-4.37.84.27-1.31.68-2.49.71-3.67.03-1.12-1.14-1.99-.95-3.27.15-.99.1-2.01.15-3.39-.36-.29-.93-.74-1.58-1.26-.49-.02-1.65.94-1.71,1.71-.05.69.11,1.41.21,2.11.2,1.49.54,2.97.58,4.46.02,1.02-.37,2.05-.6,3.18Z" style="fill: #646060; stroke-width: 0px;"/>
      <path d="M26.73,103.85c.31,1.1.82,2.05.79,2.97-.17,4.73,1.18,9.37.68,14.11-.04.42.15.86.25,1.29.35,1.57.27,3.05-.83,4.32-2.69.29-5.51-.13-7.74,1.96-1.9-.29-3.64-2.16-5.67-.65-1.09-.76-1.56-1.68-1.65-2.84-.09-1.16-.37-2.32-.35-3.48.01-.97.7-2.07.41-2.86-.4-1.07-.16-1.84.05-2.83.37-1.77.44-3.62.51-5.43.1-2.6,1.49-4.47,3.19-6.23.67-.7,1.49-.64,2.29-.62,2.55.07,5.1.18,8.09.29Z" style="fill: #fff; stroke-width: 0px;"/>
      <path d="M19.59,87.32c-.17.77-.21,1.41-.46,1.96-.44.96-.52,1.87-.08,2.84.14.31.32.82.18,1.01-1.35,1.81.19,3.37.48,4.98.21,1.17,1.56,1.34,2.63,1.22,1.21-.13,2.4-.46,3.7-.73.19.67.42,1.47.7,2.45-.7.02-1.34.18-1.9.03-2.61-.74-2.6-.77-5.7-.19-.35.06-.73-.04-1.09-.02-1.54.1-2.96.47-4.05,1.7-.61.68-1.26,1.36-2.02,1.85-.88.57-.68,1.64-1.27,2.28-.8.87.86,1.42.02,2.48-.79.48-1.69,1.17-3.06.19-.53-.38-1.5-.48-2.24-.63-1.29-.26-1.72-.86-1.56-2.04.18-1.3.71-2.65.52-3.89-.23-1.49.85-2.32,1.19-3.5.46-1.58,1.4-2.98,1.57-4.73.08-.85.84-1.75,1.51-2.41.96-.95,1.86-1.86,2.27-3.22.35-1.14,1.34-1.54,2.48-1.52,1.37.03,2.75.13,4.12.14.59,0,1.19-.14,2.06-.26Z" style="fill: #423e3f; stroke-width: 0px;"/>
      <path d="M35.85,92.88c-.26-1.72.63-2.79,2.16-3.4,1.53-.61,3.1-1.13,4.85-1.76.15.73.09,1.34.37,1.67,1.51,1.73.33,3.56.16,5.28-.15,1.53-2.56,2.06-3.98,1.02-1.21-.89-2.36-1.85-3.56-2.81Z" style="fill: #432f2f; stroke-width: 0px;"/>
      <path d="M29.98,100.87c-.36-.99-.79-1.8-.94-2.66-.29-1.67.26-2.25,1.99-2.39.44-.04.94,0,1.29-.2.94-.54,1.7-.32,2.48.31.63.51,1.3.95,2.15,1.57-.36,1.7-.73,3.43-1.18,5.52-.42-.59-.62-.93-.87-1.22-.93-1.06-1.95-1.88-3.5-1.15-.31.15-.7.12-1.42.23Z" style="fill: #fff; stroke-width: 0px;"/>
      <path d="M28.16,90.5c-.03.89-.07,1.79-.1,2.63-1.34,1.87-3.69,2.07-5.34,3.39-.7-.38-.76-1.02-.78-1.79-.04-1.59.58-3.21-.3-4.78-.15-.27.25-1.08.61-1.32.34-.24,1.06-.24,1.45-.04,1,.53,1.88,1.28,2.88,1.82.37.2.92.06,1.58.09Z" style="fill: #432f2f; stroke-width: 0px;"/>
      <path d="M32.65,105.41c2.1,1.62,4.23,1.02,6.7.26q-1.72,2.21-8.37,3.91c-.36-1.54-.72-3.07-1.1-4.68.61-.69,1.19-1.56,2.58-1.25.06.57.13,1.18.19,1.76Z" style="fill: #faa2ad; stroke-width: 0px;"/>
      <path d="M30.51,86.96c.19-.16.38-.47.57-.46,1.97.04,3.94.13,6.03.2-2.02,2.19-4.36,1.35-6.6,1.22,0-.32,0-.64,0-.96Z" style="fill: #fff; stroke-width: 0px;"/>
      <path d="M30.51,86.96c0,.32,0,.64,0,.96-1.19.13-2.47.55-3.39-1.09l3.39.13Z" style="fill: #fff; stroke-width: 0px;"/>
      <path d="M33.72,92.53l-2.28-.09c.1-.52.06-1.29.3-1.39,1.03-.43,1.64.11,1.98,1.48Z" style="fill: #432f2f; stroke-width: 0px;"/>
      <path d="M41.67,67.63c1.89,1.22,3.63,2.56,4.89,4.51.37.57,1.26.89,1.98,1.13.59.19,1.27.09,1.91.12,1.85.09,1.97.23,1.95,2.5-1.69.57-3.11,1.99-5.14,1.81-2.82,1.78-5.67.92-8.58.24-2.07-.49-3.25-1.75-4.1-3.54-.18-.38-.4-.74-.74-1.36-.37.52-.64.82-.82,1.16-.99,1.95-2.5,3.47-4.15,4.82-1.03.84-2.23,1.41-3.72,1.15-2.12-.37-4.35-.33-6.4-.9-2.19-.61-3.54-2.42-4.32-4.53-.28-.75.37-1.25.97-1.43.59-.17,1.26-.11,1.89-.05,1.65.15,2.75-.5,3.36-2.05.71-1.8,1.96-2.98,3.94-3.27.91.05,1.82.13,2.73.13,1.37,0,1.53-.22,1.6-1.85-1.42.27-2.88.55-4.33.83-.63-.08-1.27-.14-1.9-.23-2.34-.32-3.73-1.73-3.96-4.01-.09-.88.05-1.73-.43-2.62-.33-.62.03-1.54.73-2.19,1.2-1.12,2.29-2.37,3.04-3.16,4.74-.45,7.87.75,9.1,5.07l3.42.13c.64-1.3.88-2.79,2.3-3.87,2.13-1.63,4.34-1.5,6.69-1.26.09,0,.21-.02.27.03,1.54,1.41,3.48,2.46,3.69,4.93.18,2.09-.5,3.96-1.45,5.65-.43.76-1.75,1.09-2.71,1.47-.48.19-1.08.07-1.63.09-1.81-.24-3.61-.48-5.46-.73.25.56.47,1.03.65,1.42,1.58-.62,3.16-.33,4.74-.13ZM31.76,71.98c-1.56-1.94-3.02-3.11-5.62-2.3-1.69.53-3.03,1.15-3.72,2.74-.85,1.96-2.32,2.88-4.37,3.04-.44.04-.89.05-1.87.09,1.19.7,1.91,1.41,2.72,1.55,2.48.41,5,.61,7.51.86.33.03.76-.06,1.01-.25,1.91-1.51,3.56-3.24,4.34-5.74ZM47.83,75.88c-1.22-1.02-2.57-1.84-3.49-3-1.91-2.4-4.16-3.76-7.29-3.36-.27.03-.53.06-.83.09-.43.46-.86.92-1.3,1.41.42.93.75,1.89,1.26,2.73.77,1.27,1.8,2.41,3.37,2.5,2.8.16,5.63.64,8.28-.36ZM40.62,64.83c.18,0,.36.02.55.02,1.19.03,2.34.1,3.2-1.04,1.02-1.35,1.02-2.87.89-4.4-.08-.88-1.94-2.39-2.91-2.41-1.76-.03-3.69-.63-5.05,1.13-.15.19-.17.5-.2.76-.07.63-.15,1.27-.17,1.91-.07,3.05.7,3.89,3.7,4.03ZM21.68,64.49c.7.11,1.3.08,1.76.31,2.24,1.14,3.74-.23,5.24-1.5.36-.31.61-.93.63-1.42.09-2.31-1.58-4.69-4.21-4.91-2.39-.2-3.59,1.37-4.71,3.03-.54.8-.93,1.69.27,2.51.51.35.65,1.23,1.02,1.99ZM33.69,65.62q-3.55,1.13-2.02,3.72c.96.03,2.15.46,2.66-.65.47-1.04.6-2.27-.64-3.07ZM31.54,61.94c-.02.59-.04,1.18-.07,1.84l3.57.13c-.19-.95-.36-1.81-.52-2.64-1.11.25-2.04.46-2.98.67ZM35.27,65.18c0,.13,0,.26,0,.38.29-.03.58-.05.87-.09,0,0,0-.17,0-.17-.28-.05-.57-.09-.86-.13Z" style="fill: #231815; stroke-width: 0px;"/>
      <path d="M63.85,44.19c-.7-.15-1.23-.25-1.75-.39-1.2-.32-2.4-.66-3.6-.99-1.5,1.13-3.33-.03-4.97.8-1.16.58-2.04-.35-2.03-1.72,0-.76.11-1.47.79-1.94,1.85-1.29,2.78-3.24,3.78-5.14.29-.55.68-1.06,1.09-1.54,1.98-2.29,2.99-5.14,3.66-7.93.44-1.87.92-3.61,1.86-5.26.34-.61.85-1.47.66-1.97-.75-1.99.13-4-.27-5.94-.35-1.65-.69-3.43-1.58-4.79-.97-1.47-2.53-2.57-3.91-3.75-.44-.38-1.25-.78-1.69-.63-1.89.67-3.79.08-5.67.29-.94.11-2.25.23-2.7.85-1.04,1.42-2.52,2.05-3.93,2.71-2.02.95-2.74,2.88-3.5,4.56-.75,1.65-.68,3.68-.91,5.55-.22,1.79.1,3.64-.64,5.38-.15.36.04.88.09,1.32.09.8.29,1.59.28,2.39-.03,2.11-.14,4.21-.22,6.42,1.92,1.61,2.2,3.76,1.92,6.01-.56.55-1.14.93-1.46,1.47-.68,1.17-1.69,1.54-2.93,1.46-1.64-.11-3.21.09-4.77.69-1.03.4-1.97-.26-2.58-1.26-.66-1.07-.62-2.42-.17-3.14.95-1.52.95-3.24,1.59-4.79.78-1.92.96-3.93.4-6.05-.68-2.6-.74-5.32-.95-8.01-.17-2.22-.62-4.41-2.39-6.07-1.07-1-1.82-2.17-2.23-3.65-.24-.87-1.04-1.7-1.78-2.3-.96-.78-2.11-1.35-3.2-1.96-.45-.25-1.1-.66-1.43-.51-1.51.69-3.05.26-4.57.35-2.02.12-4.03.38-5.27,2.19-1.24,1.82-2.31,3.77-3.4,5.69-.21.37-.44.99-.28,1.27.9,1.58.21,3.22.32,4.82.04.64-.21,1.36.01,1.91.92,2.31,1.9,4.6,3,6.83.87,1.76,2.17,3.28,2.57,5.29.1.48.49,1.09.91,1.28,2.53,1.18,3.06,4.13,5.13,5.71.22.17.25.67.25,1.01-.02.71-.12,1.42-.19,2.13-.59.3-1.04.64-1.54.76-3.62.89-7.11,2.38-10.96,2.14-1.7-.11-2.04.46-1.67,2.12.14.6.23,1.23.22,1.84-.02,1.4.27,2.67,1.22,3.75.73.83,1.13,1.78,1.34,2.89.58,3.16,1.6,6.26,1.24,9.55-.1.91-.08,1.82-.11,2.67.77.93,1.47,1.77,2.21,2.66-.77,4.46.29,8.76,1.24,13.41,3.18-.1,6.23-.2,9.29-.3.09,0,.17-.06.26-.07,1.85-.25,3.69-.52,5.55-.74.34-.04.71.08,1.06.15.79.15,1.57.4,2.36.45,1.7.11,3.42.31,5.07-.34,4.54.57,9.07-.32,13.6-.05,1.61.1,3.22.28,4.75-.63.48-.29,1.23-.18,1.85-.18.99,0,1.98.06,3.18.11.57-1.43,1.02-2.78,1.63-4.06.66-1.37.26-2.95.79-4.22,1.03-2.5,1.24-5.06,1.3-7.68.03-1.19.07-2.39.2-3.58.1-.88.36-1.74.55-2.61-1.21-.89.22-1.6.21-2.43,0-.63.64-1.25.9-1.91.33-.82,1.03-1.93.74-2.49-.95-1.85.15-3.32.55-4.89.46-1.81.62-3.48-.34-4.99ZM47.25,77.7c-2.82,1.78-5.67.92-8.58.23-2.07-.49-3.25-1.75-4.1-3.54-.18-.38-.4-.74-.74-1.36-.37.52-.64.82-.82,1.16-.99,1.95-2.5,3.47-4.15,4.82-1.03.84-2.23,1.41-3.72,1.15-2.12-.37-4.35-.33-6.4-.9-2.19-.61-3.54-2.42-4.32-4.53-.28-.75.37-1.25.97-1.43.59-.17,1.26-.11,1.89-.05,1.65.15,2.75-.5,3.36-2.05.71-1.8,1.96-2.98,3.94-3.27.91.05,1.82.13,2.73.13,1.37,0,1.53-.22,1.6-1.85-1.42.27-2.88.55-4.33.83-.63-.08-1.27-.14-1.9-.23-2.34-.32-3.73-1.73-3.96-4.01-.09-.88.05-1.73-.43-2.62-.33-.62.03-1.54.73-2.19,1.2-1.12,2.29-2.37,3.04-3.16,4.74-.45,7.87.75,9.1,5.07l3.42.13c.64-1.3.88-2.79,2.3-3.87,2.13-1.63,4.34-1.5,6.69-1.26.09,0,.21-.02.27.03,1.54,1.41,3.48,2.46,3.69,4.93.18,2.09-.5,3.96-1.45,5.65-.43.76-1.75,1.09-2.71,1.47-.48.19-1.08.07-1.63.09h0c-1.81-.24-3.61-.48-5.46-.73.25.56.47,1.03.65,1.42,1.58-.62,3.16-.33,4.74-.13h0c1.89,1.22,3.63,2.56,4.89,4.51.37.57,1.26.89,1.98,1.13.59.19,1.27.09,1.91.12,1.85.09,1.97.23,1.95,2.5-1.69.57-3.11,1.99-5.14,1.81Z" style="fill: #faa2ad; stroke-width: 0px;"/>
      <path d="M31.76,71.98c-.78,2.49-2.43,4.22-4.34,5.74-.25.2-.68.29-1.01.25-2.51-.25-5.03-.45-7.51-.86-.81-.13-1.53-.85-2.72-1.55.98-.05,1.42-.06,1.87-.09,2.05-.16,3.52-1.08,4.37-3.04.69-1.59,2.03-2.21,3.72-2.74,2.61-.82,4.07.36,5.62,2.3Z" style="fill: #fff; stroke-width: 0px;"/>
      <path d="M47.83,75.88c-2.65,1-5.49.52-8.28.36-1.57-.09-2.6-1.23-3.37-2.5-.51-.84-.84-1.79-1.26-2.73.45-.49.87-.94,1.3-1.41.3-.03.56-.05.83-.09,3.13-.4,5.38.97,7.29,3.36.92,1.16,2.27,1.98,3.49,3Z" style="fill: #fff; stroke-width: 0px;"/>
      <path d="M40.62,64.82c-3-.14-3.77-.97-3.7-4.03.02-.64.09-1.27.17-1.91.03-.26.06-.57.2-.76,1.36-1.76,3.28-1.17,5.05-1.13.97.02,2.83,1.53,2.91,2.41.13,1.53.14,3.05-.89,4.4-.86,1.14-2.01,1.07-3.2,1.04-.18,0-.36-.01-.55-.02Z" style="fill: #fff; stroke-width: 0px;"/>
      <path d="M21.68,64.49c-.37-.76-.51-1.64-1.02-1.99-1.2-.82-.81-1.71-.27-2.51,1.11-1.66,2.32-3.23,4.71-3.03,2.63.22,4.31,2.6,4.21,4.91-.02.49-.27,1.12-.63,1.42-1.5,1.27-3,2.64-5.24,1.5-.46-.23-1.06-.2-1.76-.31Z" style="fill: #fff; stroke-width: 0px;"/>
      <path d="M33.69,65.62c1.25.8,1.11,2.03.64,3.07-.51,1.11-1.7.68-2.66.65q-1.53-2.59,2.02-3.72Z" style="fill: #f03c3c; stroke-width: 0px;"/>
      <path d="M31.54,61.94c.94-.21,1.87-.42,2.98-.67.16.83.33,1.69.52,2.64l-3.57-.13c.02-.66.05-1.25.07-1.84Z" style="fill: #faa2ad; stroke-width: 0px;"/>
      <path d="M35.27,65.18c.29.04.57.08.86.13.01,0,.01.17,0,.17-.29.04-.58.06-.87.09,0-.13,0-.26,0-.38Z" style="fill: #100e0e; stroke-width: 0px;"/>
      <path d="M27.52,60.57c-.34,2.99-1.86,3.66-4.98,2.3-.21-.09-.34-.31-.33-.53l.03-.91c.02-.45.52-.69.89-.43.07.05.14.1.2.16,1.33,1.2,1.88,1.08,2.66-.59.22-.47.26-.57.93-.62.35-.03.64.28.6.62Z" style="fill: #231815; stroke-width: 0px;"/>
      <path d="M40.4,63.47c-1.37-.97-1.68-1.31-1.55-2.29.07-.58.84-.79,1.17-.3.15.23.28.49.42.76.32.6,1.26.49,1.49-.17.18-.52.3-1.04.71-1.31.41-.27.96.02.99.51.12,1.65-1.24,2.19-2.56,2.86-.21.11-.47.09-.67-.05Z" style="fill: #231815; stroke-width: 0px;"/>
      <path d="M25.49,48.6h0c.35.42.28,1.06-.16,1.39-.65.5-1.25.95-1.85,1.42-2.96,2.33-6.63,3.29-9.87,5.08-.1.05-.31-.11-.47-.18-.18-2.39-.19-2.4,1.98-3.19,2.69-.98,5.19-2.33,7.61-3.84.48-.3.98-.58,1.53-.9.41-.23.92-.14,1.23.22Z" style="fill: #231815; stroke-width: 0px;"/>
      <path d="M51.57,52.96c.11.7-.62,1.25-1.29,1.01-.36-.13-.71-.26-1.05-.4-.57-.24-1.15-.49-1.67-.82-1.13-.72-2.15-1.66-3.35-2.2-1.02-.46-2.23-.49-3.36-.71-.35-.07-.72-.1-1.04-.24-.34-.15-.49-.35-.54-.89-.06-.6.45-1.11,1.05-1.05,1.13.1,2.24.34,3.38.53,1.64.27,2.82.98,4.07,1.88.93.68,1.97,1.21,2.94,1.82.44.27.78.59.85,1.07Z" style="fill: #231815; stroke-width: 0px;"/>
      <path d="M16.87,115.49c.02-2.69-1.2-5.53,1.12-8.01,0,0,.02-.01.04,0,.77.43,1.24.62.88,1.81-.49,1.62-1.63,3.3-.57,5.19.12.21-.55.88-.86,1.33l-.59-.29s-.02-.01-.02-.02Z" style="fill: #1c1c1c; stroke-width: 0px;"/>
      <path d="M22.82,115.03c-.17-2.15-.33-4.22-.5-6.39-.04-.56.55-1,1.05-.74.09.05.15.1.16.16.4,1.99.7,4.01.96,6.02.08.57.01,1.1-.48,1.49-.46.36-1.14.04-1.19-.54Z" style="fill: #252525; stroke-width: 0px;"/>
    </g>
  </g>
</svg>