<?xml version="1.0" encoding="UTF-8"?>
<svg id="_レイヤー_2" data-name="レイヤー 2" xmlns="http://www.w3.org/2000/svg" viewBox="0 0 90.57 172.69">
  <g id="design">
    <g>
      <path d="M90.34,157.99c-1.31-1.77-2.09-3.86-3.61-5.53-1.41-1.54-3.23-2.15-5.06-2.36-2.54-.3-5.15-.13-7.72-.06-2.6.07-4.96,1.6-7.64,1.29-1.15.9-2.48.35-3.72.43-.2.01-.66-.63-.63-.68,1.25-1.62.51-3.46.47-5.15-.04-2.05.73-3.33,2.43-4.28,1.51-.85,2.71-2.1,2.92-3.83.16-1.33.67-1.69,1.88-1.55,2.8.32,5.19-1.22,7.81-1.76.4-.08.85-.57,1.03-.98,1.38-3.14,2.47-6.29,1.56-9.86-.55-2.17-.6-4.42.7-6.51.76-1.22,1.54-2.53,1.88-3.9,1.22-4.87,2.7-9.65,4.28-14.4.71-2.14.93-4.32,1.24-6.53.56-4.02,1.55-7.96,1.95-12.05.29-2.86.5-5.72.2-8.51-.28-2.64-1.18-5.17-3.43-7.15-3.83-3.39-7.75-6.46-12.98-7.3-.29-.05-.63,0-.87-.14-.59-.35-1.19-.75-1.07-1.61.11-.77.1-1.57.33-2.3,1.12-3.53,1.71-7.16,2.08-10.81.15-1.49.47-2.28,2.05-2.64,1.09-.25,2.03-1.12,3.05-1.7,3.29-1.86,2.85-7.2-.56-8.32-1.73-.57-3.36-1.46-5.04-2.19-.43-.19-1.18-.22-1.26-.48-.15-.52-.14-1.32.18-1.69,2.03-2.38,2.62-5.41,3.7-8.18,1.46-3.74,1.33-7.55-.09-11.42-1.66-4.53-7.8-6.92-12.25-2.91-1.52,1.37-2.88,2.92-4.27,4.43-.69.75-1.2.78-1.93.02-2.77-2.91-6.23-4.27-10.21-4.23-2.45.02-4.88.04-7.33.55-2.95.62-5.63,1.55-7.67,3.86-.03.48-.06,1.09-.72.86-.25-.09-.31-.75-.45-1.14-.24-2.72-1.93-4.06-4.19-5.46-3.61-2.23-6.88-2.36-10.63-.59-1.23.58-2.18,1.29-3.01,2.22-2.05,2.29-2.69,5.35-4.11,7.99-.13.23-.03.59-.04.88-.04,2.44-.08,4.83,1.01,7.17.93,1.99,1.5,4.16,2.19,6.26.66,1.99.57,2.24-1.13,3.4-.24.16-.56.2-.78.37-1.71,1.31-3.08,2.8-2.63,5.22.07.38.01.79.01,1.19-.01,1.18.49,1.87,1.56,2.55,1.37.87,2.75,1.34,4.32,1.58,1.14.17,2.18.59,2.07,2.2-.08,1.14.38,2.3.39,3.45.02,2.85.39,5.63,1.44,8.3.21.53.4,1.1.45,1.66.17,1.98-.53,2.91-2.42,3.31-.19.04-.4,0-.59,0-3.25.02-5.89,1.2-8.48,3.31C2.33,66.08.28,71.06.05,76.73c-.21,5.19.31,10.42.59,15.63.09,1.65.29,3.32.69,4.92.53,2.13,1.31,4.21,1.98,6.31.47,1.46,1.23,2.9,1.35,4.39.34,4.3,2.11,7.98,4.37,11.52.29.45.61,1.19.44,1.59-1.34,3.13-.02,6.2.21,9.26.1,1.36.99,2.7,1.67,3.97.29.54.89,1.12,1.45,1.25,1.58.38,3.21.65,4.83.77,1.85.14,3.55.26,3.93,2.6.07.43.6.78.85,1.2,1.28,2.08,2.46,4.18,2.04,6.79-.08.5.32,1.07.47,1.62.43,1.66.89,3.32,1.23,5,.07.35-.31,1.15-.47,1.15-1.05-.02-2.12-.09-3.13-.37-.89-.25-1.66-.89-2.54-1.2-2.64-.93-5.32-1.68-8.17-1.34-2.87.34-5.5,1.3-7.34,3.6-1.07,1.34-1.88,2.92-2.65,4.48-1.13,2.3-.64,4.78-.52,7.2.02.36.25.74.46,1.05,1.41,1.99,3.5,3.15,5.67,3.85,1.9.62,3.98.83,6.07.68,3.61-.27,7.23-.38,10.85-.56.29-.01.62.04.87-.08,2.91-1.38,6.29-1.47,9.02-3.42.93-.66,2.1-.96,3.49-.3,1.4.67,3.13.94,4.67.21,1.24-.59,2.49-.44,3.5.09,1.08.58,2.11.53,3.14.46,4.14-.27,8.27.09,12.32.75,2.87.46,5.67,1.26,8.61,1.11.1,0,.23-.05.29,0,1.54,1.03,3.3.19,4.89.59,1.72.43,3.44.57,5.2.55,3.29-.03,6.1-1.29,8.09-3.8,2.39-3,2.22-6.66,1.83-10.26Z" style="fill: #231815; stroke-width: 0px;"/>
      <path d="M84.53,91.67c.25,3.19-.75,6.1-1.79,9.05-1.18,3.35-1.98,6.83-3.09,10.21-.54,1.63-1.22,3.28-2.18,4.69-2.45,3.62-2.52,3.57-6.96,3.51-3.96-.05-3.89-.05-3.92-3.96-.01-2.01.57-3.81,1.21-5.66.88-2.54,1.71-5.11,1.87-7.85.09-1.43.15-3,.76-4.24,2.65-5.34,2.17-11.04,2.22-16.69,0-.68.05-1.41-.97-1.51-.91-.08-1.7.25-1.92,1.05-.37,1.3-.58,2.66-.65,4.01-.12,2.17-.02,4.36-.13,6.54-.05.94-.28,1.91-.61,2.8-.84,2.26-1.67,4.51-1.8,6.97-.05,1.05-.24,2.12-.57,3.12-.15.47-.7.93-1.18,1.15-1.05.47-2.28,1.27-3.23,1.05-1.17-.27-1.27,1.49-2.57.78-.83-.45-2.13-.04-3.22-.03-1.78.01-3.57,0-5.35.03-1.07.01-1.95.07-2.65-1.18-.61-1.1-5.34-1.79-6.38-1.15-.44.27-.67.9-.98,1.38-.49.76-1.13.98-2.02.78-.94-.21-1.9-.33-2.86-.44-3.58-.41-7.2-.46-10.74-1.27-1.02-.23-1.57-.66-1.56-1.73.02-5.75,0-11.49.05-17.24.01-1.04.44-2.07.52-3.12.09-1.23-.55-2.1-1.65-2.29-.56-.1-1.23-.05-1.35.77-.36,2.48-1.19,4.89-1.15,7.44.05,3.86-.05,7.73.04,11.59.04,1.84.29,3.69.61,5.51.28,1.6.71,3.19,1.25,4.72.55,1.54,1.3,3.01,2.02,4.49.25.51.37.99-.16,1.27-2.65,1.38-5.18,3.09-8.38,2.96-1.93-.08-3.21-1.08-3.73-3.01-.62-2.33-1.24-4.65-1.95-6.95-.34-1.1-.88-2.14-1.33-3.2-2.23-5.19-4-10.46-3.95-16.24.03-3.82-.37-7.65-.55-11.47-.05-1.09-.01-2.18.04-3.27.05-1.07.03-2.14.95-2.98.41-.37.69-.99.81-1.54.64-3.18,3.11-4.89,5.43-6.67,2.2-1.68,4.92-1.54,7.5-1.78.65-.06.82.39.83.94.08,2.15-.03,4.29.49,6.43.48,1.98,1.08,2.67,3.12,2.75.89.04,1.78,0,2.68.02,1.52.05,2.11.5,2.56,1.89.89,2.76,3.98,6.75,6.32,8.11,2.85,1.65,6.39.49,8.39-1.92,1.2-1.45,1.49-1.53,2.53-.13.94,1.26,1.76,2.56,3.32,3.2,2.19.9,4.11,1.1,6.29-.43,3.12-2.19,5.73-4.69,7.29-8.2.42-.94,1.01-1.41,2.19-1.4,3.1.03,3.84-.62,5-3.43.92-2.26,1.96-4.46,1.58-7.01-.12-.79.36-1.03,1.08-.91.1.02.2.05.29.04,3.03-.32,5.7.29,8.13,2.36,1.28,1.09,3.02,1.49,4.07,3.1.85,1.31,1.77,2.36,1.99,4.08.2,1.56.69,3.01-.02,4.53-.08.16-.02.39-.04.58q-.25,1.95-2.36,1.97c-2.02.03-2.09.1-2.49,2.38-.69.02-1.39-.01-2.06.08-1.38.2-2.14,1.3-2.15,2.99,0,1.68.14,1.97,1.94,2.25.9.14,1.19.42,1.11,1.27-.06.59-.02,1.18-.02,1.77.18.48.37.97.55,1.45.16.12.31.24.47.36.91,1.11,2.11.39,3.17.48ZM61.93,92.7c.42-1.89-.42-3.54-1.79-5.1-1.38-1.57-2.66-2.14-4.58-1.61-1.3.35-2.61.66-3.89,1.07-2.74.86-3.81,3.04-2.87,5.9.36,1.09.7,2.23,1.32,3.18,1.69,2.6,4.1,3.92,7.27,3.33,2.31-.42,5-2.71,4.54-6.76ZM26.76,92.79c-.28,2.41.53,4.75,2.6,6.54,3.44,2.97,8.99,2.4,10.25-2.46.42-1.62.03-3.46-.06-5.2-.1-1.96-1.51-2.89-3.13-3.44-1.55-.52-3.17-.83-4.77-1.18-2.6-.57-4.82,1.25-4.88,3.94-.01.49,0,.99,0,1.8ZM42.84,92.88s-.01,0-.02,0c0,2.07.05,4.14-.02,6.21-.04,1.01.41,1.68,1.07,2.3.7.66,1.42.52,1.85-.39.08-.17.11-.37.14-.56.19-1.24.5-2.47.53-3.72.09-3.55.1-7.1.07-10.64,0-.49-.28-1.27-.62-1.4-1.71-.66-2.93.17-2.98,1.99-.06,2.07-.01,4.14-.01,6.21Z" style="fill: #bdbdbf; stroke-width: 0px;"/>
      <path d="M22.13,62.45c-.11-2.53-.21-5.06-.32-7.58-.12-.19-.24-.39-.35-.58,0-.39.12-.86-.04-1.17-1.63-3.24-1.45-6.78-1.72-10.23-.12-1.6-.02-1.61,1.56-1.65,6.97-.2,13.93-.42,20.9-.59,2.37-.06,4.78-.27,7.1.08,3.42.51,6.82.53,10.24.51.19.09.39.19.58.28.41.05.83.11,1.24.16.19.02.39.03.58.05,1.35,0,2.63.12,4.04-.32,1.41-.45,3.09-.03,4.65.01.06,1.35.34,2.74.13,4.05-.44,2.74-1.03,5.46-1.75,8.15-.82,3.07-1.82,6.08-1.77,9.33.03,1.63-.32,3.27-.58,4.89-.18,1.13-1.24,1.89-2.55,1.91-1.58.03-3.17,0-4.75,0-6.83,0-13.66.05-20.48-.03-2.42-.03-4.84-.48-7.27-.58-2.37-.1-4.75.04-7.12,0-1.3-.02-1.7-.46-1.77-1.78-.07-1.38-.07-2.76-.11-4.15-.14-.25-.29-.51-.43-.76ZM50.24,65.78c-.86-.19-1.9-.39-2.91-.68-.32-.09-.73-.36-.84-.64-.41-1.01.14-2.31,1.05-3.02.67-.52,1.55-1.06,1.8-1.78.44-1.23-.18-2.45-.79-3.58-.52-.97-1.01-1.62-2.29-1.91-2.62-.59-4.24-.05-5.36,2.42-.96,2.12-.22,3.98,2.1,5.25.25.14.56.17.81.3.69.36,1,.96.83,1.72-.16.75-.66,1.18-1.46,1.19-1.19.01-2.38-.04-3.56.04-1.58.11-2.89-.08-3.33-1.95-.06-.24-.74-.46-1.12-.44-.23.01-.5.49-.62.81-.09.25-.11.72.04.85,1.01.85,1.99,2.11,3.15,2.33,2,.38,4.19.38,6.19-.03,1.12-.23,1.98-.07,2.97.14,1.03.22,2.07.57,3.1.54,1.73-.05,3.47-.31,5.19-.57,1.17-.17,2.03-1.31,1.91-2.54-.04-.37-.41-.86-.76-1.01-.48-.21-.89.02-1,.68-.07.4-.32,1.02-.6,1.09-1.4.34-2.84.52-4.5.8ZM61.4,52.2c-.53-.99-.7-2.15-1.98-2.67-2.04-.84-4.01-1.83-6.03-2.7-.42-.18-.95-.21-1.42-.18-.74.06-1.42.48-1.27,1.25.08.4.83.98,1.24.96,1.48-.1,2.57.65,3.82,1.21,1.61.72,3.17,1.43,4.38,2.76.15.17.58.25.78.16.2-.09.29-.45.47-.78ZM30.09,52.27c.39.58.59,1.22.98,1.37.64.25.93-.19,1.13-.91.52-1.88,2.06-2.7,3.82-3.18,1.11-.31,2.23-.56,3.29-.99.28-.11.58-.87.46-1.16-.15-.35-.87-.83-1.1-.73-2.44,1.1-5.29,1.34-7.28,3.33-.57.57-.83,1.44-1.29,2.27ZM40.56,52.75c-.16-.27-.31-.7-.46-.7-1.04,0-2.22-.19-3.1.22-1.19.56-2.2,1.56-3.2,2.47-.26.23-.38.91-.23,1.23.23.5.69.94,1.41.53,1.75-.99,3.52-1.95,5.25-2.96.19-.11.21-.5.32-.78ZM52.02,52.07c-.19.15-.58.32-.6.53-.06.52-.16,1.25.12,1.57.56.64,1.33,1.12,2.07,1.55.99.57,2.03,1.09,3.09,1.49.21.08.95-.65.93-.67-.63-.96-1.15-2.1-2.03-2.76-1.03-.78-2.36-1.15-3.59-1.71Z" style="fill: #faa2ad; stroke-width: 0px;"/>
      <path d="M32.08,16.84c.04-.97.07-1.94.11-2.91.16-.23.33-.45.49-.68l.06-.06c.18-.18.36-.35.54-.53.24-.13.6-.21.72-.41,1.53-2.85,4.03-4.3,7.09-4.93.63.11,1.32.09,1.89.34,1.1.51,1.04-.27,1.17-.9.57.16,1.14.32,1.7.48,1.98.02,3.97.05,5.95.07.82.39,1.63.79,2.45,1.18.18.17.36.34.55.51.58.63,1.16,1.26,1.74,1.89.05.39.1.78.16,1.17-.04.21-.08.42-.12.63-.14.19-.27.37-.41.56-1.19,2.68-2.04,5.39-.86,8.32.1.26.06.58.04.87-.12,1.95.25,3.83.77,5.69-.1.18-.15.37-.16.57-.4,0-.79.01-1.19-.02-.92-.07-1.56.37-1.77,1.21-.23.91-.05,1.82.88,2.28.67.33,1.43.61,2.17.69,3.24.35,6.42-.34,9.62-.66.76-.08,1.47-.71,2.21-1.08.82-.15,1.83.45,2.43-.61,1.04.03,1.98.09,2.96.74.96.63,2.28.73,3.44,1.06.23.16.47.33.7.49l.05.05c.02.4.04.8.05,1.2-2.08,1.88-4.25,3.61-7.27,3.61-2.38,0-4.76,0-7.14,0-3.55-.02-7.11-.03-10.66-.05-.28-.17-.56-.48-.86-.49-1.12-.06-2.24-.03-3.35-.03-2.78,0-5.56,0-8.33,0-1.42,0-2.84-.04-4.25.02-.39.02-.77.33-1.16.5l-10.05.05c-1.78,0-3.57,0-5.35,0-2.07-.44-4.17-.77-6.2-1.35-1.78-.51-2.04-1.96-.75-3.34.13-.14.28-.27.43-.41,1.96-1.77,2.57-1.8,4.76-.29.29.19.57.52.86.54,1.08.05,2.17-.01,3.26-.03,3.66.02,7.33.14,10.99.02,1.2-.04,2.37-.69,3.56-1,1.04-.27,1.26-1.16,1.44-1.95.14-.6-1.24-1.64-2.11-1.71-.79-.06-1.59.03-2.37-.07-.65-.09-1.27-.36-1.9-.55-.01-1.76-.03-3.52-.04-5.29.9-.41.46-1.2.52-1.84.03-.58.05-1.15.08-1.73.92-.41.45-1.19.49-1.84ZM44.71,25.72c-1.2-.03-1.57.27-1.78,1.72-.1.69.03,1.29-1.03,1.36-.57.04-1.18.6-1.61,1.08-.21.24-.2.89-.03,1.22.48.96,1.61.93,2.37,1.42.75.49-.09,1.94.96,2.57.16.1.27.28.43.4.76.59,2.19.37,2.15-.44-.12-2.26,1.65-2.06,2.87-2.64.33-.16.88-.36.89-.57.03-.52.94-.84.29-1.52-.37-.38-.32-1.18-1.17-1.03-.09.02-.2,0-.29,0-.68-.03-1.55.17-1.97-.17-.38-.32-.28-1.23-.35-1.88-.11-1.04-.65-1.58-1.72-1.52Z" style="fill: #eee248; stroke-width: 0px;"/>
      <path d="M27.99,114.92c3.18.75,6.43.64,9.66.7.44,0,1.13.19,1.28.5,1.15,2.41,3.36,2.31,5.48,2.42,1.25.07,2.32-.09,2.78-1.56.22-.71.94-.89,1.72-.85,1.28.06,2.58-.08,3.86.04,2.87.26,5.65-.4,8.47-.7,1.12-.12,1.35.35,1.32,1.33-.05,1.66.19,3.3-1.37,4.6-.77.65-1.21,1.72-1.15,2.9.04.65-.18,1.32-.34,1.97-.4,1.64.45,2.82,2.18,2.99.76.07,1.81-.14,2.19.27.41.45.17,1.48.26,2.25.07.57.2,1.13.34,1.69.56,2.28-.18,4.02-2.07,5.53-2.41,1.94-5.15,2.73-8.14,3.38-2.56.55-5.04.27-7.55.47-.74.06-1.12-.18-1.03-.98.11-.95.02-1.87.44-2.85.55-1.3.7-2.78.86-4.24.18-1.64.22-3.45,1.73-4.74.94-.81,2.1-.87,3.13-1.31.7-.3,1.47-.44,2.18-.73,1.1-.44,1.3-1.38,1.22-2.43-.11-1.48-1.04-2.09-2.41-1.44-2,.96-4.1,1.57-6.2,2.24-3.15,1.02-5.66-.22-8.32-1.26-.62-.24-1.16-.71-1.73-1.08-1.18-.76-1.62-.72-2.42.23-.76.91-.69,1.61.37,2.51,2.13,1.82,4.61,2.81,7.39,3.12,1.65.18,2,.44,1.85,1.94-.3,3.18-.71,6.35-1.27,9.49-.14.81-.71,1.54-2.02,1.61-4.49.23-8.68-1.02-12.75-2.54-1.41-.53-2.52-2.14-3.48-3.47-.96-1.32-1.07-2.91-.16-4.43.14-.23.09-.57.13-.86.25-1.71.25-1.72,1.77-1.72,1.07,0,2.2.23,2.97-.85.87-1.23,1.49-2.7,1.09-4.09-.65-2.28-.07-4.93-2.12-6.85-.5-.47-.3-1.67-.43-2.54.09-.21.19-.42.28-.63Z" style="fill: #bbbbbd; stroke-width: 0px;"/>
      <path d="M22.64,29.35c-.1-.01-.2-.05-.29-.03-3.35.53-5.12-1.4-6.22-4.15-1.07-2.67-2.3-5.34-2.84-8.13-.83-4.3.26-8.31,3.22-11.68.61-.7,1.28-1.18,2.3-1.07.46.05.96-.1,1.42-.22,4.18-1.13,8.99,1.36,8.96,6.68-.01,2.64-.11,5.27-.59,7.87-.11.19-.22.37-.33.56-.11,2.77-.22,5.54-.33,8.31h.03c-.56.18-1.4-.38-1.66.61-1.04.96-2.34,1.15-3.67,1.25Z" style="fill: #faa2ad; stroke-width: 0px;"/>
      <path d="M59.56,27.45c-.79-2.4-1.07-4.89-1.29-7.4-.3-3.51.61-6.51,3.11-9.07,1.15-1.18,1.97-2.66,3.03-3.93,1-1.2,2.07-2.39,3.74-2.68,2.61-.45,4.67.74,5.59,3.56.59,1.8,1.01,3.66.18,5.67-.73,1.76-.6,3.9-1.45,5.56-1.31,2.56-2.44,5.3-4.54,7.4-.27.27-.47.6-.7.91-.59.24-1.49-.38-1.81.63-.56.2-1.12.4-1.68.6-.22-.85-.91-.55-1.45-.56-.96-.03-1.97.16-2.73-.68Z" style="fill: #faa2ad; stroke-width: 0px;"/>
      <path d="M20.34,120.92c1.18-.4,2.38-.76,3.53-1.22,1.29-.52,2.7-.4,3.23.69.95,1.97,1.87,4.03.88,6.3-.15.35-.32.71-.57.98-.5.54-1.34.47-1.73-.15-.46-.73-.8-1.55-1.32-2.24-.17-.22-.74-.31-1.05-.21-.28.09-.62.49-.66.79-.24,1.82-.37,3.66-.62,5.49-.09.64-.33,1.31-.68,1.86-.22.34-.76.48-1.16.71-.18-.41-.45-.8-.53-1.23-.21-1.23-.34-2.48-.5-3.72-.11-.86-.51-1.65-1.44-1.47-.85.16-1.14.99-1,1.88.09.57.2,1.14.28,1.72.11.77.19,1.54.29,2.31l-.61.58c-.86-.3-1.09-.96-1.18-1.81-.12-1.24-.32-2.48-.62-3.68-.06-.22-.76-.28-1.16-.42-.39.45-.77.92-1.19,1.35-.18.18-.43.28-.66.42-.17-2.13-.4-4.25-.49-6.38-.06-1.39.04-1.39,1.52-1.43,1.47-.04,2.93-.11,4.4-.16.22-.12.44-.23.66-.35.57-.07,1.14-.14,1.72-.2.22-.13.44-.26.66-.39Z" style="fill: #edd9a8; stroke-width: 0px;"/>
      <path d="M72.02,127.47c-.92-.24-1.71-.31-2.01.92-.23.93-.63,1.82-.95,2.73-.23.64-.38,1.32-.71,1.89-.14.24-.7.41-1,.33-.27-.06-.62-.51-.62-.79-.04-2.28.03-4.56,0-6.83,0-.4-.29-.86-.57-1.16-.08-.09-.7.21-.96.45-.51.47-.92,1.04-1.41,1.53-1.23,1.22-1.44,1.19-2.55-.13-.28-.33-.36-.46-.04-.89.76-1,1.36-2.12,2.05-3.17.93-1.42,1.49-1.51,3.14-.94,1.09.37,2.26.65,3.4.69,2.27.08,4.56,0,6.83-.1,1.06-.05,1.41.37,1.37,1.37-.06,1.88-.01,3.76-.11,5.64-.03.65-.19,1.39-.56,1.9-.46.64-.15,1.93-1.47,1.88-.06-.85-.22-1.7-.16-2.54.05-.75.33-1.48.51-2.23-.2-.22-.41-.44-.61-.66-.6,0-1.03.05-1.25.84-.44,1.55-1.08,3.04-1.71,4.53-.17.41-.54.79-.92,1.05-.13.09-.79-.25-.79-.37.02-.45.21-.9.35-1.35.4-1.35.81-2.7,1.22-4.04-.16-.18-.31-.36-.47-.54Z" style="fill: #edd9a8; stroke-width: 0px;"/>
      <path d="M53.36,113.83c-.79,0-1.58.05-2.36-.01-.94-.07-2.44.04-2.68-.44-.43-.85-.15-2.1-.06-3.17.02-.25.46-.61.75-.66,1.33-.23,2.67-.46,4.02-.53,1.77-.1,3.55-.06,5.32-.07.84,0,1.22-1.39,2.46-.61.51.32,1.63-.33,2.48-.51.8-.17,1.15.19.94.91-.03.09-.1.17-.14.26-.51,1.23-.68,2.91-1.6,3.58-1.14.83-2.88.98-4.39,1.15-1.56.18-3.15.04-4.72.04,0,.02,0,.04,0,.06Z" style="fill: #f6f6f6; stroke-width: 0px;"/>
      <path d="M52.7,72.78c1.78,0,3.56-.03,5.33.01.83.02,1.15.67.75,1.42-1.67,3.06-4.32,4.95-7.5,6.14-.53.2-1.49,0-1.89-.38-1.7-1.66-2.68-3.75-3.03-6.11-.1-.67.2-1.09,1-1.07,1.78.04,3.56.01,5.33.01h0Z" style="fill: #b3b3b4; stroke-width: 0px;"/>
      <path d="M22.64,29.35c1.33-.1,2.63-.29,3.67-1.25.57-.16,1.46.55,1.66-.62h-.03c1.03.01,2.07.03,3.1.04.63.19,1.25.46,1.9.55.78.1,1.59,0,2.37.07.88.07,2.25,1.11,2.11,1.71-.18.79-.4,1.68-1.44,1.95-1.2.31-2.37.97-3.56,1-3.66.11-7.32,0-10.99-.02,0-.36-.01-.73-.02-1.09-.3-1.15.38-1.79,1.22-2.35Z" style="fill: #118814; stroke-width: 0px;"/>
      <path d="M36.18,113.87c-3.05-.47-6.09-.91-9.13-1.43-.37-.06-.76-.48-.97-.83-.44-.75-.79-1.56-1.12-2.37-.16-.4-.2-.84-.3-1.27.47-.04.96-.16,1.42-.11,1.55.16,3.08.44,4.63.57,2.52.21,5.06.36,7.59.49.72.04,1.12.25,1.05,1.03-.02.2,0,.39-.01.59q-.03,3.16-3.16,3.31Z" style="fill: #f1f1f1; stroke-width: 0px;"/>
      <path d="M63.74,28.7c.56-.2,1.12-.4,1.68-.6.61,0,1.23,0,1.84,0,1.26.37,1.26,1.37,1.18,2.4-.19.21-.39.42-.58.64-.73.37-1.44,1-2.21,1.08-3.2.32-6.38,1.01-9.62.66-.74-.08-1.49-.36-2.17-.69-.93-.46-1.11-1.37-.88-2.28.21-.84.85-1.28,1.77-1.21.39.03.79.01,1.19.02l.61-.02c.99.01,1.98.02,2.97.04,1.4,0,2.81-.02,4.21-.02Z" style="fill: #118814; stroke-width: 0px;"/>
      <path d="M32.89,72.39c2.8.13,5.6.29,8.41.37.82.02,1.2.52.92,1.08-.85,1.71-1.78,3.4-2.86,4.97-.58.84-3.1.66-4.01-.28-1.42-1.46-2.77-3.01-4.01-4.63-.84-1.09-.41-1.76.97-1.78.2,0,.39,0,.59,0,0,.09,0,.19,0,.28Z" style="fill: #b3b3b4; stroke-width: 0px;"/>
      <path d="M85.07,163.7c.25-.3.46-.64.76-.88.52-.43.94-.23,1.05.38.15.87.23,1.77-.49,2.49-1.05,1.05-2,2.22-3.18,3.1-.7.53-1.76.81-2.65.81-1.82-.02-3.64.29-5.49-.5-1.08-.46-2.53-.07-3.82-.05-1.62.03-2.59-.7-2.77-2.36.62-.18,1.24-.47,1.87-.5,1.35-.07,2.7,0,4.05,0,.79.13,1.59.27,2.38.4.98.05,1.96.04,2.92.17,2.59.35,4.26-.83,5.37-3.05Z" style="fill: #dadada; stroke-width: 0px;"/>
      <path d="M81.36,91.19c-.16-.12-.31-.24-.47-.36.02-.49.04-.97.05-1.46.5-2,1.57-4.08-1.36-5.28-.75-.31-.69-1.44.06-1.96.5-.35,1.25-.34,1.89-.49.59-.2,1.19-.4,1.78-.59h1.19c.9-.1,1.3.3,1.2,1.2.19.21.38.41.57.62-.11,1.2.51,2.56-1.1,3.43-.37.2-.09,1.62-.11,2.48-1.24.81-2.47,1.62-3.71,2.43Z" style="fill: #118814; stroke-width: 0px;"/>
      <path d="M75.11,154.25c2.65-.03,4.95,1.66,5.68,3.81.35,1.06-.32,1.62-.96,2.21-.72.66-1.44.54-2.07-.09-.96-.95-1.92-1.76-3.39-1.93-1.57-.18-1.78-.57-1.77-2.07.01-1.02.58-1.69,1.72-1.92.38-.08.78-.01.78-.01Z" style="fill: #e2e2e2; stroke-width: 0px;"/>
      <path d="M8.36,158.7c.11-.21.3-.78.66-1.2,1.66-1.88,5.07-1.98,6.85-.24.58.57,1.14,1.23.56,2.04-.55.78-1.28,1.85-2.35,1.23-1.08-.62-1.62-.24-2.25.49-.54.62-1.12,1.14-2.01.7-1.05-.52-1.57-1.47-1.46-3.01Z" style="fill: #e2e2e2; stroke-width: 0px;"/>
      <path d="M8.11,166.65c2.88,1.09,6.21.71,9.53.63.29,0,.74.31.83.57.1.3,0,.82-.22,1.05-.31.33-.79.62-1.23.66-1.07.11-2.12.05-2.95.99-.23.27-.94.28-1.38.18-2.21-.53-4.38-1.19-6.13-2.73-.25-.22-.36-.64-.41-.99-.01-.08.46-.29.73-.35.28-.06.59-.01,1.24-.01Z" style="fill: #cdcdcd; stroke-width: 0px;"/>
      <path d="M43.49,153.45c0-2.27-.02-4.54.03-6.82,0-.25.43-.48.65-.72.16.2.47.39.47.59.06,3.31.94,6.58.58,9.91-.16,1.43-.36,2.86-.58,4.28-.03.21-.32.39-.49.58-.23-.24-.65-.47-.65-.71-.04-1.78,0-3.56,0-5.33,0-.59,0-1.19,0-1.78h-.02Z" style="fill: #919191; stroke-width: 0px;"/>
      <path d="M45.77,111.51q-.05,2.81-2.78,2.73c-1.21-.03-1.54-.4-1.31-1.59.15-.75.5-1.49.5-2.23,0-1.19.48-1.56,1.6-1.44.46.05,1.02.02,1.4-.2.61-.36.58-.04.58.37,0,.78,0,1.57,0,2.35Z" style="fill: #f6f6f6; stroke-width: 0px;"/>
      <path d="M81.54,81.63c-.64.15-1.39.14-1.89.49-.76.52-.82,1.65-.06,1.96,2.93,1.2,1.86,3.29,1.36,5.28-.2,0-.4,0-.61,0,0-.59-.04-1.18.02-1.77.08-.85-.22-1.13-1.11-1.27-1.8-.28-1.95-.56-1.94-2.25,0-1.69.77-2.79,2.15-2.99.68-.1,1.38-.06,2.06-.08,0,.21.01.41.02.62Z" style="fill: #231815; stroke-width: 0px;"/>
      <path d="M11.87,129.83c.22-.14.48-.24.66-.42.42-.43.8-.9,1.19-1.35,0,1.58.03,3.16-.04,4.74,0,.19-.76.53-.77.52-.55-.76-1.13-1.52-1.52-2.37-.11-.24.31-.74.49-1.12Z" style="fill: #edd9a8; stroke-width: 0px;"/>
      <path d="M81.36,91.19c1.24-.81,2.47-1.62,3.71-2.43.85.22.79.68.31,1.22-.44.49-1.05.88-.84,1.69-1.07-.09-2.26.63-3.17-.48Z" style="fill: #231815; stroke-width: 0px;"/>
      <path d="M51.79,7.31c-1.98-.02-3.97-.05-5.95-.07.05-.45-.1-1.17.61-1.08,1.77.22,3.51.57,5.27.88.04,0,.05.18.07.28Z" style="fill: #eee248; stroke-width: 0px;"/>
      <path d="M42.25,106.83c.22-.18.42-.4.67-.54.79-.44,2.1-.17,2.77.59.12.13.07.62-.07.72-.56.42-2.28.23-2.92-.26-.15-.12-.26-.28-.46-.51Z" style="fill: #f6f6f6; stroke-width: 0px;"/>
      <path d="M63.09,37.67c2.38,0,4.76,0,7.14,0-.03.09-.05.27-.08.27-2.33.01-4.65.01-6.98,0-.03,0-.05-.17-.08-.27Z" style="fill: #0a0a0a; stroke-width: 0px;"/>
      <path d="M34.48,37.62c.39-.18.77-.49,1.16-.5,1.42-.06,2.84-.02,4.25-.02-.27.19-.54.53-.81.54-1.53.04-3.07,0-4.6-.01Z" style="fill: #231815; stroke-width: 0px;"/>
      <path d="M19.08,37.67c1.78,0,3.57,0,5.35,0-.27.19-.53.54-.8.55-1.25.06-2.5.06-3.74,0-.28-.01-.54-.36-.8-.55Z" style="fill: #231815; stroke-width: 0px;"/>
      <path d="M63.74,28.7c-1.4,0-2.81.02-4.21.02.01-.42.02-.85.03-1.27.76.84,1.77.65,2.73.68.54.02,1.23-.29,1.45.56Z" style="fill: #231815; stroke-width: 0px;"/>
      <path d="M21.41,31.7c0,.36.01.73.02,1.09-1.09.02-2.18.08-3.26.03-.29-.01-.58-.35-.86-.54,1.38-.11,2.85.4,4.11-.59Z" style="fill: #231815; stroke-width: 0px;"/>
      <path d="M48.22,37.1c1.12,0,2.24-.03,3.35.03.29.02.57.32.86.49-1.14.01-2.27.06-3.41,0-.27-.01-.54-.35-.8-.53Z" style="fill: #231815; stroke-width: 0px;"/>
      <path d="M44.14,6.75c-.13.63-.06,1.41-1.17.9-.56-.26-1.25-.24-1.89-.34.26-.2.5-.55.77-.57.75-.07,1.52,0,2.28.02Z" style="fill: #eee248; stroke-width: 0px;"/>
      <path d="M67.86,31.14c.19-.21.39-.42.58-.64.62,0,1.23.02,1.85.03-.59,1.06-1.61.46-2.43.61Z" style="fill: #eee248; stroke-width: 0px;"/>
      <path d="M84.51,81.02h-1.19c.06-.48-.15-1.23.72-1.07.22.04.32.7.47,1.07Z" style="fill: #118814; stroke-width: 0px;"/>
      <path d="M27.99,114.92c-.09.21-.19.42-.28.63-.29-.17-.6-.31-.84-.53-.04-.04.23-.41.35-.63.26.18.51.35.77.53Z" style="fill: #0a0a0a; stroke-width: 0px;"/>
      <path d="M67.26,28.11c-.61,0-1.23,0-1.84,0,.33-1.01,1.22-.39,1.81-.63,0,.21.02.43.03.64Z" style="fill: #231815; stroke-width: 0px;"/>
      <path d="M31.52,20.4c-.06.64.38,1.43-.52,1.84.17-.61-.56-1.48.52-1.84Z" style="fill: #eee248; stroke-width: 0px;"/>
      <path d="M32.08,16.84c-.04.65.43,1.43-.49,1.84.16-.61-.53-1.45.49-1.84Z" style="fill: #eee248; stroke-width: 0px;"/>
      <path d="M56.68,12.06c-.05-.39-.1-.78-.16-1.17.84.38.86.57.16,1.17Z" style="fill: #eee248; stroke-width: 0px;"/>
      <path d="M77.5,34.06c-.02-.4-.04-.8-.05-1.2.71.37.83.76.05,1.2Z" style="fill: #eee248; stroke-width: 0px;"/>
      <path d="M17.96,121.51c-.22.12-.44.23-.66.35.22-.12.44-.23.66-.35Z" style="fill: #0a0a0a; stroke-width: 0px;"/>
      <path d="M56.15,13.25c.14-.19.27-.37.41-.56-.14.19-.27.37-.41.56Z" style="fill: #0a0a0a; stroke-width: 0px;"/>
      <path d="M72.02,127.47c.16.18.31.36.47.54-.16-.18-.31-.36-.47-.54Z" style="fill: #0a0a0a; stroke-width: 0px;"/>
      <path d="M75.58,127.36c.2.22.41.44.61.66-.2-.22-.41-.44-.61-.66Z" style="fill: #0a0a0a; stroke-width: 0px;"/>
      <path d="M32.67,13.24c-.16.23-.33.45-.49.68.16-.23.33-.45.49-.68Z" style="fill: #0a0a0a; stroke-width: 0px;"/>
      <path d="M16.68,133.96l.61-.58-.61.58Z" style="fill: #0a0a0a; stroke-width: 0px;"/>
      <path d="M20.34,120.92c-.22.13-.44.26-.66.39.22-.13.44-.26.66-.39Z" style="fill: #0a0a0a; stroke-width: 0px;"/>
      <path d="M33.27,12.65c-.18.18-.36.35-.54.53.18-.18.36-.35.54-.53Z" style="fill: #0a0a0a; stroke-width: 0px;"/>
      <path d="M28.26,19.18c.11-.19.22-.37.33-.56-.11.19-.22.37-.33.56Z" style="fill: #0a0a0a; stroke-width: 0px;"/>
      <path d="M56.55,28.69l-.61.02c0-.2.05-.39.16-.57.15.18.31.37.46.55Z" style="fill: #eee248; stroke-width: 0px;"/>
      <path d="M61.9,41.71c-.19-.02-.39-.03-.58-.05.1-.14.21-.27.31-.41.09.15.18.3.27.46Z" style="fill: #0a0a0a; stroke-width: 0px;"/>
      <path d="M77.39,32.82c-.23-.16-.47-.33-.7-.49.23.16.47.33.7.49Z" style="fill: #0a0a0a; stroke-width: 0px;"/>
      <path d="M86.28,82.85c-.19-.21-.38-.41-.57-.62.19.21.38.41.57.62Z" style="fill: #0a0a0a; stroke-width: 0px;"/>
      <path d="M54.79,9c-.18-.17-.36-.34-.55-.51.18.17.36.34.55.51Z" style="fill: #0a0a0a; stroke-width: 0px;"/>
      <path d="M22.13,62.45c.14.25.29.51.43.76-.14-.25-.29-.51-.43-.76Z" style="fill: #0a0a0a; stroke-width: 0px;"/>
      <path d="M60.08,41.5c-.19-.09-.39-.19-.58-.28.19.09.39.19.58.28Z" style="fill: #0a0a0a; stroke-width: 0px;"/>
      <path d="M21.46,54.28c.12.19.24.39.35.58-.12-.19-.24-.39-.35-.58Z" style="fill: #0a0a0a; stroke-width: 0px;"/>
      <path d="M61.93,92.7c.46,4.05-2.23,6.34-4.54,6.76-3.18.58-5.58-.73-7.27-3.33-.62-.95-.96-2.09-1.32-3.18-.94-2.86.13-5.04,2.87-5.9,1.28-.4,2.59-.71,3.89-1.07,1.92-.52,3.2.05,4.58,1.61,1.37,1.56,2.21,3.21,1.79,5.1ZM55.14,90c-.07,0-.76.03-1.41.22-1.44.43-1.79,1.29-1.1,2.61.21.4.64.7.78,1.11.62,1.78,1.18,2.26,2.54,2.01,1.72-.31,3.01-1.6,2.91-2.89-.08-1.1-1.36-.41-1.53-.93-.16-.5.25-1.17.32-1.78.01-.09-.46-.3-.72-.34-.39-.06-.79-.02-1.8-.02Z" style="fill: #231815; stroke-width: 0px;"/>
      <path d="M26.76,92.79c0-.81,0-1.3,0-1.8.06-2.69,2.28-4.51,4.88-3.94,1.6.35,3.22.66,4.77,1.18,1.62.54,3.03,1.47,3.13,3.44.09,1.74.49,3.58.06,5.2-1.26,4.86-6.81,5.43-10.25,2.46-2.07-1.79-2.88-4.13-2.6-6.54ZM31.65,90.56c-1.75-.02-1.83.13-1.87,1.33-.03.78.92,1.54.06,2.33.68.9.28,2.45,1.64,2.89.88.29,1.89.6,2.73.4.46-.11.66-1.26,1.01-1.93.35-.68.89-1.3,1.06-2.01.19-.81.29-1.78-.99-2.05-1.4-.3-2.76-.72-3.63-.96Z" style="fill: #231815; stroke-width: 0px;"/>
      <path d="M42.84,92.88c0-2.07-.05-4.14.01-6.21.05-1.83,1.27-2.66,2.98-1.99.35.13.62.92.62,1.4.03,3.55.02,7.1-.07,10.64-.03,1.24-.34,2.48-.53,3.72-.03.19-.06.39-.14.56-.42.9-1.14,1.05-1.85.39-.66-.62-1.11-1.29-1.07-2.3.08-2.07.02-4.14.02-6.21,0,0,.01,0,.02,0Z" style="fill: #231815; stroke-width: 0px;"/>
      <path d="M80.34,89.37c.2,0,.4,0,.61,0-.02.49-.04.97-.05,1.46-.18-.48-.37-.97-.55-1.45Z" style="fill: #231815; stroke-width: 0px;"/>
      <path d="M50.24,65.78c1.66-.28,3.1-.46,4.5-.8.28-.07.54-.69.6-1.09.11-.66.52-.89,1-.68.35.15.72.64.76,1.01.12,1.23-.74,2.37-1.91,2.54-1.72.26-3.45.52-5.19.57-1.03.03-2.07-.32-3.1-.54-.99-.21-1.85-.37-2.97-.14-1.99.41-4.18.41-6.19.03-1.16-.22-2.14-1.48-3.15-2.33-.15-.13-.14-.6-.04-.85.12-.32.39-.8.62-.81.38-.02,1.07.2,1.12.44.44,1.87,1.75,2.06,3.33,1.95,1.18-.08,2.37-.03,3.56-.04.8,0,1.3-.44,1.46-1.19.16-.76-.14-1.36-.83-1.72-.25-.13-.56-.16-.81-.3-2.32-1.27-3.06-3.13-2.1-5.25,1.12-2.47,2.74-3.01,5.36-2.42,1.28.29,1.77.94,2.29,1.91.61,1.14,1.23,2.35.79,3.58-.25.72-1.13,1.25-1.8,1.78-.92.72-1.46,2.02-1.05,3.02.12.29.52.55.84.64,1.01.29,2.05.49,2.91.68ZM42.27,58.23c.02,1.42,1.25,2.74,2.55,2.53.82-.13,1.63-.53,2.33-.99.31-.2.47-.83.48-1.27.02-1.9-1.04-3.03-2.72-3.02-1.72.02-2.66,1-2.64,2.74Z" style="fill: #231815; stroke-width: 0px;"/>
      <path d="M61.4,52.2c-.19.33-.27.69-.47.78-.2.09-.63,0-.78-.16-1.22-1.33-2.77-2.04-4.38-2.76-1.24-.55-2.34-1.31-3.82-1.21-.41.03-1.17-.55-1.24-.96-.15-.78.53-1.2,1.27-1.25.47-.04.99,0,1.42.18,2.02.87,4,1.86,6.03,2.7,1.28.53,1.45,1.69,1.98,2.67Z" style="fill: #231815; stroke-width: 0px;"/>
      <path d="M30.09,52.27c.46-.83.72-1.7,1.29-2.27,1.99-1.98,4.85-2.23,7.28-3.33.23-.11.95.37,1.1.73.12.29-.17,1.04-.46,1.16-1.06.43-2.19.68-3.29.99-1.76.49-3.3,1.3-3.82,3.18-.2.72-.49,1.16-1.13.91-.39-.15-.59-.79-.98-1.37Z" style="fill: #231815; stroke-width: 0px;"/>
      <path d="M40.56,52.75c-.11.29-.14.67-.32.78-1.74,1.01-3.51,1.97-5.25,2.96-.72.41-1.18-.03-1.41-.53-.15-.32-.03-.99.23-1.23,1-.91,2-1.91,3.2-2.47.88-.41,2.06-.22,3.1-.22.15,0,.29.44.46.7Z" style="fill: #231815; stroke-width: 0px;"/>
      <path d="M52.02,52.07c1.22.56,2.56.93,3.59,1.71.88.67,1.4,1.8,2.03,2.76.02.02-.73.75-.93.67-1.07-.41-2.1-.92-3.09-1.49-.75-.43-1.52-.92-2.07-1.55-.28-.32-.19-1.04-.12-1.57.02-.21.42-.38.6-.53Z" style="fill: #231815; stroke-width: 0px;"/>
      <path d="M44.71,25.72c1.07-.06,1.61.48,1.72,1.52.07.65-.03,1.57.35,1.88.41.35,1.29.14,1.97.17.1,0,.2.02.29,0,.85-.16.8.65,1.17,1.03.65.68-.26.99-.29,1.52-.01.21-.56.41-.89.57-1.22.58-2.99.38-2.87,2.64.04.81-1.38,1.04-2.15.44-.15-.12-.26-.31-.43-.4-1.05-.62-.21-2.08-.96-2.57-.76-.49-1.89-.46-2.37-1.42-.17-.34-.18-.98.03-1.22.43-.48,1.04-1.04,1.61-1.08,1.06-.07.93-.67,1.03-1.36.21-1.45.58-1.75,1.78-1.72Z" style="fill: #1e9417; stroke-width: 0px;"/>
      <path d="M27.97,27.49c-.2,1.17-1.09.45-1.66.62.26-1,1.1-.43,1.66-.62Z" style="fill: #faa2ad; stroke-width: 0px;"/>
      <path d="M55.14,90c1.01,0,1.41-.04,1.8.02.26.04.73.25.72.34-.07.61-.48,1.28-.32,1.78.16.52,1.45-.17,1.53.93.09,1.29-1.19,2.58-2.91,2.89-1.36.25-1.93-.24-2.54-2.01-.14-.41-.58-.71-.78-1.11-.69-1.31-.33-2.18,1.1-2.61.64-.19,1.34-.21,1.41-.22Z" style="fill: #b3b3b4; stroke-width: 0px;"/>
      <path d="M31.65,90.56c.87.23,2.24.65,3.63.96,1.28.28,1.17,1.24.99,2.05-.16.71-.71,1.34-1.06,2.01-.35.67-.55,1.82-1.01,1.93-.83.2-1.85-.11-2.73-.4-1.36-.44-.96-2-1.64-2.89.86-.79-.09-1.54-.06-2.33.04-1.2.12-1.35,1.87-1.33Z" style="fill: #919191; stroke-width: 0px;"/>
      <path d="M42.27,58.23c-.02-1.75.92-2.73,2.64-2.74,1.68-.02,2.74,1.11,2.72,3.02,0,.44-.17,1.07-.48,1.27-.7.45-1.52.85-2.33.99-1.3.21-2.53-1.11-2.55-2.53Z" style="fill: #e03817; stroke-width: 0px;"/>
    </g>
  </g>
</svg>