<?xml version="1.0" encoding="UTF-8"?>
<svg id="_レイヤー_2" data-name="レイヤー 2" xmlns="http://www.w3.org/2000/svg" viewBox="0 0 94.23 157.49">
  <g id="design">
    <g>
      <path d="M87.25,103.94c-3.81-.61-6.95.95-9.89,3.09-1.84,1.34-3.68,2.7-5.47,4.12-.3.24-.36.86-.43,1.32-.65,4.22-1.25,8.44-1.24,12.72,0,.77-.04,1.6-.32,2.3-.89,2.22-.85,4.43-.41,6.73.22,1.15.44,2.5.04,3.51-.59,1.47-.03,2.47.54,3.63.39.79.62,1.67,1.03,2.44.54,1,.36,1.79-.25,2.73-.94,1.44-.78,1.65.68,2.49,1.02.59,2.08,1.18,2.92,1.98.96.9.98,1.96.28,3.24-.87,1.59-2.18,2.37-3.79,2.5-3.96.32-7.95.33-11.91.69-4.01.37-6.59-1.76-8.86-4.59-.3-.38-.46-.88-.78-1.25-.95-1.08-1.8-1.24-3.18-.57-1.33.64-2.63,1.35-3.93,2.05-1.51.81-3.05,1.4-4.82,1.28-.66-.05-1.49.03-1.98.39-2.87,2.14-6.32,2.42-9.6,2.56-4.36.2-8.75-.32-13.12-.54-1.77-.09-2.93-1.22-3.9-2.51-.79-1.04-.35-3.13.84-3.98,1.11-.79,2.75-1.11,3.43-2.13.71-1.07.79-2.6,1.95-3.52.22-.18.45-.47.48-.73.36-2.76,1.81-5.19,2.08-8.02.29-3,1.32-5.92,1.89-8.91.31-1.65.39-3.35.47-5.04.02-.4-.26-1.03-.59-1.21-2.54-1.4-2.64-3.83-2.58-6.22.09-3.03-.77-5.83-1.58-8.68-.29-1.03-.73-1.81-1.5-2.49-2.15-1.9-4.31-3.8-6.42-5.76-2.28-2.11-3.4-4.74-3.69-7.86-.43-4.52-1.17-9-1.64-13.51-.22-2.07.32-4.1.93-6.09.34-1.09,1.12-1.6,2.06-1.96.81-.31,1.42-.66,1.19-1.71-.76-3.55-.6-7.25-1.81-10.75-.51-1.47-.64-3.08-.86-4.64-.41-2.92-1.62-5.63-1.83-8.63-.25-3.52.78-5.46,4.42-6.31,1.04-.24,1.4-.49.85-1.55-1.12-2.17-2.41-4.26-3.07-6.66-.12-.45-.39-.94-.73-1.25-1.94-1.76-2.14-4.12-2.37-6.49-.18-1.77-.36-3.55-.65-5.31-.45-2.81.1-5.36,1.99-7.51,1.38-1.56,2.75-3.16,4.82-3.93,1.21-.45,2.37-1.05,3.46-1.74C12.35.47,14.54.44,16.66.07c1.54-.27,2.92.24,4.25,1.02,3.12,1.84,5.99,3.98,8.29,6.79,1.12,1.37,1.97,2.87,2.02,4.79.05,1.87.44,3.73.62,5.6.1,1.03.68,1.09,1.44.84,2.43-.79,4.88-1.55,7.28-2.44.81-.3,1.59-.84,2.24-1.42,2.77-2.49,6.19-3.22,9.7-3.81,5.72-.96,11.43-2,17.16-2.96,1.41-.23,2.89.11,3.88,1.05,2.15,2.06,4.14,4.31,6.11,6.55,1.49,1.69,1.99,3.78,2.17,5.99.07.88.31,1.74.51,2.61,1.24,5.24.23,10.47-.02,15.71-.04.79,1.45,4.05,1.92,4.7.85,1.17,1.74,2.42,2.15,3.78.81,2.71.47,5.55-1.55,7.52-1.93,1.88-4.55,2.82-7.42,2.19-2.08-.46-3.94-1.15-4.78-3.43-.7-1.9-2.1-3.61-1-5.83.24-.48.35-1.29-.5-1.42-1.96-.3-3.41-1.45-4.91-2.61-1.14-.88-1.87-.56-1.9.85-.07,3.3,0,6.61-.05,9.91-.01.97-.2,1.95-.34,2.92-.28,1.86.19,2.51,2.08,3,2.63.69,4.74,2.28,6.04,4.56.95,1.66,1.26,3.69,1.86,5.55-.69,1.03-.63,1.66.23,2.4.41.61.63,1.22,1.69,1.25,2.44.07,4.86.43,7.29.68.35.34.71.68,1.06,1.02.42,1.08.97,2.12,1.22,3.23.51,2.28.98,4.59,1.25,6.91.22,1.85.21,3.74-.55,5.53-.23.53-.55,1.11-.52,1.65.11,2.35-.6,4.44-1.7,6.46-.27.51-.4,1.15.41,1.44.12.89.82.57,1.34.65.58.1,1.43-.43,1.65.63ZM25.29,99.11c.87.1,1.31-.26,1.23-1.16,1.02-1.14,2.07-2.25,3.03-3.43.45-.56.72-1.27,1.08-1.91.03-.47.07-.95.1-1.42.86.32,1.35-.28,1.65-.86,1.27-2.42,2.46-4.88,3.67-7.32.03-.48.07-.97.1-1.45.35-.09.95-.09,1.02-.28.67-1.91,1.26-3.85,1.82-5.8,0-.02-.64-.24-.98-.36-.24-.25-.48-.5-.72-.76.66-.41,1.35-.77,1.97-1.23.8-.58.75-1.47-.17-1.71-1.41-.36-2.89-.49-4.33-.73-2.05-.34-2.87,1.4-4.17,2.39-1.14.86-1.21,1.94-1.05,3.17-.46.04-.92.07-1.39.11-.5.02-1.01.03-1.51.05-1.08,0-2.25-.71-3.17.43-.59.03-1.18.03-1.76.1-2.37.27-2.53.53-1.73,2.8-.27.26-.53.52-.8.78q-1.68-2.7-4.87-2.11c-.19.04-.38.13-.57.14-2.92.18-5.51-1.04-5.94-4.11-.13-.98-.37-1.94-.61-2.9-.06-.23-.32-.58-.49-.57-.22,0-.57.26-.64.47-.27.94-.68,1.91-.64,2.86.14,2.88.42,5.75.75,8.61.1.86.48,1.77,1.68,1.7-.01.42-.02.83-.03,1.25-.87-.06-1.26.37-1.26,1.21-.83.46-.83.86.07,1.21.03.56.06,1.13.09,1.69-.08.52-.34,1.1.44,1.34.4.89.91,1.75,1.16,2.68.3,1.16,1.08.91,1.84.85.38.21.76.43,1.14.64.03.3-.05.7.11.88,1.17,1.24,2.22,2.7,3.63,3.57,2.41,1.48,5.12,2.07,7.98,1.27,1.15-.32,1.31-1.07,1.1-2.07.38,0,.76,0,1.14,0ZM53.56,72c-1.6.22-3.2.43-4.81.65-.61,0-1.21,0-1.82,0-.4,0-.8,0-1.2,0q-2.51.02-3.29,2.37c-.09.28-.15.58-.27.85-1.5,3.43-1.66,7.39-4.13,10.45-.19.23,0,.77.02,1.16-.25.45-.49.9-.74,1.36-1.81,1.93-3.02,4.23-4.2,6.56-.08.15.03.39.06.59-.03.42-.05.84-.08,1.26-.91-.09-1.74-.04-2.37.8-.83,1.09-1.79,2.09-2.64,3.18-2.08,2.68-4.71,4.06-8.18,3.59-.38-.05-.79.17-1.19.27.36.39.64.95,1.09,1.14.78.34,1.65.46,2.48.67-.2.38-.4.77-.6,1.15q-1.83,0-1.93,1.84c-.62.27-.47.47.06.64.02,1.4.04,2.8.05,4.19-.15.07-.29.14-.44.21.15.13.31.26.46.39.12.83-.15,1.88,1.17,2,.41.55,1.33.49,1.33,1.63,0,.85.77.79,1.68-.24.66-.16,1.31-.38,1.98-.48,2.71-.38,5.44-.67,8.14-1.1,1.9-.3,1.89-.38,1.28-2.4.42,0,.85-.02,1.27-.03.37.28.75.55,1.12.83.15.27.3.55.44.82l.28-.77c2.22-.35,3.58-2.15,5.39-3.19.29-.06.63-.03.86-.19.32-.21.55-.56.81-.85-.46-.05-.92-.12-1.39-.12-.11,0-.22.28-.34.42-2.35-.27-2.68-.6-2.91-2.98.15-.28.3-.57.46-.85-.44-.13-.88-.26-1.32-.39.02-.31.03-.61.05-.92l.85-.9q2.3.59,1.78,2.81c-.28,1.19.19,1.68,1.41,1.46.99-.18,1.66-.63,1.52-1.77-.19-1.56-.72-3.18-.48-4.67.76-4.85.39-9.67.18-14.51.16-1.05.71-2.13-.28-3.08.18-.6.37-1.2.55-1.8.85-.64.85-1.1.02-1.8.2-.42.39-.84.59-1.26,1.14-1.6,2.55-2.55,4.64-2.67.85-.05,2.05.34,2.72-.77.47-.78,1.23-.98,2.09-.73,1.1.32.84,1.27.77,2-.16,1.51.81,1.55,1.84,1.58-.32.21-.63.54-.98.61-.5.11-.87.18-.7.81-.06.54-.12,1.08-.18,1.62-.79,1.39-.8,2.7-.04,4.22q.15,1.85,1.79,1.72l.75.79c-2.07.81-2.65,2.37-2.44,4.48.26,2.66.4,5.34.56,8.01.14,2.45.77,3.06,3.03,2.34,1.28-.41,2.42-1.3,3.57-2.06.92-.61.49-1.36.03-2.05.42-.56.83-1.11,1.25-1.67.7-1.28,1.64-2.48,2.03-3.85.3-1.03,1.36-2.03.6-3.28-.9.31-1.79.63-2.69.94-.18.06-.39.07-.58.1,0-.42,0-.84-.01-1.26.44-.21.86-.47,1.32-.61,3.14-.97,3.24-1.18,3.51-4.45.14-1.66.57-3.3.84-4.95.18-1.07.27-2.15.49-3.21.25-1.24-.66-1.7-1.41-2.3.27-.27.54-.54.81-.81.34-.24.95-.46.97-.73.22-2.99-.92-5.54-2.81-7.78-.26-.31-.87-.32-1.31-.46-.39-.18-.78-.36-1.17-.55-.36-.87-.87-.31-.98.04-.87,2.75-2.74,4.13-5.57,4.45-.84.09-1.68.53-2.43.96-.35.2-.49.76-.73,1.16-.43-.16-.87-.32-1.3-.49-.15-.03-.3-.07-.44-.11-.13-.15-.26-.3-.39-.44-.07.14-.15.28-.22.41ZM78.84,28.22l-.14-.9c.55-2.42-.37-4.69-.84-6.98-.46-2.23-2.53-3.49-3.73-5.27-2.02-2.99-4.58-3.21-7.66-2.46-1.7.41-1.86.52-2.11,2.47-.07.56-.37,1.1-.57,1.65-.45-.01-.89-.02-1.34-.03.27-3.15.27-3.17-2.81-2.95-.68.05-1.35.26-2.02.37-1.07.17-2.57-.04-3.09.58-.61.72-.37,2.17-.5,3.3-.43-.39-1.14-.71-1.25-1.18-.41-1.7-1.65-1.4-2.82-1.39-.09-.13-.17-.25-.26-.38-.12.16-.24.32-.36.48-1.78,1.05-3.51,2.19-5.35,3.11-1.33.67-1.54,1.57-1.34,2.91.13.85.24,1.99-.2,2.57-.65.85-1.8,1.33-2.75,1.93-1.05.66-2.07.24-3.08-.13.23-.4.46-.8.69-1.19.93-.25,1.84-.56,2.78-.75.75-.15.88-.62.92-1.27.15-2.28-.52-2.84-2.75-2.21-.47.13-.92.32-1.38.49-1.39.54-1.65,1.03-1.2,2.48.11.36.45.64.68.96-.29.25-.58.49-.87.74-.09-.04-.2-.07-.26-.14-.69-.82-.46-2.46-2.2-2.35-1.63.1-1.52,1.64-2.16,2.54-.56.79-.32,1.39.61,1.88,1.37.72,2.89,1.39,3.9,2.49,2.18,2.38,4.88,3.22,7.92,3.46.11.12.22.25.33.37.05-.22.11-.44.16-.66.43-.36.85-.72,1.28-1.09.05.28.21.59.14.84-.36,1.36.07,2.25,1.41,2.71,1.07.36,2.11,1.24,3.26.38,1.14-.86.78-2.09.57-3.24.48-.03.95-.06,1.43-.09.84.75.59,1.66.21,2.45-.62,1.28.1,1.31,1.03,1.3,2.54-.02,5.07-.98,7.63-.13.62.89,1.06.91,1.81.11,1.35-.1,1.93.84,2.41,1.84.41.84,1.02,1.17,1.93,1.01,1.61-.28,2.98.29,4.1,1.36.99.95,1.9,1.99,2.71,3.09.78,1.07.99,1.2,2.07.5.33-.21.69-.44.91-.75.67-.96,1.28-1.96,1.89-2.96.42-.69.38-1.39-.32-1.84-1.72-1.11-2.3-2.88-2.81-4.68-.35-1.23-.63-2.5.32-3.64.24.24.49.49.73.73-.35,1.95.45,3.65,1.22,5.34.14.3.78.46,1.2.51.13.01.45-.57.47-.88.07-1.49.05-2.97.07-4.46.81-.38.81-.79.04-1.23-.23-.57-.46-1.15-.68-1.72ZM21.67,139.36c-.19,0-.39,0-.58.02-1.3.64-1.54,1.88-1.84,3.12-.35,1.41-.71,2.84-1.24,4.19-.64,1.64-.73,1.64.81,2.32.71.31,1.49.45,2.23.67.16.51.37.66.66.08.84-.04,1.69-.04,2.24-.85.25.24.5.48.75.73-.04.69.24,1.13.96,1.15.87.02,1.74,0,2.62-.01.67.85,1.14.85,1.81,0,1.9.03,3.83-.13,5.71.14,2.7.38,4.81-.9,7.01-2.01.29-.15.64-.62.61-.9-.14-1.37-.4-2.73-.62-4.09-.23-.52-.46-1.04-.69-1.56.29-.36.76-.69.83-1.09.33-1.91.61-3.83.77-5.76.03-.32-.61-.7-.94-1.06-.2-.17-.4-.33-.6-.5,0-.36-.01-.73-.02-1.09.91,0,1.79.08,1.82-1.29.01-.77.45-1.52.48-2.29.06-1.23.63-2.57-.62-3.62-.69-.59-.85-1.57-.26-2.11.47-.43,1.48-.53,2.17-.38,1.22.27,2.1,1.16,2.29,2.43.14.97.1,1.99,0,2.97-.14,1.37-.42,2.72-.62,4.09-.32,2.22-.63,4.44-.95,6.66-.73.19-.93.62-.45,1.2.17.2.4,1.1.89.19,1.26-.09,2.54-.43,3.7.37-.27.28-.53.55-.8.83-.8-.01-1.6-.08-2.39-.02-.34.03-.83.21-.98.48-.7,1.24-.08,3.8,1.19,4.48,1.55.82,3.18,1.55,4.84,2.1,1.7.57,2.09.13,2.14-1.86,0-.39.13-.77.19-1.16.4.72.95,1.4,1.16,2.18.19.67.34,1.08,1.1,1.05,2.38-.08,4.77.13,7.08-.73,1.05-.39,1.59-1,2.25-1.98,1.14-1.7,1.34-2.91-.01-4.45-.42-.48-.58-1.28-.64-1.95-.07-.91-.51-1.16-1.32-1.26-.44-.05-.86-.36-1.29-.55l1.34-.74c.73-.02,1.65.35,1.65-.98.02-3.06.1-6.12.08-9.18,0-.17-.74-.33-1.13-.49-.23.19-.45.38-.68.56-.58.03-1.17.06-1.75.09.96-.82,1.81-1.93,2.92-2.36,1.1-.43,1.25-.99,1.34-1.95.31-3.13.63-6.27,1.11-9.38.22-1.44-.7-1.59-1.59-1.95-1.09-.44-1.62.06-2.03,1.04-.34.79-.72,1.87-1.37,2.15-1.43.62-1.13,1.65-1.12,2.7-.4.01-.81.02-1.21.04.01-.86-.35-1.48-1.15-1.84-.39-.92-.79-.9-1.2-.02-1.14.24-2.29.43-3.41.72-.92.24-1.96.41-2.11,1.66-.71.42-.71.84-.01,1.26.4,1,.35,2.35,1.9,2.48.83.73,1.65.85,2.45-.06,1.65.24,2.37-1.23,3.52-1.91.29.3.58.61.87.91-1.32,1.89-3.28,2.31-5.41,2.32-.27.08-.55.16-.82.24-2.95-.56-4-1.77-4.08-4.75-.04-1.4-.1-2.79-.08-4.19,0-.8-.39-1.04-1.08-1.09-.9-.06-1.67,0-2.48.65-1.69,1.36-3.42,2.82-5.38,3.65-4.93,2.09-10.02,3.79-15.52,3.53-.5-.02-1-.03-1.5.02-1.37.12-1.64.42-1.76,1.87-.09,1.09-.02,2.21-.25,3.26-.58,2.6-1.41,5.15-1.92,7.77-.25,1.27-.91,2.74.39,3.93,0,.39,0,.77,0,1.16ZM60.84,46.03c0-.87-.01-1.37,0-1.87.17-4.88-.9-5.56-6.22-5.11-.09,0-.18.09-.27.12-2.39.76-4.66.29-6.94-.57-2.74-1.03-5.49-2.02-8.27-2.94-2-.66-3.86-1.44-5.37-3.01-.74-.77-1.72-1.32-2.66-1.86-1.19-.7-1.57-.43-2.28,1.03-.32.65-.81,1.46-1.41,1.69-1.36.5-2.48-.75-2.04-2.33.72-2.54,1.52-5.07,2.46-7.54.53-1.4.97-2.62.58-4.21-.49-2-.41-4.13-.73-6.17-.15-.94-.6-1.86-1.04-2.72-1.44-2.78-4.23-4.09-6.55-5.93-1.47-1.16-3.1-1.34-4.79-.91-3.89.99-7.43,2.61-10.19,5.72-1.07,1.2-1.71,2.36-1.54,3.99.3,2.86.46,5.74.77,8.59.07.65.36,1.45.83,1.86,2.85,2.47,2.95,6.38,4.97,9.28.65.93.87,2.18,1.19,3.31.39,1.35,0,2.08-1.34,2.51-.84.27-1.72.42-2.59.56-2.15.35-2.74,1.13-2.28,3.18.58,2.59,1.19,5.17,1.77,7.75.52,2.3,1.02,4.6,1.53,6.9.17.76.4,1.52.51,2.29.64,4.49,1.23,8.99,1.91,13.48.25,1.62.77,2.06,2.36,1.97,1.47-.08,2.94-.37,4.4-.58,1.36-.2,2.75-.7,4.08-.57,3.2.31,5.17-1.42,6.96-3.64.51-.64.33-1.21-.46-1.19-1.71.05-3.37-.18-4.95-.8-4.21-1.66-6-6.06-4.19-10.19.16-.36.34-.71.52-1.07,1.52-3.1,5.06-4.56,8.24-2.97.67.34,1.7.77,2.19.5,1.4-.76,2.44-.3,3.62.35.35.19.9-.01,1.36,0,.65.02,1.34-.04,1.93.16,1.59.54,2.47,1.64,2.22,3.41-.13.93.04,1.52,1.16,1.59.56.03,1.15.67,1.63.56,2.36-.53,3.38,1.23,4.75,2.5,1.26,1.17,1.68,2.44.67,3.89-.72,1.04-.15,1.32.68,1.68,1.86.81,3.73.45,5.57.02,1.72-.4,3.38-1.02,5.09-1.49,2.04-.56,2.18-.74,2.17-2.84-.02-3.1,0-6.21,0-9.31,0-3.14-.5-6.28-.03-9.06ZM83.82,88.63c-.53-3.06-.37-5.91-1.8-8.39-.37-.64-1-1.46-1.6-1.55-1.72-.26-3.5-.63-5.25-.1-.42.13-1,.45-1.09.79-.5,2.01-.89,4.04-1.29,6.08-.92,4.64-1.6,9.35-4.13,13.51-.25.42-.58.92-.56,1.36.09,1.84-.9,3.18-1.79,4.63-.43.7-.51,1.65-.63,2.5-.14.96.27,1.43,1.35,1.41,1.88-.04,3.44-.67,4.92-1.84,1.77-1.41,3.59-2.87,5.6-3.86,3.27-1.6,4.24-4.44,4.86-7.61.23-1.16.47-2.31.71-3.46.25-1.25.51-2.5.7-3.45ZM48.72,95.22s-.07,0-.11,0c0,2.99-.07,5.98.03,8.97.05,1.46.48,2.91.63,4.38.14,1.43,1.15,1.71,2.26,1.93.79.16,1.45.04,1.38-.97-.12-1.64.28-3.11,1-4.59.31-.65.17-1.56.12-2.35-.06-1.08-.32-2.16-.34-3.23-.09-5.39-.13-10.77-.18-16.16-.02-1.65-.84-2.24-2.43-1.75-1.78.55-2.27,1.1-2.33,3.29-.09,3.49-.02,6.98-.02,10.47ZM36.7,58.77c.11-.91-.29-1.28-1.19-1.22-1.27.1-2.54.37-3.71-.5-.25-.19-.9-.18-1.15.01-1.2.91-2.03.51-3.12-.35-1.65-1.29-3.07-1.16-4.6-.03-1.4,1.03-2.69,4.15-2.28,5.47.96,3.05,5.32,5.41,8.33,4.44.41-.13.83-.59,1.01-1.01.18-.43.05-.98.09-1.47.14-1.61,1.17-2.7,2.32-3.64.9-.73,1.85-1.28,3.18-.58.83.44,1.2-.31,1.13-1.14ZM56.42,152.2c-.01-.09-.03-.19-.04-.28-.8,0-1.6-.02-2.41,0-.28,0-.56.13-.84.2.11.24.18.52.33.73,1.49,2,3.63,2.77,5.99,2.72,3.68-.08,7.35-.37,11.03-.57.2-.01.5.04.58-.07.45-.62,1-1.25,1.2-1.96.08-.27-.62-.87-1.07-1.16-.83-.53-1.72-.98-2.63-1.37-.42-.18-.97-.25-1.42-.17-2.03.35-4.04.78-6.07,1.15-1.55.28-3.1.52-4.66.77ZM83.13,50.66c-.15-.39-.26-1.66-.96-2.29-.89-.8-2.22-1.31-3.43-1.54-1.65-.32-4.21,2.26-3.97,4.03.33,2.44,1.74,4.42,4.03,4.35,2.59-.07,4.2-1.36,4.34-4.55ZM24.25,155.6c2.47.64,5.01-.86,7.71-1.27.2-.03.47-.4.47-.62,0-.16-.37-.46-.58-.47-1.2-.05-2.4-.05-3.6-.03-3.29.07-6.55.15-9.5-1.73-.56-.36-1.36-.7-1.95-.58-1.8.37-3.57.94-5.32,1.51-.26.08-.54.67-.49.97.06.32.44.74.76.83.44.12.95-.04,1.42-.05.46,0,.97-.1,1.37.06,2.99,1.21,6.11,1.48,9.68,1.38ZM36.26,67.78c.01-.07.03-.14.04-.21,1.25.24,2.5.47,3.74.73,1.32.28,2.55.11,3.68-.64,1.27-.84,1.29-1.23.25-2.72-.17-.24-.24-.55-.39-.8-.78-1.3-1.04-1.42-1.76-.31-.7,1.09-1.2,1.14-1.98.25-.48-.55-.85-.52-1.48-.07-1.78,1.26-1.87,1.24-2.84-.85-.41-.88-.92-.99-1.61-.59-1.31.76-1.9,2.68-1.32,4.21.52,1.37,1.66,1.18,2.77,1.06.3-.03.6-.03.9-.04ZM54.82,113.66c2.02-.28,3.77-.46,5.5-.8,1.12-.22,2.65-3.11,2.17-4.19-.56-1.25-1.75-.36-2.65-.49-.39-.06-.8-.07-1.19,0-1.43.26-2.76.65-3.27,2.3-.2.64-.67,1.2-.97,1.81-.44.89-.19,1.36.41,1.38ZM72.35,44.3c-.12-.62-.08-1.09-.29-1.37-1.02-1.38-2.36-2.36-4.03-2.79-.32-.08-.98.06-1.04.24-.14.4-.17,1.12.08,1.31,1.36,1.1,2.8,2.11,4.27,3.07.17.11.68-.31,1.02-.47Z" style="fill: #131112; stroke-width: 0px;"/>
      <path d="M87.25,103.94c-.22-1.06-1.06-.53-1.65-.63-.52-.09-1.22.23-1.34-.65.7,0,1.4-.02,2.1,0,1.1.04,1.89-.18,2.16-1.49.15-.7.87-1.26,1.21-1.95.24-.49.54-1.24.34-1.59-.73-1.22-.5-2.09.69-2.71,1.06-.56.83-1.35.24-1.9-1.01-.94-.46-1.75-.02-2.61.13-.26.37-.47.59-.67.7-.62.61-1.2-.11-1.71-1.86-1.31-.68-4.02-2.48-5.37-.09-.07-.07-.41,0-.58.68-1.57.81-2.78-1.46-3.03-.62-.07-1.12-.8-.54-1.65.16-.24.16-.88,0-.99-.27-.18-.78-.21-1.09-.07-.62.28-1.16.72-1.74,1.09-.35-.34-.71-.68-1.06-1.02.78-.53,1.51-1.18,2.36-1.58,2.1-.98,2.95-.56,3.73,1.64.19.54.37,1.15.76,1.52.99.94,1.73,1.89,1.4,3.38-.07.3.17.8.42,1.03.84.77,1.06,1.69.57,2.65-.5.96-.03,1.42.61,2,1.6,1.44,1.67,1.87.45,3.56-.55.76-1.23,1.31-.35,2.28.22.24.3.84.15,1.13-.93,1.82-1.04,3.88-1.76,5.72-.37.95-1.17,1.69-1.34,2.86-.18,1.22-1.32,1.61-2.84,1.32Z" style="fill: #222c32; stroke-width: 0px;"/>
      <path d="M74.11,74.49c-.86-.74-.92-1.37-.23-2.4,1.05.71.7,1.55.23,2.4Z" style="fill: #131112; stroke-width: 0px;"/>
      <path d="M60.84,46.03c-.47,2.78.02,5.92.03,9.06,0,3.1-.02,6.21,0,9.31.01,2.1-.12,2.28-2.17,2.84-1.7.47-3.37,1.09-5.09,1.49-1.84.42-3.71.79-5.57-.02-.83-.36-1.4-.64-.68-1.68,1-1.45.59-2.72-.67-3.89-1.37-1.27-2.39-3.03-4.75-2.5-.47.11-1.07-.52-1.63-.56-1.12-.07-1.29-.65-1.16-1.59.25-1.77-.63-2.87-2.22-3.41-.59-.2-1.28-.13-1.93-.16-.46-.02-1.01.19-1.36,0-1.18-.65-2.22-1.12-3.62-.35-.5.27-1.52-.16-2.19-.5-3.19-1.59-6.72-.13-8.24,2.97-.17.36-.36.71-.52,1.07-1.81,4.13-.02,8.53,4.19,10.19,1.57.62,3.24.85,4.95.8.79-.02.97.56.46,1.19-1.79,2.22-3.75,3.96-6.96,3.64-1.33-.13-2.72.37-4.08.57-1.47.21-2.93.5-4.4.58-1.58.09-2.11-.35-2.36-1.97-.68-4.49-1.26-8.99-1.91-13.48-.11-.77-.34-1.53-.51-2.29-.51-2.3-1.01-4.6-1.53-6.9-.58-2.59-1.19-5.17-1.77-7.75-.46-2.05.12-2.83,2.28-3.18.87-.14,1.75-.29,2.59-.56,1.33-.42,1.72-1.16,1.34-2.51-.33-1.13-.54-2.38-1.19-3.31-2.02-2.9-2.12-6.82-4.97-9.28-.47-.41-.76-1.2-.83-1.86-.31-2.86-.48-5.73-.77-8.59-.17-1.63.47-2.78,1.54-3.99,2.76-3.11,6.3-4.73,10.19-5.72,1.69-.43,3.32-.25,4.79.91,2.32,1.83,5.11,3.15,6.55,5.93.45.86.89,1.78,1.04,2.72.32,2.05.24,4.18.73,6.17.39,1.59-.05,2.82-.58,4.21-.94,2.47-1.75,5-2.46,7.54-.44,1.57.68,2.83,2.04,2.33.6-.22,1.09-1.04,1.41-1.69.71-1.46,1.09-1.72,2.28-1.03.93.55,1.92,1.1,2.66,1.86,1.51,1.57,3.37,2.35,5.37,3.01,2.78.92,5.53,1.91,8.27,2.94,2.27.86,4.55,1.33,6.94.57.09-.03.18-.12.27-.12,5.32-.44,6.39.23,6.22,5.11-.02.5,0,1,0,1.87ZM34.49,52.78c2.22.06,4-1.46,4.05-3.44.05-2.02-1.6-3.68-3.75-3.75-1.99-.07-3.99,1.45-4.09,3.1-.11,1.94,1.25,3.95,3.79,4.1ZM26.75,38.14c-.22-.35-.32-.69-.54-.8-.2-.1-.59-.05-.8.08-2.12,1.26-4.28,2.46-6.28,3.89-.73.52-1.13,1.56-1.5,2.45-.1.23.45.8.79,1.09.08.07.73-.25.83-.5.48-1.31,1.53-1.9,2.69-2.51,1.39-.73,2.69-1.64,3.98-2.54.37-.26.55-.76.83-1.16ZM40.3,38.36c-.14.15-.52.39-.56.67-.05.33.1.85.35,1.03,1.91,1.37,3.84,2.72,5.82,3.99.32.21,1.06.23,1.3,0,.24-.22.31-1.03.1-1.28-1.61-1.91-3.63-3.3-5.89-4.34-.25-.12-.59-.05-1.12-.08ZM43.32,45.23c0-.87-.82-1.5-1.86-1.45-.95.05-2.17.96-2.23,1.67-.05.62,1.3,1.96,1.98,1.95.88,0,2.12-1.29,2.11-2.17ZM29.19,44.5c-.51-.3-1.04-.77-1.19-.67-1.34.91-2.63,1.91-3.89,2.93-.12.09-.04.69.12.79.25.16.73.24.96.1,1.08-.65,2.13-1.37,3.15-2.11.28-.2.46-.56.84-1.04Z" style="fill: #faa2ad; stroke-width: 0px;"/>
      <path d="M21.68,138.21c-1.3-1.18-.64-2.65-.39-3.93.51-2.62,1.34-5.17,1.92-7.77.24-1.05.17-2.18.25-3.26.11-1.45.38-1.74,1.76-1.87.5-.05,1-.04,1.5-.02,5.5.26,10.59-1.44,15.52-3.53,1.96-.83,3.69-2.3,5.38-3.65.82-.66,1.58-.71,2.48-.65.69.05,1.09.29,1.08,1.09-.02,1.4.04,2.79.08,4.19.09,2.98,1.13,4.19,4.08,4.75.27-.08.55-.16.82-.24,2.13-.01,4.08-.43,5.41-2.32,1.2-1.11,1.27-1.72.36-3.25-.01-1.05-.32-2.08,1.12-2.7.65-.28,1.03-1.36,1.37-2.15.42-.98.95-1.48,2.03-1.04.88.36,1.81.51,1.59,1.95-.48,3.11-.8,6.25-1.11,9.38-.1.96-.24,1.52-1.34,1.95-1.11.43-1.96,1.55-2.92,2.36l-.12.14c-.23.25-.46.5-.69.75-1.79,1.06-2.59,2.68-2.22,4.66.25,1.31.82,2.59,1.44,3.79.39.75,1.01,1.49,2.08,1.4.43.19.84.5,1.29.55.81.1,1.25.35,1.32,1.26.05.67.22,1.47.64,1.95,1.35,1.55,1.15,2.75.01,4.45-.66.98-1.2,1.59-2.25,1.98-2.31.86-4.7.65-7.08.73-.76.03-.91-.39-1.1-1.05-.22-.77-.76-1.46-1.16-2.18v.04c-.19-.61-.38-1.21-.57-1.82-.55-1.8-1.66-2.94-3.63-3.06-1.17-.8-2.45-.46-3.7-.37-.15-.46-.3-.93-.44-1.39.31-2.22.62-4.44.95-6.66.2-1.36.48-2.72.62-4.09.1-.98.14-2,0-2.97-.19-1.28-1.07-2.17-2.29-2.43-.69-.15-1.7-.04-2.17.38-.59.54-.43,1.52.26,2.11,1.24,1.05.67,2.39.62,3.62-.03.77-.47,1.52-.48,2.29-.02,1.37-.9,1.29-1.82,1.29-1.14-.32-2.13-.13-3.05.69-1.45,1.3-2.6,2.75-2.91,4.72-.26,1.67-.13,3.41,1.52,4.19,1.57.75,3.07,2.12,5.08,1.46.22,1.36.48,2.72.62,4.09.03.28-.32.75-.61.9-2.2,1.12-4.31,2.4-7.01,2.01-1.87-.27-3.8-.11-5.71-.14-.6-.73-1.21-.72-1.81,0-.87,0-1.75.03-2.62.01-.73-.02-1-.46-.96-1.15,3.33-4.32,2.01-9.24-3.04-11.44ZM28.8,131.65c2.26.06,4.87-1.99,4.9-3.85.03-2.13-2.36-5.14-4.11-5.17-2.12-.03-4.81,2.36-4.82,4.29-.02,2.19,2.1,4.68,4.03,4.73Z" style="fill: #f5ecda; stroke-width: 0px;"/>
      <path d="M29.55,76.25c-.16-1.22-.09-2.3,1.05-3.17,1.3-.98,2.11-2.72,4.17-2.39,1.45.24,2.92.36,4.33.73.92.24.97,1.12.17,1.71-.62.46-1.31.82-1.97,1.23-3.64,2.02-4.16,5.66-1.25,8.65-1.22,2.44-2.4,4.9-3.67,7.32-.3.57-.79,1.17-1.65.86-1.1-.71-2.09-1.79-3.59-1.42-2.27.56-3.8,2.04-4.63,4.15-.41,1.04-.79,2.31.7,3.03.32.73.63,1.45.95,2.18.21,1,.05,1.75-1.1,2.07-2.86.8-5.58.21-7.98-1.27-1.41-.87-2.46-2.33-3.63-3.57-.16-.17-.08-.58-.11-.88,1.61-.84,2.11-2.52,2.94-3.94.14-.23.18-.61.09-.87-.6-1.7-1.49-3.21-2.81-4.5-1.05-1.02-2.12-1.81-3.67-1.57-1.2.07-1.58-.84-1.68-1.7-.33-2.86-.61-5.74-.75-8.61-.05-.94.36-1.92.64-2.86.06-.21.41-.47.64-.47.17,0,.43.34.49.57.24.96.47,1.92.61,2.9.42,3.07,3.01,4.29,5.94,4.11.19-.01.38-.1.57-.14q3.19-.59,4.87,2.11c.64,2.17,2.33,2.52,4.26,2.41.81-.02,1.63-.04,2.44-.06,3.37-1.1,4.75-3.6,3.66-6.62Z" style="fill: #f3ead8; stroke-width: 0px;"/>
      <path d="M63.79,100.91c.47.69.89,1.44-.03,2.05-1.15.76-2.29,1.65-3.57,2.06-2.26.72-2.89.11-3.03-2.34-.16-2.67-.29-5.35-.56-8.01-.21-2.11.38-3.67,2.44-4.48.45-.18.93-.31,1.34-.56,1.93-1.16,2.57-2.53,2.22-4.68-.44-2.71-1.73-4.1-4.2-4.54-1.04-.03-2-.07-1.84-1.58.08-.73.33-1.67-.77-2-.86-.25-1.61-.06-2.09.73-.67,1.11-1.87.72-2.72.77-2.09.11-3.5,1.07-4.64,2.67-.6,0-1.2-.06-1.8-.02-2.11.15-2.8.85-2.95,2.93-.04.58.03,1.27-.26,1.71-.74,1.15-.47,2.31-.22,3.46.34,1.6.38,1.6-1.4,2.35.17-1.61-.17-3.01-1.64-3.95-.02-.39-.21-.93-.02-1.16,2.46-3.06,2.63-7.02,4.13-10.45.12-.27.18-.57.27-.85q.79-2.35,3.29-2.37c.4,0,.8,0,1.2,0,.97,3.01,1.64,3.71,3.56,3.68,2.37-.03,4.68-1.61,5.42-3.71.24-.4.38-.96.73-1.16.75-.43,1.59-.86,2.43-.96,2.83-.32,4.7-1.7,5.57-4.45.11-.35.62-.91.98-.04-1.18,2-.91,4.17-.49,6.26.43,2.14,1.69,3.69,4.01,4.06.75.59,1.65,1.06,1.41,2.3-.21,1.06-.31,2.14-.49,3.21-.28,1.65-.71,3.29-.84,4.95-.27,3.27-.37,3.48-3.51,4.45-.46.14-.88.4-1.32.61-.37.11-.83.11-1.09.33-2.59,2.2-2.36,6.07.49,8.7Z" style="fill: #f0e7d6; stroke-width: 0px;"/>
      <path d="M83.82,88.63c-.19.95-.44,2.2-.7,3.45-.24,1.15-.48,2.31-.71,3.46-.62,3.17-1.59,6.01-4.86,7.61-2.02.99-3.83,2.45-5.6,3.86-1.48,1.17-3.04,1.81-4.92,1.84-1.08.02-1.49-.45-1.35-1.41.12-.85.2-1.8.63-2.5.89-1.45,1.88-2.79,1.79-4.63-.02-.44.3-.94.56-1.36,2.52-4.16,3.21-8.87,4.13-13.51.4-2.03.79-4.07,1.29-6.08.08-.34.67-.67,1.09-.79,1.74-.53,3.52-.16,5.25.1.61.09,1.23.92,1.6,1.55,1.44,2.48,1.27,5.33,1.8,8.39Z" style="fill: #f6f6f6; stroke-width: 0px;"/>
      <path d="M40.2,106.54c-.02.31-.03.61-.05.92-.56.17-1.12.35-1.68.52-.65.42-1.36.77-1.94,1.28-1.7,1.5-1.99,3.17-1.05,5.48.6,2.02.62,2.1-1.28,2.4-2.7.43-5.43.72-8.14,1.1-.67.09-1.32.31-1.98.48-.28-.88.22-1.44.72-2.1,1.02-1.34,1.89-2.99,1.43-4.58-.61-2.1-1.59-4.22-3.93-5.14-.83-.21-1.71-.33-2.48-.67-.44-.19-.73-.75-1.09-1.14.4-.1.81-.32,1.19-.27,3.47.46,6.1-.91,8.18-3.59.84-1.09,1.8-2.09,2.64-3.18.64-.84,1.46-.89,2.37-.8,2.93.49,4.93-1,6.64-3.11,1.03,1.21,2.01,2.29.36,3.92-.94.93-.5,2.19.56,3.05.11.54.23,1.08.34,1.62-.56.49-1.32.89-1.64,1.51-.47.9-.44,1.89.83,2.29Z" style="fill: #f3ead8; stroke-width: 0px;"/>
      <path d="M48.72,95.22c0-3.49-.06-6.98.02-10.47.06-2.2.55-2.74,2.33-3.29,1.59-.49,2.41.1,2.43,1.75.05,5.39.09,10.77.18,16.16.02,1.08.28,2.15.34,3.23.05.79.19,1.69-.12,2.35-.71,1.48-1.12,2.95-1,4.59.08,1.01-.59,1.12-1.38.97-1.11-.22-2.12-.5-2.26-1.93-.14-1.47-.58-2.91-.63-4.38-.1-2.99-.03-5.98-.03-8.97.04,0,.07,0,.11,0Z" style="fill: #f1f1f1; stroke-width: 0px;"/>
      <path d="M84.15,77.44c.58-.37,1.12-.81,1.74-1.09.31-.14.82-.11,1.09.07.16.11.16.75,0,.99-.58.85-.08,1.58.54,1.65,2.26.26,2.13,1.46,1.46,3.03-.07.17-.1.51,0,.58,1.8,1.34.62,4.05,2.48,5.37.71.5.8,1.09.11,1.71-.22.2-.46.41-.59.67-.44.86-.99,1.66.02,2.61.59.55.82,1.35-.24,1.9-1.19.62-1.41,1.49-.69,2.71.21.35-.1,1.11-.34,1.59-.34.69-1.06,1.25-1.21,1.95-.27,1.31-1.06,1.53-2.16,1.49-.7-.03-1.4,0-2.1,0-.81-.28-.69-.93-.41-1.44,1.09-2.02,1.81-4.11,1.7-6.46-.03-.54.3-1.12.52-1.65.76-1.79.77-3.68.55-5.53-.27-2.32-.73-4.63-1.25-6.91-.25-1.11-.81-2.16-1.22-3.23Z" style="fill: #009dec; stroke-width: 0px;"/>
      <path d="M36.7,58.77c.07.82-.3,1.58-1.13,1.14-1.33-.7-2.28-.15-3.18.58-1.16.94-2.19,2.03-2.32,3.64-.04.49.09,1.05-.09,1.47-.18.41-.6.87-1.01,1.01-3.01.96-7.37-1.4-8.33-4.44-.42-1.32.88-4.44,2.28-5.47,1.53-1.13,2.95-1.27,4.6.03,1.1.86,1.92,1.26,3.12.35.25-.19.9-.2,1.15-.01,1.17.87,2.45.6,3.71.5.9-.07,1.3.3,1.19,1.22Z" style="fill: #fd0054; stroke-width: 0px;"/>
      <path d="M45.72,84.06c-.18.6-.37,1.2-.55,1.8-.95,1.29-.86,2.24.28,3.08.21,4.84.58,9.67-.18,14.51-.23,1.5.3,3.11.48,4.67.14,1.15-.53,1.59-1.52,1.77-1.22.22-1.68-.26-1.41-1.46q.52-2.22-1.78-2.81c.2-.69.4-1.39.6-2.08.91-.22,1.93-.25,1.77-1.69-.13-1.18-.99-.93-1.69-1.07-.08-.16-.14-.32-.17-.5-.04-1.37-.24-2.71,1.36-3.56.79-.42.67-1.31-.02-2.03-1.53-1.58-1.52-1.59-.21-3.03.13-.15.28-.28.42-.42.68-.68,1.19-1.34.16-2.19-.82-.67-.62-1.54-.34-2.45.25-.82.47-1.69.43-2.53-.06-1.47.85-1.29,1.76-1.24.15.03.3.05.45.07.05.38.1.76.15,1.14Z" style="fill: #009dec; stroke-width: 0px;"/>
      <path d="M56.42,152.2c1.55-.26,3.11-.49,4.66-.77,2.03-.37,4.04-.8,6.07-1.15.46-.08,1-.01,1.42.17.91.39,1.8.84,2.63,1.37.45.28,1.14.88,1.07,1.16-.2.71-.74,1.33-1.2,1.96-.08.11-.38.06-.58.07-3.68.2-7.35.49-11.03.57-2.36.05-4.5-.72-5.99-2.72-.16-.21-.22-.48-.33-.73.28-.07.56-.19.84-.2.8-.03,1.6,0,2.41,0,.01.09.03.19.04.28Z" style="fill: #faa2ad; stroke-width: 0px;"/>
      <path d="M83.13,50.66c-.14,3.19-1.75,4.47-4.34,4.55-2.29.06-3.7-1.91-4.03-4.35-.24-1.76,2.32-4.35,3.97-4.03,1.21.24,2.54.74,3.43,1.54.7.63.82,1.9.96,2.29Z" style="fill: #ebebeb; stroke-width: 0px;"/>
      <path d="M24.25,155.6c-3.58.1-6.7-.17-9.68-1.38-.4-.16-.91-.07-1.37-.06-.48,0-.99.17-1.42.05-.32-.09-.71-.5-.76-.83-.05-.3.23-.88.49-.97,1.75-.58,3.52-1.14,5.32-1.51.59-.12,1.39.22,1.95.58,2.94,1.89,6.21,1.81,9.5,1.73,1.2-.03,2.4-.02,3.6.03.21,0,.58.31.58.47,0,.22-.27.59-.47.62-2.71.41-5.25,1.91-7.71,1.27Z" style="fill: #faa2ad; stroke-width: 0px;"/>
      <path d="M23.96,148.92c-.55.81-1.4.81-2.24.85-.22-.03-.44-.05-.66-.08-.75-.22-1.52-.37-2.23-.67-1.54-.67-1.45-.67-.81-2.32.53-1.35.89-2.78,1.24-4.19.31-1.24.54-2.49,1.84-3.12.2.17.4.35.6.52,1.58,1.29,3.37,2.45,3.14,4.9-.02.2-.04.4-.07.59-.27,1.17-.53,2.35-.8,3.52Z" style="fill: #68b7df; stroke-width: 0px;"/>
      <path d="M36.26,67.78c-.3.01-.6.01-.9.04-1.11.12-2.26.31-2.77-1.06-.58-1.53.01-3.45,1.32-4.21.69-.4,1.21-.29,1.61.59.97,2.1,1.06,2.12,2.84.85.63-.45,1-.48,1.48.07.78.9,1.28.85,1.98-.25.71-1.11.98-.99,1.76.31.15.25.22.56.39.8,1.04,1.49,1.01,1.88-.25,2.72-1.13.75-2.36.93-3.68.64-1.24-.27-2.49-.49-3.74-.73-.01.07-.03.14-.04.21Z" style="fill: #faa2ad; stroke-width: 0px;"/>
      <path d="M45.12,82.85c-.91-.05-1.82-.23-1.76,1.24.03.84-.18,1.72-.43,2.53-.28.91-.48,1.77.34,2.45,1.03.85.52,1.51-.16,2.19-.14.14-.29.27-.42.42-1.3,1.44-1.32,1.45.21,3.03.69.71.81,1.6.02,2.03-1.6.86-1.4,2.19-1.36,3.56-.21.2-.41.4-.62.6-.08.08-.17.15-.26.22-1.06-.87-1.5-2.12-.56-3.05,1.64-1.62.67-2.7-.36-3.92-.01-.9-.03-1.8-.04-2.71,1.78-.76,1.74-.75,1.4-2.35-.24-1.16-.52-2.31.22-3.46.29-.44.22-1.13.26-1.71.16-2.07.85-2.78,2.95-2.93.6-.04,1.2,0,1.8.02-.2.42-.39.84-.59,1.26l-.09.1c-.18.16-.36.33-.54.49Z" style="fill: #222c32; stroke-width: 0px;"/>
      <path d="M54.82,145.93c-.07.39-.18.77-.19,1.16-.05,1.99-.44,2.42-2.14,1.86-1.66-.55-3.29-1.28-4.84-2.1-1.27-.67-1.89-3.24-1.19-4.48.15-.27.63-.45.98-.48.79-.06,1.59,0,2.39.02,1.25,1.16,2.49,2.32,3.74,3.48.42.19.84.39,1.26.58v-.04Z" style="fill: #68b7df; stroke-width: 0px;"/>
      <path d="M59.58,115.94c.8.35,1.17.97,1.15,1.84,0,.77-.01,1.53-.02,2.3-1.15.68-1.87,2.15-3.52,1.91-.82.02-1.63.04-2.45.06-1.55-.12-1.5-1.47-1.9-2.48,0-.42,0-.84.01-1.26.15-1.25,1.19-1.42,2.11-1.66,1.12-.29,2.27-.49,3.41-.72.4,0,.8.01,1.2.02Z" style="fill: #67b5dc; stroke-width: 0px;"/>
      <path d="M62.55,127.64l.12-.14c.58-.03,1.17-.06,1.75-.09.23-.19.45-.38.68-.56.39.16,1.13.32,1.13.49.02,3.06-.06,6.12-.08,9.18,0,1.33-.92.97-1.65.98-.19-.21-.34-.51-.58-.63-1.51-.77-2.01-2.24-2.49-3.67-.46-1.36.41-2.39,1.13-3.42.1-.14.06-.38.09-.57.09-.53,1.13-1.12-.1-1.57Z" style="fill: #67b5dc; stroke-width: 0px;"/>
      <path d="M42.78,134.45c.33.35.96.73.94,1.06-.16,1.93-.44,3.85-.77,5.76-.07.4-.54.73-.83,1.09-.98-.22-2.08.35-2.97-.64-2.23-2.46-1.44-5.74,1.8-7.26.61,0,1.22-.01,1.83-.02Z" style="fill: #68b7df; stroke-width: 0px;"/>
      <path d="M10.18,94.83c-.77.05-1.54.3-1.84-.85-.24-.93-.76-1.79-1.16-2.68-.15-.45-.29-.89-.44-1.34-.03-.56-.06-1.13-.09-1.69l-.07-1.21c0-.84.39-1.27,1.26-1.21.26.14.51.31.78.43,1.92.85,3.05,2.43,3.95,4.23-.76,1.35-1.53,2.69-2.29,4.04-.05.09-.07.19-.1.28Z" style="fill: #66b2d9; stroke-width: 0px;"/>
      <path d="M19.99,79.74c-.8-2.28-.64-2.54,1.73-2.8.58-.07,1.18-.07,1.76-.1,1.06-.12,2.21.42,3.17-.43.5-.02,1.01-.03,1.51-.05.98,3.75-2.16,5.83-4.65,5.23-1.28-.31-2.62-.73-3.52-1.85Z" style="fill: #67b5dc; stroke-width: 0px;"/>
      <path d="M54.04,17.99c.13-1.13-.11-2.57.5-3.3.52-.62,2.02-.4,3.09-.58.68-.11,1.34-.32,2.02-.37,3.08-.22,3.08-.2,2.81,2.95-.2.18-.4.37-.6.55-.76.24-1.52.48-2.28.72-.26.15-.52.3-.78.46-1.36.06-2.73.11-4.09.17h0c-.2-.2-.4-.4-.59-.59h-.08Z" style="fill: #66b2d9; stroke-width: 0px;"/>
      <path d="M54.82,113.66c-.61-.02-.85-.49-.41-1.38.3-.62.78-1.17.97-1.81.51-1.65,1.84-2.04,3.27-2.3.38-.07.8-.06,1.19,0,.9.14,2.09-.76,2.65.49.48,1.08-1.04,3.97-2.17,4.19-1.72.34-3.48.52-5.5.8Z" style="fill: #faa2ad; stroke-width: 0px;"/>
      <path d="M19.87,114.73c-.02-1.4-.04-2.8-.05-4.19-.02-.21-.04-.43-.06-.64q.1-1.85,1.93-1.84c.49.6.93,1.25,1.48,1.8.66.67.93,1.4,1.02,2.36.22,2.52-1,4.07-3.12,5.11-1.33-.12-1.06-1.17-1.17-2l-.02-.6Z" style="fill: #67b5dc; stroke-width: 0px;"/>
      <path d="M43.98,112.41c-1.81,1.03-3.17,2.84-5.39,3.19-.24-.02-.48-.03-.72-.05-.37-.28-.75-.55-1.12-.83-.79-1.72-.29-3.14,1.04-4.36.29-.26.54-.56.81-.84.81-.27,1.61-.54,2.42-.82.24,2.38.56,2.71,2.91,2.98.02.24.03.48.05.73Z" style="fill: #68b7df; stroke-width: 0px;"/>
      <path d="M66.8,66.57c.45.15,1.06.16,1.31.46,1.89,2.24,3.04,4.79,2.81,7.78-.02.26-.63.49-.97.73-.2-.22-.37-.48-.61-.64-3.05-2.02-3.89-4.72-2.55-8.33Z" style="fill: #66b2d9; stroke-width: 0px;"/>
      <path d="M30.62,92.6c-.35.64-.62,1.35-1.08,1.91-.96,1.19-2.01,2.29-3.03,3.43-.41.18-.81.36-1.22.54,0,0-.06.02-.06.02-.19-.21-.37-.41-.56-.62-.19-.4-.37-.81-.56-1.21-.04-.79-.07-1.58-.11-2.38q2.74-3.37,6.32-1.77c.09.04.19.05.28.07Z" style="fill: #68b7df; stroke-width: 0px;"/>
      <path d="M58.3,89.4q-1.64.14-1.79-1.72c.01-1.41.03-2.81.04-4.22.06-.54.12-1.08.18-1.62.76.06,1.71-.13,2.23.25.74.55,1.34,1.45,1.7,2.32.67,1.66.08,2.93-1.59,4.12-.31.22-.52.57-.77.87Z" style="fill: #66b2d9; stroke-width: 0px;"/>
      <path d="M21.06,117.33c2.12-1.05,3.34-2.59,3.12-5.11-.08-.95-.35-1.69-1.02-2.36-.54-.55-.99-1.2-1.48-1.8.2-.38.4-.77.6-1.15,2.34.92,3.32,3.03,3.93,5.14.46,1.59-.41,3.24-1.43,4.58-.5.65-1,1.22-.72,2.1-.91,1.03-1.68,1.08-1.68.24,0-1.14-.92-1.09-1.33-1.63Z" style="fill: #343c40; stroke-width: 0px;"/>
      <path d="M40.94,134.46c-3.25,1.53-4.03,4.8-1.8,7.26.9.99,1.99.41,2.97.64.23.52.46,1.04.69,1.56-2.01.66-3.51-.71-5.08-1.46-1.65-.79-1.77-2.53-1.52-4.19.3-1.97,1.46-3.43,2.91-4.72.91-.82,1.91-1.01,3.05-.69,0,.36.01.73.02,1.09-.41.17-.82.34-1.23.52Z" style="fill: #3a3e3f; stroke-width: 0px;"/>
      <path d="M10.18,94.83c.03-.09.05-.2.1-.28.76-1.35,1.53-2.7,2.29-4.04-.9-1.8-2.03-3.38-3.95-4.23-.27-.12-.52-.29-.78-.43.01-.42.02-.83.03-1.25,1.56-.25,2.63.55,3.67,1.57,1.32,1.28,2.2,2.8,2.81,4.5.09.25.05.64-.09.87-.84,1.42-1.33,3.1-2.94,3.94-.38-.21-.76-.43-1.14-.64Z" style="fill: #3a3e3f; stroke-width: 0px;"/>
      <path d="M50.47,32.37c.21,1.15.57,2.38-.57,3.24-1.15.86-2.19-.02-3.26-.38-1.34-.46-1.78-1.35-1.41-2.71.07-.25-.09-.56-.14-.84v.03c.64-.16,1.27-.33,1.9-.49,1-.04,2-.09,3-.13,0,0,.04.02.04.02-.21.55-.29,1.05.45,1.26Z" style="fill: #66b2d9; stroke-width: 0px;"/>
      <path d="M64.4,93.13c.2-.03.4-.04.58-.1.9-.3,1.79-.62,2.69-.94.75,1.25-.3,2.25-.6,3.28-.39,1.36-1.33,2.57-2.03,3.85-.41-.21-1.02-.32-1.2-.66-1.04-1.91-.91-3.76.56-5.45Z" style="fill: #66b2d9; stroke-width: 0px;"/>
      <path d="M19.99,79.74c.91,1.12,2.25,1.53,3.52,1.85,2.49.61,5.62-1.48,4.65-5.23.46-.04.92-.07,1.39-.11,1.09,3.02-.29,5.52-3.66,6.62-.89-.84-1.62-.82-2.44.06-1.93.1-3.62-.24-4.26-2.41.27-.26.53-.52.8-.78Z" style="fill: #3a3e3f; stroke-width: 0px;"/>
      <path d="M39.7,91.44c.01.9.03,1.8.04,2.71-1.71,2.11-3.71,3.6-6.64,3.11.03-.42.05-.84.08-1.26,1.18-.37,2.41-.65,3.53-1.16.52-.24,1.14-.92,1.18-1.44.13-1.53.36-3.12-.57-4.54.25-.45.49-.9.74-1.36,1.47.93,1.81,2.33,1.64,3.95Z" style="fill: #3a3e3f; stroke-width: 0px;"/>
      <path d="M58.3,89.4c.25-.29.47-.65.77-.87,1.67-1.19,2.26-2.46,1.59-4.12-.35-.87-.96-1.77-1.7-2.32-.52-.38-1.47-.19-2.23-.25-.17-.62.2-.7.7-.81.35-.08.65-.4.98-.61,2.47.44,3.76,1.83,4.2,4.54.35,2.15-.28,3.52-2.22,4.68-.41.25-.89.37-1.34.56l-.75-.79Z" style="fill: #424647; stroke-width: 0px;"/>
      <path d="M23.96,148.92c.27-1.17.53-2.35.8-3.52.52-.14.7-.32.07-.59.23-2.45-1.56-3.6-3.14-4.9,0-.18,0-.36-.02-.54,0-.39,0-.77,0-1.16,5.05,2.21,6.37,7.12,3.04,11.44-.25-.24-.5-.48-.75-.73Z" style="fill: #131112; stroke-width: 0px;"/>
      <path d="M36.38,24.44c-.23-.32-.57-.61-.68-.96-.45-1.45-.19-1.94,1.2-2.48.46-.18.91-.36,1.38-.49,2.24-.63,2.91-.07,2.75,2.21-.04.64-.17,1.11-.92,1.27-.94.19-1.86.49-2.78.75-.32-.1-.63-.2-.95-.29Z" style="fill: #68b7df; stroke-width: 0px;"/>
      <path d="M79.49,31.17c-.02,1.49,0,2.98-.07,4.46-.01.32-.34.9-.47.88-.43-.05-1.06-.2-1.2-.51-.77-1.68-1.57-3.39-1.22-5.34.77-.82,1.54-1.64,2.32-2.45.23.57.46,1.15.68,1.72-.01.41-.03.82-.04,1.23Z" style="fill: #589abb; stroke-width: 0px;"/>
      <path d="M37.33,88.85c.93,1.42.7,3.01.57,4.54-.05.53-.66,1.2-1.18,1.44-1.12.51-2.35.79-3.53,1.16-.02-.2-.13-.44-.06-.59,1.18-2.33,2.39-4.63,4.2-6.56Z" style="fill: #66b2d9; stroke-width: 0px;"/>
      <path d="M62.64,129.2c-.03.19.01.43-.09.57-.71,1.04-1.58,2.06-1.13,3.42.48,1.43.97,2.9,2.49,3.67.24.12.39.41.58.63l-1.34.74c-1.07.09-1.69-.65-2.08-1.4-.62-1.19-1.2-2.48-1.44-3.79-.37-1.99.43-3.61,2.22-4.66.26.27.53.55.79.82Z" style="fill: #3a3e3f; stroke-width: 0px;"/>
      <path d="M30.62,92.6c-.1-.02-.2-.03-.28-.07q-3.58-1.61-6.32,1.77c-1.14.58-.26,1.62-.53,2.39-.09.09-.19.17-.3.24-1.49-.71-1.11-1.99-.7-3.03.83-2.1,2.37-3.59,4.63-4.15,1.5-.37,2.49.71,3.59,1.42-.03.47-.07.95-.1,1.42Z" style="fill: #3a3e3f; stroke-width: 0px;"/>
      <path d="M66.8,66.57c-1.34,3.61-.51,6.31,2.55,8.33.24.16.41.42.61.64-.27.27-.54.54-.81.81-2.33-.38-3.58-1.92-4.01-4.06-.42-2.09-.69-4.26.49-6.26.39.18.78.36,1.17.55Z" style="fill: #222c32; stroke-width: 0px;"/>
      <path d="M55.91,72.63c-.74,2.1-3.06,3.68-5.42,3.71-1.92.02-2.59-.67-3.56-3.68.61,0,1.21,0,1.82,0,.19,1.35,1.13,2.59,1.89,2.26,1.48-.65,3.58-.52,3.97-2.76.43.16.87.32,1.3.49Z" style="fill: #2b3336; stroke-width: 0px;"/>
      <path d="M64.4,93.13c-1.48,1.68-1.6,3.53-.56,5.45.18.34.79.44,1.2.66-.42.56-.83,1.11-1.25,1.67-2.85-2.63-3.09-6.5-.49-8.7.27-.23.72-.23,1.09-.33,0,.42,0,.84.01,1.26Z" style="fill: #343c40; stroke-width: 0px;"/>
      <path d="M72.35,44.3c-.34.16-.85.58-1.02.47-1.47-.96-2.91-1.97-4.27-3.07-.24-.2-.21-.92-.08-1.31.06-.19.72-.33,1.04-.24,1.67.43,3.01,1.41,4.03,2.79.21.28.17.75.29,1.37Z" style="fill: #589abb; stroke-width: 0px;"/>
      <path d="M38.01,75.11c.34.12.99.34.98.36-.56,1.95-1.15,3.89-1.82,5.8-.07.19-.67.19-1.02.28-1.08-2.27-.56-4.16,1.32-5.76.22-.18.36-.46.54-.69Z" style="fill: #589abb; stroke-width: 0px;"/>
      <path d="M38.01,75.11c-.18.23-.32.5-.54.69-1.88,1.59-2.4,3.49-1.32,5.76-.03.48-.07.97-.1,1.45-2.92-2.99-2.39-6.63,1.25-8.65.24.25.48.5.72.76Z" style="fill: #222c32; stroke-width: 0px;"/>
      <path d="M54.62,72.14c-.39,2.24-2.5,2.11-3.97,2.76-.76.33-1.7-.91-1.89-2.26,1.6-.22,3.2-.43,4.81-.65.2,0,.41.02.61.03.15.05.29.09.44.11Z" style="fill: #66b2d9; stroke-width: 0px;"/>
      <path d="M38.6,109.51c-.27.28-.52.58-.81.84-1.33,1.22-1.83,2.63-1.04,4.36-.42,0-.85.02-1.27.03-.95-2.32-.66-3.99,1.05-5.48.58-.51,1.29-.86,1.94-1.28.04.51.09,1.02.13,1.53Z" style="fill: #3a3e3f; stroke-width: 0px;"/>
      <path d="M53.57,145.39c-1.25-1.16-2.49-2.32-3.74-3.48.27-.28.53-.55.8-.83,1.96.13,3.07,1.27,3.63,3.06-.83.08-.66.71-.69,1.24Z" style="fill: #131112; stroke-width: 0px;"/>
      <path d="M41.64,103.56c-.2.69-.4,1.39-.6,2.08-.28.3-.57.6-.85.9-1.27-.4-1.3-1.4-.83-2.29.32-.62,1.08-1.01,1.64-1.51.21.27.42.55.63.82Z" style="fill: #2b3336; stroke-width: 0px;"/>
      <path d="M60.71,120.08c0-.77.01-1.53.02-2.3.4-.01.81-.02,1.21-.04.9,1.53.84,2.14-.36,3.25-.29-.3-.58-.61-.87-.91Z" style="fill: #131112; stroke-width: 0px;"/>
      <path d="M78.84,28.22c-.77.82-1.54,1.64-2.32,2.45-.24-.24-.49-.49-.73-.73.16-1.78,1.34-2.41,2.91-2.62.05.3.09.6.14.9Z" style="fill: #131112; stroke-width: 0px;"/>
      <path d="M38.6,109.51c-.04-.51-.09-1.02-.13-1.53.56-.17,1.12-.35,1.68-.52.44.13.88.26,1.32.39-.15.28-.3.57-.46.85-.81.27-1.61.54-2.42.82Z" style="fill: #3a3e3f; stroke-width: 0px;"/>
      <path d="M45.45,88.94c-1.14-.84-1.23-1.79-.28-3.08.99.94.44,2.03.28,3.08Z" style="fill: #009dec; stroke-width: 0px;"/>
      <path d="M24.13,96.68c.19.4.37.81.56,1.21.19.21.37.41.56.62l.06-.02c0,.21,0,.42-.01.63-.38,0-.76,0-1.14,0-.32-.73-.63-1.45-.95-2.18.1-.08.2-.16.3-.24.21,0,.43-.01.64-.02Z" style="fill: #3a3e3f; stroke-width: 0px;"/>
      <path d="M56.55,83.46c-.01,1.41-.03,2.81-.04,4.22-.76-1.52-.75-2.83.04-4.22Z" style="fill: #131112; stroke-width: 0px;"/>
      <path d="M28.29,150.78c.61-.71,1.21-.72,1.81,0-.67.84-1.14.84-1.81,0Z" style="fill: #131112; stroke-width: 0px;"/>
      <path d="M78.29,38.26c-1.72-1.11-2.3-2.88-2.81-4.68-.35-1.23-.63-2.5.32-3.64.16-1.78,1.34-2.41,2.91-2.62.55-2.42-.37-4.69-.84-6.98-.46-2.23-2.53-3.49-3.73-5.27-2.02-2.99-4.58-3.21-7.66-2.46-1.7.41-1.86.52-2.11,2.47-.07.56-.37,1.1-.57,1.65.07.84-.37,1.23-1.16,1.3-1.43,1.13-3.07,1.64-4.88,1.65-.59.8-1.18.79-1.78.02-.81.07-1.48-.02-1.27-1.12h0c-.2-.2-.4-.4-.59-.59h-.08c-.43-.39-1.14-.71-1.25-1.18-.41-1.7-1.65-1.4-2.82-1.39l-.62.1c-1.78,1.05-3.51,2.19-5.35,3.11-1.33.67-1.54,1.57-1.34,2.91.13.85.24,1.99-.2,2.57-.65.85-1.8,1.33-2.75,1.93-1.05.66-2.07.24-3.08-.13-.37-.25-.75-.5-1.12-.75-.09-.04-.2-.07-.26-.14-.69-.82-.46-2.46-2.2-2.35-1.63.1-1.52,1.64-2.16,2.54-.56.79-.32,1.39.61,1.88,1.37.72,2.89,1.39,3.9,2.49,2.18,2.38,4.88,3.22,7.92,3.46.15-.12.31-.22.49-.29.43-.36.85-.72,1.28-1.09v.03c.24-.38.48-.77.71-1.15,2.04-1.19,2.77-1.1,4.19.53l.04.02c1.04-.28,1.41.53,1.88,1.17.84.75.59,1.66.21,2.45-.62,1.28.1,1.31,1.03,1.3,2.54-.02,5.07-.98,7.63-.13.62.89,1.06.91,1.81.11,1.35-.1,1.93.84,2.41,1.84.41.84,1.02,1.17,1.93,1.01,1.61-.28,2.98.29,4.1,1.36.99.95,1.9,1.99,2.71,3.09.78,1.07.99,1.2,2.07.5.33-.21.69-.44.91-.75.67-.96,1.28-1.96,1.89-2.96.42-.69.38-1.39-.32-1.84ZM69.19,31.31c-.25.05-.38.61-.6.91-1.51,2.05-4.41,1.94-6.17-.21-1.38-.47-1.03-1.66-1.07-2.66-.03-.86-.03-1.77,1.1-2.04,1.37-2.41,2.29-2.64,4.71-1.69,1.48.58,2.67,1.33,3.05,2.87.26,1.04.9,2.43-1.03,2.81Z" style="fill: #f6ecdb; stroke-width: 0px;"/>
      <path d="M36.38,24.44c.32.1.63.2.95.29-.23.4-.46.8-.69,1.19-.37-.25-.75-.5-1.12-.75.29-.25.58-.49.87-.74Z" style="fill: #131112; stroke-width: 0px;"/>
      <path d="M46.48,139.32c.15.46.3.93.44,1.39-.49.9-.72,0-.89-.19-.49-.58-.29-1.01.45-1.2Z" style="fill: #131112; stroke-width: 0px;"/>
      <path d="M26.65,76.4c-.96.85-2.11.31-3.17.43.92-1.14,2.09-.42,3.17-.43Z" style="fill: #131112; stroke-width: 0px;"/>
      <path d="M50.47,32.37c-.74-.21-.66-.71-.45-1.26,1.04-.28,1.41.53,1.88,1.17-.48.03-.95.06-1.43.09Z" style="fill: #131112; stroke-width: 0px;"/>
      <path d="M61.87,17.24c.2-.18.4-.37.6-.55.45.01.89.02,1.34.03.07.84-.37,1.23-1.16,1.3-.26-.26-.52-.53-.78-.79Z" style="fill: #131112; stroke-width: 0px;"/>
      <path d="M43.98,112.41c-.02-.24-.03-.48-.05-.73.11-.15.22-.42.34-.42.46,0,.92.07,1.39.12-.27.29-.5.63-.81.85-.22.15-.57.13-.86.19Z" style="fill: #68b7df; stroke-width: 0px;"/>
      <path d="M54.74,122.05c.82-.02,1.63-.04,2.45-.06-.79.92-1.61.79-2.45.06Z" style="fill: #131112; stroke-width: 0px;"/>
      <path d="M45.72,84.06c-.05-.38-.1-.76-.15-1.14.12-.17.15-.36.09-.56l.09-.1c.83.7.82,1.15-.02,1.8Z" style="fill: #131112; stroke-width: 0px;"/>
      <path d="M25.29,99.11c0-.21,0-.42.01-.63.41-.18.81-.36,1.22-.54.08.9-.36,1.26-1.23,1.16Z" style="fill: #3a3e3f; stroke-width: 0px;"/>
      <path d="M40.94,134.46c.41-.17.82-.34,1.23-.52.2.17.4.33.6.5-.61,0-1.22.01-1.83.02Z" style="fill: #424647; stroke-width: 0px;"/>
      <path d="M37.87,115.54c.24.02.48.03.72.05-.09.26-.19.52-.28.77-.15-.27-.3-.55-.44-.82Z" style="fill: #131112; stroke-width: 0px;"/>
      <path d="M52.85,118.31c0,.42,0,.84-.01,1.26-.7-.43-.7-.85.01-1.26Z" style="fill: #131112; stroke-width: 0px;"/>
      <path d="M6.74,89.96c.15.45.29.89.44,1.34-.79-.23-.52-.82-.44-1.34Z" style="fill: #131112; stroke-width: 0px;"/>
      <path d="M6.58,87.06l.07,1.21c-.9-.35-.9-.76-.07-1.21Z" style="fill: #131112; stroke-width: 0px;"/>
      <path d="M59.58,115.94c-.4,0-.8-.01-1.2-.02.41-.88.81-.9,1.2.02Z" style="fill: #131112; stroke-width: 0px;"/>
      <path d="M79.49,31.17c.01-.41.03-.82.04-1.23.77.43.77.84-.04,1.23Z" style="fill: #131112; stroke-width: 0px;"/>
      <path d="M19.87,114.73l.02.6c-.15-.13-.31-.26-.46-.39.15-.07.29-.14.44-.21Z" style="fill: #131112; stroke-width: 0px;"/>
      <path d="M19.76,109.9c.02.21.04.43.06.64-.54-.16-.68-.36-.06-.64Z" style="fill: #131112; stroke-width: 0px;"/>
      <path d="M56.17,123.31c-.27.08-.55.16-.82.24.27-.08.55-.16.82-.24Z" style="fill: #424647; stroke-width: 0px;"/>
      <path d="M65.1,126.84c-.23.19-.45.38-.68.56.23-.19.45-.38.68-.56Z" style="fill: #3a3e3f; stroke-width: 0px;"/>
      <path d="M21.67,139.36c.01.18.02.36.02.54-.2-.17-.4-.35-.6-.52.19-.02.39-.02.58-.02Z" style="fill: #131112; stroke-width: 0px;"/>
      <path d="M54.17,72.03c-.2,0-.41-.02-.61-.03.07-.14.15-.28.22-.41.13.15.26.3.39.44Z" style="fill: #131112; stroke-width: 0px;"/>
      <path d="M43.32,33.06c.15-.12.31-.22.49-.29-.05.22-.11.44-.16.66-.11-.12-.22-.25-.33-.37Z" style="fill: #131112; stroke-width: 0px;"/>
      <path d="M21.06,149.69c.22.03.44.05.66.08-.29.58-.5.43-.66-.08Z" style="fill: #131112; stroke-width: 0px;"/>
      <path d="M49.97,15.43c-.21.03-.41.07-.62.1.12-.16.24-.32.36-.48.09.13.17.25.26.38Z" style="fill: #131112; stroke-width: 0px;"/>
      <path d="M34.49,52.78c-2.54-.15-3.9-2.16-3.79-4.1.1-1.65,2.11-3.17,4.09-3.1,2.15.08,3.8,1.73,3.75,3.75-.05,1.99-1.83,3.5-4.05,3.44ZM34.75,47.34c-1.43-.05-2.2.53-2.26,1.71-.06,1.24.63,1.91,2.01,1.94,1.52.03,2.21-.48,2.26-1.68.05-1.23-.66-1.93-2.01-1.98Z" style="fill: #0f0f0f; stroke-width: 0px;"/>
      <path d="M26.75,38.14c-.27.4-.46.9-.83,1.16-1.29.9-2.59,1.81-3.98,2.54-1.16.61-2.21,1.2-2.69,2.51-.09.25-.74.57-.83.5-.35-.3-.89-.86-.79-1.09.37-.88.77-1.93,1.5-2.45,2-1.43,4.17-2.62,6.28-3.89.22-.13.6-.19.8-.08.22.11.32.45.54.8Z" style="fill: #131112; stroke-width: 0px;"/>
      <path d="M40.3,38.36c.54.03.87-.04,1.12.08,2.26,1.04,4.29,2.43,5.89,4.34.21.25.14,1.06-.1,1.28-.24.22-.97.2-1.3,0-1.98-1.28-3.91-2.62-5.82-3.99-.25-.18-.4-.7-.35-1.03.04-.28.42-.52.56-.67Z" style="fill: #131112; stroke-width: 0px;"/>
      <path d="M43.32,45.23c0,.88-1.24,2.16-2.11,2.17-.68,0-2.03-1.33-1.98-1.95.06-.7,1.28-1.62,2.23-1.67,1.04-.05,1.85.58,1.86,1.45Z" style="fill: #0f0f0f; stroke-width: 0px;"/>
      <path d="M29.19,44.5c-.38.49-.56.84-.84,1.04-1.03.74-2.07,1.46-3.15,2.11-.23.14-.71.06-.96-.1-.16-.1-.23-.7-.12-.79,1.26-1.02,2.55-2.02,3.89-2.93.14-.1.68.37,1.19.67Z" style="fill: #131112; stroke-width: 0px;"/>
      <path d="M28.8,131.65c-1.93-.05-4.05-2.54-4.03-4.73.01-1.93,2.71-4.32,4.82-4.29,1.74.03,4.14,3.04,4.11,5.17-.03,1.85-2.64,3.9-4.9,3.85ZM29.66,124.37c-1.21-.07-3.06,1.47-3.15,2.61-.09,1.1,1.62,3.33,2.51,3.28,1.05-.06,2.81-1.61,2.92-2.58.13-1.12-1.34-3.26-2.28-3.32Z" style="fill: #343c40; stroke-width: 0px;"/>
      <path d="M53.57,145.39c.02-.53-.14-1.16.69-1.24.19.61.38,1.21.57,1.82-.42-.19-.84-.39-1.26-.58Z" style="fill: #131112; stroke-width: 0px;"/>
      <path d="M62.64,129.2c-.26-.27-.53-.55-.79-.82.23-.25.46-.5.69-.75,1.22.45.19,1.04.1,1.57Z" style="fill: #3a3e3f; stroke-width: 0px;"/>
      <path d="M62.46,27.32c1.37-2.41,2.29-2.64,4.71-1.69,1.48.58,2.67,1.33,3.05,2.87.26,1.04.9,2.43-1.03,2.81-.25.05-.38.61-.6.91-1.51,2.05-4.41,1.94-6.17-.21.26-.29.51-.57.77-.86q2.14,1.36,4.12-.19c1.74-1.36,1.8-1.96.37-3.43-1.7-1.75-2.51-1.63-4.48.62-.25-.28-.5-.56-.74-.83Z" style="fill: #222c32; stroke-width: 0px;"/>
      <path d="M61.87,17.24c.26.26.52.53.78.79-1.43,1.13-3.07,1.64-4.88,1.65-.6-.94-1.2-.97-1.78.02-.81.07-1.48-.02-1.27-1.12,1.36-.06,2.73-.11,4.09-.17.26-.15.52-.3.78-.46.76-.24,1.52-.48,2.28-.72Z" style="fill: #131112; stroke-width: 0px;"/>
      <path d="M63.19,31.15c-.26.29-.51.57-.77.86-1.38-.47-1.03-1.66-1.07-2.66-.03-.86-.03-1.77,1.1-2.04.25.28.5.56.74.83,0,1,0,2,0,3Z" style="fill: #222c32; stroke-width: 0px;"/>
      <path d="M49.99,31.09c-1,.04-2,.09-3,.13-.08-.79-.68-.64-1.19-.66,2.04-1.19,2.77-1.1,4.19.53Z" style="fill: #131112; stroke-width: 0px;"/>
      <path d="M55.98,19.7c.58-.98,1.18-.96,1.78-.02-.59.8-1.18.79-1.78.02Z" style="fill: #131112; stroke-width: 0px;"/>
      <path d="M45.8,30.57c.51.02,1.1-.13,1.19.66-.63.16-1.26.33-1.9.49.24-.38.47-.77.71-1.15Z" style="fill: #131112; stroke-width: 0px;"/>
      <path d="M54.12,17.99c.2.2.4.39.59.59-.2-.2-.4-.39-.59-.59Z" style="fill: #131112; stroke-width: 0px;"/>
      <path d="M23.45,82.93c.82-.88,1.55-.9,2.44-.06-.81.02-1.63.04-2.44.06Z" style="fill: #3a3e3f; stroke-width: 0px;"/>
      <path d="M41.64,103.56c-.21-.27-.42-.55-.63-.82-.11-.54-.23-1.08-.34-1.62.09-.07.18-.14.26-.22.26-.03.53-.07.79-.1.7.14,1.56-.11,1.69,1.07.16,1.44-.86,1.47-1.77,1.69Z" style="fill: #222c32; stroke-width: 0px;"/>
      <path d="M41.72,100.81c-.26.03-.53.07-.79.1.21-.2.41-.4.62-.6.03.18.09.34.17.5Z" style="fill: #2b3336; stroke-width: 0px;"/>
      <path d="M45.66,82.36c.06.2.03.39-.09.56-.15-.02-.3-.04-.45-.07.18-.16.36-.33.54-.49Z" style="fill: #222c32; stroke-width: 0px;"/>
      <path d="M24.83,144.81c.63.27.45.45-.07.59.02-.2.04-.4.07-.59Z" style="fill: #131112; stroke-width: 0px;"/>
      <path d="M59.59,17.96c-.26.15-.52.3-.78.46.26-.15.52-.3.78-.46Z" style="fill: #222c32; stroke-width: 0px;"/>
      <path d="M24.13,96.68c-.21,0-.43.01-.64.02.27-.78-.61-1.81.53-2.39.04.79.07,1.58.11,2.38Z" style="fill: #424647; stroke-width: 0px;"/>
      <path d="M25.25,98.5c-.19-.21-.37-.41-.56-.62.19.21.37.41.56.62Z" style="fill: #131112; stroke-width: 0px;"/>
      <path d="M34.75,47.34c1.36.05,2.07.74,2.01,1.98-.05,1.2-.75,1.71-2.26,1.68-1.38-.03-2.07-.7-2.01-1.94.06-1.18.82-1.76,2.26-1.71Z" style="fill: #c73215; stroke-width: 0px;"/>
      <path d="M29.66,124.37c.94.05,2.41,2.19,2.28,3.32-.11.97-1.86,2.51-2.92,2.58-.89.05-2.6-2.18-2.51-3.28.09-1.15,1.94-2.68,3.15-2.61Z" style="fill: #67b5dc; stroke-width: 0px;"/>
      <path d="M63.19,31.15c0-1,0-2,0-3,1.97-2.26,2.79-2.37,4.48-.62,1.43,1.48,1.37,2.08-.37,3.43q-1.98,1.55-4.12.19Z" style="fill: #67b5dc; stroke-width: 0px;"/>
    </g>
  </g>
</svg>