<?xml version="1.0" encoding="UTF-8"?>
<svg id="_レイヤー_2" data-name="レイヤー 2" xmlns="http://www.w3.org/2000/svg" viewBox="0 0 373.17 200.84">
  <defs>
    <style>
      .cls-1 {
        fill: #24181a;
      }

      .cls-1, .cls-2, .cls-3, .cls-4, .cls-5, .cls-6, .cls-7, .cls-8, .cls-9, .cls-10, .cls-11, .cls-12, .cls-13, .cls-14 {
        stroke-width: 0px;
      }

      .cls-2 {
        fill: #954527;
      }

      .cls-3 {
        fill: #231815;
      }

      .cls-4 {
        fill: #e03817;
      }

      .cls-5 {
        fill: #964628;
      }

      .cls-6 {
        fill: #954627;
      }

      .cls-7 {
        fill: #924427;
      }

      .cls-8 {
        fill: #faa2ad;
      }

      .cls-9 {
        fill: #080708;
      }

      .cls-10 {
        fill: #c73215;
      }

      .cls-11 {
        fill: #914327;
      }

      .cls-12 {
        fill: #ec98a2;
      }

      .cls-13 {
        fill: #f80c65;
      }

      .cls-14 {
        fill: #964528;
      }
    </style>
  </defs>
  <g id="design">
    <g>
      <path class="cls-3" d="M372.41,118.06c-1.88-2.45-3.92-4.72-6.93-5.83-2.19-.85-3.97.01-5.62,1.38-1.97.55-2.75-.22-2.53-2.21.51-4.54.2-9.16,1.37-13.64,1.2-6.43,2.39-12.87,3.59-19.3,1.72-9.18-2.45-15.09-11.17-18.11-11.23-3.89-22.16-8.62-33.9-10.92-.72-.14-1.41-.51-2.07-.85-7.32-3.74-14.91-6.56-22.96-8.51-7.15-1.73-13.58-2.06-19.35,3.2-.32,2.02-1.84,2.35-3.5,2.49-4.02,1.57-8.05,3.14-12.63,4.92.24-6.24-1.44-11.07-5.97-15.29-4.89-4.56-10.35-5.68-16.07-3.93-5.66,1.73-9.9,5.59-11.52,11.95-1.44,5.67-1.22,11.24.48,16.55,1.33,4.18.51,5.9-3.46,7.61-3.19,1.38-7.75,2.1-8.26,6.75-1.36,12.47-3.23,24.96-3.37,37.46-.07,6.24-1.76,9.4-7.25,11.16-1.96.63-4.02,1.12-5.83,2.06-2.36,1.22-3.43.6-4.88-1.58-3.75-5.66-10.26-6.31-15.49-1.92-1.14.95-2.37,2.86-3.36,2.74-6.66-.8-12.33-4.18-17.88-7.71-3.15-2-2.05-5.41-2.35-8.16-.99-9.2.86-18.35,1.05-27.54.05-2.52,1.16-5.83-1.25-7.45-7.73-5.18-8.08-12.03-5.65-19.99.57-1.88.38-4.17-.03-6.15-1.03-5.03-2.62-10.07-7.74-12.34-9.25-4.09-17.93-1.35-24.14,7.14-2.24,1.38-2.77-1.48-4.34-1.75-4.47-4.22-8.98-7.1-15.91-5.43-20.34,4.9-40.89,8.91-60.8,15.47-10.17-.63-11.49.52-11.79,10.46-.19,6.18.1,12.41-.57,18.53-.77,7,.91,14.22-1.48,21.16-10.24-3.6-15.16-2.34-17.42,4.22-3.29,9.55-.91,16.72,6.3,19.03,2.05,1,4.24.21,6.33.53,1.15.17,3.12-.9,2.96,1.66-.76,6.62,3.27,11.64,7.14,15.62,9.04,9.31,18.39,18.56,29.3,25.68,5.44,3.55,8.97,10.21,16.44,10.55l.36.3.44-.15s0,0,0,0c3.08,1.68,5.71.1,8.38-1.18,7.96-3.52,15.41-3.62,23.44.91,9.89,5.58,20.51,9.86,30.8,14.74,5.69,2.7,12.32,1.2,17.95,3.98,6.25,3.09,12.76,3.11,19.24,1.57,3.62-.86,6.41-1.61,10.02.99,3.24,2.33,7.87,2.58,11.87.4,2.46-1.34,5.09-1.73,7.64-1.04,7.74,2.11,14.38-.9,21.09-3.98,3.58-1.64,7.14-3.42,10.89-4.57,8.7-2.67,17.29-7.83,24.98-12.46,1.89.98,3.34,1.81,5.42,3.2,5.82,3.54,10.11,4.91,16.64,6.72,2.57.71,5.23.6,7.44-1.34,7.06-3.42,20.93-8.56,21.73-8.94.8-.39,30.6-14.79,33.82-15.95,4.33-2.32,10.85-6.09,11.41-7.93.56-1.83.24-3.62-.39-8.59-.33-3.39,1.13-4.85,4.58-4.49,1.66.17,3.25-.02,5.02-.36,1.77-.34,4.72-1.47,6.19-3.7,1.73-1.83,3-4.93,3.57-6.4s1.3-9.78-.04-11.46ZM71.85,153.52c-5.74,2.99-6.52,5.23-4.34,12.61,1.03,2.03,1.17,4.04.37,6.03-.05-.17-.13-.34-.25-.51-14.91-10.48-29.13-21.68-40.79-35.92-3.17-3.87-4.42-7.67-3.77-12.34,2.66-18.95,3.34-38,3.26-57.11-.02-3.23-.22-6.45.12-9.69.21-1.25,1.19-1.03,2-1.14.27,1.42.92,2.67,1.77,3.82,5.37,7.26,10.21,14.83,14.02,23.03,1.21,2.6,3.2,4.57,5.42,6.37,3.5,2.82,7.16,5.46,10.37,8.65,2.52,2.51,3.82,5.4,3.91,9.01.28,11.05,1.58,22.07,1.15,33.15-.22,5.62,2.25,10.1,6.61,13.61.5.27,1.06.28,1.52.55-.48.1-.93-.17-1.38-.13ZM176.14,170.18c-6.05-.83-11.26,1.63-13.1,7.06-.98,2.88-2.59,2.63-4.63,2.57-8.51-.26-16.77-1.84-24.78-4.72-5.82-2.09-14.52-5.14-20.34-7.24-.77-1.19,1.14-.41,3.79-1.42,2.65-1.01,3.83-1.94,6.08-2.53s2.83-.45,4.58-1.77c.67-.46,2.3-.75,2.97-1.21,2.71-1.01,4.66.05,7.36-1,5.45-.33,9.37-4.24,14.15-6.15,2.21-.88,1.54-3.61,1.21-5.62-.83-5.05-.63-10.06.35-16.16,6.1,5.44,14.06,5.29,20.57,9.36,5.41,3.38,12.17,1.42,17.05-1.25,4.75-2.6,9.84-3,15.22-6.06,0,5.02,0,9.06,0,13.1,0,4.59,1.86,7.9,6.46,9.29h0c1.54,1.12,3.08,2.24,4.63,3.37h0c.66,1.55,2.2,2,3.53,2.26,7.03,1.38,12.65,5.71,20.35,9.24-11.93,3.04-21.59,9.15-33.13,9.1-1.48,0-3.01.19-4.44.57-4.25,1.12-7.56.68-9.82-3.82-2.38-4.74-6.26-7.16-11.96-6.2-1.93.33-4.05-.49-6.09-.77ZM366.44,128.64c.02,2.72-1.11,4.58-3.88,5.24-.46.15-.93.29-1.38.46-3.01.88-5.86.46-8.54-1.11-.9-.12-1.7.09-2.35.75-.35.51-.61,1.08-.74,1.68.12,5.38.31,15.53-.18,15.4-1.56-.21-2.99.3-4.19,1.16-5.62,4.03-11.95,6.55-18.31,9.14-3.03,1.24-6.81,1.72-8.64,5.13-.04-.06-.08-.13-.12-.19-1.77-.56-3.44-.04-4.83.89-9.06,6.1-19.65,9.17-28.98,14.81-.2.09-.53.17-.53.18.17.73-.43.37-.39-.38.08-1.48.84-2.76,1.28-4.12,2.08-4.94,2.67-10.1,2.23-15.41-.25-3.05-1.21-5.54-4.86-5.73-4.81.9-8.89,3.1-12.27,6.63-.91.49-1.8,1.01-2.67,1.58-2.43,1.26-4.66,2.83-6.95,4.3-1.99,1.47-4.33,2.3-6.47,3.5-.8.63-1.83.86-2.65,1.47-2.65,1.74-5.5,3.09-8.39,4.35-11.72,5.57-24.01,9.59-36.48,13.1-1.45.41-2.98.73-4.45.43-4.55-.93-8.76-.52-13.1,1.5-3.81,1.78-6.1.03-6.51-4.16-.26-2.66.06-5.21,1.73-7.49,1.73-2.38,3.41-3.78,5.35-.28,2.62,4.73,6.86,5.52,11.88,5.84,12.56.79,24.06-2.97,35.52-7.23,4.61-1.72,9.33-3.18,13.6-5.71.83-.66,1.78-1.07,2.72-1.53,1.83-1.32,3.83-2.34,5.8-3.41,2.44-1.74,5.08-3.13,7.74-4.48,1.24-.92,2.58-1.69,3.88-2.52,4.81-4.43,11.15-6.47,16.29-10.39,3.19-2.51,3.96-5.66,2.77-9.52-2.06-6.65-1.7-13.33.25-19.94,1.07-3.61,1.79-7.24,1.98-11.02.38-7.61,3.78-12.76,11.28-15.75,9.02-3.61,18.42-6.7,26.71-11.7,7.19-4.34,15.09-6.55,22.53-10.02,2.62-1.22,3.9-.26,3.96,2.56.03,1.5.31,3.1-.17,4.48-4.3,12.59-1.8,26.11-5.33,38.79-.04,1.43.02,2.85.59,4.2.26.5.65.84,1.17,1.05,1.75-.16,1.99-2.01,3.16-2.82.35-.31.71-.61,1.04-.94,1.01-.94,2.08-1.8,3.37-2.32.44-.17.88-.33,1.31-.5,2.73-.16,6.13-1.53,6.22,3.3.09,2.31-.76,4.48-.97,6.75Z"/>
      <path class="cls-3" d="M209.97,18.69c-1.08,9.3-8.45,17.38-18.14,23.88-.78.52-1.65.9-2.46,1.36-10.86,6.21-10.97,6.33-20.78-1.81-6.41-5.32-11.99-11.45-14.42-19.72-1.8-6.12-1.55-11.93,3.71-16.5,4.51-3.93,14.91-5.55,19.66-2.48,1.43.92,2.9,2.54,4.03,2.56,1.21.02,2.08-1.65,3.65-2.68,5.18-3.41,11.35-4.56,17.15-1.62,5.46,2.77,7.82,7.86,7.6,17.01Z"/>
      <path class="cls-3" d="M326.3,167.9s-.03.01-.04.02c-.02.02-.05.04-.07.06l.11-.08Z"/>
      <path class="cls-9" d="M272.85,43.27c.12,2.63-.76,3.86-3.5,2.49,1.17-.83,2.33-1.66,3.5-2.49Z"/>
      <path class="cls-8" d="M103.84,163.52c-3.43-2.73-7.44-4.44-11.5-5.79-6.35-2.12-11.53-6.09-16.85-9.84-3.25-2.29-4.69-5.57-4.69-9.67,0-12.56,1.22-25.19-1.56-37.64-.53-2.37.51-3.42,2.65-4.08,2.69-.83,5.32-1.84,7.94-2.89,5.41-2.16,5.67-3.75,1.34-7.6-8.21-7.32-10.47-21.48-5.57-31.39,2.57-5.2,6.83-6.97,11.81-6.9,4.62.07,10.22,6.74,10.62,11.82.52,6.78.17,13.45-2.07,20.02-1.47,4.32-2.01,8.86,3.34,11.43,1.2,1.83-.1,4.08.98,5.93-.76,4.16,2.18,1.17,3.83.91.94-1.04,2.01.66,3.09.62,1.81-.06,1.48-1.66,3.36-2.12,4,2,5.48-.9,5.81-2.94,1.48-9.35,1.02-18.49-1.69-27.67-2.37-8.01.54-15.02,5.39-21.55,3.97-5.34,9.11-6.18,15.01-5.06,3.49.66,6.73,7.32,6.12,12.65-.56,4.88-2.01,9.55-4.18,13.96-1.93,3.91-3.01,8.09-3.87,12.31-.55,2.67-.1,4.57,3.51,3.12,3.26-1.32,6.69-2.23,10.62-3.51.1,1.94.44,3.72.25,5.44-2.38,21.57.73,43.06.97,64.58.03,2.56-.81,4.3-3.26,5.27-2.95,1.15-5.84,2.43-8.76,3.65-1.96.81-4.15-.1-6.09.8-4.23-.41-7.55,1.66-10.99,3.73-1.95,1.17-4.39,1.51-6.61,2.23-2.96.67-5.95.37-8.93.18Z"/>
      <path class="cls-8" d="M76.56,89.38c-10.14,5.37-9.78,4.89-18.55-1.64-7.52-5.61-10.91-13.57-15.08-21.27-1.95-3.6-4.39-6.93-6.92-10.86,5.75-2.11,11.35-3.93,16.75-6.22,4.04-1.72,6.64-.39,9.09,2.76,3.46,4.46,6.8,8.27,6.44,15.03-.43,8.02,3.27,15.61,8.27,22.19Z"/>
      <path class="cls-8" d="M180.6,176.44c-5.47-.5-10.62-3.43-12.91,3.01-1.52,4.28-4.21,5.27-8.12,5.2-9.26-.16-18.23-1.54-26.95-4.92-13.67-5.29-44.45-18.69-59.04-26.15-.02-.16-.19-.28-.51-.36-4.47-4.5-7.23-9.42-6.92-16.28.4-8.94-.84-17.96-.46-26.91.33-7.79-2.71-13.05-8.72-17.55-3.83-2.87-8.65-5.05-10.73-9.69-4.46-9.99-10.88-18.73-17-27.68-.75-.91-2.25-2.18-3.54-.19-.95,3.77.41,7.71-.82,11.46.04,19.21-1,38.35-3.31,57.44-.43,3.54-.92,7.42,2.11,10.6,8.13,8.54,15.61,17.79,25.11,24.89,6.12,4.57,11.51,10.26,18.87,13.04,3.1-1.38,1.45-3.74,1.2-5.81-1.86-6.93-1.8-8.81,2.14-11.2,8.06,5.3,27.32,15.74,32.68,17.76,16.58,6.27,31.56,16.48,49.59,19.32,6.08.96,11.82,1.44,17.7.04,2.94-.7,5.41-2.41,4.95-5.82-.55-4.05.86-7.13,4.67-10.21Z"/>
      <path class="cls-8" d="M89.05,41.93c8.7-4.58,16.49-2.92,21.43,4.55.55.83.69,1.63.36,2.62-2.9,8.56-1.5,16.99.81,25.4.22.79-.11,1.74-.28,3.78-5.07-5.41-8.16-10.39-8.39-17.16-.37-10.97-4.27-16.04-13.92-19.19Z"/>
      <path class="cls-12" d="M368.86,121.51c-.39,2.55-.78,5.1-1.17,7.65-.64,3.1-2.6,4.94-5.57,5.81h0c-2.95.47-6.59,2.19-8.34-1.23-2.1-4.1-1.66-8.54,1.65-12.26l-.04.04c1.54-1.12,2.89-2.49,4.57-3.41l-.06.05c3.86-1.22,7.47-1.76,8.97,3.35Z"/>
      <path class="cls-8" d="M260.36,175.36c6.97-2.13,11.19-6.24,16.34-8.81,3.21-1.6,4.29-.9,4.37,2.67.09,4.09-2.14,7.53-2.65,11.43-.19,1.43-1.43,1.65-2.59,1.18-4.76-1.94-9.5-3.96-15.48-6.47Z"/>
      <path class="cls-11" d="M254.96,93.2c-1.02-3.08-3.74-4.13-6.4-4.43-4.41-.51-1.88-2.79-1.68-4.7.27-2.55.93-3.98,3.8-2.55,1.15.57,2.44.9,3.68,1.28q7.02,2.11,4.97,9.13c-.95,2.17-1.91,4.27-4.37,1.27Z"/>
      <path class="cls-8" d="M73.41,168.54c-.31-2.34-.61-4.69-.97-7.46,5.71,1.29,9.75,4.6,14.45,8.17-4.31,1.83-8.09,3.43-11.87,5.04-2.4-1.4-.25-4.07-1.61-5.75Z"/>
      <path class="cls-6" d="M77.8,43.91c-2.92,3.63-5.79,6.58-7.25,10.48-.5,1.33-1.73,2.03-3.12.71-1.89-1.81-3.8-3.57-4.85-6.09-.57-1.36-.24-2.34,1.05-2.59,4.46-.86,8.7-3.05,14.17-2.51Z"/>
      <path class="cls-7" d="M100.44,88.27c3.74-1.55,7.42-.12,10.81-1.48,1.63-.65,2.33.83,2.39,2.23.07,1.55,1.18,5.02-1.15,5.59-.82.2-1.89-1.82-2.74-1.59-.42.12-2.2,1.7-2.62,1.81-1.04.26-1.39-1.35-2.4-1.28-.77.06-.95,1.28-1.68,1.13-2.68-.54-.91-4.44-2.61-6.41Z"/>
      <path class="cls-5" d="M99.28,84.96c1.23-4.13,2.34-7.82,3.53-11.81,3.79,1.88,4.81,5.87,7.65,8.19,2.02,1.65.11,2.55-1.45,2.75-2.92.38-5.88.54-9.73.86Z"/>
      <path class="cls-8" d="M204.24,128.72c-4.73,4.62-11.42,3.88-16.23,7.42-1.32.97-3.58-1.32-3.97-3.29-.43-2.19-2.11-6.4.44-7.84,2.02-1.14,3.67,3.56,4.41,4.59,2.95,4.1,5.83.3,8.6-.15,2.07-.34,3.88-2.19,6.74-.72Z"/>
      <path class="cls-8" d="M306.85,50.76c-1.93,2.4-4.83,2.32-6.98,3.69-.93.59-1.9.66-2.17-.54-.56-2.46-2.35-4.75-1.68-7.31.25-.96,2.03-.34,3.09-.11,2.99.66,5.36,2.4,7.74,4.28Z"/>
      <path class="cls-8" d="M138.62,75.94c.51-2,.94-4.4,3-4.73,1.45-.23,2.48,1.79,3.09,3.54-2.03.48-3.64,2.49-6.09,1.19Z"/>
      <path class="cls-2" d="M265.57,78.12c-.34-1.24-.38-2.57-.55-3.86,0,0,0,0,0,0-1.04-1.67-1.31-4.76-4.52-2.47-2.37,1.94-4.71,3.92-7.89,4.43h0c-.41.37-1.23.87-1.16,1.1,1.55,5,6.87,2.77,9.92,5.09,1.83,1.39,3.1-.19,4.11-1.61.59-.83.35-1.71.09-2.66Z"/>
      <path class="cls-8" d="M221.59,71.86c2.28-2.26,3.86-3.57,5.82-1.64.51.5.74,2.23.44,2.44-1.97,1.36-3.57-.23-6.26-.8Z"/>
      <path class="cls-8" d="M179.95,132.53c-.16-1.3-.28-2.61-.44-3.91-.11-.88,1.01-3.79-.01-4.22-1.47-.63-2.59,2.55-3.2,3.4-1.67,2.33-3.91,2.66-6.43,1.83-3.86-1.27-7.7-2.6-11.55-3.9-1.68-1.47-3.38-2.9-5.9-3.05-.1,3.42,2.38,3.73,4.22,4.68h0c4.52,3.76,9.42,6.6,15.48,7.01,1.05.07,2.09.77,3.06,1.3,1.36.74,2.39,2.88,4.24,1.59,1.67-1.16.74-3.08.53-4.71Z"/>
      <path class="cls-8" d="M285.32,95.39c-8.86-4.15-9.03-6.58-1.65-13.39,1.52-1.4,3.09-2.74,4.56-4.2,8.94-8.85,6.58-23.54,1.21-31.17-2.02-2.87-4.93-4.21-7.67-1.81-4.46,3.9-8.56,7.93-10.33,14.29-2.2,7.91.12,15.66-.88,23.42-.21,1.61.18,4.3-1.99,3.91-6.01-1.08-6.32,3.35-7.65,6.98-2.36,1.87-3.51,8.39-7.99,2.07l-1.46-3.15c-1.96-1.53-4.83,1.16-6.56-1.41l-.06-.07c-2.34-3.01-.77-6.11-.21-9.19,0,0,0,0,0,0-2.97-4.18-1.58-8.08.75-11.94,2.85-4.72,4.01-10.11,5.66-15.25,1.43-4.46-.08-8.96-2.04-13.03-2.3-4.77-6.37-6.83-11.63-5.66-5.63,1.25-9.23,5.72-9.09,11.26.09,3.55.52,7.07,1.5,10.55,1.62,5.77,2.85,11.64,4.23,17.48.9,3.81-.6,4.42-3.88,3.03-2.92-1.23-5.93-2.27-8.92-3.33-3-1.07-4.48-.3-4.43,3.23.05,4.31.4,8.83-.72,12.89-4.63,16.73-1.2,34.06-4.17,50.9-.48,2.71-.98,6.32,1.29,8.52,4.49,4.35,8.49,9.85,15.47,10.28,3.22.2,5.36,1.7,7.68,3.59,5.89,4.77,11.03,5.46,16.15,2.26,9.21-5.75,18.31-11.7,27.56-17.39,2.91-1.8,4.04-4.02,2.46-6.98-2.28-4.26-2.66-9.02-1.5-13.18,2.56-9.17,3.87-18.63,6.69-27.69.99-3.17.71-4.35-2.41-5.81Z"/>
      <path class="cls-8" d="M351.91,120.15c2.1-16.37,4.2-32.74,6.29-49.11-.57-.22-1.14-.44-1.71-.67-6.86,3.98-15.19,4.69-21.62,9.03-8.71,5.88-18.82,8.21-27.87,13.02-6.28,3.34-15.17,3.95-16.03,13.53-.85,9.49-4.47,18.5-4.51,28.12-.01,2.85-.11,5.6,1.24,8.2,1.99,3.8.97,6.79-2.44,9.15-5.14,3.78-11.55,5.62-16.01,10.45-1.06.71-2.12,1.42-3.18,2.14-3.17.76-5.74,2.61-8.23,4.59l-5.44,3.41c-.7.41-1.41.83-2.11,1.24-4.58,1.86-9.16,3.72-13.74,5.58,0,0,0,0,0,0-1.25.36-2.53.62-3.74,1.08-10.58,4.1-21.51,6.32-32.9,6.11-3.49-.06-6.65-.52-8.8-3.87-1.37-2.13-2.15-6.47-4.4-5.79-2.43.73-4.33,4.25-5.73,6.94-.86,1.66-.36,4.03-.46,6.08-.25,4.96,3.56,8.61,7.58,6.15,5.11-3.12,10.19-1.24,15.09-2.24,14.1-2.88,27.78-7.29,40.54-14.16,2.86-1.08,5.71-2.17,7.95-4.37h0c.74-.43,1.47-.86,2.21-1.28,2.44-.76,4.7-1.85,6.62-3.57,2.39-1.43,4.78-2.85,7.16-4.28.91-.07,1.72-.3,2.15-1.22,3.11-3.38,7.48-4.64,11.33-6.78,0,0,0,0,0,0,3.1-.27,4.28,1.03,4.34,4.24.12,5.88-.93,11.52-2.53,17.11-.35,1.4-.96,2.83.39,4.06,2.31-.07,4.16-1.37,6.12-2.33,9.55-4.66,19.09-9.35,28.63-14.03,6.68-2.92,13.32-5.93,20.05-8.74,3.95-1.65,6.81-5.18,11.08-6.21,1.87-1.12.84-2.94.96-4.42.37-4.53-.49-9.11.47-13.63l-.07.05c.79-.61.58-2.6.79-3.58.19-5.73-1.28-6.21.5-9.97Z"/>
      <path class="cls-13" d="M170.55,8.33c3.19-.43,6.27.61,8.7,3.34,2.02,2.27,3.81,1.9,5.55-.32.69-.87,1.32-1.88,2.22-2.47,4.32-2.85,9.49-4.13,13.69-1.3,4.48,3.02,4.17,8.37,2.51,13.29-3.66,10.86-12.89,16-21.98,21.25-1.15.67-2.69.67-3.78-.17-7-5.38-13.9-10.91-17.12-19.55-3.46-9.3-.15-13.96,10.2-14.06Z"/>
      <path class="cls-8" d="M5.94,112.03c1.39-2.29-1.52-7.59,4.76-7.68,5.61-.07,9.28,3.01,9.28,7.96,0,5-2.21,6.85-7.93,6.88-4.56.03-6.32-2.35-6.11-7.17Z"/>
      <path class="cls-3" d="M97.17,113.53c2.87.13,3.8,2.15,3.67,4.54-.14,2.62-1.44,4.61-4.51,4.57-3.19-.04-4.2-2.14-4.06-4.81.15-2.85,1.98-4.26,4.9-4.31Z"/>
      <path class="cls-3" d="M127.21,113.18c.27,2.33-1.68,4.14-4.37,4.28-2.8.15-4.32-1.57-4.24-4.1.08-2.5,1.77-4.17,4.44-4.06,2.28.1,3.9,1.55,4.17,3.87Z"/>
      <path class="cls-3" d="M129.91,135.94c-.68-.91-1.36-1.14-2.31-1.04-.87.09-.92.51-1.04,1.37-.18,1.38.94,2.44-.04,3.4-2.51,2.45-8.96,3.53-11.73,1.22-2.17-1.81-2.74-4.21-.16-6.17,2.3-1.74,3.75-3.98,4.9-6.51.71-3.85-.13-6.7-4.17-8.44-4.37-1.89-7.95-.16-11.18,2.09-2.39,1.67-3.99,4.41-1.76,7.58.08.04.16.09.24.14-.08-.05-.16-.1-.24-.14.62,1.71,1.52,3.15,3.45,3.63.97,1.78,4.35,1.06,4.2,3.93-.28,5.27-4.28,6.75-8.43,7.51-3.25.59-6.98.98-7.84-3.76-.2-1.09.19-2.48-1.53-2.21-1.18.18-.9,1.43-1.01,2.31-.29,2.32.86,3.93,2.64,5.2,4.42,3.17,9.13,2.67,13.18-.13,1.86-1.28,4.14-4.46,4.74-4.28,1.28-.06,3.13,2.45,4.69,3.05,3.3,1.28,6.63.61,10.03-.61,3.52-1.27,5.31-5.56,3.38-8.14ZM106.15,130.14c.7-2.5-.37-5.86,3.41-6.88,2.94-.79,5.09.19,6.65,2.72.21.35.52.61.86.84-.02,0-.04,0-.06.01-2.84,3.69-7.02,2.96-10.86,3.3Z"/>
      <path class="cls-3" d="M272.87,110.45c0,.4-1.22,2.3-3.21.29-2.44-2.47-3.3-3.72-5.74-8.29-.94-1.77-.61-2.38-2.26-3.94-.82-.77-1.66-1.83-.38-2.78,1.19-.88,2.7.07,2.87,1.13,2.59,5.47,4.54,8.87,8.28,12.62.23.23.43.57.43.97Z"/>
      <path class="cls-3" d="M238.73,92.47c0,.77-1.13.99-1.99,1.39-4.01,1.87-7.98,3.82-11.92,5.82-.83.42-1.86,1.41-2.57.3-.33-.51-.07-1.11.16-1.71.88-2.24,13.14-7.91,15.22-7.14.75.28,1.11.57,1.11,1.34Z"/>
      <path class="cls-1" d="M258.3,138.64c-.71-.8-1.53-1.31-2.28-1.3-1.26.02-1.3,1.18-.79,2.02,1.63,2.64.92,4.92-1.59,6.06-4.11,1.87-7.68-.37-10.24-3.18-1.34-1.47-3.97-3.02-1.82-6.87,1.99-3.56,7.24-2.72,7.64-7.21,1.39-4.72-1.15-7.37-5.05-9.02-3.15-1.33-5.99.25-7.96,2.4-2.23,2.42-2.23,5.4.43,7.9.57,1.54,2.87,1.95,2.59,4.07-.55,4.16-2.88,6.4-7.08,6.45-3.98.05-8.09-3.38-7.22-6.57.69-2.51-.02-1.99-1.52-1.55h0c-2.06,1.86-1.32,3.83-.21,5.8h0c2.29,5.37,6.98,5.78,11.69,5.05,2.68-.41,4.31.01,6.44,1.75,8.03,6.54,11.01,6.45,16.99.39,1.81-2.07,1.77-4.14,0-6.21ZM238.24,127.77c3-5.73,3.15-5.78,8.68-2.05-.01,0-.02,0-.03,0-2.44,2.6-5.6,2.06-8.65,2.04Z"/>
      <path class="cls-4" d="M105.29,130.85c-2.01-2.99-1.89-8.18,3.49-9.34,4.54-.98,9.04.46,9.04,5.93s-10.52,6.41-12.53,3.42Z"/>
      <path class="cls-10" d="M239.71,129.37c-1.28-.55-2.16-1.77-2.27-3.16-.15-2.03.36-3.81,3.1-4.45,3.04-.72,5.31.2,6.47,2.76.49,1.08.41,2.35-.17,3.38-1.77,3.14-4.37,2.65-7.13,1.47Z"/>
      <path class="cls-3" d="M232.22,114.77c-1.21,0-2.07-.4-2.62-1.21-.48-.72-.73-1.75-.73-3.07,0-3.05,2.11-3.92,3.9-4.12,2.69.35,4.32,1.9,4.36,4.14.05,2.98-2.37,4.15-4.66,4.25-.08,0-.17,0-.25,0Z"/>
      <path class="cls-3" d="M258.14,121.68c-1.86,0-3.91-.99-4.08-3.77-.08-1.26.36-2.47,1.24-3.41.82-.87,1.91-1.39,2.93-1.39.07,0,.15,0,.22,0,1.39.11,3.77.77,4.04,4,.12,1.36-.17,2.45-.86,3.23-.71.8-1.82,1.26-3.23,1.33-.09,0-.17,0-.26,0Z"/>
      <path class="cls-3" d="M354.45,133.34c-.82-3.7-1.59-8.12.98-11.86-2.36,0-2.34,1.68-2.38,3.32-.36,0-.72,0-1.08,0-.02-1.56-.04-3.11-.06-4.67-1.98,3.66-1.31,7.58-1.13,11.45-.05.7-.11,1.4-.16,2.11.81.05,1.63.1,2.44.14h0c2.55,4.14,5.84,2.38,9.06,1.12-2.62-.66-6.85,2.1-7.67-1.63Z"/>
      <path class="cls-14" d="M324.14,56.34c-2.21-.57-4.63-.69-6.48-1.77-6.85-4-11.98.52-17.5,3.16-1.25.6-2.07,1.65-1.67,3.17.72,2.72.05,5.45-.32,8.67,2.87-1.23,5.2-2.24,7.54-3.24,4.74-3.49,10.71-4.2,15.77-6.97h0c.52-1.33,2.98-1,2.66-3.03Z"/>
      <path class="cls-8" d="M348.57,66.09c-8.27-2.98-15.52-11.8-25.79-5.48-5.14,3.8-11.4,5.2-17,7.99-10.2,3.77-14.07,13.96-21.74,20.71,5.16,3.72,9.77,4.93,15.44,1.88,7.19-3.87,14.86-6.84,22.18-10.49,8.36-4.17,16.68-8.41,25.45-11.69,1.19-.44,4.41-1.87,1.47-2.92Z"/>
      <path class="cls-8" d="M265.75,51.97c-1.5-1.24-3.17.18-4.56,1.04-3.33,2.08-6.51,4.08-6.68,8.84-.16,4.45-5.04,7.58-4.05,12.55h0s0,0,0,0c2.72-1.03,4.7-3.59,7.83-3.76,1.45-.88,2.9-1.76,4.36-2.63h0c2.9-3.48,1.71-7.93,2.8-11.84.4-1.41,1.57-3.14.29-4.2Z"/>
      <path class="cls-3" d="M85.98,111.5c-.13,0-.28-.06-.45-.18-.39-.26-.59-.54-.62-.86-.07-.79.97-1.82,1.31-2.15,2.61-2.56,5.56-5.25,9.03-8.21.4-.34,1.56-.5,2.25-.5.05,0,.21.1.35.3.13.19.18.4.14.53-.09.29-.66.71-1.12,1.06-.27.21-.54.41-.76.61-.94.85-1.88,1.69-2.81,2.53-1.82,1.63-3.64,3.27-5.44,4.92-.28.26-.53.6-.77.93-.36.5-.74,1.02-1.1,1.02Z"/>
      <path class="cls-3" d="M132.56,104.45c-.17,0-.35-.04-.54-.12-1.63-.71-3.15-1.77-4.61-2.79-2.53-1.77-7.78-3.77-8.03-3.86s-1.1-.24-.86-.93c.27-.91.6-.88,1.99-.91.41,0,1.33.17,2.72.58s4.18,2.36,6.85,4.37c1.08.81,1.96,1.49,3.1,2.28.47.3.32.81.24.96-.15.19-.43.43-.85.43Z"/>
    </g>
  </g>
</svg>