<?xml version="1.0" encoding="UTF-8"?>
<svg id="_レイヤー_2" data-name="レイヤー 2" xmlns="http://www.w3.org/2000/svg" viewBox="0 0 145.41 166.35">
  <defs>
    <style>
      .cls-1 {
        fill: #231815;
      }

      .cls-1, .cls-2, .cls-3 {
        stroke-width: 0px;
      }

      .cls-2 {
        fill: #faa2ad;
      }

      .cls-3 {
        fill: #f03c3c;
      }
    </style>
  </defs>
  <g id="design">
    <g>
      <path class="cls-2" d="M112.95,72.57c.54-1.34,1.93-1.53,2.79-1.01,3,1.8,6.76,1.97,9.34,4.75.96,1.03,2.21,1.77,2.95,3.11.46.84,1.25,1.55,2.02,2.17,3.38,2.75,5.35,6.09,5.12,10.62-.06,1.28.39,2.66.9,3.87,1.62,3.81.07,6.76-4.02,7.48-.58.1-1.14.32-1.77.51-1.23-1.1-3.1-1.36-4.18-3.08-2.04-3.24-1.82-4.46,2.15-6.55-.22.81-.32,1.41-.54,1.96-.21.53,1.53-.12,1.21.46,2.67.41-.21,1.13,1.63-1.65-1.85-2-1.52-4.18-1.33-7.03.19-2.8-1.26-5.24-2.94-7.25-2.27-2.7-5.05-5.03-8.45-6.2-1.71-.59-3.42-1.06-4.87-2.14Z"/>
      <path class="cls-1" d="M91.07,12.71c4.29-1.62,8.63-1.15,13-.35,4.41.8,9.93,7.1,7.43,12.38-.82,1.73-.88,3.83-1.97,5.46-.18.27-.1.64.16.83,1.34.99,2.65,2.02,4.05,2.93,1.59,1.03,3.22,2.01,4.93,2.82,2.96,1.41,4.93,4.76,3.46,7.18-.68,1.12-1.14,2.35-1.57,3.58-1.12,3.19-2.43,6.31-3.51,9.51-1.07,3.16-1.99,6.38-2.81,9.61-.12.47.55,1.47,1.09,1.71,1.96.86,3.97,1.81,6.05,2.14,3.33.53,5.43,2.38,7.24,5.02.99,1.45,2.38,2.65,3.63,3.92,3.25,3.31,5.67,7.01,5.81,11.84.04,1.59.39,3.1,1.06,4.59,1.3,2.87-.36,8.11-2.94,9.77-2.36,1.51-8.21,1.13-10.41-.84-1.19-1.06-2.42-2.24-3.15-3.62-1.55-2.91-.93-6.44,1.79-8.51,2.11-1.61,1.82-3.29,1.57-5.42-.54-4.69-4.32-6.62-7.5-8.96-1.34-.98-3.08-1.42-4.98-2.13-.36-.13-.76.07-.84.44-.21.92-.46,1.79-.45,2.66.07,4.03.23,8.07.44,12.1.22,4.41.52,8.81.8,13.22.11,1.72.59,3.31,1.59,4.63.15.19.41.28.64.23,2.22-.48,4.34-1,6.5-1.36,2.09-.34,3.6,1.3,5.44,1.88.43.14.7.73,1.13.94,1.76.89,3.69,1.78,4.08,3.86.49,2.66.43,5.41-.85,7.9-1.28,2.5-3.61,3.58-6.25,3.81-1.63.14-3.29-.03-4.94-.13-.42-.02-.73.36-.65.77.25,1.18.3,2.44-1.05,3.42-1.16.85-1.57,2.3-3.08,3.04-1.84.9-1.22,5.67.68,7.15,2.15,1.67,4.63,2.15,7.27,2.02.41-.02.82-.22,1.21-.39,1.01-.43,2.01-1.28,3.01-1.27,3.21.01,5.6-2.19,8.75-2.76.2-.04.41.03.55.17.24.24.58.55.95.62,1.75.3,2.71,1.35,3.68,2.77,1.05,1.54,2.54,2.56,2.9,4.76.39,2.34.66,4.43.05,6.81-.63,2.45-.62,5.06-.8,7.1-.01.17-.1.32-.22.43-1.32,1.14-2.37,1.85-3.12,2.8-1.13,1.42-2.26,2.49-4.24,2.54-2.4.06-4.7-.02-6.52-1.85-2.44-2.46-3.93-5.39-2.88-8.84.54-1.77,1.69-3.35,2.72-5.05.24-.4-.04-.91-.51-.95-.97-.08-2.04.19-3.1.28-2.19.19-4.37.48-6.57.64-5.06.38-8.61-1.81-11.21-6.15-1.76-2.95-3-5.86-2.48-9.33.07-.47.36-.9.55-1.35-3.92-.68-13.48-.37-17.83.23-3.63.5-7.32.77-10.98.75-1.85-.01-4-.48-5.48-1.5-3.08-2.14-6.55-3.51-9.77-5.34-1.49-.84-3.78-.38-5.71-.3-1.56.06-3.11.61-4.67.6-3.23-.02-6.2.45-9.13,2.05-3.08,1.68-6.62,2.44-9.54,4.58-3.43,2.52-6.19,5.6-8.17,9.33-.6,1.12-.61,2.54-1.09,3.75-.59,1.49-1.63,2.55-3.35,2.58-.14,0-.28-.05-.4-.13-3.11-2.36-6.27-4.63-10.07-5.82-.4-.13-.76-.34-1.05-.64-2.58-2.69-5.32-5.26-7.62-8.18-1.51-1.92-2.41-4.32-1.31-7.05.05-.13.15-.24.27-.31,1.76-1.06,3.5-2.18,5.31-3.16,2.7-1.48,5.36-.16,7.02,1.44,1.69,1.62,4.33,2.71,4.71,5.76.05.4.46.65.84.51.74-.27,1.33-.44,1.72-.81,3.49-3.32,7.89-5.32,11.87-7.89,2.44-1.58,5.75-1.89,8.71-2.6,2.51-.6,5.07-1,7.88-1.51.35-.06.58-.41.51-.76-.26-1.23-.46-2.32-.78-3.39-.84-2.89-1.59-5.81-2.41-8.7-1.3-4.56-3.23-9.2-1.48-14.24,1.02-2.92-.62-5.78-1.02-8.67-.06-.4-.83-.88-1.34-1.01-3.97-1-7.94-2.05-11.95-2.84-2.46-.49-4.07-1.96-5.78-3.6-2.27-2.18-3.07-4.93-4.27-7.69-1.79-4.15.3-7.08,1.75-10.35.05-.12.15-.22.27-.29,2.17-1.19,4.23-2.83,6.54-3.35,3.08-.7,6.37-.3,9.42.86.65.25,1.53.65,1.74,1.19.67,1.78,1.48,3.67,1.44,5.5-.03,1.39-1.25,2.77-2.01,4.11-.19.34-.64.54-.99.81l3.12,2.83c.41.38,1.06.07,1.05-.49-.09-3.26.88-6.3,1.07-9.39.2-3.29,2.03-6.49.52-10-.43-.99.61-2.7,1.18-3.99.64-1.45,1.73-2.72,2.24-4.19,1.18-3.42,2.38-6.72,4.92-9.51.84-.92,1.03-2.63,1.78-3.93,1.74-3.01,1.63-3.08,4.86-2.34.24.05.5.05.74.03.24-.02.48-.09.9-.17-.11-.64-.36-1.31-.28-1.94.09-.69.55-1.32.74-2,.62-2.31.68-4.97,1.93-6.85,1.09-1.63,2.12-3.38,2.73-5.09.64-1.79,1.7-3.06,2.78-4.43C72.11,1.91,76.85.36,81.93.02c2.32-.16,4.71.81,7.06,1.3.22.05.4.27.6.42,1.61,1.24,3.51,6.62,2.82,8.41-.32.84-1.02,1.54-1.55,2.31-.15.14-.32.28-.45.44-.02.02.14.18.21.28.15-.16.29-.31.44-.47ZM78.62,74.41c.26-.11.56-.03.74.19.95,1.13.34,2.1-.36,2.39-1.79.75-3.12,1.98-4.48,3.23-.43.4-.94.71-1.5.9-1.54.53-3.12.98-4.66,1.5-1.49.5-2.61,1.94-2.56,3.38.07,1.98,0,4,.44,5.91.46,2.02-.13,3.96.02,5.97.33,4.48,1.34,8.72,2.23,13.19.91,4.58,2.12,9.1,3.49,13.56.69,2.27,1.16,4.7,2.93,6.46.12.12.29.18.46.18.83,0,1.61,0,2.4,0,3.22-.03,6.51.36,9.63-.21,3.33-.61,6.57-.83,9.94-.71,5.86.2,11.74.06,17.54.06.17,0,.34-.07.46-.2l1.71-1.79c.2-.21.23-.54.07-.79-1.24-1.87-2.05-3.77-2.39-5.96-.19-1.18-.43-2.59-1.58-3.58-.55-.47-1.09-1.71-.84-2.22,1.17-2.45-.08-4.46-.76-6.63-.68-2.19-1.82-4.41-1.52-6.67.26-1.96,0-3.73-.13-5.63-.49-7-.59-14.02-.8-21.03-.02-.71-.05-1.77.37-2.08,1.37-1.02.95-2.48,1.24-3.74.43-1.86.65-3.78,1.16-5.62,1.3-4.74,2.59-9.49,4.11-14.16.81-2.47,2-4.82,3.06-7.21.15-.33-.01-.73-.35-.85-3.03-1.1-6.23-1.12-9.4-1.33-.92-.06-1.84,1.21-2.76.24-.15-.16-.38-.19-.6-.14-1.01.23-1.99.08-3.04-.06-1.67-.22-3.41.16-5.13.24-1.35.07-2.83.44-4.02.02-1.74-.61-3.5-.67-5.08-.28-2.58.63-5-.21-7.48-.27-2.7-.07-2.91-.16-4.35,1.87-1.92,2.71-2.96,5.79-4.12,8.83-.94,2.46-2.31,4.8-2.59,7.46-.29,2.68-1.79,4.95-2.32,7.58-.24,1.16-.41,2.36-.61,3.54-.22,1.3-.47,2.6-.65,3.9-.02.15.29.34.32.38,3.45.14,5.84-3.48,9.42-2.72.35.07.57.42.5.77-.23,1.08-.33,1.11-.94,1.46-1.46.85-2.87,1.78-4.35,2.58-.85.46-1.77.91-2.71,1.06-6.73,1.05-13.51,1.55-20.18-.02-3.19-.75-6.84-1.22-8.58-4.81-.09-.18-.39-.28-.62-.36-2.48-.9-3.82-2.85-5-5.11-.14-.27-.06-.61.18-.79,1.29-1.01,2.53-1.99,3.74-2.94.25-.2.31-.55.15-.82-.21-.36-.4-.66-.47-.98-.52-2.47-1.3-3.27-3.71-3.47-.99-.09-1.99-.13-2.98-.15-2.64-.05-5.19,1.11-6.71,3.26-4.31,6.08.31,14,6.55,16.4.11.04.26-.02.37.01,1.59.45,3.02,1.32,4.66,1.52,4.11.51,8.41,2.01,12.6,1.84,2.43-.1,5,.94,7.37-.42.25-.14.78-.05,1.04.13,1.5,1.05,3.23.64,4.68.34,4.59-.93,9.24-1.8,13.1-4.86,1-.79,2.34-1.15,3.66-1.69ZM68.42,127.61c.46.31,1.07-.09.98-.63-.12-.71-.22-1.28-.4-1.82-.82-2.64-1.92-5.12-2.02-8.03-.11-2.99-.85-6-1.68-8.9-1.28-4.5-1.99-9.15-1.88-13.82.08-3.63-.71-7.24.1-11-.7,0-1.05-.01-1.4,0-4.32.2-8.64.44-12.96.58-2.26.07-2.79.41-1.98,2.12.91,1.94.65,3.88.48,5.78-.23,2.64-.48,5.19-.05,7.88.5,3.13.85,6.21,2.57,8.98.36.58.46,1.4.45,2.11-.02,3.83.95,7.21,4.05,9.73.85.69.69,1.44.02,2.3-3.34.22-6.75-.03-10.15.8-4.74,1.17-9.44,2.24-13.78,4.64-2.38,1.32-4.02,3.7-6.69,4.54-.17.05-.3.17-.38.33-.87,1.67-3.57,2.17-3.09,4.72.03.17-.25.39-.45.68h-2.65c-.24,0-.46-.14-.57-.36-.71-1.52-1.55-2.99-2.01-4.56-.77-2.65-2.34-4.37-4.89-5.31-.6-.22-1.18-.51-2.01-.88-.2-.09-.43-.08-.61.05-1.36.91-2.84,1.9-4.22,2.82-.23.15-.33.44-.26.7.95,3.35,2.97,5.5,5.35,7.42,1.1.89,1.86,2.28,3.05,2.98,2.99,1.76,6.11,3.3,9.29,4.97.34.18.77.01.89-.36.23-.7.46-1.38.71-2.04.55-1.46.81-3.16,1.75-4.31,2.93-3.6,6.51-6.64,10.52-8.9,3.24-1.82,7.04-2.63,10.38-4.3,2.1-1.04,4.13-1.3,6.37-1.35,1.83-.03,3.66-.36,5.47-.65,2.35-.37,4.76-.91,6.98.15,1.56.74,2.97,1.77,4.71,2.94ZM62.78,75.21c.24-.04.44-.22.51-.45.32-1.02.65-1.92.84-2.84.55-2.7.94-5.43,1.55-8.12.55-2.46.94-5.05,2.05-7.26,1.22-2.42,1.14-5.35,3.01-7.45.09-.1.14-.23.15-.36.18-3.05,1.85-5.4,3.65-7.7.33-.42.51-.94.69-1.41.1-.26.01-.55-.2-.72-1.2-.96-2.26-1.83-3.41-2.66-.4-.29-1.09-.72-1.52-.96-2.01-1.14-4.09-2.14-6-3.43-1.34-.9-2.7-1.59-4.27-1.87-.82-.14-1.76-.5-2.44-.24-.6.24-.91,1.2-1.33,1.81l1.16.46c.19.2-.1,1.07-.33,1.22l-2.95,1.99c-.17.12-.28.31-.28.52v3.91c.22,1.84-2.02,2.3-3.19,3.64.48.42.97,1.17,1.35,1.12,2.43-.34,3.55,1.45,4.88,2.84,1.44,1.51,1.98,4.72.6,6.33-1.22,1.42-2.97,3.05-5.13,2.46-1.75-.48-1.88.42-2.22,1.47,2.91,3.75,3.05,3.93,5.94,4.08.3.02.57-.17.65-.46.33-1.21.03-2.94,2.22-2.87.06.34.24.72.17,1.05-.74,3.47-2.11,5.67-6.23,3.93-1.84-.77-2.51-2.44-3.78-3.57-.2-.18-.52-.2-.75-.05-1.31.86-1.98,1.99-1.95,3.4.07,2.49-.62,4.91-.22,7.47.67,4.26.9,3.78,4.84,4.5,3.82.7,7.76.86,11.93.21ZM71.81,31.63c-.18.24-.17.59.03.81,1.31,1.42,2.58,2.55,4.85,1.73.84-.3,1.93.07,2.9.14,2.08.16,4.24.73,6.23.39,2.9-.49,6.02.25,8.74-1.39.27-.16.73-.02,1.1.01,2.02.16,3.74-.73,5.6-1.37,4.23-1.45,7.08-3.76,7.16-8.48,0-.12.05-.25.12-.35,1.31-1.84.22-3.44-.84-4.82-1.69-2.19-3.82-3.74-6.85-3.57-1.36.08-2.74-.19-4.09-.09-1.06.08-2.1.44-3.13.75-2.41.74-4.53,2.33-7.23,2.31-.74,0-1.53.74-2.22,1.24-1.79,1.31-3.57,2.64-5.3,4.03-.8.64-1.51,1.38-2.15,2.19-1.6,2.03-3.15,4.11-4.93,6.47ZM68.09,30.88c.27.14.6.07.79-.17,1.67-2.14,3.35-4.32,5.06-6.48.74-.94,1.35-2.13,2.31-2.71,2.62-1.57,4.78-3.7,7.21-5.48,2.24-1.64,3.9-3.44,5.3-5.87,1.09-1.88.7-3.17,0-4.72-.62-1.38-2.02-1.02-3.11-1.43-4.33-1.62-8.25-.9-11.79,1.73-1.73,1.29-3.59,2.85-4.5,4.72-2.26,4.64-4.71,9.24-5.58,14.47-.13.81.87,1.74.27,2.45-.22.27-.2.66.06.89.54.47,1.07.94,1.65,1.33.68.46,1.44.81,2.33,1.26ZM134.95,146.15c.36.05.6.4.53.75-.3,1.51-.36,2.96-1.11,3.76-1.18,1.26-1.89,2.75-2.91,4.05-2.48,3.18-1.96,6.46,1.61,8.19,1.18.57,3.29.75,4.19.07,2.33-1.76,4.91-3.65,4.66-7.22-.07-.98-.21-2.09.14-2.95,1.44-3.54-.05-6.32-2.06-9.04-1.67-2.27-2.64-2.55-5.14-1.47-1.23.53-2.44,1.34-3.72,1.46-1.86.18-3.51.99-5.25,1.33-2.15.42-4.26,1.17-6.7.37-2.47-.81-4.25-2.36-6.01-3.95-.75-.68-1.25-1.94-1.09-3.33.16-1.33-.05-2.7-.19-4.23-.03-.37-.37-.64-.74-.58-.54.09-1,.15-1.17.4-1.18,1.7-1.49,3.59-.62,5.54.59,1.32,1.35,2.56,1.9,3.9,1.14,2.79,3.51,3.66,6.16,4.43,1.48.43,3.15.45,4.04-.19,1.51-1.09,2.72.13,4.13-.18,2.85-.64,5.75-1.59,9.35-1.13ZM113.27,72.01c-.22.28-.13.7.17.89,1.34.85,2.86,1.28,4.38,1.81,3.41,1.17,6.18,3.5,8.45,6.2,1.69,2.01,3.13,4.46,2.94,7.25-.18,2.68.48,4.98,2.1,6.91.18.22.21.53.05.76-1.38,2.05-1.86,2.43-3.56,2.26-.45-.05-.73-.54-.5-.94.15-.26.28-.51.39-.77.22-.55.33-1.15.54-1.96-3.97,2.08-4.19,3.3-2.15,6.55,1.01,1.6,2.71,1.94,3.93,2.87.17.13.38.18.58.11.5-.16.97-.33,1.45-.41,4.1-.72,5.64-3.66,4.02-7.48-.51-1.21-.97-2.59-.9-3.87.23-4.53-1.74-7.87-5.12-10.62-.76-.62-1.56-1.33-2.02-2.17-.73-1.35-1.99-2.08-2.95-3.11-2.59-2.78-6.35-2.95-9.34-4.75-.72-.43-1.81-.37-2.47.46ZM126.99,122.91c.23,0,.45-.14.56-.35.5-.99.91-1.75,1.26-2.54,1.04-2.35.79-4.82-1.18-6.05-2.29-1.44-4.78-2.86-7.77-2.06-1.17.32-2.37.57-3.59.85-.18.04-.33.16-.42.32-.94,1.75-1.48,3.46.17,5.4.62.73.6,1.98.78,3.08.04.22.2.41.4.48,3.14,1.18,6.43.91,9.78.87ZM48.78,53.97c.11.12.27.21.43.2.76-.04,1.34-.74,2.44-.27,2.19.93,2.9.34,3.9-1.89,1.15-2.56-.65-5.78-3.41-5.88-.84-.03-1.57,1.11-2.66.13-.25-.22-1.26.42-1.86.7-.11.05-.2.13-.27.23-1.87,2.84-.35,4.83,1.44,6.77ZM48.48,56.12c-.13-.11-.25-.21-.38-.32-.35.37-.7.75-1.05,1.12.15.13.3.26.45.39.33-.4.65-.79.98-1.19Z"/>
      <path class="cls-2" d="M79.01,74.25c-1.45.64-2.97.99-4.06,1.86-3.86,3.06-8.51,3.93-13.1,4.86-1.46.3-3.18.7-4.68-.34-.26-.18-.79-.27-1.04-.13-2.38,1.37-4.94.32-7.37.42-3.2.13-8.39-.59-11.59-1.22-2.57-.51-1.64.05-4.27-1.38-.11-.06-1.68-.72-1.78-.77-6.41-2.46-11.11-10.76-6.17-16.9,1.39-1.72,3.02-2.76,5.23-2.77,1.36,0,2.73.04,4.09.16,2.4.21,3.19,1,3.71,3.47.1.46.56,1.06.87,1.65-1.47,1.16-2.73,2.13-4.32,3.38,1.24,2.46,2.21,4.65,4.86,5.62.22.08.53.18.62.36,1.74,3.59,5.39,4.07,8.58,4.81,6.67,1.56,13.46,1.07,20.18.02.94-.15,1.86-.6,2.71-1.06,1.48-.8,2.89-1.73,4.35-2.58.71-.41.72-.39,1.06-2.05-3.93-1.36-6.4,2.69-10.04,2.54-.03-.04-.35-.23-.32-.38.18-1.31.43-2.6.65-3.9.2-1.18.37-2.37.61-3.54.53-2.62,2.04-4.89,2.32-7.58.29-2.66,1.65-5,2.59-7.46,1.16-3.04,2.19-6.12,4.12-8.83,1.44-2.03,1.65-1.94,4.35-1.87,2.48.07,4.9.9,7.48.27,1.58-.38,3.34-.32,5.08.28,1.19.42,2.67.04,4.02-.02,1.71-.08,3.46-.46,5.13-.24,1.19.16,2.29.34,3.43-.05.99,1.42,1.98-.06,2.97.01,3.39.23,6.81.24,10.02,1.57-1.13,2.6-2.46,5.14-3.33,7.82-1.52,4.67-2.81,9.42-4.11,14.16-.5,1.84-.73,3.76-1.16,5.62-.29,1.27.12,2.72-1.24,3.74-.42.31-.39,1.37-.37,2.08.21,7.01.31,14.04.8,21.03.13,1.9.39,3.68.13,5.63-.3,2.26.84,4.49,1.52,6.67.67,2.17,1.93,4.18.76,6.63-.25.51.29,1.75.84,2.22,1.15.99,1.39,2.41,1.58,3.58.37,2.35,1.28,4.36,2.68,6.38-.75.78-1.46,1.53-2.25,2.35-5.89,0-11.86.14-17.81-.06-3.37-.11-6.61.1-9.94.71-3.12.57-6.41.18-9.63.21-.87,0-1.73,0-2.66,0-2.16-1.98-2.5-4.91-3.4-7.48-1.83-5.26-2.81-10.77-3.93-16.23-.66-3.22-1.27-6.38-1.51-9.68-.15-2,.44-3.94-.02-5.97-.43-1.9-.37-3.93-.44-5.91-.05-1.44,1.07-2.88,2.56-3.38,1.6-.54,3.22-1,4.81-1.55.45-.16.9-.43,1.25-.76,1.4-1.28,2.75-2.55,4.58-3.32.78-.33,1.43-1.47.02-2.75Z"/>
      <path class="cls-2" d="M69.66,128.43c-2.34-1.5-4.04-2.85-5.95-3.76-2.22-1.06-4.63-.53-6.98-.15-1.81.29-3.65.61-5.47.65-2.23.04-4.27.3-6.37,1.35-3.35,1.66-7.15,2.47-10.38,4.3-4.01,2.26-7.59,5.3-10.52,8.9-.94,1.15-1.2,2.85-1.75,4.31-.33.89-.62,1.8-.94,2.75-3.41-1.8-6.75-3.43-9.95-5.31-1.19-.7-1.94-2.09-3.05-2.98-2.49-2.01-4.57-4.26-5.47-7.87,1.58-1.06,3.32-2.22,4.88-3.27,1.02.45,1.66.78,2.34,1.03,2.55.94,4.12,2.66,4.89,5.31.49,1.7,1.43,3.27,2.17,4.93h3.05c.2-.29.48-.52.45-.68-.5-2.68,2.5-3.09,3.21-4.97,2.83-.76,4.5-3.26,6.96-4.62,4.34-2.4,9.05-3.47,13.78-4.64,3.39-.84,6.8-.59,10.15-.8.67-.87.82-1.61-.02-2.3-3.09-2.52-4.07-5.91-4.05-9.73,0-.71-.09-1.53-.45-2.11-1.72-2.77-2.07-5.85-2.57-8.98-.43-2.69-.18-5.24.05-7.88.17-1.9.43-3.84-.48-5.78-.81-1.71-.28-2.05,1.98-2.12,4.32-.14,8.64-.38,12.96-.58.34-.02.69,0,1.4,0-.84,3.95.07,7.73-.12,11.55-.22,4.43.6,8.71,1.81,12.97.86,3,1.65,6.12,1.76,9.21.11,2.91,1.2,5.39,2.02,8.03.27.88.37,1.81.66,3.28Z"/>
      <path class="cls-2" d="M63.22,75.14c-4.32.72-8.39.58-12.33-.15-3.94-.72-4.48-.14-5.14-4.4-.4-2.56.4-5.11.33-7.6-.04-1.54.97-2.72,2.53-3.62,1.51,1.11,2.13,3.01,4.14,3.85,4.13,1.74,5.35-.5,6.09-3.97.07-.33-.1-.59-.16-.93-2.51-.09-1.63,2.12-2.28,3.27-3.34-.16-3.46-.17-6.52-4.11.34-1.04.6-1.95,2.35-1.46,2.17.6,3.91-1.03,5.13-2.46,1.38-1.61.84-4.81-.6-6.33-1.33-1.39-2.44-3.19-4.88-2.84-.38.05-.86-.7-1.35-1.12.13-.15.57-1.48.71-1.63,1.03.32,2.32-.99,2.48-2.01,0-.83-.77-1.79-1.39-1.73,0-.59.6-1.6,1.39-2.51.79-.92,2.95-2.08,3.17-2.42s.12-.81-.41-1.04c-.16-.07-.65-.07-1.04.15.42-.61,1.4-2.13,2-2.37.68-.27,1.62.1,2.44.24,1.57.27,2.93.96,4.27,1.87,2,1.35,4.21,2.39,6.31,3.6.72.41,1.39.91,2.06,1.41.96.73,1.89,1.5,2.94,2.33-.25.55-.44,1.28-.87,1.83-1.85,2.36-3.55,4.76-3.66,7.91-2.02,2.12-1.9,5.13-3.15,7.61-1.11,2.21-1.5,4.8-2.05,7.26-.6,2.69-1,5.42-1.55,8.12-.21,1.04-.6,2.04-.96,3.22Z"/>
      <path class="cls-2" d="M71.15,32.16c1.98-2.6,3.83-4.88,5.57-7.09.6-.76,1.27-1.59,2.03-2.19,1.71-1.37,3.69-2.78,5.46-4.07.69-.5,1.48-1.24,2.22-1.24,2.7.01,4.89-1.44,7.3-2.17,1.03-.31,2.07-.68,3.13-.75,1.35-.1,2.73.17,4.09.09,3.02-.17,5.16,1.38,6.85,3.57,1.09,1.42,2.22,3.07.73,4.97,0,4.86-2.88,7.2-7.16,8.67-1.86.64-3.57,1.53-5.6,1.37-.37-.03-.84-.17-1.1-.01-2.72,1.64-5.83.9-8.74,1.39-2,.34-4.15-.23-6.23-.39-.97-.07-2.06-.45-2.9-.14-2.48.9-4.2-.42-5.64-2.01Z"/>
      <path class="cls-2" d="M68.56,31.12c-1.09-.58-2-.97-2.8-1.5-.8-.54-1.5-1.22-2.24-1.84,1.55-.74.11-1.88.26-2.83.86-5.24,3.32-9.84,5.58-14.47.91-1.87,2.77-3.43,4.5-4.72,3.55-2.64,7.47-3.35,11.79-1.73,1.09.41,2.49.05,3.11,1.43.71,1.56,1.09,2.84,0,4.72-1.4,2.43-3.06,4.23-5.3,5.87-2.43,1.78-4.59,3.91-7.21,5.48-.97.58-1.57,1.77-2.31,2.71-1.81,2.3-3.61,4.62-5.38,6.89Z"/>
      <path class="cls-2" d="M134.87,146.72c-3.93-.69-6.24-.12-9.27.56-1.41.32-2.62-.91-4.13.18-.89.64-2.55.62-4.04.19-2.64-.77-5.01-1.64-6.16-4.43-.55-1.33-1.31-2.58-1.9-3.9-.87-1.95-.56-3.84.62-5.54.24-.35,1.04-.33,1.86-.55.11,1.83.42,3.42.24,4.95-.16,1.39.34,2.65,1.09,3.33,1.76,1.59,3.54,3.15,6.01,3.95,2.44.8,4.56.05,6.7-.37,1.74-.34,3.39-1.15,5.25-1.33,1.28-.12,2.49-.93,3.72-1.46,2.5-1.08,3.46-.8,5.14,1.47,2,2.72,3.49,5.49,2.06,9.04-.35.86-.21,1.97-.14,2.95.25,3.57-2.33,5.46-4.66,7.22-.9.68-3.01.5-4.19-.07-3.58-1.73-4.1-5.01-1.61-8.19,1.02-1.31,1.73-2.8,2.91-4.05.86-.92.05-2.22.49-3.95Z"/>
      <path class="cls-2" d="M127.38,122.9c-3.6.02-7.14.38-10.5-1-.26-1.16-.17-2.63-.85-3.43-1.73-2.04-1.05-3.81-.03-5.65,1.32-.31,2.6-.58,3.87-.92,2.99-.8,5.48.62,7.77,2.06,1.97,1.24,2.22,3.71,1.18,6.05-.39.88-.86,1.73-1.44,2.89Z"/>
      <path class="cls-3" d="M48.96,54.15c-1.89-2.03-3.6-4.1-1.51-7.11.56-.57,1.42-.88,1.78-.91,1.42-.14,2.07-.03,2.91,0,2.76.11,4.56,3.32,3.41,5.88-1,2.23-1.71,2.82-3.9,1.89-1.23-.52-1.81.4-2.7.25Z"/>
      <path class="cls-2" d="M48.48,56.12c-.33.4-.7,1.53-1.03,1.92-.15-.13-1.22-.22-1.37-.35.35-.37,1-2.08,1.35-2.45.13.11.92.77,1.05.88Z"/>
      <path class="cls-2" d="M108.22,34.08c-.21-.04-.51-.21-.58-.39-.66-1.78-1.94-1.04-3.03-.7-.93.29-1.79.81-2.69,1.21-1.54.68-3.09,1.92-4.62,1.9-2.44-.03-4.75.64-7.12.92,0,0-.01-.02-.01-.03-2.61.11-7.18-.13-9.79-.01.02.34.16,1.02.18,1.36l12.71.2c0-.08,4.14.19,4.97-.17,1.47-.65,2.76-.26,4.21-.09,3.62.43,7.29.64,10.97-.55-1.69-1.5-2.95-3.28-5.19-3.65Z"/>
      <path class="cls-1" d="M59.87,45.2l-.94-1.03c-.33-.37-.48-.89-.35-1.37.33-1.31,1.01-2.29,2.37-2.59.65-.14,1.33.16,1.66.74,1.26,2.21,1.24,2.79-.62,4.39-.62.53-1.56.48-2.11-.12Z"/>
      <path class="cls-1" d="M70.52,41.72l-.16.33c-.35.75-1.12.29-1.48-.48-1.14-2.48-2.94-3.79-4.94-5.16-.49-.34-.57-1.03-.19-1.48h0c.35-.4.95-.46,1.37-.14,2.34,1.77,4.68,3.45,5.45,6.23.06.23.03.48-.07.69Z"/>
    </g>
  </g>
</svg>