<?xml version="1.0" encoding="UTF-8"?><svg id="_レイヤー_2" xmlns="http://www.w3.org/2000/svg" width="161.99" height="119.41" viewBox="0 0 161.99 119.41"><defs><style>.cls-1{fill:#964629;}.cls-1,.cls-2,.cls-3,.cls-4,.cls-5,.cls-6,.cls-7,.cls-8{stroke-width:0px;}.cls-2{fill:#231815;}.cls-3{fill:#de919a;}.cls-4{fill:#2e2421;}.cls-5{fill:#faa2ad;}.cls-6{fill:#f03c3c;}.cls-7{fill:#110d0d;}.cls-8{fill:#e996a1;}</style></defs><g id="design"><path class="cls-5" d="M110.57,2.94c2.25,0,4.38.22,6.61,1.01,2.04.72,4.55.47,6.79.15,3.79-.56,7.55-1.23,11.4-1.17.09.45.18.91-.29,1.23-1.95,1.35-3.83,2.82-5.88,4-2.57,1.48-4.66,3.52-5.83,6.1-1.79,3.96-5.03,5.48-8.78,6.76-2.75.94-5.6,2.01-7.91,3.7-2.18,1.61-4.44,3.16-6.56,4.87-1.14.92-2.41,1.68-3.66,2.45-1.16.71-2.22,1.57-3.32,2.35-4.61,3.25-9.26,6.48-14.08,9.4-1.93,1.17-4.26,2-6.75.84-1.09-.51-2.44.06-3.69-.54-1.04-.51-1.39-1.17-1.13-2.11.23-.85.58-1.81,1.19-2.38,2.05-1.92,3.14-4.41,4.37-6.83.43-.11.89-.18,1.3-.35,6.08-2.61,10.72-7.2,15.57-11.47,2.06-1.81,4.18-3.49,6.41-5.08,2.96-2.11,6.15-3.82,9.32-5.52,2.62-1.41,3.25-3.54,3.52-6.09.03-.92,1.29-.5,1.42-1.31Z"/><path class="cls-8" d="M152.93,57.68c-3.88.24-6.34-1.61-8.8-3.46-.36-.27-.78-.68-.83-1.07-.45-3.1-.88-6.22.2-9.28.6-1.72,3.48-3.05,5.26-2.48,1.83.58,3.56,1.35,5.23,2.32,3.5,2.04,5.76,6.49,5.12,10.35-.33,1.99-1.82,3.28-4.31,3.61-.79.11-1.61.02-1.87.02Z"/><path class="cls-1" d="M96.66,5.68c1.65-.77,3.44-.96,5.18-.69,1.64.25,2.93-1.07,4.52-.74-.64,2.05-1.79,3.76-3.64,4.86-4.79,2.84-9.49,5.77-13.81,9.34-3.9,3.22-8.11,6.08-11.68,9.71-.97.98-2.06,1.71-3.49,1.75-.04-1.98-.15-3.93,1.11-5.72.65-.93.14-2.18.26-3.28,2.12-.36,4.03-1.37,5.63-2.62,3.67-2.86,8.4-4.3,11.23-8.28,1.93-.55,2.68-2.71,4.56-3.35.14-.05.09-.64.13-.98Z"/><path class="cls-8" d="M74.39,18.76c-1.79-1.27-1.6-3.58-2.72-5.21-.28-.4.03-.9.45-1.16,2.88-1.78,5.42-4.06,8.42-5.67,1.19-.64,2.36-1.37,3.55-1.95,3.37-1.66,6.91-1.88,10.39-.16.06.03.04.22.06.33-2.81,1.37-5.6,2.77-7.02,5.81-2.94,1.59-5.53,3.69-8.24,5.62-.51.37-1.06.31-1.62.41-1.35.23-2.63.59-3.28,1.99Z"/><path class="cls-1" d="M42.11,44.51c1.5,0,3,0,4.51,0,1.83.01,2.58.66,2.78,2.47.22,2.05-.04,4.08-.72,6.01-.27.78-.86,1.74-2.08.89-.92-.64-2.17-.59-2.97-.22-2.24,1.05-4.53.38-6.77.52-1.52.09-1.95-.46-2-2.07-.05-1.85-.06-3.7,0-5.54.05-1.56.49-1.98,2.07-2.03,1.73-.05,3.47-.01,5.2-.01h0Z"/><path class="cls-2" d="M160,44.92c-2.01-2.89-4.17-5.48-7.81-6.19-2.36-.46-4.68-1.4-7.2-.43-1.36.52-2.05-.09-1.69-1.55.51-2.05,0-4.04-.34-5.91-.39-2.06-.4-4.07-.43-6.11-.09-6.35-.16-12.71-.24-19.06h0c.06-.92.16-1.83.16-2.75,0-1.87-.61-2.61-2.56-2.75-1.72-.13-3.54-.33-5.18.08-3.64.91-7.3.56-10.95.64-1.5.03-3.06.14-4.48-.23-3.18-.85-6.33-.66-9.5-.22-2.47.15-5.08-.16-7.38.55-3.29,1.03-6.45.25-9.4-.4-6.01-1.32-11,.09-15.53,3.88-.81.68-1.64,1.49-2.58,1.6-1.84.21-3.13,1.13-4.44,2.3-1.06.94-2.28,1.24-3.66.13-1.59-1.28-3.32-2.44-5.57-2.21-.29.03-.66-.2-.92-.4-1.84-1.43-4.26-.47-6.21-1.51-.23-.12-.66.03-.96.16-1.35.57-2.68,1.18-4.03,1.76-1.99.86-3.66,2.37-4.14,4.31-.88,3.6-3.16,6.77-3.21,10.6-.02,1.46-1.33,1.45-2.2,1.73-1.01.33-1.87-.27-2.01-1.33-.17-1.23-.72-2.34-.74-3.64-.07-3.35-1.8-6.02-4.22-8.15-5.71-5.03-12.18-6.25-19.36-3.51-2.09.79-3.75,1.93-4.76,4-1.06,2.15-2.07,4.36-2.46,6.68-.6,3.58-1.04,7.2.93,10.67,1.39,2.44,2.55,5.03,3.15,7.84.46,2.16.53,2.07-1.34,3.51-1.5,1.16-3.52,1.68-4.46,3.54-1.9,1.01-2.29,2.94-2.79,4.75-.54,1.95.15,4.02-.18,5.91-.42,2.39-.46,4.75-.6,7.13-.03.45,0,.94-.16,1.35-.72,1.89-.67,3.97-.28,5.75.93,4.27.53,8.61,1.01,12.89.57,5.13.15,10.37.15,15.55,0,.57.1,1.19-.09,1.71-.27.74-.75,1.4-.29,2.22.46.82,1.23.89,2.05.98.41.05.62.68,1.17.56,1.03.07,2.09,0,3.09.23,3.79.84,7.58,1.43,11.48,1.16.87-.06,1.84-.29,2.64.26.45.82.25,1.64.11,2.4-.42,2.35-.92,2.68-3.21,2.24-.55-.1-1.05-.49-1.59-.56-1.64-.2-3.2.06-4.41,1.31-.79.81-1.08,4.35-.48,5.42,1.58,2.82,4.02,4.55,7.24,4.11,2.5-.34,5-.32,7.48-.58,2.44-.25,4.47-3.2,3.64-5.46-.57-1.56-.48-2.86.33-4.22.29-.48.52-1,.71-1.53.37-1.05.39-2.45,1.11-3.1.91-.82,2.42-.26,3.67-.31,1.38-.05,2.82-.17,4.15.12,5,1.08,9.97,1.07,14.96.04.59-.12,1.38-.38,1.85.38.21.89-.53,1.47-.75,2.22-.62,2.16-1.4,3.92-4.55,3.82-3.54-.11-5.29,3.59-3.73,6.61.72,1.4,1.97,1.75,3.27,2.18,2.09.68,4.35.36,6.4.99,3.7,1.12,6.75-.89,6.29-5.35-.04-.34.08-.77-.07-1.03-1.04-1.73-.15-3.02.95-4.23,1.16-1.28,2.22-2.6,2.66-4.3.13-.52.48-.8.98-.75,3,.33,5.9-.72,8.87-.6,1.64.07,3.18-.25,4.7-.75,1.61-.53,3.27-.98,4.84-1.52,2.73-.94,5.27-2.5,7.81-3.93.76-.43,1.4-1.24,1.85-2.02,1.57-2.72,3.9-4.56,6.78-5.52,3.12-1.04,5.68-2.89,8.04-4.99,4.25-3.79,8.72-7.12,14.26-8.79.51,2.52-.22,4.91-.69,7.41-.93,0-1.73-.03-2.53,0-1.16.06-2.17.37-2.84,1.47-.97,1.61-1.27,3.57-1.01,5.14.25,1.54,2,3.05,3.57,3.56,4.64,1.51,9.23.99,13.39-1.64,2.46-1.55,2.84-4.32,1.27-6.89-.71-1.16-1.38-2.34-2.14-3.47-.35-.51-.47-1.02-.46-1.61.02-1.5-.25-3.07.08-4.49.37-1.59-.06-3.63,1.62-4.66,1.9-1.16,3.25-2.91,4.99-4.2,1.75-1.29,2.75-2.5,1.69-4.77-.33-.7-.29-1.84.58-2.54,1.1-.88,1.93,0,2.81.43.5.25.9.74,1.41.95,1.03.42,2.25,1.21,3.14.96,2.05-.58,4.1-.23,6.12-.55,2.4-.39,4.95-2.87,5.17-5.27.33-3.55.4-7.05-1.82-10.24ZM95.9,4.89c.1,0,.19.03.27.06.21.09.39.3.48.73,1.65-.77,3.44-.96,5.18-.69,1.64.25,2.93-1.07,4.52-.74-.64,2.05-1.79,3.76-3.64,4.86-4.79,2.84-9.49,5.77-13.81,9.34-3.9,3.22-8.11,6.08-11.68,9.71-.97.98-2.06,1.71-3.49,1.75-.04-1.98-.15-3.93,1.11-5.72.65-.93.14-2.18.26-3.28,2.12-.36,4.03-1.37,5.63-2.62,3.67-2.86,8.4-4.3,11.23-8.28,1.93-.55,2.68-2.71,4.56-3.35.14-.05.09-.64.13-.98-.1-.43-.27-.64-.48-.73-.09-.04-.18-.06-.27-.06-.05,0-.1,0-.15,0,.05,0,.1,0,.15,0ZM95.74,4.89c-.09,0-.18.01-.28.03.09-.01.19-.02.28-.03ZM72.12,12.39c2.88-1.78,5.42-4.06,8.42-5.67,1.19-.64,2.36-1.37,3.55-1.95,3.37-1.66,6.91-1.88,10.39-.16.06.03.04.22.06.33-2.81,1.37-5.6,2.77-7.02,5.81-2.94,1.59-5.53,3.69-8.24,5.62-.51.37-1.06.31-1.62.41-1.35.23-2.63.59-3.28,1.99-1.79-1.27-1.6-3.58-2.72-5.21-.28-.4.03-.9.45-1.16ZM135.08,4.15c-1.95,1.35-3.83,2.82-5.88,4-2.57,1.48-4.66,3.52-5.83,6.1-1.79,3.96-5.03,5.48-8.78,6.76-2.75.94-5.6,2.01-7.91,3.7-2.18,1.6-4.44,3.16-6.56,4.87-1.14.92-2.41,1.68-3.66,2.45-1.16.71-2.22,1.57-3.32,2.35-4.61,3.25-9.26,6.48-14.08,9.4-1.93,1.17-4.26,2-6.75.84-1.09-.51-2.44.06-3.69-.54-1.04-.51-1.39-1.17-1.13-2.11.23-.85.58-1.81,1.19-2.38,2.05-1.92,3.14-4.41,4.37-6.83.43-.11.89-.18,1.3-.35,6.08-2.61,10.72-7.2,15.57-11.47,2.06-1.81,4.18-3.49,6.41-5.08,2.96-2.11,6.15-3.82,9.32-5.52,2.62-1.41,3.25-3.54,3.52-6.09h0c.03-.92,1.29-.5,1.42-1.31,2.25,0,4.38.22,6.61,1.01,2.04.72,4.55.47,6.79.15,3.79-.56,7.55-1.23,11.4-1.17.09.45.18.91-.29,1.23Z"/><path class="cls-3" d="M40.61,25.76c1.36,2,.82,4.44,1.88,6.47.36.68-.04,1.53-.69,2.16-1.33,1.27-2.96,2.08-4.49,3.06-.28.18-.69.26-.9-.08-.16-.26-.29-.7-.18-.94,1.25-2.64,1.5-5.42,1.48-8.3,0-1.71,1.77-1.77,2.91-2.36Z"/><path class="cls-1" d="M44.62,36.63q2.77,5.1-2.58,5.11c-1.61,0-3.21,0-5.66,0,3.24-1.7,5.83-2.98,8.24-5.11Z"/><path class="cls-3" d="M15.28,42.92h-6.01c0-.38-.05-.77,0-.79,1.25-.38,1.98-2.53,3.36-1.6.88.59,1.98,1.29,2.63,2.39Z"/><path class="cls-7" d="M27.76,103.58c-.43-.05-.86-.11-1.28-.16-.12-1.38.82-1.61,1.68-1.15.83.45.5,1.09-.4,1.31Z"/><path class="cls-5" d="M36.22,36.42c1.25-2.64,1.5-5.42,1.48-8.3,0-1.71,1.77-1.77,2.91-2.36,1.36,2,.82,4.44,1.88,6.47.36.68-.04,1.53-.69,2.16-1.33,1.27-2.96,2.08-4.49,3.06-.28.18-.69.26-.9-.08-.16-.26-.29-.7-.18-.94Z"/><path class="cls-1" d="M34.84,46.57c.05-1.56.49-1.98,2.07-2.03,1.73-.05,3.47-.01,5.2-.01h0c1.5-.01,3-.02,4.51-.01,1.83.01,2.58.66,2.78,2.47.22,2.05-.04,4.08-.72,6.01-.27.78-.86,1.74-2.08.89-.92-.64-2.17-.59-2.97-.22-2.24,1.05-4.53.38-6.77.52-1.52.09-1.95-.46-2-2.07-.05-1.85-.06-3.7,0-5.54Z"/><path class="cls-5" d="M9.28,42.13c1.25-.38,1.98-2.53,3.36-1.6.88.59,1.98,1.29,2.63,2.39h-6.01c0-.38-.05-.77,0-.79Z"/><path class="cls-5" d="M78.96,80.53c-.1.54-.34,1.07-.31,1.64.27,5.64-1.31,11.18-.68,16.94-6.26,1.54-12.47,1.04-18.62.78-2.36-.1-4.61-.72-7.01.05-1.37.44-2.8-.65-4.34-.61-4.16.12-8.37.33-12.49-.09-8.17-.84-16.34-.35-24.51-.59-2.25-.06-4.45-1.04-6.77-.5-.65-2.3-.52-4.53-.16-6.94.53-3.49.03-7.13.24-10.69.25-4.14-1.16-8.13-.83-12.27.18-2.29.13-4.61.04-6.91-.09-2.19,1-4.2.77-6.4-.16-1.45.36-2.99-.51-4.36-.29-.46-.11-.84.12-1.26.57-1.06.31-2.24.38-3.36,4.15-.03,8.31-.04,12.46-.1.9-.01,1.79.05,2.71-.24,2.8-.87,3-1.65.87-4.09-.5-.77-1.14-1.29-2.13-1.19h0c-3.05-2.01-5.01-4.75-5.96-8.31-.67-2.49-1.62-4.9-2.45-7.34-1.07-3.13-.78-6.21-.06-9.39.8-3.52,3.33-5.18,6.27-6.11,4.68-1.48,8.83-.7,12.91,2.08,2.28,1.56,3.08,4.19,3.8,6.67.88,3.02,1.54,6.12,2.03,9.22.4,2.54-.29,5-1.78,7.11-2.48,3.51-2.67,7.15-1.82,11.32.53,2.62,1.84,5.46.39,8.34-.53,1.06.73,2.78,2.01,3.09.44.11.92.06,1.38.06,4.98,0,9.95,0,14.93-.03,1.77-.01,2.27-.48,2.36-2.19.17-3.06.71-6.06,1.27-9.07.2-1.08.5-2.57-.78-3.13-2.58-1.12-3.39-3.63-4.58-5.7-2.39-4.16-3.75-8.68-3.59-13.61.07-2.35,1.1-4.36,1.69-6.53.42-1.5.78-3.16,1.68-4.37,2.12-2.84,7.13-5.33,10.9-3.51.39.19.91.1,1.33.25,6.03,2.04,8.64,4.43,10.54,10.54,1.5,4.84.94,9.57-2.25,13.76-1.59,2.08-3.19,4.15-4.81,6.21-2.45,3.1-2.12,4.46,1.42,6.28,1.44.74,3.01,1.09,4.53,1.23,1.6.15,3.04.96,4.7.83,1.11-.08,1.56.76,1.51,1.86-.04,1.04-.03,2.08-.02,3.12.04,4.1.49,8.08,1.92,12.03,1.21,3.35,1.6,7,2.28,10.54.34,1.75-.68,3.29-.99,4.95Z"/><path class="cls-5" d="M159.11,54.06c-.33,1.99-1.82,3.28-4.31,3.61-.79.11-1.61.02-1.87.02-3.88.24-6.34-1.61-8.8-3.46-.36-.27-.78-.68-.83-1.07-.45-3.1-.88-6.22.2-9.28.6-1.72,3.48-3.05,5.26-2.48,1.83.58,3.56,1.35,5.23,2.32,3.5,2.04,5.76,6.49,5.12,10.35Z"/><path class="cls-2" d="M52.59,84.12c-.29-.05-.7.07-.93.26-.4.32-.37.9-.18,1.26.25.49.7.9,1.11,1.3,1.52,1.47,1.97,3.22,1.45,5.53-1.44-.48-2.58.62-4.18.29-2.9-.6-5.22-1.99-7.35-3.89,0-.6-.39-1.05-.56-1.58-.6-1.77-.36-2.53,1.48-2.95,1.98-.46,3.06-1.87,4.34-3.12,1.72-1.67,2.1-3.76,1.34-5.93-.36-1.02-.87-2.23-1.13-2.48-.59-.58-1.2-1.1-1.66-1.35-2.64-1.47-5.51-1.34-8.35-1.27-2.54.06-4.01,1.36-4.49,3.8-.13.67.11,1.48-.18,2.04-.96,1.85-.36,3.49.36,5.2.85,2.03,2.75,2.01,4.65,2.21,0,1.6-.01,2.97,0,4.34,0,.66-.33.91-.89,1.24-3.29,1.95-6.55.96-9.7-.17-1.69-.61-1.73-2.71-.32-3.95.24-.21.69-.18.9-.4.55-.59.59-1.38-.16-1.71-.8-.35-1.57-.98-2.58-.75-.45.1-.82.1-1.11.59-1.23,2.03-.98,4.3-.63,6.38.23,1.38,1.66,2.44,3.19,2.86,3.07.86,6.25,1.73,9.37,1.04,1.34-.29,2.68-.34,4-.62,3.45,1.33,6.89,2.65,10.56,3.32,2.55.47,4.57-.12,5.31-2.38.37-1.12.88-2.28.85-3.6-.06-2.68-1.87-5.09-4.49-5.52ZM36.83,76.92c-.82-2.21-.11-3.79,2.22-3.92.34-.02.69,0,1.25,0,1.43-.45,2.83.64,4.39.82,1.66.19,2.38,3.75,1.26,5.1-1.18,1.41-2.33,2.21-4.33,1.08-1.65-.94-3.9-.66-4.79-3.06Z"/><path class="cls-7" d="M27.94,58.12c.23,1.13-.55,1.87-1.37,2.5-.98.74-2.06,1.34-3.11,1.99-2.25,1.4-4.21,3.13-5.88,5.18-.21.25-.61.67-.73.79-.65.65-1.08,1.44-2.19.56-1.13-.9-.3-1.61.03-2.37.67-1.58,1.65-2.79,3.2-3.76,1.91-1.19,3.52-2.88,5.24-4.37.86-.74,1.62-1.56,2.74-1.99,1.56-.6,2.14-.26,2.08,1.47Z"/><path class="cls-4" d="M53.59,57.66c4.1,1.07,7.99,2.47,10.91,5.73.37.42.75.81.93,1.41.38,1.31,1.52,2.43.89,3.96-1.5-.05-2.04-1.39-2.82-2.27-2.23-2.53-4.84-4.44-7.93-5.75-.93-.4-1.83-.86-2.69-1.37-.37-.22-.78-.55-.66-1.1.19-.85.9-.44,1.37-.6Z"/><path class="cls-6" d="M40.3,72.99c1.43-.45,2.83.64,4.39.82,1.66.19,2.38,3.75,1.26,5.1-1.18,1.41-2.33,2.21-4.33,1.08-1.65-.94-3.9-.66-4.79-3.06-.82-2.21-.11-3.79,2.22-3.92.34-.02.69,0,1.25,0Z"/><path class="cls-5" d="M26.91,107.4c-1.25,1.51-1.58,2.96-.64,4.68.59,1.08-.35,1.73-.97,1.76-2.87.15-5.74.14-8.61.02-.55-.02-1.1-.75-1.59-1.21-1.03-.96.12-1.69.41-2.42.27-.69.91-.19,1.43.05,1.02.45,2.09.8,3.15,1.14,2.29.73,3.96-.31,4.24-2.69.12-1.02.09-2.07.09-3.1,0-1.38.08-3.18.31-3.56s2.55-.25,3.41.22c.83.45-.39,4.1-1.24,5.13Z"/><path class="cls-5" d="M61.02,108.16c-1.47,1.16-1.56,2.71-.83,4.3.25.55.36,1.07.38,1.64.03.79-.17,1.24-1.11,1.32-2.65.23-5.17-.4-7.69-.99-.47-.11-1.04-.56-.89-1.28.12-.58.61-.59,1.07-.59.8,0,1.61.01,2.41-.01,2.64-.08,4.59-1.66,4.66-4.23.04-1.32.88-2.3.92-3.58.02-.55.63-1.3,1.47-1.13.79.16.47.9.54,1.42.01.11,0,.23,0,.42.09.99.03,1.95-.93,2.71Z"/><path class="cls-5" d="M133.21,87.46c-.46.7-.6,1.58-1.92,1.57-1.53-.02-3.12.4-4.58.92-1.17.41-2.09.4-3.24-.08-1.28-.54-1.45-1.56-1.81-2.62.89-.34,1.55-1.07,2.5-1.03,1.2.05,2.12-.69,3.17-1.07,1.5-.54,2.09-1.45,2.01-3.1-.14-2.75-.06-5.51-.07-8.27,0-.59.34-.81.86-.77.38.03.55.33.55.7,0,1.38.13,2.78-.05,4.13-.26,1.99,1.13,3.67.86,5.67-.06.46.72,1.12,1.22,1.57.8.7,1.12,1.46.51,2.38Z"/><path class="cls-5" d="M139.07,62.02c-.15,1.03-.58,1.57-1.53,2.03-7.53,3.67-14.35,8.58-21.81,12.39-3.03,1.55-5.58,3.76-7.85,6.34-.95,1.08-2.21,2.2-3.54,2.6-4.15,1.23-7.49,3.7-10.73,6.36-1.35,1.11-2.7,1.88-4.49,2.23-2.19.43-4.38,1.23-5.89,3.14-.33.42-.69.95-1.68.86-.5-2.84-.45-5.8.03-8.64.21-1.24.41-2.47.4-3.7,0-2.18,0-4.36,1.07-6.32.43-.8.46-1.62.27-2.34-1.08-4.15-1.04-8.48-2.39-12.62-.89-2.74-1.6-5.62-2.23-8.46-.37-1.65-.34-3.49-.05-5.17.33-1.9,1.29-3.6,3.05-4.73,2.67-1.7,5.38-3.36,7.92-5.25,5.93-4.4,12.17-8.37,17.93-13,1.15-.92,2.49-1.53,3.91-1.99,1.92-.63,3.77-1.53,5.73-1.96,4.02-.88,6.81-3.37,8.43-6.86,1.52-3.29,3.53-5.76,6.84-7.19,1.92-.83,3.17-2.56,4.94-3.61.39-.23.7-.61,1.35-.41.65.42.28,1.17.24,1.81-.45,6.79,1.01,13.52.64,20.31-.2,3.65-.79,7.27-.71,10.96.09,4.01-.09,8.03.76,11.98.46.52.27.97.31,1.52.03.58.25,1.26-.2,1.93.14,2.64-.36,5.22-.73,7.82Z"/><path class="cls-2" d="M107.78,57.43c.08,2.86-.28,5.18-1.42,7.32-.17.31-.27.59-.71.58-.7,0-.67-.5-.67-.94,0-.68.08-1.31.43-1.97.66-1.28.26-2.72.23-4.08-.02-.93-.98-1.43-1.98-1.01-1,.42-1.98.79-2.78-.12-.57-.65.24-1.64,1.76-2.46.52-.28.99-.49,1.59-.54.89-.07,1.36-.8,1.86-1.43.59-.73-.15-1.23-.34-1.84-.32-1.05.26-1.84,1.19-2.18.6-.21,1.45-.22,1.51.82.05.81.03,1.62.02,2.42,0,.59.32.88.83.77.56-.13.6-.64.35-1.07-.78-1.35.53-1.03.85-.88,1.49.7,2.5,1.98,3.44,3.28.45.63.66,1.43,1.05,2.11.3.51.72,1.05,0,1.43-.48.26-1.13.19-1.6-.24-.67-.62-1.3-1.24-1.67-2.14-.23-.56-1.05-.52-1.52-.22-.67.43.21.69.25,1.06.26,2.42,2.05,4.23,2.56,6.57.44,1.99.31,3.81-.84,5.51-.26.38-.58.74-.95,1-.81.57-1.81.72-2.52.04-.67-.64-.19-1.4.3-2.13,2.2-3.25,2.14-4.72-.16-7.97-.29-.41-.54-.84-1.09-1.7Z"/><path class="cls-2" d="M120.89,45.85c.58,1.08-.94,2.23-.35,3.38.71,1.37-.39,2.09-.78,3.05-.27.67-.19,1.15.32,1.49,1.79,1.18,3.3,3.23,5.93,1.95.37-.18.99-.18,1.36,0,.72.36,1.33.89,1.23,1.87-.09.83-.71,1.14-1.31,1.43-.28.14-.71.11-1.02.01-2.86-.89-5.96-1.09-8.43-3.17-.69-.58-1.15-.97-1.1-1.85.02-.35-.07-.72.04-1.03,1.03-3.02,1.75-6.08,1.49-9.32-.03-.38.63-1.07,1.08-1.19.78-.21,1.3.52,1.5,1.14.2.62.04,1.36.04,2.25Z"/><path class="cls-2" d="M98.55,61.17c.6-.04,1.24.02,1.79.59.73.76.67,1.74-.31,2.17-2.07.89-4.25,1.48-5.86,3.28-.59.67-1.52.14-2.03-.59-.64-.89-.55-2.15.15-2.8.71-.66,5.29-2.63,6.25-2.65Z"/><path class="cls-2" d="M96.86,72.26c-.43,0-1.02.08-1.57-.02-.96-.18-.99-1.18-1.29-1.83-.31-.68.61-.72,1.01-1.05.71-.59,1.51-.39,2.28-.45,1.01-.08,2.04.14,2.99-.51.93-.63,1.77-.28,2.34.6.65,1.01-.33,1.44-.86,1.93-1.34,1.24-3,1.5-4.91,1.32Z"/><path class="cls-2" d="M128.45,36.24c2.34-.17,4.08.61,5.85,1.17.45.14,1.3.12,1.13.95-.14.68-.66,1.25-1.4,1.26-1.22.03-2.41.19-3.63-.47-1.14-.62-1.51-1.5-1.95-2.91Z"/><path class="cls-2" d="M94.26,55.78c-1.15-.39-1.97.07-2.53,1.1-.39.02-.7.05-1.18.05-.05-1.02-.04-2.05-.15-3.06-.14-1.23-1-1.92-2.03-1.75-.93.16-1.79,1.36-1.31,2.32.43.87.43,1.74.64,2.6-.07,1.16-.8,1.65-1.76,2.23-.83.5-1.79.32-2.52.93-.59.49-.9,1.04-.68,1.78.21.71.87.52,1.39.68,1.73.55,2.5-1.53,4.05-1.39.03,2.06.52,4.26-.02,6.16-.85,2.97-.23,5.9-.53,8.82-.09.88.2,1.56.91,2.08.7.51,1.56.26,1.82-.61.57-1.94.95-3.75.17-5.89-.84-2.29-1.34-4.91-.69-7.34.36-1.35.52-2.64.56-3.99,0-1,.42-1.72,1.39-2.06.23,0,.46,0,.69,0,1.19,0,1.97-.51,2.11-1.76.04-.33.07-.77-.32-.9Z"/><path class="cls-2" d="M139.8,54.21c-.2.08-.55.12-.58.24-.27,1.24-.56,2.25-2.04,2.8-1.61.61-3.22.66-4.7.27-1.58-.43-1.25-1.89-.9-3.17,1.19-.05,1.97.8,3.07.71,1.04-.09,1.75-.43,2.27-1.28,1.2-1.93.13-4.48-2.15-5.05-.43-.11-.94-.08-1.24.36-.26.37-.4.83-.69,1.16-.44.5-.88,1.3-1.62,1.08-.89-.26-1.89-1.02-1.82-1.87.15-1.79-.96-3.3-.82-5.03.04-.46-.13-.96.01-1.38.22-.66.66-1.27,1.46-1.22.61.04,1.12.55,1.24,1.06.18.76.06,1.6.1,2.4.08,1.71.8,2.25,2.42,1.87q2.91-.69,4.23,1.64c.43.77.58,1.76,1.66,1.97.96,1.08.99,2.16.1,3.44Z"/><path class="cls-2" d="M27.9,72.71c-.95,0-1.97-.11-2.38-.89l-.08-.16c-.63-1.22-1.23-2.38-1.03-3.82.18-1.26,1.21-1.81,2.31-2.22.88-.33,1.64-.48,2.32-.48.75,0,1.39.19,1.97.58.95.64,1.59,4.08.98,5.18-.34.61-1,1.06-2.21,1.52-.54.2-.95.28-1.48.28-.14,0-.27,0-.4,0Z"/><path class="cls-2" d="M51.08,71.68c-.59,0-1.1-.11-1.49-.34-.46-.26-1.56-1.68-1.79-2.42-.48-1.53-.22-2.67.79-3.49.67-.53,1.61-.85,2.53-.85.69,0,1.29.18,1.68.51.59.49,1,.93,1.31,1.37.73,1.04.89,2.23.42,3.27-.48,1.06-1.51,1.76-2.82,1.91-.22.02-.43.04-.62.04Z"/></g></svg>