<?xml version="1.0" encoding="UTF-8"?>
<svg id="_レイヤー_2" data-name="レイヤー 2" xmlns="http://www.w3.org/2000/svg" viewBox="0 0 102.91 108.27">
  <g id="design">
    <g>
      <path d="M72.45,62.8l-13.18-20.24c-3.73-5.72-2.11-13.38,3.61-17.1,5.72-3.73,13.38-2.11,17.1,3.61l1.23,1.88,1.68-.83c6.13-3.01,13.53-.48,16.54,5.65,3.01,6.13.48,13.54-5.65,16.54l-21.34,10.48Z" style="fill: #fff; stroke-width: 0px;"/>
      <path d="M81.84,98.03l-4.75-14.53c-1.34-4.11.9-8.52,5-9.87,4.11-1.34,8.52.9,9.87,5l.44,1.35,1.16-.23c4.24-.84,8.35,1.92,9.19,6.16.84,4.24-1.92,8.35-6.16,9.19l-14.76,2.92Z" style="fill: #fff; stroke-width: 0px;"/>
      <path d="M15.3,24.08L3.11,14.87C-.34,12.26-1.02,7.36,1.58,3.91,4.19.46,9.09-.22,12.54,2.38l1.14.86.82-.85c3-3.11,7.95-3.19,11.06-.19,3.11,3,3.19,7.95.19,11.06l-10.45,10.82Z" style="fill: #fff; stroke-width: 0px;"/>
      <path d="M28.39,108.27l-9.13-9.39c-2.58-2.66-2.52-6.9.14-9.48,2.66-2.58,6.9-2.52,9.48.14l.85.87.81-.62c2.95-2.24,7.15-1.67,9.39,1.28,2.24,2.95,1.67,7.15-1.28,9.39l-10.26,7.8Z" style="fill: #fff; stroke-width: 0px;"/>
    </g>
  </g>
</svg>