<?xml version="1.0" encoding="UTF-8"?>
<svg id="_レイヤー_2" data-name="レイヤー 2" xmlns="http://www.w3.org/2000/svg" viewBox="0 0 219.91 298.19">
  <defs>
    <style>
      .cls-1 {
        fill: #231815;
      }

      .cls-1, .cls-2, .cls-3, .cls-4, .cls-5, .cls-6 {
        stroke-width: 0px;
      }

      .cls-2 {
        fill: #fdfdfd;
      }

      .cls-3 {
        fill: #faa2ad;
      }

      .cls-4 {
        fill: #f03c3c;
      }

      .cls-5 {
        fill: #994729;
      }

      .cls-6 {
        fill: #fff;
      }
    </style>
  </defs>
  <g id="design">
    <g>
      <g>
        <path class="cls-6" d="M189.45,62.8l-13.18-20.24c-3.73-5.72-2.11-13.38,3.61-17.1,5.72-3.73,13.38-2.11,17.1,3.61l1.23,1.88,1.68-.83c6.13-3.01,13.53-.48,16.54,5.65,3.01,6.13.48,13.54-5.65,16.54l-21.34,10.48Z"/>
        <path class="cls-6" d="M198.85,98.03l-4.75-14.53c-1.34-4.11.9-8.52,5-9.87,4.11-1.34,8.52.9,9.87,5l.44,1.35,1.16-.23c4.24-.84,8.35,1.92,9.19,6.16.84,4.24-1.92,8.35-6.16,9.19l-14.76,2.92Z"/>
        <path class="cls-6" d="M132.3,24.08l-12.19-9.21c-3.45-2.6-4.13-7.51-1.53-10.96,2.6-3.45,7.51-4.13,10.96-1.53l1.14.86.82-.85c3-3.11,7.95-3.19,11.06-.19,3.11,3,3.19,7.95.19,11.06l-10.45,10.82Z"/>
        <path class="cls-6" d="M145.4,108.27l-9.13-9.39c-2.58-2.66-2.52-6.9.14-9.48,2.66-2.58,6.9-2.52,9.48.14l.85.87.81-.62c2.95-2.24,7.15-1.67,9.39,1.28,2.24,2.95,1.67,7.15-1.28,9.39l-10.26,7.8Z"/>
      </g>
      <g>
        <path class="cls-1" d="M10.94,147.84c-.64-.92-1.16-1.96-1.94-2.74-7.66-7.61-6.66-22.75-1.72-29.95,3.57-5.22,8.28-6.99,14.29-6.17,3.44.47,6.38,2.22,9.15,4.07,1.28.85,2.31,2.58,2.74,4.11,1.39,4.98,2.56,10.03,3.6,15.1.5,2.45.05,4.92-.82,7.32-1.17,3.24-2.16,6.55-3.35,10.22,3.98-.22,7.66-.5,11.34-.6,1.9-.05,3.8.19,5.7.36,1.32.12,2.64.35,4.49.6-1.4-1.97-2.65-3.49-3.61-5.18-.7-1.24-1.33-2.67-1.44-4.06-.4-5.05-.4-10.14-.87-15.19-.48-5.24,1.83-9.41,4.61-13.42,1.47-2.12,3.17-4.12,5.04-5.9,1.09-1.04,2.63-1.76,4.09-2.21,3.79-1.15,7.54-.95,11.14.95,3.1,1.63,6.1,3.35,8.68,5.78,1.76,1.66,3.5,3.24,3.28,5.78.44.21.63.39.82.39,4.08,0,5.74,1.05,7.12,4.82,1.04,2.85,1.95,5.76,2.78,8.68,1.24,4.35,3.15,8.41,5.1,12.47,2.28,4.76,1.98,7.69-.65,12.37.68.32,1.37.6,2.02.97,1.26.71,2.51,1.45,3.74,2.21,2.94,1.82,5.87,3.67,9.15,5.73.94-6.74,5.21-11.05,8.89-15.68.96-1.21,2.38-2.05,3.63-3.02.62-.48,1.46-.72,1.98-1.28,3.7-3.93,8.73-5.46,13.45-7.57,3.18-1.42,6.34-2.88,9.51-4.33.51-.23.99-.59,1.52-.74,4.52-1.31,8.42-3.68,12.06-6.62,1.09-.88,2.58-1.41,3.97-1.74,2.18-.53,4.1.49,4.92,2.58,1.31,3.37,1.16,6.62-1.3,9.52-2.82,3.32-6.17,5.92-10.56,7.4,1.42,5.65-1.48,9.29-5.56,12.23-.09.34-.26.59-.2.76,1.27,3.27-.26,5.43-2.83,7.14-1.68,1.12-3.44,2.13-5.32,3.28.93,4.32-1.77,6.02-5.24,7.29-3.22,1.18-6.5,1.78-10.4,1.48,1.68,2.14,3.36,3.51,5.43,4.22,2.18.75,4.22,1.66,5.8,3.34,4.79,5.12,11.2,7.4,17.4,10.03,2.58,1.09,5.18,2.35,7.9,2.89,6.09,1.21,8.81,7.05,7.1,12.45-1.92,6.05-2.39,12.12-2.45,18.34-.04,4.16-.16,8.33-.36,12.49-.06,1.28-.49,2.55-.84,4.26.99-.24,1.69-.33,2.34-.57,6.71-2.58,14.28.15,16.79,6.34.78,1.92.81,4.16,1.03,6.27.1.99-.32,2.02-.25,3.02.25,3.89-2.04,5.71-5.34,6.77-.11.03-.21.08-.32.12-4.17,1.72-8.33,2.09-12.34-.36-2.67-1.64-5.12-1.83-7.79.07-2.36,1.68-5.09,2.17-8.04,2-1.6-.09-3.24.55-4.77.84-.26,5.46,2.43,8.32,7.01,9.81,1.92.63,3.83,1.33,5.71,2.08,4.33,1.72,6.99,4.79,7.63,9.51.3,2.21.48,4.45-1.69,5.75-2.14,1.28-4.41.77-6.36-.64-2.46-1.78-4.8-3.74-7.25-5.53-.98-.72-2.06-1.43-3.2-1.76-4.62-1.34-7.78-4.48-10.23-8.35-1.97-3.11-3.62-6.43-5.33-9.51-2.96.17-5.83.33-8.95.51.35,3.12,2.36,5.3,3.93,7.66.29.44,1.17.57,1.8.68,2.49.45,4.35,1.83,5.73,3.86,1.58,2.33,3.13,4.64,5.28,6.55,2.01,1.78,2.48,4.18,1.61,6.81-.92,2.79-2.59,3.8-5.47,2.93-2.78-.84-5.1-2.47-6.63-4.95-1.11-1.79-2.51-3.04-4.36-4.07-3.71-2.08-6.55-5.17-8.77-8.76-1.83-2.95-3.38-6.07-5.07-9.15-2.1.14-4.21.34-6.33.38-.86.01-1.86-.14-2.57-.58-4.29-2.67-9.04-4.66-12.58-8.44-.2-.21-.6-.23-1.15-.43.06,1.12.13,2.08.16,3.04.07,2.56-.57,4.91-2.11,6.99-1.78,2.42-3.6,2.76-6.09,1.14-1.62-1.05-2.46-2.62-2.93-4.4-1.09-4.05-2.56-7.93-4.93-11.43-.31-.46-.62-1.01-.67-1.54-.37-3.55-2.77-4.89-5.83-5.94-4.46-1.53-8.82-3.21-12.83-5.94-2.89-1.97-6.5-2.89-9.94-4.34-.7,1.84.23,3.44.82,5.05.35.94,1.05,1.75,1.42,2.68,1.5,3.73,3.62,6.97,6.89,9.42,3.17,2.38,4.78,5.96,6.67,9.27,1.23,2.15,1.04,4.67.13,6.89-.61,1.49-1.54,3.19-3.62,3.07-2.41-.14-4.78-.61-6.12-2.94-.78-1.36-1.54-2.79-1.97-4.28-.96-3.36-3.36-5.51-5.9-7.58-2.95-2.41-5.43-5.04-5.72-9.17-.1-1.42-.76-2.83-1.32-4.17-2.17-5.24-3.5-10.69-4.3-16.51-.79-.28-1.63-.52-2.43-.87-2.67-1.17-5.31-2.4-7.97-3.57-1.23-.54-2.48-1.01-3.73-1.49-1.25-.48-2.67-.69-3.73-1.43-2.49-1.72-5.04-3.33-7.66-4.84-1.84-1.06-3.43-2.37-5.74-2.57-1.61-.14-2.77-1.57-3.17-3.19-.37-1.52-.52-3.1-.65-4.66-.45-5.5-.75-11.01-1.32-16.5-.22-2.1-1.03-4.13-1.5-6.21-1.52-6.64-1.29-13.41-1.51-20.14-.13-4.05-.35-8.1-.32-12.15.03-3.93,1.05-4.99,4.95-5.3,1.77-.14,3.58.14,5.36.23l1.01.06c-.13-.25-.26-.49-.38-.74ZM102.25,257.83c-3.1-3.27-7.34-4.33-11.66-6.26.54,2.3,1.56,3.6,3.33,4.26,2.5.94,5.01,1.84,7.52,2.76,4.71,5.03,11.79,8.18,15.72,6.8-5.08-2.58-10-5.07-14.92-7.57ZM47.89,160.33c.93-1.95.94-3.72.03-6.05-.57-.45-1.14-1.3-1.7-1.28-2.34.06-4.68.3-6.98.67-.56.09-1.43.98-1.42,1.48.05,1.77.35,3.54.73,5.28.08.39.86.9,1.29.88,1.3-.06,3.11.09,3.79-.66,1.53-1.71,2.84-.54,4.26-.31ZM98.25,148.78c.32-2.04-.57-3.82-1.54-5.42-2.37-3.91-3.54-8.24-4.87-12.53-.77-2.47-1.62-4.91-2.52-7.33-.29-.78-.83-1.47-1.28-2.22-.58.25-.97.3-1.15.52-1.47,1.86-1.6,7.77-.16,9.64.45.59,1.16,1.03,1.83,1.38,2.73,1.44,2.86,2.1.74,4.38-.21.23-.32.55-.53.92.39.31.71.61,1.07.85,2.95,2.08,3,2.32.71,5.07-.76.9-.92,1.75-.04,2.71,2.38.29,5.02-.13,6.84,2.08-.06,1.7-.71,2.72-2.65,2.62-.88-.05-1.78.26-2.67.4.02.26.03.52.05.78,1.03.09,2.07.28,3.1.25,2.63-.06,3.38-1.11,3.07-4.1ZM151.59,261.35c-3.09-1.33-6.17-2.66-9.26-3.98-.62-.26-1.25-.48-1.87-.73-2.59-1.03-5.21-2.02-7.77-3.12-1.54-.67-2.93-1.78-4.51-2.26-3.82-1.16-7.11-3.27-10.46-5.3-2.21-1.34-4.34-2.92-6.72-3.85-2.78-1.09-5.11-2.68-7.42-4.51-5.76-4.54-10.9-9.67-15.57-15.58-1.77-.13-3.65-.33-5.53-.39-2.56-.08-5.13.1-7.68-.09-3.06-.23-6.07-1.27-9.69-.51.76.69,1.18,1.15,1.67,1.51.98.74,2.12,1.32,2.99,2.17,2.13,2.08,4.35,3.84,7.47,4.2,1.53.18,2.27,1.37,2.34,2.88.04.9-.14,1.81-.04,2.69.26,2.43.31,4.93,1.01,7.24.78,2.55,2.19,4.91,3.33,7.36.73,2.33,1.09,4.87,2.28,6.94,1.93,3.34,3.5,6.74,4.47,10.46.19.74.56,1.43.88,2.22,2.28-2.91,2.17-6.8-.45-9.03-2.24-1.91-3.54-4.28-4.53-6.93-.47-1.25-.99-2.48-1.48-3.73-.21-2.01-.04-4.16-.69-6.01-1.68-4.77-1.77-9.68-1.94-14.61-.06-1.73.61-2.91,1.83-3.03,1.53-.15,2.22.94,2.67,2.13.23.59.13,1.31.15,1.97.05,1.24.04,2.48.12,3.71.24,3.4,1.77,5.77,4.97,7.34,3.72,1.82,7.22,4.08,10.8,6.18,2.71,1.59,5.21,3.8,8.12,4.74,5.62,1.8,10.53,4.82,15.58,7.66,1.94,1.09,4.04,1.91,6.1,2.8,1.54.66,3.15,1.16,4.67,1.86,1.25.58,2.33,1.08,3.8.43,1.38-.61,2.63,0,3.41,1.38.44.78.98,1.51,1.39,2.31,1.44,2.78,2.62,5.73,4.33,8.34,2.04,3.12,4.5,5.97,8.61,6.45,4.36,2.26,7.4,6.46,12.03,8.61.48-4.4-1.33-7.17-5.08-8.09-2.28-.56-4.57-1.05-6.86-1.57-4.45-2.66-7.54-6.24-8.17-11.62-.14-1.17-.72-2.37-1.37-3.38-1.07-1.66-.86-2.92.73-4.01,1.99-.03,4,1.94,6.33-.22-1.88-.38-3.45-.69-5.01-1ZM89.14,157.57c-2.11-.21-4.21-.9-6.05-.49-2.13.48-3.99.03-5.97-.26-1.31-.19-2.72-.52-3.95-.23-1.61.38-2.85.46-3.82-1.08-.93-1.48-.52-2.84.4-4.08,1.27-1.72,2.66-3.35,3.97-5.04,1.78-2.32,3.68-4.57,5.23-7.04.86-1.37,1.46-3.11,1.57-4.72.38-5.16.39-10.34.73-15.51.17-2.56-.67-4.33-2.85-5.63-2.69-1.6-5.18-3.6-8.01-4.88-2.59-1.18-5.51-1.01-8.2.16-.64.28-1.07,1.05-1.57,1.62-.96,1.09-1.93,2.17-2.83,3.31-2.8,3.55-5.53,7.1-5.08,12.07.33,3.59.65,7.2.57,10.79-.08,3.86,1.08,7.01,3.78,9.75.92.93,1.62,2.2,2.04,3.45,1.02,3-.78,5.03-3.92,4.67-1.19-.14-2.39-.16-3.37-.22-.27.42-.38.51-.38.61-.02,1.13-.01,2.26-.02,3.38,0,1.13.07,2.27-.04,3.38-.16,1.56-1.72,3.17-3.11,3.24-.68-.36-1.46-.77-2-1.06-1.12.44-2.21,1.3-2.89,1.05-1.69-.63-3.07-.28-4.48.51-1.18.66-2.01.1-2.58-.79-.4-.62-.55-1.45-.68-2.2-.43-2.51-.79-5.03-1.19-7.66-1.52,0-2.63.02-3.74,0-2.59-.05-3.7-1.4-3.13-3.9.17-.76.49-1.5.87-2.19,2.11-3.8,2.67-8.08,3.89-12.16.71-2.36.38-4.61-.38-6.91-.49-1.48-.64-3.08-.99-4.61-.47-2.08-.84-4.2-1.54-6.21-.39-1.09-1.18-2.33-2.14-2.87-3.15-1.77-6.48-2.97-10.26-2.5-2.17.27-3.71,1.13-5.07,2.88-3.86,4.98-4.51,10.75-4.03,16.64.24,2.92,1.22,5.89,3.37,8.29,2.02,2.25,3.91,4.64,5.62,7.13.86,1.25,1.68,2.91.67,4.43-1.1,1.65-2.83,1.55-4.57.98-.85-.28-1.75-.48-2.64-.57-1.87-.18-3.74-.27-5.8-.41-.35,4.22-.15,8.01.28,11.79.43,3.78,1.12,7.51.52,11.4-.68,4.41.11,8.74,1.79,12.89.37.92.63,1.93.73,2.91.32,3.47.56,6.95.81,10.42.21,3,.39,6.01.58,8.91.99.28,1.85.33,2.48.74,2.42,1.53,5.08,1.58,7.82,1.61,4.28.05,8.61-.07,12.81.6,4.4.7,8.75.6,13.14.54,1.72-.02,3.28.18,4.89.95,1.37.66,3.02.95,4.55,1,4.29.15,8.58.05,12.87.15,1.9.04,3.8.34,5.69.53,2.24.22,4.55.93,6.69.57,2.6-.43,5.09-.44,7.51.09,1.32-1.02,1-2.34,1.03-3.53.06-2.71.04-5.41.09-8.12.1-5.74.31-11.48.3-17.23,0-5.83-.29-11.66-.29-17.48,0-3.9.31-7.8.45-11.7.02-.66-.1-1.32-.17-2.16ZM167.92,259.91c0-1.84-.01-3.51,0-5.18.01-1.01-.1-2.07.14-3.03.97-3.8.78-7.81,2.26-11.53.39-.99.15-2.23.19-3.35.28-7.43.54-14.86.87-22.28.04-.99.46-1.96.66-2.95.45-2.19,1.04-4.36,1.28-6.57.22-2.08-.38-2.69-2.37-3.47-1.35-.53-2.69-1.08-3.99-1.72-4.14-2.02-8.11-4.51-12.43-6.01-3.43-1.19-6.23-2.95-8.89-5.26-2.61-2.26-5-4.9-8.72-5.47-.72-.11-1.43-.68-2.02-1.19-1.94-1.71-3.89-3.42-5.7-5.26-.8-.81-1.52-1.49-2.65-1.9-1.56-.55-2.99-1.46-4.46-2.25-1.09-.59-2.08-1.43-3.22-1.82-5.72-1.94-10.58-5.33-15.43-8.8-2.54-1.82-5.38-3.14-8.57-2.85-1.34,2.99-1.96,5.78-1.52,8.81.35,2.43.62,4.89.64,7.34.02,3.6-.23,7.2-.34,10.81-.02.76-.18,1.66.15,2.26,1.47,2.63,1.37,5.35.9,8.18-.37,2.2-.47,4.45-.7,6.68-.21,2-.54,3.99-.61,5.99-.12,3.24.49,6.52-.75,9.7-.48,1.22-.02,2.33.88,3.39,4.09,4.84,8.73,9.08,13.78,12.89.98.74,1.89,1.71,3.01,2.13,4.79,1.82,8.89,4.81,13.21,7.44.96.58,1.88,1.4,2.92,1.65,3.46.82,6.42,2.69,9.54,4.24,1.5.75,3.11,1.3,4.67,1.92,1.56.62,3.17,1.11,4.68,1.83,3.88,1.84,7.8,3.42,12.14,3.86,1.54.15,3.06.72,4.53,1.26,1.84.67,3.68.7,5.92.53ZM171.22,127.14c-1.6,1.04-2.87,1.88-4.15,2.7-2.08,1.32-4.08,2.83-6.28,3.91-4.03,1.98-8.17,3.72-12.27,5.55-.82.37-1.64.74-2.47,1.07-4.89,1.97-9.96,3.58-13.82,7.48-.7.71-1.71,1.09-2.51,1.71-.97.76-2.01,1.5-2.76,2.45-1.89,2.38-3.74,4.81-5.38,7.36-.83,1.28-1.3,2.84-1.71,4.34-.41,1.5.32,2.57,1.76,3.22,2.04.92,4.03,1.95,6.04,2.92.5.24,1.05.7,1.52.63,3.43-.45,7.05-.47,9.73-3.14,1.7-1.7,2.53-3.7,1.21-6.04-3.47-.18-3.82.11-4.19,3.17-.09.76-.19,1.66-.64,2.19-.43.51-1.33.87-2,.83-.49-.03-1.3-.79-1.34-1.28-.2-2.55-.62-5.22,1.61-7.25,2.28-2.07,5.13-2.62,7.9-1.93,2.43.6,3.12,3.01,3.41,5.35.03.21.18.4.33.7,3.17-.79,5.87-2.4,8.47-4.54-.38-.2-.48-.3-.58-.3-1.46.13-3,.43-3.61-1.47-.39-1.23.25-2.05,2.41-3.17.5-.26,1.06-.42,1.52-.73,1.39-.95,2.88-1.81,4.08-2.96,2.47-2.35,2.52-3.8.59-6.69-.11-.17-.1-.43-.18-.75.72-2.4,2.78-3.34,4.96-4,3.29-.99,5.69-3.12,7.83-5.65,1.27-1.5,1.6-3.15.53-5.71ZM41.36,218.7c-6.75.43-13.16-1.51-19.96-.66,1.48,1.88,3.3,2.61,5.25,3.23,1.58.5,3.2,1.02,4.61,1.86,2.34,1.4,4.69,2.55,7.41,3.09,4.2.84,5.46,2.06,5.73,6.27.46,7.34,4.18,13.72,5.68,20.74.07.31.33.59.56.84,1.89,2.07,3.55,4.46,5.76,6.12,2.7,2.04,4.08,4.7,5.2,7.67.08.2.15.4.23.6.46,1.23,2.31.89,2.27-.41-.02-.51-.18-1.06-.45-1.83-1.05-2.97-3.03-5.24-5.37-7.25-5.53-4.75-8.33-11.12-10.04-17.92-.65-2.57-1.48-5.4-.61-8.61,1.53.58,2.91,1,4.19,1.61,2.94,1.41,5.73,3.21,8.78,4.3,2.58.92,4.86,2.2,7.16,3.62,2.84,1.75,6.04,2.7,9.4,3.78.08-1.63-.53-2.2-1.69-2.8-2.57-1.34-5-2.97-7.47-4.52-1.14-.72-2.17-1.62-3.34-2.28-2.84-1.59-5.7-3.14-8.6-4.62-5.92-3.03-10.87-7.15-14.69-12.83ZM172.02,258.48c1.76.75,3.11,1.28,4.43,1.9,3.65,1.71,7.06.44,10.4-.91.83-.34,1.68-1.34,1.95-2.22.49-1.56.62-3.26.76-4.91.14-1.65-.64-2.82-2.24-3.36-3.78-1.29-7.55-2.98-11.45-.27-.43.3-1.06.32-1.61.42-1.06.19-1.52.86-1.61,1.87-.21,2.46-.42,4.91-.64,7.47ZM74.98,232.2c-2.28-1.48-4.36-2.72-6.32-4.13-1.54-1.1-2.96-2.37-4.4-3.61-.82-.71-1.65-1.44-2.33-2.28-.83-1.01-1.69-1.61-3.12-1.57-4.13.12-8.3.29-12.09-1.88-.12-.07-.39.11-.69.21.04.28-.04.7.13.86,1.93,1.87,3.69,4.02,5.9,5.49,4.07,2.7,8.42,4.98,12.63,7.47,1.72,1.02,3.4,2.1,5.07,3.2,1.82,1.2,3.6,2.46,5.59,3.83-.13-2.83-.24-5.24-.35-7.61ZM88.81,242.25c-.54,1.96.02,3.31,1.11,4.32,1.3,1.2,2.69,2.41,4.25,3.17,3.41,1.66,6.9,3.11,9.99,5.4,1.51,1.12,3.23,1.99,4.94,2.79,5.04,2.37,10.23,4.45,15.15,7.05,2.41,1.27,4.22,1.05,6.35-.29-1.99-1.12-3.79-2.17-5.62-3.14-4.42-2.34-8.54-5.23-13.38-6.82-2.4-.79-4.69-2.05-6.86-3.38-5.12-3.14-9.97-6.75-15.93-9.09ZM84.33,139.05c-3.12,4.4-6.14,8.65-9.04,12.75,3.79,2.2,7.87.43,12.22,1.36-.12-1.38.14-2.64-.36-3.39-1.74-2.6-1.5-5.26-.73-7.96-.73-.96-1.38-1.83-2.08-2.77ZM146.47,293.79c.71-1.61.07-2.73-.8-3.29-2.3-1.49-3.45-3.81-4.79-5.99-1.03-1.67-2.32-2.71-4.3-2.79-1.61-.07-2.82-.93-3.61-2.19-1.54-2.47-3.12-4.95-4.29-7.6-.83-1.87-1.9-2.81-4.32-2.93,1.68,3.14,2.89,6.21,4.8,8.74,2.14,2.83,4.62,5.61,7.51,7.6,2.08,1.43,4.02,2.78,5.33,4.91,1.04,1.7,2.4,2.9,4.48,3.54Z"/>
        <path class="cls-3" d="M89.14,157.57c.07.85.19,1.51.17,2.16-.14,3.9-.45,7.8-.45,11.7,0,5.83.29,11.66.29,17.48,0,5.74-.21,11.48-.3,17.23-.05,2.71-.03,5.41-.09,8.12-.03,1.2.29,2.51-1.03,3.53-2.43-.53-4.91-.52-7.51-.09-2.14.36-4.45-.35-6.69-.57-1.9-.19-3.79-.48-5.69-.53-4.29-.1-8.58,0-12.87-.15-1.54-.05-3.18-.34-4.55-1-1.61-.77-3.18-.97-4.89-.95-4.38.06-8.74.16-13.14-.54-4.2-.66-8.53-.55-12.81-.6-2.74-.03-5.39-.08-7.82-1.61-.63-.4-1.49-.45-2.48-.74-.19-2.9-.37-5.91-.58-8.91-.25-3.48-.49-6.95-.81-10.42-.09-.99-.35-1.99-.73-2.91-1.68-4.16-2.47-8.48-1.79-12.89.6-3.88-.09-7.61-.52-11.4-.43-3.79-.63-7.58-.28-11.79,2.06.14,3.93.22,5.8.41.89.09,1.78.29,2.64.57,1.74.57,3.47.67,4.57-.98,1.01-1.52.19-3.18-.67-4.43-1.71-2.49-3.6-4.88-5.62-7.13-2.15-2.4-3.13-5.37-3.37-8.29-.48-5.88.17-11.66,4.03-16.64,1.36-1.75,2.9-2.61,5.07-2.88,3.78-.47,7.11.73,10.26,2.5.96.54,1.76,1.78,2.14,2.87.71,2,1.07,4.12,1.54,6.21.35,1.53.5,3.13.99,4.61.76,2.3,1.09,4.55.38,6.91-1.22,4.08-1.78,8.36-3.89,12.16-.38.68-.69,1.43-.87,2.19-.57,2.5.54,3.85,3.13,3.9,1.11.02,2.23,0,3.74,0,.4,2.63.77,5.15,1.19,7.66.13.76.28,1.58.68,2.2.57.89,1.41,1.45,2.58.79,1.4-.79,2.79-1.14,4.48-.51.68.25,1.77-.61,2.89-1.05.55.29,1.33.7,2,1.06,1.39-.07,2.96-1.68,3.11-3.24.11-1.12.03-2.25.04-3.38,0-1.13,0-2.26.02-3.38,0-.09.11-.19.38-.61.99.06,2.19.08,3.37.22,3.14.36,4.94-1.67,3.92-4.67-.42-1.24-1.12-2.52-2.04-3.45-2.71-2.74-3.87-5.89-3.78-9.75.08-3.59-.24-7.2-.57-10.79-.45-4.96,2.28-8.52,5.08-12.07.9-1.14,1.87-2.22,2.83-3.31.5-.57.93-1.34,1.57-1.62,2.68-1.17,5.61-1.34,8.2-.16,2.82,1.28,5.32,3.28,8.01,4.88,2.18,1.3,3.02,3.07,2.85,5.63-.34,5.16-.35,10.35-.73,15.51-.12,1.61-.71,3.35-1.57,4.72-1.55,2.47-3.45,4.72-5.23,7.04-1.3,1.7-2.7,3.32-3.97,5.04-.92,1.24-1.33,2.6-.4,4.08.97,1.54,2.2,1.46,3.82,1.08,1.23-.29,2.64.04,3.95.23,1.98.29,3.84.74,5.97.26,1.84-.42,3.94.27,6.05.49ZM41.2,195.46c.07,4.01-.32,4.55-4.37,5.65-.86.23-1.75.46-2.63.49-3.67.13-5.37-1.46-5.44-5.2-.02-1.16-.18-2.05-1.45-2.24-.92-.13-2.17,1.02-2.3,2.1-.06.54.05,1.12.17,1.66,1.05,4.82,5.39,7.74,10.37,6.92,2.88-.47,5.65-1.29,7.83-3.35,1.42.89,2.64,1.7,3.9,2.45,3.81,2.26,9.15,2.79,13.7-.46,3.56-2.55,3.55-8.32-.02-10.8-1.43-.99-2.09-.78-3.4,1.14.66.71,1.41,1.4,2.01,2.19,1.31,1.71.99,3.82-.83,4.94-1.03.63-2.22,1.16-3.4,1.37-3.76.66-6.85-.99-9.57-3.31-1.97-1.68-1.6-3.75.7-5.2.57-.36,1.3-.6,1.68-1.1.86-1.14,1.99-2.33,2.25-3.64,1.25-6.26-4.55-12.05-11.27-9.96-4.87,1.52-7.09,7.68-3.46,11.96,1.4,1.65,3.43,2.76,5.52,4.39ZM63.21,187.66c.82-.36,1.92-.54,2.57-1.17,2.99-2.93,5.62-6.18,6.9-10.22,1.23-3.89-3.02-8.55-6.97-7.55-1.65.42-2.86.34-4.4-.31-3.26-1.39-6.68,1.1-6.7,4.67-.02,4.08,1.94,7.29,4.53,10.21,1.19,1.33,2.42,2.62,4.06,4.38ZM15.79,173.59c.47,1.47.69,3.1,1.48,4.37,1.11,1.79,2.66,3.3,4.01,4.94.76.93,1.55,1.85,2.22,2.85.81,1.2,1.64,1.45,2.74.64.18-.13.34-.3.48-.47,2.32-2.75,4.68-5.47,6.95-8.27,1.96-2.41,1.55-5.1.4-7.64-1.06-2.34-4.17-3.2-7.42-2.03-1.26.46-2.22.46-3.5.08-3.75-1.1-7.03,1.53-7.37,5.53Z"/>
        <path class="cls-3" d="M167.92,259.91c-2.24.17-4.08.14-5.92-.53-1.47-.54-2.99-1.11-4.53-1.26-4.34-.44-8.26-2.02-12.14-3.86-1.51-.72-3.12-1.21-4.68-1.83-1.57-.62-3.17-1.17-4.67-1.92-3.12-1.56-6.07-3.42-9.54-4.24-1.05-.25-1.96-1.06-2.92-1.65-4.32-2.63-8.42-5.62-13.21-7.44-1.11-.42-2.02-1.39-3.01-2.13-5.05-3.81-9.69-8.04-13.78-12.89-.9-1.07-1.36-2.18-.88-3.39,1.24-3.18.63-6.45.75-9.7.07-2,.41-3.99.61-5.99.23-2.23.33-4.48.7-6.68.48-2.84.58-5.55-.9-8.18-.33-.6-.18-1.5-.15-2.26.11-3.6.36-7.2.34-10.81-.01-2.45-.29-4.91-.64-7.34-.44-3.02.19-5.81,1.52-8.81,3.19-.29,6.03,1.03,8.57,2.85,4.85,3.47,9.71,6.86,15.43,8.8,1.15.39,2.14,1.24,3.22,1.82,1.47.79,2.9,1.7,4.46,2.25,1.13.4,1.85,1.08,2.65,1.9,1.81,1.84,3.76,3.55,5.7,5.26.58.51,1.3,1.08,2.02,1.19,3.72.58,6.11,3.21,8.72,5.47,2.66,2.31,5.46,4.07,8.89,5.26,4.32,1.5,8.29,3.98,12.43,6.01,1.3.64,2.64,1.19,3.99,1.72,1.99.78,2.59,1.39,2.37,3.47-.24,2.21-.82,4.39-1.28,6.57-.2.99-.62,1.96-.66,2.95-.33,7.43-.59,14.86-.87,22.28-.04,1.12.2,2.37-.19,3.35-1.48,3.72-1.29,7.73-2.26,11.53-.25.96-.13,2.02-.14,3.03-.02,1.67,0,3.34,0,5.18Z"/>
        <path class="cls-6" d="M171.22,127.14c1.07,2.56.74,4.2-.53,5.71-2.14,2.53-4.54,4.66-7.83,5.65-2.18.66-4.24,1.6-4.96,4,.07.32.06.58.18.75,1.93,2.89,1.88,4.34-.59,6.69-1.21,1.15-2.69,2.01-4.08,2.96-.46.31-1.02.47-1.52.73-2.15,1.12-2.8,1.94-2.41,3.17.61,1.9,2.15,1.6,3.61,1.47.09,0,.2.1.58.3-2.6,2.14-5.3,3.75-8.47,4.54-.14-.3-.3-.5-.33-.7-.29-2.34-.98-4.75-3.41-5.35-2.77-.69-5.62-.14-7.9,1.93-2.23,2.03-1.82,4.69-1.61,7.25.04.49.85,1.24,1.34,1.28.66.04,1.57-.32,2-.83.45-.54.55-1.43.64-2.19.37-3.06.73-3.35,4.19-3.17,1.31,2.34.49,4.34-1.21,6.04-2.68,2.67-6.3,2.69-9.73,3.14-.47.06-1.02-.39-1.52-.63-2.01-.97-4.01-2-6.04-2.92-1.44-.66-2.17-1.72-1.76-3.22.41-1.5.88-3.06,1.71-4.34,1.64-2.55,3.49-4.98,5.38-7.36.75-.95,1.79-1.69,2.76-2.45.8-.62,1.81-1,2.51-1.71,3.86-3.9,8.93-5.51,13.82-7.48.83-.34,1.65-.7,2.47-1.07,4.1-1.83,8.25-3.57,12.27-5.55,2.2-1.08,4.2-2.59,6.28-3.91,1.29-.82,2.56-1.66,4.15-2.7Z"/>
        <path class="cls-3" d="M41.36,218.7c3.82,5.68,8.77,9.8,14.69,12.83,2.9,1.48,5.76,3.03,8.6,4.62,1.17.66,2.2,1.56,3.34,2.28,2.46,1.55,4.89,3.17,7.47,4.52,1.15.6,1.77,1.17,1.69,2.8-3.36-1.08-6.57-2.03-9.4-3.78-2.3-1.42-4.57-2.7-7.16-3.62-3.05-1.09-5.84-2.88-8.78-4.3-1.28-.61-2.66-1.03-4.19-1.61-.88,3.21-.04,6.04.61,8.61,1.71,6.8,4.51,13.17,10.04,17.92,2.33,2,4.32,4.27,5.37,7.25.27.77.43,1.31.45,1.82.05,1.31-1.82,1.65-2.27.42-.07-.2-.15-.39-.22-.59-1.12-2.97-2.5-5.63-5.2-7.67-2.21-1.66-3.87-4.05-5.76-6.12-.23-.25-.49-.53-.56-.84-1.5-7.01-5.22-13.4-5.68-20.74-.27-4.22-1.53-5.44-5.73-6.27-2.72-.54-5.07-1.69-7.41-3.09-1.41-.84-3.03-1.36-4.61-1.86-1.94-.62-3.76-1.35-5.25-3.23,6.8-.85,13.21,1.09,19.96.66Z"/>
        <path class="cls-3" d="M172.02,258.48c.22-2.56.43-5.01.64-7.47.09-1.01.55-1.68,1.61-1.87.55-.1,1.18-.12,1.61-.42,3.9-2.71,7.67-1.02,11.45.27,1.6.55,2.38,1.71,2.24,3.36-.14,1.65-.27,3.34-.76,4.91-.27.88-1.12,1.88-1.95,2.22-3.34,1.35-6.76,2.62-10.4.91-1.32-.62-2.67-1.15-4.43-1.9Z"/>
        <path class="cls-5" d="M74.98,232.2c.11,2.37.22,4.78.35,7.61-1.99-1.37-3.77-2.63-5.59-3.83-1.67-1.1-3.35-2.19-5.07-3.2-4.21-2.49-8.56-4.77-12.63-7.47-2.21-1.47-3.97-3.61-5.9-5.49-.17-.16-.09-.58-.13-.86.3-.1.57-.28.69-.21,3.79,2.17,7.96,2.01,12.09,1.88,1.43-.04,2.29.56,3.12,1.57.69.83,1.51,1.57,2.33,2.28,1.44,1.24,2.86,2.51,4.4,3.61,1.97,1.4,4.04,2.65,6.32,4.13Z"/>
        <path class="cls-5" d="M88.81,242.25c5.96,2.35,10.81,5.95,15.93,9.09,2.17,1.33,4.46,2.6,6.86,3.38,4.84,1.58,8.96,4.47,13.38,6.82,1.84.97,3.63,2.03,5.62,3.14-2.13,1.34-3.94,1.57-6.35.29-4.92-2.6-10.11-4.68-15.15-7.05-1.71-.8-3.43-1.67-4.94-2.79-3.08-2.29-6.58-3.73-9.99-5.4-1.57-.76-2.96-1.98-4.25-3.17-1.09-1.01-1.65-2.36-1.11-4.32Z"/>
        <path class="cls-3" d="M146.47,293.79c-2.07-.64-3.43-1.84-4.48-3.54-1.31-2.13-3.25-3.48-5.33-4.91-2.89-1.99-5.38-4.76-7.51-7.6-1.91-2.53-3.12-5.6-4.8-8.74,2.41.12,3.49,1.06,4.32,2.93,1.18,2.65,2.75,5.13,4.29,7.6.79,1.27,2,2.13,3.61,2.19,1.98.08,3.28,1.12,4.3,2.79,1.34,2.18,2.49,4.5,4.79,5.99.87.57,1.51,1.69.8,3.29Z"/>
        <path class="cls-3" d="M102.25,257.83c4.92,2.5,9.84,4.99,14.92,7.57-3.93,1.38-11.01-1.77-15.72-6.8.27-.25.54-.51.8-.76Z"/>
        <path class="cls-3" d="M102.25,257.83c-.27.25-.54.51-.8.76-2.51-.92-5.02-1.81-7.52-2.76-1.77-.67-2.79-1.96-3.33-4.26,4.32,1.93,8.56,2.99,11.66,6.26Z"/>
        <path class="cls-6" d="M96.71,143.36c-2.37-3.91-3.54-8.24-4.87-12.53-.77-2.47-1.62-4.91-2.52-7.33-.29-.78-.83-1.47-1.28-2.22-.58.25-.97.3-1.15.52-1.47,1.86-1.6,7.77-.16,9.64.45.59,1.16,1.03,1.83,1.38,2.73,1.44,2.86,2.1.74,4.38-.21.23-.32.55-.53.92.39.31.71.61,1.07.85,2.95,2.08,3,2.32.71,5.07-.76.9-.92,1.75-.04,2.71,2.38.29,5.02-.14,6.84,2.08-.06,1.7-.71,2.72-2.65,2.62-.88-.05-1.78.26-2.67.4.02.26.03.52.05.78,1.03.09,2.07.28,3.1.25,2.62-.06,3.38-1.11,3.07-4.1.32-2.04-.57-3.82-1.54-5.42Z"/>
        <path class="cls-3" d="M165.94,283.16c-2.28-.56-4.57-1.05-6.86-1.57h0c-4.45-2.66-7.54-6.24-8.17-11.62-.14-1.17-.72-2.37-1.37-3.38-1.07-1.66-.86-2.92.73-4.01,1.99-.03,4,1.94,6.33-.22-1.88-.38-3.45-.69-5.01-1-3.09-1.33-6.17-2.66-9.26-3.98-.62-.26-1.25-.48-1.88-.73-2.59-1.03-5.21-2.02-7.77-3.12-1.54-.67-2.93-1.78-4.51-2.26-3.82-1.16-7.11-3.27-10.46-5.3-2.21-1.34-4.34-2.92-6.72-3.85-2.78-1.09-5.11-2.68-7.42-4.51-5.76-4.54-10.91-9.67-15.57-15.58-1.77-.13-3.65-.33-5.53-.39-2.56-.08-5.13.1-7.68-.09-3.06-.23-6.07-1.27-9.69-.51.76.69,1.18,1.15,1.67,1.51.99.74,2.12,1.32,2.99,2.17,2.13,2.08,4.35,3.84,7.48,4.2,1.53.18,2.27,1.37,2.34,2.88.04.9-.14,1.81-.04,2.69.26,2.43.31,4.93,1.01,7.24.78,2.55,2.2,4.91,3.33,7.36.73,2.33,1.09,4.87,2.28,6.94,1.93,3.34,3.5,6.74,4.47,10.46.19.74.56,1.43.88,2.22,2.28-2.91,2.17-6.8-.45-9.03-2.24-1.91-3.54-4.28-4.53-6.93-.47-1.25-.99-2.48-1.48-3.73-.21-2.01-.04-4.16-.69-6.01-1.68-4.77-1.77-9.68-1.94-14.61-.06-1.73.61-2.91,1.83-3.03,1.53-.15,2.22.94,2.67,2.13.22.59.13,1.31.15,1.97.05,1.24.04,2.48.12,3.71.24,3.4,1.77,5.77,4.97,7.34,3.72,1.82,7.22,4.08,10.8,6.18,2.71,1.59,5.21,3.8,8.12,4.74,5.62,1.8,10.53,4.82,15.58,7.66,1.94,1.09,4.04,1.91,6.1,2.8,1.54.66,3.15,1.16,4.67,1.86,1.25.58,2.33,1.08,3.8.43,1.38-.61,2.63,0,3.41,1.38.44.78.98,1.52,1.39,2.31,1.44,2.78,2.62,5.73,4.33,8.34,2.04,3.12,4.5,5.97,8.61,6.45h0c4.36,2.26,7.4,6.46,12.03,8.61.48-4.4-1.33-7.17-5.08-8.09Z"/>
        <path class="cls-5" d="M47.92,154.28c-.57-.45-1.14-1.3-1.7-1.28-2.33.06-4.68.3-6.98.67-.56.09-1.43.98-1.42,1.48.05,1.77.35,3.54.73,5.28.08.39.86.9,1.29.88,1.3-.06,3.11.09,3.79-.66,1.53-1.71,2.84-.54,4.26-.31.93-1.95.94-3.72.03-6.05Z"/>
        <path class="cls-2" d="M10.94,147.84c.13.25.26.49.38.74l-1.01-.06c.21-.23.42-.45.62-.68Z"/>
        <path class="cls-1" d="M41.2,195.46c-2.08-1.62-4.12-2.74-5.52-4.39-3.63-4.28-1.41-10.44,3.46-11.96,6.72-2.09,12.52,3.7,11.27,9.96-.26,1.32-1.39,2.5-2.25,3.64-.38.5-1.11.74-1.68,1.1-2.3,1.45-2.68,3.52-.7,5.2,2.72,2.32,5.81,3.97,9.57,3.31,1.18-.21,2.37-.74,3.4-1.37,1.82-1.12,2.13-3.23.83-4.94-.6-.79-1.35-1.48-2.01-2.19,1.3-1.93,1.97-2.13,3.4-1.14,3.57,2.48,3.59,8.24.02,10.8-4.55,3.26-9.88,2.72-13.7.46-1.26-.74-2.48-1.55-3.9-2.45-2.18,2.06-4.95,2.88-7.83,3.35-4.98.82-9.32-2.09-10.37-6.92-.12-.54-.24-1.12-.17-1.66.13-1.08,1.38-2.24,2.3-2.1,1.27.18,1.43,1.08,1.45,2.24.08,3.73,1.78,5.33,5.44,5.2.88-.03,1.77-.26,2.63-.49,4.05-1.1,4.44-1.64,4.37-5.65ZM47.28,187.22c0-3.09-2.12-5.27-5.14-5.28-3.13-.02-5.01,1.48-5.05,4.04-.05,3.14,2.27,5.51,5.41,5.53,2.98.02,4.78-1.59,4.79-4.29Z"/>
        <path class="cls-1" d="M63.21,187.66c-1.64-1.76-2.88-3.05-4.06-4.38-2.59-2.92-4.55-6.13-4.53-10.21.02-3.57,3.44-6.06,6.7-4.67,1.54.65,2.75.73,4.4.31,3.95-1,8.2,3.66,6.97,7.55-1.28,4.05-3.91,7.3-6.9,10.22-.65.64-1.75.81-2.57,1.17ZM63.82,183c2.96-1.89,4.29-4.48,5.53-7.12.72-1.53-.15-2.65-1.15-3.55-.95-.85-2.05-.65-3.03.21-.56.49-1.21.87-1.87,1.34-.73-.65-1.34-1.14-1.88-1.7-.66-.68-1.34-1.23-2.36-.81-1.19.49-1.14,1.53-1.08,2.56.24,4.07,2.71,6.67,5.84,9.06Z"/>
        <path class="cls-1" d="M15.79,173.59c.34-4,3.62-6.63,7.37-5.53,1.28.37,2.24.37,3.5-.08,3.24-1.17,6.36-.3,7.42,2.03,1.15,2.54,1.56,5.23-.4,7.64-2.27,2.79-4.63,5.52-6.95,8.27-.14.17-.3.34-.48.47-1.1.81-1.94.56-2.74-.64-.67-1-1.46-1.92-2.22-2.85-1.35-1.64-2.9-3.16-4.01-4.94-.79-1.27-1.01-2.9-1.48-4.37Z"/>
        <path class="cls-1" d="M99.13,209.3c-.08-1.06.34-1.57,1.2-1.79.95-.24,1.63.28,1.63.28,0,0,1.81-9.43,2.02-12.12-.44-.31-1.51-.54-1.74-1.49-.25-1.03.87-1.78,1.74-1.48,1.52.51,4.2.49,4.83,2.74.18.84-.92,1.71-2.76.91-.41,2.71-2.03,12.1-2.03,12.1,0,0,1.25.12,1.88.87.3.36.88.65.26,1.88-.25.5-1.99.78-4.18-.09-1.51-.6-2.74-1-2.85-1.82Z"/>
        <path class="cls-4" d="M47.28,187.22c0,2.69-1.81,4.31-4.79,4.29-3.14-.02-5.46-2.4-5.41-5.53.04-2.56,1.92-4.05,5.05-4.04,3.03.02,5.15,2.2,5.14,5.28Z"/>
        <path class="cls-4" d="M63.82,183c-3.13-2.39-5.59-4.99-5.84-9.06-.06-1.03-.11-2.07,1.08-2.56,1.01-.42,1.69.13,2.36.81.54.56,1.15,1.04,1.88,1.7.66-.47,1.31-.85,1.87-1.34.98-.87,2.08-1.06,3.03-.21,1,.9,1.87,2.02,1.15,3.55-1.24,2.64-2.57,5.23-5.53,7.12Z"/>
        <path class="cls-4" d="M25.89,182.18c-2.77-1.62-4.42-2.79-5.96-5.61-.32-.58-.68-1.47-.75-2.12-.12-1.1-.08-2.19,1.1-2.92,1.1-.67,2.76-.88,3.71,0,.57.53.54.67.82,1.18.18-.64.51-1.1,1.04-1.56,1.58-1.33,3.21-1.48,4.76-.39s1.18,3.57.06,5.22c-1.43,2.12-3.12,4.06-4.78,6.18Z"/>
        <g>
          <path class="cls-1" d="M158.91,233.26c-.14-.03-.34-.07-.58-.12-1.28-.26-3.94-.79-5.68-2.05,0,0,0,0,0,0-.06-.05-.12-.09-.18-.13l-.73-.53c-.6-.48-1.38-1.18-1.91-1.97.31-.86.6-1.54,1.1-2.62.09.03.19.07.29.11.7.27,1.56.6,2.14.29.25-.14.42-.39.49-.73.17-.86-.34-1.05-.62-1.16-.37-.14-.67-.21-.96-.28-.22-.05-.43-.1-.67-.18.26-.75.43-1.24.74-1.97.11.04.23.08.38.14.23.08.51.18.87.32l.07.03c.29.12.9.37,1.42.1.3-.16.5-.46.59-.91.24-1.14-.56-1.37-1.1-1.52-.13-.04-.26-.07-.37-.12-.22-.1-.4-.15-.59-.21-.21-.06-.42-.13-.72-.27.03-.27.16-.66.28-1.01.01-.04.03-.09.04-.13.13.07.27.15.4.22.38.21.77.43,1.11.56.54.22,1.25-.19,1.6-.72.37-.55.35-1.14-.07-1.57-.58-.6-1.24-.75-1.77-.87-.22-.05-.42-.09-.58-.16.25-.65.41-.96.63-1.36.09-.16.19-.34.3-.56.16-.3.17-.65.04-.98-.14-.36-.45-.66-.81-.8-.56-.2-1.16.08-1.46.69-.37.76-.59,1.28-.91,2.13-.37-.13-.75-.42-1.12-.7-.66-.5-1.35-1.01-1.91-.46-.37.37-.53.82-.45,1.29.14.85.95,1.53,1.6,1.86.32.16.75.32,1.21.45-.14.38-.21.65-.3.97l-.03.12c-.16-.06-.34-.14-.53-.22-.26-.11-.53-.23-.79-.32-.19-.06-.37-.15-.55-.24-.14-.07-.29-.14-.43-.2-.41-.17-1.66-.68-2.23.66-.57,1.34.62,1.89,1.07,2.1.44.2,1.03.4,1.6.59.42.14.85.28,1.2.42-.72,2.15-1.11,3.17-1.9,5.1-.17-.16-.24-.26-.35-.45.05-.11.11-.24.17-.37.69-1.47,1.54-3.29.63-3.86-.39-.24-.75-.31-1.07-.2-.42.15-.75.58-1.04,1.38-.28.76-.97,2.26-.98,2.29-.34.89-.88,1.64-1.59,2.22-.13.11-.29.21-.44.32-.53.36-1.12.77-1.18,1.36-.04.35.11.69.46,1.05.9.94,1.71.27,2.36-.28.1-.09.21-.17.31-.25.53-.42.72-.61,1.21-1.27,2.26,4.43,7.29,6.35,8.98,6.99l.06.02c1.01.39,2.86.87,3.49.87,0,0,.02,0,.03,0,.79-.02,1.39-.43,1.62-1.13.11-.33.1-.63-.04-.88-.31-.56-1.15-.75-1.82-.91Z"/>
          <path class="cls-1" d="M165.88,216.31c-.26-.37-.54-.74-.95-.79-.26-.03-.52.07-.79.32-.29.26-.45.61-.47,1-.03.61.29,1.3.88,1.95.28.3.64.47,1,.47.03,0,.06,0,.09,0,.31-.02.58-.18.75-.43.54-.81-.03-1.83-.51-2.52Z"/>
          <path class="cls-1" d="M164,219.76c-.15-.06-.33-.12-.52-.19-.54-.19-1.19-.42-1.61-.65l.11-.22c.59-1.15,1.19-2.33.74-2.98-.23-.34-.58-.52-.97-.5-.36.02-.66.24-.84.59-.32.62-.49,1.21-.7,1.96-.04.13-.08.27-.12.42-.77-.16-1.41-.46-1.9-.69-.34-.16-.56-.27-.73-.28-.13,0-.31.03-.5.22-.39.41-.62,1.37-.59,1.63.01.13.06.21.09.26.03.05.1.15-.14.9-.18.55-.56,1.65-.99,2.87-.45,1.27-.94,2.67-1.28,3.71-.51.12-.73.09-.95.06-.19-.03-.38-.05-.7,0-.38.08-.63.39-.69.83-.07.54.18,1.26.7,1.51.47.22,1.38.33,2.51-.04.37-.12.7-.2,1-.27.62-.15,1.11-.27,1.44-.62.37-.4.48-1.27.22-1.73-.16-.27-.43-.39-.74-.31-.26.06-.47.13-.64.19.89-2.59,1.76-4.9,2.38-6.3.2.07.35.1.48.12.14.03.27.05.46.12-.43,1.21-.77,2.82-1.14,4.63-.32,1.55-.35,1.88-.45,2.66l-.05.43c-.21.14-.75.5-1.14.65-.22.09-.37.12-.51.16-.19.05-.39.1-.75.26-.48.21-.61.9-.45,1.44.15.53.53.82.99.74.62-.09,1.25-.46,1.8-.79.14-.08.28-.16.4-.23.04.12.08.24.13.38.18.55.39,1.17.64,1.64.14.26.54.87,1.18.93.04,0,.07,0,.11,0,.38,0,.76-.21,1.11-.62l.14-.16c1.46-1.7,2.42-2.82,1.44-3.71-.22-.2-.47-.29-.72-.26-.62.07-1.13.82-1.61,1.53-.02.03-.04.05-.05.08,0-.02-.01-.03-.02-.05-.2-.45-.46-1.06-.45-1.32.82-.55,2.85-3.03,3.63-4.34.26-.43.17-.97-.2-1.23l-.39-.27c-.17-.12-.38-.16-.59-.12-.24.05-.46.2-.6.43-.48.76-1.39,2.15-2.07,3.03.2-1.7.89-3.89,1.34-5.28.23.1.56.25.87.39.79.36,1.29.58,1.49.62.95.18,1.26-.29,1.36-.59.24-.7-.14-1.37-.93-1.67Z"/>
        </g>
        <g>
          <path class="cls-1" d="M131.02,213.35c1.02.42,2.05.8,3.04,1.26,2.42,1.13,2.9,2.34,1.96,4.88-.12.32-.23.64-.4.93-.87,1.45-1.67,3.23-3.59,3.23-2.09,0-3.33-1.73-4.48-3.25-.24-.31-.16-1.19.11-1.46.31-.31,1.12-.45,1.52-.27.89.42,1.66,1.08,2.75,1.84.61-.85,1.47-1.97,1.92-2.6-.26-.49-.65-.43-.8-.49-1.36-.53-2.74-1-4.09-1.53-1.67-.65-2.04-1.49-1.37-3.15.25-.62.61-1.21.97-1.78,1.8-2.86,2.02-2.94,5.14-1.8.63.23,1.25.48,1.86.71.33-.27.64-.45.83-.71.19-.26.27-.6.41-.94-.22-.28-.37-.66-.63-.76-1.03-.43-2.14-.67-3.12-1.18-.49-.25-1.07-.95-1.03-1.41.03-.44.77-1.13,1.25-1.18,2.28-.22,4.2.85,5.79,2.3.93.85,1.2,2.17.48,3.43-.45.78-.89,1.57-1.45,2.26-1.24,1.51-1.93,1.64-3.79.89-.63-.25-1.23-.57-1.87-.77-.55-.17-.56-.11-1.38,1.56Z"/>
          <path class="cls-1" d="M137.72,225.5c-.57-.37-.7-1.15-.31-1.72,3.04-4.36,5.09-8.99,6.29-14.02.22-.94.85-1.61,1.97-1.39,1.23.25,1.28,1.19.98,2.09-1.63,4.89-3.13,9.84-6.31,14.03-1.1,1.45-1.47,1.74-2.62,1Z"/>
        </g>
        <path class="cls-1" d="M121.2,200.21c.4-.04.75,0,1.04-.13,1.89-.77,3.59-.54,4.88,1.08,1.42,1.78,1.95,3.8.93,5.99-1.14,2.43-3.05,4.14-5.31,5.52-2.38,1.46-5.23,2.03-7.23,4.26-.84.94-2.13.14-2.44-.85-1.47-4.72-3.34-9.4-2.77-14.48.24-2.12,1.31-4.02,3.47-4.59,2.08-.55,4.29-.56,5.89,1.42.49.61,1.01,1.18,1.53,1.78ZM114.82,213.21c3.1-.09,5.47-1.69,7.94-3.2,2.92-1.79,3.72-4.21,2.89-7.35-1.9-1.02-4.35.56-6.35.99-.6-1.03-.4-2.55-1-3.58-.88-1.49-2.36-1.22-3.61-.98-.67.13-1.63,1.06-1.67,1.68-.28,4.21-.44,8.45,1.8,12.44Z"/>
        <path class="cls-4" d="M114.82,213.21c-2.24-3.99-2.87-8.45-2.42-11.7.22-1.6,1.8-2.48,2.47-2.61,1.25-.25,2.85-.29,3.73,1.2.6,1.02.67,1.62.8,3,.72-.86,4.25-2.36,6.26-.44s.03,5.56-2.89,7.35c-2.47,1.51-4.84,3.11-7.94,3.2Z"/>
      </g>
    </g>
  </g>
</svg>