<?xml version="1.0" encoding="UTF-8"?>
<svg id="_レイヤー_2" data-name="レイヤー 2" xmlns="http://www.w3.org/2000/svg" viewBox="0 0 46.53 64.2">
  <defs>
    <style>
      .cls-1 {
        fill: #231815;
      }

      .cls-1, .cls-2, .cls-3 {
        stroke-width: 0px;
      }

      .cls-2 {
        fill: #fffdee;
      }

      .cls-4 {
        fill: none;
        stroke: #231815;
        stroke-linecap: round;
        stroke-linejoin: round;
        stroke-width: 3px;
      }

      .cls-3 {
        fill: #f2e9d3;
      }
    </style>
  </defs>
  <g id="design">
    <g>
      <g>
        <polygon class="cls-3" points="39.49 62.7 38.29 62.61 37.09 62.43 35.89 62.7 34.69 62.55 33.49 62.67 32.29 62.5 31.09 62.49 29.89 62.4 28.69 62.64 27.49 62.68 26.29 62.44 25.09 62.37 23.89 62.48 22.69 62.41 21.49 62.62 20.29 62.52 19.09 62.45 17.89 62.55 16.69 62.48 15.48 62.48 14.28 62.44 13.08 62.6 11.87 62.38 10.67 62.48 9.47 62.43 8.26 62.38 7.05 62.39 5.82 62.55 4.64 62.16 3.73 61.32 2.82 60.53 2.05 59.57 1.9 58.34 1.85 57.16 1.84 55.97 1.57 54.78 1.63 53.59 1.75 52.4 1.67 51.21 1.77 50.02 1.5 48.83 1.58 47.64 1.57 46.45 1.8 45.27 1.55 44.08 1.8 42.88 1.73 41.69 1.67 40.5 1.55 39.31 1.65 38.12 1.76 36.92 1.86 35.73 1.82 34.54 1.81 33.35 1.78 32.15 1.54 30.96 1.58 29.77 1.81 28.57 1.8 27.38 1.79 26.19 1.8 24.99 1.8 23.8 1.7 22.6 1.83 21.41 1.85 20.22 1.55 19.02 1.68 17.83 1.79 16.63 1.71 15.44 1.8 14.24 1.84 13.04 1.82 11.85 1.69 10.65 1.68 9.45 1.78 8.25 1.69 7.05 1.81 5.85 2.23 4.73 2.79 3.65 3.75 2.91 4.73 2.23 5.82 1.68 7.05 1.76 8.25 1.71 9.44 1.82 10.64 1.79 11.84 1.7 13.04 1.8 14.24 1.75 15.44 1.58 16.64 1.77 17.84 1.5 19.04 1.6 20.24 1.82 21.44 1.62 22.65 1.53 23.85 1.61 25.05 1.61 26.25 1.62 27.45 1.5 28.65 1.62 29.85 1.73 31.05 1.72 32.25 1.74 33.46 1.84 34.66 1.79 35.86 1.5 37.07 1.54 38.28 1.8 39.49 1.83 40.67 1.85 41.84 2.17 42.81 2.88 43.8 3.61 44.2 4.78 44.66 5.87 44.91 7.05 45 8.24 44.93 9.43 44.89 10.63 45.03 11.82 45.03 13.01 44.93 14.19 44.76 15.38 45.01 16.57 44.88 17.76 45.02 18.95 44.9 20.14 44.79 21.33 44.83 22.52 44.94 23.72 44.85 24.91 44.97 26.1 44.91 27.29 44.72 28.48 44.75 29.67 44.72 30.87 44.98 32.06 44.79 33.25 44.83 34.44 44.93 35.64 44.91 36.83 44.77 38.03 44.73 39.22 44.88 40.42 45.03 41.61 44.8 42.81 44.94 44 44.75 45.19 44.95 46.38 44.81 47.58 44.8 48.77 44.82 49.97 44.94 51.17 44.89 52.36 44.69 53.56 44.73 54.76 44.73 55.96 44.81 57.16 44.61 58.33 44.35 59.51 43.78 60.59 42.87 61.4 41.77 61.91 40.67 62.36 39.49 62.7"/>
        <polygon class="cls-4" points="39.49 62.7 38.29 62.61 37.09 62.43 35.89 62.7 34.69 62.55 33.49 62.67 32.29 62.5 31.09 62.49 29.89 62.4 28.69 62.64 27.49 62.68 26.29 62.44 25.09 62.37 23.89 62.48 22.69 62.41 21.49 62.62 20.29 62.52 19.09 62.45 17.89 62.55 16.69 62.48 15.48 62.48 14.28 62.44 13.08 62.6 11.87 62.38 10.67 62.48 9.47 62.43 8.26 62.38 7.05 62.39 5.82 62.55 4.64 62.16 3.73 61.32 2.82 60.53 2.05 59.57 1.9 58.34 1.85 57.16 1.84 55.97 1.57 54.78 1.63 53.59 1.75 52.4 1.67 51.21 1.77 50.02 1.5 48.83 1.58 47.64 1.57 46.45 1.8 45.27 1.55 44.08 1.8 42.88 1.73 41.69 1.67 40.5 1.55 39.31 1.65 38.12 1.76 36.92 1.86 35.73 1.82 34.54 1.81 33.35 1.78 32.15 1.54 30.96 1.58 29.77 1.81 28.57 1.8 27.38 1.79 26.19 1.8 24.99 1.8 23.8 1.7 22.6 1.83 21.41 1.85 20.22 1.55 19.02 1.68 17.83 1.79 16.63 1.71 15.44 1.8 14.24 1.84 13.04 1.82 11.85 1.69 10.65 1.68 9.45 1.78 8.25 1.69 7.05 1.81 5.85 2.23 4.73 2.79 3.65 3.75 2.91 4.73 2.23 5.82 1.68 7.05 1.76 8.25 1.71 9.44 1.82 10.64 1.79 11.84 1.7 13.04 1.8 14.24 1.75 15.44 1.58 16.64 1.77 17.84 1.5 19.04 1.6 20.24 1.82 21.44 1.62 22.65 1.53 23.85 1.61 25.05 1.61 26.25 1.62 27.45 1.5 28.65 1.62 29.85 1.73 31.05 1.72 32.25 1.74 33.46 1.84 34.66 1.79 35.86 1.5 37.07 1.54 38.28 1.8 39.49 1.83 40.67 1.85 41.84 2.17 42.81 2.88 43.8 3.61 44.2 4.78 44.66 5.87 44.91 7.05 45 8.24 44.93 9.43 44.89 10.63 45.03 11.82 45.03 13.01 44.93 14.19 44.76 15.38 45.01 16.57 44.88 17.76 45.02 18.95 44.9 20.14 44.79 21.33 44.83 22.52 44.94 23.72 44.85 24.91 44.97 26.1 44.91 27.29 44.72 28.48 44.75 29.67 44.72 30.87 44.98 32.06 44.79 33.25 44.83 34.44 44.93 35.64 44.91 36.83 44.77 38.03 44.73 39.22 44.88 40.42 45.03 41.61 44.8 42.81 44.94 44 44.75 45.19 44.95 46.38 44.81 47.58 44.8 48.77 44.82 49.97 44.94 51.17 44.89 52.36 44.69 53.56 44.73 54.76 44.73 55.96 44.81 57.16 44.61 58.33 44.35 59.51 43.78 60.59 42.87 61.4 41.77 61.91 40.67 62.36 39.49 62.7"/>
      </g>
      <g>
        <g>
          <polygon class="cls-2" points="34.15 27.03 32.95 26.94 31.74 26.89 30.53 27.01 29.32 26.93 28.11 26.92 26.9 26.96 25.7 27.01 24.49 27.03 23.28 26.91 22.08 27.02 20.87 26.96 19.66 26.88 18.45 27.02 17.23 27.02 16.02 27.01 14.81 26.99 13.6 27.01 12.38 27.03 11.26 26.63 10.46 25.79 10.09 24.68 10.04 23.53 10.16 22.38 10.14 21.22 10.15 20.07 10.04 18.91 10.13 17.76 10.18 16.6 10.11 15.44 10.03 14.28 10.42 13.15 11.28 12.37 12.38 11.99 13.59 12.07 14.8 12.02 16 12.02 17.21 11.98 18.42 12.02 19.63 11.97 20.84 12.01 22.04 12 23.25 11.96 24.46 11.99 25.67 11.96 26.88 11.94 28.09 12 29.3 12.04 30.51 11.96 31.72 11.99 32.94 11.96 34.15 11.94 35.27 12.34 36.13 13.14 36.48 14.28 36.36 15.43 36.37 16.59 36.39 17.74 36.47 18.9 36.37 20.05 36.42 21.21 36.42 22.36 36.41 23.52 36.48 24.68 36.17 25.85 35.31 26.68 34.15 27.03"/>
          <polygon class="cls-4" points="34.15 27.03 32.95 26.94 31.74 26.89 30.53 27.01 29.32 26.93 28.11 26.92 26.9 26.96 25.7 27.01 24.49 27.03 23.28 26.91 22.08 27.02 20.87 26.96 19.66 26.88 18.45 27.02 17.23 27.02 16.02 27.01 14.81 26.99 13.6 27.01 12.38 27.03 11.26 26.63 10.46 25.79 10.09 24.68 10.04 23.53 10.16 22.38 10.14 21.22 10.15 20.07 10.04 18.91 10.13 17.76 10.18 16.6 10.11 15.44 10.03 14.28 10.42 13.15 11.28 12.37 12.38 11.99 13.59 12.07 14.8 12.02 16 12.02 17.21 11.98 18.42 12.02 19.63 11.97 20.84 12.01 22.04 12 23.25 11.96 24.46 11.99 25.67 11.96 26.88 11.94 28.09 12 29.3 12.04 30.51 11.96 31.72 11.99 32.94 11.96 34.15 11.94 35.27 12.34 36.13 13.14 36.48 14.28 36.36 15.43 36.37 16.59 36.39 17.74 36.47 18.9 36.37 20.05 36.42 21.21 36.42 22.36 36.41 23.52 36.48 24.68 36.17 25.85 35.31 26.68 34.15 27.03"/>
        </g>
        <polygon class="cls-1" points="28.72 24.23 28.72 24.21 29.7 23.71 29.74 22.58 29.74 21.44 29.74 20.31 29.7 19.17 29.73 18.03 29.75 16.89 29.72 15.75 28.72 15.28 28.72 15.25 27.69 15.75 27.72 16.89 27.69 18.02 27.71 19.16 27.71 20.3 27.72 21.43 27.71 22.57 27.72 23.71 28.72 24.23"/>
        <polygon class="cls-1" points="17.82 24.24 17.82 24.21 16.83 23.71 16.79 22.58 16.82 21.44 16.82 20.31 16.81 19.17 16.8 18.03 16.79 16.89 16.83 15.75 17.82 15.23 17.82 15.25 18.8 15.75 18.84 16.89 18.85 18.02 18.84 19.16 18.83 20.3 18.84 21.43 18.85 22.57 18.82 23.71 17.82 24.24"/>
        <g>
          <polygon class="cls-2" points="34.15 52.18 32.95 52.22 31.74 52.21 30.53 52.22 29.32 52.28 28.11 52.16 26.9 52.19 25.7 52.28 24.49 52.23 23.28 52.18 22.08 52.28 20.87 52.28 19.66 52.2 18.45 52.2 17.23 52.17 16.02 52.15 14.81 52.16 13.6 52.29 12.38 52.17 11.28 51.84 10.4 51.08 10.12 49.93 10.14 48.78 10.13 47.63 10.18 46.47 10.05 45.32 10.13 44.16 10.13 43 10.15 41.85 10.11 40.69 10.13 39.53 10.43 38.4 11.23 37.53 12.38 37.33 13.59 37.19 14.8 37.26 16 37.27 17.21 37.19 18.42 37.21 19.63 37.21 20.84 37.31 22.04 37.21 23.25 37.22 24.46 37.22 25.67 37.21 26.88 37.27 28.09 37.28 29.3 37.32 30.51 37.19 31.72 37.28 32.94 37.18 34.15 37.2 35.33 37.49 36.19 38.36 36.41 39.53 36.36 40.68 36.41 41.84 36.38 42.99 36.37 44.14 36.5 45.3 36.4 46.46 36.43 47.61 36.42 48.77 36.38 49.93 36.08 51.04 35.3 51.91 34.15 52.18"/>
          <polygon class="cls-4" points="34.15 52.18 32.95 52.22 31.74 52.21 30.53 52.22 29.32 52.28 28.11 52.16 26.9 52.19 25.7 52.28 24.49 52.23 23.28 52.18 22.08 52.28 20.87 52.28 19.66 52.2 18.45 52.2 17.23 52.17 16.02 52.15 14.81 52.16 13.6 52.29 12.38 52.17 11.28 51.84 10.4 51.08 10.12 49.93 10.14 48.78 10.13 47.63 10.18 46.47 10.05 45.32 10.13 44.16 10.13 43 10.15 41.85 10.11 40.69 10.13 39.53 10.43 38.4 11.23 37.53 12.38 37.33 13.59 37.19 14.8 37.26 16 37.27 17.21 37.19 18.42 37.21 19.63 37.21 20.84 37.31 22.04 37.21 23.25 37.22 24.46 37.22 25.67 37.21 26.88 37.27 28.09 37.28 29.3 37.32 30.51 37.19 31.72 37.28 32.94 37.18 34.15 37.2 35.33 37.49 36.19 38.36 36.41 39.53 36.36 40.68 36.41 41.84 36.38 42.99 36.37 44.14 36.5 45.3 36.4 46.46 36.43 47.61 36.42 48.77 36.38 49.93 36.08 51.04 35.3 51.91 34.15 52.18"/>
        </g>
        <polygon class="cls-1" points="28.72 49.19 28.72 49.2 29.71 48.71 29.73 47.58 29.73 46.44 29.74 45.3 29.72 44.17 29.72 43.03 29.71 41.89 29.75 40.75 28.72 40.26 28.72 40.23 27.73 40.75 27.73 41.89 27.71 43.02 27.71 44.16 27.7 45.29 27.74 46.43 27.7 47.57 27.73 48.71 28.72 49.19"/>
        <polygon class="cls-1" points="17.82 49.2 17.82 49.2 16.82 48.71 16.84 47.58 16.82 46.44 16.81 45.3 16.79 44.17 16.81 43.03 16.81 41.89 16.82 40.75 17.82 40.25 17.82 40.26 18.83 40.75 18.83 41.89 18.81 43.02 18.83 44.16 18.85 45.29 18.82 46.43 18.8 47.57 18.81 48.71 17.82 49.2"/>
      </g>
    </g>
  </g>
</svg>