<svg xmlns="http://www.w3.org/2000/svg" width="390.048" height="381.195" viewBox="0 0 390.048 381.195">
  <g id="グループ_324" data-name="グループ 324" transform="translate(0.038)">
    <g id="グループ_323" data-name="グループ 323">
      <rect id="長方形_2" data-name="長方形 2" width="390" height="380" fill="#ffb4c8"/>
      <path id="パス_1" data-name="パス 1" d="M0,380.169l3.641-.137,3.641-.046,3.642.028,3.642.111,3.643-.01,3.644.029,3.645-.075,3.644-.03,3.643-.086,3.643.079,3.642.094,3.642-.243,3.642-.049,3.642.3,3.642-.2,3.643.142,3.643-.111,3.644.061,3.645.018,3.644-.129,3.643.048,3.643-.085,3.642.23,3.642-.062,3.643.153,3.643-.012,3.644-.04,3.644-.329,3.645.346,3.644-.328,3.644.066,3.643.2,3.643-.273,3.643.05,3.644.289,3.644-.068,3.645-.14,3.645-.082,3.644.153,3.644-.129,3.643.049,3.644.084,3.644.132,3.645-.156,3.645.025,3.644-.186,3.644.021,3.644-.008,3.644-.044,3.646.09,3.645.011,3.644-.08,3.644.168,3.644-.109,3.639.233,3.639.061,3.64-.16,3.641.164,3.644-.007,3.646-.36,3.644.195,3.642.135L229.53,380l3.641.068,3.642-.256,3.643.239,3.646-.007,3.646-.036,3.644-.037,3.643.214,3.643-.037,3.644-.011,3.647.01,3.646.016,3.644-.125,3.644-.195,3.645.019,3.648.283,3.646-.033,3.645-.135,3.646.16,3.648-.132,3.646.144,3.647-.282,3.648.19,3.646.042,3.648-.065,3.647.076,3.648-.073,3.648,0,3.649.093,3.648-.071L338.9,380l3.644-.06,3.648.022,3.646-.14,3.649.087,3.647.189,3.649.059,3.65-.269,3.65.041,3.651.224,3.65-.3,3.65.319,3.651-.016,3.657-.3,3.657-.037" fill="none" stroke="#231815" stroke-miterlimit="10" stroke-width="2"/>
    </g>
    <g id="グループ_70" data-name="グループ 70">
      <g id="グループ_63" data-name="グループ 63">
        <path id="パス_79" data-name="パス 79" d="M116.928,357.878l-.714.095-.714.03-.714-.014-.709-.029-.71-.023-.712.073-.715-.11-.717.033-.714-.042-.713.126-.715-.112-.718.071-.716-.012-.716-.061-.719.056-.717-.089-.717,0-.716-.015-.719.15-.721,0-.723-.007-.723-.075-.682-.04-.583-.355-.613-.313-.355-.588-.328-.6-.081-.686.066-.712-.1-.713.069-.714-.086-.715.007-.716.071-.715,0-.714-.058-.714.112-.714-.046-.714-.094-.715.145-.716-.116-.715.014-.715-.038-.715.075-.71.073-.71-.07-.712.05-.715-.042-.717.066-.715-.121-.714.026-.715.052-.718-.078-.717.08-.717-.078-.719.07-.718-.024-.717-.016-.716.076-.72.008-.721,0-.723-.15-.723.241-.658.121-.69.454-.532.577-.376.611-.322.69-.088.714-.017.714,0,.714.083.709-.029.71-.021.712-.037.715.112.717-.095.714.107.713-.13.715.124.718-.109.716.1.716.041.719-.048.717-.1.717.126.716-.011.719-.016.721-.043.723.087.723-.134.654.242.611.248.529.4.5.471.3.628L119.5,331l.051.712.018.713-.051.714-.019.715.1.716-.042.715-.064.714.111.714-.066.714.009.714.079.715-.011.716-.079.715.039.715-.04.715.039.71.026.71-.09.712-.056.715.155.717-.1.715v.714l.076.715v.718l-.047.717-.046.717.106.719,0,.718-.115.717.007.716.085.72-.033.721-.078.723.147.723-.167.674-.185.672-.545.44-.507.428-.617.251Z" fill="#f2e9d3"/>
        <path id="パス_80" data-name="パス 80" d="M116.928,357.878l-.714.095-.714.03-.714-.014-.709-.029-.71-.023-.712.073-.715-.11-.717.033-.714-.042-.713.126-.715-.112-.718.071-.716-.012-.716-.061-.719.056-.717-.089-.717,0-.716-.015-.719.15-.721,0-.723-.007-.723-.075-.682-.04-.583-.355-.613-.313-.355-.588-.328-.6-.081-.686.066-.712-.1-.713.069-.714-.086-.715.007-.716.071-.715,0-.714-.058-.714.112-.714-.046-.714-.094-.715.145-.716-.116-.715.014-.715-.038-.715.075-.71.073-.71-.07-.712.05-.715-.042-.717.066-.715-.121-.714.026-.715.052-.718-.078-.717.08-.717-.078-.719.07-.718-.024-.717-.016-.716.076-.72.008-.721,0-.723-.15-.723.241-.658.121-.69.454-.532.577-.376.611-.322.69-.088.714-.017.714,0,.714.083.709-.029.71-.021.712-.037.715.112.717-.095.714.107.713-.13.715.124.718-.109.716.1.716.041.719-.048.717-.1.717.126.716-.011.719-.016.721-.043.723.087.723-.134.654.242.611.248.529.4.5.471.3.628L119.5,331l.051.712.018.713-.051.714-.019.715.1.716-.042.715-.064.714.111.714-.066.714.009.714.079.715-.011.716-.079.715.039.715-.04.715.039.71.026.71-.09.712-.056.715.155.717-.1.715v.714l.076.715v.718l-.047.717-.046.717.106.719,0,.718-.115.717.007.716.085.72-.033.721-.078.723.147.723-.167.674-.185.672-.545.44-.507.428-.617.251Z" fill="none" stroke="#231815" stroke-linecap="round" stroke-linejoin="round" stroke-width="1.942"/>
      </g>
      <g id="グループ_64" data-name="グループ 64">
        <path id="パス_81" data-name="パス 81" d="M114.339,340.258l-.7-.011h-.7l-.7.022-.7-.03-.705.043-.7,0-.7,0-.706-.042-.7,0-.7,0-.7.017-.707.033-.708-.037-.71-.032-.71.048-.779-.343-.361-.779.041-.72.014-.719.01-.718-.008-.722.01-.723-.061-.725.028-.725.322-.782.782-.36.7.041.7-.009.7-.029.7.032.705.031.7-.019.7,0,.706.008.7-.011.7-.01.7-.032.707.014h.708l.71.029.71.024.761.31.381.761-.042.72.007.719-.023.718.007.722.028.723.018.725-.062.725-.278.8Z" fill="#fffdee"/>
        <path id="パス_82" data-name="パス 82" d="M114.339,340.258l-.7-.011h-.7l-.7.022-.7-.03-.705.043-.7,0-.7,0-.706-.042-.7,0-.7,0-.7.017-.707.033-.708-.037-.71-.032-.71.048-.779-.343-.361-.779.041-.72.014-.719.01-.718-.008-.722.01-.723-.061-.725.028-.725.322-.782.782-.36.7.041.7-.009.7-.029.7.032.705.031.7-.019.7,0,.706.008.7-.011.7-.01.7-.032.707.014h.708l.71.029.71.024.761.31.381.761-.042.72.007.719-.023.718.007.722.028.723.018.725-.062.725-.278.8Z" fill="none" stroke="#231815" stroke-linecap="round" stroke-linejoin="round" stroke-width="1.942"/>
      </g>
      <g id="グループ_65" data-name="グループ 65">
        <path id="パス_83" data-name="パス 83" d="M111.7,338.922v-.017l.49-.231v-.768l-.009-.772v-.773l0-.775-.008-.775-.478-.237v-.011l-.5.248.017.768-.005.772,0,.773.006.775.006.775Z" fill="#231815"/>
      </g>
      <g id="グループ_66" data-name="グループ 66">
        <path id="パス_84" data-name="パス 84" d="M106.406,338.921v.007l-.486-.254v-.768l-.014-.772.023-.773-.016-.775-.008-.775.5-.242v-.011l.5.253-.017.768v.772l.009.773.007.775,0,.775Z" fill="#231815"/>
      </g>
      <g id="グループ_67" data-name="グループ 67">
        <path id="パス_85" data-name="パス 85" d="M114.339,352.513l-.7.035-.7-.052h-.7l-.7.033-.705-.025-.7-.008-.7.052-.706-.026-.7.014-.7,0-.7.015-.707-.014-.708,0-.71-.022-.71,0-.767-.346-.337-.767.01-.72-.044-.719,0-.718.013-.722.007-.723.043-.725-.007-.725.313-.765.765-.361.7.02.7,0,.7.037.7-.035.705.018.7,0,.7-.006.706-.034.7.055.7-.026.7-.031.707.059.708-.014.71-.017.71-.013.8.314.279.8.053.72-.035.719.027.718-.032.722.019.723.015.725.006.725-.346.783Z" fill="#fffdee"/>
        <path id="パス_86" data-name="パス 86" d="M114.339,352.513l-.7.035-.7-.052h-.7l-.7.033-.705-.025-.7-.008-.7.052-.706-.026-.7.014-.7,0-.7.015-.707-.014-.708,0-.71-.022-.71,0-.767-.346-.337-.767.01-.72-.044-.719,0-.718.013-.722.007-.723.043-.725-.007-.725.313-.765.765-.361.7.02.7,0,.7.037.7-.035.705.018.7,0,.7-.006.706-.034.7.055.7-.026.7-.031.707.059.708-.014.71-.017.71-.013.8.314.279.8.053.72-.035.719.027.718-.032.722.019.723.015.725.006.725-.346.783Z" fill="none" stroke="#231815" stroke-linecap="round" stroke-linejoin="round" stroke-width="1.942"/>
      </g>
      <g id="グループ_68" data-name="グループ 68">
        <path id="パス_87" data-name="パス 87" d="M111.7,351.052v0l.5-.244-.008-.768.01-.772V348.5l-.007-.775,0-.775-.487-.255v.015l-.489.24-.013.768.015.772v.773l.006.775-.023.775Z" fill="#231815"/>
      </g>
      <g id="グループ_69" data-name="グループ 69">
        <path id="パス_88" data-name="パス 88" d="M106.406,351.062v-.019l-.483-.23,0-.768-.013-.772.018-.773-.007-.775,0-.775.488-.25v.019l.479.231.008.768-.008.772v1.549l0,.775Z" fill="#231815"/>
      </g>
    </g>
  </g>
</svg>
