<?xml version="1.0" encoding="UTF-8"?>
<svg id="_レイヤー_2" data-name="レイヤー 2" xmlns="http://www.w3.org/2000/svg" viewBox="0 0 848.24 391.43">
  <defs>
    <style>
      .cls-1 {
        fill: #231815;
      }

      .cls-1, .cls-2, .cls-3, .cls-4, .cls-5, .cls-6, .cls-7, .cls-8, .cls-9, .cls-10, .cls-11, .cls-12, .cls-13, .cls-14, .cls-15, .cls-16, .cls-17, .cls-18, .cls-19 {
        stroke-width: 0px;
      }

      .cls-2 {
        fill: #2e2e2e;
      }

      .cls-3 {
        fill: #7eacc4;
      }

      .cls-4 {
        fill: #f2eacf;
      }

      .cls-20 {
        stroke-width: 4px;
      }

      .cls-20, .cls-21 {
        fill: none;
        stroke: #231815;
        stroke-linecap: round;
        stroke-linejoin: round;
      }

      .cls-5 {
        fill: #f9a703;
      }

      .cls-6 {
        fill: #faa2ad;
      }

      .cls-7 {
        fill: #954828;
      }

      .cls-8 {
        fill: #a14c16;
      }

      .cls-9 {
        fill: #fcefbb;
      }

      .cls-10 {
        fill: #a04e18;
      }

      .cls-11 {
        fill: #9f4913;
      }

      .cls-12 {
        fill: #ffdc46;
      }

      .cls-13 {
        fill: #f03c3c;
      }

      .cls-21 {
        stroke-width: 3px;
      }

      .cls-14 {
        fill: #9f4e18;
      }

      .cls-15 {
        fill: #a65823;
      }

      .cls-16 {
        fill: #f19ba4;
      }

      .cls-17 {
        fill: #fbeebb;
      }

      .cls-18 {
        fill: #fff;
      }

      .cls-19 {
        fill: #ffef7f;
      }
    </style>
  </defs>
  <g id="design">
    <g>
      <g>
        <g>
          <path class="cls-19" d="M669.45,370.52c-2.97.48-5.93,1.19-8.96,1.66s-6.09.1-9.13.54-5.79,2.25-8.82,2.66-6.04.48-9.08.88-6.01.7-9.04,1.07-5.86,2.01-8.89,2.36-6.25-1.45-9.29-1.12-5.82,2.54-8.86,2.85-6.06.36-9.1.65-5.99,1.13-9.03,1.4-6.18-1.16-9.23-.9-5.98,1.17-9.03,1.41-6.04.49-9.09.71-6.13-.83-9.17-.62-5.93,2.17-8.98,2.36-6.09-.29-9.13-.12-6.08-.3-9.13-.15-6.02,1.04-9.07,1.18-6.08-.23-9.13-.11-6.05.67-9.09.77-6.08-.39-9.13-.3-6.06.34-9.1.41-6.05.85-9.1.91-6.08-.27-9.12-.23-6.06.52-9.11.55-6.07.33-9.12.34-6.08-.82-9.12-.82-5.99,1.07-8.97,1.06-5.99.04-8.97.02-5.96-1.97-8.94-2.01-6.01,1.43-8.99,1.37-5.98-.52-8.95-.59-5.98-.17-8.96-.25-6.01.55-8.98.45-5.92-1.98-8.89-2.09-6.02.85-9,.72-5.97-.56-8.94-.7-5.93-1.16-8.9-1.33-6.01.34-8.98.16-5.92-1.26-8.89-1.46-6.01.13-8.97-.08-6.07.92-9.04.69-5.98-.44-8.94-.69-5.91-1.25-8.87-1.51-6.05.29-9,.01-5.94-.85-8.9-1.15-5.89-1.31-8.85-1.62-5.85-1.61-8.8-1.94-6.05.16-9-.2-5.89-1.22-8.83-1.6-5.86-1.38-8.8-1.77-6.25,1.45-9.19,1.04-5.71-2.46-8.64-2.9-6.1.16-9.02-.3-5.83-1.55-8.75-2.04-6.08-.09-8.99-.6-5.58-2.88-8.49-3.42-5.87-1.2-8.77-1.77-6.09-.18-8.98-.78-6.09-.27-8.98-.9-5.66-2.27-8.53-2.94-5.9-1.2-8.76-1.91-5.51-2.71-8.36-3.46-5.82-1.48-8.64-2.28-6.25-.06-9.06-.91-5.78-1.77-8.57-2.67-5.27-3.24-8.03-4.21-5.93-1.33-8.66-2.37c-2.87-1.09-6.08-1.14-8.76-2.26-2.84-1.19-5.5-2.64-8.13-3.85-2.81-1.3-5.33-2.99-7.88-4.32-2.76-1.44-5.48-2.74-7.93-4.22-2.68-1.62-4.82-3.83-7.12-5.49-2.57-1.85-4.27-4.37-6.35-6.27-2.36-2.16-4.67-3.88-6.37-6.1-1.95-2.54-3.39-4.97-4.43-7.57-1.15-2.87-3.18-5.58-3.18-8.52s1.57-5.79,2.71-8.65c1.03-2.59,1.46-5.93,3.39-8.45,1.68-2.2,4.49-3.83,6.82-5.98,2.05-1.89,4.82-3.18,7.36-5.02,2.28-1.65,3.96-4.53,6.62-6.15,2.43-1.47,5.46-2.21,8.2-3.64,2.53-1.33,4.89-3.3,7.68-4.6,2.6-1.21,6.15-.5,8.97-1.69,2.66-1.11,4.91-3.41,7.76-4.5s5.89-.9,8.76-1.91,5.37-2.34,8.26-3.28,5.14-3.23,8.04-4.1,5.58-1.92,8.48-2.74,5.95-.57,8.86-1.34,5.84-.9,8.76-1.63,5.45-2.51,8.38-3.2,5.79-1.14,8.72-1.79,5.72-1.47,8.65-2.09,5.77-1.25,8.71-1.84,5.98-.15,8.93-.7,5.68-1.74,8.63-2.26,5.69-1.81,8.64-2.31,5.83-1.01,8.79-1.48,5.92-.41,8.88-.85c2.24-.34,4.46-.92,6.74-1.24,2.98-.43,6.26,1.09,9.29.67s6.01-.6,9.05-1,5.69-3.2,8.73-3.57,6.13.26,9.16-.09,6.01-.7,9.05-1.02,6-.88,9.03-1.19,6.17.93,9.21.64,5.88-2.14,8.92-2.41,6.11.33,9.15.08,5.95-1.65,8.99-1.89,6.17,1.23,9.21,1.01,5.99-1.14,9.03-1.35,5.99-1.22,9.04-1.41,6.11.7,9.15.53,6.01-1.08,9.06-1.24,6.13,1.26,9.17,1.12,6.02-1.1,9.06-1.22,6.07.14,9.12.03,6.01-1.68,9.06-1.77,6.08.48,9.13.41,6.08.52,9.12.47,6.06-.46,9.11-.5,6.06-.3,9.11-.33,6.07.08,9.12.06,6.07-.99,9.12-.99,5.98,1.97,8.96,1.98,5.98-.58,8.96-.55,5.98.3,8.96.35,5.99-.37,8.97-.32,6.01-1.25,8.99-1.18,5.98.33,8.96.41,5.94,1.43,8.92,1.53,5.94,1.13,8.92,1.25,6.02-.78,8.99-.65,6.01-.46,8.99-.31,5.96.72,8.93.88,6.03-.57,9-.4,5.86,2.27,8.83,2.46,6.01-.15,8.98.06,6.03-.29,8.99-.07,5.89,1.52,8.85,1.77,6.01-.05,8.97.21,6.1-.85,9.05-.57,5.95.79,8.91,1.08,5.81,2.06,8.77,2.37,6.07-.41,9.03-.08,5.86,1.52,8.81,1.87,6.1-.49,9.05-.12,5.91,1.12,8.85,1.51,5.7,2.55,8.64,2.97,6.13-.5,9.07-.06,5.74,2.15,8.67,2.61,6.02.33,8.94.82,6.13-.21,9.04.3,5.89,1.2,8.8,1.74,5.75,1.93,8.65,2.5,6.02.54,8.91,1.14,5.56,2.72,8.45,3.35,6.34-.76,9.21-.09,5.33,3.56,8.19,4.27,5.91,1.12,8.76,1.87,5.93,1.09,8.76,1.89,5.6,2.29,8.41,3.14,6.33-.02,9.11.88,5.06,3.9,7.81,4.86,5.79,1.69,8.51,2.72c2.87,1.09,5.54,2.36,8.22,3.48,2.84,1.19,5.67,2.1,8.29,3.32,2.81,1.3,5.56,2.4,8.11,3.74,2.76,1.44,5.5,2.61,7.95,4.09,2.68,1.62,5.78,2.4,8.08,4.06,2.57,1.85,3.77,5.1,5.84,7,2.36,2.16,5.47,3.31,7.16,5.52,1.95,2.54,1.99,5.86,3.03,8.46,1.15,2.87,3.08,5.37,3.08,8.32s-.96,5.85-2.12,8.74c-1.05,2.61-1.58,5.93-3.53,8.47-1.71,2.22-4.23,4.18-6.6,6.34-2.08,1.9-4.33,4.04-6.9,5.89-2.31,1.66-5.4,2.49-8.09,4.11-2.46,1.48-5.5,2.11-8.27,3.55-2.56,1.33-4.32,4.54-7.14,5.84-2.63,1.22-5.77,1.59-8.62,2.77-2.69,1.12-5.17,3.05-8.04,4.14s-6.1.57-8.99,1.58-5.48,2.28-8.39,3.22-5.44,2.5-8.37,3.38-5.71,1.67-8.64,2.49-6.09.24-9.04,1.01-5.32,3.19-8.28,3.92-6.06.27-9.02.95-5.54,2.51-8.51,3.16"/>
          <path class="cls-21" d="M669.45,370.52c-2.97.48-5.93,1.19-8.96,1.66s-6.09.1-9.13.54-5.79,2.25-8.82,2.66-6.04.48-9.08.88-6.01.7-9.04,1.07-5.86,2.01-8.89,2.36-6.25-1.45-9.29-1.12-5.82,2.54-8.86,2.85-6.06.36-9.1.65-5.99,1.13-9.03,1.4-6.18-1.16-9.23-.9-5.98,1.17-9.03,1.41-6.04.49-9.09.71-6.13-.83-9.17-.62-5.93,2.17-8.98,2.36-6.09-.29-9.13-.12-6.08-.3-9.13-.15-6.02,1.04-9.07,1.18-6.08-.23-9.13-.11-6.05.67-9.09.77-6.08-.39-9.13-.3-6.06.34-9.1.41-6.05.85-9.1.91-6.08-.27-9.12-.23-6.06.52-9.11.55-6.07.33-9.12.34-6.08-.82-9.12-.82-5.99,1.07-8.97,1.06-5.99.04-8.97.02-5.96-1.97-8.94-2.01-6.01,1.43-8.99,1.37-5.98-.52-8.95-.59-5.98-.17-8.96-.25-6.01.55-8.98.45-5.92-1.98-8.89-2.09-6.02.85-9,.72-5.97-.56-8.94-.7-5.93-1.16-8.9-1.33-6.01.34-8.98.16-5.92-1.26-8.89-1.46-6.01.13-8.97-.08-6.07.92-9.04.69-5.98-.44-8.94-.69-5.91-1.25-8.87-1.51-6.05.29-9,.01-5.94-.85-8.9-1.15-5.89-1.31-8.85-1.62-5.85-1.61-8.8-1.94-6.05.16-9-.2-5.89-1.22-8.83-1.6-5.86-1.38-8.8-1.77-6.25,1.45-9.19,1.04-5.71-2.46-8.64-2.9-6.1.16-9.02-.3-5.83-1.55-8.75-2.04-6.08-.09-8.99-.6-5.58-2.88-8.49-3.42-5.87-1.2-8.77-1.77-6.09-.18-8.98-.78-6.09-.27-8.98-.9-5.66-2.27-8.53-2.94-5.9-1.2-8.76-1.91-5.51-2.71-8.36-3.46-5.82-1.48-8.64-2.28-6.25-.06-9.06-.91-5.78-1.77-8.57-2.67-5.27-3.24-8.03-4.21-5.93-1.33-8.66-2.37c-2.87-1.09-6.08-1.14-8.76-2.26-2.84-1.19-5.5-2.64-8.13-3.85-2.81-1.3-5.33-2.99-7.88-4.32-2.76-1.44-5.48-2.74-7.93-4.22-2.68-1.62-4.82-3.83-7.12-5.49-2.57-1.85-4.27-4.37-6.35-6.27-2.36-2.16-4.67-3.88-6.37-6.1-1.95-2.54-3.39-4.97-4.43-7.57-1.15-2.87-3.18-5.58-3.18-8.52s1.57-5.79,2.71-8.65c1.03-2.59,1.46-5.93,3.39-8.45,1.68-2.2,4.49-3.83,6.82-5.98,2.05-1.89,4.82-3.18,7.36-5.02,2.28-1.65,3.96-4.53,6.62-6.15,2.43-1.47,5.46-2.21,8.2-3.64,2.53-1.33,4.89-3.3,7.68-4.6,2.6-1.21,6.15-.5,8.97-1.69,2.66-1.11,4.91-3.41,7.76-4.5s5.89-.9,8.76-1.91,5.37-2.34,8.26-3.28,5.14-3.23,8.04-4.1,5.58-1.92,8.48-2.74,5.95-.57,8.86-1.34,5.84-.9,8.76-1.63,5.45-2.51,8.38-3.2,5.79-1.14,8.72-1.79,5.72-1.47,8.65-2.09,5.77-1.25,8.71-1.84,5.98-.15,8.93-.7,5.68-1.74,8.63-2.26,5.69-1.81,8.64-2.31,5.83-1.01,8.79-1.48,5.92-.41,8.88-.85c2.24-.34,4.46-.92,6.74-1.24,2.98-.43,6.26,1.09,9.29.67s6.01-.6,9.05-1,5.69-3.2,8.73-3.57,6.13.26,9.16-.09,6.01-.7,9.05-1.02,6-.88,9.03-1.19,6.17.93,9.21.64,5.88-2.14,8.92-2.41,6.11.33,9.15.08,5.95-1.65,8.99-1.89,6.17,1.23,9.21,1.01,5.99-1.14,9.03-1.35,5.99-1.22,9.04-1.41,6.11.7,9.15.53,6.01-1.08,9.06-1.24,6.13,1.26,9.17,1.12,6.02-1.1,9.06-1.22,6.07.14,9.12.03,6.01-1.68,9.06-1.77,6.08.48,9.13.41,6.08.52,9.12.47,6.06-.46,9.11-.5,6.06-.3,9.11-.33,6.07.08,9.12.06,6.07-.99,9.12-.99,5.98,1.97,8.96,1.98,5.98-.58,8.96-.55,5.98.3,8.96.35,5.99-.37,8.97-.32,6.01-1.25,8.99-1.18,5.98.33,8.96.41,5.94,1.43,8.92,1.53,5.94,1.13,8.92,1.25,6.02-.78,8.99-.65,6.01-.46,8.99-.31,5.96.72,8.93.88,6.03-.57,9-.4,5.86,2.27,8.83,2.46,6.01-.15,8.98.06,6.03-.29,8.99-.07,5.89,1.52,8.85,1.77,6.01-.05,8.97.21,6.1-.85,9.05-.57,5.95.79,8.91,1.08,5.81,2.06,8.77,2.37,6.07-.41,9.03-.08,5.86,1.52,8.81,1.87,6.1-.49,9.05-.12,5.91,1.12,8.85,1.51,5.7,2.55,8.64,2.97,6.13-.5,9.07-.06,5.74,2.15,8.67,2.61,6.02.33,8.94.82,6.13-.21,9.04.3,5.89,1.2,8.8,1.74,5.75,1.93,8.65,2.5,6.02.54,8.91,1.14,5.56,2.72,8.45,3.35,6.34-.76,9.21-.09,5.33,3.56,8.19,4.27,5.91,1.12,8.76,1.87,5.93,1.09,8.76,1.89,5.6,2.29,8.41,3.14,6.33-.02,9.11.88,5.06,3.9,7.81,4.86,5.79,1.69,8.51,2.72c2.87,1.09,5.54,2.36,8.22,3.48,2.84,1.19,5.67,2.1,8.29,3.32,2.81,1.3,5.56,2.4,8.11,3.74,2.76,1.44,5.5,2.61,7.95,4.09,2.68,1.62,5.78,2.4,8.08,4.06,2.57,1.85,3.77,5.1,5.84,7,2.36,2.16,5.47,3.31,7.16,5.52,1.95,2.54,1.99,5.86,3.03,8.46,1.15,2.87,3.08,5.37,3.08,8.32s-.96,5.85-2.12,8.74c-1.05,2.61-1.58,5.93-3.53,8.47-1.71,2.22-4.23,4.18-6.6,6.34-2.08,1.9-4.33,4.04-6.9,5.89-2.31,1.66-5.4,2.49-8.09,4.11-2.46,1.48-5.5,2.11-8.27,3.55-2.56,1.33-4.32,4.54-7.14,5.84-2.63,1.22-5.77,1.59-8.62,2.77-2.69,1.12-5.17,3.05-8.04,4.14s-6.1.57-8.99,1.58-5.48,2.28-8.39,3.22-5.44,2.5-8.37,3.38-5.71,1.67-8.64,2.49-6.09.24-9.04,1.01-5.32,3.19-8.28,3.92-6.06.27-9.02.95-5.54,2.51-8.51,3.16"/>
        </g>
        <g>
          <polyline class="cls-12" points="233.81 308.94 236.34 307.55 236.34 306.16 237.17 306.16 238.87 303.38 238.03 299.9 233.81 299.19 232.12 301.97 231.28 301.97 231.28 303.37 227.39 307.56 227.07 313.11 233.81 308.94"/>
          <polyline class="cls-12" points="208.54 299.2 209.59 305.09 210.23 311.04 211.06 311.72 216.13 311.04 216.13 309.65 217.8 308.94 216.97 307.55 217.81 304.08 216.96 304.08 216.97 298.52 216.13 298.51 216.12 297.81 208.54 299.19"/>
          <polyline class="cls-12" points="176.23 303.67 179.5 313.1 180.26 313.56 184.06 312.46 183.84 311.34 185.02 310.58 184.14 309.54 184.22 306.63 183.57 306.72 182.64 302.21 181.99 302.3 181.87 301.72 176.23 303.67"/>
          <polyline class="cls-12" points="196.75 296.42 195.06 295.74 190.85 296.41 191.69 306.16 194.23 313.11 199.28 312.43 199.11 304.26 196.75 296.42"/>
        </g>
        <g>
          <polyline class="cls-12" points="644.28 310.94 641.75 309.55 641.75 308.16 640.91 308.16 639.23 305.37 640.07 301.91 644.28 301.2 645.96 303.98 646.8 303.98 646.8 305.38 650.71 309.55 651.02 315.12 644.28 310.94"/>
          <polyline class="cls-12" points="669.55 301.2 668.51 307.09 667.86 313.04 667.03 313.73 661.97 313.04 661.97 311.65 660.29 310.94 661.13 309.55 660.29 306.08 661.11 306.08 661.12 300.52 661.97 300.52 661.97 299.81 669.55 301.2"/>
          <polyline class="cls-12" points="701.86 305.67 698.59 315.1 697.83 315.56 694.02 314.46 694.26 313.33 693.08 312.58 693.95 311.54 693.88 308.64 694.53 308.73 695.44 304.21 696.1 304.3 696.22 303.73 701.86 305.67"/>
          <polyline class="cls-12" points="681.34 298.41 683.02 297.73 687.23 298.41 686.39 308.15 683.86 315.11 678.81 314.43 678.96 306.26 681.33 298.41"/>
        </g>
        <g>
          <polyline class="cls-12" points="566.64 238.97 565.69 244.88 564.33 250.7 564.9 251.62 569.9 252.65 570.36 251.34 572.18 251.22 571.85 249.63 573.78 246.63 572.98 246.35 574.82 241.1 574.03 240.82 574.26 240.15 566.64 238.96"/>
          <polyline class="cls-12" points="535.23 241.67 538.5 251.1 539.26 251.56 543.06 250.46 542.84 249.34 544.02 248.58 543.14 247.54 543.22 244.63 542.57 244.72 541.64 240.21 540.99 240.3 540.87 239.72 535.23 241.67"/>
          <polyline class="cls-12" points="555.75 234.42 554.06 233.74 549.85 234.41 550.69 244.16 553.23 251.11 558.28 250.43 558.11 242.26 555.75 234.42"/>
        </g>
        <g>
          <polyline class="cls-12" points="366.41 342.87 368.72 352.15 368.15 352.87 363.15 353.68 362.69 352.64 360.87 352.55 361.2 351.29 359.28 348.92 360.06 348.71 358.22 344.55 359.03 344.33 358.79 343.81 366.41 342.87"/>
          <polyline class="cls-12" points="397.82 345.01 394.55 352.46 393.79 352.83 389.98 351.96 390.22 351.06 389.03 350.46 389.91 349.64 389.84 347.35 390.49 347.42 391.4 343.85 392.06 343.92 392.18 343.47 397.82 345.01"/>
          <polyline class="cls-12" points="377.3 339.27 378.98 338.73 383.19 339.27 382.35 346.97 379.82 352.47 374.77 351.93 374.94 345.4 377.29 339.27"/>
        </g>
      </g>
      <g>
        <path class="cls-1" d="M473.72,338.6c-11.69-3.24-14.53-14.32-10.49-23.31,1.97-4.37,4.02-8.67,6.96-12.57-2.4-1.55-4.07-.19-5.81.84-7.32,4.32-14.47,8.94-22.57,11.81-3.76,1.33-7.64,2-11.49,2.88-2.7.62-5.31.16-7.92-.99-5.95-2.61-12.03-4.25-18.78-3.7-5.52.45-10.48-2.46-15.24-5.04-5.99-3.25-12.48-5.83-16.53-11.72-.93.5-1.56.69-1.98,1.1-8.53,8.06-19.02,8.78-29.91,8.05-1.25-.08-2.53-.07-3.76-.3-1.87-.35-3.24.07-4.09,1.88-1.95,4.2-5.93,5.16-9.88,5.59-9.91,1.08-19.6.31-28.45-4.9-1.33-.79-2.26-1.08-3.93-.55-3.55,1.11-7.33,1.44-10.95,2.36-2.07.53-4.26,1.51-5.87-.28-2.02-2.25-4.74-3.87-5.48-7.37-1.35-6.39,2.09-10.49,6.39-13.82,1.92-1.49,2.3-2.27,1.71-4.42-.55-1.97-.54-4.14-.54-6.22,0-3.7.87-7.39-3.71-9.64-2.12-1.04-2.71-4.06-3.09-6.59-1.15-7.47-2.5-14.87,3.51-21.29,2.47-2.64,2.09-3.95-.75-6.03-2.54-1.86-5.11-3.68-7.22-6.02-1.87-2.07-3.53-4.34-6.77-2.11-.65.45-1.57.21-2.21-.55-.95-1.12,1.75-3.13,2.22-4.02.68-1.8.4-7.23-3.71-7.18-1.67.02-6.25.86-7.91.8-.47-.02-1.19-.6-1.29-1.04-.1-.47.27-1.19.65-1.59,1.45-1.56,3.5-1.09,5.32-1.4,1.68-.29,3.94-.88,2.92-2.88-.99-1.93,1.5-5.4-2.77-5.96-2.68-.35-5.29-1.1-8.05-.9-1,.07-2.24-.14-2.17-1.57.05-1.11.77-2.05,1.93-2.11,2.5-.14,5.06-.4,7.52-.05,2.68.39,3.32-1.17,3.8-3.05.31-1.2.27-2.49.43-3.73.63-4.71,2.46-8.96,6.13-11.95,5.81-4.73,11.38-9.94,18.58-12.56,2.51-.91,3.25-2.42,3.03-4.72-.34-3.48.69-6.54,2.32-9.55,1.81-3.34,2.17-7.1,2.85-10.79,1-5.51,4.4-7.7,9.31-6.78,2.16.4,3.11,1.93,4.28,3.36,4.24,5.2,7.59,10.94,10.43,16.99,1.04,2.22,2.61,3.07,3.24,2.98,1.09-.17,8.54.02,9.36-.18s1.19-2.07,4.12-5.56c3.23-3.85,6.62-7.56,9.98-11.3,2.57-2.86,5.59-4.89,9.48-5.68,4.32-.88,6.22-.08,7.56,4.12,1.65,5.18,2.29,10.59,2.46,15.98.09,2.87.63,4.73,3.59,5.48,2.01.51,3.34,2.52,5.79,2.76,3.05-5.67,4.49-11.9,5.59-18.16.76-4.33,2.71-7.92,5.74-10.83,2.06-1.97,3.62-4.01,3.94-6.81.42-3.67,2.24-6.65,4.31-9.55,5.11-7.15,8.73-15.15,12.68-22.93,3.76-7.41,10.29-10.86,17.47-13.02,3.07-.92,6.93.65,10.18,2.1,5.37,2.4,11.12,2.95,17.45,4.23-.84-5.71-1.22-10.8-2.38-15.7-2.71-11.44-1.37-22.26,3.75-32.77,2.75-5.64,5.27-11.33,10.4-15.4,1.96-1.55,2.9-4,3.83-6.36,1.28-3.24,3.63-5.43,6.79-7.01,5.03-2.52,10.02-5.08,14.79-8.17,3.97-2.57,8.86-3.8,13.78-3,6.35,1.04,12.65,2.41,18.54,5.14,2.87,1.33,5.48,3.11,7.43,5.65,4.08,5.32,7.32,11.25,9.66,17.42,2.77,7.3,1.39,14.65-2.87,21.32-.67,1.04-1.41,2.09-1.78,3.25-3.61,11.16-11.69,18.14-21.15,24.47-7.59,5.08-15.26,10.13-22.66,15.52-2.52,1.83-2.39,3.33.55,4.08,5.12,1.31,9.76,3.45,14.04,6.47,2.05,1.44,3.82,1.42,5.19-.99,1.94-3.42,4.16-6.6,5.64-10.38,2.72-6.95,5.81-13.8,13.28-17.46,2.95-1.45,5.08-4.43,6.74-7.34,3.64-6.34,9.42-10,15.77-12.83,4.61-2.05,8.94-4.48,13.13-7.24,8.97-5.91,24.53-7.26,33.59-3.52,5.61,2.31,9.02,6.67,12.07,11.42,5.29,8.24,6.53,17.44,5.76,27.02-.3,3.73-2.26,6.73-4.74,9.29-4.65,4.82-9.02,9.91-13.55,14.82-4.12,4.47-10.04,6.78-15.85,8.14-10.92,2.56-20.66,8.14-31.92,11.07,3.42,5,8.09,6.55,12.89,7.85,1,.27,2.14.06,3.09.4,10.3,3.63,17.47,11.04,11.78,24.32-3.08,7.18-6.3,14.44-13.03,19.51-4.31,3.24-7.45,7.78-9.64,12.91-1.21,2.84-3.19,5.37-4.86,8.01-3.66,5.79-7.77,11.23-10.06,17.89-1.89,5.47-5.17,10.4-8.85,14.99-4.19,5.22-7.52,10.89-7.97,18.11,1.28-.28,2.53-.32,3.55-.82,9.06-4.39,17.93-1.87,26.77.68,2.1.6,3.36,2.28,4.3,4.26,2.76,5.79,2.62,11.75,1.03,17.73-1.95,7.31-5,14.11-10.22,19.76-1.12,1.21-2.38,2.36-2.89,4.1,2.02,1.03,4.12.62,6.01.03,2.95-.92,5.63-.22,8.55.11,6.58.75,8.57,5.59,9.88,10.48,1.45,5.44-.65,9.93-5.55,13.47-6.87,4.96-13.93,8.73-22.58,9.66-5.56.59-10.82.19-16.03-1.46-2.99-.94-5.29-1.37-7.11,2.2-1.44,2.84-4.4,4.47-7.55,5.25-4.45,1.1-8.48,3.65-13.21,3.75-.22,0-.42.62-.63.95h-7.55c-2.43-1.58-5.34.17-7.81-1.11Z"/>
        <path class="cls-2" d="M473.72,338.6c2.6.38,5.53-1.49,7.81,1.11h-7.55c-.2-.34-.28-.72-.26-1.11Z"/>
        <path class="cls-16" d="M514.28,257.25c3.58-1.21,6.74-2.12,9.78-3.34,6.2-2.49,11.92-.05,17.65,1.67,2.58.78,2.72,3.39,2.83,5.72.43,8.95-2.52,16.82-8,23.75-2.71,3.43-5.52,6.82-9.13,9.42-.84.6-1.64,1.35-2.24,2.18-2.1,2.93-1.02,5.76,2.53,6.56,3.33.75,6.71.34,9.94-.44,3.1-.74,6.23-.72,9.34-1.07,1.71-.19,3.12.41,4.58,1.51,5.28,3.99,5.29,7.4-.17,11.04-1.9,1.27-3.63,2.8-5.56,4-7.76,4.83-16.29,4.61-24.87,3.46-2.71-.36-4.64-1.43-4.36-5.2.31-4.2-2.72-6.87-6.63-8.05-1.79-.54-3.64-.81-5.35-2.2,4.81-5.27,9-10.97,13.14-16.75,4.31-6.02,5.44-12.98,6.49-19.93.74-4.89-1.8-8.35-6.25-10.42-1.1-.51-2.16-1.11-3.71-1.92Z"/>
        <path class="cls-9" d="M299.16,255.58c-2.91,7.67-.35,14.88.41,22.18.15,1.44.48,2.87.77,4.3.5,2.44-.35,3.98-2.81,4.72-2.25.67-4.09,2.09-5.67,3.8-2.4,2.6-2.8,4.92-2.02,10.8-1.93.06-4.69,2.38-4.45-2.21.07-1.44-.74-2.38-2.2-2.51-1.31-.12-2.43.33-3.31,1.39-.84,1.02-1.14,2.23-1.27,3.48-.16,1.62-1.22,2.14-2.58,2.04-1.53-.1-1.9-1.33-2.12-2.64-.82-4.99.09-6.18,5.12-6.68,1.02-.1,2.08-.21,3.02-.58,2.23-.88,3.72-2.47,2.01-4.78-1.74-2.36-1.94-5.11-2.35-7.68-1.13-7.05-.58-13.6,5.83-18.6,3.47-2.71,5.88-6.85,11.6-7.02Z"/>
        <path class="cls-17" d="M277.21,264.46c-4.77-6.8-4.57-15,.36-20.64,1.24-1.41,2.29-2.87,3.15-4.58,3.32-6.6,10.97-10.45,18.12-9.28,2.1.35,4.25,1,4.28,3.67.03,1.95-3.38,4.18-5.6,3.92-5.89-.71-7.34.57-6.32,6.31.56,3.15.16,5.81-2.22,7.88-4.38,3.8-7.59,8.69-11.78,12.72Z"/>
        <path class="cls-7" d="M493.98,111.03c-.58.45-1.07.79-1.54,1.18-6.46,5.32-6.81,5.37-14.33,1.31-1.43-.77-2.67-1.97-4.16-2.57-1.46-.59-3.28.28-4.79-.69.21-2.29,1.53-3.88,2.67-5.59,1.02-1.52,1.81-3.18,2.73-4.82,5.32,5.78,14.58,4.03,19.42,11.19Z"/>
        <path class="cls-10" d="M356.96,270.8c-1.13.32-2.25.83-3.39.89-1.35.07-2.27-.92-2.7-2.12-.47-1.3.07-2.53,1.19-3.19,1.35-.8,2.6-1.72,4.26-2.15,2.02-.53,5.09-1.2,6.51-3.23,2.37,2.78,1.79,4.86,2.72,7.11-2.37,2.49-5.1,3.82-8.6,2.69Z"/>
        <path class="cls-15" d="M368.05,278.01c-.92-.32-1.59-1.47-2.79-.89-1.12.54-2.2,1.16-3.34,1.65-1.94.85-4.25,1.76-5.76-.13-2-2.51.52-3.99,2.06-5.55,2.03-2.04,4.14-3.87,7.35-2.65.07,2.77,2.67,4.71,2.47,7.57Z"/>
        <path class="cls-6" d="M594.43,56.28c-2.67-3.99-6.31-7.22-11.08-7.54-7.88-.53-15.96-.9-23.04,3.86-4.87,3.27-9.92,6.16-15.36,8.41-5.13,2.12-9.22,5.48-12.31,10.29-2.47,3.85-5.56,7.49-9.64,9.76-3.33,1.85-5.38,4.61-7.02,7.77-1.43,2.77-2.61,5.69-3.71,8.61-1.65,4.4-4.16,8.68-7.63,11.28-4.83,3.61-9.5,7.33-13.84,11.5-1.67,1.6-3.2,1.97-5.61,1.14-6.35-2.19-12.17-6.16-19.4-5.62-2.35.17-3.07-1.69-2.4-3.99.89-3.04,2.33-5.81,4.01-8.45,1.33-2.1,2.92-3.97,1.68-6.82-.76-1.75.45-3.26,1.82-4.33,1.65-1.29,3.39-2.46,5.14-3.61,5.6-3.64,11.42-6.98,16.75-10.97,2.83-2.12,5.37-4.68,8.59-6.23,12.81-6.18,17.13-18.68,22.66-30.27.26-.54.12-1.25.26-1.85,1.37-5.79-1.6-10.39-3.71-15.43-4.22-10.06-12.12-14.42-22.19-16.08-.82-.14-1.75.03-2.49-.29-4.09-1.76-8.12-.61-11.31,1.49-4.92,3.25-10.29,5.55-15.35,8.46-2.15,1.24-3.51,2.79-4.45,4.99-1.24,2.9-2.7,5.74-5.15,7.8-6.41,5.38-8.96,13-11.54,20.42-1.84,5.28-2.85,11.03-1.27,16.67,1.82,6.47,1.89,13.19,3.29,19.71,1.04,4.85-2.51,9.2-7.24,8.31-6.11-1.15-12.38-1.78-18.24-4.18-8.66-3.55-15.31-1.07-19.96,7.07-4.35,7.62-7.83,15.73-12.89,22.93-2.09,2.98-3.8,6.06-4.28,9.6-.43,3.16-2.02,5.37-4.29,7.39-2.89,2.58-4.61,5.69-5.17,9.7-.78,5.57-2.03,11.19-4.79,16.11-2.96,5.28-1.23,9.4,1.85,13.59.87,1.18,1.64,2.45,2.61,3.54,1.79,2.02.99,5.16,2.51,6.87,1.91,2.14,5.19.39,7.79,1.08.9.24,1.46.87,1.53,1.75.07.9-.42,1.69-1.33,1.84-1.44.24-2.94.52-4.36.34-3.09-.37-3.18,1.89-3.82,3.84-.74,2.27.48,2.9,2.34,3.47,1.58.48,3.4,1.45,2.55,3.49-.86,2.07-2.69,1.4-4.32.71-.53-.22-1.15-.23-2-.38-1.2,3.11-2.45,6.1-2.89,9.47.87.19,1.46.41,2.06.43,9.05.31,15.5,4.04,18.43,13.13,1.08,3.33,3.09,6.38,4.78,9.5.69,1.27,1.49,2.68,3.21,2.67,5.42-.01,10.94.79,16.19-1.11,8.24-2.98,16.72-5.54,22.88-12.41,1.24-1.38,2.83-1.77,4.42-.34,1.52,1.36,1.5,3.07.48,4.52-1.06,1.52-2.39,2.97-3.9,4.04-10.6,7.53-22.24,11.87-35.42,12.67-8.08.49-12.54-3.08-15.56-9.78-1.46-3.24-2.99-6.44-4.43-9.69-1.36-3.08-3.49-5.32-6.94-5.65-4.58-.45-9.1-1.35-13.74-1.31-4.29.03-7.72,1.6-10.45,4.79-.87,1.02-2.94,2.05-1.9,3.45,1.23,1.67,2.36,1.1,3.29-.04.9-1.11,2.52-1.7,3.61-2.32,1.56-.89,3.2-1.14,4.62.29,1.83,1.84.41,3.43-.49,5.04-4.26,1.46-7.72,3.99-10.12,7.81-1.93,3.07-1.67,4.35,1.06,7.06,4.62-11.74,5.24-10.49,10.57-13.33,1.88.01,3.77-.08,5.64.07,1.36.11,2.33,1.05,2.56,2.39.23,1.35-.5,2.56-1.61,3.15-1.06.56-2.39.61-3.6.92-3.38.88-5.49,2.85-5.69,6.52,5.65,1.13,11.22-.98,14.25-5.45.83-1.22,1.4-2.68,3.22-2.52,2.06.18,2.78,1.59,2.93,3.44.13,1.6,1.32,2.49,2.31,3.59,4.71,5.22,11.48,6.48,17.5,9.14,2.86,1.26,6.01,1.89,9.18,1.14,3.08-.73,6.32-.49,9.33-1.2,4.44-1.05,9.49.14,13.33-2.76,4.34-3.28,9.46-5.38,13.41-9.25,1.63-1.6,3.94-3.28,5.99-.94,1.94,2.21.32,4.25-1.47,5.93-2.13,2.01-4.21,4.06-6.9,5.39-1.68.83-3.44,1.7-4.8,2.93-3.63,3.28-8.05,4.32-12.65,4.85-2.7.31-5.39.83-8.06,1.07-5.19.47-10.55,1.85-15.63.41-8.36-2.39-16.92-4.67-23.41-11.1-1.35-1.33-2.5-2.03-4.09-.07-2.12,2.61-5.31,3.13-8.45,3.51-4.01.48-4.42.87-2.44,4.35,2.03,3.55,2.78,7.38,3.65,11.24.41,1.83.62,3.78,1.44,5.42,2.08,4.18,2.3,8.54.98,12.79-.63,2.04-.31,3.04,1.09,4.26,6.63,5.72,13.46,11.07,21.95,13.9,2.23.74,4.41,1.47,6.71,1.19,6.26-.76,12.01.83,17.65,3.31,2.08.92,4.2,2.02,6.63,1.42,6.49-1.61,13.02-3.2,18.84-6.64,3.74-2.21,7.22-4.85,10.73-7.4,3.29-2.38,8.31-2.29,12.48-3.59,2.16-.67,4.14-1.98,6.18-3.02.93-.48,1.78-1.13,2.75-1.51,1.62-.64,3.45-1.02,4.55.68.98,1.52.46,3.07-.72,4.58-3.47,4.44-6.76,9.02-10.12,13.55-2.9,3.91-4.74,8.38-6.23,12.92-2.11,6.43,1.61,12.21,8.37,13.11,3.09.41,6.3.42,9.4.11,9.44-.94,17.99-3.45,22.43-13.15,1.71-3.74,2.05-5.82.09-8.11-2.2-2.58-4.88-1.79-7.51-.96-2.47.78-4.56,2.64-7.49,2.93-1.1-4.3.84-7.25,3.11-10.02,2.92-3.56,6.04-6.95,8.92-10.54,5.51-6.86,10.65-13.93,11.74-23.07.61-5.13.03-5.95-4.97-7.64-11.33-3.84-22.38-.45-33.21,1.91-6.18,1.34-12.36,3.7-18.38,6.06-2.18.86-4.15,1.44-5.43-.93-1.37-2.52.6-3.85,2.45-4.88,1.44-.81,3.03-1.4,4.61-1.91,3.18-1.02,6.61-1.49,9.56-2.94,5.98-2.95,12.4-3.58,18.81-4.5,3.5-.5,7.16-.53,10.47-1.62,2.87-.94,6.75-1.83,7.08-5.71.7-8.26,4.1-15.26,9.12-21.6,3.4-4.3,6.6-8.81,8.34-13.93,2.47-7.29,6.93-13.29,10.99-19.59,1.81-2.81,3.69-5.61,5.08-8.63,2.6-5.64,6.33-10.45,11.11-14.2,6.69-5.27,8.9-12.87,11.71-20.23.88-2.32.17-4.36-1.42-6.38-2.68-3.39-6.3-4.46-10.27-5.41-8.09-1.93-15.3-5.07-18.71-13.76-2.02-5.14-1.72-6.69,3.72-7,4.51-.26,8.6-1.64,12.67-3.29,7.14-2.89,14.26-5.64,21.79-7.58,6.15-1.59,12.18-4.51,15.97-10.32,2.54-3.91,6.16-6.84,9.34-10.16,2.07-2.15,3.55-4.48,3.82-7.64.73-8.75-1.96-16.46-6.72-23.6Z"/>
        <path class="cls-17" d="M301.09,251.64c-.58-.52-1.12-.83-1.42-1.29-1.12-1.72-2.29-3.9-1.01-5.55,1-1.29,3.28-1.35,5.34-.32-.15,2.67-2.18,4.59-2.91,7.16Z"/>
        <path class="cls-11" d="M311.87,163.84c-2.82-.1-4.18-2.44-6.08-3.95-1.36,4.38-2.42,8.71-.52,13.3,1.49,3.59,2.09,3.9,6.28,1.75,1.19-.39,1.37-1.33,1.36-2.42,0-2.87-.31-5.73-.29-8.6-.35-.19-.38-.22-.76-.08Z"/>
        <path class="cls-4" d="M260.24,196.32c2.48,0,4.97.02,7.45,0,1.1,0,2.05.16,2.34,1.43-3.15-1.26-6.76.63-9.79-1.43Z"/>
        <path class="cls-17" d="M359.44,198.81c3.62-1.01,7.33-1.06,11.04-.94,3.35.11,3.08-1.71,2.35-4.08-2.76.71-5.32,1.51-7.94,2-2.57.48-5.19,1.65-7.79.06.4-2.51,2.27-3.25,4.41-3.74,3.04-.7,6.05-1.48,9.1-2.16,2.45-.54,2.98-1.54,1.74-3.94-1.63-3.15-4.24-5.63-5.55-8.99-2.42-6.18-6.98-10.07-13.37-12-4.02-1.21-4.9-2.44-3.74-6.31,1.52-5.1-.64-9.8-.91-14.68-.11-2-1.72-2.21-3.23-1.46-1.09.55-2.12,1.38-2.95,2.29-3.79,4.16-7.52,8.38-11.23,12.61-1.23,1.4-2.56,2.83-1.88,4.98.78,2.58-.54,5.22.36,7.88.57,1.68,1.01,4.02-.87,5.09-2.1,1.18-3.36-10.43-4.95-11.15-.86-.35-1.71-.34-2.56.06-2.54,1.15.32,15.75-4.78,14.7-1.43-1.69-.72-3.55-.39-5.38.14-.85.14-1.7-.03-2.55-.58-1.93-.5-3.98-1.1-5.9-.27-.52.27-.98-.17-1.37-.4-.2-2.57-.3-2.93-.03-1.92,2.46,1.58,8.75-2.31,9.23-2.86.35-3.36-2.12-3.45-4.57-.11-2.82.65-5.9-.51-8.56-3.33-6.53-6.84-12.93-11.66-19.01-1.83,2.51-1.32,4.98-2.01,7.12-2.07,6.46-5.27,12.65-4.55,19.81.22,2.12-1.46,3.37-3.49,3.83-7.26,1.63-12.38,6.81-18.06,11-4.54,3.34-6.64,7.95-5.78,13.69,3.07,1.77,6.76-.65,9.79,1.43.88,2.72.54,4.57-2.96,4.37-1.66-.09-3.32.03-4.98-.02-2.25-.07-2.77.92-2.49,3.09.28,2.22,1.22,2.98,3.27,2.4,1.99-.57,3.9-1.47,6.07-1.2,1.14.14,2.06.54,2.28,1.73.22,1.19-.45,2.01-1.55,2.35-3.07.96-6.15,1.85-9.32,2.8,2.81,4.78,2.8,4.75,7.13,3.24,2.55-.89,5.11-1.75,7.72-2.44,1.54-.41,3.11,0,3.48,1.76.38,1.77-.94,2.7-2.47,3-3.04.59-5.94,1.43-8.91,3.42,2.81,2.61,5.35,5.05,8,7.38.94.83,2.46,1.6,3.34.41,3.57-4.83,9.3-5.09,14.22-7.08,2.88-.03,6.14-.93,8.65-.08s5.97,2.24,7.41,5.33c1.13,2.42,2.69,2,3.69.39,1.91-3.08,5-4.17,7.96-5.56,2.88-.05,5.76-.1,8.64-.15,3.14,1.75,5.63,4.07,7.38,7.3,2.09,3.85,5.68,5.52,10.29,6.4,0-1.3-.06-2.1,0-2.9.86-10.6,7.73-18.18,18.24-19.83,1.9-.3,3.1-.81,3.64-2.67.79-2.69,2.4-5.19,2.02-8.53-3.84.22-7.57-1.02-11.1,1.14-.71.44-1.68.31-2.27-.43-.79-.97-.42-1.96.26-2.81.52-.64,1.17-1.18,1.76-1.76ZM313.34,218.18c-3.57,2.32-8.03.82-11.6,2.85-.12-.36-.33-.63-.6-.81.34-1.12-.03-2.34.18-3.49,4.44,2.98,9.58,3.05,11.64-.09,2.88-4.39-.97-6.22-3.54-8.59-2.02-1.86-4.18-4.04-1.74-6.95,1.88-2.24,4.57-3.22,7.35-2.06,3.13,1.31,4.09,4.02,3.26,7.27-.31,1.22-1.25,2.18-1.73,3.33-1.63,3.88.12,6.46,4.32,6.85,1.38.13,2.61-1.42,4.21-.27-3.82,2.27-8.25-.3-11.75,1.98Z"/>
        <path class="cls-9" d="M368.05,278.01c-1.46-3.04-3.74-1.65-5.93-1.13-7.82,1.85-4.98-2.59-3.23-3.79s4.25-2.36,6.69-2.64l-.02-2.33c-2.83.16-6.05,1.43-7.43,1.94s-3.05,1.65-4.49.45c-.75-.62-.67-1.9-.21-2.68s1.73-1.49,2.76-2.15c2.08-1.32,3.52-.87,7.19-3.97-.1-.38-1.14-4.05-1.28-4.42-2.62-2.39-5.64,2.48-8.33,3-2.47.48-4.76,1.97-7.42,1.32,2.37-3.37,10.68-4.59,12.7-8.36-3.75-2.44-9.91-4.6-10.62-9.23-2.18-2.56-5.29-.3-7.74-1.48-4.08-3.05-8.99-5-11.2-10.32-1.2-2.88-8.27-2.92-10.44-.51-.72.8-1.26,1.71-1.09,2.8.1.65-.07,1.28,1.21,1.53,6.37,1.2,7.11,2.24,7.22,8.68.09,5.39,3.06,8.79,8.5,9.66,1.43.23,2.92.23,4.31.61,4.15,1.14,4.55,2.33,2.43,6.66-1.26-.01-2.51.04-3.77-.04-10.81-.72-15.74-4.81-18.31-15.17-.2-.82-.32-1.63-1.3-2.32-2.09,1.45-5.53,0-7.15,2.81-3.34,5.81-6.56,11.81-6.16,18.74.3,5.17,1.18,10.32,2.53,15.39,1.89,7.09.7,9.23-6.01,11.89-5.21,1.3-7.69,5.46-3.62,8.79.62-1.76,1.24-3.19,2.13-4.27,1.45-1.77,3.41-2.17,5.41-.58,1.11.84.28,5.68-.61,8.5,1.69.54,3.04.97,4.46,1.42.26-3.03-.64-5.92.53-8.7.68-1.6,1.39-3.28,3.44-3.02,2.04.26,2.48,1.89,2.4,3.75-.08,1.66-.28,3.39.05,4.99.32,1.57,1,3.1,3.19,3.23,2.57.14,4.1-1.8,6.13-2.69,1.81-.8.78-2.6.71-3.93-.24-5.2,2.16-9.21,5.55-12.79,1.05-1.11,2.36-1.81,3.89-.81,1.71,1.12,1.95,2.69.92,4.34-1.15,1.84-2.47,3.58-3.56,5.14.82,1.68,1.95,2.31,3.18,2.55,8.6,1.68,17.14,1.37,25.14-2.31,6.3-2.89,9.46-11.8,7.27-18.5Z"/>
        <path class="cls-1" d="M431.14,188.75c-7.64,5.7-16.87,2.59-20.25-2.96-1.5-2.47-2.07-4.92-1.31-7.74.42-1.55,1.09-2.89,2.79-2.87,1.81.02,2.51,1.47,2.37,3.06-.25,2.77.72,4.86,2.9,6.51,4.22,3.2,8.36,1.83,10.28-3.18,1.44-3.76,1.19-6.47-2.42-9.13-5.71-4.21-5.61-10.61-4.19-16.64,1.08-4.59,5.59-5.91,9.71-6.91,1.59-.39,3.34-.17,5.01-.16,6.62.03,10.66,2.78,12.43,8.41,1.88,6,.23,11.57-5.55,14.43-5.23,2.59-6.61,6.4-6.43,11.58.18,5.14,2.09,7.23,7.59,8.05,4.64.69,5.9-.14,7.48-4.85.26-.78.58-1.57,1.02-2.27.58-.92,1.45-1.57,2.61-1.34,1.12.22,1.81,1.09,2.12,2.1,1.5,4.92-2.69,11.06-7.87,11.45-7.38.56-14.44.21-18.3-7.56Z"/>
        <path class="cls-1" d="M442.38,117.29c.08,1.88-1.29,2.67-2.71,2.94-5.49,1.03-10.71,3.52-16.48,3.11-1.87-.13-3.76-.04-5.64-.01-3.25.05-6.85-.72-7.8,4.03-.28,1.38-1.82,1.64-3.11,1.26-1.39-.41-1.82-1.56-1.82-2.93,0-3.35,2.25-6.45,5.61-7.36,2-.54,4.09-1.07,6.14-1.08,7.1-.02,14.14.01,21-2.4,2.67-.94,4.69.44,4.81,2.45Z"/>
        <path class="cls-1" d="M491.33,154.37c-.01,1.79-.88,3.43-2.67,3.61-1.9.2-2.93-1.58-3.13-3.25-.47-4.02-1.78-7.68-4.14-10.92-1.68-2.31-3.14-4.84-6.33-5.69-1.26-.34-2.3-1.72-3.32-2.75-.88-.9-1.57-1.93-.7-3.3.8-1.25,1.98-1.54,3.24-1.22,1.39.36,2.88.75,4.02,1.55,7.53,5.36,11.51,12.89,13.02,21.96Z"/>
        <path class="cls-1" d="M470.21,152.49c.88,3.5-3.38,5.93-8.45,6.2-4.24.23-5.41-.86-5.54-4.83-.16-4.47,1.85-6.32,7.11-6.59,4.69-.24,6.74,1.31,6.88,5.21Z"/>
        <path class="cls-1" d="M426.16,140.79c-.05,3.34-1.81,5.22-4.89,5.23-3.47.01-6.45-2.2-6.38-4.73.08-2.61,3.54-5.65,6.54-5.73,3.16-.08,4.78,1.71,4.72,5.23Z"/>
        <path class="cls-1" d="M301.74,221.05c-.76-.61-.91-.64-1.32-1.39-.68-1.24-1.66-3.08-1.4-5.1.15-1.14.47-2.13,1.58-2.4,1.27-.31,1.85.69,2.02,1.73.26,1.66.22,3.43,2.31,3.97,1.89.48,3.76.06,5.51-.58,1.38-.5,2.53-1.39,2.43-3.22-.07-1.37-.46-2.17-1.85-2.83-2.23-1.07-4.24-2.53-5.46-4.87-1.7-3.27-1.29-5.31,1.67-7.48,3.95-2.9,8-2.96,10.74-.15,3.22,3.29,3.63,7.67.22,11.03-1.99,1.95-1.5,3.25-.22,4.69,1.49,1.67,5.09,1.18,6.21-.82.59-1.05.57-2.64,2.35-1.95,1.61.62,2.16,3.39.95,4.89-1.72,2.13-4.14,2.75-6.76,2.41-1.56-.2-3.24-1.7-4.69-1.44s-2.57,2.22-3.95,3.02c-3.21,1.86-9.04,1.56-10.35.51Z"/>
        <path class="cls-1" d="M297.11,192.56c2.5.03,4.57,2.26,4.51,4.86-.05,2.41-1.91,4.53-4.09,4.65-2.44.13-5-2.65-4.9-5.32.08-2.28,2.15-4.22,4.47-4.19Z"/>
        <path class="cls-1" d="M328.1,190.91c2.2-.06,4.51,2.1,4.6,4.29.09,2.46-2.6,5.08-5.35,5.19-2.2.09-4.08-1.66-4.07-3.79.02-2.76,2.46-5.63,4.82-5.69Z"/>
        <path class="cls-1" d="M285.74,193.24c-.34-.41-1.04-.87-1.04-1.33,0-1.47.42-2.9,1.66-3.83,3.31-2.5,6.66-4.94,10.01-7.4.89-.65,1.85-1.09,2.68.02.74.99.43,2.22-.34,2.83-4.02,3.25-8.15,6.36-12.26,9.51-.14.11-.37.11-.71.2Z"/>
        <path class="cls-1" d="M342.13,192.68c-5.46-.33-8.85-2.92-10.73-8.04-.4-1.08-.69-2.03.45-2.66,1.21-.68,2,.33,2.48,1.14,2,3.42,4.53,5.84,8.82,6.02,1.01.04,2.59,1.02,2.15,2.56-.45,1.55-1.96,1.11-3.17.98Z"/>
        <path class="cls-13" d="M426.1,160.74c.08-4.84,3.01-7.01,9.45-6.99,4.84.02,8.09,2.94,8.2,7.37.11,4.22-5.79,8.74-11.27,8.64-3.9-.07-6.47-3.7-6.38-9.03Z"/>
        <path class="cls-5" d="M313.11,207.17c-2.03.17-3.99-1-4.1-3.66-.09-2.33,2.17-3.11,3.8-3.13,2.65-.03,3.87,2.11,3.8,4.29-.05,1.46-.75,2.5-3.51,2.5Z"/>
        <path class="cls-11" d="M315.18,173.67c0-.83-.13-9.51-.2-9.86,3.55.16,3.25.5,6.38.54,0,.28.18,1.07.19,1.35.13,2.68.79,3,.38,8.01-.09,1.64.01,3.31-.31,4.9-.34,1.64-1.41,3.1-3.08,3.51-1.6.4-2.62-.81-3.35-2.13-.62-2.11-.6-4.21-.01-6.32Z"/>
        <path class="cls-14" d="M329.34,161.88c1.41,3.61,2.26,7.91,2.49,11.78.12,1.95.01,3.94-2.11,4.63-1.72.56-2.33-.46-3.58-1.55-.85-.74-.96-2.16-1.24-3.13-.4-3.75-1.02-9.4-.88-9.57,2.6,0,2.34.19,5.31-2.15Z"/>
        <path class="cls-8" d="M346.1,262.56c-.97-1.34-.63-4.16,3.46-5.89s4.14-1.66,6.21-2.51c1.63-1.37,3.28-1.32,4.95-.06,1.15,1.07,1.25,1.99,1.38,3.18s-1.84,1.06-3.2,1.92-5.03,1.6-8.76,3.65c-1.64.9-3.06,1.04-4.03-.29Z"/>
      </g>
      <g>
        <g>
          <polygon class="cls-18" points="122.4 181.14 123.56 181.44 124.77 181.52 125.92 181.85 127.02 182.36 128.23 182.49 129.28 183.11 130.4 183.51 131.6 183.73 132.72 184.17 133.75 184.81 134.87 185.24 135.86 185.91 136.96 186.4 137.92 187.12 138.98 187.68 140.09 188.16 141.09 188.82 142.04 189.55 143.06 190.17 144.02 190.89 144.82 191.81 145.89 192.4 146.67 193.33 147.53 194.15 148.43 194.95 149.25 195.81 150.12 196.63 151.02 197.43 151.65 198.47 152.57 199.26 153.19 200.29 154.04 201.15 154.56 202.24 155.39 203.13 156.13 204.07 156.59 205.2 157.38 206.12 157.76 207.28 158.5 208.25 159.16 209.25 159.9 210.21 160.45 211.3 161.19 212.26 162.04 213.12 162.75 214.09 163.69 214.87 164.35 215.89 165.15 216.79 166 217.65 166.99 218.37 167.71 219.35 168.56 220.2 169.45 221.02 170.26 221.92 171.2 222.67 172.14 223.43 172.96 224.31 173.76 225.22 174.74 225.93 175.58 226.8 176.48 227.6 177.26 228.52 178.15 229.33 179 230.19 179.79 231.11 180.8 231.8 181.6 232.71 182.36 233.66 183.34 234.39 184.15 235.29 184.89 236.25 185.71 237.13 186.72 237.85 187.37 238.89 188.38 239.6 189.09 240.6 189.77 241.6 190.66 242.44 191.48 243.33 192.28 244.24 192.92 245.27 193.68 246.22 194.44 247.15 195.02 248.22 195.72 249.21 196.45 250.17 196.92 251.31 197.71 252.25 198.11 253.4 198.8 254.4 199.34 255.48 199.92 256.54 200.37 257.65 200.65 258.82 200.92 259.98 201.42 261.09 201.42 262.3 201.69 263.47 201.92 264.65 201.69 265.85 201.77 267.04 201.75 268.24 201.43 269.4 201.29 270.58 201 271.73 200.73 272.89 200.64 274.11 200.27 275.25 199.78 276.34 199.31 277.44 198.82 278.52 198.43 279.66 197.71 280.63 197.15 281.69 196.53 282.71 195.83 283.67 195.26 284.72 194.63 285.73 194.01 286.76 193.21 287.65 192.48 288.59 191.66 289.46 190.94 290.41 190.11 291.27 189.33 292.18 188.53 293.06 187.6 293.82 186.82 294.73 186.01 295.61 185.01 296.29 184.04 296.99 183.19 297.84 182.38 298.73 181.43 299.45 180.5 300.2 179.45 300.8 178.51 301.54 177.5 302.17 176.58 302.94 175.61 303.64 174.62 304.29 173.52 304.78 172.6 305.56 171.48 306.01 170.58 306.84 169.54 307.42 168.44 307.91 167.4 308.48 166.32 309.01 165.35 309.72 164.19 310.09 163.18 310.73 162.02 311.07 160.96 311.62 159.86 312.09 158.79 312.61 157.69 313.08 156.63 313.65 155.46 313.93 154.4 314.52 153.25 314.85 152.11 315.22 151.02 315.72 149.86 316.03 148.7 316.32 147.63 316.91 146.44 317.1 145.32 317.55 144.13 317.74 143.04 318.29 141.87 318.6 140.68 318.8 139.53 319.14 138.33 319.28 137.14 319.47 135.95 319.62 134.79 319.97 133.58 319.99 132.4 320.2 131.2 320.37 130 320.32 128.79 320.4 127.6 320.16 126.39 320.25 125.18 320.28 123.99 320.13 122.83 319.76 121.64 319.57 120.5 319.2 119.36 318.83 118.21 318.51 117.06 318.18 115.91 317.82 114.92 317.1 113.79 316.67 112.69 316.18 111.81 315.33 110.81 314.67 109.8 314.03 108.79 313.37 107.98 312.48 107.11 311.65 106.23 310.84 105.49 309.9 104.49 309.18 103.79 308.19 103.14 307.19 102.42 306.23 101.76 305.23 101.08 304.25 100.49 303.2 99.69 302.29 99.2 301.18 98.66 300.11 98.18 299.01 97.43 298.05 97.13 296.86 96.47 295.85 95.99 294.75 95.5 293.65 95.26 292.45 94.79 291.35 94.25 290.27 93.8 289.15 93.39 288.02 93.22 286.81 92.62 285.75 92.34 284.58 91.93 283.45 91.75 282.25 91.34 281.11 91.09 279.93 90.59 278.82 90.42 277.62 90.1 276.47 89.87 275.29 89.39 274.18 89.06 273.03 88.88 271.84 88.34 270.75 88.02 269.6 87.67 268.46 87.34 267.32 86.98 266.18 86.51 265.08 86.11 263.96 85.88 262.77 85.31 261.7 84.97 260.55 84.56 259.43 84.13 258.31 83.77 257.16 83.16 256.12 82.82 254.96 82.42 253.83 81.96 252.73 81.35 251.69 80.79 250.63 80.29 249.54 79.93 248.39 79.44 247.29 78.94 246.2 78.44 245.11 77.7 244.14 77.36 242.96 76.56 242.02 76.04 240.94 75.55 239.84 74.83 238.86 74.32 237.78 73.71 236.74 73.1 235.71 72.5 234.67 71.78 233.7 71.09 232.72 70.45 231.7 69.69 230.77 69.16 229.67 68.28 228.83 67.68 227.77 66.74 227 66.12 225.94 65.22 225.13 64.38 224.28 63.43 223.54 62.6 222.66 61.76 221.8 60.81 221.06 59.81 220.4 58.66 219.96 57.7 219.25 56.71 218.59 55.66 218.02 54.68 217.34 53.8 216.53 52.8 215.87 52.04 214.95 51.28 214.05 50.7 212.98 50.86 211.78 51.35 210.7 52.06 209.75 52.71 208.76 53.45 207.82 54.33 207.02 55.09 206.11 55.88 205.22 56.7 204.35 57.45 203.43 58.03 202.37 58.83 201.47 59.57 200.52 60.52 199.8 61.56 199.2 62.69 198.77 63.89 198.68 65.06 198.44 66.24 198.66 67.43 198.68 68.58 198.95 69.76 199.13 70.89 199.48 72.02 199.84 73.18 200.15 74.19 200.81 75.29 201.23 76.43 201.6 77.45 202.22 78.45 202.87 79.57 203.28 80.6 203.89 81.53 204.64 82.52 205.3 83.47 206 84.42 206.71 85.39 207.39 86.49 207.91 87.29 208.81 88.17 209.6 89.2 210.23 90.07 211.03 90.93 211.86 91.82 212.64 92.61 213.53 93.62 214.19 94.34 215.15 95.14 216.02 95.89 216.95 96.68 217.83 97.34 218.81 97.98 219.81 98.54 220.78 99.74 220.59 100.81 219.95 101.99 219.68 103.15 219.32 104.25 218.79 105.41 218.42 106.56 218.04 107.78 217.83 108.87 217.26 110.03 216.89 111.18 216.49 112.3 216.1 111.85 215 111.17 213.91 110.43 212.86 109.36 212.11 108.5 211.16 107.33 210.61 106.19 209.88 107.1 208.94 108.02 208.14 109.04 207.47 110.03 206.75 110.89 205.88 111.87 205.14 112.82 204.37 113.63 203.42 114.7 202.8 115.66 202.03 116.66 201.33 117.73 200.73 118.8 200.21 119.91 200.14 121 200.56 121.8 201.41 122.57 202.26 123.51 202.96 124.14 203.94 124.83 204.86 125.57 205.75 126.3 206.65 126.91 207.52 127.99 207.61 129.06 207.18 130.19 207.02 131.33 206.81 132.28 206.12 133.26 205.57 134.18 204.93 135 204.15 135.53 203.23 134.69 202.44 133.96 201.47 133.11 200.6 132.11 199.9 131.12 199.2 130.32 198.26 129.34 197.55 128.35 196.83 127.25 196.3 126.31 195.52 125.33 194.79 124.21 194.32 123.07 193.88 122.05 193.21 120.98 192.61 119.79 192.32 118.69 191.78 117.5 191.54 116.32 191.25 115.11 191.11 113.92 190.9 112.7 190.91 111.49 190.85 110.28 190.96 109 191.16 109.85 190.17 110.61 189.21 111.39 188.27 112.32 187.46 113.23 186.63 114.01 185.66 114.95 184.87 115.84 184.01 116.79 183.23 117.9 182.65 118.91 181.94 119.98 181.33 121.22 181.21 122.4 181.14"/>
          <polygon class="cls-20" points="122.4 181.14 123.56 181.44 124.77 181.52 125.92 181.85 127.02 182.36 128.23 182.49 129.28 183.11 130.4 183.51 131.6 183.73 132.72 184.17 133.75 184.81 134.87 185.24 135.86 185.91 136.96 186.4 137.92 187.12 138.98 187.68 140.09 188.16 141.09 188.82 142.04 189.55 143.06 190.17 144.02 190.89 144.82 191.81 145.89 192.4 146.67 193.33 147.53 194.15 148.43 194.95 149.25 195.81 150.12 196.63 151.02 197.43 151.65 198.47 152.57 199.26 153.19 200.29 154.04 201.15 154.56 202.24 155.39 203.13 156.13 204.07 156.59 205.2 157.38 206.12 157.76 207.28 158.5 208.25 159.16 209.25 159.9 210.21 160.45 211.3 161.19 212.26 162.04 213.12 162.75 214.09 163.69 214.87 164.35 215.89 165.15 216.79 166 217.65 166.99 218.37 167.71 219.35 168.56 220.2 169.45 221.02 170.26 221.92 171.2 222.67 172.14 223.43 172.96 224.31 173.76 225.22 174.74 225.93 175.58 226.8 176.48 227.6 177.26 228.52 178.15 229.33 179 230.19 179.79 231.11 180.8 231.8 181.6 232.71 182.36 233.66 183.34 234.39 184.15 235.29 184.89 236.25 185.71 237.13 186.72 237.85 187.37 238.89 188.38 239.6 189.09 240.6 189.77 241.6 190.66 242.44 191.48 243.33 192.28 244.24 192.92 245.27 193.68 246.22 194.44 247.15 195.02 248.22 195.72 249.21 196.45 250.17 196.92 251.31 197.71 252.25 198.11 253.4 198.8 254.4 199.34 255.48 199.92 256.54 200.37 257.65 200.65 258.82 200.92 259.98 201.42 261.09 201.42 262.3 201.69 263.47 201.92 264.65 201.69 265.85 201.77 267.04 201.75 268.24 201.43 269.4 201.29 270.58 201 271.73 200.73 272.89 200.64 274.11 200.27 275.25 199.78 276.34 199.31 277.44 198.82 278.52 198.43 279.66 197.71 280.63 197.15 281.69 196.53 282.71 195.83 283.67 195.26 284.72 194.63 285.73 194.01 286.76 193.21 287.65 192.48 288.59 191.66 289.46 190.94 290.41 190.11 291.27 189.33 292.18 188.53 293.06 187.6 293.82 186.82 294.73 186.01 295.61 185.01 296.29 184.04 296.99 183.19 297.84 182.38 298.73 181.43 299.45 180.5 300.2 179.45 300.8 178.51 301.54 177.5 302.17 176.58 302.94 175.61 303.64 174.62 304.29 173.52 304.78 172.6 305.56 171.48 306.01 170.58 306.84 169.54 307.42 168.44 307.91 167.4 308.48 166.32 309.01 165.35 309.72 164.19 310.09 163.18 310.73 162.02 311.07 160.96 311.62 159.86 312.09 158.79 312.61 157.69 313.08 156.63 313.65 155.46 313.93 154.4 314.52 153.25 314.85 152.11 315.22 151.02 315.72 149.86 316.03 148.7 316.32 147.63 316.91 146.44 317.1 145.32 317.55 144.13 317.74 143.04 318.29 141.87 318.6 140.68 318.8 139.53 319.14 138.33 319.28 137.14 319.47 135.95 319.62 134.79 319.97 133.58 319.99 132.4 320.2 131.2 320.37 130 320.32 128.79 320.4 127.6 320.16 126.39 320.25 125.18 320.28 123.99 320.13 122.83 319.76 121.64 319.57 120.5 319.2 119.36 318.83 118.21 318.51 117.06 318.18 115.91 317.82 114.92 317.1 113.79 316.67 112.69 316.18 111.81 315.33 110.81 314.67 109.8 314.03 108.79 313.37 107.98 312.48 107.11 311.65 106.23 310.84 105.49 309.9 104.49 309.18 103.79 308.19 103.14 307.19 102.42 306.23 101.76 305.23 101.08 304.25 100.49 303.2 99.69 302.29 99.2 301.18 98.66 300.11 98.18 299.01 97.43 298.05 97.13 296.86 96.47 295.85 95.99 294.75 95.5 293.65 95.26 292.45 94.79 291.35 94.25 290.27 93.8 289.15 93.39 288.02 93.22 286.81 92.62 285.75 92.34 284.58 91.93 283.45 91.75 282.25 91.34 281.11 91.09 279.93 90.59 278.82 90.42 277.62 90.1 276.47 89.87 275.29 89.39 274.18 89.06 273.03 88.88 271.84 88.34 270.75 88.02 269.6 87.67 268.46 87.34 267.32 86.98 266.18 86.51 265.08 86.11 263.96 85.88 262.77 85.31 261.7 84.97 260.55 84.56 259.43 84.13 258.31 83.77 257.16 83.16 256.12 82.82 254.96 82.42 253.83 81.96 252.73 81.35 251.69 80.79 250.63 80.29 249.54 79.93 248.39 79.44 247.29 78.94 246.2 78.44 245.11 77.7 244.14 77.36 242.96 76.56 242.02 76.04 240.94 75.55 239.84 74.83 238.86 74.32 237.78 73.71 236.74 73.1 235.71 72.5 234.67 71.78 233.7 71.09 232.72 70.45 231.7 69.69 230.77 69.16 229.67 68.28 228.83 67.68 227.77 66.74 227 66.12 225.94 65.22 225.13 64.38 224.28 63.43 223.54 62.6 222.66 61.76 221.8 60.81 221.06 59.81 220.4 58.66 219.96 57.7 219.25 56.71 218.59 55.66 218.02 54.68 217.34 53.8 216.53 52.8 215.87 52.04 214.95 51.28 214.05 50.7 212.98 50.86 211.78 51.35 210.7 52.06 209.75 52.71 208.76 53.45 207.82 54.33 207.02 55.09 206.11 55.88 205.22 56.7 204.35 57.45 203.43 58.03 202.37 58.83 201.47 59.57 200.52 60.52 199.8 61.56 199.2 62.69 198.77 63.89 198.68 65.06 198.44 66.24 198.66 67.43 198.68 68.58 198.95 69.76 199.13 70.89 199.48 72.02 199.84 73.18 200.15 74.19 200.81 75.29 201.23 76.43 201.6 77.45 202.22 78.45 202.87 79.57 203.28 80.6 203.89 81.53 204.64 82.52 205.3 83.47 206 84.42 206.71 85.39 207.39 86.49 207.91 87.29 208.81 88.17 209.6 89.2 210.23 90.07 211.03 90.93 211.86 91.82 212.64 92.61 213.53 93.62 214.19 94.34 215.15 95.14 216.02 95.89 216.95 96.68 217.83 97.34 218.81 97.98 219.81 98.54 220.78 99.74 220.59 100.81 219.95 101.99 219.68 103.15 219.32 104.25 218.79 105.41 218.42 106.56 218.04 107.78 217.83 108.87 217.26 110.03 216.89 111.18 216.49 112.3 216.1 111.85 215 111.17 213.91 110.43 212.86 109.36 212.11 108.5 211.16 107.33 210.61 106.19 209.88 107.1 208.94 108.02 208.14 109.04 207.47 110.03 206.75 110.89 205.88 111.87 205.14 112.82 204.37 113.63 203.42 114.7 202.8 115.66 202.03 116.66 201.33 117.73 200.73 118.8 200.21 119.91 200.14 121 200.56 121.8 201.41 122.57 202.26 123.51 202.96 124.14 203.94 124.83 204.86 125.57 205.75 126.3 206.65 126.91 207.52 127.99 207.61 129.06 207.18 130.19 207.02 131.33 206.81 132.28 206.12 133.26 205.57 134.18 204.93 135 204.15 135.53 203.23 134.69 202.44 133.96 201.47 133.11 200.6 132.11 199.9 131.12 199.2 130.32 198.26 129.34 197.55 128.35 196.83 127.25 196.3 126.31 195.52 125.33 194.79 124.21 194.32 123.07 193.88 122.05 193.21 120.98 192.61 119.79 192.32 118.69 191.78 117.5 191.54 116.32 191.25 115.11 191.11 113.92 190.9 112.7 190.91 111.49 190.85 110.28 190.96 109 191.16 109.85 190.17 110.61 189.21 111.39 188.27 112.32 187.46 113.23 186.63 114.01 185.66 114.95 184.87 115.84 184.01 116.79 183.23 117.9 182.65 118.91 181.94 119.98 181.33 121.22 181.21 122.4 181.14"/>
        </g>
        <g>
          <polygon class="cls-3" points="162.54 236 161.36 235.75 160.2 235.56 159.03 235.44 157.85 235.4 156.68 235.46 155.51 235.58 154.35 235.83 153.19 236.03 152.04 236.25 150.91 236.59 149.77 236.9 148.65 237.28 147.53 237.67 146.47 238.19 145.4 238.68 144.35 239.22 143.32 239.81 142.33 240.46 141.34 241.1 140.38 241.79 139.43 242.51 138.46 243.21 137.47 243.88 136.53 244.61 135.55 245.31 134.61 246.05 133.58 246.66 132.67 247.43 131.67 248.09 130.74 248.84 129.77 249.53 128.81 250.25 127.84 250.95 126.8 251.58 125.83 252.28 124.89 253.02 123.89 253.69 122.95 254.44 121.97 255.13 121.02 255.86 120.01 256.51 119.01 257.17 118.04 257.87 117.09 258.61 116.06 259.22 115.09 259.92 114.1 260.6 113.11 261.26 112.1 261.91 111.04 262.46 111.74 263.43 112.48 264.37 113.08 265.41 113.8 266.35 114.51 267.32 115.19 268.3 115.84 269.3 116.54 270.27 117.21 271.25 117.92 272.21 118.62 273.19 119.33 274.15 119.99 275.14 120.64 276.14 121.4 277.08 122.1 278.05 122.69 279.1 123.43 280.05 124.07 281.07 124.78 282.04 125.44 283.04 126.1 284.04 126.81 285.01 127.46 286.02 128.15 287 128.74 288.05 129.4 289.04 130.04 290.11 131 289.34 131.91 288.58 132.75 287.74 133.74 287.1 134.58 286.26 135.52 285.54 136.48 284.86 137.34 284.04 138.28 283.32 139.27 282.67 140.18 281.91 141.08 281.14 141.99 280.39 142.96 279.71 143.87 278.95 144.82 278.24 145.78 277.54 146.76 276.85 147.68 276.09 148.64 275.39 149.56 274.62 150.52 273.92 151.48 273.22 152.44 272.52 153.43 271.86 154.41 271.19 155.38 270.51 156.4 269.91 157.38 269.24 158.44 268.71 159.48 268.16 160.54 267.56 161.65 267.06 162.74 266.51 163.77 265.85 164.89 265.36 166 264.86 167.08 264.26 168.19 263.74 169.24 263.11 170.37 262.64 171.47 262.09 172.56 261.54 173.65 260.98 174.78 260.5 175.87 259.95 176.97 259.4 178.07 258.86 179.17 258.33 180.24 257.73 179.42 256.83 178.65 255.88 177.96 254.88 177.18 253.95 176.38 253.03 175.65 252.06 174.84 251.14 174.11 250.17 173.26 249.29 172.55 248.31 171.79 247.36 171.01 246.43 170.26 245.47 169.47 244.55 168.7 243.6 167.95 242.64 167.16 241.71 166.37 240.78 165.58 239.85 164.81 238.9 164 237.98 163.25 237.01 162.54 236"/>
          <polygon class="cls-20" points="162.54 236 161.36 235.75 160.2 235.56 159.03 235.44 157.85 235.4 156.68 235.46 155.51 235.58 154.35 235.83 153.19 236.03 152.04 236.25 150.91 236.59 149.77 236.9 148.65 237.28 147.53 237.67 146.47 238.19 145.4 238.68 144.35 239.22 143.32 239.81 142.33 240.46 141.34 241.1 140.38 241.79 139.43 242.51 138.46 243.21 137.47 243.88 136.53 244.61 135.55 245.31 134.61 246.05 133.58 246.66 132.67 247.43 131.67 248.09 130.74 248.84 129.77 249.53 128.81 250.25 127.84 250.95 126.8 251.58 125.83 252.28 124.89 253.02 123.89 253.69 122.95 254.44 121.97 255.13 121.02 255.86 120.01 256.51 119.01 257.17 118.04 257.87 117.09 258.61 116.06 259.22 115.09 259.92 114.1 260.6 113.11 261.26 112.1 261.91 111.04 262.46 111.74 263.43 112.48 264.37 113.08 265.41 113.8 266.35 114.51 267.32 115.19 268.3 115.84 269.3 116.54 270.27 117.21 271.25 117.92 272.21 118.62 273.19 119.33 274.15 119.99 275.14 120.64 276.14 121.4 277.08 122.1 278.05 122.69 279.1 123.43 280.05 124.07 281.07 124.78 282.04 125.44 283.04 126.1 284.04 126.81 285.01 127.46 286.02 128.15 287 128.74 288.05 129.4 289.04 130.04 290.11 131 289.34 131.91 288.58 132.75 287.74 133.74 287.1 134.58 286.26 135.52 285.54 136.48 284.86 137.34 284.04 138.28 283.32 139.27 282.67 140.18 281.91 141.08 281.14 141.99 280.39 142.96 279.71 143.87 278.95 144.82 278.24 145.78 277.54 146.76 276.85 147.68 276.09 148.64 275.39 149.56 274.62 150.52 273.92 151.48 273.22 152.44 272.52 153.43 271.86 154.41 271.19 155.38 270.51 156.4 269.91 157.38 269.24 158.44 268.71 159.48 268.16 160.54 267.56 161.65 267.06 162.74 266.51 163.77 265.85 164.89 265.36 166 264.86 167.08 264.26 168.19 263.74 169.24 263.11 170.37 262.64 171.47 262.09 172.56 261.54 173.65 260.98 174.78 260.5 175.87 259.95 176.97 259.4 178.07 258.86 179.17 258.33 180.24 257.73 179.42 256.83 178.65 255.88 177.96 254.88 177.18 253.95 176.38 253.03 175.65 252.06 174.84 251.14 174.11 250.17 173.26 249.29 172.55 248.31 171.79 247.36 171.01 246.43 170.26 245.47 169.47 244.55 168.7 243.6 167.95 242.64 167.16 241.71 166.37 240.78 165.58 239.85 164.81 238.9 164 237.98 163.25 237.01 162.54 236"/>
        </g>
      </g>
    </g>
  </g>
</svg>