<svg xmlns="http://www.w3.org/2000/svg" width="1512.26" height="633.755" viewBox="0 0 1512.26 633.755">
  <g id="グループ_320" data-name="グループ 320" transform="translate(0.11)">
    <path id="パス_141" data-name="パス 141" d="M1512,632H0V.1H1205.234L1512,0Z" fill="#ffb4c8"/>
    <path id="パス_142" data-name="パス 142" d="M0,632.153l7.2-.53,7.2-.178,7.2.107,7.2.432,7.2-.04,7.2.112,7.2-.29,7.2-.118,7.2-.335,7.2.3,7.2.365,7.2-.942,7.2-.191,7.2,1.159,7.2-.777,7.2.549,7.2-.432,7.2.235,7.2.071,7.2-.5,7.2.187,7.2-.328,7.2.89,7.2-.241,7.2.593,7.2-.048,7.2-.156,7.2-1.276,7.2,1.342,7.2-1.273,7.2.255,7.2.767,7.2-1.058,7.2.194,7.2,1.12,7.2-.264,7.2-.543,7.2-.318,7.2.593,7.2-.5,7.2.189,7.2.325,7.2.513,7.2-.606,7.2.1,7.2-.723,7.2.083,7.2-.031,7.2-.169,7.2.347,7.2.042,7.2-.309,7.2.651,7.2-.424,7.2.9,7.2.237,7.2-.622,7.2.636,7.2-.028,7.2-1.395,7.2.755,7.2.525,7.2-.572,7.2.265,7.2-.993,7.2.928,7.2-.029,7.2-.14,7.2-.143,7.2.83,7.2-.144,7.2-.041,7.2.039,7.2.06,7.2-.484,7.2-.755,7.2.074,7.2,1.1,7.2-.127,7.2-.522,7.2.622,7.2-.51,7.2.557,7.2-1.093,7.2.736,7.2.163,7.2-.253,7.2.3,7.2-.283,7.2.009,7.2.36,7.2-.277,7.2-.265,7.2-.234,7.2.083,7.2-.542,7.2.338,7.2.732,7.2.23,7.2-1.042,7.2.157,7.2.87,7.2-1.176,7.2,1.237,7.2-.063,7.2-1.168,7.2-.144,7.2.778,7.2-.459,7.2.762,7.2-.413,7.2.794,7.2-.314,7.2-.888,7.195-.013,7.195.307,7.195-.464,7.2-.023,7.2,1.108,7.2-1.136,7.2.914,7.2.135,7.2-.193,7.2.183,7.2-.313,7.2-.612,7.2,1.042,7.2-.971,7.2.777,7.2-.742,7.2,1.118,7.2-.85,7.2-.456,7.2,1.086,7.2-.99,7.2,1.224,7.2-.718,7.2-.069,7.2-.332,7.2,1.061h7.2l7.2-.581,7.2.408,7.2-.976,7.2,1.007,7.2.095,7.2-.083,7.2-1.075,7.2.865,7.2.017,7.2-.21,7.2.358,7.2-.562,7.2-.514,7.2.321,7.2.547,7.2-.815,7.2.248,7.2-.2,7.2.6,7.2-.136,7.2.13,7.2.534,7.2-1.031,7.2.416,7.2.681,7.2-.906,7.2.272,7.2.686,7.2.033,7.2-1.213,7.2,1.128,7.2-1.395,7.2.664,7.2.683,7.2-.71,7.2-.318,7.2-.271,7.2.608,7.2-.187,7.2-.34,7.2.716,7.2-.142,7.2-.449,7.2,1.02,7.2-1.01,7.2,1.077,7.2-.7,7.2.014,7.2-.388,7.2.092,7.2.7,7.2.352,7.205-1.159,7.2,1.1,7.205-.6,7.207-.685,7.205,1.316,7.206-.546,7.206-.326,7.208.9,7.2-.215,7.206.264,7.206-.065,7.206-1.251,7.208-.031,7.2.461,7.21.1,7.215.073,7.215-.727" fill="none" stroke="#231815" stroke-miterlimit="10" stroke-width="3"/>
    <g id="グループ_46" data-name="グループ 46">
      <g id="グループ_38" data-name="グループ 38">
        <path id="パス_145" data-name="パス 145" d="M392.4,564.3l-1.2-.083-1.2-.18-1.2.267-1.2-.151-1.2.117-1.2-.167-1.2-.008L382.8,564l-1.2.241-1.2.04-1.2-.241-1.2-.066-1.2.108-1.2-.072-1.2.211-1.2-.105-1.2-.065-1.2.1-1.2-.067-1.2-.008-1.2-.039-1.2.165-1.2-.224-1.2.1-1.2-.045-1.208-.05-1.208,0-1.231.167-1.178-.391-.907-.842-.911-.787-.769-.964-.148-1.232-.053-1.174-.007-1.192-.273-1.192.057-1.192.117-1.191-.077-1.189.1-1.188-.269-1.188.081-1.188-.012-1.188.236-1.189-.251-1.19.251-1.192-.074-1.194-.063-1.192-.122-1.191.1-1.19.106-1.19.1-1.191-.042-1.193-.01-1.195-.031-1.193-.243-1.192.046-1.193.224-1.195-.009-1.194-.006-1.193.006-1.194.008-1.2-.1-1.194.124-1.2.023-1.19-.3-1.2.134-1.193.1-1.193-.078-1.2.09-1.2.041-1.2-.017-1.2-.127-1.2-.018-1.2.1-1.2-.088-1.2.122-1.2.423-1.124.556-1.078.962-.738.976-.685,1.1-.551,1.226.084,1.2-.046,1.2.111,1.2-.031,1.2-.09,1.2.1,1.2-.056,1.2-.168,1.2.187,1.2-.262,1.2.1,1.2.215,1.2-.194,1.2-.091,1.2.078h1.2l1.2.01,1.2-.118,1.2.12,1.2.109,1.2-.007,1.2.015,1.2.1,1.2-.057,1.2-.287,1.2.035,1.208.263,1.208.029,1.188.02,1.164.319.97.717.993.725.4,1.172.466,1.087.243,1.182.091,1.192-.066,1.192-.039,1.192.137,1.191,0,1.189-.107,1.188-.169,1.188.251,1.188-.132,1.188.149,1.189-.121,1.19-.113,1.192.038,1.194.113,1.192-.088,1.191.116,1.19-.059,1.19-.187,1.191.03,1.193-.028,1.195.261,1.193-.2,1.192.047,1.193.095,1.195-.014,1.194-.14,1.193-.043,1.194.149,1.2.156,1.194-.235,1.2.142,1.19-.187,1.2.193,1.193-.139,1.193-.011,1.2.024,1.2.118,1.2-.053,1.2-.2,1.2.042,1.2,0,1.2.074,1.2-.2,1.171-.259,1.173-.568,1.084-.918.811-1.091.514-1.1.44Z" fill="#f2e9d3"/>
        <path id="パス_146" data-name="パス 146" d="M392.4,564.3l-1.2-.083-1.2-.18-1.2.267-1.2-.151-1.2.117-1.2-.167-1.2-.008L382.8,564l-1.2.241-1.2.04-1.2-.241-1.2-.066-1.2.108-1.2-.072-1.2.211-1.2-.105-1.2-.065-1.2.1-1.2-.067-1.2-.008-1.2-.039-1.2.165-1.2-.224-1.2.1-1.2-.045-1.208-.05-1.208,0-1.231.167-1.178-.391-.907-.842-.911-.787-.769-.964-.148-1.232-.053-1.174-.007-1.192-.273-1.192.057-1.192.117-1.191-.077-1.189.1-1.188-.269-1.188.081-1.188-.012-1.188.236-1.189-.251-1.19.251-1.192-.074-1.194-.063-1.192-.122-1.191.1-1.19.106-1.19.1-1.191-.042-1.193-.01-1.195-.031-1.193-.243-1.192.046-1.193.224-1.195-.009-1.194-.006-1.193.006-1.194.008-1.2-.1-1.194.124-1.2.023-1.19-.3-1.2.134-1.193.1-1.193-.078-1.2.09-1.2.041-1.2-.017-1.2-.127-1.2-.018-1.2.1-1.2-.088-1.2.122-1.2.423-1.124.556-1.078.962-.738.976-.685,1.1-.551,1.226.084,1.2-.046,1.2.111,1.2-.031,1.2-.09,1.2.1,1.2-.056,1.2-.168,1.2.187,1.2-.262,1.2.1,1.2.215,1.2-.194,1.2-.091,1.2.078h1.2l1.2.01,1.2-.118,1.2.12,1.2.109,1.2-.007,1.2.015,1.2.1,1.2-.057,1.2-.287,1.2.035,1.208.263,1.208.029,1.188.02,1.164.319.97.717.993.725.4,1.172.466,1.087.243,1.182.091,1.192-.066,1.192-.039,1.192.137,1.191,0,1.189-.107,1.188-.169,1.188.251,1.188-.132,1.188.149,1.189-.121,1.19-.113,1.192.038,1.194.113,1.192-.088,1.191.116,1.19-.059,1.19-.187,1.191.03,1.193-.028,1.195.261,1.193-.2,1.192.047,1.193.095,1.195-.014,1.194-.14,1.193-.043,1.194.149,1.2.156,1.194-.235,1.2.142,1.19-.187,1.2.193,1.193-.139,1.193-.011,1.2.024,1.2.118,1.2-.053,1.2-.2,1.2.042,1.2,0,1.2.074,1.2-.2,1.171-.259,1.173-.568,1.084-.918.811-1.091.514-1.1.44Z" fill="none" stroke="#231815" stroke-linecap="round" stroke-linejoin="round" stroke-width="3"/>
      </g>
      <g id="グループ_45" data-name="グループ 45">
        <g id="グループ_39" data-name="グループ 39">
          <path id="パス_147" data-name="パス 147" d="M387.062,528.632l-1.208-.094-1.207-.043-1.208.112-1.209-.075-1.208-.012-1.209.043-1.2.043-1.21.028-1.207-.126-1.207.114-1.211-.061-1.209-.078-1.211.138-1.212,0-1.21-.011-1.212-.026-1.215.029-1.215.018-1.126-.4-.795-.841L363,526.284l-.057-1.152.124-1.156-.018-1.154,0-1.155-.1-1.157.081-1.155.058-1.157-.078-1.16-.075-1.16.388-1.134.861-.776,1.1-.379,1.208.079,1.207-.053,1.208,0,1.209-.04,1.208.034,1.209-.046,1.2.036,1.21-.01,1.207-.039,1.207.036,1.211-.029,1.209-.025,1.21.064,1.212.035,1.21-.077,1.212.03,1.215-.035,1.215-.011,1.12.394.855.8.349,1.141-.121,1.152.017,1.156.014,1.154.078,1.155-.1,1.157.053,1.155,0,1.157-.01,1.16.068,1.16-.314,1.164-.861.835Z" fill="#fffdee"/>
          <path id="パス_148" data-name="パス 148" d="M387.062,528.632l-1.208-.094-1.207-.043-1.208.112-1.209-.075-1.208-.012-1.209.043-1.2.043-1.21.028-1.207-.126-1.207.114-1.211-.061-1.209-.078-1.211.138-1.212,0-1.21-.011-1.212-.026-1.215.029-1.215.018-1.126-.4-.795-.841L363,526.284l-.057-1.152.124-1.156-.018-1.154,0-1.155-.1-1.157.081-1.155.058-1.157-.078-1.16-.075-1.16.388-1.134.861-.776,1.1-.379,1.208.079,1.207-.053,1.208,0,1.209-.04,1.208.034,1.209-.046,1.2.036,1.21-.01,1.207-.039,1.207.036,1.211-.029,1.209-.025,1.21.064,1.212.035,1.21-.077,1.212.03,1.215-.035,1.215-.011,1.12.394.855.8.349,1.141-.121,1.152.017,1.156.014,1.154.078,1.155-.1,1.157.053,1.155,0,1.157-.01,1.16.068,1.16-.314,1.164-.861.835Z" fill="none" stroke="#231815" stroke-linecap="round" stroke-linejoin="round" stroke-width="3"/>
        </g>
        <g id="グループ_40" data-name="グループ 40">
          <path id="パス_149" data-name="パス 149" d="M381.627,525.833v-.024l.983-.5.042-1.134-.006-1.135v-1.137l-.035-1.135.027-1.137.02-1.14-.027-1.14-1.006-.475v-.029l-1.031.5.028,1.134-.027,1.135.018,1.137,0,1.135.013,1.137-.012,1.14.016,1.14Z" fill="#231815"/>
        </g>
        <g id="グループ_41" data-name="グループ 41">
          <path id="パス_150" data-name="パス 150" d="M370.726,525.838v-.032l-.984-.493-.038-1.134.026-1.135,0-1.137-.015-1.135-.015-1.137-.01-1.14.043-1.14.989-.521v.021l.98.5.047,1.134v1.135l0,1.137-.009,1.135.01,1.137.006,1.14-.033,1.14Z" fill="#231815"/>
        </g>
        <g id="グループ_42" data-name="グループ 42">
          <path id="パス_151" data-name="パス 151" d="M387.062,553.778l-1.208.046-1.207-.016-1.208.008-1.209.06-1.208-.119-1.209.035-1.2.085-1.21-.049-1.207-.048-1.207.1h-1.211l-1.209-.078-1.211-.005-1.212-.027-1.21-.018-1.212,0-1.215.13-1.215-.121-1.1-.327-.881-.761-.285-1.144.028-1.152-.014-1.156.051-1.154-.124-1.155.073-1.157V544.6l.019-1.157-.04-1.16.021-1.16.3-1.128.8-.867,1.151-.206,1.208-.134,1.207.065,1.208.015,1.209-.08,1.208.015,1.209,0,1.2.1,1.21-.1,1.207.009,1.207,0,1.211-.009,1.209.066,1.21.006,1.212.042,1.21-.126,1.212.09,1.215-.107,1.215.026,1.176.288.856.864.227,1.173-.053,1.152.052,1.156-.033,1.154-.005,1.155.122,1.157-.092,1.155.026,1.157-.008,1.16-.038,1.16-.3,1.112-.782.869Z" fill="#fffdee"/>
          <path id="パス_152" data-name="パス 152" d="M387.062,553.778l-1.208.046-1.207-.016-1.208.008-1.209.06-1.208-.119-1.209.035-1.2.085-1.21-.049-1.207-.048-1.207.1h-1.211l-1.209-.078-1.211-.005-1.212-.027-1.21-.018-1.212,0-1.215.13-1.215-.121-1.1-.327-.881-.761-.285-1.144.028-1.152-.014-1.156.051-1.154-.124-1.155.073-1.157V544.6l.019-1.157-.04-1.16.021-1.16.3-1.128.8-.867,1.151-.206,1.208-.134,1.207.065,1.208.015,1.209-.08,1.208.015,1.209,0,1.2.1,1.21-.1,1.207.009,1.207,0,1.211-.009,1.209.066,1.21.006,1.212.042,1.21-.126,1.212.09,1.215-.107,1.215.026,1.176.288.856.864.227,1.173-.053,1.152.052,1.156-.033,1.154-.005,1.155.122,1.157-.092,1.155.026,1.157-.008,1.16-.038,1.16-.3,1.112-.782.869Z" fill="none" stroke="#231815" stroke-linecap="round" stroke-linejoin="round" stroke-width="3"/>
        </g>
        <g id="グループ_43" data-name="グループ 43">
          <path id="パス_153" data-name="パス 153" d="M381.627,550.791v.006l.989-.487.028-1.134-.008-1.135.014-1.137-.019-1.135-.007-1.137v-1.14l.032-1.14-1.029-.493v-.033l-.986.526,0,1.134-.02,1.135v1.137l-.007,1.135.034,1.137-.033,1.14.024,1.14Z" fill="#231815"/>
        </g>
        <g id="グループ_44" data-name="グループ 44">
          <path id="パス_154" data-name="パス 154" d="M370.726,550.8v0l-1-.495.015-1.134-.017-1.135-.01-1.137-.018-1.135.019-1.137,0-1.14.014-1.14,1-.5v.008l1.009.5.007,1.134-.023,1.135.022,1.137.015,1.135-.031,1.137-.019,1.14.016,1.14Z" fill="#231815"/>
        </g>
      </g>
    </g>
  </g>
</svg>
