<?xml version="1.0" encoding="UTF-8"?>
<svg id="_レイヤー_2" data-name="レイヤー 2" xmlns="http://www.w3.org/2000/svg" viewBox="0 0 207.49 416.71">
  <defs>
    <style>
      .cls-1, .cls-2 {
        fill: #fff;
      }

      .cls-2, .cls-3, .cls-4 {
        fill-rule: evenodd;
      }

      .cls-3, .cls-5 {
        fill: #c69c6d;
      }

      .cls-4 {
        fill: #231815;
      }

      .cls-6 {
        fill: #64c882;
      }
    </style>
  </defs>
  <g id="design">
    <g>
      <g>
        <path class="cls-4" d="M205.09,187.34c-.54-.27-1.07-.53-1.61-.8v-2.42c-1.34-1.06-2.68-2.14-4.02-3.21-.27-.8-.54-1.6-.81-2.42h-1.61c-.53-.8-1.07-1.6-1.6-2.41h-1.61c-1.88-2.15-3.75-4.29-5.63-6.43h-1.61c-.27-.54-.53-1.07-.8-1.61h-1.61v-.8h-1.61v-.8h-5.63v-.8h-1.61c1.23-1.22,9.57-2.79,12.86-1.61v.81h1.61v.8h4.02c.27,.53,.53,1.07,.81,1.61h1.61v.8c.8-.26,1.61-.53,2.41-.8,.27-1.07,.54-2.15,.81-3.22h.8c-.27-1.34-.54-2.68-.8-4.01h-.81c-.61-2.19-.19-1.83-2.41-2.42v-2.41c-1.99-.58-1.3-.42-2.41-1.61h-.81v-1.61c-.53-.27-1.07-.53-1.61-.8v-.8c-3.67-2.57-10.88-4.64-16.88-4.83,.23-3.24,2.1-3.62,1.6-6.43h-.8c-.23-1.22,.8-1.59,.8-1.61v-.8h-.8v-4.82h-.8v-3.22h-.81c-.27-1.06-.54-2.14-.81-3.21h-.8v-3.22h-.8c-.27-1.07-.54-2.15-.8-3.21-.54-.27-1.07-.54-1.61-.81-.27-1.07-.54-2.14-.8-3.21-.54-.27-1.07-.54-1.61-.8v-1.61c-1.07-.8-2.15-1.61-3.22-2.41-.81-1.07-1.61-2.15-2.41-3.22h-1.6v-.8h-1.61v-.8h-2.41c-2.38-.9-7.26-2.51-11.26-1.61v.81c-.8-.27-1.61-.54-2.41-.81-.27,.54-.53,1.07-.8,1.61h-3.22v.8c-3.05,1.42-5.36,2.3-9.64,2.41,.53-4.9,2.8-8.28,3.21-12.86h4.82v.8h1.61v.8c6.43,.27,12.87,.54,19.3,.8v.81h3.22c.27,.53,.53,1.06,.8,1.61,2.95,.53,5.9,1.07,8.85,1.61,.69-.81,1.38-1.13,2.41-1.61-.07-4.51-.92-4.62-2.41-7.24v-1.61c-.81-.53-1.61-1.07-2.42-1.61-2.62-3.96-2.56-7.69-8.04-8.85v-1.61c-2.76-.75-2.07-1.72-4.82-2.42-.27-.8-.54-1.61-.81-2.41-3.49-.82-9.56-5.33-15.28-3.22v.8h-1.61c-.29,.17-.79,1.15-1.6,1.61v-1.61c2.32-.58,2.67-.86,3.21-3.21,2.34-.4,4.11-1.32,6.43,0,.27,.53,.53,1.06,.8,1.61h2.41v.8c1.07-.27,2.14-.53,3.22-.8v.8h10.45v.8h4.82v.8c6.03,1.73,14.44-2.1,17.69,2.42,3.53,.12,4.88,.47,5.63-2.42h.8c-.27-.8-.54-1.61-.8-2.41h.8v-1.61c-1.61-1.34-3.22-2.69-4.82-4.02v-1.61c-1.07-.8-2.15-1.61-3.22-2.41v-1.61h-.8c-.53-.8-1.07-1.61-1.6-2.42-1.07-.27-2.15-.53-3.22-.8-.53-.8-1.07-1.61-1.61-2.41-.8-.27-1.61-.54-2.42-.81-.26-.53-.53-1.06-.8-1.61h-2.41c-.54-.8-1.07-1.61-1.61-2.41h-1.61c-.53-.81-1.07-1.61-1.61-2.42-13.53,.08-20.99,3.42-28.95,8.85h-1.61v.8c-1.87,1.64-2.73,4.27-4.82,5.63v7.24c-2.08,.53-2.31,.82-3.22,2.41h-.8c.53,1.61,1.07,3.22,1.61,4.82-4.91-1.16-2.85-2.73-8.84-1.61-.32-1.81-1.32-3.11-.81-5.63,.04-.17,1.03-.29,.81-1.61h-.81v-12.86h-.8c0-1.12,1.3-1.3,.8-3.22h-.8v-4.02h-.8c-.22-1.32,.77-1.43,.8-1.61,.6-2.91-.46-5.23-.8-7.23,1.04-.66,.96-.56,1.61-1.61h1.61c.26-.8,.53-1.61,.8-2.41h.8v-1.61h.8v-1.61c.53-.27,1.07-.53,1.61-.8v-2.42h.8c2.04-6.14-2.3-11.21-3.22-14.46h-1.6c-.81-1.07-1.61-2.15-2.42-3.22h-1.61c-.27-.54-.54-1.07-.8-1.61h-1.61c-.53-.81-1.07-1.61-1.6-2.42h-.8v-1.61c-.54-.27-1.07-.54-1.61-.8v-.81c-1.46-1.35-3.55-1.67-4.82-3.21h-4.82c-.54,.8-1.07,1.61-1.61,2.41-3.17,2.19-6.51,4.41-11.25,4.82-.5,1.82-.68,1.98-1.61,3.22h-.81v1.61h-.8v4.02c-.27,1.34-.54,2.68-.81,4.02,.31,1.73,1.95,4.33,2.42,6.43,2.72,.78,3.64,2.52,5.63,4.02v.8h2.41v.8c1.07,.27,2.15,.54,3.22,.8v.81h4.02v.8c1.07,.26,2.14,.53,3.22,.8v.8c1.51,1.17,2.55,1.94,4.82,2.42,.13,2.04,.04,2.82,.8,4.01h.81v1.61h.8v4.01h.8c.23,1.25-.8,1.55-.8,1.61,.27,2.41,.53,4.82,.8,7.23-.23,1.12-.96-.32-.8,.8h.8v10.45c-.26,.87-1.24-.24-.8,.81h.8v5.63h-.8v.8h-2.41c-1.03-4-4.8-7.07-6.43-10.45-1.19-2.47,.52-2.89-1.61-4.82-.71-2.65-2.89-3.56-5.63-4.02-1.13-4.36-5.54-5.79-8.85-8.04-.27-.53-.54-1.06-.8-1.61h-1.61c-.54-.8-1.07-1.61-1.61-2.41h-1.6c-.27-.54-.54-1.07-.8-1.61h-2.42v-.8c-2.68-.27-5.36-.53-8.04-.8v.8h-4.02v.8h-3.22v.8h-3.22c-.27,.54-.54,1.07-.81,1.61-1.6,.53-3.21,1.07-4.82,1.61-.26,.54-.53,1.07-.8,1.61h-1.61v.81c-1.07,.8-2.15,1.61-3.22,2.41v1.61c-.53,.27-1.07,.54-1.6,.81v1.61c-.8,.53-1.61,1.07-2.41,1.61v1.61c-.54,.26-1.07,.53-1.61,.8-.27,1.07-.53,2.14-.8,3.21-.54,.27-1.07,.54-1.61,.8-.27,1.07-.54,2.15-.81,3.22-.54,.27-1.07,.54-1.61,.8-.27,1.07-.53,2.15-.8,3.22-.54,.27-1.07,.53-1.61,.8,.27,1.61,.53,3.22,.8,4.82,1.6,.27,3.21,.53,4.82,.8,.27-.53,.53-1.07,.8-1.61h2.41c.27-.54,.54-1.07,.8-1.61h1.61v-.81h3.21v-.8c1.07-.26,2.14-.53,3.22-.8v-.8h1.61v-.8h1.61v-.8c1.34,.26,2.68,.53,4.02,.8v-.8h4.82v-.81h3.22v-.8h2.42v-.8h3.21v-.8c1.88-.27,3.76-.53,5.63-.8v-.8h2.41v-.81c.8,.27,1.6,.54,2.41,.81v-.81c.8-.26,1.61-.53,2.41-.8v.8c1.54,.26,4.02-.8,4.02-.8v.8h4.02c.95,.53,.32,2.23,.81,3.22h.8v1.61h.8v2.42c.54,.27,1.07,.53,1.6,.8,1.14,1.4,2.06,3.58,2.42,5.63h-4.82c-1.25,.39-5.14,3.15-8.04,1.61-.53-1.07-1.07-2.15-1.6-3.22h-4.02c-.27-.54-.53-1.07-.8-1.61h-2.41c-5.61-2.31-8.87-3.75-16.08-2.42v1.61h-2.41v1.61c-3.61,.92-3.84,3-5.63,5.63-.54,.27-1.07,.53-1.61,.8v1.61c-.53,.27-1.07,.54-1.6,.8v1.61h-.8v2.41h-.8v3.22h-.81v5.63c-.79,2.69-2.8,9.38-1.61,13.67h.81v4.82h.8c.27,1.34,.54,2.68,.81,4.02,.05,.09,1.22,.91,1.61,1.61h7.24v-.8h1.61c.27-.54,.53-1.07,.8-1.61h2.41v-.8h1.61v-.8h2.41c.27-.53,.54-1.07,.81-1.61h2.41v-.8c2.43-1.17,4.62-1.58,8.04-1.61,.57-2.21,1.55-2.93,2.41-4.82,1.07-.26,2.15-.53,3.22-.8v-.8c3-1.31,5.24-.92,7.24-3.22,1.69,1.4,1.36,2.54,4.02,3.22,.74,3.18,2.47,3.51,3.22,6.43h1.61c.83,4.2,5.22,6.86,9.65,7.24,.43,2.02,1.7,5.45,0,7.23v4.83c-.81-.27-1.61-.53-2.42-.8v-.8h-1.61v-.8h-1.61c-.27-.54-.54-1.07-.8-1.61h-4.02v-.8c-3.57-1.04-8.36,.97-10.46,1.61h-4.02v.81c-4.19,1.26-6.17,.05-10.45,0-.49-1.61,.11-.7-.81-1.61-.27-.8-.54-1.61-.81-2.41h-3.21v.8h-.81c-1.17-.07-5.33-2.72-8.04-1.61-.27,.53-.54,1.07-.8,1.61h-1.61v1.61c-3.09,.82-2.45,1.8-4.02,4.02-.81,.54-1.61,1.07-2.42,1.6v2.42h-.8v1.61h-.8v5.63h-.8c-.39,1.75,.8,2.42,.8,2.42v5.63h.8v5.63h.8v3.22h.8v2.41h.81v2.42c.54,.26,1.07,.53,1.61,.8,.27,.8,.53,1.61,.8,2.41,5.5-.2,7.59-2.13,10.45-4.83,.27-.53,.54-1.07,.8-1.6h1.61c.54-.8,1.07-1.61,1.61-2.41h3.22v-.81h2.41c.27-.53,.54-1.07,.8-1.61h4.02v-.8h4.02v-.8c3.34-1.11,5.09-.06,7.23-2.42,1.34,.27,2.68,.54,4.02,.8,.45,3.34,1.67,2.81,2.41,5.64h1.61c1.06,4.48,4.58,6.87,5.63,11.25h4.02c-4.84,4.09-8.7-3.04-12.07-2.42v.8h-4.83c-.26,.54-.53,1.07-.8,1.61h-2.41v.8h-1.61v.8h-1.61c-.27,.54-.53,1.07-.8,1.6-1.07,.27-2.15,.54-3.22,.81-.53,.8-1.07,1.6-1.6,2.41-1.34,1.07-2.68,2.15-4.02,3.22v1.61h-.8c-.27,1.34-.54,2.68-.8,4.02h-.8c-.27,1.61-.54,3.21-.81,4.82h-1.61v3.21h-2.41c.27-.8,.53-1.6,.8-2.41,.53-.27,1.07-.54,1.61-.8v-1.61h.8c.65-1.83-.98-2.22-.8-3.21h.8v-7.24c-.96-.78-1.82-2.08-2.41-3.21-1.87-.76-4.8-2.54-8.04-1.61-2.89,.83-8.17,2.83-12.86,1.61v-.8h-.81v.8h-.8v-.8h-5.63v-.81h-1.6c-.27-.53-.54-1.06-.8-1.6h-1.61v-.8h-14.47v.8c-.54-.27-1.07-.53-1.61-.8-.27,.53-.53,1.07-.8,1.6-1.72,1.35-3.71,2.11-6.43,2.42v1.61c-.54,.27-1.07,.53-1.61,.8-.27,.8-.54,1.61-.81,2.42h-1.61v.8c-.8,.53-1.6,1.07-2.41,1.61v1.6c-.54,.27-1.07,.54-1.61,.81-.27,1.07-.53,2.14-.8,3.21h-.8c-.54,1.61-1.07,3.22-1.61,4.82h-.8c-.27,2.15-.54,4.29-.81,6.44H.86v2.41H.05c-.37,2.42,1.31,1.67,1.61,2.41v2.42c7.21-.11,11.77-.31,16.08-3.22,.81-1.07,1.61-2.14,2.41-3.21h4.02v-.8h1.6c.27-.54,.54-1.07,.8-1.61,1.07-.27,2.15-.53,3.22-.8v-.8h3.21v-.8h2.41v-.8h2.41v-.81h2.41v-.8c1.88-.26,3.75-.53,5.63-.8v-.8c4.03-1.3,9.76,.47,12.87,.8,.26,1.34,.53,2.68,.8,4.02h.8c1,1.57,5.11,4.35,7.24,4.82,.47,1.79,.67,2.02,1.61,3.21h.8v1.61c.53,.27,1.07,.53,1.61,.8v.8c.54,.27,1.07,.54,1.61,.8,2.52,3.59,3.36,8.18,7.24,10.45v2.42h-12.86v-.8c-1.61-.27-3.22-.54-4.82-.8-.8-3-1.68-2.18-3.22-4.02-5.71,.47-10.6,2.44-12.87,6.43-3.02-.32-4.29-1.54-6.43-2.41-.8,.26-1.61,.53-2.41,.8v-.8h-8.04c-4.55,2.14-9.12,4.28-13.67,6.43-.75,2.75-1.71,2.07-2.41,4.82h-2.42c-.88,1.88-1.89,3.39-3.22,4.82-.54,.26-1.07,.53-1.61,.8-.93,1.35,0,1.83-1.61,3.22,.08,4.18,.29,3.13,1.61,5.63,6.17,.26,12.33,.53,18.5,.8v-.8h4.02v-.81h1.61v-.8c3.52-1.23,4.8,1.1,7.24-1.61h7.24c1.84,.94,1.45,4.56,2.41,6.43h.8c.27,1.07,.54,2.15,.81,3.22h.8v2.41h.8v1.61c.54,.26,1.07,.53,1.6,.8v1.61c.81,.54,1.61,1.07,2.42,1.61v1.61c.53,.27,1.07,.53,1.61,.8v1.61c.8,.54,1.61,1.07,2.42,1.61v1.61c1.02,1.41,2.92,2.02,4.02,4.02,9.3-.58,14.46-9.16,20.9-12.87v-3.21c2.43-.65,2.77-1.5,3.21-4.02,2.73-.62,3.7-1.87,6.43-2.42,1.07,2.15,2.14,4.29,3.22,6.44,.54,.26,1.07,.53,1.61,.8v2.41c.54,.27,1.07,.54,1.61,.8,.27,1.34,.53,2.69,.8,4.02h.8v1.61h.8v1.61c.54,.27,1.07,.53,1.61,.8v2.41c.54,.27,1.07,.54,1.61,.81v2.41h.8c.27,1.61,.54,3.22,.8,4.82h.81v1.61h.8v2.42h.81c.56,1.89-.87,2.14-.81,3.21h.81v21.71h.8v.8h-.8v.8h.8c.39,1.67-.8,2.42-.8,2.42v.8h.8v8.85h.8v6.43h.8v4.02h.8v.8c-1.35,2.12,.07,5.78-.8,8.85h-.8v11.25h-.8c-.17,.6-.8,7.23-.8,7.23h.8v4.82h.8v4.82c1.34,1.88,2.68,3.75,4.02,5.63,3.59,.78,9.28,3.28,13.67,1.61v-.81h1.61v-.8c.8-.26,1.61-.53,2.41-.8,.61-2.38,1.31-1.98,1.61-4.82,1.65-2.55-2.57-2.21-1.61-6.43h.81c.35-1.66-.81-2.42-.81-2.42-.22-1.67,.81-1.61,.81-1.61v-13.67h.81c.49-1.89-.89-3.47-.81-4.01h.81c-.08-1.14-.62,.31-.81-.81,.27-2.95,.54-5.9,.81-8.84h-.81c-.19-.89,.81-1.61,.81-1.61v-.8h-.81v-13.67c.3-1.09,.7,.33,.81-.8-.27-1.07-.54-2.15-.81-3.21,0,0,1.21-.83,.81-2.42h-.81c-.81-5.36-1.61-10.72-2.41-16.08h.8v-5.63c.54-.27,1.07-.54,1.61-.8v-1.61h.81v-1.6h.8v-3.22h.8v-5.63h.8v-3.21h.8v-3.22h.81v-1.61h.81c.26-1.07,.53-2.15,.8-3.22h.8c.27-2.15,.54-4.29,.8-6.43h.8v-2.42c.54-.26,1.07-.53,1.61-.8,.27-1.88,.54-3.75,.81-5.63h1.61c.67-2.83,2.06-3.62,3.22-5.63v-1.6c.53-.27,1.07-.54,1.61-.81v-1.6c.54-.27,1.07-.53,1.6-.8,.27-1.07,.54-2.15,.81-3.22,2.41,.27,4.82,.54,7.24,.8,.54,.81,1.07,1.61,1.61,2.42h1.61v.8h2.41v.8h2.41v.8h2.41v.81h2.41v.8h2.41v.8h1.61v.8c1.34,.27,2.68,.53,4.02,.8v.8c2.68,.54,5.36,1.07,8.05,1.61v.8h1.6v.8c2.41,.27,4.82,.53,7.24,.8,1.8-.52,3.31-2.31,4.82-3.22-.6-2.09-1.26-2.57-2.41-4.01h-.8c-.27-1.07-.54-2.15-.8-3.22h-.81v-2.41h-.81v-2.42h-.8c-.27-1.07-.53-2.15-.8-3.22h-.8v-1.6c-.54-.27-1.07-.53-1.61-.8v-1.61c-.54-.27-1.07-.54-1.61-.81v-1.61h-.8c-.93-1.19-1.16-1.41-1.6-3.21h-1.61v-1.61c-2.64-.72-3.78-2.49-5.63-4.02v-.8h-1.61c-.27-.53-.54-1.07-.8-1.6h-1.61c-.27-.54-.54-1.07-.81-1.61h-1.61v-.81h-3.22v-.8h-6.43v-.8c-3.22,.27-6.43,.54-9.65,.8v.8h-1.61v.81h-2.42v.8h-4.02v.8h-2.41v.8c-2.59,.78-3.8-1.1-5.63-.8v.8h-5.63c-.27,.54-.54,1.07-.8,1.61h-1.61v.81c-.8,.26-1.61,.53-2.41,.8-.7-1.84-.86-3.56-.8-6.44,2-.57,1.29-.42,2.41-1.61h.8v-1.6c.81-.27,1.61-.54,2.42-.8,.53-.81,1.07-1.61,1.6-2.42h1.61c.27-.53,.54-1.07,.81-1.61h1.61v-.8h2.41c.27-.54,.54-1.07,.8-1.61h1.61c.53-.8,1.07-1.61,1.6-2.41h1.61v-.8c1.07-.8,2.14-1.61,3.22-2.42v-2.41c4.82,.26,9.65,.53,14.47,.8,.21,.04,.26,1.03,1.61,.8v-.8h3.21v-.8h3.22v.8h11.25v.8h2.41v.8h1.61v.8c1.6,.27,3.21,.54,4.82,.81,.53,.8,1.07,1.6,1.61,2.41h2.41v.8h2.41c3.44,1.33,1.65,1.42,5.63,.8,.48-1.61-.11-.69,.8-1.61-.02-4.44-.68-6.93-2.41-9.65Zm-104.53,32.97v-.8c-1.07-.27-2.15-.54-3.22-.81v-.8c-2.54-1.02-6.97,0-8.84-1.6-1.35-.92-1.12-.49-1.61-2.42h-1.6c-.9-3.26-1.96-1.74-2.41-5.63h-1.61c-.67-2.53-1.85-2.92-2.41-5.63,4.02,.27,8.04,.54,12.06,.8v.8h9.65c2.8,.85,5.04,2.27,8.85,2.42v20.9c-2.27-.6-2.31-1.44-4.02-2.41v-1.61c-2.39-.65-3.16-1.88-4.82-3.21Zm8.04,41.01c-.91-.53-1.03-3.01-1.61-4.02-1.28-2.26-2.97-2.81-3.22-6.43h-1.61c-.27-1.34-.53-2.68-.8-4.02,2.91-.66,4.03-2.11,6.43-3.22,1.2,3.19-.47,8.86,.8,12.87h.81c.27,1.61,.53,3.22,.8,4.82h-1.61Zm3.22-155.18v.8c-1.35,.96-2.29-.32-4.02,1.61h-3.22c-.27-.8-.54-1.61-.81-2.41-.54-.27-1.07-.53-1.61-.8-.93-1-1.36-2.32-2.41-3.22v-1.61c5.35-.36,7.82-2.79,12.86-3.22,.08,2.77,.55,7.38-.8,8.85Zm8.04-6.43c-.08-2.91-.63-8.1,.8-9.65v-.8c1.44,.77,1.25,1.15,3.22,1.61-.1,6.05-1.97,8.71-2.41,13.67h-.8v-4.82h-.8Zm14.47,131.86v.8c1.34-.27,2.68-.53,4.02-.8,1.93,.41,3.38,1.52,6.43,1.61,.27,.8,.53,1.61,.8,2.42h-1.61c-.62,2.94-1.77,5.02-3.21,7.23-.54,.27-1.07,.54-1.61,.8v2.42h-.81v1.61h-.81c-.27,1.34-.53,2.68-.8,4.02h-.8v2.41c-.54,.27-1.07,.54-1.61,.81v3.21h-.81c-1.06,2.72-.41,3.83-2.41,5.63v.8h-.8v-.8h-.8c1.51-3.44-.85-3.82,0-7.23,2-8.11-.1-17.51,0-26.53,1.6,.53,3.21,1.06,4.82,1.6Zm-7.24-76.38v7.23c-.8,.54-1.61,1.07-2.41,1.61v2.42h-.81v.8h-.8c-.77-2.07-.14-4.14-.81-6.43-3.15-10.81-.59-20.29,0-31.36h.81v-.81h4.82c.27,.54,.53,1.07,.8,1.61h2.41v.8c2.68,.53,5.36,1.07,8.04,1.61v.8c.53-.26,1.07-.53,1.61-.8v.8h1.6c.27,.54,.54,1.07,.81,1.61h6.43v.8h2.41v.8h4.82v.8h2.42v.8c1.6,.54,3.21,1.07,4.82,1.61v.8h1.61v.8c.8,.53,1.61,1.07,2.41,1.61v.8h-.81v.81c-2.74-1.01-4.59-.87-7.23,0h-3.22v.8c-1.07,.27-2.14,.53-3.22,.8-.27,.53-.54,1.07-.81,1.61h-1.6v.8h-4.02v.81h-.8v-.81c-.8-.26-1.61-.53-2.41-.8v.8h-3.21v.81h-1.61v.8c-2.15,.26-4.29,.53-6.44,.8-2.38,1.01-2.43,3.22-5.63,4.02Zm45.03,11.26h-4.82c-.8,1.07-1.61,2.15-2.41,3.22h-1.61c-.81,1.06-1.61,2.14-2.41,3.21h-1.6c-.27,.54-.54,1.07-.81,1.61h-1.61c-1.99,1.03-5,3.52-8.84,2.41v-.8h-3.22c-1.07-1.34-2.15-2.68-3.22-4.02-2.68-.8-5.36-1.61-8.04-2.41v-3.22c1.37,.51,2.13,.31,4.02,.8v.8c5.36-.8,10.72-1.6,16.08-2.41v-.8c4.39-1.31,15.08,.19,18.49,.8v.8Z"/>
        <g>
          <path class="cls-6" d="M114.23,28.95h1.6c.54-2.42,1.07-4.82,1.61-7.24-1.62-1.37-.67-1.87-1.61-3.21-1.07-.81-2.15-1.61-3.22-2.42v-.8h-1.6c-.54-.8-1.07-1.61-1.61-2.42-.81-.26-1.61-.53-2.42-.8v-1.61h-1.61c-.58-2.22-.23-1.8-2.41-2.42v-.8h-2.41c-5.45,5.95-12.29,.73-12.06,13.67,2.42,1.6,.42,.87,1.61,2.41,.53,.27,1.07,.54,1.6,.81v.8h1.61c.27,.53,.54,1.07,.81,1.61,2.94,.8,5.89,1.61,8.84,2.42v.8c2.35,1.13,3.97,1.49,6.43,2.41v.8c1.34-.26,2.68-.53,4.02-.8v-.8h.81v-2.41Z"/>
          <path class="cls-6" d="M109.41,34.46c-.34,0-.68-.12-.95-.34-.28-.23-.46-.55-.52-.9-.46-.16-.89-.3-1.31-.44-1.38-.46-2.68-.89-4.3-1.68-.41-.2-.7-.57-.81-1-2.08-.57-4.17-1.14-6.25-1.71l-1.53-.42c-.41-.11-.75-.39-.94-.77l-.4-.79h-.68c-.79,0-1.43-.61-1.5-1.38l-.79-.4c-.2-.1-.37-.24-.51-.42-.47-.61-.71-1.16-.73-1.71-.12-.09-.29-.21-.52-.36-.41-.27-.67-.73-.67-1.23-.15-8.69,2.82-10.32,7.03-11.66,1.83-.58,3.72-1.19,5.42-3.05,.28-.31,.69-.49,1.11-.49h2.41c.71,0,1.3,.49,1.46,1.14,1.29,.37,1.74,.79,2.11,2.08h.45c.83,0,1.5,.67,1.5,1.5v.53c.46,.15,.92,.31,1.38,.46,.32,.11,.6,.32,.79,.6,.38,.58,.77,1.16,1.15,1.74h.8c.83,0,1.5,.67,1.5,1.5v.05c.87,.65,1.75,1.31,2.62,1.97,.13,.1,.24,.21,.33,.34,.59,.85,.69,1.55,.76,2.01,.06,.38,.07,.48,.58,.91,.43,.36,.62,.93,.5,1.47l-1.61,7.24c-.15,.69-.76,1.17-1.46,1.17h-.1v.91c0,.62-.38,1.16-.93,1.39-.19,.45-.59,.79-1.09,.89-1.34,.27-2.69,.54-4.03,.8-.1,.02-.19,.03-.29,.03Zm-4.94-5.68c1.08,.47,2.04,.79,3.11,1.15,.73,.24,1.49,.5,2.36,.82,.25,.09,.47,.25,.63,.45,.48-.09,.95-.19,1.43-.29,.12-.39,.39-.71,.74-.89v-1.08c0-.83,.67-1.5,1.5-1.5h.4l1.16-5.25c-.68-.78-.84-1.45-.94-2.11-.04-.25-.06-.38-.15-.55-.9-.68-1.81-1.36-2.71-2.03l-.29-.21c-.18-.14-.33-.31-.43-.5h-.28c-.5,0-.97-.25-1.25-.66-.44-.66-.88-1.32-1.32-1.99-.58-.19-1.16-.38-1.74-.58l-.19-.06c-.61-.21-1.02-.78-1.02-1.42v-.11h-.11c-.68,0-1.28-.46-1.45-1.12l-.17-.66c-.03-.14-.07-.28-.1-.4-.08-.02-.18-.05-.29-.07-.22-.06-.49-.13-.81-.22-.41-.11-.73-.39-.92-.75h-.45c-2.12,2.07-4.4,2.8-6.25,3.39-3.04,.97-4.93,1.57-4.95,7.98,.74,.54,1.37,1.18,1.28,2.11l1.13,.57c.28,.14,.5,.37,.65,.64h.28c.57,0,1.09,.32,1.34,.83l.51,1.01,.89,.24c2.44,.66,4.88,1.33,7.32,2,.6,.16,1.03,.68,1.09,1.28Z"/>
        </g>
        <g>
          <path class="cls-6" d="M52.31,54.68c-1.11,4.31-5.97,7.32-7.23,12.06,1.34-.27,2.68-.53,4.02-.8v-.8h2.41c.27-.54,.54-1.07,.8-1.61,2.42-.26,4.82-.53,7.24-.8,1.13,.07-.34,.81,.8,.8v-.8h3.22v-.8h2.41v-.8h2.41v-.8h2.41v-.8h3.22v-.8h1.61v-.81h4.02v-.8c1.88-.27,3.75-.53,5.63-.8v-.8c-1.38-.91-1.09-.51-1.61-2.42-2.72-.56-3.1-1.74-5.63-2.41v-1.61c-3.02-.37-8.45-3.19-12.86-1.61v.8h-1.61v.81c-1.34,.26-2.68,.53-4.02,.8-.27,.53-.54,1.07-.8,1.61h-2.42v.8c-1.5,1.13-1.89,1.81-4.02,2.42Z"/>
          <path class="cls-6" d="M45.08,68.23c-.41,0-.81-.17-1.09-.47-.36-.38-.49-.91-.36-1.41,.73-2.72,2.41-4.82,4.04-6.85,1.4-1.75,2.72-3.39,3.19-5.2,.13-.52,.53-.93,1.05-1.07,1.32-.37,1.73-.71,2.55-1.39,.12-.1,.25-.2,.38-.31v-.07c0-.83,.67-1.5,1.5-1.5h1.49c.13-.26,.26-.52,.4-.78,.21-.41,.59-.7,1.04-.79,.96-.19,1.92-.39,2.88-.58,.19-.62,.76-1.07,1.44-1.07h.28c.17-.33,.46-.59,.82-.72,3.56-1.27,7.44-.13,10.55,.78,1.15,.34,2.23,.66,3,.75,.75,.09,1.32,.73,1.32,1.49v.52c.78,.31,1.36,.65,1.88,.97,.76,.45,1.36,.81,2.55,1.06,.55,.11,1,.53,1.15,1.08,.08,.28,.13,.51,.18,.7,.04,.17,.07,.3,.1,.41,.07,.04,.15,.09,.25,.16l.45,.29c.42,.28,.68,.75,.68,1.25v.8c0,.75-.55,1.38-1.29,1.48l-4.43,.63c-.21,.58-.76,.99-1.41,.99h-2.69c-.25,.48-.75,.81-1.33,.81h-.28c-.25,.48-.75,.8-1.33,.8h-1.89c-.25,.48-.75,.8-1.33,.8h-1.08c-.25,.48-.75,.8-1.33,.8h-1.09c-.25,.48-.75,.8-1.33,.8h-1.08c-.25,.48-.75,.8-1.33,.8h-1.89c-.25,.47-.74,.8-1.32,.8-.74,0-1.3-.23-1.65-.7h0c-1.81,.2-3.61,.4-5.41,.6-.09,.17-.17,.35-.26,.52l-.18,.36c-.25,.51-.77,.83-1.34,.83h-1.08c-.2,.39-.58,.68-1.03,.77l-4.02,.8c-.1,.02-.2,.03-.3,.03Zm8.43-12.37c-.74,2.06-2.14,3.81-3.5,5.51-.89,1.11-1.76,2.19-2.43,3.33l.09-.02c.19-.61,.76-1.06,1.43-1.06h1.48c.13-.26,.25-.51,.38-.77,.23-.47,.67-.78,1.19-.84,2.08-.22,4.15-.46,6.22-.69l1.01-.11c.09,0,.17-.01,.26,0,.12,0,.24,.02,.35,.04,.12-.03,.24-.04,.36-.04h1.89c.25-.48,.75-.8,1.33-.8h1.08c.25-.48,.75-.8,1.33-.8h1.08c.25-.48,.75-.8,1.33-.8h1.08c.25-.48,.75-.8,1.33-.8h1.89c.25-.48,.75-.8,1.33-.8h.27c.25-.48,.75-.81,1.33-.81h2.69c.22-.41,.62-.72,1.11-.79l3.28-.47c-.1-.23-.18-.5-.27-.83-1.14-.34-1.89-.79-2.56-1.19-.66-.4-1.24-.74-2.23-1-.66-.17-1.12-.77-1.12-1.45v-.37c-.68-.16-1.41-.38-2.17-.6-2.38-.7-5.27-1.55-7.74-1.09-.16,.66-.75,1.15-1.46,1.15h-.28c-.21,.4-.58,.69-1.04,.78-1.1,.22-2.2,.44-3.3,.66-.16,.31-.31,.63-.47,.94-.25,.51-.77,.84-1.35,.84h-1.09c-.1,.19-.25,.37-.43,.5-.34,.25-.61,.48-.87,.69-.78,.65-1.48,1.22-2.86,1.72Zm11.67-8.43h0Z"/>
        </g>
        <g>
          <path class="cls-6" d="M143.17,57.08v1.61h-2.41v.8c-.92,.92-.32,0-.8,1.61,4.59,.4,6.94,2.88,10.45,4.02h7.23v.8h11.26v.8h4.02v.8c1.14,.05-.31-.62,.81-.8h4.02c-.7-2.76-1.66-2.07-2.41-4.82-2.25-.48-3.35-1.22-4.82-2.41v-.8h-1.61c-.8-1.07-1.61-2.15-2.41-3.22h-2.41v-.8h-1.61v-.8c-1.11-.73-1.4-.56-3.21-.81v.81h-5.63c-3.39,1.04-6.13,2.8-10.45,3.21Z"/>
          <path class="cls-6" d="M173.04,69.04c-.08,0-.14,0-.19,0-.55-.03-1.02-.34-1.26-.8h-2.69c-.58,0-1.08-.33-1.33-.8h-9.93c-.58,0-1.08-.33-1.33-.8h-5.91c-.16,0-.31-.02-.46-.07-1.44-.47-2.67-1.13-3.87-1.77-1.89-1.01-3.68-1.96-6.25-2.19-.45-.04-.86-.28-1.11-.65-.25-.37-.33-.84-.2-1.27,.14-.48,.16-.65,.17-.72,.07-.57,.31-.88,.57-1.12v-.14c0-.83,.67-1.5,1.5-1.5h.91v-.11c0-.77,.59-1.42,1.36-1.49,2.68-.25,4.68-1.06,6.8-1.91,1.07-.43,2.17-.87,3.35-1.24,.14-.04,.29-.07,.44-.07h4.3c.09-.17,.2-.32,.35-.44,.33-.28,.76-.41,1.19-.35,.43,.06,.76,.09,1.05,.12,1.08,.11,1.69,.2,2.78,.92,.22,.14,.39,.33,.5,.56h.28c.58,0,1.08,.33,1.33,.8h1.09c.47,0,.92,.22,1.2,.6l1.96,2.62h.86c.83,0,1.5,.67,1.5,1.5v.07c1.1,.84,1.97,1.31,3.64,1.67,.55,.12,.99,.53,1.13,1.07,.29,1.06,.56,1.39,.93,1.85,.47,.58,1.05,1.29,1.49,3.01,.11,.45,.01,.92-.27,1.29s-.72,.58-1.18,.58h-3.09s-.03,.05-.05,.07c-.45,.66-1.16,.73-1.56,.73Zm-2.81-3.81h2.69c.14,0,.27,.02,.39,.05,.06-.01,.11-.02,.17-.03,.08-.01,.16-.02,.24-.02h1.64c-.37-.46-.81-1.01-1.21-2.07-2.08-.58-3.28-1.44-4.59-2.5-.16-.13-.29-.29-.39-.47h-.28c-.47,0-.92-.22-1.2-.6l-1.96-2.62h-1.66c-.58,0-1.08-.33-1.33-.8h-.28c-.79,0-1.44-.61-1.5-1.39-.12-.03-.27-.05-.47-.07-.27,.4-.73,.66-1.24,.66h-5.4c-.98,.31-1.92,.69-2.9,1.09-1.89,.76-3.83,1.54-6.28,1.94v.3c0,.83-.67,1.5-1.5,1.5h-.05c1.69,.51,3.09,1.26,4.37,1.94,1.06,.57,2.07,1.1,3.17,1.49h6.99c.58,0,1.08,.33,1.33,.8h9.93c.58,0,1.08,.33,1.33,.8Z"/>
        </g>
        <g>
          <path class="cls-6" d="M66.79,77.19c-.86,1.03-1.41,.84-2.41,1.61v.8h-1.61c-.81,1.07-1.61,2.14-2.41,3.21h-.8c-4.64,6.55-5.64,19.25-5.63,28.95,1.45,.76,1.26,1.12,3.21,1.61v-.8h2.42c.27-.53,.53-1.07,.8-1.61h1.61v-.8h2.42v-.8h2.41v-.81c1.07-.26,2.15-.53,3.22-.8v-.8h2.41v-.8h1.61c.8-1.34,1.61-2.68,2.41-4.02,2.68-.8,5.37-1.61,8.04-2.41v-.8h1.61c.27-.54,.54-1.07,.8-1.61h1.61v-.8c6.17-1.61,12.33-3.22,18.49-4.82,.27-.8,.54-1.61,.81-2.41h.8c-.8-1.61-1.61-3.22-2.41-4.82h-4.02c-1.6-.27-3.21-.54-4.82-.81-2.72,.72-8.37,3.06-12.86,1.61v-.8h-2.42c-.27-.54-.53-1.07-.8-1.61h-1.6c-.27-.53-.54-1.07-.8-1.61-3.03-1.98-7.59-3.65-12.06-4.02Z"/>
          <path class="cls-6" d="M57.14,114.86c-.12,0-.24-.01-.37-.05-1.42-.36-1.96-.69-2.62-1.16-.26-.18-.5-.35-.92-.57-.49-.26-.8-.77-.8-1.33-.01-9.78,1-22.9,5.9-29.82,.28-.4,.74-.63,1.22-.63h.05l1.96-2.61c.28-.38,.73-.6,1.2-.6h.28c.1-.19,.23-.35,.4-.48,.55-.43,1.02-.64,1.36-.8,.38-.17,.53-.25,.82-.59,.31-.38,.79-.58,1.28-.54,4.42,.37,9.31,2,12.76,4.26,.22,.15,.41,.35,.52,.59,.13,.25,.25,.51,.38,.77h.68c.57,0,1.09,.32,1.34,.83,.13,.26,.26,.52,.39,.79h1.49c.7,0,1.28,.48,1.45,1.12,3.09,.55,6.77-.59,9.29-1.37,.65-.2,1.24-.38,1.73-.51,.21-.05,.42-.06,.63-.03l4.7,.79h3.9c.57,0,1.09,.32,1.34,.83l.85,1.69c.52,1.04,1.04,2.09,1.57,3.13,.23,.46,.21,1.02-.07,1.46-.22,.36-.58,.6-.99,.68-.14,.4-.27,.81-.41,1.21l-.07,.21c-.16,.48-.55,.84-1.04,.97l-17.42,4.54c-.16,.65-.75,1.13-1.45,1.13h-.68c-.13,.26-.26,.52-.39,.79-.25,.51-.77,.83-1.34,.83h-.28c-.18,.35-.5,.62-.9,.74l-7.49,2.24-2.11,3.52c-.27,.45-.76,.73-1.29,.73h-.28c-.25,.48-.75,.8-1.33,.8h-1.08c-.19,.37-.54,.65-.96,.76l-.33,.08c-.6,.15-1.2,.3-1.8,.45-.17,.65-.75,1.12-1.45,1.12h-1.08c-.25,.48-.75,.8-1.33,.8h-1.09c-.25,.48-.75,.8-1.33,.8h-.68c-.03,.07-.07,.14-.1,.21l-.28,.56c-.25,.51-.77,.83-1.34,.83h-1.09c-.1,.19-.24,.35-.41,.49-.27,.21-.59,.32-.92,.32Zm-1.71-3.96c.18,.12,.32,.22,.46,.31,.1,.07,.2,.14,.29,.2,.26-.22,.6-.35,.96-.35h1.49c.13-.26,.26-.53,.39-.79,.26-.5,.77-.82,1.34-.82h.28c.25-.48,.75-.8,1.33-.8h1.09c.25-.48,.75-.8,1.33-.8h1.08c.19-.38,.54-.66,.98-.77,.71-.17,1.42-.35,2.12-.53,.17-.65,.75-1.12,1.45-1.12h1.08c.25-.48,.75-.8,1.33-.8h.76l1.97-3.29c.19-.32,.5-.56,.86-.67l7.01-2.1c.15-.67,.75-1.18,1.46-1.18h.68c.13-.26,.26-.52,.38-.78,.25-.51,.77-.84,1.35-.84h.28c.19-.36,.53-.65,.95-.75l17.71-4.62c.18-.54,.37-1.09,.55-1.63,.04-.12,.09-.23,.15-.33-.28-.55-.55-1.11-.83-1.66l-.43-.87h-3.1c-.08,0-.17,0-.25-.02l-4.5-.76c-.39,.11-.83,.25-1.3,.39-3.16,.98-7.93,2.46-12.09,1.11-.38-.12-.69-.39-.87-.73h-1.09c-.57,0-1.09-.33-1.35-.84-.13-.26-.26-.52-.38-.78h-.68c-.56,0-1.08-.32-1.34-.82-.21-.41-.42-.83-.63-1.25-2.85-1.78-6.72-3.08-10.34-3.5-.48,.42-.92,.62-1.28,.79-.07,.03-.13,.06-.19,.09-.01,.82-.68,1.47-1.5,1.47h-.86l-1.96,2.61c-.28,.38-.73,.6-1.2,.6h0c-3.95,6.25-4.88,17.66-4.93,26.59Zm8.95-32.1h0Z"/>
        </g>
        <g>
          <path class="cls-6" d="M160.06,92.46v-2.41c-2.26-1.33-2.74-3.25-5.63-4.02v-1.61c-3.66-.67-2.84-1.72-4.83-3.22-.81-.27-1.61-.53-2.42-.8v-1.61h-5.63v-.81h-.8v.81h-2.41v.8c-1.07,.26-2.14,.53-3.21,.8v.8h-2.42c-1.5,.61-3.95,1.72-5.63,2.41,.27,.54,.54,1.07,.81,1.61,3.75,1.88,7.51,3.75,11.26,5.63h12.86c2.02,.58,5.56,1.36,8.04,1.61Z"/>
          <path class="cls-6" d="M160.06,93.96s-.1,0-.15,0c-2.44-.24-5.87-.97-8.1-1.6h-12.65c-.23,0-.46-.05-.67-.16l-11.26-5.63c-.29-.15-.53-.38-.67-.68l-.81-1.61c-.19-.37-.21-.81-.06-1.2,.15-.39,.45-.7,.83-.86,.81-.33,1.81-.77,2.79-1.2,1.04-.45,2.07-.9,2.84-1.21,.18-.07,.37-.11,.56-.11h1.09c.19-.37,.54-.65,.96-.76l.51-.13c.54-.14,1.08-.27,1.62-.41,.17-.64,.75-1.12,1.45-1.12h1.08c.25-.48,.75-.81,1.33-.81h.8c.58,0,1.08,.33,1.33,.81h4.29c.83,0,1.5,.67,1.5,1.5v.52l1.39,.46c.15,.05,.3,.13,.43,.23,.83,.63,1.29,1.23,1.62,1.66,.48,.63,.72,.94,2.57,1.28,.71,.13,1.23,.75,1.23,1.48v.54c1.42,.61,2.29,1.48,3.07,2.27,.56,.56,1.08,1.1,1.82,1.53,.46,.27,.74,.76,.74,1.29v2.41c0,.42-.18,.83-.49,1.11-.28,.25-.64,.39-1.01,.39Zm-20.55-4.61h12.51c.14,0,.28,.02,.41,.06,1.55,.44,3.9,.98,5.95,1.31-.6-.46-1.08-.94-1.51-1.38-.86-.87-1.48-1.5-2.82-1.86-.66-.18-1.11-.77-1.11-1.45v-.41c-1.81-.51-2.48-1.22-3.18-2.13-.25-.33-.48-.62-.87-.95l-2.17-.72c-.61-.2-1.02-.78-1.02-1.42v-.11h-4.13c-.14,0-.27-.02-.4-.05-.13,.04-.26,.05-.4,.05h-1.08c-.2,.37-.54,.66-.97,.76-.71,.17-1.41,.35-2.12,.53-.17,.65-.75,1.12-1.45,1.12h-2.12c-.72,.3-1.6,.68-2.51,1.08-.38,.17-.77,.34-1.15,.5l10.15,5.07Zm-4.38-8.95h0Z"/>
        </g>
        <g>
          <path class="cls-6" d="M158.45,114.18h-1.61v-1.61c-2.69-.49-11.66-3.15-15.28-1.61-.27,.53-.53,1.07-.8,1.61h-2.41v.8h-1.61v.81c-1.6,.26-3.21,.53-4.82,.8v.8c-5.72,1.81-13.38-2.28-18.49-2.42v.81c1.92,1.28,2.09,3.54,4.02,4.82v.8h4.02v.8h1.61v.8h2.41v.8h4.82c.27,.54,.53,1.07,.8,1.61h2.41v.81h1.61v.8h2.41v.8h4.02v.8h1.61v.8c4.82,.8,9.65,1.61,14.47,2.42v.8h2.42v.8c1.61,.54,3.22,1.07,4.82,1.6l.8-.8v.8c1.43,.62,.66,1.07,1.61,0h.81v-.8c-2.09-1.92-.53-2.15-1.61-4.82h-.8v-1.61h-.8v-2.42h-.81c-.27-1.06-.54-2.14-.8-3.21-.54-.27-1.07-.54-1.61-.8v-1.61h-.8c-1.15-1.41-1.84-1.93-2.41-4.01Z"/>
          <path class="cls-6" d="M166.71,135.61c-.62,0-1.01-.36-1.15-.49-.06-.05-.13-.12-.3-.21-.27,.07-.56,.06-.84-.03-1.61-.53-3.22-1.07-4.83-1.61-.38-.13-.68-.39-.85-.73h-1.09c-.66,0-1.22-.43-1.42-1.02l-13.3-2.22c-.48-.08-.87-.38-1.08-.78h-.28c-.58,0-1.08-.33-1.33-.8h-2.69c-.58,0-1.08-.33-1.33-.8h-1.08c-.58,0-1.08-.33-1.33-.8h-.28c-.58,0-1.08-.33-1.33-.81h-1.08c-.56,0-1.08-.32-1.34-.82-.13-.26-.26-.52-.4-.79h-3.89c-.58,0-1.08-.33-1.33-.8h-1.08c-.58,0-1.08-.33-1.33-.8h-.28c-.58,0-1.08-.33-1.33-.8h-2.69c-.83,0-1.5-.67-1.5-1.5v-.07c-.83-.74-1.34-1.61-1.8-2.39-.47-.79-.87-1.47-1.55-1.92-.42-.28-.67-.75-.67-1.25v-.81c0-.4,.16-.79,.45-1.08,.29-.28,.69-.43,1.09-.42,2.11,.06,4.48,.69,6.99,1.37,3.47,.93,7.04,1.89,10.01,1.36,.15-.56,.61-1,1.2-1.1l.38-.06c1.09-.18,2.18-.37,3.27-.55,.2-.6,.76-1.03,1.42-1.03h.28c.25-.48,.75-.8,1.33-.8h1.49c.05-.09,.09-.18,.14-.28l.25-.5c.16-.32,.43-.57,.75-.71,3.11-1.33,8.63-.21,14.03,1.04,.88,.2,1.6,.37,2.11,.47,.71,.13,1.23,.75,1.23,1.48v.11h.11c.67,0,1.27,.45,1.45,1.1,.39,1.41,.78,1.87,1.56,2.78,.04,.04,.07,.09,.11,.13h.1c.83,0,1.5,.67,1.5,1.5v.68c.26,.13,.52,.26,.79,.39,.39,.2,.68,.55,.78,.98l.53,2.12c.65,.17,1.12,.75,1.12,1.45v1.09c.48,.25,.8,.75,.8,1.33v.28c.31,.16,.56,.43,.7,.77,.57,1.41,.55,2.36,.54,2.98-.01,.56-.01,.65,.7,1.3,.31,.28,.49,.68,.49,1.1v.8c0,.83-.67,1.5-1.5,1.5h-.1c-.22,.26-.58,.6-1.17,.64-.04,0-.08,0-.12,0Zm-5.17-4.84c.98,.33,1.96,.65,2.94,.98l.15-.15c.23-.23,.53-.38,.84-.42-.05-.32-.06-.65-.05-.98,0-.28,.01-.55-.05-.89-.68-.15-1.18-.75-1.18-1.47v-.28c-.48-.25-.8-.75-.8-1.33v-1.09c-.37-.19-.66-.54-.76-.97l-.64-2.54c-.33-.16-.65-.33-.98-.49-.51-.25-.84-.77-.84-1.35v-.29c-.18-.09-.34-.22-.47-.38-.19-.23-.37-.44-.53-.64-.71-.84-1.3-1.54-1.8-2.82h-.52c-.83,0-1.5-.67-1.5-1.5v-.4c-.31-.07-.65-.15-1.02-.24-2.96-.69-8.94-2.08-11.69-1.37-.18,.36-.35,.71-.53,1.07-.26,.5-.77,.82-1.34,.82h-1.08c-.25,.48-.75,.8-1.33,.8h-.28c-.21,.41-.61,.71-1.09,.79-1.21,.2-2.43,.4-3.64,.6-.15,.44-.5,.8-.97,.95-3.97,1.26-8.6,.01-12.69-1.08-1.13-.3-2.24-.6-3.27-.83,.11,.18,.21,.35,.31,.52,.47,.79,.87,1.48,1.55,1.93,.21,.14,.38,.33,.5,.55h2.7c.58,0,1.08,.33,1.33,.8h.28c.58,0,1.08,.33,1.33,.8h1.08c.58,0,1.08,.33,1.33,.8h3.5c.57,0,1.09,.33,1.35,.84,.13,.26,.25,.51,.38,.77h1.49c.58,0,1.08,.33,1.33,.81h.28c.58,0,1.08,.33,1.33,.8h1.08c.58,0,1.08,.33,1.33,.8h2.69c.58,0,1.08,.33,1.33,.8h.28c.66,0,1.22,.43,1.42,1.02l13.29,2.22c.48,.08,.87,.38,1.08,.78h1.09c.73,0,1.34,.52,1.47,1.22Z"/>
        </g>
        <g>
          <path class="cls-6" d="M60.36,135.08h-1.6c-.51,2.22-1.89,3.86-2.42,5.63v4.02h.8v4.82c.77,2.52,1.85,6,2.42,8.84h1.61v-2.41c1.44-.91,2.41-2.53,3.22-4.02,.8,.27,1.6,.54,2.41,.8,.27-.53,.54-1.07,.81-1.61,3.75-.27,7.51-.54,11.26-.8v-.8h4.82v-.81h1.61v-.8c1.88-.26,3.75-.53,5.63-.8,.54-.8,1.07-1.6,1.6-2.41,1.86-1.17,2.57,.25,3.22,0v-.81h1.6v-.8c2.68-.8,5.37-1.61,8.04-2.41v-1.61c-1.98-1.16-2.24-2.53-4.82-3.22-1.18-1.17-8.1-2.71-11.26-1.6v.8h-1.61v.8h-6.43v.8c-2.95-.27-5.9-.53-8.85-.8v-.8h-1.61v-.8h-1.6v-.81h-1.61c-.27-.53-.54-1.06-.81-1.6-2.11-.88-4.17,.54-5.63,.8-.27,.8-.53,1.61-.8,2.42Z"/>
          <path class="cls-6" d="M61.16,159.89h-1.61c-.72,0-1.33-.51-1.47-1.21-.51-2.56-1.45-5.64-2.21-8.12l-.17-.57c-.04-.14-.07-.29-.07-.44v-3.49c-.48-.25-.8-.75-.8-1.33v-4.02c0-.15,.02-.29,.06-.43,.27-.92,.72-1.77,1.15-2.59,.51-.97,1-1.89,1.24-2.94,.16-.68,.76-1.17,1.46-1.17h.52l.46-1.39c.17-.52,.62-.9,1.16-1,.29-.05,.71-.2,1.15-.36,1.39-.51,3.28-1.2,5.32-.34,.33,.14,.6,.39,.76,.71l.39,.78h.69c.58,0,1.08,.33,1.33,.81h.27c.58,0,1.08,.33,1.33,.8h.28c.62,0,1.16,.38,1.38,.92l6.2,.56c.27-.41,.73-.68,1.26-.68h5.11c.25-.48,.75-.8,1.33-.8h.28c.17-.33,.46-.59,.83-.72,3.46-1.21,10.27,.15,12.44,1.66,1.74,.53,2.62,1.36,3.39,2.09,.45,.43,.87,.83,1.5,1.19,.46,.27,.74,.76,.74,1.29v1.61c0,.66-.43,1.25-1.07,1.44l-7.01,2.1c-.15,.67-.75,1.17-1.46,1.17h-.27c-.16,.32-.44,.57-.79,.71-.83,.32-1.54-.02-1.93-.21-.33-.16-.47-.22-.78-.07-.45,.68-.91,1.36-1.36,2.05-.24,.35-.66,.66-1.08,.72-1.48,.21-2.95,.43-4.43,.64-.21,.58-.76,.99-1.41,.99h-.28c-.25,.48-.75,.81-1.33,.81h-3.49c-.23,.45-.69,.76-1.22,.8-3.47,.24-6.94,.49-10.4,.74l-.43,.85c-.33,.66-1.1,.98-1.8,.75-.42-.14-.83-.27-1.25-.41-.66,1.11-1.43,2.16-2.41,2.97v1.65c0,.83-.67,1.5-1.5,1.5Zm-2.52-10.56l.11,.35c.47,1.56,1.02,3.34,1.5,5.12,.04-.03,.08-.06,.12-.08,1.1-.7,1.95-2.08,2.7-3.47,.35-.64,1.11-.94,1.8-.71,.4,.13,.78,.27,1.17,.39l.23-.45c.24-.47,.71-.78,1.23-.82,3.33-.24,6.66-.48,9.99-.71,.23-.53,.76-.9,1.37-.9h3.49c.25-.48,.75-.81,1.33-.81h.28c.22-.42,.63-.72,1.12-.79,1.65-.23,3.31-.47,4.96-.71,.43-.64,.83-1.24,1.23-1.85,.12-.18,.27-.33,.45-.44,1.23-.77,2.23-.78,2.97-.61,.27-.27,.64-.43,1.05-.43h.28c.18-.35,.5-.62,.9-.74l6.67-2c-.39-.31-.7-.61-1-.89-.72-.69-1.2-1.14-2.41-1.46-.25-.07-.48-.2-.67-.38-.82-.69-5.81-1.89-8.75-1.47-.17,.64-.76,1.11-1.45,1.11h-.28c-.25,.48-.75,.8-1.33,.8h-5.11c-.08,.15-.19,.29-.32,.41-.31,.28-.73,.42-1.15,.39l-8.85-.8c-.52-.05-.96-.36-1.19-.8h-.28c-.58,0-1.08-.33-1.33-.8h-.28c-.58,0-1.08-.33-1.33-.81h-.28c-.57,0-1.09-.32-1.34-.83l-.52-1.03c-.83-.14-1.73,.19-2.66,.53-.25,.09-.5,.18-.74,.26l-.55,1.66c-.21,.61-.78,1.02-1.42,1.02h-.49c-.33,.93-.77,1.76-1.17,2.51-.34,.65-.67,1.27-.87,1.85v2.46c.48,.25,.8,.75,.8,1.33v4.6Zm30.67-15.05h0Z"/>
        </g>
        <path class="cls-2" d="M105.38,155.98h1.61c.27-2.95,.54-5.9,.81-8.85h-.81c-1.19,1.2-3.99,1.75-5.63,2.42,1.27,2.32,3.28,3.67,4.02,6.43Z"/>
        <g>
          <path class="cls-6" d="M187.39,157.59v-1.6h-2.41v-1.61c-1.34-.27-2.68-.54-4.02-.81v-.8h-4.82v-.8h-10.45c-.95-.26-5.1-1.75-7.24-.8-.27,.53-.54,1.07-.81,1.61-1.33,.27-2.68,.54-4.02,.8v.81h-1.61v.8h-3.22v.8h-1.61v.8h-2.41v.8c-1.55,.32-3.09-1.58-5.63-.8v.8c-1.34,.27-2.68,.54-4.02,.8v.81h.8c2.45,2.12,5.4-.48,8.85,0v.8h.8v-.8h5.63v-.81h4.02v-.8h11.26v.8c6.97-.26,13.94-.53,20.9-.8Z"/>
          <path class="cls-6" d="M138.24,161.55c-.94,0-1.89-.21-2.81-.85h-.29c-.83,0-1.5-.67-1.5-1.5v-.81c0-.72,.51-1.33,1.21-1.47,.96-.19,1.92-.38,2.87-.57,.14-.47,.51-.85,1-1,1.98-.6,3.49,0,4.6,.43,.09,.03,.18,.07,.27,.1,.27-.37,.71-.6,1.2-.6h1.08c.25-.48,.75-.8,1.33-.8h.28c.25-.48,.75-.8,1.33-.8h1.89c.25-.48,.75-.8,1.33-.8h.28c.21-.4,.58-.69,1.04-.78,1.1-.22,2.2-.44,3.3-.66,.16-.31,.31-.62,.46-.93,.16-.31,.42-.58,.74-.72,2.1-.94,5.13-.23,7.81,.59,.09,.03,.18,.05,.25,.08h10.24c.58,0,1.08,.33,1.33,.8h3.5c.68,0,1.25,.45,1.43,1.06l2.88,.58c.7,.14,1.2,.76,1.2,1.47v.11h.91c.83,0,1.5,.67,1.5,1.5v1.6c0,.81-.64,1.47-1.44,1.5-6.96,.27-13.93,.54-20.91,.8-.41,.02-.8-.14-1.1-.42-.12-.11-.21-.24-.29-.38h-8.6c-.25,.48-.75,.8-1.33,.8h-2.69c-.25,.48-.75,.81-1.33,.81h-4.3c-.25,.48-.75,.8-1.33,.8h-.8c-.59,0-1.11-.35-1.35-.85-.75,.06-1.5,.24-2.29,.43-.93,.22-1.91,.46-2.91,.46Zm-3.1-3.16h0Zm5.43-.29s0,.03-.01,.04c.04,0,.08-.02,.12-.03-.03,0-.07,0-.11,0Zm7.81-.4h1.5c.25-.48,.75-.81,1.33-.81h2.69c.25-.48,.75-.8,1.33-.8h11.26c.56,0,1.04,.3,1.3,.75,5.24-.2,10.48-.4,15.72-.6-.01-.08-.02-.17-.02-.25v-.38l-2.82-.57c-.45-.09-.83-.38-1.03-.77h-3.5c-.58,0-1.08-.33-1.33-.8h-9.12c-.13,0-.27-.02-.4-.05-.13-.03-.3-.09-.52-.16-.97-.3-3.73-1.14-5.26-.86-.18,.35-.35,.7-.53,1.05-.21,.41-.59,.7-1.04,.79-.96,.19-1.92,.39-2.88,.58-.19,.62-.76,1.06-1.44,1.06h-.28c-.25,.48-.75,.8-1.33,.8h-1.89c-.25,.48-.75,.8-1.33,.8h-.28c-.04,.08-.09,.15-.14,.22Zm39.02-.11h0Zm-33.77-4.02h0Z"/>
        </g>
        <g>
          <path class="cls-6" d="M164.08,177.69v1.61c-2.14,.8-4.29,1.6-6.43,2.41v.8h.81c3.95,3.78,13.07-.15,19.29,1.6v.81c3.75,.26,7.51,.53,11.26,.8v.8h1.61v.8c2.41,.8,4.82,1.6,7.23,2.42v-.81c-1.88-2.14-3.75-4.28-5.63-6.43h-1.6v-.8c-1.19-.94-1.43-1.13-3.22-1.61v-1.61h-1.61v-1.6h-1.61v-1.61c-2.24-.49-3.84-1.85-5.63-2.42-3.22,.27-6.43,.54-9.65,.8-1.04,1.92-2.4,3.41-4.82,4.02Z"/>
          <path class="cls-6" d="M197.85,191.26c-.16,0-.32-.03-.48-.08-1.97-.66-3.94-1.32-5.92-1.98l-1.31-.44c-.38-.13-.68-.39-.85-.73h-.28c-.61,0-1.14-.37-1.37-.9-3.33-.24-6.66-.48-9.99-.71-.65-.05-1.18-.5-1.34-1.09-2.21-.37-4.83-.13-7.37,.1-4.07,.37-8.26,.75-11.03-1.42h-.25c-.83,0-1.5-.67-1.5-1.5v-.8c0-.63,.39-1.19,.97-1.4l5.46-2.04v-.57c0-.69,.47-1.29,1.13-1.45,1.72-.43,2.84-1.39,3.87-3.28,.24-.45,.69-.74,1.2-.78,3.21-.26,6.43-.53,9.65-.8,.19-.02,.39,0,.58,.07,.88,.28,1.69,.71,2.48,1.13,.99,.52,1.92,1.02,3.01,1.26,.69,.15,1.18,.76,1.18,1.47v.11h.11c.83,0,1.5,.67,1.5,1.5v.1h.11c.83,0,1.5,.67,1.5,1.5v.49c1.12,.37,1.61,.73,2.65,1.55,.17,.13,.3,.3,.4,.48h.28c.43,0,.84,.19,1.13,.51l.71,.81c1.64,1.88,3.28,3.75,4.92,5.62,.24,.27,.37,.63,.37,.99v.81c0,.48-.23,.94-.63,1.22-.26,.19-.56,.28-.87,.28Zm-5.76-5.01l.31,.1c.56,.19,1.11,.37,1.67,.56-.76-.87-1.52-1.73-2.27-2.6l-.26-.3h-.92c-.83,0-1.5-.67-1.5-1.5v-.07c-.63-.48-.91-.57-2.1-.89-.66-.17-1.12-.77-1.12-1.45v-.11h-.11c-.83,0-1.5-.67-1.5-1.5v-.1h-.11c-.83,0-1.5-.67-1.5-1.5v-.48c-.97-.34-1.82-.79-2.6-1.2-.6-.32-1.17-.62-1.72-.83-2.85,.24-5.7,.48-8.55,.71-.81,1.32-2.08,2.83-4.23,3.68v.53c0,.63-.39,1.19-.97,1.4l-3.94,1.47c1.95,.81,4.9,.54,7.99,.26,3.23-.29,6.57-.6,9.5,.23,.44,.13,.79,.44,.97,.85,3.33,.23,6.66,.47,9.99,.71,.53,.04,.99,.35,1.22,.8h.28c.73,0,1.34,.52,1.47,1.21Zm-34.44-4.54h0Zm6.43-2.41h0Z"/>
        </g>
        <g>
          <path class="cls-6" d="M79.66,194.58c1.34,.26,2.68,.53,4.02,.8v.8h8.04v.8h4.82v.8h6.43v.8c1.88,.27,3.75,.54,5.63,.81v.8c2.68-.27,5.36-.54,8.04-.8v.8h2.42v.8h2.41v.8c2.68-.27,5.36-.53,8.04-.8,2.78-4.47,12.31-6.61,13.67-11.25h.8v-.81h-.8v-3.21c-.54-.27-1.07-.54-1.61-.8-.27-.81-.53-1.61-.8-2.42h-.8c-.27-.8-.54-1.61-.8-2.41-2.17-.61-2.46-1.32-4.02-2.42v-.8h-4.02c-.27-.53-.54-1.07-.8-1.61h-2.41v-.8c-3.38-1.12-6.38,.99-8.04,1.6h-3.22c-.27,.53-.53,1.07-.8,1.61-3.21,.27-6.43,.54-9.65,.8,0,0,.09-.86-1.61-.8v.8h-.81v-.8c-4.29-.27-8.58-.53-12.86-.8v.8c-3.81,.97-6.09,5.06-8.04,8.04-.54,.27-1.07,.53-1.61,.8-.53,2.68-1.07,5.36-1.6,8.05Z"/>
          <path class="cls-6" d="M121.46,203.31c-.37,0-.73-.14-1.01-.39-.13-.12-.24-.26-.32-.41h-1.08c-.58,0-1.08-.33-1.33-.8h-1.09c-.52,0-.98-.27-1.25-.67-2.15,.21-4.3,.43-6.45,.65l-.18,.02c-.42,.04-.84-.1-1.16-.38-.18-.17-.32-.38-.41-.6l-4.43-.64c-.49-.07-.9-.37-1.11-.79h-5.11c-.58,0-1.08-.33-1.33-.8h-3.5c-.58,0-1.08-.33-1.33-.8h-6.71c-.68,0-1.25-.45-1.43-1.06-.98-.2-1.92-.39-2.87-.57-.39-.08-.74-.31-.96-.64-.22-.33-.3-.74-.23-1.13l1.6-8.05c.09-.45,.39-.84,.8-1.05l1.24-.62,.36-.55c1.75-2.73,3.89-6.06,7.25-7.42,.06-.31,.21-.59,.44-.8,.3-.28,.7-.43,1.12-.4l12.86,.8c.11,0,.21,.02,.31,.05,.11-.03,.23-.05,.35-.05,1.08-.04,1.9,.21,2.47,.73,2.63-.21,5.25-.43,7.88-.66l.43-.85c.25-.51,.77-.83,1.34-.83h2.93c.24-.1,.51-.23,.8-.37,1.88-.89,4.73-2.24,8-1.16,.38,.12,.68,.39,.86,.73h1.08c.57,0,1.09,.32,1.34,.83l.23,.45c.05,.11,.11,.21,.16,.32h3.1c.83,0,1.5,.67,1.5,1.5v.05c.2,.15,.37,.3,.54,.44,.73,.6,1.13,.93,2.38,1.28,.48,.14,.86,.5,1.02,.98,.15,.47,.31,.93,.46,1.4,.52,.1,.96,.47,1.14,.99,.21,.61,.41,1.22,.61,1.83,.35,.17,.7,.35,1.06,.53,.51,.26,.82,.77,.82,1.34v1.88c.48,.25,.8,.75,.8,1.33v.81c0,.76-.56,1.38-1.29,1.49-1.29,2.48-4.29,4.21-7.21,5.88-2.51,1.44-5.11,2.93-6.19,4.68-.25,.39-.66,.65-1.12,.7l-8.04,.8c-.05,0-.1,0-.15,0Zm-1.08-3.8h1.08c.52,0,.98,.27,1.25,.67l5.96-.59c1.58-2.06,4.23-3.59,6.81-5.06,2.79-1.6,5.68-3.26,6.25-5.17-.04-.13-.06-.27-.06-.41v-2.29c-.25-.13-.51-.25-.76-.38-.37-.18-.64-.5-.77-.88-.15-.47-.31-.94-.46-1.41-.52-.1-.96-.48-1.14-1l-.1-.31c-.15-.46-.31-.92-.46-1.38-1.32-.47-1.99-1.03-2.7-1.61-.28-.23-.6-.49-1-.78-.2-.14-.35-.32-.46-.53h-2.69c-.56,0-1.08-.32-1.34-.82-.13-.26-.26-.52-.39-.79h-1.48c-.69,0-1.27-.46-1.44-1.09-1.77-.2-3.43,.58-4.8,1.24-.48,.23-.9,.43-1.27,.56-.17,.06-.34,.09-.52,.09h-2.29l-.39,.79c-.24,.46-.69,.77-1.21,.81-3.22,.27-6.43,.54-9.65,.8-.33,.03-.65-.06-.92-.23-.23,.15-.51,.23-.8,.23h-.81c-.61,0-1.13-.36-1.37-.88l-10.21-.64c-.2,.33-.52,.57-.91,.67-2.87,.73-4.83,3.79-6.57,6.5l-.59,.91c-.14,.22-.34,.4-.58,.52l-.96,.48-1.17,5.85c.82,.16,1.64,.33,2.46,.5,.46,.09,.87,.39,1.1,.79h6.73c.58,0,1.08,.33,1.33,.8h3.5c.58,0,1.08,.33,1.33,.8h5.11c.65,0,1.2,.41,1.41,.99l4.43,.64c.44,.06,.81,.31,1.04,.65,2.22-.22,4.43-.45,6.65-.66,.42-.04,.84,.1,1.15,.38,.13,.12,.24,.26,.32,.41h1.09c.58,0,1.08,.33,1.33,.8Z"/>
        </g>
        <g>
          <path class="cls-6" d="M13.73,186.54c-.38,3.08-5.6,9.82-4.02,11.26v.8h2.41v-.8h2.42v-.8c1.09-.93,1.23-1.47,1.6-3.22,2.19-.58,2.45-1.33,4.02-2.41v-.8h8.04v-.8h2.41v-.81h4.02v-.8h2.41v-.8h1.61v-.8h3.21v-.8h4.02v-.8c5.97-1.74,12.39,1.5,17.69,1.6,1.11-2.1,1.43-1.36,1.61-4.82h-.8v-.8c-5.94,2.23-19.8,.77-24.93-.8h-4.02v-.8h-1.61v-.81h-10.46c-1.24,1.98-.92,.5-2.41,1.61-.27,.53-.53,1.07-.8,1.61-1.61,1.34-3.22,2.68-4.82,4.02v.8h-1.6Z"/>
          <path class="cls-6" d="M12.11,200.09h-2.41c-.83,0-1.5-.67-1.5-1.5v-.31c-.92-1.68,.45-4.3,2.01-7.28,.89-1.7,1.9-3.63,2.03-4.65,.09-.75,.73-1.31,1.49-1.31h.28c.09-.17,.21-.33,.37-.45l4.59-3.82c.13-.25,.25-.51,.38-.76l.28-.56c.1-.21,.26-.39,.44-.53,.73-.55,1.28-.72,1.74-.76,.07-.1,.17-.24,.3-.45,.27-.44,.75-.7,1.27-.7h10.46c.58,0,1.08,.33,1.33,.81h.27c.58,0,1.08,.33,1.33,.8h2.69c.15,0,.3,.02,.44,.07,4.94,1.51,18.46,2.9,23.96,.83,.46-.17,.98-.11,1.38,.17,.24,.17,.42,.39,.53,.65,.19,.08,.36,.2,.51,.35,.28,.3,.43,.7,.41,1.11-.14,2.7-.39,3.28-1.12,4.35-.19,.28-.4,.59-.67,1.09-.26,.5-.79,.8-1.36,.8-2.12-.04-4.29-.52-6.58-1.03-3.21-.71-6.53-1.45-9.63-.87-.17,.64-.76,1.11-1.45,1.11h-2.69c-.25,.48-.75,.8-1.33,.8h-1.88c-.25,.48-.75,.8-1.33,.8h-.29c-.25,.48-.75,.8-1.33,.8h-1.08c-.25,.48-.75,.8-1.33,.8h-2.69c-.25,.48-.75,.81-1.33,.81h-1.08c-.25,.48-.75,.8-1.33,.8h-6.71c-.11,.21-.27,.4-.48,.54-.42,.29-.74,.56-1.03,.8-.68,.56-1.32,1.1-2.57,1.55-.27,1.13-.57,1.87-1.38,2.69v.15c0,.83-.67,1.5-1.5,1.5h-1.09c-.25,.48-.75,.8-1.33,.8Zm-1.21-3.2s0,0,0,0c.27-.37,.71-.61,1.2-.61h1.09c.09-.17,.21-.32,.35-.44,.7-.6,.75-.71,1.11-2.39,.12-.55,.54-.99,1.09-1.14,1.21-.32,1.6-.64,2.3-1.22,.18-.15,.38-.32,.6-.49v-.04c0-.83,.67-1.5,1.5-1.5h6.71c.25-.48,.75-.8,1.33-.8h1.08c.25-.48,.75-.81,1.33-.81h2.69c.25-.48,.75-.8,1.33-.8h1.08c.25-.48,.75-.8,1.33-.8h.29c.25-.48,.75-.8,1.33-.8h1.88c.25-.48,.75-.8,1.33-.8h2.69c.19-.35,.51-.63,.91-.74,.64-.19,1.28-.32,1.92-.41-3.29-.37-6.24-.92-8.15-1.47h-3.8c-.58,0-1.08-.33-1.33-.8h-.28c-.58,0-1.08-.33-1.33-.81h-8.33c-.57,.75-1.13,1.13-2.01,1.13,0,0,0,0-.03,0l-.1,.2c-.18,.35-.35,.71-.53,1.06-.09,.18-.22,.34-.38,.47l-4.29,3.57v.1c0,.83-.67,1.5-1.5,1.5h-.43c-.43,1.31-1.21,2.8-2.03,4.36-.73,1.39-1.92,3.68-1.97,4.5Zm4.43-11.16h0Zm39.85-2.18c.83,.16,1.64,.34,2.43,.52,1.81,.4,3.54,.79,5.12,.92,.13-.21,.25-.38,.35-.53,.28-.42,.41-.61,.51-1.48-.09-.06-.17-.12-.25-.19-2.27,.56-5.16,.77-8.16,.76Z"/>
        </g>
        <g>
          <path class="cls-2" d="M116.64,208.24c.27,1.34,.54,2.68,.8,4.02l-.8,.8,.8,.8h-.8v10.45c.54,.27,1.07,.54,1.61,.81v2.41h.81c.26,1.07,.53,2.15,.8,3.22,.8,.26,1.61,.53,2.41,.8v-9.65c1.21-1.43,.16-7.63,0-11.25h-.8v.8c-1.37-.16-1.23-1.44-1.61-1.61h-1.61v-1.61h-1.61Z"/>
          <path class="cls-1" d="M122.27,233.06c-.16,0-.32-.03-.48-.08l-.28-.09c-.7-.24-1.41-.47-2.12-.7-.49-.16-.86-.56-.99-1.06-.18-.71-.36-1.42-.54-2.13-.64-.17-1.12-.75-1.12-1.45v-1.48l-.79-.4c-.51-.26-.82-.77-.82-1.34v-10.45c0-.14,.02-.27,.05-.4-.14-.5-.01-1.07,.38-1.46l.24-.24c-.21-1.08-.43-2.15-.65-3.23-.09-.44,.03-.9,.31-1.25,.28-.35,.71-.55,1.16-.55h1.61c.83,0,1.5,.67,1.5,1.5v.11h.11c.21,0,.42,.04,.61,.13,.38,.17,.62,.43,.79,.69,.07,0,.14-.02,.21-.02h.8c.8,0,1.46,.63,1.5,1.44,.04,.93,.14,2.05,.25,3.23,.38,4.16,.56,6.95-.25,8.52v9.22c0,.48-.23,.94-.62,1.22-.26,.19-.57,.28-.88,.28Zm-2.52-6.85c.37,.2,.66,.54,.76,.98,.08,.34,.17,.69,.25,1.03v-6.3c0-.35,.13-.7,.35-.97,.46-.77,.1-4.72-.09-6.85-.04-.41-.07-.82-.11-1.21-1.11-.25-1.67-.98-1.96-1.53h-.17c.04,.21,.08,.41,.12,.62,.08,.38,0,.77-.2,1.09,.26,.41,.31,.92,.12,1.38-.14,.33-.38,.59-.69,.75l.04,8.22,.75,.38c.51,.26,.82,.77,.82,1.34v1.08Z"/>
        </g>
        <g>
          <path class="cls-6" d="M135.94,225.13c8.04,.53,16.08,1.07,24.12,1.61v.8h2.41v.8c1.07,.27,2.15,.54,3.22,.8v.81h2.41v.8h1.61v.8h3.21v.8h1.61v.8h3.21c4.26,1.71,7.76,4.44,13.67,4.82-.47-4.74-3.38-5.12-4.02-9.65h-1.61v-1.6c-2.48-1.53-2.42-3.94-5.63-4.82v-1.61h-1.61v-1.61c-1.07-.26-2.14-.53-3.22-.8-.27-.53-.54-1.07-.8-1.6-1.34-.27-2.68-.54-4.02-.8v-.8h-11.25v.8h-.81c-.44-.38,.23-1.28-.81-.8-.27,.53-.53,1.06-.8,1.61h-2.41v.8h-4.02v.8h-1.61v.8c-4.82,.81-9.65,1.61-14.47,2.42,.52,2.2,1.05,1.83,1.61,4.02Z"/>
          <path class="cls-6" d="M191.42,239.49s-.06,0-.1,0c-4.54-.29-7.69-1.85-10.74-3.36-1.07-.53-2.08-1.03-3.13-1.46h-2.92c-.58,0-1.08-.33-1.33-.8h-.29c-.58,0-1.08-.33-1.33-.8h-1.88c-.58,0-1.08-.33-1.33-.8h-.28c-.58,0-1.08-.33-1.33-.8h-1.09c-.7,0-1.29-.48-1.45-1.12-.71-.18-1.42-.36-2.13-.54-.42-.11-.77-.39-.96-.76h-1.08c-.61,0-1.14-.37-1.37-.89l-22.85-1.52c-.65-.04-1.19-.5-1.35-1.13-.22-.87-.41-1.19-.65-1.6-.31-.52-.65-1.11-.97-2.45-.09-.4-.02-.83,.21-1.17s.59-.58,1-.65l1.62-.27c3.89-.65,7.78-1.29,11.67-1.95,.2-.59,.76-1.02,1.42-1.02h.28c.25-.48,.75-.8,1.33-.8h2.69c.25-.48,.75-.8,1.33-.8h1.48l.39-.78c.15-.31,.4-.55,.71-.69,.27-.13,1.08-.5,1.86-.09,.12-.03,.25-.05,.39-.05h11.25c.67,0,1.24,.44,1.43,1.06,.82,.16,1.63,.33,2.45,.49l.44,.09c.45,.09,.84,.39,1.04,.8l.28,.56c.07,.14,.14,.29,.21,.43,.85,.21,1.69,.43,2.54,.63,.67,.16,1.14,.77,1.14,1.46v.11h.11c.83,0,1.5,.67,1.5,1.5v.55c1.61,.72,2.43,1.84,3.12,2.77,.53,.72,1,1.34,1.79,1.83,.44,.27,.71,.76,.71,1.28v.1h.11c.75,0,1.38,.55,1.49,1.29,.26,1.85,.95,2.84,1.75,3.99,.94,1.36,2,2.9,2.28,5.72,.04,.44-.11,.87-.41,1.19-.28,.29-.67,.46-1.08,.46Zm-15.55-7.82h1.88c.19,0,.38,.04,.56,.11,1.26,.5,2.45,1.09,3.61,1.67,2.4,1.18,4.68,2.31,7.61,2.82-.34-.95-.83-1.66-1.36-2.43-.72-1.05-1.52-2.21-1.99-3.99h-.38c-.83,0-1.5-.67-1.5-1.5v-.83c-.86-.68-1.41-1.43-1.92-2.1-.75-1.01-1.25-1.68-2.61-2.05-.65-.18-1.1-.77-1.1-1.45v-.11h-.11c-.83,0-1.5-.67-1.5-1.5v-.44c-.62-.16-1.24-.31-1.87-.47l-.22-.05c-.42-.11-.77-.39-.97-.77-.16-.32-.32-.64-.48-.96-1.1-.22-2.2-.44-3.29-.66-.46-.09-.83-.38-1.04-.77h-8.6c-.25,.48-.75,.8-1.33,.8h-.81c-.09,0-.18,0-.27-.02-.25,.51-.77,.83-1.34,.83h-1.08c-.25,.48-.75,.8-1.33,.8h-2.69c-.25,.48-.75,.8-1.33,.8h-.28c-.21,.4-.6,.7-1.08,.78-4.22,.71-8.45,1.41-12.68,2.12,.02,.03,.04,.06,.06,.1,.19,.33,.41,.71,.64,1.32l23.09,1.54c.54,.04,.99,.35,1.23,.8h1.08c.7,0,1.28,.48,1.45,1.12,.71,.18,1.41,.35,2.12,.53,.43,.11,.78,.39,.98,.77h1.08c.58,0,1.08,.33,1.33,.8h.28c.58,0,1.08,.33,1.33,.8h1.88c.58,0,1.08,.33,1.33,.8h.29c.58,0,1.08,.33,1.33,.8Z"/>
        </g>
        <g>
          <path class="cls-6" d="M52.31,225.13c-.53,3.48-1.07,6.96-1.6,10.45h.8v1.61h.8c.54,2.68,1.07,5.36,1.61,8.04h.8v1.6h.8v2.41c1,2.25,1.96,2.01,2.41,5.64h1.61c.27,.8,.53,1.61,.8,2.41,.54,.27,1.07,.53,1.61,.8v1.61c.81,.53,1.61,1.06,2.42,1.61v.8h3.22c.92-.92,0-.32,1.61-.8v-1.61h2.41c1.38-2.36,2.33-2.3,2.41-6.44h1.61v-1.61c1.61-.54,3.22-1.07,4.82-1.6,1-3.26,.41-.98,2.41-2.42,.27-.53,.54-1.07,.8-1.61h1.61c.27-.54,.53-1.07,.8-1.61h1.61c.54-.8,1.07-1.6,1.61-2.41,1.61-.27,3.21-.53,4.83-.8,.27-.54,.53-1.07,.8-1.6h1.61v-.81h.8v.81h.81v-.81c.81,.27,1.61,.54,2.41,.81v-.81c1.75-1.49,1.68-3.86,1.6-7.23-2.41-2.15-4.82-4.29-7.23-6.43-3.48,.26-6.97,.53-10.45,.8v.8h-1.61v.8h-3.21v.8h-4.02v-.8c-1.28-.26-1.51,.79-1.61,.8-.54-.26-1.07-.53-1.61-.8v.8c-4.01-.8-8.04-1.6-12.06-2.41v-.8h-1.6v-.81h-1.61v-.8c-2.76-.79-2.41,1.24-3.21,1.61h-1.61Z"/>
          <path class="cls-6" d="M67.59,263.62h-3.22c-.83,0-1.5-.67-1.5-1.5h0c-.58-.39-1.16-.77-1.74-1.16-.42-.28-.67-.75-.67-1.25l-.04-.7-.75-.37c-.35-.18-.62-.49-.74-.86-.16-.46-.31-.93-.46-1.39h-.53c-.76,0-1.4-.56-1.49-1.32-.25-1.99-.6-2.49-1.14-3.24-.33-.47-.75-1.05-1.16-1.97-.09-.19-.13-.4-.13-.61v-1.08c-.48-.25-.8-.75-.8-1.33v-.28c-.39-.2-.68-.58-.77-1.03l-1.39-6.91c-.61-.19-1.06-.76-1.06-1.43v-.28c-.17-.09-.32-.21-.44-.35-.28-.33-.41-.77-.34-1.2l1.6-10.45c.11-.73,.74-1.27,1.48-1.27h.88c.41-.78,1.43-2.4,4.36-1.56,.4,.12,.73,.39,.91,.75h.29c.58,0,1.08,.33,1.33,.81h.27c.68,0,1.25,.45,1.43,1.06l9.47,1.89c.1-.12,.23-.23,.37-.32,.44-.27,1-.3,1.46-.06l.31,.16c.09,.04,.18,.09,.27,.13,.8-.58,1.71-.53,2.27-.42,.45,.09,.82,.38,1.03,.77h1.37c.25-.48,.75-.8,1.33-.8h1.89c.25-.48,.75-.8,1.33-.8h.28c.23-.44,.68-.76,1.21-.8l1.68-.13c2.92-.23,5.85-.45,8.77-.67,.41-.03,.8,.1,1.11,.37,2.41,2.14,4.83,4.28,7.24,6.43,.31,.28,.49,.67,.5,1.08,.08,3.34,.14,5.99-1.6,7.9v.18c0,.48-.23,.94-.62,1.22s-.9,.36-1.35,.2l-.93-.31c-.27,.24-.62,.39-1.01,.39h-.81c-.14,0-.27-.02-.4-.05-.13,.04-.26,.05-.4,.05h-.68c-.13,.25-.25,.51-.38,.77-.21,.43-.62,.74-1.1,.82l-4.19,.7-1.25,1.87c-.28,.42-.75,.67-1.25,.67h-.68l-.39,.79c-.25,.51-.77,.83-1.34,.83h-.68l-.39,.78c-.11,.22-.27,.4-.47,.55-.63,.45-1.15,.67-1.58,.76-.1,.3-.21,.66-.28,.88-.14,.46-.5,.83-.96,.98l-.36,.12c-1.14,.38-2.29,.76-3.44,1.14v.53c0,.83-.67,1.5-1.5,1.5h-.18c-.21,2.26-.8,3.19-1.66,4.38-.28,.38-.57,.78-.88,1.32-.27,.46-.76,.74-1.3,.74h-.91v.11c0,.66-.44,1.25-1.07,1.44-.32,.1-.57,.16-.76,.2-.06,.07-.14,.14-.22,.23-.28,.28-.66,.44-1.06,.44Zm-1.89-3h1.23c.18-.2,.41-.39,.77-.5v-.41c0-.83,.67-1.5,1.5-1.5h1.58c.21-.32,.41-.59,.58-.82,.74-1.02,1.11-1.53,1.17-4.15,.02-.82,.68-1.47,1.5-1.47h.11v-.11c0-.64,.41-1.22,1.02-1.42,1.36-.46,2.73-.91,4.1-1.36,.48-1.48,.93-2.33,2.31-2.2,.01,0,.06-.02,.14-.07l.62-1.25c.25-.51,.77-.83,1.34-.83h.68l.39-.79c.25-.51,.77-.83,1.34-.83h.81l1.17-1.74c.23-.34,.59-.58,1-.64l4.07-.68c.16-.31,.31-.62,.47-.93,.26-.5,.77-.82,1.34-.82h.27c.25-.48,.75-.81,1.33-.81h.8c.14,0,.28,.02,.4,.06,.29-.08,.59-.07,.88,.02l.93,.31s.02-.02,.04-.03c1.07-.91,1.15-2.51,1.09-5.4-2.09-1.86-4.18-3.72-6.27-5.57-2.71,.2-5.42,.41-8.13,.62l-.42,.03c-.23,.53-.76,.91-1.38,.91h-.28c-.25,.48-.75,.8-1.33,.8h-1.89c-.25,.48-.75,.8-1.33,.8h-4.02c-.29,0-.57-.09-.8-.23-.15,.09-.33,.17-.54,.21-.31,.06-.63,.01-.91-.13-.06-.03-.11-.05-.16-.08-.32,.2-.71,.28-1.09,.2l-12.06-2.41c-.46-.09-.83-.38-1.03-.77h-.28c-.58,0-1.08-.33-1.33-.81h-.28c-.56,0-1.05-.31-1.3-.76-.01,.03-.03,.05-.04,.07-.21,.41-.52,1.02-1.23,1.36-.2,.09-.42,.14-.64,.14h-.33l-1.19,7.75c.36,.27,.6,.71,.6,1.2v.28c.39,.2,.68,.58,.77,1.03l1.39,6.91c.61,.19,1.06,.76,1.06,1.43v.28c.48,.25,.8,.75,.8,1.33v2.07c.24,.49,.48,.82,.73,1.17,.63,.88,1.12,1.68,1.46,3.3h.33c.65,0,1.22,.41,1.42,1.03,.2,.61,.4,1.21,.6,1.81l1.06,.53c.5,.26,.82,.77,.82,1.34v.81c.58,.39,1.17,.77,1.75,1.17,.21,.14,.38,.33,.49,.55Zm18.77-34.68h0Z"/>
        </g>
        <g>
          <path class="cls-6" d="M22.57,229.96c-1.16,4.28-3.65,3.39-6.43,5.63-.53,1.07-1.07,2.14-1.6,3.21h12.06c2.46-2.27,5.42-.39,8.85-1.6v-.8h1.6v-.8c2.42-.27,4.82-.54,7.24-.8v-4.82c-2.36-.55-2.63-.9-3.22-3.22-2.01-.17-2.29-.73-3.22-.8l-.81,.8v-.8h-3.21v-.8h-.81v.8h-2.41v.8h-1.61c-2.09,1.06-3.61,2.6-6.43,3.22Z"/>
          <path class="cls-6" d="M26.58,240.3H14.53c-.52,0-1-.27-1.27-.71-.27-.44-.3-.99-.07-1.46l1.6-3.21c.1-.2,.24-.37,.41-.5,1.11-.89,2.19-1.36,3.06-1.74,1.53-.66,2.29-.99,2.87-3.11,.15-.54,.58-.95,1.13-1.07,1.65-.36,2.81-1.1,4.03-1.88,.64-.41,1.3-.83,2.04-1.21,.21-.11,.44-.16,.68-.16h.28c.25-.48,.75-.8,1.33-.8h1.08c.25-.48,.75-.8,1.33-.8h.81c.58,0,1.08,.33,1.33,.8h1.88c.14,0,.28,.02,.4,.06,.17-.05,.35-.07,.53-.05,.6,.05,1.03,.23,1.41,.38,.41,.17,.84,.34,1.81,.42,.64,.05,1.17,.51,1.33,1.13q.44,1.73,2.11,2.12c.68,.16,1.16,.76,1.16,1.46v4.82c0,.77-.58,1.41-1.34,1.49-2,.22-4,.44-6.01,.66-.22,.56-.76,.95-1.4,.95h-.28c-.17,.33-.46,.59-.83,.72-1.74,.61-3.32,.56-4.71,.51-1.75-.06-2.72-.06-3.62,.78-.28,.26-.64,.4-1.02,.4Zm-9.63-3h9.09c1.73-1.3,3.61-1.24,5.29-1.18,.9,.03,1.77,.06,2.65-.09,.16-.65,.75-1.14,1.46-1.14h.28c.23-.43,.65-.74,1.16-.79l.49-.05c1.81-.2,3.61-.41,5.42-.6v-2.34c-1.73-.57-2.38-1.34-2.9-3.01-.74-.14-1.22-.33-1.6-.48l-.19,.19c-.43,.43-1.07,.55-1.63,.32-.33-.14-.59-.38-.75-.69h-1.88c-.14,0-.28-.02-.4-.05-.13,.04-.26,.05-.4,.05h-1.08c-.25,.48-.75,.8-1.33,.8h-1.23c-.5,.27-.98,.58-1.48,.9-1.14,.73-2.42,1.55-4.14,2.06-1.01,2.81-2.75,3.56-4.3,4.23-.73,.31-1.42,.61-2.12,1.13-.12,.24-.24,.49-.37,.73Z"/>
        </g>
        <g>
          <path class="cls-2" d="M116.64,237.19c-.24,9.95-2.2,24.72,4.82,28.95v.8h.8v-4.02c1.74-2.29,.88-15.42,.81-21.71-2.24-.91-4.11-1.41-4.82-4.02h-1.61Z"/>
          <path class="cls-1" d="M122.27,268.44h-.8c-.83,0-1.5-.67-1.5-1.5h0c-5.97-4.43-5.46-15.37-5.01-25.06,.08-1.65,.15-3.24,.19-4.73,.02-.81,.69-1.46,1.5-1.46h1.61c.68,0,1.27,.45,1.45,1.1,.43,1.58,1.33,2,3.33,2.78l.61,.24c.56,.23,.93,.77,.94,1.37,.01,1.27,.06,2.82,.11,4.5,.26,8.66,.35,15.1-.92,17.63v3.61c0,.83-.67,1.5-1.5,1.5Zm-4.23-28.42c-.03,.66-.06,1.32-.09,2-.36,7.84-.81,17.4,2.82,21.58v-.68c0-.33,.11-.65,.31-.91,1.07-1.45,.76-11.43,.62-16.22-.04-1.28-.08-2.49-.1-3.55-1.29-.51-2.58-1.08-3.55-2.22Z"/>
        </g>
        <g>
          <path class="cls-2" d="M116.64,271.77c-.27,2.15-.53,4.28-.8,6.43,.54,.27,1.07,.54,1.61,.8v1.61h.81c.64,1.86-.32,3.94-.81,4.82h-.8v4.01c1.34,1.07,2.68,2.15,4.02,3.22v1.6h.8c1.11,1.2,.41,1.06,2.41,1.61v-.8h-.8v-10.46h-.81v-.8h.81c.57-3.16-.34-8.29-1.61-9.65v-.8h-3.22c-.07-.03-.88-1.23-1.61-1.6Z"/>
          <path class="cls-1" d="M123.88,297.39c-.14,0-.27-.02-.4-.06-1.55-.43-1.98-.58-2.62-1.45-.03-.03-.05-.07-.08-.11h-.11c-.83,0-1.5-.67-1.5-1.5v-.88l-3.46-2.77c-.36-.28-.56-.72-.56-1.17v-4.01c0-.78,.6-1.42,1.36-1.49,.23-.54,.45-1.23,.46-1.91-.59-.2-1.02-.76-1.02-1.42v-.68c-.26-.13-.52-.26-.78-.39-.57-.29-.89-.9-.81-1.53l.8-6.43c.06-.49,.36-.91,.79-1.14,.43-.23,.95-.23,1.39,0,.61,.32,1.15,.86,1.63,1.44h2.51c.83,0,1.5,.67,1.5,1.5v.31c1.47,2.27,2.12,7.42,1.59,10.41,0,.05-.02,.09-.03,.14,.04,.13,.05,.26,.05,.4v9.13c.48,.25,.8,.75,.8,1.33v.8c0,.47-.22,.91-.59,1.19-.26,.2-.58,.31-.91,.31Zm-5.74-8.66l3.43,2.75v-5.52c-.48-.25-.81-.75-.81-1.33v-.8c0-.64,.4-1.18,.96-1.4,.17-2.85-.64-6.45-1.36-7.23-.09-.1-.17-.21-.23-.33h-1.89c-.16,0-.32-.03-.48-.08l-.32,2.54c.22,.11,.43,.22,.65,.32,.51,.25,.84,.77,.84,1.35v.28c.33,.17,.6,.47,.73,.84,.81,2.34-.22,4.79-.91,6.04-.14,.26-.36,.47-.62,.61v1.96Z"/>
        </g>
        <g>
          <path class="cls-2" d="M120.66,320.81v1.61h1.61v1.61c1.34,.8,2.68,1.61,4.02,2.42v-17.69h-.8c.27-.53,.53-1.07,.8-1.61h-.8c-2.15-2.39-4.59-1.67-5.63-5.63-2.28-.57-2.32-1.43-4.02-2.42v1.61c1.43,1.63,.21,4.55,.8,7.23h.8c.26,1.62-.8,1.61-.8,1.61-.79,3.59,.37,7.94,.8,10.46h.81v.8h2.41Z"/>
          <path class="cls-1" d="M126.29,327.94c-.27,0-.53-.07-.77-.21l-1.49-.89c-.84-.51-1.69-1.02-2.53-1.52-.45-.27-.73-.76-.73-1.29v-.11h-.11c-.83,0-1.5-.67-1.5-1.5v-.11h-.91c-.62,0-1.15-.38-1.38-.92-.46-.19-.81-.61-.9-1.13-.07-.41-.16-.87-.26-1.37-.53-2.69-1.26-6.37-.53-9.67,.04-.17,.11-.34,.2-.48-.09-.14-.16-.3-.2-.48-.29-1.3-.22-2.59-.16-3.73,.07-1.26,.13-2.34-.31-2.84-.24-.27-.37-.63-.37-.99v-1.61c0-.54,.29-1.03,.75-1.3,.46-.27,1.04-.27,1.5,0,.75,.44,1.24,.86,1.64,1.2,.57,.49,.91,.79,2,1.06,.53,.13,.95,.54,1.09,1.07,.48,1.84,1.22,2.24,2.44,2.9,.7,.38,1.54,.83,2.37,1.61h.18c.52,0,1.01,.27,1.28,.72,.27,.44,.29,1,.06,1.46l-.07,.13c.14,.23,.23,.5,.23,.8v17.69c0,.54-.29,1.04-.76,1.31-.23,.13-.48,.19-.74,.19Zm-2.52-4.77c.34,.2,.68,.41,1.02,.61v-13.71c-.24-.12-.44-.31-.58-.54-.27-.44-.29-1-.06-1.46l.05-.1c-.59-.59-1.22-.93-1.88-1.29-1.31-.71-2.78-1.51-3.65-3.95-.23-.08-.44-.16-.63-.25,.06,.73,.02,1.49-.02,2.23-.03,.61-.07,1.24-.04,1.83,.49,.19,.86,.62,.95,1.17,.21,1.32-.19,2.11-.57,2.54-.12,.14-.25,.25-.38,.35-.35,2.54,.23,5.5,.67,7.71,.02,.09,.03,.18,.05,.26,.38,.12,.7,.39,.88,.73h1.08c.83,0,1.5,.67,1.5,1.5v.11h.11c.83,0,1.5,.67,1.5,1.5v.76Z"/>
        </g>
        <g>
          <path class="cls-2" d="M122.27,343.32c2.21,.52,1.83,1.06,4.02,1.61v-9.64h-2.41c-.27-1.07-.54-2.15-.8-3.22-1.97-.46-1.78-.85-3.22-1.61v1.61h-.8c-.99,1.7,.28,6.39,.8,7.23,.8,.54,1.61,1.07,2.41,1.61v2.41Z"/>
          <path class="cls-1" d="M126.29,346.43c-.12,0-.24-.01-.37-.05-1.29-.32-1.89-.68-2.38-.96-.4-.24-.72-.42-1.62-.64-.68-.16-1.15-.76-1.15-1.46v-1.61l-1.75-1.17c-.17-.12-.32-.27-.43-.45-.64-1.02-2.23-6.36-.83-8.78,.14-.25,.35-.45,.6-.58v-.28c0-.53,.28-1.01,.73-1.28,.45-.27,1.01-.29,1.47-.04,.6,.32,.97,.58,1.26,.79,.41,.3,.62,.45,1.6,.68,.55,.13,.98,.55,1.11,1.1l.52,2.08h1.24c.83,0,1.5,.67,1.5,1.5v9.64c0,.46-.21,.9-.58,1.18-.27,.21-.59,.32-.92,.32Zm-2.52-4.23c.43,.16,.75,.32,1.02,.47v-5.89h-.91c-.69,0-1.29-.47-1.46-1.14l-.59-2.37c-.3-.1-.56-.2-.78-.31-.21,.28-.51,.48-.86,.56-.09,1.32,.41,3.75,.83,4.74l2.09,1.4c.41,.28,.66,.74,.66,1.24v1.29Z"/>
        </g>
        <path class="cls-2" d="M118.25,348.95c-.54,3.22-1.07,6.44-1.61,9.65h.8v3.22h.81v1.61h.81c.26,1.34,.53,2.68,.8,4.02h.8c.62,.82,.99,.79,1.61,1.61,1.62-.46,.7,.1,1.61-.8,2.92-2.47,.59-10.15,2.41-13.67h-.8c-1.03-1.3-2.92-2.73-4.82-3.21-.58-2.22-.23-1.8-2.41-2.42Z"/>
      </g>
      <g>
        <path class="cls-4" d="M100.45,413.5v-1.61c-3.99-.38-4.04-2.32-7.24-3.22-.27-.8-.53-1.61-.8-2.41h-.8v-1.61c-.54-.27-1.07-.54-1.61-.8-.81-2.42-1.61-4.82-2.42-7.24v-12.86h-.8c-.38-1.76,.8-2.4,.8-2.42v-9.65h.81v-3.22h.8c.54-4.29,1.07-8.58,1.61-12.86h.8c1.4-3.86,1.77-7.72,3.22-11.25,1.36-.58,2.59-2.15,4.82-1.61v.81c.81,.27,1.61,.53,2.41,.8v-.8c.8-.27,1.61-.54,2.41-.81,1.31,.68,5.53,1.47,8.04,.81v-.81c1.92-.48,2.1,.81,3.22,.81v-.81h4.83v-.81c5.36,.27,10.72,.54,16.08,.81v.81c1.6-.27,3.21-.54,4.82-.81v.81c1.34-.27,2.68-.54,4.02-.81v-.81h4.82c3.51,3.84,4.96,.32,4.83,8.85h.8v5.63h.8v3.22h.8v2.41h.8v3.22h.81v5.63h.8v5.63h.81v4.02h.8v9.65h.8v.8h-.8c-.27,1.88-.54,3.75-.8,5.63h-.81v1.61h-.8v3.22h-.81v1.61h-.8v1.61c-.8,.53-1.61,1.07-2.41,1.61,.27,1.61,.53,3.22,.8,4.82h-.8v1.61h-.81c-.27,.54-.54,1.07-.81,1.61h-1.6c-.54,.8-1.07,1.61-1.61,2.41h-4.82c-2.43-2.16-10.54-1.61-15.28-1.61h-10.46s-.66,1.18-2.41,.8c0,0-.21-.69-1.6-.8h-11.26v-.8c-1.34-.27-2.68-.54-4.02-.81Z"/>
        <g>
          <path class="cls-3" d="M98.03,399.03c.3,3.11,1.24,3.33,1.61,6.43,1.82,.49,1.98,.68,3.22,1.6v.81h1.61v.8h10.46v.81c1,.16,1.34-1.27,3.21-.81v.81h9.65s.29-.97,2.42-.81v.81h.8v-.81h7.23v-.8c1.61,.27,3.22,.54,4.83,.8v-.8c1.19-.62,1.35-.58,3.22-.81,.5-1.78,.66-2.01,1.61-3.21h.81c2.14-4.02,4.29-8.04,6.43-12.06,.9-2.86-1.06-10.24-1.61-12.06-.27-3.49-.53-6.97-.8-10.45h-.8v-4.82h-.8v-2.42h-.8v-3.21c-.81-2.68-1.61-5.36-2.42-8.04-2.08-.13-2.78-.11-4.02-.8v-.8h-13.67c-8.43-2.36-19.73,.01-28.95,0-.9,1.7-2.54,3.72-3.22,5.63v4.02h-.8c-.27,3.21-.53,6.43-.8,9.64-.54,.27-1.07,.54-1.6,.81,.27,.53,.53,1.07,.8,1.61h-.8v1.61h-.81c-.21,1.12,.71-.33,.81,.8,.14,1.66-.81,1.61-.81,1.61-.38,1.67,.81,2.41,.81,2.41,.25,1.21-.81,1.61-.81,1.61,.27,.53,.54,1.07,.81,1.6h-.81v.8h.81v12.06c-.25,1.11-1.05-.31-.81,.81h.81v1.61h.8v2.41h.8c.92,.92,0,.32,1.61,.81Z"/>
          <path class="cls-5" d="M115.08,410.99c-.12,0-.25,0-.39-.03-.48-.08-.88-.38-1.1-.79h-9.12c-.58,0-1.08-.33-1.33-.8h-.28c-.83,0-1.5-.67-1.5-1.5v-.06c-.64-.47-.89-.58-2.1-.91-.59-.16-1.03-.66-1.1-1.27-.16-1.33-.42-2.01-.72-2.8-.26-.68-.55-1.44-.75-2.58-.44-.09-.7-.31-.91-.54h-.14c-.83,0-1.5-.67-1.5-1.5v-1.08c-.48-.25-.8-.75-.8-1.33v-.28c-.39-.2-.68-.57-.77-1.01-.07-.31-.27-1.25,.48-1.9,.07-.06,.17-.13,.29-.2v-9.76c-.48-.25-.81-.75-.81-1.33v-.8c0-.29,.08-.56,.23-.8l-.07-.14c-.21-.41-.32-.87-.12-1.29,.13-.28,.3-.5,.54-.64-.5-.71-.85-1.76-.54-3.1,.06-.25,.18-.48,.34-.67-.37-.41-.49-.98-.35-1.7,.09-.46,.38-.84,.78-1.05v-.28c0-.29,.08-.56,.23-.8l-.07-.14c-.37-.74-.07-1.63,.66-2.01,.29-.15,.57-.29,.86-.44l.73-8.8c.04-.53,.36-.97,.8-1.2v-2.69c0-.17,.03-.34,.09-.5,.48-1.36,1.32-2.65,2.13-3.91,.45-.69,.87-1.34,1.17-1.92,.26-.49,.77-.8,1.33-.8,0,0,.04,0,.06,0,2.97,0,6.11-.25,9.45-.51,6.78-.53,13.78-1.08,19.64,.51h13.46c.77,0,1.41,.58,1.49,1.33,.48,.15,1.02,.18,2.13,.25l.49,.03c.63,.04,1.16,.46,1.34,1.06l2.42,8.04c.04,.14,.06,.29,.06,.43v1.88c.48,.25,.8,.75,.8,1.33v1.09c.48,.25,.8,.75,.8,1.33v3.5c.44,.23,.76,.68,.8,1.21,.27,3.43,.53,6.86,.79,10.29,.38,1.28,2.66,9.28,1.56,12.78-.03,.09-.06,.17-.11,.26l-.49,.93c-1.98,3.71-3.96,7.43-5.94,11.14-.26,.49-.77,.8-1.32,.8h-.07c-.45,.61-.56,.9-.9,2.12-.16,.58-.66,1.01-1.26,1.08l-.56,.07c-.73,.09-1.06,.12-1.35,.22-.04,.38-.23,.73-.52,.98-.34,.28-.78,.41-1.22,.34l-3.39-.56c-.27,.36-.7,.58-1.19,.58h-5.9c-.25,.48-.75,.81-1.33,.81h-.8c-.5,0-.94-.24-1.21-.61-.28,.38-.73,.61-1.21,.61h-9.65c-.52,0-.98-.27-1.25-.67-.02,.02-.05,.03-.08,.05-.36,.24-.94,.63-1.73,.63Zm4.39-3.01h7.62c.57-.49,1.55-.93,3.23-.8,.1,0,.19,.02,.29,.05,.13-.04,.26-.05,.4-.05h5.9c.09-.17,.21-.32,.36-.45,.34-.29,.78-.41,1.21-.34l3.39,.56c.13-.17,.3-.31,.49-.41,1.12-.59,1.59-.7,2.76-.85,.38-1.18,.71-1.65,1.58-2.77,.26-.34,.66-.54,1.08-.57,1.84-3.45,3.68-6.9,5.52-10.35l.42-.79c.54-2.07-.65-7.78-1.65-11.05-.03-.11-.05-.21-.06-.32-.23-3.06-.47-6.13-.7-9.19-.53-.23-.9-.76-.9-1.38v-3.5c-.48-.25-.8-.75-.8-1.33v-1.09c-.48-.25-.8-.75-.8-1.33v-2.99l-2.05-6.83c-1.42-.09-2.33-.22-3.61-.92-.26-.14-.47-.36-.6-.62h-12.34c-.14,0-.27-.02-.41-.06-5.39-1.51-12.21-.98-18.8-.46-2.96,.23-6.01,.47-8.87,.51-.27,.44-.56,.89-.86,1.35-.66,1.03-1.35,2.09-1.74,3.05v3.75c0,.62-.38,1.15-.91,1.38l-.7,8.39c-.04,.52-.36,.99-.83,1.22-.09,.04-.17,.09-.26,.13,.04,.09,.09,.17,.13,.26,.24,.46,.21,1.02-.06,1.46-.14,.23-.35,.42-.58,.54v.28c0,.13-.02,.26-.05,.38,.02,.09,.03,.19,.04,.29,.09,1.11-.15,1.98-.73,2.57-.03,.03-.07,.07-.1,.1,.05,.13,.12,.21,.18,.25,.35,.22,.54,.53,.62,.93,.19,.93-.03,1.69-.42,2.26l.3,.59c.17,.34,.2,.72,.11,1.08,.04,.13,.05,.26,.05,.4v12.06c0,.11-.01,.22-.04,.32,0,.03-.01,.05-.02,.08,.04,.13,.05,.26,.05,.4v.28c.48,.25,.8,.75,.8,1.33v1.08c.13,.07,.26,.16,.36,.27,.09,.09,.16,.16,.22,.23,.2,.04,.44,.11,.76,.2,.58,.18,1,.69,1.06,1.29,.13,1.38,.4,2.07,.71,2.87,.26,.67,.54,1.41,.75,2.53,1.12,.36,1.59,.69,2.51,1.38l.26,.2c.18,.14,.33,.31,.43,.51h.28c.58,0,1.08,.33,1.33,.8h9.13c.33,0,.64,.11,.89,.29,.61-.3,1.48-.54,2.68-.25,.43,.11,.78,.39,.97,.76Z"/>
        </g>
      </g>
    </g>
  </g>
</svg>