<?xml version="1.0" encoding="UTF-8"?>
<svg id="_レイヤー_1" data-name="レイヤー 1" xmlns="http://www.w3.org/2000/svg" version="1.1" viewBox="0 0 846.8 390.6">
  <defs>
    <style>
      .cls-1 {
        fill: #231815;
      }

      .cls-1, .cls-2, .cls-3, .cls-4, .cls-5, .cls-6, .cls-7, .cls-8, .cls-9, .cls-10, .cls-11, .cls-12, .cls-13, .cls-14, .cls-15, .cls-16, .cls-17, .cls-18, .cls-19 {
        stroke-width: 0px;
      }

      .cls-2 {
        fill: #2e2e2e;
      }

      .cls-3 {
        fill: #7eacc4;
      }

      .cls-4 {
        fill: #f2eacf;
      }

      .cls-20 {
        stroke-width: 4px;
      }

      .cls-20, .cls-21 {
        fill: none;
        stroke: #231815;
        stroke-linecap: round;
        stroke-linejoin: round;
      }

      .cls-5 {
        fill: #f9a703;
      }

      .cls-6 {
        fill: #faa2ad;
      }

      .cls-7 {
        fill: #954828;
      }

      .cls-8 {
        fill: #a14c16;
      }

      .cls-9 {
        fill: #fcefbb;
      }

      .cls-10 {
        fill: #a04e18;
      }

      .cls-11 {
        fill: #9f4913;
      }

      .cls-12 {
        fill: #ffdc46;
      }

      .cls-13 {
        fill: #f03c3c;
      }

      .cls-21 {
        stroke-width: 3px;
      }

      .cls-14 {
        fill: #9f4e18;
      }

      .cls-15 {
        fill: #a65823;
      }

      .cls-16 {
        fill: #f19ba4;
      }

      .cls-17 {
        fill: #fbeebb;
      }

      .cls-18 {
        fill: #fff;
      }

      .cls-19 {
        fill: #ffef7f;
      }
    </style>
  </defs>
  <g>
    <g>
      <path class="cls-19" d="M668.4,371.4c-3,.5-5.9,1.2-9,1.7s-6.1,0-9.1.5-5.8,2.2-8.8,2.7-6,.5-9.1.9-6,.7-9,1.1-5.9,2-8.9,2.4-6.3-1.4-9.3-1.1-5.8,2.5-8.9,2.8-6.1.4-9.1.6-6,1.1-9,1.4-6.2-1.2-9.2-.9-6,1.2-9,1.4-6,.5-9.1.7-6.1-.8-9.2-.6-5.9,2.2-9,2.4-6.1-.3-9.1-.1-6.1-.3-9.1-.1-6,1-9.1,1.2-6.1-.2-9.1-.1-6,.7-9.1.8-6.1-.4-9.1-.3-6.1.3-9.1.4-6.1.8-9.1.9-6.1-.3-9.1-.2-6.1.5-9.1.5-6.1.3-9.1.3c-3,0-6.1-.8-9.1-.8s-6,1.1-9,1.1-6,0-9,0-6-2-8.9-2-6,1.4-9,1.4-6-.5-9-.6-6-.2-9-.3-6,.5-9,.4-5.9-2-8.9-2.1-6,.9-9,.7-6-.6-8.9-.7-5.9-1.2-8.9-1.3-6,.3-9,.2-5.9-1.3-8.9-1.5-6,.1-9,0-6.1.9-9,.7-6-.4-8.9-.7-5.9-1.2-8.9-1.5-6,.3-9,0-5.9-.9-8.9-1.1-5.9-1.3-8.8-1.6-5.9-1.6-8.8-1.9-6,.2-9-.2-5.9-1.2-8.8-1.6-5.9-1.4-8.8-1.8-6.3,1.5-9.2,1-5.7-2.5-8.6-2.9-6.1.2-9-.3-5.8-1.5-8.8-2-6.1,0-9-.6-5.6-2.9-8.5-3.4-5.9-1.2-8.8-1.8-6.1-.2-9-.8-6.1-.3-9-.9-5.7-2.3-8.5-2.9-5.9-1.2-8.8-1.9-5.5-2.7-8.4-3.5-5.8-1.5-8.6-2.3-6.3,0-9.1-.9-5.8-1.8-8.6-2.7-5.3-3.2-8-4.2-5.9-1.3-8.7-2.4-6.1-1.1-8.8-2.3-5.5-2.6-8.1-3.9-5.3-3-7.9-4.3-5.5-2.7-7.9-4.2-4.8-3.8-7.1-5.5-4.3-4.4-6.3-6.3-4.7-3.9-6.4-6.1-3.4-5-4.4-7.6-3.2-5.6-3.2-8.5,1.6-5.8,2.7-8.6,1.5-5.9,3.4-8.5,4.5-3.8,6.8-6,4.8-3.2,7.4-5,4-4.5,6.6-6.1,5.5-2.2,8.2-3.6,4.9-3.3,7.7-4.6,6.2-.5,9-1.7,4.9-3.4,7.8-4.5,5.9-.9,8.8-1.9,5.4-2.3,8.3-3.3,5.1-3.2,8-4.1,5.6-1.9,8.5-2.7,6-.6,8.9-1.3,5.8-.9,8.8-1.6,5.5-2.5,8.4-3.2,5.8-1.1,8.7-1.8,5.7-1.5,8.7-2.1,5.8-1.3,8.7-1.8,6-.1,8.9-.7,5.7-1.7,8.6-2.3,5.7-1.8,8.6-2.3,5.8-1,8.8-1.5,5.9-.4,8.9-.9,4.5-.9,6.7-1.2,6.3,1.1,9.3.7,6-.6,9-1,5.7-3.2,8.7-3.6,6.1.3,9.2,0,6-.7,9-1,6-.9,9-1.2,6.2.9,9.2.6,5.9-2.1,8.9-2.4,6.1.3,9.2,0,5.9-1.7,9-1.9,6.2,1.2,9.2,1,6-1.1,9-1.3,6-1.2,9-1.4,6.1.7,9.2.5,6-1.1,9.1-1.2,6.1,1.3,9.2,1.1,6-1.1,9.1-1.2,6.1.1,9.1,0,6-1.7,9.1-1.8,6.1.5,9.1.4,6.1.5,9.1.5,6.1-.5,9.1-.5,6.1-.3,9.1-.3,6.1,0,9.1,0,6.1-1,9.1-1,6,2,9,2,6-.6,9-.5,6,.3,9,.3,6-.4,9-.3,6-1.3,9-1.2,6,.3,9,.4,5.9,1.4,8.9,1.5,5.9,1.1,8.9,1.2,6-.8,9-.6,6-.5,9-.3,6,.7,8.9.9,6-.6,9-.4,5.9,2.3,8.8,2.5,6-.2,9,0,6-.3,9,0,5.9,1.5,8.9,1.8,6,0,9,.2,6.1-.8,9.1-.6,6,.8,8.9,1.1,5.8,2.1,8.8,2.4,6.1-.4,9,0,5.9,1.5,8.8,1.9,6.1-.5,9-.1,5.9,1.1,8.8,1.5,5.7,2.6,8.6,3,6.1-.5,9.1,0,5.7,2.2,8.7,2.6,6,.3,8.9.8,6.1-.2,9,.3,5.9,1.2,8.8,1.7,5.7,1.9,8.6,2.5,6,.5,8.9,1.1,5.6,2.7,8.4,3.4,6.3-.8,9.2,0,5.3,3.6,8.2,4.3,5.9,1.1,8.8,1.9,5.9,1.1,8.8,1.9,5.6,2.3,8.4,3.1c2.9.9,6.3,0,9.1.9s5.1,3.9,7.8,4.9,5.8,1.7,8.5,2.7,5.5,2.4,8.2,3.5,5.7,2.1,8.3,3.3,5.6,2.4,8.1,3.7,5.5,2.6,7.9,4.1,5.8,2.4,8.1,4.1,3.8,5.1,5.8,7,5.5,3.3,7.2,5.5,2,5.9,3,8.5,3.1,5.4,3.1,8.3-1,5.9-2.1,8.7-1.6,5.9-3.5,8.5-4.2,4.2-6.6,6.3-4.3,4-6.9,5.9-5.4,2.5-8.1,4.1-5.5,2.1-8.3,3.6-4.3,4.5-7.1,5.8-5.8,1.6-8.6,2.8-5.2,3.1-8,4.1-6.1.6-9,1.6-5.5,2.3-8.4,3.2-5.4,2.5-8.4,3.4-5.7,1.7-8.6,2.5-6.1.2-9,1-5.3,3.2-8.3,3.9-6.1.3-9,1-5.5,2.5-8.5,3.2"/>
      <path class="cls-21" d="M668.4,371.4c-3,.5-5.9,1.2-9,1.7s-6.1,0-9.1.5-5.8,2.2-8.8,2.7-6,.5-9.1.9-6,.7-9,1.1-5.9,2-8.9,2.4-6.3-1.4-9.3-1.1-5.8,2.5-8.9,2.8-6.1.4-9.1.6-6,1.1-9,1.4-6.2-1.2-9.2-.9-6,1.2-9,1.4-6,.5-9.1.7-6.1-.8-9.2-.6-5.9,2.2-9,2.4-6.1-.3-9.1-.1-6.1-.3-9.1-.1-6,1-9.1,1.2-6.1-.2-9.1-.1-6,.7-9.1.8-6.1-.4-9.1-.3-6.1.3-9.1.4-6.1.8-9.1.9-6.1-.3-9.1-.2-6.1.5-9.1.5-6.1.3-9.1.3c-3,0-6.1-.8-9.1-.8s-6,1.1-9,1.1-6,0-9,0-6-2-8.9-2-6,1.4-9,1.4-6-.5-9-.6-6-.2-9-.3-6,.5-9,.4-5.9-2-8.9-2.1-6,.9-9,.7-6-.6-8.9-.7-5.9-1.2-8.9-1.3-6,.3-9,.2-5.9-1.3-8.9-1.5-6,.1-9,0-6.1.9-9,.7-6-.4-8.9-.7-5.9-1.2-8.9-1.5-6,.3-9,0-5.9-.9-8.9-1.1-5.9-1.3-8.8-1.6-5.9-1.6-8.8-1.9-6,.2-9-.2-5.9-1.2-8.8-1.6-5.9-1.4-8.8-1.8-6.3,1.5-9.2,1-5.7-2.5-8.6-2.9-6.1.2-9-.3-5.8-1.5-8.8-2-6.1,0-9-.6-5.6-2.9-8.5-3.4-5.9-1.2-8.8-1.8-6.1-.2-9-.8-6.1-.3-9-.9-5.7-2.3-8.5-2.9-5.9-1.2-8.8-1.9-5.5-2.7-8.4-3.5-5.8-1.5-8.6-2.3-6.3,0-9.1-.9-5.8-1.8-8.6-2.7-5.3-3.2-8-4.2-5.9-1.3-8.7-2.4-6.1-1.1-8.8-2.3-5.5-2.6-8.1-3.9-5.3-3-7.9-4.3-5.5-2.7-7.9-4.2-4.8-3.8-7.1-5.5-4.3-4.4-6.3-6.3-4.7-3.9-6.4-6.1-3.4-5-4.4-7.6-3.2-5.6-3.2-8.5,1.6-5.8,2.7-8.6,1.5-5.9,3.4-8.5,4.5-3.8,6.8-6,4.8-3.2,7.4-5,4-4.5,6.6-6.1,5.5-2.2,8.2-3.6,4.9-3.3,7.7-4.6,6.2-.5,9-1.7,4.9-3.4,7.8-4.5,5.9-.9,8.8-1.9,5.4-2.3,8.3-3.3,5.1-3.2,8-4.1,5.6-1.9,8.5-2.7,6-.6,8.9-1.3,5.8-.9,8.8-1.6,5.5-2.5,8.4-3.2,5.8-1.1,8.7-1.8,5.7-1.5,8.7-2.1,5.8-1.3,8.7-1.8,6-.1,8.9-.7,5.7-1.7,8.6-2.3,5.7-1.8,8.6-2.3,5.8-1,8.8-1.5,5.9-.4,8.9-.9,4.5-.9,6.7-1.2,6.3,1.1,9.3.7,6-.6,9-1,5.7-3.2,8.7-3.6,6.1.3,9.2,0,6-.7,9-1,6-.9,9-1.2,6.2.9,9.2.6,5.9-2.1,8.9-2.4,6.1.3,9.2,0,5.9-1.7,9-1.9,6.2,1.2,9.2,1,6-1.1,9-1.3,6-1.2,9-1.4,6.1.7,9.2.5,6-1.1,9.1-1.2,6.1,1.3,9.2,1.1,6-1.1,9.1-1.2,6.1.1,9.1,0,6-1.7,9.1-1.8,6.1.5,9.1.4,6.1.5,9.1.5,6.1-.5,9.1-.5,6.1-.3,9.1-.3,6.1,0,9.1,0,6.1-1,9.1-1,6,2,9,2,6-.6,9-.5,6,.3,9,.3,6-.4,9-.3,6-1.3,9-1.2,6,.3,9,.4,5.9,1.4,8.9,1.5,5.9,1.1,8.9,1.2,6-.8,9-.6,6-.5,9-.3,6,.7,8.9.9,6-.6,9-.4,5.9,2.3,8.8,2.5,6-.2,9,0,6-.3,9,0,5.9,1.5,8.9,1.8,6,0,9,.2,6.1-.8,9.1-.6,6,.8,8.9,1.1,5.8,2.1,8.8,2.4,6.1-.4,9,0,5.9,1.5,8.8,1.9,6.1-.5,9-.1,5.9,1.1,8.8,1.5,5.7,2.6,8.6,3,6.1-.5,9.1,0,5.7,2.2,8.7,2.6,6,.3,8.9.8,6.1-.2,9,.3,5.9,1.2,8.8,1.7,5.7,1.9,8.6,2.5,6,.5,8.9,1.1,5.6,2.7,8.4,3.4,6.3-.8,9.2,0,5.3,3.6,8.2,4.3,5.9,1.1,8.8,1.9,5.9,1.1,8.8,1.9,5.6,2.3,8.4,3.1c2.9.9,6.3,0,9.1.9s5.1,3.9,7.8,4.9,5.8,1.7,8.5,2.7,5.5,2.4,8.2,3.5,5.7,2.1,8.3,3.3,5.6,2.4,8.1,3.7,5.5,2.6,7.9,4.1,5.8,2.4,8.1,4.1,3.8,5.1,5.8,7,5.5,3.3,7.2,5.5,2,5.9,3,8.5,3.1,5.4,3.1,8.3-1,5.9-2.1,8.7-1.6,5.9-3.5,8.5-4.2,4.2-6.6,6.3-4.3,4-6.9,5.9-5.4,2.5-8.1,4.1-5.5,2.1-8.3,3.6-4.3,4.5-7.1,5.8-5.8,1.6-8.6,2.8-5.2,3.1-8,4.1-6.1.6-9,1.6-5.5,2.3-8.4,3.2-5.4,2.5-8.4,3.4-5.7,1.7-8.6,2.5-6.1.2-9,1-5.3,3.2-8.3,3.9-6.1.3-9,1-5.5,2.5-8.5,3.2"/>
    </g>
    <g>
      <polyline class="cls-12" points="232.8 309.8 235.3 308.4 235.3 307 236.1 307 237.8 304.2 237 300.8 232.8 300.1 231.1 302.8 230.2 302.8 230.2 304.2 226.4 308.4 226 314 232.8 309.8"/>
      <polyline class="cls-12" points="207.5 300.1 208.6 306 209.2 311.9 210 312.6 215.1 311.9 215.1 310.5 216.8 309.8 215.9 308.4 216.8 304.9 215.9 304.9 215.9 299.4 215.1 299.4 215.1 298.7 207.5 300.1"/>
      <polyline class="cls-12" points="175.2 304.5 178.5 314 179.2 314.4 183 313.3 182.8 312.2 184 311.4 183.1 310.4 183.2 307.5 182.5 307.6 181.6 303.1 181 303.2 180.8 302.6 175.2 304.5"/>
      <polyline class="cls-12" points="195.7 297.3 194 296.6 189.8 297.3 190.7 307 193.2 314 198.2 313.3 198.1 305.1 195.7 297.3"/>
    </g>
    <g>
      <polyline class="cls-12" points="643.2 311.8 640.7 310.4 640.7 309 639.9 309 638.2 306.2 639 302.8 643.2 302.1 644.9 304.8 645.8 304.8 645.8 306.2 649.7 310.4 650 316 643.2 311.8"/>
      <polyline class="cls-12" points="668.5 302.1 667.5 308 666.8 313.9 666 314.6 660.9 313.9 660.9 312.5 659.3 311.8 660.1 310.4 659.3 306.9 660.1 306.9 660.1 301.4 660.9 301.4 660.9 300.7 668.5 302.1"/>
      <polyline class="cls-12" points="700.8 306.5 697.6 316 696.8 316.4 693 315.3 693.2 314.2 692 313.4 692.9 312.4 692.8 309.5 693.5 309.6 694.4 305.1 695.1 305.2 695.2 304.6 700.8 306.5"/>
      <polyline class="cls-12" points="680.3 299.3 682 298.6 686.2 299.3 685.4 309 682.8 316 677.8 315.3 677.9 307.1 680.3 299.3"/>
    </g>
    <g>
      <polyline class="cls-12" points="565.6 239.8 564.7 245.7 563.3 251.6 563.9 252.5 568.9 253.5 569.3 252.2 571.1 252.1 570.8 250.5 572.7 247.5 571.9 247.2 573.8 242 573 241.7 573.2 241 565.6 239.8"/>
      <polyline class="cls-12" points="534.2 242.5 537.5 252 538.2 252.4 542 251.3 541.8 250.2 543 249.4 542.1 248.4 542.2 245.5 541.5 245.6 540.6 241.1 540 241.2 539.8 240.6 534.2 242.5"/>
      <polyline class="cls-12" points="554.7 235.3 553 234.6 548.8 235.3 549.7 245 552.2 252 557.2 251.3 557.1 243.1 554.7 235.3"/>
    </g>
    <g>
      <polyline class="cls-12" points="365.4 343.7 367.7 353 367.1 353.7 362.1 354.5 361.7 353.5 359.8 353.4 360.2 352.2 358.2 349.8 359 349.6 357.2 345.4 358 345.2 357.8 344.7 365.4 343.7"/>
      <polyline class="cls-12" points="396.8 345.9 393.5 353.3 392.8 353.7 388.9 352.8 389.2 351.9 388 351.3 388.9 350.5 388.8 348.2 389.5 348.3 390.4 344.7 391 344.8 391.1 344.3 396.8 345.9"/>
      <polyline class="cls-12" points="376.3 340.1 377.9 339.6 382.2 340.1 381.3 347.8 378.8 353.3 373.7 352.8 373.9 346.3 376.3 340.1"/>
    </g>
  </g>
  <g>
    <path class="cls-1" d="M472.7,339.5c-11.7-3.2-14.5-14.3-10.5-23.3,2-4.4,4-8.7,7-12.6-2.4-1.5-4.1-.2-5.8.8-7.3,4.3-14.5,8.9-22.6,11.8-3.8,1.3-7.6,2-11.5,2.9-2.7.6-5.3.2-7.9-1-6-2.6-12-4.2-18.8-3.7-5.5.4-10.5-2.5-15.2-5-6-3.3-12.5-5.8-16.5-11.7-.9.5-1.6.7-2,1.1-8.5,8.1-19,8.8-29.9,8.1-1.3,0-2.5,0-3.8-.3-1.9-.3-3.2,0-4.1,1.9-1.9,4.2-5.9,5.2-9.9,5.6-9.9,1.1-19.6.3-28.4-4.9-1.3-.8-2.3-1.1-3.9-.6-3.5,1.1-7.3,1.4-11,2.4-2.1.5-4.3,1.5-5.9-.3-2-2.3-4.7-3.9-5.5-7.4-1.3-6.4,2.1-10.5,6.4-13.8,1.9-1.5,2.3-2.3,1.7-4.4-.5-2-.5-4.1-.5-6.2,0-3.7.9-7.4-3.7-9.6-2.1-1-2.7-4.1-3.1-6.6-1.1-7.5-2.5-14.9,3.5-21.3,2.5-2.6,2.1-3.9-.8-6-2.5-1.9-5.1-3.7-7.2-6-1.9-2.1-3.5-4.3-6.8-2.1-.7.5-1.6.2-2.2-.5-1-1.1,1.8-3.1,2.2-4,.7-1.8.4-7.2-3.7-7.2-1.7,0-6.3.9-7.9.8-.5,0-1.2-.6-1.3-1-.1-.5.3-1.2.6-1.6,1.5-1.6,3.5-1.1,5.3-1.4,1.7-.3,3.9-.9,2.9-2.9-1-1.9,1.5-5.4-2.8-6-2.7-.4-5.3-1.1-8.1-.9-1,0-2.2-.1-2.2-1.6,0-1.1.8-2,1.9-2.1,2.5-.1,5.1-.4,7.5,0,2.7.4,3.3-1.2,3.8-3.1.3-1.2.3-2.5.4-3.7.6-4.7,2.5-9,6.1-12,5.8-4.7,11.4-9.9,18.6-12.6,2.5-.9,3.3-2.4,3-4.7-.3-3.5.7-6.5,2.3-9.5,1.8-3.3,2.2-7.1,2.8-10.8,1-5.5,4.4-7.7,9.3-6.8,2.2.4,3.1,1.9,4.3,3.4,4.2,5.2,7.6,10.9,10.4,17,1,2.2,2.6,3.1,3.2,3,1.1-.2,8.5,0,9.4-.2s1.2-2.1,4.1-5.6c3.2-3.8,6.6-7.6,10-11.3,2.6-2.9,5.6-4.9,9.5-5.7,4.3-.9,6.2,0,7.6,4.1,1.6,5.2,2.3,10.6,2.5,16,0,2.9.6,4.7,3.6,5.5,2,.5,3.3,2.5,5.8,2.8,3-5.7,4.5-11.9,5.6-18.2.8-4.3,2.7-7.9,5.7-10.8,2.1-2,3.6-4,3.9-6.8.4-3.7,2.2-6.6,4.3-9.5,5.1-7.2,8.7-15.2,12.7-22.9,3.8-7.4,10.3-10.9,17.5-13,3.1-.9,6.9.6,10.2,2.1,5.4,2.4,11.1,2.9,17.5,4.2-.8-5.7-1.2-10.8-2.4-15.7-2.7-11.4-1.4-22.3,3.8-32.8,2.7-5.6,5.3-11.3,10.4-15.4,2-1.6,2.9-4,3.8-6.4,1.3-3.2,3.6-5.4,6.8-7,5-2.5,10-5.1,14.8-8.2,4-2.6,8.9-3.8,13.8-3,6.4,1,12.7,2.4,18.5,5.1,2.9,1.3,5.5,3.1,7.4,5.7,4.1,5.3,7.3,11.3,9.7,17.4,2.8,7.3,1.4,14.6-2.9,21.3-.7,1-1.4,2.1-1.8,3.3-3.6,11.2-11.7,18.1-21.2,24.5-7.6,5.1-15.3,10.1-22.7,15.5-2.5,1.8-2.4,3.3.5,4.1,5.1,1.3,9.8,3.4,14,6.5,2,1.4,3.8,1.4,5.2-1,1.9-3.4,4.2-6.6,5.6-10.4,2.7-7,5.8-13.8,13.3-17.5,3-1.4,5.1-4.4,6.7-7.3,3.6-6.3,9.4-10,15.8-12.8,4.6-2.1,8.9-4.5,13.1-7.2,9-5.9,24.5-7.3,33.6-3.5,5.6,2.3,9,6.7,12.1,11.4,5.3,8.2,6.5,17.4,5.8,27-.3,3.7-2.3,6.7-4.7,9.3-4.7,4.8-9,9.9-13.6,14.8-4.1,4.5-10,6.8-15.9,8.1-10.9,2.6-20.7,8.1-31.9,11.1,3.4,5,8.1,6.6,12.9,7.9,1,.3,2.1,0,3.1.4,10.3,3.6,17.5,11,11.8,24.3-3.1,7.2-6.3,14.4-13,19.5-4.3,3.2-7.4,7.8-9.6,12.9-1.2,2.8-3.2,5.4-4.9,8-3.7,5.8-7.8,11.2-10.1,17.9-1.9,5.5-5.2,10.4-8.9,15-4.2,5.2-7.5,10.9-8,18.1,1.3-.3,2.5-.3,3.6-.8,9.1-4.4,17.9-1.9,26.8.7,2.1.6,3.4,2.3,4.3,4.3,2.8,5.8,2.6,11.8,1,17.7-2,7.3-5,14.1-10.2,19.8-1.1,1.2-2.4,2.4-2.9,4.1,2,1,4.1.6,6,0,3-.9,5.6-.2,8.6.1,6.6.8,8.6,5.6,9.9,10.5,1.4,5.4-.7,9.9-5.6,13.5-6.9,5-13.9,8.7-22.6,9.7-5.6.6-10.8.2-16-1.5-3-.9-5.3-1.4-7.1,2.2-1.4,2.8-4.4,4.5-7.6,5.2-4.4,1.1-8.5,3.7-13.2,3.8-.2,0-.4.6-.6.9h-7.6c-2.4-1.6-5.3.2-7.8-1.1Z"/>
    <path class="cls-2" d="M472.7,339.5c2.6.4,5.5-1.5,7.8,1.1h-7.6c-.2-.3-.3-.7-.3-1.1Z"/>
    <path class="cls-16" d="M513.2,258.1c3.6-1.2,6.7-2.1,9.8-3.3,6.2-2.5,11.9,0,17.6,1.7,2.6.8,2.7,3.4,2.8,5.7.4,9-2.5,16.8-8,23.7-2.7,3.4-5.5,6.8-9.1,9.4-.8.6-1.6,1.3-2.2,2.2-2.1,2.9-1,5.8,2.5,6.6,3.3.8,6.7.3,9.9-.4,3.1-.7,6.2-.7,9.3-1.1,1.7-.2,3.1.4,4.6,1.5,5.3,4,5.3,7.4-.2,11-1.9,1.3-3.6,2.8-5.6,4-7.8,4.8-16.3,4.6-24.9,3.5-2.7-.4-4.6-1.4-4.4-5.2.3-4.2-2.7-6.9-6.6-8-1.8-.5-3.6-.8-5.3-2.2,4.8-5.3,9-11,13.1-16.8,4.3-6,5.4-13,6.5-19.9.7-4.9-1.8-8.3-6.3-10.4-1.1-.5-2.2-1.1-3.7-1.9Z"/>
    <path class="cls-9" d="M298.1,256.4c-2.9,7.7-.3,14.9.4,22.2.2,1.4.5,2.9.8,4.3.5,2.4-.3,4-2.8,4.7-2.2.7-4.1,2.1-5.7,3.8-2.4,2.6-2.8,4.9-2,10.8-1.9,0-4.7,2.4-4.5-2.2,0-1.4-.7-2.4-2.2-2.5-1.3-.1-2.4.3-3.3,1.4-.8,1-1.1,2.2-1.3,3.5-.2,1.6-1.2,2.1-2.6,2-1.5-.1-1.9-1.3-2.1-2.6-.8-5,0-6.2,5.1-6.7,1-.1,2.1-.2,3-.6,2.2-.9,3.7-2.5,2-4.8-1.7-2.4-1.9-5.1-2.3-7.7-1.1-7.1-.6-13.6,5.8-18.6,3.5-2.7,5.9-6.9,11.6-7Z"/>
    <path class="cls-17" d="M276.2,265.3c-4.8-6.8-4.6-15,.4-20.6,1.2-1.4,2.3-2.9,3.2-4.6,3.3-6.6,11-10.5,18.1-9.3,2.1.3,4.2,1,4.3,3.7,0,1.9-3.4,4.2-5.6,3.9-5.9-.7-7.3.6-6.3,6.3.6,3.2.2,5.8-2.2,7.9-4.4,3.8-7.6,8.7-11.8,12.7Z"/>
    <path class="cls-7" d="M492.9,111.9c-.6.4-1.1.8-1.5,1.2-6.5,5.3-6.8,5.4-14.3,1.3-1.4-.8-2.7-2-4.2-2.6-1.5-.6-3.3.3-4.8-.7.2-2.3,1.5-3.9,2.7-5.6,1-1.5,1.8-3.2,2.7-4.8,5.3,5.8,14.6,4,19.4,11.2Z"/>
    <path class="cls-10" d="M355.9,271.7c-1.1.3-2.2.8-3.4.9-1.3,0-2.3-.9-2.7-2.1-.5-1.3,0-2.5,1.2-3.2,1.4-.8,2.6-1.7,4.3-2.1,2-.5,5.1-1.2,6.5-3.2,2.4,2.8,1.8,4.9,2.7,7.1-2.4,2.5-5.1,3.8-8.6,2.7Z"/>
    <path class="cls-15" d="M367,278.9c-.9-.3-1.6-1.5-2.8-.9-1.1.5-2.2,1.2-3.3,1.7-1.9.8-4.3,1.8-5.8-.1-2-2.5.5-4,2.1-5.5,2-2,4.1-3.9,7.4-2.7,0,2.8,2.7,4.7,2.5,7.6Z"/>
    <path class="cls-6" d="M593.4,57.1c-2.7-4-6.3-7.2-11.1-7.5-7.9-.5-16-.9-23,3.9-4.9,3.3-9.9,6.2-15.4,8.4-5.1,2.1-9.2,5.5-12.3,10.3-2.5,3.9-5.6,7.5-9.6,9.8-3.3,1.9-5.4,4.6-7,7.8-1.4,2.8-2.6,5.7-3.7,8.6-1.7,4.4-4.2,8.7-7.6,11.3-4.8,3.6-9.5,7.3-13.8,11.5-1.7,1.6-3.2,2-5.6,1.1-6.3-2.2-12.2-6.2-19.4-5.6-2.4.2-3.1-1.7-2.4-4,.9-3,2.3-5.8,4-8.5,1.3-2.1,2.9-4,1.7-6.8-.8-1.7.5-3.3,1.8-4.3,1.6-1.3,3.4-2.5,5.1-3.6,5.6-3.6,11.4-7,16.7-11,2.8-2.1,5.4-4.7,8.6-6.2,12.8-6.2,17.1-18.7,22.7-30.3.3-.5.1-1.2.3-1.9,1.4-5.8-1.6-10.4-3.7-15.4-4.2-10.1-12.1-14.4-22.2-16.1-.8-.1-1.8,0-2.5-.3-4.1-1.8-8.1-.6-11.3,1.5-4.9,3.2-10.3,5.5-15.3,8.5-2.2,1.2-3.5,2.8-4.4,5-1.2,2.9-2.7,5.7-5.1,7.8-6.4,5.4-9,13-11.5,20.4-1.8,5.3-2.8,11-1.3,16.7,1.8,6.5,1.9,13.2,3.3,19.7,1,4.8-2.5,9.2-7.2,8.3-6.1-1.1-12.4-1.8-18.2-4.2-8.7-3.5-15.3-1.1-20,7.1-4.4,7.6-7.8,15.7-12.9,22.9-2.1,3-3.8,6.1-4.3,9.6-.4,3.2-2,5.4-4.3,7.4-2.9,2.6-4.6,5.7-5.2,9.7-.8,5.6-2,11.2-4.8,16.1-3,5.3-1.2,9.4,1.9,13.6.9,1.2,1.6,2.4,2.6,3.5,1.8,2,1,5.2,2.5,6.9,1.9,2.1,5.2.4,7.8,1.1.9.2,1.5.9,1.5,1.7,0,.9-.4,1.7-1.3,1.8-1.4.2-2.9.5-4.4.3-3.1-.4-3.2,1.9-3.8,3.8-.7,2.3.5,2.9,2.3,3.5,1.6.5,3.4,1.5,2.6,3.5-.9,2.1-2.7,1.4-4.3.7-.5-.2-1.2-.2-2-.4-1.2,3.1-2.4,6.1-2.9,9.5.9.2,1.5.4,2.1.4,9,.3,15.5,4,18.4,13.1,1.1,3.3,3.1,6.4,4.8,9.5.7,1.3,1.5,2.7,3.2,2.7,5.4,0,10.9.8,16.2-1.1,8.2-3,16.7-5.5,22.9-12.4,1.2-1.4,2.8-1.8,4.4-.3,1.5,1.4,1.5,3.1.5,4.5-1.1,1.5-2.4,3-3.9,4-10.6,7.5-22.2,11.9-35.4,12.7-8.1.5-12.5-3.1-15.6-9.8-1.5-3.2-3-6.4-4.4-9.7-1.4-3.1-3.5-5.3-6.9-5.7-4.6-.4-9.1-1.3-13.7-1.3-4.3,0-7.7,1.6-10.4,4.8-.9,1-2.9,2.1-1.9,3.5,1.2,1.7,2.4,1.1,3.3,0,.9-1.1,2.5-1.7,3.6-2.3,1.6-.9,3.2-1.1,4.6.3,1.8,1.8.4,3.4-.5,5-4.3,1.5-7.7,4-10.1,7.8-1.9,3.1-1.7,4.4,1.1,7.1,4.6-11.7,5.2-10.5,10.6-13.3,1.9,0,3.8,0,5.6,0,1.4.1,2.3,1,2.6,2.4.2,1.3-.5,2.6-1.6,3.1-1.1.6-2.4.6-3.6.9-3.4.9-5.5,2.9-5.7,6.5,5.6,1.1,11.2-1,14.3-5.4.8-1.2,1.4-2.7,3.2-2.5,2.1.2,2.8,1.6,2.9,3.4.1,1.6,1.3,2.5,2.3,3.6,4.7,5.2,11.5,6.5,17.5,9.1,2.9,1.3,6,1.9,9.2,1.1,3.1-.7,6.3-.5,9.3-1.2,4.4-1,9.5.1,13.3-2.8,4.3-3.3,9.5-5.4,13.4-9.2,1.6-1.6,3.9-3.3,6-.9,1.9,2.2.3,4.3-1.5,5.9-2.1,2-4.2,4.1-6.9,5.4-1.7.8-3.4,1.7-4.8,2.9-3.6,3.3-8,4.3-12.7,4.9-2.7.3-5.4.8-8.1,1.1-5.2.5-10.6,1.9-15.6.4-8.4-2.4-16.9-4.7-23.4-11.1-1.3-1.3-2.5-2-4.1,0-2.1,2.6-5.3,3.1-8.5,3.5-4,.5-4.4.9-2.4,4.3,2,3.5,2.8,7.4,3.6,11.2.4,1.8.6,3.8,1.4,5.4,2.1,4.2,2.3,8.5,1,12.8-.6,2-.3,3,1.1,4.3,6.6,5.7,13.5,11.1,22,13.9,2.2.7,4.4,1.5,6.7,1.2,6.3-.8,12,.8,17.6,3.3,2.1.9,4.2,2,6.6,1.4,6.5-1.6,13-3.2,18.8-6.6,3.7-2.2,7.2-4.9,10.7-7.4,3.3-2.4,8.3-2.3,12.5-3.6,2.2-.7,4.1-2,6.2-3,.9-.5,1.8-1.1,2.7-1.5,1.6-.6,3.5-1,4.6.7,1,1.5.5,3.1-.7,4.6-3.5,4.4-6.8,9-10.1,13.5-2.9,3.9-4.7,8.4-6.2,12.9-2.1,6.4,1.6,12.2,8.4,13.1,3.1.4,6.3.4,9.4.1,9.4-.9,18-3.4,22.4-13.2,1.7-3.7,2-5.8,0-8.1-2.2-2.6-4.9-1.8-7.5-1-2.5.8-4.6,2.6-7.5,2.9-1.1-4.3.8-7.2,3.1-10,2.9-3.6,6-7,8.9-10.5,5.5-6.9,10.6-13.9,11.7-23.1.6-5.1,0-5.9-5-7.6-11.3-3.8-22.4-.4-33.2,1.9-6.2,1.3-12.4,3.7-18.4,6.1-2.2.9-4.1,1.4-5.4-.9-1.4-2.5.6-3.9,2.5-4.9,1.4-.8,3-1.4,4.6-1.9,3.2-1,6.6-1.5,9.6-2.9,6-2.9,12.4-3.6,18.8-4.5,3.5-.5,7.2-.5,10.5-1.6,2.9-.9,6.8-1.8,7.1-5.7.7-8.3,4.1-15.3,9.1-21.6,3.4-4.3,6.6-8.8,8.3-13.9,2.5-7.3,6.9-13.3,11-19.6,1.8-2.8,3.7-5.6,5.1-8.6,2.6-5.6,6.3-10.4,11.1-14.2,6.7-5.3,8.9-12.9,11.7-20.2.9-2.3.2-4.4-1.4-6.4-2.7-3.4-6.3-4.5-10.3-5.4-8.1-1.9-15.3-5.1-18.7-13.8-2-5.1-1.7-6.7,3.7-7,4.5-.3,8.6-1.6,12.7-3.3,7.1-2.9,14.3-5.6,21.8-7.6,6.1-1.6,12.2-4.5,16-10.3,2.5-3.9,6.2-6.8,9.3-10.2,2.1-2.2,3.6-4.5,3.8-7.6.7-8.8-2-16.5-6.7-23.6Z"/>
    <path class="cls-17" d="M300.1,252.5c-.6-.5-1.1-.8-1.4-1.3-1.1-1.7-2.3-3.9-1-5.5,1-1.3,3.3-1.4,5.3-.3-.1,2.7-2.2,4.6-2.9,7.2Z"/>
    <path class="cls-11" d="M310.8,164.7c-2.8,0-4.2-2.4-6.1-4-1.4,4.4-2.4,8.7-.5,13.3,1.5,3.6,2.1,3.9,6.3,1.8,1.2-.4,1.4-1.3,1.4-2.4,0-2.9-.3-5.7-.3-8.6-.4-.2-.4-.2-.8,0Z"/>
    <path class="cls-4" d="M259.2,197.2c2.5,0,5,0,7.5,0,1.1,0,2,.2,2.3,1.4-3.1-1.3-6.8.6-9.8-1.4Z"/>
    <path class="cls-17" d="M358.4,199.7c3.6-1,7.3-1.1,11-.9,3.3.1,3.1-1.7,2.4-4.1-2.8.7-5.3,1.5-7.9,2-2.6.5-5.2,1.7-7.8,0,.4-2.5,2.3-3.3,4.4-3.7,3-.7,6.1-1.5,9.1-2.2,2.4-.5,3-1.5,1.7-3.9-1.6-3.2-4.2-5.6-5.6-9-2.4-6.2-7-10.1-13.4-12-4-1.2-4.9-2.4-3.7-6.3,1.5-5.1-.6-9.8-.9-14.7-.1-2-1.7-2.2-3.2-1.5-1.1.5-2.1,1.4-3,2.3-3.8,4.2-7.5,8.4-11.2,12.6-1.2,1.4-2.6,2.8-1.9,5,.8,2.6-.5,5.2.4,7.9.6,1.7,1,4-.9,5.1-2.1,1.2-3.4-10.4-4.9-11.2-.9-.3-1.7-.3-2.6,0-2.5,1.2.3,15.8-4.8,14.7-1.4-1.7-.7-3.5-.4-5.4.1-.9.1-1.7,0-2.6-.6-1.9-.5-4-1.1-5.9-.3-.5.3-1-.2-1.4-.4-.2-2.6-.3-2.9,0-1.9,2.5,1.6,8.8-2.3,9.2s-3.4-2.1-3.5-4.6.7-5.9-.5-8.6c-3.3-6.5-6.8-12.9-11.7-19-1.8,2.5-1.3,5-2,7.1-2.1,6.5-5.3,12.7-4.5,19.8.2,2.1-1.5,3.4-3.5,3.8-7.3,1.6-12.4,6.8-18.1,11-4.5,3.3-6.6,8-5.8,13.7,3.1,1.8,6.8-.7,9.8,1.4.9,2.7.5,4.6-3,4.4-1.7,0-3.3,0-5,0-2.2,0-2.8.9-2.5,3.1.3,2.2,1.2,3,3.3,2.4,2-.6,3.9-1.5,6.1-1.2,1.1.1,2.1.5,2.3,1.7.2,1.2-.5,2-1.5,2.4-3.1,1-6.2,1.9-9.3,2.8,2.8,4.8,2.8,4.8,7.1,3.2,2.5-.9,5.1-1.8,7.7-2.4,1.5-.4,3.1,0,3.5,1.8.4,1.8-.9,2.7-2.5,3-3,.6-5.9,1.4-8.9,3.4,2.8,2.6,5.4,5.1,8,7.4.9.8,2.5,1.6,3.3.4,3.6-4.8,9.3-5.1,14.2-7.1,2.9,0,6.1-.9,8.7,0s6,2.2,7.4,5.3c1.1,2.4,2.7,2,3.7.4,1.9-3.1,5-4.2,8-5.6,2.9,0,5.8,0,8.6-.1,3.1,1.7,5.6,4.1,7.4,7.3,2.1,3.9,5.7,5.5,10.3,6.4,0-1.3,0-2.1,0-2.9.9-10.6,7.7-18.2,18.2-19.8,1.9-.3,3.1-.8,3.6-2.7.8-2.7,2.4-5.2,2-8.5-3.8.2-7.6-1-11.1,1.1-.7.4-1.7.3-2.3-.4-.8-1-.4-2,.3-2.8.5-.6,1.2-1.2,1.8-1.8ZM312.3,219c-3.6,2.3-8,.8-11.6,2.8-.1-.4-.3-.6-.6-.8.3-1.1,0-2.3.2-3.5,4.4,3,9.6,3.1,11.6,0,2.9-4.4-1-6.2-3.5-8.6-2-1.9-4.2-4-1.7-7,1.9-2.2,4.6-3.2,7.4-2.1,3.1,1.3,4.1,4,3.3,7.3-.3,1.2-1.2,2.2-1.7,3.3-1.6,3.9.1,6.5,4.3,6.8,1.4.1,2.6-1.4,4.2-.3-3.8,2.3-8.3-.3-11.8,2Z"/>
    <path class="cls-9" d="M367,278.9c-1.5-3-3.7-1.7-5.9-1.1-7.8,1.9-5-2.6-3.2-3.8s4.2-2.4,6.7-2.6v-2.3c-2.9.2-6.1,1.4-7.5,1.9s-3.1,1.6-4.5.4-.7-1.9-.2-2.7,1.7-1.5,2.8-2.1c2.1-1.3,3.5-.9,7.2-4-.1-.4-1.1-4.1-1.3-4.4-2.6-2.4-5.6,2.5-8.3,3-2.5.5-4.8,2-7.4,1.3,2.4-3.4,10.7-4.6,12.7-8.4-3.7-2.4-9.9-4.6-10.6-9.2-2.2-2.6-5.3-.3-7.7-1.5-4.1-3-9-5-11.2-10.3-1.2-2.9-8.3-2.9-10.4-.5-.7.8-1.3,1.7-1.1,2.8,0,.6,0,1.3,1.2,1.5,6.4,1.2,7.1,2.2,7.2,8.7,0,5.4,3.1,8.8,8.5,9.7,1.4.2,2.9.2,4.3.6,4.2,1.1,4.5,2.3,2.4,6.7-1.3,0-2.5,0-3.8,0-10.8-.7-15.7-4.8-18.3-15.2-.2-.8-.3-1.6-1.3-2.3-2.1,1.4-5.5,0-7.1,2.8-3.3,5.8-6.6,11.8-6.2,18.7.3,5.2,1.2,10.3,2.5,15.4,1.9,7.1.7,9.2-6,11.9-5.2,1.3-7.7,5.5-3.6,8.8.6-1.8,1.2-3.2,2.1-4.3,1.4-1.8,3.4-2.2,5.4-.6,1.1.8.3,5.7-.6,8.5,1.7.5,3,1,4.5,1.4.3-3-.6-5.9.5-8.7.7-1.6,1.4-3.3,3.4-3,2,.3,2.5,1.9,2.4,3.8,0,1.7-.3,3.4,0,5,.3,1.6,1,3.1,3.2,3.2,2.6.1,4.1-1.8,6.1-2.7,1.8-.8.8-2.6.7-3.9-.2-5.2,2.2-9.2,5.5-12.8,1.1-1.1,2.4-1.8,3.9-.8,1.7,1.1,1.9,2.7.9,4.3-1.1,1.8-2.5,3.6-3.6,5.1.8,1.7,2,2.3,3.2,2.6,8.6,1.7,17.1,1.4,25.1-2.3,6.3-2.9,9.5-11.8,7.3-18.5Z"/>
    <path class="cls-1" d="M430.1,189.6c-7.6,5.7-16.9,2.6-20.2-3-1.5-2.5-2.1-4.9-1.3-7.7.4-1.6,1.1-2.9,2.8-2.9,1.8,0,2.5,1.5,2.4,3.1-.2,2.8.7,4.9,2.9,6.5,4.2,3.2,8.4,1.8,10.3-3.2,1.4-3.8,1.2-6.5-2.4-9.1-5.7-4.2-5.6-10.6-4.2-16.6,1.1-4.6,5.6-5.9,9.7-6.9,1.6-.4,3.3-.2,5-.2,6.6,0,10.7,2.8,12.4,8.4,1.9,6,.2,11.6-5.6,14.4-5.2,2.6-6.6,6.4-6.4,11.6.2,5.1,2.1,7.2,7.6,8,4.6.7,5.9-.1,7.5-4.9.3-.8.6-1.6,1-2.3.6-.9,1.5-1.6,2.6-1.3,1.1.2,1.8,1.1,2.1,2.1,1.5,4.9-2.7,11.1-7.9,11.5-7.4.6-14.4.2-18.3-7.6Z"/>
    <path class="cls-1" d="M441.3,118.2c0,1.9-1.3,2.7-2.7,2.9-5.5,1-10.7,3.5-16.5,3.1-1.9-.1-3.8,0-5.6,0-3.2,0-6.8-.7-7.8,4-.3,1.4-1.8,1.6-3.1,1.3-1.4-.4-1.8-1.6-1.8-2.9,0-3.3,2.2-6.4,5.6-7.4,2-.5,4.1-1.1,6.1-1.1,7.1,0,14.1,0,21-2.4,2.7-.9,4.7.4,4.8,2.5Z"/>
    <path class="cls-1" d="M490.3,155.2c0,1.8-.9,3.4-2.7,3.6-1.9.2-2.9-1.6-3.1-3.3-.5-4-1.8-7.7-4.1-10.9-1.7-2.3-3.1-4.8-6.3-5.7-1.3-.3-2.3-1.7-3.3-2.7-.9-.9-1.6-1.9-.7-3.3.8-1.3,2-1.5,3.2-1.2,1.4.4,2.9.7,4,1.6,7.5,5.4,11.5,12.9,13,22Z"/>
    <path class="cls-1" d="M469.2,153.3c.9,3.5-3.4,5.9-8.5,6.2-4.2.2-5.4-.9-5.5-4.8-.2-4.5,1.8-6.3,7.1-6.6,4.7-.2,6.7,1.3,6.9,5.2Z"/>
    <path class="cls-1" d="M425.1,141.7c0,3.3-1.8,5.2-4.9,5.2-3.5,0-6.5-2.2-6.4-4.7,0-2.6,3.5-5.6,6.5-5.7,3.2,0,4.8,1.7,4.7,5.2Z"/>
    <path class="cls-1" d="M300.7,221.9c-.8-.6-.9-.6-1.3-1.4-.7-1.2-1.7-3.1-1.4-5.1.1-1.1.5-2.1,1.6-2.4,1.3-.3,1.9.7,2,1.7.3,1.7.2,3.4,2.3,4,1.9.5,3.8,0,5.5-.6,1.4-.5,2.5-1.4,2.4-3.2,0-1.4-.5-2.2-1.8-2.8-2.2-1.1-4.2-2.5-5.5-4.9-1.7-3.3-1.3-5.3,1.7-7.5,4-2.9,8-3,10.7-.2,3.2,3.3,3.6,7.7.2,11-2,2-1.5,3.2-.2,4.7,1.5,1.7,5.1,1.2,6.2-.8.6-1.1.6-2.6,2.3-2,1.6.6,2.2,3.4.9,4.9-1.7,2.1-4.1,2.7-6.8,2.4-1.6-.2-3.2-1.7-4.7-1.4s-2.6,2.2-4,3c-3.2,1.9-9,1.6-10.3.5Z"/>
    <path class="cls-1" d="M296.1,193.4c2.5,0,4.6,2.3,4.5,4.9,0,2.4-1.9,4.5-4.1,4.7-2.4.1-5-2.6-4.9-5.3,0-2.3,2.2-4.2,4.5-4.2Z"/>
    <path class="cls-1" d="M327.1,191.8c2.2,0,4.5,2.1,4.6,4.3,0,2.5-2.6,5.1-5.4,5.2-2.2,0-4.1-1.7-4.1-3.8,0-2.8,2.5-5.6,4.8-5.7Z"/>
    <path class="cls-1" d="M284.7,194.1c-.3-.4-1-.9-1-1.3,0-1.5.4-2.9,1.7-3.8,3.3-2.5,6.7-4.9,10-7.4.9-.7,1.8-1.1,2.7,0,.7,1,.4,2.2-.3,2.8-4,3.2-8.2,6.4-12.3,9.5-.1.1-.4.1-.7.2Z"/>
    <path class="cls-1" d="M341.1,193.5c-5.5-.3-8.8-2.9-10.7-8-.4-1.1-.7-2,.4-2.7,1.2-.7,2,.3,2.5,1.1,2,3.4,4.5,5.8,8.8,6,1,0,2.6,1,2.1,2.6-.4,1.5-2,1.1-3.2,1Z"/>
    <path class="cls-13" d="M425.1,161.6c0-4.8,3-7,9.4-7,4.8,0,8.1,2.9,8.2,7.4.1,4.2-5.8,8.7-11.3,8.6-3.9,0-6.5-3.7-6.4-9Z"/>
    <path class="cls-5" d="M312.1,208c-2,.2-4-1-4.1-3.7,0-2.3,2.2-3.1,3.8-3.1,2.7,0,3.9,2.1,3.8,4.3,0,1.5-.8,2.5-3.5,2.5Z"/>
    <path class="cls-11" d="M314.1,174.5c0-.8-.1-9.5-.2-9.9,3.5.2,3.2.5,6.4.5,0,.3.2,1.1.2,1.4.1,2.7.8,3,.4,8,0,1.6,0,3.3-.3,4.9-.3,1.6-1.4,3.1-3.1,3.5-1.6.4-2.6-.8-3.3-2.1-.6-2.1-.6-4.2,0-6.3Z"/>
    <path class="cls-14" d="M328.3,162.7c1.4,3.6,2.3,7.9,2.5,11.8.1,2,0,3.9-2.1,4.6-1.7.6-2.3-.5-3.6-1.6-.9-.7-1-2.2-1.2-3.1-.4-3.7-1-9.4-.9-9.6,2.6,0,2.3.2,5.3-2.2Z"/>
    <path class="cls-8" d="M345.1,263.4c-1-1.3-.6-4.2,3.5-5.9s4.1-1.7,6.2-2.5c1.6-1.4,3.3-1.3,4.9,0,1.1,1.1,1.2,2,1.4,3.2s-1.8,1.1-3.2,1.9-5,1.6-8.8,3.6c-1.6.9-3.1,1-4-.3Z"/>
  </g>
  <g>
    <g>
      <polygon class="cls-18" points="121.4 182.1 122.5 182.3 123.7 182.6 124.9 182.7 126 183.2 127.2 183.4 128.3 183.7 129.4 184.2 130.5 184.8 131.6 185.3 132.7 185.7 133.8 186.1 134.8 186.8 135.9 187.3 137 187.8 138 188.4 139 189.1 140 189.8 141 190.4 142 191.1 143 191.8 143.8 192.7 144.9 193.3 145.7 194.1 146.5 195 147.4 195.8 148.3 196.5 149.1 197.5 149.9 198.4 150.7 199.3 151.5 200.1 152.3 201.1 153 202 153.7 203 154.3 204.1 155.1 204.9 155.6 206 156.3 207 156.9 208 157.6 209 158 210.2 158.9 211.1 159.6 212.1 160.2 213.1 161 214 161.9 214.8 162.5 215.9 163.4 216.7 164.2 217.6 164.9 218.5 165.8 219.4 166.6 220.2 167.6 221 168.5 221.8 169.4 222.7 170.1 223.6 170.9 224.5 171.9 225.2 172.7 226.1 173.7 226.8 174.6 227.6 175.5 228.5 176.3 229.4 177 230.3 178 231 178.8 232 179.6 232.8 180.5 233.7 181.3 234.5 182.4 235.2 183 236.3 184 236.9 184.8 237.8 185.5 238.9 186.4 239.7 187.3 240.5 188 241.5 188.9 242.4 189.5 243.4 190.4 244.2 191.2 245.1 191.9 246.1 192.5 247.2 193.3 248.1 193.9 249.1 194.6 250.1 195.3 251.1 195.8 252.2 196.6 253.1 197.2 254.2 197.9 255.2 198.2 256.4 198.7 257.5 199.4 258.5 199.8 259.6 200.1 260.8 200.4 262 200.5 263.1 200.8 264.3 200.9 265.5 200.8 266.7 200.6 267.9 200.7 269.1 200.6 270.3 200.4 271.5 200 272.6 199.9 273.8 199.5 274.9 199.1 276.1 198.6 277.1 198.2 278.3 197.7 279.4 197.4 280.5 196.8 281.6 196.1 282.5 195.5 283.6 195 284.7 194.3 285.6 193.7 286.7 192.9 287.6 192.2 288.6 191.5 289.5 190.6 290.3 190 291.3 189.1 292.1 188.3 293 187.5 293.9 186.7 294.8 185.8 295.6 184.9 296.4 184 297.2 183.1 297.9 182.2 298.8 181.2 299.4 180.4 300.3 179.3 300.9 178.4 301.6 177.6 302.5 176.4 303 175.5 303.8 174.5 304.3 173.6 305.2 172.5 305.7 171.5 306.4 170.6 307.1 169.5 307.6 168.4 308.1 167.4 308.8 166.4 309.4 165.3 309.8 164.2 310.4 163.2 311.1 162.1 311.5 161 312 159.9 312.5 158.8 312.9 157.8 313.5 156.7 314 155.5 314.3 154.5 314.9 153.3 315.2 152.3 315.8 151.1 316.1 149.9 316.4 148.9 317 147.7 317.3 146.5 317.6 145.4 318 144.3 318.5 143.1 318.6 141.9 318.9 140.8 319.4 139.6 319.5 138.5 320.1 137.3 320 136.1 320.5 134.9 320.5 133.8 320.9 132.6 321 131.4 321.1 130.2 321 129 321.1 127.8 321.3 126.6 321.2 125.4 321.1 124.2 320.9 123 320.8 121.8 320.6 120.6 320.3 119.5 320.1 118.3 319.9 117.2 319.4 116.1 319 114.9 318.5 113.8 318.1 112.7 317.6 111.8 316.9 110.7 316.3 109.7 315.7 108.7 314.9 107.9 314.1 106.9 313.4 106.1 312.5 105.2 311.7 104.2 311 103.4 310.1 102.9 309 101.9 308.2 101.3 307.1 100.6 306.2 99.9 305.2 99.4 304.1 98.7 303.1 98.1 302.1 97.7 301 97.1 299.9 96.5 298.9 96 297.8 95.4 296.7 95.1 295.5 94.7 294.4 94 293.4 93.6 292.3 93.2 291.1 92.9 290 92.4 288.9 92 287.7 91.6 286.6 91.3 285.5 91.1 284.3 90.6 283.1 90.4 281.9 90.1 280.8 89.8 279.6 89.4 278.5 88.9 277.4 88.8 276.2 88.5 275 88 273.9 87.8 272.7 87.5 271.5 87.1 270.4 86.7 269.3 86.4 268.2 86 267 85.5 265.9 85.3 264.7 84.9 263.6 84.3 262.6 83.9 261.4 83.5 260.3 83 259.2 82.6 258.1 82.3 256.9 81.8 255.8 81.3 254.7 80.8 253.7 80.4 252.5 79.9 251.4 79.3 250.4 79 249.2 78.4 248.1 77.7 247.2 77.4 246 76.8 244.9 76.2 243.9 75.5 242.9 75 241.8 74.6 240.6 74 239.6 73.2 238.7 72.6 237.6 72.1 236.5 71.4 235.6 70.8 234.5 70 233.6 69.4 232.6 68.8 231.6 68 230.6 67.3 229.6 66.6 228.7 65.7 227.9 65 226.9 64.2 226 63.3 225.2 62.5 224.3 61.7 223.4 60.6 222.8 59.7 222 58.7 221.4 57.8 220.6 56.7 220.1 55.7 219.4 54.6 218.9 53.6 218.2 52.7 217.4 51.8 216.7 51 215.8 50.2 214.9 49.9 213.8 49.9 212.7 50.4 211.6 51 210.6 51.8 209.7 52.5 208.8 53.3 207.9 54 206.9 54.9 206.1 55.6 205.1 56.4 204.2 57 203.3 57.7 202.3 58.6 201.5 59.6 200.8 60.6 200.2 61.7 199.7 62.8 199.5 64 199.5 65.2 199.4 66.4 199.6 67.6 199.7 68.7 200.1 69.8 200.5 71 200.6 72.1 201.1 73.2 201.6 74.3 201.9 75.4 202.5 76.4 203 77.5 203.6 78.5 204.2 79.5 204.8 80.5 205.4 81.4 206.2 82.5 206.8 83.5 207.4 84.4 208.1 85.5 208.8 86.3 209.6 87.2 210.4 88.1 211.1 89 211.9 89.9 212.7 90.9 213.4 91.6 214.4 92.6 215 93.4 215.9 94.1 216.9 94.9 217.8 95.6 218.8 96.4 219.6 96.9 220.7 97.5 221.6 98.7 221.4 99.8 220.9 100.9 220.4 102.1 220.1 103.3 219.9 104.4 219.3 105.6 219.1 106.7 218.7 107.8 218.1 109 217.7 110.2 217.4 111.3 217 110.7 215.9 110.1 214.8 109.4 213.7 108.4 212.9 107.4 212.1 106.3 211.4 105.4 210.7 106.2 210 107.2 209.2 107.9 208.2 109 207.6 109.8 206.6 110.7 205.9 111.8 205.2 112.6 204.3 113.7 203.7 114.6 202.9 115.5 202.1 116.6 201.4 117.8 201.1 118.9 201 119.8 201.6 120.9 202.2 121.7 203 122.3 204 123.2 204.7 123.9 205.6 124.6 206.6 125.1 207.6 125.8 208.5 126.9 208.3 128 208.1 129.1 207.8 130.2 207.5 131.3 207.1 132.3 206.5 133.3 205.9 133.9 205 134.5 204.1 133.7 203.2 132.8 202.5 131.9 201.6 131 200.8 130.2 199.9 129.2 199.2 128.2 198.5 127.3 197.7 126.3 197.1 125.2 196.4 124.3 195.7 123.2 195.2 122.1 194.6 121 194.2 119.9 193.7 118.8 193.2 117.6 192.7 116.5 192.3 115.2 192.3 114.1 192 112.9 191.7 111.7 191.7 110.5 191.8 109.2 191.8 108 192 108.7 191 109.7 190.1 110.4 189.2 111.3 188.3 112 187.3 113 186.5 114 185.8 114.9 185 115.8 184.2 116.8 183.5 117.8 182.7 118.9 182.2 120.2 181.9 121.4 182.1"/>
      <polygon class="cls-20" points="121.4 182.1 122.5 182.3 123.7 182.6 124.9 182.7 126 183.2 127.2 183.4 128.3 183.7 129.4 184.2 130.5 184.8 131.6 185.3 132.7 185.7 133.8 186.1 134.8 186.8 135.9 187.3 137 187.8 138 188.4 139 189.1 140 189.8 141 190.4 142 191.1 143 191.8 143.8 192.7 144.9 193.3 145.7 194.1 146.5 195 147.4 195.8 148.3 196.5 149.1 197.5 149.9 198.4 150.7 199.3 151.5 200.1 152.3 201.1 153 202 153.7 203 154.3 204.1 155.1 204.9 155.6 206 156.3 207 156.9 208 157.6 209 158 210.2 158.9 211.1 159.6 212.1 160.2 213.1 161 214 161.9 214.8 162.5 215.9 163.4 216.7 164.2 217.6 164.9 218.5 165.8 219.4 166.6 220.2 167.6 221 168.5 221.8 169.4 222.7 170.1 223.6 170.9 224.5 171.9 225.2 172.7 226.1 173.7 226.8 174.6 227.6 175.5 228.5 176.3 229.4 177 230.3 178 231 178.8 232 179.6 232.8 180.5 233.7 181.3 234.5 182.4 235.2 183 236.3 184 236.9 184.8 237.8 185.5 238.9 186.4 239.7 187.3 240.5 188 241.5 188.9 242.4 189.5 243.4 190.4 244.2 191.2 245.1 191.9 246.1 192.5 247.2 193.3 248.1 193.9 249.1 194.6 250.1 195.3 251.1 195.8 252.2 196.6 253.1 197.2 254.2 197.9 255.2 198.2 256.4 198.7 257.5 199.4 258.5 199.8 259.6 200.1 260.8 200.4 262 200.5 263.1 200.8 264.3 200.9 265.5 200.8 266.7 200.6 267.9 200.7 269.1 200.6 270.3 200.4 271.5 200 272.6 199.9 273.8 199.5 274.9 199.1 276.1 198.6 277.1 198.2 278.3 197.7 279.4 197.4 280.5 196.8 281.6 196.1 282.5 195.5 283.6 195 284.7 194.3 285.6 193.7 286.7 192.9 287.6 192.2 288.6 191.5 289.5 190.6 290.3 190 291.3 189.1 292.1 188.3 293 187.5 293.9 186.7 294.8 185.8 295.6 184.9 296.4 184 297.2 183.1 297.9 182.2 298.8 181.2 299.4 180.4 300.3 179.3 300.9 178.4 301.6 177.6 302.5 176.4 303 175.5 303.8 174.5 304.3 173.6 305.2 172.5 305.7 171.5 306.4 170.6 307.1 169.5 307.6 168.4 308.1 167.4 308.8 166.4 309.4 165.3 309.8 164.2 310.4 163.2 311.1 162.1 311.5 161 312 159.9 312.5 158.8 312.9 157.8 313.5 156.7 314 155.5 314.3 154.5 314.9 153.3 315.2 152.3 315.8 151.1 316.1 149.9 316.4 148.9 317 147.7 317.3 146.5 317.6 145.4 318 144.3 318.5 143.1 318.6 141.9 318.9 140.8 319.4 139.6 319.5 138.5 320.1 137.3 320 136.1 320.5 134.9 320.5 133.8 320.9 132.6 321 131.4 321.1 130.2 321 129 321.1 127.8 321.3 126.6 321.2 125.4 321.1 124.2 320.9 123 320.8 121.8 320.6 120.6 320.3 119.5 320.1 118.3 319.9 117.2 319.4 116.1 319 114.9 318.5 113.8 318.1 112.7 317.6 111.8 316.9 110.7 316.3 109.7 315.7 108.7 314.9 107.9 314.1 106.9 313.4 106.1 312.5 105.2 311.7 104.2 311 103.4 310.1 102.9 309 101.9 308.2 101.3 307.1 100.6 306.2 99.9 305.2 99.4 304.1 98.7 303.1 98.1 302.1 97.7 301 97.1 299.9 96.5 298.9 96 297.8 95.4 296.7 95.1 295.5 94.7 294.4 94 293.4 93.6 292.3 93.2 291.1 92.9 290 92.4 288.9 92 287.7 91.6 286.6 91.3 285.5 91.1 284.3 90.6 283.1 90.4 281.9 90.1 280.8 89.8 279.6 89.4 278.5 88.9 277.4 88.8 276.2 88.5 275 88 273.9 87.8 272.7 87.5 271.5 87.1 270.4 86.7 269.3 86.4 268.2 86 267 85.5 265.9 85.3 264.7 84.9 263.6 84.3 262.6 83.9 261.4 83.5 260.3 83 259.2 82.6 258.1 82.3 256.9 81.8 255.8 81.3 254.7 80.8 253.7 80.4 252.5 79.9 251.4 79.3 250.4 79 249.2 78.4 248.1 77.7 247.2 77.4 246 76.8 244.9 76.2 243.9 75.5 242.9 75 241.8 74.6 240.6 74 239.6 73.2 238.7 72.6 237.6 72.1 236.5 71.4 235.6 70.8 234.5 70 233.6 69.4 232.6 68.8 231.6 68 230.6 67.3 229.6 66.6 228.7 65.7 227.9 65 226.9 64.2 226 63.3 225.2 62.5 224.3 61.7 223.4 60.6 222.8 59.7 222 58.7 221.4 57.8 220.6 56.7 220.1 55.7 219.4 54.6 218.9 53.6 218.2 52.7 217.4 51.8 216.7 51 215.8 50.2 214.9 49.9 213.8 49.9 212.7 50.4 211.6 51 210.6 51.8 209.7 52.5 208.8 53.3 207.9 54 206.9 54.9 206.1 55.6 205.1 56.4 204.2 57 203.3 57.7 202.3 58.6 201.5 59.6 200.8 60.6 200.2 61.7 199.7 62.8 199.5 64 199.5 65.2 199.4 66.4 199.6 67.6 199.7 68.7 200.1 69.8 200.5 71 200.6 72.1 201.1 73.2 201.6 74.3 201.9 75.4 202.5 76.4 203 77.5 203.6 78.5 204.2 79.5 204.8 80.5 205.4 81.4 206.2 82.5 206.8 83.5 207.4 84.4 208.1 85.5 208.8 86.3 209.6 87.2 210.4 88.1 211.1 89 211.9 89.9 212.7 90.9 213.4 91.6 214.4 92.6 215 93.4 215.9 94.1 216.9 94.9 217.8 95.6 218.8 96.4 219.6 96.9 220.7 97.5 221.6 98.7 221.4 99.8 220.9 100.9 220.4 102.1 220.1 103.3 219.9 104.4 219.3 105.6 219.1 106.7 218.7 107.8 218.1 109 217.7 110.2 217.4 111.3 217 110.7 215.9 110.1 214.8 109.4 213.7 108.4 212.9 107.4 212.1 106.3 211.4 105.4 210.7 106.2 210 107.2 209.2 107.9 208.2 109 207.6 109.8 206.6 110.7 205.9 111.8 205.2 112.6 204.3 113.7 203.7 114.6 202.9 115.5 202.1 116.6 201.4 117.8 201.1 118.9 201 119.8 201.6 120.9 202.2 121.7 203 122.3 204 123.2 204.7 123.9 205.6 124.6 206.6 125.1 207.6 125.8 208.5 126.9 208.3 128 208.1 129.1 207.8 130.2 207.5 131.3 207.1 132.3 206.5 133.3 205.9 133.9 205 134.5 204.1 133.7 203.2 132.8 202.5 131.9 201.6 131 200.8 130.2 199.9 129.2 199.2 128.2 198.5 127.3 197.7 126.3 197.1 125.2 196.4 124.3 195.7 123.2 195.2 122.1 194.6 121 194.2 119.9 193.7 118.8 193.2 117.6 192.7 116.5 192.3 115.2 192.3 114.1 192 112.9 191.7 111.7 191.7 110.5 191.8 109.2 191.8 108 192 108.7 191 109.7 190.1 110.4 189.2 111.3 188.3 112 187.3 113 186.5 114 185.8 114.9 185 115.8 184.2 116.8 183.5 117.8 182.7 118.9 182.2 120.2 181.9 121.4 182.1"/>
    </g>
    <g>
      <polygon class="cls-3" points="161.5 236.9 160.3 236.6 159.2 236.5 158 236.2 156.8 236.3 155.6 236.3 154.5 236.5 153.3 236.6 152.1 236.8 151 237.2 149.9 237.5 148.7 237.7 147.6 238.2 146.5 238.6 145.4 239.1 144.4 239.6 143.3 240.1 142.3 240.7 141.2 241.2 140.3 242 139.3 242.6 138.4 243.4 137.4 244 136.5 244.8 135.4 245.4 134.5 246.1 133.5 246.9 132.6 247.6 131.6 248.3 130.6 249 129.7 249.7 128.7 250.3 127.8 251.1 126.8 251.8 125.8 252.5 124.8 253.2 123.8 253.9 122.9 254.6 121.9 255.3 121 256 119.9 256.7 119 257.4 118 258 117.1 258.8 116 259.5 115 260.1 114.1 260.8 113.1 261.4 112.1 262.2 111.1 262.8 110 263.3 110.7 264.3 111.4 265.3 112.1 266.2 112.7 267.2 113.5 268.2 114.2 269.1 114.9 270.1 115.5 271.1 116.2 272.1 116.9 273.1 117.6 274 118.3 275 118.9 276 119.6 277 120.4 277.9 121 279 121.7 279.9 122.4 280.9 123 281.9 123.7 282.9 124.4 283.9 125.1 284.9 125.8 285.9 126.4 286.9 127.1 287.9 127.8 288.9 128.4 289.9 129 290.9 130 290.2 130.9 289.4 131.7 288.6 132.7 287.9 133.5 287.1 134.5 286.4 135.4 285.7 136.3 284.9 137.3 284.3 138.2 283.5 139.1 282.7 140 282 141 281.3 141.9 280.5 142.9 279.8 143.8 279.1 144.7 278.4 145.7 277.7 146.6 277 147.6 276.2 148.6 275.6 149.5 274.8 150.5 274.2 151.5 273.5 152.4 272.8 153.4 272 154.4 271.4 155.3 270.7 156.3 270.1 157.4 269.6 158.4 269 159.5 268.4 160.6 267.9 161.7 267.3 162.7 266.7 163.9 266.3 164.9 265.7 166.1 265.2 167.2 264.6 168.2 264 169.3 263.5 170.4 262.9 171.5 262.4 172.6 261.9 173.7 261.3 174.8 260.7 175.9 260.2 177 259.7 178.1 259.1 179.2 258.6 178.4 257.6 177.7 256.7 176.9 255.7 176.1 254.9 175.3 253.9 174.6 252.9 173.8 252 173 251.1 172.2 250.2 171.5 249.2 170.7 248.3 170 247.3 169.1 246.4 168.4 245.4 167.6 244.5 166.9 243.5 166.1 242.6 165.3 241.7 164.5 240.7 163.8 239.8 163 238.8 162.2 237.9 161.5 236.9"/>
      <polygon class="cls-20" points="161.5 236.9 160.3 236.6 159.2 236.5 158 236.2 156.8 236.3 155.6 236.3 154.5 236.5 153.3 236.6 152.1 236.8 151 237.2 149.9 237.5 148.7 237.7 147.6 238.2 146.5 238.6 145.4 239.1 144.4 239.6 143.3 240.1 142.3 240.7 141.2 241.2 140.3 242 139.3 242.6 138.4 243.4 137.4 244 136.5 244.8 135.4 245.4 134.5 246.1 133.5 246.9 132.6 247.6 131.6 248.3 130.6 249 129.7 249.7 128.7 250.3 127.8 251.1 126.8 251.8 125.8 252.5 124.8 253.2 123.8 253.9 122.9 254.6 121.9 255.3 121 256 119.9 256.7 119 257.4 118 258 117.1 258.8 116 259.5 115 260.1 114.1 260.8 113.1 261.4 112.1 262.2 111.1 262.8 110 263.3 110.7 264.3 111.4 265.3 112.1 266.2 112.7 267.2 113.5 268.2 114.2 269.1 114.9 270.1 115.5 271.1 116.2 272.1 116.9 273.1 117.6 274 118.3 275 118.9 276 119.6 277 120.4 277.9 121 279 121.7 279.9 122.4 280.9 123 281.9 123.7 282.9 124.4 283.9 125.1 284.9 125.8 285.9 126.4 286.9 127.1 287.9 127.8 288.9 128.4 289.9 129 290.9 130 290.2 130.9 289.4 131.7 288.6 132.7 287.9 133.5 287.1 134.5 286.4 135.4 285.7 136.3 284.9 137.3 284.3 138.2 283.5 139.1 282.7 140 282 141 281.3 141.9 280.5 142.9 279.8 143.8 279.1 144.7 278.4 145.7 277.7 146.6 277 147.6 276.2 148.6 275.6 149.5 274.8 150.5 274.2 151.5 273.5 152.4 272.8 153.4 272 154.4 271.4 155.3 270.7 156.3 270.1 157.4 269.6 158.4 269 159.5 268.4 160.6 267.9 161.7 267.3 162.7 266.7 163.9 266.3 164.9 265.7 166.1 265.2 167.2 264.6 168.2 264 169.3 263.5 170.4 262.9 171.5 262.4 172.6 261.9 173.7 261.3 174.8 260.7 175.9 260.2 177 259.7 178.1 259.1 179.2 258.6 178.4 257.6 177.7 256.7 176.9 255.7 176.1 254.9 175.3 253.9 174.6 252.9 173.8 252 173 251.1 172.2 250.2 171.5 249.2 170.7 248.3 170 247.3 169.1 246.4 168.4 245.4 167.6 244.5 166.9 243.5 166.1 242.6 165.3 241.7 164.5 240.7 163.8 239.8 163 238.8 162.2 237.9 161.5 236.9"/>
    </g>
  </g>
</svg>