<?xml version="1.0" encoding="UTF-8"?>
<svg id="_レイヤー_2" data-name="レイヤー 2" xmlns="http://www.w3.org/2000/svg" viewBox="0 0 387.8 333.63">
  <defs>
    <style>
      .cls-1, .cls-2 {
        fill: #fff;
      }

      .cls-2, .cls-3, .cls-4, .cls-5 {
        fill-rule: evenodd;
      }

      .cls-3, .cls-6 {
        fill: #231815;
      }

      .cls-7 {
        fill: #0f0c0d;
      }

      .cls-4 {
        fill: #954828;
      }

      .cls-8, .cls-5 {
        fill: #faa2ad;
      }

      .cls-9 {
        fill: #f03c3c;
      }
    </style>
  </defs>
  <g id="design">
    <g>
      <path class="cls-6" d="M112.59,333.63c-1.73,0-3.48-.04-5.17-.07-1.7-.04-3.44-.07-5.15-.07-.7,0-1.4,0-2.1,.02-2.51,.05-5.21,.08-8.5,.08-2.01,0-4.02,0-6.03-.02h-.13c-2.03,0-4.06-.02-6.09-.02h-1.97c-1.32,0-2.63-.2-3.89-.4-1.29-.2-2.5-.39-3.76-.39-.32,0-.64,.01-.94,.04l-.62,.05c-1.42,.12-2.89,.25-4.33,.25s-2.66-.13-3.76-.38c-1.99-.47-3.94-.53-5.58-.53-.67,0-1.35,.01-2.02,.02-.68,.01-1.36,.02-2.03,.02-.45,0-.9,0-1.35-.02-.87-.03-1.69-.24-2.48-.45-.81-.21-1.58-.42-2.37-.42-.32,0-.63,.03-.93,.11-.25,.06-.5,.07-.71,.07h-.34c-.42,0-.7,.04-.97,.29-.19,.17-.45,.25-.78,.25-.31,0-.67-.07-.99-.14-.17-.04-.32-.07-.45-.09-.25-.04-.5-.13-.74-.22l-.45-.16-.21,.13c-.93,.6-1.89,.67-2.53,.67-.42,0-.84-.03-1.24-.06-.4-.03-.77-.06-1.18-.06-3.55,.03-7.34,.04-12.27,.04H7.69s-1.3,0-1.3,0c-.26,0-.52,0-.78-.01-1.95-.07-2.61-.72-2.68-2.67-.05-1.29-.21-2.55-.37-3.88-.24-1.89-.49-3.85-.36-5.85l.02-.32c.2-3.05,.4-6.2-.05-9.18-.68-4.44-.59-8.94-.52-13.29,.07-3.57,.13-7.26-.23-10.86-.19-1.86-.2-3.73-.22-5.55-.03-2.49-.05-4.84-.46-7.18-.54-3.09-.52-15.76-.51-25.01,0-3.71,0-6.62-.03-7.86-.09-3.02-.07-6.1-.05-9.07,0-1.37,.02-2.69,.02-4.01s-.04-2.65-.09-3.95c-.1-3.03-.2-6.15,.22-9.16,.45-3.25,.48-6.54,.5-9.72,0-1.01,.01-2.01,.03-3.02,.04-2.21,.04-4.46,.03-6.63,0-2-.02-4.26,.02-6.43,.01-.7,.18-1.39,.34-2.05,.13-.52,.24-1.01,.29-1.49,.06-.61,.05-1.22,.04-1.87,0-.5-.02-1.02,.01-1.53,.02-.36,.28-.66,.87-1,1.29-.73,2.61-1.46,3.93-2.17l6.23-3.35c2.98-1.6,5.97-3.2,8.95-4.81,3-1.62,6.07-3.23,9.03-4.79,4.09-2.15,8.28-4.35,12.35-6.6,1.73-.96,3.5-1.9,5.22-2.82,3.56-1.9,7.23-3.85,10.7-6.03,.32-.2,.68-.24,1-.28,.3-.04,.44-.06,.55-.11,.74-.41,1.47-.79,2.19-1.16,2.47-1.29,4.79-2.5,6.79-4.29,.82-.73,1.63-.79,2.38-.79h.44c3.25,0,6.49,0,9.8,0h8.25s-.04-.54-.04-.54c-.05-.67-.05-1.32-.06-1.96,0-1.27,0-2.47-.43-3.7-.53-1.54-.39-3.28-.26-4.97,.05-.59,.09-1.15,.11-1.69,.07-2.07-.15-4.07-.39-6.19-.25-2.26-.5-4.59-.37-6.95,.17-3.08,.13-6.22,.09-9.26-.02-1.37-.04-2.74-.04-4.11,0-1.01,0-2.74,0-4.85-.02-7.2-.05-19.1,.04-22.56,.04-1.63,.18-3.27,.32-4.87,.13-1.49,.26-3,.31-4.48,.08-2.3,.06-4.65,.04-6.92,0-1.02-.02-2.03-.02-3.03,0-.91,0-1.82,0-2.73-.01-2.27-.02-4.61,.04-6.91,.02-.64,.18-1.26,.34-1.86,.12-.44,.24-.9,.29-1.34,.06-.51,.05-1.03,.03-1.58-.01-.49-.02-.99,.02-1.49,.04-.53,.47-1.08,.86-1.31,1.13-.68,2.3-1.31,3.43-1.92l6.86-3.69c2.94-1.58,5.88-3.16,8.81-4.74,2.96-1.6,5.98-3.18,8.9-4.72,4.11-2.16,8.36-4.38,12.48-6.67,1.72-.95,3.48-1.89,5.18-2.8,3.58-1.91,7.27-3.87,10.74-6.05,.31-.2,.67-.24,.99-.28,.3-.04,.44-.06,.56-.12,.76-.42,1.51-.81,2.26-1.2,2.44-1.27,4.74-2.47,6.72-4.24,.82-.74,1.64-.8,2.4-.8h.42c4.02,0,8.03,0,12.05,0h10.92s.06-.01,.06-.01c2.77-.67,5.5-.76,7.57-.76,1.18,0,2.38,.03,3.54,.06,1.16,.03,2.35,.06,3.51,.06,.41,0,.83,0,1.24-.01,1.12-.03,2.25-.06,3.38-.1,2.01-.07,4.06-.14,6.08-.14,2.59,0,4.74,.11,6.75,.35,4.05,.47,8.15,.48,12.12,.49,1.57,0,3.17,0,4.76,.04,1.2,.02,2.4,.06,3.59,.09,2.09,.06,4.24,.12,6.36,.12,2.61,0,4.78-.09,6.82-.29,5.06-.5,10.04-.54,14.7-.54h4.42c1.75,0,3.82,0,5.93-.05h.07s.07-.02,.07-.02c1.52-.47,3.04-.54,4.46-.54,.38,0,.76,0,1.14,.01,.37,0,.74,.01,1.12,.01,.97,0,2.11-.03,3.21-.26,2.18-.46,4.31-.5,6.3-.5h1.82c1.07,0,2.21,0,3.36-.1,.09,0,.18-.01,.28-.01,.25,0,.49,.02,.72,.04,.24,.02,.44,.04,.64,.04,.47,0,.85-.09,1.21-.52,.17-.21,.45-.32,.85-.32,.32,0,.69,.06,.96,.11,.45,.08,.89,.19,1.31,.29,.63,.15,1.22,.3,1.82,.36,.21,.02,.44,.03,.73,.03,.24,0,.48,0,.71-.01,.29,0,.54-.02,.8-.02,.48,0,.86,.03,1.22,.09,.69,.12,1.67,1.03,1.69,1.76,.08,2.91,.07,5.86,.06,8.71v2.65c0,.15-.07,.29-.19,.39-1.01,.83-.73,2.04-.48,3.12l.05,.21c.81,3.62,.71,7.29,.61,10.84-.05,1.91-.11,3.89-.02,5.82,.01,.21,.03,.42,.04,.63,.09,1.12,.19,2.39-.74,3.54l-.06,.08-.03,.1c-.06,.22-.05,.59,.02,.8l.02,.07,.04,.06c.9,1.23,.82,2.51,.74,3.74-.02,.38-.05,.73-.04,1.07,.03,2.23,.03,4.49,.02,6.68,0,2.1-.01,4.26,.02,6.39,.02,1.63-.2,3.26-.41,4.83-.29,2.12-.56,4.12-.3,6.18l.1,.86c.23,1.88,.47,3.83,.57,5.76,.04,.89,0,1.79-.03,2.67-.06,1.44-.12,2.8,.16,4.1,.15,.68,.21,1.38,.26,2.05,.09,1.06,.18,2.07,.58,2.97,.41,.91,.38,4.42,.3,10.07-.06,4.55-.09,8.1,.15,8.82,.88,1.85,1.05,3.89,.56,6.3-.7,3.44-.63,6.96-.57,10.37,.03,1.57,.06,3.17,.02,4.75-.1,3.66-.07,7.38-.05,10.98,.01,1.5,.02,2.99,.02,4.47,0,.07,0,.15,0,.23l.03,.47h.47c1.53,.02,3.07,.06,4.57,.1,1.79,.05,3.63,.1,5.43,.1,2.65,0,4.82-.11,6.83-.36,3.69-.45,7.32-.51,10.38-.51,1.17,0,2.34,0,3.51,.02,1.18,0,2.34,.02,3.5,.02h.62c2.07,0,4.18-.23,6.21-.44,2.08-.22,4.23-.44,6.38-.44,.86,0,1.66,.04,2.44,.11h.1s.1-.02,.1-.02c1.92-.62,3.83-.7,5.28-.7,.78,0,1.57,.03,2.33,.05,.76,.03,1.54,.05,2.29,.05,.65,0,1.23-.02,1.77-.06,.09,0,.18,0,.27,0,.2,0,.4,.01,.6,.03,.2,.01,.36,.03,.53,.03,.44,0,.81-.08,1.16-.46,.32-.34,.84-.34,1.04-.34,.35,0,.72,.05,1.04,.11,.5,.08,.99,.19,1.45,.31,.58,.14,1.13,.27,1.68,.33,.23,.03,.48,.04,.8,.04,.22,0,.45,0,.67-.01,.27,0,.51-.01,.75-.01,.33,0,.6,.01,.87,.04,1.14,.12,1.85,.91,1.85,2.08,0,.98,.03,1.99,.06,2.97,.07,2.47,.15,4.97-.18,7.4-.05,.38-.11,.75-.17,1.12-.31,2.03-.59,3.78,.24,5.62,.03,.06,.04,.14,.04,.21v4.27c.01,4,.02,8.14-.03,12.24,0,.53-.17,1.04-.33,1.53-.15,.45-.28,.88-.28,1.27s.14,.82,.28,1.26c.15,.47,.32,1,.33,1.54,.07,6.32,.07,12.06,0,17.54-.01,.76-.18,1.5-.34,2.21-.13,.58-.25,1.12-.3,1.67-.1,1.23-.11,2.56,0,4.05,.08,1.33,.2,2.68,.31,3.99,.28,3.33,.57,6.78,.41,10.22-.03,.61,.16,1.26,.35,1.94,.1,.35,.21,.71,.28,1.08,.06,.29,.13,.58,.19,.87,.2,.89,.39,1.78,.48,2.68,.05,.49,0,.99-.04,1.48-.06,.68-.12,1.31,.09,1.76,.86,1.84,1.05,3.93,.56,6.23-.73,3.44-.63,17.39-.57,26.62,.03,3.61,.05,6.46,.01,7.8-.12,4.73-.07,9.52,0,14.42,.03,2.48-.37,4.97-3.47,6.38-1.02,.46-2.06,1.5-2.65,2.65-.93,1.8-2.48,2.78-3.98,3.72-1.09,.68-2.12,1.33-2.9,2.27-.09,.11-.23,.18-.38,.18-.51,0-.81,.38-1.2,.85-.43,.52-.91,1.11-1.75,1.2l-.15,.02-.12,.1c-2.47,2.12-5.27,3.79-7.98,5.41-2.4,1.43-4.88,2.91-7.09,4.69-.26,.21-.53,.38-.79,.54-.28,.18-.56,.36-.8,.56-3.01,2.58-6.12,5.24-9.78,7.32-1.04,.59-2.03,1.26-3.08,1.98-1.03,.7-2.08,1.42-3.19,2.05h-.02s-.14,.01-.14,.01l-.15,.23c-.9,1.39-2.34,3.23-4.39,3.23-.07,0-.14,0-.21,0-1-.06-2.03-.09-3.13-.09-2.9,0-5.85,.21-8.7,.41-2.87,.2-5.83,.42-8.76,.42-1,0-1.93-.02-2.84-.07-.43-.02-.87-.03-1.33-.03-1.93,0-3.89,.21-5.78,.4-1.91,.2-3.89,.41-5.86,.41-.44,0-.88-.01-1.3-.03h-.11s-.1,.03-.1,.03c-1.18,.45-2.4,.51-3.53,.51-.25,0-1.3-.01-1.55-.01-.73,0-1.59,.03-2.38,.22-2.33,.58-4.64,.65-6.39,.65-.89,0-1.78-.02-2.67-.04-.88-.02-1.76-.04-2.64-.04h-.53c-3.41,.04-7.07,.05-11.87,.05h-11.43c-3,0-6.01,0-9.01,.02h0c-1.41,0-2.71-.21-3.97-.41-1.28-.21-2.49-.4-3.74-.4-.31,0-.62,.01-.91,.04l-.48,.04c-1.52,.13-3.08,.26-4.63,.26s-2.79-.13-3.95-.39c-1.71-.38-3.4-.46-5.4-.46h-2.21c-.9,0-1.97,0-3.06-.1-.96-.08-1.92-.2-2.86-.3-1.11-.13-2.26-.26-3.39-.35l-.3-.03c-.22-.02-.39-.04-.56-.04-.43,0-.71,.11-1,.38-.18,.17-.42,.25-.74,.25s-.66-.08-.99-.15c-.2-.04-.35-.08-.5-.1-.23-.04-.48-.12-.71-.2l-.47-.16-.2,.14c-.88,.59-1.79,.66-2.4,.66-.39,0-.77-.03-1.14-.06-.37-.03-.71-.06-1.08-.06-3.69,.02-7.73,.03-12.7,.03h-14.14c-.13-.01-.71,0-.86,0-.75,0-1.6-.12-2.26-1.04l-.08-.11-.12-.06c-.21-.1-.58-.17-.91-.17-1.14-.01-2.29-.06-3.41-.11-1.26-.05-2.55-.11-3.81-.11-1.69,0-3.08,.1-4.36,.32-2.72,.46-5.39,.52-7.64,.52-.89,0-1.78-.01-2.67-.02-.89-.01-1.77-.02-2.65-.02-1.56,0-2.84,.04-4.01,.11-.75,.05-1.48,.18-2.26,.32-.74,.13-1.5,.27-2.27,.33-.17,.01-.35,.02-.53,.02-.44,0-.87-.03-1.29-.06-.42-.03-.81-.06-1.19-.06-.53,0-.94,.06-1.29,.19-1.29,.48-2.59,.52-3.91,.52h-.47c-.8,0-1.57,.01-2.33,.14-3,.52-6.21,.75-10.41,.75Z"/>
      <path class="cls-2" d="M4.92,183.73c2.67,.34,5.16-1.14,7.87-.67,2.33-1.21,4.89-.27,7.27-.73,6.31-1.21,12.65-.47,18.97-.61,6.3-.14,12.6-.06,18.9-.01,1.52,.01,3.07-.3,4.57,.6,.59,.35,1.81,.41,2.65-.92,.07,.94,.19,1.56,.15,2.18-.21,4.06,1.23,8.02,.7,12.09,1.16,1.81,.18,3.99,.93,5.8,.82,2.01,.24,4.01,.43,6,.11,1.09,.76,1.98,.78,3.15,.02,1.32,1.79,1.84,2.76,.88,1.5-1.48,2.89-3.08,4.47-4.79,1.28,.49,1.64,1.99,2.32,3.23,.91,1.65,2.41,1.9,3.79,.63,.67-.62,1.32-1.27,1.94-1.95,.64-.69,.6-2.27,1.78-2.07,.85,.15,1.53,1.21,2.32,1.82,.6,.45,1.35,.73,1.87,1.25,.76,.75,1.88,1.64,2.6,1.28,1.24-.61,2.17-1.93,2.18-3.47,.02-3.59,1.1-7.09,.75-10.72-.18-1.85,.91-3.6,.69-5.56-.22-1.91-.05-3.86-.05-6.01h3.47c7.79,0,15.58,.03,23.37-.03,1.28,0,2.74,.59,3.86-.64,.11-.11,.45-.06,.67,0,.83,.21,1.64,.61,2.47,.63,.7,.01,1.4-.49,2.12-.62,1.91-.34,3.7,.52,5.56,.63,2.51,.16,5.04,.06,7.56,.03,2.9-.03,5.69,.99,8.66,.74,2.84-.24,5.74-.23,8.58,.03,1.38,.12,2.7,.97,4.53,.31v2.92c0,.34,0,.68,0,1.03,.36,16.41-.97,32.79-.79,49.21,.09,7.82,1.17,35.6,.79,43.43,1.13,3.28,.6,6.68,.67,10.02,.07,3.44-.07,6.88,.04,10.31,.12,3.58,.52,7.14,.64,10.72,.11,3.66,.02,7.33,.04,11,0,.42,.17,.84,.26,1.26,.19,.89-.65,1.85-1.28,1.38-1.3-.95-2.35-.8-3.63,.01-.49,.31-1.34,.05-2.03,.05-.92,0-1.95-.27-2.72,.07-.99,.43-1.55-1.09-2.64-.21-.56,.45-1.75,.13-2.66,.14-2.41,.01-4.82-.14-7.21,.05-2.43,.18-4.82-.33-7.34,.47-2.18,.7-4.77,.05-7.16,.22-1.51,.11-2.93,.81-4.53,.68-1.52-.12-3.08-.24-4.55,.6-.51,.3-1.35,.05-2.03,.05-4.24,0-8.48-.03-12.72,0-3.12,.03-6.19,1.19-9.34,.67-8.47-1.42-17.03,.02-25.48-.81-4.74-.47-9.51,.07-14.14-.68-4.64-.75-9.22-.41-13.83-.53-4.58-.13-9.23-.51-13.73,.08-7.25,.95-14.49,.32-21.72,.56-2.48,.08-3.1-.51-3.11-2.96-.02-4.39-1-8.7-.76-13.12,.25-4.45,.05-8.93,.05-13.4,0-3.1,.09-6.19-.03-9.28-.09-2.43-.52-4.84-.63-7.27-.11-2.4,.45-4.93-.13-7.19-.93-3.6-.27-27.18-.59-30.74-.16-1.75-.54-3.47-.65-5.22-.11-1.82-.3-3.72,.02-5.49,1.34-7.45-.09-14.99,.74-22.4,1.04-9.29,.15-18.58,.71-28.1Z"/>
      <polygon class="cls-8" points="161.14 323 155.12 322.85 148.58 323.51 142.04 324.17 135.51 322.97 128.97 323.45 122.43 323.45 115.9 322.95 109.36 323.7 102.82 323.55 96.28 324.12 89.74 323.04 83.2 323.37 76.66 323.36 70.13 322.96 63.59 323.94 57.05 323.05 50.51 322.97 43.97 323.17 37.43 322.91 30.89 323.95 24.34 323.66 17.8 323.95 11.25 323.49 11.59 316.82 11.14 310.14 11.47 303.46 11.9 296.78 11.23 290.1 10.35 283.43 11.15 276.74 9.97 270.07 11.42 263.38 10.25 256.71 10.36 250.03 10.79 243.34 10.03 236.67 11.12 229.98 10.41 223.31 11.07 216.62 11.24 209.94 10.6 203.26 9.56 196.58 10.33 189.96 16.72 189.9 23.19 189.67 29.66 189.75 36.13 189.2 42.6 189.98 49.07 190.55 55.54 189.17 62.01 189.98 68.48 190.06 74.95 190.11 81.43 190.76 87.9 190.66 94.37 190.79 100.84 189.61 107.31 190.33 113.78 189.75 120.26 189.07 126.73 189 133.21 189.82 139.68 189.84 146.15 190.25 152.64 189 159.21 189.79 159.75 196.55 160 203.23 160.14 209.9 159.95 216.59 159.25 223.28 160.62 229.94 159.36 236.65 160.71 243.3 160.33 249.99 159.92 256.68 160.55 263.35 161.35 270.02 160.65 276.72 160.92 283.39 160.28 290.09 161.78 296.74 160.79 303.44 162.09 310.1 161.55 316.81 161.14 323"/>
      <g>
        <path class="cls-7" d="M107.51,280.28c-.69,9.11-5.4,13.78-15.46,12.78-1-.1-2.01-.34-2.95-.69-2.83-1.08-5.72-3.31-8.4-3.06-2.48,.23-5.09,2.25-7.76,3.27-4.02,1.53-8.13,2.18-12.39,1.78-7.61-.71-12.77-7.8-11.07-15.13,.11-.49,.18-1.01,.39-1.46,.52-1.11,1.26-2.16,2.65-1.86,1.6,.34,2.23,1.63,1.75,3.09-1.31,3.99,.1,6.84,3.36,9.13,1.15,.81,2.4,1.19,3.73,1.44,4.96,.93,9.44-1.03,13.54-3.14,4.34-2.23,3.46-11.41-1.13-13.38-5.06-2.17-8.11-5.67-9.51-10.95-.82-3.07,.14-5.3,2.32-7.18,3.54-3.06,7.83-4.59,12.35-5.34,2.67-.45,4.84,1.21,6.89,2.65,7.62,5.32,7.21,15.35-.87,19.72-2.11,1.14-3.17,2.26-2.4,4.7,.25,.77,.14,1.67,.09,2.51-.31,5.48-.02,6.01,5.27,7.75,2.07,.68,4.24,1.55,6.35,1.51,6.42-.13,8.81-3.21,8.09-9.93-.17-1.64-.99-3.21-1.51-4.81-.47-1.44-.39-2.79,1.23-3.34,1.52-.52,2.7,.36,3.24,1.7,1.06,2.64,2.27,5.28,2.2,8.24Zm-29.54-11.86c3.2,.07,7.14-1.91,7.74-4.09,.7-2.6-.32-4.96-2.01-6.9-2.31-2.67-5.48-2.91-9.69-.98-5.21,2.39-5.63,6.83-.96,10.25,1.52,1.11,3.2,1.84,4.91,1.73Z"/>
        <path class="cls-7" d="M94.69,220.27c8.43,1.32,15.56,5.11,21.48,11.19,1.17,1.2,2.14,2.61,2.45,4.32,.23,1.25-.09,2.34-1.37,2.93-1.07,.49-2.02,.16-2.73-.62-1.01-1.11-1.8-2.43-2.85-3.49-4.23-4.26-9.31-7.09-15.1-8.65-1.13-.3-2.29-.55-3.35-1.02-1.33-.59-2.27-1.67-1.76-3.19,.5-1.48,1.77-1.9,3.24-1.47Z"/>
        <path class="cls-7" d="M36.44,237.5c.09-2.01,1.04-3.67,2.72-4.58,6.53-3.55,12.17-8.3,17.84-13.01,.38-.32,.81-.61,1.26-.81,1.01-.44,1.96-.31,2.74,.54,.76,.83,.98,1.82,.38,2.76-.63,.98-1.33,1.98-2.23,2.69-4.74,3.71-9.01,8.07-14.57,10.67-1.52,.71-2.92,1.49-3.51,3.34-.42,1.32-1.56,2.32-3.15,1.76-1.57-.55-1.64-1.96-1.48-3.37Z"/>
        <path class="cls-7" d="M57.14,251.29c-3.63,.07-6.4-2.6-6.5-6.24-.08-3.22,3.68-6.17,7.86-6.15,3.25,.01,5.66,2.5,5.59,5.79-.07,3.47-3.29,6.53-6.96,6.6Z"/>
        <path class="cls-7" d="M98.4,238.08c4.62,.14,6.64,2,6.39,5.87-.21,3.25-3.25,6.34-6.12,6.23-3.12-.12-6.82-4.09-6.6-7.09,.22-3.02,2.87-5.12,6.33-5.01Z"/>
        <path class="cls-9" d="M77.98,268.42c-1.72,.12-3.39-.61-4.91-1.73-4.67-3.42-4.25-7.86,.96-10.25,4.21-1.93,7.37-1.69,9.69,.98,1.68,1.94,2.71,4.31,2.01,6.9-.59,2.18-4.54,4.16-7.74,4.09Z"/>
      </g>
      <path class="cls-2" d="M240.58,206.51c.66,1,1.46,2.11,2.14,3.28,1.05,1.8,2.45,2.1,3.92,.62,.92-.93,2-1.7,2.51-3.08,.42-1.14,1.15-1.08,2.08-.29,1.1,.92,2.21,1.83,3.37,2.66,.74,.54,1.78,1.49,2.34,1.29,1.25-.45,2.24-1.97,2.17-3.07-.15-2.52,1.15-4.82,.79-7.28-.45-2.95,.89-5.74,.71-8.65,1.09-1.38,.53-3,.71-4.52,.13-1.06,.38-2.12,.71-3.14,.09-.27,.67-.58,.98-.53,3.17,.46,6.18-.94,9.34-.76,3.08,.17,6.19-.04,9.28,.07,1.97,.07,3.93,.52,5.91,.63,1.94,.11,4.03-.41,5.81,.12,2.8,.85,5.56,.53,8.34,.56,8.92,.08,17.84,.03,27.01,.03,0,5.68,.11,11.26-.07,16.84-.05,1.73,.7,3.21,.79,4.87,.09,1.63-.67,3.39,.63,4.89,.11,.13,.02,.44,.01,.67-.2,4.74,1.12,9.39,.72,14.15-.2,2.5,.05,5.04-.05,7.56-.17,4.14-.89,8.25-.71,12.43,.19,4.34,.04,28.7,.04,33.06v12.72c0,4.24-.21,8.49,.06,12.71,.27,4.26,.85,8.49,.63,12.78,1.45,3.13,.31,6.4,.77,9.76-8.09-.35-15.84,1.19-23.66,.66-.46-.03-.92-.05-1.37,0-1.74,.21-3.47,.55-5.22,.66-1.83,.11-3.82-.43-5.46,.14-2.02,.7-4.01,.2-5.93,.61-6.18,1.3-12.42,.32-18.62,.67-1.06,.07-2.09,.53-3.16,.64-1.13,.11-2.31,.16-3.43,0-9.05-1.22-18.14-.45-27.21-.66-4.55-1.26-9.27-.05-13.79-.81-4.64-.78-9.22-.42-13.82-.54-4.58-.12-9.23-.51-13.73,.08-7.25,.96-14.49,.32-21.73,.56-2.54,.09-3.15-.47-3.15-2.92,0-4.16-1.01-8.24-.76-12.43,.25-4.22,.05-8.47,.05-12.71,0-3.55,.08-7.1-.03-10.65-.08-2.43-.52-4.85-.63-7.28-.11-2.4,.46-4.94-.13-7.18-.97-3.72-.26-27.41-.59-31.08-.15-1.63-.54-3.24-.65-4.87-.12-1.71-.26-3.48,.02-5.15,1.3-7.79-.12-15.68,.77-23.42,.94-8.16,.08-16.31,.69-24.68h3.3c7.79,0,15.58-.14,23.37,.04,6.46,.15,12.9-.23,19.29-.86,2.66-.26,5.38-.15,7.95-.68,1.88-.39,3.71-.51,5.58-.58,.8-.03,1.04,.38,.88,1.04-.44,1.73,.75,3.2,.71,4.87-.04,1.72-.09,3.44,.02,5.15,.08,1.18,.5,2.32,.64,3.5,.12,1.08,.1,2.1,.61,3.2,.48,1.04,.01,2.48,.12,3.73,.14,1.63,.35,3.27,.69,4.87,.24,1.14,1.86,1.62,2.7,.8,1.58-1.56,3.04-3.25,4.74-5.08Z"/>
      <polygon class="cls-8" points="324.55 323 318.53 322.85 311.99 323.51 305.46 324.17 298.92 322.97 292.38 323.45 285.85 323.45 279.31 322.95 272.77 323.7 266.23 323.55 259.69 324.12 253.15 323.04 246.61 323.37 240.07 323.36 233.54 322.96 227 323.94 220.46 323.05 213.92 322.97 207.38 323.17 200.84 322.91 194.3 323.95 187.76 323.66 181.21 323.95 174.67 323.49 175 316.82 174.55 310.14 174.88 303.46 175.31 296.78 174.65 290.1 173.76 283.43 174.57 276.74 173.38 270.07 174.84 263.38 173.66 256.71 173.77 250.03 174.2 243.34 173.44 236.67 174.54 229.98 173.82 223.31 174.48 216.62 174.65 209.94 174.01 203.26 172.97 196.58 173.74 189.96 180.13 189.9 186.6 189.67 193.07 189.75 199.54 189.2 206.01 189.98 212.48 190.55 218.95 189.17 225.42 189.98 231.89 190.06 238.37 190.11 244.84 190.76 251.31 190.66 257.78 190.79 264.25 189.61 270.72 190.33 277.2 189.75 283.67 189.07 290.14 189 296.62 189.82 303.09 189.84 309.57 190.25 316.05 189 322.63 189.79 323.16 196.55 323.41 203.23 323.55 209.9 323.37 216.59 322.66 223.28 324.03 229.94 322.77 236.65 324.12 243.3 323.75 249.99 323.34 256.68 323.96 263.35 324.76 270.02 324.06 276.72 324.33 283.39 323.7 290.09 325.19 296.74 324.21 303.44 325.5 310.1 324.96 316.81 324.55 323"/>
      <g>
        <path class="cls-7" d="M273.92,280.28c-.69,9.11-5.4,13.78-15.46,12.78-1-.1-2.01-.34-2.95-.69-2.83-1.08-5.72-3.31-8.4-3.06-2.48,.23-5.09,2.25-7.76,3.27-4.02,1.53-8.13,2.18-12.39,1.78-7.61-.71-12.77-7.8-11.07-15.13,.11-.49,.18-1.01,.39-1.46,.52-1.11,1.26-2.16,2.65-1.86,1.6,.34,2.23,1.63,1.75,3.09-1.31,3.99,.1,6.84,3.36,9.13,1.15,.81,2.4,1.19,3.73,1.44,4.96,.93,9.44-1.03,13.54-3.14,4.34-2.23,3.46-11.41-1.13-13.38-5.06-2.17-8.11-5.67-9.51-10.95-.82-3.07,.14-5.3,2.32-7.18,3.54-3.06,7.83-4.59,12.35-5.34,2.67-.45,4.84,1.21,6.89,2.65,7.62,5.32,7.21,15.35-.87,19.72-2.11,1.14-3.17,2.26-2.4,4.7,.25,.77,.14,1.67,.09,2.51-.31,5.48-.02,6.01,5.27,7.75,2.07,.68,4.24,1.55,6.35,1.51,6.42-.13,8.81-3.21,8.09-9.93-.17-1.64-.99-3.21-1.51-4.81-.47-1.44-.39-2.79,1.23-3.34,1.52-.52,2.7,.36,3.24,1.7,1.06,2.64,2.27,5.28,2.2,8.24Zm-29.54-11.86c3.2,.07,7.14-1.91,7.74-4.09,.7-2.6-.32-4.96-2.01-6.9-2.31-2.67-5.48-2.91-9.69-.98-5.21,2.39-5.63,6.83-.96,10.25,1.52,1.11,3.2,1.84,4.91,1.73Z"/>
        <path class="cls-7" d="M261.1,220.27c8.43,1.32,15.56,5.11,21.48,11.19,1.17,1.2,2.14,2.61,2.45,4.32,.23,1.25-.09,2.34-1.37,2.93-1.07,.49-2.02,.16-2.73-.62-1.01-1.11-1.8-2.43-2.85-3.49-4.23-4.26-9.31-7.09-15.1-8.65-1.13-.3-2.29-.55-3.35-1.02-1.33-.59-2.27-1.67-1.76-3.19,.5-1.48,1.77-1.9,3.24-1.47Z"/>
        <path class="cls-7" d="M202.85,237.5c.09-2.01,1.04-3.67,2.72-4.58,6.53-3.55,12.17-8.3,17.84-13.01,.38-.32,.81-.61,1.26-.81,1.01-.44,1.96-.31,2.74,.54,.76,.83,.98,1.82,.38,2.76-.63,.98-1.33,1.98-2.23,2.69-4.74,3.71-9.01,8.07-14.57,10.67-1.52,.71-2.92,1.49-3.51,3.34-.42,1.32-1.56,2.32-3.15,1.76-1.57-.55-1.64-1.96-1.48-3.37Z"/>
        <path class="cls-7" d="M223.55,251.29c-3.63,.07-6.4-2.6-6.5-6.24-.08-3.22,3.68-6.17,7.86-6.15,3.25,.01,5.66,2.5,5.59,5.79-.07,3.47-3.29,6.53-6.96,6.6Z"/>
        <path class="cls-7" d="M264.81,238.08c4.62,.14,6.64,2,6.39,5.87-.21,3.25-3.25,6.34-6.12,6.23-3.12-.12-6.82-4.09-6.6-7.09,.22-3.02,2.87-5.12,6.33-5.01Z"/>
        <path class="cls-9" d="M244.39,268.42c-1.72,.12-3.39-.61-4.91-1.73-4.67-3.42-4.25-7.86,.96-10.25,4.21-1.93,7.37-1.69,9.69,.98,1.68,1.94,2.71,4.31,2.01,6.9-.59,2.18-4.54,4.16-7.74,4.09Z"/>
      </g>
      <path class="cls-2" d="M93.51,43.53c1.79-.37,3.27-.68,4.76-.99,1.5-.31,3.19,.71,4.54-.67,.11-.12,.45-.04,.67-.01,4.3,.51,8.49-.79,12.78-.73,9.51,.13,19.02,0,28.54,.07,2.2,.02,4.45-.49,6.62,.59,.6,.3,1.59-.21,2.62-.38-.54,4.15,.81,8.29,.78,12.57-.02,2.43,.29,4.98,1.13,7.39,.28,.81,.23,1.81,.11,2.69-.29,2.05,.5,3.94,.75,5.9,.2,1.59,1.78,2.02,2.97,.83,1.5-1.5,2.86-3.12,4.45-4.88,.69,1.07,1.47,2.21,2.16,3.39,.96,1.64,2.41,2.01,3.72,.79,1.13-1.05,2.28-2.1,2.96-3.58,.31-.66,.97-.92,1.63-.21,1.43,1.56,3.04,2.85,4.97,3.76,.56,.26,.87,.82,1.53,.01,1.01-1.23,1.69-2.47,1.73-4.12,.05-1.63,.51-3.24,.62-4.88,.11-1.71-.26-3.49,.09-5.14,.67-3.23,1.39-6.43,1.35-9.76,0-.82,.38-1.66,.68-2.46,.08-.22,.5-.5,.72-.47,3.17,.46,6.2-.87,9.35-.73,2.29,.1,4.59,.09,6.87,0,4.63-.17,9.17,1.21,13.81,.7,3.97,1.22,8.06,.57,12.09,.67,4.12,.1,8.25,.02,12.38,.02h11.46c0,5.52,.07,10.89-.04,16.25-.03,1.81,.39,3.49,.7,5.22,.31,1.72-.51,3.6,.69,5.22,.11,.15,.02,.45,.01,.67-.09,4.96,1.11,9.86,.71,14.85-.15,1.94,.11,17.9-.05,19.84-1.35,17.2-.39,34.42-.63,51.63-.02,2.08,.52,4.16,.63,6.25,.12,2.17-.47,4.5,.14,6.5,.98,3.27,.17,6.48,.74,9.98-1.21,0-2.21,.1-3.2-.02-3.85-.45-7.59,.73-11.41,.71-3.9-.03-7.85-.43-11.67,.13-3.03,.44-6.07,.11-9,.66-2.34,.43-4.72,.13-6.93,.67-4.61,1.12-9.23,.31-13.83,.6-4.03,.26-8.13,1.05-12.08,.57-8.63-1.04-17.28,.11-25.85-.71-4.74-.45-9.52,.09-14.15-.67-4.64-.76-9.23-.4-13.83-.54-4.58-.14-9.23-.52-13.74,.08-7.37,.98-14.72,.29-22.08,.57-1.65,.06-2.65-.78-2.6-2.42,.13-4.17-.92-8.24-.79-12.44,.23-7.79,.12-15.58,.03-23.38-.02-2.43-.52-4.85-.63-7.28-.12-2.52,.43-5.15-.13-7.54-.9-3.83-.3-7.63-.6-11.43-.13-1.63-.53-3.24-.65-4.87-.11-1.6-.25-3.24,.01-4.81,1.31-7.91-.02-29.9,.79-37.77,.47-4.52,.43-8.99,.53-13.48,.1-4.47,.02-8.93,.02-13.42Z"/>
      <g>
        <path class="cls-5" d="M336.68,320.83c-.32-2.91-.62-5.66-.55-8.43,.04-1.73-.17-3.41-.37-5.03-.24-1.92-.46-3.74-.27-5.52l.05-.48-.17-.45c-1.2-3.16-.92-6.69-.44-10.04,.64-4.46,.57-8.9,.51-13.19-.04-2.43-.08-4.94,.02-7.38,0-.22,.74-20.38-.64-25.53l.66-4.33c.11-.73,.06-1.39,.02-1.98-.06-.82-.07-1.19,.12-1.45,.38-.54,.56-1.22,.57-2.07,0-1.05,.05-2.11,.09-3.17,.11-2.67,.22-5.44-.26-8.16-.41-2.3-.43-4.57-.45-6.97v-1.39c-.04-1.95-.37-3.79-.7-5.56l-.06-.33c-.08-.43-.06-.96-.05-1.53,.03-1.21,.07-2.7-.75-4.24,0-.17,.03-.51,.05-.74,.05-.49,.11-1.04,.05-1.63-.05-.48-.01-1.04,.03-1.63,.09-1.39,.2-3.1-.74-4.79,1.12-2.25,.93-4.49,.76-6.48-.04-.41-.07-.81-.09-1.21-.13-2.45,.78-3.99,3.46-5.88,4.12-2.91,8.14-5.77,11.96-8.85,3.84-3.08,7.82-5.91,11.2-8.27,2.09-1.45,4.25-2.88,6.35-4.26,2.42-1.6,4.93-3.25,7.35-4.97,.87-.61,1.61-1.31,2.32-1.99,.74-.7,1.43-1.35,2.2-1.85,.19-.13,.44-.28,.7-.46,0,.29,.01,.58,.01,.87v6.86c.02,13.3,.04,27.05-.02,40.57,0,1.51-.15,3.02-.3,4.61-.14,1.53-.29,3.11-.31,4.71-.02,1.35,.16,2.64,.34,3.89,.12,.87,.24,1.69,.28,2.49,.04,.65,0,1.35-.05,2.1-.09,1.4-.19,2.99,.28,4.52,.32,1.08,.33,2.23,.35,3.45,.01,1.05,.02,2.14,.22,3.28,.16,.92,.28,1.84,.41,2.81,.19,1.53,.4,3.11,.79,4.71,.3,1.2,.23,2.62,.16,4.12-.02,.48-.05,.96-.06,1.43-.95,1.28-.8,2.75-.72,3.6,.02,.22,.05,.44,.04,.66-.06,4.19-.06,28.44,0,32.43,0,.22-.02,.44-.04,.66-.09,.91-.22,2.34,.73,3.65-.8,1.87-.75,3.73-.7,5.38,.01,.46,.03,.92,.02,1.39-1.19,.57-2.02,1.57-2.76,2.46-.15,.17-.29,.35-.43,.51-1.42,1.63-3.18,2.9-5.05,4.25-1.07,.77-2.17,1.57-3.23,2.45-1.63,1.36-3.44,2.51-5.35,3.72-.84,.53-1.68,1.07-2.5,1.62-.4,.26-.79,.54-1.18,.81-.93,.65-1.8,1.26-2.71,1.74-3.78,2.02-6.97,4.57-10.19,7.22-.53,.44-1.05,.9-1.58,1.35-1.85,1.62-3.59,3.14-5.75,3.85l-.54,.18-.37,.44c-.57,.68-1.41,1.15-2.38,1.7-.09,.05-.19,.11-.29,.16-.01-.14-.03-.27-.04-.41Z"/>
        <path class="cls-1" d="M377.63,154.76v3.62c.02,13.27,.03,27-.02,40.49,0,1.42-.14,2.89-.29,4.44-.15,1.57-.3,3.19-.32,4.86-.02,1.5,.18,2.94,.36,4.2,.12,.83,.22,1.61,.26,2.33,.03,.53-.01,1.18-.05,1.86-.1,1.57-.21,3.34,.35,5.21,.24,.81,.25,1.78,.26,2.9,.01,1.08,.02,2.31,.26,3.62,.16,.87,.27,1.76,.39,2.71,.2,1.59,.41,3.23,.84,4.94,.23,.92,.17,2.19,.1,3.54-.01,.29-.03,.59-.04,.9-1,1.73-.82,3.53-.73,4.43,.01,.15,.04,.36,.04,.43-.06,4.2-.06,28.49,0,32.49,0,.07-.02,.29-.03,.44-.08,.81-.23,2.4,.52,4.02-.6,1.92-.55,3.74-.51,5.25,0,.07,0,.14,0,.22-.98,.72-1.71,1.59-2.29,2.29-.13,.16-.27,.32-.4,.48-1.27,1.45-2.94,2.66-4.71,3.94-1.1,.79-2.23,1.61-3.34,2.53-1.53,1.28-3.29,2.39-5.14,3.57-.83,.53-1.69,1.08-2.54,1.64-.41,.27-.81,.55-1.21,.83-.88,.61-1.71,1.19-2.51,1.62-3.94,2.1-7.35,4.83-10.51,7.44-.55,.45-1.08,.92-1.62,1.39-1.69,1.48-3.29,2.88-5.06,3.46l-1.08,.36-.25,.29c-.16-1.72-.26-3.4-.22-5.07,.05-1.88-.17-3.63-.38-5.33-.22-1.8-.44-3.51-.27-5.06l.1-.95-.34-.9c-1.04-2.74-.77-5.97-.33-9.05,.66-4.61,.59-9.13,.53-13.5-.04-2.51-.07-4.88,.02-7.27,.03-.84,.18-6.85,.16-12.82-.03-8.02-.31-11.41-.73-13.1,.1-.68,.21-1.36,.31-2.04l.26-1.69c.14-.95,.08-1.8,.03-2.43-.01-.15-.03-.34-.03-.48,.48-.81,.71-1.76,.72-2.88,0-1,.05-2.02,.09-3.1,.11-2.78,.23-5.66-.29-8.59-.38-2.14-.4-4.32-.42-6.64,0-.47,0-.93-.01-1.4-.03-2.12-.38-4.04-.71-5.89l-.06-.33c-.04-.23-.03-.68-.02-1.12,.03-1.17,.08-2.88-.72-4.7,0-.05,0-.09,.01-.13,.05-.52,.12-1.24,.05-2.04-.03-.31,0-.79,.03-1.3,.08-1.28,.2-3.08-.54-4.96,.92-2.44,.71-4.81,.56-6.62-.03-.39-.07-.77-.09-1.14-.08-1.53,.28-2.5,2.62-4.14,4.15-2.93,8.19-5.81,12.06-8.92,3.79-3.05,7.73-5.85,11.09-8.19,2.06-1.44,4.22-2.86,6.31-4.24,2.44-1.61,4.96-3.27,7.41-5.01,.79-.56,1.47-1.17,2.09-1.74m3.64-7.42c-.3,0-1.3,.62-3.45,2.01-1.72,1.12-2.97,2.74-4.59,3.88-4.49,3.18-9.17,6.08-13.69,9.22-3.85,2.68-7.66,5.42-11.31,8.35-3.84,3.09-7.85,5.94-11.86,8.77-2.74,1.93-4.5,4.03-4.31,7.62,.12,2.29,.66,4.71-.59,6.95-.2,.35-.21,1.02,0,1.34,1.25,1.88,.45,3.95,.64,5.92,.1,1.02-.35,2.27,.09,3.05,.98,1.74,.33,3.53,.64,5.25,.33,1.85,.69,3.66,.71,5.56,.04,2.89-.03,5.75,.49,8.68,.63,3.55,.16,7.31,.14,10.97,0,.31-.04,.69-.21,.94-.94,1.35-.26,2.86-.47,4.28-.23,1.51-.46,3.02-.69,4.53-.02,.11-.05,.27,0,.34,1.2,1.62,.71,23.49,.64,25.22-.26,6.78,.47,13.55-.51,20.36-.51,3.57-.83,7.42,.55,11.04-.39,3.61,.72,7.15,.63,10.72-.1,4.17,.58,8.23,.95,12.54,1.75-1.88,4.28-2.35,5.85-4.23,3.21-1.06,5.5-3.52,7.97-5.57,3.13-2.59,6.26-5.08,9.85-7,1.42-.76,2.72-1.75,4.06-2.65,2.69-1.8,5.55-3.41,8.02-5.47,2.81-2.34,6.07-4.12,8.51-6.91,.83-.95,1.64-2.13,2.72-2.55,.89-.35,.93-.68,.96-1.37,.09-2.21-.38-4.47,.65-6.6,.18-.38,.22-1.12,0-1.33-1.14-1.05-.62-2.35-.63-3.53-.06-4.13-.06-28.25,0-32.37,.02-1.18-.53-2.52,.67-3.5-.02-2.29,.38-4.68-.15-6.83-.61-2.45-.73-4.94-1.17-7.39-.41-2.28,.08-4.6-.62-6.96-.57-1.89-.02-4.1-.14-6.15-.12-2.09-.65-4.17-.61-6.25,.04-3.11,.59-6.23,.61-9.34,.07-15.81,.04-31.63,.02-47.44,0-1.34-.1-2.69-.26-4.02,0-.05-.04-.08-.1-.08h0Z"/>
      </g>
      <g>
        <path class="cls-5" d="M260.34,174.25c-.32-2.88-.62-5.61-.55-8.38,.04-1.73-.16-3.41-.37-5.03-.24-1.92-.46-3.74-.27-5.52l.05-.48-.17-.45c-1.23-3.24-.87-6.89-.44-10.06,.62-4.54,.56-9.07,.51-13.44-.03-2.45-.06-4.99,.03-7.46,.01-.28,.03-.57,.06-.86,.1-1.29,.24-2.99-.66-4.61l.62-4.04c.11-.73,.06-1.4,.02-1.99-.06-.81-.07-1.19,.11-1.45,.38-.53,.56-1.21,.57-2.07,0-.76,.03-2.12,.06-3.84,.16-9.36,.28-18.73-.23-21.5-.43-2.36-.44-4.68-.44-7.14,0-.51,0-1.03,0-1.55-.02-1.52-.28-2.9-.52-4.24-.08-.43-.16-.86-.23-1.29-.07-.44-.06-.96-.04-1.51,.03-1.22,.07-2.73-.76-4.28,0-.17,.02-.51,.05-.74,.05-.49,.1-1.04,.05-1.63-.05-.48-.01-1.04,.03-1.63,.09-1.39,.21-3.1-.74-4.79,1.12-2.25,.93-4.49,.76-6.47-.04-.41-.07-.82-.09-1.23-.13-2.46,.78-4,3.46-5.88,3.89-2.74,8.01-5.67,11.97-8.84,3.95-3.17,8.06-6.08,11.2-8.27,2.1-1.46,4.29-2.9,6.4-4.3,2.41-1.59,4.9-3.23,7.31-4.93,.87-.61,1.6-1.31,2.32-1.98,.74-.7,1.43-1.35,2.2-1.85,.21-.13,.45-.29,.71-.46,.01,.29,.02,.58,.02,.87v6.09c.02,13.55,.04,27.56-.02,41.33,0,1.51-.15,3.02-.3,4.62-.14,1.53-.29,3.11-.31,4.71-.02,1.35,.16,2.64,.34,3.9,.12,.87,.23,1.69,.28,2.49,.03,.64,0,1.34-.05,2.09-.09,1.4-.19,2.99,.28,4.53,.32,1.08,.33,2.23,.35,3.46,.01,1.05,.02,2.14,.22,3.27,.17,.97,.32,5.24,.44,9.01,.23,6.82,.4,11.07,.76,12.52,.3,1.21,.23,2.63,.16,4.13-.02,.48-.05,.96-.06,1.44-.94,1.29-.8,2.75-.72,3.6,.02,.22,.05,.44,.04,.66-.06,4.29-.06,8.47,0,12.42,0,.22-.02,.44-.04,.66-.08,.92-.22,2.39,.79,3.74-1.03,1.83-.89,3.69-.78,5.19,.04,.51,.07,1,.06,1.44,0,0,0,0,0,0-.09,.06-.39,.27-.39,.27-2.67,1.82-5.32,3.72-7.89,5.55-2.16,1.54-4.32,3.09-6.5,4.6l-1.1,.76c-2.73,1.87-5.55,3.81-8.05,6.24-.58,.56-1.34,1.04-2.16,1.54-.63,.39-1.27,.79-1.9,1.27-.86,.66-1.68,1.36-2.47,2.04-.63,.54-1.26,1.09-1.91,1.6-.52,.42-1.04,.83-1.56,1.25-2.36,1.9-4.6,3.7-7.13,5.18-1,.58-2.13,1.24-3.29,2-.01-.09-.02-.19-.03-.28Z"/>
        <path class="cls-1" d="M301.3,14.23v2.78c.02,13.54,.03,27.55-.03,41.32,0,1.42-.14,2.89-.29,4.44-.15,1.57-.3,3.19-.32,4.87-.02,1.5,.18,2.94,.36,4.2,.11,.83,.22,1.61,.26,2.32,.03,.53-.01,1.18-.05,1.86-.1,1.57-.21,3.35,.35,5.22,.24,.81,.25,1.78,.26,2.91,.01,1.08,.02,2.3,.25,3.6,.15,.89,.3,5.42,.41,8.72,.26,7.6,.42,11.35,.81,12.93,.23,.93,.17,2.21,.1,3.56-.01,.3-.03,.6-.04,.91-.98,1.73-.81,3.52-.73,4.42,.01,.16,.04,.37,.04,.43-.06,4.31-.06,8.51,0,12.49,0,.08-.02,.29-.03,.45-.08,.88-.23,2.44,.53,4.04-.76,1.98-.62,3.87-.52,5.22,0,.09,.01,.18,.02,.27-2.51,1.72-5,3.5-7.41,5.22-2.12,1.52-4.31,3.08-6.48,4.58l-1.09,.75c-2.8,1.92-5.69,3.91-8.32,6.46-.42,.41-1.1,.83-1.82,1.27-.64,.39-1.36,.84-2.07,1.38-.91,.69-1.75,1.42-2.56,2.11-.64,.55-1.24,1.07-1.85,1.55-.53,.42-1.05,.84-1.58,1.26-2.3,1.85-4.48,3.61-6.89,5.01-.21,.12-.42,.24-.62,.36-.17-1.78-.28-3.51-.24-5.24,.05-1.88-.17-3.63-.38-5.33-.22-1.8-.43-3.51-.27-5.06l.1-.95-.34-.89c-1.06-2.8-.73-6.16-.33-9.08,.64-4.69,.58-9.29,.53-13.74-.03-2.54-.06-4.94,.03-7.36,0-.25,.03-.51,.05-.77,.1-1.25,.25-3.15-.58-5.08l.17-1.09,.36-2.35c.14-.95,.08-1.81,.03-2.43-.01-.15-.03-.34-.03-.49,.47-.81,.71-1.78,.72-2.88,0-.75,.03-2.11,.06-3.82,.2-11.83,.23-19.21-.26-21.89-.4-2.18-.4-4.41-.41-6.77,0-.52,0-1.04,0-1.57-.02-1.69-.31-3.22-.56-4.58-.08-.41-.16-.83-.22-1.24-.04-.25-.03-.69-.02-1.14,.03-1.19,.07-2.91-.73-4.74,0-.05,0-.1,.01-.14,.05-.52,.12-1.24,.05-2.03-.03-.32,0-.79,.03-1.3,.09-1.28,.21-3.09-.54-4.96,.91-2.43,.71-4.8,.56-6.61-.03-.39-.07-.78-.09-1.16-.08-1.51,.29-2.52,2.61-4.15,3.91-2.75,8.07-5.71,12.07-8.92,3.9-3.13,7.98-6.02,11.1-8.19,2.08-1.45,4.25-2.88,6.36-4.27,2.42-1.6,4.93-3.25,7.36-4.97,.79-.56,1.48-1.17,2.09-1.75m3.64-7.41c-.3,0-1.32,.63-3.46,2.01-1.72,1.11-2.97,2.74-4.58,3.88-4.49,3.17-9.18,6.08-13.69,9.22-3.85,2.68-7.66,5.42-11.31,8.35-3.84,3.09-7.85,5.94-11.86,8.77-2.75,1.93-4.49,4.03-4.3,7.62,.12,2.29,.66,4.71-.59,6.95-.2,.35-.21,1.02,0,1.34,1.25,1.88,.45,3.95,.64,5.92,.1,1.02-.35,2.26,.09,3.05,.97,1.74,.35,3.53,.63,5.25,.29,1.73,.71,3.41,.73,5.22,.03,3-.08,5.97,.48,9.02,.65,3.55,.16,21.31,.14,24.97,0,.31-.04,.69-.21,.94-.94,1.35-.25,2.86-.47,4.28-.23,1.51-.46,3.02-.69,4.53-.02,.11-.05,.27,0,.34,1.14,1.5,.71,3.25,.65,4.87-.26,6.89,.43,13.79-.52,20.71-.49,3.57-.82,7.42,.55,11.04-.39,3.61,.72,7.15,.63,10.71-.1,4.17,.59,8.23,.94,12.41,1.87-1.59,3.94-2.82,5.93-3.98,3.25-1.89,6.04-4.3,8.93-6.59,1.48-1.17,2.85-2.48,4.35-3.62,1.37-1.05,3.02-1.78,4.24-2.97,2.7-2.63,5.82-4.66,8.89-6.79,4.82-3.34,9.53-6.84,14.38-10.14,.8-.54,1.24-.8,1.27-1.88,.05-1.97-.61-4.03,.6-5.93,.26-.41,.28-1.37,0-1.65-1.12-1.08-.6-2.36-.62-3.54-.06-4.12-.06-8.25,0-12.37,.01-1.18-.52-2.52,.66-3.5-.02-2.29,.38-4.67-.15-6.83-.61-2.45-.74-18.94-1.17-21.39-.4-2.27,.08-4.6-.62-6.96-.57-1.89-.03-4.09-.14-6.15-.12-2.09-.64-4.17-.61-6.25,.04-3.12,.59-6.23,.61-9.34,.07-15.81,.04-31.62,.02-47.44,0-1.34-.11-2.69-.26-4.02,0-.05-.04-.07-.1-.07h0Z"/>
      </g>
      <g>
        <path class="cls-5" d="M305.56,179.72c-1.47,0-2.95-.19-4.52-.4-1.62-.21-3.3-.43-5.03-.43-.61,0-1.18,.03-1.74,.08-1.7-.59-3.36-.67-4.65-.67-.57,0-1.14,.02-1.71,.04-.53,.02-1.06,.03-1.59,.03s-1.02-.02-1.45-.06c-.23-.02-.45-.03-.68-.03-.45,0-.91,.04-1.37,.08-.34,.03-.68,.06-1.02,.06-.59,0-.84-.12-1.07-.31-.4-.34-.95-.53-1.56-.53-.44,0-1.26,.1-1.86,.78-.02,.02-.07,.04-.23,.04-.21,0-.42-.02-.63-.04-.34-.03-.68-.06-1.01-.06-.09,0-.17,0-.26,0-.45,.02-.91,.03-1.36,.03s-.86,0-1.29-.01c-.45,0-.9-.01-1.35-.01-.62,0-1.25,.01-1.87,.05-.56,.03-1.11,.09-1.65,.16,.4-.26,.8-.51,1.21-.77,1.8-1.15,3.66-2.33,5.42-3.71,1.88-1.48,3.75-3.03,5.56-4.52,3.16-2.62,6.43-5.33,9.83-7.71,1.28-.9,2.62-1.77,3.91-2.62,1.46-.96,2.98-1.94,4.44-2.98,.68-.49,1.37-.97,2.05-1.45,2.07-1.45,4.22-2.96,6.25-4.59,.74-.6,1.27-.84,1.8-.84,1.66,.08,3.27,.12,5.01,.12,4.08,0,8.2-.22,12.18-.42,3.93-.21,8-.42,11.97-.42,1,0,2,.01,3,.04,.46,.01,.93,.02,1.39,.02,.6,0,1.2,0,1.81-.02,.58,0,1.17-.02,1.75-.02,.86,0,1.56,.02,2.2,.06,.2,.01,.4,.02,.6,.02,1.19,0,2.27-.21,3.31-.41,.68-.13,1.32-.25,1.94-.31,.18-.01,.36-.02,.54-.02,.45,0,.91,.03,1.36,.06,.54,.04,1.08,.07,1.61,.07,.93,0,1.69-.1,2.4-.33,1.34-.42,2.73-.48,3.91-.48,.5,0,1,.01,1.49,.02,.53,.01,1.05,.02,1.58,.02,.74,0,1.35-.02,1.94-.07,1.38-.11,2.76-.22,4.14-.33-2.23,1.69-4.38,3.31-6.55,4.88-2.3,1.66-4.7,3.29-7.02,4.86-1.3,.89-2.61,1.77-3.91,2.67-1.5,1.04-3.21,2.22-4.84,3.45-1.29,.98-2.61,1.92-3.92,2.87-1.93,1.39-3.93,2.83-5.82,4.35-1.18,.94-2.41,1.8-3.72,2.71-2.28,1.58-4.64,3.22-6.67,5.35-.65,.68-1.35,.98-2.27,.98h0c-.1,0-.2,0-.3-.01-.24-.02-.49-.02-.73-.02-.22,0-.44,0-.66,.01-.19,0-.56,0-.56,0-.15,0-.3,0-.45-.01-1.11-.07-2.25-.11-3.48-.11-2.97,0-5.94,.22-8.81,.43-2.15,.16-4.36,.32-6.53,.39-.16,0-.33,0-.49,0Z"/>
        <path class="cls-1" d="M363.14,149.27c.48,0,.97,.01,1.45,.02,.39,0,.77,.02,1.16,.02-.39,.29-.78,.57-1.18,.85-2.28,1.64-4.67,3.27-6.98,4.84-1.31,.89-2.61,1.78-3.91,2.68-1.52,1.05-3.23,2.24-4.92,3.51-1.26,.96-2.59,1.91-3.88,2.84-1.95,1.41-3.97,2.86-5.9,4.41-1.13,.9-2.33,1.74-3.61,2.63-2.36,1.64-4.8,3.34-6.98,5.62-.27,.28-.45,.36-.82,.36-.06,0-.11,0-.16,0-.29-.02-.58-.03-.87-.03-.23,0-.47,0-.7,.01-.17,0-.34,0-.52,0-.11,0-.21,0-.32,0-1.16-.08-2.34-.11-3.61-.11-3.04,0-6.05,.22-8.96,.43-2.22,.16-4.32,.32-6.45,.38-.14,0-.28,0-.42,0-1.34,0-2.76-.19-4.26-.38-1.69-.22-3.43-.45-5.29-.45-.52,0-1.01,.02-1.5,.05-1.82-.56-3.54-.64-4.89-.64-.59,0-1.18,.02-1.78,.04-.51,.02-1.02,.03-1.53,.03s-.9-.02-1.26-.05c-.28-.03-.56-.04-.87-.04-.57,0-1.09,.05-1.55,.09-.31,.03-.61,.05-.82,.06-.74-.55-1.65-.84-2.64-.84-.97,0-1.87,.27-2.6,.78-.32-.03-.7-.07-1.13-.07-.12,0-.24,0-.35,0-.16,0-.33,.01-.5,.02,.32-.24,.64-.48,.95-.72,1.91-1.5,3.78-3.05,5.6-4.56,3.28-2.71,6.37-5.28,9.7-7.62,1.25-.88,2.58-1.74,3.86-2.58,1.48-.97,3.01-1.97,4.5-3.03,.68-.48,1.36-.96,2.04-1.44,2.1-1.47,4.27-3,6.36-4.67,.35-.28,.52-.37,.58-.4,1.59,.08,3.21,.12,4.97,.12,4.13,0,8.28-.22,12.29-.43,3.91-.2,7.94-.42,11.87-.42,1.01,0,2,.01,2.94,.04,.48,.01,.97,.02,1.45,.02,.61,0,1.22,0,1.83-.02,.57,0,1.15-.02,1.72-.02,.82,0,1.48,.02,2.08,.06,.24,.02,.49,.02,.73,.02,1.38,0,2.61-.24,3.69-.44,.63-.12,1.22-.23,1.73-.28,.12-.01,.25-.01,.38-.01,.36,0,.78,.03,1.23,.06,.53,.04,1.12,.08,1.74,.08,1.12,0,2.11-.14,3-.42,1.08-.34,2.28-.39,3.31-.39m14.04-4.72c-.2,0-.37,0-.54,.02-2.88,.22-5.77,.45-8.65,.68-.59,.05-1.19,.06-1.78,.06-1.02,0-2.05-.04-3.07-.04-1.5,0-3.01,.1-4.52,.57-.57,.18-1.17,.24-1.79,.24-.97,0-1.98-.13-2.97-.13-.24,0-.47,0-.7,.03-1.7,.14-3.34,.71-5.09,.71-.16,0-.32,0-.48-.01-.77-.05-1.55-.06-2.33-.06-1.18,0-2.37,.03-3.55,.03-.44,0-.89,0-1.33-.02-1.02-.03-2.04-.04-3.06-.04-8.06,0-16.1,.84-24.16,.84-1.6,0-3.21-.03-4.81-.11-.07,0-.13,0-.2,0-1.21,0-2.17,.57-3.05,1.28-2.64,2.12-5.46,4.01-8.21,5.97-2.71,1.93-5.59,3.67-8.34,5.59-5.42,3.8-10.3,8.23-15.48,12.31-2.92,2.3-6.17,4.04-9.17,6.19-.94,.67-1.8,1.27-2.96,2.37,.92,0,1.61,.03,2.22,.03,.38,0,.72-.01,1.06-.04,1.74-.18,3.47-.54,5.22-.65,.58-.03,1.16-.05,1.75-.05,.88,0,1.76,.02,2.64,.02,.48,0,.97,0,1.45-.03,.06,0,.11,0,.17,0,.54,0,1.1,.11,1.64,.11,.61,0,1.21-.14,1.72-.71,.06-.07,.22-.1,.37-.1,.11,0,.22,.02,.27,.07,.74,.62,1.54,.77,2.35,.77s1.6-.14,2.39-.14c.17,0,.33,0,.49,.02,.54,.05,1.09,.07,1.64,.07,1.1,0,2.2-.07,3.3-.07,1.48,0,2.96,.12,4.39,.71,.67-.09,1.33-.12,1.99-.12,3.2,0,6.35,.83,9.55,.83,.18,0,.37,0,.55,0,5.1-.16,10.18-.82,15.28-.81,1.11,0,2.23,.03,3.34,.11,.2,.01,.39,.02,.59,.02,.41,0,.81-.02,1.22-.02,.2,0,.4,0,.6,.02,.15,.01,.3,.02,.44,.02,1.45,0,2.68-.51,3.72-1.6,2.99-3.14,6.84-5.2,10.19-7.88,3.11-2.5,6.48-4.75,9.69-7.18,1.56-1.18,3.17-2.29,4.78-3.41,3.65-2.52,7.36-4.96,10.96-7.56,3.81-2.75,7.53-5.64,11.8-8.85-.74,0-1.19-.01-1.53-.01h0Z"/>
      </g>
      <g>
        <path class="cls-5" d="M231.59,39.22c-.8,0-1.61-.03-2.41-.05l-1.22-.04c-.82-.02-1.67-.16-2.58-.3-.82-.13-1.67-.26-2.55-.32-.22-.01-.45-.02-.67-.02-.52,0-1.06,.04-1.59,.07-.43,.03-.86,.06-1.28,.06-.46,0-.8-.04-1.06-.13-1.68-.58-3.28-.66-4.76-.66-.33,0-1.62,.02-1.93,.02-.48,0-.97,0-1.45-.05-.52-.04-1.06-.06-1.76-.06h-1.71c-1.28,.01-2.34-.06-3.35-.41-.91-.32-1.79-.48-2.59-.48-1.1,0-2.11,.3-2.95,.88,0,0-2.25,.02-3.2,.03,.43-.42,.85-.8,1.27-1.04,1.26-.7,2.27-1.64,3.25-2.55,.55-.51,1.08-1,1.62-1.41,1.32-1.02,2.66-2.01,4.01-3,2.15-1.59,4.36-3.23,6.48-4.96,1.96-1.61,3.97-3.12,6.16-4.63l1.63-1.13c3.09-2.16,6.01-4.19,9.27-5.75,1.72-.82,3.69-1.82,5.36-3.21,1.1-.92,2.15-1.31,3.5-1.31,.09,0,.19,0,.28,0,.98,.04,1.96,.05,2.93,.05,3.59,0,7.21-.21,10.71-.42,3.44-.2,7-.41,10.48-.41,1.44,0,2.78,.03,4.07,.11,.48,.03,.97,.04,1.45,.04s1.01-.01,1.51-.04c1.33-.06,2.66-.09,4-.12,3.29-.07,6.7-.13,10.03-.74,2.32-.42,4.61-.42,7.04-.43,1.14,0,2.28,0,3.42-.05,1.1-.04,2.13-.24,3.13-.43-4.8,3.75-9.25,6.89-13.74,9.71-2.05,1.29-3.96,2.74-5.81,4.14-1.08,.82-2.15,1.63-3.26,2.42-1.52,1.08-3.01,2.18-4.5,3.29-1.56,1.16-3.12,2.31-4.71,3.43-1.31,.92-2.59,1.91-3.83,2.87-.92,.71-1.83,1.41-2.76,2.1-.83,.61-1.6,1.27-2.34,1.9-.59,.51-1.19,1.02-1.81,1.49-.79,.6-1.33,.84-1.92,.84-1.53-.04-3-.08-4.46-.08-1.33,0-2.53,.03-3.67,.08-.42,.02-.84,.03-1.27,.03s-.82,0-1.23-.01c-.43,0-.86-.01-1.29-.01-1.24,0-2.72,.05-4.27,.39-1.01,.22-2.18,.32-3.68,.32Z"/>
        <path class="cls-1" d="M289.5,8.8c-2.77,2.01-5.47,3.83-8.18,5.53-2.12,1.34-4.07,2.81-5.95,4.24-1.1,.83-2.14,1.62-3.21,2.38-1.54,1.09-3.06,2.22-4.54,3.31-1.53,1.13-3.11,2.3-4.67,3.4-1.34,.95-2.64,1.95-3.9,2.92-.9,.69-1.82,1.4-2.73,2.07-.89,.65-1.68,1.33-2.45,1.99-.6,.51-1.16,.99-1.72,1.42-.54,.42-.7,.43-.72,.43,0,0,0,0,0,0-1.31-.04-2.86-.08-4.44-.08-1.36,0-2.6,.03-3.77,.09-.34,.02-.72,.02-1.17,.02-.4,0-.8,0-1.2-.01-.44,0-.88-.01-1.32-.01-1.35,0-2.96,.05-4.7,.43-.86,.19-1.89,.28-3.25,.28-.76,0-1.53-.03-2.35-.05-.41-.01-.83-.03-1.24-.04-.69-.02-1.48-.14-2.32-.28-.86-.14-1.76-.28-2.73-.34-.27-.02-.53-.03-.8-.03-.62,0-1.21,.04-1.73,.08-.42,.03-.81,.06-1.13,.06-.28,0-.4-.02-.41-.02,0,0,0,0,0,0-1.97-.68-3.84-.77-5.42-.77-.34,0-.68,0-1.02,0-.3,0-.61,0-.91,0-.52,0-.93-.01-1.29-.04-.58-.05-1.17-.07-1.92-.07-.3,0-.6,0-.9,0-.27,0-.54,0-.81,0-1.08,0-1.95-.05-2.7-.31-.92-.32-1.81-.51-2.66-.57,.22-.19,.43-.37,.63-.53,1.3-1,2.66-2.01,3.97-2.98,2.17-1.6,4.4-3.26,6.56-5.03,1.91-1.57,3.89-3.06,6.03-4.53,.55-.38,1.09-.76,1.63-1.14,3.02-2.11,5.88-4.1,8.99-5.59,1.83-.88,3.93-1.94,5.78-3.48,.75-.62,1.33-.84,2.22-.84,.07,0,.14,0,.21,0,.96,.03,1.97,.05,3,.05,3.65,0,7.3-.22,10.83-.42,3.41-.2,6.94-.41,10.36-.41,1.41,0,2.7,.03,3.97,.1,.5,.03,1.02,.04,1.55,.04s1.06-.01,1.6-.04c1.29-.06,2.58-.09,3.95-.11,3.37-.07,6.86-.14,10.35-.77,2.12-.38,4.3-.39,6.61-.4m9.68-4.9c-2.11,0-4.15,.76-6.26,.85-3.57,.14-7.11-.14-10.73,.51-4.5,.81-9.17,.61-13.77,.82-.47,.02-.94,.03-1.41,.03-.45,0-.89-.01-1.33-.03-1.39-.08-2.79-.11-4.18-.11-7.07,0-14.12,.83-21.19,.83-.95,0-1.9-.02-2.86-.05-.12,0-.24,0-.35,0-1.83,0-3.32,.55-4.78,1.77-1.46,1.21-3.22,2.11-4.94,2.94-4.01,1.92-7.54,4.54-11.17,7.04-2.17,1.5-4.26,3.06-6.29,4.73-3.37,2.77-6.98,5.26-10.43,7.93-1.58,1.22-2.91,2.84-4.63,3.8-1.75,.98-2.72,2.93-4.72,3.51-.18,.05-.27,.56-.29,.87,0,.14,.27,.42,.42,.42,.11,0,.21,0,.32,0,2.63,0,5.26-.03,7.89-.05,.66-.66,1.46-.87,2.23-.87,.7,0,1.38,.18,1.94,.37,1.34,.46,2.68,.53,4.01,.53,.57,0,1.14-.01,1.7-.01,.53,0,1.07,.01,1.6,.05,.54,.04,1.07,.06,1.61,.06,.64,0,1.29-.02,1.93-.02,1.36,0,2.73,.08,4.11,.55,.54,.19,1.11,.24,1.71,.24,.93,0,1.91-.14,2.86-.14,.18,0,.36,0,.54,.02,1.75,.12,3.47,.58,5.21,.63,1.22,.03,2.46,.09,3.69,.09,1.39,0,2.78-.08,4.1-.37,1.29-.28,2.57-.34,3.84-.34,.84,0,1.68,.02,2.52,.02,.46,0,.91,0,1.37-.03,1.19-.06,2.38-.08,3.57-.08,1.44,0,2.89,.03,4.33,.08,.04,0,.09,0,.13,0,1.25,0,2.22-.55,3.14-1.25,1.41-1.08,2.69-2.32,4.11-3.37,2.21-1.62,4.34-3.38,6.56-4.94,3.11-2.19,6.11-4.52,9.22-6.72,3.01-2.14,5.82-4.51,8.97-6.49,6.42-4.04,12.5-8.58,18.72-13.69-.51,0-.87,.03-1.17,.03-.17,0-.32,0-.47-.04-.46-.08-.91-.12-1.35-.12h0Z"/>
      </g>
      <g>
        <path class="cls-5" d="M109.95,36.41c4.36-2.26,8.04-4.22,11.77-6.5,2.31-1.42,4.76-2.57,7.34-3.8,1.19-.57,2.39-1.13,3.57-1.72,.5-.25,1.03-.48,1.55-.71,1.45-.63,2.94-1.28,4.2-2.41,.69-.61,1.59-1.05,2.54-1.51,1.23-.6,2.63-1.27,3.81-2.46,.14-.05,.44-.11,.64-.15,.58-.12,1.29-.27,1.97-.65,1.23-.71,2.49-1.32,3.83-1.97,1.06-.52,2.15-1.05,3.22-1.63,1.25-.68,2.48-1.4,3.66-2.11,1-.59,2-1.18,3.01-1.75,.24-.14,.6-.22,.9-.23,1.21-.01,2.43-.02,3.64-.02h3.15c1.63,0,3.27,0,4.9-.03h0c.23,0,.44,.03,.65,.05,.35,.04,.71,.07,1.06,.07,.91,0,1.71-.22,2.39-.67,.77,.23,1.59,.34,2.47,.34,1.06,0,2.05-.15,3.02-.3,.86-.13,1.67-.26,2.43-.26,.21,0,.41,0,.62,.03,1.3,.14,2.69,.2,4.27,.2h0c1.2,0,2.4-.04,3.58-.09-.94,.6-1.86,1.21-2.77,1.85-4.07,2.83-8.53,5.27-12.83,7.62l-1.06,.58c-2.04,1.12-3.88,2.54-5.66,3.91-.66,.51-1.33,1.02-2,1.52-1.26,.92-2.51,1.86-3.76,2.8-1.46,1.09-2.91,2.18-4.38,3.25-.51,.37-1.04,.71-1.57,1.05-.95,.61-1.93,1.23-2.83,2.04-.88,.78-1.74,1.34-2.73,1.77-.13,.06-.26,.12-.38,.19,0,0,0,0,0,0,0,0,.02,0,.03,0-1.05,.29-1.54,1.06-1.78,1.67-.48-.03-.97-.05-1.46-.07-1.24-.05-2.41-.09-3.54-.26-1.17-.17-2.72-.37-4.3-.37-1.49,0-2.83,.17-4.11,.51-.05,.01-.79,.15-4.46,.15-4.22,0-9.69-.18-10.7-.27-1.47-.13-3-.2-4.54-.2s-3,.06-4.52,.18c-.42,.03-.81,.12-1.19,.2-.33,.07-.68,.14-.91,.15-.44,.01-.88,.01-1.31,.01h-1.43Z"/>
        <path class="cls-1" d="M185.68,9.98c.15,0,.28,0,.41,.02,.47,.05,.95,.09,1.44,.12-3.17,2.01-6.48,3.82-9.94,5.72l-1.07,.59c-2.18,1.2-4.08,2.66-5.92,4.08-.65,.5-1.3,1.01-1.96,1.49-1.26,.93-2.52,1.87-3.77,2.81-1.43,1.07-2.9,2.18-4.36,3.24-.44,.32-.94,.64-1.46,.98-.97,.62-2.06,1.32-3.08,2.23-.71,.64-1.41,1.09-2.19,1.43-.13,.06-.26,.12-.4,.19-.68,.24-1.43,.67-2.04,1.44-.09,0-.19,0-.28-.01-1.18-.05-2.3-.09-3.33-.24-1.24-.18-2.88-.39-4.59-.39-1.61,0-3.08,.18-4.5,.55-.23,.03-1.17,.11-4.07,.11-4.4,0-9.65-.18-10.52-.26-1.53-.14-3.11-.21-4.71-.21-.14,0-.27,0-.41,0,1.29-.73,2.57-1.48,3.85-2.26,2.22-1.36,4.62-2.5,7.15-3.7,1.18-.56,2.4-1.14,3.61-1.74,.44-.22,.93-.44,1.46-.66,1.52-.66,3.24-1.41,4.74-2.75,.48-.43,1.22-.78,2.08-1.2,1.18-.57,2.62-1.26,3.93-2.45,.02,0,.03,0,.05-.01,.68-.14,1.61-.33,2.56-.88,1.17-.67,2.4-1.27,3.71-1.91,1.08-.53,2.19-1.07,3.29-1.67,1.29-.7,2.53-1.43,3.74-2.15,1-.59,1.95-1.16,2.92-1.7,1.2-.01,2.41-.02,3.61-.02h1.57s1.58,0,1.58,0c1.46,0,3.19,0,4.92-.03,.07,0,.28,.02,.43,.04,.35,.04,.78,.08,1.27,.08,1.05,0,1.93-.22,2.66-.54,.7,.14,1.43,.21,2.2,.21,1.21,0,2.33-.17,3.32-.33,.78-.12,1.52-.23,2.13-.23m14.24-4.55c-1.52,0-2.81,.57-4.14,.63-1.73,.08-3.47,.16-5.2,.16-1.36,0-2.72-.05-4.06-.19-.28-.03-.56-.04-.83-.04-1.83,0-3.64,.56-5.45,.56-.81,0-1.62-.11-2.43-.44-.11-.04-.26-.07-.39-.07-.12,0-.23,.02-.27,.07-.52,.62-1.13,.76-1.76,.76-.56,0-1.15-.12-1.69-.12-.02,0-.04,0-.05,0-1.62,.03-3.24,.03-4.87,.03-1.05,0-2.1,0-3.15,0-1.22,0-2.44,0-3.66,.02-.63,0-1.31,.18-1.85,.48-2.24,1.24-4.4,2.63-6.66,3.85-2.33,1.26-4.78,2.3-7.09,3.63-.9,.52-2.31,.38-2.96,1.06-1.79,1.87-4.42,2.25-6.33,3.96-1.45,1.3-3.52,1.92-5.32,2.82-3.7,1.85-7.55,3.45-11.06,5.6-4.01,2.46-8.16,4.62-12.32,6.78-2.24,1.16-4.44,2.41-6.66,3.62,.61,.35,1.31,.61,1.81,.61,.22,0,.41-.05,.54-.17,.59-.54,1.21-.65,1.83-.65,.4,0,.81,.05,1.21,.05,.06,0,.11,0,.17,0,.61-.02,1.22-.03,1.83-.03,.77,0,1.53,0,2.3,0,.45,0,.91,0,1.36-.01,.75-.02,1.56-.3,2.22-.35,1.45-.12,2.9-.18,4.36-.18s2.91,.06,4.35,.19c1.12,.1,6.63,.28,10.88,.28,2.39,0,4.39-.06,4.98-.21,1.19-.32,2.39-.44,3.59-.44,1.33,0,2.67,.15,4.01,.35,1.99,.29,4.02,.24,6.03,.4,.04,0,.08,0,.12,0,1.21,0,.57-1.57,1.48-1.81,.2-.05,.38-.19,.58-.27,1.21-.52,2.26-1.22,3.27-2.11,1.28-1.14,2.85-1.94,4.25-2.96,2.73-1.99,5.42-4.05,8.14-6.06,2.45-1.8,4.79-3.84,7.43-5.29,4.79-2.62,9.58-5.2,14.08-8.32,2.91-2.02,5.98-3.83,9.24-5.89-.65-.22-1.26-.3-1.84-.3h0Z"/>
      </g>
      <g>
        <path class="cls-5" d="M49.45,177.05c-.24,0-.49-.03-.73-.06-.39-.04-.77-.08-1.14-.08h-.19c-1.67,.06-3.34,.08-4.96,.08-1.52,0-3.04-.02-4.52-.07-1.02-.03-2.06-.19-3.16-.35-1.33-.2-2.7-.4-4.14-.4-.58,0-1.13,.03-1.66,.1l-.86,.11c-1.81,.23-3.51,.45-5.24,.55-.54,.03-1.08,.04-1.62,.04,4.01-2.09,7.93-4.18,11.8-6.55,2.31-1.41,4.74-2.56,7.32-3.78,1.2-.57,2.4-1.13,3.59-1.72,.43-.22,.87-.43,1.3-.64,1.39-.68,2.82-1.38,4.2-2.2,1.09-.65,2.14-1.36,3.15-2.05,1.05-.71,2.04-1.38,3.07-1.99,.19-.11,.58-.21,.96-.3,.61-.15,1.31-.32,2-.71,1.23-.71,2.49-1.32,3.83-1.97,1.06-.52,2.15-1.05,3.22-1.63,1.25-.68,2.49-1.41,3.68-2.11,.99-.59,1.99-1.18,2.99-1.74,.24-.13,.6-.22,.9-.23,1.49-.01,2.98-.02,4.47-.02h2.29c1.87,0,3.74,0,5.61-.03h.73c.69,0,1.51-.05,2.4-.43,.02,2.17,.02,4.35,.02,6.52,0,1.16,0,2.31,0,3.47-1.86,1.29-3.7,2.65-5.48,3.97-2.57,1.9-5.22,3.87-7.92,5.61-1.35,.87-2.61,1.85-3.82,2.8-1.91,1.49-3.72,2.91-5.79,3.83-.34,.15-.87,.39-1.29,.92-.24,.3-.44,.63-.61,.93,0,0,0,.01-.01,.02-.78,.06-1.58,.11-2.33,.11-.94,0-1.67-.08-2.29-.27-1.4-.41-2.74-.46-3.74-.46-.43,0-.86,.01-1.29,.02-.39,.01-.79,.02-1.18,.02-.58,0-1.04-.02-1.46-.07l-1.06-.13-.7,.82c-.06,.07-.08,.09-.32,.09Z"/>
        <path class="cls-1" d="M86.76,151.28c0,1.37,0,2.74,0,4.09,0,.81,0,1.63,0,2.44-1.59,1.12-3.15,2.28-4.66,3.4-2.66,1.97-5.17,3.83-7.82,5.54-1.43,.92-2.72,1.93-3.97,2.9-1.81,1.42-3.53,2.76-5.38,3.58l-.04,.02h0c-.38,.17-1.27,.57-1.98,1.46-.08,.09-.15,.19-.21,.28-.41,.02-.81,.04-1.19,.04-.74,0-1.3-.06-1.73-.19-1.65-.48-3.16-.54-4.3-.54-.45,0-.9,.01-1.35,.02-.38,0-.75,.02-1.13,.02-.5,0-.88-.02-1.22-.06l-2.13-.26-.82,.96c-.35-.04-.78-.08-1.24-.08-.08,0-.17,0-.25,0-1.65,.05-3.3,.08-4.9,.08-1.5,0-3-.02-4.46-.07-.9-.03-1.88-.18-2.92-.33-1.33-.2-2.84-.43-4.43-.43,1.16-.66,2.31-1.34,3.46-2.04,2.21-1.35,4.6-2.48,7.13-3.67,1.19-.56,2.42-1.14,3.63-1.74,.43-.21,.86-.42,1.29-.63,1.43-.7,2.9-1.42,4.35-2.28,1.14-.68,2.21-1.41,3.25-2.11,.99-.67,1.93-1.31,2.89-1.88,.11-.04,.34-.09,.5-.13,.67-.16,1.59-.39,2.53-.93,1.17-.67,2.4-1.27,3.7-1.91,1.08-.52,2.19-1.07,3.29-1.66,1.29-.7,2.54-1.44,3.75-2.15,1-.59,1.94-1.15,2.9-1.69,1.48-.01,2.96-.02,4.44-.02h1.15s1.15,0,1.15,0c2.08,0,3.84,0,5.63-.03h.09s.26,0,.26,0h.36c.13,0,.27,0,.42,0m2.55-4.69c-.33,0-.71,.1-1.14,.32-.65,.33-1.24,.38-1.83,.38-.2,0-.41,0-.62,0-.05,0-.1,0-.14,0-1.86,.03-3.72,.03-5.57,.03-.77,0-1.53,0-2.3,0-1.5,0-2.99,0-4.49,.02-.62,0-1.31,.18-1.85,.48-2.24,1.24-4.4,2.63-6.65,3.84-2.33,1.26-4.78,2.3-7.08,3.62-.9,.52-2.11,.51-2.99,1.03-2.13,1.26-4.11,2.77-6.23,4.04-1.72,1.03-3.57,1.87-5.37,2.77-3.7,1.85-7.55,3.43-11.06,5.58-4.01,2.45-8.14,4.64-12.3,6.8-2.25,1.17-4.48,2.4-6.8,3.65,.47,.37,.91,.49,1.31,.49,.93,0,1.73-.66,2.58-.69,.49-.02,.98-.03,1.47-.03,.94,0,1.89,.02,2.83,.02,.63,0,1.25-.01,1.88-.05,2.09-.12,4.16-.41,6.24-.67,.47-.06,.94-.08,1.41-.08,2.43,0,4.81,.68,7.23,.76,1.53,.05,3.06,.07,4.58,.07,1.68,0,3.35-.03,5.03-.08,.04,0,.08,0,.12,0,.61,0,1.25,.14,1.87,.14,.66,0,1.3-.15,1.84-.79,.57,.07,1.14,.09,1.7,.09,.82,0,1.65-.04,2.48-.04,1.05,0,2.11,.07,3.18,.38,.9,.26,1.87,.35,2.85,.35,1.07,0,2.17-.1,3.22-.17,.46-.03,.85-1.09,1.3-1.64,.12-.16,.35-.25,.54-.33,3.7-1.65,6.51-4.61,9.88-6.78,4.66-3,8.98-6.51,13.53-9.67,.54-.38,.79-.56,.79-1.16-.01-3.55,.02-7.1-.02-10.64-.01-1.29-.54-2.05-1.43-2.05h0Z"/>
      </g>
      <polygon class="cls-8" points="248.85 176.5 242.83 176.37 236.29 177.02 229.75 177.68 223.22 176.48 216.68 176.96 210.14 176.96 203.6 176.46 197.07 177.21 190.53 177.07 183.99 177.63 177.45 176.55 170.91 176.89 164.37 176.87 157.84 176.47 151.3 177.46 144.76 176.57 138.22 176.49 131.68 176.69 125.14 176.42 118.6 177.47 112.05 177.17 105.5 177.46 98.96 177 99.29 170.56 98.85 164.11 99.18 157.65 99.61 151.2 98.94 144.75 98.06 138.3 98.86 131.84 97.68 125.39 99.13 118.93 97.96 112.48 98.07 106.03 98.5 99.58 97.74 93.13 98.83 86.66 98.12 80.21 98.78 73.75 98.95 67.3 98.31 60.84 97.27 54.39 98.04 48 104.43 47.93 110.89 47.71 117.37 47.79 123.84 47.24 130.31 48.01 136.78 48.59 143.25 47.21 149.72 48.01 156.19 48.09 162.66 48.14 169.14 48.79 175.61 48.69 182.08 48.82 188.55 47.64 195.02 48.37 201.49 47.78 207.97 47.11 214.44 47.04 220.91 47.85 227.39 47.88 233.86 48.29 240.34 47.03 246.92 47.82 247.45 54.36 247.71 60.81 247.85 67.26 247.66 73.72 246.96 80.19 248.32 86.62 247.07 93.1 248.41 99.53 248.04 105.99 247.63 112.46 248.26 118.9 249.05 125.34 248.35 131.81 248.63 138.26 247.99 144.73 249.49 151.16 248.5 157.63 249.79 164.07 249.26 170.55 248.85 176.5"/>
      <g>
        <path class="cls-4" d="M228.75,6.78c-6.54,3.6-12.34,7.21-17.82,11.39-2.25,1.71-4.37,3.6-6.76,5.16-2.31,1.52-4.4,3.38-6.43,5.31-1.97,1.87-4.32,3.33-6.51,4.95-.16,.12-.45,.08-.6,.21-2.59,2.34-5.18,4.67-7.72,7.06-.36,.34-.63,.93-.66,1.42-.12,1.53-.25,3.01-.61,4.55-.62,2.68-.92,3.82-1.2,6.58-.13,1.29-.54,2.55-.65,3.84-.11,1.36,.09,2.76-.07,4.12-.1,.93-.58,1.81-.95,2.9-1.45-1.46-2.89-2.86-4.28-4.3-.54-.56-.9-.55-1.69-.22-2.17,.88-2.55,3.08-3.83,4.59-.2,.24-.46,.89-.9,.14-.43-.74-.94-1.44-1.37-2.18-2.17-3.78-2.5-3.83-5.4-.56-.64,.73-1.11,1.6-1.93,2.81-.15-2.38-1.09-4.17-.99-6.27,.08-1.61-.42-3.24-.62-4.87-.2-1.63,.53-1.54-.2-3.22-.55-1.25-.01-2.94-.13-4.42-.14-1.78,.5-3.6-.34-5.35-.1-.22,.14-.71,.36-.94,1.76-1.84,3.78-3.33,5.96-4.66,2.4-1.47,4.74-3.08,6.92-4.86,3.21-2.63,6.64-4.93,10.07-7.25,.97-.65,2.01-1.21,3.07-1.7,4.52-2.08,8.34-5.27,12.58-7.79,1.29-.77,2.49-1.72,3.82-2.4,2.86-1.46,5.52-3.26,8.26-4.92,.67-.41,.99-.62,1.71-.09,.47,.34,1.27,.27,1.93,.28,2.06,.03,4.12-.08,6.18,.04,1.75,.1,3.47,.52,5.22,.64,1.67,.11,3.37,.02,5.56,.02Z"/>
        <path class="cls-3" d="M90.86,143.87c-.44-2.44,.14-4.58-.65-6.86-.67-1.94-.2-4.31-.12-6.48,.14-4.4-1.01-8.7-.75-13.13,.25-4.45,.05-8.93,.05-13.4s-.08-22.94,.03-27.4c.08-3.12,.52-6.22,.63-9.34,.11-3.32,.03-6.64,.03-9.97s-.06-6.42,.03-9.62c.03-1.06,.51-2.09,.63-3.16,.11-1.02-.03-2.06,.05-3.09,.02-.33,.33-.75,.62-.92,1.28-.77,2.6-1.46,3.91-2.17,5.06-2.72,10.12-5.44,15.18-8.17,7.11-3.84,14.33-7.48,21.39-11.39,5.31-2.94,10.79-5.62,15.95-8.86,.43-.27,1.1-.15,1.55-.4,3.09-1.71,6.39-3.11,9.05-5.49,.83-.75,1.61-.67,2.49-.67,7.68-.01,15.35,0,23.03,0,5.24-1.31,10.58-.54,15.87-.66,5.38-.12,10.83-.52,16.14,.11,5.66,.66,11.28,.42,16.92,.53,5.61,.11,11.27,.47,16.83-.08,8.4-.82,16.78-.4,25.16-.58,3.29-1.07,6.77-.13,10-.81,3.84-.8,7.63-.29,11.43-.58,1.07-.08,2.27,.49,3.2-.64,.18-.23,.89-.1,1.33-.02,1.06,.19,2.1,.54,3.16,.65,1.13,.11,2.31-.11,3.42,.09,.51,.09,1.27,.82,1.28,1.28,.1,3.78,.06,7.56,.06,11.34-1.33,1.09-.87,2.67-.61,3.82,1.23,5.51,.32,11.06,.58,16.58,.06,1.29,.39,2.66-.62,3.88-.28,.34-.27,1.28,0,1.65,1.07,1.44,.6,3.04,.62,4.56,.07,4.35-.02,8.71,.04,13.06,.05,3.71-1.16,7.33-.71,11.06,.27,2.19,.56,4.39,.67,6.59,.11,2.28-.33,4.66,.14,6.85,.36,1.71,.17,3.54,.87,5.11,.75,1.68-.21,17.52,.48,18.96,.96,2.01,.87,4.09,.5,5.92-1.04,5.07-.43,10.14-.56,15.2-.13,5.15-.03,10.31-.03,15.47,0,.33,.04,.66,.09,1.2,5.96,0,11.96,.55,17.81-.15,6.02-.73,11.97-.45,17.95-.46,5.09-.01,10.09-1.28,15.18-.76,3.85-1.33,7.83-.41,11.74-.7,.96-.07,2.01,.38,2.88-.57,.27-.29,1.1-.17,1.65-.08,1.06,.16,2.09,.52,3.15,.64,1.02,.11,2.07-.06,3.09,.05,.85,.09,1.4,.65,1.41,1.58,0,3.44,.34,6.92-.11,10.3-.33,2.41-.94,4.68,.11,7.01,0,5.5,.03,11-.03,16.5-.01,.94-.61,1.87-.61,2.81s.6,1.87,.61,2.81c.06,5.84,.07,11.69,0,17.53-.02,1.28-.52,2.55-.63,3.84-.11,1.36-.1,2.75-.01,4.12,.3,4.71,.94,9.41,.71,14.15-.05,1.04,.43,2.1,.65,3.15,.24,1.16,.55,2.32,.67,3.5,.11,1.14-.34,2.46,.1,3.4,.92,1.97,.92,4.06,.52,5.92-1.03,4.84-.45,29.68-.57,34.52-.12,4.81-.07,9.62,0,14.43,.03,2.6-.47,4.69-3.17,5.92-1.17,.53-2.29,1.71-2.89,2.87-1.51,2.94-4.89,3.56-6.83,5.9-1.51,.02-1.69,2.15-3.27,2.06-4.66,4.1-10.5,6.44-15.32,10.31-.5,.41-1.11,.69-1.6,1.11-3.07,2.63-6.12,5.23-9.7,7.26-2.12,1.2-4.09,2.79-6.26,4.02-.18,.1-.38,.23-.49,.4-1.3,2-2.61,3.11-4.16,3.01-7.84-.47-15.62,1.08-23.43,.67-4.88-.26-9.64,1.03-14.5,.74-2.46,1.04-5.17,.18-7.6,.78-4.05,1.01-8.08,.51-12.11,.56-10.77,.11-21.54,0-32.31,.07-2.92,.02-5.7-1.02-8.66-.77-2.96,.25-6.07,.56-8.9-.07-3.62-.81-7.18-.26-10.74-.57-2.09-.18-4.16-.5-6.25-.65-.74-.06-1.51-.25-2.24,.45-.3,.28-1.19-.04-1.81-.13-.53-.08-1.27-.51-1.53-.3-1.43,1.14-3.05,.61-4.57,.62-8.94,.05-17.88,.02-26.81,.02-1,0-2.03,.23-2.77-.86-.23-.34-.97-.48-1.48-.49-3.89-.04-7.88-.54-11.66,.1-5.66,.95-11.29,.21-16.92,.58-1.52,.1-3.01,.53-4.53,.65-1.48,.11-3.13-.37-4.44,.11-2.22,.82-4.45,.26-6.61,.64-7.56,1.31-15.17,.46-22.76,.62-7.56,.16-15.12,.02-22.68,.04-2.91,0-5.7-1-8.66-.75-2.84,.24-5.84,.56-8.56-.07-3.73-.88-7.4-.4-11.09-.51-2.01-.06-3.84-1.24-5.9-.75-.73,.17-1.51-.18-2.24,.47-.32,.29-1.2,0-1.81-.09-.53-.08-1.25-.52-1.53-.32-1.55,1.16-3.28,.6-4.9,.61-8.37,.07-16.73,.03-25.09,.03-.69,0-1.37,.02-2.06,0-1.7-.06-2.14-.49-2.2-2.18-.11-3.24-.95-6.4-.73-9.69,.21-3.2,.44-6.47-.03-9.61-1.23-8.04,.06-16.13-.74-24.12-.43-4.28,.04-8.61-.69-12.77-.75-4.3-.41-28.54-.53-32.8-.12-4.35-.03-8.71-.03-13.06s-.47-8.77,.13-13.05c.6-4.29,.45-8.53,.54-12.8,.09-4.35-.03-8.71,.05-13.06,.02-1.17,.51-2.32,.63-3.5,.11-1.13,0-2.29,.06-3.43,0-.21,.37-.44,.62-.58,1.3-.74,2.6-1.46,3.92-2.16,5.06-2.72,10.13-5.43,15.18-8.16,7.11-3.84,14.33-7.48,21.39-11.39,5.31-2.94,10.79-5.62,15.94-8.86,.43-.27,1.1-.14,1.55-.39,3.1-1.71,6.39-3.13,9.05-5.5,.83-.74,1.62-.66,2.49-.66,6.07-.01,12.14,0,18.64,0ZM4.92,183.73c-.56,9.51,.33,18.81-.71,28.1-.83,7.41,.6,14.95-.74,22.4-.32,1.77-.14,3.66-.02,5.49,.11,1.74,.49,3.47,.65,5.22,.32,3.56-.34,27.13,.59,30.74,.58,2.26,.02,4.79,.13,7.19,.12,2.43,.54,4.85,.63,7.27,.11,3.09,.03,6.19,.03,9.28,0,4.47,.19,8.95-.05,13.4-.25,4.43,.74,8.74,.76,13.12,.01,2.45,.63,3.04,3.11,2.96,7.23-.25,14.47,.39,21.72-.56,4.5-.59,9.15-.21,13.73-.08,4.6,.12,9.19-.22,13.83,.53,4.63,.75,9.4,.21,14.14,.68,8.45,.83,17.01-.61,25.48,.81,3.15,.52,6.21-.64,9.34-.67,4.24-.03,8.48,0,12.72,0,.69,0,1.52,.25,2.03-.05,1.48-.84,3.03-.73,4.55-.6,1.6,.13,3.02-.58,4.53-.68,2.39-.17,4.97,.48,7.16-.22,2.52-.8,4.91-.29,7.34-.47,2.39-.19,4.81-.03,7.21-.05,.91,0,2.1,.32,2.66-.14,1.09-.88,1.65,.64,2.64,.21,.77-.34,1.8-.07,2.72-.07,.69,0,1.54,.26,2.03-.05,1.28-.82,2.32-.96,3.63-.01,.64,.47,1.48-.49,1.28-1.38-.09-.42-.26-.84-.26-1.26-.02-3.66,.08-7.34-.04-11-.11-3.57-.52-7.14-.64-10.72-.11-3.43,.03-6.87-.04-10.31-.07-3.35,.46-6.74-.67-10.02,.38-7.83-.7-35.6-.79-43.43-.19-16.42,1.15-32.8,.79-49.21,0-.34,0-.69,0-1.03v-2.92c-1.83,.66-3.15-.19-4.53-.31-2.84-.25-5.74-.26-8.58-.03-2.96,.25-5.75-.77-8.66-.74-2.52,.02-5.05,.12-7.56-.03-1.86-.12-3.65-.97-5.56-.63-.73,.13-1.42,.63-2.12,.62-.83-.01-1.64-.42-2.47-.63-.21-.05-.56-.11-.67,0-1.12,1.23-2.57,.63-3.86,.64-7.79,.06-15.58,.03-23.37,.03h-3.47c0,2.15-.17,4.1,.05,6.01,.22,1.96-.87,3.71-.69,5.56,.35,3.63-.73,7.13-.75,10.72-.01,1.55-.94,2.86-2.18,3.47-.72,.36-1.84-.53-2.6-1.28-.52-.52-1.28-.79-1.87-1.25-.8-.6-1.47-1.67-2.32-1.82-1.19-.2-1.14,1.38-1.78,2.07-.62,.67-1.27,1.32-1.94,1.95-1.38,1.27-2.88,1.02-3.79-.63-.69-1.25-1.04-2.75-2.32-3.23-1.58,1.71-2.97,3.31-4.47,4.79-.97,.96-2.75,.44-2.76-.88-.02-1.17-.67-2.06-.78-3.15-.2-1.99,.39-3.99-.43-6-.74-1.81,.24-3.99-.93-5.8,.53-4.07-.91-8.03-.7-12.09,.03-.62-.08-1.24-.15-2.18-.83,1.33-2.05,1.27-2.65,.92-1.5-.89-3.05-.58-4.57-.6-6.3-.04-12.6-.13-18.9,.01-6.32,.14-12.66-.6-18.97,.61-2.38,.46-4.93-.48-7.27,.73-2.71-.47-5.2,1.01-7.87,.67ZM93.51,43.53c0,4.48,.08,8.95-.02,13.42-.1,4.49-.06,8.97-.53,13.48-.81,7.87,.52,29.87-.79,37.77-.26,1.56-.13,3.21-.01,4.81,.11,1.63,.52,3.24,.65,4.87,.3,3.8-.31,7.6,.6,11.43,.56,2.39,.02,5.02,.13,7.54,.11,2.43,.6,4.85,.63,7.28,.09,7.79,.2,15.59-.03,23.38-.13,4.2,.91,8.27,.79,12.44-.05,1.64,.96,2.49,2.6,2.42,7.35-.27,14.7,.41,22.08-.57,4.5-.6,9.16-.22,13.74-.08,4.61,.14,9.19-.23,13.83,.54,4.63,.76,9.4,.22,14.15,.67,8.56,.82,17.21-.33,25.85,.71,3.95,.48,8.05-.32,12.08-.57,4.6-.29,9.22,.53,13.83-.6,2.21-.54,4.6-.23,6.93-.67,2.93-.54,5.97-.22,9-.66,3.82-.55,7.77-.15,11.67-.13,3.82,.02,7.56-1.16,11.41-.71,.98,.11,1.99,.02,3.2,.02-.57-3.49,.25-6.71-.74-9.98-.6-2-.02-4.33-.14-6.5-.11-2.09-.65-4.17-.63-6.25,.24-17.21-.72-34.43,.63-51.63,.15-1.94-.11-17.91,.05-19.84,.4-4.99-.8-9.88-.71-14.85,0-.23,.09-.53-.01-.67-1.21-1.63-.39-3.5-.69-5.22-.31-1.73-.74-3.41-.7-5.22,.1-5.36,.04-10.72,.04-16.25h-11.46c-4.13,0-8.25,.08-12.38-.02-4.04-.09-8.12,.55-12.09-.67-4.64,.5-9.18-.87-13.81-.7-2.29,.08-4.59,.09-6.87,0-3.15-.14-6.17,1.19-9.35,.73-.22-.03-.63,.25-.72,.47-.29,.8-.69,1.64-.68,2.46,.03,3.33-1.07,4.83-1.74,8.06-.34,1.65,.03,3.43-.09,5.14-.11,1.63-.57,3.25-.62,4.88-.05,1.66-.72,2.89-1.73,4.12-.67,.81-.98,.25-1.53-.01-1.93-.91-3.55-2.2-4.97-3.76-.66-.72-1.32-.46-1.63,.21-.68,1.47-1.83,2.52-2.96,3.58-1.31,1.22-2.76,.85-3.72-.79-.69-1.19-1.47-2.32-2.16-3.39-1.59,1.76-2.95,3.38-4.45,4.88-1.19,1.19-2.76,.76-2.97-.83-.25-1.96-1.04-3.85-.75-5.9,.12-.88,.17-1.88-.11-2.69-.84-2.41-1.15-4.96-1.13-7.39,.02-4.28-.93-6.72-.4-10.88-1.03,.17-2.02,.68-2.62,.38-2.17-1.08-4.42-.58-6.62-.59-9.51-.06-19.03,.06-28.54-.07-4.29-.06-8.48,1.24-12.78,.73-.23-.03-.56-.1-.67,.01-1.35,1.39-3.05,.36-4.54,.67-1.49,.31-2.97,.62-4.76,.99ZM240.58,206.51c-1.7,1.84-3.16,3.52-4.74,5.08-.83,.82-2.46,.34-2.7-.8-.34-1.6-.55-3.24-.69-4.87-.11-1.25,.35-2.69-.12-3.73-.51-1.1-.48-2.11-.61-3.2-.14-1.18-.56-2.32-.64-3.5-.11-1.71-.06-3.44-.02-5.15,.04-1.67-1.15-3.14-.71-4.87,.17-.66-.08-1.07-.88-1.04-1.88,.07-3.7,.19-5.58,.58-2.57,.53-5.29,.42-7.95,.68-6.4,.62-12.83,1.01-19.29,.86-7.79-.18-15.58-.04-23.37-.04h-3.3c-.62,8.38,.25,16.52-.69,24.68-.89,7.74,.53,15.63-.77,23.42-.28,1.67-.13,3.43-.02,5.15,.11,1.63,.5,3.24,.65,4.87,.34,3.68-.38,27.36,.59,31.08,.59,2.25,.02,4.78,.13,7.18,.12,2.43,.56,4.85,.63,7.28,.11,3.55,.03,7.1,.03,10.65,0,4.24,.19,8.49-.05,12.71-.25,4.2,.76,8.28,.76,12.43,0,2.45,.61,3,3.15,2.92,7.24-.24,14.47,.4,21.73-.56,4.5-.6,9.15-.21,13.73-.08,4.6,.12,9.19-.24,13.82,.54,4.51,.76,9.24-.45,13.79,.81,9.07,.21,18.16-.55,27.21,.66,1.12,.15,2.3,.11,3.43,0,1.07-.11,2.1-.57,3.16-.64,6.2-.36,12.44,.62,18.62-.67,1.92-.4,3.91,.1,5.93-.61,1.64-.57,3.63-.03,5.46-.14,1.74-.11,3.47-.45,5.22-.66,.45-.05,.92-.03,1.37,0,7.82,.53,15.57-1.01,23.66-.66-.46-3.36,.69-6.63-.77-9.76,.22-4.28-.35-8.52-.63-12.78-.27-4.22-.06-8.48-.06-12.71v-12.72c0-4.35,.15-28.71-.04-33.06-.18-4.19,.54-8.29,.71-12.43,.1-2.52-.15-5.05,.05-7.56,.39-4.76-.92-9.41-.72-14.15,0-.23,.1-.54-.01-.67-1.3-1.49-.54-3.26-.63-4.89-.09-1.66-.85-3.13-.79-4.87,.18-5.58,.07-11.16,.07-16.84-9.17,0-18.09,.05-27.01-.03-2.77-.02-5.53,.29-8.34-.56-1.78-.54-3.87-.01-5.81-.12-1.98-.12-3.93-.56-5.91-.63-3.09-.11-6.19,.11-9.28-.07-3.17-.18-6.17,1.22-9.34,.76-.31-.04-.9,.27-.98,.53-.32,1.02-.58,2.08-.71,3.14-.18,1.52,.38,3.15-.71,4.52,.18,2.92-1.15,5.7-.71,8.65,.37,2.46-.94,4.76-.79,7.28,.07,1.1-.92,2.63-2.17,3.07-.56,.2-1.6-.75-2.34-1.29-1.16-.84-2.27-1.75-3.37-2.66-.94-.79-1.66-.85-2.08,.29-.52,1.38-1.59,2.15-2.51,3.08-1.47,1.48-2.87,1.18-3.92-.62-.68-1.17-1.48-2.28-2.14-3.28Zm94.5,118.38c1.75-1.88,4.28-2.35,5.85-4.23,3.21-1.06,5.5-3.52,7.97-5.57,3.13-2.59,6.26-5.08,9.85-7,1.42-.76,2.72-1.75,4.06-2.65,2.69-1.8,5.55-3.41,8.02-5.47,2.81-2.34,6.07-4.12,8.51-6.91,.83-.95,1.64-2.13,2.72-2.55,.89-.35,.93-.68,.96-1.37,.09-2.21-.38-4.47,.65-6.6,.18-.38,.22-1.12,0-1.33-1.14-1.05-.62-2.35-.63-3.53-.06-4.13-.06-28.25,0-32.37,.02-1.18-.53-2.52,.67-3.5-.02-2.29,.38-4.68-.15-6.83-.61-2.45-.73-4.94-1.17-7.39-.41-2.28,.08-4.6-.62-6.96-.57-1.89-.02-4.1-.14-6.15-.12-2.09-.65-4.17-.61-6.25,.04-3.11,.59-6.23,.61-9.34,.07-15.81,.04-31.63,.02-47.44,0-1.34-.1-2.69-.26-4.02-.03-.3-.95,.25-3.55,1.93-1.72,1.12-2.97,2.74-4.59,3.88-4.49,3.18-9.17,6.08-13.69,9.22-3.85,2.68-7.66,5.42-11.31,8.35-3.84,3.09-7.85,5.94-11.86,8.77-2.74,1.93-4.5,4.03-4.31,7.62,.12,2.29,.66,4.71-.59,6.95-.2,.35-.21,1.02,0,1.34,1.25,1.88,.45,3.95,.64,5.92,.1,1.02-.35,2.27,.09,3.05,.98,1.74,.33,3.53,.64,5.25,.33,1.85,.69,3.66,.71,5.56,.04,2.89-.03,5.75,.49,8.68,.63,3.55,.16,7.31,.14,10.97,0,.31-.04,.69-.21,.94-.94,1.35-.26,2.86-.47,4.28-.23,1.51-.46,3.02-.69,4.53-.02,.11-.05,.27,0,.34,1.2,1.62,.71,23.49,.64,25.22-.26,6.78,.47,13.55-.51,20.36-.51,3.57-.83,7.42,.55,11.04-.39,3.61,.72,7.15,.63,10.72-.1,4.17,.58,8.23,.95,12.54Zm-76.34-146.66c1.87-1.59,3.94-2.82,5.93-3.98,3.25-1.89,6.04-4.3,8.93-6.59,1.48-1.17,2.85-2.48,4.35-3.62,1.37-1.05,3.02-1.78,4.24-2.97,2.7-2.63,5.82-4.66,8.89-6.79,4.82-3.34,9.53-6.84,14.38-10.14,.8-.54,1.24-.8,1.27-1.88,.05-1.97-.61-4.03,.6-5.93,.26-.41,.28-1.37,0-1.65-1.12-1.08-.61-2.36-.62-3.54-.06-4.12-.06-8.25,0-12.37,.01-1.18-.51-2.52,.66-3.5-.02-2.29,.38-4.67-.15-6.83-.61-2.45-.74-18.94-1.17-21.39-.4-2.27,.08-4.6-.62-6.96-.57-1.89-.03-4.09-.14-6.15-.12-2.09-.64-4.17-.61-6.25,.04-3.12,.59-6.23,.61-9.34,.07-15.81,.04-31.62,.02-47.44,0-1.34-.11-2.69-.26-4.02-.03-.29-.99,.28-3.55,1.94-1.72,1.11-2.97,2.74-4.58,3.88-4.49,3.17-9.18,6.08-13.69,9.22-3.85,2.68-7.66,5.42-11.31,8.35-3.84,3.09-7.85,5.94-11.86,8.77-2.75,1.93-4.49,4.03-4.3,7.62,.12,2.29,.66,4.71-.59,6.95-.2,.35-.21,1.02,0,1.34,1.25,1.88,.45,3.95,.64,5.92,.1,1.02-.35,2.26,.09,3.05,.97,1.74,.35,3.53,.63,5.25,.29,1.73,.71,3.41,.73,5.22,.03,3-.08,5.97,.48,9.02,.65,3.55,.16,21.31,.14,24.97,0,.31-.04,.69-.21,.94-.94,1.35-.25,2.86-.47,4.28-.23,1.51-.46,3.02-.69,4.53-.02,.11-.05,.27,0,.34,1.14,1.5,.71,3.25,.65,4.87-.26,6.89,.43,13.79-.52,20.71-.49,3.57-.82,7.42,.55,11.04-.39,3.61,.72,7.15,.63,10.71-.1,4.17,.59,8.23,.94,12.41Zm119.98-33.67c-1.18,0-1.63-.03-2.07,0-2.88,.22-5.77,.45-8.65,.68-3.11,.25-6.23-.4-9.37,.59-1.67,.53-3.65-.02-5.47,.13-1.86,.15-3.63,.81-5.57,.69-2.39-.15-4.81,.02-7.21-.05-10.69-.32-21.34,1.22-32.03,.69-1.31-.07-2.32,.53-3.25,1.28-2.64,2.12-5.46,4.01-8.21,5.97-2.71,1.93-5.59,3.67-8.34,5.59-5.42,3.8-10.3,8.23-15.48,12.31-2.92,2.3-6.17,4.04-9.17,6.19-.94,.67-1.8,1.27-2.96,2.37,1.48,0,2.39,.07,3.28-.02,1.74-.18,3.47-.54,5.22-.65,1.94-.12,3.9,.04,5.84-.05,1.19-.06,2.51,.53,3.53-.61,.11-.12,.52-.14,.64-.04,1.61,1.35,3.49,.49,5.23,.65,3.11,.29,6.3-.53,9.33,.71,4.07-.52,8.03,.83,12.09,.7,6.21-.19,12.39-1.13,18.62-.71,.8,.05,1.61-.04,2.4,.02,1.64,.11,3.02-.39,4.16-1.58,2.99-3.14,6.84-5.2,10.19-7.88,3.11-2.5,6.48-4.75,9.69-7.18,1.56-1.18,3.17-2.29,4.78-3.41,3.65-2.52,7.36-4.96,10.96-7.56,3.81-2.75,7.53-5.64,11.8-8.85ZM302.17,4.03c-.8,0-1.23,.06-1.64,0-2.61-.47-5.06,.63-7.62,.73-3.57,.14-7.11-.14-10.73,.51-4.5,.81-9.17,.61-13.77,.82-.91,.04-1.83,.05-2.75,0-9.43-.52-18.8,1.01-28.22,.67-1.99-.07-3.58,.46-5.14,1.77-1.46,1.21-3.22,2.11-4.94,2.94-4.01,1.92-7.54,4.54-11.17,7.04-2.17,1.5-4.26,3.06-6.29,4.73-3.37,2.77-6.98,5.26-10.43,7.93-1.58,1.22-2.91,2.84-4.63,3.8-1.75,.98-2.72,2.93-4.72,3.51-.18,.05-.27,.56-.29,.87,0,.14,.27,.42,.42,.42,2.74,0,5.48-.03,8.21-.05,1.25-1.24,3-.91,4.17-.51,2.46,.85,4.88,.38,7.31,.57,2.54,.21,5.08-.3,7.65,.59,1.53,.53,3.4,0,5.11,.12,1.75,.12,3.47,.58,5.21,.63,2.6,.07,5.29,.27,7.79-.28,2.61-.57,5.16-.22,7.73-.35,2.63-.13,5.27-.08,7.9,0,1.31,.04,2.32-.53,3.27-1.25,1.41-1.08,2.69-2.32,4.11-3.37,2.21-1.62,4.34-3.38,6.56-4.94,3.11-2.19,6.11-4.52,9.22-6.72,3.01-2.14,5.82-4.51,8.97-6.49,6.42-4.04,12.5-8.58,18.72-13.69Zm-100.42,1.7c-2.39-.8-4.15,.25-5.98,.33-3.08,.14-6.2,.29-9.26-.03-2.93-.31-5.81,1.24-8.71,.08-.2-.08-.57-.11-.67,0-1,1.19-2.33,.63-3.51,.65-3.89,.06-7.79,0-11.68,.05-.63,0-1.31,.18-1.85,.48-2.24,1.24-4.4,2.63-6.66,3.85-2.33,1.26-4.78,2.3-7.09,3.63-.9,.52-2.31,.38-2.96,1.06-1.79,1.87-4.42,2.25-6.33,3.96-1.45,1.3-3.52,1.92-5.32,2.82-3.7,1.85-7.55,3.45-11.06,5.6-4.01,2.46-8.16,4.62-12.32,6.78-2.24,1.16-4.44,2.41-6.66,3.62,.88,.5,1.94,.82,2.35,.44,1.03-.94,2.14-.57,3.21-.61,1.83-.07,3.66,.01,5.49-.03,.75-.02,1.56-.3,2.22-.35,2.89-.23,5.83-.25,8.72,.01,1.74,.16,14.23,.5,15.85,.06,2.52-.68,5.05-.47,7.6-.1,1.99,.29,4.02,.24,6.03,.4,1.38,.11,.66-1.56,1.6-1.8,.2-.05,.38-.19,.58-.27,1.21-.52,2.26-1.22,3.27-2.11,1.28-1.14,2.85-1.94,4.25-2.96,2.73-1.99,5.42-4.05,8.14-6.06,2.45-1.8,4.79-3.84,7.43-5.29,4.79-2.62,9.58-5.2,14.08-8.32,2.91-2.02,5.98-3.83,9.24-5.89Zm27,1.05c-2.19,0-3.89,.09-5.56-.02-1.75-.12-3.47-.54-5.22-.64-2.06-.11-4.12,0-6.18-.04-.66-.01-1.46,.06-1.93-.28-.72-.53-1.04-.32-1.71,.09-2.74,1.66-5.4,3.45-8.26,4.92-1.33,.68-2.53,1.63-3.82,2.4-4.24,2.52-8.06,5.71-12.58,7.79-1.06,.49-2.1,1.05-3.07,1.7-3.43,2.31-6.86,4.62-10.07,7.25-2.18,1.78-4.52,3.38-6.92,4.86-2.17,1.34-4.2,2.82-5.96,4.66-.22,.23-.46,.73-.36,.94,.84,1.75,.19,3.58,.34,5.35,.12,1.48-.42,3.17,.13,4.42,.74,1.68,0,1.59,.2,3.22,.2,1.62,.7,3.26,.62,4.87-.1,2.1,.84,3.89,.99,6.27,.82-1.2,1.29-2.08,1.93-2.81,2.9-3.27,3.22-3.22,5.4,.56,.43,.74,.93,1.44,1.37,2.18,.44,.75,.7,.1,.9-.14,1.28-1.51,1.66-3.7,3.83-4.59,.8-.32,1.15-.33,1.69,.22,1.4,1.43,2.83,2.84,4.28,4.3,.37-1.09,.85-1.97,.95-2.9,.15-1.36-.05-2.75,.07-4.12,.11-1.29,.51-2.55,.65-3.84,.28-2.76,.57-3.91,1.2-6.58,.36-1.54,.49-3.02,.61-4.55,.04-.49,.3-1.08,.66-1.42,2.54-2.39,5.13-4.72,7.72-7.06,.14-.13,.44-.08,.6-.21,2.19-1.63,4.54-3.09,6.51-4.95,2.03-1.93,4.12-3.79,6.43-5.31,2.39-1.56,4.51-3.45,6.76-5.16,5.48-4.18,11.28-7.79,17.82-11.39ZM12.88,179.17c1.55,1.2,2.66-.15,3.9-.2,2.06-.08,4.13,.07,6.18-.05,2.09-.12,4.16-.41,6.24-.67,2.93-.37,5.76,.58,8.64,.67,3.2,.1,6.41,.09,9.61-.01,1.28-.04,2.75,.62,3.83-.65,2.44,.29,4.87-.3,7.36,.43,1.89,.55,4.05,.31,6.08,.18,.46-.03,.85-1.09,1.3-1.64,.12-.16,.35-.25,.54-.33,3.7-1.65,6.51-4.61,9.88-6.78,4.66-3,8.98-6.51,13.53-9.67,.54-.38,.79-.56,.79-1.16-.01-3.55,.02-7.1-.02-10.64-.02-1.77-1-2.54-2.57-1.73-.93,.48-1.74,.36-2.59,.37-4.12,.06-8.24,0-12.36,.05-.62,0-1.31,.18-1.85,.48-2.24,1.24-4.4,2.63-6.65,3.84-2.33,1.26-4.78,2.3-7.08,3.62-.9,.52-2.11,.51-2.99,1.03-2.13,1.26-4.11,2.77-6.23,4.04-1.72,1.03-3.57,1.87-5.37,2.77-3.7,1.85-7.55,3.43-11.06,5.58-4.01,2.45-8.14,4.64-12.3,6.8-2.25,1.17-4.48,2.4-6.8,3.65Zm77.65,27.4c.35-1.42,.79-2.55,.88-3.71,.3-3.79,.49-7.6,.72-11.4,0-.23-.07-.48,0-.68,.9-2.34,.78-4.56,.1-7.03-.7-2.52-.68-5.28-.77-7.94-.11-3.66-.02-7.33-.04-11,0-.31-.17-.88-.25-.88-.39,0-.86,.07-1.16,.29-2.73,2-5.4,4.08-8.16,6.05-1.93,1.38-4.09,2.45-5.91,3.94-2.39,1.96-5.19,3.42-7.23,5.81-.2,.24-.33,.64-.32,.96,.09,2.13,.46,4.27,.28,6.37-.19,2.19,.77,4.14,.76,6.25-.01,1.88,.28,3.72,.54,5.58,.34,2.38,.43,4.81,1.07,7.18,1.14-1.31,2.21-2.66,3.41-3.9,1.27-1.3,2.36-1.14,3.21,.32,.7,1.2,1.55,2.34,2.01,3.63,.4,1.13,.7,.46,.98,.1,.25-.32,.23-.92,.52-1.13,1.32-.94,1.41-2.95,3.32-3.47,.8-.22,1.17-.21,1.69,.31,1.36,1.39,2.75,2.76,4.33,4.34Zm168.08-22.81c-3.98,0-7.53,.14-11.06-.04-3.61-.18-7.07,1.22-10.69,.75-.98-.13-1.99-.02-3.14-.02,.17,7.54,1.17,14.73,2.25,22.07,1.26-1.45,2.32-2.8,3.52-4.02,1.41-1.43,2.22-1.23,3.24,.6,.1,.18,.2,.37,.3,.56,.59,1.01,1.19,2.02,1.76,3.04,.43,.76,.69,.11,.89-.14,1.26-1.53,1.68-3.68,3.82-4.58,.78-.32,1.14-.38,1.69,.19,1.4,1.44,2.84,2.85,4.29,4.31,.84-1.87,1.31-3.7,.96-5.58-.36-1.96,.7-3.66,.76-5.55,.06-1.97,.41-3.93,.65-5.89,.23-1.83,.48-3.65,.75-5.72Z"/>
      </g>
      <path class="cls-4" d="M90.54,206.57c-1.58-1.58-2.97-2.95-4.33-4.34-.52-.53-.88-.54-1.69-.31-1.91,.52-2,2.53-3.32,3.47-.29,.21-.27,.81-.52,1.13-.28,.36-.58,1.03-.98-.1-.46-1.29-1.31-2.44-2.01-3.63-.86-1.46-1.95-1.61-3.21-.32-1.2,1.23-2.27,2.59-3.41,3.9-.64-2.37-.73-4.8-1.07-7.18-.27-1.86-.56-3.7-.54-5.58,.01-2.11-.95-4.06-.76-6.25,.18-2.1-.19-4.25-.28-6.37-.01-.32,.11-.72,.32-.96,2.04-2.39,4.84-3.84,7.23-5.81,1.82-1.5,3.98-2.57,5.91-3.94,2.76-1.97,5.43-4.05,8.16-6.05,.31-.22,.77-.28,1.16-.29,.08,0,.25,.57,.25,.88,.02,3.67-.08,7.34,.04,11,.08,2.66,.06,5.42,.77,7.94,.68,2.47,.8,4.69-.1,7.03-.08,.2,0,.45,0,.68-.23,3.8-.41,7.6-.72,11.4-.09,1.16-.53,2.29-.88,3.71Z"/>
      <path class="cls-4" d="M258.61,183.76c-.27,2.07-.52,3.89-.75,5.72-.24,1.96-.59,3.92-.65,5.89-.06,1.89-1.12,3.58-.76,5.55,.35,1.87-.12,3.7-.96,5.58-1.46-1.46-2.9-2.87-4.29-4.31-.55-.57-.91-.51-1.69-.19-2.14,.89-2.56,3.05-3.82,4.58-.2,.24-.47,.89-.89,.14-.57-1.02-1.17-2.03-1.76-3.04-.11-.18-.2-.38-.3-.56-1.01-1.84-1.83-2.03-3.24-.6-1.2,1.22-2.26,2.57-3.52,4.02-1.08-7.35-2.08-14.53-2.25-22.07,1.14,0,2.16-.11,3.14,.02,3.62,.48,7.08-.93,10.69-.75,3.53,.18,7.08,.04,11.06,.04Z"/>
      <g>
        <path class="cls-7" d="M196.22,136.06c-.69,9.11-5.4,13.78-15.46,12.78-1-.1-2.01-.34-2.95-.69-2.83-1.08-5.72-3.31-8.4-3.06-2.48,.23-5.09,2.25-7.76,3.27-4.02,1.53-8.13,2.18-12.39,1.78-7.61-.71-12.77-7.8-11.07-15.13,.11-.49,.18-1.01,.39-1.46,.52-1.11,1.26-2.16,2.65-1.86,1.6,.34,2.23,1.63,1.75,3.09-1.31,3.99,.1,6.84,3.36,9.13,1.15,.81,2.4,1.19,3.73,1.44,4.96,.93,9.44-1.03,13.54-3.14,4.34-2.23,3.46-11.41-1.13-13.38-5.06-2.17-8.11-5.67-9.51-10.95-.82-3.07,.14-5.3,2.32-7.18,3.54-3.06,7.83-4.59,12.35-5.34,2.67-.45,4.84,1.21,6.89,2.65,7.62,5.32,7.21,15.35-.87,19.72-2.11,1.14-3.17,2.26-2.4,4.7,.25,.77,.14,1.67,.09,2.51-.31,5.48-.02,6.01,5.27,7.75,2.07,.68,4.24,1.55,6.35,1.51,6.42-.13,8.81-3.21,8.09-9.93-.17-1.64-.99-3.21-1.51-4.81-.47-1.44-.39-2.79,1.23-3.34,1.52-.52,2.7,.36,3.24,1.7,1.06,2.64,2.27,5.28,2.2,8.24Zm-29.54-11.86c3.2,.07,7.14-1.91,7.74-4.09,.7-2.6-.32-4.96-2.01-6.9-2.31-2.67-5.48-2.91-9.69-.98-5.21,2.39-5.63,6.83-.96,10.25,1.52,1.11,3.2,1.84,4.91,1.73Z"/>
        <path class="cls-7" d="M183.4,76.05c8.43,1.32,15.56,5.11,21.48,11.19,1.17,1.2,2.14,2.61,2.45,4.32,.23,1.25-.09,2.34-1.37,2.93-1.07,.49-2.02,.16-2.73-.62-1.01-1.11-1.8-2.43-2.85-3.49-4.23-4.26-9.31-7.09-15.1-8.65-1.13-.3-2.29-.55-3.35-1.02-1.33-.59-2.27-1.67-1.76-3.19,.5-1.48,1.77-1.9,3.24-1.47Z"/>
        <path class="cls-7" d="M125.15,93.27c.09-2.01,1.04-3.67,2.72-4.58,6.53-3.55,12.17-8.3,17.84-13.01,.38-.32,.81-.61,1.26-.81,1.01-.44,1.96-.31,2.74,.54,.76,.83,.98,1.82,.38,2.76-.63,.98-1.33,1.98-2.23,2.69-4.74,3.71-9.01,8.07-14.57,10.67-1.52,.71-2.92,1.49-3.51,3.34-.42,1.32-1.56,2.32-3.15,1.76-1.57-.55-1.64-1.96-1.48-3.37Z"/>
        <path class="cls-7" d="M145.85,107.06c-3.63,.07-6.4-2.6-6.5-6.24-.08-3.22,3.68-6.17,7.86-6.15,3.25,.01,5.66,2.5,5.59,5.79-.07,3.47-3.29,6.53-6.96,6.6Z"/>
        <path class="cls-7" d="M187.11,93.86c4.62,.14,6.64,2,6.39,5.87-.21,3.25-3.25,6.34-6.12,6.23-3.12-.12-6.82-4.09-6.6-7.09,.22-3.02,2.87-5.12,6.33-5.01Z"/>
        <path class="cls-9" d="M166.68,124.2c-1.72,.12-3.39-.61-4.91-1.73-4.67-3.42-4.25-7.86,.96-10.25,4.21-1.93,7.37-1.69,9.69,.98,1.68,1.94,2.71,4.31,2.01,6.9-.59,2.18-4.54,4.16-7.74,4.09Z"/>
      </g>
    </g>
  </g>
</svg>