<?xml version="1.0" encoding="UTF-8"?>
<svg id="_レイヤー_2" data-name="レイヤー 2" xmlns="http://www.w3.org/2000/svg" viewBox="0 0 344.2 198.36">
  <defs>
    <style>
      .cls-1 {
        fill: #231815;
      }

      .cls-1, .cls-2, .cls-3, .cls-4, .cls-5, .cls-6, .cls-7, .cls-8, .cls-9, .cls-10, .cls-11, .cls-12, .cls-13, .cls-14, .cls-15, .cls-16, .cls-17, .cls-18, .cls-19 {
        stroke-width: 0px;
      }

      .cls-2 {
        fill: #2e2e2e;
      }

      .cls-3 {
        fill: #7eacc4;
      }

      .cls-4 {
        fill: #f2eacf;
      }

      .cls-20 {
        fill: none;
        stroke: #231815;
        stroke-linecap: round;
        stroke-linejoin: round;
        stroke-width: 2px;
      }

      .cls-5 {
        fill: #f9a703;
      }

      .cls-6 {
        fill: #faa2ad;
      }

      .cls-7 {
        fill: #954828;
      }

      .cls-8 {
        fill: #a14c16;
      }

      .cls-9 {
        fill: #fcefbb;
      }

      .cls-10 {
        fill: #a04e18;
      }

      .cls-11 {
        fill: #9f4913;
      }

      .cls-12 {
        fill: #ffdc46;
      }

      .cls-13 {
        fill: #f03c3c;
      }

      .cls-14 {
        fill: #9f4e18;
      }

      .cls-15 {
        fill: #a65823;
      }

      .cls-16 {
        fill: #f19ba4;
      }

      .cls-17 {
        fill: #fbeebb;
      }

      .cls-18 {
        fill: #fff;
      }

      .cls-19 {
        fill: #ffef7f;
      }
    </style>
  </defs>
  <g id="design">
    <g>
      <g>
        <path class="cls-19" d="M274.67,188.67c-.93.18-1.86.45-2.8.62s-1.93.03-2.88.2-1.79.86-2.74,1.02-1.9.19-2.85.34-1.89.27-2.84.42-1.82.78-2.77.91-2.01-.55-2.96-.41-1.79.98-2.75,1.11-1.91.15-2.86.27-1.87.45-2.82.56-1.97-.43-2.93-.32-1.87.47-2.82.57-1.9.21-2.86.31-1.95-.29-2.91-.2-1.84.86-2.8.95-1.93-.08-2.89,0-1.93-.08-2.88,0-1.89.44-2.84.51-1.92-.05-2.88.01-1.89.3-2.85.36-1.92-.11-2.88-.05-1.9.17-2.86.22-1.9.37-2.86.42-1.92-.06-2.88-.02-1.91.25-2.87.28-1.91.18-2.87.21-1.92-.26-2.88-.24-1.9.47-2.86.49-1.92.07-2.88.09-1.92-.7-2.88-.69-1.91.61-2.87.62-1.92-.14-2.88-.13-1.92,0-2.89,0-1.92.28-2.88.27-1.92-.69-2.87-.7-1.93.4-2.88.39-1.92-.14-2.88-.16-1.91-.37-2.87-.39-1.93.21-2.88.18-1.91-.4-2.87-.44-1.93.14-2.88.1-1.94.44-2.9.4-1.92-.08-2.88-.12-1.91-.38-2.86-.43-1.94.21-2.89.16-1.91-.22-2.87-.28-1.9-.39-2.85-.46-1.89-.51-2.84-.58-1.94.18-2.89.11-1.9-.35-2.85-.43-1.89-.4-2.84-.49-1.99.7-2.94.61-1.85-.81-2.8-.9-1.95.21-2.9.11-1.89-.44-2.83-.55-1.95.13-2.9.02-1.82-.94-2.77-1.06-1.9-.28-2.85-.4-1.96.13-2.9,0-1.96.11-2.9-.03-1.85-.66-2.79-.8-1.91-.22-2.85-.37-1.82-.79-2.76-.95-1.9-.29-2.84-.46-2.01.29-2.94.12-1.9-.35-2.83-.53-1.78-.91-2.72-1.09-1.94-.1-2.87-.3-1.98.03-2.91-.17-1.86-.52-2.79-.73-1.84-.59-2.77-.81-1.89-.38-2.81-.61-1.8-.73-2.72-.97-1.77-.83-2.68-1.08-1.91-.33-2.82-.59-1.85-.54-2.75-.82-2.02-.03-2.92-.32-1.72-.97-2.61-1.27-2-.16-2.89-.48-1.69-1.01-2.57-1.35-1.7-.97-2.57-1.32-2.01-.22-2.87-.59-1.64-1.09-2.49-1.49-1.87-.59-2.71-1.01-1.34-1.6-2.16-2.05c-.86-.48-1.93-.52-2.73-1.01-.84-.51-1.38-1.42-2.15-1.95-.82-.56-1.68-.96-2.41-1.53-.78-.61-1.89-.78-2.58-1.4-.74-.67-1.51-1.3-2.13-1.98-.67-.74-.97-1.76-1.5-2.51-.57-.82-.85-1.74-1.25-2.57-.43-.89-1.16-1.65-1.38-2.55s-.28-1.94-.28-2.9.04-1.94.26-2.87.53-1.84.94-2.72c.39-.82,1.2-1.46,1.76-2.27.52-.75.9-1.65,1.56-2.38.61-.68,1.07-1.59,1.8-2.25.67-.62,1.41-1.26,2.18-1.87.72-.56,1.62-.98,2.42-1.53.76-.52,1.51-1.12,2.34-1.64.78-.48,1.98-.31,2.83-.78s1.66-.82,2.52-1.26,1.25-1.69,2.12-2.1,1.86-.45,2.74-.84,1.72-.75,2.61-1.12,1.71-.79,2.6-1.14,1.96-.11,2.86-.44,1.56-1.21,2.47-1.52,1.88-.29,2.79-.59,1.65-1,2.57-1.29,1.98.07,2.9-.2,1.73-.79,2.65-1.05,1.73-.81,2.65-1.06,1.92-.09,2.85-.32,1.75-.74,2.68-.97,1.97.14,2.9-.07,1.76-.74,2.69-.94,1.87-.27,2.8-.47,1.73-.95,2.66-1.14,1.9-.13,2.83-.31,1.9-.11,2.84-.28,1.83-.47,2.77-.64c.86-.15,1.72-.39,2.59-.54.95-.16,1.92-.27,2.89-.43s1.86-.68,2.83-.83,2.03.45,3,.31,1.89-.51,2.86-.65,1.94-.18,2.91-.31,1.9-.43,2.87-.56,1.86-.77,2.83-.89,1.94-.16,2.91-.28,1.99.26,2.96.15,1.97.15,2.94.05,1.89-.59,2.87-.68,1.91-.46,2.89-.55,1.95-.02,2.93-.1,1.91-.51,2.89-.59,2,.58,2.97.51,1.93-.35,2.9-.42,1.92-.41,2.89-.47,1.97.29,2.94.23,1.93-.32,2.91-.37,1.92-.63,2.89-.68,1.95,0,2.93-.05,1.97.48,2.95.44,1.93-.48,2.91-.51,1.96.26,2.93.23,1.94-.52,2.91-.55,1.95.09,2.93.07,1.96.64,2.93.63,1.94-.55,2.92-.56,1.95.47,2.93.47,1.96-.25,2.94-.25,1.92-.47,2.88-.47,1.92.07,2.88.08,1.92.34,2.88.35,1.93-.22,2.88-.2,1.91.62,2.87.64,1.94-.77,2.9-.74,1.89.92,2.85.95,1.92-.07,2.88-.03,1.93-.11,2.88-.07,1.91.34,2.86.39,1.96-.63,2.91-.58,1.87.92,2.83.97,1.92-.02,2.88.04,1.91.2,2.86.26,1.92.02,2.88.09,1.92.06,2.87.13,1.92.03,2.88.11,1.95-.24,2.9-.15,1.85.86,2.8.95,1.97-.39,2.92-.29,1.84.83,2.79.93,1.97-.34,2.92-.23,1.89.36,2.84.47,1.97-.24,2.91-.12,1.88.44,2.83.56,1.92.16,2.87.29,1.85.65,2.8.79,1.85.64,2.79.78,2.03-.51,2.97-.36,1.84.66,2.79.81,1.96-.01,2.9.15,1.79.94,2.73,1.11,1.92.2,2.86.38,1.95.09,2.88.27,1.89.39,2.82.58,1.77.92,2.7,1.13,2.03-.24,2.96-.03,1.77.87,2.7,1.1,1.98,0,2.91.24,1.66,1.26,2.58,1.5,2.02-.11,2.94.14,1.85.55,2.76.81,1.79.74,2.7,1.01,1.78.78,2.68,1.07,1.87.49,2.77.79,1.82.64,2.71.96,2.03.1,2.91.44,1.78.8,2.65,1.15,1.7.96,2.57,1.33,1.86.6,2.71,1,1.65,1.06,2.48,1.48,1.67,1,2.49,1.45c.86.48,1.53,1.22,2.32,1.71.84.51,1.88.66,2.65,1.18.82.56,1.52,1.23,2.25,1.8.78.61,1.48,1.26,2.17,1.88.74.67,1.48,1.28,2.1,1.96.67.74,1.51,1.32,2.04,2.08.57.82,1.03,1.71,1.42,2.54.43.89.82,1.83,1.03,2.74s.46,1.96.46,2.92-.2,2.03-.44,2.99-.9,1.76-1.34,2.66c-.41.84-.7,1.83-1.3,2.66-.54.76-1.28,1.45-1.97,2.2-.64.69-1.14,1.6-1.9,2.28-.7.63-1.96.64-2.76,1.26-.75.57-1.2,1.61-2.04,2.17-.79.53-1.81.74-2.68,1.26-.82.49-1.49,1.29-2.37,1.77s-1.74.85-2.64,1.3-1.68.97-2.59,1.39-1.78.78-2.69,1.17-2.06.09-2.98.46-1.78.75-2.71,1.1-1.71.97-2.64,1.3-1.92.37-2.86.68-1.69,1.07-2.64,1.36-1.89.48-2.84.77-1.76.9-2.71,1.17-1.99.13-2.94.39-1.95.23-2.91.48"/>
        <path class="cls-20" d="M274.67,188.67c-.93.18-1.86.45-2.8.62s-1.93.03-2.88.2-1.79.86-2.74,1.02-1.9.19-2.85.34-1.89.27-2.84.42-1.82.78-2.77.91-2.01-.55-2.96-.41-1.79.98-2.75,1.11-1.91.15-2.86.27-1.87.45-2.82.56-1.97-.43-2.93-.32-1.87.47-2.82.57-1.9.21-2.86.31-1.95-.29-2.91-.2-1.84.86-2.8.95-1.93-.08-2.89,0-1.93-.08-2.88,0-1.89.44-2.84.51-1.92-.05-2.88.01-1.89.3-2.85.36-1.92-.11-2.88-.05-1.9.17-2.86.22-1.9.37-2.86.42-1.92-.06-2.88-.02-1.91.25-2.87.28-1.91.18-2.87.21-1.92-.26-2.88-.24-1.9.47-2.86.49-1.92.07-2.88.09-1.92-.7-2.88-.69-1.91.61-2.87.62-1.92-.14-2.88-.13-1.92,0-2.89,0-1.92.28-2.88.27-1.92-.69-2.87-.7-1.93.4-2.88.39-1.92-.14-2.88-.16-1.91-.37-2.87-.39-1.93.21-2.88.18-1.91-.4-2.87-.44-1.93.14-2.88.1-1.94.44-2.9.4-1.92-.08-2.88-.12-1.91-.38-2.86-.43-1.94.21-2.89.16-1.91-.22-2.87-.28-1.9-.39-2.85-.46-1.89-.51-2.84-.58-1.94.18-2.89.11-1.9-.35-2.85-.43-1.89-.4-2.84-.49-1.99.7-2.94.61-1.85-.81-2.8-.9-1.95.21-2.9.11-1.89-.44-2.83-.55-1.95.13-2.9.02-1.82-.94-2.77-1.06-1.9-.28-2.85-.4-1.96.13-2.9,0-1.96.11-2.9-.03-1.85-.66-2.79-.8-1.91-.22-2.85-.37-1.82-.79-2.76-.95-1.9-.29-2.84-.46-2.01.29-2.94.12-1.9-.35-2.83-.53-1.78-.91-2.72-1.09-1.94-.1-2.87-.3-1.98.03-2.91-.17-1.86-.52-2.79-.73-1.84-.59-2.77-.81-1.89-.38-2.81-.61-1.8-.73-2.72-.97-1.77-.83-2.68-1.08-1.91-.33-2.82-.59-1.85-.54-2.75-.82-2.02-.03-2.92-.32-1.72-.97-2.61-1.27-2-.16-2.89-.48-1.69-1.01-2.57-1.35-1.7-.97-2.57-1.32-2.01-.22-2.87-.59-1.64-1.09-2.49-1.49-1.87-.59-2.71-1.01-1.34-1.6-2.16-2.05c-.86-.48-1.93-.52-2.73-1.01-.84-.51-1.38-1.42-2.15-1.95-.82-.56-1.68-.96-2.41-1.53-.78-.61-1.89-.78-2.58-1.4-.74-.67-1.51-1.3-2.13-1.98-.67-.74-.97-1.76-1.5-2.51-.57-.82-.85-1.74-1.25-2.57-.43-.89-1.16-1.65-1.38-2.55s-.28-1.94-.28-2.9.04-1.94.26-2.87.53-1.84.94-2.72c.39-.82,1.2-1.46,1.76-2.27.52-.75.9-1.65,1.56-2.38.61-.68,1.07-1.59,1.8-2.25.67-.62,1.41-1.26,2.18-1.87.72-.56,1.62-.98,2.42-1.53.76-.52,1.51-1.12,2.34-1.64.78-.48,1.98-.31,2.83-.78s1.66-.82,2.52-1.26,1.25-1.69,2.12-2.1,1.86-.45,2.74-.84,1.72-.75,2.61-1.12,1.71-.79,2.6-1.14,1.96-.11,2.86-.44,1.56-1.21,2.47-1.52,1.88-.29,2.79-.59,1.65-1,2.57-1.29,1.98.07,2.9-.2,1.73-.79,2.65-1.05,1.73-.81,2.65-1.06,1.92-.09,2.85-.32,1.75-.74,2.68-.97,1.97.14,2.9-.07,1.76-.74,2.69-.94,1.87-.27,2.8-.47,1.73-.95,2.66-1.14,1.9-.13,2.83-.31,1.9-.11,2.84-.28,1.83-.47,2.77-.64c.86-.15,1.72-.39,2.59-.54.95-.16,1.92-.27,2.89-.43s1.86-.68,2.83-.83,2.03.45,3,.31,1.89-.51,2.86-.65,1.94-.18,2.91-.31,1.9-.43,2.87-.56,1.86-.77,2.83-.89,1.94-.16,2.91-.28,1.99.26,2.96.15,1.97.15,2.94.05,1.89-.59,2.87-.68,1.91-.46,2.89-.55,1.95-.02,2.93-.1,1.91-.51,2.89-.59,2,.58,2.97.51,1.93-.35,2.9-.42,1.92-.41,2.89-.47,1.97.29,2.94.23,1.93-.32,2.91-.37,1.92-.63,2.89-.68,1.95,0,2.93-.05,1.97.48,2.95.44,1.93-.48,2.91-.51,1.96.26,2.93.23,1.94-.52,2.91-.55,1.95.09,2.93.07,1.96.64,2.93.63,1.94-.55,2.92-.56,1.95.47,2.93.47,1.96-.25,2.94-.25,1.92-.47,2.88-.47,1.92.07,2.88.08,1.92.34,2.88.35,1.93-.22,2.88-.2,1.91.62,2.87.64,1.94-.77,2.9-.74,1.89.92,2.85.95,1.92-.07,2.88-.03,1.93-.11,2.88-.07,1.91.34,2.86.39,1.96-.63,2.91-.58,1.87.92,2.83.97,1.92-.02,2.88.04,1.91.2,2.86.26,1.92.02,2.88.09,1.92.06,2.87.13,1.92.03,2.88.11,1.95-.24,2.9-.15,1.85.86,2.8.95,1.97-.39,2.92-.29,1.84.83,2.79.93,1.97-.34,2.92-.23,1.89.36,2.84.47,1.97-.24,2.91-.12,1.88.44,2.83.56,1.92.16,2.87.29,1.85.65,2.8.79,1.85.64,2.79.78,2.03-.51,2.97-.36,1.84.66,2.79.81,1.96-.01,2.9.15,1.79.94,2.73,1.11,1.92.2,2.86.38,1.95.09,2.88.27,1.89.39,2.82.58,1.77.92,2.7,1.13,2.03-.24,2.96-.03,1.77.87,2.7,1.1,1.98,0,2.91.24,1.66,1.26,2.58,1.5,2.02-.11,2.94.14,1.85.55,2.76.81,1.79.74,2.7,1.01,1.78.78,2.68,1.07,1.87.49,2.77.79,1.82.64,2.71.96,2.03.1,2.91.44,1.78.8,2.65,1.15,1.7.96,2.57,1.33,1.86.6,2.71,1,1.65,1.06,2.48,1.48,1.67,1,2.49,1.45c.86.48,1.53,1.22,2.32,1.71.84.51,1.88.66,2.65,1.18.82.56,1.52,1.23,2.25,1.8.78.61,1.48,1.26,2.17,1.88.74.67,1.48,1.28,2.1,1.96.67.74,1.51,1.32,2.04,2.08.57.82,1.03,1.71,1.42,2.54.43.89.82,1.83,1.03,2.74s.46,1.96.46,2.92-.2,2.03-.44,2.99-.9,1.76-1.34,2.66c-.41.84-.7,1.83-1.3,2.66-.54.76-1.28,1.45-1.97,2.2-.64.69-1.14,1.6-1.9,2.28-.7.63-1.96.64-2.76,1.26-.75.57-1.2,1.61-2.04,2.17-.79.53-1.81.74-2.68,1.26-.82.49-1.49,1.29-2.37,1.77s-1.74.85-2.64,1.3-1.68.97-2.59,1.39-1.78.78-2.69,1.17-2.06.09-2.98.46-1.78.75-2.71,1.1-1.71.97-2.64,1.3-1.92.37-2.86.68-1.69,1.07-2.64,1.36-1.89.48-2.84.77-1.76.9-2.71,1.17-1.99.13-2.94.39-1.95.23-2.91.48"/>
      </g>
      <g>
        <polyline class="cls-12" points="107.01 160.66 107.98 160.03 107.98 159.4 108.3 159.4 108.95 158.14 108.63 156.56 107.01 156.24 106.36 157.5 106.03 157.5 106.03 158.13 104.42 162.56 107.01 160.66"/>
        <polyline class="cls-12" points="97.28 156.24 97.93 161.62 98.25 161.93 100.2 161.62 100.2 160.99 100.85 160.66 100.53 160.03 100.85 158.45 100.53 158.45 100.52 155.93 100.2 155.93 100.2 155.6 97.28 156.24"/>
        <polyline class="cls-12" points="84.85 158.27 86.11 162.55 86.4 162.76 87.86 162.26 87.77 161.75 88.23 161.41 87.89 160.93 87.92 159.61 87.67 159.65 87.31 157.61 87.06 157.65 87.02 157.38 84.85 158.27"/>
        <polyline class="cls-12" points="92.74 154.98 92.1 154.67 90.47 154.97 90.8 159.4 91.77 162.56 93.72 162.25 92.74 154.97"/>
      </g>
      <g>
        <polyline class="cls-12" points="264.99 161.57 264.01 160.94 264.01 160.31 263.69 160.31 263.05 159.04 263.37 157.47 264.99 157.15 265.63 158.41 265.96 158.41 265.96 159.04 267.58 163.47 264.99 161.57"/>
        <polyline class="cls-12" points="274.71 157.15 274.07 162.52 273.74 162.83 271.79 162.53 271.8 161.89 271.15 161.57 271.47 160.94 271.15 159.37 271.47 159.37 271.47 156.84 271.79 156.84 271.79 156.52 274.71 157.15"/>
        <polyline class="cls-12" points="287.15 159.18 285.89 163.46 285.6 163.67 284.13 163.17 284.22 162.66 283.77 162.31 284.1 161.84 284.08 160.52 284.33 160.57 284.68 158.51 284.93 158.56 284.98 158.3 287.15 159.18"/>
        <polyline class="cls-12" points="279.25 155.88 279.9 155.57 281.52 155.88 281.19 160.31 280.22 163.47 278.28 163.16 279.25 155.88"/>
      </g>
      <g>
        <polyline class="cls-12" points="235.11 128.88 234.22 134.21 234.43 134.63 236.36 135.09 236.54 134.5 237.24 134.45 237.11 133.72 237.86 132.36 237.55 132.24 238.25 129.85 237.95 129.72 238.04 129.42 235.1 128.88"/>
        <polyline class="cls-12" points="223.02 130.11 224.28 134.39 224.57 134.6 226.03 134.1 225.94 133.59 226.4 133.25 226.06 132.78 226.09 131.46 225.84 131.5 225.48 129.45 225.23 129.49 225.19 129.23 223.02 130.11"/>
        <polyline class="cls-12" points="230.91 126.82 230.27 126.51 228.64 126.82 228.97 131.24 229.94 134.4 231.89 134.09 230.91 126.82"/>
      </g>
      <g>
        <polyline class="cls-12" points="158.04 176.07 158.93 180.28 158.71 180.62 156.79 180.98 156.61 180.51 155.91 180.47 156.04 179.9 155.3 178.82 155.6 178.72 154.89 176.84 155.2 176.74 155.11 176.5 158.04 176.07"/>
        <polyline class="cls-12" points="170.13 177.04 168.87 180.43 168.58 180.59 167.11 180.2 167.2 179.79 166.75 179.52 167.09 179.15 167.06 178.11 167.31 178.14 167.66 176.52 167.91 176.55 167.96 176.35 170.13 177.04"/>
        <polyline class="cls-12" points="162.23 174.44 162.88 174.19 164.5 174.44 164.18 177.93 163.2 180.43 161.26 180.19 162.23 174.44"/>
      </g>
      <g>
        <g>
          <polygon class="cls-18" points="35.79 123.05 36.5 123.12 37.2 123.29 37.88 123.51 38.57 123.68 39.24 123.91 39.87 124.26 40.57 124.42 41.19 124.79 41.83 125.11 42.47 125.41 43.09 125.77 43.72 126.1 44.35 126.42 44.89 126.9 45.53 127.23 46.06 127.71 46.66 128.09 47.14 128.63 47.73 129.04 48.28 129.49 48.71 130.06 49.28 130.51 49.67 131.12 50.19 131.61 50.64 132.15 51.11 132.7 51.44 133.33 51.85 133.91 52.28 134.48 52.62 135.11 53.07 135.68 53.35 136.35 53.74 136.95 54.16 137.53 54.68 138.04 55.07 138.65 55.54 139.2 56.03 139.72 56.49 140.27 57.03 140.76 57.56 141.23 58.04 141.76 58.51 142.3 59.08 142.75 59.57 143.26 60.1 143.74 60.58 144.28 61.11 144.76 61.62 145.27 62.1 145.8 62.68 146.22 63.17 146.75 63.64 147.3 64.22 147.74 64.71 148.26 65.17 148.82 65.67 149.33 66.26 149.77 66.68 150.37 67.27 150.81 67.7 151.38 68.13 151.97 68.65 152.47 69.14 153 69.62 153.55 70.01 154.15 70.46 154.72 70.91 155.29 71.26 155.92 71.67 156.52 72.09 157.11 72.37 157.78 72.8 158.36 73.03 159.05 73.4 159.67 73.68 160.33 73.94 161 74.12 161.7 74.18 162.41 74.24 163.12 74.4 163.83 74.29 164.55 74.31 165.26 74.29 165.98 74.04 166.66 73.94 167.37 73.78 168.07 73.48 168.72 73.25 169.4 72.95 170.04 72.66 170.69 72.44 171.38 72.1 172.01 71.69 172.6 71.3 173.2 70.89 173.79 70.52 174.41 70.01 174.92 69.57 175.48 69.1 176.02 68.59 176.53 68.14 177.08 67.65 177.61 67.18 178.15 66.62 178.6 66.1 179.08 65.54 179.52 65.01 180 64.45 180.44 63.89 180.89 63.33 181.33 62.72 181.7 62.17 182.16 61.6 182.59 60.95 182.91 60.32 183.25 59.73 183.66 59.16 184.1 58.53 184.44 57.91 184.79 57.24 185.06 56.62 185.41 55.96 185.69 55.34 186.05 54.7 186.37 54.04 186.66 53.35 186.87 52.72 187.22 52.02 187.41 51.4 187.78 50.73 188.03 50.04 188.23 49.36 188.47 48.68 188.68 48.02 188.99 47.31 189.11 46.64 189.38 45.92 189.49 45.23 189.71 44.52 189.88 43.82 190.07 43.11 190.21 42.4 190.4 41.67 190.42 40.96 190.58 40.23 190.59 39.51 190.6 38.79 190.66 38.07 190.6 37.35 190.5 36.62 190.53 35.92 190.33 35.2 190.24 34.52 189.98 33.79 189.88 33.11 189.62 32.46 189.29 31.8 189 31.19 188.6 30.59 188.2 30.01 187.77 29.38 187.4 28.87 186.89 28.31 186.43 27.77 185.95 27.31 185.39 26.82 184.85 26.46 184.22 25.97 183.68 25.51 183.12 25.12 182.51 24.83 181.85 24.45 181.23 24.15 180.57 23.85 179.91 23.52 179.27 23.18 178.63 22.85 177.99 22.69 177.27 22.36 176.62 22.06 175.96 21.93 175.24 21.69 174.56 21.43 173.88 21.15 173.2 21.01 172.49 20.82 171.79 20.6 171.1 20.45 170.39 20.13 169.73 19.99 169.03 19.85 168.32 19.65 167.62 19.47 166.92 19.27 166.23 19.09 165.54 18.77 164.89 18.59 164.19 18.36 163.51 18.16 162.82 17.8 162.2 17.66 161.49 17.32 160.85 17.05 160.19 16.77 159.53 16.6 158.82 16.3 158.17 15.96 157.53 15.64 156.88 15.34 156.23 15.14 155.53 14.72 154.93 14.44 154.26 14.09 153.63 13.83 152.95 13.46 152.33 13.15 151.67 12.72 151.08 12.42 150.42 12.05 149.8 11.7 149.16 11.24 148.59 10.83 148 10.47 147.37 9.96 146.85 9.53 146.27 9.08 145.71 8.63 145.15 8.15 144.61 7.63 144.12 7.11 143.62 6.64 143.08 6.03 142.69 5.47 142.23 4.88 141.84 4.27 141.47 3.68 141.05 3.04 140.72 2.49 140.26 1.96 139.78 1.47 139.27 1.06 138.69 1 137.97 1.28 137.3 1.75 136.75 2.21 136.22 2.68 135.68 3.16 135.16 3.54 134.55 4.08 134.08 4.43 133.44 4.89 132.89 5.42 132.4 5.97 131.93 6.66 131.69 7.36 131.54 8.07 131.49 8.78 131.54 9.49 131.61 10.19 131.74 10.88 131.96 11.57 132.16 12.19 132.52 12.88 132.73 13.48 133.13 14.16 133.36 14.73 133.8 15.38 134.12 15.99 134.5 16.62 134.84 17.18 135.28 17.74 135.74 18.31 136.17 18.89 136.6 19.52 136.96 20.04 137.47 20.56 137.96 21.12 138.42 21.63 138.92 22.08 139.48 22.6 139.97 23.01 140.56 23.47 141.11 23.93 141.66 24.21 142.3 24.88 142.09 25.56 141.9 26.21 141.63 26.88 141.38 27.57 141.22 28.23 140.98 28.9 140.76 29.59 140.56 30.26 140.33 30.88 140.01 30.59 139.41 30.15 138.84 29.69 138.29 29.16 137.82 28.56 137.41 27.98 136.99 28.45 136.48 29.04 136.09 29.53 135.6 30.09 135.17 30.6 134.68 31.15 134.25 31.7 133.8 32.22 133.32 32.85 133 33.42 132.58 34.01 132.2 34.72 132.31 35.28 132.71 35.87 133.11 36.35 133.62 36.74 134.21 37.16 134.77 37.54 135.36 37.93 135.96 38.66 135.87 39.32 135.6 40.03 135.5 40.71 135.25 41.29 134.82 41.83 134.36 42.25 133.75 41.72 133.22 41.22 132.68 40.6 132.28 40.08 131.75 39.51 131.29 38.93 130.84 38.31 130.44 37.7 130.02 37.07 129.65 36.41 129.33 35.79 128.91 35.07 128.73 34.4 128.41 33.7 128.16 32.97 128.05 32.25 127.9 31.52 127.82 30.79 127.7 30.06 127.83 29.3 127.91 29.74 127.34 30.19 126.81 30.71 126.34 31.19 125.84 31.71 125.38 32.14 124.82 32.73 124.43 33.22 123.92 33.82 123.55 34.42 123.19 35.1 122.96 35.79 123.05"/>
          <polygon class="cls-20" points="35.79 123.05 36.5 123.12 37.2 123.29 37.88 123.51 38.57 123.68 39.24 123.91 39.87 124.26 40.57 124.42 41.19 124.79 41.83 125.11 42.47 125.41 43.09 125.77 43.72 126.1 44.35 126.42 44.89 126.9 45.53 127.23 46.06 127.71 46.66 128.09 47.14 128.63 47.73 129.04 48.28 129.49 48.71 130.06 49.28 130.51 49.67 131.12 50.19 131.61 50.64 132.15 51.11 132.7 51.44 133.33 51.85 133.91 52.28 134.48 52.62 135.11 53.07 135.68 53.35 136.35 53.74 136.95 54.16 137.53 54.68 138.04 55.07 138.65 55.54 139.2 56.03 139.72 56.49 140.27 57.03 140.76 57.56 141.23 58.04 141.76 58.51 142.3 59.08 142.75 59.57 143.26 60.1 143.74 60.58 144.28 61.11 144.76 61.62 145.27 62.1 145.8 62.68 146.22 63.17 146.75 63.64 147.3 64.22 147.74 64.71 148.26 65.17 148.82 65.67 149.33 66.26 149.77 66.68 150.37 67.27 150.81 67.7 151.38 68.13 151.97 68.65 152.47 69.14 153 69.62 153.55 70.01 154.15 70.46 154.72 70.91 155.29 71.26 155.92 71.67 156.52 72.09 157.11 72.37 157.78 72.8 158.36 73.03 159.05 73.4 159.67 73.68 160.33 73.94 161 74.12 161.7 74.18 162.41 74.24 163.12 74.4 163.83 74.29 164.55 74.31 165.26 74.29 165.98 74.04 166.66 73.94 167.37 73.78 168.07 73.48 168.72 73.25 169.4 72.95 170.04 72.66 170.69 72.44 171.38 72.1 172.01 71.69 172.6 71.3 173.2 70.89 173.79 70.52 174.41 70.01 174.92 69.57 175.48 69.1 176.02 68.59 176.53 68.14 177.08 67.65 177.61 67.18 178.15 66.62 178.6 66.1 179.08 65.54 179.52 65.01 180 64.45 180.44 63.89 180.89 63.33 181.33 62.72 181.7 62.17 182.16 61.6 182.59 60.95 182.91 60.32 183.25 59.73 183.66 59.16 184.1 58.53 184.44 57.91 184.79 57.24 185.06 56.62 185.41 55.96 185.69 55.34 186.05 54.7 186.37 54.04 186.66 53.35 186.87 52.72 187.22 52.02 187.41 51.4 187.78 50.73 188.03 50.04 188.23 49.36 188.47 48.68 188.68 48.02 188.99 47.31 189.11 46.64 189.38 45.92 189.49 45.23 189.71 44.52 189.88 43.82 190.07 43.11 190.21 42.4 190.4 41.67 190.42 40.96 190.58 40.23 190.59 39.51 190.6 38.79 190.66 38.07 190.6 37.35 190.5 36.62 190.53 35.92 190.33 35.2 190.24 34.52 189.98 33.79 189.88 33.11 189.62 32.46 189.29 31.8 189 31.19 188.6 30.59 188.2 30.01 187.77 29.38 187.4 28.87 186.89 28.31 186.43 27.77 185.95 27.31 185.39 26.82 184.85 26.46 184.22 25.97 183.68 25.51 183.12 25.12 182.51 24.83 181.85 24.45 181.23 24.15 180.57 23.85 179.91 23.52 179.27 23.18 178.63 22.85 177.99 22.69 177.27 22.36 176.62 22.06 175.96 21.93 175.24 21.69 174.56 21.43 173.88 21.15 173.2 21.01 172.49 20.82 171.79 20.6 171.1 20.45 170.39 20.13 169.73 19.99 169.03 19.85 168.32 19.65 167.62 19.47 166.92 19.27 166.23 19.09 165.54 18.77 164.89 18.59 164.19 18.36 163.51 18.16 162.82 17.8 162.2 17.66 161.49 17.32 160.85 17.05 160.19 16.77 159.53 16.6 158.82 16.3 158.17 15.96 157.53 15.64 156.88 15.34 156.23 15.14 155.53 14.72 154.93 14.44 154.26 14.09 153.63 13.83 152.95 13.46 152.33 13.15 151.67 12.72 151.08 12.42 150.42 12.05 149.8 11.7 149.16 11.24 148.59 10.83 148 10.47 147.37 9.96 146.85 9.53 146.27 9.08 145.71 8.63 145.15 8.15 144.61 7.63 144.12 7.11 143.62 6.64 143.08 6.03 142.69 5.47 142.23 4.88 141.84 4.27 141.47 3.68 141.05 3.04 140.72 2.49 140.26 1.96 139.78 1.47 139.27 1.06 138.69 1 137.97 1.28 137.3 1.75 136.75 2.21 136.22 2.68 135.68 3.16 135.16 3.54 134.55 4.08 134.08 4.43 133.44 4.89 132.89 5.42 132.4 5.97 131.93 6.66 131.69 7.36 131.54 8.07 131.49 8.78 131.54 9.49 131.61 10.19 131.74 10.88 131.96 11.57 132.16 12.19 132.52 12.88 132.73 13.48 133.13 14.16 133.36 14.73 133.8 15.38 134.12 15.99 134.5 16.62 134.84 17.18 135.28 17.74 135.74 18.31 136.17 18.89 136.6 19.52 136.96 20.04 137.47 20.56 137.96 21.12 138.42 21.63 138.92 22.08 139.48 22.6 139.97 23.01 140.56 23.47 141.11 23.93 141.66 24.21 142.3 24.88 142.09 25.56 141.9 26.21 141.63 26.88 141.38 27.57 141.22 28.23 140.98 28.9 140.76 29.59 140.56 30.26 140.33 30.88 140.01 30.59 139.41 30.15 138.84 29.69 138.29 29.16 137.82 28.56 137.41 27.98 136.99 28.45 136.48 29.04 136.09 29.53 135.6 30.09 135.17 30.6 134.68 31.15 134.25 31.7 133.8 32.22 133.32 32.85 133 33.42 132.58 34.01 132.2 34.72 132.31 35.28 132.71 35.87 133.11 36.35 133.62 36.74 134.21 37.16 134.77 37.54 135.36 37.93 135.96 38.66 135.87 39.32 135.6 40.03 135.5 40.71 135.25 41.29 134.82 41.83 134.36 42.25 133.75 41.72 133.22 41.22 132.68 40.6 132.28 40.08 131.75 39.51 131.29 38.93 130.84 38.31 130.44 37.7 130.02 37.07 129.65 36.41 129.33 35.79 128.91 35.07 128.73 34.4 128.41 33.7 128.16 32.97 128.05 32.25 127.9 31.52 127.82 30.79 127.7 30.06 127.83 29.3 127.91 29.74 127.34 30.19 126.81 30.71 126.34 31.19 125.84 31.71 125.38 32.14 124.82 32.73 124.43 33.22 123.92 33.82 123.55 34.42 123.19 35.1 122.96 35.79 123.05"/>
        </g>
        <g>
          <polygon class="cls-3" points="55.27 149.69 54.57 149.54 53.87 149.41 53.16 149.39 52.44 149.43 51.73 149.5 51.03 149.62 50.32 149.76 49.63 149.94 48.96 150.18 48.26 150.37 47.61 150.67 46.96 150.98 46.33 151.31 45.69 151.66 45.09 152.05 44.5 152.46 43.92 152.89 43.34 153.33 42.76 153.77 42.17 154.18 41.58 154.6 41.02 155.06 40.44 155.49 39.83 155.88 39.26 156.33 38.66 156.74 38.08 157.18 37.48 157.6 36.88 158.03 36.3 158.48 35.7 158.9 35.11 159.33 34.49 159.72 33.9 160.15 33.29 160.54 32.7 160.96 32.1 161.37 31.53 161.82 30.89 162.16 30.31 162.53 30.7 163.09 31.08 163.68 31.53 164.23 31.93 164.81 32.3 165.42 32.71 165.99 33.14 166.55 33.56 167.12 33.94 167.71 34.36 168.28 34.76 168.86 35.15 169.45 35.54 170.05 35.97 170.62 36.37 171.21 36.79 171.77 37.19 172.36 37.59 172.95 37.99 173.54 38.37 174.14 38.76 174.73 39.16 175.31 39.51 175.92 40.04 175.46 40.61 175.04 41.17 174.6 41.71 174.13 42.28 173.7 42.83 173.26 43.35 172.77 43.93 172.35 44.5 171.93 45.05 171.47 45.62 171.04 46.15 170.57 46.74 170.16 47.31 169.73 47.88 169.29 48.45 168.86 49.05 168.46 49.62 168.03 50.2 167.61 50.79 167.2 51.38 166.79 51.96 166.38 52.54 165.96 53.15 165.59 53.79 165.29 54.42 164.97 55.03 164.63 55.67 164.34 56.29 164 56.93 163.71 57.54 163.35 58.19 163.06 58.83 162.75 59.46 162.43 60.1 162.12 60.73 161.8 61.36 161.49 62 161.19 62.63 160.86 63.25 160.54 63.86 160.24 63.42 159.69 62.95 159.16 62.51 158.6 62.08 158.02 61.64 157.46 61.15 156.94 60.71 156.38 60.28 155.8 59.79 155.28 59.38 154.69 58.92 154.14 58.43 153.62 57.97 153.07 57.54 152.49 57.07 151.95 56.65 151.37 56.18 150.82 55.75 150.24 55.27 149.69"/>
          <polygon class="cls-20" points="55.27 149.69 54.57 149.54 53.87 149.41 53.16 149.39 52.44 149.43 51.73 149.5 51.03 149.62 50.32 149.76 49.63 149.94 48.96 150.18 48.26 150.37 47.61 150.67 46.96 150.98 46.33 151.31 45.69 151.66 45.09 152.05 44.5 152.46 43.92 152.89 43.34 153.33 42.76 153.77 42.17 154.18 41.58 154.6 41.02 155.06 40.44 155.49 39.83 155.88 39.26 156.33 38.66 156.74 38.08 157.18 37.48 157.6 36.88 158.03 36.3 158.48 35.7 158.9 35.11 159.33 34.49 159.72 33.9 160.15 33.29 160.54 32.7 160.96 32.1 161.37 31.53 161.82 30.89 162.16 30.31 162.53 30.7 163.09 31.08 163.68 31.53 164.23 31.93 164.81 32.3 165.42 32.71 165.99 33.14 166.55 33.56 167.12 33.94 167.71 34.36 168.28 34.76 168.86 35.15 169.45 35.54 170.05 35.97 170.62 36.37 171.21 36.79 171.77 37.19 172.36 37.59 172.95 37.99 173.54 38.37 174.14 38.76 174.73 39.16 175.31 39.51 175.92 40.04 175.46 40.61 175.04 41.17 174.6 41.71 174.13 42.28 173.7 42.83 173.26 43.35 172.77 43.93 172.35 44.5 171.93 45.05 171.47 45.62 171.04 46.15 170.57 46.74 170.16 47.31 169.73 47.88 169.29 48.45 168.86 49.05 168.46 49.62 168.03 50.2 167.61 50.79 167.2 51.38 166.79 51.96 166.38 52.54 165.96 53.15 165.59 53.79 165.29 54.42 164.97 55.03 164.63 55.67 164.34 56.29 164 56.93 163.71 57.54 163.35 58.19 163.06 58.83 162.75 59.46 162.43 60.1 162.12 60.73 161.8 61.36 161.49 62 161.19 62.63 160.86 63.25 160.54 63.86 160.24 63.42 159.69 62.95 159.16 62.51 158.6 62.08 158.02 61.64 157.46 61.15 156.94 60.71 156.38 60.28 155.8 59.79 155.28 59.38 154.69 58.92 154.14 58.43 153.62 57.97 153.07 57.54 152.49 57.07 151.95 56.65 151.37 56.18 150.82 55.75 150.24 55.27 149.69"/>
        </g>
      </g>
      <g>
        <path class="cls-1" d="M204.98,164.42c-5.68-1.57-7.06-6.95-5.09-11.32.95-2.12,1.95-4.21,3.38-6.1-1.16-.75-1.98-.09-2.82.41-3.55,2.1-7.02,4.34-10.96,5.73-1.82.65-3.71.97-5.58,1.4-1.31.3-2.58.08-3.85-.48-2.89-1.27-5.84-2.06-9.12-1.8-2.68.22-5.09-1.19-7.4-2.45-2.91-1.58-6.06-2.83-8.03-5.69-.45.24-.76.34-.96.53-4.14,3.91-9.24,4.27-14.52,3.91-.61-.04-1.23-.03-1.82-.14-.91-.17-1.57.03-1.98.92-.95,2.04-2.88,2.51-4.8,2.72-4.81.52-9.52.15-13.81-2.38-.65-.38-1.1-.52-1.91-.27-1.72.54-3.56.7-5.32,1.14-1.01.26-2.07.73-2.85-.13-.98-1.09-2.3-1.88-2.66-3.58-.65-3.1,1.01-5.09,3.1-6.71.93-.72,1.12-1.1.83-2.14-.27-.96-.26-2.01-.26-3.02,0-1.8.42-3.59-1.8-4.68-1.03-.51-1.31-1.97-1.5-3.2-.56-3.63-1.21-7.22,1.7-10.34,1.2-1.28,1.02-1.92-.36-2.93-1.23-.9-2.48-1.79-3.51-2.92-.91-1.01-1.72-2.11-3.29-1.02-.32.22-.76.1-1.07-.26-.46-.55.85-1.52,1.08-1.95.33-.88.19-3.51-1.8-3.48-.81,0-3.04.42-3.84.39-.23,0-.58-.29-.63-.5-.05-.23.13-.58.31-.77.71-.76,1.7-.53,2.58-.68.82-.14,1.91-.43,1.42-1.4-.48-.94.73-2.62-1.34-2.9-1.3-.17-2.57-.53-3.91-.44-.49.03-1.09-.07-1.05-.76.02-.54.38-.99.94-1.03,1.22-.07,2.46-.2,3.65-.02,1.3.19,1.61-.57,1.84-1.48.15-.58.13-1.21.21-1.81.3-2.29,1.2-4.35,2.98-5.8,2.82-2.3,5.53-4.83,9.02-6.1,1.22-.44,1.58-1.18,1.47-2.29-.17-1.69.33-3.17,1.13-4.64.88-1.62,1.06-3.45,1.38-5.24.49-2.68,2.14-3.74,4.52-3.29,1.05.2,1.51.94,2.08,1.63,2.06,2.52,3.69,5.31,5.07,8.25.51,1.08,1.27,1.49,1.57,1.45.53-.08,4.15.01,4.54-.09s.58-1,2-2.7c1.57-1.87,3.21-3.67,4.84-5.49,1.25-1.39,2.71-2.37,4.6-2.76,2.1-.43,3.02-.04,3.67,2,.8,2.52,1.11,5.14,1.19,7.76.04,1.39.31,2.3,1.74,2.66.98.25,1.62,1.22,2.81,1.34,1.48-2.75,2.18-5.78,2.71-8.82.37-2.1,1.32-3.85,2.79-5.26,1-.96,1.76-1.95,1.91-3.3.2-1.78,1.09-3.23,2.1-4.64,2.48-3.47,4.24-7.36,6.16-11.13,1.83-3.6,5-5.27,8.48-6.32,1.49-.45,3.37.31,4.94,1.02,2.61,1.17,5.4,1.43,8.48,2.06-.41-2.77-.59-5.24-1.16-7.62-1.32-5.55-.67-10.81,1.82-15.91,1.33-2.74,2.56-5.5,5.05-7.48.95-.75,1.41-1.94,1.86-3.09.62-1.57,1.76-2.64,3.3-3.4,2.44-1.22,4.87-2.47,7.18-3.97,1.93-1.25,4.3-1.84,6.69-1.46,3.08.5,6.14,1.17,9,2.5,1.39.65,2.66,1.51,3.61,2.75,1.98,2.58,3.55,5.46,4.69,8.46,1.34,3.54.68,7.11-1.39,10.35-.32.51-.68,1.02-.87,1.58-1.75,5.42-5.68,8.81-10.27,11.88-3.69,2.47-7.41,4.92-11,7.54-1.22.89-1.16,1.62.26,1.98,2.48.63,4.74,1.67,6.82,3.14.99.7,1.86.69,2.52-.48.94-1.66,2.02-3.21,2.74-5.04,1.32-3.38,2.82-6.7,6.45-8.48,1.43-.7,2.47-2.15,3.27-3.56,1.77-3.08,4.57-4.85,7.66-6.23,2.24-1,4.34-2.17,6.38-3.52,4.36-2.87,11.91-3.52,16.31-1.71,2.72,1.12,4.38,3.24,5.86,5.55,2.57,4,3.17,8.47,2.79,13.12-.15,1.81-1.1,3.27-2.3,4.51-2.26,2.34-4.38,4.81-6.58,7.2-2,2.17-4.88,3.29-7.7,3.95-5.3,1.24-10.03,3.95-15.5,5.38,1.66,2.43,3.93,3.18,6.26,3.81.48.13,1.04.03,1.5.19,5,1.76,8.48,5.36,5.72,11.81-1.49,3.49-3.06,7.01-6.33,9.47-2.09,1.57-3.62,3.78-4.68,6.27-.59,1.38-1.55,2.61-2.36,3.89-1.78,2.81-3.77,5.45-4.89,8.69-.92,2.66-2.51,5.05-4.3,7.28-2.03,2.53-3.65,5.29-3.87,8.79.62-.14,1.23-.15,1.73-.4,4.4-2.13,8.7-.91,13,.33,1.02.29,1.63,1.11,2.09,2.07,1.34,2.81,1.27,5.71.5,8.61-.95,3.55-2.43,6.85-4.96,9.6-.54.59-1.16,1.14-1.41,1.99.98.5,2,.3,2.92.01,1.43-.45,2.74-.11,4.15.05,3.2.36,4.16,2.71,4.8,5.09.7,2.64-.32,4.82-2.7,6.54-3.34,2.41-6.76,4.24-10.97,4.69-2.7.29-5.25.09-7.79-.71-1.45-.46-2.57-.66-3.45,1.07-.7,1.38-2.14,2.17-3.67,2.55-2.16.53-4.12,1.77-6.42,1.82-.11,0-.2.3-.31.46h-3.67c-1.18-.77-2.59.08-3.79-.54Z"/>
        <path class="cls-2" d="M204.98,164.42c1.26.18,2.68-.72,3.79.54h-3.67c-.1-.17-.14-.35-.13-.54Z"/>
        <path class="cls-16" d="M224.68,124.91c1.74-.59,3.27-1.03,4.75-1.62,3.01-1.21,5.79-.02,8.57.81,1.25.38,1.32,1.65,1.38,2.78.21,4.35-1.22,8.17-3.89,11.53-1.32,1.66-2.68,3.31-4.43,4.58-.41.29-.79.65-1.09,1.06-1.02,1.42-.49,2.8,1.23,3.19,1.62.37,3.26.16,4.83-.21,1.5-.36,3.02-.35,4.54-.52.83-.09,1.51.2,2.22.74,2.56,1.94,2.57,3.59-.08,5.36-.92.61-1.76,1.36-2.7,1.94-3.77,2.35-7.91,2.24-12.08,1.68-1.32-.18-2.25-.69-2.12-2.52.15-2.04-1.32-3.34-3.22-3.91-.87-.26-1.77-.39-2.6-1.07,2.33-2.56,4.37-5.33,6.38-8.13,2.09-2.92,2.64-6.3,3.15-9.68.36-2.37-.88-4.05-3.04-5.06-.53-.25-1.05-.54-1.8-.93Z"/>
        <path class="cls-9" d="M120.22,124.1c-1.42,3.73-.17,7.23.2,10.77.07.7.23,1.39.37,2.09.24,1.19-.17,1.93-1.36,2.29-1.09.33-1.99,1.02-2.75,1.85-1.16,1.26-1.36,2.39-.98,5.25-.94.03-2.28,1.16-2.16-1.07.04-.7-.36-1.16-1.07-1.22-.63-.06-1.18.16-1.61.68-.41.5-.55,1.08-.62,1.69-.08.78-.59,1.04-1.25.99-.74-.05-.92-.65-1.03-1.28-.4-2.42.04-3,2.49-3.25.49-.05,1.01-.1,1.47-.28,1.08-.43,1.8-1.2.98-2.32-.84-1.14-.94-2.48-1.14-3.73-.55-3.42-.28-6.6,2.83-9.03,1.69-1.31,2.85-3.33,5.63-3.41Z"/>
        <path class="cls-17" d="M109.56,128.42c-2.31-3.3-2.22-7.28.18-10.02.6-.69,1.11-1.39,1.53-2.22,1.61-3.2,5.33-5.08,8.8-4.51,1.02.17,2.06.49,2.08,1.78.01.95-1.64,2.03-2.72,1.9-2.86-.34-3.56.28-3.07,3.07.27,1.53.08,2.82-1.08,3.83-2.13,1.84-3.68,4.22-5.72,6.18Z"/>
        <path class="cls-7" d="M214.82,53.91c-.28.22-.52.39-.75.57-3.14,2.58-3.31,2.61-6.96.64-.7-.38-1.3-.96-2.02-1.25-.71-.29-1.59.14-2.33-.34.1-1.11.74-1.88,1.3-2.72.49-.74.88-1.54,1.32-2.34,2.58,2.81,7.08,1.96,9.43,5.43Z"/>
        <path class="cls-10" d="M148.28,131.5c-.55.15-1.09.41-1.65.43-.65.03-1.1-.45-1.31-1.03-.23-.63.03-1.23.58-1.55.66-.39,1.26-.83,2.07-1.04.98-.26,2.47-.58,3.16-1.57,1.15,1.35.87,2.36,1.32,3.45-1.15,1.21-2.47,1.85-4.17,1.3Z"/>
        <path class="cls-15" d="M153.67,135c-.45-.15-.77-.72-1.35-.43-.54.26-1.07.56-1.62.8-.94.41-2.06.86-2.8-.06-.97-1.22.25-1.94,1-2.69.99-.99,2.01-1.88,3.57-1.29.03,1.34,1.3,2.29,1.2,3.67Z"/>
        <path class="cls-6" d="M263.59,27.33c-1.29-1.94-3.07-3.5-5.38-3.66-3.83-.26-7.75-.44-11.19,1.87-2.36,1.59-4.82,2.99-7.46,4.08-2.49,1.03-4.48,2.66-5.98,5-1.2,1.87-2.7,3.64-4.68,4.74-1.62.9-2.61,2.24-3.41,3.77-.7,1.34-1.27,2.76-1.8,4.18-.8,2.13-2.02,4.21-3.71,5.48-2.35,1.76-4.61,3.56-6.72,5.58-.81.78-1.55.96-2.72.55-3.08-1.06-5.91-2.99-9.42-2.73-1.14.08-1.49-.82-1.17-1.94.43-1.48,1.13-2.82,1.95-4.11.65-1.02,1.42-1.93.82-3.31-.37-.85.22-1.58.88-2.1.8-.63,1.65-1.2,2.5-1.75,2.72-1.77,5.54-3.39,8.13-5.33,1.38-1.03,2.61-2.27,4.17-3.03,6.22-3,8.32-9.07,11-14.7.12-.26.06-.61.13-.9.67-2.81-.78-5.05-1.8-7.49-2.05-4.89-5.88-7-10.78-7.81-.4-.07-.85.01-1.21-.14-1.99-.86-3.94-.3-5.49.72-2.39,1.58-5,2.69-7.45,4.11-1.05.6-1.7,1.36-2.16,2.42-.6,1.41-1.31,2.79-2.5,3.79-3.11,2.61-4.35,6.31-5.6,9.92-.89,2.57-1.38,5.36-.62,8.09.88,3.14.92,6.4,1.6,9.57.5,2.35-1.22,4.47-3.52,4.04-2.97-.56-6.01-.86-8.86-2.03-4.2-1.72-7.44-.52-9.69,3.43-2.11,3.7-3.8,7.64-6.26,11.13-1.02,1.45-1.84,2.94-2.08,4.66-.21,1.54-.98,2.61-2.08,3.59-1.4,1.25-2.24,2.76-2.51,4.71-.38,2.7-.99,5.44-2.32,7.82-1.44,2.57-.6,4.56.9,6.6.42.57.8,1.19,1.27,1.72.87.98.48,2.51,1.22,3.33.93,1.04,2.52.19,3.78.52.44.12.71.42.74.85.04.44-.2.82-.64.89-.7.11-1.43.25-2.12.17-1.5-.18-1.55.92-1.86,1.87-.36,1.1.23,1.41,1.14,1.69.77.23,1.65.71,1.24,1.7-.42,1.01-1.31.68-2.1.34-.26-.11-.56-.11-.97-.18-.58,1.51-1.19,2.96-1.4,4.6.42.09.71.2,1,.21,4.39.15,7.53,1.96,8.95,6.37.52,1.62,1.5,3.1,2.32,4.61.33.62.73,1.3,1.56,1.3,2.63,0,5.31.38,7.86-.54,4-1.45,8.12-2.69,11.11-6.02.6-.67,1.37-.86,2.14-.17.74.66.73,1.49.23,2.2-.52.74-1.16,1.44-1.89,1.96-5.15,3.66-10.8,5.76-17.2,6.15-3.92.24-6.09-1.49-7.56-4.75-.71-1.57-1.45-3.13-2.15-4.7-.66-1.5-1.69-2.58-3.37-2.75-2.22-.22-4.42-.65-6.67-.64-2.09.01-3.75.78-5.07,2.32-.42.5-1.43,1-.92,1.68.6.81,1.15.53,1.6-.02.44-.54,1.22-.83,1.75-1.13.76-.43,1.55-.55,2.24.14.89.89.2,1.67-.24,2.45-2.07.71-3.75,1.94-4.92,3.79-.94,1.49-.81,2.11.52,3.43,2.24-5.7,2.54-5.09,5.13-6.47.91,0,1.83-.04,2.74.03.66.05,1.13.51,1.24,1.16.11.65-.24,1.24-.78,1.53-.52.27-1.16.3-1.75.45-1.64.42-2.67,1.38-2.76,3.16,2.74.55,5.45-.48,6.92-2.65.4-.59.68-1.3,1.56-1.22,1,.09,1.35.77,1.42,1.67.07.78.64,1.21,1.12,1.74,2.29,2.53,5.58,3.15,8.5,4.44,1.39.61,2.92.92,4.46.55,1.5-.35,3.07-.24,4.53-.58,2.16-.51,4.61.07,6.47-1.34,2.11-1.59,4.59-2.61,6.51-4.49.79-.78,1.91-1.59,2.91-.46.94,1.07.15,2.07-.71,2.88-1.04.97-2.04,1.97-3.35,2.62-.82.4-1.67.82-2.33,1.43-1.76,1.6-3.91,2.1-6.14,2.36-1.31.15-2.62.4-3.91.52-2.52.23-5.12.9-7.59.2-4.06-1.16-8.21-2.27-11.37-5.39-.65-.65-1.21-.99-1.98-.03-1.03,1.27-2.58,1.52-4.1,1.7-1.95.23-2.15.42-1.18,2.11.99,1.72,1.35,3.58,1.77,5.46.2.89.3,1.84.7,2.63,1.01,2.03,1.12,4.15.48,6.21-.31.99-.15,1.48.53,2.07,3.22,2.78,6.53,5.37,10.66,6.75,1.08.36,2.14.71,3.26.58,3.04-.37,5.83.4,8.57,1.61,1.01.45,2.04.98,3.22.69,3.15-.78,6.32-1.55,9.15-3.22,1.81-1.07,3.51-2.36,5.21-3.59,1.6-1.16,4.04-1.11,6.06-1.74,1.05-.33,2.01-.96,3-1.47.45-.23.87-.55,1.33-.73.78-.31,1.68-.49,2.21.33.48.74.22,1.49-.35,2.22-1.68,2.16-3.28,4.38-4.91,6.58-1.41,1.9-2.3,4.07-3.03,6.27-1.03,3.12.78,5.93,4.07,6.36,1.5.2,3.06.21,4.57.06,4.58-.46,8.73-1.67,10.89-6.39.83-1.81,1-2.83.05-3.94-1.07-1.25-2.37-.87-3.65-.47-1.2.38-2.21,1.28-3.63,1.42-.53-2.09.41-3.52,1.51-4.86,1.42-1.73,2.93-3.38,4.33-5.12,2.67-3.33,5.17-6.76,5.7-11.2.3-2.49.01-2.89-2.41-3.71-5.5-1.86-10.87-.22-16.13.93-3,.65-6,1.8-8.92,2.94-1.06.42-2.01.7-2.64-.45-.66-1.23.29-1.87,1.19-2.37.7-.39,1.47-.68,2.24-.93,1.54-.49,3.21-.72,4.64-1.43,2.9-1.43,6.02-1.74,9.13-2.19,1.7-.24,3.48-.26,5.08-.79,1.4-.46,3.28-.89,3.44-2.77.34-4.01,1.99-7.41,4.43-10.49,1.65-2.09,3.21-4.28,4.05-6.76,1.2-3.54,3.37-6.45,5.34-9.51.88-1.36,1.79-2.73,2.47-4.19,1.26-2.74,3.08-5.07,5.39-6.9,3.25-2.56,4.32-6.25,5.69-9.82.43-1.13.08-2.12-.69-3.1-1.3-1.65-3.06-2.16-4.99-2.62-3.93-.94-7.43-2.46-9.08-6.68-.98-2.5-.84-3.25,1.81-3.4,2.19-.12,4.18-.8,6.15-1.6,3.47-1.4,6.93-2.74,10.58-3.68,2.98-.77,5.92-2.19,7.75-5.01,1.23-1.9,2.99-3.32,4.54-4.93,1-1.05,1.73-2.17,1.85-3.71.35-4.25-.95-7.99-3.26-11.46Z"/>
        <path class="cls-17" d="M121.15,122.19c-.28-.25-.54-.4-.69-.63-.54-.83-1.11-1.89-.49-2.69.48-.63,1.59-.66,2.59-.15-.07,1.3-1.06,2.23-1.41,3.48Z"/>
        <path class="cls-11" d="M126.39,79.55c-1.37-.05-2.03-1.18-2.95-1.92-.66,2.13-1.18,4.23-.25,6.46.72,1.74,1.01,1.89,3.05.85.58-.19.66-.65.66-1.17,0-1.39-.15-2.78-.14-4.18-.17-.09-.18-.1-.37-.04Z"/>
        <path class="cls-4" d="M101.32,95.33c1.21,0,2.41,0,3.62,0,.53,0,.99.08,1.14.7-1.53-.61-3.28.3-4.75-.69Z"/>
        <path class="cls-17" d="M149.49,96.54c1.76-.49,3.56-.52,5.36-.46,1.62.05,1.5-.83,1.14-1.98-1.34.35-2.58.73-3.86.97-1.25.23-2.52.8-3.78.03.19-1.22,1.1-1.58,2.14-1.82,1.48-.34,2.94-.72,4.42-1.05,1.19-.26,1.45-.75.84-1.91-.79-1.53-2.06-2.73-2.7-4.37-1.18-3-3.39-4.89-6.49-5.83-1.95-.59-2.38-1.18-1.82-3.07.74-2.48-.31-4.76-.44-7.13-.05-.97-.84-1.08-1.57-.71-.53.27-1.03.67-1.43,1.11-1.84,2.02-3.65,4.07-5.45,6.12-.6.68-1.24,1.37-.91,2.42.38,1.25-.26,2.54.17,3.83.28.82.49,1.95-.42,2.47-1.02.57-1.63-5.06-2.4-5.42-.42-.17-.83-.17-1.24.03-1.23.56.15,7.65-2.32,7.14-.7-.82-.35-1.72-.19-2.61.07-.41.07-.83-.01-1.24-.28-.94-.24-1.93-.53-2.86-.13-.25.13-.47-.08-.66-.2-.1-1.25-.15-1.42-.02-.93,1.19.77,4.25-1.12,4.48-1.39.17-1.63-1.03-1.68-2.22-.05-1.37.32-2.86-.25-4.15-1.61-3.17-3.32-6.28-5.66-9.23-.89,1.22-.64,2.42-.98,3.46-1.01,3.14-2.56,6.14-2.21,9.62.1,1.03-.71,1.64-1.7,1.86-3.53.79-6.01,3.31-8.77,5.34-2.2,1.62-3.22,3.86-2.81,6.65,1.49.86,3.28-.32,4.75.69.43,1.32.26,2.22-1.44,2.12-.8-.05-1.61.01-2.42-.01-1.09-.03-1.34.45-1.21,1.5.14,1.08.59,1.45,1.59,1.16.97-.28,1.89-.72,2.95-.58.55.07,1,.26,1.11.84.11.58-.22.98-.75,1.14-1.49.47-2.99.9-4.52,1.36,1.37,2.32,1.36,2.31,3.46,1.58,1.24-.43,2.48-.85,3.75-1.19.75-.2,1.51,0,1.69.86.18.86-.46,1.31-1.2,1.45-1.47.29-2.89.69-4.33,1.66,1.36,1.27,2.6,2.45,3.88,3.59.46.4,1.2.78,1.62.2,1.73-2.35,4.52-2.47,6.9-3.44,1.4-.01,2.98-.45,4.2-.04s2.9,1.09,3.6,2.59c.55,1.17,1.3.97,1.79.19.93-1.49,2.43-2.02,3.87-2.7,1.4-.02,2.8-.05,4.2-.07,1.52.85,2.73,1.98,3.59,3.54,1.02,1.87,2.76,2.68,5,3.11,0-.63-.03-1.02,0-1.41.42-5.15,3.75-8.83,8.86-9.63.92-.14,1.5-.39,1.77-1.3.39-1.31,1.16-2.52.98-4.14-1.86.11-3.68-.5-5.39.55-.35.21-.81.15-1.1-.21-.38-.47-.21-.95.13-1.37.25-.31.57-.57.85-.86ZM127.1,105.94c-1.73,1.13-3.9.4-5.63,1.38-.06-.18-.16-.3-.29-.39.17-.55-.02-1.14.09-1.7,2.15,1.44,4.65,1.48,5.65-.04,1.4-2.13-.47-3.02-1.72-4.17-.98-.9-2.03-1.96-.85-3.38.91-1.09,2.22-1.57,3.57-1,1.52.64,1.99,1.95,1.58,3.53-.15.59-.61,1.06-.84,1.62-.79,1.88.06,3.14,2.1,3.32.67.06,1.27-.69,2.05-.13-1.85,1.1-4.01-.15-5.71.96Z"/>
        <path class="cls-9" d="M153.67,135c-.71-1.48-1.81-.8-2.88-.55-3.8.9-2.42-1.26-1.57-1.84s2.06-1.15,3.25-1.28v-1.13c-1.39.08-2.95.7-3.62.94s-1.48.8-2.18.22c-.36-.3-.33-.92-.1-1.3s.84-.73,1.34-1.04c1.01-.64,1.71-.42,3.49-1.93-.05-.19-.56-1.97-.62-2.15-1.27-1.16-2.74,1.2-4.04,1.46-1.2.24-2.31.96-3.6.64,1.15-1.64,5.18-2.23,6.17-4.06-1.82-1.18-4.81-2.23-5.16-4.48-1.06-1.24-2.57-.15-3.76-.72-1.98-1.48-4.36-2.43-5.44-5.01-.58-1.4-4.02-1.42-5.07-.25-.35.39-.61.83-.53,1.36.05.31-.03.62.59.74,3.09.58,3.45,1.09,3.5,4.22.04,2.62,1.49,4.27,4.13,4.69.7.11,1.42.11,2.09.3,2.02.55,2.21,1.13,1.18,3.24-.61,0-1.22.02-1.83-.02-5.25-.35-7.64-2.33-8.89-7.37-.1-.4-.15-.79-.63-1.12-1.01.7-2.69,0-3.47,1.36-1.62,2.82-3.19,5.74-2.99,9.1.14,2.51.57,5.01,1.23,7.47.92,3.44.34,4.48-2.92,5.77-2.53.63-3.74,2.65-1.76,4.27.3-.86.6-1.55,1.03-2.07.7-.86,1.66-1.05,2.63-.28.54.41.13,2.76-.3,4.13.82.26,1.48.47,2.17.69.12-1.47-.31-2.88.26-4.23.33-.78.68-1.59,1.67-1.47.99.13,1.21.92,1.16,1.82-.04.81-.14,1.64.02,2.42.16.76.48,1.51,1.55,1.57,1.25.07,1.99-.87,2.98-1.31.88-.39.38-1.26.35-1.91-.12-2.53,1.05-4.47,2.69-6.21.51-.54,1.15-.88,1.89-.4.83.54.95,1.3.45,2.11-.56.9-1.2,1.74-1.73,2.49.4.82.95,1.12,1.55,1.24,4.18.82,8.32.67,12.21-1.12,3.06-1.41,4.59-5.73,3.53-8.98Z"/>
        <path class="cls-1" d="M184.31,91.65c-3.71,2.77-8.19,1.26-9.83-1.43-.73-1.2-1.01-2.39-.64-3.76.2-.75.53-1.4,1.36-1.39.88,0,1.22.72,1.15,1.49-.12,1.35.35,2.36,1.41,3.16,2.05,1.55,4.06.89,4.99-1.54.7-1.83.58-3.14-1.17-4.43-2.77-2.04-2.73-5.15-2.04-8.08.52-2.23,2.71-2.87,4.72-3.36.77-.19,1.62-.08,2.43-.08,3.21.02,5.18,1.35,6.03,4.09.91,2.91.11,5.62-2.7,7.01-2.54,1.26-3.21,3.11-3.12,5.62.09,2.49,1.01,3.51,3.69,3.91,2.25.33,2.87-.07,3.63-2.36.13-.38.28-.76.5-1.1.28-.45.71-.76,1.27-.65.54.11.88.53,1.03,1.02.73,2.39-1.31,5.37-3.82,5.56-3.58.27-7.01.1-8.89-3.67Z"/>
        <path class="cls-1" d="M189.76,56.95c.04.91-.63,1.3-1.31,1.43-2.67.5-5.2,1.71-8,1.51-.91-.06-1.83-.02-2.74,0-1.58.03-3.33-.35-3.79,1.96-.13.67-.88.79-1.51.61-.68-.2-.88-.76-.88-1.42,0-1.63,1.09-3.13,2.73-3.57.97-.26,1.99-.52,2.98-.52,3.45,0,6.87,0,10.2-1.17,1.29-.46,2.28.22,2.34,1.19Z"/>
        <path class="cls-1" d="M213.53,74.96c0,.87-.43,1.66-1.3,1.75-.92.1-1.42-.77-1.52-1.58-.23-1.95-.86-3.73-2.01-5.3-.82-1.12-1.52-2.35-3.07-2.76-.61-.16-1.12-.83-1.61-1.33-.43-.43-.76-.94-.34-1.6.39-.61.96-.75,1.57-.59.67.17,1.4.36,1.95.76,3.66,2.6,5.59,6.26,6.32,10.66Z"/>
        <path class="cls-1" d="M203.27,74.04c.43,1.7-1.64,2.88-4.1,3.01-2.06.11-2.62-.42-2.69-2.34-.08-2.17.9-3.07,3.45-3.2,2.28-.11,3.27.64,3.34,2.53Z"/>
        <path class="cls-1" d="M181.89,68.36c-.02,1.62-.88,2.53-2.37,2.54-1.68,0-3.13-1.07-3.1-2.3.04-1.27,1.72-2.74,3.18-2.78,1.53-.04,2.32.83,2.29,2.54Z"/>
        <path class="cls-1" d="M121.47,107.34c-.37-.3-.44-.31-.64-.67-.33-.6-.81-1.49-.68-2.48.07-.55.23-1.03.77-1.17.61-.15.9.34.98.84.13.8.11,1.67,1.12,1.93.92.23,1.82.03,2.67-.28.67-.24,1.23-.68,1.18-1.56-.04-.66-.23-1.06-.9-1.38-1.08-.52-2.06-1.23-2.65-2.37-.82-1.59-.63-2.58.81-3.63,1.92-1.41,3.88-1.44,5.22-.07,1.57,1.6,1.76,3.73.11,5.36-.96.95-.73,1.58-.11,2.28.72.81,2.47.57,3.02-.4.29-.51.28-1.28,1.14-.95.78.3,1.05,1.64.46,2.37-.84,1.04-2.01,1.33-3.28,1.17-.76-.1-1.57-.82-2.28-.7s-1.25,1.08-1.92,1.47c-1.56.9-4.39.76-5.02.25Z"/>
        <path class="cls-1" d="M119.22,93.5c1.21.01,2.22,1.1,2.19,2.36-.02,1.17-.93,2.2-1.99,2.26-1.18.06-2.43-1.29-2.38-2.58.04-1.11,1.04-2.05,2.17-2.04Z"/>
        <path class="cls-1" d="M134.27,92.7c1.07-.03,2.19,1.02,2.23,2.08.05,1.2-1.26,2.47-2.6,2.52-1.07.04-1.98-.81-1.97-1.84.01-1.34,1.19-2.73,2.34-2.76Z"/>
        <path class="cls-1" d="M113.7,93.83c-.16-.2-.5-.42-.5-.65,0-.71.2-1.41.81-1.86,1.61-1.21,3.24-2.4,4.86-3.59.43-.32.9-.53,1.3,0,.36.48.21,1.08-.16,1.38-1.95,1.58-3.96,3.09-5.95,4.62-.07.05-.18.05-.35.1Z"/>
        <path class="cls-1" d="M141.08,93.56c-2.65-.16-4.3-1.42-5.21-3.91-.19-.53-.33-.99.22-1.29.59-.33.97.16,1.21.56.97,1.66,2.2,2.84,4.28,2.93.49.02,1.26.5,1.04,1.24-.22.75-.95.54-1.54.48Z"/>
        <path class="cls-13" d="M181.86,78.05c.04-2.35,1.46-3.4,4.59-3.39,2.35,0,3.93,1.43,3.98,3.58.05,2.05-2.81,4.24-5.47,4.2-1.9-.03-3.14-1.79-3.1-4.38Z"/>
        <path class="cls-5" d="M126.99,100.6c-.99.08-1.94-.49-1.99-1.78-.04-1.13,1.05-1.51,1.85-1.52,1.29-.02,1.88,1.03,1.85,2.08-.02.71-.37,1.22-1.71,1.21Z"/>
        <path class="cls-11" d="M128,84.33c0-.4-.06-4.62-.1-4.79,1.72.08,1.58.24,3.1.26,0,.14.09.52.09.66.06,1.3.39,1.46.18,3.89-.04.79,0,1.61-.15,2.38-.16.8-.68,1.5-1.49,1.71-.78.19-1.27-.39-1.62-1.04-.3-1.02-.29-2.05,0-3.07Z"/>
        <path class="cls-14" d="M134.87,78.6c.68,1.75,1.1,3.84,1.21,5.72.06.95,0,1.91-1.02,2.25-.84.27-1.13-.23-1.74-.75-.41-.36-.46-1.05-.6-1.52-.19-1.82-.5-4.56-.43-4.65,1.26,0,1.14.09,2.58-1.04Z"/>
        <path class="cls-8" d="M143.01,127.49c-.47-.65-.31-2.02,1.68-2.86s2.01-.8,3.02-1.22c.79-.67,1.59-.64,2.4-.03.56.52.61.97.67,1.55s-.9.52-1.55.93c-.66.41-2.44.78-4.26,1.77-.8.44-1.49.51-1.96-.14Z"/>
      </g>
    </g>
  </g>
</svg>