<?xml version="1.0" encoding="UTF-8"?>
<svg id="_レイヤー_2" data-name="レイヤー 2" xmlns="http://www.w3.org/2000/svg" viewBox="0 0 186 210.95">
  <defs>
    <style>
      .cls-1 {
        fill: #fff;
      }

      .cls-2 {
        fill: #2e2421;
      }

      .cls-3 {
        fill: #964629;
      }

      .cls-4 {
        fill: #faa2ad;
      }

      .cls-5 {
        fill: #e996a1;
      }

      .cls-6 {
        fill: #110d0d;
      }

      .cls-7 {
        fill: #de919a;
      }

      .cls-8 {
        fill: #231815;
      }

      .cls-9 {
        fill: #06c755;
      }

      .cls-10 {
        fill: #f03c3c;
      }
    </style>
  </defs>
  <g id="design">
    <g>
      <g>
        <path class="cls-9" d="M111.25,180.4c-2.65,0-5.5-.91-8.51-1.88-3.18-1.02-6.47-2.07-9.74-2.07s-6.56,1.05-9.74,2.07c-3.01,.96-5.86,1.88-8.51,1.88-.76,0-1.45-.07-2.11-.22-3.37-.76-6.17-3.43-9.14-6.26-2.35-2.24-4.78-4.55-7.6-5.91-2.88-1.39-6.25-1.86-9.51-2.32-4.02-.56-7.81-1.1-10.43-3.19-2.64-2.11-4.01-5.7-5.45-9.5-1.16-3.07-2.37-6.25-4.35-8.73-1.97-2.47-4.79-4.33-7.51-6.14-3.4-2.25-6.61-4.38-8.1-7.46-1.45-3-1.12-6.8-.78-10.83,.28-3.3,.57-6.7-.14-9.85-.68-3.01-2.39-5.88-4.04-8.66-2.1-3.54-4.09-6.88-4.09-10.38s1.99-6.84,4.09-10.38c1.65-2.77,3.35-5.64,4.04-8.65,.72-3.15,.42-6.55,.14-9.85-.34-4.03-.67-7.83,.78-10.83,1.48-3.07,4.69-5.2,8.1-7.46,2.72-1.81,5.54-3.67,7.51-6.14,1.98-2.48,3.19-5.66,4.35-8.73,1.44-3.8,2.8-7.39,5.45-9.5,2.63-2.1,6.42-2.63,10.43-3.19,3.26-.46,6.63-.93,9.51-2.32,2.81-1.36,5.24-3.67,7.6-5.91,2.97-2.83,5.77-5.5,9.14-6.26,.67-.15,1.36-.22,2.11-.22,2.65,0,5.5,.91,8.51,1.88,3.18,1.02,6.47,2.07,9.74,2.07s6.56-1.05,9.74-2.07c3.01-.96,5.86-1.88,8.51-1.88,.76,0,1.45,.07,2.11,.22,3.37,.76,6.17,3.43,9.14,6.26,2.35,2.24,4.78,4.55,7.6,5.91,2.88,1.39,6.25,1.86,9.51,2.32,4.02,.56,7.81,1.1,10.43,3.19,2.64,2.11,4.01,5.7,5.45,9.5,1.16,3.07,2.37,6.25,4.35,8.73,1.97,2.47,4.79,4.33,7.51,6.14,3.4,2.25,6.61,4.38,8.1,7.46,1.45,3,1.12,6.8,.78,10.83-.28,3.3-.57,6.7,.14,9.85,.68,3.01,2.39,5.88,4.04,8.66,2.1,3.54,4.09,6.88,4.09,10.38s-1.99,6.84-4.09,10.38c-1.65,2.77-3.35,5.64-4.04,8.65-.72,3.15-.42,6.55-.14,9.85,.34,4.03,.67,7.83-.78,10.83-1.48,3.07-4.69,5.2-8.1,7.46-2.72,1.81-5.54,3.67-7.51,6.14-1.98,2.48-3.19,5.66-4.35,8.73-1.44,3.8-2.8,7.39-5.45,9.5-2.63,2.1-6.42,2.63-10.43,3.19-3.26,.46-6.63,.93-9.51,2.32-2.81,1.36-5.24,3.67-7.6,5.91-2.97,2.83-5.77,5.5-9.14,6.26-.67,.15-1.36,.22-2.11,.22Z"/>
        <path class="cls-8" d="M74.75,3c2.42,0,5.16,.88,8.05,1.81,3.29,1.05,6.69,2.14,10.2,2.14s6.91-1.09,10.2-2.14c2.9-.93,5.64-1.81,8.05-1.81,.64,0,1.22,.06,1.78,.19,2.96,.67,5.62,3.21,8.44,5.89,2.44,2.32,4.95,4.72,7.98,6.18,3.09,1.49,6.58,1.98,9.96,2.46,3.81,.53,7.4,1.04,9.71,2.88,2.32,1.86,3.61,5.26,4.98,8.86,1.21,3.18,2.45,6.47,4.58,9.13,2.12,2.65,5.03,4.58,7.85,6.45,3.22,2.14,6.27,4.16,7.57,6.86,1.27,2.63,.96,6.23,.63,10.05-.29,3.41-.59,6.94,.17,10.31,.74,3.24,2.5,6.21,4.21,9.09,1.99,3.36,3.88,6.53,3.88,9.61s-1.88,6.26-3.88,9.61c-1.71,2.87-3.47,5.85-4.21,9.09-.77,3.37-.46,6.9-.17,10.31,.33,3.81,.64,7.42-.63,10.05-1.3,2.7-4.35,4.72-7.57,6.86-2.82,1.87-5.74,3.8-7.85,6.45-2.13,2.67-3.38,5.96-4.58,9.13-1.37,3.6-2.66,7.01-4.98,8.86-2.31,1.84-5.9,2.35-9.71,2.88-3.38,.47-6.87,.96-9.96,2.45-3.02,1.46-5.54,3.86-7.98,6.17-2.82,2.68-5.47,5.21-8.44,5.89-.55,.13-1.14,.19-1.78,.19-2.42,0-5.16-.88-8.05-1.81-3.29-1.05-6.69-2.14-10.2-2.14s-6.91,1.09-10.2,2.14c-2.9,.93-5.64,1.81-8.05,1.81-.64,0-1.23-.06-1.78-.19-2.96-.67-5.62-3.21-8.44-5.89-2.44-2.32-4.95-4.72-7.98-6.18-3.09-1.49-6.58-1.98-9.96-2.46-3.81-.53-7.4-1.04-9.71-2.88-2.32-1.86-3.61-5.26-4.98-8.86-1.21-3.18-2.45-6.47-4.58-9.13-2.12-2.65-5.03-4.58-7.85-6.45-3.22-2.14-6.27-4.16-7.57-6.86-1.27-2.63-.96-6.23-.63-10.05,.29-3.41,.59-6.94-.17-10.31-.74-3.24-2.5-6.21-4.21-9.09-1.99-3.36-3.88-6.53-3.88-9.61s1.88-6.26,3.88-9.61c1.71-2.87,3.47-5.85,4.21-9.09,.77-3.37,.46-6.9,.17-10.31-.33-3.81-.64-7.42,.63-10.05,1.3-2.7,4.35-4.72,7.57-6.86,2.82-1.87,5.74-3.8,7.85-6.45,2.13-2.67,3.38-5.96,4.58-9.13,1.37-3.6,2.66-7.01,4.98-8.86,2.31-1.84,5.9-2.35,9.71-2.88,3.38-.47,6.87-.96,9.96-2.45,3.02-1.46,5.54-3.86,7.98-6.17,2.82-2.68,5.47-5.21,8.44-5.89,.55-.13,1.14-.19,1.78-.19M111.25,0c-5.82,0-12.22,3.95-18.25,3.95s-12.43-3.95-18.25-3.95c-.83,0-1.64,.08-2.45,.26-6.65,1.51-11.06,9.39-17.06,12.28-6.1,2.94-14.99,1.51-20.23,5.69-5.27,4.2-5.83,13.2-10.04,18.47-4.18,5.24-12.84,7.78-15.78,13.88-2.9,6,.48,14.34-1.03,20.99-1.46,6.44-8.16,12.48-8.16,19.37s6.7,12.93,8.16,19.37c1.51,6.65-1.87,14.99,1.03,20.99,2.94,6.1,11.6,8.64,15.78,13.88,4.2,5.27,4.77,14.26,10.04,18.47,5.24,4.18,14.13,2.75,20.23,5.69,6,2.9,10.4,10.77,17.06,12.28,.8,.18,1.62,.26,2.45,.26,5.82,0,12.22-3.95,18.25-3.95s12.43,3.95,18.25,3.95c.83,0,1.64-.08,2.45-.26,6.65-1.51,11.06-9.39,17.06-12.28,6.1-2.94,14.99-1.51,20.23-5.69,5.27-4.2,5.83-13.2,10.04-18.47,4.18-5.24,12.84-7.78,15.78-13.88,2.9-6-.48-14.34,1.03-20.99,1.46-6.44,8.16-12.48,8.16-19.37s-6.7-12.93-8.16-19.37c-1.51-6.65,1.87-14.99-1.03-20.99-2.94-6.1-11.6-8.64-15.78-13.88-4.2-5.27-4.77-14.26-10.04-18.47-5.24-4.18-14.13-2.75-20.23-5.69-6-2.9-10.4-10.77-17.06-12.28-.8-.18-1.62-.26-2.45-.26h0Z"/>
      </g>
      <g>
        <path class="cls-1" d="M74.46,50.17c-.25-.24-.37-.53-.36-.87,.01-.34,.15-.64,.42-.89,.51-.48,1.03-1.05,1.57-1.72,.54-.67,1.04-1.36,1.51-2.07,.47-.71,.83-1.36,1.1-1.95,.15-.33,.38-.55,.7-.64,.32-.09,.63-.07,.92,.08,.31,.16,.51,.39,.61,.69,.1,.3,.08,.6-.07,.91-.36,.77-.79,1.54-1.28,2.31-.49,.77-1.01,1.49-1.56,2.18-.55,.69-1.09,1.3-1.62,1.85-.27,.25-.58,.41-.95,.46-.37,.05-.7-.06-.99-.34Zm16.32,7.34c-.29,.2-.62,.27-.99,.2-.37-.07-.64-.25-.83-.54-.13-.2-.28-.41-.43-.64s-.32-.47-.51-.72c-.6,.08-1.3,.17-2.09,.26-.79,.09-1.63,.19-2.51,.29-.88,.1-1.75,.2-2.61,.3s-1.67,.19-2.42,.27c-.75,.08-1.39,.15-1.91,.2-.41,.04-.75-.04-1-.24-.25-.2-.4-.49-.44-.86-.03-.32,.07-.6,.28-.84s.51-.37,.88-.4c.27-.03,.56-.05,.87-.07,.31-.02,.66-.04,1.03-.07,.27-.52,.57-1.12,.9-1.81,.33-.69,.67-1.4,1.01-2.14s.66-1.44,.95-2.11c.29-.67,.53-1.24,.72-1.72,.13-.33,.35-.57,.66-.7,.31-.13,.63-.14,.96-.02,.33,.12,.57,.34,.71,.65,.14,.31,.14,.63,0,.95-.25,.57-.56,1.25-.92,2.02s-.74,1.57-1.14,2.38c-.4,.81-.78,1.57-1.14,2.26,1-.09,2-.19,3.01-.29,1.01-.1,1.92-.19,2.73-.27-.31-.4-.61-.78-.91-1.15-.3-.37-.57-.68-.81-.95-.21-.23-.31-.5-.3-.82,.01-.32,.14-.58,.38-.78,.25-.21,.54-.31,.86-.3,.32,.01,.59,.13,.82,.36,.32,.33,.68,.73,1.08,1.19,.4,.46,.81,.95,1.22,1.46,.41,.51,.81,1.01,1.18,1.49s.7,.91,.98,1.3c.21,.31,.3,.64,.25,.99-.05,.35-.22,.64-.53,.87Zm-.02-7.54c-.71-.55-1.39-1.15-2.04-1.81s-1.24-1.35-1.77-2.07-.98-1.43-1.35-2.12c-.16-.31-.3-.54-.43-.69-.13-.15-.29-.25-.48-.3s-.47-.07-.83-.07h-1.42c-.29,0-.55-.11-.76-.33-.21-.22-.32-.48-.32-.77s.11-.57,.32-.78c.21-.21,.47-.32,.76-.32h1.42c.75,0,1.34,.06,1.78,.18,.44,.12,.81,.33,1.11,.64,.3,.31,.6,.74,.91,1.3,.51,.89,1.17,1.8,2,2.71,.83,.91,1.74,1.72,2.74,2.41,.31,.2,.49,.48,.55,.84,.06,.36-.02,.69-.25,.98-.24,.29-.55,.46-.92,.49s-.71-.06-1.02-.29Z"/>
        <path class="cls-1" d="M109.16,56.73c-.84-1-1.61-2.37-2.32-4.12-.71-1.75-1.23-3.95-1.58-6.6h-8.4c-.33,0-.6-.11-.81-.33s-.31-.49-.31-.81,.1-.57,.31-.79,.48-.33,.81-.33h8.16c-.03-.45-.05-.92-.07-1.4-.02-.48-.04-.97-.07-1.46,0-.37,.12-.67,.35-.89s.52-.33,.85-.33,.62,.1,.85,.31,.35,.5,.35,.89c-.01,.49-.01,.98,0,1.46,.02,.48,.04,.95,.07,1.42h5.54c.35,0,.62,.11,.82,.33s.3,.48,.3,.79-.1,.59-.3,.81-.47,.33-.82,.33h-5.3c.29,2.13,.74,3.97,1.33,5.51,.59,1.54,1.26,2.69,1.99,3.45,.2,.21,.37,.3,.51,.27,.14-.03,.27-.17,.39-.41,.07-.15,.15-.32,.24-.51,.09-.19,.17-.36,.22-.49,.13-.31,.34-.51,.63-.61,.29-.1,.58-.09,.87,.03,.31,.13,.52,.34,.63,.61s.12,.55,.03,.83c-.09,.28-.2,.55-.31,.8s-.24,.53-.39,.84c-.36,.75-.8,1.25-1.32,1.51-.52,.26-1.06,.29-1.63,.1-.57-.19-1.11-.6-1.63-1.21Zm-11.9,.76c-.37,.05-.68,0-.92-.19-.24-.18-.39-.45-.46-.79-.05-.35,.02-.63,.21-.85,.19-.22,.47-.36,.83-.41,.09-.01,.39-.06,.9-.14,.51-.08,1.11-.17,1.8-.28v-4.32h-2.4c-.33,0-.6-.11-.79-.32s-.29-.47-.29-.76,.1-.56,.29-.77,.46-.31,.79-.31h6.96c.33,0,.59,.1,.78,.31s.28,.46,.28,.77-.09,.55-.28,.76-.45,.32-.78,.32h-2.08v3.92c.71-.11,1.33-.21,1.87-.3,.54-.09,.88-.15,1.01-.16,.35-.07,.63-.03,.85,.12s.36,.38,.41,.7c.07,.32,.02,.59-.13,.81-.15,.22-.38,.36-.69,.43-.12,.03-.39,.08-.8,.15-.41,.07-.91,.16-1.5,.27-.59,.11-1.2,.22-1.84,.33-.64,.11-1.25,.22-1.83,.33-.58,.11-1.07,.19-1.46,.26-.39,.07-.64,.11-.73,.12Zm14.4-14.02c-.24,.2-.52,.29-.83,.26-.31-.03-.58-.15-.81-.38-.09-.11-.23-.24-.4-.41-.17-.17-.35-.33-.52-.49-.17-.16-.31-.29-.42-.38-.21-.19-.32-.43-.31-.72,0-.29,.12-.55,.33-.76,.21-.23,.46-.35,.75-.38,.29-.03,.55,.07,.79,.28,.12,.09,.28,.23,.48,.41s.4,.36,.59,.53,.34,.31,.43,.42c.23,.23,.33,.5,.31,.81-.02,.31-.15,.58-.39,.81Z"/>
        <path class="cls-1" d="M27.22,85.57c-.79,0-1.18-.39-1.18-1.18v-11.64c0-.79,.38-1.18,1.14-1.18s1.16,.39,1.16,1.18v10.68h6.12c.79,0,1.18,.35,1.18,1.06s-.39,1.08-1.18,1.08h-7.24Z"/>
        <path class="cls-1" d="M39.98,85.57c-.76,0-1.14-.39-1.14-1.18v-11.64c0-.79,.38-1.18,1.14-1.18s1.16,.39,1.16,1.18v11.64c0,.79-.39,1.18-1.16,1.18Z"/>
        <path class="cls-1" d="M46.52,85.57c-.76,0-1.14-.39-1.14-1.18v-11.64c0-.79,.38-1.18,1.14-1.18h.26c.6,0,1.07,.26,1.42,.78l6.08,9.16v-8.76c0-.39,.1-.68,.31-.88,.21-.2,.5-.3,.87-.3,.77,0,1.16,.39,1.16,1.18v11.64c0,.79-.37,1.18-1.1,1.18h-.2c-.61,0-1.09-.26-1.42-.78l-6.22-9.44v9.04c0,.79-.39,1.18-1.16,1.18Z"/>
        <path class="cls-1" d="M62.02,85.57c-.79,0-1.18-.39-1.18-1.18v-11.64c0-.79,.39-1.18,1.18-1.18h7c.79,0,1.18,.36,1.18,1.08s-.39,1.06-1.18,1.06h-5.88v3.64h5.26c.79,0,1.18,.36,1.18,1.08s-.39,1.08-1.18,1.08h-5.26v3.92h6.1c.79,0,1.18,.35,1.18,1.06s-.39,1.08-1.18,1.08h-7.22Z"/>
        <path class="cls-1" d="M76.24,85.17c-.29,.15-.6,.16-.93,.05-.33-.11-.56-.32-.71-.63-.15-.31-.16-.62-.05-.94s.32-.55,.61-.7c1.91-.92,3.6-2.03,5.09-3.33,1.49-1.3,2.7-2.71,3.63-4.23,.59-.96,.27-1.44-.96-1.44h-5.46c-.33,0-.62-.12-.86-.37-.24-.25-.36-.54-.36-.87s.12-.64,.36-.88c.24-.24,.53-.36,.86-.36h5.54c1.2,0,2.12,.22,2.76,.65,.64,.43,.99,1.02,1.05,1.77,.06,.75-.19,1.61-.75,2.58-.29,.53-.65,1.07-1.06,1.6,.61,.51,1.24,1.06,1.89,1.67s1.25,1.19,1.82,1.76,1.04,1.05,1.43,1.45c.23,.24,.34,.53,.34,.88s-.13,.64-.38,.88c-.24,.24-.53,.36-.88,.35-.35,0-.64-.13-.88-.37-.36-.37-.81-.84-1.36-1.41-.55-.57-1.13-1.15-1.74-1.76-.61-.61-1.21-1.16-1.78-1.65-1.01,1.05-2.14,2.04-3.39,2.97-1.25,.93-2.52,1.7-3.83,2.33Z"/>
        <path class="cls-1" d="M95.24,86.43c-.32,.13-.64,.14-.95,.02-.31-.12-.54-.34-.69-.66-.13-.31-.14-.62,0-.94s.34-.55,.65-.68c2.75-1.19,5.01-2.69,6.78-4.52-.29-.29-.57-.56-.84-.8s-.49-.43-.68-.58c-.25-.23-.4-.51-.45-.84-.05-.33,.04-.63,.25-.88,.23-.27,.51-.42,.85-.46,.34-.04,.64,.05,.89,.28,.23,.17,.47,.38,.73,.61,.26,.23,.54,.48,.83,.75,.24-.35,.47-.7,.68-1.06,.21-.36,.41-.73,.6-1.1,.21-.44,.26-.77,.13-.99s-.45-.33-.97-.33h-2.72c-.67,.89-1.41,1.75-2.24,2.57-.83,.82-1.61,1.5-2.36,2.05-.28,.2-.59,.27-.93,.21s-.6-.23-.79-.51c-.2-.28-.27-.59-.21-.92,.06-.33,.23-.6,.51-.8,.77-.56,1.52-1.19,2.23-1.9,.71-.71,1.36-1.45,1.93-2.23,.57-.78,1.03-1.54,1.38-2.27,.15-.31,.38-.52,.69-.65,.31-.13,.62-.12,.93,0,.31,.13,.52,.36,.65,.69,.13,.33,.12,.64-.03,.95-.03,.07-.06,.14-.09,.21-.03,.07-.07,.14-.11,.21h1.54c1.03,0,1.82,.19,2.37,.58,.55,.39,.86,.92,.93,1.61,.07,.69-.12,1.47-.56,2.35-.49,1.04-1.11,2.03-1.84,2.98,.31,.29,.59,.57,.84,.84,.25,.27,.47,.51,.64,.72,.23,.27,.32,.57,.28,.92-.04,.35-.2,.63-.48,.86-.27,.21-.57,.3-.91,.25-.34-.05-.62-.2-.85-.45-.13-.16-.3-.35-.5-.56-.2-.21-.41-.43-.64-.66-2.08,2.16-4.57,3.87-7.46,5.12Z"/>
        <path class="cls-1" d="M115.1,76.91c-.51-.43-1.07-.87-1.7-1.33-.63-.46-1.19-.84-1.7-1.13-.29-.19-.48-.44-.56-.77s-.03-.64,.14-.93c.19-.29,.44-.48,.77-.57,.33-.09,.64-.04,.93,.15,.36,.23,.77,.5,1.23,.83s.91,.65,1.34,.97c.43,.32,.79,.59,1.07,.82,.27,.21,.42,.49,.47,.83,.05,.34-.04,.64-.25,.91-.21,.27-.49,.42-.83,.47s-.64-.04-.91-.25Zm-1.72,7.88c-.32,.12-.64,.11-.95-.04s-.53-.38-.65-.7c-.12-.32-.11-.64,.04-.95,.15-.31,.38-.53,.7-.65,1.07-.37,2.14-.83,3.23-1.38,1.09-.55,2.13-1.14,3.12-1.79,.99-.65,1.9-1.31,2.72-2,.82-.69,1.49-1.35,2.01-1.99,.23-.27,.51-.42,.85-.46,.34-.04,.64,.05,.89,.28,.27,.21,.42,.49,.46,.83s-.05,.64-.28,.91c-.55,.67-1.27,1.38-2.18,2.13-.91,.75-1.92,1.5-3.04,2.23-1.12,.73-2.27,1.41-3.46,2.04-1.19,.63-2.34,1.14-3.46,1.54Z"/>
        <path class="cls-1" d="M131.84,85.91c-.31,.13-.62,.14-.94,0s-.55-.34-.7-.65c-.13-.32-.14-.64-.02-.97,.12-.33,.33-.56,.64-.69,2.08-.93,3.84-2.05,5.27-3.36,1.43-1.31,2.48-2.73,3.13-4.26,.29-.67,.34-1.17,.14-1.51s-.69-.51-1.48-.51h-7.5c-.33,0-.62-.12-.86-.37-.24-.25-.36-.54-.36-.87s.12-.64,.36-.88,.53-.36,.86-.36h7.6c1.23,0,2.18,.22,2.85,.67,.67,.45,1.07,1.07,1.19,1.86s-.04,1.72-.48,2.79c-.79,1.87-2,3.58-3.65,5.15-1.65,1.57-3.66,2.88-6.05,3.95Zm12.42-12.08c-.56,0-1.04-.2-1.43-.59s-.59-.87-.59-1.43,.2-1.04,.59-1.43c.39-.39,.87-.59,1.43-.59s1.02,.2,1.41,.59c.39,.39,.59,.87,.59,1.43s-.2,1.04-.59,1.43c-.39,.39-.86,.59-1.41,.59Zm0-1.16c.24,0,.44-.08,.61-.25s.25-.37,.25-.61-.08-.44-.25-.61c-.17-.17-.37-.25-.61-.25s-.45,.08-.62,.25c-.17,.17-.26,.37-.26,.61s.09,.44,.26,.61c.17,.17,.38,.25,.62,.25Z"/>
        <path class="cls-1" d="M154.74,86.71c-1.57,0-2.81-.41-3.72-1.24-.91-.83-1.36-2.01-1.36-3.54,0-.16,.02-.39,.06-.68,.04-.29,.09-.63,.14-1.02-.37-.07-.73-.14-1.07-.22s-.65-.15-.93-.22c-.32-.09-.56-.29-.71-.58-.15-.29-.18-.59-.09-.9,.11-.31,.3-.54,.59-.7,.29-.16,.58-.19,.89-.1,.47,.15,1.05,.28,1.74,.4,.07-.39,.14-.78,.22-1.18,.08-.4,.15-.81,.22-1.22-.36-.07-.69-.13-1-.2-.31-.07-.56-.13-.76-.18-.31-.09-.54-.28-.7-.57-.16-.29-.19-.58-.1-.89,.09-.32,.28-.56,.56-.72,.28-.16,.58-.19,.9-.1,.16,.04,.37,.09,.64,.15s.57,.12,.9,.19c.11-.63,.2-1.2,.29-1.71s.14-.93,.15-1.25c.03-.33,.18-.6,.45-.8s.57-.28,.89-.24c.33,.04,.6,.19,.8,.45,.2,.26,.28,.56,.24,.89-.04,.33-.1,.77-.19,1.31s-.2,1.13-.33,1.77c.21,.04,.41,.07,.59,.09,.18,.02,.34,.04,.49,.07,.32,.05,.58,.21,.78,.46,.2,.25,.28,.54,.24,.86-.04,.33-.19,.6-.45,.79-.26,.2-.55,.27-.87,.23-.16-.01-.35-.04-.56-.07-.21-.03-.43-.06-.66-.09-.08,.39-.16,.77-.23,1.16s-.14,.77-.21,1.14c.27,.03,.52,.05,.77,.08,.25,.03,.48,.05,.69,.06,.32,.01,.59,.14,.81,.39,.22,.25,.32,.53,.31,.85-.01,.33-.14,.61-.39,.82-.25,.21-.54,.31-.87,.3-.27-.03-.55-.05-.84-.07-.29-.02-.59-.05-.9-.09-.11,.64-.16,1.09-.16,1.34,0,1.6,.91,2.4,2.74,2.4,.76,0,1.39-.18,1.9-.53,.51-.35,.81-.82,.92-1.39,.2-1.01-.21-1.99-1.22-2.92-.24-.23-.35-.51-.33-.85,.02-.34,.16-.62,.41-.85,.24-.23,.52-.33,.84-.3,.32,.03,.6,.15,.84,.38,.75,.71,1.27,1.48,1.56,2.31,.29,.83,.37,1.67,.22,2.51-.2,1.21-.76,2.19-1.68,2.92-.92,.73-2.07,1.1-3.46,1.1Z"/>
        <path class="cls-1" d="M53.32,115.79c-.25-.15-.41-.36-.47-.65-.06-.29,0-.54,.15-.77,.16-.21,.34-.47,.54-.78s.4-.61,.59-.92,.35-.57,.47-.8c.15-.28,.36-.45,.63-.52,.27-.07,.53-.04,.77,.08,.27,.13,.44,.33,.51,.58s.04,.51-.09,.76c-.13,.28-.29,.59-.48,.92-.19,.33-.38,.66-.57,.97s-.36,.58-.51,.79c-.17,.25-.41,.42-.7,.49-.29,.07-.57,.02-.84-.15Zm3.76-4.66c-.83,0-1.47-.09-1.93-.26-.46-.17-.78-.46-.96-.87-.18-.41-.27-.96-.27-1.65v-7.14c0-.71,.09-1.26,.27-1.67,.18-.41,.5-.69,.96-.86,.46-.17,1.1-.25,1.93-.25s1.47,.08,1.92,.25c.45,.17,.77,.45,.95,.86,.18,.41,.27,.96,.27,1.67v7.14c0,.69-.09,1.24-.27,1.65s-.5,.7-.95,.87c-.45,.17-1.09,.26-1.92,.26Zm-1.16-9.06h2.3v-.7c0-.41-.07-.68-.2-.81-.13-.13-.45-.19-.94-.19s-.81,.06-.95,.19c-.14,.13-.21,.4-.21,.81v.7Zm0,3.5h2.3v-1.7h-2.3v1.7Zm1.16,3.6c.49,0,.81-.06,.94-.19,.13-.13,.2-.4,.2-.81v-.82h-2.3v.82c0,.41,.07,.68,.21,.81,.14,.13,.46,.19,.95,.19Zm2.5,6.74c-.21-.16-.34-.36-.37-.61-.03-.25,0-.48,.11-.71-.25-.25-.53-.56-.84-.92-.31-.36-.57-.67-.78-.94-.19-.24-.26-.5-.23-.77,.03-.27,.17-.49,.41-.65,.23-.16,.47-.22,.74-.19s.49,.16,.68,.39c.15,.17,.32,.37,.52,.59s.41,.43,.62,.63c.51-1.07,.85-2.25,1.04-3.56,.19-1.31,.28-2.87,.28-4.7v-2.74c0-.81,.11-1.46,.33-1.93,.22-.47,.59-.82,1.1-1.03,.51-.21,1.21-.32,2.09-.32h4.98c.31,0,.55,.1,.72,.3,.17,.2,.26,.43,.26,.7s-.09,.5-.26,.69c-.17,.19-.41,.29-.72,.29h-4.98c-.57,0-.96,.09-1.15,.27s-.29,.52-.29,1.03v1.48h3.36c1.2,0,2.01,.26,2.44,.78s.53,1.35,.3,2.5c-.36,1.77-.96,3.41-1.8,4.9,.35,.47,.73,.91,1.16,1.34,.43,.43,.89,.83,1.4,1.22,.24,.17,.38,.4,.42,.69,.04,.29-.03,.56-.2,.81-.17,.27-.43,.42-.77,.46-.34,.04-.64-.05-.89-.26-.89-.72-1.67-1.54-2.34-2.46-.73,.93-1.6,1.78-2.6,2.54-.28,.21-.57,.31-.86,.29s-.54-.15-.74-.39c-.19-.23-.26-.49-.22-.79s.19-.54,.44-.73c.55-.4,1.05-.84,1.52-1.31,.47-.47,.89-.98,1.26-1.51-.93-1.81-1.53-3.85-1.78-6.12h-.1c-.01,1.64-.11,3.08-.29,4.33-.18,1.25-.46,2.37-.84,3.36-.38,.99-.9,1.94-1.55,2.83-.17,.25-.42,.4-.73,.44-.31,.04-.6-.03-.85-.22Zm7.34-6.66c.43-.95,.76-1.92,1-2.92,.09-.43,.07-.73-.06-.9-.13-.17-.45-.26-.96-.26h-1.08c.19,1.51,.55,2.87,1.1,4.08Z"/>
        <path class="cls-1" d="M77.26,104.79c-.29,0-.53-.1-.7-.3-.17-.2-.26-.43-.26-.68,0-.27,.09-.5,.26-.7,.17-.2,.41-.3,.7-.3h4.88v-1.22h-6.9c-.29,0-.53-.1-.72-.3-.19-.2-.28-.43-.28-.7s.09-.5,.28-.69,.43-.29,.72-.29h6.9v-.8c0-.39,.12-.69,.37-.92,.25-.23,.54-.34,.87-.34s.64,.11,.89,.34c.25,.23,.37,.53,.37,.92v.8h7c.31,0,.55,.1,.72,.29s.26,.42,.26,.69-.09,.5-.26,.7c-.17,.2-.41,.3-.72,.3h-7v1.22h4.96c.31,0,.55,.1,.73,.3,.18,.2,.27,.43,.27,.7,0,.25-.09,.48-.27,.68-.18,.2-.42,.3-.73,.3h-12.34Zm-1.32,11.4c-.37,.07-.7,.04-.98-.09-.28-.13-.47-.34-.56-.65-.09-.35-.07-.65,.08-.92,.15-.27,.39-.43,.72-.5,1.04-.21,1.89-.52,2.54-.91,.65-.39,1.16-.91,1.51-1.56,.35-.65,.59-1.46,.71-2.43,.04-.33,.19-.58,.45-.75,.26-.17,.55-.23,.87-.19,.36,.04,.64,.18,.83,.43,.19,.25,.26,.54,.21,.87-.24,1.92-.88,3.43-1.91,4.52s-2.52,1.82-4.47,2.18Zm.28-5.92c-.35,0-.64-.1-.89-.31-.25-.21-.37-.5-.37-.87v-.62c0-.99,.25-1.69,.76-2.1,.51-.41,1.37-.62,2.58-.62h10.3c1.23,0,2.09,.21,2.59,.62,.5,.41,.75,1.11,.75,2.1v.62c0,.37-.12,.66-.36,.87-.24,.21-.53,.31-.88,.31s-.64-.1-.89-.31c-.25-.21-.37-.5-.37-.87v-.32c0-.43-.09-.71-.26-.86-.17-.15-.49-.22-.96-.22h-9.48c-.47,0-.8,.07-.99,.21-.19,.14-.29,.43-.29,.87v.32c0,.37-.12,.66-.36,.87-.24,.21-.53,.31-.88,.31Zm11.9,5.64c-1.04,0-1.86-.09-2.46-.27-.6-.18-1.02-.49-1.27-.94-.25-.45-.37-1.07-.37-1.87v-3.4c0-.37,.12-.67,.36-.9,.24-.23,.53-.34,.86-.34s.64,.11,.87,.34,.35,.53,.35,.9v3.1c0,.45,.12,.75,.35,.9s.74,.22,1.51,.22c.45,0,.81-.04,1.07-.12s.47-.23,.62-.45,.29-.53,.41-.93c.11-.35,.32-.57,.65-.66s.66-.07,.99,.06c.29,.12,.49,.31,.6,.56,.11,.25,.12,.55,.04,.88-.19,.77-.46,1.37-.81,1.79-.35,.42-.83,.71-1.44,.88-.61,.17-1.38,.25-2.33,.25Z"/>
        <path class="cls-1" d="M104.88,116.11c-.37,0-.67-.1-.9-.29s-.34-.47-.34-.83v-5.32h-2.76c-1.08,0-1.95-.11-2.6-.34-.65-.23-1.13-.63-1.42-1.22-.29-.59-.44-1.41-.44-2.46s.15-1.91,.45-2.49,.78-.98,1.43-1.2c.65-.22,1.51-.33,2.58-.33h2.76v-2.72c0-.36,.11-.63,.34-.82s.53-.28,.9-.28,.69,.09,.9,.28c.21,.19,.32,.46,.32,.82v2.72h2.8c1.07,0,1.93,.11,2.58,.33,.65,.22,1.13,.62,1.43,1.2s.45,1.41,.45,2.49-.15,1.87-.46,2.46c-.31,.59-.79,.99-1.44,1.22s-1.51,.34-2.56,.34h-2.8v5.32c0,.36-.11,.64-.32,.83-.21,.19-.51,.29-.9,.29Zm-4-8.64h2.76v-3.64h-2.76c-.51,0-.91,.04-1.2,.12s-.5,.25-.62,.5c-.12,.25-.18,.65-.18,1.2s.06,.91,.17,1.17,.31,.43,.6,.52c.29,.09,.7,.13,1.23,.13Zm5.22,0h2.8c.51,0,.9-.04,1.19-.13,.29-.09,.49-.26,.62-.52s.19-.65,.19-1.17c0-.55-.06-.95-.17-1.2-.11-.25-.32-.42-.61-.5-.29-.08-.7-.12-1.22-.12h-2.8v3.64Z"/>
        <path class="cls-1" d="M126.28,115.79c-.47,0-.87-.17-1.2-.5-.33-.33-.5-.73-.5-1.2s.17-.87,.5-1.2c.33-.33,.73-.5,1.2-.5s.87,.17,1.2,.5c.33,.33,.5,.73,.5,1.2s-.17,.87-.5,1.2c-.33,.33-.73,.5-1.2,.5Zm0-4.88c-.27,0-.5-.09-.7-.28-.2-.19-.31-.42-.34-.7-.04-.51-.08-1.09-.11-1.74-.03-.65-.07-1.32-.11-2.01-.04-.69-.07-1.34-.1-1.97-.03-.62-.05-1.18-.06-1.66-.01-.48-.02-.83-.02-1.06v-1.98c0-.39,.14-.71,.41-.98,.27-.27,.62-.4,1.03-.4s.78,.13,1.05,.4c.27,.27,.41,.59,.41,.98v1.98c0,.23,0,.58-.03,1.06-.02,.48-.04,1.03-.07,1.66-.03,.63-.06,1.29-.09,1.97-.03,.69-.07,1.36-.11,2.01-.04,.65-.08,1.23-.12,1.74-.01,.28-.12,.51-.32,.7-.2,.19-.44,.28-.72,.28Z"/>
      </g>
      <g>
        <g>
          <path class="cls-4" d="M113.05,131.98c1.53,0,2.97,.15,4.48,.68,1.38,.49,3.09,.32,4.6,.1,2.57-.38,5.12-.84,7.73-.79,.06,.31,.12,.62-.19,.83-1.32,.91-2.6,1.91-3.99,2.71-1.74,1.01-3.16,2.39-3.95,4.13-1.21,2.68-3.41,3.72-5.95,4.59-1.86,.64-3.8,1.36-5.36,2.51-1.48,1.09-3.01,2.14-4.45,3.3-.77,.62-1.63,1.14-2.48,1.66-.79,.48-1.5,1.07-2.25,1.59-3.13,2.2-6.28,4.39-9.55,6.37-1.31,.79-2.89,1.35-4.58,.57-.74-.34-1.66,.04-2.5-.37-.71-.34-.94-.79-.77-1.43,.16-.57,.39-1.22,.81-1.61,1.39-1.3,2.13-2.99,2.96-4.63,.29-.08,.6-.12,.88-.24,4.12-1.77,7.27-4.88,10.56-7.77,1.4-1.23,2.83-2.37,4.34-3.45,2-1.43,4.17-2.59,6.32-3.74,1.78-.95,2.21-2.4,2.38-4.13,.02-.62,.87-.34,.96-.89Z"/>
          <path class="cls-5" d="M141.77,169.1c-2.63,.16-4.3-1.09-5.96-2.34-.24-.18-.53-.46-.57-.73-.3-2.1-.6-4.22,.13-6.29,.41-1.17,2.36-2.07,3.57-1.68,1.24,.39,2.42,.91,3.55,1.57,2.37,1.38,3.91,4.4,3.47,7.02-.22,1.35-1.23,2.22-2.92,2.44-.54,.07-1.09,.01-1.27,.01Z"/>
          <path class="cls-3" d="M103.62,133.85c1.12-.52,2.33-.65,3.51-.47,1.11,.17,1.99-.72,3.06-.5-.43,1.39-1.21,2.55-2.47,3.29-3.25,1.93-6.43,3.91-9.36,6.34-2.65,2.19-5.5,4.12-7.92,6.58-.66,.67-1.39,1.16-2.37,1.19-.03-1.34-.1-2.67,.75-3.88,.44-.63,.1-1.48,.17-2.22,1.43-.24,2.73-.93,3.82-1.77,2.49-1.94,5.7-2.91,7.62-5.61,1.31-.37,1.82-1.84,3.09-2.27,.09-.03,.06-.43,.09-.66Z"/>
          <path class="cls-5" d="M88.52,142.71c-1.22-.86-1.08-2.43-1.84-3.53-.19-.27,.02-.61,.31-.78,1.95-1.21,3.68-2.75,5.71-3.84,.81-.43,1.6-.93,2.41-1.32,2.29-1.13,4.68-1.28,7.05-.11,.04,.02,.03,.15,.04,.22-1.9,.93-3.8,1.88-4.76,3.94-1.99,1.08-3.75,2.5-5.58,3.81-.35,.25-.72,.21-1.1,.27-.91,.15-1.78,.4-2.22,1.35Z"/>
          <path class="cls-3" d="M66.64,160.17c1.02,0,2.04,0,3.06,0,1.24,0,1.75,.44,1.88,1.67,.15,1.39-.03,2.77-.49,4.07-.19,.53-.58,1.18-1.41,.6-.62-.44-1.47-.4-2.01-.15-1.52,.71-3.07,.26-4.59,.35-1.03,.06-1.33-.31-1.36-1.4-.04-1.25-.04-2.51,0-3.76,.03-1.06,.33-1.35,1.4-1.38,1.17-.04,2.35,0,3.53,0h0Z"/>
          <path class="cls-8" d="M146.56,160.45c-1.37-1.96-2.83-3.71-5.3-4.2-1.6-.31-3.17-.95-4.88-.29-.92,.35-1.39-.06-1.15-1.05,.35-1.39,0-2.74-.23-4.01-.26-1.4-.27-2.76-.29-4.14-.06-4.31-.11-8.62-.16-12.92h0c.04-.62,.11-1.24,.11-1.86,0-1.27-.41-1.77-1.73-1.86-1.17-.09-2.4-.22-3.51,.05-2.47,.62-4.95,.38-7.42,.43-1.01,.02-2.08,.1-3.04-.16-2.16-.57-4.29-.45-6.44-.15-1.67,.1-3.45-.11-5,.38-2.23,.7-4.37,.17-6.37-.27-4.08-.89-7.46,.06-10.53,2.63-.55,.46-1.11,1.01-1.75,1.08-1.25,.15-2.12,.77-3.01,1.56-.72,.64-1.55,.84-2.48,.09-1.07-.87-2.25-1.66-3.78-1.5-.2,.02-.45-.14-.63-.27-1.25-.97-2.89-.32-4.21-1.02-.16-.08-.45,.02-.65,.11-.92,.39-1.82,.8-2.73,1.19-1.35,.58-2.48,1.6-2.8,2.92-.6,2.44-2.14,4.59-2.17,7.19-.01,.99-.9,.98-1.49,1.18-.69,.22-1.27-.19-1.37-.9-.12-.83-.49-1.59-.5-2.47-.05-2.27-1.22-4.08-2.86-5.52-3.87-3.41-8.26-4.24-13.13-2.38-1.41,.54-2.54,1.31-3.23,2.71-.72,1.46-1.41,2.96-1.67,4.53-.41,2.43-.71,4.88,.63,7.24,.94,1.66,1.73,3.41,2.13,5.31,.31,1.47,.36,1.4-.91,2.38-1.01,.79-2.38,1.14-3.02,2.4-1.29,.69-1.55,1.99-1.89,3.22-.37,1.33,.1,2.73-.12,4.01-.28,1.62-.31,3.22-.41,4.84-.02,.31,0,.64-.11,.92-.49,1.28-.45,2.69-.19,3.9,.63,2.9,.36,5.83,.68,8.74,.38,3.48,.1,7.03,.1,10.55,0,.39,.07,.81-.06,1.16-.18,.5-.51,.95-.2,1.51,.31,.56,.83,.6,1.39,.67,.28,.03,.42,.46,.79,.38,.7,.05,1.42,0,2.09,.16,2.57,.57,5.14,.97,7.78,.78,.59-.04,1.25-.2,1.79,.18,.3,.56,.17,1.11,.07,1.63-.29,1.59-.63,1.82-2.17,1.52-.37-.07-.71-.33-1.08-.38-1.11-.14-2.17,.04-2.99,.89-.54,.55-.73,2.95-.33,3.68,1.07,1.91,2.73,3.09,4.91,2.79,1.7-.23,3.39-.22,5.07-.39,1.66-.17,3.03-2.17,2.47-3.7-.39-1.06-.33-1.94,.22-2.86,.19-.33,.35-.68,.48-1.03,.25-.71,.27-1.66,.75-2.1,.62-.56,1.64-.18,2.49-.21,.94-.03,1.91-.12,2.82,.08,3.39,.73,6.76,.72,10.14,.03,.4-.08,.94-.26,1.26,.26,.14,.6-.36,1-.51,1.51-.42,1.47-.95,2.66-3.08,2.59-2.4-.07-3.59,2.43-2.53,4.48,.49,.95,1.33,1.19,2.22,1.48,1.42,.46,2.95,.25,4.34,.67,2.51,.76,4.58-.6,4.27-3.63-.02-.23,.06-.52-.05-.7-.71-1.17-.1-2.05,.64-2.87,.78-.87,1.5-1.76,1.8-2.92,.09-.35,.33-.54,.66-.51,2.03,.22,4-.49,6.02-.41,1.11,.04,2.16-.17,3.19-.51,1.09-.36,2.22-.66,3.28-1.03,1.85-.64,3.57-1.69,5.3-2.67,.51-.29,.95-.84,1.25-1.37,1.06-1.85,2.65-3.09,4.6-3.74,2.11-.7,3.85-1.96,5.45-3.38,2.88-2.57,5.91-4.83,9.67-5.96,.34,1.71-.15,3.33-.47,5.02-.63,0-1.17-.02-1.71,0-.79,.04-1.47,.25-1.93,1-.66,1.09-.86,2.42-.69,3.48,.17,1.04,1.35,2.07,2.42,2.41,3.14,1.03,6.26,.67,9.08-1.11,1.67-1.05,1.93-2.93,.86-4.67-.48-.79-.94-1.59-1.45-2.35-.24-.35-.32-.69-.31-1.09,.01-1.02-.17-2.08,.05-3.05,.25-1.08-.04-2.46,1.1-3.16,1.29-.79,2.21-1.97,3.38-2.84,1.19-.88,1.86-1.7,1.15-3.24-.22-.48-.2-1.25,.39-1.73,.75-.6,1.31,0,1.9,.29,.34,.17,.61,.5,.96,.64,.7,.28,1.53,.82,2.13,.65,1.39-.39,2.78-.15,4.15-.37,1.63-.26,3.35-1.95,3.51-3.57,.22-2.41,.27-4.78-1.23-6.94Zm-43.46-27.14c.07,0,.13,.02,.19,.04,.14,.06,.26,.21,.33,.5,1.12-.52,2.33-.65,3.51-.47,1.11,.17,1.99-.72,3.06-.5-.43,1.39-1.21,2.55-2.47,3.29-3.25,1.93-6.43,3.91-9.36,6.34-2.65,2.19-5.5,4.12-7.92,6.58-.66,.67-1.39,1.16-2.37,1.19-.03-1.34-.1-2.67,.75-3.88,.44-.63,.1-1.48,.17-2.22,1.43-.24,2.73-.93,3.82-1.77,2.49-1.94,5.7-2.91,7.62-5.61,1.31-.37,1.82-1.84,3.09-2.27,.09-.03,.06-.43,.09-.66-.07-.29-.18-.43-.33-.5-.06-.03-.12-.04-.19-.04-.03,0-.07,0-.1,0,.03,0,.07,0,.1,0Zm-.11,0c-.06,0-.13,.01-.19,.02,.06,0,.13-.02,.19-.02Zm-16.01,5.09c1.95-1.21,3.68-2.75,5.71-3.84,.81-.43,1.6-.93,2.41-1.32,2.29-1.13,4.68-1.28,7.05-.11,.04,.02,.03,.15,.04,.22-1.9,.93-3.8,1.88-4.76,3.94-1.99,1.08-3.75,2.5-5.58,3.81-.35,.25-.72,.21-1.1,.27-.91,.15-1.78,.4-2.22,1.35-1.22-.86-1.08-2.43-1.84-3.53-.19-.27,.02-.61,.31-.78Zm42.69-5.59c-1.32,.91-2.6,1.91-3.99,2.71-1.74,1.01-3.16,2.39-3.95,4.13-1.21,2.68-3.41,3.72-5.95,4.59-1.86,.64-3.8,1.36-5.36,2.51-1.48,1.09-3.01,2.14-4.45,3.3-.77,.62-1.63,1.14-2.48,1.66-.79,.48-1.5,1.07-2.25,1.59-3.13,2.2-6.28,4.39-9.55,6.37-1.31,.79-2.89,1.35-4.58,.57-.74-.34-1.66,.04-2.5-.37-.71-.34-.94-.79-.77-1.43,.16-.57,.39-1.22,.81-1.61,1.39-1.3,2.13-2.99,2.96-4.63,.29-.08,.6-.12,.88-.24,4.12-1.77,7.27-4.88,10.56-7.77,1.4-1.23,2.83-2.37,4.34-3.45,2-1.43,4.17-2.59,6.32-3.74,1.78-.95,2.21-2.4,2.38-4.13h0c.02-.62,.87-.34,.96-.89,1.53,0,2.97,.15,4.48,.68,1.38,.49,3.09,.32,4.6,.1,2.57-.38,5.12-.84,7.73-.79,.06,.31,.12,.62-.19,.83Z"/>
          <path class="cls-7" d="M65.62,147.46c.92,1.35,.55,3.01,1.27,4.38,.24,.46-.02,1.04-.47,1.46-.9,.86-2.01,1.41-3.05,2.07-.19,.12-.47,.18-.61-.05-.11-.18-.2-.48-.12-.64,.85-1.79,1.02-3.67,1.01-5.63,0-1.16,1.2-1.2,1.97-1.6Z"/>
          <path class="cls-3" d="M68.34,154.82q1.88,3.46-1.75,3.46c-1.09,0-2.18,0-3.84,0,2.2-1.16,3.95-2.02,5.59-3.46Z"/>
          <path class="cls-7" d="M48.44,159.09h-4.07c0-.26-.04-.53,0-.54,.84-.26,1.34-1.72,2.28-1.08,.59,.4,1.34,.87,1.79,1.62Z"/>
          <path class="cls-6" d="M56.9,200.22c-.29-.04-.58-.07-.87-.11-.08-.93,.56-1.09,1.14-.78,.56,.3,.34,.74-.27,.89Z"/>
          <path class="cls-4" d="M62.64,154.69c.85-1.79,1.02-3.67,1.01-5.63,0-1.16,1.2-1.2,1.97-1.6,.92,1.35,.55,3.01,1.27,4.38,.24,.46-.02,1.04-.47,1.46-.9,.86-2.01,1.41-3.05,2.07-.19,.12-.47,.18-.61-.05-.11-.18-.2-.48-.12-.64Z"/>
          <path class="cls-3" d="M61.71,161.57c.03-1.06,.33-1.35,1.4-1.38,1.17-.04,2.35,0,3.53,0h0c1.02,0,2.04-.01,3.06,0,1.24,0,1.75,.44,1.88,1.67,.15,1.39-.03,2.77-.49,4.07-.19,.53-.58,1.18-1.41,.6-.62-.44-1.47-.4-2.01-.15-1.52,.71-3.07,.26-4.59,.35-1.03,.06-1.33-.31-1.36-1.4-.04-1.25-.04-2.51,0-3.76Z"/>
          <path class="cls-4" d="M44.38,158.55c.84-.26,1.34-1.72,2.28-1.08,.59,.4,1.34,.87,1.79,1.62h-4.07c0-.26-.04-.53,0-.54Z"/>
          <path class="cls-4" d="M91.62,184.59c-.07,.36-.23,.72-.21,1.11,.19,3.82-.89,7.58-.46,11.48-4.24,1.05-8.46,.7-12.62,.53-1.6-.07-3.12-.49-4.75,.03-.93,.3-1.9-.44-2.94-.41-2.82,.08-5.67,.23-8.47-.06-5.54-.57-11.08-.24-16.62-.4-1.52-.04-3.02-.71-4.59-.34-.44-1.56-.35-3.07-.11-4.71,.36-2.37,.02-4.83,.16-7.25,.17-2.81-.78-5.51-.57-8.32,.12-1.55,.09-3.12,.03-4.68-.06-1.48,.68-2.85,.52-4.34-.11-.99,.25-2.02-.35-2.95-.2-.31-.07-.57,.08-.86,.39-.72,.21-1.52,.26-2.28,2.82-.02,5.63-.03,8.45-.07,.61,0,1.21,.03,1.84-.16,1.9-.59,2.03-1.12,.59-2.77-.34-.52-.78-.87-1.45-.8h0c-2.07-1.36-3.4-3.22-4.04-5.63-.45-1.69-1.1-3.32-1.66-4.98-.73-2.12-.53-4.21-.04-6.37,.54-2.38,2.26-3.51,4.25-4.14,3.17-1,5.99-.47,8.75,1.41,1.55,1.06,2.09,2.84,2.58,4.52,.6,2.04,1.04,4.15,1.38,6.25,.27,1.72-.2,3.39-1.21,4.82-1.68,2.38-1.81,4.85-1.24,7.68,.36,1.78,1.24,3.7,.26,5.65-.36,.72,.49,1.89,1.36,2.09,.3,.07,.62,.04,.94,.04,3.37,0,6.75,0,10.12-.02,1.2,0,1.54-.33,1.6-1.49,.12-2.08,.48-4.11,.86-6.15,.14-.73,.34-1.75-.53-2.12-1.75-.76-2.3-2.46-3.1-3.86-1.62-2.82-2.54-5.89-2.44-9.22,.05-1.59,.74-2.96,1.15-4.42,.28-1.02,.53-2.14,1.14-2.96,1.44-1.93,4.83-3.61,7.39-2.38,.27,.13,.62,.07,.9,.17,4.09,1.39,5.86,3,7.14,7.15,1.02,3.28,.64,6.49-1.52,9.33-1.08,1.41-2.16,2.82-3.26,4.21-1.66,2.1-1.44,3.02,.96,4.26,.98,.5,2.04,.74,3.07,.83,1.09,.1,2.06,.65,3.18,.56,.75-.06,1.05,.51,1.02,1.26-.03,.7-.02,1.41-.01,2.12,.03,2.78,.33,5.48,1.3,8.16,.82,2.27,1.09,4.75,1.55,7.14,.23,1.18-.46,2.23-.67,3.36Z"/>
          <path class="cls-4" d="M145.96,166.65c-.22,1.35-1.23,2.22-2.92,2.44-.54,.07-1.09,.01-1.27,.01-2.63,.16-4.3-1.09-5.96-2.34-.24-.18-.53-.46-.57-.73-.3-2.1-.6-4.22,.13-6.29,.41-1.17,2.36-2.07,3.57-1.68,1.24,.39,2.42,.91,3.55,1.57,2.37,1.38,3.91,4.4,3.47,7.02Z"/>
          <path class="cls-8" d="M73.74,187.02c-.2-.03-.47,.05-.63,.17-.27,.22-.25,.61-.12,.86,.17,.34,.48,.61,.76,.88,1.03,1,1.34,2.19,.98,3.75-.98-.32-1.75,.42-2.83,.2-1.96-.41-3.54-1.35-4.98-2.64,0-.4-.26-.71-.38-1.07-.41-1.2-.24-1.71,1.01-2,1.34-.31,2.07-1.27,2.94-2.11,1.16-1.13,1.42-2.55,.91-4.02-.24-.69-.59-1.51-.77-1.68-.4-.39-.82-.74-1.12-.91-1.79-.99-3.73-.91-5.66-.86-1.72,.04-2.72,.92-3.04,2.58-.09,.45,.07,1-.13,1.38-.65,1.26-.24,2.37,.24,3.53,.58,1.37,1.86,1.37,3.15,1.5,0,1.08,0,2.01,0,2.94,0,.45-.22,.61-.61,.84-2.23,1.32-4.44,.65-6.58-.12-1.15-.41-1.17-1.83-.22-2.68,.16-.14,.47-.12,.61-.27,.37-.4,.4-.94-.11-1.16-.54-.24-1.06-.67-1.75-.51-.3,.07-.56,.07-.75,.4-.83,1.38-.66,2.91-.43,4.32,.16,.94,1.13,1.65,2.16,1.94,2.08,.58,4.23,1.17,6.35,.71,.91-.2,1.82-.23,2.71-.42,2.34,.9,4.67,1.8,7.16,2.25,1.73,.32,3.1-.08,3.6-1.62,.25-.76,.6-1.55,.58-2.44-.04-1.81-1.27-3.45-3.04-3.74Zm-10.69-4.88c-.56-1.5-.07-2.57,1.51-2.66,.23-.01,.47,0,.85,0,.97-.31,1.92,.43,2.98,.55,1.12,.13,1.61,2.54,.85,3.45-.8,.96-1.58,1.5-2.93,.73-1.12-.64-2.64-.45-3.25-2.08Z"/>
          <path class="cls-6" d="M57.03,169.39c.15,.76-.37,1.27-.93,1.69-.66,.5-1.4,.91-2.11,1.35-1.53,.95-2.85,2.12-3.99,3.51-.14,.17-.42,.46-.5,.54-.44,.44-.73,.98-1.48,.38-.77-.61-.2-1.09,.02-1.6,.46-1.07,1.12-1.89,2.17-2.55,1.3-.81,2.39-1.95,3.55-2.96,.58-.5,1.1-1.06,1.86-1.35,1.06-.41,1.45-.18,1.41,1Z"/>
          <path class="cls-2" d="M74.42,169.09c2.78,.73,5.42,1.67,7.39,3.88,.25,.28,.51,.55,.63,.95,.26,.88,1.03,1.65,.6,2.69-1.01-.04-1.39-.94-1.91-1.54-1.51-1.71-3.28-3.01-5.38-3.9-.63-.27-1.24-.59-1.83-.93-.25-.15-.53-.37-.44-.75,.13-.57,.61-.3,.93-.41Z"/>
          <path class="cls-10" d="M65.41,179.48c.97-.31,1.92,.43,2.98,.55,1.12,.13,1.61,2.54,.85,3.45-.8,.96-1.58,1.5-2.93,.73-1.12-.64-2.64-.45-3.25-2.08-.56-1.5-.07-2.57,1.51-2.66,.23-.01,.47,0,.85,0Z"/>
          <path class="cls-4" d="M56.33,202.81c-.85,1.03-1.07,2.01-.43,3.17,.4,.73-.24,1.17-.66,1.19-1.94,.1-3.89,.09-5.84,.01-.37-.02-.74-.51-1.08-.82-.7-.65,.08-1.15,.28-1.64,.18-.46,.61-.13,.97,.03,.69,.3,1.41,.54,2.14,.77,1.55,.5,2.68-.21,2.87-1.82,.08-.69,.06-1.4,.06-2.1,0-.94,.06-2.16,.21-2.42s1.73-.17,2.31,.15c.56,.3-.27,2.78-.84,3.47Z"/>
          <path class="cls-4" d="M79.45,203.33c-1,.79-1.05,1.84-.56,2.92,.17,.37,.24,.72,.26,1.11,.02,.53-.12,.84-.75,.89-1.79,.15-3.5-.27-5.22-.67-.32-.07-.71-.38-.6-.87,.08-.39,.41-.4,.72-.4,.55,0,1.09,0,1.64,0,1.79-.05,3.11-1.13,3.16-2.87,.03-.89,.6-1.56,.62-2.42,.01-.37,.43-.88,1-.77,.53,.11,.32,.61,.36,.96,0,.08,0,.16,0,.28,.06,.67,.02,1.32-.63,1.84Z"/>
          <path class="cls-4" d="M128.4,189.29c-.31,.47-.4,1.07-1.3,1.06-1.04-.01-2.12,.27-3.11,.62-.79,.28-1.42,.27-2.2-.06-.87-.37-.98-1.06-1.23-1.78,.6-.23,1.05-.72,1.7-.7,.82,.03,1.44-.47,2.15-.73,1.02-.37,1.42-.99,1.36-2.1-.1-1.87-.04-3.74-.05-5.61,0-.4,.23-.55,.58-.52,.26,.02,.37,.22,.37,.47,0,.94,.09,1.88-.03,2.8-.18,1.35,.77,2.49,.58,3.84-.04,.31,.49,.76,.83,1.06,.54,.47,.76,.99,.35,1.62Z"/>
          <path class="cls-4" d="M132.38,172.04c-.1,.7-.39,1.06-1.03,1.37-5.1,2.49-9.73,5.82-14.79,8.4-2.06,1.05-3.79,2.55-5.32,4.3-.64,.74-1.5,1.49-2.4,1.76-2.81,.84-5.08,2.51-7.27,4.31-.92,.75-1.83,1.27-3.05,1.51-1.48,.29-2.97,.84-3.99,2.13-.23,.29-.47,.65-1.14,.58-.34-1.93-.3-3.93,.02-5.86,.14-.84,.28-1.67,.27-2.51,0-1.48,0-2.96,.73-4.29,.29-.54,.31-1.1,.19-1.59-.73-2.81-.71-5.75-1.62-8.56-.61-1.86-1.08-3.81-1.51-5.73-.25-1.12-.23-2.37-.03-3.5,.23-1.29,.87-2.44,2.07-3.21,1.81-1.16,3.65-2.28,5.37-3.56,4.02-2.98,8.25-5.67,12.16-8.82,.78-.63,1.69-1.04,2.65-1.35,1.3-.43,2.56-1.04,3.89-1.33,2.72-.6,4.62-2.28,5.71-4.65,1.03-2.23,2.4-3.91,4.64-4.87,1.3-.56,2.15-1.74,3.35-2.45,.27-.16,.48-.41,.91-.28,.44,.29,.19,.79,.16,1.22-.31,4.61,.69,9.17,.43,13.77-.14,2.48-.54,4.93-.48,7.43,.06,2.72-.06,5.44,.51,8.13,.31,.35,.19,.66,.21,1.03,.02,.39,.17,.86-.14,1.31,.09,1.79-.25,3.54-.49,5.3Z"/>
          <g>
            <path class="cls-8" d="M111.16,168.93c.05,1.94-.19,3.51-.96,4.96-.11,.21-.18,.4-.48,.4-.47,0-.45-.34-.45-.64,0-.46,.06-.89,.29-1.34,.45-.86,.17-1.84,.16-2.77-.01-.63-.67-.97-1.34-.69-.68,.29-1.35,.54-1.89-.08-.38-.44,.16-1.11,1.19-1.67,.35-.19,.67-.33,1.08-.37,.6-.05,.92-.55,1.26-.97,.4-.5-.1-.83-.23-1.25-.22-.71,.17-1.25,.81-1.48,.41-.14,.98-.15,1.02,.55,.03,.55,.02,1.1,.02,1.64,0,.4,.22,.6,.56,.52,.38-.09,.4-.43,.24-.72-.53-.92,.36-.7,.58-.59,1.01,.47,1.7,1.35,2.33,2.22,.31,.42,.45,.97,.71,1.43,.2,.35,.49,.71,0,.97-.33,.18-.77,.13-1.08-.16-.45-.42-.88-.84-1.13-1.45-.16-.38-.71-.36-1.03-.15-.46,.29,.14,.47,.17,.72,.17,1.64,1.39,2.87,1.74,4.45,.3,1.35,.21,2.58-.57,3.73-.17,.26-.39,.5-.64,.68-.55,.39-1.23,.49-1.71,.03-.45-.44-.13-.95,.2-1.44,1.49-2.2,1.45-3.2-.11-5.4-.2-.28-.37-.57-.74-1.15Z"/>
            <path class="cls-8" d="M120.05,161.08c.39,.73-.64,1.51-.24,2.29,.48,.93-.27,1.42-.53,2.07-.18,.45-.13,.78,.22,1.01,1.21,.8,2.24,2.19,4.02,1.32,.25-.12,.67-.13,.92,0,.49,.24,.91,.6,.84,1.27-.06,.56-.48,.77-.89,.97-.19,.09-.48,.07-.69,0-1.94-.6-4.04-.74-5.72-2.15-.47-.39-.78-.66-.75-1.25,.01-.23-.05-.49,.03-.7,.7-2.05,1.19-4.12,1.01-6.32-.02-.26,.42-.72,.73-.81,.53-.14,.88,.36,1.02,.77,.14,.42,.03,.92,.03,1.53Z"/>
            <path class="cls-8" d="M104.9,171.46c.41-.03,.84,.01,1.21,.4,.49,.51,.46,1.18-.21,1.47-1.4,.6-2.88,1-3.97,2.23-.4,.45-1.03,.09-1.38-.4-.43-.6-.37-1.46,.1-1.9,.48-.45,3.59-1.79,4.24-1.8Z"/>
            <path class="cls-8" d="M103.76,178.98c-.29,0-.69,.06-1.07-.01-.65-.12-.67-.8-.87-1.24-.21-.46,.42-.49,.69-.71,.48-.4,1.02-.26,1.55-.31,.68-.06,1.38,.09,2.03-.34,.63-.43,1.2-.19,1.58,.41,.44,.68-.22,.98-.58,1.31-.91,.84-2.04,1.02-3.33,.9Z"/>
            <path class="cls-8" d="M125.17,154.56c1.59-.11,2.77,.41,3.97,.79,.3,.1,.88,.08,.77,.65-.1,.46-.45,.85-.95,.86-.83,.02-1.63,.13-2.46-.32-.77-.42-1.03-1.01-1.32-1.98Z"/>
            <path class="cls-8" d="M101.99,167.81c-.78-.26-1.34,.05-1.71,.74-.27,.01-.47,.04-.8,.03-.03-.69-.03-1.39-.1-2.08-.09-.84-.68-1.3-1.37-1.18-.63,.11-1.21,.92-.89,1.57,.29,.59,.29,1.18,.44,1.76-.05,.79-.54,1.12-1.2,1.51-.56,.34-1.21,.22-1.71,.63-.4,.34-.61,.7-.46,1.21,.14,.48,.59,.35,.94,.46,1.17,.37,1.69-1.03,2.74-.94,.02,1.4,.35,2.89-.02,4.18-.58,2.01-.16,4-.36,5.98-.06,.6,.14,1.06,.62,1.41,.47,.34,1.06,.18,1.23-.42,.38-1.31,.64-2.55,.11-3.99-.57-1.55-.91-3.33-.47-4.98,.25-.92,.35-1.79,.38-2.71,0-.68,.28-1.16,.94-1.4,.16,0,.31,0,.47,0,.81,0,1.34-.35,1.43-1.19,.02-.22,.05-.52-.22-.61Z"/>
            <path class="cls-8" d="M132.87,166.74c-.14,.05-.37,.08-.39,.16-.18,.84-.38,1.52-1.38,1.9-1.09,.41-2.19,.45-3.19,.18-1.07-.29-.85-1.28-.61-2.15,.8-.03,1.33,.55,2.08,.48,.7-.06,1.18-.29,1.54-.86,.81-1.31,.09-3.04-1.46-3.43-.29-.07-.64-.05-.84,.24-.17,.25-.27,.56-.47,.79-.3,.34-.59,.88-1.1,.73-.6-.18-1.28-.69-1.23-1.27,.1-1.22-.65-2.24-.56-3.41,.03-.31-.08-.65,0-.93,.15-.45,.45-.86,.99-.83,.41,.03,.76,.37,.84,.72,.12,.52,.04,1.08,.07,1.63,.06,1.16,.54,1.53,1.64,1.26q1.97-.47,2.87,1.11c.29,.52,.39,1.19,1.13,1.34,.65,.73,.67,1.46,.07,2.33Z"/>
          </g>
        </g>
        <path class="cls-8" d="M57,179.29c-.64,0-1.34-.07-1.61-.6l-.06-.11c-.43-.83-.83-1.61-.7-2.59,.12-.86,.82-1.23,1.56-1.5,.6-.22,1.11-.33,1.57-.33,.51,0,.95,.13,1.34,.39,.64,.43,1.08,2.76,.66,3.51-.23,.41-.68,.72-1.5,1.03-.36,.14-.64,.19-1,.19-.09,0-.18,0-.27,0Z"/>
        <path class="cls-8" d="M72.71,178.59c-.4,0-.74-.08-1.01-.23-.31-.18-1.06-1.14-1.21-1.64-.33-1.04-.15-1.81,.53-2.36,.45-.36,1.09-.58,1.71-.58,.47,0,.87,.12,1.14,.35,.4,.34,.68,.63,.89,.93,.5,.71,.6,1.51,.29,2.22-.32,.72-1.02,1.19-1.91,1.29-.15,.02-.29,.03-.42,.03Z"/>
      </g>
    </g>
  </g>
</svg>