<?xml version="1.0" encoding="UTF-8"?>
<svg id="_レイヤー_2" data-name="レイヤー 2" xmlns="http://www.w3.org/2000/svg" viewBox="0 0 197.36 166.53">
  <defs>
    <style>
      .cls-1 {
        fill: #994729;
      }

      .cls-2 {
        fill: #d3919c;
      }

      .cls-3 {
        fill: #faa2ad;
      }

      .cls-4 {
        fill: #dd3819;
      }

      .cls-5 {
        fill: #231815;
      }
    </style>
  </defs>
  <g id="design">
    <g>
      <g>
        <path class="cls-5" d="M26.92,90.79c-2.91-3.25-4.12-6.41-4.09-10.08,0-1.2-.39-2.45-.81-3.6-1.89-5.09-.59-9.96,.91-14.82,.12-.37,.38-.75,.68-1.01,2.43-2.07,4.88-4.11,7.34-6.14,.39-.32,.9-.5,1.28-.84,5.13-4.47,11.75-4.31,17,.16,2.42,2.06,4.4,4.33,5.52,7.29,.43,1.15,.7,2.36,.99,3.55,.14,.6-.03,1.31,.23,1.83,1.76,3.54,.76,7.06,.02,10.58-.49,2.31-1.1,4.59-1.71,7.13,2.89,.88,4.28-1.75,6.28-2.31,0-6,.06-11.85-.03-17.69-.03-1.95,.39-3.62,1.56-5.19,2.03-2.73,3.83-5.67,7.44-6.64,.45-.12,.8-.63,1.19-.97,3.74-3.17,7.81-3.35,12.12-1.32,.74,.35,1.46,.94,2.23,1.03,2.85,.33,4.57,2.26,6.24,4.22,.64,.75,1.19,1.76,1.33,2.72,.55,3.66,.99,7.33,1.32,11.02,.17,1.82,.03,3.67,.03,5.85,4.05-.84,8.23-1.69,12.4-2.59,2.91-.64,5.82-1.31,8.7-2.07,2.38-.62,4.7-1.47,7.09-2.06,1.46-.36,2.99-.58,4.49-.6,1.21-.02,2.47,.22,3.64,.55,4.79,1.36,9.67-.33,14.44,.5,3.46,.6,6.91,.95,10.43,.59,1.11-.12,2.25,.21,3.38,.29,3.18,.23,6.35,.57,9.53,.61,1.71,.03,3.23,.22,4.71,1.13,1.39,.86,2.93,1.5,4.38,2.25,2.7,1.4,4.32,3.44,3.92,6.68-.43,3.49-.62,6.96,.23,10.45,.24,1-.24,2.19-.48,3.28-.24,1.1-.78,2.16-.84,3.26-.36,7.21-.63,14.42-.92,21.63-.01,.3,.1,.6,.18,1.08,1.3-.7,2.56-1.32,3.77-2.03,4.15-2.42,8.1-2.13,11.11,.62,3.94,3.6,3.94,8.65,1.72,12.06-.95,1.47-1.81,3.01-2.91,4.36-1.89,2.32-8.01,3.73-10.92,2.67-1.04-.38-2.08-.75-3.19-1.15-.64,.82-1.16,1.44-1.62,2.1-1.21,1.74-2.73,2.77-4.97,2.43-.59-.09-1.25,0-1.82,.2-3.81,1.25-7.55,2.71-11.41,3.77-4.34,1.2-8.78,2.01-13.15,3.08-1.39,.34-2.74,.9-4.07,1.45-2.11,.87-4.19,1.76-6.55,1.56-.5-.04-1.03,.07-1.53,.2-3.08,.83-6.14,1.72-9.23,2.52-3.08,.8-6.2,1.48-9.28,2.29-4.66,1.23-9.35,2.38-13.95,3.84-4.02,1.27-8,1.84-12.14,.83-.78-.19-1.59-.22-2.31-.31-2.53,4.71-5.42,6.11-10.76,5.32-.1-.01-.21-.07-.3-.06-4.63,.91-8.69-1.14-12.86-2.51-1.38-.46-2.58-.31-3.89,.18-2.58,.96-5.07,1.09-7.1-1.54-3.59,3.07-7.26,1.27-10.77,.11-3.42-1.13-6.57-1.3-9.8,.43-1.35,.73-2.79,1.43-4.27,1.76-1.36,.3-2.88,.33-4.25,.05-2.17-.43-3.31-2.01-3.39-4.2-.04-1.13,.05-2.27,.05-3.4,0-.49,.11-1.14-.15-1.45-2.22-2.62-1.57-5.85-1.94-8.85-.26-2.14-.36-4.3-.39-6.46-.02-1.63,.21-3.26,.29-4.9,.08-1.52,.21-3.06,.15-4.58-.13-3.29-.47-6.58-.54-9.87-.1-4.82,.07-9.65-.08-14.48-.1-3.06,.3-6.13-.62-9.19-.55-1.8,.57-2.77,2.53-3.44,2.6-.88,5.13-1.97,8.18-3.16Zm75.41-12.2c8.34-1.15,16.43-3.3,24.36-6.21-.93-1.47-2.1-.87-3.09-.48-3.83,1.51-7.77,2.53-11.81,3.29-3.18,.6-6.31,1.5-9.47,2.26-.36,.16-.71,.4-1.08,.47-2.49,.47-5.01,.79-7.46,1.41-1.35,.34-3.14,.59-2.94,3.13,.78-.13,1.54-.19,2.26-.4,3.16-.92,5.77-3.32,9.23-3.47Zm24.17,4.4c-4,.65-7.66,2.83-11.87,2.61-.78-.04-1.61,.3-2.38,.56-5.88,1.99-11.76,4-17.63,6.02-.41,.14-.79,.38-1.18,.57,.06,.22,.12,.45,.18,.67,1.11-.18,2.24-.26,3.31-.57,5.64-1.63,11.26-3.33,16.9-4.97,4.22-1.23,8.44-2.43,12.67-3.64,1.52-.2,3.05-.31,4.56-.61,3.02-.59,6-1.24,9.12-1.44,2.8-.18,5.57-1.21,8.28-2.1,3.98-1.3,7.74-3.22,12.18-2.93,2.5,.16,4.98-.81,7.22-2.46-3.64-.38-7.05-.78-10.47-1.05-.72-.06-1.56,.24-2.22,.61-3.78,2.14-7.74,3.79-12.06,4.46-2.13,.33-4.29,.51-6.36,1.07-3.45,.94-6.83,2.12-10.25,3.2Zm-79.54,11.19c1.12-2.89,2.49-6.08,3.6-9.37,.79-2.32,1.24-4.76,1.81-7.16,.79-3.31,1.55-6.58,.08-9.96-.59-1.37-.51-3.01-.94-4.47-1.03-3.48-3.85-5.54-6.55-7.57-2.17-1.63-7.43-1.3-9.41,.32-2.38,1.95-4.75,3.94-7.17,5.84-1.42,1.12-2.39,2.44-2.87,4.23-.99,3.67-1.24,7.26,.21,10.9,.48,1.21,.73,2.61,.72,3.92-.04,3.54,1.39,5.99,4.42,7.89,1.78,1.11,3.27,2.83,4.59,4.51,1.49,1.88,.62,3.58-1.76,3.91-.41,.06-.82,0-1.24,.03-4.09,.2-8.18,.41-12,.6,.26,3.74,.71,7.21,.69,10.68-.04,5.45-.46,10.9-.57,16.35-.04,1.93,.45,3.87,.51,5.81,.05,1.83-.18,3.66-.26,5.49-.06,1.63-.47,3.38-.03,4.87,.89,3.02,1.15,6.05,1.13,9.14,0,1.02-.01,2.04,1.17,2.88,2.27-1.83,4.95-2.09,7.82-1.81,3.94,.39,7.84,1.64,11.87,.68,.48-.11,1.05-.02,1.53,.12,2.4,.71,4.8,1.48,7.36,2.28,4.35-3.33,11.09-3.7,15.89-.57,1.28,.83,2.58,1.07,4.06,1.18,1.63,.12,2.7-.85,3.94-1.52,1-.55,1.95-.81,2.72,.29,.83,1.18,.05,1.87-.83,2.54-3.8,2.87-7.41,3.12-11.41,.45-1.65-1.1-3.23-1.64-5.2-1.31-1.1,.19-2.27-.04-3.4,.06-.8,.07-1.64,.25-2.34,.62-1.36,.73-1.68,1.8-1.13,3.12,.51,1.24,1.65,1.94,2.94,1.74,.5-.08,.99-.28,1.46-.49,1.9-.84,3.75-.73,5.69-.02,4.04,1.49,8.07,3.08,12.55,2.45,1.1-.16,2.28,.18,3.35-.05,1.42-.31,2.55-1.06,3.14-2.63,.99-2.66,1.89-3.08,4.72-2.68,1.19,.17,2.36,.41,3.89,.67,0-4.06,.64-7.89-.15-11.4-1.2-5.29-.56-10.42-.23-15.63,.3-4.61,.7-9.21,1.12-13.81,.14-1.53,.47-3.04,.67-4.57,.17-1.3,.31-2.61,.39-3.92,.06-.91-.02-1.84,0-2.75,.09-2.85,.28-5.7-.1-8.72-2.36-.34-4.48-.73-6.61-.91-1.32-.11-2.67,.21-4,.16-1.8-.06-2.73-1.39-2.28-3.1,.18-.69,.44-1.38,.78-2.01,2.1-3.86,4.11-7.78,6.39-11.53,2.41-3.97,3.45-8.06,2.45-12.66-.41-1.9-.65-3.85-.8-5.78-.26-3.29-1.94-5.43-5.16-6.37-.78-.23-1.57-.49-2.27-.88-3.25-1.83-6.27-1.51-9.18,.77-.79,.62-1.79,.99-2.63,1.55-3.44,2.29-6.32,4.96-6.09,9.59,.1,1.95,.43,3.92,.21,5.84-.44,3.94-.46,7.76,.9,11.56,.99,2.79,1.69,5.69,2.46,8.55,.8,2.99,.54,3.47-2.39,5.06,0,1.93,.03,3.89-.02,5.84-.02,.7,0,1.68-.41,2.03-1.25,1.03-1.69,2.49-2.49,3.77-.97,1.56-2.32,1.94-3.98,.95-1.1-.65-1.98-1.68-3.11-2.67-1.1,.55-2.48-.66-3.89,.58-1.51,1.33-2.58,.84-2.92-1.2-.36-2.22-.33-4.51-.57-6.75-.17-1.68-.49-3.35-.83-5.56Zm48.18,64.04c1.73-.37,3.42-.45,4.85-1.1,4.64-2.08,9.71-2.52,14.5-4,3.13-.96,6.37-1.54,9.55-2.34,3.18-.81,6.34-1.72,9.52-2.53,.79-.2,1.63-.16,2.45-.25,.71-.08,1.5,0,2.12-.29,3.56-1.65,7.31-2.51,11.14-3.31,5.21-1.09,10.31-2.67,15.44-4.1,1.08-.3,2.07-.9,3.13-1.25,1.24-.41,2.5-.87,3.78-1,2.25-.23,3.66-1.11,3.61-3.26-.12-4.49,1.12-8.93,.21-13.48-.45-2.25-.06-4.69,.08-7.04,.33-5.85,.7-11.71,1.13-17.55,.08-1.11,.51-2.19,.72-3.29,.17-.88,.58-1.87,.35-2.66-.89-3.07-.46-6.15-.33-9.23,.13-3.08-.75-4.3-3.79-4.1-2.11,.14-4.18,.91-6.27,1.43-2.07,.52-4.14,1.55-6.2,1.52-4.08-.05-7.75,1.2-11.23,2.93-2.96,1.47-5.98,2.11-9.19,2.22-1.23,.04-2.49-.02-3.7,.2-3.64,.66-7.26,1.42-10.89,2.18-.59,.12-1.13,.47-1.72,.64-1.85,.56-3.7,1.15-5.57,1.63-2.68,.68-5.39,1.26-8.08,1.89-1.99,.47-3.99,.88-5.94,1.47-2.15,.65-4.25,1.46-6.38,2.21-1.14,.4-1.52,1.26-1.52,2.4,0,1.95-.02,3.9-.07,5.84-.08,3.71,.03,7.44-.33,11.12-.65,6.65-1.74,13.26-1.67,19.98,.07,7.1,.05,14.2,.08,21.3,0,.49,.11,.99,.2,1.82Zm-10.49-65.46c1-.06,1.62,.04,2.12-.15,1.59-.62,3.12-1.43,4.72-2.03,1.33-.5,2.73-.81,4.11-1.2,7.44-2.09,14.37-5.95,22.27-6.48,.29-.02,.56-.26,.86-.34,2.66-.7,5.33-1.38,7.99-2.09,1.28-.34,2.63-.57,3.8-1.15,3.18-1.57,6.56-2.11,10.03-2.63,2.97-.45,5.84-1.55,9.17-2.48-.87-.48-1.21-.75-1.59-.87-5.06-1.63-10.16-.66-15.2,0-2.4,.32-4.74,1.17-7.07,1.91-3.31,1.04-6.52,2.49-9.88,3.25-4.97,1.12-10.05,1.77-15.07,2.67-1,.18-2.13,.34-2.9,.92-2.05,1.52-4.48,1.9-6.78,2.7-1.03,.35-2.28,.78-2.86,1.58-1.35,1.88-2.36,4.02-3.71,6.4Zm93.92,40.57c1.6,.49,2.78,.81,3.93,1.21,3.6,1.26,6.88,.02,8.8-3.32,.35-.62,.79-1.2,1.26-1.73,1.95-2.15,1.68-4.84-.09-6.96-1.75-2.09-4.67-2.85-6.88-1.46-2.07,1.3-3.93,2.95-5.83,4.51-.34,.28-.55,.87-.61,1.34-.24,2.12-.4,4.25-.6,6.4ZM62.67,96.96c-4.03-2.38-8.11,.05-12.38-.32v7.45c2.2-.39,3.98,.91,5.93,0,.26-.12,1.08,.71,1.5,1.22,.67,.81,.6,2.26,2.25,2.35,.59-1.22,1.21-2.45,1.77-3.7,.36-.79,.8-1.61,.89-2.45,.15-1.43,.04-2.88,.04-4.55Zm-14.46,63.74c1.04-3.39,.98-3.52-1.34-4.6-2.06-.96-4.18-.83-6.34-.49-.99,.16-2.14,.47-2.99,.13-2.98-1.17-6.08-.97-9.14-1.08-4.06-.14-5.79,2.12-5.09,6.18,2.65,1.29,4.74-.24,6.95-1.29,3.78-1.8,7.64-1.76,11.59-.54,2.03,.63,4.1,1.1,6.35,1.69Zm14.06-74.15l-.58-.35c-2.41,.81-4.85,1.56-7.23,2.47-1.18,.45-2.46,1.02-2.23,2.88,3.16-1.18,6.19-2.27,9.17-3.49,.42-.17,.58-1,.86-1.52Zm1.89,6.99l.54-.69c-.5-1.04-1-2.08-1.55-3.22-2,.93-3.7,1.71-5.41,2.5,.02,.17,.05,.34,.07,.5,2.11,.3,4.23,.6,6.34,.9Z"/>
        <path class="cls-3" d="M46.96,94.18c.34,2.21,.66,3.87,.83,5.56,.23,2.25,.2,4.53,.57,6.75,.34,2.05,1.41,2.53,2.92,1.2,1.41-1.24,2.79-.03,3.89-.58,1.13,.99,2.01,2.02,3.11,2.67,1.66,.98,3.01,.61,3.98-.95,.79-1.28,1.24-2.74,2.49-3.77,.42-.34,.4-1.33,.41-2.03,.05-1.96,.02-3.91,.02-5.84,2.93-1.59,3.18-2.08,2.39-5.06-.76-2.87-1.46-5.76-2.46-8.55-1.36-3.81-1.34-7.63-.9-11.56,.21-1.91-.12-3.89-.21-5.84-.23-4.63,2.65-7.3,6.09-9.59,.85-.56,1.84-.93,2.63-1.55,2.91-2.28,5.93-2.6,9.18-.77,.7,.39,1.49,.65,2.27,.88,3.22,.93,4.91,3.08,5.16,6.37,.15,1.94,.39,3.89,.8,5.78,1,4.6-.04,8.7-2.45,12.66-2.28,3.75-4.29,7.67-6.39,11.53-.34,.63-.6,1.32-.78,2.01-.45,1.72,.48,3.04,2.28,3.1,1.33,.05,2.68-.27,4-.16,2.13,.18,4.25,.57,6.61,.91,.38,3.02,.19,5.87,.1,8.72-.03,.92,.05,1.84,0,2.75-.08,1.31-.22,2.62-.39,3.92-.2,1.53-.53,3.04-.67,4.57-.41,4.6-.82,9.2-1.12,13.81-.33,5.2-.97,10.34,.23,15.63,.79,3.51,.15,7.34,.15,11.4-1.53-.27-2.71-.51-3.89-.67-2.83-.4-3.72,.02-4.72,2.68-.59,1.58-1.72,2.33-3.14,2.63-1.07,.23-2.26-.11-3.35,.05-4.48,.64-8.51-.96-12.55-2.45-1.94-.71-3.79-.82-5.69,.02-.47,.21-.96,.41-1.46,.49-1.3,.2-2.43-.5-2.94-1.74-.55-1.33-.23-2.4,1.13-3.12,.7-.37,1.54-.55,2.34-.62,1.13-.1,2.29,.13,3.4-.06,1.97-.33,3.54,.21,5.2,1.31,4,2.66,7.61,2.42,11.41-.45,.88-.67,1.66-1.36,.83-2.54-.77-1.1-1.72-.83-2.72-.29-1.24,.67-2.31,1.64-3.94,1.52-1.47-.11-2.77-.34-4.06-1.18-4.8-3.12-11.55-2.76-15.89,.57-2.57-.8-4.96-1.56-7.36-2.28-.48-.14-1.05-.24-1.53-.12-4.03,.96-7.93-.3-11.87-.68-2.87-.28-5.55-.02-7.82,1.81-1.19-.84-1.18-1.86-1.17-2.88,.02-3.1-.24-6.12-1.13-9.14-.44-1.49-.04-3.24,.03-4.87,.07-1.83,.3-3.67,.26-5.49-.05-1.94-.55-3.88-.51-5.81,.11-5.45,.54-10.9,.57-16.35,.02-3.47-.43-6.94-.69-10.68,3.82-.19,7.91-.4,12-.6,.41-.02,.83,.03,1.24-.03,2.38-.32,3.24-2.02,1.76-3.91-1.32-1.68-2.81-3.39-4.59-4.51-3.03-1.9-4.47-4.36-4.42-7.89,.02-1.31-.23-2.7-.72-3.92-1.45-3.64-1.2-7.23-.21-10.9,.48-1.79,1.45-3.11,2.87-4.23,2.42-1.91,4.78-3.89,7.17-5.84,1.98-1.62,7.25-1.95,9.41-.32,2.7,2.04,5.52,4.09,6.55,7.57,.43,1.46,.35,3.1,.94,4.47,1.47,3.38,.72,6.65-.08,9.96-.58,2.39-1.03,4.83-1.81,7.16-1.11,3.28-2.48,6.48-3.6,9.37Zm-5.61,44.78c-1.18-.33-1.91-.76-2.59-.68-2.6,.31-3.99,4.08-2.27,6.39,1.51,2.03,3.47,3.66,6.24,3.41,2.75-.25,5.51-.59,8.21-1.15,1.72-.36,3.19-.34,4.71,.64,2.46,1.58,5.27,1.68,7.64,.21,2.75-1.7,4.97-4.07,4.41-7.85-.16-1.07-.2-2.32-1.49-2.31-1.5,.02-1.1,1.43-1.15,2.39-.19,3.47-1.81,5.01-5.32,4.87-1.32-.06-2.64-.39-3.95-.62-2.62-.47-2.81-.73-2.74-3.95,.85-.14,1.76-.24,2.64-.45,2.34-.56,4.28-2.7,4.23-4.73-.08-3.41-1.35-6.03-4.49-7.87-2.96-1.73-5.93-.49-7.98,1.14-1.96,1.55-2.55,4.63-1.21,7.04,.92,1.64,2.35,2.99,3.55,4.48,.11-.08,.21-.16,.32-.24,.22,1.49,.44,2.98,.72,4.85-2.45,.37-4.73,.86-7.04,1.02-2.33,.16-4.08-1-5.37-3.15,.83-.97,1.62-1.89,2.92-3.42Zm1.9-15.84c-.07,.49-.28,1.59-.37,2.69-.08,.93-.43,1.56-1.37,1.8-1.01,.26-1.78,.02-2.39-.89-.83-1.25-1.12-2.54-.99-4.05,.05-.61-.72-1.28-1.12-1.92-.48,.57-1.26,1.08-1.39,1.71-.46,2.3,.25,4.5,1.2,6.55,.3,.64,1.16,1.2,1.88,1.43,1.9,.59,5.51-.48,6.03-2.11,.76-2.36,1.69-4.85,.75-7.44-.03-.09-.1-.21-.18-.24-.45-.18-.97-.55-1.34-.44-.39,.12-.76,.66-.92,1.1-.13,.33,.08,.79,.22,1.82Zm22.87,5.65c-1.7-1.13-1.96-2.62-1.48-4.38,.22-.78,.49-1.59,.49-2.38,0-.37-.53-.97-.91-1.05-.36-.08-1.02,.26-1.25,.61-1.55,2.33-1.39,5.82,.3,8.11,1.43,1.94,3.41,2.24,5.39,.82,2.62-1.88,3.92-6.64,2.54-9.47-.16-.32-.59-.66-.93-.69-.33-.03-.92,.26-1,.53-.22,.76-.44,1.62-.29,2.36,.53,2.67-.7,4.3-2.86,5.53Zm-.79-17.08c-.49,1.32,.24,2.04,1.19,2.11,1.65,.12,2.86,.95,4.11,1.86,.55,.4,1.27,.69,1.95,.8,2.07,.33,3.19,1.61,3.85,3.48,.32,.9,.78,1.75,1.18,2.62l.73,.03c.3-.64,.88-1.3,.85-1.92-.15-2.82-2.55-5.59-5.25-6.49-1.03-.34-2.03-.87-2.94-1.46-1.79-1.15-3.63-1.75-5.67-1.02Zm-33.05,8.4c1.29-1.68,2.48-3.18,3.62-4.7,1.25-1.66,2.93-2.51,4.97-2.74,.82-.09,1.68-.08,2.42-.38,.44-.17,.99-.92,.91-1.29-.08-.42-.85-1.06-1.25-1.02-1.72,.18-3.46,.45-5.12,.93-2.97,.86-4.45,3.54-6.31,5.68-.88,1.01-1.05,2.48,.76,3.52Z"/>
        <path class="cls-1" d="M84.64,92.75c1.35-2.38,2.35-4.52,3.71-6.4,.58-.8,1.83-1.23,2.86-1.58,2.3-.79,4.73-1.18,6.78-2.7,.77-.57,1.9-.74,2.9-.92,5.02-.9,10.1-1.55,15.07-2.67,3.37-.76,6.57-2.2,9.88-3.25,2.33-.73,4.67-1.59,7.07-1.91,5.05-.67,10.14-1.63,15.2,0,.38,.12,.72,.39,1.59,.87-3.33,.93-6.2,2.03-9.17,2.48-3.46,.52-6.85,1.06-10.03,2.63-1.17,.58-2.52,.81-3.8,1.15-2.66,.71-5.33,1.39-7.99,2.09-.3,.08-.57,.32-.86,.34-7.9,.52-14.83,4.39-22.27,6.48-1.37,.39-2.77,.7-4.11,1.2-1.6,.6-3.12,1.41-4.72,2.03-.5,.2-1.13,.09-2.12,.15Z"/>
        <path class="cls-3" d="M178.56,133.32c.19-2.15,.36-4.28,.6-6.4,.05-.47,.26-1.06,.61-1.34,1.9-1.56,3.76-3.2,5.83-4.51,2.2-1.39,5.13-.63,6.88,1.46,1.77,2.12,2.04,4.8,.09,6.96-.48,.53-.91,1.11-1.26,1.73-1.91,3.34-5.2,4.58-8.8,3.32-1.15-.4-2.33-.72-3.93-1.21Z"/>
        <path class="cls-3" d="M126.5,82.99c3.41-1.08,6.8-2.27,10.25-3.2,2.06-.56,4.23-.74,6.36-1.07,4.32-.68,8.27-2.32,12.06-4.46,.65-.37,1.49-.66,2.22-.61,3.42,.27,6.83,.67,10.47,1.05-2.23,1.65-4.71,2.62-7.22,2.46-4.45-.29-8.2,1.63-12.18,2.93-2.71,.89-5.48,1.92-8.28,2.1-3.12,.2-6.09,.85-9.12,1.44-1.5,.29-3.04,.41-4.56,.61,0-.42,0-.83,0-1.25Z"/>
        <path class="cls-1" d="M62.67,96.96c0,1.68,.11,3.13-.04,4.55-.09,.84-.53,1.66-.89,2.45-.56,1.25-1.18,2.48-1.77,3.7-1.65-.09-1.59-1.55-2.25-2.35-.42-.51-1.24-1.34-1.5-1.22-1.95,.91-3.73-.39-5.93,0v-7.45c4.27,.37,8.35-2.06,12.38,.32Z"/>
        <path class="cls-3" d="M48.22,160.7c-2.25-.59-4.33-1.06-6.35-1.69-3.94-1.22-7.81-1.26-11.59,.54-2.21,1.05-4.3,2.58-6.95,1.29-.71-4.06,1.03-6.32,5.09-6.18,3.06,.11,6.16-.09,9.14,1.08,.85,.33,2,.02,2.99-.13,2.16-.34,4.28-.48,6.34,.49,2.31,1.08,2.38,1.21,1.34,4.6Z"/>
        <path class="cls-2" d="M126.5,82.99c0,.42,0,.83,0,1.25-4.22,1.21-8.45,2.41-12.67,3.64-5.64,1.65-11.26,3.35-16.9,4.97-1.07,.31-2.21,.39-3.31,.57-.06-.22-.12-.45-.18-.67,.39-.19,.77-.43,1.18-.57,5.87-2.02,11.75-4.03,17.63-6.02,.77-.26,1.6-.61,2.38-.56,4.21,.22,7.87-1.96,11.87-2.61Z"/>
        <path class="cls-3" d="M102.33,77.45c3.15-.76,6.28-1.66,9.47-2.26,4.04-.76,7.98-1.78,11.81-3.29,.99-.39,2.16-1,3.09,.48-7.94,2.9-16.02,5.05-24.36,6.21v-1.13Z"/>
        <path class="cls-3" d="M102.33,77.45c0,.38,0,.76,0,1.13-3.46,.15-6.06,2.55-9.23,3.47-.72,.21-1.48,.26-2.26,.4-.2-2.54,1.58-2.78,2.94-3.13,2.45-.62,4.98-.93,7.46-1.41,.38-.07,.72-.31,1.08-.47Z"/>
        <path class="cls-3" d="M62.28,86.55c-.28,.52-.44,1.35-.86,1.52-2.98,1.22-6.01,2.3-9.17,3.49-.24-1.86,1.05-2.43,2.23-2.88,2.38-.91,4.81-1.66,7.23-2.47l.58,.35Z"/>
        <path class="cls-1" d="M64.16,93.54c-2.11-.3-4.23-.6-6.34-.9-.02-.17-.05-.34-.07-.5,1.7-.79,3.4-1.57,5.41-2.5,.55,1.14,1.05,2.18,1.55,3.22l-.54,.69Z"/>
        <path class="cls-5" d="M41.35,138.96c-1.31,1.53-2.09,2.44-2.92,3.42,1.29,2.15,3.04,3.31,5.37,3.15,2.3-.16,4.58-.65,7.04-1.02-.28-1.88-.5-3.36-.72-4.85-.11,.08-.21,.16-.32,.24-1.2-1.48-2.64-2.83-3.55-4.48-1.34-2.4-.75-5.48,1.21-7.04,2.05-1.62,5.03-2.86,7.98-1.14,3.14,1.83,4.42,4.45,4.49,7.87,.05,2.03-1.89,4.17-4.23,4.73-.88,.21-1.79,.31-2.64,.45-.07,3.22,.12,3.48,2.74,3.95,1.31,.24,2.63,.57,3.95,.62,3.51,.15,5.13-1.4,5.32-4.87,.05-.96-.35-2.37,1.15-2.39,1.29-.01,1.33,1.24,1.49,2.31,.56,3.78-1.66,6.15-4.41,7.85-2.36,1.47-5.17,1.37-7.64-.21-1.52-.98-2.98-1-4.71-.64-2.7,.56-5.46,.9-8.21,1.15-2.77,.25-4.73-1.38-6.24-3.41-1.73-2.31-.34-6.08,2.27-6.39,.67-.08,1.4,.35,2.59,.68Zm12.13-10.01c-.78,.17-1.59,.28-2.37,.52-2.61,.8-3.65,3.46-2.28,5.75,2.06,3.46,6.2,3.43,8.63,.05,.24-3.17-1.46-5.02-3.98-6.32Z"/>
        <path class="cls-5" d="M43.24,123.12c-.14-1.02-.34-1.48-.22-1.82,.16-.44,.53-.98,.92-1.1,.37-.11,.9,.26,1.34,.44,.08,.03,.15,.15,.18,.24,.94,2.59,.01,5.08-.75,7.44-.52,1.63-4.13,2.7-6.03,2.11-.72-.22-1.58-.79-1.88-1.43-.95-2.06-1.66-4.25-1.2-6.55,.13-.64,.91-1.15,1.39-1.71,.4,.64,1.17,1.31,1.12,1.92-.12,1.52,.16,2.81,.99,4.05,.61,.91,1.38,1.15,2.39,.89,.94-.24,1.29-.87,1.37-1.8,.09-1.11,.3-2.2,.37-2.69Z"/>
        <path class="cls-5" d="M66.12,128.76c2.16-1.23,3.39-2.86,2.86-5.53-.15-.75,.07-1.61,.29-2.36,.08-.27,.67-.55,1-.53,.33,.03,.77,.37,.93,.69,1.38,2.83,.08,7.59-2.54,9.47-1.98,1.42-3.96,1.12-5.39-.82-1.69-2.29-1.85-5.77-.3-8.11,.23-.35,.88-.69,1.25-.61,.38,.08,.91,.68,.91,1.05,0,.8-.27,1.6-.49,2.38-.48,1.76-.22,3.25,1.48,4.38Z"/>
        <path class="cls-5" d="M65.32,111.69c2.04-.73,3.87-.13,5.67,1.02,.92,.59,1.91,1.12,2.94,1.46,2.7,.9,5.1,3.67,5.25,6.49,.03,.62-.55,1.28-.85,1.92l-.73-.03c-.4-.87-.86-1.72-1.18-2.62-.66-1.87-1.77-3.15-3.85-3.48-.68-.11-1.4-.39-1.95-.8-1.25-.91-2.45-1.74-4.11-1.86-.95-.07-1.68-.78-1.19-2.11Z"/>
        <path class="cls-5" d="M32.27,120.09c-1.8-1.04-1.64-2.51-.76-3.52,1.86-2.14,3.35-4.81,6.31-5.68,1.66-.48,3.4-.75,5.12-.93,.4-.04,1.17,.59,1.25,1.02,.07,.38-.48,1.12-.91,1.29-.74,.3-1.61,.29-2.42,.38-2.04,.23-3.72,1.08-4.97,2.74-1.15,1.53-2.33,3.02-3.62,4.7Z"/>
        <path class="cls-5" d="M113.14,121.07c-.33,.23-.92,.92-1.21,.81-1.12-.42-2.21-1.01-3.15-1.74-.22-.17,.02-1.47,.4-1.74,1.06-.74,3.99,1.12,3.96,2.67Z"/>
        <path class="cls-3" d="M177.73,90.77c-.89-3.07-.46-6.15-.33-9.23,.13-3.08-.75-4.3-3.79-4.1-2.11,.14-4.18,.91-6.27,1.42-2.07,.52-4.14,1.55-6.2,1.52-4.08-.05-7.74,1.2-11.23,2.93-2.96,1.47-5.98,2.1-9.19,2.22-1.23,.04-2.49-.02-3.7,.2-3.64,.66-7.26,1.42-10.89,2.18-.59,.12-1.13,.46-1.72,.64-1.85,.56-3.7,1.15-5.57,1.63-2.68,.68-5.39,1.26-8.08,1.89-1.99,.47-3.99,.88-5.94,1.47-2.15,.65-4.25,1.46-6.38,2.21-1.14,.4-1.52,1.26-1.52,2.4,0,1.95-.02,3.9-.07,5.84-.08,3.71,.03,7.44-.33,11.12-.65,6.65-1.74,13.26-1.67,19.98,.07,7.1,.05,14.2,.08,21.3,0,.5,.11,.99,.2,1.82,1.73-.37,3.42-.45,4.85-1.1,4.64-2.08,9.71-2.52,14.5-4,3.13-.96,6.37-1.54,9.55-2.34,3.18-.81,6.34-1.72,9.52-2.53,.79-.2,1.63-.16,2.45-.25,.71-.08,1.5,0,2.12-.29,3.56-1.65,7.31-2.51,11.14-3.31,5.21-1.08,10.31-2.67,15.44-4.1,1.08-.3,2.07-.9,3.13-1.25,1.24-.41,2.5-.87,3.78-1,2.25-.23,3.66-1.11,3.61-3.26-.12-4.49,1.12-8.93,.21-13.48-.45-2.25-.06-4.69,.08-7.04,.33-5.85,.7-11.71,1.13-17.55,.08-1.11,.51-2.19,.72-3.29,.17-.88,.58-1.87,.35-2.66Zm-68.54,27.63c1.06-.74,3.99,1.12,3.96,2.67-.33,.23-.92,.92-1.21,.81-1.12-.42-2.21-1.01-3.15-1.74-.22-.17,.02-1.47,.4-1.74Z"/>
        <path class="cls-4" d="M53.48,128.95c2.52,1.31,4.22,3.15,3.98,6.32-2.43,3.37-6.57,3.41-8.63-.05-1.37-2.29-.33-4.95,2.28-5.75,.77-.24,1.58-.35,2.37-.52Z"/>
        <path class="cls-5" d="M102.04,124.18c-.58,.1-1.19,.36-1.74,.27-.61-.09-1.5-.36-1.68-.8-.36-.88,.19-1.52,1.18-1.75,.59-.14,1.14-.42,1.78-.66,0-.95-.07-1.87,.03-2.76,.05-.44,.08-1.08,.65-1.27s1.12,.42,1.41,.82c.41,.55,.56,1.29,.81,1.92,.17,.03,.27,.06,.36,.05,.83-.03,1.85-.97,2.43,.32,.51,1.13-.35,1.68-1.23,2.1-.84,.41-1.33,.95-.75,2.23,.87,0,1.87-.09,2.84,.02,3.42,.37,5.8,2.97,5.45,5.87-.2,1.67-1.42,3.25-3,3.53-.56,.1-1.23-.38-1.85-.59,.19-.52,.29-1.08,.59-1.53,.21-.31,.71-.41,1-.7,1.11-1.1,1.02-2.15-.29-3.06-1.34-.92-2.76-1.36-4.41-.37,.18,1.28,.44,2.58,.51,3.88,.12,2.17-.7,3.27-2.51,3.63-1.75,.35-3.89-.82-4.52-2.47-.87-2.25-.25-4.02,2.06-5.88q1.23-.99,.88-2.82Z"/>
        <path class="cls-3" d="M103.44,129.29v3.45c0,.35-.41,.54-.68,.31-.77-.65-1.36-1.05-1.51-1.58-.31-1.08,.36-1.77,1.56-2.53,.28-.17,.64,.02,.64,.35Z"/>
        <path class="cls-5" d="M120.04,123.7c-1.34-.22-2.46,1.5-3.33,.04-.97-1.62,.83-1.98,1.62-2.77,.07-.07,.09-.18,.22-.45-.41-.99-1.01-2.08-1.28-3.24-.04-.19-.02-.4,.05-.61,.21-.71,1.05-1.07,1.69-.7,.2,.11,.37,.24,.51,.41,.56,.69,.88,1.59,1.29,2.36,2.21-.51,3.08-1.19,4.27-1.94,.27-.52-.4-.87-.37-2.07,.02-.84-.14-1.76,.96-1.96,1.3-.23,1.5,.75,1.66,1.71,.09,.5,.2,1,.34,1.69,.65,.05,1.33,.09,2.01,.15,2.6,.21,4.32,1.96,4.51,4.57,.14,1.93-1.57,4.24-3.7,4.71-1.08,.24-2.26,.22-3.36,.06-.4-.06-.87-.79-.99-1.29-.06-.25,.58-.85,.99-.96,.78-.21,1.65-.07,2.44-.26,1.28-.3,2.11-1.41,1.95-2.4-.19-1.19-1.39-2.14-2.77-1.78-2.15,.56-4.21,1.43-6.65,2.29,.72,1.46,1.22,2.54,1.78,3.59,.96,1.82,1.96,3.61,2.92,5.43,.41,.78,.61,1.64-.36,2.11-.9,.44-1.52-.05-1.97-.91-1.2-2.27-2.45-4.51-3.7-6.76-.2-.35-.47-.67-.72-1.03Z"/>
        <path class="cls-5" d="M143.97,115.49s-5.21,1.27-6.8,1.67c-.93,.24-1.7,.22-1.96-.81-.25-1,.44-1.53,1.31-1.76,.99-.26,2.01-.42,3.02-.62,1.19-.25,2.39-.5,3.71-.78,0-.84-.12-1.55,.04-2.2,.12-.52,0-1.13,.88-1.43s1.1,.68,1.53,1.13c.25,.26,.25,1.58,.34,1.86,2.1-.29,4.1-2.18,6.13-.99,.38,.22,.75,1.34,.5,1.71-1.39,2.07-3.7,1.29-6.13,1.75,.35,1.07,.69,2.56,1.2,3.74,1.48,3.41,1.13,5.79-1.43,8.45-.86,.89-1.77,1.73-2.71,2.53-.46,.39-1.01,.81-1.57,.89-.52,.07-1.36-.13-1.59-.5-.21-.34,.02-1.25,.37-1.59,1.09-1.04,2.32-1.92,3.8-3.11-.72-.15-.97-.25-1.22-.25-1.54,0-3.13,.26-3.88-1.67-.81-2.08-.57-3.82,.99-5.38,.43-.43,1.02-.92,1.5-1.07s1.14-.47,2.37-.26c-.3-1.02-.42-1.31-.42-1.31Zm.88,3.84c-.21-.15-.39-.45-1.04-.45s-1.46,.99-1.99,1.64c-.62,.75-.41,1.61,.47,2.04,.9,.44,1.67-.04,1.95-.89,.24-.72,.56-1.56,.61-2.34Z"/>
        <path class="cls-5" d="M169.91,118.78c-1.23,1.78-2.19,3.36-3.34,4.78-.58,.72-1.35,1.94-2.51,.93-1.11-.98-.14-1.78,.56-2.56,1.08-1.22,2.2-2.44,2.33-4.19-2.89-1.45-3.21-1.36-4.72,.97-.89,1.37-1.75,2.8-2.84,4.01-1.58,1.75-3.16,1.95-4.63,.9-1.52-1.09-2.09-3.6-.87-5.27,.81-1.12,2.04-1.99,3.23-2.76,.84-.54,3.93-1.58,4.92-1.71,.24-.75,.01-.7-.02-2.58-1.08,.16-2.04,.35-3.01,.42-.7,.05-1.45,.1-2.09-.12-.89-.3-.98-1.7-.13-1.9,2.08-.49,4.22-.9,6.35-.99,1.08-.05,1.71,1.07,1.73,2.22,.02,.91-.08,1.82-.14,2.95,.72,.25,1.45,.5,2.33,.8,.14-.57,.28-.94,.31-1.31,.06-.72-.1-1.49,.13-2.14,.16-.46,.8-1.02,1.23-1.03,.39,0,.96,.62,1.14,1.09,.21,.54,.13,1.22,.07,1.83-.16,1.58-.3,1.75-.54,2.49,.27,.13,2.55,1.29,2.99,1.7s.78,.95,.27,1.67-.86,.54-1.33,.36-.93-.36-1.41-.56Zm-13.29,2.94c1.34-1.06,2.69-1.97,2.89-3.94-3.22,.43-4.17,1.65-2.89,3.94Z"/>
      </g>
      <g>
        <path class="cls-5" d="M24.22,4.48c-3.81,0-6.95-.02-10.08,0-3.3,.03-6.59,.14-9.89,.12-1.01,0-2.06-.21-3.01-.55C.28,3.7-.29,2.77,.16,1.81,.45,1.19,1.3,.81,1.92,.37c.14-.1,.4-.03,.61,0C9.33,1.33,16.1,.04,22.89,.04c1.24,0,2.49-.11,3.71,.04,2.87,.36,3.99,2.88,2.23,5.19-.98,1.29-2.27,2.41-3.61,3.34-3.29,2.3-6.68,4.46-10.05,6.64-2.31,1.49-4.66,2.92-7.57,4.74,1.51,.09,2.39,.17,3.27,.18,4.13,.01,8.25,0,12.38,.01,.82,0,1.66,0,2.46,.16,1.36,.27,2.16,1.24,1.98,2.32-.22,1.25-1.21,1.57-2.27,1.72-.4,.06-.82-.02-1.24-.02-5.57,0-11.14,.03-16.71-.03-1.43-.01-2.9-.13-4.28-.48-2.26-.56-2.92-2.37-1.51-4.23,.79-1.04,1.86-1.95,2.97-2.65,4.69-2.99,9.44-5.86,14.15-8.81,1.71-1.07,3.35-2.25,5.44-3.67Z"/>
        <path class="cls-5" d="M24.93,33.65c-3.34,.13-5.95-.04-8.54,.78-.73,.23-1.62,.37-2.33,.16-1.57-.46-2.46-1.78-2.19-2.95,.36-1.56,1.62-1.64,2.91-1.69,3.6-.14,7.21-.32,10.81-.45,.82-.03,1.65,0,2.47,.1,2.97,.38,3.93,2.5,1.94,4.74-1.9,2.14-4.15,3.98-6.31,5.89-1.06,.94-2.24,1.73-3.56,2.75,2.03,1.43,4.02,.83,5.88,.95,.5,.03,1.01-.25,1.52-.25,1.22,0,1.94,.75,2.13,1.86,.2,1.17-.41,2.09-1.55,2.31-1.1,.21-2.25,.19-3.38,.14-2.57-.1-5.16-.17-7.71-.44-2.93-.32-3.89-2.4-2.18-4.82,.93-1.31,2.26-2.37,3.48-3.45,1.97-1.75,4.45-2.9,6.62-5.62Z"/>
        <animateTransform xmlns="http://www.w3.org/2000/svg" attributeName="transform" attributeType="xml" type="scale" values="0.5 0.5; 1 1;0.5 0.5;" dur="4s" repeatCount="indefinite"/>
      </g>
    </g>
  </g>
</svg>