<?xml version="1.0" encoding="UTF-8"?>
<svg id="_レイヤー_2" data-name="レイヤー 2" xmlns="http://www.w3.org/2000/svg" viewBox="0 0 109.83 80.96">
  <defs>
    <style>
      .cls-1 {
        fill: #964629;
      }

      .cls-1, .cls-2, .cls-3, .cls-4, .cls-5, .cls-6, .cls-7, .cls-8 {
        stroke-width: 0px;
      }

      .cls-2 {
        fill: #231815;
      }

      .cls-3 {
        fill: #de919a;
      }

      .cls-4 {
        fill: #2e2421;
      }

      .cls-5 {
        fill: #faa2ad;
      }

      .cls-6 {
        fill: #f03c3c;
      }

      .cls-7 {
        fill: #110d0d;
      }

      .cls-8 {
        fill: #e996a1;
      }
    </style>
  </defs>
  <g id="design">
    <g>
      <g>
        <path class="cls-5" d="M74.97,1.99c1.53,0,2.97.15,4.48.68,1.38.49,3.09.32,4.6.1,2.57-.38,5.12-.84,7.73-.79.06.31.12.62-.19.83-1.32.91-2.6,1.91-3.99,2.71-1.74,1.01-3.16,2.39-3.95,4.13-1.21,2.68-3.41,3.72-5.95,4.59-1.86.64-3.8,1.36-5.36,2.51-1.48,1.09-3.01,2.14-4.45,3.3-.77.62-1.63,1.14-2.48,1.66-.79.48-1.5,1.07-2.25,1.59-3.13,2.2-6.28,4.39-9.55,6.37-1.31.79-2.89,1.35-4.58.57-.74-.34-1.66.04-2.5-.37-.71-.34-.94-.79-.77-1.43.16-.57.39-1.22.81-1.61,1.39-1.3,2.13-2.99,2.96-4.63.29-.08.6-.12.88-.24,4.12-1.77,7.27-4.88,10.56-7.77,1.4-1.23,2.83-2.37,4.34-3.45,2-1.43,4.17-2.59,6.32-3.74,1.78-.95,2.21-2.4,2.38-4.13.02-.62.87-.34.96-.89Z"/>
        <path class="cls-8" d="M103.69,39.11c-2.63.16-4.3-1.09-5.96-2.34-.24-.18-.53-.46-.57-.73-.3-2.1-.6-4.22.13-6.29.41-1.17,2.36-2.07,3.57-1.68,1.24.39,2.42.91,3.55,1.57,2.37,1.38,3.91,4.4,3.47,7.02-.22,1.35-1.23,2.22-2.92,2.44-.54.07-1.09.01-1.27.01Z"/>
        <path class="cls-1" d="M65.54,3.85c1.12-.52,2.33-.65,3.51-.47,1.11.17,1.99-.72,3.06-.5-.43,1.39-1.21,2.55-2.47,3.29-3.25,1.93-6.43,3.91-9.36,6.34-2.65,2.19-5.5,4.12-7.92,6.58-.66.67-1.39,1.16-2.37,1.19-.03-1.34-.1-2.67.75-3.88.44-.63.1-1.48.17-2.22,1.43-.24,2.73-.93,3.82-1.77,2.49-1.94,5.7-2.91,7.62-5.61,1.31-.37,1.82-1.84,3.09-2.27.09-.03.06-.43.09-.66Z"/>
        <path class="cls-8" d="M50.44,12.72c-1.22-.86-1.08-2.43-1.84-3.53-.19-.27.02-.61.31-.78,1.95-1.21,3.68-2.75,5.71-3.84.81-.43,1.6-.93,2.41-1.32,2.29-1.13,4.68-1.28,7.05-.11.04.02.03.15.04.22-1.9.93-3.8,1.88-4.76,3.94-1.99,1.08-3.75,2.5-5.58,3.81-.35.25-.72.21-1.1.27-.91.15-1.78.4-2.22,1.35Z"/>
        <path class="cls-1" d="M28.55,30.18c1.02,0,2.04,0,3.06,0,1.24,0,1.75.44,1.88,1.67.15,1.39-.03,2.77-.49,4.07-.19.53-.58,1.18-1.41.6-.62-.44-1.47-.4-2.01-.15-1.52.71-3.07.26-4.59.35-1.03.06-1.33-.31-1.36-1.4-.04-1.25-.04-2.51,0-3.76.03-1.06.33-1.35,1.4-1.38,1.17-.04,2.35,0,3.53,0h0Z"/>
        <path class="cls-2" d="M108.48,30.46c-1.37-1.96-2.83-3.71-5.3-4.2-1.6-.31-3.17-.95-4.88-.29-.92.35-1.39-.06-1.15-1.05.35-1.39,0-2.74-.23-4.01-.26-1.4-.27-2.76-.29-4.14-.06-4.31-.11-8.62-.16-12.92h0c.04-.62.11-1.24.11-1.86,0-1.27-.41-1.77-1.73-1.86-1.17-.09-2.4-.22-3.51.05-2.47.62-4.95.38-7.42.43-1.01.02-2.08.1-3.04-.16-2.16-.57-4.29-.45-6.44-.15-1.67.1-3.45-.11-5,.38-2.23.7-4.37.17-6.37-.27-4.08-.89-7.46.06-10.53,2.63-.55.46-1.11,1.01-1.75,1.08-1.25.15-2.12.77-3.01,1.56-.72.64-1.55.84-2.48.09-1.07-.87-2.25-1.66-3.78-1.5-.2.02-.45-.14-.63-.27-1.25-.97-2.89-.32-4.21-1.02-.16-.08-.45.02-.65.11-.92.39-1.82.8-2.73,1.19-1.35.58-2.48,1.6-2.8,2.92-.6,2.44-2.14,4.59-2.17,7.19-.01.99-.9.98-1.49,1.18-.69.22-1.27-.19-1.37-.9-.12-.83-.49-1.59-.5-2.47-.05-2.27-1.22-4.08-2.86-5.52-3.87-3.41-8.26-4.24-13.13-2.38-1.41.54-2.54,1.31-3.23,2.71-.72,1.46-1.41,2.96-1.67,4.53-.41,2.43-.71,4.88.63,7.24.94,1.66,1.73,3.41,2.13,5.31.31,1.47.36,1.4-.91,2.38-1.01.79-2.38,1.14-3.02,2.4-1.29.69-1.55,1.99-1.89,3.22-.37,1.33.1,2.73-.12,4.01-.28,1.62-.31,3.22-.41,4.84-.02.31,0,.64-.11.92-.49,1.28-.45,2.69-.19,3.9.63,2.9.36,5.83.68,8.74.38,3.48.1,7.03.1,10.55,0,.39.07.81-.06,1.16-.18.5-.51.95-.2,1.51.31.56.83.6,1.39.67.28.03.42.46.79.38.7.05,1.42,0,2.09.16,2.57.57,5.14.97,7.78.78.59-.04,1.25-.2,1.79.18.3.56.17,1.11.07,1.63-.29,1.59-.63,1.82-2.17,1.52-.37-.07-.71-.33-1.08-.38-1.11-.14-2.17.04-2.99.89-.54.55-.73,2.95-.33,3.68,1.07,1.91,2.73,3.09,4.91,2.79,1.7-.23,3.39-.22,5.07-.39,1.66-.17,3.03-2.17,2.47-3.7-.39-1.06-.33-1.94.22-2.86.19-.33.35-.68.48-1.03.25-.71.27-1.66.75-2.1.62-.56,1.64-.18,2.49-.21.94-.03,1.91-.12,2.82.08,3.39.73,6.76.72,10.14.03.4-.08.94-.26,1.26.26.14.6-.36,1-.51,1.51-.42,1.47-.95,2.66-3.08,2.59-2.4-.07-3.59,2.43-2.53,4.48.49.95,1.33,1.19,2.22,1.48,1.42.46,2.95.25,4.34.67,2.51.76,4.58-.6,4.27-3.63-.02-.23.06-.52-.05-.7-.71-1.17-.1-2.05.64-2.87.78-.87,1.5-1.76,1.8-2.92.09-.35.33-.54.66-.51,2.03.22,4-.49,6.02-.41,1.11.04,2.16-.17,3.19-.51,1.09-.36,2.22-.66,3.28-1.03,1.85-.64,3.57-1.69,5.3-2.67.51-.29.95-.84,1.25-1.37,1.06-1.85,2.65-3.09,4.6-3.74,2.11-.7,3.85-1.96,5.45-3.38,2.88-2.57,5.91-4.83,9.67-5.96.34,1.71-.15,3.33-.47,5.02-.63,0-1.17-.02-1.71,0-.79.04-1.47.25-1.93,1-.66,1.09-.86,2.42-.69,3.48.17,1.04,1.35,2.07,2.42,2.41,3.14,1.03,6.26.67,9.08-1.11,1.67-1.05,1.93-2.93.86-4.67-.48-.79-.94-1.59-1.45-2.35-.24-.35-.32-.69-.31-1.09.01-1.02-.17-2.08.05-3.05.25-1.08-.04-2.46,1.1-3.16,1.29-.79,2.21-1.97,3.38-2.84,1.19-.88,1.86-1.7,1.15-3.24-.22-.48-.2-1.25.39-1.73.75-.6,1.31,0,1.9.29.34.17.61.5.96.64.7.28,1.53.82,2.13.65,1.39-.39,2.78-.15,4.15-.37,1.63-.26,3.35-1.95,3.51-3.57.22-2.41.27-4.78-1.23-6.94ZM65.02,3.31c.07,0,.13.02.19.04.14.06.26.21.33.5,1.12-.52,2.33-.65,3.51-.47,1.11.17,1.99-.72,3.06-.5-.43,1.39-1.21,2.55-2.47,3.29-3.25,1.93-6.43,3.91-9.36,6.34-2.65,2.19-5.5,4.12-7.92,6.58-.66.67-1.39,1.16-2.37,1.19-.03-1.34-.1-2.67.75-3.88.44-.63.1-1.48.17-2.22,1.43-.24,2.73-.93,3.82-1.77,2.49-1.94,5.7-2.91,7.62-5.61,1.31-.37,1.82-1.84,3.09-2.27.09-.03.06-.43.09-.66-.07-.29-.18-.43-.33-.5-.06-.03-.12-.04-.19-.04-.03,0-.07,0-.1,0,.03,0,.07,0,.1,0ZM64.91,3.31c-.06,0-.13.01-.19.02.06,0,.13-.02.19-.02ZM48.9,8.4c1.95-1.21,3.68-2.75,5.71-3.84.81-.43,1.6-.93,2.41-1.32,2.29-1.13,4.68-1.28,7.05-.11.04.02.03.15.04.22-1.9.93-3.8,1.88-4.76,3.94-1.99,1.08-3.75,2.5-5.58,3.81-.35.25-.72.21-1.1.27-.91.15-1.78.4-2.22,1.35-1.22-.86-1.08-2.43-1.84-3.53-.19-.27.02-.61.31-.78ZM91.59,2.82c-1.32.91-2.6,1.91-3.99,2.71-1.74,1.01-3.16,2.39-3.95,4.13-1.21,2.68-3.41,3.72-5.95,4.59-1.86.64-3.8,1.36-5.36,2.51-1.48,1.09-3.01,2.14-4.45,3.3-.77.62-1.63,1.14-2.48,1.66-.79.48-1.5,1.07-2.25,1.59-3.13,2.2-6.28,4.39-9.55,6.37-1.31.79-2.89,1.35-4.58.57-.74-.34-1.66.04-2.5-.37-.71-.34-.94-.79-.77-1.43.16-.57.39-1.22.81-1.61,1.39-1.3,2.13-2.99,2.96-4.63.29-.08.6-.12.88-.24,4.12-1.77,7.27-4.88,10.56-7.77,1.4-1.23,2.83-2.37,4.34-3.45,2-1.43,4.17-2.59,6.32-3.74,1.78-.95,2.21-2.4,2.38-4.13h0c.02-.62.87-.34.96-.89,1.53,0,2.97.15,4.48.68,1.38.49,3.09.32,4.6.1,2.57-.38,5.12-.84,7.73-.79.06.31.12.62-.19.83Z"/>
        <path class="cls-3" d="M27.53,17.47c.92,1.35.55,3.01,1.27,4.38.24.46-.02,1.04-.47,1.46-.9.86-2.01,1.41-3.05,2.07-.19.12-.47.18-.61-.05-.11-.18-.2-.48-.12-.64.85-1.79,1.02-3.67,1.01-5.63,0-1.16,1.2-1.2,1.97-1.6Z"/>
        <path class="cls-1" d="M30.25,24.83q1.88,3.46-1.75,3.46c-1.09,0-2.18,0-3.84,0,2.2-1.16,3.95-2.02,5.59-3.46Z"/>
        <path class="cls-3" d="M10.36,29.1h-4.07c0-.26-.04-.53,0-.54.84-.26,1.34-1.72,2.28-1.08.59.4,1.34.87,1.79,1.62Z"/>
        <path class="cls-7" d="M18.82,70.23c-.29-.04-.58-.07-.87-.11-.08-.93.56-1.09,1.14-.78.56.3.34.74-.27.89Z"/>
        <path class="cls-5" d="M24.56,24.7c.85-1.79,1.02-3.67,1.01-5.63,0-1.16,1.2-1.2,1.97-1.6.92,1.35.55,3.01,1.27,4.38.24.46-.02,1.04-.47,1.46-.9.86-2.01,1.41-3.05,2.07-.19.12-.47.18-.61-.05-.11-.18-.2-.48-.12-.64Z"/>
        <path class="cls-1" d="M23.62,31.58c.03-1.06.33-1.35,1.4-1.38,1.17-.04,2.35,0,3.53,0h0c1.02,0,2.04-.01,3.06,0,1.24,0,1.75.44,1.88,1.67.15,1.39-.03,2.77-.49,4.07-.19.53-.58,1.18-1.41.6-.62-.44-1.47-.4-2.01-.15-1.52.71-3.07.26-4.59.35-1.03.06-1.33-.31-1.36-1.4-.04-1.25-.04-2.51,0-3.76Z"/>
        <path class="cls-5" d="M6.29,28.56c.84-.26,1.34-1.72,2.28-1.08.59.4,1.34.87,1.79,1.62h-4.07c0-.26-.04-.53,0-.54Z"/>
        <path class="cls-5" d="M53.54,54.6c-.07.36-.23.72-.21,1.11.19,3.82-.89,7.58-.46,11.48-4.24,1.05-8.46.7-12.62.53-1.6-.07-3.12-.49-4.75.03-.93.3-1.9-.44-2.94-.41-2.82.08-5.67.23-8.47-.06-5.54-.57-11.08-.24-16.62-.4-1.52-.04-3.02-.71-4.59-.34-.44-1.56-.35-3.07-.11-4.71.36-2.37.02-4.83.16-7.25.17-2.81-.78-5.51-.57-8.32.12-1.55.09-3.12.03-4.68-.06-1.48.68-2.85.52-4.34-.11-.99.25-2.02-.35-2.95-.2-.31-.07-.57.08-.86.39-.72.21-1.52.26-2.28,2.82-.02,5.63-.03,8.45-.07.61,0,1.21.03,1.84-.16,1.9-.59,2.03-1.12.59-2.77-.34-.52-.78-.87-1.45-.8h0c-2.07-1.36-3.4-3.22-4.04-5.63-.45-1.69-1.1-3.32-1.66-4.98-.73-2.12-.53-4.21-.04-6.37.54-2.38,2.26-3.51,4.25-4.14,3.17-1,5.99-.47,8.75,1.41,1.55,1.06,2.09,2.84,2.58,4.52.6,2.04,1.04,4.15,1.38,6.25.27,1.72-.2,3.39-1.21,4.82-1.68,2.38-1.81,4.85-1.24,7.68.36,1.78,1.24,3.7.26,5.65-.36.72.49,1.89,1.36,2.09.3.07.62.04.94.04,3.37,0,6.75,0,10.12-.02,1.2,0,1.54-.33,1.6-1.49.12-2.08.48-4.11.86-6.15.14-.73.34-1.75-.53-2.12-1.75-.76-2.3-2.46-3.1-3.86-1.62-2.82-2.54-5.89-2.44-9.22.05-1.59.74-2.96,1.15-4.42.28-1.02.53-2.14,1.14-2.96,1.44-1.93,4.83-3.61,7.39-2.38.27.13.62.07.9.17,4.09,1.39,5.86,3,7.14,7.15,1.02,3.28.64,6.49-1.52,9.33-1.08,1.41-2.16,2.82-3.26,4.21-1.66,2.1-1.44,3.02.96,4.26.98.5,2.04.74,3.07.83,1.09.1,2.06.65,3.18.56.75-.06,1.05.51,1.02,1.26-.03.7-.02,1.41-.01,2.12.03,2.78.33,5.48,1.3,8.16.82,2.27,1.09,4.75,1.55,7.14.23,1.18-.46,2.23-.67,3.36Z"/>
        <path class="cls-5" d="M107.88,36.65c-.22,1.35-1.23,2.22-2.92,2.44-.54.07-1.09.01-1.27.01-2.63.16-4.3-1.09-5.96-2.34-.24-.18-.53-.46-.57-.73-.3-2.1-.6-4.22.13-6.29.41-1.17,2.36-2.07,3.57-1.68,1.24.39,2.42.91,3.55,1.57,2.37,1.38,3.91,4.4,3.47,7.02Z"/>
        <path class="cls-2" d="M35.66,57.03c-.2-.03-.47.05-.63.17-.27.22-.25.61-.12.86.17.34.48.61.76.88,1.03,1,1.34,2.19.98,3.75-.98-.32-1.75.42-2.83.2-1.96-.41-3.54-1.35-4.98-2.64,0-.4-.26-.71-.38-1.07-.41-1.2-.24-1.71,1.01-2,1.34-.31,2.07-1.27,2.94-2.11,1.16-1.13,1.42-2.55.91-4.02-.24-.69-.59-1.51-.77-1.68-.4-.39-.82-.74-1.12-.91-1.79-.99-3.73-.91-5.66-.86-1.72.04-2.72.92-3.04,2.58-.09.45.07,1-.13,1.38-.65,1.26-.24,2.37.24,3.53.58,1.37,1.86,1.37,3.15,1.5,0,1.08,0,2.01,0,2.94,0,.45-.22.61-.61.84-2.23,1.32-4.44.65-6.58-.12-1.15-.41-1.17-1.83-.22-2.68.16-.14.47-.12.61-.27.37-.4.4-.94-.11-1.16-.54-.24-1.06-.67-1.75-.51-.3.07-.56.07-.75.4-.83,1.38-.66,2.91-.43,4.32.16.94,1.13,1.65,2.16,1.94,2.08.58,4.23,1.17,6.35.71.91-.2,1.82-.23,2.71-.42,2.34.9,4.67,1.8,7.16,2.25,1.73.32,3.1-.08,3.6-1.62.25-.76.6-1.55.58-2.44-.04-1.81-1.27-3.45-3.04-3.74ZM24.97,52.15c-.56-1.5-.07-2.57,1.51-2.66.23-.01.47,0,.85,0,.97-.31,1.92.43,2.98.55,1.12.13,1.61,2.54.85,3.45-.8.96-1.58,1.5-2.93.73-1.12-.64-2.64-.45-3.25-2.08Z"/>
        <path class="cls-7" d="M18.94,39.4c.15.76-.37,1.27-.93,1.69-.66.5-1.4.91-2.11,1.35-1.53.95-2.85,2.12-3.99,3.51-.14.17-.42.46-.5.54-.44.44-.73.98-1.48.38-.77-.61-.2-1.09.02-1.6.46-1.07,1.12-1.89,2.17-2.55,1.3-.81,2.39-1.95,3.55-2.96.58-.5,1.1-1.06,1.86-1.35,1.06-.41,1.45-.18,1.41,1Z"/>
        <path class="cls-4" d="M36.33,39.1c2.78.73,5.42,1.67,7.39,3.88.25.28.51.55.63.95.26.88,1.03,1.65.6,2.69-1.01-.04-1.39-.94-1.91-1.54-1.51-1.71-3.28-3.01-5.38-3.9-.63-.27-1.24-.59-1.83-.93-.25-.15-.53-.37-.44-.75.13-.57.61-.3.93-.41Z"/>
        <path class="cls-6" d="M27.32,49.49c.97-.31,1.92.43,2.98.55,1.12.13,1.61,2.54.85,3.45-.8.96-1.58,1.5-2.93.73-1.12-.64-2.64-.45-3.25-2.08-.56-1.5-.07-2.57,1.51-2.66.23-.01.47,0,.85,0Z"/>
        <path class="cls-5" d="M18.25,72.81c-.85,1.03-1.07,2.01-.43,3.17.4.73-.24,1.17-.66,1.19-1.94.1-3.89.09-5.84.01-.37-.02-.74-.51-1.08-.82-.7-.65.08-1.15.28-1.64.18-.46.61-.13.97.03.69.3,1.41.54,2.14.77,1.55.5,2.68-.21,2.87-1.82.08-.69.06-1.4.06-2.1,0-.94.06-2.16.21-2.42s1.73-.17,2.31.15c.56.3-.27,2.78-.84,3.47Z"/>
        <path class="cls-5" d="M41.37,73.34c-1,.79-1.05,1.84-.56,2.92.17.37.24.72.26,1.11.02.53-.12.84-.75.89-1.79.15-3.5-.27-5.22-.67-.32-.07-.71-.38-.6-.87.08-.39.41-.4.72-.4.55,0,1.09,0,1.64,0,1.79-.05,3.11-1.13,3.16-2.87.03-.89.6-1.56.62-2.42.01-.37.43-.88,1-.77.53.11.32.61.36.96,0,.08,0,.16,0,.28.06.67.02,1.32-.63,1.84Z"/>
        <path class="cls-5" d="M90.32,59.3c-.31.47-.4,1.07-1.3,1.06-1.04-.01-2.12.27-3.11.62-.79.28-1.42.27-2.2-.06-.87-.37-.98-1.06-1.23-1.78.6-.23,1.05-.72,1.7-.7.82.03,1.44-.47,2.15-.73,1.02-.37,1.42-.99,1.36-2.1-.1-1.87-.04-3.74-.05-5.61,0-.4.23-.55.58-.52.26.02.37.22.37.47,0,.94.09,1.88-.03,2.8-.18,1.35.77,2.49.58,3.84-.04.31.49.76.83,1.06.54.47.76.99.35,1.62Z"/>
        <path class="cls-5" d="M94.29,42.05c-.1.7-.39,1.06-1.03,1.37-5.1,2.49-9.73,5.82-14.79,8.4-2.06,1.05-3.79,2.55-5.32,4.3-.64.74-1.5,1.49-2.4,1.76-2.81.84-5.08,2.51-7.27,4.31-.92.75-1.83,1.27-3.05,1.51-1.48.29-2.97.84-3.99,2.13-.23.29-.47.65-1.14.58-.34-1.93-.3-3.93.02-5.86.14-.84.28-1.67.27-2.51,0-1.48,0-2.96.73-4.29.29-.54.31-1.1.19-1.59-.73-2.81-.71-5.75-1.62-8.56-.61-1.86-1.08-3.81-1.51-5.73-.25-1.12-.23-2.37-.03-3.5.23-1.29.87-2.44,2.07-3.21,1.81-1.16,3.65-2.28,5.37-3.56,4.02-2.98,8.25-5.67,12.16-8.82.78-.63,1.69-1.04,2.65-1.35,1.3-.43,2.56-1.04,3.89-1.33,2.72-.6,4.62-2.28,5.71-4.65,1.03-2.23,2.4-3.91,4.64-4.87,1.3-.56,2.15-1.74,3.35-2.45.27-.16.48-.41.91-.28.44.29.19.79.16,1.22-.31,4.61.69,9.17.43,13.77-.14,2.48-.54,4.93-.48,7.43.06,2.72-.06,5.44.51,8.13.31.35.19.66.21,1.03.02.39.17.86-.14,1.31.09,1.79-.25,3.54-.49,5.3Z"/>
        <g>
          <path class="cls-2" d="M73.07,38.94c.05,1.94-.19,3.51-.96,4.96-.11.21-.18.4-.48.4-.47,0-.45-.34-.45-.64,0-.46.06-.89.29-1.34.45-.86.17-1.84.16-2.77-.01-.63-.67-.97-1.34-.69-.68.29-1.35.54-1.89-.08-.38-.44.16-1.11,1.19-1.67.35-.19.67-.33,1.08-.37.6-.05.92-.55,1.26-.97.4-.5-.1-.83-.23-1.25-.22-.71.17-1.25.81-1.48.41-.14.98-.15,1.02.55.03.55.02,1.1.02,1.64,0,.4.22.6.56.52.38-.09.4-.43.24-.72-.53-.92.36-.7.58-.59,1.01.47,1.7,1.35,2.33,2.22.31.42.45.97.71,1.43.2.35.49.71,0,.97-.33.18-.77.13-1.08-.16-.45-.42-.88-.84-1.13-1.45-.16-.38-.71-.36-1.03-.15-.46.29.14.47.17.72.17,1.64,1.39,2.87,1.74,4.45.3,1.35.21,2.58-.57,3.73-.17.26-.39.5-.64.68-.55.39-1.23.49-1.71.03-.45-.44-.13-.95.2-1.44,1.49-2.2,1.45-3.2-.11-5.4-.2-.28-.37-.57-.74-1.15Z"/>
          <path class="cls-2" d="M81.97,31.09c.39.73-.64,1.51-.24,2.29.48.93-.27,1.42-.53,2.07-.18.45-.13.78.22,1.01,1.21.8,2.24,2.19,4.02,1.32.25-.12.67-.13.92,0,.49.24.91.6.84,1.27-.06.56-.48.77-.89.97-.19.09-.48.07-.69,0-1.94-.6-4.04-.74-5.72-2.15-.47-.39-.78-.66-.75-1.25.01-.23-.05-.49.03-.7.7-2.05,1.19-4.12,1.01-6.32-.02-.26.42-.72.73-.81.53-.14.88.36,1.02.77.14.42.03.92.03,1.53Z"/>
          <path class="cls-2" d="M66.82,41.47c.41-.03.84.01,1.21.4.49.51.46,1.18-.21,1.47-1.4.6-2.88,1-3.97,2.23-.4.45-1.03.09-1.38-.4-.43-.6-.37-1.46.1-1.9.48-.45,3.59-1.79,4.24-1.8Z"/>
          <path class="cls-2" d="M65.67,48.99c-.29,0-.69.06-1.07-.01-.65-.12-.67-.8-.87-1.24-.21-.46.42-.49.69-.71.48-.4,1.02-.26,1.55-.31.68-.06,1.38.09,2.03-.34.63-.43,1.2-.19,1.58.41.44.68-.22.98-.58,1.31-.91.84-2.04,1.02-3.33.9Z"/>
          <path class="cls-2" d="M87.09,24.57c1.59-.11,2.77.41,3.97.79.3.1.88.08.77.65-.1.46-.45.85-.95.86-.83.02-1.63.13-2.46-.32-.77-.42-1.03-1.01-1.32-1.98Z"/>
          <path class="cls-2" d="M63.91,37.82c-.78-.26-1.34.05-1.71.74-.27.01-.47.04-.8.03-.03-.69-.03-1.39-.1-2.08-.09-.84-.68-1.3-1.37-1.18-.63.11-1.21.92-.89,1.57.29.59.29,1.18.44,1.76-.05.79-.54,1.12-1.2,1.51-.56.34-1.21.22-1.71.63-.4.34-.61.7-.46,1.21.14.48.59.35.94.46,1.17.37,1.69-1.03,2.74-.94.02,1.4.35,2.89-.02,4.18-.58,2.01-.16,4-.36,5.98-.06.6.14,1.06.62,1.41.47.34,1.06.18,1.23-.42.38-1.31.64-2.55.11-3.99-.57-1.55-.91-3.33-.47-4.98.25-.92.35-1.79.38-2.71,0-.68.28-1.16.94-1.4.16,0,.31,0,.47,0,.81,0,1.34-.35,1.43-1.19.02-.22.05-.52-.22-.61Z"/>
          <path class="cls-2" d="M94.79,36.75c-.14.05-.37.08-.39.16-.18.84-.38,1.52-1.38,1.9-1.09.41-2.19.45-3.19.18-1.07-.29-.85-1.28-.61-2.15.8-.03,1.33.55,2.08.48.7-.06,1.18-.29,1.54-.86.81-1.31.09-3.04-1.46-3.43-.29-.07-.64-.05-.84.24-.17.25-.27.56-.47.79-.3.34-.59.88-1.1.73-.6-.18-1.28-.69-1.23-1.27.1-1.22-.65-2.24-.56-3.41.03-.31-.08-.65,0-.93.15-.45.45-.86.99-.83.41.03.76.37.84.72.12.52.04,1.08.07,1.63.06,1.16.54,1.53,1.64,1.26q1.97-.47,2.87,1.11c.29.52.39,1.19,1.13,1.34.65.73.67,1.46.07,2.33Z"/>
        </g>
      </g>
      <path class="cls-2" d="M18.91,49.29c-.64,0-1.34-.07-1.61-.6l-.06-.11c-.43-.83-.83-1.61-.7-2.59.12-.86.82-1.23,1.56-1.5.6-.22,1.11-.33,1.57-.33.51,0,.95.13,1.34.39.64.43,1.08,2.76.66,3.51-.23.41-.68.72-1.5,1.03-.36.14-.64.19-1,.19-.09,0-.18,0-.27,0Z"/>
      <path class="cls-2" d="M34.63,48.6c-.4,0-.74-.08-1.01-.23-.31-.18-1.06-1.14-1.21-1.64-.33-1.04-.15-1.81.53-2.36.45-.36,1.09-.58,1.71-.58.47,0,.87.12,1.14.35.4.34.68.63.89.93.5.71.6,1.51.29,2.22-.32.72-1.02,1.19-1.91,1.29-.15.02-.29.03-.42.03Z"/>
    </g>
  </g>
</svg>