<?xml version="1.0" encoding="UTF-8"?>
<svg id="_レイヤー_2" data-name="レイヤー 2" xmlns="http://www.w3.org/2000/svg" viewBox="0 0 133.91 76.55">
  <defs>
    <style>
      .cls-1 {
        fill: #fff;
        stroke-width: 0px;
      }
    </style>
  </defs>
  <g id="design">
    <g>
      <path class="cls-1" d="M48.42,10.5c-.25-.24-.37-.53-.36-.87.01-.34.15-.64.42-.89.51-.48,1.03-1.05,1.57-1.72s1.04-1.36,1.51-2.07c.47-.71.83-1.36,1.1-1.95.15-.33.38-.55.7-.64.32-.09.63-.07.92.08.31.16.51.39.61.69.1.3.08.6-.07.91-.36.77-.79,1.54-1.28,2.31s-1.01,1.49-1.56,2.18-1.09,1.3-1.62,1.85c-.27.25-.58.41-.95.46-.37.05-.7-.06-.99-.34ZM64.74,17.84c-.29.2-.62.27-.99.2-.37-.07-.64-.25-.83-.54-.13-.2-.28-.41-.43-.64s-.32-.47-.51-.72c-.6.08-1.3.17-2.09.26-.79.09-1.63.19-2.51.29-.88.1-1.75.2-2.61.3-.86.1-1.67.19-2.42.27-.75.08-1.39.15-1.91.2-.41.04-.75-.04-1-.24-.25-.2-.4-.49-.44-.86-.03-.32.07-.6.28-.84s.51-.37.88-.4c.27-.03.56-.05.87-.07.31-.02.66-.04,1.03-.07.27-.52.57-1.12.9-1.81.33-.69.67-1.4,1.01-2.14s.66-1.44.95-2.11c.29-.67.53-1.24.72-1.72.13-.33.35-.57.66-.7.31-.13.63-.14.96-.02.33.12.57.34.71.65.14.31.14.63,0,.95-.25.57-.56,1.25-.92,2.02s-.74,1.57-1.14,2.38c-.4.81-.78,1.57-1.14,2.26,1-.09,2-.19,3.01-.29,1.01-.1,1.92-.19,2.73-.27-.31-.4-.61-.78-.91-1.15-.3-.37-.57-.68-.81-.95-.21-.23-.31-.5-.3-.82.01-.32.14-.58.38-.78.25-.21.54-.31.86-.3.32.01.59.13.82.36.32.33.68.73,1.08,1.19.4.46.81.95,1.22,1.46.41.51.81,1.01,1.18,1.49.37.48.7.91.98,1.3.21.31.3.64.25.99-.05.35-.22.64-.53.87ZM64.72,10.3c-.71-.55-1.39-1.15-2.04-1.81s-1.24-1.35-1.77-2.07c-.53-.72-.98-1.43-1.35-2.12-.16-.31-.3-.54-.43-.69-.13-.15-.29-.25-.48-.3s-.47-.07-.83-.07h-1.42c-.29,0-.55-.11-.76-.33-.21-.22-.32-.48-.32-.77s.11-.57.32-.78.47-.32.76-.32h1.42c.75,0,1.34.06,1.78.18.44.12.81.33,1.11.64.3.31.6.74.91,1.3.51.89,1.17,1.8,2,2.71.83.91,1.74,1.72,2.74,2.41.31.2.49.48.55.84.06.36-.02.69-.25.98-.24.29-.55.46-.92.49s-.71-.06-1.02-.29Z"/>
      <path class="cls-1" d="M83.12,17.06c-.84-1-1.61-2.37-2.32-4.12s-1.23-3.95-1.58-6.6h-8.4c-.33,0-.6-.11-.81-.33-.21-.22-.31-.49-.31-.81s.1-.57.31-.79c.21-.22.48-.33.81-.33h8.16c-.03-.45-.05-.92-.07-1.4-.02-.48-.04-.97-.07-1.46,0-.37.12-.67.35-.89.23-.22.52-.33.85-.33s.62.1.85.31.35.5.35.89c-.01.49-.01.98,0,1.46.02.48.04.95.07,1.42h5.54c.35,0,.62.11.82.33.2.22.3.48.3.79s-.1.59-.3.81c-.2.22-.47.33-.82.33h-5.3c.29,2.13.74,3.97,1.33,5.51.59,1.54,1.26,2.69,1.99,3.45.2.21.37.3.51.27.14-.03.27-.17.39-.41.07-.15.15-.32.24-.51.09-.19.17-.36.22-.49.13-.31.34-.51.63-.61.29-.1.58-.09.87.03.31.13.52.34.63.61s.12.55.03.83c-.09.28-.2.55-.31.8-.11.25-.24.53-.39.84-.36.75-.8,1.25-1.32,1.51-.52.26-1.06.29-1.63.1-.57-.19-1.11-.6-1.63-1.21ZM71.22,17.82c-.37.05-.68,0-.92-.19-.24-.18-.39-.44-.46-.79-.05-.35.02-.63.21-.85s.47-.36.83-.41c.09-.01.39-.06.9-.14.51-.08,1.11-.17,1.8-.28v-4.32h-2.4c-.33,0-.6-.11-.79-.32s-.29-.47-.29-.76.1-.56.29-.77c.19-.21.46-.31.79-.31h6.96c.33,0,.59.1.78.31.19.21.28.46.28.77s-.09.55-.28.76-.45.32-.78.32h-2.08v3.92c.71-.11,1.33-.21,1.87-.3.54-.09.88-.15,1.01-.16.35-.07.63-.03.85.12.22.15.36.38.41.7.07.32.02.59-.13.81-.15.22-.38.36-.69.43-.12.03-.39.08-.8.15-.41.07-.91.16-1.5.27-.59.11-1.2.22-1.84.33-.64.11-1.25.22-1.83.33s-1.07.19-1.46.26c-.39.07-.64.11-.73.12ZM85.62,3.8c-.24.2-.52.29-.83.26-.31-.03-.58-.15-.81-.38-.09-.11-.23-.24-.4-.41-.17-.17-.35-.33-.52-.49-.17-.16-.31-.29-.42-.38-.21-.19-.32-.43-.31-.72,0-.29.12-.55.33-.76.21-.23.46-.35.75-.38.29-.03.55.07.79.28.12.09.28.23.48.41s.4.36.59.53c.19.17.34.31.43.42.23.23.33.5.31.81-.02.31-.15.58-.39.81Z"/>
      <path class="cls-1" d="M1.18,45.9c-.79,0-1.18-.39-1.18-1.18v-11.64c0-.79.38-1.18,1.14-1.18s1.16.39,1.16,1.18v10.68h6.12c.79,0,1.18.35,1.18,1.06s-.39,1.08-1.18,1.08H1.18Z"/>
      <path class="cls-1" d="M13.94,45.9c-.76,0-1.14-.39-1.14-1.18v-11.64c0-.79.38-1.18,1.14-1.18s1.16.39,1.16,1.18v11.64c0,.79-.39,1.18-1.16,1.18Z"/>
      <path class="cls-1" d="M20.48,45.9c-.76,0-1.14-.39-1.14-1.18v-11.64c0-.79.38-1.18,1.14-1.18h.26c.6,0,1.07.26,1.42.78l6.08,9.16v-8.76c0-.39.1-.68.31-.88s.5-.3.87-.3c.77,0,1.16.39,1.16,1.18v11.64c0,.79-.37,1.18-1.1,1.18h-.2c-.61,0-1.09-.26-1.42-.78l-6.22-9.44v9.04c0,.79-.39,1.18-1.16,1.18Z"/>
      <path class="cls-1" d="M35.98,45.9c-.79,0-1.18-.39-1.18-1.18v-11.64c0-.79.39-1.18,1.18-1.18h7c.79,0,1.18.36,1.18,1.08s-.39,1.06-1.18,1.06h-5.88v3.64h5.26c.79,0,1.18.36,1.18,1.08s-.39,1.08-1.18,1.08h-5.26v3.92h6.1c.79,0,1.18.35,1.18,1.06s-.39,1.08-1.18,1.08h-7.22Z"/>
      <path class="cls-1" d="M50.2,45.5c-.29.15-.6.16-.93.05-.33-.11-.56-.32-.71-.63-.15-.31-.16-.62-.05-.94s.32-.55.61-.7c1.91-.92,3.6-2.03,5.09-3.33,1.49-1.3,2.7-2.71,3.63-4.23.59-.96.27-1.44-.96-1.44h-5.46c-.33,0-.62-.12-.86-.37-.24-.25-.36-.54-.36-.87s.12-.64.36-.88c.24-.24.53-.36.86-.36h5.54c1.2,0,2.12.22,2.76.65.64.43.99,1.02,1.05,1.77.06.75-.19,1.61-.75,2.58-.29.53-.65,1.07-1.06,1.6.61.51,1.24,1.06,1.89,1.67.65.61,1.25,1.19,1.82,1.76.57.57,1.04,1.05,1.43,1.45.23.24.34.53.34.88s-.13.64-.38.88c-.24.24-.53.36-.88.35s-.64-.13-.88-.37c-.36-.37-.81-.84-1.36-1.41-.55-.57-1.13-1.15-1.74-1.76s-1.21-1.16-1.78-1.65c-1.01,1.05-2.14,2.04-3.39,2.97-1.25.93-2.52,1.7-3.83,2.33Z"/>
      <path class="cls-1" d="M69.2,46.76c-.32.13-.64.14-.95.02-.31-.12-.54-.34-.69-.66-.13-.31-.14-.62,0-.94.13-.32.34-.55.65-.68,2.75-1.19,5.01-2.69,6.78-4.52-.29-.29-.57-.56-.84-.8-.27-.24-.49-.43-.68-.58-.25-.23-.4-.51-.45-.84s.04-.63.25-.88c.23-.27.51-.42.85-.46.34-.04.64.05.89.28.23.17.47.38.73.61.26.23.54.48.83.75.24-.35.47-.7.68-1.06.21-.36.41-.73.6-1.1.21-.44.26-.77.13-.99-.13-.22-.45-.33-.97-.33h-2.72c-.67.89-1.41,1.75-2.24,2.57-.83.82-1.61,1.5-2.36,2.05-.28.2-.59.27-.93.21-.34-.06-.6-.23-.79-.51-.2-.28-.27-.59-.21-.92.06-.33.23-.6.51-.8.77-.56,1.52-1.19,2.23-1.9.71-.71,1.36-1.45,1.93-2.23.57-.78,1.03-1.54,1.38-2.27.15-.31.38-.52.69-.65.31-.13.62-.12.93,0,.31.13.52.36.65.69.13.33.12.64-.03.95-.03.07-.06.14-.09.21-.03.07-.07.14-.11.21h1.54c1.03,0,1.82.19,2.37.58.55.39.86.92.93,1.61s-.12,1.47-.56,2.35c-.49,1.04-1.11,2.03-1.84,2.98.31.29.59.57.84.84.25.27.47.51.64.72.23.27.32.57.28.92s-.2.63-.48.86c-.27.21-.57.3-.91.25-.34-.05-.62-.2-.85-.45-.13-.16-.3-.35-.5-.56-.2-.21-.41-.43-.64-.66-2.08,2.16-4.57,3.87-7.46,5.12Z"/>
      <path class="cls-1" d="M89.06,37.24c-.51-.43-1.07-.87-1.7-1.33s-1.19-.84-1.7-1.13c-.29-.19-.48-.44-.56-.77-.08-.33-.03-.64.14-.93.19-.29.44-.48.77-.57.33-.09.64-.04.93.15.36.23.77.5,1.23.83.46.33.91.65,1.34.97.43.32.79.59,1.07.82.27.21.42.49.47.83.05.34-.04.64-.25.91-.21.27-.49.42-.83.47s-.64-.04-.91-.25ZM87.34,45.12c-.32.12-.64.11-.95-.04-.31-.15-.53-.38-.65-.7-.12-.32-.11-.64.04-.95s.38-.53.7-.65c1.07-.37,2.14-.83,3.23-1.38,1.09-.55,2.13-1.14,3.12-1.79.99-.65,1.9-1.31,2.72-2,.82-.69,1.49-1.35,2.01-1.99.23-.27.51-.42.85-.46.34-.04.64.05.89.28.27.21.42.49.46.83s-.05.64-.28.91c-.55.67-1.27,1.38-2.18,2.13-.91.75-1.92,1.5-3.04,2.23-1.12.73-2.27,1.41-3.46,2.04-1.19.63-2.34,1.14-3.46,1.54Z"/>
      <path class="cls-1" d="M105.8,46.24c-.31.13-.62.14-.94,0s-.55-.34-.7-.65c-.13-.32-.14-.64-.02-.97.12-.33.33-.56.64-.69,2.08-.93,3.84-2.05,5.27-3.36,1.43-1.31,2.48-2.73,3.13-4.26.29-.67.34-1.17.14-1.51s-.69-.51-1.48-.51h-7.5c-.33,0-.62-.12-.86-.37s-.36-.54-.36-.87.12-.64.36-.88c.24-.24.53-.36.86-.36h7.6c1.23,0,2.18.22,2.85.67.67.45,1.07,1.07,1.19,1.86s-.04,1.72-.48,2.79c-.79,1.87-2,3.58-3.65,5.15-1.65,1.57-3.66,2.88-6.05,3.95ZM118.22,34.16c-.56,0-1.04-.2-1.43-.59-.39-.39-.59-.87-.59-1.43s.2-1.04.59-1.43c.39-.39.87-.59,1.43-.59s1.02.2,1.41.59c.39.39.59.87.59,1.43s-.2,1.04-.59,1.43-.86.59-1.41.59ZM118.22,33c.24,0,.44-.08.61-.25.17-.17.25-.37.25-.61s-.08-.44-.25-.61c-.17-.17-.37-.25-.61-.25s-.45.08-.62.25c-.17.17-.26.37-.26.61s.09.44.26.61c.17.17.38.25.62.25Z"/>
      <path class="cls-1" d="M128.7,47.04c-1.57,0-2.81-.41-3.72-1.24-.91-.83-1.36-2.01-1.36-3.54,0-.16.02-.39.06-.68.04-.29.09-.63.14-1.02-.37-.07-.73-.14-1.07-.22-.34-.08-.65-.15-.93-.22-.32-.09-.56-.29-.71-.58-.15-.29-.18-.59-.09-.9.11-.31.3-.54.59-.7.29-.16.58-.19.89-.1.47.15,1.05.28,1.74.4.07-.39.14-.78.22-1.18.08-.4.15-.81.22-1.22-.36-.07-.69-.13-1-.2-.31-.07-.56-.13-.76-.18-.31-.09-.54-.28-.7-.57-.16-.29-.19-.58-.1-.89.09-.32.28-.56.56-.72.28-.16.58-.19.9-.1.16.04.37.09.64.15.27.06.57.12.9.19.11-.63.2-1.2.29-1.71s.14-.93.15-1.25c.03-.33.18-.6.45-.8.27-.2.57-.28.89-.24.33.04.6.19.8.45.2.26.28.56.24.89s-.1.77-.19,1.31c-.09.54-.2,1.13-.33,1.77.21.04.41.07.59.09.18.02.34.04.49.07.32.05.58.21.78.46s.28.54.24.86c-.04.33-.19.6-.45.79-.26.19-.55.27-.87.23-.16-.01-.35-.04-.56-.07-.21-.03-.43-.06-.66-.09-.08.39-.16.77-.23,1.16s-.14.77-.21,1.14c.27.03.52.05.77.08.25.03.48.05.69.06.32.01.59.14.81.39.22.25.32.53.31.85-.01.33-.14.61-.39.82-.25.21-.54.31-.87.3-.27-.03-.55-.05-.84-.07-.29-.02-.59-.05-.9-.09-.11.64-.16,1.09-.16,1.34,0,1.6.91,2.4,2.74,2.4.76,0,1.39-.18,1.9-.53.51-.35.81-.82.92-1.39.2-1.01-.21-1.99-1.22-2.92-.24-.23-.35-.51-.33-.85.02-.34.16-.62.41-.85.24-.23.52-.33.84-.3.32.03.6.15.84.38.75.71,1.27,1.48,1.56,2.31s.37,1.67.22,2.51c-.2,1.21-.76,2.19-1.68,2.92s-2.07,1.1-3.46,1.1Z"/>
      <path class="cls-1" d="M27.28,76.12c-.25-.15-.41-.36-.47-.65-.06-.29,0-.54.15-.77.16-.21.34-.47.54-.78.2-.31.4-.61.59-.92.19-.31.35-.57.47-.8.15-.28.36-.45.63-.52.27-.07.53-.04.77.08.27.13.44.33.51.58.07.25.04.51-.09.76-.13.28-.29.59-.48.92-.19.33-.38.66-.57.97-.19.31-.36.58-.51.79-.17.25-.41.42-.7.49-.29.07-.57.02-.84-.15ZM31.04,71.46c-.83,0-1.47-.09-1.93-.26-.46-.17-.78-.46-.96-.87-.18-.41-.27-.96-.27-1.65v-7.14c0-.71.09-1.26.27-1.67.18-.41.5-.69.96-.86s1.1-.25,1.93-.25,1.47.08,1.92.25.77.45.95.86c.18.41.27.96.27,1.67v7.14c0,.69-.09,1.24-.27,1.65-.18.41-.5.7-.95.87-.45.17-1.09.26-1.92.26ZM29.88,62.4h2.3v-.7c0-.41-.07-.68-.2-.81-.13-.13-.45-.19-.94-.19s-.81.06-.95.19c-.14.13-.21.4-.21.81v.7ZM29.88,65.9h2.3v-1.7h-2.3v1.7ZM31.04,69.5c.49,0,.81-.06.94-.19.13-.13.2-.4.2-.81v-.82h-2.3v.82c0,.41.07.68.21.81.14.13.46.19.95.19ZM33.54,76.24c-.21-.16-.34-.36-.37-.61-.03-.25,0-.48.11-.71-.25-.25-.53-.56-.84-.92-.31-.36-.57-.67-.78-.94-.19-.24-.26-.5-.23-.77.03-.27.17-.49.41-.65.23-.16.47-.22.74-.19s.49.16.68.39c.15.17.32.37.52.59.2.22.41.43.62.63.51-1.07.85-2.25,1.04-3.56.19-1.31.28-2.87.28-4.7v-2.74c0-.81.11-1.46.33-1.93.22-.47.59-.82,1.1-1.03.51-.21,1.21-.32,2.09-.32h4.98c.31,0,.55.1.72.3.17.2.26.43.26.7s-.09.5-.26.69c-.17.19-.41.29-.72.29h-4.98c-.57,0-.96.09-1.15.27s-.29.52-.29,1.03v1.48h3.36c1.2,0,2.01.26,2.44.78.43.52.53,1.35.3,2.5-.36,1.77-.96,3.41-1.8,4.9.35.47.73.91,1.16,1.34s.89.83,1.4,1.22c.24.17.38.4.42.69.04.29-.03.56-.2.81-.17.27-.43.42-.77.46s-.64-.05-.89-.26c-.89-.72-1.67-1.54-2.34-2.46-.73.93-1.6,1.78-2.6,2.54-.28.21-.57.31-.86.29-.29-.02-.54-.15-.74-.39-.19-.23-.26-.49-.22-.79.04-.3.19-.54.44-.73.55-.4,1.05-.84,1.52-1.31.47-.47.89-.98,1.26-1.51-.93-1.81-1.53-3.85-1.78-6.12h-.1c-.01,1.64-.11,3.08-.29,4.33-.18,1.25-.46,2.37-.84,3.36s-.9,1.94-1.55,2.83c-.17.25-.42.4-.73.44s-.6-.03-.85-.22ZM40.88,69.58c.43-.95.76-1.92,1-2.92.09-.43.07-.73-.06-.9-.13-.17-.45-.26-.96-.26h-1.08c.19,1.51.55,2.87,1.1,4.08Z"/>
      <path class="cls-1" d="M51.22,65.12c-.29,0-.53-.1-.7-.3-.17-.2-.26-.43-.26-.68,0-.27.09-.5.26-.7.17-.2.41-.3.7-.3h4.88v-1.22h-6.9c-.29,0-.53-.1-.72-.3s-.28-.43-.28-.7.09-.5.28-.69.43-.29.72-.29h6.9v-.8c0-.39.12-.69.37-.92.25-.23.54-.34.87-.34s.64.11.89.34c.25.23.37.53.37.92v.8h7c.31,0,.55.1.72.29s.26.42.26.69-.09.5-.26.7-.41.3-.72.3h-7v1.22h4.96c.31,0,.55.1.73.3.18.2.27.43.27.7s-.09.48-.27.68c-.18.2-.42.3-.73.3h-12.34ZM49.9,76.52c-.37.07-.7.04-.98-.09-.28-.13-.47-.34-.56-.65-.09-.35-.07-.65.08-.92s.39-.43.72-.5c1.04-.21,1.89-.52,2.54-.91.65-.39,1.16-.91,1.51-1.56.35-.65.59-1.46.71-2.43.04-.33.19-.58.45-.75.26-.17.55-.23.87-.19.36.04.64.18.83.43.19.25.26.54.21.87-.24,1.92-.88,3.43-1.91,4.52-1.03,1.09-2.52,1.82-4.47,2.18ZM50.18,70.6c-.35,0-.64-.1-.89-.31-.25-.21-.37-.5-.37-.87v-.62c0-.99.25-1.69.76-2.1.51-.41,1.37-.62,2.58-.62h10.3c1.23,0,2.09.21,2.59.62.5.41.75,1.11.75,2.1v.62c0,.37-.12.66-.36.87-.24.21-.53.31-.88.31s-.64-.1-.89-.31c-.25-.21-.37-.5-.37-.87v-.32c0-.43-.09-.71-.26-.86-.17-.15-.49-.22-.96-.22h-9.48c-.47,0-.8.07-.99.21s-.29.43-.29.87v.32c0,.37-.12.66-.36.87-.24.21-.53.31-.88.31ZM62.08,76.24c-1.04,0-1.86-.09-2.46-.27-.6-.18-1.02-.49-1.27-.94-.25-.45-.37-1.07-.37-1.87v-3.4c0-.37.12-.67.36-.9.24-.23.53-.34.86-.34s.64.11.87.34.35.53.35.9v3.1c0,.45.12.75.35.9s.74.22,1.51.22c.45,0,.81-.04,1.07-.12s.47-.23.62-.45c.15-.22.29-.53.41-.93.11-.35.32-.57.65-.66.33-.09.66-.07.99.06.29.12.49.31.6.56s.12.55.04.88c-.19.77-.46,1.37-.81,1.79-.35.42-.83.71-1.44.88s-1.38.25-2.33.25Z"/>
      <path class="cls-1" d="M78.84,76.44c-.37,0-.67-.1-.9-.29s-.34-.47-.34-.83v-5.32h-2.76c-1.08,0-1.95-.11-2.6-.34-.65-.23-1.13-.63-1.42-1.22-.29-.59-.44-1.41-.44-2.46s.15-1.91.45-2.49.78-.98,1.43-1.2c.65-.22,1.51-.33,2.58-.33h2.76v-2.72c0-.36.11-.63.34-.82.23-.19.53-.28.9-.28s.69.09.9.28c.21.19.32.46.32.82v2.72h2.8c1.07,0,1.93.11,2.58.33.65.22,1.13.62,1.43,1.2s.45,1.41.45,2.49-.15,1.87-.46,2.46-.79.99-1.44,1.22c-.65.23-1.51.34-2.56.34h-2.8v5.32c0,.36-.11.64-.32.83-.21.19-.51.29-.9.29ZM74.84,67.8h2.76v-3.64h-2.76c-.51,0-.91.04-1.2.12s-.5.25-.62.5c-.12.25-.18.65-.18,1.2s.06.91.17,1.17.31.43.6.52c.29.09.7.13,1.23.13ZM80.06,67.8h2.8c.51,0,.9-.04,1.19-.13.29-.09.49-.26.62-.52s.19-.65.19-1.17c0-.55-.06-.95-.17-1.2-.11-.25-.32-.42-.61-.5-.29-.08-.7-.12-1.22-.12h-2.8v3.64Z"/>
      <path class="cls-1" d="M100.24,76.12c-.47,0-.87-.17-1.2-.5s-.5-.73-.5-1.2.17-.87.5-1.2.73-.5,1.2-.5.87.17,1.2.5c.33.33.5.73.5,1.2s-.17.87-.5,1.2c-.33.33-.73.5-1.2.5ZM100.24,71.24c-.27,0-.5-.09-.7-.28-.2-.19-.31-.42-.34-.7-.04-.51-.08-1.09-.11-1.74s-.07-1.32-.11-2.01-.07-1.34-.1-1.97c-.03-.63-.05-1.18-.06-1.66-.01-.48-.02-.83-.02-1.06v-1.98c0-.39.14-.71.41-.98s.62-.4,1.03-.4.78.13,1.05.4.41.59.41.98v1.98c0,.23,0,.58-.03,1.06-.02.48-.04,1.03-.07,1.66-.03.63-.06,1.28-.09,1.97s-.07,1.36-.11,2.01-.08,1.23-.12,1.74c-.01.28-.12.51-.32.7-.2.19-.44.28-.72.28Z"/>
    </g>
  </g>
</svg>