<?xml version="1.0" encoding="UTF-8"?>
<svg id="_レイヤー_2" data-name="レイヤー 2" xmlns="http://www.w3.org/2000/svg" viewBox="0 0 186 181.9">
  <defs>
    <style>
      .cls-1 {
        fill: #231815;
      }

      .cls-1, .cls-2 {
        stroke-width: 0px;
      }

      .cls-2 {
        fill: #06c755;
      }
    </style>
  </defs>
  <g id="design">
    <g>
      <path class="cls-2" d="M111.25,180.4c-2.65,0-5.5-.91-8.51-1.88-3.18-1.02-6.47-2.07-9.74-2.07s-6.56,1.05-9.74,2.07c-3.01.96-5.86,1.88-8.51,1.88-.76,0-1.45-.07-2.11-.22-3.37-.76-6.17-3.43-9.14-6.26-2.35-2.24-4.78-4.55-7.6-5.91-2.88-1.39-6.25-1.86-9.52-2.32-4.02-.56-7.81-1.1-10.43-3.19-2.64-2.11-4.01-5.7-5.45-9.5-1.16-3.07-2.37-6.25-4.35-8.73-1.97-2.47-4.79-4.33-7.51-6.14-3.4-2.25-6.61-4.38-8.1-7.46-1.45-3-1.12-6.8-.78-10.83.28-3.3.57-6.7-.14-9.85-.69-3.01-2.39-5.88-4.04-8.65-2.1-3.54-4.09-6.88-4.09-10.38s1.99-6.84,4.09-10.38c1.65-2.77,3.35-5.64,4.04-8.66.71-3.15.42-6.55.14-9.85-.34-4.03-.67-7.83.78-10.83,1.48-3.07,4.7-5.2,8.1-7.46,2.72-1.81,5.54-3.67,7.51-6.14,1.98-2.48,3.19-5.66,4.35-8.73,1.44-3.8,2.8-7.39,5.45-9.5,2.63-2.1,6.42-2.63,10.43-3.19,3.26-.46,6.63-.93,9.52-2.32,2.81-1.36,5.24-3.67,7.6-5.91,2.97-2.83,5.77-5.5,9.14-6.26.67-.15,1.36-.23,2.11-.23,2.65,0,5.5.91,8.51,1.88,3.18,1.02,6.47,2.07,9.74,2.07s6.56-1.05,9.74-2.07c3.01-.97,5.86-1.88,8.51-1.88.76,0,1.45.07,2.11.23,3.37.77,6.17,3.44,9.14,6.26,2.35,2.24,4.78,4.55,7.6,5.91,2.88,1.39,6.25,1.86,9.52,2.32,4.02.56,7.81,1.1,10.43,3.19,2.64,2.11,4.01,5.7,5.45,9.5,1.16,3.07,2.37,6.25,4.35,8.73,1.97,2.47,4.79,4.33,7.51,6.14,3.4,2.25,6.61,4.38,8.1,7.46,1.45,3,1.12,6.8.78,10.83-.28,3.3-.57,6.7.14,9.85.69,3.01,2.39,5.88,4.04,8.65,2.1,3.54,4.09,6.88,4.09,10.38s-1.99,6.84-4.09,10.38c-1.65,2.77-3.35,5.64-4.04,8.66-.71,3.15-.42,6.55-.14,9.85.34,4.03.67,7.83-.78,10.83-1.48,3.07-4.7,5.2-8.1,7.46-2.72,1.81-5.54,3.67-7.51,6.14-1.98,2.48-3.19,5.66-4.35,8.73-1.44,3.8-2.8,7.39-5.45,9.5-2.63,2.1-6.42,2.63-10.43,3.19-3.26.46-6.63.93-9.52,2.32-2.81,1.36-5.24,3.67-7.6,5.91-2.97,2.83-5.77,5.5-9.14,6.26-.67.15-1.36.22-2.11.22Z"/>
      <path class="cls-1" d="M74.75,3c2.42,0,5.16.88,8.05,1.81,3.29,1.05,6.69,2.14,10.2,2.14s6.91-1.09,10.2-2.14c2.9-.93,5.64-1.81,8.05-1.81.64,0,1.22.06,1.78.19,2.96.67,5.62,3.21,8.44,5.89,2.44,2.32,4.95,4.72,7.98,6.18,3.09,1.49,6.58,1.98,9.96,2.46,3.81.53,7.4,1.04,9.71,2.88,2.32,1.86,3.61,5.26,4.98,8.86,1.21,3.18,2.45,6.47,4.58,9.13,2.12,2.65,5.03,4.58,7.85,6.45,3.22,2.14,6.27,4.16,7.57,6.86,1.27,2.63.96,6.23.63,10.05-.29,3.41-.59,6.94.17,10.31.74,3.24,2.5,6.21,4.21,9.09,1.99,3.36,3.88,6.53,3.88,9.61s-1.88,6.26-3.88,9.61c-1.71,2.87-3.47,5.85-4.21,9.09-.77,3.37-.46,6.9-.17,10.31.33,3.81.64,7.42-.63,10.05-1.3,2.7-4.35,4.72-7.57,6.86-2.82,1.87-5.74,3.8-7.85,6.45-2.13,2.67-3.38,5.96-4.58,9.13-1.37,3.6-2.66,7.01-4.98,8.86-2.31,1.84-5.9,2.35-9.71,2.88-3.38.47-6.87.96-9.96,2.45-3.02,1.46-5.54,3.86-7.98,6.17-2.82,2.68-5.47,5.21-8.44,5.89-.55.13-1.14.19-1.78.19-2.42,0-5.16-.88-8.05-1.81-3.29-1.05-6.69-2.14-10.2-2.14s-6.91,1.09-10.2,2.14c-2.9.93-5.64,1.81-8.05,1.81-.64,0-1.23-.06-1.78-.19-2.96-.67-5.62-3.21-8.44-5.89-2.44-2.32-4.95-4.72-7.98-6.18-3.09-1.49-6.58-1.98-9.96-2.46-3.81-.53-7.4-1.04-9.71-2.88-2.32-1.86-3.61-5.26-4.98-8.86-1.21-3.18-2.45-6.47-4.58-9.13-2.12-2.65-5.03-4.58-7.85-6.45-3.22-2.14-6.27-4.16-7.57-6.86-1.27-2.63-.96-6.23-.63-10.05.29-3.41.59-6.94-.17-10.31-.74-3.24-2.5-6.21-4.21-9.09-1.99-3.36-3.88-6.53-3.88-9.61s1.88-6.26,3.88-9.61c1.71-2.87,3.47-5.85,4.21-9.09.77-3.37.46-6.9.17-10.31-.33-3.81-.64-7.42.63-10.05,1.3-2.7,4.35-4.72,7.57-6.86,2.82-1.87,5.74-3.8,7.85-6.45,2.13-2.67,3.38-5.96,4.58-9.13,1.37-3.6,2.66-7.01,4.98-8.86,2.31-1.84,5.9-2.35,9.71-2.88,3.38-.47,6.87-.96,9.96-2.45,3.02-1.46,5.54-3.86,7.98-6.17,2.82-2.68,5.47-5.21,8.44-5.89.55-.13,1.14-.19,1.78-.19M111.25,0c-5.82,0-12.22,3.95-18.25,3.95s-12.43-3.95-18.25-3.95c-.83,0-1.64.08-2.45.26-6.65,1.51-11.06,9.39-17.06,12.28-6.1,2.94-14.99,1.51-20.23,5.69-5.27,4.2-5.83,13.2-10.04,18.47-4.18,5.24-12.84,7.78-15.78,13.88-2.9,6,.48,14.34-1.03,20.99-1.46,6.44-8.16,12.48-8.16,19.37s6.7,12.93,8.16,19.37c1.51,6.65-1.87,14.99,1.03,20.99,2.94,6.1,11.6,8.64,15.78,13.88,4.2,5.27,4.77,14.26,10.04,18.47,5.24,4.18,14.13,2.75,20.23,5.69,6,2.9,10.4,10.77,17.06,12.28.8.18,1.62.26,2.45.26,5.82,0,12.22-3.95,18.25-3.95s12.43,3.95,18.25,3.95c.83,0,1.64-.08,2.45-.26,6.65-1.51,11.06-9.39,17.06-12.28,6.1-2.94,14.99-1.51,20.23-5.69,5.27-4.2,5.83-13.2,10.04-18.47,4.18-5.24,12.84-7.78,15.78-13.88,2.9-6-.48-14.34,1.03-20.99,1.46-6.44,8.16-12.48,8.16-19.37s-6.7-12.93-8.16-19.37c-1.51-6.65,1.87-14.99-1.03-20.99-2.94-6.1-11.6-8.64-15.78-13.88-4.2-5.27-4.77-14.26-10.04-18.47-5.24-4.18-14.13-2.75-20.23-5.69-6-2.9-10.4-10.77-17.06-12.28-.8-.18-1.62-.26-2.45-.26h0Z"/>
    </g>
  </g>
</svg>