<?xml version="1.0" encoding="UTF-8"?>
<svg id="_レイヤー_2" data-name="レイヤー 2" xmlns="http://www.w3.org/2000/svg" viewBox="0 0 31.05 48.01">
  <defs>
    <style>
      .cls-1 {
        fill: #231815;
        stroke-width: 0px;
      }
    </style>
  </defs>
  <g id="design">
    <g>
      <path class="cls-1" d="M24.22,4.48c-3.81,0-6.95-.02-10.08,0-3.3.03-6.59.14-9.89.12-1.01,0-2.06-.21-3.01-.55C.28,3.7-.29,2.77.16,1.81.45,1.19,1.3.81,1.92.37c.14-.1.4-.03.61,0C9.33,1.33,16.1.04,22.89.04c1.24,0,2.49-.11,3.71.04,2.87.36,3.99,2.88,2.23,5.19-.98,1.29-2.27,2.41-3.61,3.34-3.29,2.3-6.68,4.46-10.05,6.64-2.31,1.49-4.66,2.92-7.57,4.74,1.51.09,2.39.17,3.27.18,4.13.01,8.25,0,12.38.01.82,0,1.66,0,2.46.16,1.36.27,2.16,1.24,1.98,2.32-.22,1.25-1.21,1.57-2.27,1.72-.4.06-.82-.02-1.24-.02-5.57,0-11.14.03-16.71-.03-1.43-.01-2.9-.13-4.28-.48-2.26-.56-2.92-2.37-1.51-4.23.79-1.04,1.86-1.95,2.97-2.65,4.69-2.99,9.44-5.86,14.15-8.81,1.71-1.07,3.35-2.25,5.44-3.67Z"/>
      <path class="cls-1" d="M24.93,33.65c-3.34.13-5.95-.04-8.54.78-.73.23-1.62.37-2.33.16-1.57-.46-2.46-1.78-2.19-2.95.36-1.56,1.62-1.64,2.91-1.69,3.6-.14,7.21-.32,10.81-.45.82-.03,1.65,0,2.47.1,2.97.38,3.93,2.5,1.94,4.74-1.9,2.14-4.15,3.98-6.31,5.89-1.06.94-2.24,1.73-3.56,2.75,2.03,1.43,4.02.83,5.88.95.5.03,1.01-.25,1.52-.25,1.22,0,1.94.75,2.13,1.86.2,1.17-.41,2.09-1.55,2.31-1.1.21-2.25.19-3.38.14-2.57-.1-5.16-.17-7.71-.44-2.93-.32-3.89-2.4-2.18-4.82.93-1.31,2.26-2.37,3.48-3.45,1.97-1.75,4.45-2.9,6.62-5.62Z"/>
    </g>
  </g>
</svg>