<?xml version="1.0" encoding="UTF-8"?>
<svg id="_レイヤー_2" data-name="レイヤー 2" xmlns="http://www.w3.org/2000/svg" xmlns:xlink="http://www.w3.org/1999/xlink" viewBox="0 0 420 420">
  <defs>
    <style>
      .cls-1 {
        fill: #231815;
      }

      .cls-1, .cls-2, .cls-3, .cls-4, .cls-5, .cls-6, .cls-7, .cls-8, .cls-9, .cls-10, .cls-11, .cls-12, .cls-13, .cls-14, .cls-15 {
        stroke-width: 0px;
      }

      .cls-2 {
        fill: #e03817;
      }

      .cls-3 {
        fill: #030303;
      }

      .cls-4 {
        fill: #fdfdfd;
      }

      .cls-16 {
        clip-path: url(#clippath);
      }

      .cls-5 {
        fill: none;
      }

      .cls-6 {
        fill: #fefcfd;
      }

      .cls-7 {
        fill: #faa2ad;
      }

      .cls-8 {
        fill: #f63d32;
      }

      .cls-9 {
        fill: #b031f1;
      }

      .cls-10 {
        fill: #f43c31;
      }

      .cls-11 {
        fill: #f83d32;
      }

      .cls-12 {
        fill: #f8f632;
      }

      .cls-13 {
        fill: #f8749b;
      }

      .cls-14 {
        fill: #ec3b31;
      }

      .cls-15 {
        fill: #fcfcfc;
      }
    </style>
    <clipPath id="clippath">
      <rect class="cls-5" width="420" height="420"/>
    </clipPath>
  </defs>
  <g id="design">
    <g class="cls-16">
      <g>
        <path class="cls-1" d="M487.07,1.09c-.25,8.15.5,16.12,2.45,24.12,1.07,4.39.07,9.3-.1,13.97-.05,1.44-.64,2.86-.68,4.3-.6,23.54-1.28,47.07-1.67,70.61-.24,14.42-.09,28.86.04,43.28.05,5.4.12,10.76,1.25,16.16,1.66,7.89.95,15.79-.95,23.75-1.36,5.68-1.59,11.7-1.71,17.58-.23,10.94.05,21.89-.02,32.84-.04,5.9-.26,11.74-1.16,17.66-.9,5.96-1.29,12.2.69,18.38,1.09,3.42.71,7.4.55,11.1-.41,9.88-.71,19.71,2.57,29.28.53,1.56.15,3.46.11,5.2-.49,19.06-.66,38.14-1.68,57.17-.34,6.37-1.08,12.75-.85,19.13.15,4.12.37,8.44,1.67,12.29,4.04,12.01-2.88,18.34-11.99,21.36-9.45,3.13-19.39,2.39-29.28.81-8.14-1.3-16.17-2.31-24.75-1.19-9.84,1.29-20.17,1.62-30.09-1.69-11.87-3.97-24.44-5.33-36.5-3.16-12.81,2.3-25.51,2.05-38.29,2.63-5.58.25-11.12,1.48-16.68,2.25-1.7.24-3.41.43-5.12.67-16.74,2.36-33.47,1.55-50.19-.15-4.38-.45-8.88-1.66-13.12-1.08-10.36,1.42-20.52-1.19-30.81-.66-3.6.18-7.32-.6-10.89-1.4-8.06-1.81-16-1.56-24.09-.08-4.11.75-8.44.34-12.67.39-9.13.1-18.2.2-27.36.94-14.83,1.2-29.89,1.16-44.74.05-8.65-.64-17.33-1.65-25.85-.74-22.32,2.37-44.62.62-66.93.84-6.62.07-13.24-1.07-19.87-1.23-3.12-.08-6.29.7-9.39,1.34-5.68,1.17-9.32-.67-10.79-6.27-1.72-6.56-3.38-13.62-2.7-20.22.84-8.02-.4-16.25,2.22-24.11.45-1.35.16-2.96.16-4.46.02-4.23-.09-8.46.04-12.69.49-15.82,1.21-31.64,1.56-47.47.25-11.44-.71-22.95.32-34.31.89-9.89.91-19.72,1.03-29.59.18-14.8-.94-29.52-2.76-44.2-.09-.74-.05-1.49-.08-2.24-.54-15.08-1.41-30.15-1.56-45.24-.23-23.38-.99-46.83.45-70.13,1.02-16.6.58-33.16,1.37-49.72.42-8.78,1.86-17.52,2.37-26.3.25-4.25-.17-8.55-.06-12.85.11-4.33-.78-8.75-1.71-13.03-2.14-9.85-.11-13.47,9.61-16.15.94-.26,1.9-.54,2.86-.58,11.6-.49,23.21-1.4,34.8-1.2,6.75.12,13.46,2.07,20.2,3.16,2.16.35,4.35.78,6.53.79,16.43.15,32.85.36,49.28.19,5.11-.05,10.28-.87,15.31-1.91,9.83-2.04,19.62-1.35,29.45-.29.71.08,1.41.4,2.12.44,8.86.51,17.72,1.09,26.59,1.46,8.37.35,16.74.69,25.1,1.23,12.51.81,25.17-.59,37.76-1.18,1.9-.09,3.75-1.02,5.66-1.32,13.41-2.08,26.87-3.78,40.47-2.78,8.04.59,16.03,1.94,24.07,2.58,10.59.83,21.2,1.72,31.81,1.84,22.4.25,44.8-.12,67.2.06,5.09.04,10.23,1,15.24,2.05,4.2.88,8.18.24,12.34.02,10.21-.55,20.36-3.69,30.69-.99,1.63.43,3.47.07,5.21.09,11.62.14,23.23.09,34.82-1.16,2.07-.22,4.32.53,6.38,1.19,3.49,1.13,4.97,3.67,4.81,7.39-.17,3.72-.04,7.46-.04,11.19ZM38.8,422.97c-.16-.42-.2-1.07-.49-1.22-6.32-3.24-10.4-8.92-14.95-14-1.85-2.07-3.13-5.07-3.62-7.84-1.28-7.18-5.52-12.73-9.25-18.6,1.32-.99,2.55-2.64,3.97-2.83,4.05-.54-.01-2.29.66-3.22,7.67,1.69,12.04,7.02,14.82,13.83,1.35,3.3,2.05,6.87,3.09,10.3,1.23,4.07,3.19,8.21,6.92,9.93,7.14,3.3,14.78,5.41,22.38,4.69,1.46-3.43-.97-6.69,2.04-8.92,0,2.22-.3,4.49.09,6.64.64,3.6-1.89,3.99-4.34,4.34,1.64,1.25,3.25,2.01,4.18,3.27,2.49,3.37,5.8,4.27,9.65,3.69,3.48-.52,6.59.89,9.86,1.52,0,.5.08,1.01-.01,1.49-.72,3.5,1.17,6.09,3.92,7.14,2.25.86,4.87.59,7.55-1.15,5.8-3.76,12.12-6.7,19.49-6.04,3.45.31,6.95.15,10.42,0,.67-.03,1.31-.99,1.96-1.53,2.37-.49,4.72-1.34,7.1-1.41,6.21-.17,12.42.05,18.63.04,4.72,0,9.54.46,14.13-.33,7.84-1.36,15.5-1.65,23.29.1,3.55.8,7.28,1.68,10.85,1.41,10.77-.82,21.44,3.02,32.22.48,1.41-.33,3-.24,4.46-.03,5.77.81,11.52,2.42,17.29,2.51,17.15.28,34.44,1.66,51.28-3.69-.46-2.82.92-5.9-1.24-8.58-.21-.26.88-1.56,1.37-2.37,2.45.21,4.84.33,4.45-3.29,1.76,1.7,3.62,3.31,5.25,5.13,3.67,4.12,8.36,4.78,13.34,3.78,5.24-1.05,10.2-2.93,13.79-7.25,3.23.7,3.56.47,5.62-2.77.45-.71,1.48-1.05,2.25-1.56.96,2.4,2.57,1.64,4.17.85,2.56-1.27,4.99-2.97,7.69-3.74,4.56-1.3,8.76-3.08,11.87-6.69,6.19-7.17,13.84-12.15,22.54-15.68,1.26.97,2.83,1.73,3.71,2.97,1.87,2.63,3.34.65,4.97-.08,0,.96,0,1.92,0,2.88-2.55,3.19-5.12,6.33-9.29,7.54-.43.13-.74.65-1.13.95-6.06,4.62-12.01,9.39-18.23,13.79-3.34,2.36-6.96,5.25-10.76,5.81-5.42.8-10.14,3.49-15.48,4.91h29.57c1.03.45,2.03,1.1,3.11,1.32,3.8.76,7.63,1.38,11.45,2.04,2.38.42,4.76,1.11,7.15,1.18,16.2.5,32.46-1.2,48.59,1.58,5.52,1.99,13.34,2.03,17.58-.11.86-.43,1.97-1.61,1.92-2.39-.43-7.55.27-15.06-1.09-22.69-1.35-7.59-1.63-15.57.45-23.4,1.24-4.65,1.49-9.56,2.19-14.35.48-2.11,1.38-4.22,1.36-6.33-.15-12.76,1.4-25.53-1.12-38.27-1.22-6.19-1.15-12.63-1.58-18.97-.1-1.53-.74-2.35-2.22-2.09-6.19,1.09-12.46,1.9-18.52,3.51-7.52,1.99-15.19,2.85-22.82,4.09,1.57-3.11,4.46-2.94,7.35-3.18,4.29-.35,8.98-.15,12.74-1.85,6.81-3.08,14.12-2.2,20.99-4.11.77-.21,1.96-.8,2.03-1.34.25-1.9-1.37-1.72-2.5-1.57-3.07.39-6.11,1.25-9.19,1.39-4.83.22-9.35,1.87-14.03,2.58-6.36.96-12.39,3.73-18.96,3.4,2.11-.95,4.13-2.34,6.33-2.76,13.08-2.48,26.21-4.74,39.98-7.19,0-.33.24-1.35-.04-2.18-2.35-6.98-2.08-14.26-1.23-21.25,1.19-9.85,1.33-19.65,1.3-29.51-.02-9.2,0-18.4.05-27.59.01-1.96.15-3.94.41-5.88.82-6.01,2.28-11.99,2.45-18.01.18-6.33-.87-12.68-1.36-19.03-.45-5.86.87-11.84-1.31-17.6-.33-.87-.42-2.19.01-2.93,2.03-3.49,1.17-7.28,1.2-10.91.13-15.16.05-30.33.04-45.49-.52-2.63-1.05-5.25-1.57-7.88,1.42-2.93,1.81-6,1.86-9.26.13-9.11-.19-18.2.89-27.32.87-7.35,1.02-14.97.07-22.29-.66-5.12-1.19-10.22-1.49-15.36-.23-4.05-.75-8.08-1.15-12.17-19.13,0-37.51-.04-55.89.05-2.43.01-4.84.72-7.27.97-6.61.68-13.22,1.84-19.78-.45-1.36-.47-2.91-.49-4.38-.54-13.08-.43-26.16-.82-39.24-1.22-2.58.44-5.16.88-7.73,1.32-.97-.49-1.97-1.45-2.92-1.41-6.85.27-13.69.31-20.57.95-8.95.83-18.2-.05-27.17-1.32-9.2-1.3-18.32-2.82-27.64-2.77-1.7,0-3.4-.35-5.11-.44-6.13-.31-12.51-1.77-18.34-.58-8.82,1.79-17.77,2.47-26.61,3.81-9.66,1.46-19.62.97-29.44,1.47-11.99.61-24.08-.75-36.13-1.21-2.98-.11-5.97.13-8.94-.06-2.4-.16-4.77-1-7.16-1.04-4.64-.08-9.43-1.69-13.88,1.01q-3.13-1.07-3.38,1.82c-2.96-3.86-6.9-5.23-11.63-4.53-4.57.67-9.2,1.07-13.68,2.12-6.75,1.58-13.61,2.94-20.39,1.79-5.43-.93-10.76-.77-16.14-.87-7.45-.14-14.9-.07-22.35-.1-6.4-.03-12.79-.18-19.06-1.74-2.58-.64-5.23-1.42-7.85-1.44-10.43-.07-20.86.07-31.28.26-4.81.09-6,1.7-5.02,6.53,2.31,11.29.43,22.68.95,34.01-2.58,6.45-.99,13.21-1.44,19.82-.17,2.47.96,3.96,3.27,5.15,6.74,3.47,11.22,10.1,18.25,13.26,1.06.48,1.84,1.65,2.65,2.58,2.73,3.14,5.9,6.03,8.01,9.55,3.39,5.65,8.7,9.62,11.96,15.55,3.18,5.8,7.64,11.32,14,14.64,2.12,1.1,4.12,2.69,5.74,4.46,4.3,4.69,8.35,9.6,12.5,14.42-1.52,1.53-3.04,3.06-4.56,4.6-1.02-.92-2.23-1.7-3.01-2.79-4.98-6.94-10.13-13.66-17.54-18.34-8-5.05-14.19-12.04-19.48-19.75-3.25-4.74-6.05-9.72-9.73-14.25-5.58-6.88-13.39-10.71-19.9-16.27-.27-.23-.93-.03-2.09-.03,0,3.17.02,6.33,0,9.49-.02,1.97.28,4.07-.26,5.9-1.94,6.64-1.89,13.55-2.31,20.27-.57,9.02-.54,18.12.78,27.26,1.04,7.16.09,14.62-.75,22.01-1.07,9.45-.62,19.1.79,28.73,1.18,8.03.08,16.36.35,24.55.27,8.09,1.05,16.16,1.52,24.24.14,2.47,0,4.96-.02,7.45-.02,11.82-.05,23.65-.03,35.47,0,1.3-.83,3.09,1.47,3.48.5,1.98,1,3.97,1.49,5.95-.91.24-2.51.32-2.6.74-.78,3.48-1.74,7.02-1.8,10.55-.2,12.9.11,25.81-.14,38.72-.25,12.99-.85,25.98-1.47,38.96-.41,8.52,1.1,17.09-1.3,25.61-1.04,3.67.18,7.94-.64,11.72-.82,3.81.25,7.26.51,10.85.37,5.13.44,5.17,5.51,6.58,1.78.5,3.61.98,5.44,1.07,10.51.57,21.01,1.26,31.53,1.46,13.16.25,26.32.02,39.48.08,4.61.02,9.2.18,13.39-2.2q-7.7-2.52-14.94-.88Z"/>
        <path class="cls-7" d="M306.52,412.59c-.49.82-1.58,2.12-1.37,2.37,2.17,2.68.78,5.76,1.24,8.58-16.85,5.35-34.13,3.97-51.28,3.69-5.77-.09-11.52-1.7-17.29-2.51-1.46-.21-3.04-.3-4.46.03-10.78,2.53-21.45-1.3-32.22-.48-3.56.27-7.29-.61-10.85-1.41-7.79-1.75-15.45-1.46-23.29-.1-4.59.79-9.41.32-14.13.33-6.21.01-12.43-.21-18.63-.04-2.38.06-4.73.92-7.1,1.41-5.46-.04-10.93-.08-16.29-.12-.15-2.93-.26-5.1-.37-7.27-.59-2.64,2.66-2.52,3.13-4.29,1.92-7.17,3.01-14.5-.19-21.46-1.59-3.46-1.47-6.53-.67-9.9.33-1.4.81-2.82.82-4.24.05-10.92.34-21.86-.18-32.76-.23-4.79-.32-10.47-6.52-12.56-.42-.14-.72-.66-1.05-1.04-1.7-2-3.38-2.17-5.81-.84-10.17,5.55-19.73,11.79-26.06,21.82-6.39,10.12-3.78,23.02,7.01,26.6,1.83.61,3.39,2.31,5.21,2.58,5.07.74,8.9,3.82,12.9,6.44,5.86,3.84,9.32,8.97,8.82,16.64-.36,5.5-2.4,8.74-7.63,10.08-3.36-.28-6.52.14-9.04,2.69-3.23.07-6.69.93-9.65.07-10.21-2.94-11.41-2.15-8.16-12.85.07-.23-.05-.53.04-.74,1.71-3.78,4.12-4.5,8.25-2.84,1.98.8,4.16,1.59,6.23,1.55,2.8-.06,3.99-2.95,2-5.12-2.51-2.75-4.68-6.08-8.97-6.71-3.61-.53-6.9-1.8-9.89-4.23-4.71-3.82-9.87-7.09-14.76-10.7-.95-.7-2.2-1.89-2.2-2.84.01-5.35-.91-10.65,1.21-16.04,3.83-9.77,12.33-14.94,19.56-21.4,1.27-1.13,2.76-2.66,4.24-2.78,2.89-.23,4.44-2.08,6.1-3.81,4.65-4.84,10.18-8.32,16.13-11.28,1.67-.83,3.94-1.61,4.62-3.04,1.11-2.31,1.22-5.12,1.55-7.75.11-.9-.53-1.86-.59-2.82-.19-2.67-.48-5.37-.34-8.03.17-3.16.84-6.29,1.13-9.44.2-2.22-.47-4.68.25-6.67,2.93-8.14.63-15.87-1.19-23.69-.71-3.06-1.47-6.1-2.05-9.19-.67-3.56-1.1-7.17-1.75-10.74-.26-1.41-1.07-2.73-1.25-4.15-.43-3.42,2.99-6.33,6.39-5.47,1.16.29,2.37.76,3.31,1.47,1.97,1.49,4.17,2.01,6.21.88,3.19-1.75,6.14-3.94,9.14-6.01.29-.2.34-.89.35-1.36.28-6.88-.05-13.79-3.01-20.06-3.81-8.08-8.04-15.94-12.9-23.51-4.32-6.74-7.36-14.25-6.61-22.76.39-4.44-.01-8.95.12-13.42.05-1.67.21-3.54.99-4.94,2.84-5.09,5.85-10.09,9.04-14.96,1.19-1.82,2.88-3.18,5.56-3.11,6.66.2,13.33.07,20.43.07-3.28,5.72-6.75,10.56-8.32,16.36-2.12,7.83-4.67,15.56-.86,23.69,2.1,4.49,4.81,8.41,8.12,12.08,4.29,4.76,10.28,8.22,11.97,15.05.1.4.25.78.38,1.19-3.08,2.01-5.94,4.42-9.22,5.84-2.29.98-2.82,2.9-3.4,4.45-2.08,5.51,3.32,16.44,7.79,18.36,4.02,1.73,8.11,2.35,12.13,1.01,2.98-1,5.55-1.02,8.52-.15,4.01,1.18,8.33,1.89,12.12-.48,4.15-2.6,7.64-1.9,11.52.56,4.46,2.83,9.16,3.12,13.64-.33.75-.58,1.91-.67,2.57-1.31,3.03-2.91,5.77-2.8,9.1-.16,4.3,3.42,9.09,3.51,13.45-.07,3.3-2.71,6.61-2.47,10.36-1.21,3.75,1.27,7.54,1.61,11.36-.42,3.31-1.76,7-1.52,10.27.07,3.19,1.55,5.86.84,9.12.11,3.76-.84,6.09-3.41,8.6-5.41,5.41-4.31,5.29-13.15.79-18.55-3.04-3.64-6.96-5.18-12.49-5.27,2.24-3.85,4.03-6.95,5.84-10.04,3.77-6.46,8.84-12.16,10.89-19.63,1.1-4.02,1.42-8.16,2.33-12.1,1.2-5.19,1.6-10.01.25-15.12-.24-.92.21-2.74.88-3.07,3.22-1.58,6.14-3.74,10.02-4,8.53-.56,15.75,2.01,22.11,7.67,2.59,2.31,3.94,4.68,3.86,8.3-.23,9.7-.19,19.4-.01,29.1.08,4.54-1.46,8.15-4.75,11.13-5.12,4.64-10.27,9.25-15.34,13.95-2.18,2.03-4.43,4.06-6.22,6.41-3.54,4.65-6.8,9.5-10.11,14.32-.96,1.4-1.95,2.87-2.44,4.46-1.08,3.52,3.64,10.11,6.58,8.89,4.45-1.84,8.84-.28,13.15-1.07,6.28-1.14,10.91,3.33,16.47,4.59.45.1.86,1.1.98,1.74.17.97.04,1.98.08,2.98.49,12.02-4.51,23.2-5.35,35.08-.41,5.82-3.29,11.43-4.67,17.22-.77,3.24-1.92,7.05,1.36,9.61,5.11,3.99,10.47,7.66,15.81,11.35.93.64,2.26.72,3.41,1.04,3.68,1.03,7.37,2.05,11.05,3.09,6.34,1.8,11.28,5.84,16.07,10.09,5.31,4.71,8.05,10.57,8.76,17.72.32,3.24-2.94,3.96-3.11,6.37-.81,11.3-10.23,16.34-16.89,23.38-.29.3-.89.29-1.33.47-3.74,1.59-7.72,2.81-11.16,4.9-4.56,2.77-7.78,7.07-10.38,11.72-.55.99-.49,2.35-.61,3.55-.15,1.47.53,2.43,2.07,2.32,1.52-.11,3.09.76,4.27-1.65.92-1.88,3.77-3.86,5.99-2.63,3.68,2.03,6.69,5.32,6.99,9.78.35,5.11.68,10.35-1.75,15.2-3.59,4.33-8.54,6.2-13.79,7.25-4.97,1-9.66.34-13.34-3.78-1.62-1.82-3.49-3.42-5.25-5.13-1.21-2.31-2.49-4.58-3.58-6.94-.48-1.04-.98-2.31-.81-3.37,1.18-7.37,2.29-14.76,4.36-21.95,2.02-7,4.98-13.05,12.69-15.6,3.37-1.11,6.56-3.03,9.51-5.06,3.74-2.57,7.42-5.35,10.65-8.52,7.28-7.16-.32-23.85-9.12-26.38-7.38-2.12-15.02-.97-22.43-2.8-4.3-1.07-5.58.32-6.75,4.75-.54,2.04-.32,4.32-.18,6.47.13,2.16.75,4.29.88,6.46.62,10.09-.65,20.11-1.21,30.16-.37,6.64-1.14,13-4.5,18.89-.81,1.42-1.32,3.13-1.48,4.76-1.02,9.92-.35,12.08,5.77,20.11.59.77,1.16,1.55,1.74,2.32ZM212.66,297.73c3.34.26,5.86-.85,8.16-2.95,3.87-3.52,7.5-7.1,6.35-12.9-1.7-8.55-4.95-15.99-13.54-20.16-7.29-3.54-13.83-1.71-17.78,2.31-8.67,8.83-9.55,24.55,4.77,32.15,1.27.68,3.25,1.2,3.57,2.21.43,1.36-.52,3.12-.7,4.73-.11.95.04,1.95.21,2.9.9,4.93.64,6.39-3.56,7.91-5.4,1.95-11.09,3.15-16.7,4.5-1.09.26-2.57.07-3.55-.49-5.14-2.9-12.08-4.22-11.14-12.69.1-.92-2.19-2.9-3.43-2.94-1.24-.05-3.29,1.46-3.71,2.71-1.94,5.79.61,11.69,6.25,14.97,2.92,1.7,6.21,2.82,9.01,4.68,3.03,2.02,6.25,1.71,9.25,1.02,7.03-1.63,14.18-3,20.77-6.05,1.79-.83,2.98-.33,4.65-.17,5.36.54,9.4,3.85,14.11,5.68,10.17,3.96,20.04,3.58,29.42-2.11,1.94-1.18,3.78-3.21,4.66-5.28,2.21-5.18-.8-14.94-5.23-18.95-1.35-1.22-2.38-1.34-3.8-.1-2.58,2.26-2.71,2.82-.8,5.96.75,1.24,1.58,2.47,2.11,3.81,2.09,5.25.72,8.25-4.48,10-8.32,2.79-16.29,2.48-23.73-2.68-.99-.69-2.06-1.28-3.17-1.78-6.72-3.02-9.52-8.09-7.98-16.31ZM188.39,258.79c-.01-7.58-3.12-10.44-10.6-10.43-7.07.02-10.55,3.7-10.41,11.03.09,4.7,6.85,11.47,11.8,11.05,2.47-.21,5.2-1.67,7.08-3.38,2.48-2.25,2.7-5.64,2.13-8.28ZM238.81,267.8c4.18,0,7.42-1.08,9.42-4.77,2.13-3.94,1.67-8.3-1.49-12.1-2.86-3.45-7.94-4.98-11.81-3.55-3.91,1.45-7.26,4.17-7.34,8.19-.06,3.05,1.91,6.41,3.72,9.15,1.66,2.52,4.71,3.29,7.51,3.09ZM242.07,227.5c-2.92,0-5.19-.23-7.37.1-1.03.16-2.39,1.25-2.67,2.19-.25.84.63,2.16,1.26,3.11,1.23,1.84,3.09,2.2,5.22,2.07,2.23-.14,4.78-.71,6.64.13,5.04,2.26,9.85,5.07,14.62,7.88,2.31,1.36,4.29,3.26,6.49,4.81,1.67,1.18,3.22.77,4.61-.67,1.42-1.47,1.77-3.17.27-4.56-2.32-2.16-4.76-4.25-7.41-5.97-3.02-1.96-6.48-3.26-9.46-5.27-3.96-2.66-7.88-4.94-12.21-3.81ZM179.32,229c-1.49,0-3.09-.36-4.45.06-8.03,2.51-14.52,7.66-21.03,12.71-1.55,1.2-2.19,3.18-.73,4.49,1.13,1,2.72,2.72,4.96.8,1.99-1.7,4.56-2.7,6.81-4.11,4.73-2.97,9.38-6.01,15.17-6.64,1.32-.15,2.74-1.01,3.74-1.94.76-.72,1.47-2.25,1.2-3.1-.3-.94-1.65-1.75-2.71-2.19-.85-.35-1.96-.07-2.96-.08Z"/>
        <path class="cls-6" d="M345.65-5.25c13.08.4,26.16.79,39.24,1.22,1.47.05,3.02.07,4.38.54,6.57,2.29,13.18,1.13,19.78.45,2.43-.25,4.85-.96,7.27-.97,18.38-.08,36.75-.05,55.89-.05.4,4.09.92,8.12,1.15,12.17.3,5.15.82,10.24,1.49,15.36.95,7.32.79,14.94-.07,22.29-1.08,9.13-.76,18.22-.89,27.32-.05,3.26-.43,6.33-1.86,9.26-1.79,1.2-4.49,2.01-5.2,3.67-2.07,4.89-6.95,5.73-10.54,8.36-6.16,4.51-13.71,7.05-18.68,13.23-5.15,2.69-8.75,7.16-12.76,11.14-4.23,4.19-9.18,7.98-12.27,12.9-5.51,8.77-12.99,15.14-21.13,21.13-10.05,7.4-20.14,14.78-28.92,23.75-2.09,2.13-4.25,4.18-6.45,6.2-10.91,9.99-21.84,19.95-32.75,29.93-1.46,1.34-2.68,3.39-4.37,3.91-1.61.5-3.83-.28-5.57-1-4.5-1.87-9.16-1.24-13.78-1.38-.8-.02-1.58-.51-2.74-.92,4.51-6.84,8.38-13.32,14.39-18.29,5.32-4.4,10.16-9.39,15.3-14.02,4.47-4.03,6.52-9.2,6.61-14.99.17-10.68-.05-21.37-.08-32.06-.01-4.46-1.76-8.13-5.16-10.91-3.22-2.64-6.41-5.44-9.99-7.51-7.71-4.45-15.92-6.17-24.63-2.91-2.97,1.11-5.93,2.25-8.91,3.32-.96.34-2,.5-3.84.94,2.74-6.12,4.83-11.4,7.41-16.43,4.9-9.56,10.03-18.99,15.14-28.44,3.04-5.63,4.67-11.84,8.19-17.34,5.39-8.44,9.85-17.47,14.68-26.27,2.53-4.61,5.01-9.26,7.51-13.89.93-1.08,2.3-2.02,2.71-3.26,1.99-6.19,6.29-11,9.48-16.46Z"/>
        <path class="cls-6" d="M39.11,131.73c-4.15-4.82-8.21-9.73-12.5-14.42-1.62-1.77-3.62-3.35-5.74-4.46-6.36-3.31-10.82-8.84-14-14.64-3.26-5.94-8.57-9.9-11.96-15.55-2.11-3.52-5.28-6.41-8.01-9.55-.81-.93-1.59-2.11-2.65-2.58-7.03-3.16-11.52-9.79-18.25-13.26-2.31-1.19-3.44-2.68-3.27-5.15.44-6.61-1.15-13.37,1.44-19.82-.51-11.33,1.36-22.72-.95-34.01-.99-4.82.21-6.44,5.02-6.53,10.43-.19,20.86-.33,31.28-.26,2.62.02,5.27.8,7.85,1.44,6.27,1.56,12.66,1.71,19.06,1.74,7.45.04,14.9-.04,22.35.1,5.38.1,10.71-.05,16.14.87,6.77,1.15,13.64-.21,20.39-1.79,4.48-1.05,9.12-1.45,13.68-2.12,4.73-.7,8.67.67,11.63,4.53,2.23,4.86,4.58,9.66,6.66,14.58,1.69,4.01,4.08,7.47,7.1,10.54.07.95-.09,1.99.26,2.83,2.25,5.47,5.63,10.71,6.67,16.39,1.26,6.88,4.95,11.92,8.89,17.12.7.92,1.52,1.94,1.71,3.01,1.7,9.77,5.39,18.94,8.49,28.29,2.68,8.08,5.43,16.13,8.4,24.95-2.88,0-4.84.13-6.77-.06-.79-.08-1.95-.69-2.2-1.35-1.26-3.29-4.03-3.27-6.73-3.29-6.96-.06-13.92.05-20.87-.03-6.49-.08-11.26,2.76-14.64,8.17-2.46,3.95-4.87,7.94-7.4,11.85-3.17,4.88-4.81,10.09-4.38,16,.31,4.2.11,8.44.15,12.66.1,9.28,5.03,17.11,7.78,25.59.07.22.29.4.47.57,6.49,5.79,8.61,14.16,12.64,21.4.36.65,1.14,1.39,1.01,1.91-.27,1.1-.84,2.28-1.66,3.01-.39.35-1.89.06-2.44-.44-2.74-2.51-5.22-5.33-8.02-7.77-4.4-3.85-7.46-8.89-12.2-12.51-7.38-5.64-14.31-11.87-21.25-18.06-2.15-1.92-3.67-4.54-5.55-6.79-9.2-11.06-18.43-22.1-27.64-33.14Z"/>
        <path class="cls-13" d="M-37.09,234.8c.01-2.48.16-4.97.02-7.45-.47-8.08-1.24-16.15-1.52-24.24-.28-8.19.82-16.52-.35-24.55-1.41-9.63-1.86-19.27-.79-28.73.84-7.39,1.79-14.85.75-22.01-1.33-9.14-1.35-18.25-.78-27.26.42-6.72.37-13.63,2.31-20.27.54-1.84.24-3.93.26-5.9.03-3.16,0-6.32,0-9.49,1.16,0,1.81-.2,2.09.03,6.5,5.56,14.32,9.39,19.9,16.27,3.68,4.53,6.48,9.51,9.73,14.25,5.29,7.71,11.48,14.7,19.48,19.75,7.41,4.68,12.55,11.39,17.54,18.34.78,1.09,2,1.87,3.01,2.79.82,1.11,1.57,2.28,2.46,3.33,6,7.06,12.03,14.1,18.06,21.13,3.18,3.7,6.87,7.07,9.48,11.14,5.16,8.03,13.06,12.86,20.18,18.64,3.59,2.92,7.19,5.86,10.51,9.07,2.25,2.17,3.93,4.92,6.04,7.26,2.16,2.39,4.58,4.54,6.79,6.9,1.55,1.66.91,4.09-1.27,4.45-2.17.36-4.43.16-6.65.27-4.95.26-6.93,2.17-7.36,7.1-.09.98-.14,2.01.02,2.97.93,5.7,2.3,11.36,2.78,17.09.28,3.37,2.43,5.8,3.07,8.81,1.91,8.95,1.98,18.05,1.57,27.14-.04.91-.96,1.98-1.76,2.59-.92.71-2.15,1.05-3.28,1.45-8.83,3.1-17.93,5.24-26.98,7.63-6.91,1.83-13.49,4.92-20.22,7.44-4.05-.94-8.13.17-12.36-1.12-10.67-3.26-21.18-6.96-31.38-11.36-3.98-1.72-8.4-2.01-12-4.22-7.66-4.71-16.49-5.91-24.73-8.86-.07-.49.01-1.09-.24-1.44q-2.9-3.93-2.91-7.91c-.02-9.1.01-18.2-.12-27.3-.02-1.25-.87-2.49-1.33-3.73Z"/>
        <path class="cls-13" d="M473.6,90.24c0,15.16.09,30.33-.04,45.49-.03,3.63.82,7.41-1.2,10.91-.43.74-.34,2.06-.01,2.93,2.18,5.75.86,11.74,1.31,17.6.49,6.35,1.53,12.7,1.36,19.03-.17,6.02-1.63,12-2.45,18.01-.26,1.94-.4,3.92-.41,5.88-.05,9.2-.07,18.4-.05,27.59.03,9.86-.11,19.66-1.3,29.51-.85,6.99-1.12,14.27,1.23,21.25.28.83.04,1.85.04,2.18-13.77,2.45-26.9,4.7-39.98,7.19-2.21.42-4.23,1.82-6.33,2.76l.04-.02c-2.62.35-5.45.2-7.82,1.15-7.6,3.07-15.45,3.79-23.5,3.41-.5,0-1,0-1.5.01-10.79-2.68-20.64-7.94-31.22-11.25-3.78-1.18-7.18-3.56-10.83-5.23-2.56-1.17-5.76-1.47-7.76-3.21-4.54-3.95-10.19-5.13-15.48-7.18-2.49-.97-3.59-2.27-3.36-4.81.54-6.04,1.5-12.03,1.78-18.13.18-3.81,2.23-7.64,2.87-11.69.64-4.01.23-7.8-.14-11.72-.28-2.96,1-6.51-.24-8.82-2.2-4.13-.22-6.39,2.23-8.71,2.27-2.16,5.01-3.82,7.33-5.93,5.08-4.62,9.73-9.62,15.18-13.93,7.89-6.24,14.86-13.63,22.3-20.45,3.22-2.96,6.53-5.85,9.99-8.53,5.7-4.4,11.6-8.55,17.33-12.91,2.26-1.72,4.63-3.46,6.42-5.62,4.62-5.58,8.76-11.56,13.47-17.06,2.34-2.73,5.54-4.69,8.28-7.1,1.68-1.47,3.97-2.86,4.61-4.75.97-2.85,3.43-3.72,5.16-5.53,4.58-3.38,9.2-6.72,13.74-10.16,6.01-4.55,11.24-10.3,18.96-12.17Z"/>
        <path class="cls-13" d="M114-5.53c4.45-2.69,9.24-1.09,13.88-1.01,2.39.04,4.76.88,7.16,1.04,2.97.19,5.96-.05,8.94.06,12.05.46,24.14,1.82,36.13,1.21,9.82-.5,19.79-.01,29.44-1.47,8.84-1.33,17.79-2.01,26.61-3.81,5.83-1.19,12.21.27,18.34.58,1.71.09,3.41.45,5.11.44,9.32-.05,18.44,1.48,27.64,2.77,8.97,1.26,18.22,2.15,27.17,1.32,6.88-.64,13.72-.69,20.57-.95.95-.04,1.94.92,2.92,1.41-1.13,1.8-1.93,3.97-3.45,5.32-2.99,2.65-4.56,5.92-5.51,9.63,1.15,3.07-2.6,2.75-3.34,4.96-3.07,9.15-8.35,17.26-13.2,25.56-4.11,7.04-8.62,13.93-11.82,21.38-2.48,5.76-5.1,11.33-8.29,16.72-3.78,6.38-7.2,12.98-10.63,19.57-1.43,2.75-2.69,5.63-3.6,8.58-.96,3.13-3.34,4.09-5.68,3.08-6.96-2.99-13.26-.65-19.64,1.61-2.49.88-5.19,3.07-7.32,2.59-2.55-.57-4.59-3.39-6.88-5.2-1.89-1.5-3.77-3.01-5.72-4.42-2.35-1.7-4.58-3.82-7.21-4.83-5.35-2.04-11.18-2.72-16.16-5.93-1.05-.68-3.03-.45-4.39-.02-5.3,1.67-10.9,3.2-13.62,8.69-1.19,2.41-2.68,3.08-5.12,3.19-4.18.2-8.27,1.46-11.45,4.05-2.64,2.14-5.15,3.97-8.65,4.37-.57-1.8-1.1-3.61-1.72-5.39-2.45-6.96-4.54-14.03-7.11-20.96-2.62-7.08-5.51-14.2-6.74-21.83-1.03-6.4-3.91-12.14-8.01-17.32-2.05-2.59-3.94-5.65-4.72-8.79-.65-2.61-1.48-5.02-2.49-7.49-1.99-4.83-3.65-9.79-5.44-14.7-2.88-5.4-7.04-10.04-9.18-15.91-1.24-3.4-3.56-6.2-6.77-8.1Z"/>
        <path class="cls-1" d="M129.95,18.48c1.8,4.91,3.45,9.87,5.44,14.7,1.01,2.46,1.84,4.88,2.49,7.49.78,3.14,2.67,6.2,4.72,8.79,4.11,5.17,6.99,10.92,8.01,17.32,1.23,7.63,4.12,14.76,6.74,21.83,2.57,6.94,4.66,14,7.11,20.96.63,1.78,1.15,3.6,1.72,5.39,3.5-.4,6.01-2.23,8.65-4.37,3.19-2.58,7.27-3.85,11.45-4.05,2.44-.11,3.93-.79,5.12-3.19,2.72-5.49,8.32-7.02,13.62-8.69,1.36-.43,3.34-.65,4.39.02,4.99,3.22,10.81,3.89,16.16,5.93,2.64,1.01,4.86,3.13,7.21,4.83,1.95,1.41,3.83,2.92,5.72,4.42,2.28,1.82,4.33,4.63,6.88,5.2,2.14.48,4.83-1.71,7.32-2.59,6.39-2.26,12.68-4.6,19.64-1.61,2.34,1,4.72.05,5.68-3.08.9-2.95,2.17-5.83,3.6-8.58,3.42-6.59,6.85-13.18,10.63-19.57,3.19-5.39,5.82-10.96,8.29-16.72,3.2-7.45,7.71-14.34,11.82-21.38,4.85-8.3,10.13-16.41,13.2-25.56.74-2.21,4.49-1.9,3.34-4.96,1.12,1.65,4.23.7,4.51,3.45-2.5,4.63-4.98,9.27-7.51,13.89-4.83,8.8-9.28,17.83-14.68,26.27-3.52,5.51-5.15,11.72-8.19,17.34-5.11,9.45-10.24,18.88-15.14,28.44-2.58,5.04-4.68,10.32-7.41,16.43,1.84-.44,2.87-.59,3.84-.94,2.99-1.07,5.94-2.21,8.91-3.32,8.71-3.26,16.92-1.54,24.63,2.91,3.58,2.07,6.77,4.87,9.99,7.51,3.4,2.78,5.15,6.46,5.16,10.91.04,10.69.25,21.38.08,32.06-.09,5.79-2.13,10.96-6.61,14.99-5.14,4.63-9.97,9.62-15.3,14.02-6.02,4.97-9.89,11.44-14.39,18.29,1.16.41,1.95.9,2.74.92,4.63.13,9.29-.49,13.78,1.38,1.74.72,3.96,1.5,5.57,1,1.7-.53,2.91-2.58,4.37-3.91,10.91-9.98,21.85-19.94,32.75-29.93,2.2-2.01,4.37-4.07,6.45-6.2,8.78-8.96,18.87-16.35,28.92-23.75,8.15-5.99,15.62-12.36,21.13-21.13,3.1-4.93,8.05-8.72,12.27-12.9,4.02-3.98,7.62-8.45,12.76-11.14,1.1,1.65,2.19,3.3,3.29,4.94-1.73,1.8-4.18,2.68-5.16,5.53-.65,1.89-2.94,3.28-4.61,4.75-2.73,2.4-5.94,4.37-8.28,7.1-4.71,5.5-8.85,11.48-13.47,17.06-1.79,2.16-4.15,3.9-6.42,5.62-5.74,4.36-11.63,8.51-17.33,12.91-3.46,2.67-6.76,5.57-9.99,8.53-7.44,6.82-14.41,14.22-22.3,20.45-5.45,4.31-10.1,9.31-15.18,13.93-2.32,2.11-5.06,3.77-7.33,5.93-2.45,2.32-4.43,4.58-2.23,8.71,1.24,2.32-.04,5.87.24,8.82.37,3.92.77,7.71.14,11.72-.64,4.05-2.69,7.88-2.87,11.69-.28,6.1-1.25,12.08-1.78,18.13-.23,2.54.87,3.84,3.36,4.81,5.28,2.05,10.93,3.23,15.48,7.18,2,1.74,5.2,2.04,7.76,3.21,3.65,1.67,7.05,4.04,10.83,5.23,10.58,3.3,20.43,8.57,31.22,11.25-.26,1.31-2,2.44-.11,4.05.58.49.1,2.22.11,3.39-.74-.02-1.56.15-2.22-.1-8-2.98-15.99-6-23.95-9.06-3.53-1.36-7.09-2.68-10.47-4.36-2.78-1.38-5.18-3.57-8-4.82-7.18-3.18-14.78-5.36-21.6-9.44-1.3-.78-3.34-.55-5.01-.45-1.68.1-3.75,3.94-2.86,5.43,1.18,1.97,1.72,4.25,4.64,5.17,4.46,1.41,8.52,4.04,12.94,5.63,6.44,2.32,13.05,4.14,18.32,8.85.71.64,1.56,1.53,2.38,1.57,5.01.22,7.49,4.11,10.71,6.99,5.2,4.65,6.65,10.9,7.16,17.34.68,8.48-3.88,15.47-7.29,22.76-1.62,3.45-5.02,4.97-7.56,7.39-5.22,4.97-10.77,9.61-16.38,14.55,2.4,3.6,5.11,7.27,7.35,11.21,1.01,1.78.97,4.13,1.54,6.18.92,3.32-1.17,6.12-1.48,9.21-.76.51-1.79.85-2.25,1.56-2.06,3.24-2.39,3.47-5.62,2.77,2.42-4.85,2.09-10.09,1.75-15.2-.3-4.46-3.32-7.74-6.99-9.78-2.22-1.23-5.07.76-5.99,2.63-1.18,2.42-2.75,1.55-4.27,1.65-1.54.11-2.21-.86-2.07-2.32.12-1.2.05-2.56.61-3.55,2.6-4.65,5.82-8.94,10.38-11.72,3.44-2.09,7.42-3.31,11.16-4.9.43-.19,1.04-.17,1.33-.47,6.66-7.04,16.08-12.08,16.89-23.38.17-2.41,3.43-3.13,3.11-6.37-.71-7.14-3.45-13.01-8.76-17.72-4.79-4.25-9.74-8.29-16.07-10.09-3.68-1.05-7.37-2.06-11.05-3.09-1.15-.32-2.48-.4-3.41-1.04-5.34-3.69-10.7-7.36-15.81-11.35-3.29-2.56-2.13-6.37-1.36-9.61,1.37-5.8,4.25-11.41,4.67-17.22.84-11.88,5.84-23.06,5.35-35.08-.04-.99.09-2.01-.08-2.98-.11-.64-.53-1.64-.98-1.74-5.56-1.26-10.19-5.73-16.47-4.59-4.31.78-8.7-.78-13.15,1.07-2.94,1.22-7.66-5.37-6.58-8.89.49-1.59,1.48-3.07,2.44-4.46,3.31-4.82,6.58-9.67,10.11-14.32,1.79-2.36,4.04-4.39,6.22-6.41,5.07-4.7,10.22-9.3,15.34-13.95,3.29-2.98,4.83-6.59,4.75-11.13-.18-9.7-.21-19.4.01-29.1.08-3.61-1.27-5.99-3.86-8.3-6.35-5.65-13.58-8.22-22.11-7.67-3.88.25-6.8,2.42-10.02,4-.66.33-1.12,2.15-.88,3.07,1.35,5.1.95,9.93-.25,15.12-.91,3.95-1.23,8.09-2.33,12.1-2.05,7.47-7.12,13.17-10.89,19.63-1.8,3.09-3.6,6.19-5.84,10.04,5.53.08,9.45,1.62,12.49,5.27,4.5,5.39,4.62,14.23-.79,18.55-2.51,2-4.84,4.57-8.6,5.41-3.25.72-5.93,1.44-9.12-.11-3.27-1.59-6.96-1.83-10.27-.07-3.81,2.03-7.61,1.69-11.36.42-3.74-1.26-7.05-1.51-10.36,1.21-4.36,3.58-9.15,3.49-13.45.07-3.33-2.64-6.06-2.75-9.1.16-.66.64-1.82.73-2.57,1.31-4.49,3.45-9.19,3.16-13.64.33-3.89-2.47-7.38-3.16-11.52-.56-3.79,2.37-8.11,1.66-12.12.48-2.96-.87-5.54-.85-8.52.15-4.02,1.35-8.12.72-12.13-1.01-4.47-1.92-9.87-12.85-7.79-18.36.58-1.55,1.12-3.46,3.4-4.45,3.29-1.42,6.15-3.83,9.22-5.84-.13-.41-.28-.79-.38-1.19-1.69-6.84-7.69-10.29-11.97-15.05-3.3-3.67-6.02-7.59-8.12-12.08-3.81-8.13-1.26-15.86.86-23.69,1.57-5.8,5.04-10.65,8.32-16.36-7.1,0-13.77.13-20.43-.07-2.67-.08-4.37,1.29-5.56,3.11-3.19,4.87-6.2,9.87-9.04,14.96-.78,1.4-.94,3.27-.99,4.94-.13,4.47.27,8.98-.12,13.42-.75,8.51,2.29,16.02,6.61,22.76,4.86,7.57,9.09,15.43,12.9,23.51,2.96,6.27,3.29,13.18,3.01,20.06-.02.47-.06,1.16-.35,1.36-3,2.07-5.95,4.26-9.14,6.01-2.04,1.12-4.25.61-6.21-.88-.94-.71-2.15-1.18-3.31-1.47-3.4-.86-6.82,2.05-6.39,5.47.18,1.41.99,2.73,1.25,4.15.66,3.57,1.09,7.18,1.75,10.74.58,3.08,1.33,6.13,2.05,9.19,1.82,7.82,4.12,15.56,1.19,23.69-.72,1.99-.05,4.45-.25,6.67-.28,3.16-.96,6.29-1.13,9.44-.14,2.66.15,5.36.34,8.03.07.95.71,1.92.59,2.82-.33,2.63-.45,5.44-1.55,7.75-.69,1.43-2.95,2.21-4.62,3.04-5.95,2.96-11.49,6.44-16.13,11.28-1.66,1.73-3.21,3.58-6.1,3.81-1.48.12-2.97,1.65-4.24,2.78-7.24,6.46-15.73,11.64-19.56,21.4-2.11,5.39-1.2,10.69-1.21,16.04,0,.96,1.25,2.14,2.2,2.84,4.89,3.61,10.05,6.88,14.76,10.7,2.99,2.43,6.28,3.7,9.89,4.23,4.29.63,6.46,3.96,8.97,6.71,1.99,2.18.8,5.07-2,5.12-2.07.04-4.25-.76-6.23-1.55-4.13-1.66-6.54-.94-8.25,2.84-.09.21.03.51-.04.74-3.25,10.7-2.05,9.91,8.16,12.85,2.96.85,6.42,0,9.65-.07-1.56,1.58-3.12,3.14-4.66,4.74-.93.97-1.82,1.98-2.73,2.97-3.26-.63-6.38-2.05-9.86-1.52-3.85.58-7.16-.32-9.65-3.69-.93-1.26-2.54-2.02-4.18-3.27,2.45-.35,4.99-.74,4.34-4.34-.38-2.15-.08-4.42-.09-6.64,1.18-2.87,2.07-5.91,3.65-8.54,1.27-2.12.56-3.23-.97-4.32-4.72-3.36-9.6-6.52-14.22-10.01-3.13-2.37-6.16-5.24-6.35-9.45-.26-5.84-.47-11.76,1.54-17.44.96-2.7,1.87-5.42,2.95-8.07,2.12-5.21,4.73-9.73,9.96-12.94,12.15-7.45,23.85-15.62,35.71-23.53,2.36-1.57,3.87-3.51,3.7-6.73-.16-3.13.47-6.31.68-9.47.04-.58-.05-1.48-.42-1.74-2.1-1.43-3.86-3.09-7.07-1.61-2.58,1.19-5.32,1.96-7.77,3.59-3.2,2.13-6.55,3.75-10.53,4.54-5.34,1.06-10.37,3.58-15.65,5.07-4.36,1.23-8.33,3.94-13.11,3.62,1.77-2.17,1.52-4.76,1.49-7.3,6.73-2.53,13.31-5.62,20.22-7.44,9.04-2.39,18.14-4.53,26.98-7.63,1.13-.4,2.36-.74,3.28-1.45.8-.62,1.72-1.69,1.76-2.59.41-9.09.34-18.2-1.57-27.14-.64-3.01-2.79-5.43-3.07-8.81-.47-5.73-1.84-11.39-2.78-17.09-.16-.97-.1-1.99-.02-2.97.44-4.93,2.41-6.84,7.36-7.1,2.22-.12,4.48.09,6.65-.27,2.18-.36,2.83-2.79,1.27-4.45-2.2-2.35-4.63-4.5-6.79-6.9-2.11-2.33-3.79-5.08-6.04-7.26-3.32-3.21-6.92-6.15-10.51-9.07-7.12-5.78-15.02-10.62-20.18-18.64-2.61-4.06-6.3-7.43-9.48-11.14-6.03-7.03-12.06-14.07-18.06-21.13-.89-1.05-1.64-2.22-2.46-3.33,1.52-1.53,3.04-3.06,4.56-4.6,9.22,11.05,18.44,22.08,27.64,33.14,1.87,2.25,3.39,4.87,5.55,6.79,6.94,6.19,13.87,12.43,21.25,18.06,4.74,3.62,7.8,8.67,12.2,12.51,2.8,2.45,5.27,5.26,8.02,7.77.54.5,2.04.79,2.44.44.82-.73,1.39-1.91,1.66-3.01.13-.52-.65-1.27-1.01-1.91-4.03-7.24-6.15-15.61-12.64-21.4-.18-.16-.4-.35-.47-.57-2.75-8.48-7.68-16.31-7.78-25.59-.05-4.22.15-8.46-.15-12.66-.43-5.91,1.21-11.12,4.38-16,2.54-3.91,4.94-7.9,7.4-11.85,3.37-5.42,8.15-8.25,14.64-8.17,6.96.08,13.92-.03,20.87.03,2.71.02,5.48,0,6.73,3.29.25.65,1.4,1.27,2.2,1.35,1.93.19,3.89.06,6.77.06-2.97-8.82-5.72-16.88-8.4-24.95-3.1-9.35-6.79-18.52-8.49-28.29-.19-1.07-1.01-2.09-1.71-3.01-3.94-5.19-7.62-10.23-8.89-17.12-1.04-5.68-4.42-10.92-6.67-16.39-.34-.84-.18-1.88-.26-2.83,1.86-.98,3.71-1.96,5.57-2.94ZM237.7,161.24c.09-4.93.3-9.06-2.14-12.85-3-4.67-5.52-9.65-8.62-14.24-2.28-3.38-5.59-5.56-9.96-5.2-7.74.64-15.28,1.95-22.25,5.8-3.41,1.89-5.61,4.57-7.34,7.88-3.3,6.3-2.02,13.37-2.82,20-.55,4.6,1.95,9.87,4.07,14.38,1.2,2.56,3.42,6.76,7.08,5.41,7.21-2.67,13.37-.6,19.5,2.58,1.84.96,2.66.18,3.82-.82,3.4-2.92,7.01-5.27,11.86-4.55,2.05.3,3.23-1.06,3.74-2.86,1.51-5.34,3.92-10.52,3.07-15.53ZM183.13,182.56c-1.51-5.79-2.94-10.84-4.12-15.96-.98-4.22-2.62-8.59-2.23-12.74.5-5.43,2.58-10.75,4.22-16.05,2.04-6.59,2.15-6.57-3.74-10.48-1.79-1.19-3.37-2.39-5.68-3.08-6.85-2.03-13.7-1.15-20.54-1.14-3.9,0-7.12,2.15-8.82,5.7-2.52,5.27-4.29,10.86-4.67,16.71-.34,5.32.56,9.98,4.09,14.81,2.97,4.06,5.1,9.07,9.2,12.02,3.16,2.28,4.95,5.33,7.3,8.09.46.54.55,1.39,1.01,1.93,1.98,2.36,3.81,2.4,7.17,1.03,3.26-1.33,6.46-3.42,10.33-.96,1.22.78,3.36.12,6.5.12ZM242.87,181.48c1.8-.62,3.33-1.46,4.92-1.62,3.41-.35,7.42.7,10.15-.76,3-1.6,4.82-5.39,7.17-8.21.32-.38.68-.73,1.05-1.06,6.4-5.69,10.35-12.76,12.48-21.04.76-2.97.75-5.53,0-8.51-1.13-4.42-3.25-8.49-3.84-13.17-.35-2.74-2.22-5.64-6.36-6.07-4.19-.43-7.96.47-11.88,1.36-6.58,1.5-11.23,6.51-17.39,8.78,1.56,4.22,3.37,7.96,4.29,11.91.99,4.23,1.4,8.65,1.58,13,.16,3.94-1.19,8.11-.32,11.82,1.14,4.83-2.16,8.32-1.85,13.57ZM275.06,197.6c-.05-2.87-2.5-5.41-4.66-4.17-5.15,2.95-8.8.2-12.84-2.18-7.18-4.21-7.73-2.89-11.71,1.6-3.15,3.55-5.83,3.69-9.52.91-1.38-1.04-2.53-2.4-3.88-3.49-3.04-2.47-4.96-2.35-7.66.39-6.39,6.46-6.66,6.5-13.98,1.81q-8.41-5.39-14.5,2.31c-2.62,3.3-4.71,3.64-8.33,1.77-3.45-1.78-6.95-3.53-10.59-4.83-4.98-1.78-5.12-1.57-7.94,2.02-3.47,4.41-8.21,6.07-13.03,3.54-3.27-1.72-5.18-.01-7.21,1.49-1.92,1.42-1.09,3.36-.26,5.35,1.07,2.55,2.36,4.34,5.39,3.93,1.45-.19,2.93-.34,4.3-.78,3.64-1.17,7.12-1.22,10.81.13,3.53,1.3,6.87,1.35,10.34-1.44,4.79-3.83,7.26-3.46,12.35.71,3.49,2.85,6.84,3.49,10.69.97,1.44-.94,3.02-1.65,4.51-2.5,4.04-2.3,8.17-2.22,11.75.53,2.98,2.29,4.92,2.34,8.42.35,9.03-5.14,7.83-5.33,16.03-.89.21.11.53.07.7.22,1.58,1.37,2.97,1.16,4.57-.17,4.66-3.87,9.24-4.72,14.74-.85,3.92,2.75,11.57-2.13,11.49-6.73ZM207.05,123.38c2.54-1.62,5.75-1.53,6.6-4.69.76-2.79,1.48-5.66,1.62-8.53.28-5.53-2.22-8.03-7.84-7.99-1.87.01-3.77.72-5.59,1.32-4.24,1.4-5.65,3.66-4.41,7.55.57,1.8,1.69,3.52,2.9,5,2.04,2.5,4.35,4.77,6.72,7.34ZM186.13,113.76c-1.47.28-3.43.39-5.2,1.04-3.93,1.45-4.38,3.61-1.18,6.2,2.19,1.78,5.19,2.63,7.19,4.56,2.11,2.03,4.35,1.95,6.74,1.78.74-.05,1.94-.79,2.06-1.38.87-4.33-2.65-6.9-4.22-10.29-1.3-2.81-3.32-1.19-5.4-1.92ZM223.22,109.93c-.46,2.7-.67,4.86-1.21,6.95-1.17,4.58-1.25,4.58,2.76,7.38.97.68,2.31,1,3,1.87,2.17,2.69,4.16.56,5.79-.35,1.98-1.1,1.51-3.45.78-5.16-1.13-2.64-3-4.97-4.01-7.64-1.37-3.6-3.81-3.87-7.12-3.04Z"/>
        <path class="cls-6" d="M451.17,426.25c-16.13-2.78-32.39-1.08-48.59-1.58-2.39-.07-4.77-.77-7.15-1.18-3.82-.67-7.65-1.28-11.45-2.04-1.08-.22-2.08-.87-3.11-1.32,1.3-.52,2.6-1.04,3.9-1.55.73-.28,1.8-.99,2.17-.73,3.39,2.34,6.29.17,8.65-1.44,2.53-1.73,5.13-4.27,6.15-7.03,1.25-3.39,2.48-5.61,6.33-5.8.8-.04,1.82-.92,2.27-1.69,2.75-4.68,6.65-8.08,11.07-11.16,2.38-1.66,2.09-4.77.13-7.06-2.33-2.73-4.34-3.31-7.67-1.57-2.7,1.42-5.14,3.34-7.7,5.03,0-.96,0-1.92,0-2.88,1.61-3.42,3.64-6.7,4.7-10.28,1.07-3.6.57-7.71,1.84-11.2,1.44-3.95,2.12-8.69,7.71-10.08,2.56-.63,4.4-3.77,6.95-4.89,4.42-1.94,6.12-5.68,8.16-9.52,1.29-2.43.8-3.85-.7-5.89-1.92-2.59-4.49-3.99-7.09-5.63-6.24-3.92-11.45-9.47-18.95-11.39-1.06-.27-1.75-2.01-2.7-3.17,2.87-1.19,5.23-2.21,7.63-3.13,1.09-.42,2.32-1.06,3.37-.9,3.91.6,6.96-1.44,10.22-2.92,7.63-1.24,15.3-2.1,22.82-4.09,6.06-1.6,12.33-2.42,18.52-3.51,1.48-.26,2.12.57,2.22,2.09.43,6.34.36,12.78,1.58,18.97,2.52,12.75.97,25.52,1.12,38.27.02,2.1-.88,4.22-1.36,6.33-3.5.83-.35,4.02-1.96,5.52-7.2-2.23-10.13-.31-10.02,6.94.08,5.04-.35,10.02,1.22,15.13,1.31,4.26.17,9.08-1.25,13.52-.35,1.11-.13,2.95-.79,3.3-1.5.79-3.37,1.04-5.11,1.16-1.12.07-2.29-.77-3.42-.72-4.51.21-7.05,5.01-4.84,8.94,1.71,3.04,3.4,6.1,5.11,9.15Z"/>
        <path class="cls-11" d="M46.49,308.04c4.78.31,8.75-2.39,13.11-3.62,5.28-1.49,10.31-4.01,15.65-5.07,3.98-.79,7.33-2.41,10.53-4.54,2.45-1.63,5.19-2.41,7.77-3.59,3.21-1.48,4.97.19,7.07,1.61.37.25.46,1.15.42,1.74-.21,3.16-.85,6.33-.68,9.47.17,3.22-1.34,5.16-3.7,6.73-11.86,7.91-23.56,16.08-35.71,23.53-5.24,3.21-7.84,7.73-9.96,12.94-1.08,2.65-1.99,5.37-2.95,8.07-2.01,5.68-1.8,11.6-1.54,17.44.18,4.21,3.21,7.08,6.35,9.45,4.62,3.49,9.49,6.65,14.22,10.01,1.53,1.09,2.24,2.2.97,4.32-1.58,2.63-2.46,5.67-3.65,8.54-3.01,2.23-.58,5.49-2.04,8.92-7.6.72-15.24-1.39-22.38-4.69-3.73-1.72-5.69-5.86-6.92-9.93-1.04-3.43-1.74-6.99-3.09-10.3-2.79-6.81-7.16-12.14-14.82-13.83-5.17-3.65-8.22-8.97-8.76-14.9-.85-9.37-4.23-17.26-10.34-24.23-2.93-3.34-2.74-4.7.91-7.04,9.16-5.87,19.23-9.83,29.43-13.43,6.77-2.39,13.79-4.06,20.12-7.6Z"/>
        <path class="cls-11" d="M351.21,406.62c.31-3.1,2.4-5.89,1.48-9.21-.57-2.05-.53-4.4-1.54-6.18-2.23-3.94-4.95-7.61-7.35-11.21,5.61-4.95,11.15-9.58,16.38-14.55,2.54-2.42,5.94-3.93,7.56-7.39,3.41-7.29,7.98-14.28,7.29-22.76-.52-6.44-1.96-12.69-7.16-17.34-3.22-2.88-5.7-6.77-10.71-6.99-.82-.04-1.67-.93-2.38-1.57-5.26-4.72-11.88-6.54-18.32-8.85-4.42-1.59-8.48-4.22-12.94-5.63-2.92-.92-3.47-3.2-4.64-5.17-.89-1.49,1.18-5.33,2.86-5.43,1.67-.1,3.71-.33,5.01.45,6.82,4.08,14.42,6.25,21.6,9.44,2.82,1.25,5.22,3.45,8,4.82,3.38,1.67,6.94,3,10.47,4.36,7.97,3.07,15.95,6.08,23.95,9.06.66.25,1.47.07,2.22.1,8.69,4.56,17.22,9.4,24.98,15.47,3.05,2.39,6.16,4.69,9.27,7,2.33,1.73,2.21,2.98-.36,4.42-3.54,1.99-7.17,3.84-10.57,6.04-3.41,2.2-6.72,4.83-8.31,8.61-2.19,5.23-3.85,10.79-4.42,16.42-.48,4.75-2.06,8.35-6.09,10.84-8.7,3.53-16.35,8.51-22.54,15.68-3.11,3.6-7.32,5.39-11.87,6.69-2.7.77-5.13,2.47-7.69,3.74-1.6.79-3.21,1.56-4.17-.85Z"/>
        <path class="cls-1" d="M46.49,308.04c-6.33,3.54-13.35,5.21-20.12,7.6-10.19,3.6-20.27,7.56-29.43,13.43-3.65,2.34-3.84,3.7-.91,7.04,6.11,6.97,9.49,14.86,10.34,24.23.54,5.93,3.59,11.25,8.76,14.9-.67.93,3.39,2.68-.66,3.22-1.43.19-2.65,1.85-3.97,2.83-.47-.02-.92.06-1.35.26-7.58-6.34-11.31-14.58-11.8-24.32-.22-4.35-2.16-7.91-4.61-11.29-1.43-1.98-3.15-3.78-4.44-5.85-5.25-8.42-6.53-8.53,1.89-16.54.86-.82,1.98-1.37,2.99-2.03,10.61-7.02,22.52-11.06,34.44-15.12,1.31-.45,2.53-1.17,4.53-2.11-7.63-2.39-14.48-4.41-21.23-6.72-4.06-1.39-8.17-2.86-11.87-4.98-4.12-2.36-8.49-3.87-12.9-5.37-5.79-1.98-11.62-3.83-17.43-5.74.13-2.35-1.66-1.62-2.88-1.79-.5-1.98-1-3.97-1.49-5.95,1.06.47,2.11.95,3.17,1.42,8.24,2.95,17.07,4.15,24.73,8.86,3.61,2.22,8.03,2.5,12,4.22,10.19,4.41,20.71,8.1,31.38,11.36,4.23,1.29,8.31.18,12.36,1.12.02,2.54.28,5.12-1.49,7.3Z"/>
        <path class="cls-1" d="M306.52,412.59c-.58-.77-1.15-1.55-1.74-2.32-6.11-8.03-6.79-10.2-5.77-20.11.17-1.63.67-3.35,1.48-4.76,3.36-5.88,4.13-12.25,4.5-18.89.56-10.05,1.83-20.07,1.21-30.16-.13-2.16-.74-4.29-.88-6.46-.13-2.15-.35-4.44.18-6.47,1.16-4.43,2.45-5.81,6.75-4.75,7.41,1.84,15.05.68,22.43,2.8,8.79,2.53,16.4,19.22,9.12,26.38-3.23,3.17-6.91,5.95-10.65,8.52-2.95,2.03-6.14,3.95-9.51,5.06-7.71,2.55-10.67,8.6-12.69,15.6-2.08,7.2-3.18,14.58-4.36,21.95-.17,1.06.32,2.33.81,3.37,1.1,2.36,2.38,4.63,3.58,6.94.39,3.63-1.99,3.51-4.45,3.29ZM320.45,325.49c-4.93-.29-7.41,1.66-6.64,6.57.04.24.03.5,0,.74-.56,7.31,1.27,14.71-.89,21.99-.18.6,1.23,2.34,1.99,2.4,1.3.1,2.83-.46,3.98-1.19,5.49-3.47,10.91-7.04,16.3-10.67,2.26-1.52,4.73-3.31,3.88-6.46-.99-3.66-1.7-8.02-5.57-9.68-4.12-1.77-8.69-2.51-13.06-3.7Z"/>
        <path class="cls-1" d="M397.49,381.36c4.04-2.49,5.62-6.09,6.09-10.84.57-5.63,2.22-11.18,4.42-16.42,1.58-3.78,4.9-6.42,8.31-8.61,3.41-2.19,7.04-4.05,10.57-6.04,2.57-1.44,2.69-2.69.36-4.42-3.11-2.31-6.22-4.62-9.27-7-7.76-6.08-16.29-10.91-24.98-15.47,0-1.16.47-2.9-.11-3.39-1.9-1.6-.15-2.73.11-4.05.5,0,1,0,1.5-.01.72,2.61,3.05,3.96,4.92,2.79,2.84-1.78,5.62-.97,8.43-1.3,1.41-.16,3.02.05,4.2-.57,4.2-2.19,8.58-3.67,13.27-4.27.22-.03.34-.8.5-1.22l-.04.02c6.57.33,12.6-2.44,18.96-3.4,4.68-.7,9.2-2.36,14.03-2.58,3.08-.14,6.11-1,9.19-1.39,1.13-.15,2.75-.32,2.5,1.57-.07.54-1.26,1.12-2.03,1.34-6.87,1.91-14.18,1.03-20.99,4.11-3.76,1.7-8.45,1.49-12.74,1.85-2.89.24-5.78.07-7.35,3.18-3.25,1.47-6.3,3.52-10.22,2.92-1.06-.16-2.28.48-3.37.9-2.4.93-4.76,1.95-7.63,3.13.94,1.16,1.63,2.9,2.7,3.17,7.5,1.92,12.72,7.47,18.95,11.39,2.6,1.63,5.17,3.04,7.09,5.63,1.5,2.03,1.99,3.46.7,5.89-2.04,3.84-3.75,7.58-8.16,9.52-2.55,1.12-4.4,4.25-6.95,4.89-5.59,1.39-6.28,6.13-7.71,10.08-1.27,3.49-.78,7.6-1.84,11.2-1.06,3.58-3.09,6.87-4.7,10.28-1.63.73-3.1,2.72-4.97.08-.88-1.24-2.45-2-3.71-2.97Z"/>
        <path class="cls-4" d="M406.18,387.12c2.56-1.7,4.99-3.62,7.7-5.03,3.33-1.74,5.33-1.16,7.67,1.57,1.96,2.29,2.26,5.41-.13,7.06-4.42,3.08-8.32,6.48-11.07,11.16-.45.77-1.47,1.65-2.27,1.69-3.85.19-5.08,2.41-6.33,5.8-1.02,2.76-3.63,5.3-6.15,7.03-2.37,1.62-5.26,3.78-8.65,1.44-.38-.26-1.44.44-2.17.73-1.3.51-2.6,1.03-3.9,1.55h-29.57c5.33-1.41,10.06-4.11,15.48-4.91,3.8-.56,7.42-3.45,10.76-5.81,6.22-4.4,12.17-9.17,18.23-13.79.39-.3.7-.83,1.13-.95,4.16-1.22,6.74-4.36,9.29-7.54Z"/>
        <path class="cls-1" d="M-34.16,279.7c1.23.17,3.01-.56,2.88,1.79-4.38-.19-4.3-.18-4.55,3.18-.3,4.13-.96,8.24-1.06,12.37-.15,5.93-.65,11.98.29,17.76,1.36,8.4,1.29,16.86.43,25.06-.87,8.25-2.3,16.43-2.26,24.77.03,5.71.11,11.42-.03,17.12-.1,4.18-.54,8.35-.75,12.53-.37,7.38-.73,14.76-.93,22.14-.03,1.07,1.21,2.13,1.32,3.25.18,1.72,1.19,1.87,2.48,1.96,8.09.51,16.18,1.24,24.28,1.49,8.68.27,17.38.11,26.06.13,1.49,0,3.13-.46,4.44,0,5.3,1.87,10.7,1.21,16.09,1.03,1.42-.45,2.84-.9,4.26-1.35q7.23-1.64,14.94.88c-4.19,2.38-8.78,2.22-13.39,2.2-13.16-.06-26.32.17-39.48-.08-10.52-.2-21.02-.89-31.53-1.46-1.83-.1-3.66-.58-5.44-1.07-5.07-1.42-5.14-1.45-5.51-6.58-.26-3.6-1.33-7.04-.51-10.85.82-3.78-.4-8.05.64-11.72,2.41-8.52.89-17.08,1.3-25.61.63-12.98,1.22-25.97,1.47-38.96.25-12.9-.07-25.81.14-38.72.06-3.53,1.01-7.07,1.8-10.55.09-.42,1.7-.5,2.6-.74Z"/>
        <path class="cls-1" d="M83.83,424.53c.91-.99,1.8-2.01,2.73-2.97,1.54-1.59,3.11-3.16,4.66-4.74,2.52-2.55,5.68-2.97,9.04-2.69.42.51.97,1.51,1.25,1.44,3.24-.82,5.99,1.01,8.97,1.5.11,2.17.22,4.34.37,7.27,5.37.04,10.83.08,16.29.12-.65.53-1.29,1.5-1.96,1.53-3.47.15-6.97.3-10.42,0-7.37-.66-13.68,2.28-19.49,6.04-2.68,1.74-5.3,2.01-7.55,1.15-2.75-1.05-4.63-3.64-3.92-7.14.1-.48.01-.99.01-1.49Z"/>
        <path class="cls-3" d="M129.95,18.48c-1.86.98-3.71,1.96-5.57,2.94-3.02-3.07-5.41-6.53-7.1-10.54-2.08-4.92-4.43-9.73-6.66-14.58q.25-2.89,3.38-1.82c3.21,1.9,5.53,4.7,6.77,8.1,2.15,5.87,6.31,10.5,9.18,15.91Z"/>
        <path class="cls-1" d="M333.46,14.47c-.28-2.75-3.39-1.8-4.51-3.45.96-3.71,2.52-6.98,5.51-9.63,1.52-1.35,2.32-3.52,3.45-5.32,2.58-.44,5.16-.88,7.73-1.32-3.19,5.46-7.5,10.27-9.48,16.46-.4,1.25-1.78,2.18-2.71,3.26Z"/>
        <path class="cls-15" d="M38.8,422.97c-1.42.45-2.84.9-4.26,1.35-.41-1.08-.53-2.78-1.29-3.14-6.27-3.01-8.67-9.34-12.73-14.25-1.45-1.75-1.97-3.55-2.6-5.7-1.57-5.34-2.3-11.25-7.38-15.07-1.03-.77-.95-3.02-1.39-4.59.43-.2.88-.28,1.35-.26,3.73,5.87,7.97,11.42,9.25,18.6.49,2.77,1.77,5.77,3.62,7.84,4.55,5.08,8.62,10.77,14.95,14,.3.15.33.8.49,1.22Z"/>
        <path class="cls-1" d="M212.66,297.73c-1.55,8.22,1.25,13.3,7.98,16.31,1.1.49,2.17,1.09,3.17,1.78,7.44,5.16,15.41,5.47,23.73,2.68,5.2-1.74,6.58-4.74,4.48-10-.53-1.34-1.36-2.57-2.11-3.81-1.91-3.14-1.78-3.69.8-5.96,1.41-1.24,2.45-1.12,3.8.1,4.44,4.01,7.45,13.77,5.23,18.95-.88,2.07-2.72,4.1-4.66,5.28-9.38,5.69-19.24,6.06-29.42,2.11-4.71-1.83-8.75-5.15-14.11-5.68-1.67-.17-2.86-.66-4.65.17-6.59,3.05-13.75,4.42-20.77,6.05-3,.69-6.21,1-9.25-1.02-2.8-1.86-6.09-2.98-9.01-4.68-5.63-3.28-8.18-9.18-6.25-14.97.42-1.25,2.47-2.76,3.71-2.71,1.24.05,3.53,2.03,3.43,2.94-.94,8.47,6,9.79,11.14,12.69.98.55,2.45.75,3.55.49,5.61-1.35,11.29-2.54,16.7-4.5,4.21-1.52,4.46-2.98,3.56-7.91-.17-.95-.32-1.95-.21-2.9.18-1.61,1.13-3.37.7-4.73-.32-1.02-2.3-1.54-3.57-2.21-14.32-7.59-13.43-23.31-4.77-32.15,3.95-4.02,10.49-5.86,17.78-2.31,8.59,4.18,11.85,11.61,13.54,20.16,1.15,5.8-2.49,9.39-6.35,12.9-2.3,2.09-4.83,3.2-8.16,2.95ZM208.75,290.21c9.86-.05,13.05-4.99,9.07-13.14-.53-1.08-1.05-2.17-1.68-3.18-2.43-3.93-6.11-5.69-10.6-6.16-2.22-.23-3.76.64-5.14,2.25-2.38,2.77-4.29,11.33-2.46,13.72,2.81,3.67,5.6,7.89,10.82,6.51Z"/>
        <path class="cls-1" d="M110.49,417.07c-2.98-.48-5.73-2.31-8.97-1.5-.28.07-.83-.94-1.25-1.44,5.23-1.34,7.27-4.59,7.63-10.08.5-7.67-2.95-12.8-8.82-16.64-4-2.62-7.83-5.7-12.9-6.44-1.82-.27-3.38-1.97-5.21-2.58-10.79-3.58-13.4-16.48-7.01-26.6,6.33-10.03,15.9-16.27,26.06-21.82,2.43-1.33,4.12-1.16,5.81.84.32.38.63.9,1.05,1.04,6.2,2.09,6.29,7.78,6.52,12.56.52,10.9.23,21.84.18,32.76,0,1.41-.49,2.84-.82,4.24-.8,3.37-.92,6.44.67,9.9,3.2,6.96,2.11,14.3.19,21.46-.47,1.77-3.72,1.66-3.13,4.29ZM106.22,369.72c-.41-1.96-1.34-4.31-1.29-6.64.13-6.14-.95-12.12-1.6-18.17-.29-2.69-1.91-2.97-3.42-2.38-7.7,3.03-14.27,7.56-19.46,14.24-4.44,5.7-1.74,14.1,4.92,15.37,4.43.85,7.93,3.24,11.75,5.16,1.71.86,3.4,1.81,5.2,2.37.64.2,2.18-.5,2.31-1.03.69-2.79,1.05-5.66,1.6-8.91Z"/>
        <path class="cls-1" d="M188.39,258.79c.57,2.64.35,6.03-2.13,8.28-1.88,1.7-4.61,3.17-7.08,3.38-4.95.42-11.72-6.36-11.8-11.05-.13-7.33,3.35-11.01,10.41-11.03,7.48-.02,10.59,2.85,10.6,10.43Z"/>
        <path class="cls-1" d="M238.81,267.8c-2.8.2-5.85-.57-7.51-3.09-1.8-2.74-3.78-6.1-3.72-9.15.08-4.02,3.44-6.74,7.34-8.19,3.88-1.43,8.95.1,11.81,3.55,3.16,3.81,3.62,8.16,1.49,12.1-2,3.69-5.24,4.76-9.42,4.77Z"/>
        <path class="cls-1" d="M242.07,227.5c4.33-1.12,8.25,1.15,12.21,3.81,2.98,2.01,6.44,3.31,9.46,5.27,2.65,1.72,5.1,3.81,7.41,5.97,1.49,1.39,1.15,3.08-.27,4.56-1.39,1.44-2.94,1.85-4.61.67-2.2-1.55-4.18-3.45-6.49-4.81-4.77-2.81-9.58-5.61-14.62-7.88-1.86-.84-4.42-.27-6.64-.13-2.13.14-4-.23-5.22-2.07-.63-.94-1.51-2.26-1.26-3.11.28-.95,1.65-2.04,2.67-2.19,2.18-.33,4.45-.1,7.37-.1Z"/>
        <path class="cls-1" d="M179.32,229c1,0,2.11-.28,2.96.08,1.07.44,2.41,1.25,2.71,2.19.27.85-.44,2.38-1.2,3.1-.99.94-2.42,1.8-3.74,1.94-5.79.64-10.44,3.67-15.17,6.64-2.25,1.41-4.82,2.41-6.81,4.11-2.25,1.92-3.83.2-4.96-.8-1.47-1.31-.82-3.29.73-4.49,6.51-5.06,13-10.2,21.03-12.71,1.36-.42,2.96-.06,4.45-.06Z"/>
        <path class="cls-1" d="M425.8,300.54c-.17.42-.29,1.19-.5,1.22-4.7.6-9.07,2.09-13.27,4.27-1.18.61-2.79.4-4.2.57-2.8.33-5.59-.48-8.43,1.3-1.86,1.17-4.2-.18-4.92-2.79,8.05.37,15.9-.35,23.5-3.41,2.38-.96,5.2-.8,7.82-1.15Z"/>
        <path class="cls-11" d="M237.7,161.24c.85,5.01-1.55,10.19-3.07,15.53-.51,1.8-1.69,3.16-3.74,2.86-4.85-.71-8.46,1.63-11.86,4.55-1.15.99-1.98,1.77-3.82.82-6.12-3.18-12.29-5.25-19.5-2.58-3.65,1.35-5.88-2.85-7.08-5.41-2.11-4.51-4.62-9.78-4.07-14.38.8-6.63-.48-13.7,2.82-20,1.73-3.31,3.93-5.99,7.34-7.88,6.96-3.85,14.5-5.16,22.25-5.8,4.38-.36,7.69,1.82,9.96,5.2,3.1,4.6,5.62,9.57,8.62,14.24,2.44,3.79,2.23,7.92,2.14,12.85Z"/>
        <path class="cls-12" d="M183.13,182.56c-3.14,0-5.27.66-6.5-.12-3.87-2.46-7.07-.36-10.33.96-3.36,1.37-5.19,1.33-7.17-1.03-.46-.54-.55-1.39-1.01-1.93-2.35-2.75-4.14-5.81-7.3-8.09-4.1-2.95-6.23-7.96-9.2-12.02-3.52-4.82-4.43-9.49-4.09-14.81.37-5.86,2.15-11.45,4.67-16.71,1.69-3.54,4.91-5.69,8.82-5.7,6.84,0,13.69-.89,20.54,1.14,2.31.68,3.89,1.89,5.68,3.08,5.9,3.91,5.78,3.89,3.74,10.48-1.64,5.29-3.71,10.61-4.22,16.05-.38,4.15,1.26,8.52,2.23,12.74,1.18,5.11,2.61,10.17,4.12,15.96Z"/>
        <path class="cls-12" d="M242.87,181.48c-.32-5.26,2.98-8.74,1.85-13.57-.87-3.7.48-7.87.32-11.82-.18-4.35-.59-8.77-1.58-13-.92-3.95-2.73-7.69-4.29-11.91,6.16-2.28,10.81-7.29,17.39-8.78,3.92-.89,7.69-1.79,11.88-1.36,4.14.43,6.02,3.33,6.36,6.07.59,4.68,2.71,8.75,3.84,13.17.76,2.99.77,5.55,0,8.51-2.13,8.28-6.08,15.35-12.48,21.04-.37.33-.73.68-1.05,1.06-2.35,2.82-4.17,6.6-7.17,8.21-2.73,1.46-6.73.42-10.15.76-1.59.16-3.12,1-4.92,1.62Z"/>
        <path class="cls-4" d="M275.06,197.6c.08,4.6-7.58,9.49-11.49,6.73-5.5-3.87-10.09-3.02-14.74.85-1.6,1.33-2.98,1.53-4.57.17-.17-.15-.49-.1-.7-.22-8.19-4.44-7-4.25-16.03.89-3.5,1.99-5.44,1.94-8.42-.35-3.58-2.75-7.71-2.83-11.75-.53-1.49.85-3.08,1.56-4.51,2.5-3.86,2.52-7.21,1.88-10.69-.97-5.09-4.17-7.57-4.54-12.35-.71-3.48,2.78-6.81,2.73-10.34,1.44-3.69-1.35-7.17-1.3-10.81-.13-1.38.44-2.86.59-4.3.78-3.03.4-4.32-1.38-5.39-3.93-.83-1.98-1.66-3.92.26-5.35,2.03-1.5,3.94-3.21,7.21-1.49,4.82,2.53,9.56.88,13.03-3.54,2.82-3.59,2.96-3.8,7.94-2.02,3.64,1.3,7.14,3.05,10.59,4.83,3.62,1.87,5.72,1.53,8.33-1.77q6.09-7.69,14.5-2.31c7.32,4.69,7.59,4.65,13.98-1.81,2.7-2.73,4.62-2.86,7.66-.39,1.35,1.1,2.49,2.45,3.88,3.49,3.69,2.78,6.37,2.64,9.52-.91,3.98-4.49,4.53-5.82,11.71-1.6,4.05,2.37,7.7,5.13,12.84,2.18,2.16-1.24,4.61,1.3,4.66,4.17Z"/>
        <path class="cls-9" d="M207.05,123.38c-2.37-2.56-4.68-4.84-6.72-7.34-1.21-1.48-2.33-3.2-2.9-5-1.23-3.89.17-6.15,4.41-7.55,1.82-.6,3.72-1.31,5.59-1.32,5.62-.04,8.12,2.46,7.84,7.99-.15,2.87-.86,5.74-1.62,8.53-.86,3.16-4.07,3.07-6.6,4.69Z"/>
        <path class="cls-10" d="M186.13,113.76c2.08.72,4.1-.9,5.4,1.92,1.57,3.39,5.09,5.96,4.22,10.29-.12.6-1.32,1.33-2.06,1.38-2.39.17-4.63.25-6.74-1.78-2-1.93-5-2.78-7.19-4.56-3.2-2.6-2.75-4.75,1.18-6.2,1.76-.65,3.73-.76,5.2-1.04Z"/>
        <path class="cls-14" d="M223.22,109.93c3.31-.83,5.75-.56,7.12,3.04,1.02,2.67,2.88,5,4.01,7.64.73,1.71,1.2,4.07-.78,5.16-1.63.9-3.62,3.04-5.79.35-.7-.87-2.03-1.19-3-1.87-4.01-2.8-3.93-2.8-2.76-7.38.53-2.08.75-4.25,1.21-6.95Z"/>
        <path class="cls-6" d="M9.15,381.56c.43,1.57.36,3.81,1.39,4.59,5.08,3.82,5.82,9.73,7.38,15.07.63,2.15,1.15,3.95,2.6,5.7,4.06,4.91,6.46,11.23,12.73,14.25.76.36.88,2.06,1.29,3.14-5.39.18-10.79.85-16.09-1.03-1.32-.47-2.95,0-4.44,0-8.69-.02-17.38.14-26.06-.13-8.1-.26-16.19-.98-24.28-1.49-1.29-.08-2.3-.23-2.48-1.96-.12-1.12-1.35-2.18-1.32-3.25.19-7.38.56-14.76.93-22.14.21-4.18.66-8.35.75-12.53.13-5.7.05-11.41.03-17.12-.04-8.34,1.39-16.52,2.26-24.77.86-8.21.93-16.66-.43-25.06-.94-5.79-.44-11.84-.29-17.76.1-4.13.76-8.24,1.06-12.37.24-3.37.17-3.37,4.55-3.18,5.81,1.91,11.64,3.76,17.43,5.74,4.41,1.51,8.79,3.01,12.9,5.37,3.69,2.12,7.81,3.59,11.87,4.98,6.75,2.31,13.6,4.32,21.23,6.72-2,.94-3.22,1.66-4.53,2.11-11.91,4.06-23.83,8.1-34.44,15.12-1.01.67-2.13,1.21-2.99,2.03-8.42,8.01-7.14,8.12-1.89,16.54,1.29,2.07,3.01,3.86,4.44,5.85,2.45,3.38,4.39,6.94,4.61,11.29.49,9.74,4.22,17.98,11.8,24.32Z"/>
        <path class="cls-8" d="M320.45,325.49c4.37,1.19,8.94,1.93,13.06,3.7,3.87,1.66,4.58,6.02,5.57,9.68.85,3.15-1.62,4.94-3.88,6.46-5.39,3.63-10.81,7.2-16.3,10.67-1.15.73-2.68,1.29-3.98,1.19-.76-.06-2.17-1.8-1.99-2.4,2.16-7.28.33-14.68.89-21.99.02-.25.03-.5,0-.74-.77-4.91,1.7-6.86,6.64-6.57Z"/>
        <path class="cls-2" d="M208.75,290.21c-5.22,1.38-8-2.84-10.82-6.51-1.83-2.39.08-10.95,2.46-13.72,1.38-1.6,2.92-2.48,5.14-2.25,4.49.47,8.16,2.23,10.6,6.16.63,1.02,1.16,2.11,1.68,3.18,3.98,8.15.79,13.09-9.07,13.14Z"/>
        <path class="cls-8" d="M106.22,369.72c-.55,3.26-.91,6.12-1.6,8.91-.13.53-1.67,1.23-2.31,1.03-1.81-.56-3.5-1.51-5.2-2.37-3.82-1.92-7.32-4.31-11.75-5.16-6.65-1.27-9.35-9.67-4.92-15.37,5.19-6.67,11.76-11.21,19.46-14.24,1.52-.6,3.14-.32,3.42,2.38.65,6.05,1.73,12.03,1.6,18.17-.05,2.33.88,4.67,1.29,6.64Z"/>
      </g>
    </g>
  </g>
</svg>