<?xml version="1.0" encoding="UTF-8"?>
<svg id="_レイヤー_2" data-name="レイヤー 2" xmlns="http://www.w3.org/2000/svg" viewBox="0 0 133.05 288.77">
  <defs>
    <style>
      .cls-1 {
        fill: #fff;
      }

      .cls-2 {
        fill: #423e3f;
      }

      .cls-3 {
        fill: #432f2f;
      }

      .cls-4 {
        fill: #433e40;
      }

      .cls-5 {
        fill: #1c1c1c;
      }

      .cls-6 {
        fill: #100e0e;
      }

      .cls-7 {
        fill: #faa2ad;
      }

      .cls-8 {
        fill: #646060;
      }

      .cls-9 {
        fill: #252525;
      }

      .cls-10 {
        fill: #231815;
      }

      .cls-11 {
        fill: #f03c3c;
      }
    </style>
  </defs>
  <g id="design">
    <g>
      <path class="cls-10" d="M22.55,210.33c-5.65,.83-9.8-1.2-13.76-3.75-.77-.49-1.67-1.15-1.96-1.93-1.24-3.38-2.26-6.73-1.27-10.52,1.3-4.95,3.14-9.7,4.66-14.56,.15-.47,.74-.89,.72-1.32-.24-4.32,2.17-7.12,5.11-9.86,2.69-2.51,2.53-3.3-.56-6.02-1.18-1.04-1.37-2.21-1.37-3.6,.01-3.55,.01-7.11-.02-10.66-.01-1.12,.3-2.34-1.27-2.96-.42-.16-.53-1.44-.55-2.21-.07-3.16,.31-6.4-1.84-9.14,0-4.34-2.59-8.13-2.43-12.6,.13-3.63-.49-7.31-1.02-10.92-.15-1.03-1.02-2.06-1.79-2.88C.54,102.38-.65,96.42,.31,89.86c.09-.64,.63-1.33,.48-1.85-.25-.89-1.37-1.64-.21-2.62,.87-.73,1.69-1.63,2.71-2.07,1.79-.78,3.66-1.51,5.57-1.84,3.27-.56,6.6-.75,9.89-1.19,2.23-.3,4.45-.76,6.86-1.19-2.09-4.39-4.49-7.76-8.36-10.09-1.52-.91-2.86-2.3-3.42-4.39-.5-1.88-1.58-3.76-2.87-5.23-2.29-2.59-3.46-5.62-4.51-8.8-.87-2.62-1.54-5.44-3.06-7.65-1.2-1.75-1.27-3.36-1.28-5.17-.02-2.2,.22-4.43-.07-6.6-.28-2.09,.83-4.07,.18-6.16-.15-.49,.21-1.2,.46-1.75,2.12-4.52,4.66-8.82,8.24-12.28,3.76-3.63,8.25-6.03,13.73-5.89,.68,.02,1.35,0,2.03,0,10.36-.05,10.34-.02,18.56,5.44,2.29,1.52,3.13,3.95,3.98,6.23,.67,1.8,1.29,3.61,2.89,4.51,2.74,1.55,4.11,4.15,4.27,6.8,.23,3.87,1.49,7.41,2.52,11,.95,3.31,.85,6.6,.95,9.93,.04,1.33-.17,2.95,.49,3.92,1.63,2.36,1.13,4.58,.5,7.02-1.1,4.25-2.02,8.54-3,12.78,3.99,1.9,6.65-1.61,10.12-1.91,.05-.78,.35-1.55,.1-2.06-1.52-3.21-2.62-6.48-2.18-10.1-1.87-2.23-.78-4.87-.96-7.31-.43-5.98-.93-11.98-.97-17.97-.02-3.79,.18-7.77,1.3-11.35,1.73-5.55,4.48-10.69,10.13-13.49,1.03-.51,2.25-1.06,2.85-1.95,2-2.96,5.41-3.86,8.06-5.85,.83-.62,2.2-.67,3.33-.68,4.23-.05,8.46-.12,12.68,.15,1.53,.1,3.21,.85,4.48,1.78,5,3.67,8.52,8.39,10.74,13.91,2.51,6.23,2.45,6.23,2.27,15.04-.08,3.71-.83,7.1-2.31,10.58-1.78,4.19-2.59,8.78-3.83,13.2-.22,.78-.33,1.65-.76,2.3-3.11,4.69-5.53,9.78-8.26,14.69-.14,.26-.05,.66-.07,1.13,2.02,.88,3.96,1,6.33,.72,2.61-.31,5.4,1.1,8.14,1.65,2.49,.5,2.53,.38,4.54,2.65,.52,3.24-.47,6.55,.98,9.83,.6,1.35-.54,3.48-.95,5.24-.15,.63-.77,1.25-.72,1.83,.56,6.19-1.92,11.67-3.8,17.31-.25,.74-.35,1.71-.07,2.39,1.33,3.27,.93,6.47,.08,9.75-.33,1.28-.55,2.68-.43,3.98,.4,4.41-.57,8.57-1.8,12.75-.46,1.56-.06,3.37-.46,4.97-.74,3.04-1.71,6.02-3.94,8.41-.52,.56-.78,1.36-1.19,2.13,4.58,4.03,8.96,7.87,13.32,11.73,2.34,2.07,3.5,5.24,6.58,6.69,.85,.4,1.57,1.92,1.65,2.98,.3,4,.58,8.04-.83,11.92-.22,.61-.58,1.28-1.07,1.66-3.91,3-7.88,5.91-12.94,7.26-1.12,3.82-1.4,7.9-1.31,12.09,.05,2.28-.67,4.58-1.06,6.87-.3,1.78-.93,3.57-.88,5.34,.06,2.22-.45,4.06-2.24,5.29-2.73,1.87-3.33,4.35-2.94,7.47,.4,3.2-.17,6.27-1.95,9.12-.66,1.06-.74,2.51-1.01,3.8-.4,1.93-.39,4.03-1.17,5.79-2.18,4.95-3.72,10.16-6.88,14.72-2.12,3.06-3.49,6.66-5.12,10.05-.84,1.76-1.23,3.81-2.34,5.35-.73,1.01-2.34,1.68-3.66,1.89-2.15,.34-4.39,.21-6.58,.24-2.82,.04-5.65-.25-8.18,1.54-.58,.41-1.59,.28-2.4,.3-4.06,.07-8.13-.05-12.18,.21-4.17,.27-6.9-1.94-9.29-4.85-2.32-2.82-3.68-6.12-4.77-9.61-.82-2.63-2.23-5.09-3.4-7.61-1.18-2.54-2.5-5.01-3.56-7.6-1-2.43-1.7-4.99-2.61-7.46-.96-2.61-1.96-5.21-3.06-7.76-.2-.47-.95-.94-1.49-1-2.15-.22-3-2.07-4.17-3.37-.81-.9-1.03-2.37-1.4-3.61-.35-1.17,.4-2.63-1.44-3.41-.58-.25-.44-2.12-.67-3.24-.26-1.28-1.13-2.76-.76-3.79,1.75-4.79,.17-9.67,1.07-15.11Zm36.32-46.95c4.12,.08,8.5,1.47,12.07-2.7-3.85,0-7.49-.02-11.13,.04-.34,0-.67,.58-1.01,.89h-6.25c1.82,2.95,4.14,2.09,6.32,1.77Zm-37.34-4.64c5.85-.4,11.47-.79,17.09-1.19,.16-.01,.31-.12,.47-.15,3.39-.6,6.77-1.22,10.16-1.75,.63-.1,1.31,.11,1.97,.2,1.46,.22,2.91,.63,4.38,.67,3.14,.08,6.32,.33,9.32-.98,8.4,.74,16.68-1.22,25.05-1.03,2.98,.07,5.96,.29,8.7-1.48,.87-.56,2.25-.42,3.4-.47,1.83-.07,3.65-.02,5.87-.02,.95-2.68,1.68-5.2,2.72-7.58,1.12-2.56,.28-5.45,1.16-7.82,1.73-4.68,1.94-9.4,1.86-14.24-.04-2.2-.04-4.41,.13-6.6,.12-1.63,.54-3.23,.82-4.85-2.29-1.55,.29-2.96,.22-4.5-.05-1.17,1.09-2.35,1.53-3.59,.54-1.54,1.76-3.63,1.2-4.64-1.88-3.34,.05-6.13,.67-9.04,.72-3.37,.91-6.46-.98-9.18-1.3-.24-2.29-.38-3.25-.6-2.24-.51-4.47-1.05-6.7-1.58-2.68,2.19-6.13,.17-9.1,1.81-2.09,1.16-3.78-.51-3.86-3.03-.05-1.4,.1-2.72,1.32-3.63,3.31-2.5,4.89-6.16,6.61-9.74,.5-1.03,1.18-2,1.89-2.9,3.48-4.36,5.16-9.67,6.19-14.86,.69-3.48,1.45-6.71,3.07-9.82,.59-1.14,1.47-2.76,1.08-3.68-1.52-3.62-.03-7.38-.92-10.92-.75-3.01-1.5-6.27-3.24-8.72-1.88-2.65-4.84-4.57-7.47-6.63-.84-.66-2.35-1.36-3.15-1.04-3.44,1.36-6.98,.41-10.42,.93-1.73,.26-4.13,.58-4.92,1.75-1.82,2.69-4.5,3.94-7.06,5.26-3.65,1.88-4.85,5.49-6.14,8.65-1.26,3.09-.99,6.83-1.3,10.29-.29,3.31,.44,6.7-.8,9.96-.26,.68,.13,1.61,.26,2.42,.22,1.46,.64,2.91,.68,4.38,.1,3.88,.03,7.77,.03,11.84,3.64,2.83,4.31,6.77,3.95,10.94-1,1.06-2.04,1.79-2.58,2.8-1.18,2.2-3.01,2.95-5.3,2.89-3.03-.09-5.91,.38-8.74,1.6-1.88,.81-3.64-.35-4.84-2.14-1.28-1.92-1.32-4.41-.53-5.78,1.64-2.86,1.53-6.03,2.59-8.94,1.31-3.59,1.5-7.3,.32-11.17-1.44-4.75-1.74-9.75-2.3-14.68-.46-4.08-1.45-8.09-4.81-11.02-2.03-1.77-3.5-3.87-4.36-6.58-.5-1.59-2.03-3.05-3.44-4.11-1.83-1.38-3.97-2.34-6.03-3.4-.84-.43-2.07-1.15-2.67-.85-2.73,1.37-5.61,.7-8.4,.97-3.72,.36-7.4,.98-9.55,4.4-2.17,3.45-3.99,7.11-5.88,10.73-.36,.7-.74,1.85-.42,2.37,1.76,2.85,.61,5.92,.93,8.86,.13,1.17-.29,2.52,.15,3.51,1.86,4.19,3.82,8.35,6,12.38,1.72,3.17,4.22,5.9,5.1,9.56,.21,.88,.98,1.97,1.77,2.3,4.75,2,5.92,7.4,9.84,10.16,.41,.29,.51,1.21,.52,1.84,.02,1.31-.12,2.63-.2,3.94-1.06,.59-1.87,1.25-2.79,1.52-6.6,1.89-12.93,4.88-20.04,4.7-3.14-.08-3.73,.99-2.92,4.02,.29,1.1,.5,2.25,.52,3.38,.05,2.59,.68,4.9,2.51,6.83,1.4,1.47,2.2,3.2,2.66,5.23,1.29,5.79,3.38,11.42,2.94,17.51-.12,1.68-.02,3.37-.02,4.93,1.49,1.66,2.83,3.16,4.25,4.75-1.1,8.27,1.13,16.12,3.21,24.63Zm59.65,41.13c-3.27,2.26-6.39,4.35-9.43,6.54-3.26,2.36-7.19,1.75-11.06,2.29,.56,2.36,.13,4.38,.96,6.61,.66,1.79,1.08,4.1,1.17,6.19,.19,4.06,.15,8.13,.04,12.19-.09,3.35-1.75,4.69-5.12,6.32-3.47,1.69-6.95,.38-9.88,1.42-1.07,.68-2.13,1.36-3.2,2.04,5.92,3.05,11.36,6.26,17.91,7.82,.46-1.63,.88-3.17,1.33-4.7,.87-2.94,1.58-5.93,2.67-8.78,1.11-2.9,2.81-3.9,5.33-2.86,1.3,.54,2.52,2.15,3.04,3.55,1.55,4.16,4.45,6.8,8.24,8.6,1.14-.61,2.3-.98,3.12-1.71,4.27-3.81,8.49-7.67,12.62-11.63,.76-.72,.9-2.06,1.58-2.91,.89-1.13,.56-3.55,3.05-3.12,2.9-2.45,6.94-4.07,6.13-9.13-.19-1.17,.87-2.49,.86-3.74-.02-3.66,1.59-7.11,1.15-10.85-.32-2.67-.06-5.41-.06-8.16,1.17-1.2,2.34-2.41,3.46-3.56,5.55,.03,9.19-3.28,12.25-6.16-.27-2.67-.48-4.75-.69-6.83-6.29-7.9-14.83-13.4-21.43-20.57-5.98-.77-11.27,1.31-16.95,2.2,0,1.08-.2,2.12,.03,3.05,1.33,5.34,1.37,9.35-.03,13.58-1.52,4.59-3.9,6.35-8.69,6.45-.8,.02-1.61,.1-2.7,.17-.73,1.84-1.41,3.58-2.14,5.42,5.94,1.02,6.41,1.79,6.43,10.27Zm-11.13,82.68c.34-2.09,.99-4.02,.88-5.9-.17-2.74-.9-5.45-1.37-8.18-.22-1.29-.58-2.59-.53-3.87,.06-1.43,2.13-3.27,3.03-3.27,1.23,.91,2.31,1.7,2.99,2.21,0,2.53,.16,4.41-.04,6.25-.26,2.37,1.95,3.88,1.97,5.95,.03,2.18-.64,4.37-1.05,6.81,3.05-.74,5.5-1.66,8-1.86,2.43-.19,3.58-1.43,4.34-3.41,1.76-4.57,3.95-8.9,6.56-13.07,1.34-2.14,2.38-4.48,2.8-7.22,.37-2.4,2.51-4.52,3.82-6.78,.15-.25-.03-.68,.03-1,.67-3.34,1.38-6.68,2-10.03,.12-.66-.13-1.38-.31-2.91-2.29,2.84-3.83,5.27-5.87,7.14-3.16,2.9-6.62,5.48-10.03,8.1-2.23,1.71-4.51,2.1-7.27,.68-3.68-1.88-6.22-4.86-8.96-8.11-1.01,2.25-1.97,4.29-2.82,6.38-.24,.58-.12,1.3-.26,1.94-.89,4.23-2.39,5.35-6.56,4.76-.94-.13-1.86-.57-2.72-.99-3.45-1.68-7.35-2.01-10.59-4.69-2.1-1.73-4.94-3.72-8.34-3.4,.99,3.15,2.05,6,2.75,8.94,.53,2.24,1.39,4.24,2.37,6.32,1.39,2.95,3.64,5.47,4.53,8.57,.92,3.21,2.58,5.92,4.3,8.7,1.63,2.63,4.22,3.71,6.73,2.92,2.99-.94,5.9-.73,9.62-.97Zm-17.04-89.56c-5.51,0-10.21-.03-14.92,.02-1.48,.02-2.99-.03-4.18,1.3-3.01,3.36-5.44,6.91-5.45,11.71,0,3.35,0,6.76-.56,10.05-.31,1.85-.71,3.27,.11,5.22,.6,1.43-.6,3.51-.55,5.29,.06,2.13,.64,4.25,.89,6.38,.25,2.13,1.16,3.79,3.23,5.12,3.64-2.92,6.96,.4,10.49,.81,3.97-4.01,9.19-3.43,14.13-4.14,1.94-2.41,1.99-5.14,1.24-8.01-.21-.79-.6-1.59-.55-2.37,.6-8.76-2.21-17.23-2.22-25.95,0-1.71-1.01-3.41-1.65-5.43Zm-14.29-29.96c-1.6,.27-2.68,.58-3.78,.62-2.53,.08-5.07,0-7.6,.03-2.1,.03-3.9,.84-4.47,2.96-.67,2.52-2.26,4.26-3.97,6.09-1.18,1.26-2.52,2.97-2.61,4.55-.19,3.23-1.83,5.87-2.56,8.82-.55,2.18-2.47,3.79-1.95,6.52,.44,2.27-.45,4.78-.69,7.2-.21,2.19,.62,3.25,3.01,3.65,1.38,.23,3.16,.34,4.17,1.01,2.58,1.71,4.19,.37,5.62-.56,1.48-2-1.61-2.91-.2-4.57,1.04-1.23,.6-3.18,2.18-4.29,1.36-.96,2.52-2.26,3.59-3.56,1.93-2.34,4.52-3.11,7.35-3.4,.67-.07,1.37,.1,2.01-.04,5.66-1.27,5.64-1.22,10.51-.03,1.03,.25,2.21-.1,3.49-.18-.59-1.79-1.06-3.23-1.46-4.46-2.38,.58-4.55,1.28-6.77,1.6-1.96,.28-4.47,.07-4.93-2.08-.64-2.96-3.59-5.72-1.23-9.15,.25-.36-.12-1.28-.4-1.84-.87-1.76-.78-3.44-.04-5.23,.42-1.02,.44-2.21,.7-3.64Zm30.34,9.12c2.28,1.67,4.47,3.37,6.75,4.92,2.68,1.82,7.09,.68,7.27-2.16,.2-3.18,2.25-6.63-.66-9.72-.54-.57-.48-1.72-.8-3.04-3.19,1.29-6.04,2.35-8.81,3.58-2.77,1.23-4.35,3.27-3.74,6.41Zm-10.26,15.13c1.32-.25,2.04-.23,2.6-.53,2.8-1.46,4.72-.01,6.52,1.88,.49,.52,.88,1.13,1.69,2.19,.68-3.88,1.24-7.09,1.79-10.25-1.61-1.08-2.89-1.86-4.07-2.75-1.47-1.1-2.89-1.46-4.58-.4-.63,.4-1.56,.37-2.36,.47-3.18,.38-4.15,1.49-3.5,4.55,.33,1.57,1.18,3.03,1.91,4.83Zm-4.08-18.98c-1.21,0-2.22,.29-2.92-.06-1.87-.93-3.55-2.26-5.43-3.16-.73-.35-2.05-.29-2.66,.17-.65,.48-1.33,2-1.04,2.48,1.72,2.84,.7,5.87,.88,8.79,.09,1.42,.25,2.59,1.56,3.25,2.96-2.55,7.27-3.08,9.61-6.61v-4.86Zm9.31,27.16c-.16-1.07-.32-2.19-.47-3.24-2.58-.49-3.59,1.16-4.67,2.48,.81,2.94,1.58,5.74,2.35,8.55q12.12-3.58,15.14-7.78c-4.5,1.57-8.37,2.82-12.35-.02Zm1.07-23.82c-.72-2.49-1.87-3.46-3.74-2.59-.44,.2-.31,1.63-.46,2.59h4.2Z"/>
      <path class="cls-4" d="M81.17,199.86c-.02-8.47-.49-9.25-6.43-10.27,.73-1.84,1.41-3.57,2.14-5.42,1.09-.07,1.9-.15,2.7-.17,4.79-.1,7.18-1.86,8.69-6.45,1.4-4.23,1.36-8.24,.03-13.58-.23-.93-.03-1.97-.03-3.05,5.68-.89,10.96-2.97,16.95-2.2,6.6,7.17,15.14,12.67,21.43,20.57,.21,2.08,.42,4.16,.69,6.83-3.07,2.88-6.71,6.19-12.25,6.16-1.12,1.15-2.3,2.36-3.46,3.56,0,2.76-.25,5.49,.06,8.16,.44,3.74-1.17,7.18-1.15,10.85,0,1.25-1.05,2.57-.86,3.74,.81,5.07-3.23,6.68-6.13,9.13-2.49-.42-2.15,1.99-3.05,3.12-.68,.86-.82,2.19-1.58,2.91-4.13,3.95-8.36,7.82-12.62,11.63-.82,.73-1.98,1.1-3.12,1.71-3.79-1.8-6.68-4.44-8.24-8.6-.52-1.4-1.74-3.01-3.04-3.55-2.52-1.04-4.22-.04-5.33,2.86-1.09,2.85-1.81,5.84-2.67,8.78-.45,1.53-.87,3.08-1.33,4.7-6.55-1.56-11.99-4.77-17.91-7.82,1.07-.68,2.14-1.36,3.2-2.04,2.93-1.04,6.41,.27,9.88-1.42,3.37-1.63,5.03-2.97,5.12-6.32,.11-4.06,.15-8.14-.04-12.19-.1-2.09-.51-4.4-1.17-6.19-.83-2.22-.4-4.25-.96-6.61,3.87-.55,7.8,.06,11.06-2.29,3.04-2.19,6.16-4.28,9.43-6.54Z"/>
      <path class="cls-8" d="M70.04,282.55c-3.72,.25-6.63,.03-9.62,.97-2.51,.79-5.09-.29-6.73-2.92-1.72-2.77-3.38-5.48-4.3-8.7-.89-3.1-3.14-5.62-4.53-8.57-.98-2.08-1.84-4.08-2.37-6.32-.69-2.94-1.76-5.79-2.75-8.94,3.4-.32,6.24,1.67,8.34,3.4,3.24,2.67,7.14,3,10.59,4.69,.87,.42,1.79,.86,2.72,.99,4.17,.59,5.67-.53,6.56-4.76,.13-.64,.02-1.36,.26-1.94,.86-2.08,1.82-4.13,2.82-6.38,2.74,3.25,5.28,6.22,8.96,8.11,2.76,1.42,5.04,1.03,7.27-.68,3.41-2.62,6.87-5.2,10.03-8.1,2.04-1.88,3.57-4.3,5.87-7.14,.18,1.53,.43,2.26,.31,2.91-.62,3.35-1.33,6.69-2,10.03-.06,.33,.11,.75-.03,1-1.31,2.27-3.45,4.38-3.82,6.78-.43,2.74-1.46,5.08-2.8,7.22-2.61,4.17-4.79,8.5-6.56,13.07-.76,1.98-1.91,3.22-4.34,3.41-2.5,.2-4.95,1.11-8,1.86,.41-2.44,1.08-4.63,1.05-6.81-.03-2.07-2.23-3.58-1.97-5.95,.2-1.84,.04-3.72,.04-6.25-.69-.51-1.76-1.3-2.99-2.21-.91,0-2.97,1.84-3.03,3.27-.05,1.28,.3,2.58,.53,3.87,.47,2.73,1.2,5.43,1.37,8.18,.12,1.88-.54,3.81-.88,5.9Z"/>
      <path class="cls-1" d="M53,192.99c.64,2.01,1.65,3.72,1.65,5.43,0,8.72,2.82,17.19,2.22,25.95-.05,.77,.34,1.58,.55,2.37,.75,2.87,.7,5.6-1.24,8.01-4.94,.71-10.16,.13-14.13,4.14-3.52-.41-6.85-3.73-10.49-.81-2.07-1.33-2.98-2.99-3.23-5.12-.25-2.13-.84-4.25-.89-6.38-.05-1.78,1.15-3.86,.55-5.29-.81-1.95-.42-3.37-.11-5.22,.56-3.29,.56-6.69,.56-10.05,0-4.79,2.44-8.34,5.45-11.71,1.19-1.33,2.69-1.28,4.18-1.3,4.7-.05,9.41-.02,14.92-.02Z"/>
      <path class="cls-2" d="M38.71,163.03c-.26,1.42-.28,2.61-.7,3.64-.74,1.8-.83,3.47,.04,5.23,.28,.56,.65,1.48,.4,1.84-2.37,3.43,.59,6.19,1.23,9.15,.46,2.15,2.96,2.36,4.93,2.08,2.22-.32,4.38-1.02,6.77-1.6,.4,1.23,.87,2.68,1.46,4.46-1.28,.08-2.46,.43-3.49,.18-4.87-1.19-4.85-1.23-10.51,.03-.64,.14-1.35-.03-2.01,.04-2.83,.3-5.42,1.06-7.35,3.4-1.07,1.3-2.23,2.59-3.59,3.56-1.58,1.12-1.13,3.07-2.18,4.29-1.41,1.66,1.68,2.56,.2,4.57-1.43,.94-3.04,2.28-5.62,.56-1.01-.67-2.79-.78-4.17-1.01-2.39-.39-3.23-1.46-3.01-3.65,.23-2.41,1.13-4.93,.69-7.2-.53-2.73,1.4-4.34,1.95-6.52,.74-2.94,2.37-5.59,2.56-8.82,.09-1.58,1.43-3.28,2.61-4.55,1.71-1.82,3.3-3.56,3.97-6.09,.57-2.13,2.36-2.93,4.47-2.96,2.53-.04,5.07,.05,7.6-.03,1.09-.03,2.18-.34,3.78-.62Z"/>
      <path class="cls-3" d="M69.05,172.16c-.6-3.15,.97-5.18,3.74-6.41,2.78-1.23,5.63-2.29,8.81-3.58,.32,1.33,.26,2.47,.8,3.04,2.91,3.08,.85,6.54,.66,9.72-.17,2.83-4.58,3.98-7.27,2.16-2.28-1.55-4.47-3.25-6.75-4.92Z"/>
      <path class="cls-1" d="M58.79,187.28c-.73-1.8-1.58-3.26-1.91-4.83-.65-3.06,.32-4.16,3.5-4.55,.8-.1,1.72-.07,2.36-.47,1.7-1.07,3.11-.71,4.58,.4,1.19,.89,2.46,1.67,4.07,2.75-.55,3.16-1.11,6.36-1.79,10.25-.81-1.06-1.2-1.67-1.69-2.19-1.8-1.89-3.72-3.34-6.52-1.88-.56,.29-1.28,.27-2.6,.53Z"/>
      <path class="cls-3" d="M54.71,168.3v4.86c-2.34,3.54-6.65,4.06-9.61,6.61-1.31-.66-1.47-1.83-1.56-3.25-.18-2.92,.84-5.95-.88-8.79-.29-.48,.39-2,1.04-2.48,.62-.46,1.93-.52,2.66-.17,1.88,.9,3.56,2.23,5.43,3.16,.7,.35,1.71,.06,2.92,.06Z"/>
      <path class="cls-7" d="M64.02,195.46c3.98,2.84,7.86,1.59,12.35,.02q-3.02,4.2-15.14,7.78c-.77-2.81-1.54-5.61-2.35-8.55,1.08-1.32,2.09-2.96,4.67-2.48,.15,1.05,.31,2.16,.47,3.24Z"/>
      <path class="cls-1" d="M58.79,161.6c.34-.31,.67-.89,1.01-.89,3.64-.07,7.27-.04,11.13-.04-3.57,4.17-7.95,2.78-12.07,2.7-.02-.59-.05-1.18-.07-1.77Z"/>
      <path class="cls-1" d="M58.79,161.6c.02,.59,.05,1.18,.07,1.77-2.19,.33-4.5,1.19-6.32-1.77h6.25Z"/>
      <path class="cls-3" d="M65.09,171.65h-4.2c.15-.96,.02-2.38,.46-2.59,1.87-.87,3.03,.1,3.74,2.59Z"/>
      <path class="cls-10" d="M78.02,125.24c3.56,2.12,6.86,4.47,9.31,7.97,.72,1.03,2.38,1.55,3.72,1.94,1.09,.32,2.34,.08,3.52,.09,3.41,.04,3.64,.29,3.76,4.47-3.07,1.16-5.58,3.88-9.34,3.69-5.07,3.48-10.37,2.09-15.79,1.02-3.84-.76-6.12-3-7.79-6.23-.36-.69-.79-1.33-1.46-2.45-.65,.99-1.13,1.55-1.43,2.2-1.69,3.66-4.37,6.56-7.32,9.16-1.84,1.62-4.01,2.76-6.78,2.38-3.94-.54-8.03-.3-11.86-1.22-4.07-.97-6.68-4.21-8.27-8.05-.56-1.36,.6-2.32,1.7-2.69,1.07-.36,2.32-.29,3.48-.23,3.05,.16,5.03-1.12,6.05-4.02,1.18-3.37,3.41-5.63,7.04-6.29,1.68,.02,3.36,.12,5.03,.05,2.53-.09,2.8-.51,2.81-3.51-2.6,.6-5.26,1.21-7.92,1.82-1.17-.1-2.34-.18-3.51-.29-4.34-.42-6.99-2.93-7.57-7.12-.22-1.61-.03-3.18-.97-4.8-.65-1.12-.04-2.84,1.2-4.08,2.14-2.15,4.06-4.52,5.39-6.03,8.71-1.16,14.56,.85,17.12,8.71h6.31c1.09-2.43,1.44-5.19,3.96-7.28,3.81-3.15,7.89-3.06,12.23-2.78,.17,.01,.39-.04,.5,.04,2.93,2.49,6.57,4.28,7.15,8.83,.48,3.84-.65,7.33-2.28,10.51-.74,1.44-3.14,2.12-4.9,2.89-.87,.38-1.99,.2-2.99,.27-3.34-.32-6.69-.64-10.11-.96,.51,1.01,.94,1.86,1.29,2.57,2.88-1.25,5.81-.82,8.72-.57Zm-17.96,8.7c-3-3.46-5.77-5.53-10.52-3.84-3.07,1.09-5.5,2.33-6.67,5.31-1.43,3.66-4.08,5.46-7.83,5.9-.82,.1-1.64,.14-3.43,.3,2.24,1.21,3.61,2.47,5.11,2.67,4.6,.59,9.26,.79,13.9,1.07,.61,.04,1.39-.15,1.84-.54,3.42-2.92,6.34-6.22,7.6-10.87Zm29.87,6.08c-2.31-1.8-4.86-3.22-6.64-5.29-3.68-4.28-7.91-6.65-13.66-5.7-.49,.08-.98,.14-1.52,.22-.76,.89-1.51,1.76-2.31,2.69,.85,1.69,1.52,3.42,2.51,4.94,1.5,2.28,3.48,4.32,6.37,4.37,5.16,.1,10.42,.8,15.24-1.23Zm-14.03-19.88c.34,0,.67,0,1.01,0,2.19-.03,4.31,.03,5.82-2.13,1.79-2.56,1.68-5.36,1.33-8.16-.2-1.62-3.74-4.27-5.53-4.24-3.25,.06-6.84-.91-9.22,2.43-.26,.37-.29,.93-.32,1.42-.09,1.17-.2,2.35-.18,3.52,.08,5.63,1.56,7.12,7.09,7.16Zm-34.91,.69c1.3,.16,2.4,.05,3.26,.45,4.2,1.94,6.88-.68,9.55-3.13,.64-.59,1.05-1.76,1.06-2.66,.01-4.27-3.24-8.53-8.1-8.76-4.42-.21-6.52,2.78-8.46,5.91-.94,1.51-1.59,3.18,.68,4.6,.96,.6,1.29,2.22,2.02,3.6Zm22.19,1.25q-6.46,2.33-3.46,6.99c1.77,0,4,.7,4.86-1.38,.8-1.95,.96-4.22-1.39-5.61Zm-4.2-6.64v3.39h6.58c-.41-1.73-.78-3.31-1.14-4.82-2.03,.54-3.72,.98-5.44,1.43Zm7.08,5.71c0,.24,0,.47,0,.71,.53-.07,1.07-.14,1.6-.22,.01,0,0-.3-.02-.31-.53-.07-1.06-.12-1.59-.17Z"/>
      <path class="cls-7" d="M117.27,80.52c-1.3-.24-2.29-.38-3.25-.6-2.24-.51-4.47-1.05-6.7-1.58-2.68,2.19-6.13,.17-9.1,1.81-2.09,1.16-3.78-.51-3.86-3.03-.05-1.4,.1-2.72,1.32-3.63,3.31-2.5,4.89-6.16,6.61-9.74,.5-1.03,1.18-2,1.89-2.9,3.48-4.36,5.16-9.67,6.19-14.86,.69-3.48,1.45-6.71,3.07-9.82,.59-1.14,1.47-2.76,1.08-3.68-1.52-3.62-.03-7.38-.92-10.92-.75-3.01-1.5-6.27-3.24-8.72-1.88-2.65-4.84-4.57-7.47-6.63-.84-.66-2.35-1.36-3.15-1.04-3.44,1.36-6.98,.41-10.42,.93-1.73,.26-4.13,.58-4.92,1.75-1.82,2.69-4.5,3.94-7.06,5.26-3.65,1.88-4.85,5.49-6.14,8.65-1.26,3.09-.99,6.83-1.3,10.29-.29,3.31,.44,6.7-.8,9.96-.26,.68,.13,1.61,.26,2.42,.22,1.46,.64,2.92,.68,4.38,.1,3.88,.03,7.77,.03,11.84,3.64,2.83,4.31,6.77,3.95,10.94-1,1.06-2.04,1.79-2.58,2.8-1.18,2.2-3.01,2.95-5.3,2.89-3.03-.09-5.91,.38-8.74,1.6-1.88,.81-3.64-.35-4.84-2.14-1.28-1.92-1.32-4.41-.53-5.78,1.64-2.86,1.53-6.03,2.59-8.94,1.31-3.59,1.5-7.3,.32-11.17-1.44-4.75-1.74-9.75-2.3-14.68-.46-4.08-1.45-8.09-4.81-11.02-2.03-1.77-3.5-3.87-4.36-6.58-.5-1.59-2.03-3.05-3.44-4.11-1.83-1.38-3.97-2.34-6.03-3.4-.84-.43-2.07-1.15-2.67-.85-2.73,1.37-5.61,.7-8.4,.96-3.72,.36-7.4,.98-9.55,4.4-2.17,3.45-3.99,7.11-5.88,10.73-.36,.7-.74,1.85-.42,2.37,1.76,2.85,.61,5.92,.93,8.86,.13,1.17-.29,2.52,.15,3.51,1.86,4.19,3.82,8.35,6,12.38,1.72,3.17,4.22,5.9,5.1,9.56,.21,.88,.98,1.97,1.77,2.3,4.75,2,5.92,7.4,9.84,10.16,.41,.29,.51,1.21,.52,1.84,.02,1.31-.12,2.63-.2,3.94-1.06,.59-1.87,1.25-2.79,1.52-6.6,1.89-12.93,4.88-20.04,4.7-3.14-.08-3.73,.99-2.92,4.02,.29,1.1,.5,2.25,.52,3.38,.05,2.59,.68,4.9,2.51,6.83,1.4,1.47,2.2,3.2,2.66,5.23,1.29,5.79,3.38,11.42,2.94,17.51-.12,1.68-.02,3.37-.02,4.93,1.49,1.66,2.83,3.16,4.25,4.75-1.1,8.27,1.13,16.12,3.21,24.63,5.85-.4,11.47-.79,17.09-1.19,.16-.01,.31-.12,.47-.15,3.39-.6,6.77-1.21,10.16-1.75,.63-.1,1.31,.1,1.97,.2,1.46,.22,2.91,.63,4.38,.67,3.14,.08,6.32,.33,9.32-.98,8.39,.74,16.68-1.21,25.05-1.03,2.98,.07,5.96,.29,8.7-1.48,.87-.56,2.25-.43,3.4-.47,1.83-.07,3.65-.02,5.87-.02,.95-2.68,1.68-5.2,2.72-7.58,1.12-2.56,.28-5.45,1.16-7.82,1.73-4.68,1.94-9.4,1.86-14.24-.04-2.2-.04-4.41,.13-6.6,.12-1.63,.54-3.23,.82-4.85-2.29-1.55,.29-2.96,.22-4.5-.05-1.17,1.09-2.35,1.53-3.59,.54-1.54,1.76-3.63,1.2-4.64-1.88-3.34,.05-6.13,.67-9.04,.72-3.37,.91-6.46-.98-9.18Zm-28.27,62.88c-5.07,3.48-10.37,2.09-15.79,1.02-3.84-.76-6.12-3-7.79-6.23-.36-.69-.79-1.33-1.46-2.45-.65,.99-1.13,1.55-1.43,2.2-1.69,3.66-4.37,6.56-7.32,9.16-1.84,1.62-4.01,2.76-6.78,2.38-3.94-.54-8.03-.3-11.86-1.22-4.07-.97-6.68-4.21-8.27-8.05-.56-1.36,.6-2.32,1.7-2.69,1.07-.36,2.32-.29,3.48-.23,3.05,.16,5.03-1.12,6.05-4.02,1.18-3.37,3.41-5.63,7.04-6.29,1.68,.02,3.36,.12,5.03,.06,2.53-.09,2.8-.51,2.81-3.51-2.6,.6-5.26,1.21-7.92,1.82-1.17-.1-2.34-.18-3.51-.29-4.34-.42-6.99-2.93-7.57-7.12-.22-1.61-.03-3.19-.97-4.8-.65-1.12-.04-2.84,1.2-4.08,2.14-2.15,4.06-4.52,5.39-6.03,8.71-1.16,14.56,.85,17.12,8.71h6.31c1.09-2.43,1.44-5.2,3.96-7.29,3.81-3.15,7.89-3.06,12.23-2.78,.17,.01,.39-.04,.5,.04,2.93,2.49,6.57,4.28,7.15,8.83,.48,3.84-.65,7.33-2.28,10.51-.74,1.44-3.14,2.12-4.9,2.89-.87,.38-1.99,.2-2.99,.27h0c-3.34-.32-6.69-.64-10.11-.96,.51,1.01,.94,1.86,1.29,2.57,2.88-1.25,5.81-.82,8.72-.57h0c3.56,2.12,6.86,4.47,9.31,7.97,.72,1.03,2.39,1.55,3.72,1.94,1.09,.31,2.34,.08,3.52,.09,3.41,.04,3.64,.29,3.76,4.47-3.07,1.16-5.58,3.88-9.34,3.69Z"/>
      <path class="cls-1" d="M60.07,133.94c-1.27,4.65-4.18,7.95-7.6,10.87-.45,.38-1.23,.57-1.84,.54-4.64-.28-9.29-.48-13.9-1.07-1.5-.19-2.87-1.45-5.11-2.67,1.79-.15,2.62-.2,3.43-.3,3.76-.44,6.4-2.24,7.83-5.9,1.16-2.97,3.59-4.22,6.67-5.31,4.74-1.69,7.52,.38,10.52,3.84Z"/>
      <path class="cls-1" d="M89.94,140.02c-4.82,2.03-10.07,1.33-15.24,1.23-2.89-.06-4.87-2.09-6.37-4.37-1-1.52-1.67-3.25-2.51-4.94,.79-.93,1.55-1.8,2.31-2.69,.54-.08,1.03-.14,1.52-.22,5.74-.95,9.98,1.41,13.66,5.7,1.78,2.07,4.32,3.49,6.64,5.29Z"/>
      <path class="cls-1" d="M75.9,120.14c-5.53-.05-7.01-1.53-7.09-7.16-.02-1.17,.09-2.35,.18-3.52,.04-.48,.06-1.05,.32-1.42,2.38-3.34,5.97-2.37,9.22-2.43,1.79-.03,5.32,2.62,5.53,4.24,.35,2.8,.46,5.6-1.33,8.16-1.51,2.16-3.64,2.1-5.82,2.13-.34,0-.67,0-1.01,0Z"/>
      <path class="cls-1" d="M40.99,120.83c-.73-1.38-1.06-2.99-2.02-3.6-2.27-1.42-1.61-3.09-.68-4.6,1.94-3.13,4.05-6.12,8.46-5.91,4.86,.23,8.11,4.5,8.1,8.76,0,.9-.41,2.07-1.06,2.66-2.67,2.45-5.35,5.07-9.55,3.13-.86-.4-1.96-.29-3.26-.45Z"/>
      <path class="cls-11" d="M63.18,122.08c2.35,1.39,2.19,3.67,1.39,5.61-.86,2.09-3.09,1.37-4.86,1.38q-2.99-4.66,3.46-6.99Z"/>
      <path class="cls-7" d="M58.98,115.44c1.72-.45,3.41-.9,5.44-1.43,.36,1.52,.73,3.09,1.14,4.82h-6.58v-3.39Z"/>
      <path class="cls-6" d="M66.06,121.15c.53,.05,1.06,.1,1.59,.17,.02,0,.03,.31,.02,.31-.53,.09-1.06,.15-1.6,.22,0-.24,0-.47,0-.71Z"/>
      <path class="cls-10" d="M51.48,113.21c-.42,5.54-3.18,6.87-9.02,4.59-.39-.15-.65-.54-.65-.96v-1.68c0-.83,.92-1.3,1.61-.85,.14,.09,.27,.18,.38,.28,2.52,2.12,3.53,1.86,4.86-1.27,.37-.88,.45-1.06,1.67-1.21,.64-.08,1.2,.46,1.15,1.11Z"/>
      <path class="cls-10" d="M75.4,117.66c-2.58-1.68-3.18-2.29-3.02-4.11,.09-1.08,1.5-1.51,2.14-.64,.3,.4,.55,.88,.83,1.36,.62,1.09,2.35,.81,2.73-.42,.3-.97,.48-1.94,1.22-2.46s1.77-.02,1.87,.87c.33,3.03-2.14,4.11-4.52,5.45-.39,.22-.87,.19-1.24-.05Z"/>
      <path class="cls-10" d="M46.91,91.3h0c.68,.76,.59,1.93-.2,2.58-1.17,.96-2.24,1.84-3.31,2.74-5.3,4.49-11.98,6.52-17.83,10.04-.17,.1-.58-.19-.88-.3-.5-4.39-.51-4.42,3.42-6.02,4.88-2,9.4-4.66,13.76-7.6,.87-.59,1.76-1.14,2.76-1.76,.73-.46,1.69-.33,2.27,.31Z"/>
      <path class="cls-10" d="M95.25,97.53c.26,1.29-1.06,2.35-2.31,1.95-.67-.21-1.32-.43-1.96-.67-1.07-.4-2.15-.82-3.13-1.4-2.13-1.25-4.07-2.91-6.32-3.83-1.91-.78-4.14-.74-6.23-1.08-.65-.1-1.33-.14-1.93-.37-.64-.25-.93-.61-1.06-1.6-.14-1.1,.75-2.07,1.86-2.01,2.09,.11,4.15,.47,6.27,.74,3.04,.39,5.27,1.62,7.62,3.19,1.76,1.18,3.7,2.09,5.55,3.16,.82,.47,1.47,1.03,1.65,1.92Z"/>
      <path class="cls-5" d="M35.63,215.12c-.15-4.95-2.59-10.11,1.51-14.82,.02-.02,.05-.02,.07-.01,1.44,.74,2.32,1.06,1.74,3.27-.79,3.01-2.78,6.19-.69,9.6,.24,.39-.96,1.65-1.49,2.51l-1.1-.5s-.03-.02-.03-.04Z"/>
      <path class="cls-9" d="M46.57,213.85c-.46-3.94-.9-7.76-1.36-11.74-.12-1.04,.94-1.88,1.88-1.43,.16,.08,.28,.17,.3,.28,.88,3.64,1.56,7.33,2.19,11.02,.18,1.05,.1,2.03-.78,2.78-.82,.7-2.1,.15-2.22-.92Z"/>
    </g>
  </g>
</svg>