<?xml version="1.0" encoding="UTF-8"?>
<svg id="_レイヤー_2" data-name="レイヤー 2" xmlns="http://www.w3.org/2000/svg" viewBox="0 0 156.85 236.68">
  <defs>
    <style>
      .cls-1 {
        fill: #f5e91a;
      }

      .cls-2 {
        fill: #fa1c45;
      }

      .cls-3 {
        fill: #fee4e4;
      }

      .cls-4 {
        fill: #16b15a;
      }

      .cls-5 {
        fill: #faa2ad;
      }

      .cls-6 {
        fill: #ffceba;
      }

      .cls-7 {
        fill: #fc0101;
      }

      .cls-8 {
        fill: #231815;
      }

      .cls-9 {
        fill: #fefdfe;
      }

      .cls-10 {
        fill: #fefafa;
      }

      .cls-11 {
        fill: #f03c3c;
      }
    </style>
  </defs>
  <g id="design">
    <g>
      <path class="cls-8" d="M57.24,118.71c-.42-.38-.8-1.03-1.26-1.08-2.9-.34-4.71-2.27-6.58-4.18-.67-.68-1.46-1.43-2.33-1.71-4.81-1.58-7.89-5.34-10.82-8.99-1.99-2.48-3.65-5.23-5.93-7.52-2.2-2.21-2.6-7.19-1.03-9.98,.26-.47,.68-.98,.66-1.45-.13-3.16,1.71-5.8,2.22-8.77,.71-4.14,2.08-8.12,1.54-12.52-.48-3.94,.37-7.82,1.91-11.7,1.24-3.11,1.45-6.74,1.33-10.27-.06-1.89,.4-3.84,.93-5.68,.25-.85,1.1-1.7,1.9-2.18,4.02-2.41,8.35-3.86,13.11-3.45,1.05,.09,2.06,.65,3.1,.91,1.06,.27,2.17,.36,3.21,.7,1.26,.4,2.47,.97,3.89,1.55-.19-2.51-.75-4.89-.47-7.16,.59-4.73,.81-9.6,3.38-13.87,.14-.23,.28-.5,.31-.76,.41-3.76,3.34-5.76,6.01-7.5C75.01,1.32,78.07,.11,81.65,.01c5.58-.15,10.86,.89,16.01,2.7,3.38,1.19,5.87,3.89,7.51,6.84,1.56,2.82,3.68,5.75,3.1,9.32-.68,4.25,.76,8.47,.01,12.72-.52,2.97-.91,5.97-1.4,9.18,1.51,.69,3.14,1.44,4.77,2.19,.22,.15,.44,.3,.67,.45-.02-.35-.04-.7-.05-1.05-.04-2.39-.18-4.79-.1-7.18,.08-2.47-.18-5.16,.7-7.37,1.95-4.88,3.49-10.13,7.74-13.71,2.91-2.45,6.52-3.47,10.13-4.58,3.81-1.18,7.62-.51,11.12,.24,2.87,.62,5.85,2.63,7.63,5.53,.22,.36,.63,.66,.71,1.04,1.13,5.1,2.46,10.18,3.19,15.34,.29,2.01-.86,4.2-1.22,6.33-.55,3.33-2.23,6.22-3.47,9.27-.51,1.26-1.36,2.39-2.16,3.51-1.23,1.71-2.55,3.35-3.89,5.11,5.27,2.07,7.43,6.73,9.87,11.09,.42,.75,.44,2.07,.07,2.84-1.33,2.74-.8,5.68-.35,8.27,.55,3.15-1.08,5.31-2.08,7.72-1.48,3.54-3.69,6.71-4.19,10.73-.29,2.36-1.67,4.59-2.54,6.89-.83,2.18-2.41,4.43-2.26,6.54,.22,2.92-.58,5.69-.43,8.52,.17,3.2-1.81,5.77-2.32,8.75-.18,1.06-.87,2.09-.81,3.11,.13,2.17-1.24,3.68-2.15,5.32-.45,.81-1.56,1.89-3.22,1.04-1.12-.58-2.65-.38-4.91-.64,1.46,2.14,2.38,3.59,3.39,4.97,2.56,3.46,5.17,6.89,7.77,10.34,.08,.11,.28,.19,.29,.3,.84,5.7,6.29,7.05,9.76,10.25,1.13,1.04,2.65,1.65,3.76,2.71,2.33,2.24,3.63,4.92,3.49,8.32-.07,1.72,.56,3.47,.81,5.21,.13,.94,.44,2.02,.12,2.82-1.25,3.2-2.59,6.39-4.17,9.44-.67,1.29-1.87,2.42-3.06,3.32-2.54,1.93-2.07,4.86-.77,6.77,2.19,3.21,2.26,3.75-.1,6.85-.93,1.23-.63,3.68-3.01,3.22,1.55,4.21,2.09,8.14-.4,12.1-1.86,2.95-3.43,6.08-5.29,9.03-1.74,2.76-4.91,3.53-7.58,4.96-1.88-1.67-4.4-.27-6.67-1.7-2.71-1.71-5.55-2.8-7.45-5.74-1.6-2.48-2.95-4.12-3.69-7.07-.22-.87-.7-1.67-1.19-2.79-3.07,1.82-5.78,3.42-8.5,5.02-.36,.21-.74,.48-1.14,.52-3.68,.37-6.82,2.07-10.05,3.7-1.39,.7-3.3,.37-5.12,.52-3-5.94-7.32-10.82-11.92-15.51-2.5-2.55-4.68-5.4-7.03-8.14-4.15,.9-8.29,1.88-12.47,2.69-1.66,.32-3.38,.34-5.08,.4-4.23,.14-8.13,1.24-11.85,3.35-2.33,1.33-9.17,2.25-12.78,1.92-1.66-.15-3.41-.07-5.03,.28-3.1,.67-5.83,.97-8.66-1.35-1.87-1.53-4.24-2.64-6.39-3.86-4.85-2.76-6.16-7.27-7.05-12.03-.86-4.58,.62-9.06,1.22-13.58,.46-3.44,2.14-6.22,3.72-9.11,1.1-2.01,2.45-3.9,3.34-6,.92-2.16,1.35-4.53,2.14-6.76,.31-.86,1.03-1.57,1.68-2.51-2.14-1.48-4.07-2.82-5.92-4.1-.35-2.21-.07-3.85,1.33-5.8,1.98-2.76,2.78-6.34,4.45-9.36,1.36-2.46,3-4.91,5-6.86,4.35-4.25,9.27-7.88,14.77-10.48,1.44-.68,3.37-1,5.44-.66,3.4,.56,7.01,.24,10.49-.09,2.87-.27,5.68-1.1,8.52-1.68,1.65,.11,3.3,.22,5.27,.35-1.33-2.08-2.95-1.62-4.46-1.56Zm68.92,17.05c.31,.14,.62,.28,.93,.42l-.26-1.03c-1.08-2.14-2.68-1.77-4.87-1.07,1.72,.69,2.96,1.18,4.2,1.68Zm2.82,56.73c.91,.83,1.97,1.54,2.7,2.51,.63,.84,1.07,1.93,1.25,2.96,.07,.43-.77,1.01-1.23,1.57-3.55-1.6-5.78-4.93-9.78-6.03,.34,2.08,.28,3.91,2.1,5.08,1.89,1.21,1.75,2.94,1.4,4.63-3.42,1.42-3.8-2.86-6.81-3.2,.87,1.75,1.45,3.08,2.17,4.33,.96,1.67,2.37,3.17,2.98,4.94,1.34,3.92,3.61,6.81,7.77,8.19-.1,1.05-.19,1.96-.26,2.78-2.48,.57-4.11-.07-5.92-1.56-1.47-1.21-2.53-3.59-5.09-3.16-3.81,3.92-.42,12.64,4.21,15.24,1.3,.73,2.92,.88,4.38,1.35,2.65,.85,6.24,.09,7.41-2.25,1.49-2.96,3.88-5.28,5.2-8.39,1.27-3,1.75-5.84,.59-8.84-.54-1.4-.33-2.56,.73-3.43,1.95-1.6,2.5-3.86,3.42-6.11-1.91-1.54-3.11-3.21-2.82-5.82,.14-1.25-.39-2.93-1.23-3.88-3.09-3.48-6.53-6.61-11.22-7.9-.14-.37-.18-.95-.44-1.07-.37-.17-.89-.01-1.35,0,.05,.36,0,.8,.19,1.05,.22,.29,.67,.41,1.02,.61,1.96,1.89,3.94,3.78,5.87,5.7,.24,.24,.24,.72,.37,1.16-.91,.47-1.74,.89-2.64,1.35-1.67-1.1-3.25-2.14-4.83-3.18-1.03-.59-1.92-1.75-3.77-.61,1.36,.73,2.5,1.35,3.64,1.96Zm-61.61-6.93c-1.2-.13-2.4,1.83-3.42,.34-.62-.9-.7-2.4-.53-3.56,.14-1,1.02-1.88,1.5-2.84,.42-.86,.98-1.76,1.01-2.67,.02-.69-.68-1.41-1.1-2.19-2.06,2.39-3.81,4.67-4.64,7.53-.3,1.04-.86,2.02-1.36,2.99-1.25,2.42-2.85,3.09-6.01,2.37,.33-1.32,.66-2.6,1.03-4.07-.79-.42-1.62-.86-2.6-1.37-.93,1.45-2.45,2.74-2.4,3.97,.13,3.14-2.11,4.89-3.09,7.27-1.64,0-3.09,.21-4.45-.04-3.26-.61-6.45-1.62-9.72-2.13-2.67-.42-5.42-1.21-7.95,1.11-1.04,.95-2.77,2.09-4.69,.86,1.95-1.95,3.67-4.13,6.5-4.91,.44-.12,.86-.57,1.13-.97,.6-.91,1.15-1.87,1.64-2.85,2.18-4.36,5.87-7.95,6.73-13.34-5.99-3.32-12.08-6.69-18.3-10.14-1.47,1.75-3.45,3.07-2.88,5.8,.09,.41-.53,.93-.68,1.43-.79,2.65-2.25,4.91-3.78,7.21-2.13,3.22-3.35,6.93-3.98,10.75-.47,2.86-1.01,5.8-.8,8.65,.33,4.26,1.25,8.27,5.5,10.96,1.91,1.2,4.12,1.85,5.78,3.26,1.72,1.46,3.46,1.51,5.47,1.31,3.6-.35,7.22-.59,10.84-.83,2.79-.18,5.35-.89,7.95-2.08,1.53-.7,2.81-1.96,4.85-2.12,2.92-.23,5.72-1.06,8.79-1.02,3.52,.04,7.06-1.01,10.58-2.02,4.41-1.27,6.89-4.51,10.04-7.14,.21-.17,.03-.8,.03-1.37-.73-.18-1.49-.37-2.49-.61v-4.03c-1.23,1.5-2.29,2.42-4.4,1.31,.15-1.32,.31-2.78,.48-4.25,2.09-1.25,2.03-3.28,2.17-5.42-2.5,.93-2.57,2.9-2.71,4.84Zm64.37-52.33c.85-1.51,2.22-2.83,2.18-4.1-.1-3.22,1.76-5.82,2.21-8.81,.1-.67,.54-1.32,.49-1.96-.26-3.29,1.01-6.53,.25-9.83-.08-.34,.2-.78,.37-1.14,1.06-2.26,2.26-4.46,3.17-6.78,.89-2.27,1.82-4.61,2.12-6.99,.43-3.5,1.91-6.47,3.86-9.22,2.29-3.23,1.54-6.88,1.77-10.4,.02-.35-.3-.9-.61-1.05-1.59-.78-3.17-1.83-4.86-2.08-1.64-.25-2.85-.91-4.17-1.75-1.47-.95-3.16-1.56-5.02-2.44-.69-1.38-.19-3.02,.59-4.5,2.33-4.49,4.97-8.81,7.91-12.93,.9-1.25,2.37-2.2,2.94-3.56,1.42-3.39,2.68-6.89,3.61-10.44,1.07-4.1,.65-5.77-1.16-10.3-.56-1.4-1.24-2.89-1.25-4.34-.02-3.46-2.06-5.31-4.75-6.68-3.28-1.66-6.87-1.36-10.28-.77-3.44,.59-6.35,2.1-8.62,5.25-2.02,2.8-3.32,5.78-4.61,8.86-1.55,3.69-1.64,7.57-1.61,11.46,.02,1.78,.72,3.57,.63,5.33-.2,3.75,.54,7.32,1.76,10.78,.85,2.43,.45,4.46-1.2,6.73-1.61-.33-3.49-.25-4.75-1.09-1.61-1.08-3.17-1.49-5.03-1.76-4.26-.63-6.05-2.75-5.96-7.24,.09-4.44,.59-8.88,.97-13.31,.14-1.65,.18-3.39,.76-4.89,1.13-2.88,.65-5.65,.41-8.57-.11-1.37-.89-3.08-.22-4.2,1.1-1.84,.33-3.33-.31-4.75-1.12-2.5-2.37-5.01-4.01-7.19-.92-1.22-2.65-1.97-4.16-2.56-2.3-.9-4.81-1.24-7.19-1.81-3.31-.79-6.3-.74-9.39,.15-4.06,1.17-7.32,3.15-8.52,7.7-.66,2.5-1.62,4.9-2.16,7.48-1.35,6.5-1.58,7.41-.24,13.04,1.57,6.58,4.61,12.45,9.25,17.39,1.4,1.49,2.44,2.99,2.61,5.21-.86,.71-1.65,1.84-2.61,2.02-1.47,.27-3.64,.49-4.5-.33-2.26-2.13-5.19-.82-7.56-2.08-.69-.37-2.47-.44-1.95,1.98,.38,1.78-.99,3.86-1.16,5.84-.15,1.76,.15,3.6,.49,5.36,.74,3.82,1.62,7.5,.36,11.51-.56,1.8-1.08,4.04,.21,6.28,.78,1.36,.21,3.5,.2,5.28,0,.63-.43,1.39-.2,1.87,.58,1.22-.02,2.02-.42,3.1-1.21,3.21-2.67,6.42-2.96,9.86-.27,3.23-.06,6.5-.06,9.85,3.4,.43,6.84,.9,10.28,1.26,1.11,.12,2.29-.27,3.37-.06,3.77,.72,7.49,1.69,11.25,2.39,2.44,.46,5.2,.08,7.35,1.07,2.23,1.03,5.23-.35,6.8,2.31,3.24-.7,5.59,2.37,8.81,2.05,1.18-.12,2.44,.44,3.65,.71,2.16,.47,4.68,.43,6.4,1.57,2.47,1.64,5.14,2.01,7.82,2.47,1.74,.3,3.21,.77,4.43,2.06,.55,.59,1.3,1,2.23,1.68Zm-40.83,91.59c3.02-1.19,5.67-2.56,8.49-3.26,2.5-.62,4.67-1.53,6.69-3.1,1.17-.91,2.6-1.53,3.97-2.13,1.5-.65,3.33-.81,4.56-1.76,1.62-1.26,3.16-2.91,4.07-4.73,.8-1.6-.73-3.07-1.7-4.42-.24-.33-.29-.82-.57-1.08-1.61-1.48-1.08-3.39-1.14-5.18-.05-1.52,.35-2.74,1.96-3.39,.35-.14,.61-.92,.63-1.42,.09-2.97,3.46-4.86,2.67-8.13-.06-.26,.42-.87,.74-.95,1.92-.52,2.89-1.58,2.62-3.67-.06-.43,.47-.99,.82-1.41,1.3-1.56,4.02-1.86,6.13-.54,1.35,.85,2.44,2.14,3.84,2.88,3.68,1.93,6.92,4.4,9.89,7.28,1.86,1.8,2.98,1.5,4-.99,.47-1.14,.61-2.45,1.23-3.5,2.76-4.75,3.13-6.72,1.84-11.3-.19-.66-.37-1.32-.51-2-.52-2.53-1.5-4.67-4.06-5.85-.99-.45-1.79-1.32-2.65-2.04-3.68-3.09-7.54-6.17-11.9-7.91-4.21-1.68-8.8-2.23-13.75-1.41-5.36,.89-9.96,2.94-14.93,5.52-.84-1.15-1.72-2.34-2.59-3.54-.65-.9-1.08-2.16-1.95-2.67-4.17-2.42-7.06-6.89-12.27-7.62-.25-.04-.5-.27-.71-.45-3.86-3.43-8.87-3.25-13.43-3.58-3.45-.25-7.17,.97-10.52,2.2-3.95,1.45-7.79,3.4-10.09,7.3-.28,.48-.76,.84-1.14,1.26-4.52,5.08-5.41,10.8-2.89,17.06,.61,1.52,1.83,2.86,2.15,4.41,.73,3.6,3.89,3.8,5.85,5.09,1.59-2.34,2.92-4.41,4.36-6.41,2.79-3.85,5.63-3.92,8.68-.42,1.17,1.34,2.61,2.43,3.88,3.68,.48,.46,.87,1.02,1.26,1.56,.95,1.3,1.61,2.99,2.85,3.85,3.16,2.16,4.11,5.31,4.68,8.41-2.59,4.78-6.02,8.67-9.15,12.5,3.39,3.8,6.28,7.61,9.76,10.77,3.58,3.25,5.02,8.02,8.33,11.1ZM34.73,125.63c-1.54,.81-3.04,1.5-4.45,2.34-4.07,2.45-7.41,5.8-10.8,9.06-1.19,1.15-2.58,2.42-3.06,3.9-1.16,3.58-4,6.37-4.57,10.19-.06,.41-.87,.71-1.65,1.3,9.83,5.71,19.18,11.31,29.25,15.51,1.11-.81,2.11-1.54,2.77-2.01,.32-2.73,.47-5.2,1.15-7.69,.94-3.45,3.31-5.94,5.32-8.69,2.24-3.07,4.59-6.25,8.12-7.69,4.23-1.73,7.09-4.78,9.66-7.57-1.01-3.6-1.88-6.73-2.66-9.52-6.71-1.49-12.78,.68-18.83,1.63,.12,1.26,.24,2.51,.37,3.86-1.64,.06-2.91,.87-3.56-1.02-.21-.62-1.23-1.04-1.96-1.39-1.63-.77-3.31-1.45-5.1-2.22Zm19.99-12.56c.59-7.02,1.66-13.21,3.78-19.18,.18-.51,.5-1.05,.45-1.55-.32-3.22-.72-6.42-1.09-9.63-.06-.5-.16-1.03-.07-1.51,.37-1.87,1.08-3.7,1.16-5.58,.09-1.87,.04-3.71-.81-5.68-.72-1.66-1-3.86-.51-6.1,.49-2.26,2.12-4.57,.73-7.13-1.65-3.04-3.47-5.88-5.8-8.52-2.72-3.08-5.08-6.54-7.13-10.1-.54-.93-1.08-1.67-1.84-1.83-.74-.15-1.64,.47-2.42,.73-.26,6.08,.54,12.05-2.6,17.4,.59,2.46-1.66,4.81-.31,7.31-1.02,1.98,.37,3.99-.3,6.19-1.1,3.63-1.15,7.51-2.73,11.13-1.19,2.73-1.31,5.91-2.29,8.76-.76,2.22,.15,3.67,1.4,5.17,.97,1.16,2.13,2.21,2.9,3.5,2.17,3.64,4.78,6.91,8.07,9.55,1.47,1.18,3.47,1.7,5.02,2.82,1.46,1.06,2.64,2.52,4.38,4.24Zm77.04,37.82c-.22-1.05-.18-1.69-.46-2.12-1.44-2.18-2.86-4.38-4.5-6.42-1.04-1.29-2.27-2.59-3.7-3.36-3.46-1.85-7.07-3.38-10.45-5.41-1.25-.75-3.22-.64-4.78-.4-1.05,.16-1.66,3.47-1.05,5.02,.35,.9,.91,1.75,1.51,2.52,2.63,3.4,5.3,6.77,7.93,10.11,2.74-.25,5.2-.67,7.65-.65,2.55,.01,5.11,.44,7.85,.7ZM64.63,36.96c-5.55-.6-10.42-4.59-16.39-3.41,.5,3.91,3.4,6.3,5.39,9.21,1.99,2.91,4.22,5.64,6.37,8.47,1.95-.25,4.03-.78,6.09-.69,2.17,.09,4.32,.77,7.48,1.39-4.56-4.78-7.3-9.5-8.95-14.98Zm37.22,93.37c-1.71,.65-3.33,1.44-5.04,1.85-1.6,.39-3.31,.26-4.76,1.3-.39,.28-1.07,.23-1.61,.22-2.1-.03-4.38,.38-6.27-.28-2.81-.99-5.4-2.65-7.96-4.22-1.6-.99-2.96-2.36-4.46-3.52-.9-.69-1.81-.65-2.67,.15-.84,.79-.99,1.76-.38,2.66,.85,1.24,1.65,2.89,2.88,3.44,4.92,2.19,9.3,5.66,14.75,6.57,1.87,.31,4.06,.65,5.69-.03,3.29-1.37,6.72-1.71,10.38-2.4,.4-1.78,2.31-3.59-.54-5.74Zm-29.01-9.23c2.05,1.94,3.73,3.96,5.81,5.38,2.27,1.54,4.91,2.54,7.4,3.74,.21,.1,.54-.02,.81-.06,1.23-.18,2.52-.19,3.68-.59,2.33-.8,5.15-.53,7.15-2.9-7.11-3.78-15.11-2.9-22.21-5.54-.74-.27-1.66-.04-2.65-.04ZM106.2,45.33v8.11c2.78,.92,5.42,1.79,8.41,2.78-.84-3.14-1.58-5.88-2.31-8.59-1.96-.74-3.86-1.45-6.11-2.3Zm34.59,13.3c-.86,1.94-1.57,3.52-2.27,5.09,2.22,2.33,5.08,3.07,8.42,3.43-.63-3.91-3.67-5.81-6.15-8.53Z"/>
      <path class="cls-5" d="M131.74,133.24c-.92-.68-1.67-1.09-2.23-1.68-1.22-1.3-2.7-1.76-4.43-2.06-2.68-.47-5.35-.83-7.82-2.47-1.72-1.14-4.24-1.1-6.4-1.57-1.22-.27-2.47-.83-3.65-.71-3.22,.33-5.56-2.74-8.81-2.05-1.57-2.66-4.57-1.28-6.8-2.31-2.15-1-4.9-.61-7.35-1.07-3.77-.7-7.49-1.67-11.25-2.39-1.08-.21-2.26,.18-3.37,.06-3.44-.36-6.87-.83-10.28-1.26,0-3.35-.21-6.62,.06-9.85,.29-3.45,1.76-6.65,2.96-9.86,.4-1.08,1-1.88,.42-3.1-.23-.48,.19-1.24,.2-1.87,.01-1.79,.58-3.93-.2-5.28-1.29-2.25-.77-4.49-.21-6.28,1.26-4.01,.38-7.69-.36-11.51-.34-1.76-.64-3.6-.49-5.36,.17-1.98,1.54-4.06,1.16-5.84-.52-2.43,1.26-2.35,1.95-1.98,2.37,1.27,5.3-.05,7.56,2.08,.87,.82,3.03,.6,4.5,.33,.96-.18,1.74-1.31,2.61-2.02-.18-2.22-1.21-3.72-2.61-5.21-4.64-4.95-7.68-10.81-9.25-17.39-1.34-5.62-1.12-6.54,.24-13.04,.54-2.58,1.5-4.98,2.16-7.48,1.2-4.55,4.46-6.53,8.52-7.7,3.09-.89,6.08-.93,9.39-.15,2.38,.57,4.89,.9,7.19,1.81,1.51,.59,3.25,1.34,4.16,2.56,1.64,2.17,2.88,4.69,4.01,7.19,.64,1.42,1.41,2.92,.31,4.75-.67,1.12,.11,2.83,.22,4.2,.24,2.92,.72,5.69-.41,8.57-.59,1.5-.62,3.25-.76,4.89-.38,4.43-.88,8.87-.97,13.31-.09,4.49,1.7,6.61,5.96,7.24,1.86,.28,3.41,.69,5.03,1.76,1.26,.84,3.14,.76,4.75,1.09,1.65-2.26,2.05-4.3,1.2-6.73-1.21-3.47-1.95-7.03-1.76-10.78,.09-1.76-.62-3.55-.63-5.33-.03-3.88,.06-7.77,1.61-11.46,1.3-3.08,2.59-6.06,4.61-8.86,2.27-3.15,5.18-4.66,8.62-5.25,3.41-.58,7-.89,10.28,.77,2.69,1.37,4.74,3.22,4.75,6.68,0,1.45,.69,2.94,1.25,4.34,1.81,4.53,2.23,6.2,1.16,10.3-.93,3.56-2.19,7.05-3.61,10.44-.57,1.36-2.04,2.31-2.94,3.56-2.94,4.12-5.58,8.44-7.91,12.93-.77,1.49-1.27,3.12-.59,4.5,1.86,.88,3.55,1.49,5.02,2.44,1.32,.85,2.53,1.51,4.17,1.75,1.69,.25,3.27,1.3,4.86,2.08,.31,.15,.63,.71,.61,1.05-.24,3.52,.52,7.17-1.77,10.4-1.95,2.76-3.43,5.72-3.86,9.22-.29,2.38-1.23,4.72-2.12,6.99-.91,2.32-2.11,4.52-3.17,6.78-.17,.37-.45,.81-.37,1.14,.77,3.3-.5,6.54-.25,9.83,.05,.64-.39,1.3-.49,1.96-.46,2.99-2.31,5.59-2.21,8.81,.04,1.27-1.33,2.59-2.18,4.1Zm-49.65-27.9c.29,1.73,.22,3.1,.76,4.14,.88,1.67,1.89,4.07,3.35,4.51,4.52,1.36,9.28,1.88,14.14,.31,1.91,2.32,4.23,4.03,7.58,3.41,.11-.02,.26,.1,.38,.17,2.18,1.34,3.72-.4,5.31-1.29,.56-.32,.91-1.8,.68-2.55-.29-.95-1.24-1.71-2-2.46-.07-.07-.95,.45-1.2,.86-.26,.42-.21,1.02-.28,1.42-3.26,1.02-5.63-.04-7.67-2.36,.43-1.27,.86-2.53,1.18-3.47,1.71-.81,3.11-1.7,4.64-2.16,2.5-.76,1.99-2.7,2.13-4.47,.03-.38,.48-.71,.58-1.1,.79-3.06-1.06-7.82-3.48-8.71-3.2-1.18-6.46-1-9.68,0-2.28,.71-3.21,2.36-3.57,4.65-.77,4.87,1.55,8.28,5.03,11.12q-.79,2.34-2.84,3.95c-1.57,0-2.77-.13-3.93,.03-3.35,.45-5.74-.89-6.91-4.04,.57-.54,1.14-1.08,1.92-1.82-1.07-.93-1.98-1.73-3.05-2.66-1.16,.96-2.12,1.74-3.1,2.55Zm47.7-19.49c.27-2.33-.89-3.85-1.89-5.53-2.01-3.37-5.76-4.64-8.36-7.28-.36-.37-1.46-.5-1.87-.23-.44,.29-.78,1.27-.63,1.81,.35,1.3,.9,2.43,2.29,3.25,2.81,1.66,5.16,3.86,6.58,6.97,.65,1.41,2.07,1.73,3.89,1Z"/>
      <path class="cls-7" d="M90.91,224.83c-3.31-3.08-4.75-7.85-8.33-11.1-3.48-3.16-6.37-6.97-9.76-10.77,3.12-3.83,6.56-7.72,9.15-12.5-.57-3.1-1.52-6.25-4.68-8.41-1.25-.85-1.91-2.55-2.85-3.85-.39-.54-.79-1.1-1.26-1.56-1.28-1.24-2.72-2.34-3.88-3.68-3.05-3.5-5.89-3.43-8.68,.42-1.45,1.99-2.78,4.07-4.36,6.41-1.96-1.29-5.12-1.48-5.85-5.09-.32-1.55-1.54-2.89-2.15-4.41-2.52-6.26-1.63-11.97,2.89-17.06,.38-.42,.86-.78,1.14-1.26,2.3-3.89,6.14-5.85,10.09-7.3,3.36-1.23,7.07-2.45,10.52-2.2,4.56,.33,9.57,.15,13.43,3.58,.21,.19,.45,.42,.71,.45,5.21,.73,8.1,5.21,12.27,7.62,.87,.51,1.3,1.77,1.95,2.67,.87,1.2,1.75,2.39,2.59,3.54,4.97-2.58,9.57-4.63,14.93-5.52,4.96-.83,9.54-.28,13.75,1.41,4.36,1.74,8.22,4.82,11.9,7.91,.85,.72,1.66,1.59,2.65,2.04,2.56,1.17,3.54,3.32,4.06,5.85,.14,.67,.33,1.33,.51,2,1.29,4.59,.92,6.55-1.84,11.3-.61,1.05-.76,2.36-1.23,3.5-1.02,2.49-2.15,2.79-4,.99-2.97-2.88-6.21-5.35-9.89-7.28-1.4-.73-2.49-2.03-3.84-2.88-2.1-1.31-4.82-1.01-6.13,.54-.35,.42-.87,.98-.82,1.41,.27,2.1-.7,3.16-2.62,3.67-.32,.09-.8,.7-.74,.95,.79,3.27-2.58,5.16-2.67,8.13-.02,.5-.28,1.28-.63,1.42-1.6,.65-2,1.87-1.96,3.39,.06,1.79-.47,3.71,1.14,5.18,.28,.26,.34,.75,.57,1.08,.97,1.35,2.5,2.83,1.7,4.42-.91,1.82-2.44,3.47-4.07,4.73-1.23,.96-3.06,1.11-4.56,1.76-1.38,.6-2.8,1.22-3.97,2.13-2.02,1.57-4.19,2.48-6.69,3.1-2.82,.7-5.48,2.07-8.49,3.26Z"/>
      <path class="cls-2" d="M34.73,125.63c1.79,.77,3.47,1.44,5.1,2.22,.73,.35,1.74,.77,1.96,1.39,.66,1.89,1.92,1.08,3.56,1.02-.13-1.35-.25-2.6-.37-3.86,6.05-.95,12.12-3.11,18.83-1.63,.78,2.79,1.65,5.92,2.66,9.52-2.57,2.79-5.43,5.84-9.66,7.57-3.53,1.45-5.89,4.63-8.12,7.69-2,2.75-4.38,5.23-5.32,8.69-.68,2.49-.83,4.96-1.15,7.69-.66,.48-1.66,1.21-2.77,2.01-10.08-4.2-19.43-9.81-29.25-15.51,.78-.59,1.59-.89,1.65-1.3,.57-3.83,3.42-6.61,4.57-10.19,.48-1.48,1.87-2.75,3.06-3.9,3.39-3.26,6.73-6.61,10.8-9.06,1.4-.84,2.9-1.53,4.45-2.34Z"/>
      <path class="cls-5" d="M54.72,113.07c-1.74-1.72-2.92-3.18-4.38-4.24-1.54-1.12-3.54-1.63-5.02-2.82-3.29-2.64-5.9-5.91-8.07-9.55-.77-1.28-1.93-2.33-2.9-3.5-1.26-1.5-2.17-2.95-1.4-5.17,.98-2.85,1.1-6.03,2.29-8.76,1.58-3.62,1.63-7.5,2.73-11.13,.66-2.19-.73-4.2,.3-6.19-1.35-2.5,.89-4.84,.31-7.31,3.14-5.36,2.34-11.32,2.6-17.4,.78-.27,1.68-.88,2.42-.73,.75,.15,1.3,.9,1.84,1.83,2.05,3.56,4.41,7.02,7.13,10.1,2.32,2.63,4.15,5.48,5.8,8.52,1.39,2.57-.24,4.88-.73,7.13-.49,2.25-.21,4.44,.51,6.1,.85,1.96,.9,3.8,.81,5.68-.09,1.87-.79,3.71-1.16,5.58-.1,.48,0,1.01,.07,1.51,.37,3.21,.77,6.42,1.09,9.63,.05,.5-.27,1.04-.45,1.55-2.12,5.97-3.2,12.15-3.78,19.18Z"/>
      <path class="cls-1" d="M131.76,150.89c-2.75-.26-5.3-.69-7.85-.7-2.46-.01-4.91,.4-7.65,.65-2.63-3.35-5.31-6.71-7.93-10.11-.6-.77-1.16-1.62-1.51-2.52-.61-1.55,0-4.86,1.05-5.02,1.56-.24,3.53-.35,4.78,.4,3.39,2.03,7,3.56,10.45,5.41,1.43,.76,2.67,2.07,3.7,3.36,1.64,2.03,3.06,4.24,4.5,6.42,.29,.43,.25,1.08,.46,2.12Z"/>
      <path class="cls-5" d="M64.63,36.96c1.65,5.48,4.39,10.19,8.95,14.98-3.17-.62-5.31-1.3-7.48-1.39-2.06-.09-4.14,.45-6.09,.69-2.15-2.84-4.39-5.57-6.37-8.47-1.99-2.91-4.89-5.31-5.39-9.21,5.97-1.18,10.84,2.81,16.39,3.41Z"/>
      <path class="cls-4" d="M101.85,130.33c2.85,2.15,.94,3.96,.54,5.74-3.66,.69-7.09,1.04-10.38,2.4-1.63,.68-3.82,.34-5.69,.03-5.45-.91-9.83-4.38-14.75-6.57-1.23-.55-2.03-2.2-2.88-3.44-.62-.9-.46-1.87,.38-2.66,.85-.81,1.77-.85,2.67-.15,1.5,1.16,2.86,2.53,4.46,3.52,2.56,1.57,5.16,3.24,7.96,4.22,1.89,.67,4.17,.25,6.27,.28,.54,0,1.22,.06,1.61-.22,1.46-1.03,3.16-.91,4.76-1.3,1.71-.42,3.33-1.21,5.04-1.85Z"/>
      <path class="cls-6" d="M72.85,121.09c.99,0,1.91-.24,2.65,.04,7.1,2.63,15.1,1.76,22.21,5.54-2.01,2.37-4.82,2.1-7.15,2.9-1.16,.4-2.45,.41-3.68,.59-.27,.04-.6,.16-.81,.06-2.49-1.2-5.14-2.2-7.4-3.74-2.08-1.42-3.76-3.44-5.81-5.38Z"/>
      <path class="cls-5" d="M106.2,45.33c2.25,.85,4.15,1.56,6.11,2.3,.73,2.71,1.47,5.45,2.31,8.59-2.99-.99-5.63-1.86-8.41-2.78v-8.11Z"/>
      <path class="cls-5" d="M140.79,58.62c2.48,2.71,5.52,4.62,6.15,8.53-3.34-.37-6.2-1.1-8.42-3.43,.7-1.57,1.41-3.16,2.27-5.09Z"/>
      <path class="cls-6" d="M74.31,193.72c-.73-.18-1.49-.37-2.49-.61v-4.03c-1.23,1.5-2.29,2.42-4.4,1.31,.15-1.32,.31-2.78,.48-4.25,2.09-1.25,2.03-3.28,2.17-5.42-2.5,.93-3.46,2.32-3.6,4.25-1.2-.13-1.5,2.41-2.53,.93-.62-.9-.7-2.4-.53-3.56,.14-1,1.02-1.88,1.5-2.84,.42-.86,.98-1.76,1.01-2.67,.02-.69-.68-1.41-1.1-2.2-2.06,2.39-3.81,4.67-4.64,7.53-.3,1.04-.86,2.02-1.36,2.99-1.25,2.42-2.85,3.09-6.01,2.37,.33-1.32,.66-2.6,1.03-4.07-.79-.42-1.62-.86-2.6-1.37-.93,1.45-2.45,2.74-2.4,3.97,.13,3.14-2.11,4.89-3.09,7.27-1.64,0-3.09,.21-4.45-.04-3.26-.61-6.45-1.62-9.72-2.13-2.67-.42-5.42-1.21-7.95,1.11-1.04,.95-2.77,2.09-4.69,.86,1.95-1.95,3.67-4.13,6.5-4.91,.44-.12,.86-.57,1.13-.97,.6-.91,1.15-1.87,1.64-2.85,2.18-4.36,5.87-7.95,6.73-13.34-5.99-3.32-12.08-6.69-18.3-10.14-1.47,1.75-3.45,3.07-2.88,5.8,.09,.41-.53,.93-.68,1.44-.79,2.65-2.25,4.91-3.78,7.21-2.13,3.22-3.35,6.93-3.98,10.75-.47,2.86-1.01,5.8-.8,8.65,.33,4.26,1.25,8.27,5.5,10.96,1.91,1.2,4.12,1.85,5.78,3.26,1.72,1.46,3.46,1.51,5.47,1.31,3.6-.35,7.22-.59,10.84-.83,2.79-.19,5.35-.89,7.95-2.08,1.53-.7,2.81-1.96,4.85-2.12,2.92-.23,5.72-1.06,8.79-1.02,3.52,.04,7.06-1.01,10.58-2.02,4.41-1.27,6.89-4.51,10.04-7.14,.21-.17,.03-.8,.03-1.37Z"/>
      <path class="cls-6" d="M143.36,197.3c.14-1.25-.39-2.93-1.23-3.88-3.09-3.48-6.53-6.61-11.22-7.9-.14-.37-.18-.95-.44-1.07-.37-.17-.89-.01-1.35,0,.05,.36,0,.8,.19,1.05,.22,.29,.67,.41,1.02,.61,1.96,1.89,3.94,3.78,5.87,5.7,.24,.24,.24,.72,.37,1.16-.91,.47-1.74,.89-2.64,1.35-1.67-1.1-3.25-2.14-4.83-3.18-1.03-.59-1.92-1.75-3.77-.61,1.36,.73,2.5,1.35,3.64,1.96,.91,.83,1.97,1.54,2.7,2.51,.63,.84,1.07,1.93,1.25,2.96,.07,.43-.77,1.01-1.23,1.57-3.55-1.6-5.78-4.93-9.78-6.03,.34,2.08,.28,3.92,2.1,5.08,1.89,1.21,1.75,2.94,1.4,4.62-3.42,1.42-3.8-2.86-6.81-3.2,.87,1.75,1.45,3.08,2.17,4.33,.96,1.67,2.37,3.17,2.98,4.94,1.34,3.92,3.61,6.81,7.77,8.19-.1,1.05-.19,1.96-.26,2.78-2.48,.57-4.11-.07-5.92-1.56-1.47-1.21-2.53-3.59-5.09-3.16-3.81,3.92-.42,12.64,4.21,15.24,1.3,.73,2.92,.88,4.38,1.35,2.65,.85,6.24,.09,7.41-2.25,1.49-2.96,3.88-5.28,5.2-8.39,1.27-3,1.75-5.84,.59-8.84-.54-1.4-.33-2.56,.73-3.43,1.95-1.6,2.5-3.86,3.42-6.11-1.91-1.54-3.11-3.21-2.82-5.82Z"/>
      <path class="cls-9" d="M112.26,42.38c.02,.35,.04,.7,.05,1.05-.22-.15-.44-.3-.67-.45,.2-.2,.41-.4,.61-.6Z"/>
      <path class="cls-8" d="M82.08,105.33c.98-.81,1.93-1.59,3.1-2.55,1.07,.93,1.97,1.72,3.05,2.66-.78,.74-1.35,1.28-1.92,1.82,1.17,3.15,3.56,4.5,6.91,4.04,1.16-.16,2.36-.03,3.93-.03q2.05-1.61,2.84-3.95c-3.48-2.83-5.8-6.25-5.03-11.12,.36-2.28,1.28-3.94,3.57-4.65,3.23-1,6.48-1.18,9.68,0,2.42,.89,4.27,5.65,3.48,8.71-.1,.39-.55,.72-.58,1.1-.14,1.77,.37,3.71-2.13,4.47-1.53,.46-2.93,1.35-4.64,2.16-.32,.93-.74,2.19-1.18,3.47,2.05,2.32,4.41,3.38,7.67,2.36,.06-.39,.02-1,.28-1.42,.25-.4,1.13-.93,1.2-.86,.76,.75,1.71,1.52,2,2.46,.23,.75-.12,2.24-.68,2.55-1.59,.89-3.13,2.63-5.31,1.29-.12-.07-.27-.19-.38-.17-3.35,.62-5.67-1.09-7.58-3.41-4.86,1.57-9.62,1.05-14.14-.31-1.46-.44-2.47-2.83-3.35-4.51-.55-1.04-.47-2.41-.76-4.14Zm22.1-1.22c1.25-1.06,3.13-.99,3.56-3.18,.47-2.42,.24-4.42-1.69-6.3-1.37,0-2.92,0-4.46,0-1.27,0-2.35,.61-2.49,1.8-.18,1.5-.18,3.17,.33,4.54,.28,.75,1.79,1,2.7,1.57,.7,.43,1.31,1,2.04,1.57Z"/>
      <path class="cls-8" d="M129.78,85.84c-1.82,.73-3.24,.41-3.89-1-1.42-3.11-3.77-5.3-6.58-6.97-1.38-.82-1.93-1.95-2.29-3.25-.15-.54,.19-1.52,.63-1.81,.42-.27,1.51-.15,1.87,.23,2.59,2.64,6.35,3.91,8.36,7.28,1,1.68,2.16,3.19,1.89,5.53Z"/>
      <path class="cls-11" d="M104.18,104.11c-.73-.57-1.35-1.13-2.04-1.57-.91-.56-2.42-.82-2.7-1.57-.51-1.38-.51-3.04-.33-4.54,.14-1.19,1.22-1.8,2.49-1.8,1.54,0,3.09,0,4.46,0,1.93,1.88,2.16,3.89,1.69,6.3-.43,2.19-2.31,2.12-3.56,3.18Z"/>
      <path class="cls-10" d="M84.79,160.61c-.12,1.7-1.65,3.02-3.35,2.9-.98-.07-1.96-.39-3.03-1.2-3.09-2.36-6.97-1.47-10.57-1.12-1.28,.12-2.55,.35-3.87,.61-1.63,.32-3.24-.66-3.71-2.25h0c-.36-1.22,.01-2.55,.99-3.37,2.96-2.49,6.11-4.14,9.69-4.19,2.76-.04,5.56-.48,8.48-.18,.9,.09,1.73,.56,2.27,1.28,1.68,2.24,3.31,4.56,3.1,7.51Z"/>
      <path class="cls-3" d="M55.87,164.55c.9-.6,2.11-.41,2.8,.41,1.3,1.55,1.26,2.39,.26,3.33-.99,.92-2.03,.83-3.4-.47-.96-.92-.8-2.51,.31-3.25l.04-.02Z"/>
      <path class="cls-8" d="M98.61,69.88c-5.49,3.31-10.53,6.97-17.5,6.86-1.24,.38-1.17,3.31-3.85,2.35-.11-.58-.33-1.35-.39-2.13-.06-.69,.05-1.4,.07-1.97,1.95-2.07,4.29-2.73,6.89-2.48,2.9,.27,4.84-1.9,7.31-2.72,1.75-.58,3.37-1.45,4.87-2.51,.99-.7,1.73-.88,2.41-.64,1.4,.49,1.46,2.48,.19,3.25Z"/>
      <path class="cls-8" d="M90.38,89.08c-2.83-1.9-3.09-2.72-1.74-5.62,.62-1.34,1.97-2.21,3.44-2.24,2.77-.05,3.96,1.1,4.3,4.2,.17,1.57-.61,3.1-2.01,3.85l-.04,.02c-1.25,.67-2.78,.58-3.96-.21Z"/>
      <path class="cls-8" d="M115.49,86.18h2.26c.78,0,1.52,.37,1.99,1,.31,.42,.62,.84,.9,1.28,.84,1.32,.5,3.69-.81,4.3-1.22,.57-2.62,.89-3.96,1-1.63,.14-2.71-1.14-2.93-2.44-.16-.93-.06-1.91,.09-2.97,.17-1.24,1.22-2.16,2.46-2.16Z"/>
    </g>
  </g>
</svg>