<?xml version="1.0" encoding="UTF-8"?>
<svg id="_レイヤー_2" data-name="レイヤー 2" xmlns="http://www.w3.org/2000/svg" viewBox="0 0 420 420">
  <defs>
    <style>
      .cls-1 {
        fill: #231815;
      }

      .cls-1, .cls-2, .cls-3, .cls-4, .cls-5, .cls-6, .cls-7, .cls-8 {
        stroke-width: 0px;
      }

      .cls-9 {
        stroke: #231815;
        stroke-linecap: round;
        stroke-linejoin: round;
        stroke-width: 2.84px;
      }

      .cls-9, .cls-10 {
        fill: none;
      }

      .cls-2 {
        fill: #c9caca;
      }

      .cls-10 {
        stroke: #ff1c24;
        stroke-miterlimit: 10;
        stroke-width: 23px;
      }

      .cls-3 {
        fill: gray;
      }

      .cls-4 {
        fill: #ea5514;
      }

      .cls-5 {
        fill: #e69800;
      }

      .cls-6 {
        fill: #ff1c24;
      }

      .cls-7 {
        fill: #efefef;
      }

      .cls-8 {
        fill: #ffef7f;
      }
    </style>
  </defs>
  <g id="design">
    <g>
      <rect class="cls-3" width="420" height="420"/>
      <g>
        <g>
          <path class="cls-8" d="M179.32,95.27v150.85l-25.53,1-75.52-94.66v93.65c-11.37,1.33-21.47,1.59-32.1.62V95.95c11.17,0,20.95-.35,26.73-.9l74.32,91.99v-54.91h0,0v-36.2c16.24,0,27.87-.39,32.1-.68Z"/>
          <path class="cls-8" d="M229.38,176.01c0-46.64,33.68-82.93,78.61-82.93,40.52,0,69.99,29.14,69.99,72.4,0,46.52-34.04,83.55-79.55,83.55-40.52,0-69.04-29.91-69.04-73.02ZM303.47,216.72c22.61,0,37.18-20.43,37.16-45.49.02-23.92-13.19-45.94-36.86-45.84-22.61.1-37.06,20.43-37.04,45.52-.02,24.25,13.54,45.81,36.74,45.81h0Z"/>
        </g>
        <g>
          <path class="cls-8" d="M47.15,321.1c-1.7-4.39-2.13-8.78-1.77-13.16,2.27,1.49,6.98,3.67,12.19,3.67,3.59,0,5.73-.99,5.73-2.57s-2.22-2.45-6.26-3.91c-4.06-1.47-11.6-4.16-11.6-12.79s7.03-14.01,18.46-14.01c5.01,0,9.41,1.07,11.39,1.87-.07,2.83-.88,7.52-2.59,11.56-1.7-1.35-5.52-2.92-9.86-2.92-2.39,0-3.54.62-3.54,1.76,0,1.55,2.28,2.38,6.18,3.9,4.24,1.65,11.75,4.5,11.75,13.58s-7.2,15.12-18.87,15.12c-5.39,0-9.35-1.3-11.21-2.1Z"/>
          <path class="cls-8" d="M126.6,322.87l-1.34-26.89-8.26,26.2c-3.5.62-6.91.91-10.31.81l-7.66-27.94-2.43,27.72c-4.17-.33-8.33-.54-12.49-.63l6.25-42.3c5.25-.34,10.48-.87,15.71-1.62l6.73,25.35,9.13-24.84c4.87.35,9.73.49,14.59.46l4.97,42.4c-4.37.85-9.39,1.28-14.9,1.28Z"/>
          <path class="cls-8" d="M149.72,302.37c0-13.68,10.35-24.07,23.68-24.07,11.95,0,20.84,8.14,20.84,20.59,0,13.59-10.51,24.34-24.13,24.34-11.95,0-20.39-8.48-20.39-20.85ZM179.59,301.1c0-5.33-2.65-10.5-7.68-10.5-4.42,0-7.56,4.06-7.55,9.81-.01,5.33,2.65,10.5,7.68,10.5,4.42,0,7.56-4.06,7.55-9.81Z"/>
          <path class="cls-8" d="M221.66,304.48h-2.16v17.81c-5.14.6-9.94.72-14.65.29v-43.37c7.41,0,12.71-.18,14.65-.31v16.35h2.6l10.24-16.05h15.03l-13.02,19.27,13.82,23.81-16.56.92-9.96-18.73Z"/>
          <path class="cls-8" d="M271.16,310.97v11.32c-5.14.6-9.94.72-14.65.29v-11.61l-.02-20.31v-11.45c7.41,0,12.71-.18,14.65-.31v11.75l.02,20.31Z"/>
          <path class="cls-8" d="M325.26,278.93v43.36l-9.7.56-18.81-23.04v22.48c-4.34.53-8.24.64-12.31.27v-43.37c4.75,0,8.71-.12,10.46-.21l18.06,21.51v-9.84h0,0v-11.47c6.23,0,10.68-.15,12.31-.26Z"/>
          <path class="cls-8" d="M377.85,297.68v24.61c-3.17.36-6.11.44-9.02.18l-2.24-2.36c-2.7,1.82-6.27,3.14-10.63,3.14-11.22,0-20.07-8.37-20.07-21.16,0-14.43,10.82-23.82,25.17-23.82,6.35,0,11.96,1.86,14.42,3.27-.1,2.42-.84,7.95-2.81,12.22-1.92-1.63-6.27-3.79-11.16-3.79-6.99,0-10.97,4.25-10.97,10.73,0,8.29,5.79,11.06,11.08,11.06.75,0,1.49-.05,2.21-.14v-5.31h-5.45c.4-2.87,1.19-5.81,1.19-8.62h18.28,0Z"/>
        </g>
        <g>
          <g>
            <g>
              <path class="cls-5" d="M151.75,207.57c-1.35,0-2.67.3-3.61.94-1.1.75-1.54,1.99-1.54,3.21,0,2.55-.14,2.55-.14,5.09s.14,2.55.14,5.09c0,1.23.6,2.22,1.7,2.98.94.64,2.1,1.26,3.45,1.26,2.5,0,2.5-.42,5-.42s2.5.18,5,.18,2.5.27,5,.27,2.5-.12,5-.12,2.5-.24,5-.24,2.5.4,5.01.4,3.19,1.52,5.03-.18c1.69-1.55-.16-2.32-.16-4.62s.42-2.3.42-4.6-.58-2.3-.58-4.6,2.09-3.16.4-4.72c-1.84-1.69-2.6.19-5.1.19s-2.5-.29-5-.29-2.5-.15-5-.15-2.5.4-5,.4-2.5.02-5,.02-2.5.01-5.01,0-2.5-.11-5.01-.11Z"/>
              <path class="cls-9" d="M151.75,207.57c-1.35,0-2.67.3-3.61.94-1.1.75-1.54,1.99-1.54,3.21,0,2.55-.14,2.55-.14,5.09s.14,2.55.14,5.09c0,1.23.6,2.22,1.7,2.98.94.64,2.1,1.26,3.45,1.26,2.5,0,2.5-.42,5-.42s2.5.18,5,.18,2.5.27,5,.27,2.5-.12,5-.12,2.5-.24,5-.24,2.5.4,5.01.4,3.19,1.52,5.03-.18c1.69-1.55-.16-2.32-.16-4.62s.42-2.3.42-4.6-.58-2.3-.58-4.6,2.09-3.16.4-4.72c-1.84-1.69-2.6.19-5.1.19s-2.5-.29-5-.29-2.5-.15-5-.15-2.5.4-5,.4-2.5.02-5,.02-2.5.01-5.01,0-2.5-.11-5.01-.11Z"/>
            </g>
            <g>
              <path class="cls-7" d="M186.61,207.44c-1.68,1.57.58,2.47.58,4.77s.13,2.3.13,4.6-.73,2.3-.73,4.6-1.2,2.71.48,4.29c1.78,1.68,2.15.97,4.6.97s2.45-.88,4.9-.88,2.45.91,4.9.91,2.45.02,4.9.02,2.45-.5,4.89-.5,2.45-.42,4.9-.42,2.45-.27,4.89-.27,2.45,1.21,4.9,1.21,2.45-.91,4.9-.91,2.45-.44,4.9-.44,2.45.78,4.9.78,2.45.14,4.9.14,2.45.3,4.9.3,2.45-.54,4.9-.54,2.45-.56,4.91-.56,2.58,1.6,4.37-.08c1.68-1.57.8-1.73.8-4.02s-.73-2.3-.73-4.6.2-2.3.2-4.6,2.19-3.28.51-4.86c-1.78-1.68-2.69-.47-5.13-.47s-2.45,1.26-4.9,1.26-2.45-1.29-4.9-1.29-2.45,1.44-4.9,1.44-2.45-1.43-4.89-1.43-2.45.27-4.9.27-2.45-.24-4.89-.24-2.45,1.46-4.9,1.46-2.45-1.2-4.9-1.2-2.45.96-4.9.96-2.45-.12-4.9-.12-2.45-.25-4.9-.25-2.45-.33-4.9-.33-2.45.52-4.9.52-2.37-.42-4.76-.96c-2.63-.59-3.42-1.2-5.21.48Z"/>
              <path class="cls-9" d="M186.61,207.44c-1.68,1.57.58,2.47.58,4.77s.13,2.3.13,4.6-.73,2.3-.73,4.6-1.2,2.71.48,4.29c1.78,1.68,2.15.97,4.6.97s2.45-.88,4.9-.88,2.45.91,4.9.91,2.45.02,4.9.02,2.45-.5,4.89-.5,2.45-.42,4.9-.42,2.45-.27,4.89-.27,2.45,1.21,4.9,1.21,2.45-.91,4.9-.91,2.45-.44,4.9-.44,2.45.78,4.9.78,2.45.14,4.9.14,2.45.3,4.9.3,2.45-.54,4.9-.54,2.45-.56,4.91-.56,2.58,1.6,4.37-.08c1.68-1.57.8-1.73.8-4.02s-.73-2.3-.73-4.6.2-2.3.2-4.6,2.19-3.28.51-4.86c-1.78-1.68-2.69-.47-5.13-.47s-2.45,1.26-4.9,1.26-2.45-1.29-4.9-1.29-2.45,1.44-4.9,1.44-2.45-1.43-4.89-1.43-2.45.27-4.9.27-2.45-.24-4.89-.24-2.45,1.46-4.9,1.46-2.45-1.2-4.9-1.2-2.45.96-4.9.96-2.45-.12-4.9-.12-2.45-.25-4.9-.25-2.45-.33-4.9-.33-2.45.52-4.9.52-2.37-.42-4.76-.96c-2.63-.59-3.42-1.2-5.21.48Z"/>
            </g>
            <g>
              <path class="cls-4" d="M271.37,207.49c-3.11,0-3.76-1.77-6.26.07-1.85,1.37-.14,2.35-.14,4.65s.23,2.3.23,4.6-.12,2.3-.12,4.6-1.7,3.12.15,4.49c2.5,1.85,3.03.3,6.14.3,1.35,0,2.61-.52,3.55-1.16,1.1-.75,1.74-1.9,1.74-3.13,0-2.55.06-2.55.06-5.09s.11-2.55.11-5.09c0-1.23-.75-2.45-1.85-3.2-.94-.64-2.25-1.03-3.6-1.03Z"/>
              <path class="cls-9" d="M271.37,207.49c-3.11,0-3.76-1.77-6.26.07-1.85,1.37-.14,2.35-.14,4.65s.23,2.3.23,4.6-.12,2.3-.12,4.6-1.7,3.12.15,4.49c2.5,1.85,3.03.3,6.14.3,1.35,0,2.61-.52,3.55-1.16,1.1-.75,1.74-1.9,1.74-3.13,0-2.55.06-2.55.06-5.09s.11-2.55.11-5.09c0-1.23-.75-2.45-1.85-3.2-.94-.64-2.25-1.03-3.6-1.03Z"/>
            </g>
          </g>
          <g>
            <path class="cls-2" d="M264.19,196.13c-.33,0-.65-.03-.96-.09-1.8-.34-4.09-.92-5.81-2.38l-.64-.54c-1.43-1.19-2.91-2.42-3.77-3.92-1.31-2.29-1.06-4.77-.94-5.96.01-.11.02-.21.03-.29-.16-.55-.38-1.1-.62-1.67-.47-1.14-.97-2.32-.91-3.65.06-1.41.62-2.61,1.12-3.67.28-.59.54-1.14.67-1.64.22-.85.22-1.78.22-2.68,0-.86,0-1.76.2-2.59l.06-.26c.49-2.04.53-2.61-.04-3.07-.07-.05-.14-.12-.22-.2-.16-.16-.66-.64-2.95-.72-.3-.01-.63-.03-.98-.04-.75-.04-1.63-.08-2.63-.08h-.88c-.68,0-1.34-.02-1.96-.04-.54-.02-1.06-.04-1.55-.04-.23,0-.46,0-.68.02-.66.03-1.33.41-2.04.82-.75.42-1.52.86-2.41.94-.32.03-.62.04-.92.04-.88,0-1.64-.1-2.32-.2-.5-.07-.93-.13-1.29-.13h-.16c-.25.02-.49.03-.73.03-1.54,0-2.72-.31-4.25-.84l-.73-.25c-1.56-.53-2.9-.98-3.81-2.11-.52-.65-.88-1.34-1.22-2-.32-.62-.62-1.21-1.05-1.74-.71-.89-1.46-1.74-2.83-2.45-1.16-.6-2.37-.98-3.83-1.19-1.11-.16-2.08-.24-2.98-.24-.4,0-.8.02-1.2.05-.79.07-1.58.07-2.34.08-.75,0-1.45,0-2.16.07-.33.03-.66.04-.99.04-1,0-1.94-.12-2.94-.24l-.7-.08s-.08,0-.11,0c-.33,0-.79.12-1.28.24-.65.16-1.39.35-2.16.35-.56,0-1.09-.1-1.56-.3-1.14-.48-2.16-1.27-3.05-1.98-.3-.23-.59-.46-.88-.68-.95-.69-1.54-1.64-2.07-2.48-.28-.44-.54-.86-.81-1.16-1.11-1.26-1.68-2.56-2.19-3.71l-.09-.22c-.16-.37-.36-.74-.54-1.1-.73-1.4-1.55-2.98-.63-4.43.82-1.29,2.46-1.54,4.2-1.81.44-.07.9-.14,1.35-.23.38-.08.84-.24,1.33-.42,1-.36,2.13-.77,3.45-.77h.26c.4,0,.81-.01,1.24-.03.48-.02.96-.03,1.46-.03.78,0,1.43.04,2.03.12,1.07.15,2.01.71,2.83,1.2.6.36,1.17.7,1.69.83,1.09.28,2.1.69,3.07,1.1.46.19.91.38,1.38.56.5.19,1.11.28,1.76.37.94.14,2,.29,2.98.81.58.31,1.21.57,1.82.82,1,.41,2.04.84,2.87,1.5,1.12.88,1.88,1.97,2.55,2.93.28.4.55.79.83,1.13.76.91,1.15,1.95,1.49,2.87.24.63.46,1.23.75,1.63.63.87,1.56,1.58,2.54,2.33.29.22.58.45.87.68.87.69,2.08,1.55,3.81,2.12.41.13.82.28,1.23.43,1.15.42,2.24.81,3.21.86.63.03,1.27.05,1.92.05,1.09,0,2.01-.06,2.81-.19.7-.11,1.43-.49,2.21-.89.71-.37,1.45-.75,2.26-.98,1.01-.29,2.03-.31,2.93-.33.75-.02,1.45-.03,2-.19.62-.18,1.2-.48,1.83-.8.93-.48,1.89-.97,3-1.05.55-.04,1.23-.09,1.89-.09,1.08,0,2.68.12,4,1.14,1.85,1.42,2.32,3.89,2.71,5.88.37,1.89.26,3.87.12,5.74-.17,2.3-.37,4.1-.6,5.49-.34,2.04-1.04,3.53-1.6,4.73-.19.41-.37.79-.51,1.16-.79,2.02-.58,2.88.17,4.64.11.26.21.52.32.79.41,1.06.77,1.98,1.51,2.44.27.17.55.35.84.54,1,.65,2.03,1.32,3.03,1.67,1.07.37,2.15.7,3.15,1.01l1.28.4c.62.2,1.28.32,1.92.45,1.58.31,3.55.69,3.54,2.59,0,1.84-2.11,2.81-4.33,3.84-1,.46-2.06.53-3.08.6-.43.03-.87.05-1.31.12-.38.05-.77.15-1.19.25-.73.18-1.49.36-2.33.36h0Z"/>
            <path class="cls-1" d="M197.97,135.9c.61,0,1.23.03,1.84.11,1.49.21,2.82,1.62,4.36,2.01,1.48.37,2.85,1.06,4.3,1.61,1.45.55,3.21.38,4.57,1.1,1.61.85,3.35,1.29,4.48,2.19,1.42,1.12,2.24,2.73,3.17,3.86,1.12,1.34,1.29,3.2,2.19,4.43.96,1.32,2.37,2.23,3.68,3.27,1.12.89,2.45,1.77,4.25,2.36,1.62.53,3.24,1.28,4.81,1.36.65.03,1.32.06,1.99.06,1.04,0,2.07-.05,3.04-.21,1.64-.26,3.1-1.47,4.63-1.91,1.64-.46,3.46-.09,4.94-.52,1.71-.5,3.08-1.69,4.54-1.8.59-.04,1.2-.09,1.79-.09,1.16,0,2.26.17,3.13.84,1.41,1.09,1.82,3.14,2.18,5.02.33,1.69.24,3.55.1,5.36-.15,1.96-.33,3.86-.58,5.36-.42,2.55-1.48,4.18-2.03,5.6-.95,2.44-.66,3.71.18,5.71.6,1.43,1.01,3.02,2.38,3.88,1.27.8,2.68,1.84,4.17,2.35,1.56.53,3.13.99,4.46,1.41,2.14.67,4.47.6,4.47,1.69,0,.93-1.8,1.76-3.51,2.56-1.14.52-2.53.39-4,.6-1.13.16-2.21.6-3.32.6-.23,0-.46-.02-.7-.06-1.97-.38-3.81-.92-5.16-2.07-1.49-1.26-3.24-2.58-4.09-4.08-1.41-2.46-.62-5.34-.73-5.75-.47-1.83-1.6-3.41-1.53-5.05.08-1.86,1.34-3.42,1.74-5.01.49-1.89.08-3.83.43-5.3.5-2.09.94-3.64-.47-4.76-.3-.24-.79-1.12-4.01-1.23-.95-.03-2.16-.12-3.66-.12-.16,0-.33,0-.5,0-.13,0-.25,0-.38,0-1.27,0-2.45-.09-3.51-.09-.26,0-.51,0-.75.02-1.8.09-3.21,1.65-4.5,1.77-.27.02-.54.03-.8.03-1.43,0-2.61-.32-3.61-.32-.08,0-.16,0-.24,0-.22.01-.44.02-.65.02-1.38,0-2.43-.29-3.78-.76-1.8-.63-3.15-.97-3.9-1.91-.89-1.11-1.27-2.49-2.27-3.74-.74-.93-1.65-1.98-3.28-2.83-1.46-.76-2.9-1.14-4.28-1.34-1.07-.15-2.13-.25-3.18-.25-.44,0-.88.02-1.32.05-1.48.13-2.98.02-4.49.15-.29.03-.58.04-.87.04-1.14,0-2.25-.17-3.48-.31-.09-.01-.18-.02-.28-.02-1.04,0-2.28.59-3.45.59-.35,0-.69-.05-1.01-.19-1.32-.55-2.51-1.67-3.64-2.49-1.19-.87-1.75-2.42-2.64-3.43-1.03-1.17-1.54-2.41-2.05-3.56-.71-1.61-1.91-3.19-1.27-4.2.62-.98,2.67-1.02,4.63-1.41,1.31-.26,2.81-1.16,4.51-1.16.02,0,.04,0,.06,0,.07,0,.13,0,.2,0,.85,0,1.76-.06,2.69-.06M197.97,133.07h0c-.51,0-1.01.02-1.5.03-.41.01-.81.03-1.19.03h-.16s-.09,0-.09,0c-1.56,0-2.88.47-3.93.85-.44.16-.85.31-1.13.36-.43.09-.87.15-1.29.22-1.89.29-4.03.62-5.19,2.46-1.35,2.14-.2,4.37.57,5.85.19.36.36.7.5,1.02l.09.21c.52,1.18,1.16,2.65,2.42,4.08.19.22.42.59.67.98.56.9,1.26,2.02,2.44,2.87.27.2.55.42.84.64.96.76,2.06,1.61,3.38,2.17.65.27,1.36.41,2.11.41.95,0,1.81-.22,2.51-.39.3-.08.75-.19.92-.2l.66.08c.99.12,2.02.25,3.11.25.38,0,.75-.02,1.12-.05.65-.06,1.33-.06,2.04-.06.79,0,1.6,0,2.45-.08.34-.03.7-.04,1.07-.04.83,0,1.73.07,2.77.22,1.29.19,2.37.52,3.38,1.04,1.13.59,1.74,1.29,2.38,2.08.34.42.6.93.9,1.51.36.69.76,1.47,1.37,2.23,1.16,1.45,2.77,2,4.46,2.57.23.08.47.16.72.25,1.62.57,2.98.92,4.71.92.26,0,.53,0,.81-.02h.07c.26,0,.67.05,1.1.11.68.09,1.54.21,2.51.21.35,0,.71-.02,1.05-.05,1.19-.11,2.14-.65,2.98-1.12.51-.29,1.09-.62,1.41-.63.2-.01.4-.01.61-.01.48,0,.98.02,1.5.04.64.02,1.3.05,2.01.05.14,0,.28,0,.42,0,.15,0,.31,0,.46,0,.96,0,1.81.04,2.56.08.36.02.7.03,1,.04,1.36.05,1.88.25,1.99.3l.02.02c.07.07.14.14.21.19-.02.38-.2,1.15-.34,1.73l-.06.26c-.24,1-.24,1.97-.24,2.92,0,.85,0,1.65-.18,2.33-.09.37-.33.86-.57,1.39-.53,1.12-1.19,2.51-1.26,4.21-.07,1.64.51,3.03,1.02,4.25.18.44.36.87.49,1.27,0,0,0,0,0,0-.13,1.23-.42,4.12,1.12,6.8.99,1.73,2.64,3.1,4.09,4.31.21.18.42.35.63.53,1.97,1.67,4.49,2.31,6.46,2.69.4.08.81.11,1.23.11,1.01,0,1.89-.21,2.66-.4.38-.09.74-.18,1.05-.22.38-.05.78-.08,1.21-.11,1.1-.07,2.34-.15,3.59-.72,2.41-1.11,5.15-2.38,5.16-5.12,0-3.08-3.17-3.69-4.69-3.99-.6-.12-1.22-.24-1.76-.41-.41-.13-.84-.26-1.29-.4-1.02-.31-2.07-.64-3.11-.99-.84-.29-1.79-.91-2.72-1.51-.29-.19-.58-.38-.86-.55-.34-.22-.64-.96-.95-1.76-.11-.28-.22-.55-.33-.82-.62-1.48-.78-1.97-.15-3.57.12-.31.28-.66.48-1.07.57-1.21,1.34-2.87,1.71-5.1.24-1.43.44-3.27.61-5.62.15-1.96.26-4.05-.14-6.11-.41-2.1-.97-4.98-3.24-6.73-1.66-1.28-3.57-1.43-4.86-1.43-.72,0-1.43.05-2,.1-1.39.11-2.53.69-3.54,1.2-.56.29-1.09.56-1.58.7-.37.11-.99.12-1.64.13-.99.02-2.1.04-3.29.38-.95.27-1.79.7-2.53,1.08-.67.35-1.31.68-1.78.75-.73.12-1.57.17-2.59.17-.55,0-1.16-.02-1.85-.05-.76-.04-1.75-.4-2.8-.77-.42-.15-.84-.3-1.27-.44-1.51-.5-2.59-1.27-3.37-1.89-.3-.23-.6-.46-.89-.69-.9-.69-1.75-1.33-2.26-2.03-.18-.25-.38-.78-.57-1.29-.36-.97-.81-2.18-1.73-3.28-.23-.28-.49-.65-.76-1.04-.69-.99-1.55-2.21-2.83-3.23-.99-.78-2.12-1.25-3.21-1.7-.61-.25-1.18-.49-1.7-.76-1.19-.63-2.44-.81-3.44-.96-.57-.08-1.11-.16-1.47-.3-.45-.17-.9-.35-1.34-.54-1.02-.43-2.08-.87-3.27-1.17-.31-.08-.82-.38-1.3-.67-.89-.54-2-1.2-3.36-1.39-.67-.09-1.38-.14-2.23-.14h0Z"/>
          </g>
        </g>
        <g>
          <path class="cls-6" d="M211.56,128.02c45.05,0,81.7,36.65,81.7,81.7s-36.65,81.7-81.7,81.7-81.7-36.65-81.7-81.7,36.65-81.7,81.7-81.7M211.56,105.02c-57.82,0-104.7,46.88-104.7,104.7s46.88,104.7,104.7,104.7,104.7-46.88,104.7-104.7-46.88-104.7-104.7-104.7h0Z"/>
          <line class="cls-10" x1="145.7" y1="143.86" x2="277.42" y2="275.58"/>
        </g>
      </g>
    </g>
  </g>
</svg>