<?xml version="1.0" encoding="UTF-8"?>
<svg id="_レイヤー_2" data-name="レイヤー 2" xmlns="http://www.w3.org/2000/svg" viewBox="0 0 307.79 182.59">
  <defs>
    <style>
      .cls-1 {
        fill: #994729;
      }

      .cls-2 {
        fill: #faa2ad;
      }

      .cls-3 {
        fill: #231815;
      }

      .cls-4 {
        fill: #f03c3c;
      }
    </style>
  </defs>
  <g id="design">
    <g>
      <path class="cls-3" d="M24.21,161.08c.47-4.22,1.68-7.36,5.53-8.96,3.48-1.44,6.91-.71,10.64,.14,.39-2.81-1.25-4.51-2.3-6.32-1.73-3-3.2-6.03-3.26-9.58-.01-.86-.06-1.73,0-2.58,.32-4.3,.77-8.58,.98-12.88,.17-3.57,1.66-6.32,4.6-8.21,3.87-2.49,7.72-5.05,11.81-7.15,1.87-.96,4.26-1.14,6.44-1.23,2.65-.11,5.34,.49,7.99,.34,3.69-.21,7.19,.48,10.32,2.19,3.3,1.8,6.75,3,10.28,4.12,.71,.22,1.47,.43,2.05,.86,3.64,2.72,7.31,1.4,10.94,.11,2.93-1.04,5.74-2.49,8.72-3.34,3.61-1.03,6.94-2.36,9.95-4.74,1.69-1.33,3.99-1.9,6.05-2.74,7.74-3.15,14.92-7.11,21.26-12.72,6.56-5.81,13.64-11.02,20.29-16.73,2.68-2.3,4.81-5.24,7.19-7.88,1.98-2.2,3.88-4.47,5.95-6.58,3.42-3.5,7.24-6.58,9.39-11.22,.97-2.09,2.77-3.83,4.35-5.6,1.53-1.72,3.73-1.4,5.42-.66,2.69,1.18,5.26,2.74,7.62,4.49,1.92,1.43,3.78,2.73,6.36,3.41,.39-5.55,.97-10.84,1.07-16.15,.06-3.22,.68-6.26,2-9.06,1.96-4.15,4.12-8.23,6.55-12.12,4.1-6.57,10.59-9.27,17.97-10.17,1.62-.2,3.28-.12,4.92-.04,2.76,.14,5.21,1,7.09,3.21,1.06,1.24,2.24,2.38,3.4,3.53,3.91,3.87,4.95,8.64,4.37,13.91-.62,5.61-1.65,11.11-3.34,16.53-1.2,3.86-3.49,6.83-6.32,9.53-1.82,1.74-3.49,3.67-5.45,5.23-2.08,1.66-4.42,2.99-6.64,4.47-1.09,.72-2.19,1.45-3.49,2.31,1.72,2.81,4.87,2.99,7.05,4.6,2.12,1.57,4.38,2.95,6.73,4.51,1.64-1.63,2.54-3.17,2.91-5.16,.27-1.43,.79-2.9,1.56-4.13,5.02-8.01,9.64-16.27,15.78-23.56,3.84-4.56,8.79-6.32,14.29-7.28,1.74-.3,3.51-.45,5.26-.76,4.08-.73,7.56,.03,10.52,3.25,4.79,5.22,7.5,11.37,8.75,18.22,.18,.96-.02,2.11-.4,3.02-1.64,3.97-3.23,7.99-5.19,11.81-2.27,4.43-5.96,7.28-10.89,8.51-3.73,.93-7.17,2.61-10.64,4.29-3.82,1.85-8.08,2.79-12.49,4.23,.51,.74,.88,1.77,1.62,2.27,1.71,1.15,3.59,2.04,5.4,3.05,1.41,.79,2.97,1.42,4.18,2.45,2.36,2.01,2.82,4.27,1.67,7.14-1.44,3.6-3.07,7.09-6.23,9.61-1.13,.9-2.03,2.1-3.25,3.39,2.24,1.65,4.33,2.97,6.14,4.61,1.4,1.27,2.68,2.8,3.54,4.46,.54,1.05,.7,2.77,.21,3.79-2.12,4.42-4.41,8.84-10.3,10-.38,2.24-.92,4.53-1.12,6.85-.4,4.7-2.59,8.8-4.18,13.09-1.18,3.18-2.17,6.53-4.77,8.98-1.49,1.4-2.98,2.81-4.49,4.18-.32,.29-.97,.34-1.12,.67-1.56,3.3-4.59,2.95-7.44,3.1-7.25,.38-14.49,.74-21.74,1.13-5.19,.28-10.38,.71-15.57,.84-2.81,.07-5.62-.38-8.43-.58-.89-.06-1.79-.16-2.67-.1-6.52,.42-13.04,.9-19.56,1.31-2.53,.16-5.06,.22-7.59,.25-3.42,.04-6.67,.56-10.04,1.4-4.69,1.17-9.7,1.26-14.59,1.4-3.72,.1-7.45-.18-11.04,1.04-4.9,1.67-8.73,.22-11.77-3.79-.44-.58-.91-1.14-1.62-2.03-1.36,.51-2.76,.9-4.05,1.52-7.29,3.52-14.95,5.46-23.05,5.94-6.65,.39-13.33,.72-19.86,2.3-1.85,.45-3.84,.48-5.77,.48-7.01,.02-14.02,.09-21.02-.14-3.84-.12-7.67-.77-11.49-1.23-1.76-.21-3.51-.55-5.27-.82-1.74-.27-3.1,.24-4.37,1.59-2.79,2.98-6.32,4.24-10.44,4.08-3.42-.13-6.86-.01-10.28-.07-5.93-.09-9.08-4.7-7.2-10.36,1.37-4.14,4.29-6.79,8.19-8.27,4.85-1.84,9.85-3.23,15.48-2.8Zm201.25-13.24c.37,1.51,.67,2.92,1.06,4.31,.94,3.33,8.36,10.31,11.91,10.56,3.2,.23,6.46-.32,9.69-.62,3.11-.29,5.45-1.88,7.42-4.3,5.37-6.59,8.42-14.09,9.4-22.51,.52-4.5,1.23-8.82,6.79-10.1,2.52-.58,3.35-3.2,4.69-5.11,.21-.3,.16-.9,.05-1.3-.42-1.51-5.24-4.55-6.82-4.19-2.45,.56-4.9,1.18-7.25,2.02-2.61,.94-4.11,2.68-3.77,5.78,.24,2.19-.11,4.43,1.24,6.44,.38,.56,.57,1.45,.43,2.1-.77,3.59-1.27,7.32-2.64,10.69-1.77,4.36-4.01,8.59-6.54,12.56-2.43,3.82-9.53,5.01-13.7,3.07-4.02-1.87-5.43-5.71-7.36-9.14-1.59-2.83-1.13-4.02,1.59-5.97,1.2-.86,2.42-1.7,3.53-2.65,2.92-2.5,5.75-5.12,8.7-7.58,4.22-3.53,8.6-6.93,9.88-12.7,.71-3.18,2.67-5.19,5.48-6.59,1.03-.52,2.08-1.13,2.9-1.92,1.9-1.82,3.63-3.84,5.51-5.68,3.7-3.61,7.78-6.93,8.88-12.84-.98-.62-1.99-1.64-3.17-1.94-4.9-1.25-7.88-5.18-11.56-8.09-2.43-1.91-1.94-4.64,.8-6.11,.76-.41,1.64-.67,2.49-.85,2.88-.62,5.77-1.21,8.66-1.73,2.1-.38,3.83-1.23,5.45-2.72,2.33-2.15,5.22-3.59,8.43-3.5,5.2,.16,8.36-2.65,10.54-6.82,1.57-3,2.77-6.2,4.04-9.35,.32-.79,.44-1.77,.31-2.62-.8-5.56-2.89-10.56-6.95-14.54-1.71-1.67-3.72-2.89-6.36-1.9-.81,.3-1.76,.25-2.65,.31-7.04,.43-13,2.67-16.27,9.56-.63,1.33-1.44,2.6-2.31,3.79-3.49,4.78-5.49,10.57-10.07,14.6-.43,.37-.93,.97-.93,1.47,0,3.64-2.55,6.24-3.7,9.41-.8,2.21-1.91,2.68-4.16,2.21-1.52-.32-3.06-1.88-4.56-.44-1.15,1.11-1.9,2.63-2.76,4.02-.3,.49-.31,1.16-.61,1.65-.93,1.51-1.94,2.4-4.01,1.48-2.38-1.05-4.99-1.59-7.49-2.38-.27-.09-.59-.26-.73-.48-1.21-1.95-.52-4.93-3.28-6.1-.22-.09-.28-.85-.21-1.25,.18-1,.4-2.01,.75-2.97,.41-1.11,1.07-2.12,1.46-3.24,.27-.79,.48-1.69,.37-2.5-.46-3.34-.28-4.28,2.49-5.74,5.66-2.99,10.84-6.55,15.45-11.03,3.15-3.06,5.98-6.12,6.55-10.75,.47-3.81,1.27-7.58,1.85-11.38,.31-2.03,.68-4.1,.65-6.14-.05-3.58-7.01-11.09-10.51-11.29-1.89-.11-3.82,.36-5.72,.63-5.93,.86-10.58,3.49-13.12,9.25-1.13,2.56-2.61,4.97-3.89,7.47-.86,1.69-1.84,3.35-2.43,5.13-.82,2.5-1.61,19.55-1.23,22.47,.23,1.79-.43,3.21-1.77,4.3-1.24,1.02-2.47,.52-3.71-.19-3.32-1.91-6.64-3.75-9.73-6.11-4.57-3.49-6.28-5.13-10.34,1.79-1.75,2.98-3.81,5.62-6.32,8-2.9,2.75-5.64,5.68-8.35,8.62-1.8,1.96-3.27,4.25-5.19,6.08-2.9,2.76-6.07,5.25-9.13,7.84-2.88,2.42-6.43,4.35-6.33,8.9,0,.39-.5,.77-.57,1.19-.62,3.47-1.82,6.99-1.6,10.42,.23,3.52-.05,6.95-.12,10.42-.1,5.32-.64,10.64,.7,15.95,1.01,3.99,1.2,8.19,2.02,12.24,.62,3.04,2.05,5.56,5.69,5.9,1.31,.12,2.63,.47,3.89,.9,2.63,.91,4.69,2.52,5.85,5.14,1.53,3.44,.58,7.52-2.35,9-4.61,2.32-9.26,2.96-13.89-.18-2.08-1.41-4.28-2.66-6.51-3.82-2.35-1.23-3.95-3.07-5.17-5.35-3.04-5.66-3-11.98-3.71-18.09-.44-3.82-.14-7.74,0-11.61,.18-5.18,.57-10.36,.79-15.54,.1-2.31,.02-4.64,.02-7.43-2.15,1.09-3.71,1.89-5.29,2.67-3.18,1.57-6.29,3.31-9.58,4.64-3.31,1.34-6.65,2.44-9.36,4.95-.91,.84-2.36,1.15-3.61,1.58-3.06,1.08-6.18,2-9.21,3.16-3.72,1.42-7.31,3.22-11.45,3.21-.79,0-1.58,.62-2.56,1.04,2.58,1.89,4.99,3.57,7.28,5.39,.89,.71,1.63,1.68,2.2,2.68,3.49,6.15,6.8,12.4,10.41,18.47,1.73,2.91,3.89,5.59,6.06,8.21,3.51,4.22,7.39,8.15,10.74,12.5,2.47,3.2,5.28,3.82,8.99,3.05,2.7-.57,5.56-1.03,8.28-.77,5.11,.48,10.08-.28,14.93-1.43,8.03-1.9,15.94-4.28,23.91-6.46,.86-.23,1.7-.52,2.57-.69,5.62-1.06,11.46-1.47,16.05-5.56,.43-.38,1.03-.58,1.57-.8,4.24-1.74,8.51-3.41,12.72-5.21,2.54-1.09,5.1-1.52,8.47-.91Zm-162.2,15.42c1.17,.22,3.48,1.36,5.4,.9,5.46-1.29,10.93-1.05,16.43-1.25,3.09-.11,6.17-.66,9.24-1.06,1.91-.24,3.8-.61,5.7-.83,4.44-.53,8.44-2.13,12.64-4.86-1.89-2.18-3.53-4.05-5.14-5.94-.86-1.01-1.97-1.95-2.46-3.13-2.11-5.09-5.1-9.7-7.61-14.56-2.21-4.29-5.4-6.88-9.71-8.29-6.63-2.18-13.48-3.45-20.43-4.12-1.44-.14-2.98,.07-4.39,.44-7.14,1.87-12.02,9.3-10.8,17.25,.92,5.99,3.03,11.71,6.23,16.95,1.53,2.5,2.93,5.08,4.89,8.5Zm-12.53-2.61c-1.54,2.05-3.29,2.25-5.21,1.18-2.19-1.23-4.47-2.36-6.46-3.87-1.83-1.38-3.72-1.72-5.86-1.5-3.29,.34-4.43,2.18-3.22,5.23,1.21,3.07,4.95,5.81,8.38,5.61,3.83-.23,7.65-.81,11.43-1.45,2.26-.38,4.88,.21,6.6-2,.82-2.47-.3-4.38-1.92-6.01-2.17-2.18-3.36-4.83-4.21-7.71-.87-2.95-1.55-6-2.76-8.81-.94-2.18-1.32-4.41-.78-6.5,.95-3.69,2.05-7.44,3.78-10.81,2.42-4.69,6.56-7.91,11.86-8.43,5.28-.52,10.64-.43,15.88,1.2,3.31,1.03,6.78,1.53,10.19,2.27,.77-2.79-1.29-3.07-2.65-3.46-4-1.14-7.79-2.67-11.5-4.55-1.38-.7-3.1-.83-4.69-.98-3.68-.34-7.36-.59-11.05-.73-1.14-.04-2.31,.32-3.45,.59-4.18,.99-7.21,3.99-10.76,6.1-2.88,1.72-3.98,4.12-3.96,7.36,.02,2.96,.01,5.97-.48,8.87-.38,2.27-.66,4.41,.35,6.51,1.53,3.19,2.71,6.68,4.87,9.39,2.96,3.73,4.85,7.72,5.6,12.5Zm68.64,4.18c-1.9-4.46-2.39-4.85-5.85-3.13-4.82,2.39-9.9,3.73-15.15,4.63-3.62,.62-7.22,1.39-10.86,1.86-3.8,.49-7.7,.4-11.45,1.13-4.32,.84-8.48,.87-12.77-.04-1.47-.31-3.27-.02-4.7,.55-4.38,1.76-8.86,2.9-13.82,2.99,1.74,1.77,3.71,1.59,5.6,1.6,6.85,.03,13.69,.03,20.54,.01,1.03,0,2.11,.01,3.09-.26,8.19-2.21,16.68-2.04,25-3.23,7.02-1.01,13.9-2.35,20.36-6.12Zm29.64-70.87c-.36,.01-.71,.03-1.07,.04-.35,3.8-.84,7.59-1.01,11.4-.19,4.31,.02,8.63-.13,12.94-.14,4.24-.52,8.46-.76,12.7-.06,1.03-.07,2.1,.1,3.11,.49,2.89,.91,5.81,1.68,8.64,.84,3.1,1.41,6.53,4.24,8.54,2.77,1.96,5.78,3.6,8.81,5.14,1.71,.87,3.72,1.07,5.53,.08,.82-.45,1.96-1.26,2-1.95,.06-1.01-.5-2.4-1.27-3.01-.97-.76-2.4-1.05-3.68-1.29-6.17-1.11-9.38-4.29-10.4-10.36-.46-2.75-1.21-5.47-1.54-8.23-.57-4.68-2.23-9.17-2.02-14.01,.27-6.24,.07-12.5,.05-18.76,0-1.69,.16-3.41-.53-4.99Zm72.29,58.7c-9.09,3.1-17.26,7.02-25.04,12.29,11.48,.37,22.95,1,35.12,.52-1.24-1.49-1.81-2.73-2.76-3.22-3.83-1.97-5.73-5.37-7.32-9.59Zm32.54-22.22c-6.45,5.07-13.43,9.46-18.44,16.23,.42,.88,.94,1.79,1.29,2.75,.91,2.5,2.81,4.2,5.27,4.01,2.38-.18,5-.94,6.14-3.71,.45-1.09,.93-2.21,1.65-3.13,3.63-4.67,4.43-10.1,4.1-16.15ZM5.82,177.29c3.47,0,6.8-.47,9.94,.12,3.95,.74,6.8-.95,9.69-2.95,1.9-1.32,3.69-2.79,5.87-4.46-1.82-1.14-3.64-2.85-5.78-3.48-5.49-1.63-10.77,.03-15.77,2.25-3.83,1.7-4.48,3.32-3.95,8.53ZM238.46,76.84c.5-.7,1-1.4,1.49-2.12,2.66-3.9,1.94-6.56-2.44-8.65-1.95-.93-3.97-1.69-6.33-2.67-1.03,1.95-2.02,3.83-3.1,5.88,1.08,.4,1.85,.69,2.79,1.04,.09,1.27,.19,2.55,.29,3.91,2.79,.16,4.19,3.58,7.3,2.6Z"/>
      <path class="cls-2" d="M225.46,147.83c-3.37-.61-5.93-.18-8.47,.91-4.21,1.8-8.48,3.47-12.72,5.21-.55,.22-1.15,.42-1.57,.8-4.58,4.09-10.42,4.5-16.05,5.56-.87,.16-1.72,.45-2.57,.69-7.96,2.18-15.88,4.56-23.91,6.46-4.86,1.15-9.82,1.9-14.93,1.43-2.72-.25-5.58,.21-8.28,.77-3.71,.78-6.52,.16-8.99-3.05-3.35-4.34-7.23-8.27-10.74-12.5-2.17-2.61-4.33-5.3-6.06-8.21-3.62-6.07-6.92-12.33-10.41-18.47-.57-.99-1.31-1.97-2.2-2.68-2.29-1.83-4.7-3.5-7.28-5.39,.98-.42,1.77-1.04,2.56-1.04,4.14,.01,7.73-1.79,11.45-3.21,3.03-1.15,6.15-2.08,9.21-3.16,1.24-.44,2.69-.74,3.61-1.58,2.71-2.51,6.05-3.62,9.36-4.95,3.28-1.32,6.39-3.07,9.58-4.64,1.58-.78,3.14-1.58,5.29-2.67,0,2.8,.08,5.12-.02,7.43-.22,5.18-.6,10.36-.79,15.54-.14,3.87-.44,7.79,0,11.61,.71,6.11,.66,12.43,3.71,18.09,1.23,2.28,2.83,4.12,5.17,5.35,2.23,1.17,4.43,2.41,6.51,3.82,4.63,3.14,9.28,2.51,13.89,.18,2.93-1.48,3.88-5.56,2.35-9-1.16-2.61-3.23-4.23-5.85-5.14-1.25-.43-2.57-.78-3.89-.9-3.64-.34-5.07-2.86-5.69-5.9-.82-4.05-1.02-8.24-2.02-12.24-1.34-5.32-.8-10.63-.7-15.95,.07-3.48,.35-6.9,.12-10.42-.22-3.42,.98-6.95,1.6-10.42,.07-.42,.58-.8,.57-1.19-.1-4.56,3.45-6.48,6.33-8.9,3.07-2.59,6.23-5.08,9.13-7.84,1.92-1.82,3.38-4.12,5.19-6.08,2.71-2.94,5.45-5.87,8.35-8.62,2.51-2.38,4.57-5.02,6.32-8,4.07-6.92,5.77-5.28,10.34-1.79,3.1,2.36,6.41,4.2,9.73,6.11,1.24,.71,2.46,1.21,3.71,.19,1.33-1.09,2-2.51,1.77-4.3-.38-2.92,.41-19.97,1.23-22.47,.59-1.78,1.57-3.45,2.43-5.13,1.28-2.5,2.76-4.91,3.89-7.47,2.54-5.76,7.19-8.39,13.12-9.25,1.9-.28,3.83-.74,5.72-.63,3.5,.2,10.45,7.71,10.51,11.29,.03,2.04-.34,4.11-.65,6.14-.58,3.8-1.38,7.57-1.85,11.38-.57,4.63-3.4,7.69-6.55,10.75-4.61,4.48-9.79,8.04-15.45,11.03-2.77,1.46-2.95,2.41-2.49,5.74,.11,.81-.09,1.71-.37,2.5-.39,1.11-1.04,2.13-1.46,3.24-.35,.95-.58,1.96-.75,2.97-.07,.41,0,1.16,.21,1.25,2.76,1.17,2.06,4.15,3.28,6.1,.14,.23,.46,.4,.73,.48,2.5,.79,5.11,1.33,7.49,2.38,2.07,.91,3.08,.03,4.01-1.48,.3-.49,.31-1.16,.61-1.65,.86-1.38,1.61-2.91,2.76-4.02,1.49-1.44,3.03,.12,4.56,.44,2.26,.47,3.36,0,4.16-2.21,1.15-3.17,3.71-5.77,3.7-9.41,0-.49,.5-1.09,.93-1.47,4.58-4.03,6.59-9.82,10.07-14.6,.87-1.19,1.68-2.46,2.31-3.79,3.27-6.89,9.22-9.13,16.27-9.56,.89-.05,1.84,0,2.65-.31,2.65-.99,4.66,.23,6.36,1.9,4.06,3.98,6.14,8.98,6.95,14.54,.12,.85,0,1.83-.31,2.62-1.26,3.15-2.46,6.35-4.04,9.35-2.19,4.17-5.35,6.97-10.54,6.82-3.21-.1-6.11,1.35-8.43,3.5-1.61,1.49-3.35,2.34-5.45,2.72-2.9,.52-5.78,1.12-8.66,1.73-.85,.18-1.72,.44-2.49,.85-2.74,1.46-3.23,4.19-.8,6.11,3.68,2.9,6.66,6.84,11.56,8.09,1.19,.3,2.2,1.32,3.17,1.94-1.1,5.91-5.18,9.23-8.88,12.84-1.89,1.84-3.61,3.85-5.51,5.68-.83,.79-1.87,1.4-2.9,1.92-2.81,1.41-4.77,3.41-5.48,6.59-1.28,5.77-5.66,9.18-9.88,12.7-2.95,2.47-5.78,5.08-8.7,7.58-1.12,.96-2.33,1.8-3.53,2.65-2.72,1.95-3.19,3.14-1.59,5.97,1.93,3.43,3.34,7.27,7.36,9.14,4.17,1.94,11.28,.75,13.7-3.07,2.53-3.98,4.77-8.2,6.54-12.56,1.37-3.37,1.86-7.1,2.64-10.69,.14-.65-.05-1.55-.43-2.1-1.36-2-1-4.24-1.24-6.44-.34-3.09,1.16-4.84,3.77-5.78,2.36-.84,4.81-1.46,7.25-2.02,1.59-.37,6.4,2.67,6.82,4.19,.11,.41,.17,1-.05,1.3-1.34,1.91-2.17,4.53-4.69,5.11-5.56,1.27-6.27,5.6-6.79,10.1-.98,8.41-4.03,15.92-9.4,22.51-1.97,2.41-4.31,4.01-7.42,4.3-3.23,.3-6.49,.85-9.69,.62-3.55-.25-10.97-7.23-11.91-10.56-.39-1.39-.69-2.8-1.06-4.31Zm-23.28-61.48c0,2.91,1.62,4.93,3.9,4.86,2.57-.07,4.41-2.21,4.36-5.07-.05-2.74-1.65-4.42-4.32-4.54-2.36-.11-3.94,1.8-3.94,4.74Zm27.96,13.15c.08-2.72-1.53-4.47-4.19-4.58-2.33-.1-4.84,2.47-4.77,4.88,.07,2.38,1.82,4.14,4.19,4.22,2.97,.09,4.69-1.54,4.78-4.51Z"/>
      <path class="cls-2" d="M50.72,160.65c-.75-4.78-2.64-8.77-5.6-12.5-2.15-2.71-3.33-6.21-4.87-9.39-1.01-2.1-.73-4.24-.35-6.51,.49-2.9,.49-5.91,.48-8.87-.02-3.24,1.08-5.65,3.96-7.36,3.54-2.11,6.58-5.11,10.76-6.1,1.13-.27,2.31-.63,3.45-.59,3.69,.14,7.37,.4,11.05,.73,1.59,.15,3.32,.28,4.69,.98,3.7,1.89,7.5,3.42,11.5,4.55,1.36,.39,3.41,.66,2.65,3.46-3.41-.74-6.89-1.24-10.19-2.27-5.24-1.64-10.6-1.72-15.88-1.2-5.3,.52-9.44,3.73-11.86,8.43-1.74,3.37-2.83,7.12-3.78,10.81-.54,2.1-.16,4.32,.78,6.5,1.21,2.81,1.9,5.85,2.76,8.81,.85,2.88,2.04,5.53,4.21,7.71,1.63,1.63,2.74,3.54,1.92,6.01-1.72,2.21-4.34,1.62-6.6,2-3.79,.64-7.61,1.22-11.43,1.45-3.43,.2-7.17-2.54-8.38-5.61-1.2-3.05-.07-4.89,3.22-5.23,2.14-.22,4.03,.12,5.86,1.5,1.99,1.51,4.27,2.64,6.46,3.87,1.92,1.08,3.66,.88,5.21-1.18Z"/>
      <path class="cls-2" d="M119.36,164.83c-6.46,3.77-13.34,5.11-20.36,6.12-8.32,1.19-16.81,1.02-25,3.23-.98,.27-2.06,.25-3.09,.26-6.85,.02-13.69,.02-20.54-.01-1.89,0-3.86,.17-5.6-1.6,4.96-.1,9.44-1.23,13.82-2.99,1.43-.57,3.23-.87,4.7-.55,4.29,.91,8.45,.88,12.77,.04,3.75-.73,7.65-.63,11.45-1.13,3.64-.47,7.24-1.24,10.86-1.86,5.25-.9,10.33-2.24,15.15-4.63,3.46-1.72,3.95-1.33,5.85,3.13Z"/>
      <path class="cls-2" d="M149,93.96c.68,1.58,.52,3.31,.53,4.99,.02,6.25,.22,12.52-.05,18.76-.21,4.85,1.45,9.33,2.02,14.01,.34,2.76,1.08,5.48,1.54,8.23,1.02,6.07,4.22,9.24,10.4,10.36,1.28,.23,2.71,.52,3.68,1.29,.78,.61,1.33,2,1.27,3.01-.04,.7-1.18,1.51-2,1.95-1.81,.99-3.81,.79-5.53-.08-3.03-1.54-6.05-3.18-8.81-5.14-2.83-2-3.39-5.44-4.24-8.54-.77-2.82-1.19-5.74-1.68-8.64-.17-1.02-.16-2.08-.1-3.11,.24-4.23,.62-8.46,.76-12.7,.14-4.31-.06-8.63,.13-12.94,.16-3.81,.66-7.6,1.01-11.4,.36-.01,.71-.03,1.07-.04Z"/>
      <path class="cls-2" d="M5.82,177.29c-.52-5.21,.12-6.83,3.95-8.53,5-2.22,10.27-3.88,15.77-2.25,2.14,.64,3.95,2.35,5.78,3.48-2.18,1.66-3.97,3.14-5.87,4.46-2.89,2.01-5.74,3.69-9.69,2.95-3.13-.58-6.46-.12-9.94-.12Z"/>
      <path class="cls-1" d="M238.46,76.84c-3.1,.98-4.51-2.44-7.3-2.6-.1-1.36-.19-2.64-.29-3.91-.94-.35-1.72-.64-2.79-1.04,1.08-2.05,2.07-3.93,3.1-5.88,2.35,.99,4.38,1.74,6.33,2.67,4.38,2.09,5.1,4.75,2.44,8.65-.49,.71-1,1.42-1.49,2.12Z"/>
      <path class="cls-3" d="M202.18,86.35c0-2.94,1.58-4.85,3.94-4.74,2.68,.12,4.27,1.8,4.32,4.54,.05,2.86-1.79,5-4.36,5.07-2.28,.06-3.89-1.95-3.9-4.86Z"/>
      <path class="cls-3" d="M230.14,99.5c-.08,2.97-1.81,4.6-4.78,4.51-2.37-.07-4.12-1.84-4.19-4.22-.07-2.4,2.45-4.98,4.77-4.88,2.66,.11,4.27,1.87,4.19,4.58Z"/>
      <path class="cls-3" d="M219.57,74.2c.67,1.11-.19,2.54-1.49,2.65-4.4,.37-8.55,.7-12.7,1.1-1.3,.12-2.56,.65-3.86,.72-.56,.03-1.32-.5-1.67-.99-.19-.28,.15-1.11,.47-1.52,.34-.42,.93-.83,1.45-.9,5.1-.63,10.19-1.35,15.31-1.71,1.43-.1,2.09,0,2.48,.64Z"/>
      <path class="cls-3" d="M233.55,87.09c.01-.64,.53-1.17,1.17-1.14,1.74,.09,1.98,1.61,2.29,2.66,1,3.37,1.78,6.81,2.5,10.26,.3,1.43,.46,2.96,.27,4.39-.2,1.53-1.03,2.82-2.91,2.34-.6-3.35-1.16-6.65-1.78-9.93-.53-2.81-1.6-5.55-1.54-8.58Z"/>
      <path class="cls-3" d="M187.67,97.67c.7-.1,1.28,.53,1.13,1.22-.49,2.13-1.62,3.98,.04,5.75,1.29,1.38,2.56,2.91,4.14,3.88,2.46,1.5,4.48,.67,7.73-2.66-.49-2.44-2.04-5.09-.09-7.54,1.18-1.49,2.54-3.03,4.17-3.91,2.81-1.54,7.32-.32,9.37,2.09,2.19,2.57,2.33,8.06,.28,10.87-2.42,3.33-6.43,3.98-11.49,1.86-3.04,3.43-3.09,5.17-.13,8.16,1.36,1.38,2.79,2.69,4.2,4.01,.43,.4,.92,.74,1.27,1.02,2.65,.07,3.55-1.66,4.57-3.62,.46-.89,1.68-1.06,2.35-.32,.26,.29,.43,.55,.4,.79-.28,2.17-.7,4.36-3.22,5.34-2.5,.98-4.88,1.38-7.09-.51-2.03-1.74-3.97-3.59-5.96-5.37-1.91-1.71-1.43-4.08-1.67-6.51-.89-.07-1.73-.18-2.57-.21-4.91-.18-9.89-4.44-10.39-9.31-.15-1.45,.67-3.12,1.44-4.47,.2-.34,.81-.45,1.55-.55Zm25.36,4.65c-.07-3.03-2.4-5.56-5.15-5.6-2.36-.03-4.73,2.44-4.69,4.88,.05,2.86,2.54,5.84,4.86,5.81,2.74-.03,5.04-2.38,4.98-5.09Z"/>
      <path class="cls-4" d="M213.02,102.32c.06,2.72-2.23,5.07-4.98,5.09-2.32,.02-4.81-2.95-4.86-5.81-.04-2.45,2.33-4.92,4.69-4.88,2.75,.04,5.08,2.58,5.15,5.6Z"/>
    </g>
  </g>
</svg>