<svg xmlns="http://www.w3.org/2000/svg" width="540" height="530.571" viewBox="0 0 540 530.571">
  <path id="パス_32" data-name="パス 32" d="M797.931,2485.4c-14.359,0-26.708-3.6-35.723-6.228-1.965-.573-4.447-1.3-6.208-1.74-1.761.443-4.245,1.167-6.21,1.74-9.014,2.628-21.361,6.227-35.718,6.228a81.806,81.806,0,0,1-18.112-2c-22.6-5.137-37.6-18.673-47.517-27.629-1.326-1.2-2.972-2.683-4.251-3.776-1.712-.34-4.019-.726-5.868-1.035-13.069-2.188-32.822-5.494-50.7-19.767-17.922-14.31-25.527-32.867-30.56-45.147-.7-1.707-1.57-3.832-2.271-5.409-1.369-1.019-3.219-2.318-4.707-3.362-10.9-7.648-27.366-19.206-37.377-39.957-9.915-20.552-8.736-40.516-7.955-53.726.111-1.9.252-4.277.3-6.043-.767-1.46-1.817-3.34-2.665-4.856-6.527-11.678-16.393-29.326-16.393-52.58s9.866-40.9,16.393-52.579c.848-1.516,1.9-3.4,2.665-4.856-.049-1.766-.19-4.141-.3-6.043-.781-13.211-1.96-33.175,7.955-53.727,10.011-20.751,26.48-32.309,37.378-39.956,1.487-1.044,3.338-2.343,4.707-3.363.7-1.577,1.572-3.7,2.272-5.411,5.032-12.279,12.637-30.835,30.556-45.143,17.877-14.275,37.63-17.581,50.7-19.768,1.85-.31,4.157-.7,5.869-1.035,1.279-1.094,2.926-2.581,4.252-3.777,9.92-8.956,24.913-22.491,47.514-27.628a81.84,81.84,0,0,1,18.11-2c14.359,0,26.708,3.6,35.723,6.228,1.965.573,4.447,1.3,6.208,1.74,1.761-.444,4.243-1.167,6.208-1.74,9.016-2.628,21.364-6.228,35.723-6.228a81.824,81.824,0,0,1,18.109,2c22.6,5.137,37.6,18.673,47.517,27.629,1.326,1.2,2.972,2.683,4.251,3.776,1.712.34,4.019.726,5.868,1.035,13.069,2.188,32.822,5.493,50.7,19.766,17.922,14.311,25.527,32.868,30.56,45.148.7,1.707,1.57,3.832,2.271,5.409,1.369,1.019,3.219,2.318,4.707,3.362,10.9,7.648,27.366,19.206,37.377,39.957,9.915,20.552,8.736,40.516,7.955,53.726-.111,1.9-.252,4.277-.3,6.043.767,1.46,1.817,3.34,2.665,4.856,6.527,11.678,16.393,29.326,16.393,52.579s-9.866,40.9-16.393,52.58c-.848,1.516-1.9,3.4-2.665,4.856.049,1.766.19,4.141.3,6.043.781,13.211,1.96,33.174-7.955,53.727-10.011,20.751-26.48,32.308-37.378,39.956-1.487,1.044-3.338,2.343-4.707,3.362-.7,1.578-1.572,3.7-2.272,5.412-5.032,12.278-12.637,30.835-30.556,45.143-17.877,14.275-37.63,17.581-50.7,19.768-1.85.31-4.157.7-5.869,1.035-1.279,1.094-2.926,2.581-4.252,3.777-9.92,8.956-24.913,22.491-47.514,27.628A81.847,81.847,0,0,1,797.931,2485.4Z" transform="translate(-486 -1954.832)" fill="#ffe7ef"/>
</svg>
