<svg xmlns="http://www.w3.org/2000/svg" width="353.159" height="202.686" viewBox="0 0 353.159 202.686">
  <g id="グループ_321" data-name="グループ 321" transform="translate(-547.58 -2104.319)">
    <g id="グループ_20" data-name="グループ 20">
      <g id="グループ_18" data-name="グループ 18">
        <path id="パス_34" data-name="パス 34" d="M637.909,2196.886a1.461,1.461,0,0,0-.245-.1l-3.615-1.1-3.7-.981-3.758-.83a1.436,1.436,0,0,0-.262-.034l-3.845-.155c-.031,0-3.588.221-3.588.221l-3.485.161a1.422,1.422,0,0,0-.186.021l-6.91,1.187-3.475.665-3.358.54-3.439.258-3.567.478-3.347.336-3.416-.108-3.474-.052-3.433-.309-3.329-.481-3.359-.756-3.177-.887-3.033-1.48-3.024-1.461-2.636-2.076-2.546-2.187-2.361-2.547-2.156-2.762-1.935-2.881-1.505-3.111-1.219-3.261-.862-3.355-.467-3.433-.123-3.542.083-3.529.294-3.439.653-3.394,1.1-3.358,1.15-3.306,1.584-3.154,1.722-3.031,1.968-2.9,2.188-2.718,2.481-2.534,2.447-2.468,2.882-1.957,2.922-2.071,2.856-1.936,3.061-1.658,3.064-1.769,3.149-1.526,3.193-1.6,3.183-1.41,3.192-1.466,3.281-1.194,3.338-1.222,3.271-1.206,3.369-.88,3.449-.96,3.4-.774,3.375-.6,3.483-.352,3.545-.386,3.424-.247,3.487.07,3.574.032,3.367.249,3.412.654,3.515.519,3.332.815,3.31,1.1,3.194,1.21,3.129,1.513,3.007,1.581,2.731,1.94,2.521,2.345,2.344,2.393,1.869,2.691,1.336,3.065,1.139,3.211.842,3.226.221,3.4v3.36l-.389,3.382-.645,3.334-1.071,3.286-1.037,3.293-1.487,3.1-1.724,2.961-2.217,2.691-2.284,2.559-5.55,4.427-2.846,2.191-2.892,2.071-2.915,2.16-2.877,2.242a1.469,1.469,0,0,0-.2.19l-2.392,2.706a1.533,1.533,0,0,0-.183.256l-1.771,3.138a1.52,1.52,0,0,0-.154.39l-.833,3.507a1.481,1.481,0,0,0-.038.425l.188,3.615a1.515,1.515,0,0,0,.082.416l1.191,3.41a1.4,1.4,0,0,0,.064.157l1.042,2.161-1.153.908Z" fill="#64dc96"/>
        <path id="パス_35" data-name="パス 35" d="M626.223,2107.321l3.451.069,3.461.031,3.28.24,3.326.637.127.022,3.382.5,3.205.784,3.194,1.059,3.133,1.185,3.023,1.462,2.918,1.534,2.569,1.824,2.4,2.232,2.256,2.3,1.713,2.466,1.256,2.881,1.1,3.1.789,3.025.206,3.156,0,3.275-.372,3.237-.617,3.187-1.051,3.225-1,3.179-1.415,2.953-1.631,2.8-2.1,2.552-2.2,2.465-2.629,2.1-2.8,2.234-2.806,2.16-2.93,2.1-2.9,2.146-.058.044-2.848,2.22a3.026,3.026,0,0,0-.4.379l-2.392,2.707a3.066,3.066,0,0,0-.365.511l-1.772,3.138a3.008,3.008,0,0,0-.306.782l-.833,3.506a3,3,0,0,0-.077.85l.188,3.615a3,3,0,0,0,.164.833l1.191,3.41a3.033,3.033,0,0,0,.129.313l.066.136-.656-.335a2.966,2.966,0,0,0-.49-.2l-3.615-1.1c-.034-.011-.069-.021-.1-.03l-3.642-.966-.123-.03-3.7-.815a2.983,2.983,0,0,0-.524-.068l-3.784-.154c-.041,0-.081,0-.122,0-.062,0-.125,0-.187.006l-3.445.216-3.511.162a3.081,3.081,0,0,0-.372.04l-3.451.6-3.456.592-.058.01-3.4.651-3.3.531-3.376.253c-.058,0-.117.011-.175.019l-3.429.461-3.25.328-3.366-.106-3.392-.051-3.3-.3-3.27-.47-3.228-.727-3.046-.848-2.92-1.426-2.872-1.387-2.457-1.935-2.482-2.131-2.26-2.437-2.084-2.67-1.846-2.748-1.429-2.954-1.166-3.12-.82-3.194-.445-3.272-.118-3.38.078-3.436.285-3.361.62-3.222,1.061-3.242,1.118-3.214,1.505-3,1.691-2.979,1.9-2.8,2.1-2.614,2.417-2.469,2.35-2.371,2.763-1.874.05-.036,2.871-2.035,2.794-1.9,2.995-1.622.072-.04,2.982-1.722,3.135-1.52,3.112-1.56,3.219-1.427,3.117-1.433,3.23-1.174,3.341-1.224,3.2-1.179,3.345-.874,3.357-.935,3.329-.76,3.319-.595,3.448-.349,3.48-.379,3.355-.243m-.079-3-3.547.257-3.534.385-3.54.357-3.5.629-3.467.791-3.425.954-3.44.9-3.337,1.23-3.334,1.222-3.34,1.214-3.229,1.484-3.248,1.439-3.174,1.592-3.2,1.55-3.075,1.776-3.127,1.693-2.943,2-2.9,2.054-3,2.038-2.556,2.578-2.532,2.587-2.272,2.822-2.035,3-1.789,3.151-1.627,3.241-1.192,3.426-1.128,3.448-.686,3.564-.306,3.611-.082,3.615.126,3.617.489,3.595.9,3.516,1.271,3.4,1.582,3.27,2.023,3.013,2.229,2.854,2.462,2.656,2.66,2.283,2.764,2.177,3.166,1.53,3.155,1.54,3.383.943,3.417.769,3.466.5,3.49.314,3.5.053,3.515.11,3.5-.352,3.479-.468,3.5-.263,3.465-.558,3.446-.659,3.456-.592,3.456-.6,3.51-.163,3.494-.218,3.784.154,3.7.815,3.642.966,3.615,1.1,3.367,1.717,2.852-2.248-1.563-3.245-1.191-3.41-.188-3.615.833-3.507,1.772-3.137,2.392-2.707,2.848-2.22,2.9-2.146,2.934-2.1,2.866-2.208,2.821-2.25,2.828-2.255,2.406-2.7,2.3-2.785,1.815-3.118,1.559-3.254,1.064-3.381,1.1-3.374.674-3.483.405-3.524,0-3.544-.23-3.537-.9-3.427-1.178-3.321-1.416-3.248-2.025-2.917-2.482-2.53-2.593-2.414-2.894-2.055-3.141-1.651-3.188-1.541-3.315-1.255-3.368-1.117-3.458-.846-3.522-.518-3.5-.67-3.55-.26-3.557-.032-3.557-.071Z" fill="#231815"/>
      </g>
      <g id="グループ_19" data-name="グループ 19">
        <path id="パス_36" data-name="パス 36" d="M585.743,2155.761l4.976,12.907s-2.255,1.09-4.29,1.814c0,0-3.859-12.095-4.389-13.4,0,0-4.048,1.058-5.369,1.465l-1.278-3.589s10.654-3.793,14.229-4.937l1.018,3.936S586.7,2155.484,585.743,2155.761Z" fill="#fff"/>
        <path id="パス_37" data-name="パス 37" d="M612.9,2141.666l3.69-1.441s5.8,15.225,6.6,17.012c0,0-3.846,1.274-5.024,1.631,0,0-3.491-10.254-4.034-11.78,0,0-2.527,6.409-3.191,8.3,0,0-5.709-3.6-8.393-5.419,0,0,3.615,8.9,5.078,12.745l-4.333,1.606s-3.981-11.1-5.955-17.177l4.411-1.475,7.434,4.423Z" fill="#fff"/>
        <path id="パス_38" data-name="パス 38" d="M634.783,2133.72l1.446,4.42c-3.258.331-6.076,3.15-4.631,6.583a4.365,4.365,0,0,0,5.933,2.442,4.849,4.849,0,0,0,3.23-5.416l4.411,2.729a8.985,8.985,0,0,1-6.732,7.746,9.088,9.088,0,0,1-11.229-5.779C625.143,2141.258,627.629,2135.628,634.783,2133.72Z" fill="#fff"/>
      </g>
    </g>
    <g id="グループ_23" data-name="グループ 23">
      <g id="グループ_22" data-name="グループ 22">
        <path id="パス_39" data-name="パス 39" d="M821.83,2128.283a29.3,29.3,0,0,1,10.143,1.542c3.125,1.1,6.989.728,10.412.223,5.817-.857,11.591-1.894,17.5-1.794.143.7.276,1.4-.44,1.889-3,2.066-5.885,4.327-9.028,6.143a21.042,21.042,0,0,0-8.942,9.354c-2.74,6.072-7.722,8.41-13.473,10.378-4.22,1.444-8.595,3.086-12.132,5.684-3.353,2.463-6.815,4.848-10.071,7.478a53.045,53.045,0,0,1-5.614,3.764c-1.783,1.1-3.4,2.412-5.1,3.607-7.08,4.988-14.2,9.945-21.611,14.421-2.969,1.794-6.537,3.066-10.363,1.284-1.67-.778-3.751.095-5.657-.836-1.6-.781-2.138-1.8-1.739-3.244a8.011,8.011,0,0,1,1.827-3.652c3.149-2.951,4.819-6.769,6.7-10.484a14.143,14.143,0,0,0,1.992-.539c9.323-4.012,16.445-11.048,23.891-17.594a123.614,123.614,0,0,1,9.833-7.8,130.34,130.34,0,0,1,14.295-8.473c4.019-2.159,4.99-5.431,5.394-9.343C819.692,2128.879,821.621,2129.515,821.83,2128.283Z" fill="#faa2ad"/>
        <path id="パス_40" data-name="パス 40" d="M886.834,2212.287c-5.958.372-9.737-2.471-13.5-5.305a3.1,3.1,0,0,1-1.28-1.646c-.683-4.756-1.347-9.549.3-14.242.927-2.642,5.343-4.678,8.073-3.813a39.561,39.561,0,0,1,8.028,3.56c5.373,3.132,8.846,9.964,7.861,15.889-.508,3.059-2.79,5.026-6.613,5.532A17.027,17.027,0,0,1,886.834,2212.287Z" fill="#e996a1"/>
        <path id="パス_41" data-name="パス 41" d="M800.481,2132.493a13.708,13.708,0,0,1,7.95-1.058c2.522.389,4.493-1.636,6.933-1.142a12.633,12.633,0,0,1-5.59,7.452,164.138,164.138,0,0,0-21.192,14.34c-5.987,4.946-12.438,9.332-17.919,14.893a7.73,7.73,0,0,1-5.359,2.688c-.062-3.042-.226-6.035,1.7-8.776,1-1.424.22-3.346.4-5.033a19.5,19.5,0,0,0,8.64-4.016c5.634-4.4,12.893-6.592,17.236-12.707,2.961-.839,4.109-4.164,7-5.142C800.493,2133.921,800.421,2133.013,800.481,2132.493Z" fill="#964629"/>
        <path id="パス_42" data-name="パス 42" d="M766.316,2152.561c-2.754-1.947-2.448-5.5-4.175-8-.429-.621.042-1.374.69-1.775,4.418-2.737,8.323-6.224,12.926-8.7,1.822-.98,3.625-2.1,5.447-3,5.174-2.548,10.6-2.891,15.95-.241.091.046.062.334.09.509-4.306,2.109-8.59,4.244-10.778,8.912-4.507,2.443-8.491,5.655-12.638,8.626a5.211,5.211,0,0,1-2.479.622C769.281,2149.862,767.312,2150.422,766.316,2152.561Z" fill="#e996a1"/>
        <path id="パス_43" data-name="パス 43" d="M716.776,2192.078c2.3,0,4.61-.01,6.915,0,2.8.015,3.958,1.006,4.259,3.787a20.838,20.838,0,0,1-1.1,9.219c-.421,1.19-1.321,2.675-3.2,1.363a4.782,4.782,0,0,0-4.555-.332c-3.442,1.613-6.946.588-10.4.8-2.339.142-3-.713-3.07-3.173-.083-2.834-.093-5.673-.008-8.507.071-2.393.744-3.045,3.173-3.12,2.657-.081,5.319-.018,7.979-.018Z" fill="#964629"/>
        <path id="パス_44" data-name="パス 44" d="M897.68,2192.7c-3.091-4.438-6.4-8.407-11.988-9.506-3.624-.713-7.182-2.145-11.045-.664-2.083.8-3.149-.143-2.592-2.377.784-3.145.013-6.2-.528-9.071a53.919,53.919,0,0,1-.653-9.378q-.2-14.626-.361-29.253h0c.089-1.405.252-2.811.251-4.216,0-2.871-.933-4-3.923-4.218-2.642-.193-5.438-.5-7.945.121-5.584,1.392-11.2.856-16.8.975a25.1,25.1,0,0,1-6.872-.354c-4.882-1.3-9.707-1.01-14.585-.336-3.79.228-7.8-.246-11.319.851-5.046,1.573-9.9.38-14.423-.612-9.228-2.026-16.882.142-23.835,5.956-1.241,1.038-2.517,2.281-3.967,2.45-2.823.33-4.8,1.732-6.813,3.526-1.623,1.443-3.5,1.908-5.616.2-2.433-1.963-5.093-3.747-8.547-3.4a2.361,2.361,0,0,1-1.417-.62c-2.828-2.2-6.544-.719-9.528-2.313-.352-.189-1.017.049-1.474.241-2.072.872-4.117,1.811-6.181,2.7-3.057,1.321-5.617,3.629-6.347,6.619-1.351,5.531-4.848,10.391-4.919,16.271-.026,2.237-2.039,2.227-3.371,2.662a2.3,2.3,0,0,1-3.091-2.047c-.262-1.889-1.1-3.594-1.141-5.59-.109-5.134-2.769-9.236-6.473-12.5-8.764-7.72-18.687-9.592-29.708-5.394-3.2,1.22-5.752,2.964-7.312,6.137a38.018,38.018,0,0,0-3.778,10.246c-.919,5.489-1.6,11.05,1.431,16.378a42.123,42.123,0,0,1,4.828,12.027c.707,3.316.806,3.17-2.051,5.393-2.3,1.786-5.4,2.577-6.842,5.429-2.909,1.557-3.509,4.506-4.285,7.29-.836,3,.227,6.171-.281,9.076a95.378,95.378,0,0,0-.917,10.944,7.067,7.067,0,0,1-.245,2.071,15.7,15.7,0,0,0-.434,8.827c1.421,6.559.817,13.205,1.546,19.787.872,7.869.224,15.905.227,23.869a8,8,0,0,1-.133,2.619c-.41,1.137-1.152,2.143-.446,3.413s1.884,1.365,3.139,1.5c.627.071.951,1.047,1.79.863a31.763,31.763,0,0,1,4.74.356,60.908,60.908,0,0,0,17.619,1.774c1.342-.095,2.822-.449,4.053.4a5.275,5.275,0,0,1,.169,3.686c-.646,3.6-1.417,4.115-4.921,3.444-.839-.161-1.608-.749-2.446-.853a7.6,7.6,0,0,0-6.774,2.006c-1.211,1.248-1.657,6.678-.736,8.32,2.43,4.333,6.176,6.983,11.1,6.3,3.842-.53,7.67-.488,11.485-.885,3.747-.389,6.857-4.908,5.582-8.375a6.976,6.976,0,0,1,.509-6.479,13.1,13.1,0,0,0,1.086-2.341c.569-1.615.6-3.765,1.7-4.76,1.4-1.266,3.716-.405,5.632-.471a26.363,26.363,0,0,1,6.374.18,55.005,55.005,0,0,0,22.96.069c.9-.185,2.122-.583,2.845.583.325,1.368-.818,2.254-1.151,3.409-.955,3.319-2.142,6.012-6.975,5.862-5.439-.168-8.12,5.5-5.73,10.139,1.108,2.149,3.02,2.686,5.021,3.342,3.206,1.051,6.675.558,9.818,1.513,5.681,1.725,10.361-1.362,9.66-8.215-.055-.529.128-1.175-.114-1.576-1.6-2.657-.222-4.637,1.451-6.485a15.889,15.889,0,0,0,4.075-6.6,1.338,1.338,0,0,1,1.505-1.145c4.6.5,9.054-1.108,13.615-.925a20.156,20.156,0,0,0,7.218-1.154c2.471-.818,5.016-1.5,7.43-2.338,4.194-1.45,8.087-3.833,11.986-6.038a8.36,8.36,0,0,0,2.833-3.095,18.407,18.407,0,0,1,10.405-8.464,35.46,35.46,0,0,0,12.342-7.658c6.516-5.809,13.375-10.933,21.88-13.486.78,3.872-.336,7.529-1.061,11.369-1.43,0-2.655-.051-3.875.012a4.878,4.878,0,0,0-4.363,2.259,12.04,12.04,0,0,0-1.555,7.883c.389,2.365,3.067,4.678,5.473,5.464a23.546,23.546,0,0,0,20.554-2.521c3.77-2.382,4.361-6.636,1.951-10.566-1.09-1.777-2.117-3.6-3.284-5.321a4.031,4.031,0,0,1-.705-2.47c.034-2.306-.384-4.706.123-6.9.563-2.436-.1-5.565,2.491-7.144,2.915-1.777,4.991-4.466,7.656-6.437,2.684-1.986,4.214-3.838,2.594-7.326a3.3,3.3,0,0,1,.893-3.9c1.688-1.354,2.965-.014,4.307.666.772.391,1.378,1.139,2.168,1.459,1.582.64,3.454,1.858,4.821,1.473,3.145-.885,6.3-.347,9.4-.848,3.688-.6,7.593-4.407,7.934-8.088C900.98,2202.962,901.092,2197.6,897.68,2192.7Zm-98.36-61.433a1.261,1.261,0,0,1,.42.1,1.44,1.44,0,0,1,.741,1.124,13.708,13.708,0,0,1,7.95-1.058c2.522.389,4.493-1.635,6.933-1.142a12.63,12.63,0,0,1-5.59,7.452,164.138,164.138,0,0,0-21.192,14.34c-5.987,4.945-12.438,9.332-17.919,14.893a7.734,7.734,0,0,1-5.359,2.688c-.061-3.042-.226-6.035,1.7-8.776,1-1.424.22-3.346.4-5.033a19.513,19.513,0,0,0,8.64-4.015c5.634-4.4,12.893-6.593,17.236-12.708,2.961-.839,4.109-4.165,7-5.142.212-.071.14-.98.2-1.5a1.44,1.44,0,0,0-.741-1.124,1.261,1.261,0,0,0-.42-.1,2.109,2.109,0,0,0-.226,0A2.109,2.109,0,0,1,799.32,2131.271Zm-.243,0c-.139.006-.283.023-.428.043C798.794,2131.292,798.938,2131.275,799.077,2131.269Zm-36.246,11.517c4.418-2.736,8.323-6.224,12.926-8.7,1.822-.981,3.625-2.1,5.447-3,5.174-2.548,10.6-2.891,15.95-.241.091.046.062.334.09.509-4.3,2.11-8.59,4.244-10.778,8.912-4.507,2.443-8.491,5.655-12.638,8.626a5.211,5.211,0,0,1-2.479.622c-2.068.347-4.037.907-5.033,3.046-2.754-1.947-2.448-5.5-4.175-8C761.712,2143.94,762.183,2143.187,762.831,2142.786Zm96.612-12.643c-3,2.066-5.885,4.327-9.028,6.143a21.042,21.042,0,0,0-8.942,9.354c-2.74,6.072-7.722,8.41-13.473,10.378-4.22,1.444-8.595,3.086-12.132,5.684-3.352,2.463-6.815,4.848-10.071,7.478a53.138,53.138,0,0,1-5.613,3.764c-1.784,1.1-3.4,2.412-5.1,3.607-7.08,4.988-14.2,9.945-21.611,14.421-2.969,1.794-6.537,3.066-10.363,1.284-1.67-.778-3.751.095-5.657-.836-1.6-.781-2.138-1.8-1.739-3.244a8.011,8.011,0,0,1,1.827-3.652c3.149-2.952,4.819-6.769,6.7-10.484a14.166,14.166,0,0,0,1.991-.539c9.323-4.012,16.445-11.048,23.891-17.594a123.836,123.836,0,0,1,9.833-7.8,130.34,130.34,0,0,1,14.295-8.473c4.019-2.159,4.99-5.431,5.394-9.343h0c.045-1.411,1.974-.775,2.183-2.007a29.3,29.3,0,0,1,10.143,1.542c3.125,1.1,6.989.728,10.412.224,5.817-.858,11.591-1.9,17.5-1.8C860.026,2128.951,860.159,2129.65,859.443,2130.143Z" fill="#231815"/>
        <path id="パス_45" data-name="パス 45" d="M714.475,2163.3c2.084,3.066,1.252,6.818,2.878,9.923.546,1.042-.055,2.347-1.064,3.312-2.043,1.955-4.549,3.2-6.892,4.691-.435.278-1.064.4-1.381-.122a1.854,1.854,0,0,1-.276-1.442c1.926-4.05,2.3-8.31,2.277-12.738C710,2164.3,712.725,2164.205,714.475,2163.3Z" fill="#de919a"/>
        <path id="パス_46" data-name="パス 46" d="M720.628,2179.974c4.258,7.833,4.258,7.833-3.959,7.837-2.464,0-4.929,0-8.682,0C712.962,2185.2,716.932,2183.233,720.628,2179.974Z" fill="#964629"/>
        <path id="パス_47" data-name="パス 47" d="M675.6,2189.631h-9.215c0-.588-.081-1.189.012-1.217,1.911-.58,3.032-3.883,5.162-2.454A12.348,12.348,0,0,1,675.6,2189.631Z" fill="#de919a"/>
        <path id="パス_48" data-name="パス 48" d="M694.747,2282.718l-1.971-.246c-.18-2.114,1.261-2.478,2.58-1.765C696.628,2281.394,696.128,2282.381,694.747,2282.718Z" fill="#110d0d"/>
        <path id="パス_49" data-name="パス 49" d="M707.74,2179.663c1.926-4.05,2.3-8.31,2.277-12.738-.014-2.626,2.708-2.719,4.458-3.624,2.084,3.066,1.252,6.818,2.878,9.923.546,1.042-.055,2.347-1.064,3.312-2.043,1.955-4.549,3.2-6.892,4.691-.435.278-1.064.4-1.381-.123A1.851,1.851,0,0,1,707.74,2179.663Z" fill="#faa2ad"/>
        <path id="パス_50" data-name="パス 50" d="M705.624,2195.236c.071-2.394.744-3.045,3.173-3.12,2.657-.081,5.319-.018,7.979-.018v-.02c2.3,0,4.61-.01,6.915,0,2.8.015,3.958,1.006,4.259,3.787a20.838,20.838,0,0,1-1.1,9.219c-.421,1.19-1.321,2.675-3.2,1.363a4.784,4.784,0,0,0-4.555-.332c-3.442,1.613-6.946.588-10.4.8-2.339.142-3-.713-3.071-3.173C705.549,2200.909,705.539,2198.07,705.624,2195.236Z" fill="#964629"/>
        <path id="パス_51" data-name="パス 51" d="M666.4,2188.414c1.911-.58,3.032-3.883,5.162-2.454a12.348,12.348,0,0,1,4.041,3.671h-9.215C666.387,2189.043,666.306,2188.442,666.4,2188.414Z" fill="#faa2ad"/>
        <path id="パス_52" data-name="パス 52" d="M773.326,2247.352a10.928,10.928,0,0,0-.478,2.523c.422,8.65-2.012,17.154-1.039,25.993-9.6,2.368-19.138,1.591-28.567,1.194-3.62-.152-7.07-1.112-10.762.072-2.108.677-4.29-1-6.658-.928-6.388.191-12.839.512-19.17-.138-12.54-1.288-25.081-.543-37.615-.9-3.446-.1-6.83-1.6-10.381-.773a24.565,24.565,0,0,1-.242-10.65c.807-5.363.042-10.942.372-16.4.385-6.355-1.776-12.479-1.279-18.833a89.452,89.452,0,0,0,.057-10.6c-.137-3.357,1.54-6.446,1.177-9.827-.24-2.232.554-4.583-.789-6.685-.453-.708-.166-1.3.179-1.939.879-1.633.468-3.43.584-5.161,6.375-.046,12.75-.066,19.125-.16a13.983,13.983,0,0,0,4.16-.37c4.293-1.34,4.6-2.539,1.328-6.27a3.339,3.339,0,0,0-3.27-1.822h0a21.3,21.3,0,0,1-9.146-12.748c-1.023-3.819-2.482-7.522-3.763-11.271-1.642-4.8-1.2-9.525-.092-14.413,1.222-5.4,5.107-7.949,9.627-9.38,7.179-2.273,13.558-1.071,19.806,3.191,3.505,2.391,4.721,6.432,5.835,10.229a113.778,113.778,0,0,1,3.121,14.152,14.708,14.708,0,0,1-2.728,10.9c-3.8,5.389-4.092,10.973-2.8,17.376.814,4.027,2.816,8.371.593,12.8-.817,1.625,1.118,4.269,3.08,4.741a9.144,9.144,0,0,0,2.124.1c7.637-.007,15.274,0,22.91-.05,2.71-.019,3.477-.741,3.627-3.365a110.54,110.54,0,0,1,1.953-13.923c.308-1.659.76-3.95-1.2-4.8-3.957-1.724-5.2-5.57-7.023-8.74a38.905,38.905,0,0,1-5.512-20.878c.115-3.6,1.681-6.7,2.6-10.014.639-2.309,1.2-4.851,2.577-6.7,3.25-4.363,10.943-8.178,16.727-5.386a18.908,18.908,0,0,0,2.047.381c9.246,3.136,13.26,6.8,16.17,16.181,2.3,7.429,1.445,14.692-3.45,21.11q-3.657,4.793-7.388,9.529c-3.754,4.764-3.255,6.842,2.18,9.632a19.088,19.088,0,0,0,6.955,1.888c2.456.229,4.663,1.465,7.208,1.273,1.7-.128,2.387,1.164,2.316,2.85-.066,1.595-.038,3.2-.023,4.794a54.772,54.772,0,0,0,2.939,18.46c1.858,5.143,2.457,10.748,3.507,16.169C775.359,2242.436,773.792,2244.808,773.326,2247.352Z" fill="#faa2ad"/>
        <path id="パス_53" data-name="パス 53" d="M896.317,2206.73c-.509,3.059-2.791,5.026-6.614,5.532a16.92,16.92,0,0,1-2.869.025c-5.958.372-9.737-2.471-13.5-5.305a3.1,3.1,0,0,1-1.28-1.646c-.683-4.756-1.347-9.549.3-14.242.927-2.642,5.343-4.678,8.073-3.813a39.561,39.561,0,0,1,8.028,3.56C893.828,2193.973,897.3,2200.8,896.317,2206.73Z" fill="#faa2ad"/>
        <path id="パス_54" data-name="パス 54" d="M732.855,2252.852a2.028,2.028,0,0,0-1.429.392,1.588,1.588,0,0,0-.277,1.941,8.264,8.264,0,0,0,1.71,1.995c2.338,2.259,3.029,4.947,2.226,8.49-2.214-.732-3.959.954-6.413.444a23.971,23.971,0,0,1-11.28-5.968,7.706,7.706,0,0,0-.866-2.419c-.925-2.715-.546-3.876,2.278-4.526,3.035-.7,4.693-2.87,6.659-4.787a8.2,8.2,0,0,0,2.05-9.1,16.36,16.36,0,0,0-1.732-3.809,14.077,14.077,0,0,0-2.545-2.071c-4.05-2.249-8.448-2.06-12.813-1.952-3.9.1-6.16,2.089-6.89,5.838-.2,1.029.162,2.271-.283,3.131-1.475,2.844-.55,5.355.553,7.981,1.306,3.109,4.214,3.089,7.13,3.392,0,2.449-.019,4.555.008,6.66.013,1.011-.5,1.389-1.371,1.9-5.053,2.991-10.058,1.475-14.892-.268-2.593-.935-2.658-4.152-.489-6.055.363-.319,1.066-.281,1.381-.621.841-.911.9-2.118-.245-2.625-1.227-.543-2.407-1.509-3.967-1.152-.685.156-1.257.161-1.707.906-1.883,3.12-1.5,6.595-.968,9.786.351,2.12,2.55,3.739,4.888,4.392,4.712,1.314,9.584,2.648,14.374,1.6,2.056-.451,4.115-.526,6.139-.946a90.322,90.322,0,0,0,16.2,5.1c3.905.717,7.019-.186,8.154-3.656a16.345,16.345,0,0,0,1.306-5.528A8.588,8.588,0,0,0,732.855,2252.852ZM708.667,2241.8c-1.265-3.393-.168-5.82,3.413-6.021.527-.03,1.056,0,1.914,0,2.193-.692,4.335.976,6.739,1.251,2.543.29,3.649,5.759,1.927,7.819-1.809,2.163-3.575,3.4-6.64,1.658C713.481,2245.061,710.039,2245.483,708.667,2241.8Z" fill="#231815"/>
        <path id="パス_55" data-name="パス 55" d="M695.025,2212.953c.348,1.731-.845,2.876-2.105,3.828-1.5,1.136-3.167,2.057-4.772,3.055a36.41,36.41,0,0,0-9.023,7.946c-.319.39-.94,1.033-1.125,1.218-1,1-1.651,2.21-3.356.86-1.735-1.374-.454-2.463.044-3.632a11.979,11.979,0,0,1,4.918-5.769c2.934-1.824,5.4-4.414,8.034-6.708a14.642,14.642,0,0,1,4.2-3.058C694.228,2209.765,695.13,2210.287,695.025,2212.953Z" fill="#110d0d"/>
        <path id="パス_56" data-name="パス 56" d="M734.384,2212.258c6.293,1.645,12.262,3.79,16.736,8.789a5.54,5.54,0,0,1,1.427,2.157c.587,2,2.336,3.725,1.367,6.08-2.295-.082-3.137-2.125-4.331-3.482a33.481,33.481,0,0,0-12.167-8.828,36.245,36.245,0,0,1-4.135-2.109c-.561-.331-1.2-.84-1.006-1.689C732.566,2211.878,733.654,2212.5,734.384,2212.258Z" fill="#2e2421"/>
        <path id="パス_57" data-name="パス 57" d="M713.994,2235.774c2.193-.692,4.335.976,6.739,1.251,2.543.29,3.649,5.759,1.927,7.819-1.809,2.163-3.575,3.4-6.64,1.658-2.539-1.441-5.981-1.02-7.353-4.7-1.265-3.393-.168-5.82,3.413-6.021C712.606,2235.748,713.136,2235.774,713.994,2235.774Z" fill="#f03c3c"/>
        <path id="パス_58" data-name="パス 58" d="M693.451,2288.571c-1.918,2.321-2.419,4.542-.975,7.185a1.756,1.756,0,0,1-1.485,2.7c-4.4.225-8.814.209-13.214.028-.841-.035-1.683-1.154-2.441-1.862-1.575-1.47.183-2.592.626-3.713.415-1.052,1.389-.286,2.2.069a49,49,0,0,0,4.834,1.746c3.515,1.123,6.073-.473,6.5-4.126a40.74,40.74,0,0,0,.141-4.757c0-2.121.127-4.88.48-5.468s3.918-.38,5.237.333C696.628,2281.394,694.75,2287,693.451,2288.571Z" fill="#faa2ad"/>
        <path id="パス_59" data-name="パス 59" d="M745.791,2289.75c-2.26,1.788-2.387,4.16-1.277,6.6a6.517,6.517,0,0,1,.584,2.512c.053,1.207-.262,1.9-1.7,2.021-4.059.35-7.932-.607-11.8-1.517a1.688,1.688,0,0,1-1.369-1.962c.187-.894.935-.9,1.636-.906,1.235-.015,2.472.019,3.706-.019,4.058-.122,7.042-2.552,7.156-6.486.058-2.025,1.349-3.525,1.412-5.488a1.94,1.94,0,0,1,2.254-1.732c1.2.248.722,1.38.823,2.18a5.963,5.963,0,0,1,0,.64C747.353,2287.106,747.26,2288.588,745.791,2289.75Z" fill="#faa2ad"/>
        <path id="パス_60" data-name="パス 60" d="M856.572,2257.979c-.7,1.073-.916,2.431-2.952,2.407a20.96,20.96,0,0,0-7.034,1.411,6.241,6.241,0,0,1-4.972-.126c-1.958-.827-2.224-2.4-2.783-4.027,1.359-.517,2.372-1.635,3.84-1.577,1.848.072,3.249-1.058,4.857-1.642,2.3-.835,3.214-2.229,3.082-4.75-.22-4.221-.085-8.461-.106-12.694-.005-.9.516-1.245,1.317-1.174.587.052.842.5.841,1.072a50.009,50.009,0,0,1-.071,6.342c-.4,3.05,1.737,5.631,1.321,8.7-.1.713,1.1,1.723,1.873,2.4C857.008,2255.4,857.5,2256.559,856.572,2257.979Z" fill="#faa2ad"/>
        <path id="パス_61" data-name="パス 61" d="M865.569,2218.948a3.63,3.63,0,0,1-2.342,3.11c-11.553,5.626-22.024,13.164-33.463,19.012a40.866,40.866,0,0,0-12.041,9.73,12.866,12.866,0,0,1-5.429,3.987c-6.362,1.893-11.5,5.673-16.464,9.761a14.84,14.84,0,0,1-6.892,3.414c-3.357.654-6.715,1.894-9.032,4.826a2.582,2.582,0,0,1-2.58,1.317,39.257,39.257,0,0,1,.05-13.265,33.669,33.669,0,0,0,.619-5.684c-.011-3.351.006-6.69,1.648-9.7a4.824,4.824,0,0,0,.42-3.589c-1.656-6.366-1.6-13.006-3.674-19.369-1.371-4.2-2.448-8.617-3.422-12.98a20.778,20.778,0,0,1-.076-7.93,10.458,10.458,0,0,1,4.677-7.255c4.1-2.615,8.259-5.161,12.159-8.053,9.1-6.749,18.682-12.837,27.517-19.955a18.627,18.627,0,0,1,5.992-3.058c2.947-.966,5.791-2.346,8.8-3a18.059,18.059,0,0,0,12.93-10.532c2.328-5.041,5.423-8.846,10.5-11.029,2.947-1.267,4.871-3.936,7.575-5.546.605-.361,1.08-.93,2.067-.63.994.651.433,1.8.368,2.771-.693,10.424,1.556,20.749.985,31.172-.308,5.608-1.213,11.164-1.087,16.815.137,6.153-.136,12.316,1.159,18.391.711.8.422,1.493.468,2.33.05.892.39,1.936-.314,2.954C866.894,2211.008,866.13,2214.964,865.569,2218.948Z" fill="#faa2ad"/>
        <g id="グループ_21" data-name="グループ 21">
          <path id="パス_62" data-name="パス 62" d="M817.543,2211.9c.118,4.382-.423,7.95-2.178,11.237-.255.478-.418.9-1.09.9-1.071-.008-1.025-.772-1.021-1.448a6.291,6.291,0,0,1,.653-3.027c1.013-1.958.4-4.171.358-6.261-.026-1.427-1.509-2.2-3.033-1.558-1.54.647-3.045,1.215-4.269-.186-.87-1,.373-2.513,2.7-3.78a5.832,5.832,0,0,1,2.435-.828c1.366-.1,2.082-1.235,2.852-2.187.909-1.124-.237-1.884-.523-2.828a2.594,2.594,0,0,1,1.827-3.34c.919-.327,2.228-.343,2.317,1.252.069,1.237.053,2.48.034,3.72-.013.907.49,1.356,1.278,1.174.865-.2.915-.975.533-1.636-1.2-2.074.818-1.574,1.306-1.345,2.285,1.073,3.84,3.046,5.284,5.036a35.57,35.57,0,0,1,1.616,3.234c.456.789,1.1,1.612.012,2.2a2.143,2.143,0,0,1-2.451-.369,9.3,9.3,0,0,1-2.559-3.285c-.352-.857-1.6-.8-2.34-.333-1.03.66.322,1.054.383,1.632.393,3.71,3.145,6.488,3.934,10.078a10.3,10.3,0,0,1-1.287,8.45,5.993,5.993,0,0,1-1.456,1.539c-1.247.874-2.782,1.1-3.863.059-1.029-.987-.294-2.146.461-3.261,3.382-4.99,3.287-7.244-.242-12.228C818.771,2213.879,818.382,2213.212,817.543,2211.9Z" fill="#231815"/>
          <path id="パス_63" data-name="パス 63" d="M837.668,2194.131c.883,1.661-1.448,3.428-.543,5.182,1.088,2.108-.6,3.212-1.2,4.674-.417,1.028-.292,1.761.5,2.282,2.745,1.818,5.066,4.959,9.107,2.986a2.688,2.688,0,0,1,2.081,0,2.788,2.788,0,0,1,1.893,2.877c-.131,1.268-1.09,1.749-2.013,2.193a2.357,2.357,0,0,1-1.57.015c-4.4-1.364-9.14-1.675-12.939-4.859-1.057-.886-1.76-1.49-1.691-2.833a6.15,6.15,0,0,1,.058-1.584c1.579-4.638,2.688-9.325,2.287-14.3-.047-.589.961-1.639,1.657-1.829,1.2-.327,2,.806,2.3,1.747A12.464,12.464,0,0,1,837.668,2194.131Z" fill="#231815"/>
          <path id="パス_64" data-name="パス 64" d="M803.379,2217.632a3.209,3.209,0,0,1,2.746.907c1.113,1.163,1.034,2.674-.468,3.322-3.172,1.369-6.522,2.267-8.986,5.038-.912,1.025-2.326.208-3.12-.9a3.376,3.376,0,0,1,.237-4.3C794.873,2220.682,801.906,2217.654,803.379,2217.632Z" fill="#231815"/>
          <path id="パス_65" data-name="パス 65" d="M800.792,2234.649a12.515,12.515,0,0,1-2.411-.029c-1.467-.269-1.523-1.813-1.977-2.807-.478-1.048.939-1.1,1.552-1.608,1.1-.9,2.311-.6,3.505-.694,1.546-.128,3.133.207,4.589-.781,1.427-.968,2.714-.427,3.585.928.994,1.547-.505,2.209-1.313,2.961C806.269,2234.527,803.715,2234.924,800.792,2234.649Z" fill="#231815"/>
          <path id="パス_66" data-name="パス 66" d="M849.267,2179.384c3.591-.259,6.264.931,8.979,1.8.685.219,2,.184,1.735,1.461a2.293,2.293,0,0,1-2.145,1.94c-1.869.039-3.7.292-5.576-.727C850.515,2182.906,849.936,2181.557,849.267,2179.384Z" fill="#231815"/>
          <path id="パス_67" data-name="パス 67" d="M796.8,2209.362a2.978,2.978,0,0,0-3.877,1.685c-.6.026-1.07.081-1.813.078-.072-1.568-.061-3.145-.237-4.7-.214-1.893-1.529-2.951-3.111-2.68-1.429.246-2.741,2.087-2.006,3.555a17.368,17.368,0,0,1,.987,3.983c-.114,1.784-1.227,2.534-2.707,3.425-1.266.763-2.74.493-3.863,1.43a2.439,2.439,0,0,0-1.044,2.737c.32,1.089,1.34.795,2.131,1.046,2.648.841,3.834-2.341,6.208-2.135.042,3.166.8,6.535-.036,9.45-1.3,4.559-.359,9.048-.808,13.535a3.253,3.253,0,0,0,1.4,3.185,1.716,1.716,0,0,0,2.787-.941c.868-2.972,1.453-5.761.254-9.039-1.286-3.512-2.064-7.536-1.063-11.261a26.066,26.066,0,0,0,.86-6.125,3.02,3.02,0,0,1,2.13-3.165c.355,0,.709.012,1.064.013,1.829,0,3.024-.783,3.232-2.7C797.346,2210.24,797.4,2209.564,796.8,2209.362Z" fill="#231815"/>
          <path id="パス_68" data-name="パス 68" d="M866.686,2206.954c-.307.12-.848.188-.887.366-.414,1.9-.852,3.448-3.126,4.3a11.646,11.646,0,0,1-7.211.408c-2.419-.654-1.918-2.9-1.384-4.869,1.819-.071,3.019,1.234,4.711,1.092a4.05,4.05,0,0,0,3.48-1.957,5.212,5.212,0,0,0-3.3-7.756,1.692,1.692,0,0,0-1.906.551,17.912,17.912,0,0,1-1.062,1.783c-.681.762-1.346,1.992-2.49,1.659-1.359-.4-2.9-1.56-2.793-2.873.231-2.75-1.479-5.061-1.261-7.726a9.784,9.784,0,0,1,.018-2.113,2.287,2.287,0,0,1,2.243-1.871,2.215,2.215,0,0,1,1.91,1.625,20.434,20.434,0,0,1,.15,3.683c.129,2.619,1.226,3.453,3.713,2.863,4.462-1.056,4.471-1.062,6.49,2.521.663,1.175.889,2.7,2.549,3.026C868,2203.327,868.05,2204.981,866.686,2206.954Z" fill="#231815"/>
        </g>
      </g>
      <path id="パス_69" data-name="パス 69" d="M694.965,2235.338c-1.457,0-3.029-.162-3.648-1.362l-.125-.242c-.971-1.88-1.888-3.655-1.58-5.866.271-1.941,1.86-2.783,3.538-3.4a10.322,10.322,0,0,1,3.562-.741,5.235,5.235,0,0,1,3.026.888c1.45.979,2.448,6.254,1.5,7.951-.52.933-1.534,1.632-3.39,2.336a5.9,5.9,0,0,1-2.266.433C695.374,2235.334,695.172,2235.338,694.965,2235.338Z" fill="#231815"/>
      <path id="パス_70" data-name="パス 70" d="M730.532,2233.766a4.669,4.669,0,0,1-2.292-.514,9.912,9.912,0,0,1-2.748-3.713c-.74-2.351-.345-4.1,1.21-5.35a6.365,6.365,0,0,1,3.877-1.311,4,4,0,0,1,2.579.784,11.336,11.336,0,0,1,2.016,2.1,5.013,5.013,0,0,1,.648,5.015,5.187,5.187,0,0,1-4.331,2.927A8.466,8.466,0,0,1,730.532,2233.766Z" fill="#231815"/>
    </g>
  </g>
</svg>
