<svg xmlns="http://www.w3.org/2000/svg" width="432" height="422.57" viewBox="0 0 432 422.57">
  <path id="パス_33" data-name="パス 33" d="M972,2220.117c0,16.03-14.6,30.2-18.008,45.2-3.52,15.486,3.4,34.572-3.34,48.543-6.852,14.2-26.158,20.653-35.9,32.852-9.788,12.258-11.816,32.5-24.074,42.288-12.2,9.74-32.368,7.247-46.569,14.1-13.972,6.74-24.553,24.13-40.038,27.65-15,3.409-32.043-7.59-48.072-7.59s-33.074,11-48.072,7.59c-15.485-3.52-26.067-20.91-40.038-27.65-14.2-6.852-34.371-4.358-46.57-14.1-12.258-9.788-14.286-30.03-24.074-42.288-9.74-12.2-29.047-18.65-35.9-32.852-6.74-13.971.18-33.056-3.34-48.541-3.409-15-18.008-29.17-18.008-45.2s14.6-30.2,18.008-45.2c3.52-15.485-3.4-34.571,3.34-48.542,6.852-14.2,26.158-20.653,35.9-32.852,9.788-12.258,11.816-32.5,24.074-42.288,12.2-9.74,32.368-7.247,46.569-14.1,13.972-6.74,24.553-24.131,40.038-27.65,15-3.409,32.043,7.589,48.072,7.589s33.074-11,48.072-7.589c15.485,3.519,26.067,20.91,40.038,27.65,14.2,6.852,34.371,4.358,46.57,14.1,12.258,9.788,14.286,30.03,24.074,42.288,9.74,12.2,29.047,18.65,35.9,32.852,6.74,13.971-.18,33.056,3.34,48.541C957.4,2189.916,972,2204.088,972,2220.117Z" transform="translate(-540 -2008.833)" fill="#fff2f6"/>
</svg>
