<?xml version="1.0" encoding="UTF-8"?>
<svg id="_レイヤー_2" data-name="レイヤー 2" xmlns="http://www.w3.org/2000/svg" viewBox="0 0 295.65 254.38">
  <defs>
    <style>
      .cls-1, .cls-2 {
        fill: #fff;
      }

      .cls-2, .cls-3, .cls-4, .cls-5 {
        fill-rule: evenodd;
      }

      .cls-3, .cls-6 {
        fill: #231815;
      }

      .cls-7 {
        fill: #0f0c0d;
      }

      .cls-4 {
        fill: #954828;
      }

      .cls-8, .cls-5 {
        fill: #faa2ad;
      }

      .cls-9 {
        fill: #f03c3c;
      }
    </style>
  </defs>
  <g id="design">
    <g>
      <path class="cls-6" d="M209.76,254.38c-3.21,0-5.66-.18-7.95-.57-.57-.1-1.15-.11-1.75-.11h-.36c-1.02,0-2.01-.03-3.02-.4-.25-.09-.55-.14-.94-.14-.28,0-.57,.02-.88,.04-.33,.03-.66,.05-1,.05-.14,0-.28,0-.42-.01-.59-.05-1.17-.15-1.73-.25-.6-.11-1.15-.2-1.71-.24-.89-.06-1.85-.09-3.05-.09-.67,0-1.34,0-2.02,.02-.68,0-1.36,.02-2.03,.02-1.72,0-3.76-.05-5.84-.4-.97-.16-2.01-.24-3.3-.24-.95,0-1.94,.04-2.9,.08-.85,.04-1.73,.08-2.6,.08-.18,0-.39,.03-.54,.08l-.15,.05-.1,.13c-.6,.79-1.43,.79-1.78,.79-.11,0-.55-.01-.67-.01h-10.78c-3.22,0-6.44,0-9.69-.02-.25,0-.5,.02-.75,.04-.32,.03-.61,.05-.91,.05-.49,0-1.15-.05-1.81-.47l-.21-.13-.23,.08c-.23,.08-.42,.15-.64,.18-.09,.01-.21,.04-.32,.06-.29,.06-.57,.13-.82,.13-.28,0-.49-.07-.65-.23-.19-.18-.38-.25-.67-.25-.12,0-.25,.01-.37,.02l-.28,.03c-.85,.06-1.72,.16-2.57,.26-.72,.08-1.45,.17-2.18,.23-.84,.07-1.65,.08-2.34,.08h-1.69c-1.52,0-2.8,.05-4.09,.34-.89,.2-1.89,.3-3.03,.3s-2.38-.1-3.54-.2l-.36-.03c-.23-.02-.46-.03-.68-.03-.94,0-1.86,.15-2.83,.3-.97,.16-1.96,.32-2.98,.32-2.36-.02-4.65-.02-6.94-.02h-8.69c-3.66,0-6.45,0-9.05-.03h-.4c-.67,0-1.34,.01-2.01,.03-.68,.02-1.36,.03-2.04,.03-1.34,0-3.1-.06-4.89-.5-.59-.15-1.21-.17-1.79-.17h-1.18c-.86,.01-1.79-.04-2.69-.37l-.1-.04h-.1c-.31,.02-.63,.03-.95,.03-1.51,0-3.02-.16-4.48-.31-1.44-.15-2.93-.31-4.39-.31-.33,0-.67,0-1.01,.03-.7,.04-1.41,.06-2.17,.06-2.23,0-4.48-.16-6.66-.32-2.19-.16-4.43-.32-6.63-.32-.84,0-1.62,.02-2.38,.07-.06,0-.12,0-.17,0-1.61,0-2.72-1.41-3.41-2.47l-.06-.09-.09-.06c-.92-.52-1.72-1.07-2.5-1.6-.8-.54-1.55-1.06-2.34-1.5-2.8-1.59-5.17-3.62-7.47-5.59-.16-.13-.36-.27-.58-.4-.2-.13-.42-.26-.62-.43-1.68-1.35-3.57-2.47-5.39-3.56-2.05-1.22-4.17-2.49-6.04-4.08l-.11-.09-.14-.02c-.65-.1-1.04-.57-1.35-.95-.28-.34-.49-.6-.82-.6h-.23s-.15-.18-.15-.18c-.58-.7-1.36-1.19-2.18-1.7-1.1-.69-2.36-1.48-3.08-2.88-.43-.84-1.22-1.63-1.96-1.96-2.42-1.1-2.73-3.04-2.71-4.97,.05-3.73,.08-7.37,0-10.98-.03-1.03-.01-3.2,0-5.94,.05-6.6,.12-17.65-.43-20.26-.38-1.78-.23-3.4,.43-4.83,.14-.29,.11-.7,.06-1.28-.03-.36-.07-.76-.03-1.15,.07-.7,.22-1.38,.37-2.05l.14-.67c.06-.29,.14-.56,.22-.83,.15-.52,.29-1,.27-1.45-.12-2.62,.1-5.25,.31-7.79,.09-1.02,.17-2.03,.23-3.05,.07-1.13,.07-2.14,0-3.06-.03-.41-.13-.82-.22-1.25-.12-.55-.25-1.12-.26-1.71-.05-4.18-.05-8.55,0-13.37,0-.43,.13-.82,.26-1.21,.11-.33,.21-.64,.21-.93s-.1-.6-.21-.93c-.12-.38-.25-.78-.26-1.21-.04-3.1-.03-6.25-.03-9.3v-3.38s.05-.1,.05-.1c.62-1.36,.4-2.74,.18-4.21-.04-.28-.09-.57-.13-.86-.25-1.86-.19-3.77-.14-5.62,.02-.78,.05-1.54,.05-2.29,0-.94,.6-1.6,1.52-1.7,.2-.02,.42-.03,.67-.03,.19,0,.37,0,.56,.01,.18,0,.35,.01,.53,.01,.23,0,.42,0,.59-.03,.42-.05,.83-.15,1.26-.25,.36-.09,.73-.18,1.11-.24,.25-.04,.54-.08,.82-.08,.16,0,.6,0,.88,.3,.21,.22,.42,.31,.79,.31,.12,0,.24,0,.36-.02,.2-.01,.35-.02,.5-.02,.07,0,.14,0,.21,0,.4,.03,.84,.04,1.34,.04,.57,0,1.15-.02,1.72-.04,.62-.02,1.21-.04,1.8-.04,1.1,0,2.55,.06,4.01,.53l.1,.03h.1c.58-.06,1.18-.09,1.82-.09,1.64,0,3.28,.17,4.87,.34,1.55,.16,3.15,.33,4.72,.33h.47c.89,0,1.78,0,2.66-.01,.88,0,1.76-.01,2.63-.01,2.38,0,5.15,.05,7.96,.39,1.52,.18,3.17,.27,5.19,.27,1.36,0,2.76-.04,4.12-.08,1.08-.03,2.18-.06,3.27-.07h.49s0-.5,0-.5c0-1.1,0-2.21,.02-3.32,.02-2.74,.04-5.58-.04-8.37-.03-1.22,0-2.44,.02-3.62,.05-2.71,.1-5.27-.43-7.87-.38-1.85-.25-3.42,.4-4.79,.2-.75,.18-3.37,.13-6.74-.06-4.33-.07-7.02,.24-7.72,.3-.67,.36-1.42,.43-2.22,.04-.51,.09-1.05,.2-1.57,.21-.98,.16-2,.12-3.09-.03-.67-.06-1.36-.02-2.05,.07-1.48,.26-2.96,.43-4.4l.08-.66c.19-1.55-.01-3.06-.23-4.67-.16-1.2-.33-2.45-.31-3.7,.02-1.6,.02-3.23,.01-4.8,0-1.73-.01-3.45,.02-5.15,0-.26-.01-.51-.03-.77-.06-.94-.13-1.97,.56-2.93l.07-.09,.02-.11c.02-.1,.02-.22,.01-.32v-.14s-.1-.11-.1-.11c-.7-.91-.62-1.92-.55-2.74,.01-.18,.03-.33,.03-.47,.07-1.47,.03-2.97-.01-4.42-.07-2.71-.15-5.51,.47-8.29l.04-.16c.22-.98,.33-1.71-.33-2.25l-.18-.15v-2.22c0-2.23-.02-4.47,.04-6.67,.02-.62,.81-1.36,1.39-1.46,.28-.05,.58-.07,.95-.07,.2,0,.39,0,.59,.01,.19,0,.37,.01,.56,.01s.36,0,.54-.02c.45-.05,.9-.15,1.37-.27,.33-.08,.67-.16,1-.22,.21-.04,.5-.09,.75-.09,.34,0,.58,.09,.73,.28,.22,.26,.44,.36,.83,.36,.15,0,.29-.01,.44-.03,.23-.02,.41-.04,.6-.04,.07,0,.15,0,.22,0,.88,.07,1.75,.08,2.55,.08h1.39c1.46,0,3.15,.03,4.83,.38,.82,.17,1.68,.2,2.42,.2,.28,0,1.43-.02,1.71-.02,1.08,0,2.24,.05,3.4,.4l.07,.02h.07c1.59,.04,3.16,.04,4.48,.04h3.37c3.56,0,7.35,.03,11.21,.41,1.55,.15,3.2,.22,5.18,.22,1.61,0,3.25-.05,4.84-.09,.97-.03,1.85-.05,2.74-.07,1.21-.02,2.42-.03,3.63-.03,3.02,0,6.14-.01,9.22-.37,1.54-.18,3.17-.26,5.15-.26,1.54,0,3.12,.05,4.64,.1,.86,.03,1.72,.06,2.58,.08,.31,0,.63,.01,.94,.01,.88,0,1.78-.02,2.65-.05,.93-.03,1.82-.05,2.71-.05,1.59,0,3.67,.07,5.78,.58h.06s14.46,.01,17.5,.02h.3c.6,0,1.25,.05,1.9,.64,1.5,1.34,3.24,2.25,5.09,3.21,.59,.31,1.15,.6,1.68,.89,.16,.06,.25,.08,.43,.1,.24,.03,.54,.07,.8,.23,2.64,1.66,5.45,3.15,8.16,4.59,1.3,.69,2.65,1.41,3.97,2.14,3.14,1.74,6.38,3.44,9.5,5.08,2.23,1.17,4.53,2.38,6.78,3.59,2.25,1.21,11.95,6.43,11.95,6.43,.87,.47,1.76,.95,2.61,1.46,.32,.19,.68,.64,.71,1.09,.03,.4,.02,.78,.01,1.14,0,.4-.02,.81,.02,1.19,.04,.33,.12,.66,.22,1,.12,.44,.25,.94,.27,1.44,.05,1.75,.04,3.52,.03,5.23,0,.73,0,1.42,0,2.11,0,.77,0,1.54-.01,2.3-.01,1.73-.03,3.52,.03,5.27,.04,1.12,.14,2.27,.23,3.37,.11,1.24,.22,2.5,.25,3.75,.07,2.62,.04,11.67,.03,17.07v3.82c0,1.04-.02,2.09-.04,3.14-.03,2.32-.06,4.71,.07,7.05,.1,1.8-.09,3.58-.28,5.31-.18,1.62-.34,3.14-.29,4.7,.01,.42,.05,.85,.08,1.28,.1,1.3,.21,2.64-.2,3.84-.32,.92-.32,1.78-.32,2.78,0,.41,0,.82-.03,1.25l-.03,.53h6.12c2.53,0,7.82,0,7.82,0,.44,0,1.18,0,1.89,.63,1.51,1.35,3.27,2.27,5.13,3.24,.56,.29,1.11,.58,1.63,.87,.16,.06,.25,.08,.42,.1,.25,.03,.55,.07,.81,.23,2.63,1.65,5.43,3.14,8.14,4.59,1.31,.7,2.66,1.42,3.98,2.15,3.08,1.71,6.27,3.38,9.34,4.99,2.34,1.23,4.67,2.45,6.95,3.68,2.24,1.21,4.48,2.42,6.73,3.62l4.83,2.6c1,.54,2.01,1.09,3,1.65,.33,.19,.7,.45,.72,.84,.02,.41,.02,.8,0,1.19,0,.49-.01,.95,.03,1.41,.04,.36,.13,.73,.22,1.12,.12,.51,.25,1.04,.26,1.59,.03,1.62,.02,3.27,.02,4.86,0,1.7-.01,3.41,.02,5.08,.02,.76,.02,1.53,.03,2.29,.02,2.43,.03,4.93,.38,7.39,.32,2.31,.25,4.68,.17,6.98-.03,1.02-.07,2.03-.07,3.02s0,1.96,.01,2.93c.02,2.36,.03,4.71-.03,7.03-.03,.94-.02,3.16-.02,5.97,0,7.06,.02,16.73-.39,19.09-.31,1.77-.33,3.56-.35,5.45-.01,1.39-.03,2.83-.17,4.24-.27,2.73-.22,5.54-.17,8.25,.06,3.33,.12,6.76-.39,10.15-.34,2.26-.19,4.65-.04,6.97l.02,.25c.1,1.53-.09,3.03-.27,4.48-.13,1.01-.25,1.96-.28,2.95-.06,1.55-.6,2.09-2.16,2.14-.19,0-.39,0-.59,0h-.99s-9.82,0-9.82,0c-3.74,0-6.61,0-9.34-.03-.27,0-.56,.02-.86,.05-.31,.02-.62,.05-.95,.05-.48,0-1.2-.05-1.91-.47l-.21-.13-.23,.09c-.24,.09-.43,.16-.64,.19-.1,.01-.2,.04-.31,.06-.27,.05-.55,.11-.8,.11-.29,0-.51-.07-.67-.22-.18-.16-.36-.19-.66-.19h-.26c-.16,0-.36,0-.56-.05-.22-.05-.44-.08-.68-.08-.58,0-1.16,.15-1.77,.31-.61,.16-1.24,.33-1.91,.35-.34,.01-.69,.01-1.03,.01-.52,0-1.03,0-1.55-.02-.52,0-1.03-.02-1.54-.02-1.25,0-2.73,.05-4.23,.4-.85,.2-1.8,.3-2.89,.3s-2.22-.1-3.3-.19l-.48-.04c-.24-.02-.47-.03-.71-.03-.95,0-1.87,.14-2.85,.29-.97,.15-1.96,.31-3.01,.31h-1.49c-1.5,0-3.01,0-4.51,.01h-.29c-1.5,0-3.01,.01-4.51,.01-2.51,0-4.57-.02-6.48-.06-.53-.01-1.06-.02-1.6-.02-1.3,0-2.63,.03-3.92,.06-1.29,.03-2.63,.06-3.94,.06Z"/>
      <path class="cls-2" d="M291.78,140.08c-2.03,.26-3.93-.87-6-.51-1.78-.92-3.72-.21-5.54-.56-4.8-.92-9.63-.36-14.45-.47-4.8-.11-9.6-.04-14.4,0-1.16,0-2.33-.23-3.48,.45-.45,.27-1.38,.31-2.02-.7-.05,.71-.14,1.19-.12,1.66,.16,3.09-.94,6.11-.53,9.21-.89,1.38-.14,3.04-.71,4.42-.63,1.53-.18,3.05-.33,4.57-.08,.83-.58,1.51-.59,2.4-.01,1.01-1.36,1.4-2.11,.67-1.14-1.13-2.2-2.35-3.4-3.65-.97,.37-1.25,1.51-1.77,2.46-.69,1.26-1.83,1.44-2.89,.48-.51-.47-1-.97-1.48-1.48-.49-.52-.45-1.73-1.36-1.57-.65,.11-1.16,.93-1.77,1.38-.45,.34-1.03,.56-1.43,.95-.58,.57-1.43,1.25-1.98,.98-.94-.46-1.65-1.47-1.66-2.65-.02-2.73-.84-5.4-.57-8.16,.14-1.41-.69-2.74-.53-4.23,.16-1.45,.04-2.94,.04-4.58h-2.64c-5.93,0-11.87,.02-17.8-.02-.98,0-2.08,.45-2.94-.49-.08-.09-.35-.05-.51,0-.63,.16-1.25,.47-1.88,.48-.54,.01-1.06-.38-1.62-.47-1.45-.26-2.82,.39-4.23,.48-1.91,.12-3.84,.04-5.76,.03-2.21-.02-4.34,.75-6.59,.57-2.16-.18-4.37-.17-6.53,.02-1.05,.09-2.05,.74-3.45,.24v2.22c0,.26,0,.52,0,.78-.28,12.5,.74,24.98,.6,37.48-.07,5.96-.89,27.12-.6,33.08-.86,2.5-.46,5.09-.51,7.64-.05,2.62,.06,5.24-.03,7.85-.09,2.72-.4,5.44-.49,8.16-.09,2.79-.01,5.59-.03,8.38,0,.32-.13,.64-.2,.96-.15,.68,.49,1.41,.98,1.05,.99-.72,1.79-.61,2.76,0,.37,.24,1.02,.04,1.55,.04,.7,0,1.49-.21,2.07,.05,.76,.33,1.18-.83,2.01-.16,.42,.35,1.34,.1,2.03,.1,1.83,0,3.67-.11,5.5,.04,1.85,.14,3.67-.25,5.59,.36,1.66,.53,3.63,.04,5.45,.17,1.15,.08,2.23,.62,3.45,.52,1.16-.09,2.34-.18,3.47,.46,.39,.23,1.03,.04,1.55,.04,3.23,0,6.46-.02,9.69,0,2.38,.02,4.72,.91,7.11,.51,6.45-1.08,12.97,.02,19.41-.62,3.61-.35,7.25,.05,10.77-.52,3.53-.57,7.02-.31,10.53-.41,3.49-.1,7.03-.39,10.46,.06,5.53,.73,11.04,.24,16.55,.43,1.89,.06,2.36-.39,2.37-2.25,.01-3.34,.76-6.62,.58-10-.19-3.39-.04-6.8-.04-10.21,0-2.36-.07-4.71,.02-7.07,.07-1.85,.39-3.69,.48-5.54,.09-1.83-.34-3.76,.1-5.48,.71-2.75,.21-20.7,.45-23.41,.12-1.33,.41-2.65,.5-3.97,.09-1.39,.23-2.83-.02-4.18-1.02-5.68,.07-11.42-.56-17.06-.79-7.08-.12-14.16-.54-21.4Z"/>
      <polygon class="cls-8" points="172 246.92 178.75 247.03 185.11 246.53 191.48 246.03 197.84 246.94 204.21 246.58 210.57 246.58 216.93 246.96 223.3 246.39 229.66 246.5 236.02 246.07 242.39 246.89 248.75 246.64 255.12 246.65 261.48 246.95 267.85 246.2 274.21 246.88 280.59 246.94 287.13 246.72 287.45 240.19 286.71 233.82 286.98 227.46 286.81 221.1 287.21 214.74 287.54 208.39 287.29 202.03 287.63 195.67 288.04 189.31 287.62 182.95 287.03 176.58 287.73 170.23 286.91 163.86 288.11 157.5 287.3 151.13 287.54 144.95 281.05 144.66 274.39 145.19 267.72 144.32 261.05 144.83 254.38 144.29 247.71 144.12 241.04 144.57 234.37 145.33 227.7 144.68 221.03 144.75 214.36 144.92 207.69 144.86 201.02 145.28 194.35 144.69 187.68 144.25 181 145.3 174.27 144.71 174.07 151.12 173.91 157.48 173.29 163.83 173.25 170.19 173.03 176.55 173.8 182.93 173.13 189.27 173.46 195.64 173.85 202.01 173.78 208.37 173.04 214.72 172.9 221.08 172.47 227.43 173.31 233.82 172.61 240.18 172 246.92"/>
      <g>
        <path class="cls-7" d="M259.3,213.62c-.53,6.94-4.11,10.49-11.78,9.74-.76-.07-1.53-.26-2.25-.53-2.15-.82-4.36-2.52-6.4-2.33-1.89,.17-3.88,1.72-5.91,2.49-3.06,1.16-6.19,1.66-9.44,1.35-5.8-.54-9.73-5.94-8.43-11.53,.09-.37,.14-.77,.3-1.11,.4-.85,.96-1.64,2.02-1.42,1.22,.26,1.7,1.24,1.34,2.35-1,3.04,.08,5.21,2.56,6.96,.88,.62,1.83,.91,2.84,1.1,3.78,.71,7.19-.79,10.31-2.39,3.31-1.7,2.64-8.7-.86-10.19-3.86-1.65-6.18-4.32-7.25-8.34-.62-2.34,.1-4.03,1.77-5.47,2.7-2.33,5.96-3.49,9.41-4.07,2.04-.34,3.68,.92,5.25,2.02,5.8,4.06,5.5,11.7-.66,15.02-1.61,.87-2.41,1.73-1.82,3.58,.19,.59,.11,1.28,.07,1.91-.24,4.17-.01,4.58,4.01,5.91,1.58,.52,3.23,1.18,4.84,1.15,4.89-.1,6.71-2.45,6.16-7.56-.13-1.25-.75-2.45-1.15-3.67-.36-1.1-.29-2.13,.94-2.54,1.16-.39,2.06,.27,2.47,1.3,.81,2.01,1.73,4.02,1.67,6.28Zm-22.5-9.03c2.44,.05,5.44-1.45,5.89-3.12,.54-1.98-.25-3.78-1.53-5.26-1.76-2.03-4.18-2.21-7.38-.75-3.97,1.82-4.29,5.2-.73,7.81,1.16,.85,2.43,1.4,3.74,1.32Z"/>
        <path class="cls-7" d="M249.54,167.91c6.42,1.01,11.86,3.9,16.36,8.52,.89,.92,1.63,1.99,1.86,3.29,.17,.95-.07,1.78-1.05,2.23-.81,.38-1.54,.12-2.08-.47-.77-.84-1.37-1.85-2.17-2.66-3.22-3.25-7.09-5.4-11.51-6.59-.86-.23-1.74-.42-2.55-.78-1.01-.45-1.73-1.28-1.34-2.43,.38-1.13,1.35-1.45,2.47-1.12Z"/>
        <path class="cls-7" d="M205.16,181.03c.07-1.53,.79-2.79,2.07-3.49,4.98-2.7,9.27-6.32,13.59-9.91,.29-.24,.62-.47,.96-.62,.77-.34,1.49-.24,2.09,.41,.58,.63,.75,1.39,.29,2.1-.48,.74-1.02,1.51-1.7,2.05-3.61,2.82-6.86,6.15-11.1,8.13-1.15,.54-2.22,1.13-2.68,2.54-.32,1-1.19,1.77-2.4,1.34-1.2-.42-1.25-1.49-1.13-2.57Z"/>
        <path class="cls-7" d="M220.93,191.54c-2.76,.05-4.88-1.98-4.95-4.75-.06-2.46,2.8-4.7,5.99-4.69,2.48,0,4.31,1.9,4.26,4.41-.05,2.65-2.51,4.98-5.3,5.03Z"/>
        <path class="cls-7" d="M252.36,181.48c3.52,.11,5.06,1.52,4.87,4.47-.16,2.48-2.47,4.83-4.66,4.75-2.38-.09-5.19-3.12-5.02-5.4,.17-2.3,2.19-3.9,4.82-3.82Z"/>
        <path class="cls-9" d="M236.8,204.59c-1.31,.09-2.58-.47-3.74-1.32-3.56-2.6-3.24-5.99,.73-7.81,3.2-1.47,5.62-1.29,7.38,.75,1.28,1.48,2.06,3.28,1.53,5.26-.45,1.66-3.45,3.17-5.89,3.12Z"/>
      </g>
      <path class="cls-2" d="M112.27,157.43c-.5,.76-1.11,1.6-1.63,2.5-.8,1.37-1.87,1.6-2.99,.47-.7-.71-1.52-1.3-1.91-2.34-.32-.87-.87-.83-1.59-.22-.83,.7-1.68,1.39-2.56,2.03-.56,.41-1.36,1.13-1.78,.98-.95-.34-1.71-1.5-1.65-2.34,.12-1.92-.88-3.67-.6-5.55,.34-2.25-.68-4.37-.54-6.59-.83-1.05-.4-2.29-.54-3.45-.1-.81-.29-1.62-.54-2.39-.07-.2-.51-.44-.75-.41-2.42,.35-4.71-.71-7.12-.58-2.35,.13-4.71-.03-7.07,.05-1.5,.05-2.99,.39-4.5,.48-1.48,.09-3.07-.32-4.43,.1-2.13,.65-4.24,.41-6.35,.42-6.8,.06-13.59,.02-20.58,.02,0,4.32-.08,8.58,.05,12.83,.04,1.32-.54,2.45-.6,3.71-.07,1.24,.51,2.59-.48,3.72-.09,.1-.02,.34-.01,.51,.15,3.61-.85,7.15-.55,10.78,.16,1.91-.04,3.84,.04,5.76,.13,3.16,.68,6.28,.54,9.47-.14,3.31-.03,21.87-.03,25.18v9.69c0,3.23,.16,6.47-.05,9.68-.21,3.24-.64,6.47-.48,9.73-1.11,2.39-.24,4.87-.58,7.43,6.17-.26,12.07,.91,18.02,.5,.35-.02,.7-.04,1.04,0,1.33,.16,2.65,.42,3.97,.5,1.39,.09,2.91-.33,4.16,.11,1.54,.54,3.05,.16,4.52,.46,4.71,.99,9.46,.24,14.19,.51,.81,.05,1.59,.41,2.41,.49,.86,.09,1.76,.12,2.61,0,6.9-.93,13.82-.34,20.73-.51,3.47-.96,7.06-.04,10.5-.61,3.53-.6,7.03-.32,10.53-.41,3.49-.09,7.03-.39,10.46,.06,5.53,.73,11.04,.24,16.55,.43,1.94,.07,2.4-.36,2.4-2.22,0-3.17,.77-6.27,.58-9.47-.19-3.22-.04-6.45-.04-9.68,0-2.71-.06-5.41,.02-8.12,.06-1.85,.39-3.69,.48-5.54,.09-1.83-.35-3.76,.1-5.47,.74-2.84,.2-20.88,.45-23.68,.11-1.24,.41-2.47,.5-3.71,.09-1.3,.2-2.65-.01-3.92-.99-5.93,.09-11.95-.59-17.84-.72-6.22-.06-12.42-.53-18.8h-2.51c-5.93,0-11.87-.11-17.8,.03-4.92,.12-9.82-.18-14.7-.65-2.03-.2-4.1-.11-6.06-.52-1.44-.3-2.82-.39-4.25-.44-.61-.02-.79,.29-.67,.79,.33,1.32-.57,2.44-.54,3.71,.03,1.31,.07,2.62-.01,3.93-.06,.9-.38,1.77-.49,2.67-.09,.82-.08,1.6-.46,2.44-.36,.79-.01,1.89-.09,2.84-.11,1.24-.27,2.49-.53,3.71-.18,.86-1.42,1.23-2.06,.61-1.21-1.19-2.32-2.47-3.61-3.87Z"/>
      <polygon class="cls-8" points="48.39 246.07 54.27 246.44 60.64 246.16 67 246.06 73.36 246.05 79.73 246.29 86.09 246.92 92.45 245.98 98.82 247.03 105.18 246.1 111.54 246.48 117.91 246.89 124.27 246.51 130.64 246 137 246.63 143.37 246.52 149.74 247.1 156.11 246.06 162.74 246.8 162.01 240.18 162.56 233.82 162.53 227.46 162.95 221.11 163.17 214.75 162.8 208.38 163.35 202.03 163.48 195.67 163.06 189.31 162.51 182.95 163.24 176.59 163.55 170.23 162.85 163.86 162.64 157.5 163.32 151.13 163.16 144.85 156.57 145.15 149.91 144.15 143.24 144.53 136.57 144.53 129.9 144.16 123.23 145.11 116.56 145.2 109.89 144.17 103.22 145.43 96.55 144.25 89.88 145.11 83.21 145.22 76.54 144.42 69.87 144.09 63.2 145.03 56.52 144.29 49.87 144.79 49.93 151.12 49.43 157.48 49.22 163.84 49.76 170.21 48.79 176.55 49.64 182.93 48.9 189.27 48.7 195.63 49.33 202.01 48.43 208.35 49.15 214.73 48.71 221.09 47.79 227.43 48.79 233.82 47.94 240.17 48.39 246.07"/>
      <g>
        <path class="cls-7" d="M132.54,213.62c-.53,6.94-4.11,10.49-11.78,9.74-.76-.07-1.53-.26-2.25-.53-2.15-.82-4.36-2.52-6.4-2.33-1.89,.17-3.88,1.72-5.91,2.49-3.06,1.16-6.19,1.66-9.44,1.35-5.8-.54-9.73-5.94-8.43-11.53,.09-.37,.14-.77,.3-1.11,.4-.85,.96-1.64,2.02-1.42,1.22,.26,1.7,1.24,1.34,2.35-1,3.04,.08,5.21,2.56,6.96,.88,.62,1.83,.91,2.84,1.1,3.78,.71,7.19-.79,10.31-2.39,3.31-1.7,2.64-8.7-.86-10.19-3.86-1.65-6.18-4.32-7.25-8.34-.62-2.34,.1-4.03,1.77-5.47,2.7-2.33,5.96-3.49,9.41-4.07,2.04-.34,3.68,.92,5.25,2.02,5.8,4.06,5.5,11.7-.66,15.02-1.61,.87-2.41,1.73-1.82,3.58,.19,.59,.11,1.28,.07,1.91-.24,4.17-.01,4.58,4.01,5.91,1.58,.52,3.23,1.18,4.84,1.15,4.89-.1,6.71-2.45,6.16-7.56-.13-1.25-.75-2.45-1.15-3.67-.36-1.1-.29-2.13,.94-2.54,1.16-.39,2.06,.27,2.47,1.3,.81,2.01,1.73,4.02,1.67,6.28Zm-22.5-9.03c2.44,.05,5.44-1.45,5.89-3.12,.54-1.98-.25-3.78-1.53-5.26-1.76-2.03-4.18-2.21-7.38-.75-3.97,1.82-4.29,5.2-.73,7.81,1.16,.85,2.43,1.4,3.74,1.32Z"/>
        <path class="cls-7" d="M122.77,167.91c6.42,1.01,11.86,3.9,16.36,8.52,.89,.92,1.63,1.99,1.86,3.29,.17,.95-.07,1.78-1.05,2.23-.81,.38-1.54,.12-2.08-.47-.77-.84-1.37-1.85-2.17-2.66-3.22-3.25-7.09-5.4-11.51-6.59-.86-.23-1.74-.42-2.55-.78-1.01-.45-1.73-1.28-1.34-2.43,.38-1.13,1.35-1.45,2.47-1.12Z"/>
        <path class="cls-7" d="M78.4,181.03c.07-1.53,.79-2.79,2.07-3.49,4.98-2.7,9.27-6.32,13.59-9.91,.29-.24,.62-.47,.96-.62,.77-.34,1.49-.24,2.09,.41,.58,.63,.75,1.39,.29,2.1-.48,.74-1.02,1.51-1.7,2.05-3.61,2.82-6.86,6.15-11.1,8.13-1.15,.54-2.22,1.13-2.68,2.54-.32,1-1.19,1.77-2.4,1.34-1.2-.42-1.25-1.49-1.13-2.57Z"/>
        <path class="cls-7" d="M94.16,191.54c-2.76,.05-4.88-1.98-4.95-4.75-.06-2.46,2.8-4.7,5.99-4.69,2.48,0,4.31,1.9,4.26,4.41-.05,2.65-2.51,4.98-5.3,5.03Z"/>
        <path class="cls-7" d="M125.6,181.48c3.52,.11,5.06,1.52,4.87,4.47-.16,2.48-2.47,4.83-4.66,4.75-2.38-.09-5.19-3.12-5.02-5.4,.17-2.3,2.19-3.9,4.82-3.82Z"/>
        <path class="cls-9" d="M110.04,204.59c-1.31,.09-2.58-.47-3.74-1.32-3.56-2.6-3.24-5.99,.73-7.81,3.2-1.47,5.62-1.29,7.38,.75,1.28,1.48,2.06,3.28,1.53,5.26-.45,1.66-3.45,3.17-5.89,3.12Z"/>
      </g>
      <path class="cls-2" d="M224.3,33.28c-1.36-.28-2.49-.52-3.62-.76-1.14-.24-2.43,.54-3.46-.51-.09-.09-.34-.03-.51,0-3.28,.39-6.47-.6-9.74-.56-7.24,.1-14.49,0-21.74,.05-1.68,.01-3.39-.37-5.05,.45-.45,.23-1.21-.16-1.99-.29,.41,3.16-.61,6.31-.6,9.58,.01,1.85-.22,3.8-.86,5.63-.22,.62-.18,1.38-.08,2.05,.22,1.56-.38,3-.57,4.5-.15,1.21-1.35,1.54-2.26,.63-1.14-1.14-2.18-2.37-3.39-3.71-.53,.82-1.12,1.68-1.65,2.58-.73,1.25-1.83,1.53-2.83,.6-.86-.8-1.74-1.6-2.26-2.72-.23-.51-.74-.7-1.24-.16-1.09,1.18-2.32,2.17-3.79,2.86-.43,.2-.66,.62-1.17,0-.77-.94-1.28-1.88-1.32-3.14-.04-1.24-.39-2.47-.47-3.71-.09-1.3,.19-2.66-.06-3.92-.51-2.46-1.06-4.9-1.03-7.43,0-.63-.29-1.26-.52-1.87-.06-.17-.38-.38-.55-.36-2.42,.35-4.72-.66-7.12-.56-1.74,.07-3.49,.07-5.24,0-3.53-.13-6.99,.92-10.52,.53-3.03,.93-6.14,.44-9.21,.51-3.14,.07-6.28,.02-9.43,.02-2.86,0-5.73,0-8.73,0,0,4.21-.05,8.29,.03,12.38,.03,1.38-.3,2.66-.54,3.98-.23,1.31,.39,2.74-.53,3.98-.08,.11-.01,.34-.01,.51,.07,3.78-.85,7.51-.54,11.31,.12,1.47-.08,13.64,.03,15.11,1.03,13.1,.3,26.22,.48,39.33,.02,1.58-.39,3.17-.48,4.76-.09,1.65,.35,3.43-.1,4.95-.75,2.49-.13,4.94-.56,7.6,.92,0,1.69,.07,2.44-.01,2.93-.34,5.78,.56,8.69,.54,2.97-.02,5.98-.32,8.89,.1,2.31,.33,4.62,.09,6.85,.5,1.78,.33,3.6,.1,5.28,.51,3.51,.85,7.03,.23,10.54,.45,3.07,.19,6.19,.8,9.2,.44,6.57-.79,13.16,.09,19.69-.54,3.61-.34,7.25,.07,10.78-.51,3.54-.58,7.03-.3,10.54-.41,3.49-.1,7.03-.39,10.46,.06,5.62,.74,11.22,.22,16.82,.43,1.25,.05,2.02-.6,1.98-1.85-.1-3.18,.7-6.28,.6-9.48-.18-5.93-.09-11.87-.02-17.81,.02-1.85,.39-3.69,.48-5.54,.09-1.92-.33-3.92,.1-5.74,.69-2.92,.23-5.81,.46-8.71,.1-1.24,.4-2.47,.49-3.71,.09-1.22,.19-2.47,0-3.66-1-6.02,.02-22.78-.6-28.77-.35-3.44-.33-6.85-.4-10.27-.08-3.4-.02-6.8-.02-10.22Z"/>
      <g>
        <path class="cls-5" d="M38.64,244.05c-.53-.3-.97-.59-1.27-.95l-.37-.44-.54-.18c-1.55-.51-2.84-1.64-4.21-2.84-.4-.35-.8-.7-1.21-1.04-2.47-2.04-4.92-3.99-7.84-5.55-.67-.36-1.33-.81-2.02-1.3-.3-.21-.6-.42-.9-.62-.63-.42-1.27-.83-1.92-1.24-1.44-.92-2.81-1.79-4.03-2.8-.82-.68-1.66-1.29-2.49-1.88-1.4-1.01-2.72-1.96-3.77-3.16-.11-.12-.21-.25-.32-.38-.52-.62-1.14-1.36-2-1.86,0-.25,0-.5,.02-.75,.03-1.24,.07-2.62-.48-4.06,.66-1.08,.56-2.21,.49-2.88-.01-.15-.03-.3-.03-.45,.04-3.04,.04-21.53,0-24.72,0-.15,.02-.3,.03-.45,.06-.65,.18-1.86-.55-2.95-.01-.32-.03-.64-.04-.96-.05-1.11-.1-2.15,.11-3,.31-1.25,.47-2.47,.62-3.64,.09-.71,.18-1.41,.3-2.12,.16-.91,.17-1.76,.18-2.58,0-.9,.02-1.74,.24-2.5,.37-1.25,.3-2.5,.23-3.6-.03-.55-.07-1.08-.04-1.54,.03-.59,.12-1.21,.21-1.86,.14-.97,.28-1.98,.26-3.04-.02-1.23-.13-2.45-.24-3.62-.11-1.21-.22-2.34-.22-3.47-.04-10.28-.03-20.73-.02-30.83v-5.08c.48,.34,.94,.77,1.42,1.23,.56,.53,1.13,1.07,1.82,1.56,1.85,1.31,3.77,2.57,5.62,3.79,1.59,1.05,3.24,2.14,4.83,3.24,2.57,1.79,5.6,3.94,8.51,6.28,2.93,2.35,5.99,4.54,9.14,6.76,1.91,1.35,2.53,2.37,2.44,4.07-.02,.3-.04,.6-.07,.91-.12,1.44-.28,3.21,.52,4.97-.66,1.34-.58,2.68-.51,3.69,.03,.43,.06,.83,.02,1.16-.05,.5,0,.97,.04,1.34,.01,.12,.03,.29,.03,.4-.63,1.25-.6,2.46-.57,3.36,.01,.42,.02,.78-.03,1.07l-.05,.25c-.25,1.37-.51,2.78-.53,4.31v1.06c-.03,1.81-.04,3.52-.34,5.23-.38,2.12-.29,4.26-.21,6.32,.03,.8,.07,1.6,.07,2.4,0,.75,.17,1.35,.52,1.85,.06,.08,.03,.51,0,.8-.03,.45-.07,1.01,.02,1.62l.49,3.25c-1.05,4.36-.51,18.77-.48,19.45,.07,1.85,.04,3.75,.01,5.59-.05,3.29-.1,6.69,.39,10.12,.36,2.49,.57,5.11-.31,7.41l-.17,.45,.05,.48c.14,1.3-.03,2.66-.21,4.09-.16,1.25-.32,2.55-.28,3.9,.05,1.95-.15,3.9-.37,5.95Z"/>
        <path class="cls-1" d="M8.82,120.05s.06,.04,.09,.06c1.88,1.33,3.81,2.6,5.67,3.83,1.58,1.04,3.22,2.13,4.78,3.21,2.54,1.77,5.53,3.89,8.4,6.2,2.97,2.39,6.07,4.6,9.24,6.83,1.65,1.17,1.63,1.65,1.59,2.32-.02,.28-.04,.56-.06,.85-.12,1.4-.28,3.2,.36,5.12-.51,1.51-.41,2.91-.35,3.84,.02,.31,.04,.67,.03,.84-.06,.62-.02,1.17,.02,1.59-.59,1.47-.56,2.82-.53,3.75,0,.24,.01,.56,0,.66l-.05,.25c-.26,1.45-.54,2.95-.56,4.64,0,.36,0,.72-.01,1.07-.01,1.72-.03,3.35-.3,4.9-.42,2.34-.32,4.58-.24,6.75,.03,.81,.06,1.58,.07,2.33,0,.89,.18,1.7,.53,2.4,0,.03,0,.06,0,.09-.04,.52-.09,1.23,.03,2.06l.19,1.27c.07,.46,.14,.92,.21,1.39-.33,1.5-.52,4.22-.54,10.01-.01,4.56,.09,9.06,.12,9.81,.07,1.79,.04,3.59,.01,5.49-.05,3.37-.11,6.85,.41,10.44,.37,2.57,.48,4.64-.2,6.42l-.34,.9,.1,.95c.12,1.07-.04,2.32-.2,3.63-.16,1.26-.33,2.7-.3,4.2,.02,.79,0,1.58-.06,2.39-1.11-.41-2.17-1.34-3.39-2.4-.42-.36-.83-.73-1.26-1.08-2.45-2.02-5.09-4.13-8.17-5.78-.56-.3-1.17-.72-1.81-1.17-.31-.22-.62-.43-.93-.64-.64-.43-1.3-.85-1.96-1.27-1.39-.88-2.7-1.72-3.82-2.65-.87-.73-1.75-1.36-2.6-1.97-1.3-.94-2.54-1.83-3.43-2.85-.1-.11-.19-.23-.29-.35-.38-.46-.87-1.04-1.51-1.59,.03-1.04,.02-2.31-.34-3.66,.51-1.35,.39-2.61,.33-3.21,0-.09-.02-.18-.02-.23,.04-3.05,.04-21.57,0-24.74,0-.08,.01-.17,.02-.26,.07-.7,.22-2.22-.56-3.73,0-.16-.01-.31-.02-.47-.05-.95-.09-1.86,.05-2.42,.34-1.36,.5-2.64,.66-3.88,.09-.71,.18-1.38,.29-2.02,.19-1.07,.2-2.05,.21-2.91,0-.78,.01-1.46,.16-1.94,.48-1.59,.38-3.1,.31-4.31-.03-.49-.06-.96-.04-1.31,.03-.51,.11-1.08,.19-1.69,.14-1,.3-2.13,.28-3.34-.02-1.32-.13-2.57-.25-3.78-.11-1.16-.21-2.26-.21-3.3-.04-10.28-.03-20.74-.02-30.85v-.7m-3.72-7.69s-.07,.02-.08,.06c-.12,1.02-.2,2.04-.2,3.06-.01,12.04-.04,24.09,.02,36.14,0,2.37,.43,4.74,.46,7.11,.02,1.58-.38,3.17-.47,4.76-.09,1.57,.33,3.24-.11,4.69-.54,1.8-.17,3.57-.48,5.3-.33,1.86-.43,3.76-.89,5.63-.41,1.64-.1,3.46-.12,5.2,.91,.74,.49,1.77,.51,2.66,.04,3.14,.05,21.52,0,24.66-.01,.9,.39,1.89-.48,2.69-.17,.16-.14,.73,0,1.01,.79,1.62,.43,3.34,.5,5.03,.02,.53,.05,.78,.73,1.05,.82,.32,1.44,1.22,2.07,1.94,1.86,2.13,4.34,3.48,6.48,5.27,1.88,1.57,4.06,2.79,6.11,4.17,1.02,.69,2.01,1.44,3.09,2.02,2.73,1.46,5.12,3.36,7.5,5.33,1.89,1.56,3.63,3.43,6.07,4.24,1.2,1.43,3.13,1.79,4.46,3.22,.28-3.28,.8-6.38,.72-9.55-.07-2.72,.78-5.41,.48-8.16,1.04-2.75,.81-5.69,.42-8.41-.75-5.18-.19-10.35-.39-15.51-.05-1.32-.43-17.98,.49-19.21,.04-.05,.02-.17,0-.26-.17-1.15-.35-2.3-.52-3.45-.16-1.08,.36-2.23-.36-3.26-.13-.19-.16-.47-.16-.71-.01-2.79-.37-5.65,.11-8.36,.4-2.24,.34-4.41,.37-6.61,.02-1.45,.29-2.83,.54-4.24,.24-1.31-.26-2.67,.48-4,.34-.6,0-1.54,.07-2.32,.15-1.5-.47-3.08,.49-4.51,.16-.24,.15-.75,0-1.02-.95-1.7-.54-3.55-.45-5.29,.14-2.74-1.19-4.33-3.28-5.81-3.06-2.16-6.11-4.33-9.04-6.68-2.78-2.24-5.69-4.32-8.62-6.36-3.44-2.4-7.01-4.61-10.43-7.03-1.23-.87-2.19-2.11-3.49-2.96-1.64-1.06-2.4-1.53-2.63-1.53h0Z"/>
      </g>
      <g>
        <path class="cls-5" d="M96.8,132.25c-.66-.41-1.29-.78-1.87-1.12-1.9-1.11-3.59-2.47-5.37-3.9-.4-.32-.8-.64-1.2-.96-.49-.39-.97-.8-1.44-1.21-.61-.52-1.23-1.06-1.9-1.57-.5-.38-1-.69-1.49-1-.6-.37-1.16-.72-1.56-1.11-1.94-1.88-4.1-3.37-6.2-4.81l-.84-.58c-1.66-1.15-3.3-2.32-4.95-3.5-1.96-1.4-3.99-2.85-6.02-4.23-.03-.02-.06-.04-.09-.06,0-.28,.03-.55,.05-.82,.08-1.08,.19-2.52-.52-3.96,.69-1.1,.58-2.25,.52-2.93-.01-.15-.03-.31-.03-.45,.05-3.02,.05-6.21,0-9.48,0-.14,.02-.29,.03-.44,.06-.65,.18-1.85-.55-2.95,0-.32-.02-.64-.04-.96-.05-1.11-.1-2.15,.11-3.01,.29-1.14,.41-4.4,.59-9.64,.09-2.71,.21-6.09,.33-6.79,.16-.91,.17-1.75,.18-2.57,0-.9,.02-1.75,.24-2.5,.38-1.25,.3-2.5,.23-3.61-.03-.55-.07-1.07-.04-1.54,.03-.59,.12-1.2,.21-1.85,.14-.97,.28-1.98,.26-3.04-.02-1.23-.13-2.45-.24-3.62-.11-1.21-.22-2.35-.22-3.47-.04-10.5-.03-21.17-.02-31.5v-4.41c.49,.34,.95,.78,1.43,1.23,.55,.52,1.13,1.07,1.82,1.55,1.84,1.3,3.74,2.56,5.58,3.77,1.61,1.06,3.27,2.15,4.86,3.26,2.39,1.66,5.52,3.88,8.51,6.28,3.02,2.43,6.17,4.67,9.14,6.75,1.91,1.34,2.52,2.37,2.43,4.07-.02,.3-.04,.61-.07,.92-.12,1.44-.27,3.2,.52,4.96-.66,1.34-.57,2.68-.51,3.69,.03,.43,.06,.83,.02,1.16-.05,.5,0,.96,.03,1.34,.01,.12,.03,.29,.03,.4-.63,1.26-.6,2.48-.58,3.39,.01,.42,.02,.78-.03,1.07-.05,.32-.11,.65-.17,.97-.19,1.04-.39,2.11-.41,3.31v1.19c0,1.85-.01,3.6-.33,5.35-.39,2.16-.31,9.32-.18,16.46,.02,1.31,.04,2.35,.04,2.93,0,.75,.18,1.36,.53,1.86,.05,.07,.02,.5,0,.79-.03,.45-.07,1.01,.02,1.62l.45,2.93c-.67,1.32-.56,2.63-.49,3.63,.02,.21,.03,.42,.04,.63,.07,1.87,.04,3.8,.02,5.66-.04,3.35-.09,6.82,.39,10.31,.32,2.35,.59,5.06-.31,7.43l-.17,.45,.05,.48c.14,1.3-.03,2.66-.21,4.09-.16,1.25-.32,2.55-.28,3.91,.05,1.9-.14,3.79-.35,5.77Z"/>
        <path class="cls-1" d="M66.96,13s.06,.04,.09,.07c1.87,1.32,3.78,2.58,5.64,3.8,1.6,1.05,3.25,2.14,4.82,3.24,2.36,1.65,5.46,3.84,8.4,6.2,3.07,2.46,6.25,4.73,9.24,6.83,1.64,1.16,1.62,1.65,1.58,2.32-.01,.28-.04,.57-.06,.85-.12,1.39-.27,3.19,.36,5.11-.51,1.51-.41,2.91-.35,3.84,.02,.31,.04,.67,.03,.83-.06,.62-.02,1.17,.02,1.6-.6,1.49-.56,2.84-.54,3.78,0,.25,.01,.58,0,.69-.05,.31-.11,.62-.17,.93-.2,1.07-.43,2.28-.44,3.66,0,.4,0,.8,0,1.2,0,1.76,0,3.42-.29,4.99-.39,2.12-.37,7.78-.21,16.86,.02,1.29,.04,2.32,.04,2.9,0,.9,.19,1.71,.53,2.4,0,.03,0,.06,0,.08-.04,.52-.09,1.24,.03,2.07l.3,1.96,.06,.38c-.61,1.58-.49,3.07-.41,4.07,.01,.18,.03,.37,.04,.55,.07,1.82,.04,3.64,.02,5.56-.04,3.43-.09,6.97,.41,10.61,.3,2.21,.53,4.52-.2,6.45l-.34,.89,.1,.95c.11,1.07-.04,2.31-.2,3.63-.16,1.27-.33,2.7-.3,4.2,.02,.78,0,1.56-.05,2.36-1.46-.94-2.84-2.05-4.29-3.22-.4-.32-.8-.65-1.21-.97-.45-.36-.9-.75-1.38-1.16-.63-.54-1.28-1.1-1.99-1.65-.57-.44-1.14-.79-1.65-1.1-.5-.31-.98-.61-1.22-.85-2.06-2-4.29-3.53-6.46-5.02l-.83-.57c-1.64-1.14-3.31-2.33-4.92-3.48-1.7-1.21-3.44-2.46-5.21-3.68,.07-1.01,.11-2.3-.35-3.69,.5-1.31,.39-2.54,.33-3.19,0-.09-.02-.18-.02-.24,.05-3.04,.05-6.25,0-9.5,0-.09,.01-.18,.02-.26,.07-.69,.21-2.21-.56-3.72,0-.16-.01-.32-.02-.48-.05-.96-.09-1.86,.05-2.43,.32-1.3,.45-4.06,.65-10.05,.08-2.45,.2-5.82,.3-6.51,.19-1.07,.2-2.04,.21-2.9,0-.79,.01-1.46,.16-1.94,.48-1.59,.39-3.1,.31-4.31-.03-.49-.06-.96-.04-1.3,.03-.51,.11-1.09,.19-1.7,.14-1,.3-2.13,.28-3.34-.02-1.32-.13-2.57-.25-3.78-.11-1.16-.21-2.26-.21-3.3-.04-10.48-.03-21.15-.02-31.46v-.09m-3.72-7.69s-.07,.02-.07,.06c-.12,1.02-.2,2.04-.2,3.06-.01,12.04-.03,24.09,.02,36.14,0,2.37,.43,4.74,.46,7.12,.02,1.58-.38,3.17-.47,4.76-.09,1.57,.33,3.24-.11,4.69-.54,1.8-.17,3.57-.47,5.3-.33,1.87-.43,14.43-.89,16.3-.41,1.64-.1,3.46-.12,5.2,.9,.75,.5,1.76,.51,2.66,.04,3.14,.05,6.28,0,9.43-.01,.9,.38,1.88-.48,2.7-.22,.21-.2,.95,0,1.26,.92,1.44,.42,3.01,.45,4.52,.02,.82,.36,1.02,.96,1.43,3.69,2.52,7.28,5.18,10.95,7.72,2.34,1.62,4.72,3.17,6.78,5.17,.93,.91,2.18,1.46,3.23,2.26,1.14,.87,2.19,1.87,3.32,2.76,2.21,1.75,4.33,3.58,6.8,5.02,1.52,.88,3.1,1.82,4.52,3.03,.27-3.18,.79-6.28,.72-9.45-.07-2.72,.77-5.41,.48-8.16,1.04-2.75,.79-5.69,.42-8.41-.72-5.27-.2-10.52-.4-15.77-.04-1.24-.38-2.57,.5-3.71,.04-.05,.02-.17,0-.26-.17-1.15-.35-2.3-.52-3.45-.16-1.08,.36-2.23-.35-3.26-.13-.19-.16-.47-.16-.71-.01-2.79-.39-16.32,.11-19.02,.43-2.32,.34-4.59,.36-6.87,.02-1.38,.34-2.66,.56-3.98,.22-1.32-.26-2.67,.48-4,.33-.6,0-1.55,.07-2.32,.15-1.5-.47-3.08,.49-4.51,.16-.24,.15-.76,0-1.02-.95-1.7-.54-3.55-.45-5.29,.14-2.74-1.19-4.34-3.28-5.81-3.06-2.15-6.11-4.33-9.04-6.68-2.78-2.23-5.69-4.32-8.62-6.36-3.44-2.4-7.01-4.61-10.43-7.02-1.23-.87-2.18-2.11-3.49-2.96-1.63-1.05-2.41-1.53-2.63-1.53h0Z"/>
      </g>
      <g>
        <path class="cls-5" d="M62.41,136.54c-1.64-.05-3.33-.17-4.96-.29-2.2-.16-4.47-.33-6.75-.33-.95,0-1.82,.03-2.68,.08-.11,0-.21,0-.32,0,0,0-.76-.01-.93-.01-.2,0-.4,0-.59,.02-.06,0-.13,0-.2,0-.57,0-.99-.18-1.39-.6-1.58-1.66-3.4-2.92-5.15-4.14-.99-.69-1.92-1.34-2.81-2.05-1.45-1.16-2.97-2.26-4.45-3.32-1-.72-2-1.44-2.97-2.18-1.26-.95-2.56-1.85-3.71-2.64-.99-.68-1.98-1.36-2.97-2.03-1.77-1.2-3.59-2.44-5.34-3.7-1.22-.88-2.44-1.79-3.68-2.72,.51,.04,1.02,.08,1.53,.12,.51,.04,1.01,.05,1.52,.05,.4,0,.81,0,1.21-.02,.38,0,.75-.02,1.13-.02,.87,0,1.88,.04,2.84,.34,.58,.19,1.21,.27,1.97,.27,.41,0,.83-.03,1.26-.06,.34-.02,.67-.05,1.01-.05,.12,0,.25,0,.37,.01,.45,.04,.92,.13,1.43,.23,.78,.15,1.66,.32,2.61,.32,.16,0,.32,0,.49-.02,.55-.03,1.1-.04,1.65-.04,.44,0,.88,0,1.32,.01,.46,0,.92,.01,1.38,.01,.36,0,.72,0,1.08-.01,.76-.02,1.51-.03,2.27-.03,3.02,0,6.11,.16,9.1,.32,3.04,.16,6.18,.32,9.31,.32,1.33,0,2.57-.03,3.77-.09h0c.26,0,.54,.07,1.12,.53,1.56,1.26,3.2,2.41,4.79,3.52,.52,.37,1.04,.73,1.56,1.1,1.12,.8,2.28,1.55,3.39,2.28,1,.65,1.99,1.3,2.97,1.99,2.57,1.8,5.06,3.86,7.46,5.85,1.38,1.14,2.8,2.32,4.24,3.46,1.13,.89,2.32,1.68,3.48,2.42-.27,0-.54-.01-.82-.01-.34,0-1.68,.02-2.01,.02s-.68,0-1.01-.02c-.07,0-.15,0-.22,0-.27,0-.54,.02-.81,.05-.13,.01-.25,.03-.38,.03-.42-.4-1-.62-1.65-.62-.58,0-1.1,.18-1.51,.53-.05,.04-.13,.11-.49,.11-.24,0-.49-.02-.73-.05-.36-.03-.73-.06-1.09-.06-.19,0-.38,0-.56,.03-.35,.03-.71,.04-1.06,.04-.4,0-.8-.01-1.2-.03-.44-.01-.88-.03-1.32-.03-1,0-2.27,.06-3.6,.5-.41-.04-.83-.05-1.27-.05-1.35,0-2.64,.17-3.89,.33-1.18,.15-2.29,.3-3.38,.3-.12,0-.24,0-.36,0Z"/>
        <path class="cls-1" d="M19.88,114.81c.5,.04,.9,.11,1.25,.22,.78,.25,1.62,.37,2.58,.37,.5,0,.98-.03,1.39-.06,.32-.02,.63-.04,.87-.04,.07,0,.14,0,.21,0,.34,.03,.77,.11,1.22,.2,.82,.16,1.84,.35,2.99,.35,.2,0,.41,0,.61-.02,.44-.03,.92-.04,1.52-.04,.43,0,.86,0,1.29,.01,.47,0,.94,.01,1.41,.01,.38,0,.76,0,1.14-.02,.71-.02,1.45-.03,2.21-.03,2.96,0,6.03,.16,8.99,.32,3.07,.16,6.24,.33,9.41,.33,1.24,0,2.4-.02,3.53-.08,.03,.02,.06,.05,.1,.08,1.61,1.3,3.28,2.47,4.89,3.6,.52,.36,1.03,.73,1.55,1.09,1.15,.82,2.33,1.59,3.46,2.33,1.02,.66,1.98,1.29,2.92,1.95,2.51,1.76,4.85,3.7,7.33,5.76,.71,.59,1.43,1.18,2.15,1.78-.02,0-.03,0-.05,0-.83,0-1.62,.22-2.28,.62-.09,0-.18-.02-.27-.02-.35-.03-.79-.07-1.27-.07-.26,0-.51,.01-.75,.03-.25,.02-.53,.03-.87,.03-.38,0-.76-.01-1.13-.02-.46-.01-.92-.03-1.38-.03-1.06,0-2.39,.06-3.83,.48-.34-.02-.68-.03-1.03-.03-1.48,0-2.84,.18-4.15,.35-1.11,.15-2.16,.28-3.12,.28-.1,0-.2,0-.3,0-1.6-.05-3.19-.17-4.87-.29-2.23-.16-4.54-.33-6.89-.33-.99,0-1.91,.03-2.82,.09-.06,0-.12,0-.18,0-.12,0-.25,0-.37,0-.19,0-.37,0-.56,0-.24,0-.49,0-.73,.02h-.03c-1.72-1.79-3.61-3.11-5.44-4.38-.96-.67-1.87-1.3-2.7-1.96-1.49-1.2-3.04-2.31-4.54-3.39-.97-.7-1.98-1.43-2.94-2.15-1.29-.97-2.61-1.89-3.77-2.69-.99-.69-1.99-1.36-2.99-2.04-1.25-.85-2.53-1.72-3.78-2.6m-11.67-4.58c-.26,0-.61,0-1.17,0,3.25,2.45,6.08,4.65,8.99,6.74,2.74,1.98,5.57,3.83,8.35,5.76,1.22,.85,2.45,1.7,3.64,2.59,2.44,1.85,5.01,3.57,7.38,5.47,2.55,2.05,5.49,3.61,7.77,6.01,.79,.83,1.73,1.22,2.83,1.22,.11,0,.22,0,.34-.01,.15-.01,.3-.01,.45-.01,.31,0,.62,.01,.93,.01,.15,0,.3,0,.45-.01,.85-.06,1.7-.08,2.54-.08,3.89,0,7.76,.5,11.64,.62,.14,0,.28,0,.42,0,2.44,0,4.84-.63,7.28-.63,.5,0,1.01,.03,1.52,.09,1.1-.45,2.22-.54,3.35-.54,.84,0,1.68,.05,2.52,.05,.42,0,.83-.01,1.25-.05,.12-.01,.25-.02,.38-.02,.6,0,1.22,.11,1.82,.11s1.23-.12,1.79-.59c.04-.03,.12-.05,.21-.05,.11,0,.23,.03,.28,.08,.39,.44,.85,.54,1.31,.54,.41,0,.84-.08,1.25-.08,.04,0,.09,0,.13,0,.37,.02,.74,.02,1.11,.02,.67,0,1.34-.02,2.01-.02,.44,0,.89,0,1.33,.03,1.33,.08,2.65,.36,3.98,.49,.26,.03,.52,.03,.81,.03,.46,0,.99-.02,1.69-.02-.89-.84-1.54-1.3-2.25-1.81-2.28-1.64-4.76-2.96-6.98-4.71-3.95-3.1-7.66-6.48-11.79-9.37-2.1-1.47-4.28-2.79-6.35-4.26-2.09-1.49-4.24-2.93-6.26-4.55-.67-.54-1.4-.98-2.32-.98-.05,0-.1,0-.15,0-1.22,.06-2.44,.09-3.67,.09-6.14,0-12.26-.64-18.4-.64-.78,0-1.55,.01-2.33,.03-.34,.01-.68,.01-1.02,.01-.9,0-1.8-.03-2.71-.03-.59,0-1.18,.01-1.77,.05-.12,0-.24,.01-.36,.01-1.33,0-2.58-.43-3.88-.54-.18-.01-.36-.02-.54-.02-.75,0-1.52,.1-2.26,.1-.47,0-.93-.04-1.36-.18-1.15-.36-2.3-.44-3.44-.44-.78,0-1.56,.03-2.34,.03-.45,0-.9-.01-1.36-.05-2.2-.18-4.39-.35-6.59-.52-.13,0-.25-.01-.41-.01h0Z"/>
      </g>
      <g>
        <path class="cls-5" d="M119.11,29.52c-1.11,0-1.96-.07-2.7-.24-1.23-.27-2.39-.31-3.35-.31-.33,0-.66,0-.99,0-.31,0-.62,0-.93,0s-.63,0-.94-.02c-.87-.04-1.8-.07-2.82-.07-1.12,0-2.24,.03-3.35,.06h0c-.32,0-.63-.09-1.21-.54-.46-.36-.91-.74-1.36-1.12-.57-.49-1.16-.99-1.81-1.47-.71-.52-1.4-1.06-2.1-1.59-.95-.73-1.93-1.49-2.93-2.2-1.21-.85-2.39-1.73-3.58-2.61-1.14-.84-2.28-1.69-3.44-2.51-.84-.59-1.65-1.21-2.47-1.83-1.42-1.07-2.88-2.18-4.46-3.18-2.94-1.85-5.86-3.88-8.95-6.23,.19,.02,.39,.03,.59,.04,.88,.04,1.75,.04,2.62,.04,1.83,0,3.56,.01,5.28,.32,2.58,.46,5.19,.52,7.72,.57,1.01,.02,2.03,.04,3.04,.09,.39,.02,.78,.03,1.17,.03s.75,0,1.12-.03c.98-.05,1.99-.08,3.08-.08,2.63,0,5.34,.16,7.95,.31,2.67,.16,5.44,.32,8.19,.32,.75,0,1.5-.01,2.25-.04h.2c.92,0,1.61,.25,2.36,.88,1.31,1.09,2.85,1.87,4.19,2.51,2.45,1.17,4.66,2.71,7,4.34l1.24,.86c1.66,1.14,3.18,2.29,4.66,3.51,1.62,1.33,3.32,2.58,4.96,3.8,1.02,.75,2.04,1.51,3.04,2.28,.39,.3,.78,.67,1.2,1.05,.72,.66,1.45,1.34,2.37,1.89-.24,0-.89,0-.89,0-.69-.44-1.51-.67-2.39-.67-.67,0-1.38,.13-2.13,.39-.71,.25-1.47,.3-2.4,.3h-1.3c-.46,0-.92,0-1.38,.04-.35,.03-.71,.04-1.07,.04,0,0-1.22-.01-1.47-.01-1.17,0-2.44,.06-3.78,.53-.14,.05-.36,.07-.65,.07-.31,0-.62-.02-.94-.05-.42-.03-.83-.06-1.24-.06-.18,0-.36,0-.54,.02-.7,.05-1.35,.15-1.99,.25-.67,.11-1.31,.21-1.9,.22l-.94,.03c-.61,.02-1.21,.04-1.82,.04Z"/>
        <path class="cls-1" d="M78.12,7.86c.59,.04,1.18,.11,1.75,.21,2.73,.49,5.43,.55,8.03,.6,1.03,.02,2.01,.04,2.98,.09,.42,.02,.84,.03,1.27,.03s.82-.01,1.24-.03c.94-.05,1.91-.08,2.96-.08,2.57,0,5.13,.15,7.84,.31,2.7,.16,5.5,.32,8.31,.32,.8,0,1.58-.01,2.32-.04h.12c.41,0,.65,.06,1.08,.42,1.49,1.24,3.15,2.08,4.6,2.77,2.3,1.1,4.45,2.6,6.72,4.18,.42,.29,.83,.58,1.25,.87,1.61,1.11,3.09,2.23,4.53,3.41,1.66,1.36,3.38,2.63,5.03,3.86,.62,.46,1.25,.92,1.87,1.39-.04,.01-.09,.03-.13,.04-.45,.16-1.02,.19-1.75,.19-.2,0-.4,0-.61,0-.23,0-.46,0-.69,0-.37,0-.94,0-1.54,.05-.25,.02-.53,.03-.9,.03-.23,0-.45,0-.68,0-.26,0-.53,0-.79,0-1.25,0-2.74,.07-4.33,.6-.02,0-.06,0-.11,0-.21,0-.5-.02-.8-.04-.41-.03-.88-.06-1.38-.06-.23,0-.45,0-.68,.02-.79,.05-1.52,.17-2.17,.27-.61,.1-1.18,.19-1.64,.2-.32,0-.63,.02-.95,.03-.58,.02-1.17,.04-1.75,.04-.96,0-1.68-.06-2.27-.19-1.41-.31-2.71-.35-3.78-.35-.34,0-.68,0-1.02,.01-.3,0-.6,0-.9,0-.28,0-.56,0-.84-.02-.91-.05-1.87-.07-2.92-.07-1.13,0-2.24,.03-3.18,.05-.04-.03-.1-.07-.17-.12-.41-.31-.83-.67-1.27-1.05-.6-.51-1.22-1.04-1.92-1.56-.69-.51-1.38-1.04-2.06-1.56-.97-.74-1.96-1.51-3-2.25-1.18-.83-2.38-1.72-3.54-2.58-1.13-.83-2.29-1.7-3.47-2.53-.8-.57-1.59-1.17-2.42-1.8-1.45-1.1-2.95-2.24-4.6-3.28-1.2-.76-2.41-1.55-3.62-2.38m-10.49-4.76c-.34,0-.68,.03-1.03,.09-.11,.02-.23,.03-.36,.03-.23,0-.5-.02-.89-.02,4.74,3.9,9.37,7.36,14.26,10.43,2.4,1.51,4.54,3.32,6.83,4.95,2.36,1.68,4.65,3.45,7.02,5.12,1.69,1.19,3.32,2.53,5,3.77,1.08,.8,2.06,1.74,3.13,2.57,.7,.53,1.44,.95,2.39,.95,.03,0,.07,0,.1,0,1.1-.03,2.2-.06,3.3-.06,.91,0,1.82,.02,2.72,.06,.35,.02,.69,.02,1.04,.02,.64,0,1.28-.02,1.92-.02,.97,0,1.94,.04,2.93,.26,1.01,.22,2.06,.28,3.13,.28,.94,0,1.88-.05,2.81-.07,1.33-.03,2.64-.39,3.97-.48,.14,0,.27-.01,.41-.01,.72,0,1.47,.1,2.18,.1,.46,0,.9-.04,1.31-.18,1.05-.36,2.09-.42,3.13-.42,.49,0,.98,.01,1.47,.01,.41,0,.82,0,1.23-.04,.41-.03,.81-.04,1.22-.04,.43,0,.87,0,1.3,0,1.01,0,2.03-.05,3.05-.41,.42-.15,.94-.28,1.48-.28,.59,0,1.2,.17,1.7,.67,2,.02,4,.04,6,.04h.26c.11,0,.33-.22,.32-.32-.02-.23-.09-.62-.22-.66-1.53-.44-2.27-1.92-3.6-2.67-1.3-.73-2.32-1.97-3.52-2.9-2.63-2.03-5.38-3.93-7.95-6.04-1.55-1.27-3.14-2.47-4.79-3.61-2.76-1.91-5.46-3.9-8.51-5.36-1.32-.63-2.66-1.31-3.77-2.24-1.12-.93-2.25-1.35-3.64-1.35-.09,0-.18,0-.27,0-.73,.03-1.45,.04-2.18,.04-5.39,0-10.76-.63-16.14-.63-1.06,0-2.12,.02-3.18,.08-.34,.02-.68,.03-1.02,.03-.36,0-.72,0-1.08-.03-3.5-.16-7.07,0-10.49-.63-2.76-.5-5.46-.28-8.18-.39-1.61-.07-3.16-.65-4.77-.65h0Z"/>
      </g>
      <g>
        <path class="cls-5" d="M209.69,27.37c-.14,0-.39-.06-.61-.1-.34-.07-.67-.14-.96-.16-1.18-.09-2.35-.14-3.49-.14s-2.36,.05-3.5,.15c-.76,.07-4.9,.2-8.11,.2-2.68,0-3.26-.09-3.32-.11-.97-.26-2.03-.4-3.21-.4-1.23,0-2.43,.15-3.34,.28-.84,.12-1.72,.16-2.65,.19-.27,.01-.54,.02-.8,.03-.32-.6-.79-1.01-1.42-1.21-.12-.06-.21-.11-.31-.15-.7-.3-1.32-.7-1.95-1.26-.72-.64-1.48-1.13-2.22-1.6-.4-.25-.79-.5-1.17-.78-1.12-.81-2.22-1.64-3.32-2.47-.96-.72-1.91-1.43-2.88-2.14-.51-.37-1.01-.76-1.51-1.15-1.37-1.06-2.78-2.15-4.37-3.02l-.81-.45c-3.42-1.87-6.65-3.64-9.73-5.78-.24-.16-.47-.32-.71-.48,.35,0,.7,.01,1.05,.01,1.22,0,2.3-.05,3.3-.16,.14-.02,.28-.02,.42-.02,.54,0,1.14,.09,1.78,.19,.75,.12,1.53,.24,2.37,.24,.64,0,1.24-.07,1.81-.22,.55,.31,1.18,.47,1.9,.47,.28,0,.57-.03,.86-.06,.15-.01,.29-.03,.43-.03,1.26,.02,2.51,.02,3.76,.02h2.39c.92,0,1.85,0,2.77,.01,.17,0,.36,.06,.46,.11,.77,.43,1.53,.88,2.28,1.32,.93,.55,1.86,1.1,2.81,1.62,.81,.44,1.64,.84,2.47,1.25,1.01,.49,1.96,.96,2.88,1.49,.58,.33,1.17,.45,1.64,.55,.11,.02,.22,.04,.33,.07,.94,.91,2,1.43,2.95,1.89,.72,.35,1.35,.65,1.82,1.07,1.02,.91,2.24,1.44,3.33,1.92,.39,.17,.78,.34,1.16,.53,.9,.45,1.81,.88,2.73,1.32,1.96,.93,3.81,1.8,5.55,2.87,2.34,1.44,4.66,2.7,7.26,4.07-.04,0-.09,0-.13,0Z"/>
        <path class="cls-1" d="M156.43,8.97c.56,.07,1.17,.13,1.81,.13,.54,0,1.06-.04,1.57-.12,.6,.23,1.31,.38,2.13,.38,.42,0,.79-.04,1.06-.07,.08,0,.16-.02,.24-.02,1.25,.02,2.5,.02,3.75,.02h1.2s1.19,0,1.19,0c.83,0,1.67,0,2.5,0,.65,.37,1.3,.75,1.99,1.16,.93,.55,1.88,1.12,2.88,1.65,.86,.47,1.72,.89,2.55,1.29,.98,.48,1.9,.93,2.77,1.43,.75,.43,1.49,.62,2.02,.73,1.04,.88,2.12,1.4,3.02,1.84,.56,.27,1.1,.53,1.36,.76,1.26,1.12,2.7,1.75,3.86,2.26,.39,.17,.75,.33,1.06,.48,.93,.47,1.86,.91,2.77,1.34,1.91,.9,3.71,1.76,5.36,2.77,.03,.02,.07,.04,.1,.06-.22,.02-.45,.03-.67,.05-.63,.06-4.66,.2-7.92,.2-1.97,0-2.71-.05-2.93-.07-1.13-.29-2.31-.43-3.6-.43-1.36,0-2.66,.16-3.63,.31-.67,.1-1.41,.13-2.2,.16-.52-.52-1.1-.83-1.58-1.01-.1-.05-.21-.1-.31-.15-.5-.21-.94-.51-1.41-.92-.84-.75-1.7-1.3-2.47-1.79-.39-.25-.76-.48-1.07-.71-1.11-.81-2.21-1.63-3.31-2.46-.96-.72-1.92-1.44-2.89-2.15-.5-.37-.99-.74-1.48-1.12-1.43-1.1-2.91-2.24-4.63-3.19l-.82-.45c-1.46-.8-2.89-1.58-4.28-2.38m-13.18-4.72c-.44,0-.9,.06-1.4,.23,2.48,1.57,4.82,2.95,7.04,4.49,3.42,2.38,7.08,4.34,10.72,6.33,2.02,1.11,3.8,2.65,5.66,4.03,2.07,1.53,4.12,3.09,6.2,4.61,1.06,.78,2.26,1.39,3.23,2.26,.76,.68,1.57,1.21,2.49,1.61,.15,.06,.29,.17,.44,.21,.69,.18,.2,1.38,1.13,1.38,.03,0,.06,0,.09,0,1.53-.12,3.08-.08,4.59-.3,1.02-.15,2.04-.26,3.06-.26,.91,0,1.83,.09,2.74,.34,.45,.12,1.97,.16,3.79,.16,3.24,0,7.44-.14,8.29-.21,1.1-.1,2.21-.15,3.32-.15s2.22,.05,3.32,.14c.5,.04,1.12,.26,1.69,.27,.35,0,.69,.01,1.04,.01,.58,0,1.17,0,1.75,0,.47,0,.93,0,1.39,.02,.04,0,.09,0,.13,0,.31,0,.61-.03,.92-.03,.47,0,.94,.08,1.39,.49,.1,.09,.24,.13,.41,.13,.39,0,.91-.2,1.38-.46-1.69-.92-3.37-1.87-5.08-2.75-3.17-1.64-6.33-3.29-9.38-5.17-2.68-1.64-5.61-2.86-8.42-4.27-1.37-.69-2.95-1.16-4.05-2.15-1.46-1.3-3.46-1.59-4.82-3.02-.49-.51-1.57-.41-2.25-.8-1.76-1.01-3.62-1.8-5.4-2.76-1.72-.93-3.36-1.98-5.07-2.93-.41-.23-.93-.36-1.41-.36-.93,0-1.86-.01-2.79-.01-.8,0-1.59,0-2.39,0-1.24,0-2.48,0-3.72-.02-.01,0-.03,0-.04,0-.42,0-.86,.09-1.29,.09-.48,0-.95-.11-1.34-.58-.03-.04-.11-.06-.21-.06-.1,0-.22,.02-.3,.05-.62,.25-1.24,.33-1.85,.33-1.38,0-2.76-.43-4.15-.43-.21,0-.42,0-.63,.03-1.02,.11-2.06,.15-3.09,.15-1.32,0-2.65-.06-3.96-.12-1.01-.04-2-.48-3.16-.48h0Z"/>
      </g>
      <g>
        <path class="cls-5" d="M257.29,133.83l-1.07,.09c-.3,.04-.64,.05-1.06,.05-.3,0-.59,0-.89-.02-.33,0-.67-.02-1-.02-.8,0-1.86,.04-2.98,.37-.42,.12-.95,.18-1.61,.18-.48,0-.98-.03-1.49-.07-.11-.18-.24-.38-.39-.57-.38-.48-.88-.7-1.12-.81-1.56-.7-2.92-1.76-4.35-2.88-.93-.73-1.9-1.48-2.95-2.16-2.04-1.32-4.06-2.81-6.01-4.26-1.29-.96-2.62-1.95-3.98-2.89,0-.8,0-1.6,0-2.41,0-1.43,0-2.87,0-4.3,.51,.13,.96,.15,1.36,.15h.47c1.51,.02,2.94,.02,4.37,.02h1.72c1.14,0,2.28,0,3.41,.01,.15,0,.34,.05,.46,.11,.76,.42,1.52,.87,2.27,1.32,.93,.55,1.86,1.11,2.82,1.62,.81,.44,1.64,.84,2.47,1.25,1.01,.49,1.96,.96,2.88,1.49,.59,.34,1.18,.48,1.65,.6,.2,.05,.51,.13,.6,.18,.77,.46,1.52,.97,2.32,1.5,.78,.53,1.58,1.07,2.42,1.57,1.07,.64,2.17,1.18,3.24,1.7l.99,.49c.9,.45,1.82,.89,2.74,1.32,1.95,.92,3.8,1.79,5.53,2.85,2.35,1.44,4.72,2.74,7.13,4.01-1-.09-2-.22-3.06-.35l-.65-.08c-.43-.05-.86-.08-1.33-.08-1.13,0-2.19,.16-3.22,.31-.82,.12-1.6,.24-2.35,.26-1.14,.04-2.29,.05-3.43,.05-1.26,0-2.51-.02-3.76-.06h-.16c-.3,0-.61,.03-.92,.06-.16,.02-.32,.04-.47,.04l-.6-.67Z"/>
        <path class="cls-1" d="M230.39,116.31c1.4,.02,2.81,.02,4.21,.02h.86s.85,0,.85,0c1.05,0,2.1,0,3.15,.01,.65,.37,1.3,.75,1.98,1.15,.93,.55,1.89,1.12,2.88,1.66,.86,.47,1.72,.88,2.55,1.29,.98,.48,1.9,.93,2.77,1.43,.83,.47,1.63,.67,2.17,.8,.08,.02,.15,.03,.22,.05,.67,.4,1.34,.86,2.05,1.34,.8,.54,1.63,1.1,2.52,1.63,1.14,.68,2.28,1.24,3.39,1.78,.32,.16,.65,.32,.97,.48,.93,.47,1.87,.91,2.78,1.34,1.9,.9,3.7,1.74,5.34,2.75,.03,.02,.06,.04,.09,.06-.16,.02-.32,.05-.47,.07-.76,.11-1.48,.22-2.11,.24-1.1,.03-2.24,.05-3.37,.05-1.21,0-2.46-.02-3.7-.06-.07,0-.15,0-.22,0-.19,0-.37,0-.54,.02l-.64-.74-2.13,.26c-.22,.03-.48,.04-.82,.04-.28,0-.56,0-.84-.01-.35,0-.7-.02-1.05-.02-.93,0-2.18,.05-3.55,.45-.24,.07-.59,.1-1.05,.1-.14,0-.28,0-.43,0-.67-.78-1.46-1.13-1.8-1.28-1.3-.58-2.56-1.57-3.9-2.61-.97-.76-1.97-1.54-3.09-2.26-1.99-1.28-3.89-2.69-5.9-4.18-1.03-.77-2.09-1.55-3.17-2.32,0-.46,0-.91,0-1.37,0-.71,0-1.43,0-2.15m-2.89-4.53c-.68,0-1.08,.58-1.09,1.56-.03,2.7,0,5.4-.02,8.11,0,.46,.19,.59,.6,.88,3.47,2.41,6.76,5.08,10.31,7.37,2.56,1.65,4.71,3.9,7.53,5.16,.15,.07,.32,.14,.41,.25,.34,.43,.63,1.23,.99,1.25,.8,.05,1.64,.13,2.46,.13,.75,0,1.49-.06,2.18-.26,.82-.24,1.62-.29,2.42-.29,.63,0,1.26,.03,1.89,.03,.43,0,.86-.02,1.3-.07,.41,.48,.9,.6,1.4,.6,.47,0,.96-.1,1.43-.1,.03,0,.06,0,.09,0,1.27,.04,2.55,.06,3.83,.06,1.17,0,2.33-.02,3.49-.05,1.84-.06,3.65-.58,5.51-.58,.36,0,.72,.02,1.08,.06,1.58,.2,3.16,.42,4.75,.51,.47,.03,.95,.03,1.43,.03,.72,0,1.44-.02,2.16-.02,.37,0,.75,0,1.12,.02,.65,.02,1.26,.53,1.97,.53,.31,0,.64-.1,1-.38-1.77-.95-3.47-1.89-5.18-2.78-3.17-1.65-6.32-3.31-9.37-5.18-2.67-1.64-5.61-2.85-8.42-4.25-1.37-.69-2.78-1.32-4.09-2.11-1.62-.97-3.13-2.12-4.75-3.08-.68-.4-1.59-.39-2.28-.79-1.76-1.01-3.62-1.8-5.39-2.76-1.72-.93-3.36-1.98-5.07-2.93-.41-.23-.94-.36-1.41-.36-1.15-.01-2.29-.01-3.43-.01-.57,0-1.14,0-1.71,0-1.42,0-2.84,0-4.27-.02-.04,0-.07,0-.11,0-.16,0-.31,0-.47,0-.45,0-.9-.03-1.39-.29-.32-.17-.61-.25-.87-.25h0Z"/>
      </g>
      <polygon class="cls-8" points="105.18 135.33 111.94 135.45 118.3 134.95 124.66 134.44 131.03 135.36 137.39 134.99 143.76 134.99 150.12 135.37 156.49 134.8 162.85 134.92 169.21 134.48 175.57 135.31 181.94 135.05 188.3 135.06 194.67 135.37 201.03 134.62 207.4 135.29 213.78 135.36 220.33 135.13 220.65 128.41 219.9 121.85 220.18 115.29 220.01 108.74 220.41 102.18 220.75 95.64 220.5 89.08 220.84 82.53 221.26 75.98 220.84 69.42 220.25 62.86 220.95 56.31 220.14 49.74 221.34 43.19 220.64 36.89 214.24 36.88 207.57 36.51 200.91 37.05 194.23 36.18 187.57 36.69 180.9 36.14 174.23 35.98 167.55 36.43 160.89 37.18 154.22 36.53 147.55 36.61 140.88 36.78 134.21 36.72 127.54 37.14 120.87 36.54 114.19 36.11 107.88 37.01 107.31 43.17 107.12 49.73 106.95 56.28 106.33 62.82 106.27 69.38 106.05 75.93 106.81 82.5 106.14 89.04 106.45 95.61 106.84 102.17 106.76 108.73 106.01 115.27 105.86 121.83 105.42 128.38 105.18 135.33"/>
      <g>
        <path class="cls-3" d="M240.52,109.72c.67,0,1.26-.06,1.9,.5,2.03,1.81,4.53,2.89,6.89,4.19,.35,.19,.85,.09,1.18,.3,3.93,2.47,8.1,4.51,12.14,6.75,5.38,2.98,10.88,5.75,16.3,8.68,3.85,2.08,7.71,4.14,11.56,6.22,1,.54,2,1.09,2.98,1.65,.19,.11,.46,.29,.47,.44,.05,.87-.04,1.75,.04,2.62,.09,.9,.46,1.78,.48,2.67,.06,3.32-.03,6.64,.04,9.95,.06,3.25-.05,6.48,.41,9.75,.46,3.25,.1,6.62,.1,9.94s.07,6.64-.02,9.95c-.09,3.25,.16,21.71-.41,24.99-.55,3.17-.2,6.46-.52,9.72-.61,6.09,.37,12.25-.56,18.37-.36,2.39-.18,4.89-.02,7.32,.16,2.5-.47,4.91-.56,7.38-.05,1.29-.38,1.62-1.67,1.66-.52,.02-1.05,0-1.57,0-6.37,0-12.74,.03-19.12-.02-1.24,0-2.56,.42-3.74-.47-.21-.16-.76,.18-1.16,.24-.47,.07-1.13,.29-1.38,.07-.56-.5-1.15-.23-1.71-.36-1.57-.37-2.97,.52-4.5,.57-2.81,.09-5.6-.28-8.45,.39-2.07,.48-4.35,.24-6.52,.05-2.25-.19-4.38,.57-6.6,.57-5.76-.02-11.52,.09-17.28-.03-5.78-.12-11.57,.53-17.33-.47-1.65-.29-3.35,.14-5.04-.48-1-.37-2.25,0-3.38-.09-1.16-.09-2.29-.41-3.45-.49-4.29-.28-8.57,.28-12.89-.44-2.88-.49-5.92-.11-8.88-.08-.39,0-.95,.11-1.12,.37-.56,.83-1.35,.65-2.11,.66-6.81,0-13.62,.02-20.42-.02-1.15,0-2.39,.4-3.48-.47-.2-.16-.77,.17-1.17,.23-.47,.07-1.15,.31-1.38,.1-.55-.53-1.14-.39-1.7-.34-1.59,.12-3.17,.36-4.76,.5-2.72,.23-5.43-.18-8.18,.43-2.16,.48-4.53,.25-6.78,.06-2.26-.19-4.37,.6-6.6,.59-8.2-.06-16.41,.03-24.61-.05-3.07-.03-6.14,.34-9.23-.42-1.85-.46-3.91,.2-5.79-.6-3.7,.22-7.33-.76-11.05-.56-5.95,.32-11.88-.87-17.85-.51-1.18,.07-2.18-.77-3.17-2.29-.08-.13-.23-.23-.37-.3-1.65-.94-3.15-2.14-4.77-3.06-2.73-1.55-5.05-3.53-7.39-5.53-.37-.32-.83-.54-1.22-.85-3.67-2.94-8.12-4.73-11.67-7.85-1.2,.07-1.34-1.55-2.49-1.57-1.48-1.78-4.05-2.25-5.2-4.49-.45-.89-1.31-1.79-2.2-2.19-2.06-.93-2.44-2.53-2.42-4.51,.05-3.67,.09-7.33,0-11-.09-3.68,.35-22.61-.43-26.29-.3-1.42-.31-3.01,.4-4.51,.34-.72-.01-1.73,.08-2.59,.09-.9,.32-1.78,.51-2.67,.17-.8,.53-1.61,.49-2.4-.17-3.61,.32-7.19,.54-10.78,.07-1.04,.08-2.1,0-3.14-.08-.98-.47-1.95-.48-2.93-.05-4.45-.05-8.9,0-13.35,0-.71,.46-1.43,.46-2.14s-.45-1.43-.46-2.14c-.05-4.19-.02-8.38-.02-12.57,.8-1.78,.34-3.5,.09-5.34-.35-2.57-.09-5.22-.09-7.84,0-.71,.42-1.14,1.07-1.2,.78-.08,1.58,.05,2.35-.04,.81-.09,1.6-.36,2.4-.49,.42-.07,1.05-.16,1.25,.06,.67,.72,1.46,.38,2.2,.43,2.98,.22,6.01-.48,8.95,.53,3.88-.4,7.69,.57,11.57,.58,4.55,.01,9.09-.2,13.67,.35,4.45,.54,9.02,.12,13.56,.12,.03-.41,.07-.66,.07-.91,0-3.93,.08-7.86-.02-11.78-.1-3.86,.37-7.72-.42-11.58-.29-1.4-.35-2.98,.38-4.51,.52-1.09-.21-13.16,.36-14.44,.54-1.2,.39-2.59,.67-3.9,.35-1.67,.02-3.48,.11-5.22,.08-1.68,.31-3.35,.51-5.02,.35-2.84-.58-5.6-.54-8.42,.04-3.32-.02-6.64,.03-9.95,.02-1.16-.34-2.37,.48-3.47,.21-.28,.21-1,0-1.26-.77-.92-.52-1.97-.47-2.95,.2-4.2-.49-8.43,.44-12.63,.2-.88,.55-2.08-.46-2.91,0-2.88-.03-5.76,.04-8.64,0-.35,.59-.91,.97-.98,.85-.15,1.74,.02,2.61-.07,.81-.08,1.6-.35,2.41-.49,.34-.06,.87-.15,1.01,.02,.71,.86,1.62,.42,2.43,.48,2.89,.22,5.78-.17,8.7,.44,2.46,.52,5.12-.2,7.62,.61,6.39,.14,12.77-.18,19.17,.45,4.23,.42,8.55,.15,12.82,.06,4.29-.08,8.58,.1,12.89-.4,4.05-.48,8.19-.17,12.29-.08,4.03,.09,8.1-.49,12.09,.5,5.85,0,11.7,0,17.54,0,.67,0,1.27-.06,1.9,.51,2.02,1.82,4.54,2.89,6.89,4.19,.35,.19,.85,.1,1.18,.3,3.93,2.47,8.1,4.51,12.15,6.75,5.38,2.98,10.88,5.75,16.29,8.68,3.85,2.08,7.71,4.15,11.56,6.22,1,.54,2,1.07,2.98,1.65,.22,.13,.45,.45,.47,.7,.06,.78-.04,1.58,.04,2.35,.09,.81,.46,1.6,.48,2.4,.07,2.44,.02,4.89,.02,7.33,0,2.53-.07,5.06,.02,7.59,.08,2.37,.42,4.74,.48,7.12,.09,3.4,.02,17.47,.02,20.88s-.15,6.82,.04,10.21c.19,3.37-.68,6.65-.57,10,.05,1.66,.42,3.46-.09,4.94-.6,1.74-.16,3.37-.49,5.23,4.95,0,9.57,0,14.2,0Zm45.26,29.85c-1.78-.92-3.72-.21-5.54-.56-4.8-.92-9.63-.36-14.45-.47-4.8-.11-9.6-.04-14.4,0-1.16,0-2.33-.23-3.48,.45-.45,.27-1.38,.31-2.02-.7-.05,.71-.14,1.19-.12,1.66,.16,3.09-.94,6.11-.53,9.21-.89,1.38-.14,3.04-.71,4.42-.63,1.53-.18,3.05-.33,4.57-.08,.83-.58,1.51-.59,2.4-.01,1.01-1.36,1.4-2.11,.67-1.14-1.13-2.2-2.35-3.4-3.65-.97,.37-1.25,1.51-1.77,2.46-.69,1.26-1.83,1.44-2.89,.48-.51-.47-1-.97-1.48-1.48-.49-.52-.45-1.73-1.36-1.57-.65,.11-1.16,.93-1.77,1.38-.45,.34-1.03,.56-1.43,.95-.58,.57-1.43,1.25-1.98,.98-.94-.46-1.65-1.47-1.66-2.65-.02-2.73-.84-5.4-.57-8.16,.14-1.41-.69-2.74-.53-4.23,.16-1.45,.04-2.94,.04-4.58h-2.64c-5.93,0-11.87,.02-17.8-.02-.98,0-2.08,.45-2.94-.49-.08-.09-.35-.05-.51,0-.63,.16-1.25,.47-1.88,.48-.54,.01-1.06-.38-1.62-.47-1.45-.26-2.82,.39-4.23,.48-1.91,.12-3.84,.04-5.76,.03-2.21-.02-4.34,.75-6.59,.57-2.16-.18-4.37-.17-6.53,.02-1.05,.09-2.05,.74-3.45,.24v2.22c0,.26,0,.52,0,.78-.28,12.5,.74,24.98,.6,37.48-.07,5.96-.89,27.12-.6,33.08-.86,2.5-.46,5.09-.51,7.64-.05,2.62,.06,5.24-.03,7.85-.09,2.72-.4,5.44-.49,8.16-.09,2.79-.01,5.59-.03,8.38,0,.32-.13,.64-.2,.96-.15,.68,.49,1.41,.98,1.05,.99-.72,1.79-.61,2.76,0,.37,.24,1.02,.04,1.55,.04,.7,0,1.49-.21,2.07,.05,.76,.33,1.18-.83,2.01-.16,.42,.35,1.34,.1,2.03,.1,1.83,0,3.67-.11,5.5,.04,1.85,.14,3.67-.25,5.59,.36,1.66,.53,3.63,.04,5.45,.17,1.15,.08,2.23,.62,3.45,.52,1.16-.09,2.34-.18,3.47,.46,.39,.23,1.03,.04,1.55,.04,3.23,0,6.46-.02,9.69,0,2.38,.02,4.72,.91,7.11,.51,6.45-1.08,12.97,.02,19.41-.62,3.61-.35,7.25,.05,10.77-.52,3.53-.57,7.02-.31,10.53-.41,3.49-.1,7.03-.39,10.46,.06,5.53,.73,11.04,.24,16.55,.43,1.89,.06,2.36-.39,2.37-2.25,.01-3.34,.76-6.62,.58-10-.19-3.39-.04-6.8-.04-10.21,0-2.36-.07-4.71,.02-7.07,.07-1.85,.39-3.69,.48-5.54,.09-1.83-.34-3.76,.1-5.48,.71-2.75,.21-20.7,.45-23.41,.12-1.33,.41-2.65,.5-3.97,.09-1.39,.23-2.83-.02-4.18-1.02-5.68,.07-11.42-.56-17.06-.79-7.08-.12-14.16-.54-21.4-2.03,.26-3.93-.87-6-.51ZM220.67,32.52c-1.14-.24-2.43,.54-3.46-.51-.09-.09-.34-.03-.51,0-3.28,.39-6.47-.6-9.74-.56-7.24,.1-14.49,0-21.74,.05-1.68,.01-3.39-.37-5.05,.45-.45,.23-1.21-.16-1.99-.29,.41,3.16-.32,5.02-.3,8.28,.01,1.85-.22,3.8-.86,5.63-.22,.62-.18,1.38-.08,2.05,.22,1.56-.38,3-.57,4.5-.15,1.21-1.35,1.54-2.26,.63-1.14-1.14-2.18-2.37-3.39-3.71-.53,.82-1.12,1.68-1.65,2.58-.73,1.25-1.83,1.53-2.83,.6-.86-.8-1.74-1.6-2.26-2.72-.23-.51-.74-.7-1.24-.16-1.09,1.18-2.32,2.17-3.79,2.86-.43,.2-.66,.62-1.17,0-.77-.94-1.28-1.88-1.32-3.14-.04-1.24-.39-2.47-.47-3.71-.09-1.3,.19-2.66-.06-3.92-.51-2.46-1.35-3.6-1.32-6.14,0-.63-.29-1.26-.52-1.87-.06-.17-.38-.38-.55-.36-2.42,.35-4.72-.66-7.12-.56-1.74,.07-3.49,.07-5.24,0-3.53-.13-6.99,.92-10.52,.53-3.03,.93-6.14,.44-9.21,.51-3.14,.07-6.28,.02-9.43,.02-2.86,0-5.73,0-8.73,0,0,4.21-.05,8.29,.03,12.38,.03,1.38-.3,2.66-.54,3.98-.23,1.31,.39,2.74-.53,3.98-.08,.11-.01,.34-.01,.51,.07,3.78-.85,7.51-.54,11.31,.12,1.47-.08,13.64,.03,15.11,1.03,13.1,.3,26.22,.48,39.33,.02,1.58-.39,3.17-.48,4.76-.09,1.65,.35,3.43-.1,4.95-.75,2.49-.13,4.94-.56,7.6,.92,0,1.69,.07,2.44-.01,2.93-.34,5.78,.56,8.69,.54,2.97-.02,5.98-.32,8.89,.1,2.31,.33,4.62,.09,6.85,.5,1.78,.33,3.6,.1,5.28,.51,3.51,.85,7.03,.23,10.54,.45,3.07,.19,6.19,.8,9.2,.44,6.57-.79,13.16,.09,19.69-.54,3.61-.34,7.25,.07,10.78-.51,3.54-.58,7.03-.3,10.54-.41,3.49-.1,7.03-.39,10.46,.06,5.62,.74,11.22,.22,16.82,.43,1.25,.05,2.02-.6,1.98-1.85-.1-3.18,.7-6.28,.6-9.48-.18-5.93-.09-11.87-.02-17.81,.02-1.85,.39-3.69,.48-5.54,.09-1.92-.33-3.92,.1-5.74,.69-2.92,.23-5.81,.46-8.71,.1-1.24,.4-2.47,.49-3.71,.09-1.22,.19-2.47,0-3.66-1-6.02,.02-22.78-.6-28.77-.35-3.44-.33-6.85-.4-10.27-.08-3.4-.02-6.8-.02-10.22-1.36-.28-2.49-.52-3.62-.76Zm-110.04,127.4c-.8,1.37-1.87,1.6-2.99,.47-.7-.71-1.52-1.3-1.91-2.34-.32-.87-.87-.83-1.59-.22-.83,.7-1.68,1.39-2.56,2.03-.56,.41-1.36,1.13-1.78,.98-.95-.34-1.71-1.5-1.65-2.34,.12-1.92-.88-3.67-.6-5.55,.34-2.25-.68-4.37-.54-6.59-.83-1.05-.4-2.29-.54-3.45-.1-.81-.29-1.62-.54-2.39-.07-.2-.51-.44-.75-.41-2.42,.35-4.71-.71-7.12-.58-2.35,.13-4.71-.03-7.07,.05-1.5,.05-2.99,.39-4.5,.48-1.48,.09-3.07-.32-4.43,.1-2.13,.65-4.24,.41-6.35,.42-6.8,.06-13.59,.02-20.58,.02,0,4.32-.08,8.58,.05,12.83,.04,1.32-.54,2.45-.6,3.71-.07,1.24,.51,2.59-.48,3.72-.09,.1-.02,.34-.01,.51,.15,3.61-.85,7.15-.55,10.78,.16,1.91-.04,3.84,.04,5.76,.13,3.16,.68,6.28,.54,9.47-.14,3.31-.03,21.87-.03,25.18v9.69c0,3.23,.16,6.47-.05,9.68-.21,3.24-.64,6.47-.48,9.73-1.11,2.39-.24,4.87-.58,7.43,6.17-.26,12.07,.91,18.02,.5,.35-.02,.7-.04,1.04,0,1.33,.16,2.65,.42,3.97,.5,1.39,.09,2.91-.33,4.16,.11,1.54,.54,3.05,.16,4.52,.46,4.71,.99,9.46,.24,14.19,.51,.81,.05,1.59,.41,2.41,.49,.86,.09,1.76,.12,2.61,0,6.9-.93,13.82-.34,20.73-.51,3.47-.96,7.06-.04,10.5-.61,3.53-.6,7.03-.32,10.53-.41,3.49-.09,7.03-.39,10.46,.06,5.53,.73,11.04,.24,16.55,.43,1.94,.07,2.4-.36,2.4-2.22,0-3.17,.77-6.27,.58-9.47-.19-3.22-.04-6.45-.04-9.68,0-2.71-.06-5.41,.02-8.12,.06-1.85,.39-3.69,.48-5.54,.09-1.83-.35-3.76,.1-5.47,.74-2.84,.2-20.88,.45-23.68,.11-1.24,.41-2.47,.5-3.71,.09-1.3,.2-2.65-.01-3.92-.99-5.93,.09-11.95-.59-17.84-.72-6.22-.06-12.42-.53-18.8h-2.51c-5.93,0-11.87-.11-17.8,.03-4.92,.12-9.82-.18-14.7-.65-2.03-.2-4.1-.11-6.06-.52-1.44-.3-2.82-.39-4.25-.44-.61-.02-.79,.29-.67,.79,.33,1.32-.57,2.44-.54,3.71,.03,1.31,.07,2.62-.01,3.93-.06,.9-.38,1.77-.49,2.67-.09,.82-.08,1.6-.46,2.44-.36,.79-.01,1.89-.09,2.84-.11,1.24-.27,2.49-.53,3.71-.18,.86-1.42,1.23-2.06,.61-1.21-1.19-2.32-2.47-3.61-3.87-.5,.76-1.11,1.6-1.63,2.5ZM41.01,238.05c-.07-2.72,.78-5.41,.48-8.16,1.04-2.75,.81-5.69,.42-8.41-.75-5.18-.19-10.35-.39-15.51-.05-1.32-.43-17.98,.49-19.21,.04-.05,.02-.17,0-.26-.17-1.15-.35-2.3-.52-3.45-.16-1.08,.36-2.23-.36-3.26-.13-.19-.16-.48-.16-.71-.01-2.79-.37-5.65,.11-8.36,.4-2.24,.34-4.41,.37-6.61,.02-1.45,.29-2.83,.54-4.24,.24-1.31-.26-2.67,.48-4,.34-.6,0-1.54,.07-2.32,.15-1.5-.47-3.08,.49-4.51,.16-.24,.15-.76,0-1.02-.95-1.7-.54-3.55-.45-5.29,.14-2.74-1.19-4.33-3.28-5.81-3.06-2.16-6.11-4.33-9.04-6.68-2.78-2.24-5.69-4.32-8.62-6.36-3.44-2.4-7.01-4.61-10.43-7.03-1.23-.87-2.19-2.11-3.49-2.96-1.98-1.29-2.68-1.7-2.7-1.47-.12,1.02-.2,2.04-.2,3.07-.01,12.04-.04,24.09,.02,36.14,0,2.37,.43,4.74,.46,7.11,.02,1.58-.38,3.17-.47,4.76-.09,1.57,.33,3.24-.11,4.69-.54,1.8-.17,3.57-.48,5.3-.33,1.86-.43,3.76-.89,5.63-.41,1.64-.1,3.46-.12,5.2,.91,.74,.49,1.77,.51,2.66,.04,3.14,.05,21.52,0,24.66-.01,.9,.39,1.89-.48,2.69-.17,.16-.14,.73,0,1.01,.79,1.62,.43,3.34,.5,5.03,.02,.53,.05,.78,.73,1.05,.82,.32,1.44,1.22,2.07,1.94,1.86,2.13,4.34,3.48,6.48,5.27,1.88,1.57,4.06,2.79,6.11,4.17,1.02,.69,2.01,1.44,3.09,2.02,2.73,1.46,5.12,3.36,7.5,5.33,1.89,1.56,3.63,3.43,6.07,4.24,1.2,1.43,3.13,1.79,4.46,3.22,.28-3.28,.8-6.38,.72-9.55Zm58.15-111.62c-.07-2.72,.77-5.41,.48-8.16,1.04-2.75,.79-5.69,.42-8.41-.72-5.27-.2-10.52-.4-15.77-.04-1.24-.38-2.57,.5-3.71,.04-.05,.02-.17,0-.26-.17-1.15-.35-2.3-.52-3.45-.16-1.08,.36-2.23-.35-3.26-.13-.19-.16-.47-.16-.71-.01-2.79-.39-16.32,.11-19.02,.43-2.32,.34-4.59,.36-6.87,.02-1.38,.34-2.66,.56-3.98,.22-1.32-.26-2.67,.48-4,.33-.6,0-1.55,.07-2.32,.15-1.5-.47-3.08,.49-4.51,.16-.24,.15-.76,0-1.02-.95-1.7-.54-3.55-.45-5.29,.14-2.74-1.19-4.34-3.28-5.81-3.06-2.15-6.11-4.33-9.04-6.68-2.78-2.23-5.69-4.32-8.62-6.36-3.44-2.4-7.01-4.61-10.43-7.02-1.23-.87-2.18-2.11-3.49-2.96-1.95-1.26-2.68-1.7-2.7-1.48-.12,1.02-.2,2.04-.2,3.06-.01,12.04-.03,24.09,.02,36.14,0,2.37,.43,4.74,.46,7.12,.02,1.58-.38,3.17-.47,4.76-.09,1.57,.33,3.24-.11,4.69-.54,1.8-.17,3.57-.47,5.3-.33,1.87-.43,14.43-.89,16.3-.41,1.64-.1,3.46-.12,5.2,.9,.75,.5,1.76,.51,2.66,.04,3.14,.05,6.28,0,9.42-.01,.9,.38,1.88-.48,2.7-.22,.21-.2,.95,0,1.26,.92,1.44,.42,3.01,.45,4.52,.02,.82,.36,1.02,.96,1.43,3.69,2.52,7.28,5.18,10.95,7.72,2.34,1.62,4.72,3.17,6.78,5.17,.93,.91,2.18,1.46,3.23,2.26,1.14,.87,2.19,1.87,3.32,2.76,2.21,1.75,4.33,3.58,6.8,5.02,1.52,.88,3.1,1.82,4.52,3.03,.27-3.18,.79-6.28,.72-9.45Zm-83.12-9.45c2.74,1.97,5.57,3.83,8.35,5.76,1.22,.85,2.45,1.7,3.64,2.59,2.44,1.85,5.01,3.57,7.38,5.47,2.55,2.05,5.49,3.61,7.77,6.01,.87,.91,1.92,1.29,3.17,1.21,.61-.04,1.22,.03,1.83-.01,4.75-.32,9.46,.4,14.19,.54,3.09,.1,6.11-.93,9.21-.53,2.31-.94,4.75-.32,7.11-.54,1.33-.12,2.76,.53,3.99-.5,.09-.08,.41-.06,.49,.03,.78,.87,1.79,.42,2.69,.46,1.48,.07,2.97-.05,4.45,.04,1.33,.08,2.65,.36,3.98,.49,.68,.07,1.37,.01,2.5,.01-.89-.84-1.54-1.3-2.25-1.81-2.28-1.64-4.76-2.96-6.98-4.71-3.95-3.1-7.66-6.48-11.79-9.37-2.1-1.47-4.28-2.79-6.35-4.26-2.09-1.49-4.24-2.93-6.26-4.55-.71-.57-1.48-1.02-2.48-.97-8.15,.41-16.26-.77-24.4-.52-1.83,.05-3.67-.08-5.5,.04-1.47,.09-2.83-.41-4.24-.53-1.39-.11-2.89,.31-4.17-.1-2.39-.76-4.77-.26-7.14-.45-2.2-.18-4.39-.35-6.59-.52-.34-.03-.68,0-1.58,0,3.25,2.45,6.08,4.65,8.99,6.74ZM79.61,13.62c2.4,1.51,4.54,3.32,6.83,4.95,2.36,1.68,4.65,3.45,7.02,5.12,1.69,1.19,3.32,2.53,5,3.77,1.08,.8,2.06,1.74,3.13,2.57,.72,.55,1.49,.98,2.49,.95,2-.06,4.02-.1,6.02,0,1.96,.1,3.89-.17,5.89,.26,1.9,.42,3.95,.26,5.94,.21,1.33-.03,2.64-.39,3.97-.48,1.3-.09,2.73,.31,3.9-.09,1.96-.68,3.89-.29,5.83-.45,1.85-.15,3.7,.21,5.57-.44,.89-.31,2.22-.56,3.18,.39,2.09,.02,4.17,.04,6.26,.04,.11,0,.33-.22,.32-.32-.02-.23-.09-.63-.22-.66-1.53-.44-2.27-1.92-3.6-2.67-1.3-.73-2.32-1.97-3.52-2.89-2.63-2.03-5.38-3.93-7.95-6.04-1.55-1.27-3.14-2.47-4.79-3.61-2.76-1.91-5.46-3.9-8.51-5.36-1.32-.63-2.66-1.32-3.77-2.24-1.19-.99-2.4-1.4-3.91-1.35-7.18,.26-14.32-.91-21.5-.51-.7,.04-1.4,.03-2.09,0-3.5-.16-7.07,0-10.49-.63-2.76-.5-5.46-.28-8.18-.39-1.95-.08-3.82-.91-5.8-.56-.31,.06-.64,0-1.25,0,4.74,3.9,9.37,7.36,14.26,10.43Zm69.27-4.65c3.42,2.38,7.08,4.34,10.72,6.33,2.02,1.11,3.8,2.65,5.66,4.03,2.07,1.53,4.12,3.09,6.2,4.61,1.06,.78,2.26,1.39,3.23,2.26,.76,.68,1.57,1.21,2.49,1.61,.15,.06,.29,.17,.44,.21,.72,.18,.17,1.45,1.22,1.37,1.53-.12,3.08-.08,4.59-.3,1.95-.28,3.87-.44,5.79,.07,1.24,.34,10.75,.07,12.08-.05,2.2-.2,4.44-.19,6.64-.01,.5,.04,1.12,.26,1.69,.27,1.39,.03,2.79-.03,4.19,.02,.82,.03,1.66-.26,2.44,.46,.31,.29,1.12,.05,1.79-.34-1.69-.92-3.37-1.87-5.08-2.75-3.17-1.64-6.33-3.29-9.38-5.17-2.68-1.64-5.61-2.86-8.42-4.27-1.37-.69-2.95-1.16-4.05-2.15-1.46-1.3-3.46-1.59-4.82-3.02-.49-.51-1.57-.41-2.25-.8-1.76-1.01-3.62-1.8-5.4-2.76-1.72-.93-3.36-1.98-5.07-2.93-.41-.23-.93-.36-1.41-.37-2.96-.03-5.93,.01-8.89-.03-.9-.01-1.91,.41-2.67-.49-.07-.09-.36-.06-.51,0-2.21,.88-4.4-.3-6.64-.06-2.33,.25-4.71,.13-7.06,.03-1.4-.06-2.73-.86-4.55-.25,2.48,1.57,4.82,2.95,7.04,4.49Zm-14.03,4.99c1.71,1.31,3.33,2.74,5.15,3.93,1.76,1.16,3.35,2.57,4.9,4.04,1.5,1.42,3.29,2.53,4.96,3.77,.12,.09,.35,.06,.45,.16,1.97,1.78,3.95,3.56,5.88,5.38,.28,.26,.48,.71,.5,1.08,.09,1.17,.19,2.29,.46,3.47,.48,2.04,.7,2.91,.91,5.01,.1,.98,.41,1.94,.49,2.93,.09,1.04-.07,2.1,.05,3.14,.08,.71,.44,1.38,.72,2.21,1.11-1.11,2.2-2.18,3.26-3.27,.41-.42,.68-.42,1.29-.17,1.65,.67,1.94,2.34,2.92,3.5,.15,.18,.35,.68,.69,.11,.33-.56,.71-1.1,1.04-1.66,1.66-2.88,1.9-2.92,4.11-.43,.49,.55,.85,1.22,1.47,2.14,.11-1.81,.83-3.17,.75-4.77-.06-1.23,.32-2.47,.47-3.71,.15-1.24-.41-1.17,.15-2.45,.42-.95,0-2.24,.1-3.37,.11-1.35-.38-2.75,.26-4.08,.08-.17-.11-.54-.28-.72-1.34-1.4-2.88-2.53-4.54-3.55-1.83-1.12-3.61-2.34-5.27-3.7-2.45-2-5.06-3.76-7.67-5.52-.74-.5-1.53-.92-2.34-1.3-3.44-1.58-6.35-4.02-9.58-5.94-.98-.58-1.89-1.31-2.91-1.83-2.18-1.11-4.21-2.48-6.3-3.75-.51-.31-.76-.47-1.31-.07-.36,.26-.97,.2-1.47,.21-1.57,.02-3.14-.06-4.71,.03-1.33,.08-2.65,.39-3.97,.48-1.27,.09-2.56,.02-4.24,.02,4.98,2.74,9.4,5.49,13.58,8.68Zm145.68,119.85c-3.17-1.65-6.32-3.31-9.37-5.18-2.67-1.64-5.61-2.85-8.42-4.25-1.37-.69-2.78-1.33-4.09-2.11-1.62-.97-3.13-2.12-4.75-3.08-.68-.4-1.59-.39-2.28-.79-1.76-1.01-3.62-1.8-5.39-2.76-1.72-.93-3.36-1.98-5.07-2.93-.41-.23-.94-.36-1.41-.36-3.14-.03-6.28,0-9.41-.04-.65,0-1.27,.08-1.97-.28-1.19-.62-1.94-.04-1.95,1.31-.03,2.7,0,5.4-.02,8.11,0,.46,.19,.59,.6,.88,3.47,2.41,6.76,5.08,10.31,7.37,2.56,1.65,4.71,3.9,7.53,5.16,.15,.07,.32,.14,.41,.25,.34,.43,.63,1.23,.99,1.25,1.54,.1,3.19,.28,4.63-.14,1.9-.56,3.75-.1,5.61-.33,.83,.97,1.94,.47,2.92,.5,2.44,.08,4.88,.08,7.32,0,2.2-.07,4.35-.79,6.58-.51,1.58,.2,3.16,.42,4.75,.51,1.56,.09,3.14-.03,4.71,.04,.94,.04,1.79,1.06,2.97,.15-1.77-.95-3.47-1.89-5.18-2.78Zm-50.67,20.36c.39-.4,.67-.41,1.29-.24,1.45,.4,1.53,1.93,2.53,2.64,.22,.16,.21,.62,.4,.86,.21,.27,.44,.79,.74-.08,.35-.98,1-1.86,1.53-2.77,.65-1.11,1.48-1.23,2.45-.24,.91,.94,1.73,1.97,2.6,2.97,.49-1.81,.56-3.66,.82-5.47,.2-1.42,.42-2.82,.41-4.25,0-1.61,.72-3.1,.58-4.76-.14-1.6,.15-3.23,.21-4.85,0-.24-.09-.55-.24-.73-1.55-1.82-3.69-2.93-5.51-4.42-1.39-1.14-3.03-1.95-4.5-3-2.1-1.5-4.13-3.08-6.22-4.61-.23-.17-.59-.22-.89-.22-.06,0-.19,.43-.19,.67-.01,2.79,.06,5.59-.03,8.38-.06,2.03-.05,4.12-.58,6.05-.52,1.88-.61,3.57,.07,5.35,.06,.15,0,.35,0,.52,.17,2.89,.31,5.79,.55,8.68,.07,.88,.41,1.74,.67,2.82,1.2-1.2,2.26-2.24,3.3-3.3Zm-130.76-9.72c.18,1.49,.45,2.99,.49,4.48,.04,1.44,.85,2.73,.58,4.23-.26,1.43,.09,2.82,.73,4.25,1.11-1.11,2.21-2.18,3.27-3.28,.42-.43,.7-.39,1.29-.14,1.63,.68,1.95,2.32,2.91,3.49,.15,.19,.35,.68,.68,.1,.44-.78,.89-1.55,1.34-2.32,.08-.14,.15-.29,.23-.43,.77-1.4,1.39-1.55,2.46-.46,.91,.93,1.72,1.96,2.68,3.06,.83-5.6,1.58-11.07,1.71-16.81-.87,0-1.64-.08-2.39,.02-2.76,.36-5.4-.71-8.15-.57-2.69,.14-5.4,.03-8.43,.03,.21,1.58,.4,2.97,.57,4.36Z"/>
        <path class="cls-4" d="M121.28,5.28c4.98,2.74,9.4,5.49,13.58,8.68,1.71,1.31,3.33,2.74,5.15,3.93,1.76,1.16,3.35,2.57,4.9,4.04,1.5,1.42,3.29,2.53,4.96,3.77,.12,.09,.35,.06,.45,.16,1.97,1.78,3.95,3.56,5.88,5.38,.28,.26,.48,.71,.5,1.08,.09,1.17,.19,2.29,.46,3.47,.48,2.04,.7,2.91,.91,5.01,.1,.98,.41,1.94,.49,2.93,.09,1.04-.07,2.1,.05,3.14,.08,.71,.44,1.38,.72,2.21,1.11-1.11,2.2-2.18,3.26-3.27,.41-.42,.68-.42,1.29-.17,1.65,.67,1.94,2.34,2.92,3.5,.15,.18,.35,.68,.69,.11,.33-.56,.71-1.1,1.04-1.66,1.66-2.88,1.9-2.92,4.11-.43,.49,.55,.85,1.22,1.47,2.14,.11-1.81,.83-3.17,.75-4.77-.06-1.23,.32-2.47,.47-3.71,.15-1.24-.41-1.17,.15-2.45,.42-.95,0-2.24,.1-3.37,.11-1.35-.38-2.75,.26-4.08,.08-.17-.11-.54-.28-.72-1.34-1.4-2.88-2.53-4.54-3.55-1.83-1.12-3.61-2.34-5.27-3.7-2.45-2-5.06-3.76-7.67-5.52-.74-.5-1.53-.92-2.34-1.3-3.44-1.58-6.35-4.02-9.58-5.94-.98-.58-1.89-1.31-2.91-1.83-2.18-1.11-4.21-2.48-6.3-3.75-.51-.31-.76-.47-1.31-.07-.36,.26-.97,.2-1.47,.21-1.57,.02-3.14-.06-4.71,.03-1.33,.08-2.65,.39-3.97,.48-1.27,.09-2.56,.02-4.24,.02Z"/>
      </g>
      <path class="cls-4" d="M226.56,157.47c1.2-1.2,2.26-2.24,3.3-3.3,.39-.4,.67-.41,1.29-.24,1.45,.4,1.53,1.93,2.53,2.64,.22,.16,.21,.62,.4,.86,.21,.27,.44,.79,.74-.08,.35-.98,1-1.86,1.53-2.77,.65-1.11,1.48-1.23,2.45-.24,.91,.94,1.73,1.97,2.6,2.97,.49-1.81,.56-3.66,.82-5.47,.2-1.42,.42-2.82,.41-4.25,0-1.61,.72-3.1,.58-4.76-.14-1.6,.15-3.23,.21-4.85,0-.24-.09-.55-.24-.73-1.55-1.82-3.69-2.93-5.51-4.42-1.39-1.14-3.03-1.95-4.5-3-2.1-1.5-4.13-3.08-6.22-4.61-.23-.17-.59-.22-.89-.22-.06,0-.19,.43-.19,.67-.01,2.79,.06,5.59-.03,8.38-.06,2.03-.05,4.12-.58,6.05-.52,1.88-.61,3.57,.07,5.35,.06,.15,0,.35,0,.52,.17,2.89,.31,5.79,.55,8.68,.07,.88,.41,1.74,.67,2.82Z"/>
      <path class="cls-4" d="M98.53,140.1c.21,1.58,.4,2.97,.57,4.36,.18,1.49,.45,2.99,.49,4.48,.04,1.44,.85,2.73,.58,4.23-.26,1.43,.09,2.82,.73,4.25,1.11-1.11,2.21-2.18,3.27-3.28,.42-.43,.7-.39,1.29-.14,1.63,.68,1.95,2.32,2.91,3.49,.15,.19,.35,.68,.68,.1,.44-.78,.89-1.55,1.34-2.32,.08-.14,.15-.29,.23-.43,.77-1.4,1.39-1.55,2.46-.46,.91,.93,1.72,1.96,2.68,3.06,.83-5.6,1.58-11.07,1.71-16.81-.87,0-1.64-.08-2.39,.02-2.76,.36-5.4-.71-8.15-.57-2.69,.14-5.4,.03-8.43,.03Z"/>
      <g>
        <path class="cls-7" d="M191.73,103.76c-.53,6.94-4.11,10.49-11.78,9.74-.76-.07-1.53-.26-2.25-.53-2.15-.82-4.36-2.52-6.4-2.33-1.89,.17-3.88,1.72-5.91,2.49-3.06,1.16-6.19,1.66-9.44,1.35-5.8-.54-9.73-5.94-8.43-11.53,.09-.37,.14-.77,.3-1.11,.4-.85,.96-1.64,2.02-1.42,1.22,.26,1.7,1.24,1.34,2.35-1,3.04,.08,5.21,2.56,6.96,.88,.62,1.83,.91,2.84,1.1,3.78,.71,7.19-.79,10.31-2.39,3.31-1.7,2.64-8.7-.86-10.19-3.86-1.65-6.18-4.32-7.25-8.34-.62-2.34,.1-4.03,1.77-5.47,2.7-2.33,5.96-3.49,9.41-4.07,2.04-.34,3.68,.92,5.25,2.02,5.8,4.06,5.5,11.7-.66,15.02-1.61,.87-2.41,1.73-1.82,3.58,.19,.59,.11,1.28,.07,1.91-.24,4.17-.01,4.58,4.01,5.91,1.58,.52,3.23,1.18,4.84,1.15,4.89-.1,6.71-2.45,6.16-7.56-.13-1.25-.75-2.45-1.15-3.67-.36-1.1-.29-2.13,.94-2.54,1.16-.39,2.06,.27,2.47,1.3,.81,2.01,1.73,4.02,1.67,6.28Zm-22.5-9.03c2.44,.05,5.44-1.45,5.89-3.12,.54-1.98-.25-3.78-1.53-5.26-1.76-2.03-4.18-2.21-7.38-.75-3.97,1.82-4.29,5.2-.73,7.81,1.16,.85,2.43,1.4,3.74,1.32Z"/>
        <path class="cls-7" d="M181.96,58.05c6.42,1.01,11.86,3.9,16.36,8.52,.89,.92,1.63,1.99,1.86,3.29,.17,.95-.07,1.78-1.05,2.23-.81,.38-1.54,.12-2.08-.47-.77-.84-1.37-1.85-2.17-2.66-3.22-3.25-7.09-5.4-11.51-6.59-.86-.23-1.74-.42-2.55-.78-1.01-.45-1.73-1.28-1.34-2.43,.38-1.13,1.35-1.45,2.47-1.12Z"/>
        <path class="cls-7" d="M137.59,71.17c.07-1.53,.79-2.79,2.07-3.49,4.98-2.7,9.27-6.32,13.59-9.91,.29-.24,.62-.47,.96-.62,.77-.34,1.49-.24,2.09,.41,.58,.63,.75,1.39,.29,2.1-.48,.74-1.02,1.51-1.7,2.05-3.61,2.82-6.86,6.15-11.1,8.13-1.15,.54-2.22,1.13-2.68,2.54-.32,1-1.19,1.77-2.4,1.34-1.2-.42-1.25-1.49-1.13-2.57Z"/>
        <path class="cls-7" d="M153.36,81.67c-2.76,.05-4.88-1.98-4.95-4.75-.06-2.46,2.8-4.7,5.99-4.69,2.48,0,4.31,1.9,4.26,4.41-.05,2.65-2.51,4.98-5.3,5.03Z"/>
        <path class="cls-7" d="M184.79,71.62c3.52,.11,5.06,1.52,4.87,4.47-.16,2.48-2.47,4.83-4.66,4.75-2.38-.09-5.19-3.12-5.02-5.4,.17-2.3,2.19-3.9,4.82-3.82Z"/>
        <path class="cls-9" d="M169.23,94.72c-1.31,.09-2.58-.47-3.74-1.32-3.56-2.6-3.24-5.99,.73-7.81,3.2-1.47,5.62-1.29,7.38,.75,1.28,1.48,2.06,3.28,1.53,5.26-.45,1.66-3.45,3.17-5.89,3.12Z"/>
      </g>
      <path class="cls-4" d="M121.28,5.28c4.98,2.74,9.4,5.49,13.58,8.68,1.71,1.31,3.33,2.74,5.15,3.93,1.76,1.16,3.35,2.57,4.9,4.04,1.5,1.42,3.29,2.53,4.96,3.77,.12,.09,.35,.06,.45,.16,1.97,1.78,3.95,3.56,5.88,5.38,.28,.26,.48,.71,.5,1.08,.09,1.17,.19,2.29,.46,3.47,.48,2.04,.7,2.91,.91,5.01,.1,.98,.41,1.94,.49,2.93,.09,1.04-.07,2.1,.05,3.14,.08,.71,.44,1.38,.72,2.21,1.11-1.11,2.2-2.18,3.26-3.27,.41-.42,.68-.42,1.29-.17,1.65,.67,1.94,2.34,2.92,3.5,.15,.18,.35,.68,.69,.11,.33-.56,.71-1.1,1.04-1.66,1.66-2.88,1.9-2.92,4.11-.43,.49,.55,.85,1.22,1.47,2.14,.11-1.81,.83-3.17,.75-4.77-.06-1.23,.32-2.47,.47-3.71,.15-1.24-.41-1.17,.15-2.45,.42-.95,0-2.24,.1-3.37,.11-1.35-.38-2.75,.26-4.08,.08-.17-.11-.54-.28-.72-1.34-1.4-2.88-2.53-4.54-3.55-1.83-1.12-3.61-2.34-5.27-3.7-2.45-2-5.06-3.76-7.67-5.52-.74-.5-1.53-.92-2.34-1.3-3.44-1.58-6.35-4.02-9.58-5.94-.98-.58-1.89-1.31-2.91-1.83-2.18-1.11-4.21-2.48-6.3-3.75-.51-.31-.76-.47-1.31-.07-.36,.26-.97,.2-1.47,.21-1.57,.02-3.14-.06-4.71,.03-1.33,.08-2.65,.39-3.97,.48-1.27,.09-2.56,.02-4.24,.02Z"/>
    </g>
  </g>
</svg>