<?xml version="1.0" encoding="UTF-8"?>
<svg id="_レイヤー_2" data-name="レイヤー 2" xmlns="http://www.w3.org/2000/svg" viewBox="0 0 177.74 147.04">
  <defs>
    <style>
      .cls-1 {
        fill: #ffe600;
      }

      .cls-2 {
        fill: #954828;
        fill-rule: evenodd;
      }

      .cls-3 {
        fill: #faa2ad;
      }

      .cls-4 {
        fill: #fdfdfd;
      }

      .cls-5 {
        fill: #e4bdb4;
      }

      .cls-6 {
        fill: #fff2f6;
      }

      .cls-7 {
        fill: #231815;
      }

      .cls-8 {
        fill: #f03c3c;
      }
    </style>
  </defs>
  <g id="design">
    <g>
      <path class="cls-3" d="M73.92,128.64c-1.26,.3-2.56,.49-3.77,.93-3.03,1.08-6.15,1.29-9.31,1.11-.46-.03-.9-.34-1.35-.52,.15-.95-.07-1.81-.52-2.66-1.2-2.27-2.7-4.4-3.31-6.97-.13-.54-.56-1.02-.92-1.49-1.44-1.9-1.8-3.22-1.44-5.71,.1-.68-.14-1.26-.73-1.47-.39-.14-.93,.07-1.38,.21-.22,.07-.39,.33-.56,.52-2.12,2.43-5.17,3.33-7.89,4.75-.58,.3-1.27,.36-1.91,.56-.79,.24-1.63,.4-2.35,.79-1.25,.68-2.55,.8-3.92,.8-3.34-.02-3.46-.05-3.35-3.45,.09-2.69,1.01-4.96,3.41-6.62,1.98-1.37,3.82-3.04,5.43-4.83,.92-1.02,1.61-2.02,3.09-2.24,.69-.11,1-.8,.98-1.59-.05-1.71-.03-3.43,0-5.14,.02-1.7,.49-2.2,2.19-2.43,2.98-.4,4.21-1.07,5.73-3.14,.1-.13,.16-.29,.26-.43,1.72-2.52,3.09-3.03,6.31-2.28v4.24c1.32,1.07,2.68,2.19,4.04,3.29-.03,1.71-.04,3.26,.84,4.76,.61,1.05,.28,2.45-.67,3.25-1.01,.84-2.24,1.54-3.49,1.94-.89,.28-2.13,.28-2.93-.14-1.47-.76-2.9-.72-4.39-.65-.59,.63-1.27,1.1-1.62,1.76-.9,1.68-2.54,2.4-4.01,3.32-.92,.57-1.93,.99-2.93,1.42-2.02,.88-2.02,.86-1.64,3.09,.93,.26,1.75,.1,2.64-.35,3.21-1.62,6.73-2.76,8.69-6.37,.68,.18,1.31,.33,1.93,.53,2.58,.84,4.98,.53,7.34-.93,.28-.17,.58-.32,.88-.45,2.76-1.23,3.93-3.88,3.07-6.83-.28-.95-.68-1.96-.61-2.91,.18-2.43-.81-4.06-2.88-5.17-.44-.23-.83-.54-1.1-.72-.71-2.19,1-4.82-1.56-6.38-4.39-.36-8.28,.3-10.77,4.43-.85-1.1-.99-2.5-.54-3.73,.37-1.03,.42-2.02,.33-2.99-.17-1.9,.61-3.76,.08-5.66-.08-.28,.18-.63,.22-.96,.29-2.18,.57-4.38-.06-6.54-.85-2.93-1.32-5.91-1.21-8.96,.05-1.5,.25-3.01,.51-4.5,.07-.38,.6-.82,1.01-.97,1.69-.62,3.45-.84,5.19-.25,.64,.22,1.09,.15,1.66-.13,1.42-.69,2.88-1.29,4.5-2-.1-.7-.06-1.48-.32-2.15-2.07-5.44-4.22-10.84-6.28-16.28-.44-1.16-.81-2.38-.7-3.68,.22-2.61,.39-5.23,.59-7.85,.01-.16,.11-.31,.17-.47,.62-1.72,1.14-3.48,1.9-5.13,.58-1.28,1.24-2.67,2.25-3.57,1.93-1.71,4.1-3.08,6.66-3.89,2.81-.9,5.23-.1,7.35,1.35,2.77,1.89,4.59,4.74,5.76,7.87,.89,2.4,1.44,4.93,2.13,7.41,.04,.16,.04,.35,.02,.51-.46,2.85,.19,5.91-1.87,8.46-.52,.64-.53,1.73-.71,2.62-.1,.49-.01,1.02-.11,1.52-.46,2.28-.91,4.56-1.47,6.81-.42,1.69-.69,3.41-1.52,4.99-.71,1.36-.66,1.42,.36,2.38,.35,.33,.79,.55,1.2,.83v4.95c.52,.28,1.03,.55,1.57,.84,.87-.54,1.72-1.07,2.68-1.67,1,1.4,2.29,1.53,3.6,.59,1.04,.75,1.56,2.23,3.38,1.35,.59-1.8,1.25-3.84,1.87-5.76,.83-.21,1.93-.16,2.34-.66,.63-.79,1.12-1.88,.94-3.02-.15-.99-.31-1.99-.63-2.93-.56-1.67-.35-3.28-.11-4.98,.23-1.64,.29-3.4-.04-5-.9-4.36-1.28-8.64,.52-12.87,.62-1.45,1.33-2.88,1.75-4.39,.65-2.29,1.91-4.09,3.69-5.6,.13-.11,.26-.23,.36-.37,1.64-2.22,3.94-3.33,6.55-3.95,.73-.17,1.43-.43,2.16-.57,1.18-.22,2.35-.21,3.44,.45,1.21,.74,2.49,1.38,3.67,2.16,.37,.25,.61,.77,.79,1.22,.65,1.62,1.27,3.25,1.84,4.89,.76,2.19,1.79,4.3,2.08,6.64,.21,1.67,.47,3.32-.21,4.98-.63,1.53-1.33,3.1-1.56,4.71-.49,3.31-2.58,5.77-4.2,8.44-1.16,1.92-2.98,3.45-4.54,5.13-1.43,1.53-1.44,1.51-.39,3.42,.15,.28,.27,.62,.28,.93,.02,1,.49,1.41,1.45,1.77,1.09,.41,2.14,.46,3.23,.45,2.09-.03,4.18-.09,6.14,.91,.08,1.68,.03,3.32-.44,5-.93,3.34-1.4,6.77-1.06,10.27,.09,.9,.13,1.82-.46,2.71-.4,.6,.19,1.59,1.05,1.66,.41,.03,.82-.04,1.02-.05,1.56-2.56,2.9-4.98,4.44-7.26,1.45-2.16,2.93-4.25,3.77-6.76,.42-1.25,1.21-2.36,2.11-3.41,1.52-1.78,2.8-3.77,4.17-5.68,.24-.34,.35-.89,.66-1.03,1.76-.77,2.33-2.65,3.66-3.81,.48-.42,.85-.99,1.36-1.37,.93-.68,1.41-1.59,1.84-2.65,.9-2.24,.22-4.54,.48-6.8,.04-.33-.31-.79-.61-1.05-1.67-1.44-2.34-3.48-3.23-5.36-.92-1.93-.09-5.03,1.39-6.53,1.64-1.66,3.47-2.67,5.89-2.25,.42,.07,.86,.02,1.28,.07,2.2,.25,4.25,2.21,4.56,4.36,.36,2.53-1.23,3.91-3.64,3.15-.55-.17-1.1-.36-1.64-.59-.82-.35-1.61-.4-2.38,0q-.1,2.32,1.82,2.94c.47,.15,.97,.41,1.43,.37,1.13-.1,1.84,.48,2.25,1.35,.54,1.14,1.43,1.79,2.45,2.44,2.69,1.71,5.91,2.25,8.48,4.02,2.02-1.86,2.02-2.29-.08-3.35-2.01-1.01-4.09-1.86-6.11-2.85-.79-.39-1.81-.55-2.16-1.74,.24-.27,.5-.59,.79-.88,.96-.94,1.42-2.06,1.35-3.41-.04-.68-.05-1.37,.01-2.05,.16-1.87-.67-3.27-2.02-4.43-.44-.38-.97-.67-1.44-1.02-.81-.62-1.01-1.65-.41-2.45,.41-.54,.89-1.12,1.47-1.41,2.52-1.23,5.14-2.15,8.02-1.61,1.3,.25,2.56,.78,3.87,.91,.98,.1,1.56,.57,2.12,1.23,.76,.91,1.53,1.81,2.26,2.74,2.25,2.81,5.04,5.36,4.66,9.46,1.2,2.26-.2,4.43-.27,6.65-.02,.73-.24,1.5-.57,2.15-1.76,3.45-4.41,6.03-8.2,6.97-1.77,.44-3.6,1.21-5.64,.3-1.27-.56-2.84-.22-4.05,.83-.5,.44-1.14,.72-1.66,1.15-1.66,1.36-3.56,2.23-5.66,2.48-1.3,.16-2.19,.93-3.01,1.7-1.3,1.21-2.45,2.59-3.58,3.97-.9,1.1-1.84,2.23-2.45,3.5-1.87,3.88-4.63,7.18-6.89,10.8-1.33,2.13-2.64,4.26-3.91,6.42-1.41,2.39-2.44,4.93-3.67,7.39-1.13,2.24-2.56,4.32-3.74,6.53-.86,1.61-1.47,3.35-2.29,4.99-1.04,2.11-1.84,4.2-2.18,6.61-.39,2.73-.43,5.35,.18,8,.22,.97,.87,1.88,.91,2.83,.07,1.49,.85,2.5,1.67,3.56-.51,.27-1.02,.53-1.62,.85,.1,1.69-.1,3.35,.83,5.07,.78,1.43,.28,3.12-1.02,4.35-1.02,.96-2.09,1.89-.88,3.41-.3,.83-.44,1.78-.95,2.46-.63,.85-1.56,1.49-2.5,2.34-.13,1.82-1.09,3.23-2.94,4.31-2.96,1.72-6.15,2.71-9.43,3.4-1.34,.28-2.89,.08-4.24-.28-2.61-.69-3.53-2.07-3.54-4.68,0-.26,0-.51,0-.91-1.68-.87-3.5-1.74-4.37-3.81-1.62-.21-2.97,.66-4.38,1.27-1.51,.67-2.98,1.38-4.73,1.29-2.33-.13-3.45-1.23-3.5-3.62-.01-.68,0-1.37,0-2.05,.14-.06,.27-.13,.41-.19-.07-.07-.14-.14-.22-.21-.06,.13-.12,.27-.19,.4Zm3.13-39.81c-.18,2.32,.31,4.31,1.43,6.17,1.46,2.43,4.56,4.45,7.66,3.76,1.05-.23,2.07-.62,3.08-.98,4.68-1.7,7.45-4.72,7.31-10.22-.05-1.93-.35-3.86-.49-5.79-.06-.78-.37-1.3-1.15-1.44-.72-.13-1.4,0-1.77,.71-1.2,2.32-3.07,3.23-5.77,2.79-.54-.62-1.15-1.31-1.74-1.98,2.66-2.72,2.77-4.18,1.25-7.87-.68-1.65-1.83-2.46-3.73-2.42-1.74,.04-3.29,.68-4.82,1.25-1.6,.6-2.67,2.86-2.27,4.44,.51,1.97,1.26,3.81,3.45,4.63,.8,.3,1.87,.39,2.18,1.66-1.23,1.37-2.2,3.26-4.66,2.26q-.12-2.88-2.27-2.83c-1.78,2.88-.75,4.97,2.3,5.86Zm13.87-29.02c0,.47,.29,.91,.74,1.06,1.65,.55,2.79,1.63,3.84,3.07,1.59,2.18,3.84,3.78,6.1,5.25,.89,.58,1.57,.41,1.97-.24,.38-.62,.23-1.45-.38-1.97-2.24-1.9-4.63-3.64-6.37-6.07-.34-.48-.8-.88-1.23-1.29-1.62-1.51-2.23-1.71-4.02-.84-.39,.19-.65,.59-.65,1.03h0Zm-27.13,8.61c1.4,.24,2.52,.16,3.65-.78,1.87-1.55,3.94-2.85,5.9-4.3,.37-.28,.63-.73,.89-1.14,.38-.6,.24-1.21-.32-1.54-.37-.22-.96-.3-1.36-.18-.54,.17-1,.59-1.49,.93-2.2,1.52-4.03,3.56-6.58,4.63-.91,.38-1.04,1.27-.69,2.38Zm11.67,2.31c-.13-2.06-1.36-3.59-3.9-2.31-.99,.5-1.57,1.17-1.95,2.14-.49,1.24,.55,3.31,1.79,3.56,1.77,.36,4.1-1.59,4.06-3.4Zm16.45,2.42c1.91-.03,2.97-1.01,3.03-2.8,.05-1.6-1.55-2.97-3.41-2.9-1.5,.06-2.78,1.5-2.7,3.03,.08,1.44,1.53,2.69,3.07,2.66Z"/>
      <path class="cls-7" d="M117.17,115.24c-.82-1.06-1.61-2.08-1.67-3.56-.04-.95-.69-1.86-.91-2.83-.61-2.65-.57-5.26-.18-8,.34-2.41,1.14-4.5,2.18-6.61,.81-1.64,1.43-3.38,2.29-4.99,1.18-2.21,2.62-4.29,3.74-6.53,1.23-2.46,2.26-5,3.67-7.39,1.28-2.16,2.59-4.29,3.91-6.42,2.26-3.62,5.02-6.92,6.89-10.8,.61-1.27,1.55-2.4,2.45-3.5,1.12-1.38,2.28-2.76,3.58-3.97,.83-.77,1.71-1.54,3.01-1.7,2.1-.26,4-1.12,5.66-2.48,.52-.43,1.15-.71,1.66-1.15,1.21-1.05,2.78-1.4,4.05-.83,2.04,.9,3.87,.13,5.64-.3,3.79-.94,6.44-3.52,8.2-6.97,.33-.65,.55-1.43,.57-2.15,.07-2.22,1.46-4.38,.27-6.65,.38-4.11-2.41-6.65-4.66-9.46-.74-.92-1.5-1.83-2.26-2.74-.56-.66-1.14-1.13-2.12-1.23-1.31-.13-2.57-.66-3.87-.91-2.88-.55-5.5,.38-8.02,1.61-.58,.28-1.06,.87-1.47,1.41-.61,.8-.4,1.83,.41,2.45,.47,.36,.99,.64,1.44,1.02,1.35,1.16,2.18,2.56,2.02,4.43-.06,.68-.05,1.37-.01,2.05,.07,1.35-.39,2.47-1.35,3.41-.29,.29-.55,.61-.79,.88,.35,1.19,1.36,1.36,2.16,1.74,2.02,.98,4.11,1.83,6.11,2.85,2.1,1.06,2.1,1.5,.08,3.35-2.58-1.77-5.79-2.3-8.48-4.02-1.02-.65-1.92-1.3-2.45-2.44-.41-.88-1.12-1.46-2.25-1.35-.46,.04-.96-.22-1.43-.37q-1.92-.62-1.82-2.94c.77-.41,1.56-.35,2.38,0,.53,.22,1.08,.41,1.64,.59,2.41,.76,4-.62,3.64-3.15-.31-2.15-2.35-4.11-4.56-4.36-.42-.05-.86,0-1.28-.07-2.42-.42-4.25,.6-5.89,2.25-1.49,1.5-2.31,4.6-1.39,6.53,.89,1.88,1.56,3.92,3.23,5.36,.3,.26,.65,.72,.61,1.05-.26,2.26,.42,4.57-.48,6.8-.43,1.05-.9,1.96-1.84,2.65-.51,.38-.88,.95-1.36,1.37-1.33,1.16-1.9,3.03-3.66,3.81-.31,.14-.42,.69-.66,1.03-1.37,1.91-2.65,3.9-4.17,5.68-.9,1.05-1.7,2.16-2.11,3.41-.84,2.51-2.32,4.61-3.77,6.76-1.54,2.29-2.89,4.7-4.44,7.26-.2,.01-.61,.08-1.02,.05-.86-.07-1.45-1.06-1.05-1.66,.59-.89,.55-1.8,.46-2.71-.34-3.5,.13-6.93,1.06-10.27,.47-1.69,.52-3.33,.44-5-1.96-1-4.05-.93-6.14-.91-1.09,.01-2.14-.04-3.23-.45-.96-.36-1.43-.77-1.45-1.77,0-.31-.12-.65-.28-.93-1.06-1.9-1.04-1.88,.39-3.42,1.56-1.67,3.37-3.21,4.54-5.13,1.62-2.67,3.71-5.13,4.2-8.44,.24-1.61,.94-3.18,1.56-4.71,.68-1.66,.42-3.3,.21-4.98-.29-2.34-1.32-4.45-2.08-6.64-.57-1.65-1.2-3.27-1.84-4.89-.18-.45-.41-.98-.79-1.22-1.18-.78-2.46-1.42-3.67-2.16-1.09-.66-2.25-.68-3.44-.45-.73,.14-1.44,.4-2.16,.57-2.61,.62-4.91,1.72-6.55,3.95-.1,.14-.23,.26-.36,.37-1.78,1.5-3.05,3.31-3.69,5.6-.43,1.51-1.14,2.94-1.75,4.39-1.8,4.23-1.42,8.51-.52,12.87,.33,1.61,.27,3.37,.04,5-.24,1.7-.45,3.31,.11,4.98,.32,.94,.47,1.94,.63,2.93,.17,1.14-.31,2.23-.94,3.02-.4,.51-1.51,.46-2.34,.66-.62,1.92-1.29,3.95-1.87,5.76-1.82,.88-2.34-.6-3.38-1.35-1.31,.93-2.6,.81-3.6-.59-.96,.6-1.81,1.13-2.68,1.67-.54-.29-1.05-.56-1.57-.84v-4.95c-.41-.28-.85-.5-1.2-.83-1.02-.96-1.07-1.02-.36-2.38,.82-1.58,1.1-3.31,1.52-4.99,.56-2.25,1-4.54,1.47-6.81,.1-.49,.01-1.03,.11-1.52,.18-.89,.19-1.97,.71-2.62,2.06-2.55,1.42-5.61,1.87-8.46,.03-.17,.03-.35-.02-.51-.69-2.48-1.24-5.01-2.13-7.41-1.16-3.13-2.98-5.98-5.76-7.87-2.12-1.45-4.54-2.25-7.35-1.35-2.56,.82-4.73,2.18-6.66,3.89-1.01,.9-1.67,2.29-2.25,3.57-.76,1.65-1.28,3.42-1.9,5.13-.06,.16-.15,.31-.17,.47-.2,2.62-.36,5.23-.59,7.85-.11,1.31,.26,2.52,.7,3.68,2.06,5.44,4.21,10.85,6.28,16.28,.25,.67,.22,1.45,.32,2.15-1.62,.71-3.08,1.32-4.5,2-.57,.28-1.02,.34-1.66,.13-1.74-.59-3.5-.37-5.19,.25-.41,.15-.94,.59-1.01,.97-.27,1.48-.46,2.99-.51,4.5-.11,3.05,.35,6.03,1.21,8.96,.63,2.16,.35,4.36,.06,6.54-.04,.33-.3,.68-.22,.96,.53,1.9-.25,3.76-.08,5.66,.09,.97,.04,1.97-.33,2.99-.44,1.24-.31,2.63,.54,3.73,2.49-4.13,6.38-4.79,10.77-4.43,2.56,1.56,.85,4.19,1.56,6.38,.27,.18,.66,.49,1.1,.72,2.07,1.11,3.06,2.75,2.88,5.17-.07,.95,.33,1.96,.61,2.91,.87,2.95-.3,5.6-3.07,6.83-.3,.13-.6,.28-.88,.45-2.36,1.47-4.76,1.77-7.34,.93-.62-.2-1.25-.35-1.93-.53-1.95,3.61-5.48,4.75-8.69,6.37-.89,.45-1.72,.61-2.64,.35-.38-2.23-.38-2.21,1.64-3.09,1-.43,2.01-.85,2.93-1.42,1.47-.92,3.11-1.64,4.01-3.32,.35-.65,1.03-1.13,1.62-1.76,1.5-.07,2.92-.11,4.39,.65,.8,.42,2.04,.42,2.93,.14,1.25-.4,2.48-1.09,3.49-1.94,.95-.79,1.28-2.2,.67-3.25-.88-1.5-.87-3.05-.84-4.76-1.36-1.1-2.72-2.22-4.04-3.29v-4.24c-3.21-.75-4.59-.25-6.31,2.28-.09,.14-.16,.29-.26,.43-1.51,2.07-2.74,2.74-5.73,3.14-1.71,.23-2.17,.73-2.19,2.43-.02,1.71-.04,3.43,0,5.14,.02,.8-.29,1.49-.98,1.59-1.48,.23-2.17,1.22-3.09,2.24-1.61,1.79-3.45,3.46-5.43,4.83-2.4,1.66-3.32,3.93-3.41,6.62-.11,3.4,.01,3.43,3.35,3.45,1.37,0,2.67-.12,3.92-.8,.72-.39,1.56-.55,2.35-.79,.63-.2,1.33-.26,1.91-.56,2.73-1.42,5.77-2.32,7.89-4.75,.17-.19,.34-.45,.56-.52,.45-.14,.99-.35,1.38-.21,.59,.21,.83,.78,.73,1.47-.36,2.5,0,3.82,1.44,5.71,.35,.46,.79,.95,.92,1.49,.61,2.57,2.11,4.7,3.31,6.97,.45,.85,.67,1.71,.52,2.66-2.47,.1-2.7-.04-3.52-1.98-.32-.76-.66-1.54-1.1-2.23-.69-1.06-1.52-2-1.52-3.4,0-.46-.33-.94-.58-1.38-.82-1.44-1.67-2.85-2.53-4.31-2.38,1.1-4.84,2.33-7.37,3.39-1.77,.75-3.61,1.34-5.45,1.88-1.98,.59-4.06,.61-6.02,.07-1.87-.51-2.88-2.1-3.12-3.93-.23-1.74-.33-3.54,.4-5.27,1.02-2.42,1.98-4.81,4.52-6.16,.87-.46,1.48-1.41,2.24-2.1,1.97-1.79,3.96-3.55,6.06-5.43,0-1.7,.04-3.58-.01-5.46-.04-1.37,.54-2.27,1.77-2.79,.92-.38,1.85-.74,2.99-1.2,0-2.72-.1-5.54,.03-8.34,.15-3.36,.51-6.71,.75-10.07,.03-.39-.13-.79-.2-1.18-.53-2.78-1.14-5.54-1.56-8.34-.17-1.14-.14-2.32,.26-3.5,.31-.93,.14-2.03,.17-3.05,.08-2.59,.64-3.43,3.2-4.13,1.91-.52,3.86-1.25,5.88-.31,.22,.1,.51,.02,.76,.05,1.67,.21,2.42-.83,1.86-2.33-.65-1.72-1.35-3.42-2.01-5.14-1.35-3.51-2.68-7.02-4.03-10.53-.53-1.37-.67-2.81-.53-4.24,.26-2.67,.35-5.42,1.09-7.96,.88-3.01,1.56-6.18,3.51-8.79,1.75-2.35,4.01-4.05,6.7-5.19,.92-.4,1.87-.75,2.82-1.07,.63-.21,1.29-.47,1.93-.46,3,.05,5.98,.67,8.2,2.68,2.28,2.07,4.28,4.48,5.61,7.41,1.36,3,1.72,6.27,2.91,9.31,.39,1.01,0,2.34-.08,3.51-.05,.66-.33,1.33-.27,1.98,.18,1.96-.45,3.56-1.54,5.2-.69,1.04-.79,2.51-1.04,3.81-.41,2.12-.34,4.35-1.39,6.34-.18,.35-.11,.83-.17,1.25-.14,.99-.29,1.97-.46,3.1,1.84-.12,3.76-.42,5.65-.3,1.8,.11,3.57,.67,5.48,1.06,.47-1.77-.57-3.21-.63-4.76-.03-.84-.42-1.77-.16-2.49,1.1-3.05,.39-6.05-.2-9-.59-2.98-.53-5.84,.46-8.68,1.09-3.15,2.25-6.27,3.39-9.4,.11-.31,.2-.69,.43-.9,3.39-3.21,5.9-7.57,11.27-8.17,1.54-.17,2.99-1.12,4.63-1,.66,.04,1.4,.08,1.95,.39,1.9,1.06,3.76,2.22,5.6,3.4,.82,.53,1.05,1.47,1.36,2.36,1.16,3.31,2.46,6.57,3.58,9.89,1.25,3.72,1.01,7.38-.61,10.99-.68,1.51-1.07,3.15-1.58,4.74-.1,.32-.04,.74-.23,.97-1.69,2.01-2.45,4.61-4.3,6.53-.99,1.03-1.83,2.21-2.7,3.29v3.15c1.01,0,2.07,.3,2.83-.06,2.2-1.03,3.86,.63,5.76,.95,1.22,.21,1.42,1.84,1.59,2.95,.17,1.14-.03,2.36-.22,3.52-.35,2.15-.83,4.28-1.23,6.43-.07,.39-.01,.81-.01,1.53,2.2-2.52,3.51-5.16,4.57-7.88,.48-1.22,1.11-2.26,1.95-3.17,1.67-1.81,3.18-3.72,4.25-5.95,.18-.37,.37-.8,.67-1.05,1.64-1.36,2.97-2.97,4.19-4.69,.25-.35,.55-.66,.86-.95,.48-.44,1.31-.77,1.41-1.27,.2-.96,.19-2.06-.08-3.01-.71-2.47-1.51-4.9-2.81-7.17-1.14-2-1.56-4.24-.7-6.55,.17-.46,.01-1.04,.17-1.51,.2-.61,.44-1.28,.87-1.73,.82-.85,1.75-1.62,2.7-2.33,1.57-1.19,3.2-2.23,5.35-1.88,.66,.11,1.36,.02,2.17,.02,.22-.59,.43-1.21,.67-1.81,.58-1.45,1.45-2.65,2.93-3.28,2.47-1.06,4.88-2.41,7.71-2.07,2.33,.28,4.66,.62,6.95,1.12,.77,.16,1.56,.75,2.09,1.37,2.26,2.63,4.45,5.33,6.6,8.04,1.34,1.7,1.72,3.74,2.01,5.85,.44,3.19-.06,6.29-.59,9.41-.05,.32-.16,.64-.29,.94-1.78,4.25-4.83,7.29-9.09,8.96-1.84,.72-3.89,.95-5.85,1.34-.49,.1-1.16,.17-1.51-.08-1.65-1.16-2.89-.19-4.11,.7-1.99,1.46-3.98,2.84-6.56,3.02-.53,.04-1.13,.43-1.52,.83-2.54,2.61-5.18,5.11-6.92,8.42-1.32,2.51-3.06,4.81-4.61,7.2-2.43,3.73-5.2,7.28-6.87,11.45-1.66,4.14-4.35,7.73-6.18,11.79-.89,1.98-2.05,3.85-2.92,5.84-.53,1.21-1,2.55-1.03,3.83-.06,2.94-.53,5.93,.71,8.81,.55,1.28,.75,2.7,1.14,4.16-.41,.58-.81,1.38-1.86,1.28Zm-38.62-59.48c1.55-.56,2.9-1.26,4.11,.12,.08,.1,.38,0,.58,0,.94,.02,1.88,.05,3.03,.08,.63-.33,.48-1.14,.52-1.89,.05-.95-.44-1.45-1.33-1.47-1.88-.05-3.76-.03-5.64,0-.78,.01-1.24,.45-1.27,1.26-.02,.57,0,1.15,0,1.91Z"/>
      <path class="cls-7" d="M177.74,73.72c-1.05,1.97-3.05,2.53-4.71,3.46-1.66,.93-2.41,2.05-2.51,3.96-.1,1.9-.57,3.78-.99,5.65-.42,1.84-2.2,2.44-3.76,1.25-.79-.6-1.46-1.36-2.17-2.06-.49-.48-.94-1-1.43-1.47-.49-.48-1-.93-1.65-1.54-2.39,.55-4.97,1.15-7.56,1.75-.24,.06-.47,.16-.71,.17-.91,.04-1.96,.42-2.54-.64-.56-1.02,.23-1.78,.75-2.49,1.74-2.37,3.54-4.7,5.34-7.08-.57-2.29-2.05-4.33-1.59-6.98,3.65-1.76,7.3-.45,10.91,.5,2.22-2.61,4.45-4.92,8.04-4.83,1.21,1.17,1.11,2.38,.48,3.72-.46,.98-.78,2.02-1.19,3.1,1.9,1.17,4.4,1.27,5.28,3.53Zm-23.13,7.1c-.32,.26-.64,.51-.96,.77,.04,.09,.08,.17,.12,.26,.29-.12,.59-.23,.88-.35,1.63-.35,3.26-.73,4.89-1.05,1.38-.27,2.55-.17,3.53,1.19,1.03,1.42,2.41,2.59,3.91,4.17,.39-2.15,.87-3.94,.98-5.74,.12-1.97,.9-3.37,2.55-4.36,1.01-.6,2.01-1.22,3.23-1.96-1-.43-1.77-.73-2.51-1.08-1.63-.77-1.61-1.1-1.3-2.9,.15-.91,1.21-1.76,.31-2.9-1.26,.61-2.1,1.69-2.94,2.72-1.51,1.85-1.43,1.81-3.68,1.1-2.04-.64-4.05-1.67-6.44-.97-.05,1.38,.63,2.56,1.21,3.7,.56,1.08,.42,1.85-.32,2.76-1.22,1.5-2.31,3.09-3.46,4.64Z"/>
      <path class="cls-7" d="M21.86,88.89c.09,.52,.11,1.12,.29,1.66,.55,1.66,1.22,3.27,1.73,4.94,.58,1.89-.31,3.1-2.31,3.3-1.67,.16-3.14-.46-4.57-1.19-.3-.15-.53-.45-.83-.6-.95-.5-1.51-.33-2.23,.42-1.7,1.75-3.41,3.5-5.21,5.15-.41,.38-1.2,.35-1.68,.47-1.13-1.18-1.08-2.39-.92-3.56,.18-1.31,.56-2.6,.82-3.9,.18-.88-.36-1.69-1.31-1.93-2.35-.59-4.44-1.54-5.64-4,.07-1.41,1.15-2.09,2.47-2.59,1.56-.59,3.11-1.22,4.67-1.82,.84-.32,1.37-.76,1.52-1.79,.18-1.31,.66-2.57,1-3.86,.26-.98,.87-1.62,1.85-1.87,1.2-.3,1.95,.43,2.57,1.27,.69,.95,1.29,1.96,1.96,2.99,2.09-.18,4.1-.36,6.11-.53,.43-.04,.88-.12,1.28,0,2.1,.58,2.58,1.23,1.79,3.18-.7,1.74-2.09,2.85-3.34,4.26Zm-12.77,9.21l.47,.3c.66-.72,1.31-1.46,1.99-2.17,2.77-2.91,2.4-3.47,6.49-1.07,1.01,.59,2.02,1.11,3.42,1.09-.71-1.91-1.32-3.68-2.02-5.41-.84-2.06-.7-2.78,1.1-4.34,.57-.49,1.2-.91,2.05-1.54-.91-.51-1.34-.95-1.73-.92-1.42,.08-2.85,.24-4.23,.55-.55,.13-1.07,.65-1.63,.25-.47-.33-.87-.82-1.2-1.3-.6-.88-1.12-1.81-1.95-3.17-.27,2.15-.42,3.73-.71,5.28-.09,.5-.49,1.04-.91,1.34-.45,.32-1.11,.3-1.63,.55-1.66,.81-3.59,1.05-5.44,2.56,1.1,.24,1.81,.4,2.51,.56,1.22,.29,2.63,.37,3.23,1.66,.63,1.36,1.12,2.81,.51,4.37-.17,.44-.21,.94-.32,1.41Z"/>
      <path class="cls-7" d="M12.15,7.65c-1.75,.74-3.17,1.25-4.5,1.94-.85,.44-1.51,.36-1.97-.38-.43-.69-.44-1.57,.32-2.05,1.33-.84,2.75-1.54,4.24-2.37,.2-1.07-.76-2.28-.68-3.48,.08-1.27,1.62-1.74,2.49-.82,.81,.86,.96,2.27,1.6,3.4,1.01-.36,2.01-.77,3.04-1.09,.96-.29,1.93,.09,2.21,.77,.34,.83-.08,1.73-1.11,2.22-.52,.25-1.11,.34-1.65,.57-.84,.36-1.13,.97-.56,2.06,1.09-.42,2.24-.8,3.33-1.31,.74-.35,1.33-.3,1.78,.34,.48,.68,.6,1.53-.1,2.07-.78,.6-1.69,1.07-2.62,1.42-.97,.37-1.41,.84-.88,2.04,1.4-.19,2.7,.4,3.91,1.13,.71,.43,1.37,1.04,1.85,1.71,.41,.56,.32,1.29-.22,1.87-.48,.52-1,.55-1.6,.23-.88-.47-1.77-.93-2.76-1.45-.34,.88-.51,1.77-.99,2.47-.52,.76-1.25,1.42-2.01,1.96-2.41,1.74-4.73,.7-5.11-2.23-.28-2.15,.29-3.19,2.46-4.1,.48-.2,.78-.32,1.47-.44-.24-.64-.27-.88-.49-1.48-1.15,.37-2.35,.65-3.45,1.13-.9,.39-1.53,.19-1.92-.57-.37-.73-.29-1.52,.45-2.05,.4-.29,.85-.51,1.31-.69,.69-.28,1.89-.58,2.64-.84l-.47-1.97Z"/>
      <path class="cls-7" d="M134.69,138.3c-.33-2.34,.14-4.4,1.05-6.29,1.46-3.02,3.11-5.96,4.76-8.89,1.89-3.37,3.77-6.75,5.84-10.01,3.8-5.96,7.69-11.85,11.64-17.71,.85-1.25,2.09-2.26,3.25-3.27,.38-.34,1.09-.49,1.61-.44,.93,.1,1.29,1.17,.74,1.95-.1,.14-.22,.26-.35,.38-3.82,3.33-6.36,7.66-9.03,11.84-3.79,5.93-7.3,12.04-10.89,18.09-1.54,2.59-2.95,5.26-4.5,7.84-.93,1.55-1.09,3.3-1.63,4.95q-.5,1.52-2.49,1.55Z"/>
      <path class="cls-7" d="M17.76,47.75c-1.02,.07-1.85,.22-2.66,.14-.43-.04-1.09-.43-1.16-.77-.1-.48,.07-1.26,.42-1.55,.69-.56,1.58-.87,2.55-1.36-.04-.62-.1-1.28-.11-1.94-.02-1.81,.2-1.98,2.42-1.9l1.06,2.64,3.29-.91v-2.96c0-.49,.37-.89,.85-.94l.45-.04c.53-.05,1.03,.25,1.24,.74l.81,1.89c.59-.26,1.23-.57,1.89-.83,1.38-.55,2.57-.29,2.89,.61,.36,.98-.17,1.82-1.57,2.46-.6,.27-1.22,.5-1.86,.76-.55,1.28,.28,2.68-.62,3.95-.65,.92-1.51,1.42-2.43,1.89-.36,.19-.8,.2-1.16,.02-.97-.46-1.07-.69-.98-1.9,.02-.31,.21-.6,.48-.76,.92-.52,.98-.64,1.45-1.59-1.59-.32-2.74,.61-4.14,1.26,.22,.84,.34,1.76,.71,2.56,.41,.87,1.11,1.45,2.23,1.41,1.61-.06,3.2-.16,4.73-.74,.82-.31,1.95,.01,2.1,.58,.22,.78,.11,1.54-.64,2.04-.34,.22-.73,.36-1.1,.55-1.7,.85-3.64,.79-5.4,.87-2.03,.09-3.82-1.19-4.7-3.25-.42-.99-.73-2.02-1.05-2.91Z"/>
      <path class="cls-7" d="M17.82,137.55c0,1.62-.06,3.16,.02,4.69,.07,1.22-.26,2.16-1.48,2.83-2.2-.78-3.39-2.83-5.11-4.53-1,.38-2.14,.86-3.31,1.24-1.68,.54-2.48-.03-2.37-1.77,.06-.99,.24-2.06,.71-2.9,.6-1.09,.31-1.92-.19-2.85-.44-.81-.89-1.63-1.24-2.48-.74-1.77-.19-2.73,1.66-2.59,1.74,.13,3.45,.6,5.2,.92,1.04-1.11,2.14-2.26,3.2-3.44,.88-.97,1.91-1.38,3.19-.97,1.47,1.59,.57,3.59,.91,5.53,.6,.32,1.27,.65,1.92,1.03,1.44,.83,1.57,1.95,.25,3.01-.98,.79-2.08,1.43-3.35,2.28Zm-1.51-8.44c-.82,.75-1.4,1.39-2.08,1.9-1.39,1.04-2.74,2.28-4.73,1.29-.35-.17-.88,.02-1.31,.04,.47,1.15,1.11,2.13,1.22,3.16,.1,.94-.38,1.95-.61,2.93,.3,0,.48,.04,.64,0,2.75-.82,2.8-.79,4.63,1.47,.23,.28,.63,.43,1.23,.82,0-.82-.01-1.31,0-1.81q.08-3.15,2.74-4.58c.1-.06,.13-.25,.21-.39-2.56-.73-1.77-2.91-1.95-4.82Z"/>
      <path class="cls-7" d="M18.88,33.28c.38-2.06-.37-3.33-1.92-4.73-.24,1.53-.49,2.72-.61,3.92-.18,1.81-.73,3.44-1.93,4.84-.45,.53-.94,.85-1.51,.88-.53,.03-1.02-.29-1.26-.77l-.07-.14c-.22-.43-.21-.94,.04-1.35,1.03-1.75,2.09-3.56,1.53-5.98-.62,.18-1.21,.41-1.82,.53-.67,.13-1.18-.21-1.49-.77-.34-.61-.1-1.21,.39-1.57,.87-.64,1.83-1.17,2.93-1.85,.04-.51,.01-1.18,.14-1.82,.25-1.21,1.59-1.67,2.24-.66,.26,.4,.56,1.13,.56,1.83,.89-.04,1.71-.02,2.54,.28,.84,.31,1.61,.84,2,1.82,.49,1.24,1.29,2.35,1.76,3.59,.54,1.39-.88,4.58-2.51,5.06-1.08,.31-1.83,.29-2.28-.4-.5-.75-.27-1.61,.67-2.4,.18-.16,.43-.24,.62-.34Z"/>
      <path class="cls-7" d="M27.93,61.8c-2.04,.7-4.09,1.39-6.13,2.09-.47,.16-.93,.39-1.41,.5-.83,.19-1.55-.02-1.92-.85-.24-.53,.31-1.77,.93-2.17,.28-.18,.57-.38,.89-.48,3.48-1.13,6.97-2.25,10.46-3.36,1.41-.44,2.51,.31,2.6,1.72,.07,1.09-.42,1.94-1.07,2.76-.57,.72-1.13,1.47-1.54,2.28-.83,1.63-.2,3.08,1.51,3.69,.31,.11,.79,.06,.93,.26,.31,.45,.67,1.06,.59,1.53-.08,.46-.62,1.11-1.05,1.21-1.81,.39-3.9-.52-4.65-2.21-1.03-2.31-1.31-4.48-.13-6.99Z"/>
      <path class="cls-7" d="M132.45,120.37c-.88-.54-1.09-1.12-.62-2.12,1.66-3.5,3.69-6.78,5.95-9.92,2.65-3.67,5.19-7.41,7.33-11.41,.27-.51,.66-.97,.9-1.5,.55-1.23,1.41-1.6,2.77-1.07,.53,1.2-.22,2.11-.78,3.14-2.77,5.11-6.11,9.84-9.47,14.57-1.5,2.11-2.74,4.41-4.04,6.65-.49,.85-1.09,1.45-2.04,1.65Z"/>
      <path class="cls-7" d="M128.76,97.94c.61,1.83,0,3.36-.58,4.83-1.7,4.37-2.73,8.93-3.74,13.47-.62,2.79-1.35,5.77-.26,8.74,.14,.39-.4,1.04-.62,1.55-1.81-.35-2.24-.71-2.3-2.16-.16-3.39,.06-6.71,.88-10.06,1.23-5.02,2.43-10.03,4.22-14.88,.55-1.49,.52-1.5,2.4-1.48Z"/>
      <path class="cls-7" d="M41.13,147.01c-.54-2.28-1.05-4.64-1.66-6.97-.63-2.41-1.41-4.79-2.03-7.2-.41-1.61-.79-3.25-.92-4.9-.05-.6,.64-1.25,.96-1.83,1.52,.2,1.83,1.29,1.9,2.22,.2,2.72,1.29,5.18,1.98,7.76,.82,3.05,1.51,6.15,2.15,9.24,.29,1.42-.31,1.82-2.37,1.67Z"/>
      <path class="cls-7" d="M156.23,130.58c-.35,.64-.54,1.24-.92,1.65-3.79,4.1-6.78,8.78-9.91,13.36-.65,.95-1.31,1.19-2.39,.88-.41-.99-.25-1.86,.41-2.79,2.67-3.76,5.25-7.58,7.91-11.35,.54-.76,1.26-1.39,1.95-2.02,1.07-.99,1.32-.96,2.94,.27Z"/>
      <path class="cls-7" d="M33.87,82.89c-.55,0-1.03-.33-1.22-.85-.21-.55-.19-1.11,.1-1.78,.99-2.28,1.84-4.62,2.76-6.93,.15-.39,.34-.77,.57-1.12,.6-.91,1.47-1.3,2.09-.99,.63,.32,1.08,1.3,.73,2.24-1.04,2.79-2.15,5.56-3.33,8.3-.3,.71-.88,1.14-1.71,1.13Z"/>
      <path class="cls-7" d="M46.52,123.98c.59,.3,1.03,.53,1.47,.75,.05,.15,.15,.31,.15,.46-.05,2.7,.11,5.35,.98,7.95,.28,.85,.09,1.86,.09,2.79,0,.79-.41,1.29-1.17,1.38-.82,.1-1.23-.45-1.38-1.18-.34-1.7-.65-3.41-.98-5.12-.14-.73-.4-1.45-.45-2.19-.11-1.67-.14-3.36,1.28-4.85Z"/>
      <path class="cls-7" d="M24.86,130.8c1.1-.19,1.64,.39,2.01,1.06,1.18,2.11,2.33,4.24,3.42,6.39,.28,.57,.46,1.3,.37,1.91-.07,.46-.56,1.02-1.01,1.21-.3,.12-1.05-.22-1.23-.55-1.34-2.47-2.56-5-3.87-7.49-.49-.93-.32-1.7,.31-2.53Z"/>
      <path class="cls-7" d="M23.26,21.75c.21,.12,.72,.27,1.06,.6,1.3,1.24,2.61,2.48,3.8,3.82,.48,.54,.78,1.29,1,1.99,.23,.73-.1,1.42-.81,1.68-.62,.23-1.33,.23-1.87-.39-1.28-1.48-2.59-2.92-3.87-4.4-.33-.38-.62-.81-.84-1.25-.58-1.16,0-2.07,1.52-2.05Z"/>
      <path class="cls-7" d="M35.2,85.12h0c.37,.72,.1,1.61-.62,1.99l-.15,.08c-.54,.29-1.2,.22-1.67-.18l-.02-.02c-.5-.43-.66-1.14-.38-1.75l.03-.06c.24-.53,.77-.87,1.35-.87h.14c.56,0,1.06,.31,1.32,.8Z"/>
      <path class="cls-7" d="M77.05,88.83c-3.05-.89-4.08-2.98-2.3-5.86q2.14-.06,2.27,2.83c2.46,1,3.43-.89,4.66-2.26-.31-1.27-1.38-1.36-2.18-1.66-2.18-.82-2.94-2.66-3.45-4.63-.41-1.58,.66-3.84,2.27-4.44,1.54-.57,3.08-1.21,4.82-1.25,1.9-.04,3.05,.77,3.73,2.42,1.52,3.69,1.41,5.16-1.25,7.87,.59,.68,1.2,1.36,1.74,1.98,2.69,.44,4.57-.47,5.77-2.79,.37-.71,1.05-.84,1.77-.71,.78,.14,1.09,.66,1.15,1.44,.14,1.93,.44,3.86,.49,5.79,.15,5.5-2.62,8.52-7.31,10.22-1.01,.37-2.03,.75-3.08,.98-3.11,.69-6.21-1.34-7.66-3.76-1.12-1.86-1.61-3.86-1.43-6.17Zm4.43,5.44c.8-2.75,2.57-4.11,5.38-4.19,.45-.01,.88-.43,1.33-.63,1.54-.69,3.08-1.42,4.78-.43,.19,.11,.49,.01,.87,.01v-3.81c-3.42,1.42-6.72,2.46-9.58-.34-1.4,1.42-2.68,2.73-4.19,4.26,.03,1.56-.37,3.54,1.42,5.12Zm1.35-20.09c-1.56-.21-2.63,.72-3.77,1.33-.31,.17-.5,.86-.48,1.3,.04,1.59,2.32,3.59,3.9,3.51,.16,0,.33-.04,.48-.1,2.07-.7,2.81-2.51,1.98-4.58-.42-1.06-.97-1.76-2.11-1.47Zm2.16,22.08c2.9-.85,5.73-1.51,7.52-4.08-1.29-1.25-1.71-1.43-2.95-.38-.88,.74-1.7,.88-2.74,.92-2.33,.1-2.89,1.15-1.83,3.54Z"/>
      <path class="cls-7" d="M90.92,59.81h0c0-.44,.26-.84,.65-1.03,1.8-.88,2.4-.68,4.02,.84,.43,.41,.89,.81,1.23,1.29,1.74,2.43,4.13,4.17,6.37,6.07,.61,.52,.76,1.35,.38,1.97-.4,.65-1.09,.82-1.97,.24-2.27-1.47-4.51-3.07-6.1-5.25-1.04-1.43-2.19-2.52-3.84-3.07-.45-.15-.74-.59-.74-1.06Z"/>
      <path class="cls-7" d="M63.79,68.42c-.35-1.12-.23-2,.69-2.38,2.55-1.06,4.37-3.1,6.58-4.63,.48-.33,.95-.76,1.49-.93,.4-.13,.99-.04,1.36,.18,.57,.33,.7,.95,.32,1.54-.26,.41-.52,.86-.89,1.14-1.96,1.45-4.03,2.75-5.9,4.3-1.13,.93-2.88,1.72-3.65,.78Z"/>
      <path class="cls-7" d="M75.46,70.73c.05,1.8-2.29,3.76-4.06,3.4-1.25-.26-2.28-2.33-1.79-3.56,.38-.96,.96-1.64,1.95-2.14,2.54-1.28,3.77,.24,3.9,2.31Z"/>
      <path class="cls-7" d="M91.91,73.16c-1.55,.03-3-1.23-3.07-2.66-.08-1.53,1.21-2.97,2.7-3.03,1.85-.07,3.46,1.3,3.41,2.9-.06,1.78-1.12,2.76-3.03,2.8Z"/>
      <path class="cls-4" d="M73.92,128.64c.06-.13,.12-.27,.19-.4,.07,.07,.14,.14,.22,.21-.14,.06-.27,.13-.41,.19h0Z"/>
      <path class="cls-2" d="M78.54,55.76c0-.76-.02-1.34,0-1.91,.03-.81,.49-1.25,1.27-1.26,1.88-.03,3.76-.04,5.64,0,.88,.02,1.37,.52,1.33,1.47-.04,.76,.11,1.56-.52,1.89-1.15-.03-2.09-.06-3.03-.08-.2,0-.5,.1-.58,0-1.21-1.38-2.56-.68-4.11-.12Z"/>
      <path class="cls-1" d="M171.24,72.66c-1.63-.77-1.61-1.1-1.3-2.9,.15-.91,1.21-1.76,.31-2.9-1.26,.61-2.1,1.69-2.94,2.72-1.51,1.85-1.43,1.81-3.68,1.1-2.04-.64-4.05-1.67-6.44-.97-.05,1.38,.63,2.56,1.21,3.7,.56,1.08,.42,1.85-.32,2.76-1.22,1.5-2.31,3.09-3.46,4.64-.32,.26-.64,.51-.96,.77,.04,.09,.08,.17,.12,.26,.29-.12,.59-.23,.88-.35,1.63-.35,3.26-.73,4.89-1.05,1.38-.27,2.55-.17,3.53,1.19,1.03,1.42,2.41,2.59,3.91,4.17,.39-2.15,.87-3.94,.98-5.74,.12-1.97,.9-3.37,2.55-4.36,1.01-.6,2.01-1.22,3.23-1.96-1-.43-1.77-.73-2.51-1.08Z"/>
      <path class="cls-1" d="M9.09,98.1c.1-.47,.14-.97,.32-1.41,.61-1.56,.12-3.01-.51-4.37-.6-1.29-2.01-1.37-3.23-1.66-.71-.17-1.42-.32-2.51-.56,1.85-1.5,3.78-1.75,5.44-2.56,.51-.25,1.18-.23,1.63-.55,.42-.3,.82-.85,.91-1.34,.29-1.56,.44-3.14,.71-5.28,.83,1.36,1.35,2.29,1.95,3.17,.33,.48,.73,.97,1.2,1.3,.56,.39,1.08-.13,1.63-.25,1.38-.32,2.81-.47,4.23-.55,.4-.02,.82,.42,1.73,.92-.85,.63-1.49,1.05-2.05,1.54-1.8,1.56-1.93,2.28-1.1,4.34,.7,1.73,1.31,3.5,2.02,5.41-1.41,.03-2.42-.5-3.42-1.09-4.08-2.4-3.71-1.84-6.49,1.07-.68,.71-1.32,1.45-1.99,2.17l-.47-.3Z"/>
      <path class="cls-1" d="M16.31,129.11c.18,1.92-.61,4.1,1.95,4.82-.07,.15-.1,.34-.21,.39q-2.66,1.43-2.74,4.58c-.01,.5,0,.99,0,1.81-.61-.39-1.01-.54-1.23-.82-1.83-2.26-1.88-2.29-4.63-1.47-.15,.05-.33,0-.64,0,.23-.98,.71-1.99,.61-2.93-.11-1.03-.75-2.01-1.22-3.16,.43-.02,.96-.21,1.31-.04,1.99,1,3.34-.25,4.73-1.29,.68-.51,1.26-1.14,2.08-1.9Z"/>
      <path class="cls-5" d="M81.48,94.27c-1.79-1.58-1.39-3.56-1.42-5.12,1.51-1.53,2.79-2.84,4.19-4.26,2.87,2.8,6.16,1.76,9.58,.34v3.81c-.38,0-.68,.09-.87-.01-1.71-.99-3.24-.27-4.78,.43-.45,.2-.88,.62-1.33,.63-2.8,.08-4.58,1.44-5.38,4.19Z"/>
      <path class="cls-8" d="M82.82,74.18c1.14-.29,1.69,.4,2.11,1.47,.83,2.07,.09,3.88-1.98,4.58-.15,.05-.32,.09-.48,.1-1.58,.08-3.86-1.92-3.9-3.51-.01-.44,.17-1.13,.48-1.3,1.14-.61,2.2-1.54,3.77-1.33Z"/>
      <path class="cls-8" d="M84.99,96.26c-1.06-2.39-.5-3.44,1.83-3.54,1.04-.04,1.86-.18,2.74-.92,1.25-1.05,1.66-.87,2.95,.38-1.79,2.57-4.62,3.23-7.52,4.08Z"/>
      <path class="cls-6" d="M14.7,16.83s-.65,1.9-1.29,1.26c-.71-.72,.76-1.3,1.29-1.26Z"/>
    </g>
  </g>
</svg>