<?xml version="1.0" encoding="UTF-8"?>
<svg id="_レイヤー_2" data-name="レイヤー 2" xmlns="http://www.w3.org/2000/svg" viewBox="0 0 188.95 157.74">
  <defs>
    <style>
      .cls-1 {
        fill: #fff;
      }

      .cls-2 {
        fill: #fa50c1;
      }

      .cls-3 {
        fill: #4ff9f3;
      }

      .cls-4 {
        fill: #8f4425;
      }

      .cls-5 {
        fill: #d70755;
      }

      .cls-6 {
        fill: #0a0607;
      }

      .cls-7 {
        fill: #de7907;
      }

      .cls-8 {
        fill: #f8f5f7;
      }

      .cls-9 {
        fill: #faa2ad;
      }

      .cls-10 {
        fill: #ef9aa4;
      }

      .cls-11 {
        fill: #f7f3ee;
      }

      .cls-12 {
        fill: #0b0a09;
      }

      .cls-13 {
        fill: #79de06;
      }

      .cls-14 {
        fill: #fbef51;
      }

      .cls-15 {
        fill: #231815;
      }

      .cls-16 {
        fill: #b886f8;
      }

      .cls-17 {
        fill: #f03c3c;
      }
    </style>
  </defs>
  <g id="design">
    <g>
      <path class="cls-12" d="M101.01,21.78c5.19,.22,5.38,.45,5.24,5.48-.02,.54,.06,1.08,.15,1.61,.06,.33,.15,.84,.37,.92,.59,.23,.64-.45,.83-.76,3.02-4.89,13.12-5.63,15.9,.11,.99,2.03,1.1,4.13,1.29,6.27,.05,.57-.54,1.68,.66,1.59,1.03-.08,.69-1.13,.61-1.77-.19-1.69-.58-3.36-.77-5.05-.33-2.93,.33-3.7,3.3-3.94,1.6-.13,3.86,.58,4.62-.61,.9-1.39-1.21-2.66-1.92-4.03-2.39-4.65-2.95-9.12,.54-13.6,2.05-2.62,4.63-3.8,7.74-3.39,3.61,.47,5.91,2.95,7.3,6.15,1.66,3.83,.73,7.79,.27,11.72-.09,.72-1.62,1.9,.51,2.09,1.38,.12,2.7,.27,2.73-1.82,.05-3.28,.65-6.47,2.63-9.19,2.72-3.75,6.45-5.71,11.1-5.46,4.11,.23,6.72,5.37,5.59,10.32-.83,3.65-2.87,6.33-5.99,8.28-.43,.27-1.19,.45-.98,1.03,.12,.34,.89,.52,1.4,.62,.52,.1,1.08,0,1.62,.02,2.74,.04,3.68,1.47,2.66,4.07-.19,.5-.52,.95-.69,1.46-.79,2.25-2,4.3,.05,6.8,1.74,2.13,2.18,4.9,.16,7.43-.18,.23-.62,.59-.2,.91,.63,.48,.91-.16,1.25-.52,2.44-2.6,5.46-3.34,8.87-2.71,2.7,.5,4.43,2.35,4.93,4.81,.55,2.73,.42,5.6-2.08,7.68-1.92,1.6-4.21,2.38-6.54,3.08-.41,.12-1.02,.02-1.06,.6-.04,.56,.62,.53,.96,.76,2.8,1.89,3,3.62,.32,5.75-3.3,2.62-6.44,5.46-10.28,7.39-3.38,1.71-6.24,4.26-9.29,6.49-.56,.41-1.16,.76-.91,1.73,.69,2.62,.07,5.16-.59,7.7-.29,1.09-.8,2.22,1.39,1.64,1.57-.41,2.68,1.25,3.92,2.09,1.24,.84,1.66,.71,1.62-.85-.11-4,.91-7.43,4.64-9.67,2.7-1.62,6.45-1.97,8.13-.48,2.13,1.89,3.08,7,1.76,9.54-.8,1.53-1.8,2.9-3.11,4.04-.36,.32-1.18,.52-.94,1.04,.23,.5,.89,.92,1.46,1.12,.92,.33,.93-.58,1.15-1.11,1.22-2.92,3.16-5.2,5.89-6.83,2.59-1.55,6.33-1.51,7.76,.18,2.39,2.82,2.65,7.91,.52,10.24-1.57,1.71-3.39,2.83-7.07,4.32,.3,.77,1.1,.85,1.68,1.22,2.26,1.44,2.68,3.47,.83,5.38-5.16,5.29-9.96,10.89-14.58,16.65-1.81,2.26-3.78,1.52-5.75,.33-3.15-1.91-6.28-3.86-9.43-5.77-.44-.26-1.2-.65-1.42-.47-.44,.35-.08,.98,.1,1.49,.21,.59,.36,1.2,.52,1.81,1.24,4.72-.98,8.13-5.7,9.21-6.47,1.48-12.85,3.33-19.46,4.18-.95,.12-1.95,.52-2.76,1.04-7.71,4.93-16.72,6.41-25.14,9.43-3.7,1.32-8.08,.42-11.45,2.72-6.56,4.46-13.71,3.64-20.89,2.85-2.99-.33-5.94-.18-8.89,.18-5.3,.66-10.53,.44-15.77-.67-5.28-1.12-10.67-1.24-16.05-1.2-1.71,.01-3.37-.05-5.07-.17-2.32-.17-3.09-1.27-2.99-3.21,.24-4.91-1.2-9.67-.43-14.73,.69-4.51-.71-9.29-.7-13.96,.01-7.31-1.18-14.62,.09-21.93,.28-1.61-.49-3.01-1.53-4.14-3.2-3.48-5.05-8.08-9.34-10.69-1.42-.87-1.64-2.62,.38-3.62,1.52-.76,3.04-1.54,4.61-2.18,1.19-.48,1.31-.95,.38-1.84-1.46-1.39-2.32-3.18-3.18-4.97-.89-1.88-2.01-3.57-3.65-4.95-1.01-.85-1.86-1.98-2.57-3.11-2.32-3.7-1.82-5.92,1.77-8.37,.59-.41,1.18-.83,1.79-1.21,3.18-1.92,3.31-2.08,.25-4.42-3.19-2.43-4.99-5.51-5.87-9.35-.88-3.84,1.53-8.26,5.26-9.28,7.04-1.91,10.87,.3,12.76,7.4,.28,1.04,.36,2.15,.76,3.13,.29,.71-.44,1.9,.57,2.07,.83,.14,1.6-.7,2.29-1.29,.92-.79,.54-1.63,.03-2.38-1.65-2.47-3.48-4.89-3.78-7.95-.48-4.92,2.32-8.34,5.78-11.2,2.85-2.36,6.27-2.4,9.38-.66,3.73,2.1,6.08,5.29,5.84,9.89-.1,1.82-.61,3.52-1.31,5.19-.14,.35-.73,1.38,.16,1.1,2.13-.67,4.54,.6,6.48-1.07,1.38-1.18,2.99-2.01,4.67-2.66,5.75-2.22,11.51,1.34,11.98,7.52,.21,2.76,.4,5.61-1.13,8.16-.49,.82-.53,1.72-.48,2.61,.04,.66-.36,1.68,.51,1.87,.93,.2,2.07,.18,2.91-.19,.86-.38,.41-1.44,.16-2.14-.5-1.4-.55-2.78-.33-4.23,.73-4.9-1.23-9.36-2.38-13.95-.02-.09-.1-.16-.11-.24-1.51-7.35-2.3-6.62,4.32-8.36,3.45-.91,3.61-1.92,.97-4.86-3.38-3.77-4.22-11.43-1.83-15.4,2.14-3.55,5.4-4.95,9.3-4.89,3.67,.05,5.58,2.52,7.34,5.5,2.57,4.37,3.19,8.68,1.13,13.34-.29,.65-.72,1.64,.16,1.84,1.18,.28,2.52,.19,3.73-.06,.76-.16,.5-1.14,.23-1.63-1.58-2.88-.73-6-.96-9-.58-7.51,8.99-12.77,15.16-10.01,2.84,1.27,3.91,4.08,4.68,6.89,1.42,5.14,.29,9.76-3.43,14.15Zm71.37,71.52c.74-.74,.9-1.62,.62-2.61-.75-4.45-1.82-5.37-5.17-4.44-2.68,.75-4.72,3.25-4.92,6.06-.1,1.35-.28,2.7-.23,4.04,.08,2.44-1.42,2.67-3.19,2.3-.83-.17-1.6-.78-2.34-1.28-2.47-1.68-3.72-1.08-3.97,1.98-.32,4.03-.76,8.04-.8,12.1-.02,1.9,1.7,2.94,1.34,4.75-.08,.43,.75,.46,1.06,.12,.66-.74,1.84-1.1,1.49-2.58-.41-1.68,.22-3.21,2.09-3.37,1.52-.13,3.03,.38,3.52,2.25,.49,1.9,.01,3.24-2.02,3.65-1.53,.31-1.62,1.3-1.16,2.4,.48,1.15,1.44,1.65,2.63,.96,.73-.42,1.48-1.07,1.95,.08,.36,.89-.37,1.46-1.14,1.87-1.33,.73-3.02,.83-3.73-.31-1.45-2.34-3.44-3.06-5.93-3.14-.14,0-.25-.26-.4-.34-.27-.14-.57-.04-.55,.26,.07,1.39-.88,2.95,1.16,3.94,3.72,1.81,7.33,3.85,10.66,6.32,1.79,1.33,2.91,1.02,4.22-.71,3.53-4.66,7.43-9.03,11.44-13.28,2.91-3.09,2.96-3.03-.37-5.29-.81-.55-1.73-1.06-1.63-2.27,.1-1.29,1.24-1.45,2.12-1.77,2.29-.84,4.53-1.75,6.29-3.53,1.77-1.79,1.89-4.75-.01-6.87-1.65-1.83-3.52-1.05-5.31,.09-1.88,1.2-3.26,2.76-4.2,4.79-2.09,4.5-2.12,4.49-6.22,2.02-.31-.19-.62-.36-.95-.5-2.18-.95-1.83-2.2-.31-3.4,1.56-1.24,3.17-2.39,3.99-4.3Zm-36.08-28.75c.09-3.15,1.29-6.12,1.36-9.31,.03-1.39-.07-3.25,1.25-4.27,1.01-.79,1.5-1.38,.71-2.56-.25-.37-.2-.88,.15-1.26,.3-.33,.64-.17,.96,0,.67,.35,.88,1.84,2.11,.84,1.23-.99,.07-1.74-.21-2.58-.58-1.69-.58-3.24,1.29-4.12,1.41-.66,2.93-.8,3.79,.77,.91,1.67,.94,3.33-1.21,4.23-.54,.23-1.01,.48-.74,1.17,.25,.64,.72,.96,1.46,.95,1.15-.02,1.83-.61,2.25-1.61,.23-.56,.7-.92,1.27-.61,.57,.31,.4,.96,.26,1.47-.44,1.57-1.85,2.05-3.41,2.79,1.53,.33,2.87,2.19,3.95-.09,1.04-2.18,1.96-4.45,2.67-6.75,1.27-4.08,2.68-5.22,6.92-5.23,.96,0,2.31,.23,2.72-.63,.96-2.01,2.06-4.18,2.11-6.31,.03-1.54-2.51-.38-3.61-1.33-.33-.28-.8-.4-1.2-.59-1.23-.58-3.52,.56-3.72-1.24-.2-1.78,2.19-2.1,3.48-2.91,2.91-1.82,5.52-3.81,6.2-7.4,.47-2.48,.39-4.96-1.89-6.61-1.96-1.42-3.91-.46-5.85,.37-4.03,1.74-5.67,5.06-6.17,9.12-.93,7.6-.07,6.3-7.33,6.49-1.97,.05-2.63-.6-2.06-2.56,1-3.48,1.54-7.03,1.24-10.66-.24-2.94-1.86-4.98-4.36-6.39-1.89-1.07-3.73-.54-5.35,.5-2.74,1.77-3.82,5.91-2.89,9.16,.86,3,3.23,5.17,4.08,8.18,.52,1.84-.06,2.54-1.76,2.71-1.61,.16-3.24,.44-4.84,.37-2.09-.09-2.46,.93-2.13,2.65,.14,.71,.43,1.41,.43,2.12,.01,1.66,.86,1.76,2.34,2.03,2.8,.51,4.7-1.01,6.95-1.97,.92-.39,2.49-1.99,3.12-.44,.61,1.5-1.52,1.55-2.56,2.06-1.59,.78-2.73,1.09-1.37,3.57,3.57,6.52,2.48,11.91-5,14.53-.18,.06-.33,.24-.58,.44,.51,.32,.88,.58,1.27,.8,3.5,1.9,3.88,3.37,1.85,6.77-.64,1.07-1.07,2.26-1.6,3.39-.27,.65-1.13,1.99-.64,1.84,1.46-.44,3.56,.17,4.33-1.88Zm-79.54,8.21c2.98-3.05,5.83-6.27,10.93-7.33-1.02-.37-1.32-.53-1.65-.59-.82-.14-2.13,.26-2.02-1.1,.1-1.24,1.35-1.26,2.35-1.25,.53,0,1.09,.06,1.6,.23,3.26,1.09,6.55,2.09,9.72,3.4,1.55,.64,1.81,.36,1.85-1.16,.04-1.66,1.46-3.76,.52-4.81-.92-1.03-3.19-.75-4.91-.64-.18,.01-.37,.03-.54,0-.81-.17-1.19-.78-1.42-1.48-.26-.79,0-1.5,.73-1.83,2.96-1.37,4.45-4.1,6.24-6.58,1.9-2.64,1.45-5.56,.7-8.3-.5-1.82-1.91-3.06-4.29-2.9-3.03,.2-5.5,1.56-7.96,3.07-1.58,.97-2.43,2.25-3.06,4.13-1.05,3.13-.54,5.98,.13,8.98,.54,2.42-.2,3.22-2.62,2.94-1.11-.13-2.23-.19-3.2,.2-2.05,.83-2.44-.41-2.52-1.89-.13-2.51-.31-5.02,.99-7.39,.89-1.62,.89-3.49,.63-5.28-.6-4.07-4.07-7.36-7.49-6.56-4.7,1.11-8.3,3.63-7.65,8.77,.52,4.08,.68,8.15,4.09,11.35,1.87,1.76,.85,3.89-1.74,4.53-1.74,.43-3.51,.78-5.27,1.09-1.11,.19-1.3,.65-1.31,1.81-.02,2.8,1.87,3.93,3.87,4.96,4.08,2.1,5.95,5.65,5.62,9.94-.39,5.06-.87,10.18-3.1,14.91-1.93,4.08-.81,5.95,3.47,5.85,1.43-.03,2.85-.41,4.28-.45,1.37-.04,1.29-.63,1.12-1.71-.38-2.49-.28-5.07-.9-7.49-.67-2.63,.08-5.44-1.13-7.89-1.05-2.13-1.2-2.03,.9-3.28,.25-.15,.39-.6,.46-.93,.35-1.71,1.52-3.04,2.13-4.63,.14-.22,.29-.44,.43-.67Zm32.53-22.66c.06,.22,.15,.65,.17,.64,.47-.08,.26-.43,.24-.7,.56-5.41,2.97-7.3,8.21-6.42,1.51,.25,3.02,.5,4.5,.87,1.5,.37,2.05-.29,1.98-1.64-.22-4.22,.52-8.48-.36-12.67-.41-1.94,.79-4.69-.59-5.62-1.27-.85-3.78,.15-5.74,.38-1.06,.12-2.08,.07-2.44-1.1-.32-1.03,.38-1.64,1.2-2.16,4.49-2.87,6.02-7.09,5.83-12.25-.16-4.25-2.71-7.21-6.58-7.22-4.02-.02-8.27,3.63-8.53,7.14-.31,4.17,.29,8.22,1.36,12.22,.5,1.87-.03,3.03-2.15,3.04-1.99,.01-3.97-.05-5.95,.02-1.27,.05-1.72-.56-1.95-1.7-.49-2.42,.24-4.59,1.02-6.83,1.34-3.87-.69-9.67-4-12.02-.71-.51-1.44-.66-2.28-.64-2.94,.05-5.56,.68-6.95,3.66-1.78,3.8-1.55,7.64,.66,11.02,1.19,1.81,2.18,3.68,3.24,5.54,1.02,1.78,.44,2.86-1.31,3.5-1.68,.62-3.36,1.36-5.11,1.67-1.55,.27-1.57,.75-1.25,2.13,.64,2.71,1.3,5.39,2.28,8,.32,.86,.29,1.25,1.26,.54,1.84-1.35,3.92-2.25,5.5-4.09,1.29-1.51,3.15-2.66,5.09-3.47,.71-.3,1.43-.53,1.88,.32,.44,.85-.1,1.26-.82,1.66-.58,.32-1.42,.37-1.72,1.59,4.18-.99,6.22,1.56,7.74,4.68,.45,.93,1.11,.75,1.74,.88,2.12,.43,3.01,1.88,3.12,3.85,.11,1.78-.9,2.86-2.57,3.33-.65,.19-1.66,.08-1.12,1.22,.38,.79,1.11,1.22,2.01,.74,.81-.44,1.55-1.04,2.38-.07ZM19.32,87.85c-1.47,1.37-2.64,1.19-3.53-.66-.27-.56-.77-1.04-.95-1.62-.88-2.83-2.58-2.21-4.48-1.2-.92,.49-.82,.69-.11,1.44,3.76,4.05,7.3,8.31,9.53,13.44,.39,.9,.84,1.34,1.71,1.34,1.62,0,3.23-.08,4.85-.12,.95-.02,1.32-.28,.74-1.27-1.03-1.74-1.5-3.72-2.99-5.31-1.55-1.66-2.81-3.7-3.43-5.99-.25-1.86-.41-3.74-.77-5.58-1.23-6.36-1.05-12.14,5.99-15.21,1.39-.61,.74-1.47,.55-2.4-.39-1.85,.94-3.55,2.85-3.82,1.79-.25,3.83,1.2,3.86,2.94,.02,1.07-.5,2.11,1.35,1.93,1.34-.13,2.69,.24,2.68-1.89-.01-2.76,1.69-3.93,4.3-4.12,1.16-.09,2.31-.36,3.45-.63,.85-.2,1.42-.76,.56-1.48-3.66-3.08-3.41-7.54-4.21-11.62-.29-1.48,.24-3.65-.58-4.36-.95-.82-2.81,.47-4.3,.75-.7,.13-1.46,.21-2-.46-.52-.65-.36-1.28-.05-2,.74-1.72,1.5-3.45,2.04-5.24,1.08-3.54,.04-6.47-2.66-8.98-2.17-2.02-4.43-2.04-6.94-.88-5.22,2.43-7,8.82-3.74,13.54,3.93,5.7,3.43,7.6-2.82,10.8-.16,.08-.31,.18-.47,.26-2.75,1.32-4.1,.6-3.77-2.4,.29-2.65-.6-4.95-1.23-7.35-.64-2.44-2.57-4.08-4.8-4.13-2.38-.05-5.05,.38-6.82,2.57-.44,.54-.46,1.13-.5,1.77-.19,3.22,.77,6.01,3.08,8.3,1.73,1.71,3.51,3.36,5.21,5.1,.9,.93,1.1,1.65-.1,2.89-1.54,1.6-3.32,2.78-5.14,3.86-1.96,1.16-1.82,2.46-.92,4,.58,1,1.29,2,2.16,2.74,2.05,1.74,3.42,3.9,4.52,6.3,.56,1.23,1.3,2.34,2.12,3.43,2.59,3.43,3.74,7.61,5.79,11.32Zm66.23-6.62c-1.15,2.02-1.94,4.39-3.52,5.97-3.28,3.27-4.52,7.68-7.04,11.34-.41,.6-1.92,1.63-.21,2.58,1.63,.9,5.48,.45,5.77-.71,.63-2.54,2.3-4.41,3.77-6.44,2.83-3.91,5.23-8.1,7.61-12.3,1.13-1.4,2.07-2.93,2.57-4.66,.27-.93,.81-1.41,1.68-1.48,1.26-.1,2.76,.16,3.62-.76,1.21-1.29-.91-1.96-1.03-3.14-.09-.85-.33-1.72,.56-2.12,1.19-.52,1.16,.63,1.52,1.3,1.28,2.44,2.88,3.16,5.59,2.2,3-1.06,6.12-1.37,9.2-1.99,7.01-1.41,14.28-2.62,16.66-11.09,.07-.24,.34-.42,.47-.65,.64-1.14,.51-1.93-.82-2.54-1.63-.75-3.16-1.72-4.72-2.61-.75-.43-1.27-1.05-1.09-1.99,.18-.91,.97-.88,1.68-1.05,1.04-.25,2.08-.57,3.08-.95,5.55-2.1,6.34-4.29,3.88-9.76-.67-1.49-1.72-2.19-3.07-2.1-2.57,.16-4.89,.96-6.43,3.34-1.3,2-2.11,4.18-2.76,6.42-.47,1.61-1.43,2.32-2.98,1.94-1.65-.41-3.29-.95-4.83-1.67-1.46-.68-1.59-1.92-.5-3.07,.67-.71,1.52-1.28,2.37-1.78,4.18-2.46,6.12-6.64,5.2-11.32-.51-2.55-2.51-4.25-5.07-4.31-5.4-.12-8.05,2.39-9.04,8.25-.52,3.04-.27,6.1-.55,9.14-.2,2.15-1.33,2.99-3.5,2.52-1.93-.42-3.89-.71-5.84-1-4.89-.74-5.53-.26-6.18,4.62-.02,.18-.02,.36-.05,.54-1.18,7.26-2.67,14.44-5.72,21.19-.27,.6-.58,1.24-.3,1.8,1.05,2.12,.32,4.22,.06,6.33Zm-11.5,73.33s0-.03,0-.05c1.62,0,3.25-.05,4.87,.02,.94,.04,1.21-.2,1.23-1.18,.14-7.9,1.46-15.73,1.08-23.69-.19-3.86-1.27-7.78-.5-11.55,.81-3.96,.15-7.68-.34-11.5-.17-1.35-.68-2.07-2.23-1.98-2.09,.12-4.1-.51-6.1-1.04-1.64-.43-2.43-1.68-1.6-3.05,3.03-4.96,4.94-10.57,8.99-14.95,2.08-2.25,3.91-5.09,3.58-8.17-.61-5.56-5.61-9.58-11.21-9.75-8.91-.26-17.52,10.33-15.42,19.18,.84,3.54,.98,7.13,1.44,10.69,.24,1.87,1.09,4.04-1.79,4.87-.57,.16-.42,.99-.31,1.47,.57,2.56-.4,5-.47,7.47-.11,3.74-3.23,3-5.12,4.03-1.53,.84-2.79,.18-3.5-1.4-.38-.84-.97-.48-1.59-.38-3,.51-3.22,.09-3.51-2.98-.86-9.41,1.93-18.28,4.01-27.22,2.13-9.16-1.97-11.55-8.79-14.26-2.59-1.03-5.87-1.03-8.73,.22-4.04,1.76-6.19,4.53-5.5,9.28,.69,4.79,.45,9.88,4.11,13.62,2.19,2.25,2.72,5.19,4.12,7.76,.93,1.71,.14,2.88-1.83,3.28-2.33,.47-4.68,.4-7.01,.29-1.75-.09-2.46,.56-2.4,2.22,.21,6.15,.38,12.3,.65,18.45,.2,4.49,.78,8.97,.73,13.45-.02,2.19-.91,4.41-.33,6.65,.43,1.69,.45,3.39,.45,5.1,0,3.01,.68,3.68,3.59,3.18,2.26-.39,4.49-.13,6.74-.16,7.67-.11,15.07,2.5,22.78,2.14,2.62-.12,5.16-.82,7.79-.66,4.04,.24,8.08,.41,12.12,.62Zm9.2-5.24c0,.36,.05,.73,0,1.08-.37,2.33,.48,2.45,2.39,1.56,2.19-1.02,4.43-1.99,6.87-2.32,9.52-1.29,18.47-4.56,27.18-8.38,3.64-1.6,7.14-3.17,11.1-3.85,5.47-.94,10.86-2.36,16.3-3.53,1.1-.24,1.58-.9,2.08-1.85,1.12-2.12-.32-4-.33-6-.04-5.13,.27-10.19,.92-15.3,.97-7.63-.19-15.42,1.29-23.06,.12-.61,.01-1.26,.02-1.89,.01-1-.36-1.24-1.33-.86-8.16,3.27-16.97,4.46-25.07,7.95-4.17,1.8-8.89,1.66-13.02,3.33-8.59,3.47-17.92,4.39-26.44,8.1-1.72,.75-2.09,1.31-1.78,2.95,.55,2.9,1.49,5.84,.73,8.8-.65,2.52-.53,4.99-.16,7.49,.25,1.7,.28,3.38,.22,5.11-.22,6.89,.92,13.84-.97,20.66Zm2.12-48c.61-.24,1.87-.7,3.09-1.25,1.64-.74,3.18-1.79,4.99-2,5.41-.61,10.47-2.38,15.52-4.27,4.81-1.8,10.22-1.6,14.81-3.87,5.48-2.7,11.45-3.73,17.18-5.35,5.38-1.52,9.13-3.38,11.41-8.88,1.62-3.93,4.46-7.54,7.58-10.7,.48-.49,1.21-1.13,.71-1.84-.39-.55-1.18-.08-1.75,.07-4.75,1.25-9.43,2.65-14.31,3.52-8.1,1.45-16.21,3.18-23.87,6.42-.9,.38-1.91,.6-2.88,.66-6.8,.39-13.15,2.67-19.6,4.54-.82,.24-1.13,.83-1.49,1.43-3.86,6.48-7.66,12.99-12.2,19.04-.32,.43-.56,.92-.77,1.41-.39,.89-.2,1.4,1.59,1.07Zm67.82-20.66c6.2-4.85,13.39-8.13,19.26-13.32,1.71-1.51,1.95-2.39-.43-3.29-1.02-.38-2.38-.79-2.2-2.35,.18-1.6,1.57-1.73,2.76-2.13,1.87-.63,3.77-1.22,5.51-2.11,2.33-1.2,3.36-4.06,2.53-6.48-.87-2.53-2.83-3.28-5.32-3.19-3.63,.13-5.21,2.79-6.85,5.41q-3.16,5.06-8.62,2.81c-.67-.28-1.44-.38-1.44-1.33,0-.81,.43-1.18,1.16-1.57,1.9-1.04,3.57-2.4,5.06-4,1.7-1.82,2.29-3.79,1.39-6.15-.72-1.91-2.17-2.47-4.08-2.33-2.45,.18-4.68,.72-5.57,3.39-.94,2.79-1.87,5.59-2.68,8.43-.34,1.18-.62,1.72-2.13,1.53-2.51-.31-4.94-.77-7.26-1.78-2.1-.91-3.55-.57-4,1.99-.49,2.83-1.13,5.63-1.67,8.45-.26,1.4-.29,2.54,1.81,1.81,1.43-.5,2.99-.58,4.48-.93,.63-.15,1.6,.11,1.75-.87,.46-2.96,2.35-2.2,3.6-1.05,1.08,1,1.76,.87,2.76,.3,2.51-1.43,5.28-1.67,8.09-1.73,1.5-.03,2.31,.6,2.36,2.24,.05,1.78-.21,3.42-1.44,4.77-1.39,1.53-2.78,3.07-4.23,4.54-2.48,2.5-3.41,5.76-4.6,8.96Zm-75.33-23.69c4.82,.21,5.47,1.06,4.57,5.48-.13,.62-.17,1.26-.37,1.85-.68,1.99-.55,3.83,.73,5.57,.36,.49,.42,1.39,1.13,1.36,.84-.04,.97-.95,1.07-1.61,.8-5.33,3.31-10.23,3.97-15.6,.17-1.38,1.12-3.19-1.6-1.61-.68,.39-1.57,.38-2.06-.09-2.95-2.86-3.74-.27-4.92,1.77-.57,.98-1.49,1.75-2.5,2.9Zm-33.45,49.43c.02,2.91,.02,2.89,2.68,3.37,.75,.14,1.26,.64,1.59,1.33,.31,.66,.59,1.35,1.58,.95,.82-.33,1.78-.42,1.99-1.53,.23-1.23,.6-2.45,.69-3.68,.27-4.04,.23-4.05-3.69-3.9-.45,.02-.9,0-1.35,0q-3.51,.01-3.49,3.44Zm123.19-55.88c-.15-.29-.32-.68-.36-.67-.31,.1-.66,.22-.89,.44-1.11,1.02-2.22,2.05-3.24,3.15-.32,.34-1.59,.41-.74,1.21,.48,.45,1.59,1.16,2.12,.53,1.19-1.41,2.07-3.07,3.1-4.67Zm-83.3-5.88c.29,.5-.26,1.55,.94,1.53,.86,0,1.33-.54,1.22-1.41-.1-.77-.58-1.36-1.36-1.48-1.19-.18-.55,.81-.79,1.35Zm60.72,.2c.59-.12,1.31-.14,1.36-.98,.04-.75-.36-1.21-1.14-1.13-.64,.07-1.24,.32-1.26,1.13-.01,.68,.41,.93,1.03,.98ZM29.78,63c-.7-.05-1.37,.21-1.43,.88-.09,.94,.85,1.06,1.49,1.18,.71,.13,1.24-.41,1.26-1.07,.02-.76-.69-.91-1.32-.99Zm129.58,51.33c.41-.19,.77-.46,.59-.99-.18-.53-.58-.94-1.14-.92-.48,.02-.8,.39-.55,.92,.22,.46,.41,1,1.1,.99ZM120.14,45.79c.03-.42-.16-.71-.58-.49-.37,.19-.74,.51-.94,.86-.22,.4,.14,.61,.52,.63,.67,.03,.88-.44,1-1Z"/>
      <path class="cls-9" d="M74.06,154.56c-4.04-.2-8.09-.38-12.12-.62-2.63-.16-5.17,.54-7.79,.66-7.71,.36-15.11-2.24-22.78-2.14-2.25,.03-4.48-.22-6.74,.16-2.91,.5-3.59-.18-3.59-3.18,0-1.71-.01-3.41-.45-5.1-.57-2.23,.31-4.45,.33-6.65,.05-4.48-.53-8.96-.73-13.45-.28-6.15-.44-12.3-.65-18.45-.06-1.66,.65-2.31,2.4-2.22,2.33,.12,4.68,.18,7.01-.29,1.98-.4,2.76-1.57,1.83-3.28-1.4-2.56-1.92-5.5-4.12-7.76-3.66-3.75-3.42-8.84-4.11-13.62-.69-4.75,1.46-7.52,5.5-9.28,2.86-1.25,6.14-1.25,8.73-.22,6.81,2.72,10.92,5.1,8.79,14.26-2.08,8.94-4.88,17.8-4.01,27.22,.28,3.07,.51,3.49,3.51,2.98,.62-.11,1.21-.47,1.59,.38,.72,1.58,1.98,2.24,3.5,1.4,1.88-1.04,5.01-.3,5.12-4.03,.07-2.47,1.04-4.91,.47-7.47-.11-.48-.26-1.3,.31-1.47,2.88-.82,2.03-2.99,1.79-4.87-.45-3.56-.6-7.15-1.44-10.69-2.1-8.86,6.51-19.45,15.42-19.18,5.6,.17,10.6,4.19,11.21,9.75,.34,3.08-1.5,5.92-3.58,8.17-4.05,4.38-5.96,10-8.99,14.95-.84,1.37-.05,2.62,1.6,3.05,2,.52,4.01,1.16,6.1,1.04,1.55-.09,2.05,.63,2.23,1.98,.49,3.82,1.16,7.54,.34,11.5-.77,3.77,.31,7.7,.5,11.55,.38,7.96-.94,15.79-1.08,23.69-.02,.98-.29,1.23-1.23,1.18-1.62-.07-3.25-.02-4.87-.02,0,.02,0,.03,0,.05Z"/>
      <path class="cls-9" d="M83.26,149.31c1.89-6.82,.74-13.77,.97-20.66,.06-1.72,.03-3.41-.22-5.11-.37-2.5-.49-4.97,.16-7.49,.76-2.96-.18-5.9-.73-8.8-.31-1.65,.07-2.21,1.78-2.95,8.52-3.71,17.85-4.64,26.44-8.1,4.14-1.67,8.85-1.54,13.02-3.33,8.09-3.49,16.91-4.68,25.07-7.95,.96-.39,1.34-.14,1.33,.86,0,.63,.1,1.28-.02,1.89-1.48,7.64-.31,15.44-1.29,23.06-.65,5.11-.96,10.17-.92,15.3,.01,2,1.46,3.88,.33,6-.5,.95-.98,1.61-2.08,1.85-5.44,1.17-10.83,2.59-16.3,3.53-3.97,.68-7.46,2.25-11.1,3.85-8.7,3.82-17.65,7.1-27.18,8.38-2.44,.33-4.69,1.3-6.87,2.32-1.91,.89-2.76,.77-2.39-1.56,.06-.35,0-.72,0-1.08Z"/>
      <path class="cls-7" d="M85.56,81.23c.26-2.11,.99-4.21-.06-6.33-.28-.56,.03-1.2,.3-1.8,3.05-6.75,4.55-13.93,5.72-21.19,.03-.18,.03-.36,.05-.54,.65-4.87,1.28-5.36,6.18-4.62,1.95,.29,3.91,.59,5.84,1,2.17,.47,3.3-.38,3.5-2.52,.28-3.04,.04-6.1,.55-9.14,1-5.85,3.64-8.36,9.04-8.25,2.56,.06,4.57,1.76,5.07,4.31,.93,4.68-1.01,8.86-5.2,11.32-.85,.5-1.7,1.07-2.37,1.78-1.09,1.15-.96,2.39,.5,3.07,1.54,.72,3.18,1.25,4.83,1.67,1.55,.39,2.51-.33,2.98-1.94,.65-2.24,1.46-4.42,2.76-6.42,1.54-2.38,3.86-3.18,6.43-3.34,1.35-.08,2.4,.61,3.07,2.1,2.46,5.47,1.67,7.66-3.88,9.76-1,.38-2.04,.7-3.08,.95-.7,.17-1.5,.14-1.68,1.05-.18,.93,.34,1.55,1.09,1.99,1.56,.9,3.09,1.86,4.72,2.61,1.33,.61,1.46,1.4,.82,2.54-.13,.23-.41,.41-.47,.65-2.37,8.46-9.64,9.68-16.66,11.09-3.08,.62-6.2,.94-9.2,1.99-2.71,.95-4.31,.24-5.59-2.2-.35-.67-.33-1.83-1.52-1.3-.9,.4-.65,1.27-.56,2.12,.12,1.18,2.24,1.85,1.03,3.14-.86,.91-2.36,.65-3.62,.76-.87,.07-1.41,.55-1.68,1.48-.5,1.73-1.44,3.25-2.57,4.65-2.14,.12-4.28,.2-6.37-.44Zm26.14-13.34c-.09-2.9-1.4-4.3-3.6-4.1-1.92,.17-3.36,1.04-3.09,3.22,.22,1.8,.3,3.9,3.15,3.62,2.03-.2,3.42-.91,3.55-2.74Zm-3.78-14.16c-.23-.33-.35-.73-.61-.86-.52-.27-1.07-.11-1.47,.3-2.11,2.18-4.72,3.46-7.54,4.42-.63,.22-1.15,.66-.78,1.41,.34,.69,.96,.63,1.62,.45,3.08-.83,5.82-2.24,8.03-4.58,.29-.31,.48-.72,.76-1.15Zm8.97,5.03c.41,2.24,1.3,4.09,2.78,5.61,.57,.59,1.14,1.72,2.18,.84,1.01-.85,.11-1.59-.43-2.28-1.33-1.7-2.81-3.32-1.89-5.78,.22-.58,.22-1.34-.59-1.56-.77-.21-1.17,.38-1.4,.97-.29,.75-.46,1.54-.65,2.2Zm-9.8,2.13c-.35-.81-.76-1.73-2-1.63-1.08,.08-1.99,.63-2.03,1.76-.06,1.49,1.24,1.6,2.28,1.66,1.02,.06,1.64-.58,1.75-1.79Zm7.91,4.38c.95,.07,1.81,.04,1.93-1.23,.11-1.22-.51-1.88-1.63-2.03-1.12-.15-1.98,.35-2.14,1.52-.19,1.33,.75,1.66,1.85,1.75Z"/>
      <path class="cls-9" d="M85.38,101.32c-1.79,.33-1.98-.18-1.59-1.07,.21-.49,.45-.99,.77-1.41,4.54-6.04,8.34-12.56,12.2-19.04,.36-.6,.66-1.2,1.49-1.43,6.45-1.87,12.8-4.16,19.6-4.54,.97-.06,1.99-.28,2.88-.66,7.66-3.24,15.77-4.97,23.87-6.42,4.89-.87,9.56-2.27,14.31-3.52,.57-.15,1.36-.62,1.75-.07,.5,.71-.23,1.36-.71,1.84-3.11,3.16-5.96,6.77-7.58,10.7-2.27,5.5-6.02,7.36-11.41,8.88-5.73,1.62-11.7,2.65-17.18,5.35-4.6,2.27-10,2.07-14.81,3.87-5.05,1.89-10.12,3.66-15.52,4.27-1.81,.2-3.35,1.26-4.99,2-1.22,.55-2.49,1.01-3.09,1.25Z"/>
      <path class="cls-2" d="M19.32,87.85c-2.04-3.72-3.2-7.9-5.79-11.32-.82-1.09-1.56-2.2-2.12-3.43-1.09-2.4-2.46-4.57-4.52-6.3-.87-.74-1.58-1.74-2.16-2.74-.9-1.54-1.04-2.84,.92-4,1.82-1.07,3.6-2.26,5.14-3.86,1.19-1.24,1-1.96,.1-2.89-1.69-1.74-3.48-3.39-5.21-5.1-2.31-2.29-3.28-5.08-3.08-8.3,.04-.63,.06-1.22,.5-1.77,1.78-2.19,4.44-2.62,6.82-2.57,2.23,.04,4.16,1.69,4.8,4.13,.63,2.4,1.52,4.7,1.23,7.35-.33,3,1.02,3.71,3.77,2.4,.16-.08,.31-.17,.47-.26,6.25-3.2,6.75-5.11,2.82-10.8-3.26-4.72-1.48-11.11,3.74-13.54,2.51-1.17,4.77-1.15,6.94,.88,2.7,2.51,3.75,5.44,2.66,8.98-.55,1.79-1.3,3.52-2.04,5.24-.31,.72-.47,1.36,.05,2,.54,.67,1.3,.59,2,.46,1.49-.28,3.35-1.58,4.3-.75,.83,.72,.29,2.88,.58,4.36,.8,4.08,.55,8.55,4.21,11.62,.86,.72,.29,1.29-.56,1.48-1.14,.26-2.29,.54-3.45,.63-2.61,.19-4.31,1.36-4.3,4.12,.01,2.14-1.34,1.76-2.68,1.89-1.85,.18-1.33-.86-1.35-1.93-.03-1.74-2.07-3.19-3.86-2.94-1.91,.27-3.24,1.97-2.85,3.82,.2,.93,.85,1.79-.55,2.4-7.04,3.07-7.22,8.85-5.99,15.21,.36,1.84,.52,3.72,.77,5.58-.44-.02-.89-.03-1.33-.05Zm17.3-40.53c-.14,.02-.23,.02-.32,.04-1.72,.24-6.32,6.41-6.08,8.2,.04,.31,.22,.72,.47,.86,.45,.25,.95,.02,1.12-.43,1.11-2.85,3.2-4.95,5.28-7.08,.53-.54,.56-1.35-.47-1.59Zm-17.37,10.8c-1.57-.14-3.11,.33-4.61,.92-.6,.24-1.23,.56-.91,1.36,.25,.63,.9,.57,1.4,.45,2-.51,3.99-1.01,6.06-1.1,.49-.02,.85-.28,.84-.83,0-.55-.41-.73-.85-.9-.63-.26-1.24-.06-1.93,.1Zm16.27-2.63c-1.47,.29-2.28,1.25-2.33,2.61-.04,1.19,.96,1.65,2.04,1.69,1.33,.04,1.96-.77,2.06-1.99,.11-1.28-.64-1.97-1.77-2.3Zm-11.69,8.8c-.14-1.44-.84-2.02-2.16-1.91-1.15,.09-2.21,.38-2.28,1.74-.06,1.31,1.04,2.01,2.04,2.04,1.1,.03,2.26-.52,2.4-1.86Z"/>
      <path class="cls-14" d="M89.28,50.1c-.83-.97-1.57-.37-2.38,.07-.89,.48-1.63,.06-2.01-.74-.54-1.14,.46-1.04,1.12-1.22,1.67-.47,2.67-1.55,2.57-3.33-.12-1.97-1.01-3.42-3.12-3.85-.63-.13-1.29,.05-1.74-.88-1.53-3.12-3.56-5.66-7.74-4.68,.3-1.22,1.14-1.27,1.72-1.59,.71-.4,1.26-.81,.82-1.66-.44-.85-1.17-.61-1.88-.32-1.94,.82-3.8,1.97-5.09,3.47-1.58,1.85-3.67,2.74-5.5,4.09-.97,.72-.94,.33-1.26-.54-.98-2.61-1.65-5.29-2.28-8-.32-1.38-.3-1.86,1.25-2.13,1.75-.31,3.42-1.05,5.11-1.67,1.76-.64,2.34-1.72,1.31-3.5-1.07-1.86-2.06-3.73-3.24-5.54-2.21-3.38-2.44-7.22-.66-11.02,1.4-2.98,4.01-3.61,6.95-3.66,.83-.01,1.56,.14,2.28,.64,3.31,2.35,5.34,8.15,4,12.02-.77,2.23-1.51,4.41-1.02,6.83,.23,1.14,.68,1.75,1.95,1.7,1.98-.07,3.97,0,5.95-.02,2.11-.02,2.65-1.17,2.15-3.04-1.07-4-1.68-8.05-1.36-12.22,.26-3.51,4.51-7.15,8.53-7.14,3.87,.01,6.42,2.98,6.58,7.22,.2,5.16-1.34,9.38-5.83,12.25-.82,.52-1.52,1.14-1.2,2.16,.37,1.18,1.38,1.23,2.44,1.1,1.96-.23,4.48-1.22,5.74-.38,1.38,.92,.18,3.68,.59,5.62,.89,4.19,.15,8.45,.36,12.67,.07,1.35-.47,2.02-1.98,1.64-1.48-.37-2.99-.62-4.5-.87-5.24-.87-7.65,1.02-8.21,6.42-.14-.01-.28,0-.42,.06Zm6.01-14.46c-.6-1.64-2.13-2.44-3.49-3.39-1.06-.74-2.33-1.11-3.54-.58-.91,.4-.66,1.44,.08,1.62,2.09,.52,3.57,1.87,5.16,3.14,.7,.56,1.53,.5,1.79-.79Zm-5.97,4.75c.99-.19,2.15-.29,2.05-1.65-.09-1.25-1.06-1.94-2.21-1.96-1.22-.01-1.6,.9-1.55,2.06,.04,1.16,.63,1.6,1.71,1.55Z"/>
      <path class="cls-13" d="M56.33,73.42c-.62,1.58-1.79,2.91-2.14,4.63-.07,.34-.21,.78-.46,.93-2.1,1.25-1.95,1.15-.9,3.28,1.21,2.45,.46,5.27,1.13,7.89,.62,2.41,.52,5,.9,7.49,.17,1.08,.25,1.68-1.12,1.71-1.43,.04-2.85,.42-4.28,.45-4.28,.1-5.4-1.77-3.47-5.85,2.24-4.73,2.72-9.85,3.1-14.91,.33-4.29-1.54-7.84-5.62-9.94-2-1.03-3.9-2.16-3.87-4.96,.01-1.16,.2-1.62,1.31-1.81,1.77-.31,3.53-.66,5.27-1.09,2.59-.64,3.61-2.77,1.74-4.53-3.41-3.2-3.57-7.27-4.09-11.35-.66-5.14,2.95-7.66,7.65-8.77,3.42-.81,6.9,2.48,7.49,6.56,.26,1.8,.26,3.66-.63,5.28-1.3,2.37-1.11,4.88-.99,7.39,.07,1.48,.47,2.72,2.52,1.89,.97-.39,2.09-.33,3.2-.2,2.42,.27,3.15-.53,2.62-2.94-.67-3-1.18-5.85-.13-8.98,.63-1.88,1.48-3.16,3.06-4.13,2.46-1.51,4.92-2.87,7.96-3.07,2.37-.16,3.79,1.08,4.29,2.9,.75,2.74,1.2,5.66-.7,8.3-1.78,2.48-3.27,5.2-6.24,6.58-.72,.34-.99,1.04-.73,1.83,.23,.7,.61,1.31,1.42,1.48,.17,.04,.36,.01,.54,0,1.72-.11,4-.4,4.91,.64,.94,1.06-.48,3.15-.52,4.81-.04,1.52-.3,1.79-1.85,1.16-3.17-1.3-6.47-2.3-9.72-3.4-.5-.17-1.06-.22-1.6-.23-1,0-2.25,0-2.35,1.25-.11,1.36,1.2,.95,2.02,1.1,.33,.06,.64,.22,1.65,.59-5.09,1.06-7.95,4.28-10.93,7.33l.03,.04c-.35-.92,.43-2.2-.92-2.81-.95-.44-1.75-.1-2.46,.47-.63,.51-.71,1.29-.36,1.95,.7,1.3,1.82,.72,2.83,.47,.15,.18,.29,.37,.44,.55Zm-.65-8.49c-.17-1.22-.96-1.44-1.89-.88-2.05,1.25-4.07,2.56-6.02,3.95-.68,.49-1,1.34-.35,2.13,.76,.92,1.29,.25,1.98-.29,1.62-1.26,3.34-2.39,5.04-3.53,.53-.35,1.08-.64,1.25-1.38Z"/>
      <path class="cls-16" d="M132.61,64.58c.53-1.13,.96-2.32,1.6-3.39,2.03-3.4,1.66-4.86-1.85-6.77-.39-.21-.76-.47-1.27-.8,.26-.2,.4-.37,.58-.44,7.49-2.62,8.58-8.01,5-14.53-1.36-2.48-.21-2.79,1.37-3.57,1.04-.51,3.17-.56,2.56-2.06-.63-1.55-2.19,.05-3.12,.44-2.25,.96-4.15,2.48-6.95,1.97-1.48-.27-2.33-.37-2.34-2.03,0-.71-.29-1.41-.43-2.12-.34-1.71,.03-2.74,2.13-2.65,1.61,.07,3.23-.21,4.84-.37,1.7-.17,2.28-.87,1.76-2.71-.85-3-3.22-5.18-4.08-8.18-.93-3.25,.14-7.4,2.89-9.16,1.62-1.05,3.46-1.57,5.35-.5,2.5,1.41,4.12,3.45,4.36,6.39,.3,3.63-.24,7.18-1.24,10.66-.56,1.97,.09,2.61,2.06,2.56,7.27-.19,6.4,1.12,7.33-6.49,.5-4.06,2.15-7.38,6.17-9.12,1.94-.84,3.89-1.8,5.85-.37,2.28,1.65,2.36,4.13,1.89,6.61-.68,3.59-3.29,5.57-6.2,7.4-1.29,.81-3.67,1.13-3.48,2.91,.2,1.8,2.49,.66,3.72,1.24,.4,.19,.88,.31,1.2,.59,1.1,.95,3.64-.21,3.61,1.33-.04,2.13-1.15,4.3-2.11,6.31-.41,.86-1.76,.63-2.72,.63-4.24,.01-5.64,1.15-6.92,5.23-.72,2.31-1.64,4.57-2.67,6.75-1.08,2.28-2.42,.41-3.95,.09,1.56-.74,2.97-1.22,3.41-2.79,.14-.51,.31-1.16-.26-1.47-.57-.31-1.03,.05-1.27,.61-.42,1.01-1.1,1.59-2.25,1.61-.74,.01-1.21-.31-1.46-.95-.27-.69,.21-.94,.74-1.17,2.15-.9,2.13-2.56,1.21-4.23-.86-1.57-2.38-1.43-3.79-.77-1.87,.88-1.87,2.43-1.29,4.12,.29,.84,1.44,1.59,.21,2.58-1.24,1-1.44-.49-2.11-.84-.33-.17-.66-.32-.96,0-.35,.37-.4,.89-.15,1.26,.8,1.18,.31,1.77-.71,2.56-1.31,1.03-1.22,2.88-1.25,4.27-.07,3.19-1.27,6.16-1.36,9.31-1.23,.01-2.46,.02-3.69,.04Zm18.06-31.81c-.55-.01-1.09,.02-1.4,.57-.29,.51-.02,1.03,.39,1.07,2.27,.21,3.56,1.87,5.07,3.22,.35,.31,.78,.42,1.2,.05,.42-.36,.41-.77,.09-1.17-1.42-1.76-3-3.31-5.35-3.75Zm-8.86,4.8c-1.6,0-2.39,.53-2.63,1.6-.2,.92,.51,1.33,1.26,1.34,1.05,.02,1.95-.44,2.12-1.61,.12-.84-.31-1.35-.74-1.34Zm9.22,1.81c.01-1.2-.7-1.38-1.59-1.35-1.02,.03-1.4,.64-1.39,1.55,0,.95,.52,1.54,1.48,1.48,1.03-.06,1.6-.67,1.51-1.68Z"/>
      <path class="cls-3" d="M172.38,93.29c-.82,1.91-2.43,3.06-3.99,4.3-1.52,1.21-1.87,2.46,.31,3.4,.33,.14,.65,.32,.95,.5,4.1,2.47,4.13,2.48,6.22-2.02,.94-2.03,2.32-3.6,4.2-4.79,1.78-1.14,3.66-1.92,5.31-.09,1.9,2.12,1.79,5.08,.01,6.87-1.76,1.77-4,2.69-6.29,3.53-.88,.32-2.01,.48-2.12,1.77-.1,1.21,.82,1.72,1.63,2.27,3.33,2.26,3.27,2.2,.37,5.29-4.01,4.26-7.91,8.62-11.44,13.28-1.31,1.73-2.43,2.05-4.22,.71-3.32-2.47-6.94-4.51-10.66-6.32-2.04-.99-1.09-2.55-1.16-3.94-.02-.31,.28-.4,.55-.26,.15,.08,.27,.33,.4,.34,2.49,.08,4.48,.8,5.93,3.14,.7,1.14,2.39,1.03,3.73,.31,.77-.42,1.5-.98,1.14-1.87-.47-1.15-1.21-.5-1.95-.08-1.19,.68-2.15,.18-2.63-.96-.46-1.1-.36-2.09,1.16-2.4,2.03-.41,2.52-1.76,2.02-3.65-.49-1.87-2-2.38-3.52-2.25-1.88,.16-2.5,1.69-2.09,3.37,.36,1.48-.83,1.84-1.49,2.58-.31,.35-1.14,.31-1.06-.12,.36-1.81-1.36-2.85-1.34-4.75,.04-4.07,.48-8.07,.8-12.1,.24-3.06,1.5-3.65,3.97-1.98,.74,.5,1.51,1.11,2.34,1.28,1.77,.37,3.27,.14,3.19-2.3-.05-1.34,.14-2.69,.23-4.04,.2-2.8,2.24-5.31,4.92-6.06,3.35-.93,4.42-.01,5.17,4.44-.21,.87-.41,1.74-.62,2.61Zm-13.76,11.15c.89,.15,2.06,.2,3.22-.05,.67-.14,1.22-.38,1.07-1.23-.12-.7-.74-.87-1.22-.8-1.54,.24-3.05-.06-4.56-.14-1.12-.06-2.13,.31-2,1.58,.13,1.26,1.13,.68,1.89,.55,.43-.08,.89,.04,1.61,.09Zm12.18,7.16c-.1-1.65-.68-3.12-1.72-4.4-.36-.44-.88-.68-1.42-.35-.57,.34-.5,.91-.24,1.41,.57,1.11,1.18,2.19,1.27,3.49,.06,.83-.24,2.09,1.09,2.01,1.21-.07,.92-1.3,1.02-2.16Zm-4.88-.07c-.11-.75-.33-1.42-1.26-1.43-.95,0-1.59,.57-1.63,1.43-.04,.91,.61,1.4,1.58,1.39,.94-.01,1.17-.65,1.31-1.39Zm-6.59-3.91c-.19-.88-.67-1.43-1.63-1.37-1.02,.07-1.28,.83-1.29,1.67-.01,.91,.64,1.16,1.42,1.16,.98,0,1.4-.57,1.5-1.47Z"/>
      <path class="cls-8" d="M153.2,80.65c1.2-3.2,2.13-6.46,4.6-8.96,1.45-1.47,2.84-3.01,4.23-4.54,1.23-1.36,1.48-2.99,1.44-4.77-.04-1.65-.85-2.27-2.36-2.24-2.81,.06-5.58,.3-8.09,1.73-1,.57-1.68,.69-2.76-.3-1.25-1.16-3.14-1.91-3.6,1.05-.15,.98-1.12,.72-1.75,.87-1.48,.35-3.05,.43-4.48,.93-2.1,.73-2.07-.4-1.81-1.81,.53-2.82,1.17-5.62,1.67-8.45,.45-2.56,1.9-2.9,4-1.99,2.33,1.01,4.75,1.46,7.26,1.78,1.51,.19,1.79-.34,2.13-1.53,.82-2.83,1.74-5.63,2.68-8.43,.9-2.67,3.12-3.21,5.57-3.39,1.91-.14,3.35,.42,4.08,2.33,.9,2.37,.3,4.34-1.39,6.15-1.49,1.6-3.17,2.96-5.06,4-.73,.4-1.16,.76-1.16,1.57,0,.95,.77,1.06,1.44,1.33q5.45,2.24,8.62-2.81c1.64-2.62,3.22-5.28,6.85-5.41,2.49-.09,4.46,.66,5.32,3.19,.83,2.42-.19,5.27-2.53,6.48-1.74,.9-3.65,1.48-5.51,2.11-1.2,.4-2.58,.53-2.76,2.13-.18,1.56,1.18,1.96,2.2,2.35,2.38,.9,2.13,1.78,.43,3.29-5.87,5.19-13.06,8.46-19.26,13.32Zm-2.5-23.63c-1.17,.27-3.08,.65-4.95,1.17-.71,.19-1.23,.77-.97,1.63,.16,.52,.69,.64,1.1,.44,1.87-.92,3.98-.87,5.92-1.5,.63-.21,1.31-.31,1.17-1.12-.14-.84-.89-.68-2.27-.61Z"/>
      <path class="cls-11" d="M85.56,81.23c2.09,.63,4.23,.56,6.37,.44-2.38,4.2-4.78,8.39-7.61,12.31-1.47,2.03-3.14,3.9-3.77,6.44-.29,1.16-4.13,1.61-5.77,.71-1.72-.95-.2-1.98,.21-2.58,2.52-3.67,3.77-8.08,7.04-11.34,1.58-1.58,2.37-3.96,3.52-5.97Z"/>
      <path class="cls-1" d="M19.32,87.85c.44,.02,.89,.03,1.33,.05,.62,2.29,1.88,4.33,3.43,5.99,1.49,1.59,1.96,3.57,2.99,5.31,.59,.99,.21,1.24-.74,1.27-1.62,.04-3.23,.12-4.85,.12-.87,0-1.32-.44-1.71-1.34-2.23-5.13-5.76-9.39-9.53-13.44-.7-.76-.81-.95,.11-1.44,1.9-1.01,3.61-1.63,4.48,1.2,.18,.58,.68,1.06,.95,1.62,.89,1.84,2.05,2.03,3.53,.66Z"/>
      <path class="cls-14" d="M77.87,56.97c1.01-1.15,1.94-1.92,2.5-2.9,1.18-2.04,1.98-4.63,4.92-1.77,.49,.48,1.39,.49,2.06,.09,2.72-1.58,1.76,.24,1.6,1.61-.66,5.37-3.17,10.27-3.97,15.6-.1,.66-.23,1.57-1.07,1.61-.7,.03-.77-.87-1.13-1.36-1.28-1.73-1.41-3.58-.73-5.57,.2-.59,.25-1.23,.37-1.85,.91-4.42,.25-5.27-4.57-5.48Z"/>
      <path class="cls-4" d="M44.42,106.4q-.02-3.43,3.49-3.44c.45,0,.9,.01,1.35,0,3.92-.16,3.96-.15,3.69,3.9-.08,1.24-.46,2.45-.69,3.68-.21,1.11-1.18,1.2-1.99,1.53-.99,.4-1.27-.29-1.58-.95-.33-.69-.84-1.2-1.59-1.33-2.65-.48-2.66-.47-2.68-3.37Z"/>
      <path class="cls-11" d="M167.61,50.51c-1.03,1.59-1.91,3.26-3.1,4.67-.53,.62-1.65-.09-2.12-.53-.85-.8,.42-.87,.74-1.21,1.02-1.1,2.14-2.12,3.24-3.15,.24-.22,.58-.34,.89-.44,.04-.01,.2,.38,.36,.67Z"/>
      <path class="cls-11" d="M132.61,64.58c1.23-.01,2.46-.02,3.69-.04-.77,2.05-2.88,1.44-4.33,1.87-.49,.15,.37-1.19,.64-1.84Z"/>
      <path class="cls-5" d="M84.31,44.63c.24-.54-.4-1.53,.79-1.35,.78,.12,1.26,.71,1.36,1.48,.11,.87-.36,1.4-1.22,1.41-1.2,.01-.65-1.03-.94-1.53Z"/>
      <path class="cls-5" d="M145.03,44.83c-.63-.05-1.04-.3-1.03-.98,.02-.81,.61-1.06,1.26-1.13,.78-.08,1.18,.38,1.14,1.13-.05,.85-.77,.86-1.36,.98Z"/>
      <path class="cls-5" d="M29.78,63c.63,.09,1.34,.23,1.32,1-.02,.66-.55,1.2-1.26,1.07-.65-.12-1.58-.24-1.49-1.18,.06-.68,.74-.93,1.44-.89Z"/>
      <path class="cls-5" d="M159.36,114.33c-.69,0-.88-.53-1.1-.99-.26-.53,.06-.9,.55-.92,.57-.02,.97,.39,1.14,.92,.18,.53-.18,.79-.59,.99Z"/>
      <path class="cls-10" d="M120.14,45.79c-.12,.56-.33,1.03-1,1-.38-.02-.74-.23-.52-.63,.2-.36,.57-.67,.94-.86,.42-.22,.61,.07,.58,.49Z"/>
      <path class="cls-16" d="M172.38,93.29c.21-.87,.41-1.74,.62-2.61,.29,.99,.12,1.87-.62,2.61Z"/>
      <path class="cls-4" d="M89.28,50.1c.13-.05,.27-.08,.42-.06,.02,.28,.22,.62-.24,.71-.02,0-.11-.42-.17-.64Z"/>
      <path class="cls-13" d="M56.76,72.76c-.14,.22-.29,.44-.43,.67-.15-.18-.29-.36-.44-.55,.29-.14,.56-.54,.9-.08l-.03-.04Z"/>
      <path class="cls-6" d="M111.7,67.89c-.13,1.83-1.52,2.54-3.55,2.74-2.85,.28-2.92-1.82-3.15-3.62-.27-2.18,1.18-3.05,3.09-3.22,2.2-.19,3.51,1.2,3.6,4.1Zm-3.33,.48c.72-.05,.97-.45,.97-1.07,0-.68-.13-1.3-.99-1.29-.69,0-1.31,.26-1.14,1.1,.12,.61,.45,1.18,1.16,1.26Z"/>
      <path class="cls-6" d="M107.92,53.73c-.28,.44-.47,.85-.76,1.15-2.21,2.34-4.95,3.75-8.03,4.58-.66,.18-1.28,.23-1.62-.45-.37-.75,.14-1.2,.78-1.41,2.82-.96,5.44-2.25,7.54-4.42,.4-.41,.96-.57,1.47-.3,.26,.13,.39,.53,.61,.86Z"/>
      <path class="cls-12" d="M116.88,58.77c.19-.66,.36-1.45,.65-2.2,.23-.59,.63-1.19,1.4-.97,.81,.23,.8,.98,.59,1.56-.92,2.46,.56,4.08,1.89,5.78,.54,.69,1.44,1.43,.43,2.28-1.04,.88-1.6-.25-2.18-.84-1.48-1.52-2.37-3.36-2.78-5.61Z"/>
      <path class="cls-12" d="M107.08,60.9c-.11,1.21-.73,1.85-1.75,1.79-1.04-.06-2.34-.18-2.28-1.66,.04-1.14,.95-1.68,2.03-1.76,1.24-.1,1.65,.82,2,1.63Z"/>
      <path class="cls-6" d="M114.98,65.28c-1.1-.09-2.04-.41-1.85-1.75,.16-1.17,1.02-1.66,2.14-1.52,1.12,.15,1.74,.81,1.63,2.03-.11,1.28-.98,1.31-1.93,1.23Z"/>
      <path class="cls-6" d="M36.62,47.32c1.03,.24,1,1.05,.47,1.59-2.08,2.13-4.17,4.23-5.28,7.08-.18,.45-.68,.68-1.12,.43-.24-.14-.43-.55-.47-.86-.24-1.8,4.36-7.96,6.08-8.2,.09-.01,.18-.02,.32-.04Z"/>
      <path class="cls-12" d="M19.25,58.12c.7-.16,1.3-.36,1.93-.1,.43,.17,.84,.35,.85,.9,0,.55-.35,.81-.84,.83-2.07,.09-4.06,.59-6.06,1.1-.5,.13-1.15,.18-1.4-.45-.32-.8,.31-1.12,.91-1.36,1.51-.6,3.05-1.06,4.61-.92Z"/>
      <path class="cls-12" d="M35.52,55.49c1.13,.34,1.88,1.02,1.77,2.3-.1,1.22-.74,2.04-2.06,1.99-1.08-.04-2.08-.5-2.04-1.69,.05-1.35,.86-2.31,2.33-2.61Z"/>
      <path class="cls-6" d="M23.83,64.29c-.13,1.34-1.3,1.89-2.4,1.86-1-.02-2.1-.73-2.04-2.04,.06-1.36,1.13-1.65,2.28-1.74,1.32-.11,2.02,.48,2.16,1.91Z"/>
      <path class="cls-12" d="M95.3,35.64c-.26,1.29-1.08,1.35-1.79,.79-1.6-1.27-3.07-2.62-5.16-3.14-.74-.18-.99-1.23-.08-1.62,1.21-.53,2.47-.16,3.54,.58,1.36,.95,2.9,1.75,3.49,3.39Z"/>
      <path class="cls-12" d="M89.33,40.4c-1.08,.06-1.67-.39-1.71-1.55-.04-1.15,.33-2.07,1.55-2.06,1.15,.01,2.12,.71,2.21,1.96,.1,1.36-1.06,1.45-2.05,1.65Z"/>
      <path class="cls-12" d="M55.68,64.93c-.17,.74-.73,1.03-1.25,1.38-1.7,1.15-3.42,2.28-5.04,3.53-.69,.54-1.21,1.2-1.98,.29-.65-.78-.33-1.64,.35-2.13,1.96-1.39,3.97-2.7,6.02-3.95,.93-.57,1.73-.34,1.89,.88Z"/>
      <path class="cls-12" d="M56.79,72.8c-.34-.46-.61-.06-.9,.08-1.02,.26-2.13,.84-2.83-.47-.35-.66-.27-1.44,.36-1.95,.71-.58,1.5-.91,2.46-.47,1.35,.62,.56,1.89,.92,2.81Z"/>
      <path class="cls-12" d="M150.66,32.77c2.35,.44,3.92,1.99,5.35,3.75,.32,.39,.33,.8-.09,1.17-.42,.36-.85,.26-1.2-.05-1.51-1.35-2.8-3.01-5.07-3.22-.41-.04-.67-.56-.39-1.07,.31-.55,.85-.58,1.4-.57Z"/>
      <path class="cls-12" d="M141.8,37.57c.43-.01,.86,.5,.74,1.34-.17,1.17-1.06,1.62-2.12,1.61-.75-.01-1.46-.43-1.26-1.34,.24-1.08,1.04-1.6,2.63-1.6Z"/>
      <path class="cls-12" d="M151.03,39.37c.09,1.01-.48,1.61-1.51,1.68-.96,.06-1.47-.53-1.48-1.48,0-.91,.38-1.52,1.39-1.55,.89-.03,1.61,.15,1.59,1.35Z"/>
      <path class="cls-12" d="M158.62,104.44c-.72-.05-1.18-.17-1.61-.09-.76,.14-1.76,.72-1.89-.55-.13-1.26,.89-1.64,2-1.58,1.52,.08,3.02,.38,4.56,.14,.48-.08,1.1,.1,1.22,.8,.15,.85-.41,1.08-1.07,1.23-1.16,.25-2.33,.21-3.22,.05Z"/>
      <path class="cls-12" d="M170.8,111.6c-.09,.86,.2,2.08-1.02,2.16-1.33,.08-1.03-1.18-1.09-2.01-.09-1.29-.7-2.38-1.27-3.49-.26-.5-.33-1.06,.24-1.41,.54-.33,1.06-.09,1.42,.35,1.04,1.28,1.62,2.75,1.72,4.4Z"/>
      <path class="cls-12" d="M165.92,111.53c-.14,.74-.37,1.37-1.3,1.39-.97,.01-1.62-.47-1.58-1.39,.04-.86,.68-1.44,1.63-1.43,.92,0,1.15,.68,1.25,1.43Z"/>
      <path class="cls-12" d="M159.33,107.62c-.1,.89-.52,1.47-1.5,1.46-.78,0-1.43-.25-1.42-1.16,.01-.84,.27-1.59,1.29-1.67,.96-.07,1.44,.49,1.63,1.37Z"/>
      <path class="cls-12" d="M150.71,57.02c1.38-.07,2.13-.23,2.27,.61,.14,.81-.54,.91-1.17,1.12-1.94,.63-4.05,.58-5.92,1.5-.41,.2-.94,.07-1.1-.44-.26-.85,.26-1.43,.97-1.63,1.88-.51,3.79-.9,4.95-1.17Z"/>
      <path class="cls-5" d="M108.36,68.37c-.71-.08-1.04-.65-1.16-1.26-.17-.84,.45-1.09,1.14-1.1,.86-.01,.98,.61,.99,1.29,0,.62-.25,1.03-.97,1.07Z"/>
      <g>
        <path class="cls-15" d="M37.88,144.03c2.1,.02,3.98-.76,5.83-1.63,1.08-.51,.95-1.52,1.06-2.43,.12-.98-.69-.87-1.24-1.02-2.11-.58-3.81-1.65-4.08-4.01-.26-2.25,.45-4.19,2.4-5.53,2.16-1.48,4.4-1.49,6.66-.27,1.98,1.06,2.95,2.76,2.91,5-.03,2.07-1.31,3.39-3.03,4.11-2.04,.85-1.63,2.43-1.13,3.71,1.18,3.04,7.67,4.44,10.09,2.33,1.39-1.21,1.88-2.5,.39-3.99-.48-.48-1.21-1.02-.49-1.76,.66-.67,1.3-.1,1.87,.32,1.76,1.29,2.18,3.59,1.01,5.44-1.71,2.69-4.79,3.75-8.29,2.76-1.05-.29-2.32-.52-3.01-1.23-2.26-2.37-4.49-1.72-7.04-.59-2.42,1.07-5.04,1.13-7.59,.25-1.29-.44-2.12-1.37-2.31-2.73-.2-1.43,.41-2.6,1.43-3.56,.41-.39,.92-.69,1.47-.24,.43,.35,.33,.82,.16,1.29-1.19,3.25-.69,3.88,2.94,3.8Z"/>
        <path class="cls-17" d="M45.28,136.75c-2.33,.07-3.72-1-3.76-2.88-.03-2,1.45-3.53,3.51-3.63,2.26-.11,4.14,1.44,4.22,3.48,.07,1.74-1.54,2.96-3.97,3.03Z"/>
        <path class="cls-15" d="M37.05,128.66c-1.89,.04-2.33-1.52-2.42-2.45-.18-1.78,1.3-2.4,2.6-2.6,1.42,.28,2.52,.61,2.77,2.01,.1,.57-.11,1.21-.58,1.8-.6,.73-1.52,1.22-2.34,1.25h-.01Z"/>
        <path class="cls-15" d="M54.91,128.6c-1.38,.04-2.2-.81-2.44-2.52-.07-.47,.11-.98,.5-1.44,.53-.63,1.34-1.03,2.11-1.05,.08,0,.17,0,.25,0,1.29,.11,2.05,.92,2.25,2.41-.07,1.59-.91,2.48-2.52,2.59-.05,0-.1,0-.15,0Z"/>
        <path class="cls-15" d="M28.82,122.18c-.3-.08-.5-.2-.59-.37-.1-.18-.1-.42,0-.71,.34-.96,1.01-1.67,2.07-2.15,2.04-.94,4.36-2.01,6.22-3.83,.32-.31,.78-.52,1.24-.72,.11-.05,.21-.09,.31-.14,.19-.09,.47-.2,.71-.21,.17,0,.39,.04,.55,.4,.19,.43-.02,.62-.5,1.01-.06,.05-.13,.1-.19,.16-1.95,1.63-4.13,2.99-6.24,4.32-.98,.61-1.99,1.25-2.97,1.9-.17,.11-.35,.21-.51,.3l-.1,.06Z"/>
        <path class="cls-15" d="M67.15,122.58c-.22,0-.5-.05-.69-.58-.66-1.82-2-2.88-4.35-3.44-.68-.16-1.29-.55-1.93-.96-.93-.59-1.89-1.2-3.14-1.16-.1,0-.21,.01-.31,.02,0,0,0,0-.02,0-.06,0-.14,0-.21-.11-.11-.15-.14-.41-.07-.63,.16-.48,.49-.7,1.11-.71,.09,0,.19,0,.28,0,.8,.34,1.62,.64,2.42,.93,2.68,.97,5.21,1.89,7.01,4.21,.27,.35,.48,.83,.6,1.37,.13,.57-.02,.91-.44,1.02-.09,.02-.18,.04-.26,.04Z"/>
      </g>
    </g>
  </g>
</svg>