<?xml version="1.0" encoding="UTF-8"?>
<svg id="_レイヤー_2" data-name="レイヤー 2" xmlns="http://www.w3.org/2000/svg" viewBox="0 0 183.54 139.94">
  <defs>
    <style>
      .cls-1 {
        fill: #ccc990;
      }

      .cls-2 {
        fill: #f29a77;
      }

      .cls-3 {
        fill: #060502;
      }

      .cls-4 {
        fill: #faf1a4;
      }

      .cls-5 {
        fill: #c1dedd;
      }

      .cls-6 {
        fill: #ceedec;
      }

      .cls-7 {
        fill: #f6f795;
      }

      .cls-8 {
        fill: #fea883;
      }

      .cls-9 {
        fill: #f9a47f;
      }

      .cls-10 {
        fill: #f39a77;
      }

      .cls-11 {
        fill: #f09876;
      }

      .cls-12 {
        fill: #f7f0a4;
      }

      .cls-13 {
        fill: #f29977;
      }

      .cls-14 {
        fill: #cfeeed;
      }

      .cls-15 {
        fill: #d18b6b;
      }

      .cls-16 {
        fill: #f795ef;
      }

      .cls-17 {
        fill: #f49a77;
      }

      .cls-18 {
        fill: #bbb988;
      }

      .cls-19 {
        fill: #fea580;
      }

      .cls-20 {
        fill: #89f6fe;
      }

      .cls-21 {
        fill: #231815;
      }

      .cls-22 {
        fill: #fcaa84;
      }

      .cls-23 {
        fill: #f09977;
      }

      .cls-24 {
        fill: #7fe6fc;
      }

      .cls-25 {
        fill: #ea9473;
      }

      .cls-26 {
        fill: #f03c3c;
      }
    </style>
  </defs>
  <g id="design">
    <g>
      <path class="cls-21" d="M181.22,56.26c-1.38,5.48-1.63,11.14-1.28,16.65,.3,4.77,.13,9.45-.05,14.18-.31,8.01,1.02,16.01,.29,24.03-.05,.6-.14,1.19-.18,1.53-.93,1.71-2.48,2.02-3.84,2.36-6.7,1.68-13.11,4.47-20.13,5.01-3.49,.27-6.98,1.18-10.11,2.98-2.55,1.47-5.47,1.46-8.18,1.59-7.5,.35-14.35,3.53-21.76,4.38-8.18,.95-16.21,3.15-24.34,4.58-8.5,1.49-17.04,2.71-25.57,4.04-2.74,.42-4.87,3.02-7.94,2.21-.56-.15-1.09-.41-1.63-.62-.73-1.45-.43-2.55,1.09-3.24,10.66-4.29,22.17-4.48,33.26-6.65,12.32-2.41,24.6-5.06,36.96-7.28,10.93-1.96,21.54-5.34,32.48-7.2,5.07-.86,9.85-2.6,14.87-4.4,.59-4.31,1.46-8.49,.94-12.72-.37-3.03-.71-5.99-.46-9.08,.83-10.41-.8-20.84,.41-30.83-.55-.62-.79-.8-1.01-.72-6.41,2.49-13.34,2.59-19.92,4.43-6.43,1.8-12.98,3.36-19.71,3.78-4.91,.31-9.49,2.19-14.3,3.05-11.38,2.04-22.94,3.06-34.26,5.28-9.37,1.84-19.13,2.38-27.93,6.66-1.34-.04-2.66-.58-4.03-.17-.34,.06-.68,.07-1.02,.05-.92-.19-1.67-.58-1.85-1.62,.44-1.21,1.58-1.4,2.58-1.81,3.08-.73,6.06-1.7,8.46-3.43,.24-1.2-.28-1.77-.76-2.29-7.65-8.25-11.6-18.52-15.41-28.79-2.59-6.96-3.47-14.37-4.24-21.75,.08-.38,.22-.73,.41-1.06,.53-.54,1.05-1.15,1.91-.57,1.09,1.14,.64,2.82,1.44,4.07,1.35,3.41,2.18,6.87,2.53,10.59,.52,5.63,3.39,10.63,5.39,15.85,2.99,7.81,7.51,14.66,13.01,20.9,.49,.55,1,1.07,1.93,1.38,1.52,.33,3.1-.24,5.33-.69-14.66-14.25-18.44-32.96-23.55-51.06-.59-1.09-1.49-.65-2.34-.45-.87,.18-1.73,.24-2.61,.06-.58-.14-1.02-.5-1.41-.94,2.15-3.01,5.97-3.47,9.11-1.09,.8,1.04,.58,2.46,1.33,3.52,.21,.29,.38,.6,.53,.92,.38,1,.56,2.06,.98,3.04,2.07,7.27,4.74,14.35,7.02,21.81,.14-4.37-.12-8.51,.38-12.66,.31-2.57-.49-5.08-1.4-7.49-.86-2.29-1.64-4.59-1.85-7.05-.01-1.15-.77-2.39-.25-3.46,.19-.35,1.21-.46,1.61-.49,.98,.34,1.14,1.28,1.49,2.08,.29,.57,.23,1.5,1.31,1.26,2.06-1.06,4.37-1.01,6.54-1.57,.45-.14,.92-.23,1.4-.55,.51-.47,.41-1.27,.71-1.91,.13-.31,.32-.57,.57-.79,.47-.23,.95-.24,1.43-.03,.85,.6,1.39,1.23,2.13,1.89,.65,.55,.83,1.39,1.57,1.79,3.38,2.46,7.51,4.39,6.88,9.69-.03,3.86,.1,7.73-.06,11.58-.45,2.02-.79,4.04,.12,6.04,3.66,7.98,8.1,15.4,15.03,21.04,.85,.64,1.77,.36,2.68,.21,1.57-.24,3.18,.06,4.71-.43,.25-.14,.49-.3,.68-.51-1.09-2.17-2.83-3.88-4.27-5.75-4.86-6.3-8.18-13.5-11.94-20.39-4.05-7.43-7.4-15.3-8.53-23.87,.18-.72,.5-1.37,.96-1.95,.55-.51,1.13-.93,1.94-.56,2.17-.08,.67,2.35,1.46,3.34,1.64,3.32,2.11,6.99,3.12,10.5,1.7,5.95,4.77,11.25,7.93,16.43,3.48,5.7,6.41,11.7,10.94,16.84,4.18,4.74,8.48,4.13,13.87,2.48-1.73-1.97-3.09-3.88-4.72-5.41-7.24-6.83-10.52-16.05-14.96-24.55-1.74-3.33-3.65-6.63-4.92-10.21-.65-1.83-1.54-3.62-1.01-5.66,.21-.55,.56-.95,1.14-1.11,.38-.03,.73,.05,1.05,.24,3.25,4.62,4.75,10.11,7.44,14.99,4.79,8.68,8.57,17.83,15.74,25.27,4.99,5.18,9.73,5.26,15.71,3.69-.88-1.95-2.32-3.26-3.66-4.64-1.35-1.4-2.84-2.7-3.91-4.34-5.42-8.37-11.22-16.48-16.87-24.69-2.85-4.14-4.43-8.93-5.24-13.92-.03-.93-.02-1.85,.27-2.74,.22-.53,.56-.94,1.17-1.04,.88,.4,1.2,1.3,1.75,1.99,2.51,11.1,10.07,19.27,16.09,28.41,3.78,5.73,7.68,11.19,12.47,16.1,3.76,3.86,7.16,4.47,12.17,1.45-.13-1.13-1.18-1.47-1.86-2.11-13-12.44-22.73-26.96-28.17-44.21-.22-.71-.39-1.41-.19-2.16,.79-.99,.95-3.13,3.08-1.68,3.53,7.74,5.16,16.43,10.38,23.29,6.23,8.18,11.63,17.08,20.08,23.48,3.29,2.49,6.12,2.04,9.59,1.09-.42-2.17-2-3.01-3.32-3.95-7.49-5.3-13.35-12.16-18.11-19.85-4.73-7.62-8.42-15.81-10.73-24.56,.35-.88,.75-1.7,1.9-1.67,2,2.03,3.39,4.49,4.29,7.12,3.86,11.24,9.87,21.2,18.23,29.55,4,4,8.35,7.75,12.53,11.21,2.3,.4,4.16-.56,6.12-.44,1.26,.39,2.45,.89,3.17,2.1-.04,.94,.13,1.91-.31,2.8Z"/>
      <path class="cls-21" d="M53.63,18c-.81-.51-1.62-1.02-2.57-1.62-1.91,1.24-4.69-.07-6.19,2.34h0c-.47,.26-.95,.5-1.42,.75-.9,.12-1.81,.13-2.68,.42-.29,.11-.59,.18-.89,.24-1.11,.29-2.52-.12-3.1,1.38-.45,.93-.46,1.92-.47,2.92-.33,2.65-.67,5.36-1.58,7.81-2.89,7.81-3.01,16.28-6,24.05-1.04,2.7-1.68,5.5-1.59,8.4,1.84,.69,2.32-.49,2.82-1.62,3.74-8.56,4.9-17.78,6.76-26.82,.37-1.81-.21-3.63-.8-5.37-.54-1.58-.75-3.09,.69-4.35,3.25-1,3.79,1.58,4.31,3.59,1.75,6.73,3.74,13.4,5.69,20.07,1.75,6,4.24,11.7,7.87,16.84,3.62,5.12,3.66,5.09,0,10.07-.35,1.13-1.71,.79-2.29,1.57-2.18,.97-4.06-.29-5.91-1-8.19-3.13-16.28-6.49-24.56-9.41-4.95-1.75-10.04-2.89-15-4.48-1.21-.27-2.21,.63-3.38,.62-.5-.14-.68-.69-1.13-.89l.03,.07c-.42-1.04,.12-2.54-1.43-3.05-2.01-2.09,.18-3.33,1.3-3.88,5.15-2.53,8.62-6.92,12.23-11,3.52-3.97,7.62-7.78,8.89-13.3,.38-1.66,1.45-2.7,2.55-3.82,2.11-2.16,4.04-4.48,5.07-7.38,.76-2.15,2.44-3.18,4.42-3.91,2.15-.91,4.52,.28,6.66-.7,.35-.03,.7-.05,1.05-.08,1.53-.68,3.3,.23,4.79-.72l-.05,.02c1.62-.9,3.58,.39,5.16-.79l-.07,.03c1.44-.68,3.07,.14,4.5-.56,.83-.43,.67-.64,2.63-.91s5.2-.35,6.17-.61c.97-.26,2.58-.02,5.14-.52s4.91,.17,7.26-1.14l-.09,.04c2.69-.79,5.11,.71,7.78-.41l.76-.27c1.78-.75,5.04-.64,5.23-.63s.65-.11,.65-.11c1.22-.76,2.86,.39,3.97-.87,1.25-1.32,3.25,.08,4.55-1.05,.31-.27,.72-.41,1.12-.48,2.02-.34,4.12,.3,6.11-.37,1.32-.59,2.36-1.87,4.01-1.64,1.78-.74,3.8,.35,5.53-.73,.35,0,.7,.01,1.06,.02,1.53-.69,3.3,.22,4.8-.72,.8-.83,1.8-.83,2.84-.71,1.06-.91,2.74,.47,3.66-.98,1.08-.81,2.31-.58,3.52-.53,1.23-.64,2.68,.13,3.9-.6,1.24-.08,2.23-1.23,3.58-.82,1.18-.47,2.35-.54,3.52,.04,3.09,1.79,3.41,4.96,4.5,7.98,2.05,5.68,5.24,10.91,8.69,15.88,6.43,9.24,14.28,17.25,22.42,24.97,.86,.82,1.87,1.49,2.85,2.25,.32,.93-.67,1.11-1.05,1.67-.42,.4-.85,.46-1.27,.01-1.35,.27-2.1-.63-2.88-1.47-4.47-3.34-7.84-7.94-12.56-11.02-1.33-.86-2.16-2.31-2.72-3.82-.29-1.16-1.08-1.85-2.17-2.26-2.04-1.24-2.43-3.65-3.79-5.37-3.64-6.04-7.78-11.79-10.38-18.42-.17-1.15-.02-2.37-.64-3.44-.66-1.13-1.1-2.42-2.16-3.03-2.23-1.02-4.33,1.42-6.39-.14-.56,.45-1.13,.89-1.69,1.34-.81,.15-1.63,.19-2.45,.16-1.3,.02-2.61-.11-3.83,.5-.78,.33-1.56,.77-2.44,.31-1.4-.73-1.31,1.41-2.41,1.26-1.41,.58-2.87,.06-4.29,.19-1.72,.01-3.45-.16-5.16,.21-.32,.1-.65,.17-.97,.23-.65,.16-1.31,.15-1.97,.07-.23,.24-.47,.48-.7,.72-1.94,1.25-4.29,.53-6.33,1.32-1.47,.81-3.46,.67-4.38,2.46-.33,.89-.31,2.02-1.53,2.32-1.41-.37-1.83-2.34-3.57-2.19-1.93,0-3.86-.2-5.76,.29-.36,.09-.73,.13-1.1,.13-.58-.03-1.08-.27-1.51-.65-.48,.24-.96,.49-1.44,.73-1.94,.46-3.98-.08-5.9,.61-1.53,.33-3.07,.47-4.62,.06-.5,.09-.93,.16-1.44,.25-1.32,1.05-3.05,.54-4.5,1.08-.34,.1-.7,.17-1.05,.23-1.39,.17-2.8,.07-4.17,.4-.62,.09-1.2,.01-1.7-.47l-.81,.03c-.72,.81-1.78,.93-2.7,1.32-.78,.31-1.56,.64-2.38,.83-1,.21-2,.26-3.01,.07Z"/>
      <path class="cls-21" d="M3.11,64.15c1.03-.43,1.71-1.63,3.03-1.42,1.03,1.24,.89,2.74,.93,4.19,.24,9.63-.44,19.28,.49,28.91,.24,2.53-.52,5.08-.5,7.66,.03,3.28,1.26,5.73,4.33,6.98,10.43,4.27,19.54,11.04,29.84,15.55,2.47,1.08,4.71,2.57,6.98,4.01,1.42,.9,2.84,1.87,4.89,2.2,1.55-3.89,1.14-7.8,.78-11.6-.71-7.44-.89-14.86,.08-22.27,.61-4.67-.86-9.23-.6-13.87,.09-1.68-.25-3.45,.95-4.92,.27-.01,.54-.03,.81-.04,1.39,1.74,.55,4.61,2.97,5.84,1.82,5.11,1.25,10.37,.82,15.57-.55,6.58-.49,13.11-.01,19.69,.39,5.29,1.15,10.66-.54,15.91-1.64,.15-1.81,1.34-1.86,2.62-4.22-.48-7.1-3.57-10.54-5.54-3.8-2.18-7.61-4.17-11.71-5.78-4.03-1.58-8-3.68-11.45-6.26-3.78-2.83-7.87-4.89-12.16-6.51-5.06-1.91-7.4-5.06-7.78-10.55-.82-11.76-.31-23.51-.58-35.27,1.18-1.55-.15-3.52,.84-5.1Z"/>
      <path class="cls-3" d="M3.11,64.15c-.33,1.69,.78,3.62-.84,5.1-.02-1.92-.03-3.83-.05-5.75,.29,.22,.59,.43,.88,.65Z"/>
      <path class="cls-3" d="M.82,60.52c2.15,.23,1.45,1.8,1.43,3.05-.53-.99-.42-2.29-1.43-3.05Z"/>
      <path class="cls-16" d="M58.35,136.54c-.18-12.1-1.88-24.16-.4-36.3,.63-5.16,.34-10.41-.64-15.57-1.14-1.66-1.36-3.29,.16-4.87,5.67-2.48,11.54-4.13,17.67-5.13,10.87-1.78,21.75-3.45,32.66-4.99,8.18-1.16,16.36-3.46,24.55-4.79,10.18-1.65,20.09-4.46,30.22-6,5.06-.77,9.64-3.13,15.13-3.61-1.25,5.11-.41,10.09-1.35,14.96-.18,.94-.37,2.01-.11,2.89,1.81,6.17-.15,12.33,.14,18.45,.23,4.95,1.05,9.87,.57,14.86-.14,1.44-.02,2.9-.02,4.73-4.41,1.4-8.57,3.04-12.87,4.01-14.54,3.27-29.12,6.38-43.71,9.39-12.72,2.62-25.42,5.38-38.24,7.36-5.38,.83-10.76,1.86-16.19,2.39-2.75,.27-4.71,2.69-7.57,2.23Z"/>
      <path class="cls-7" d="M54.3,79.57c.59,18.22-.23,36.43,.62,54.51-2.22,.42-3.04-.71-4-1.34-10.23-6.66-21.78-10.9-31.99-17.61-2.31-1.52-5-2.55-7.65-3.42-4.05-1.32-5.58-4.12-5.29-8.08,.99-13.64-.92-27.28,.15-40.91,5.35,1.3,10.58,2.94,15.84,4.58,10.31,3.22,19.9,8.25,30.22,11.36,.64,.45,1.19,1.1,2.1,.91Z"/>
      <path class="cls-17" d="M89.09,12.94h.46c2.18-1.11,4.62,.16,6.82-.74,.55,.06,1.1,.13,1.47,.17,.51,1.05,.9,1.86,1.29,2.68,.56,.43,.35,1.14,.59,1.69-.4,2.25,1.03,3.96,1.8,5.83,3.7,9.03,8.41,17.57,12.99,26.15,2.96,5.53,8.1,9.33,12.42,14.24-3.79,1.29-7.54,1.8-11.34,1.94-4.99-3.06-8.38-7.52-11.25-12.36-3.79-6.37-7.58-12.77-10.88-19.4-1.71-3.43-2.36-7.39-3.51-11.1-.57-1.85-1.18-3.69-1.78-5.53-.61-1.43-.95-2.79,.93-3.57Z"/>
      <path class="cls-17" d="M120.69,7.08c1.3,.31,2.76-.24,3.95,.69,6.19,19.22,16.78,35.53,32.37,48.88-3.82,1.97-7.82,2.82-12.67,2.41-11.62-15.13-25.21-29.29-31.31-48.4-.72-1.28-.5-2.26,.91-2.86,.21,.12,.4,.08,.54-.11,2.01-.8,4.19,.16,6.2-.61Z"/>
      <path class="cls-17" d="M127.05,6.5c.7-.33,1.4-.67,2.1-1,1.48-.77,3.18,.1,4.66-.62,.66,.22,1.31,.44,1.97,.66,3.7,9.29,7.07,18.7,12.91,27.02,5.76,8.2,13.29,14.62,21.18,21.4-3.26,1.69-6.12,1.84-9.13,2.05-6.52-4.61-12.53-9.78-16.52-16.95-.29-.53-.62-1.09-1.06-1.48-8.37-7.51-11.07-18.12-15.31-27.89-.43-.99-.54-2.11-.8-3.17Z"/>
      <path class="cls-14" d="M82.16,27.04c-1.19,7.63-.52,15.3-.52,22.95,0,1.32,.44,2.65-.23,4.33-1.88,.41-3.97,.86-6.6,1.42,1.04-9.64,.48-18.94-.63-28.29,1.59-1.12,3.45-1.04,5.13-1.54,1.24-.37,2.36-.41,2.84,1.13Z"/>
      <path class="cls-6" d="M69.74,24.72c.64,.7,1.28,1.39,2.04,2.23,.83,8.45,1.3,17.16,.67,26.03-2.2,.22-3.32-1.46-4.7-2.01-1.53-8.45,.03-16.69-.28-24.92-.33-2.28,.84-2.02,2.26-1.33Z"/>
      <path class="cls-13" d="M94.77,67.86c-1.39,.39-2.79,.77-3.88,1.08-5.55-2.1-9.15-5.71-11.26-10.91,1.6-.91,3.41-.71,4.5-2.06,.81-1.43,.25-3.07,.76-5,4.58,5.44,7.26,11.93,12.35,16.59-.8,.54-1.64,.45-2.49,.31-.47-.5-1.09-.42-1.68-.42-.48-.07-.28,.49-.25,0,.67,.05,1.38-.11,1.95,.41Z"/>
      <path class="cls-23" d="M86.81,69.46c-2.98,.69-5.13,.38-7,1.82-5.37-5-9.75-10.49-14.53-17.17,4.75,1.21,6.9,6.28,11.34,4.13,2.65,4.33,5.01,8.47,10.19,11.23Z"/>
      <path class="cls-5" d="M78.34,24.5c-1.68-.02-3.37-.02-5.05-.07-1.88-.06-3.17-.85-3.46-3.08,2.31-1.21,4.82-1.01,7.27-1.15,3.22,1.63,3.31,1.95,1.24,4.3Z"/>
      <path class="cls-21" d="M57.47,79.79c-.05,1.62-.1,3.24-.16,4.87-.59,.06-1.18,.13-2.19,.24,0-1.86,0-3.62,0-5.38,.85-.46,1.67-.71,2.35,.27Z"/>
      <path class="cls-23" d="M85.2,26.79c1.16,4.39,1.17,8.78,0,13.17,0-4.39,0-8.78,0-13.17Z"/>
      <path class="cls-21" d="M111.52,12.21c-.86-.53-.26-1.96-1.43-2.3-1.7,1.03-3.41,1.07-5.13,.05,2.07-1.31,4.36-.86,6.59-.77,0,1-.02,2.01-.03,3.01Z"/>
      <path class="cls-21" d="M79.68,14.23c-.72-.04-1.53-.32-1.9,.67-.63,.68-.58,1.73-1.33,2.34-1.19-.71-.7-1.89-.82-2.9,1.27-1.34,2.93-.49,4.39-.78,0,0,.23,.27,.23,.27-.13,.22-.32,.36-.57,.4Z"/>
      <path class="cls-21" d="M85.42,15.02c-.11-.23-.21-.46-.32-.69-1.57-.97-3.43,.16-5.02-.68,0,0-.06-.1-.06-.1,1.98-1.05,3.95-1.11,5.91,.05-.17,.47-.34,.95-.51,1.42Z"/>
      <path class="cls-21" d="M56.39,17.88c-.42,.04-.84,.09-1.26,.13-.89,1.08,.09,2.52-.68,3.63-1.32-.98-.59-2.41-.82-3.63,.84-1.09,2.02-.67,3.1-.69-.13,.18-.25,.37-.34,.57Z"/>
      <path class="cls-10" d="M74.49,69.25c-6.42-6.39-11.17-13.73-14.11-22.4-3.15-9.3-6.29-18.6-8.92-28.06-.7-.96-1.44-.8-2.19-.06h0c-.89,.03-1.78,.06-2.68,.08-2.13,1.04-1.44,2.7-.94,4.32,2.87,6.51,2.26,13.8,5.12,20.45,4.6,10.72,9.28,21.24,18.26,29.56,2.14-.47,4.57-.99,7.29-1.58-.78-.99-1.24-1.71-1.83-2.3ZM51.08,20.78s0,0,0,0c0,0,0,0,0,0,0,0,0,0,0,0Z"/>
      <path class="cls-19" d="M109.63,66.49c-1.52-.09-3.03-.17-4.55-.26,1.7-.64,3.39-1.13,5.01,.12l-.19,.19-.26-.04Z"/>
      <path class="cls-21" d="M99.73,16.74c-.2-.56-.4-1.13-.59-1.69,1.02-.78,.59-1.91,.69-2.92,.18-.09,.37-.18,.55-.27,.16,.12,.32,.25,.49,.37,.58,1.18,.54,2.34-.12,3.48-.34,.34-.68,.68-1.01,1.02Z"/>
      <path class="cls-21" d="M73.44,15.19c-.47-.39-.96-.29-1.46-.08-.98,.44-1.95,.46-2.92-.02,1.53-1.47,3.43-.49,5.13-.76-.03,.31-.07,.62-.1,.93-.24,.16-.45,.14-.65-.07Z"/>
      <path class="cls-21" d="M46.59,18.81c-2.01,1.07-.27,2.96-.94,4.32-1.39-1.27-.54-2.93-.78-4.4,0,0,0,0,0,0,.57,.03,1.14,.06,1.72,.09Z"/>
      <path class="cls-2" d="M61.68,19.58c-.66-.9-.02-2.06-.61-2.98-.71-.58-1.47-.5-2.26-.18l-2.08,.89c-.3,.08-1.58,.34-2.01,.97,0,0,0,.02,0,.02-1.03,.93-.11,2.47,.16,3.47s-.13,2.17,.81,2.91c2.66,8.47,5.32,16.93,8.04,25.61,.72-.51,.87-.57,.87-.62-.02-10.12,1.55-20.4-2.91-30.09Z"/>
      <path class="cls-21" d="M43.36,20.3c-.76-.98-1.9-.52-2.86-.74,.94-1.23,1.93-1.08,2.94-.09-.03,.28-.05,.55-.08,.83Z"/>
      <path class="cls-21" d="M113.95,7.8c-1.25,.65-1,1.78-.91,2.86-.88-.5-.72-1.38-.79-2.18,.39-.66,1.02-.73,1.7-.68Z"/>
      <path class="cls-22" d="M101.29,67.07c.78-.96,1.52-.92,2.22,.09-.75,.3-1.51,.71-2.22-.09Z"/>
      <path class="cls-2" d="M35.62,23.91c.84,.76,.04,2.18,1.13,2.84-.16,.7-.67,1.6-.42,2.08,2.97,5.55,.61,10.92-.34,16.36-1.26,7.21-3.09,14.24-6.21,20.98-1.54,.43-3.03,.2-4.7-.67,4.29-13.67,6.97-27.74,10.54-41.59Z"/>
      <path class="cls-2" d="M39.95,41.35c.88,4,1.75,8.01,2.74,12.5-1.99,4.8-1.6,10.86-5.23,15.88-1.74-.76-3.37-1.47-5.5-2.4,3.74-8.31,5.61-17.06,7.06-25.92,.31-.02,.62-.04,.93-.06Z"/>
      <path class="cls-23" d="M19.32,48.12c-1.06,4.91-2.48,9.7-4.32,14.27-2.14,.1-3.18-1.24-4.44-1.65-.63-1.78,.78-2.96,.68-4.42,.71-1.22-.17-2.71,.68-3.9,2.5-1.88,3.84-4.95,6.63-6.53,1.74,.24,.87,1.37,.77,2.24Z"/>
      <path class="cls-25" d="M49.7,68.89c3.03,1.63,3.5,3.66,2.62,6.28-1.6,.22-2.93-.31-4.56-.9,.61-1.7,1.21-3.34,1.94-5.38Z"/>
      <path class="cls-17" d="M119.34,29.71c-4.23-5.01-6.74-10.98-7.83-17.49-.83-.61,.39-2.53-1.55-2.43-.11,.05-.22,.09-.33,.13-1.56,.02-3.12,.03-4.68,.05-1.64,.88-3.88,.36-5.13,2.17,.15,.05,.31,.08,.47,.09,0,0,0,0,0,0,0,0,0,0,0,0,.15,1.16,.29,2.33,.44,3.49,.18,.01,.36,.04,.54,.1,4.17,11.22,9.66,21.84,15.64,32.15,3.29,5.67,8.2,10.35,13.49,14.2,4.03-.93,8.02-.15,12.24-2.26-10.29-8.48-15.16-20.54-23.3-30.19Z"/>
      <path class="cls-17" d="M168.45,41.81c-1.84-1.72-5.66-6.21-7.04-7.71s-1.97-3.77-3.71-5.11c-3.49-6.04-7.59-11.74-10.28-18.24-.86-1.13,.2-2.65-.76-3.75-1.04-1.51-1.2-3.81-3.75-4.07-1.69,.65-3.43,1.56-5.45,1.28,6.98,19.65,17.5,36.78,34.96,49.26l5.86-1.76c-2.34-4.21-6.43-6.73-9.82-9.89Z"/>
      <path class="cls-15" d="M7.19,60.12c-1.85,.41-2.39-.22-2.61-1.46,1.13-.95,2.18-2.04,4.24-1.63-.63,1.19-1.17,2.2-1.63,3.08Z"/>
      <path class="cls-2" d="M47.15,64.84c-.91-2.25-1.82-4.5-2.73-6.76-1.35,4.42-2.39,8.7-4.47,12.61,1.93,.95,3.55,1.74,5.4,2.65,.84-1.59,1.58-3.07,1.74-4.79,.56-1.23,1.16-2.45,.07-3.71Z"/>
      <path class="cls-9" d="M30.81,32.61c.66-1.34,1.58-2.64,.67-4.44-1.33,.34-1.9,1.32-2.46,2.32h0c-.33,.47-.66,.95-.99,1.42-.58,.23-.35,.96-.79,1.28-1.68,1.73-2.92,3.73-3.62,6.05h0c-.26,.24-.52,.49-.78,.73-.69,1.25,.03,2.71-.6,3.97,.21,3.38-1.32,6.47-1.62,9.77-1.53,2.76-1.93,5.84-2.78,8.87,1.6,.78,3.04,1.49,4.4,2.16,.92-.96,6.31-22.51,8.57-32.13Z"/>
      <path class="cls-21" d="M151.71,94.9c.5,2.66,.49,5.22-1.56,7.34-1.54,.89-3.31-.09-4.88,.6-13.46,2.55-26.93,5.06-40.38,7.65-5.93,1.14-11.99,1.56-17.84,3.4-2.04-.34-2.68-1.69-2.65-3.65,.05-3.29-.05-6.61,.76-9.82,1.4-5.55-.67-11.11,.18-17.17,5.9-1.04,11.77-2.75,17.87-3.61,14.74-2.09,29.53-3.93,44.04-7.4,3.34-.8,5.24,.78,5.41,4.25,.19,3.99-.28,7.93-.94,11.86-.39,2.18-.39,4.37,0,6.55Z"/>
      <path class="cls-21" d="M33.92,108.93c-3.91,.5-7.29-.37-9.95-3.8-3.77,.3-7.77,.93-9.67-3.63-.63-1.51-.34-1.95,1.55-3.26,1.68,.49,.76,2.51,1.94,3.3,1.27,.91,2.59,1.17,3.91,.51,.67-1.36,0-1.95-.89-2.54-2.68-1.77-3.08-4.34-1.95-7.07,1.11-2.69,3.53-3.74,6.28-3.44,3,.32,4.89,2.39,5.42,5.21,.52,2.76-1.24,4.52-3.71,5.56-.33,.14-.62,.36-.91,.53,.42,4.25,2.23,5.66,7.19,5.56,.67-.47,.6-1.41,.8-2.2,.22-.87,1.36-1.09,1.89-.37,1.16,1.57,1.19,2.13,.13,4.2-.4,.78-1.16,1.33-2.03,1.44Z"/>
      <path class="cls-21" d="M43.92,88.37c-.13,.8-1.21,.98-1.65,.29-1.24-1.94-1.87-4.03-3.05-5.81-1.11-1.68-2.51-2.77-4.41-3.71-1.25-.62-1.01-2.53,.37-2.69,1.23-.15,2.33,.33,3.42,1.11,3.37,2.42,5.85,7.58,5.31,10.81Z"/>
      <path class="cls-21" d="M12.66,78.97c-.7,.54-1.76,.37-2.16-.43-.51-1.02-.06-1.86,.77-2.51,2.29-1.77,4.62-3.54,7.13-4.96,1.49-.85,2.77-.73,3.36,.66,.34,.79-.16,1.68-.98,1.91-3.19,.89-5.51,3.3-8.12,5.33Z"/>
      <path class="cls-21" d="M21.51,87.43c-1.53,1.19-3.93,.27-4.65-1.96-.48-1.5-.55-2.88,.97-3.87,1.15-.75,2.4-.85,3.35,.14,1.64,1.69,1.85,4.5,.33,5.69Z"/>
      <path class="cls-21" d="M34.08,89.63c-.96,.64-2.27,.54-3.08-.28-.9-.91-1.17-2.08-.89-3.42,.21-1.02,.79-1.65,1.59-1.91,.88-.28,1.86,.05,2.48,.74,1.93,2.14,1.94,3.52-.1,4.87Z"/>
      <path class="cls-10" d="M43.36,20.3c-.68-1.29-1.62-1.59-2.86-.74l.06-.04c-1.16,.82-3.44,.31-3.84,.79s-.43,.51-.6,.94c-.44,.86-1.09,1.59-.5,2.66,.55,.88-.79,2.5,1.13,2.84,2.11-.68,2.4,.82,2.85,2.29,2.76,9.08,4.71,18.39,8.18,27.26,2.27,5.79,5.43,11.06,9.13,15.93-1.28,1.68-2.77,2.85-2.42,4.87,4.22,.53,7.2-2.5,11.06-3.68-13.68-15.25-19.77-33.42-22.18-53.11Z"/>
      <path class="cls-8" d="M94.77,67.86c-.96-.05-1.93-.1-3.54-.18,1.68-.75,2.65-.86,3.52,.19,0,0,.02,0,.02,0Z"/>
      <path class="cls-24" d="M131.82,78.67c1.52-.69,3.06-1.31,5.07-1.22-1.7,7.29,1.9,12.48,7.14,17.98,.11,.17-.95,.74-1.03,1.54-.6,.87,0,2.16-.88,2.76-1.19,1.1-2.65,.36-3.79,.97-14.69,2.69-29.41,5.2-43.67,8.55-1.39-.79-1.77-1.81-2.29-2.83,6.22-6.29,10.17-13.5,8.75-23.04,9.82-1.56,19.29-3.06,28.75-4.56,1,.62,1.99,.34,2.78,.24-.21,.29-.52,0-.83-.39Z"/>
      <path class="cls-12" d="M88.3,86.48c3.47-.89,6.71-1.73,10.2-2.62,1.82,8.07-1.61,13.87-6.38,18.84-1.48,.78-2.54,.32-3.81,.12v-16.34Z"/>
      <path class="cls-4" d="M142.31,90.58c-1.57-4.29-5.57-8.09-2.21-13.79,1.51-1.36,4.44-.34,6.63-1.7,2.04-.69,1.99,1.01,1.94,2.01-.22,4.66,.15,9.35-.28,14.17-2.16,.26-4.24,1.12-6.09-.7Z"/>
      <path class="cls-1" d="M87.18,110.46c.93-2.71,2.09-3.25,4.25-1.16-1.32,1.02-2.54,1.34-4.25,1.16Z"/>
      <path class="cls-18" d="M144.87,98.19c1.17-1.8,2.09-2.3,3.4-.7-.8,1.37-1.82,1.21-3.4,.7Z"/>
      <path class="cls-20" d="M131.82,78.67c.32,.12,.64,.23,1.13,.41-1.22,.67-2.2,.69-3.08-.26l1.95-.15Z"/>
      <path class="cls-26" d="M25.4,92.06c1.72,1.23,2.58,2.66,.83,4.79-2.57,.6-3.69-.57-3.86-2.9,.59-1.49,1.55-2.01,3.02-1.89Z"/>
      <path class="cls-11" d="M62.74,15.93c.39-.04,.79-.08,1.18-.12,1.29-.75,2.7-.2,4.05-.37,1.35-.07,2.66-.39,3.99-.62,.57-.12,1.14-.17,1.64,.22,.23,.65,.31,1.3,.03,1.96-.31,.73-1.23,.47-1.65,1.02-2.28,1.26-5.2,.35-7.33,2.12-1.86,.36-.52-1.65-1.46-1.97-.68-.64-.72-1.41-.45-2.25Z"/>
      <path class="cls-17" d="M85.42,15.02c1.52,7.97,4.19,15.6,7.99,22.71,4.08,7.64,8,15.39,13.11,22.48,1.49,2.07,3.98,3.04,5.02,5.16-.21,1.14-.86,1-1.46,.98-1.36-.92-3.01,.11-4.41-.58,1.23,.69,2.81-.38,3.95,.72-1.94,1.08-4.06,.61-6.11,.68-.71-.7-1.49,.1-2.22-.09-8.12-6.11-12.95-14.55-16.72-23.72-.47-1.15-.33-2.39,.62-3.39,.58-4.39,.56-8.78,0-13.17-.14-1.17-.29-2.33-.45-3.64-2.02-1.62-4.13-3.3-6.23-4.98-.68-1-1.59-1.92-1.12-3.3,.54-1.25,1.77-.71,2.67-1.03,1.63-.28,3.26-.44,4.88,.12,.37,.26,.53,.62,.47,1.07Z"/>
    </g>
  </g>
</svg>