<?xml version="1.0" encoding="UTF-8"?>
<svg id="_レイヤー_2" data-name="レイヤー 2" xmlns="http://www.w3.org/2000/svg" viewBox="0 0 174.36 160.32">
  <defs>
    <style>
      .cls-1 {
        fill: #904426;
      }

      .cls-2 {
        fill: #fff;
      }

      .cls-3 {
        fill: #040404;
      }

      .cls-4 {
        fill: #454244;
      }

      .cls-5 {
        fill: #e0e0e0;
      }

      .cls-6 {
        fill: #f57987;
      }

      .cls-7 {
        fill: #1e731c;
      }

      .cls-8 {
        fill: #faa2ad;
      }

      .cls-9 {
        fill: #f77987;
      }

      .cls-10 {
        fill: #de391a;
      }

      .cls-11 {
        fill: #186c15;
      }

      .cls-12 {
        fill: #4a4c50;
      }

      .cls-13 {
        fill: #9bcaf6;
      }

      .cls-14 {
        fill: #1b6c19;
      }

      .cls-15 {
        fill: #070707;
      }

      .cls-16 {
        fill: #231815;
      }

      .cls-17 {
        fill: #ffef7f;
      }
    </style>
  </defs>
  <g id="design">
    <g>
      <path class="cls-16" d="M98.05,61.2c-1.26,.23-2.47-.17-3.71-.2-7.01,1.1-12.88,4.9-19.03,8.03-1.54,1.54-2.79-1.52-4.25-.22-.11,.1-.45-.46,.13-.39,1.21-2.86,3.66-4.81,5.48-7.24,.84-1.12,3.2-2.91-.18-4.09-3.25,2.37-5.67,5.51-7.49,9-2.19,4.18-5.92,4.88-9.96,5.04-2.05,.08-3.44-1.19-4.27-3.02-.82-1.82-.36-3.56,1.01-4.74,4.18-3.59,7.99-7.71,13.09-10.11,2.82-1.32,5.19-3.31,7.8-4.93,1.25-.78,1.92-2.05,1.26-3.5-1.02-2.26-2.21-4.2-5.03-4.92-3.77-.96-6.95,.88-10.39,1.29-6.19,.73-9.56,4.59-12.75,9.06-2.24,3.14-5,5.77-8.02,8.11-2.48,1.92-5.47,2.92-8.58,3.14-4.17,.3-7.35-3.28-5.94-6.72,1.31-3.2,3.01-6.06,6.87-7.16,3.41-.97,6.72-2.46,9.91-4.06,3.86-1.93,3.9-5.05,.15-7.2-2.11-1.21-4.19-2.67-6.81-2.62-1.45,.41-3.25,.21-3.78,2.21,.35,1.59,1.78,1.89,2.96,2.5,.62,.32,1.53,.47,1.4,1.43-.09,.68-.81,.86-1.36,1.11-2.02,.91-4.17,1.52-6.2,2.4-8.65,3.74-11.44,14.85-5.05,21.03,2.5,2.42,3.19,4.91,3.22,8.16,.03,3.37-.96,6.88,.88,10.11,1.57-.09,1.61-1.38,1.63-2.4,.07-3.63,.51-7.28-.29-10.89-.07-.31-.33-.61-.08-.95,.07,.55,.3,.89,.92,.71,.83-.25,.27,.65,.64,.77,1,.47,1.35-.29,1.57-.96,.49-1.52,1.37-2.59,2.95-3.02,8.62-2.38,14.59-8.35,20.13-14.89,.8-.94,1.6-1.88,2.63-2.58,1.32-.9,2.78-.71,3.71,.35,1.13,1.3-.53,1.88-1.22,2.51-3.01,2.72-6.29,5.14-9.29,7.87-3.26,2.96-4.23,7.15-2.71,10.71,1.79,4.19,4.94,6.24,9.54,6.15,2.73-.05,5.38-.57,7.93-1.54,.78-.3,1.58-.97,2.36-.13,.65,.7,.56,1.58,.21,2.43-.24,.57-.63,1.06-.75,1.68,.65,.95,1.57,1.83,.88,3.15,.59,1.01,.58,2.1,.36,3.19-.85,4.19-1.47,8.4-1.27,12.69,.15,3.17-1.33,2.88-3.28,1.5-4.32-2.02-8.72-3.79-13.45-4.61-1.79-.31-3.66-.35-5.26-1.39-.6-.48-1.12-1.07-1.86-1.36-4.97-.16-6.33,1.44-5.36,6.3,.22,1.1,.32,2.16-.32,3.2-1.67,2.75,.03,2.88,2.1,2.61,1.32-.18,2.73-.09,3.89-.96,.49-1.72-1.14-1.53-1.91-2.11-.98-.73-.84-1.73-.56-2.66,.24-.81,.99-.6,1.55-.39,5.65,2.04,11.79,2.36,17.26,5.07,2.12,1.05,3.91,2.12,3.51,4.88-.03,1.5,.3,3.09-.98,4.31-.55,.92-1.19,1.84,.07,2.73,2.43,.96,2.41,2.18-.05,4.16-.44,.37-.73,.83-.83,1.4,3.09,3.44,2.34,7.45,1.83,11.49-.21,1.62-.34,3.46,1.45,4.56,2.03-.31,1.88-1.96,1.95-3.37,.12-2.67,.02-5.35,.12-8.02,.45-1.87,.42-3.77,.32-5.67-.63-3.08-.54-6.17-.19-9.27,.22-.65,.24-1.36,.49-2.02,.04-.11,.05-.21,.07-.31-.02,.08,.1-.18,0,.19-.16,.6-.29,1.2-.36,1.8-.35,3.01-.33,6.02-.01,9.04,.1,2.01,.21,4.03-.17,6.03-.23,3.05,.24,6.04,.62,9.05-1.9,2.64-4.41,5.02-4.53,8.43-.08-.74-.1-1.48,0-2.24-.1-1.49,2.22-2.4,.98-4.16-.43-.4-1.67,.23-1.35-1.11,.31-1.32,.31-2.68,.49-4.02,.19-1.42,.18-3.11-1.35-3.4-.62-.12-.99,.15-1.26,.56,0-.81,0-1.69,0-2.8-.18,.25-.34,.47-.48,.67,.18-2.06,.86-4.07,.68-6.16,0-.39-.02-.79-.07-1.18-.07-.59-.18-1.17-.4-1.73-.22-.55-.51-1.07-.88-1.53-.92-1.13-2.16-1.51-3.55-1.36-2.16,.24-4.23,.9-6.3,1.52-1.58,.63-3.15,.64-4.72,0-2.98-1.01-6.13-1.29-9.16-2.08-1.38-.3-2.68-.82-3.95-1.41-1.54-.61-3.22-.98-4.38-2.42q3.01-1.52,3.21-3.39c-3.86-.58-7.23,1.14-10.7,2.34-3.83,4.7-5.28,10.32-6.29,16.11,.05,1.23,0,2.47,.89,3.49,.72,.53,1.46,.6,2.22,.07,1.28-1.09,.87-2.83,1.59-4.14,1.22-2.43,1.8-5.12,3.11-7.53,1.01-1.86,2.33-2.49,4.24-1.39,3.36,1.93,7.19,2.6,10.71,4.08,2.42,.81,4.94,1.17,7.44,1.67,2.02,.07,4.04,.12,6.06-.08,1.31-.28,2.59-.67,3.92-.88,1.26-.43,2.4-.2,2.47,1.25,.13,2.82,.05,5.71-1.44,8.23-.83,1.41-2.29,2.51-3.92,2.48-1.91-.03-1.2-2.09-1.79-3.18-.05-.09-.07-.14-.09-.16,.02,.02,.04,.04-.03-.19-.43-1.42-1.14-2.54-2.85-2.29-1.75,.26-1.91,1.69-2.03,3.08-.09,1.11,.06,2.21,.22,3.31,.3,2.06-.66,2.8-2.57,2.25-7.96-2.27-16.84-1.35-23.88-6.86-.35-.08-.68-.03-.99,.17-.21,2.13-3.06,1.86-3.46,3.8-.21,2.69,.72,5.44-.49,8.07-1.98,4.48,2.14,5.04,4.38,6.8,0,0,0,0,0,0,2.14,1.03,4.2,2.16,5.25,4.46,0,0,0,0,0,0,0,0,0,0,0,0,.01,.02,.02,.04,.03,.06,0,0,0-.01,0-.02,2.58,3.61,4.44,3.6,7-.03h0l-.05,.07c.27-.44,.64-.81,1.17-.67,4.91,1.24,9.98,1.36,14.96,2.11,1.58,4.96,5.39,6.79,8.72,4.07,1.54-1.26,2.38-3.13,2.72-5.1,.49-2.84,2.83-3.67,4.84-3.25,2.57,.53,4.98,.2,7.73-.21-.41,3.12-.95,5.89-1.09,8.67-.16,3.16,1.81,4.51,4.78,3.41,1-.37,1.86-1.1,2.78-1.67-.14-1.34-.72-2.43-1.77-3.27-1.04-1.03-.81-2.31-.47-3.47,1.21-4.15,.78-8.29,.2-12.46-1.05-7.45-1.35-14.94-1.43-22.48-.13-12.82,.52-25.61,.76-38.42,.05-2.76,1.33-4.2,3.61-5.42,6-3.21,12.25-5.79,18.67-7.98,.89-.52,1.59-1.22,2.06-2.15-.04-1.35-1.04-1.37-2-1.43ZM27.2,148.97c.01-.16,.03-.31,.05-.47,0,0,0-.02,0-.03,.57,.72,1.61,.99,2.09,1.79-.92-.08-2.02,.13-2.13-1.29Zm33.51-5.8c-1.11,.89-1.73-.15-2.49-.64-5.31-3.46-8.22-2.55-11.04,3.45-.07,2.66-2.16,2.31-3.84,2.58-.32,.07-.63,.14-.94,.25-1.54,.42-3.06,.58-4.54-.22-.43-.25-.87-.49-1.35-.66-.68-.22-1.37-.31-2.08-.33-1.26-.02-2.51-.07-3.71-.47-.93-.18-2.65-.85-3.78-.7-.24-.28-.55-.53-.79-.81-1.28-1-2.88-1.31-4.29-2.02-1.24-.63-2.47-1.15-2.23-2.89-.02-.66-.1-1.34,.3-1.9,.94,.57,2.06,.8,2.98,1.38,1.1,.34,2.19,.41,3.3,.07,.03,.18,.09,.35,.19,.52,.92,.93,1.9,1.65,3.31,1.13,.38,.26,.77,.21,1.16-.17,0,.08-.01,.15,0,.23,.28,.28,3.59,.81,4.9,.84,1.38,.1,2.82-.4,4.16,.35,.05,2.18-2.2,1.14-3.02,2.14-.24,.29-.27,.59-.06,.9l1.48,.99c1.61,.45,3.11,.17,4.52-.7,1.23-2.21,1.69-4.25-1.27-5.49-1.02-.32-2.06-.3-3.11-.26-1.28-.11-2.56-.21-3.84-.32-.25-.02-.5-.04-.75-.05-.16-.2-.35-.23-.57-.09-2.04-.46-4.07-.91-6.11-1.37-1.62-.98-3.19-2.09-5.17-2.26-.03-.13-.08-.27-.15-.43-.55-.75-1.8-.93-1.79-2.16,.94-.64,1.69-.04,2.36,.4,3.29,2.18,7,2.84,10.84,3.21,2.81,.27,5.6,.73,8.34,1.47,6.99,1.87,15.65-1.45,19.75-7.52,.05-.13,.08-.26,.13-.38,.22-.02,.34,.06,.42,.2-.24,3.92-.17,7.87-1.22,11.72Zm4.79,.89c.03,.19,0,.16,0,0h0Z"/>
      <path class="cls-16" d="M24.86,150.92s-.01-.03-.02-.05c0,0-.01-.01-.02-.02l.04,.07Z"/>
      <path class="cls-16" d="M171.08,32.17c2.64-1.59,.59-4.24,1.4-6.27,.24-.61-.8-1.71,.73-1.86,1.73,3.27,1.18,6.97,.52,10.07-2.73,12.96-2.55,26.12-3.71,39.19-1.07,12.02-2.58,24-2.83,36.09-.03,1.35,0,2.74,.25,4.05,.91,4.68,.57,5.77-3.93,7.47-4.48,1.69-8.78,3.86-13.51,4.97-2.95,.7-5.88,1.74-8.19,4.05-1.01,1.01-2.44,1.73-3.8,2.25-9.9,3.81-18.58,9.99-28.23,14.29-1.78,.79-3.4,1.92-5.09,2.9-1.77-1.23-5.41,1.39-5.76-2.79,.21-.29,.48-.48,.82-.58,1.37,.04,2.76,.19,3.83-.98,2.1-1.77,4.52-3.12,7.01-4.12,8.6-3.44,15.91-9.43,24.72-12.41,.23-.08,.49-.15,.67-.31,6.72-5.93,15.58-7.1,23.46-10.44,2.51-1.06,3.49-2.31,3.38-5.22-.42-11.46-.03-22.87,1.9-34.25,1.34-7.86,1.62-15.88,1.69-23.89,.05-6.32,1.1-12.51,3-18.55,.79-1.12,.55-2.71,1.69-3.66Z"/>
      <path class="cls-16" d="M99.27,146.2c-.09,1.3,.69,2.67,1.74,2.12,1.87-.98,2.93,.77,4.22,.73-2.4,1.41-5,3.96-8.22,1.16-1.29-1.13-3.73,.49-5.48,1.36-4.4,2.18-8.74,4.46-13.11,6.71-.59-.82-1.19-1.64-1.78-2.45,1.17-3.7,4.47-5.04,7.52-6.54,1.98-.98,4.16-1.59,6.31-2.14,2.49-.63,4.55-1.75,5.95-3.93,1.83-.1,.3,3.12,2.57,2.6,.1,.14,.18,.27,.27,.4Z"/>
      <path class="cls-8" d="M96.81,143.07c-.28,2.57-1.6,3.67-4.25,4.35-5.89,1.52-11.77,3.41-15.91,8.39-2.12,.9-2.36-.32-1.96-1.89,1.53-5.97,.96-11.88,.24-17.92-1.68-14.09-1.02-28.26-.8-42.4,.1-6.02,1.27-12.02,.54-18.08-.13-1.1,.26-1.83,1.32-2.33,7.32-3.46,14.32-7.69,22.41-9.28,2.02,.45,1.68,2.15,1.73,3.52,.11,3.16,.07,6.33,.02,9.49,.02,.68-.08,1.35-.24,2.01-.97,3.65-.3,7.38-.48,11.07,.05,1.79,.14,3.58,.04,5.37-.34,7,.14,13.96-1.29,20.99-1.4,6.87,.98,13.97,.5,21.01-.14,2.07,.16,4.27-1.89,5.7Z"/>
      <path class="cls-9" d="M32.54,70.23c.09-3.49,2.17-4.85,5.35-5.66,7.29-1.87,12.07-7.35,17.01-12.52,1.1-1.16,1.99-2.52,3.09-3.68,1.91-2.01,5.58-1.83,7.35,.25,.71,.84,.23,1.19-.43,1.71-3.68,2.88-7.3,5.83-10.97,8.73-3.26,2.57-4.68,6.75-3.38,10.16,1.61,4.21,4.86,6.32,9.51,5.96,2.57-.2,5.11-.62,7.5-1.74,1.02-.48,2.49-2.13,3.08-.92,.72,1.5,1.78,3.67-.04,5.43-.35,.34-.76,.6-1.14,.9-3.74,3.31-8.24,5.35-12.78,7.17-4.57,1.83-9.19,3.53-13.63,5.69-2.4,1.17-3.92,2.48-3.24,5.69,1,4.67-2.71,7.8-7.4,6.73-1.81-.41-2.59-1.69-2.36-3.24,1.44-9.55,1.27-19.16,1.48-28.77,.02-.74,.33-1.44,1-1.89Z"/>
      <path class="cls-2" d="M25.77,146.22c-1.75-.71-3.47-1.53-5.27-2.11-2.26-.72-2.63-1.9-1.24-3.75,.68-.22,1.23,.11,1.79,.41,1.21,.73,2.48,1.34,3.84,1.76,1.85,.67,3.61,1.56,5.53,2.04,.48,.12,.96,.27,1.43,.43,1.11,.42,2.28,.4,3.44,.42,.52,0,1.13,.75,1.63,.87,.67,.17,1.16-.2,1.77,.1,1.22,.46,2.43,.9,3.31-.58,.87-1.78,.65-3.21-1.31-4.08-1.84-.75-3.77-.28-5.65-.45-.36,0-.72-.05-1.07-.11-.36-.05-.71-.14-1.06-.23-1.91-.55-3.96-.43-5.81-1.24-1.8-.84-3.76-1.41-5.07-3.05-.85-.37-1.67-.79-2.54-1.08-1.38-.47-.96-1.58-.82-2.44,.21-1.32,1.4-1.06,2.02-.61,6.55,4.77,14.58,4.02,21.91,5.82,7.34,1.81,13-1.89,18.03-6.77,1.8-1.92,1.73-.35,1.8,.96,.2,4.14-.74,8.18-1.13,12.27-.81,.63-1.28,1.62-2.46,.01-4.07-5.55-8.28-4.84-10.92,1.31-.59,3.25-3.3,2.55-5.44,2.92-1.92,.28-3.83,.5-5.63-.52-.73,0-1.45-.01-2.18-.02-.24-.22-.5-.42-.79-.57-1.15-.25-2.35-.11-3.48-.51-1.69,.11-3.21-.37-4.65-1.2Z"/>
      <path class="cls-6" d="M94.49,61.74c-6.91,1.5-12.96,4.98-19.08,8.3-2.33,.7-3.59-.54-1.98-2.22,3.53-3.69,5.43-8.44,8.78-12.18,.91-1.01,1.94-1.89,3.44-1.87,3.6,.92,6.3,3.74,9.9,4.67,.8,.63,1.28,1.38,.94,2.45-.46,.76-1.38,.42-1.98,.84Z"/>
      <path class="cls-1" d="M64.35,44.4c2.66-.85,4.44-3.09,7.56-1.32,1.41,.8,2.75,1.46,2.56,2.86-.21,1.54-2.55,1.74-3.28,1.45-2.17-.85-4.75-.95-6.83-2.98Z"/>
      <path class="cls-16" d="M33.86,35.97c-1.4-.26-1.73-1.84-2.92-2.35,.76-4.55,3.67-3.99,6.81-2.87-1.64,1.21-1.05,2.39,.05,3.56-1.14,.98-2.94,.37-3.94,1.66Z"/>
      <path class="cls-5" d="M68.64,141.83c-.24-1.79-.06-3.27,1.73-3.3,2.31-.04,1.04,1.95,1.34,3,.42,1.51-.27,3.03-1.77,3.05-2.04,.03-.83-2.06-1.3-2.76Z"/>
      <path class="cls-2" d="M64.31,139.67c1.82,.32,1.95,1.02,.72,3.83-1.22-1.09-.49-2.55-.72-3.83Z"/>
      <path class="cls-12" d="M50.95,151.49c.39-1.03,.98-2.03,1.11-3.09,.19-1.56,1.99-3.7,.34-4.51-1.36-.67-1.87,2.08-2.93,3.15-1.28,1.73-1.99,3.46,0,5.19,.25,.25,.49,.5,.74,.75h0c.53,.66,.45,1.94,2.18,1.78-.52-1.18-.98-2.22-1.44-3.26h0Z"/>
      <g>
        <path class="cls-16" d="M64.46,121.01c-.11-.01-.1-.91-.15-1.39h0c.25-.25,.49-.49,.74-.74,4.17,.79,1.91-2.47,2.11-3.75,.41-2.61-.95-1.78-2.11-.69-1.18-.74-.2-1.48,0-2.22h0c2.7-.77,1-2.98,1.47-4.49-.82,.54-.47,1.63-.84,2.39-.21-1.4-1.22-2.29-2.34-3.1-1.39-1-2.97-1.62-4.5-2.33-2.82-1.28-5.94-1.4-8.86-2.32-1.38-.44-2.83-1.02-4.16,.19-2.05-.18-4.06,.29-6.34,.76,1.74-2.36,2.11-3.55,1.73-5.19-1.11-4.79-.37-5.71,4.72-5.87,.67,.26,1.3,.03,1.93-.18,2.14-.79,4.31-1.5,6.49-2.16,.31-.11,.62-.23,.91-.39,1.65-.85,3.44-1.3,5.17-1.93,.31-.14,.62-.29,.9-.49,2.17-1.56,4.46-2.91,6.88-4.04,.86-.4,2.28-.43,2.02-2.02,1.51-1.36,1.15-2.06-.78-2.21-7.68,3.23-15.06,7.09-22.87,10.08-4.09,1.57-9.26,3.6-7.66,10.29,.61,2.54-2.57,4.62-6.12,4.15-2.96-.39-1.74-2.9-1.52-4.41,1.41-9.55,1.14-19.15,1.24-28.75-.08-1.06-.16-2.12-.25-3.36-.66,1.43-1.28,1.33-2.1-.05,0,1.73,.1,3.17-.02,4.59-.33,3.72,.84,7.52-.67,11.16-.51,5.5-1.3,10.99-1.44,16.49-.09,3.59,.26,6.89-4.33,7.82-.44,.09-.74,.88-1.1,1.35,3.69,.39,6.84-2.06,10.48-1.95,.6,.61,1.34,.74,2.15,.64,2.85-.48,5.64-2.06,8.6-.43,1.71,.84,3.54,1.29,5.43,1.48,2.14,0,4.22,.21,6.14,1.25,1.16,.73,2.43,1.19,3.75,1.52,.79,.2,1.59,.4,2.08,1.15,.17,.25,.33,.51,.51,.77,.28,.52,.51,1.05,.7,1.61,.28,.89,.36,1.82,.62,2.72,.03,.08,.05,.16,.08,.24-.14,.25-.21,.54-.22,.87,.03,.39,.14,.79,.22,1.17-.16-.17-.48-.28-1.1-.3,.48,2.76-1.03,5.35-.72,8.1,.71,.16,1.12,0,.9-.84,.59,.52-.1,1.01-.06,1.53,.05,.61,.16,1.13,.65,1.53,.41-.55,.48,.1,1.48-1.24-.08,3.89,.02,5.73-.75,8.91,1.17-.4,2.07-.7,2.96-1.01,.09-2.91,.09-5.8,.55-8.73,.34-2.16,1.73-5.61-2.62-6.18Z"/>
        <path class="cls-16" d="M69.44,126.23c-.06-.56-.31-1.03-.71-1.42-1.55,2.51-.35,5.27-.72,7.89-.18,1.22,.58,2.87-1.48,3.22-.29,1.51-2.09,2.13-2.21,3.74,1.26,1.09,.54,2.54,.72,3.83-1.24,1.95,.16,2.2,2.04,2.72-1.64-5-.43-8.78,3.84-11.39,.07-.04,.05-.23,.08-.35-2.51-2.38-1.09-5.5-1.55-8.26Z"/>
      </g>
      <path class="cls-7" d="M47.99,92.2c-.29,.72-.81,1.22-1.52,1.51-.66-.31-.67-.86-.55-1.46,.45-.23,.9-.46,1.35-.69,.34,.1,.58,.31,.72,.63Z"/>
      <path class="cls-12" d="M56.93,146.96s0,0,0,0c-3.55-2.82-2.79,1-3.42,2.33-.83,1.74-.37,3.94,1.18,4.49,2.07,.73,1.14-2.16,2.25-2.93,.9-1.3,.94-2.6,0-3.89Z"/>
      <path class="cls-11" d="M69.82,125.71c0-.25-.13-.55-.34-.89,0,0,0,0,0,0h0c1.24-1.86,.66-3.94,.74-5.94,0-3.46,0-6.91,.01-10.37-.05-1.03,.31-2.1-.29-3.11-.86,.64-.4,1.53-.49,2.3,0,0,0,0,0,0-.24,.52-.47,1.04-.71,1.56-1.21,3.21-1.22,6.43,0,9.64h0s0,0,0,0c0,1.97-.02,3.95-.03,5.92,.05,.49,.09,.99,.14,1.48-.03,2.3,0,4.61-.09,6.91-.07,1.92,.8,2.01,2.21,1.29-.72-2.87-.22-5.94-1.16-8.78Z"/>
      <path class="cls-8" d="M103.05,60.42c.28-.22,.55-.44,.83-.66,3.97-2.19,8.5-2.92,12.56-4.95,7.22-3.62,14.49-7.16,21.84-10.51,6.03-2.75,12.35-4.8,18.48-7.32,3.63-1.49,7.34-2.72,10.72-4.75l1.38-.16c3.24,.24,1.47,2.36,1.44,3.83-1.65,7.19-2.61,14.36-2.86,21.82-.25,7.41-.3,14.99-1.82,22.4-2.31,11.29-2.59,22.74-1.48,34.19,.19,1.94-.59,2.76-2.02,3.4-1.8,.8-3.59,1.8-5.48,2.18-9.57,1.89-17.69,7.18-25.96,11.7-9.01,4.93-18.72,8.63-27.1,14.73-1.21,.6-2.45,.45-3.69,.1-.18-.15-.39-.22-.63-.2,0,0,.02,.02,.02,.02-1.78-2.47,.46-4.57,.64-6.86,.66-3.39,.74-6.78-.13-10.16-1.13-5.91-.11-11.77,.48-17.64,.11-.63,.21-1.26,.39-1.87,.68-4.64,.71-9.27-.09-13.9-.45-2.62-.33-5.24,0-7.87,.99-3.18,.26-6.46,.61-9.68,.04-.45,.12-.88,.23-1.32,.82-3.51,.19-7.07,.42-10.6,.13-2.02-.32-4.18,1.22-5.93Z"/>
      <path class="cls-17" d="M19.06,138.1c1.44-.2,2.74-.03,3.62,1.31,.09,.55-.16,.95-.55,1.28-.57,.4-1.22,.43-1.89,.38-.33-.24-.66-.48-.99-.72-.04-.76-1.58-1.38-.2-2.27Z"/>
      <path class="cls-4" d="M27.35,148.42c.72,0,2.43,.49,2.11,2.33-1.42,.92-2.55,.51-3.31-.87-.59-1.06,.48-1.32,1.19-1.46Z"/>
      <path class="cls-13" d="M59.6,120.8c-.17-2.72-1.31-3.22-3.55-1.96-1.32-.14-2.49,.29-3.63,.88-2.22-.03-4.43-.05-6.65-.08-2.36-.98-4.89-1.22-7.37-1.63h0c-3.69-1.91-7.97-2.42-11.44-4.94-1.46-1.06-2.85-.18-3.53,1.42-1.26,2.93-2.44,5.9-3.66,8.85-1.27,1.32-.47,2.96-.68,4.44,.28,0,.56,0,.84,0h0s0,0,0,0c2.26,1.55,4.12,3.76,6.91,4.45,5.98,1.48,12.24,1.46,18.17,3.35,2.18,.7,3.24-.39,2.74-2.8-.32-1.56-.45-3.17-.6-4.77-.07-.8,.26-1.47,1.15-1.61,.96-.15,1.8,.13,2,1.16,.29,1.45,.51,2.92,.61,4.4,.12,1.77,.65,1.98,2.3,1.21,5.35-2.51,6.85-5.34,6.41-12.34Z"/>
      <g>
        <path class="cls-16" d="M173.21,24.04c-7.68-3.83-15.42-7.54-23.56-10.32-11.27-3.85-22.99-6.17-34.03-10.88-4.53-1.93-9.6-4.17-14.98-1.85-12.09,5.21-24.42,9.82-36.79,14.34-7.54,2.75-13.94,7.97-21.47,10.54-6.89,2.35-13.72,4.76-20.38,7.66-1.85,1.21-4.49,.11-6.07,2.1,.06,.1,.13,.18,.19,.26,0,0,0,0-.01,0-.7-.65-1.28-.25-1.87,.2-1.01,1.01-2.44,1.29-3.57,2.11-1.14,.56-2.27,1.15-3.43,1.66-4.91,2.18-5.44,3.17-4.03,8.36,.47,1.72,.42,3.43,.32,5.13-.3,5.53-.81,11.05-1.05,16.58-.46,10.56-.23,21.19-1.34,31.69C-.02,112.65,.63,123.67,0,134.69c-.08,1.36,.4,2.41,1.86,2.78,1.23,.42,2.45,.54,3.66-.06,1.62-2.62,4.76-3.18,6.91-5.08,.48-.28,.96-.56,1.44-.83,.76,.26,1.64,.26,1.54,1.53-.16,2.18-.16,4.37-.23,6.56,1.95-2.78,.44-5.91,.91-8.84,1.94-.03,6.12-1.17,2.91-3.92-.74,0-1.43,.96-2.17,.96-.02-1.28-.03-2.56-.05-3.83-.93,1.11-.2,2.84-1.46,3.82-3.26,.55-6.25,1.67-8.64,4.02-.11,.02-.21,.04-.32,.04-.45,.08-.89,.17-1.36,.1-1.09-6.66-.34-13.38-.41-20.09,0-2.23,.52-4.39,.88-6.58,1.01-6.2,2.3-12.51,1.57-18.71-.69-5.85-.16-11.49,.16-17.26,.39-6.85,1.13-13.72,.52-20.61-.29-1.09-1.73-2.21,.06-3.25,2.03-1.66,5.31-1.8,6.11-4.98,0-.02,.02-.04,.03-.06,.04,.08,.08,.15,.12,.23,.69,.38,1.48,.47,2.12,.13,4.76-2.53,10.06-3.77,14.81-6.32,1.54-3.03,3.81-4.2,7.1-2.85,1.77,.14,3.35-.54,5.01-1.06,5.5-1.73,9.99-5.34,15.08-7.84,13.55-6.67,28.53-9.71,41.95-16.66,3.01-1.56,6.09-1.39,9.35-.46,7.37,2.11,14.24,5.73,21.7,7.47,12.7,2.95,24.78,7.47,36.5,13.13,.52,.23,.96,.49,.41,1.08-1.12,.8-2,1.79-2.32,3.19-.29,1.23-.03,2.14,1.38,2.41,.52,.06,1.03,.03,1.54-.09,.96-.35,1.93-.17,2.89-.12,1.03-.11,1.75-.83,1.51-1.71-.64-2.34,.56-4.59,.13-6.88ZM18.49,35.93s0,0,0,0c0,0,0,0,0,0,0,0,0,0,0,0Z"/>
        <path class="cls-16" d="M5.53,137.4c-1.22,.02-2.44,.04-3.66,.06,1.24,1.11,2.46,1.15,3.66-.06Z"/>
        <path class="cls-16" d="M4.27,130.35c-.44-6.11,.63-12.28-.69-18.37-.03,6.74-.06,13.48-.07,20.22,0,.7-.2,1.66,.7,1.87,.85,.21,1.24-.55,1.45-1.31-2.43,.36-1.32-1.55-1.39-2.42Z"/>
      </g>
      <path class="cls-15" d="M7.54,44.86c-1.33,.58-1.22,1.73-1.12,2.86-1-1.49-1.31-2.72,1.12-2.86Z"/>
      <path class="cls-11" d="M62.3,101.75c-5.8-2.89-12.44-2.83-18.28-5.52-1.41-.65-1.77,.15-2.1,1.53-.84,3.47,1.62,4,3.88,4.79,4.42,1.01,8.85,2.01,13.27,3.02,1.26,.69,2.53,1.37,3.79,2.06,0,0,0,0,0,0,.94,.87,2.08,1.6,2.19,3.06,2.06-.22,.41-2.24,1.45-2.96,.54-3.36-1.58-4.67-4.2-5.98Z"/>
      <path class="cls-14" d="M70.23,81.06c-3.21,2-7.09,2.9-9.69,5.91-1.84,1.08-3.99,1.38-5.92,2.22,0,0,0,0,.01-.01h0c-2.6,.34-5.04,1.2-7.37,2.4,.16,.14,.31,.27,.47,.41-.6,.43-1.14,.92-1.26,1.74,6.31,2.23,13.07,2.99,19.15,5.96h0c.96,1.31,2.39,2.09,3.81,1.51,1.34-.54,.75-2.21,.73-3.37-.08-4.33,.53-8.57,1.27-12.82,.23-1.34,1.29-3.29-1.2-3.95Zm-9.69,5.91h0s0,0,0,0h0Z"/>
      <path class="cls-2" d="M63.5,118.09l.16-1.44c-.38-.98,.17-2.2-.77-3.04-.25-.48-.5-.96-.75-1.44-.29-1.22-.9-2.08-2.29-2.1-1.28-.52-2.56-1.04-3.85-1.57-2.01-1.25-4.29-1.42-6.56-1.6-1.74-.46-3.48-.91-5.22-1.37-3.17-1.64-6.13-.27-9.11,.65h0c-.67,.02-1.34,.05-2.01,.07-1.53,1.71-3.99,1.45-6.19,2.67,2.43,1.35,3.89,3.62,6.69,3.37,1.3,.55,2.61,1.1,3.91,1.65,3.16,.68,6.33,1.36,9.49,2.04,1.62,.98,3.25,1.03,4.86-.01h0c1.55-.27,3.17-.34,4.63-.86,1.86-.66,3.52-1.13,4.9,.78,.46,.44,.33,.51,.54,.93,.05,.43,.1,.85,.15,1.28-.01,.27-.03,.55-.04,.82,.41,.71,.81,1.41,1.45,2.52,0-1.45,0-2.41,0-3.38h0Z"/>
      <path class="cls-16" d="M35.56,143.41c-1.51-.21-2.92-1.4-4.08-.11-.03-.26-.26,.15-.4-.09-.27-.24-.57-.43-.91-.56-1.66-.21-3.09-1.41-4.86-1.18,0-.11-.03-.23-.1-.36-.92-.98-2.13-.64-3.25-.74-.69-.05-3.13-.81-3.38,.23,1.23,.95,4.22,2.17,5.73,2.56,1.96,.72,3.93,1.44,5.89,2.15,.48,.1,.97,.2,1.45,.3,1.14,.78,2.6-.19,3.72,.69,.49-.03,.98-.05,1.47-.08,.02-.27,.04-.54,.05-.81,.08-1.03-.48-1.62-1.36-1.99Z"/>
      <path class="cls-3" d="M98.94,115.42v10.06c-.12,0-.25,0-.37,0v-10.19c.12,.05,.25,.09,.37,.14Z"/>
      <path class="cls-3" d="M99.34,139.6v-9.42c.1,0,.21,0,.31,0v9.43c-.1,0-.21,0-.31,0Z"/>
      <path class="cls-16" d="M166.53,30.4c-9.45,4.09-19.22,7.41-28.65,11.51-4.26,1.86-8.92,3.09-12.77,5.64-5.44,3.6-11.64,5.27-17.42,7.96-6.15,2.87-11.79,1.62-17.33-2.13-2.3-1.55-4.91-4-8.3-2.01h0c-1.74,1.99-3.49,3.97-5.23,5.96,1.3,2.25-.6,3.36-1.83,4.46-2.67,2.39-4.3,5.35-5.75,8.77,1.49-.12,2.57-3.14,3.9-.11,.26,.6,1.6,.38,2.26-.41-1.45,.07-3.35,.22-1.29-1.87,2.61-2.65,4.5-5.75,6.44-8.88,1.25-2.01,2.75-4.07,5.25-4.89,0,0,0,0,0,0h0c3.13,1.49,5.61,4.32,9.36,4.54h0c.65,.55,1.49,1.02,.99,2.11-.63,.04-1.25,.1-1.66,.68,1.07-.25,2.08,1.41,3.18,.08,.82,.03,1.69-.13,2.22,.74h0c-.9,.01-1.43,.42-1.49,1.36,1.27,.51,.8,1.64,.81,2.52,.04,3.64,0,7.29,0,10.94-.04,.42-.09,.83-.13,1.25h0c-1.14,3.73-.5,7.55-.6,11.34-.39,1.74-.47,3.47-.02,5.21-.06,5.16,.6,10.45-.37,15.43-1.21,6.26-1.42,12.3-.61,18.58,.59,4.59,.65,9.31-.68,13.88,.26,1.5-.61,3.89,2.49,3.15-.52-2.35,1.76-4.08,1.4-6.39,1.03-3.56,1.21-7.12-.03-10.68,0,0,0,0,0,0-.78-5.94,.03-11.81,.65-17.7,.04-.36,.09-.72,.13-1.09,.85-4.87,.99-9.74-.03-14.61,0,0,0,0,0,0,0-2.56,.02-5.12,.03-7.68,.99-3.27,.46-6.63,.62-9.95,.18-.19,.21-.4,.09-.64,.91-1.18,.61-2.58,.64-3.9,.11-4.18,.17-8.37,.24-12.55,.17-.17,.34-.33,.48-.52,.19-.28,.26-.55,.24-.83,.04,.02,.08,.03,.13,.05,.97-.13,1.95-.17,2.9-.4,10.76-2.58,19.86-8.97,29.91-13.19,7.35-3.08,14.81-5.86,22.19-8.84,3.14-1.27,6.59-1.96,8.6-5.11-1.51,.02-1.11-.97-.96-1.82ZM100,98.58v-.24s.01,.06,.02,.09c0,.05-.02,.1-.02,.15Z"/>
      <path class="cls-17" d="M36.92,145.4c-.29-.37-.57-.74-.86-1.11-.26-.33-.32-.7-.17-1.1,.33-.54,.83-.81,1.43-.93,1.3,.19,2.72-.54,3.91,.5,.47,4-2.7,2.06-4.32,2.64Z"/>
      <path class="cls-2" d="M36.2,142.5c-1.44,0-4.31-.04-4.31-.09,0-.17-4.4-1.6-5.39-2.05-.13-.19-2.65-.84-3.82-.95-.24,.32-.47,.64-.71,.96,.74,1.09,1.35,.81,2.29,1.2,.03,.3,.68,.21,.71,.51,1.75,.38,5.58,1.39,5.81,1.37,1.77,.45,3.56,.26,5.35,.11,.2-.3,.39-.6,.59-.9-.17-.07-.34-.13-.52-.16Z"/>
      <path class="cls-8" d="M3.57,111.98c.53-7.2,2.2-14.28,2.41-21.53,.05-1.58,.28-3.09,0-4.7-.58-3.37-.84-6.73-.49-10.23,.8-8.05,1.09-16.15,1.57-24.23,.07-1.23,.06-2.47-.65-3.56-.56-1.32-.51-2.4,1.12-2.86,1.94-1.74,4.68-2.32,6.38-4.42,1.83,.21,3.33-.8,4.68-1.69,3.81-2.5,8.49-2.8,12.33-5.15,1.86-.31,2.37,1.04,2.92,2.35,1.51,1.63,3.83,1.47,5.61,2.58,1.65,1.03,1.67,1.65-.08,2.35-2.62,1.06-5.2,2.28-7.9,3.07-5.05,1.47-7.06,5.55-8.53,9.87-1.62,4.75,.66,8.52,4.41,11.18,1.84,1.31,2.11,2.67,2.08,4.6-.07,4.31,.03,8.62,.05,12.94,1.67,3.71-.09,7.43,0,11.15,.04,1.56-.63,3.16-.43,4.74,.65,5.15-1.22,8.55-6.45,9.77-2.85,4.9-4.71,10.18-5.83,15.72-.73,1.27,.12,2.98-1.15,4.11-3.17,1.15-6.18,2.65-9.26,4.02-.25,.23-.49,.46-.74,.7-2.23,1.07-1.73-.77-1.75-1.76-.06-5.14,0-10.27-.04-15.41,0-1.21,.25-2.45-.29-3.62Z"/>
      <path class="cls-8" d="M168.81,27.71c-1.18,.54-2.16,1.24-2.28,2.68-1.54,1.63-3.4,3.05-5.46,3.58-6.01,1.54-11.4,4.57-17.18,6.68-7.12,2.6-14.07,5.73-20.81,9.29-6.32,3.34-12.92,6.09-19.84,7.91-4.95,2.17-6.94-.77-12.21-2.99-2.53-1.41-4.87-3.46-8.11-2.84-2.32,1.44-3.19,4.53-6.09,5.31-2.84,3.65-6.32,6.76-8.24,11.17-1.15,2.62-9.09,4.54-11.79,3.35-4.27-1.89-4.88-6.91-1.19-10.03,6-5.07,12.37-9.59,19.29-13.32,1.15-.62,3.32-1.31,2.61-2.55-.94-1.65-1.19-4.18-3.33-4.8-1.24-.36-2.71-1.03-3.86-.81-7.42,1.39-14.96,2.46-19.5,9.9-3.68,6.02-8.96,10.35-15.98,12.16-3.12,.8-5.87,.06-7.93-2.58-1.94-2.49-.93-4.74,.3-7.19,1.65-3.29,3.86-5.4,7.6-6.29,3.08-.73,5.96-2.31,8.91-3.55,1.46-.61,2.59-1.65,2.55-3.31-.04-1.43-1.29-1.91-2.5-2.36-2.07-.77-3.69-2.49-5.98-2.81-2.08-1.16-2.08-2.34-.05-3.56,4.75-.08,8.76-2.37,12.55-4.74,6.52-4.08,13.51-7.07,20.65-9.75,8.72-3.27,17.89-5.36,26.04-10.09,5.19-3.01,10.56-2.83,15.88-.58,13.73,5.82,28.54,8.34,42.35,13.89,4.55,1.83,8.93,4.07,13.39,6.12,1.56,.57,1.4,1.3,.19,2.12Z"/>
      <g>
        <path class="cls-16" d="M113.22,23.29c-2.17,.13-4.23-.78-6.54-.08-2.42,.74-4.46,1.18-5.05,4.23-.44,2.29-5.64,4.69-8.03,3.81-2.88-1.06-4.58-3.46-4.54-6.52,.04-3.02,2.05-4.58,5.01-4.94,1.57-.19,2.92,.49,4.21,1.17,1.36,.72,2.53,1.02,3.44-.52,.67-1.14,1.78-2.34,1.04-3.72-.81-1.51-2.36-1.6-3.91-1.14-.71,.21-1.38,.55-2.1,.7-.65,.14-1.18-.21-1.53-.78-.41-.66-.13-1.31,.35-1.64,2.42-1.67,5.09-1.9,7.74-.73,2.1,.92,3.44,2.44,2.48,4.99-.45,2.11-1.65,3.64-3.05,4.26,3.09-2.79,7.3-1.64,11.39-1.35,3.03,1.29,5.04,3.48,4.39,6.86-.55,2.86-2.39,5.02-5.66,5.23-1.01,.06-2.41,.47-2.57-1.21-.14-1.5,1.15-1.25,2.06-1.43,2.74-.57,3.74-2.27,3.14-4.96-.24-1.26-1-1.97-2.25-2.2Z"/>
        <path class="cls-16" d="M94.94,48.64c-2.56,.01-5.2,.82-7.65-.42-.89-.45-2.3-.97-1.69-2.41,.62-1.46,1.67-.8,2.76-.35,3.6,1.48,7.3-.35,10.95,.16,1.14,.16,2.87-.55,3.02,1.14,.16,1.85-1.59,1.84-2.96,1.86-1.48,.03-2.96,0-4.44,0Z"/>
        <path class="cls-16" d="M69.85,37.54c0,.95-2.81,1.67-3.87,.12-2.12-3.14-2.03-6.94-2.54-10.53-.09-.62,.55-1.17,1.17-1.25,.84-.11,1.39,.45,1.6,1.24,.39,1.41,1.07,2.86,1,4.26-.14,2.72,2.64,5.21,2.64,6.16Z"/>
        <path class="cls-16" d="M80.87,24.61c2.02-.08,3.29,1.04,3.39,2.95,.11,2.13-1.7,3.01-3.4,3.04-1.58,.03-3.67-.27-3.58-2.65,.08-2.11,1.31-3.36,3.6-3.34Z"/>
        <path class="cls-16" d="M94.4,40.55c-2.28,.04-2.86-1.38-2.8-3.16,.08-2.29,1.63-3.27,3.68-3.33,1.97-.06,3.08,1.45,3.01,3.09-.1,2.2-1.56,3.55-3.89,3.4Z"/>
        <path class="cls-10" d="M99.06,25.51c-.13,2.42-2.08,2.53-3.48,2.76-2.21,.35-3.36-1.2-3.73-3.19-.32-1.71,.74-2.49,2.33-2.57,2.37-.12,3.85,1.17,4.87,3Z"/>
      </g>
    </g>
  </g>
</svg>