<?xml version="1.0" encoding="UTF-8"?>
<svg id="_レイヤー_2" data-name="レイヤー 2" xmlns="http://www.w3.org/2000/svg" viewBox="0 0 85.05 271.48">
  <defs>
    <style>
      .cls-1 {
        fill: #231815;
        stroke: #231815;
        stroke-linecap: round;
        stroke-linejoin: round;
        stroke-width: .5px;
      }
    </style>
  </defs>
  <g id="design">
    <g>
      <path class="cls-1" d="M62.09,10.32c.44-.03.83.09,1.17.37.33.27.53.63.58,1.07.06.46-.07.89-.38,1.26-.31.38-.69.59-1.16.65-.88.08-1.8.2-2.77.36-.96.16-1.93.32-2.91.49-.23.05-.33.2-.3.43.18,1.05.33,2,.44,2.83.12.84.2,1.45.24,1.84.24,1.96-.02,3.51-.79,4.63-.77,1.13-1.99,1.79-3.67,2-.41.05-.87.07-1.37.05-.5-.02-1.03-.06-1.59-.12-.37-.06-.69-.22-.94-.49-.26-.27-.4-.57-.45-.91-.06-.52.07-.96.39-1.32.32-.37.73-.58,1.22-.64.05,0,.12-.01.19-.02.08,0,.16,0,.24.01.74.09,1.36.11,1.85.05.83-.1,1.31-.41,1.44-.92.13-.51.15-1.17.05-1.97-.04-.36-.12-.92-.23-1.68-.11-.76-.23-1.62-.37-2.57-.03-.28-.17-.39-.39-.31-1.32.32-2.67.64-4.05.97-1.37.32-2.76.65-4.16.98-.23.05-.33.2-.3.43l1.12,9.14c.15,1.21.38,2.17.7,2.86s.83,1.15,1.54,1.36c.71.21,1.73.24,3.07.08,1.06-.13,2.38-.37,3.96-.72,1.58-.35,3.48-.79,5.69-1.32.51-.11.96-.03,1.37.25.4.28.63.68.7,1.19.05.44-.05.86-.32,1.26-.27.4-.63.65-1.09.76-2.09.46-3.94.87-5.55,1.21s-3.02.58-4.23.73c-2.74.33-4.74.08-6.03-.76-1.17-.77-1.97-1.83-2.39-3.17-.43-1.34-.74-2.83-.94-4.48l-.94-7.7c-.03-.26-.16-.35-.39-.27-.87.16-1.74.31-2.62.46-.87.15-1.75.26-2.63.34-.42.02-.8-.1-1.16-.37-.36-.27-.57-.62-.62-1.06-.06-.49.06-.92.35-1.28.3-.36.68-.57,1.14-.63.91-.08,1.78-.2,2.63-.34.85-.14,1.68-.28,2.5-.4.23-.03.33-.16.31-.39l-.8-6.58c-.06-.46.06-.88.34-1.26.28-.38.65-.59,1.12-.65.46-.06.88.06,1.26.34.37.28.59.67.65,1.16l.77,6.31c.03.23.16.32.39.27,1.43-.33,2.81-.66,4.14-.98,1.34-.32,2.66-.65,3.98-1,.2-.08.29-.22.26-.42l-1.01-6.63c-.06-.52.05-.96.35-1.34.29-.38.69-.59,1.18-.66.44-.05.85.06,1.22.34.37.28.59.64.64,1.08l.98,6.44c.03.23.16.32.39.27.97-.17,1.96-.34,2.95-.5.99-.16,1.99-.29,3-.39ZM57,4.38c-.29-.2-.45-.49-.5-.88-.04-.31.02-.58.18-.81.25-.32.55-.5.92-.54.26-.03.53.04.81.22,1.52,1.1,2.8,2.54,3.83,4.33.1.15.16.31.18.49.07.57-.14.99-.63,1.26-.15.1-.3.15-.45.17-.54.07-.95-.15-1.22-.64-.79-1.53-1.83-2.72-3.11-3.59ZM65.24,4.9c.1.15.15.29.17.45.04.34-.03.64-.22.91-.19.27-.46.43-.83.47-.54.07-.95-.13-1.21-.6-.81-1.52-1.89-2.79-3.22-3.81-.29-.23-.45-.49-.49-.8-.03-.28.04-.54.22-.77.23-.29.51-.46.84-.5.26-.03.53.04.81.21.83.58,1.54,1.21,2.14,1.88.59.67,1.19,1.52,1.79,2.55Z"/>
      <path class="cls-1" d="M51.89,73.45c-1.91.23-3.6-.02-5.08-.77-1.48-.75-2.67-1.86-3.57-3.33-.9-1.47-1.47-3.15-1.7-5.04-.22-1.83-.1-3.79.38-5.88.48-2.09,1.38-4.13,2.71-6.13.07-.09.1-.17.09-.25-.01-.1-.12-.12-.32-.04-.85.34-1.75.57-2.71.68-.34.04-.68.06-1.03.07-.35,0-.7,0-1.04-.01-.42-.03-.77-.19-1.04-.48-.27-.29-.43-.65-.48-1.06-.06-.46.06-.87.36-1.2.3-.34.66-.53,1.07-.58.05,0,.12-.01.19-.02.08,0,.14,0,.2.01.29.02.57.02.83.02.26,0,.52-.03.78-.06.95-.12,1.85-.36,2.68-.74.83-.38,1.59-.78,2.27-1.2.68-.42,1.26-.8,1.75-1.14.48-.33.87-.52,1.15-.55.52-.06.98.06,1.4.36.42.3.66.71.72,1.23.04.33,0,.69-.15,1.06-.14.37-.39.76-.76,1.17-2.56,3.06-4.27,5.81-5.12,8.23-.86,2.42-1.18,4.51-.96,6.27.16,1.29.53,2.38,1.13,3.28.59.9,1.3,1.58,2.12,2.06.82.48,1.63.73,2.45.76.4.03.81.02,1.25-.04.9-.11,1.78-.4,2.64-.87.86-.47,1.61-1.16,2.26-2.06.65-.9,1.12-2.06,1.4-3.47.29-1.41.31-3.11.06-5.1-.04-.36-.09-.72-.13-1.06-.04-.35-.11-.7-.21-1.06-.13-.67-.28-1.47-.45-2.42-.17-.95-.32-1.89-.46-2.83-.14-.94-.26-1.72-.35-2.35-.09-.63-.14-.97-.14-1.02-.09-.7.07-1.27.48-1.71.4-.44.86-.69,1.38-.76.36-.04.71,0,1.06.15.34.14.63.41.86.8.65,1.02,1.32,1.96,2.01,2.82.69.86,1.49,1.66,2.4,2.42.9.75,2.02,1.5,3.34,2.22.59.32.92.82,1.01,1.49.07.54-.04.98-.33,1.32-.29.34-.64.53-1.05.58-.34.04-.62-.02-.85-.17-1.09-.57-2.14-1.23-3.15-1.97-1.01-.74-1.88-1.47-2.63-2.19-.12-.12-.21-.16-.27-.14-.06.02-.09.09-.07.22.08.62.18,1.32.32,2.1.14.78.27,1.53.41,2.23.14.7.22,1.29.25,1.76.24,2.64.02,5-.67,7.08-.69,2.08-1.77,3.75-3.26,5.03-1.48,1.28-3.29,2.05-5.43,2.31Z"/>
      <path class="cls-1" d="M52.31,89.74l-9.52,1.16c-.41.05-.81-.06-1.18-.35-.38-.28-.59-.64-.64-1.08-.05-.44.07-.84.36-1.2.3-.36.65-.57,1.06-.62l9.52-1.16c.44-.05.84.06,1.2.34.36.28.57.64.62,1.08.05.44-.06.84-.34,1.2-.28.36-.64.57-1.08.62ZM50.67,84.72l-7.47.91c-.46.06-.88-.06-1.24-.36-.36-.3-.57-.66-.63-1.1-.05-.44.06-.85.34-1.22.28-.37.65-.59,1.12-.65l7.47-.91c.44-.05.84.06,1.2.34.36.28.57.66.63,1.12.05.44-.05.84-.32,1.22-.27.37-.64.59-1.1.65ZM44.18,92.7l7.2-.88c.44-.05.84.05,1.2.32.36.27.57.64.63,1.1.06.46-.06.88-.34,1.24-.28.36-.64.57-1.08.62l-7.2.88c-.44.05-.84-.06-1.2-.34-.36-.28-.57-.66-.63-1.12-.05-.44.06-.84.34-1.2.28-.36.64-.57,1.08-.62ZM44.82,97.89l7.2-.88c.44-.05.84.06,1.2.34.36.28.57.66.63,1.12.05.44-.05.84-.33,1.2-.27.36-.64.57-1.1.63l-7.2.88c-.44.05-.84-.06-1.2-.34-.36-.28-.57-.64-.62-1.08-.06-.46.06-.88.34-1.24.28-.36.64-.57,1.08-.62ZM54.74,104.53l.84,6.85c.08.7-.09,1.33-.52,1.89-.43.56-1,.89-1.73.98l-5.65.69c-.7.08-1.33-.09-1.89-.52s-.89-1-.98-1.73l-.84-6.85c-.08-.67.1-1.29.54-1.87.44-.58,1.01-.91,1.71-1l5.65-.69c.7-.08,1.33.09,1.89.54.56.44.89,1.01.97,1.71ZM48.01,111.52c.02.15.11.22.26.2l3.76-.46c.15-.02.22-.11.2-.26l-.64-5.27c-.02-.15-.11-.22-.26-.2l-3.76.46c-.15.02-.22.11-.2.26l.64,5.27ZM62.02,86.59c-.02-.15-.11-.22-.26-.2l-6.5.79c-.44.05-.85-.06-1.22-.34-.38-.28-.59-.65-.65-1.12-.05-.44.06-.85.34-1.22.28-.38.65-.59,1.12-.65l6.5-.79c.15-.02.22-.11.2-.26l-.22-1.82c-.05-.44.06-.84.34-1.2.28-.36.66-.57,1.12-.63.46-.06.88.06,1.24.34.36.28.57.64.62,1.08l.22,1.82c.02.16.11.22.26.2l6.7-.82c.46-.06.88.06,1.24.36.36.3.57.66.63,1.1.05.44-.06.85-.34,1.22-.28.38-.65.59-1.12.65l-6.7.82c-.15.02-.22.11-.2.26l.23,1.9c.02.16.11.22.26.2l4.8-.59c.46-.06.87.06,1.22.36.35.3.55.67.61,1.11.05.44-.05.84-.32,1.2-.27.36-.64.57-1.1.63l-13.2,1.61c-.44.05-.85-.05-1.22-.32-.37-.27-.59-.63-.65-1.1-.05-.44.06-.85.34-1.22.28-.38.65-.59,1.12-.65l4.61-.56c.15-.02.22-.11.2-.26l-.23-1.9ZM74.01,100.17c-.44.05-.84-.06-1.2-.34-.36-.28-.57-.64-.62-1.08l-.33-2.67c-.02-.16-.11-.22-.26-.2l-13.08,1.6c-.15.02-.22.11-.2.26l.33,2.67c.05.44-.06.84-.34,1.2-.28.36-.64.57-1.08.62-.44.05-.84-.06-1.2-.34s-.57-.64-.62-1.08l-.44-3.6c-.09-.7.09-1.33.52-1.89.43-.56,1-.89,1.73-.98l14.94-1.83c.7-.08,1.33.09,1.89.52.56.43.89,1,.98,1.73l.44,3.6c.05.44-.05.84-.33,1.2-.27.36-.64.57-1.1.63ZM62.62,98.26c.46-.06.87.06,1.22.36.35.3.53.68.53,1.15.08,2.35-.19,4.44-.81,6.27s-1.42,3.39-2.41,4.7c-.99,1.3-2.05,2.34-3.15,3.13-.17.12-.37.2-.6.23-.7.08-1.22-.19-1.56-.83-.1-.2-.17-.4-.19-.6-.09-.7.16-1.26.74-1.7,1.65-1.33,2.85-2.87,3.62-4.63.77-1.76,1.12-3.84,1.06-6.24,0-.45.15-.84.44-1.19.3-.35.66-.56,1.1-.64ZM76.88,107.21c.43.34.68.74.74,1.21.04.36-.06.73-.3,1.1-.99,1.35-2.67,2.17-5.04,2.46-3.56.43-5.54-.96-5.93-4.19l-1.02-8.36c-.05-.44.05-.84.32-1.2s.64-.57,1.1-.63c.44-.05.84.06,1.2.34.36.28.57.64.62,1.08l1.02,8.36c.09.72.29,1.18.62,1.38.32.2.98.23,1.96.11.7-.08,1.25-.22,1.66-.42.41-.19.75-.48,1.02-.85.27-.37.64-.59,1.1-.65.36-.04.67.04.93.24Z"/>
      <path class="cls-1" d="M76.83,135.46c.52-.06.97.08,1.35.42.38.35.6.75.66,1.22.01.1.02.2.04.29.01.09,0,.19-.04.3-.54,2.45-1.32,4.49-2.36,6.12-1.03,1.63-2.18,2.88-3.43,3.74-1.26.86-2.5,1.37-3.74,1.52-.13.02-.27.03-.43.05-.15.02-.3.02-.43.01-1.23,0-2.24-.21-3.02-.61-.78-.4-1.4-.92-1.84-1.56-.45-.64-.79-1.32-1.04-2.05-.25-.73-.45-1.43-.61-2.11-.16-.67-.35-1.25-.56-1.72-.21-.47-.53-.76-.93-.87-.19-.06-.4-.07-.63-.04-1.86.23-3.8,3.02-5.81,8.37-.07.27-.14.55-.19.85-.06.3-.1.59-.15.88-.09.38-.27.7-.57.97-.29.27-.62.43-.98.47-.49.06-.92-.06-1.28-.35-.36-.3-.57-.66-.63-1.1-.01-.1-.02-.19-.01-.27,0-.08.01-.17.02-.28.34-1.74.77-3.62,1.29-5.64.53-2.01,1.11-4.07,1.74-6.17.63-2.09,1.29-4.14,1.96-6.13s1.33-3.86,1.97-5.58c.64-1.73,1.22-3.24,1.74-4.53.26-.66.74-1.03,1.43-1.12.52-.06.95.05,1.3.35.35.3.55.67.61,1.1.04.31,0,.62-.12.92-.77,1.85-1.6,4.03-2.5,6.53-.9,2.51-1.76,5.11-2.58,7.8-.02.06-.02.12-.02.2.02.18.14.19.36.04.85-.58,1.66-.91,2.43-1,.72-.09,1.39,0,2,.27.61.27,1.16.67,1.64,1.21.49.57.85,1.21,1.08,1.91.23.71.42,1.41.57,2.11.15.7.34,1.33.57,1.89.23.56.58.99,1.06,1.29.48.29,1.19.39,2.12.27,1.5-.18,2.8-1.01,3.9-2.48,1.1-1.47,1.97-3.51,2.59-6.13.08-.38.27-.69.55-.93.28-.24.59-.39.93-.43Z"/>
      <path class="cls-1" d="M79.67,184.07c.07-.04.15-.06.23-.09.08-.02.15-.04.23-.05.44-.05.84.05,1.2.31.36.26.57.64.63,1.16.05.41-.03.81-.23,1.21-.2.39-.51.67-.94.82-.55.23-1.11.4-1.68.54-.57.14-1.16.24-1.75.31-2.04.25-4.02.04-5.93-.61-1.91-.66-3.52-1.72-4.83-3.18-.64-.71-1.17-1.56-1.61-2.55-.44-.99-.73-2.08-.87-3.27-.21-1.7-.04-3.54.5-5.52.54-1.98,1.65-3.99,3.31-6.02.07-.09.1-.17.09-.25-.02-.13-.11-.17-.29-.12-2.17.5-4.41.89-6.73,1.18-1.94.24-3.88.4-5.83.48-.44.03-.83-.11-1.17-.41-.34-.3-.53-.67-.59-1.11-.06-.52.08-.96.42-1.35.35-.38.77-.58,1.26-.59,1.88-.07,3.72-.22,5.53-.44,3.1-.38,6.02-.97,8.78-1.76,2.76-.79,5.32-1.79,7.69-3,.2-.1.39-.16.57-.19.44-.05.86.06,1.28.33.41.28.65.67.71,1.19.04.33-.01.66-.16.98s-.39.57-.73.74c-1.38.69-2.81,1.33-4.29,1.9-.13.04-.26.11-.41.21-2.4,2-4.19,4.16-5.38,6.49-1.18,2.33-1.65,4.53-1.39,6.59.21,1.73.92,3.21,2.12,4.46,1.07,1.07,2.25,1.78,3.52,2.12,1.27.34,2.52.44,3.73.29,1.03-.13,2.03-.39,3.01-.8ZM77.82,166.73c1.49,1.08,2.77,2.52,3.83,4.33.06.07.1.15.11.22,0,.08.02.15.03.23.07.59-.14,1.02-.63,1.29-.15.1-.3.15-.45.17-.52.06-.91-.17-1.18-.68-.78-1.48-1.82-2.67-3.11-3.59-.31-.2-.49-.48-.53-.84-.04-.31.03-.58.22-.81.2-.31.49-.49.88-.54.28-.04.57.04.85.21ZM84.61,169.24c.1.15.16.31.18.49.06.52-.14.92-.6,1.21-.15.1-.3.15-.45.17-.52.06-.91-.15-1.18-.64-.79-1.5-1.87-2.76-3.25-3.77-.26-.2-.41-.46-.45-.77-.03-.28.04-.57.21-.85.2-.26.49-.41.85-.46.26-.03.53.04.81.21.83.58,1.54,1.21,2.14,1.88.59.67,1.17,1.51,1.74,2.52Z"/>
      <path class="cls-1" d="M16.97,117.83c-.34.04-.67-.02-1.01-.19-.34-.17-.59-.41-.76-.73-1.3-2.28-2.51-4.12-3.64-5.55-1.13-1.42-2.15-2.57-3.05-3.44-.91-.87-1.69-1.6-2.35-2.19-.66-.59-1.19-1.16-1.58-1.71-.4-.55-.64-1.23-.74-2.03-.09-.77.08-1.55.52-2.34.44-.79,1.03-1.7,1.77-2.75.74-1.04,1.53-2.35,2.37-3.9.84-1.56,1.62-3.49,2.34-5.81.09-.35.27-.63.54-.85.27-.22.58-.35.92-.39.54-.07,1,.07,1.37.4.37.33.58.73.64,1.2.03.23.02.47-.03.71-.54,1.77-1.12,3.3-1.72,4.61-.6,1.3-1.24,2.48-1.91,3.53-.67,1.05-1.39,2.11-2.15,3.17-.4.57-.7,1.02-.9,1.35-.2.33-.28.63-.24.91.03.26.2.53.49.8.3.28.72.67,1.28,1.18,1.14.94,2.22,1.94,3.25,3,1.03,1.07,2.05,2.26,3.05,3.6s1.98,2.9,2.93,4.69c.1.17.17.39.2.64.06.49-.06.94-.34,1.36-.29.41-.71.66-1.25.72Z"/>
      <path class="cls-1" d="M16.62,133.94c-.65.5-1.34.94-2.1,1.34-.75.39-1.55.75-2.4,1.06-.15.04-.24.17-.27.39-.29,3.6-.88,7.07-1.77,10.41-.89,3.34-1.94,6.37-3.15,9.09-.12.28-.31.5-.55.68-.24.17-.5.28-.79.31-.36.04-.68,0-.96-.16-.59-.29-.92-.75-.99-1.37-.04-.33,0-.64.12-.92,1.21-2.77,2.19-5.54,2.95-8.34.76-2.79,1.29-5.62,1.6-8.49v-.08c-.04-.26-.17-.35-.4-.27-1.88.44-3.82.76-5.82.95-.44.03-.84-.1-1.21-.38-.36-.28-.57-.64-.62-1.08-.06-.49.06-.92.35-1.3.29-.38.69-.58,1.18-.62.34-.01.67-.04.99-.08.32-.04.65-.08.99-.12.77-.09,1.53-.21,2.28-.34.74-.13,1.47-.29,2.18-.48.2-.05.31-.18.31-.39.04-.92.05-1.86.03-2.81-.03-.95-.07-1.91-.13-2.87-.03-.44.11-.85.4-1.23.29-.38.66-.59,1.1-.64.52-.06.96.05,1.34.35.38.29.58.7.62,1.22.07.75.11,1.51.14,2.26.03.76.03,1.52.02,2.28v.08c.04.26.17.32.39.19.67-.34,1.32-.75,1.97-1.22.26-.19.55-.3.86-.34.62-.08,1.14.11,1.56.56.24.26.38.56.42.89.07.59-.14,1.09-.64,1.49ZM30.3,149.79c.1-.04.24-.07.42-.09.44-.05.84.05,1.2.33.36.27.57.64.63,1.1.05.39-.02.76-.22,1.13-.19.36-.49.64-.88.81-.9.37-1.8.68-2.72.92-.91.24-1.83.42-2.76.53-1.88.23-3.76.18-5.62-.14-1.86-.32-3.67-.94-5.43-1.85-.53-.28-.83-.7-.9-1.26-.04-.36.03-.71.23-1.05.25-.5.68-.79,1.27-.86.31-.04.64.03,1.01.19,2.84,1.41,5.83,1.92,8.95,1.54,1.63-.2,3.24-.63,4.83-1.3ZM15.62,137.01c-.05-.44.04-.84.29-1.19.24-.36.57-.59.98-.69.48-.11.97-.21,1.46-.29.49-.09.98-.16,1.47-.22,1.57-.19,3.13-.25,4.65-.18,1.53.07,2.92.3,4.17.67.33.09.6.27.81.55s.35.58.39.92c.06.49-.05.91-.34,1.26-.29.35-.65.55-1.09.6-.28.04-.54.01-.75-.06-2.31-.69-4.81-.87-7.49-.54-.41.05-.84.12-1.27.2-.44.08-.87.17-1.3.28-.46.11-.89.04-1.28-.22-.4-.25-.62-.61-.68-1.08ZM22.5,127.72c-.29-.2-.45-.5-.5-.88-.04-.31.02-.58.18-.81.2-.29.49-.45.88-.5.34-.04.62.03.85.21.78.56,1.47,1.19,2.1,1.88.62.7,1.2,1.51,1.73,2.44.1.15.15.29.17.45.07.57-.14.99-.63,1.26-.15.1-.31.16-.49.18-.52.06-.91-.15-1.18-.64-.41-.79-.86-1.46-1.35-2.02-.49-.55-1.07-1.08-1.76-1.57ZM30.74,128.25c.1.15.15.29.17.45.04.34-.03.65-.22.93-.19.29-.46.45-.82.49-.52.06-.91-.15-1.18-.64-.84-1.55-1.93-2.82-3.25-3.81-.29-.23-.45-.48-.49-.77-.03-.28.05-.56.25-.82.23-.29.49-.45.8-.49.28-.04.57.04.85.21.83.61,1.54,1.24,2.12,1.9.58.66,1.17,1.51,1.76,2.54Z"/>
      <path class="cls-1" d="M30.29,168.02c.19.24.3.5.33.78.08.67-.13,1.18-.64,1.53-.58.41-1.2.82-1.88,1.21-.67.4-1.41.77-2.2,1.13-.25.11-.29.27-.14.49l.09.11c1.18,1.77,2.26,3.51,3.21,5.23.96,1.72,1.73,3.27,2.32,4.67.03.07.07.21.09.42.03.28,0,.58-.13.88-.12.3-.33.54-.62.71-.34.22-.69.36-1.05.4-.18.02-.37.02-.57,0s-.4-.07-.58-.12c-1.59-.54-3.06-.88-4.43-1.03-1.37-.15-2.59-.16-3.68-.02-1.34.16-2.47.5-3.39,1s-1.6,1.09-2.04,1.76-.62,1.34-.54,2.01c.11.93.78,1.71,2.02,2.35,1.23.64,3.08.8,5.56.5,1.42-.17,2.64-.39,3.67-.67,1.03-.27,2.14-.65,3.34-1.13.07-.03.15-.06.23-.09.08-.02.17-.04.27-.05.44-.05.84.05,1.2.33.36.27.57.66.64,1.18.04.33-.03.66-.22.97-.18.31-.45.54-.8.69-1.45.54-2.83.98-4.12,1.31-1.3.33-2.51.56-3.65.7-2.09.26-3.9.23-5.41-.08-1.52-.31-2.75-.82-3.68-1.54-.94-.71-1.61-1.53-2.01-2.45-.19-.5-.32-.98-.37-1.45-.15-1.19.09-2.38.72-3.58.63-1.2,1.62-2.25,3-3.14,1.37-.89,3.09-1.46,5.15-1.71,1.96-.24,4.19-.11,6.69.4.05.02.12.03.2.02.21-.03.24-.15.11-.37-.58-1.08-1.25-2.22-2.01-3.41-.76-1.19-1.55-2.38-2.38-3.56-.13-.17-.29-.21-.49-.14-1.61.54-3.29,1.01-5.03,1.42-1.74.41-3.47.72-5.17.93-.34.04-.68.08-1.03.13-.35.04-.69.07-1.03.09-.42.02-.79-.1-1.13-.37-.33-.27-.53-.62-.58-1.03-.06-.46.06-.87.34-1.22.28-.35.65-.54,1.09-.56l1.43-.18c1.68-.21,3.26-.46,4.76-.76s2.9-.66,4.21-1.08c.3-.09.35-.25.14-.49-.65-.84-1.3-1.62-1.96-2.33-.65-.72-1.27-1.37-1.87-1.95-.27-.28-.43-.59-.47-.93-.07-.54.1-.98.51-1.32.28-.25.63-.39,1.05-.44.59-.07,1.08.08,1.47.45.73.64,1.49,1.43,2.27,2.35.78.93,1.58,1.93,2.39,3.01.12.17.29.2.48.1.77-.36,1.48-.72,2.14-1.11.66-.38,1.29-.79,1.89-1.23.26-.19.53-.3.78-.33.64-.08,1.14.14,1.49.64Z"/>
      <path class="cls-1" d="M21.2,231.84c-1.08.13-2.19-.1-3.33-.69-1.13-.59-2.2-1.49-3.2-2.67-1-1.19-1.85-2.6-2.56-4.24s-1.19-3.43-1.42-5.37c-.16-1.32-.19-2.69-.09-4.12.1-1.43.36-2.89.78-4.38.2-.71.68-1.1,1.43-1.2.26-.03.5,0,.72.07.35.11.63.3.84.57.2.26.32.55.36.86.03.23.02.46-.04.67-.41,1.33-.67,2.62-.77,3.85-.1,1.23-.08,2.41.06,3.55.18,1.5.53,2.86,1.03,4.08.5,1.22,1.09,2.26,1.78,3.12.68.86,1.38,1.51,2.08,1.95.71.44,1.35.62,1.91.55.46-.06.85-.3,1.17-.73.31-.43.51-1.06.6-1.88.05-.48.23-.88.54-1.21.31-.33.69-.52,1.13-.57.46-.06.87.06,1.22.36.35.3.55.65.6,1.07.02.15.02.27,0,.35-.37,3.66-1.98,5.67-4.84,6.01ZM38.7,222.32c-.57.07-1.05-.08-1.45-.45-.4-.37-.63-.85-.71-1.45-.23-1.91-.93-3.46-2.08-4.66-1.15-1.2-2.67-1.93-4.53-2.2-.48-.07-.88-.3-1.21-.7-.32-.39-.46-.81-.41-1.27.08-.46.26-.84.56-1.17.3-.32.66-.51,1.07-.56.08,0,.22,0,.44.03,1.57.23,3.1.81,4.57,1.74,1.48.93,2.71,2.15,3.69,3.66.98,1.5,1.52,3.25,1.6,5.23.03.44-.11.84-.4,1.19-.3.35-.68.55-1.14.61Z"/>
      <path class="cls-1" d="M33.3,270.44c-.34.46-.74.72-1.2.78s-.9-.05-1.3-.33c-.4-.28-.63-.62-.68-1.04-.04-.33.07-.69.34-1.06.48-.61.82-1.15,1.04-1.62.22-.47.35-.97.39-1.48.04-.52.02-1.13-.07-1.86-.07-.59-.32-1.21-.75-1.83-.43-.63-.96-1.3-1.58-2.01-.62-.71-1.25-1.48-1.89-2.3-.64-.83-1.19-1.71-1.66-2.67-.47-.95-.77-1.98-.91-3.09-.12-1.01-.05-2.1.21-3.27.26-1.17.8-2.43,1.6-3.79.28-.45.65-.71,1.09-.76.44-.05.85.07,1.22.36.38.29.59.67.65,1.14.05.41-.05.79-.29,1.14-.63,1.05-1.05,2-1.26,2.85-.21.85-.27,1.62-.19,2.32.11.88.39,1.69.85,2.43.46.74,1,1.46,1.64,2.14.63.68,1.26,1.38,1.89,2.09.62.71,1.17,1.49,1.64,2.33.47.85.77,1.8.9,2.86.15,1.24.09,2.37-.17,3.4-.27,1.03-.76,2.12-1.48,3.29Z"/>
    </g>
  </g>
</svg>