<?xml version="1.0" encoding="UTF-8"?>
<svg id="_レイヤー_2" data-name="レイヤー 2" xmlns="http://www.w3.org/2000/svg" viewBox="0 0 226.94 358.24">
  <defs>
    <style>
      .cls-1 {
        fill: #231815;
      }

      .cls-1, .cls-2, .cls-3, .cls-4, .cls-5, .cls-6, .cls-7, .cls-8, .cls-9, .cls-10, .cls-11, .cls-12, .cls-13, .cls-14, .cls-15, .cls-16 {
        stroke-width: 0px;
      }

      .cls-2 {
        fill: #100e0f;
      }

      .cls-3 {
        fill: #964628;
      }

      .cls-4 {
        fill: #f6d798;
      }

      .cls-5 {
        fill: #974729;
      }

      .cls-6 {
        fill: #56411c;
      }

      .cls-7 {
        fill: #faa2ad;
      }

      .cls-8 {
        fill: #716f5b;
      }

      .cls-9 {
        fill: #fbee1c;
      }

      .cls-10 {
        fill: #615f52;
      }

      .cls-11 {
        fill: #f91c46;
      }

      .cls-12 {
        fill: #f8d999;
      }

      .cls-13 {
        fill: #f03c3c;
      }

      .cls-14 {
        fill: #f89009;
      }

      .cls-15 {
        fill: #f7d898;
      }

      .cls-16 {
        fill: #f89008;
      }
    </style>
  </defs>
  <g id="design">
    <g>
      <g>
        <g>
          <path class="cls-1" d="M111.64,147.91c7.51.64,11.3-2.04,11.42-7.77.09-4.82,1.18-9.22,2.85-13.6h0c2.6-4.81,4.66-9.83,6.08-15.12,0,0,0,0,0,0,2.49-7.11,4.99-14.23,7.48-21.34.41-1.33-.22-3,1.29-3.97h0c2.08-1.51,1.99-4,2.59-6.11,4.29-15.12.93-17.42-10.15-19.21-.22-.04-.36-.63-.49-.88,3.04-3.48,6.17-6.83,9.02-10.39,2.86-3.59,5.7-7.24,8.11-11.14,7.98-12.86,2.97-24.61-11.68-27.5-3.78-.74-8.96-1.94-12.48.52-8.46,5.91-13.7,11.93-14.95,22.73-.31,2.68-.6,5.42-1.38,7.98-2.97,9.8-2.96,9.47-12.94,6.76-4.42-1.2-3.1-2.57-1.32-4.84,3.22-4.11,6.16-8.38,8.6-13.04,9.15-17.46,5.07-26.42-14-30.16-17.33-3.4-26.05,3.62-26.17,21.31-.04,5.2.48,10.41.75,15.62.2,3.89-.65,6.2-5.27,3.95-3.43-1.67-7.25-2.04-11.01-2.41-8.65-.87-11.46,1.47-13.7,9.96-3.66,13.9-7.83,27.66-11.51,41.55-2.61,9.88-4.21,19.98-5.51,30.11-.61,4.77,1.47,7.57,6.42,8h0c2.75,2.85,8.43.66,9.91,5.7"/>
          <path class="cls-7" d="M124.93,57.83c8.6-4.27,13.04-12.08,18.4-19.22,4.04-5.37,4.8-14.18,1.49-19.77-2.42-4.09-12.52-6.42-15.61-3.11-3.94,4.21-8.2,8.33-10.23,13.98,0,0,0,.01,0,.02-1.2,8.29-3.82,16.22-6.07,24.24-.63,2.25-.94,4.74-4.04,4.47-4.05-.36-5.21,2.43-6.43,5.31-1.33,2.6.17,4.21,1.9,5.9,3.88,3.76,6.32,8.45,8.74,13.14-2.45-3.11-4.55-6.44-6.7-9.73-1.7-2.59-3.59-5.23-7.44-4.36-3.4-.52-6.79-1.12-10.21-1.54-6.89-.85-7.81-2.56-5.34-9.24.83-2.24,2.98-4.33,1.72-7.04-1.48-3.18.51-4.96,2.32-7.08,4.69-5.48,10.07-10.6,12.77-17.39,1.83-4.62,5.25-9.59.78-14.72-6.24-7.15-13.16-9.6-23.4-4.81-1.03.34-1.6.84-2.1,1.27-5.06,2.7-5.01,9.16-5.15,13.52-.22,7.08.08,14.2.67,21.26.46,5.47-2.2,6.85-6.74,5.99-4.52-.85-8.92-2.31-13.41-3.3-7.29-1.6-8.29-.79-9.97,6.27-.91,3.85-2.5,7.53-3.51,11.35-3.53,13.28-7.42,26.49-10.17,39.93-1.08,5.26-2.92,12.02-3.59,15.67s2.15,4.94,5.74,6.36,16.22,4.64,17.97,5c3.37.97,10.98-.15,10.98-.15,4.11,0,7.99,1,11.73,2.66,3.53,1.17,6.55,3.98,10.47,3.83,8.68-.34,16.93,1.79,25.32,3.56,11.42,2.41,11.82,2.07,13.4-9.51,1-7.31,5.89-12.71,8.12-19.34,3.29-4.09,2.87-9.28,4.22-13.95-.39-3.53,7.43-24.87,8.64-28.47-4.8-1.4-9.66-2.62-14.37-4.26-4.33-1.51-4.65-4.89-.93-6.74ZM119.13,30c.42.8.59,1.6.63,2.36-.07-.75-.26-1.56-.63-2.36Z"/>
          <path class="cls-5" d="M94.5,61.34c-.69-.12-3.13,2.18-3.9,2.28s-.55-2.41-1.31-2.45c-1.04-.06-2.4,3.13-2.91,1.85-.79-1.99.18-5.3,1.41-7.36,2.08-3.49,5.25-2.29,7.73-1.43,2.38.83,7,.77,6.45,3.97-.54,3.17-3.23,8.16-6.54,7.33-.71-.18.29-3.7-.93-4.19Z"/>
          <path class="cls-2" d="M102.45,63.75c1.48,5.32,7.28,7.54,9.12,12.61.2.55.8.95,1.16,1.46,1.88,2.72,4.92,6.83,2.05,8.64-3.4,2.15-3.33-3.41-4.94-5.38-3.5-4.24-5.12-10.09-10.88-12.37,1.02-1.75,1.47-3.9,3.49-4.95Z"/>
          <path class="cls-1" d="M82.17,121.63c5.17,4.21,9.97,1.16,14.53-1.11,2.69-1.34,1.21-4,.4-6.1-.42-1.08-.5-2.07.6-2.7,1.1-.63,1.95.03,2.73.8,2.83,2.76,2.66,8.23-.35,10.69-7.2,5.88-17.44,5.34-23.7-1.58-1.84-2.03-3.23-2.31-5.85-1.67-6.52,1.59-12.96,1.55-18.03-3.93-4.13-4.46-4.13-11.75-.05-14.55,1.06-.72,2.17-1.46,3.42-.51.96.73,1.25,1.88.28,2.67-3.8,3.11-3.43,6.35-.38,9.6,3.99,4.25,8.99,5,14.07,2.72,6.06-2.72,6.62-5.7,3.02-11.69-3.05-5.07-2.35-11.53,1.52-14.17,4.71-3.21,11.82-2.08,15.29,2.43,3.09,4.01,2.38,9.59-1.64,12.91-1.85,1.53-4.04,2.09-6.39,2.33-2.23.22-2.4,1.97-2.51,3.7-.99,3.99,1.05,7.07,3.05,10.17Z"/>
          <path class="cls-1" d="M79.08,64c-.32.39-.68,1.24-1.31,1.53-6.35,2.93-12.75,5.77-19.13,8.65-1.27.57-1.98-.12-2.35-1.15-.44-1.24-.19-3.11.77-3.33,6.94-1.57,12.73-6,19.62-7.59,1.02-.24,2.04.21,2.4,1.89Z"/>
          <path class="cls-1" d="M102.05,92.02c-1.37,1.84-7.49,2.84-9.29-2.23-.76-2.16-.2-4.58,2.06-6.02,2.99-1.92,6.82-.56,7.89,1.3s.71,5.11-.66,6.95Z"/>
          <path class="cls-1" d="M71.05,76.08c4.12.08,5.62,1.92,5.72,5.09.1,3.46-2.14,4.95-5.08,4.88-3.18-.08-5.66-1.83-5.43-5.41.21-3.22,2.51-4.5,4.79-4.56Z"/>
          <path class="cls-13" d="M81.76,103.93c-5.06.02-6.8-2.2-6.94-6.21-.16-4.61,2.92-5.85,6.43-5.69,3.53.16,6.52,2,6.36,6.19-.15,4.14-2.99,5.57-5.85,5.71Z"/>
        </g>
        <path class="cls-1" d="M220.96,349.6c-3.52-.04-7.11.56-10.84-1.48,5.28-6.07,10.44-12.09,14.25-19.06,3.66-6.7.77-13.64-6.69-16.05-5.22-3.3-11.55-2.5-17.1-4.65-5.07-1.96-10.08-7.62-8.45-10.46,2.58-4.51.04-6.63-3.37-8.21-6.79-3.14-11.92-8.27-16.99-13.49-3.21-3.3-4.78-7.02-3.14-11.86,1.21-3.57,1.59-7.42,2.34-11.14-.42-12-.87-24-2.3-35.93.94-1.45.44-2.83-.17-4.22.81-8.54.78-16.99-2.44-25.14-2.85-4.68-7.05-9.11-11.85-10.08-9.3-1.86-15.87-7.87-23.38-12.43-7.04-4.26-12.87-9.98-19.18-17.5l-72.93,52.82c1.47,4.91,7.65,7.01,9.91,7.39,2.26.38,4.87,1.24,9.4.03,2.95-.79,8.9-3.72,13.51-5.18,3.95-.91,7.55.62,11.23,1.6,10.24,5.15,20.85,4.6,31.58,1.98h0c1.98-.05,4.42.2,4,2.7-.43,2.51-12.52,34.27-12.77,36.42-.25,2.15-2.72,4.34.59,6.06h0c-.33.72-.51,1.92-1.03,2.08-11.11,3.56-19.6,11.67-29.69,16.96-2.03,1.06-5.27,2.29-4.36,4.6,2.31,5.83-2.11,6.61-5.35,8.31-4.58,2.4-9.28,4.59-13.98,6.89-1.6-2.42-1.09-5.07-1.8-7.42-2.18-7.21-4-14.79-12.5-17.42-12.58-3.89-26.29,6.76-25.73,20.33.3,7.48,1.22,15,2.7,22.34,3.1,15.36,20.42,21.44,31.94,10.68,10.27-9.6,22.54-14.87,35.14-19.91,2.83-1.13,6.07-2.48,8.87.11,4.17,3.86,8.1,2.69,12.6.42,11.16-5.62,22.42-11.1,34.79-13.7,5.75,9.41,10.19,19.67,18.46,27.43,3.2,3,6.67,5.22,10.48,2.22,3.56-2.81,4.97-.85,7.02,1.49,2.5,2.86,3.92,7,8.48,7.6h0c1.16.98,1.58,2.15.93,3.59-9.89,4.27-9.35,12.43-7.39,21.22-1.51,0-2.55-.03-3.58,0-16.95.51-33.89-.07-50.88.73-13.06.62-26.28.98-39.53-.21-15.17-1.36-30.53-.63-45.81-.72-2.4-.01-4.91.65-4.84,3.7.07,3.08,2.58,3.47,5.01,3.38,7.54-.27,15.1.84,22.55.65,19.9-.51,39.74,2.24,59.62.62,13.58-1.11,27.18-.77,40.79-.68,10.84.07,21.68.14,32.52.02,9.83-.11,19.59,2.01,29.46.75,2.75-.35,6-.29,5.88-4.04-.12-3.43-3.08-4.14-5.98-4.17ZM102.49,181.35c-2.25-.07-3.44-1.14-3.03-3.64.56-1.21-.13-3.9,2.18-3.45,2.53.5,3.93,3.12,4.22,5.47.21,1.68-1.95,1.67-3.37,1.62Z"/>
        <g>
          <path class="cls-6" d="M74.93,184.8c-2.88,1.14-4.96,1.37-6.88-.95,2.03.52,4.22-1.45,6.88.95Z"/>
          <path class="cls-1" d="M111.64,147.91l-78.04-13.31c-2.27,3.6-1.35,4.92-3,11.77-1.65,6.85-6.03,31.38-7.34,35.14-1.31,3.76-1.89,11.32.18,12.8,2.07,1.48,5.91,2.77,9.16,3.11,2.59.27,4.98.53,6.11,3.3h0"/>
          <path class="cls-3" d="M71.88,149.02c-1.15-.4-1.5-3.77-2.23-4.06-1.01-.4-3.84,4.76-4.68,1.49-.56-2.18.29-5,1.25-7.2,1.11-2.53,3.68-1.26,5.57-.88,2.43.49,4.74,1.53,7.15,2.19,2.03.56,3.43,1.39,3.02,3.85-.37,2.22-1.72,4.74-3.5,4.74-1.42,0-2.21-3.69-2.87-3.57s-2.46,3.87-3.71,3.44Z"/>
          <path class="cls-7" d="M95.97,142.51c-8.94-2.02-10.82-3.25-13.28,5.27-.62,2.16-2.69,4.89-4.37,4.94-1.36.04-.76-3.56-2.76-3.57-1.13,0-2.31,3.39-4.65,2.68-1.42-.43-1.87-2.3-2.94-2.37s-2.72,1.35-3.45,1.17c-3.29-.81-3.1-3.16-2.37-10.66.29-2.94-.07-3.57-.95-4.01s-5.81-1.04-8.62-1.53c-2.8-.49-4.24-.21-6.29-.71-6.42-1.56-6.08,2.04-6.78,5.09-2.05,8.88-8.59,39.45-9.09,41.88s-2,8.63-.14,9.92,2.88.8,5.84,1.15c.73.08,2.41.19,3.12.19s2.53.49,3.41-1.29,1.98-7.17,6.43-6.47c3.6.57,5.18-.76,6.92-3.51,1.39-2.2,4.32-3.4,6.65-2.22,3,1.53,6.11.95,9.11,1.5,3.59.66,7.1.48,7.9,5.21.24,1.4,2.36,2.16,2.93,1.36,3.47-4.9,8.66-6.54,13.98-8.14.34-.1.53-1.09.58-1.68.67-8.15,3.66-15.78,5.44-23.68,1.93-8.58,2.1-8.55-6.61-10.52Z"/>
        </g>
        <path class="cls-8" d="M163.49,263.23c-2.03,5.81-3.08,6.34-11.48,12.52-8.4,6.18-30.13,8.55-44.53,14.87-3.94,1.73-7.31,6.13-11.79,4.92-4.35-1.18-5.61-6.46-8.63-9.57-2.31-2.38-5.09-4.29-7.5-6.57-1.85-1.74-2.33-3.57.71-4.69,9.73-3.58,16.44-12.1,26.18-15.82,2.15-.82,4.67-1.58,6.6-3.18,1.34-.78,2.78.07,4.14.43,1.48.36,3,.43,4.51.55,4.71,1.24,21.43,4.4,25.17,4.19s11.13-.41,12.82-.93,4.38-2.28,3.82,3.28Z"/>
        <path class="cls-16" d="M46.05,295.97c.19,3.93-4.28,5.53-7.11,7.82-3.82,3.1-4.52,5.74-1.21,9.24,2.78,2.94,1.02,4.25-1.69,5.38-5.25,2.19-11.12.55-13.34-4.74-4.33-10.31-5.91-21.29-5.06-32.4.46-6,6.79-10.59,12.97-10.61,5.49-.02,12.29,5.34,13.6,11.28.94,4.25,1.17,8.65,1.84,14.02Z"/>
        <path class="cls-10" d="M155.9,279.66c4.81-3.67,8.45-1.71,12.01,2.17,2.24,2.44,4.89,4.55,7.55,6.55,2.65,2,5.55,3.67,8.64,5.68-.83,2.44-2.99,3.61-5.12,4.72-4.3,2.25-8.19,5.09-11.42,8.66-3.05,3.37-4.9,4.12-8.76.12-5.67-5.89-8.91-13-13.03-19.71-1.53-2.49-.99-3.61,1.43-4.48,2.43-.87,6.15-1.65,8.7-3.7Z"/>
        <path class="cls-15" d="M43.5,313.07c-.85-.91-1.7-1.77-2.48-2.69-.99-1.18-.62-2.11.37-3.23,8.94-10.21,20.71-16.08,32.98-20.98,3.83-1.53,6.26,2.39,8.7,4.74.98.94-.23,1.79-1.28,2.14-13.15,4.43-25.79,9.82-36.42,19.04-.44.38-1.06.57-1.86.98Z"/>
        <path class="cls-14" d="M211.24,329.73c2.66-1.24,4.18-3.16,3.8-6.24,1.03-2.12,1.75-4.83,5.02-2.52,2.86,2.32.55,4.68-.4,6.51-2.19,4.18-4.82,8.16-7.57,12.01-8.04,11.26-16.45,10.66-28.14,7.6-5.39-1.41-6.54-7.68-2.61-12.19,1.49-1.71,3.27-3.15,4.92-4.72,4.44-1.49,8.93-1.24,13.43-.33,3.86.76,7.71.93,11.55-.12Z"/>
        <path class="cls-12" d="M211.14,316.3c.99,6.86-2.13,10.47-8.37,9.48-4.91-.78-9.86-1.45-14.44-3.57-2.3-1.56-5.51-1.63-7.12-4.33-.56-.86-1.08-1.76-1.7-2.58-5.27-6.98-5.05-7.43,3.05-11.47,2.58-1.29,4.29-.95,5.87,1.18,2.34,3.16,5.44,5.37,8.85,7.22,4.35,2.26,9.45,2.04,13.86,4.09Z"/>
        <path class="cls-11" d="M135.79,173.51c-6.89,1.63-11.74,2.78-16.6,3.94-2.7.65-4.91-.23-6.78-2.15-2.46-2.53-4.94-5.05-7.35-7.63-1.79-1.91.19-14.6,2.36-15.61,1-.46,1.59.21,2.15.76,7.54,7.4,15.28,14.56,26.22,20.69Z"/>
        <path class="cls-9" d="M157.61,184.59c-7.11-4.68-14.58-6.49-23.16-4.34-8.51,2.14-17.21,3.68-25.89,5.01-4.71.72-9.58.36-14.37.67-6.33.4-6.9,5.12-6.95,9.88-.06,5.34,4.36,4.81,7.71,5.2,2.64.31,4.79,1.19,11.19.73s13.33-3.93,20.02-2.46c4.42.57,19.77-.04,22.74-1.73s4.79-2.86,6.64-5.01c1.42-2.47,5.55-4.22,2.07-7.96Z"/>
        <path class="cls-4" d="M72.51,196.87c-2.23-.46-.78-.55-5.16,2.19-9.37,5.86-12.85,3.69-16.2,3.07-6.85-2.96-7.51-6.61-2.19-11.35.95-.85,1.57-.3,2.13-.03,5.55,2.68,7.01-2.42,8.26-7.37,4.26,5.8,10.39,7.9,16.51,8.49,2.18.21,4.14.5,5.21,2.68-1.55,5.54-5.4,2.63-8.55,2.32Z"/>
      </g>
      <g>
        <path class="cls-1" d="M9.78,93.3c.74,1.44,1.71,2.83,2.16,4.37.39,1.34.59,3.13-.88,4-2.14,1.26-3.48,2.63-2.83,5.36.39,1.67-1.06,2.63-2.15,3.54-1.53,1.28-2.07,2.48-.51,4.15.54.57.78,1.45,1.05,2.23.23.69-1.22,1.78-1.97,1.53-4.32-1.43-6.02-5.52-3.39-9.06,1.31-1.76,2.34-3.3,2.01-5.53-.2-1.36.34-2.53,1.44-3.26,2.37-1.56,2.55-3.36,1.11-5.69-1.41-2.28-.77-4.24,1.44-5.68,1.03-.67,2.13-1.23,3.16-1.89,1.17-.76,1.59-1.54.68-3-.6-.95-.67-2.48,1.07-2.94,1.45-.38,2.43.41,3.12,1.52,2.13,3.4,1.45,5.94-2.02,7.97-1.05.62-2.42.72-3.48,2.38Z"/>
        <path class="cls-1" d="M149.54,101.7c-1.72-.14-2.34-.19-2.97-.24-.71-.05-1.08-.46-1.25-1.13-.19-.74.22-1.47.7-1.58,3.72-.83,4.15-4.92,6.82-6.77.66-.46,1.17-1.23,1.06-2.16-.42-3.29.72-5.51,3.96-6.84,1.96-.8,1.06-2.89,1.12-4.49.04-1.16-.53-2.75,1.11-3.15,1.46-.36,2.11.94,2.69,2.07,2.19,4.25,1.89,6.37-2.28,8.83-2.18,1.28-3.05,2.58-2.7,4.9.24,1.62-.49,2.78-1.63,3.84-1.05.98-2.13,1.87-2.53,3.44-.66,2.61-2.56,3.6-4.11,3.27Z"/>
      </g>
    </g>
  </g>
</svg>