<?xml version="1.0" encoding="UTF-8"?>
<svg id="_レイヤー_2" data-name="レイヤー 2" xmlns="http://www.w3.org/2000/svg" viewBox="0 0 335.03 358.24">
  <defs>
    <style>
      .cls-1, .cls-2, .cls-3, .cls-4, .cls-5, .cls-6, .cls-7, .cls-8, .cls-9, .cls-10, .cls-11, .cls-12, .cls-13, .cls-14, .cls-15, .cls-16 {
        stroke-width: 0px;
      }

      .cls-1, .cls-17 {
        fill: #231815;
      }

      .cls-2 {
        fill: #100e0f;
      }

      .cls-3 {
        fill: #964628;
      }

      .cls-4 {
        fill: #f6d798;
      }

      .cls-5 {
        fill: #974729;
      }

      .cls-6 {
        fill: #56411c;
      }

      .cls-7 {
        fill: #faa2ad;
      }

      .cls-8 {
        fill: #716f5b;
      }

      .cls-9 {
        fill: #fbee1c;
      }

      .cls-17 {
        stroke: #231815;
        stroke-linecap: round;
        stroke-linejoin: round;
        stroke-width: .5px;
      }

      .cls-10 {
        fill: #615f52;
      }

      .cls-11 {
        fill: #f91c46;
      }

      .cls-12 {
        fill: #f8d999;
      }

      .cls-13 {
        fill: #f03c3c;
      }

      .cls-14 {
        fill: #f89009;
      }

      .cls-15 {
        fill: #f7d898;
      }

      .cls-16 {
        fill: #f89008;
      }
    </style>
  </defs>
  <g id="design">
    <g>
      <g>
        <path class="cls-17" d="M62.09,34.54c.44-.03.83.09,1.17.37.33.27.53.63.58,1.07.06.46-.07.89-.38,1.26-.31.38-.69.6-1.16.65-.88.08-1.8.2-2.77.36-.96.16-1.93.32-2.91.49-.23.05-.33.2-.3.43.18,1.05.33,2,.44,2.83.12.84.2,1.45.24,1.84.24,1.96-.02,3.51-.79,4.63-.77,1.13-1.99,1.79-3.67,2-.41.05-.87.07-1.37.05-.5-.02-1.03-.06-1.59-.12-.37-.06-.69-.22-.94-.49-.26-.27-.4-.57-.45-.91-.06-.52.07-.96.39-1.32.32-.37.73-.58,1.22-.64.05,0,.12-.01.19-.02s.16,0,.24.01c.74.09,1.36.11,1.85.05.83-.1,1.31-.41,1.44-.92.13-.51.15-1.17.05-1.97-.04-.36-.12-.92-.23-1.68-.11-.76-.23-1.61-.37-2.57-.03-.28-.17-.39-.39-.31-1.32.32-2.67.64-4.05.97-1.38.32-2.76.65-4.16.98-.23.05-.33.2-.3.43l1.12,9.14c.15,1.21.38,2.17.7,2.86.32.69.83,1.15,1.54,1.36.71.21,1.73.24,3.07.08,1.06-.13,2.38-.37,3.96-.72,1.58-.35,3.48-.79,5.69-1.32.51-.11.96-.03,1.37.25.4.28.63.68.7,1.19.05.44-.05.86-.32,1.26-.27.4-.63.65-1.09.76-2.09.46-3.94.87-5.55,1.21-1.61.34-3.02.58-4.23.73-2.74.33-4.74.08-6.03-.76-1.17-.77-1.97-1.83-2.39-3.17-.43-1.34-.74-2.83-.94-4.48l-.94-7.7c-.03-.26-.16-.35-.39-.27-.87.16-1.74.31-2.62.46-.87.15-1.75.26-2.63.34-.42.02-.8-.1-1.17-.37-.36-.27-.57-.62-.62-1.06-.06-.49.06-.92.35-1.28.3-.36.68-.57,1.14-.63.91-.08,1.78-.2,2.63-.34s1.68-.28,2.5-.4c.23-.03.33-.16.31-.39l-.8-6.58c-.06-.46.06-.88.34-1.26.28-.38.65-.59,1.12-.65.46-.06.88.06,1.26.34.37.28.59.67.65,1.16l.77,6.31c.03.23.16.32.39.27,1.43-.33,2.81-.66,4.14-.98,1.34-.32,2.66-.65,3.98-1,.2-.08.29-.22.26-.42l-1.01-6.64c-.06-.52.05-.96.35-1.34.29-.38.69-.59,1.18-.65.44-.05.85.06,1.22.34.37.28.59.64.64,1.08l.98,6.44c.03.23.16.32.39.27.97-.17,1.96-.34,2.95-.5.99-.16,1.99-.29,3-.39ZM57,28.6c-.29-.2-.45-.49-.5-.88-.04-.31.02-.58.18-.81.25-.32.55-.5.92-.54.26-.03.53.04.81.22,1.52,1.1,2.8,2.54,3.83,4.33.1.15.16.31.18.49.07.57-.14.99-.63,1.26-.15.1-.3.15-.45.17-.54.07-.95-.15-1.22-.64-.79-1.53-1.83-2.72-3.11-3.59ZM65.24,29.13c.1.15.15.3.17.45.04.34-.03.64-.22.91s-.46.43-.83.47c-.54.07-.95-.13-1.21-.6-.81-1.52-1.89-2.79-3.22-3.81-.29-.23-.45-.49-.49-.8-.03-.28.04-.54.22-.77.23-.29.51-.46.84-.5.26-.03.53.04.81.22.83.58,1.54,1.21,2.14,1.88s1.19,1.52,1.79,2.55Z"/>
        <path class="cls-17" d="M51.89,97.67c-1.91.23-3.6-.02-5.08-.77s-2.67-1.86-3.57-3.34c-.9-1.47-1.47-3.15-1.7-5.04-.22-1.83-.1-3.79.38-5.88.48-2.09,1.38-4.13,2.71-6.13.07-.09.1-.17.09-.25-.01-.1-.12-.12-.32-.04-.85.34-1.75.57-2.71.68-.34.04-.68.06-1.03.07-.35,0-.7,0-1.04-.01-.42-.03-.77-.19-1.04-.48-.27-.29-.43-.65-.48-1.06-.06-.46.06-.87.36-1.2.3-.34.66-.53,1.07-.58.05,0,.12-.01.19-.02.08,0,.14,0,.2.02.29.02.57.02.83.02.26,0,.52-.02.78-.06.95-.12,1.85-.36,2.68-.74.83-.38,1.59-.78,2.27-1.2.68-.42,1.26-.8,1.75-1.14.48-.33.87-.52,1.15-.55.52-.06.98.06,1.4.36.42.3.66.71.72,1.23.04.34,0,.69-.15,1.06-.14.37-.39.76-.76,1.17-2.56,3.06-4.27,5.81-5.12,8.23-.86,2.42-1.18,4.51-.96,6.27.16,1.29.53,2.38,1.13,3.28.59.9,1.3,1.58,2.12,2.06.82.48,1.63.73,2.45.76.4.03.81.02,1.25-.04.9-.11,1.78-.4,2.64-.87.86-.47,1.61-1.16,2.26-2.06.65-.9,1.12-2.06,1.4-3.47.29-1.41.31-3.11.06-5.1-.04-.36-.09-.72-.13-1.06s-.11-.7-.21-1.06c-.13-.66-.29-1.47-.45-2.42-.17-.95-.32-1.89-.46-2.83-.14-.94-.26-1.72-.35-2.35-.09-.63-.14-.97-.14-1.02-.09-.7.07-1.27.48-1.71.4-.44.86-.69,1.38-.76.36-.04.71,0,1.06.15.34.14.63.41.86.8.65,1.02,1.32,1.96,2.01,2.82.69.86,1.49,1.66,2.4,2.42.9.75,2.02,1.5,3.34,2.22.59.32.92.82,1.01,1.49.07.54-.04.98-.33,1.32-.29.34-.64.53-1.05.58-.34.04-.62-.02-.85-.17-1.09-.57-2.14-1.23-3.15-1.97-1.01-.74-1.88-1.47-2.63-2.19-.12-.12-.21-.16-.27-.14-.06.02-.09.1-.07.22.08.62.18,1.32.32,2.1.13.78.27,1.53.41,2.23.14.7.22,1.29.25,1.76.24,2.64.02,5-.67,7.08-.69,2.08-1.77,3.75-3.25,5.03-1.48,1.28-3.29,2.05-5.43,2.31Z"/>
        <path class="cls-17" d="M52.31,113.96l-9.52,1.16c-.41.05-.81-.06-1.18-.35-.38-.28-.59-.64-.64-1.08-.05-.44.07-.84.36-1.2.3-.36.65-.57,1.06-.62l9.52-1.16c.44-.05.84.06,1.2.34.36.28.57.64.62,1.08.05.44-.06.84-.34,1.2-.28.36-.64.57-1.08.62ZM50.67,108.94l-7.47.91c-.46.06-.88-.06-1.24-.36-.36-.3-.57-.66-.63-1.1s.06-.85.34-1.22c.28-.37.65-.59,1.12-.65l7.47-.91c.44-.05.84.06,1.2.34.36.28.57.66.63,1.12.05.44-.05.84-.32,1.22-.27.37-.64.59-1.1.65ZM44.18,116.92l7.2-.88c.44-.05.84.05,1.2.32.36.27.57.64.63,1.1.06.46-.06.88-.34,1.24-.28.36-.64.57-1.08.62l-7.2.88c-.44.05-.84-.06-1.2-.34-.36-.28-.57-.66-.63-1.12-.05-.44.06-.84.34-1.2.28-.36.64-.57,1.08-.62ZM44.82,122.11l7.2-.88c.44-.05.84.06,1.2.34.36.28.57.66.63,1.12.05.44-.06.84-.33,1.2-.27.36-.64.57-1.1.63l-7.2.88c-.44.05-.84-.06-1.2-.34-.36-.28-.57-.64-.62-1.08-.06-.46.06-.88.34-1.24.28-.36.64-.57,1.08-.62ZM54.74,128.75l.84,6.85c.08.7-.09,1.33-.52,1.89-.43.56-1,.89-1.73.98l-5.65.69c-.7.09-1.33-.09-1.89-.52-.56-.43-.89-1.01-.98-1.73l-.84-6.85c-.08-.67.1-1.29.54-1.87.44-.58,1.01-.91,1.71-1l5.65-.69c.7-.09,1.33.09,1.89.54s.89,1.01.98,1.71ZM48.01,135.75c.02.15.11.22.26.2l3.75-.46c.15-.02.22-.11.2-.26l-.64-5.27c-.02-.15-.11-.22-.26-.2l-3.76.46c-.15.02-.22.11-.2.26l.64,5.27ZM62.02,110.81c-.02-.15-.11-.22-.26-.2l-6.5.79c-.44.05-.85-.06-1.22-.34-.38-.28-.59-.65-.65-1.12-.05-.44.06-.85.34-1.22.28-.38.65-.59,1.12-.65l6.5-.79c.15-.02.22-.11.2-.26l-.22-1.82c-.05-.44.06-.84.34-1.2.28-.36.66-.57,1.12-.63.46-.06.88.06,1.24.34.36.28.57.64.62,1.08l.22,1.82c.02.16.11.22.26.2l6.7-.82c.46-.06.88.06,1.24.36.36.3.57.66.63,1.1.05.44-.06.85-.34,1.22-.28.38-.65.59-1.12.65l-6.7.82c-.15.02-.22.11-.2.26l.23,1.9c.02.15.11.22.26.2l4.8-.59c.46-.06.87.06,1.22.36.35.3.55.67.61,1.1.05.44-.05.84-.32,1.2-.27.36-.64.57-1.1.63l-13.2,1.61c-.44.05-.85-.05-1.22-.32-.37-.27-.59-.64-.65-1.1-.05-.44.06-.85.34-1.22.28-.38.65-.59,1.12-.65l4.61-.56c.15-.02.22-.11.2-.26l-.23-1.9ZM74.01,124.4c-.44.05-.84-.06-1.2-.34-.36-.28-.57-.64-.62-1.08l-.33-2.67c-.02-.16-.11-.22-.26-.2l-13.08,1.6c-.15.02-.22.11-.2.26l.33,2.67c.05.44-.06.84-.34,1.2-.28.36-.64.57-1.08.62-.44.05-.84-.06-1.2-.34-.36-.28-.57-.64-.62-1.08l-.44-3.6c-.09-.7.09-1.33.52-1.89.43-.56,1-.89,1.73-.98l14.94-1.83c.7-.09,1.33.09,1.89.52.56.43.89,1,.98,1.73l.44,3.6c.05.44-.05.84-.33,1.2-.27.36-.64.57-1.1.63ZM62.62,122.49c.46-.06.87.06,1.22.36.35.3.53.68.53,1.15.08,2.35-.19,4.44-.81,6.27-.61,1.83-1.42,3.4-2.41,4.7-.99,1.3-2.05,2.35-3.15,3.14-.17.12-.37.2-.6.23-.7.08-1.22-.19-1.56-.83-.1-.2-.17-.4-.19-.6-.08-.7.16-1.26.74-1.7,1.65-1.33,2.85-2.87,3.62-4.63.77-1.76,1.12-3.84,1.06-6.24,0-.44.15-.84.44-1.19.3-.35.66-.56,1.1-.65ZM76.88,131.43c.43.34.68.74.74,1.21.04.36-.06.73-.3,1.1-.99,1.35-2.67,2.17-5.04,2.46-3.56.44-5.54-.96-5.93-4.19l-1.02-8.36c-.05-.44.05-.84.33-1.2.27-.36.64-.57,1.1-.63.44-.05.84.06,1.2.34.36.28.57.64.62,1.08l1.02,8.36c.09.72.29,1.18.62,1.38.32.2.98.23,1.96.11.7-.08,1.25-.22,1.66-.42.41-.19.75-.48,1.02-.85.27-.37.64-.59,1.1-.65.36-.04.67.04.93.24Z"/>
        <path class="cls-17" d="M76.83,159.69c.52-.06.97.08,1.35.42.38.35.6.75.66,1.22.01.1.02.2.04.29.01.09,0,.19-.04.3-.54,2.45-1.32,4.49-2.36,6.12-1.03,1.63-2.18,2.88-3.43,3.74-1.26.86-2.5,1.37-3.74,1.52-.13.02-.27.03-.43.05-.15.02-.3.02-.43.01-1.23,0-2.24-.21-3.02-.61-.78-.4-1.4-.92-1.84-1.56-.45-.64-.79-1.32-1.04-2.05-.25-.73-.45-1.43-.61-2.11-.16-.67-.35-1.25-.56-1.72-.21-.47-.53-.76-.93-.87-.19-.06-.4-.07-.63-.04-1.86.23-3.8,3.02-5.81,8.37-.07.27-.14.55-.19.85-.06.3-.1.59-.15.88-.08.38-.27.7-.57.97-.29.27-.62.43-.98.47-.49.06-.92-.06-1.28-.35-.36-.3-.57-.66-.63-1.1-.01-.1-.02-.19-.01-.27,0-.08.01-.17.02-.28.34-1.74.77-3.62,1.29-5.64.53-2.02,1.11-4.07,1.74-6.17.63-2.09,1.29-4.14,1.96-6.13s1.33-3.86,1.97-5.58c.64-1.73,1.22-3.24,1.74-4.53.26-.66.74-1.03,1.43-1.12.52-.06.95.05,1.3.35.35.3.55.67.61,1.1.04.31,0,.62-.12.92-.77,1.85-1.6,4.03-2.5,6.53-.9,2.51-1.76,5.11-2.58,7.8-.02.06-.02.12-.02.2.02.18.14.19.36.04.85-.58,1.66-.91,2.43-1,.72-.09,1.39,0,2,.27.61.27,1.16.67,1.64,1.21.49.57.85,1.21,1.08,1.91.23.71.42,1.41.57,2.11.15.7.34,1.33.57,1.9s.58.99,1.06,1.29,1.19.39,2.12.27c1.5-.18,2.8-1.01,3.9-2.48,1.1-1.47,1.97-3.51,2.59-6.13.08-.38.27-.69.55-.93.28-.24.59-.39.93-.43Z"/>
        <path class="cls-17" d="M79.67,208.3c.07-.04.15-.06.23-.09.08-.02.15-.04.23-.05.44-.05.84.05,1.2.31.36.26.57.64.63,1.16.05.41-.03.81-.23,1.21-.2.39-.51.67-.94.82-.55.23-1.11.4-1.68.54-.57.14-1.16.24-1.75.31-2.04.25-4.02.04-5.93-.61-1.91-.66-3.52-1.72-4.83-3.18-.64-.71-1.17-1.56-1.61-2.55-.44-.99-.73-2.08-.87-3.27-.21-1.7-.04-3.54.5-5.52.54-1.98,1.65-3.99,3.31-6.02.07-.09.1-.17.09-.25-.02-.13-.11-.17-.29-.12-2.17.5-4.41.89-6.73,1.18-1.94.24-3.88.4-5.83.48-.44.03-.83-.11-1.17-.41-.34-.3-.53-.67-.59-1.11-.06-.52.08-.96.42-1.35.35-.38.77-.58,1.26-.59,1.88-.07,3.72-.22,5.53-.44,3.1-.38,6.02-.97,8.78-1.76,2.76-.79,5.32-1.8,7.69-3,.2-.1.39-.16.57-.19.44-.05.86.06,1.28.33.41.28.65.67.71,1.19.04.34-.01.66-.16.98-.14.32-.39.56-.73.74-1.38.69-2.81,1.33-4.29,1.9-.13.04-.26.11-.41.21-2.4,2-4.19,4.16-5.38,6.49-1.18,2.33-1.65,4.53-1.39,6.59.21,1.73.92,3.21,2.12,4.46,1.07,1.07,2.25,1.78,3.52,2.12,1.27.34,2.52.44,3.73.29,1.03-.13,2.03-.39,3.01-.8ZM77.82,190.96c1.49,1.07,2.77,2.52,3.83,4.33.06.07.1.15.11.22,0,.08.02.15.03.23.07.59-.14,1.02-.63,1.29-.15.1-.3.15-.45.17-.52.06-.91-.16-1.18-.68-.78-1.48-1.82-2.67-3.11-3.59-.31-.2-.49-.48-.53-.84-.04-.31.03-.58.22-.81.2-.31.49-.49.88-.54.28-.03.57.04.85.21ZM84.61,193.47c.1.15.16.31.18.49.06.52-.14.92-.6,1.21-.15.1-.3.15-.45.17-.52.06-.91-.15-1.18-.64-.79-1.5-1.87-2.76-3.25-3.77-.26-.2-.41-.46-.45-.77-.03-.28.04-.57.21-.85.2-.26.49-.41.85-.46.26-.03.53.04.81.21.83.58,1.54,1.21,2.14,1.88.59.67,1.17,1.51,1.74,2.52Z"/>
        <path class="cls-17" d="M16.97,142.05c-.34.04-.67-.02-1.01-.19-.33-.17-.59-.41-.76-.73-1.3-2.28-2.51-4.12-3.64-5.55-1.13-1.42-2.15-2.57-3.05-3.44-.91-.87-1.69-1.6-2.35-2.19s-1.19-1.16-1.58-1.71c-.4-.55-.64-1.23-.74-2.03-.09-.77.08-1.55.52-2.34.44-.79,1.03-1.7,1.77-2.75.74-1.05,1.53-2.35,2.37-3.9.84-1.56,1.62-3.49,2.34-5.81.09-.35.27-.64.54-.85.27-.22.58-.35.92-.39.54-.07,1,.07,1.37.4.37.33.58.73.64,1.2.03.23.02.47-.03.71-.54,1.77-1.12,3.31-1.72,4.61-.6,1.3-1.24,2.48-1.91,3.53-.67,1.05-1.39,2.11-2.15,3.17-.4.57-.7,1.02-.9,1.35-.2.33-.28.63-.24.91.03.26.2.53.49.8.3.28.72.67,1.28,1.18,1.14.94,2.22,1.94,3.25,3,1.03,1.07,2.05,2.26,3.05,3.6,1,1.33,1.98,2.9,2.93,4.69.1.17.17.39.2.64.06.49-.06.94-.34,1.36-.29.41-.71.66-1.25.72Z"/>
        <path class="cls-17" d="M16.62,158.16c-.65.5-1.34.94-2.1,1.34-.75.39-1.55.75-2.4,1.06-.15.04-.24.17-.27.39-.29,3.6-.88,7.07-1.77,10.41-.89,3.34-1.94,6.37-3.15,9.09-.12.28-.31.5-.55.68-.24.17-.5.28-.79.31-.36.04-.68,0-.96-.16-.59-.29-.92-.75-.99-1.37-.04-.34,0-.64.12-.92,1.21-2.77,2.19-5.54,2.95-8.34.76-2.79,1.29-5.62,1.6-8.49v-.08c-.04-.26-.17-.35-.4-.27-1.88.44-3.82.76-5.82.95-.44.03-.84-.1-1.21-.38-.36-.28-.57-.64-.62-1.08-.06-.49.06-.92.35-1.3.29-.38.69-.58,1.18-.62.34-.01.67-.04.99-.08.32-.04.65-.08.99-.12.77-.09,1.53-.21,2.28-.34.74-.13,1.47-.29,2.18-.48.2-.05.31-.18.31-.39.04-.92.05-1.86.03-2.81-.02-.95-.07-1.91-.13-2.87-.03-.44.11-.85.4-1.23.29-.38.66-.59,1.1-.65.52-.06.96.05,1.34.35s.58.7.62,1.22c.07.75.11,1.51.14,2.26.03.76.03,1.52.02,2.28v.08c.04.26.17.32.39.19.67-.34,1.32-.75,1.97-1.22.26-.19.55-.3.86-.34.62-.08,1.14.11,1.56.56.24.26.38.56.42.89.07.59-.14,1.09-.64,1.49ZM30.3,174.02c.1-.04.24-.07.42-.09.44-.05.84.06,1.2.33.36.27.57.64.63,1.1.05.39-.02.76-.22,1.13-.19.36-.49.64-.88.81-.9.37-1.8.68-2.72.92-.91.24-1.83.42-2.76.53-1.88.23-3.76.18-5.62-.14-1.86-.32-3.67-.94-5.43-1.85-.53-.28-.83-.7-.9-1.26-.04-.36.03-.71.23-1.05.25-.5.68-.79,1.27-.86.31-.04.64.03,1.01.19,2.84,1.41,5.83,1.92,8.95,1.54,1.63-.2,3.24-.63,4.83-1.3ZM15.62,161.23c-.05-.44.04-.84.29-1.19.24-.36.57-.59.98-.69.48-.11.97-.21,1.46-.3.49-.09.98-.16,1.47-.22,1.57-.19,3.13-.25,4.65-.18,1.53.07,2.92.3,4.17.67.33.09.6.27.81.55s.35.58.39.92c.06.49-.05.91-.34,1.26-.29.35-.65.55-1.09.6-.28.03-.54.01-.75-.06-2.31-.69-4.81-.87-7.49-.54-.41.05-.84.12-1.27.2-.44.08-.87.17-1.3.28-.46.11-.89.04-1.28-.22-.4-.25-.62-.61-.68-1.08ZM22.5,151.95c-.29-.2-.45-.49-.5-.88-.04-.31.02-.58.18-.81.2-.29.49-.45.88-.5.33-.04.62.03.85.21.78.56,1.47,1.19,2.1,1.89.62.7,1.2,1.51,1.73,2.44.1.15.15.3.17.45.07.57-.14.99-.63,1.26-.15.1-.31.16-.49.18-.52.06-.91-.15-1.18-.64-.41-.79-.86-1.46-1.35-2.02-.49-.56-1.07-1.08-1.76-1.57ZM30.74,152.47c.1.15.15.29.17.45.04.34-.03.65-.22.93-.19.29-.46.45-.82.49-.52.06-.91-.15-1.18-.64-.84-1.55-1.93-2.82-3.25-3.81-.29-.23-.45-.48-.49-.77-.03-.28.05-.56.25-.82.23-.29.49-.45.8-.49.28-.04.57.04.85.21.83.61,1.54,1.24,2.12,1.9.58.66,1.17,1.51,1.76,2.54Z"/>
        <path class="cls-17" d="M30.29,192.25c.19.24.3.5.33.78.08.67-.13,1.18-.64,1.53-.58.41-1.2.81-1.88,1.21-.67.4-1.4.77-2.2,1.13-.25.11-.29.27-.14.49l.09.11c1.18,1.77,2.26,3.51,3.21,5.23.96,1.72,1.73,3.27,2.32,4.67.03.07.07.21.09.42.03.28,0,.58-.13.88s-.33.54-.62.7c-.34.23-.69.36-1.05.4-.18.02-.37.02-.57,0-.2-.03-.4-.07-.58-.12-1.59-.54-3.06-.88-4.43-1.03-1.37-.15-2.59-.16-3.68-.02-1.34.16-2.47.5-3.39,1-.92.51-1.6,1.09-2.04,1.76-.44.67-.62,1.34-.54,2.01.11.93.79,1.71,2.02,2.35,1.23.64,3.08.8,5.56.5,1.42-.17,2.64-.4,3.67-.67,1.03-.27,2.14-.65,3.34-1.13.07-.03.15-.06.23-.09.08-.02.17-.04.27-.05.44-.05.84.06,1.2.33.36.27.57.66.64,1.18.04.34-.03.66-.22.97-.19.31-.45.54-.8.69-1.45.54-2.83.98-4.12,1.31-1.3.33-2.51.56-3.65.7-2.09.26-3.9.23-5.41-.08-1.52-.31-2.75-.82-3.68-1.53-.94-.71-1.61-1.53-2.01-2.45-.19-.5-.32-.98-.37-1.45-.15-1.19.09-2.38.72-3.58.63-1.2,1.62-2.25,3-3.14,1.37-.89,3.09-1.46,5.15-1.71,1.96-.24,4.19-.11,6.69.4.05.02.12.02.2.02.21-.03.24-.15.11-.37-.58-1.08-1.25-2.22-2.01-3.41-.76-1.19-1.55-2.38-2.38-3.56-.13-.17-.29-.21-.49-.14-1.61.54-3.29,1.01-5.03,1.42-1.74.41-3.47.72-5.17.93-.34.04-.68.08-1.03.13-.35.04-.69.07-1.03.09-.42.02-.79-.1-1.13-.37-.33-.27-.53-.62-.58-1.03-.06-.46.06-.87.34-1.22.28-.35.65-.54,1.09-.56l1.43-.18c1.68-.21,3.26-.46,4.76-.76s2.9-.66,4.21-1.08c.3-.09.35-.25.14-.49-.65-.84-1.3-1.61-1.96-2.33-.65-.72-1.27-1.37-1.87-1.95-.27-.28-.43-.59-.47-.93-.07-.54.1-.98.51-1.32.28-.24.63-.39,1.05-.44.59-.07,1.08.08,1.47.45.73.64,1.49,1.43,2.27,2.35.78.93,1.58,1.93,2.39,3.01.12.17.29.2.48.1.77-.36,1.48-.73,2.14-1.11s1.29-.79,1.89-1.23c.26-.19.53-.3.78-.33.64-.08,1.14.14,1.49.64Z"/>
        <path class="cls-17" d="M21.2,256.07c-1.08.13-2.19-.1-3.33-.69-1.13-.59-2.2-1.49-3.2-2.67-1-1.19-1.85-2.6-2.56-4.24s-1.19-3.43-1.42-5.37c-.16-1.32-.19-2.69-.09-4.11.1-1.43.36-2.89.78-4.38.2-.71.68-1.1,1.43-1.2.26-.03.5,0,.72.07.35.11.63.3.84.57.2.26.32.55.36.86.03.23.02.46-.04.67-.41,1.33-.67,2.62-.77,3.85-.1,1.23-.08,2.41.06,3.55.18,1.5.53,2.86,1.03,4.08.5,1.22,1.1,2.26,1.78,3.12.68.86,1.38,1.51,2.08,1.95.71.44,1.35.62,1.91.55.46-.06.85-.3,1.17-.73.31-.43.51-1.06.6-1.88.05-.48.23-.88.54-1.21.31-.33.69-.52,1.13-.57.46-.06.87.06,1.22.36.35.3.55.65.6,1.07.02.15.02.27,0,.35-.37,3.66-1.98,5.66-4.84,6.01ZM38.7,246.54c-.57.07-1.05-.08-1.45-.45-.4-.37-.63-.85-.71-1.45-.23-1.91-.93-3.46-2.08-4.66-1.15-1.19-2.67-1.93-4.53-2.2-.48-.07-.88-.3-1.21-.7-.32-.39-.46-.81-.41-1.27.08-.46.26-.84.56-1.17.3-.32.66-.51,1.07-.56.08,0,.22,0,.44.02,1.57.23,3.1.81,4.57,1.74,1.48.93,2.71,2.15,3.69,3.66.98,1.5,1.52,3.25,1.6,5.23.03.44-.11.84-.4,1.19-.3.35-.68.55-1.14.61Z"/>
        <path class="cls-17" d="M33.3,294.66c-.34.46-.74.72-1.2.78-.46.06-.9-.05-1.3-.33-.4-.28-.63-.62-.68-1.04-.04-.33.07-.69.34-1.06.48-.61.82-1.15,1.04-1.62.22-.47.35-.97.39-1.48.04-.52.02-1.14-.07-1.86-.07-.59-.32-1.2-.75-1.83-.43-.63-.96-1.3-1.58-2.01-.62-.71-1.25-1.48-1.89-2.3-.64-.83-1.19-1.71-1.66-2.67-.47-.95-.77-1.98-.91-3.09-.12-1.01-.05-2.1.21-3.27.26-1.17.8-2.43,1.6-3.79.28-.45.65-.71,1.09-.76.44-.05.85.07,1.22.36.38.29.59.67.65,1.14.05.41-.05.79-.29,1.14-.63,1.05-1.05,2-1.26,2.85-.21.85-.27,1.62-.19,2.32.11.88.39,1.69.85,2.43.46.74,1,1.46,1.64,2.14.63.68,1.26,1.38,1.89,2.09.62.71,1.17,1.49,1.64,2.33.47.85.77,1.8.9,2.86.15,1.24.09,2.37-.17,3.4-.27,1.03-.76,2.12-1.48,3.29Z"/>
      </g>
      <path class="cls-6" d="M181.01,185.8c-2.88,1.14-4.96,1.37-6.88-.95,2.03.52,4.22-1.45,6.88.95Z"/>
      <g>
        <path class="cls-1" d="M329.05,349.6c-3.52-.04-7.11.56-10.84-1.48,5.28-6.07,10.44-12.09,14.25-19.06,3.66-6.7.77-13.64-6.69-16.05-5.22-3.3-11.55-2.5-17.1-4.65-5.07-1.96-10.08-7.62-8.45-10.46,2.58-4.51.04-6.63-3.37-8.21-6.79-3.14-11.92-8.27-16.99-13.49-3.21-3.3-4.78-7.02-3.14-11.86,1.21-3.57,1.59-7.42,2.34-11.14-.42-12-.87-24-2.3-35.93.94-1.45.44-2.83-.17-4.22.81-8.54.78-16.99-2.44-25.14-2.85-4.68-7.05-9.11-11.85-10.08-9.3-1.86-15.87-7.87-23.38-12.43-7.04-4.26-12.87-9.98-19.18-17.5,7.51.64,11.3-2.04,11.42-7.77.09-4.82,1.18-9.22,2.85-13.6h0c2.6-4.81,4.66-9.83,6.08-15.12,0,0,0,0,0,0,2.49-7.11,4.99-14.23,7.48-21.34.41-1.33-.22-3,1.29-3.97h0c2.08-1.51,1.99-4,2.59-6.11,4.29-15.12.93-17.42-10.15-19.21-.22-.04-.36-.63-.49-.88,3.04-3.48,6.17-6.83,9.02-10.39,2.86-3.59,5.7-7.24,8.11-11.14,7.98-12.86,2.97-24.61-11.68-27.5-3.78-.74-8.96-1.94-12.48.52-8.46,5.91-13.7,11.93-14.95,22.73-.31,2.68-.6,5.42-1.38,7.98-2.97,9.8-2.96,9.47-12.94,6.76-4.42-1.2-3.1-2.57-1.32-4.84,3.22-4.11,6.16-8.38,8.6-13.04,9.15-17.46,5.07-26.42-14-30.16-17.33-3.4-26.05,3.62-26.17,21.31-.04,5.2.48,10.41.75,15.62.2,3.89-.65,6.2-5.27,3.95-3.43-1.67-7.25-2.04-11.01-2.41-8.65-.87-11.46,1.47-13.7,9.96-3.66,13.9-7.83,27.66-11.51,41.55-2.61,9.88-4.21,19.98-5.51,30.11-.61,4.77,1.47,7.57,6.42,8h0c2.75,2.85,8.43.66,9.91,5.7-2.27,3.6-1.35,4.92-3,11.77-1.65,6.85-6.03,31.38-7.34,35.14-1.31,3.76-1.89,11.32.18,12.8s5.91,2.77,9.16,3.11c2.59.27,4.98.53,6.11,3.3h0c1.47,4.91,7.65,7.01,9.91,7.39s4.87,1.24,9.4.03c2.95-.79,8.9-3.72,13.51-5.18,3.95-.91,7.55.62,11.23,1.6,10.24,5.15,20.85,4.6,31.58,1.98h0c1.98-.05,4.42.2,4,2.7s-12.52,34.27-12.77,36.42-2.72,4.34.59,6.06h0c-.33.72-.51,1.92-1.03,2.08-11.11,3.56-19.6,11.67-29.69,16.96-2.03,1.06-5.27,2.29-4.36,4.6,2.31,5.83-2.11,6.61-5.35,8.31-4.58,2.4-9.28,4.59-13.98,6.89-1.6-2.42-1.09-5.07-1.8-7.42-2.18-7.21-4-14.79-12.5-17.42-12.58-3.89-26.29,6.76-25.73,20.33.3,7.48,1.22,15,2.7,22.34,3.1,15.36,20.42,21.44,31.94,10.68,10.27-9.6,22.54-14.87,35.14-19.91,2.83-1.13,6.07-2.48,8.87.11,4.17,3.86,8.1,2.69,12.6.42,11.16-5.62,22.42-11.1,34.79-13.7,5.75,9.41,10.19,19.67,18.46,27.43,3.2,3,6.67,5.22,10.48,2.22,3.56-2.81,4.97-.85,7.02,1.49,2.5,2.86,3.92,7,8.48,7.6h0c1.16.98,1.58,2.15.93,3.59-9.89,4.27-9.35,12.43-7.39,21.22-1.51,0-2.55-.03-3.58,0-16.95.51-33.89-.07-50.88.73-13.06.62-26.28.98-39.53-.21-15.17-1.36-30.53-.63-45.81-.72-2.4-.01-4.91.65-4.84,3.7.07,3.08,2.58,3.47,5.01,3.38,7.54-.27,15.1.84,22.55.65,19.9-.51,39.74,2.24,59.62.62,13.58-1.11,27.18-.77,40.79-.68,10.84.07,21.68.14,32.52.02,9.83-.11,19.59,2.01,29.46.75,2.75-.35,6-.29,5.88-4.04-.12-3.43-3.08-4.14-5.98-4.17ZM210.57,181.35c-2.25-.07-3.44-1.14-3.03-3.64.56-1.21-.13-3.9,2.18-3.45,2.53.5,3.93,3.12,4.22,5.47.21,1.68-1.95,1.67-3.37,1.62Z"/>
        <g>
          <path class="cls-8" d="M271.58,263.23c-2.03,5.81-3.08,6.34-11.48,12.52s-30.13,8.55-44.53,14.87c-3.94,1.73-7.31,6.13-11.79,4.92-4.35-1.18-5.61-6.46-8.63-9.57-2.31-2.38-5.09-4.29-7.5-6.57-1.85-1.74-2.33-3.57.71-4.69,9.73-3.58,16.44-12.1,26.18-15.82,2.15-.82,4.67-1.58,6.6-3.18,1.34-.78,2.78.07,4.14.43,1.48.36,3,.43,4.51.55,4.71,1.24,21.43,4.4,25.17,4.19s11.13-.41,12.82-.93,4.38-2.28,3.82,3.28Z"/>
          <path class="cls-10" d="M263.98,279.66c4.81-3.67,8.45-1.71,12.01,2.17,2.24,2.44,4.89,4.55,7.55,6.55,2.65,2,5.55,3.67,8.64,5.68-.83,2.44-2.99,3.61-5.12,4.72-4.3,2.25-8.19,5.09-11.42,8.66-3.05,3.37-4.9,4.12-8.76.12-5.67-5.89-8.91-13-13.03-19.71-1.53-2.49-.99-3.61,1.43-4.48,2.43-.87,6.15-1.65,8.7-3.7Z"/>
          <path class="cls-16" d="M154.13,295.97c.19,3.93-4.28,5.53-7.11,7.82-3.82,3.1-4.52,5.74-1.21,9.24,2.78,2.94,1.02,4.25-1.69,5.38-5.25,2.19-11.12.55-13.34-4.74-4.33-10.31-5.91-21.29-5.06-32.4.46-6,6.79-10.59,12.97-10.61,5.49-.02,12.29,5.34,13.6,11.28.94,4.25,1.17,8.65,1.84,14.02Z"/>
          <path class="cls-15" d="M151.58,313.07c-.85-.91-1.7-1.77-2.48-2.69-.99-1.18-.62-2.11.37-3.23,8.94-10.21,20.71-16.08,32.98-20.98,3.83-1.53,6.26,2.39,8.7,4.74.98.94-.23,1.79-1.28,2.14-13.15,4.43-25.79,9.82-36.42,19.04-.44.38-1.06.57-1.86.98Z"/>
          <path class="cls-14" d="M319.32,329.73c2.66-1.24,4.18-3.16,3.8-6.24,1.03-2.12,1.75-4.83,5.02-2.52,2.86,2.32.55,4.68-.4,6.51-2.19,4.18-4.82,8.16-7.57,12.01-8.04,11.26-16.45,10.66-28.14,7.6-5.39-1.41-6.54-7.68-2.61-12.19,1.49-1.71,3.27-3.15,4.92-4.72,4.44-1.49,8.93-1.24,13.43-.33,3.86.76,7.71.93,11.55-.12Z"/>
          <path class="cls-12" d="M319.22,316.3c.99,6.86-2.13,10.47-8.37,9.48-4.91-.78-9.86-1.45-14.44-3.57-2.3-1.56-5.51-1.63-7.12-4.33-.56-.86-1.08-1.76-1.7-2.58-5.27-6.98-5.05-7.43,3.05-11.47,2.58-1.29,4.29-.95,5.87,1.18,2.34,3.16,5.44,5.37,8.85,7.22,4.35,2.26,9.45,2.04,13.86,4.09Z"/>
        </g>
        <g>
          <path class="cls-11" d="M242.81,174.62c-6.9,1.59-11.76,2.7-16.62,3.82-2.71.63-4.91-.26-6.77-2.2-2.44-2.55-4.9-5.08-7.3-7.68-1.77-1.92.29-14.6,2.47-15.59,1-.46,1.58.22,2.14.78,7.49,7.45,15.18,14.67,26.07,20.87Z"/>
          <path class="cls-9" d="M264.7,185.59c-7.11-4.68-14.58-6.49-23.16-4.34-8.51,2.14-17.21,3.68-25.89,5.01-4.71.72-9.58.36-14.37.67-6.33.4-6.9,5.12-6.95,9.88-.06,5.34,4.36,4.81,7.71,5.2,2.64.31,4.79,1.19,11.19.73s13.33-3.93,20.02-2.46c4.42.57,19.77-.04,22.74-1.73s4.79-2.86,6.64-5.01c1.42-2.47,5.55-4.22,2.07-7.96Z"/>
          <path class="cls-4" d="M179.59,197.87c-2.23-.46-.78-.55-5.16,2.19-9.37,5.86-12.85,3.69-16.2,3.07-6.85-2.96-7.51-6.61-2.19-11.35.95-.85,1.57-.3,2.13-.03,5.55,2.68,7.01-2.42,8.26-7.37,4.26,5.8,10.39,7.9,16.51,8.49,2.18.21,4.14.5,5.21,2.68-1.55,5.54-5.4,2.63-8.55,2.32Z"/>
        </g>
        <g>
          <g>
            <path class="cls-3" d="M176.97,150.02c-1.15-.4-1.5-3.77-2.23-4.06-1.01-.4-3.84,4.76-4.68,1.49-.56-2.18.29-5,1.25-7.2,1.11-2.53,3.68-1.26,5.57-.88,2.43.49,4.74,1.53,7.15,2.19,2.03.56,3.43,1.39,3.02,3.85-.37,2.22-1.72,4.74-3.5,4.74-1.42,0-2.21-3.69-2.87-3.57s-2.46,3.87-3.71,3.44Z"/>
            <path class="cls-7" d="M201.06,143.51c-8.94-2.02-10.82-3.25-13.28,5.27-.62,2.16-2.69,4.89-4.37,4.94-1.36.04-.76-3.56-2.76-3.57-1.13,0-2.31,3.39-4.65,2.68-1.42-.43-1.87-2.3-2.94-2.37s-2.72,1.35-3.45,1.17c-3.29-.81-3.1-3.16-2.37-10.66.29-2.94-.07-3.57-.95-4.01s-5.81-1.04-8.62-1.53c-2.8-.49-4.24-.21-6.29-.71-6.42-1.56-6.08,2.04-6.78,5.09-2.05,8.88-8.59,39.45-9.09,41.88s-2,8.63-.14,9.92,2.88.8,5.84,1.15c.73.08,2.41.19,3.12.19s2.53.49,3.41-1.29,1.98-7.17,6.43-6.47c3.6.57,5.18-.76,6.92-3.51,1.39-2.2,4.32-3.4,6.65-2.22,3,1.53,6.11.95,9.11,1.5,3.59.66,7.1.48,7.9,5.21.24,1.4,2.36,2.16,2.93,1.36,3.47-4.9,8.66-6.54,13.98-8.14.34-.1.53-1.09.58-1.68.67-8.15,3.66-15.78,5.44-23.68,1.93-8.58,2.1-8.55-6.61-10.52Z"/>
            <!-- <animateTransform attributeName="transform" type="translate" from="0,0" to="-1,-1" dur="0.3s" repeatCount="indefinite" />
            <animateTransform attributeName="transform" type="rotate" from="0,0,0" to="0,200,0" additive="sum" dur="200ms" repeatCount="indefinite" /> -->
          </g>
          <g>
            <g>
              <path class="cls-7" d="M232.02,57.83c8.6-4.27,13.04-12.08,18.4-19.22,4.04-5.37,4.8-14.18,1.49-19.77-2.42-4.09-12.52-6.42-15.61-3.11-3.94,4.21-8.2,8.33-10.23,13.98,0,0,0,.01,0,.02-1.2,8.29-3.82,16.22-6.07,24.24-.63,2.25-.94,4.74-4.04,4.47-4.05-.36-5.21,2.43-6.43,5.31-1.33,2.6.17,4.21,1.9,5.9,3.88,3.76,6.32,8.45,8.74,13.14-2.45-3.11-4.55-6.44-6.7-9.73-1.7-2.59-3.59-5.23-7.44-4.36-3.4-.52-6.79-1.12-10.21-1.54-6.89-.85-7.81-2.56-5.34-9.24.83-2.24,2.98-4.33,1.72-7.04-1.48-3.18.51-4.96,2.32-7.08,4.69-5.48,10.07-10.6,12.77-17.39,1.83-4.62,5.25-9.59.78-14.72-6.24-7.15-13.16-9.6-23.4-4.81-1.03.34-1.6.84-2.1,1.27-5.06,2.7-5.01,9.16-5.15,13.52-.22,7.08.08,14.2.67,21.26.46,5.47-2.2,6.85-6.74,5.99-4.52-.85-8.92-2.31-13.41-3.3-7.29-1.6-8.29-.79-9.97,6.27-.91,3.85-2.5,7.53-3.51,11.35-3.53,13.28-7.42,26.49-10.17,39.93-1.08,5.26-2.92,12.02-3.59,15.67s2.15,4.94,5.74,6.36,16.22,4.64,17.97,5c3.37.97,10.98-.15,10.98-.15,4.11,0,7.99,1,11.73,2.66,3.53,1.17,6.55,3.98,10.47,3.83,8.68-.34,16.93,1.79,25.32,3.56,11.42,2.41,11.82,2.07,13.4-9.51,1-7.31,5.89-12.71,8.12-19.34,3.29-4.09,2.87-9.28,4.22-13.95-.39-3.53,7.43-24.87,8.64-28.47-4.8-1.4-9.66-2.62-14.37-4.26-4.33-1.51-4.65-4.89-.93-6.74ZM226.22,30c.42.8.59,1.6.63,2.36-.07-.75-.26-1.56-.63-2.36Z"/>
              <path class="cls-5" d="M201.59,61.34c-.69-.12-3.13,2.18-3.9,2.28s-.55-2.41-1.31-2.45c-1.04-.06-2.4,3.13-2.91,1.85-.79-1.99.18-5.3,1.41-7.36,2.08-3.49,5.25-2.29,7.73-1.43,2.38.83,7,.77,6.45,3.97-.54,3.17-3.23,8.16-6.54,7.33-.71-.18.29-3.7-.93-4.19Z"/>
              <path class="cls-2" d="M209.54,63.75c1.48,5.32,7.28,7.54,9.12,12.61.2.55.8.95,1.16,1.46,1.88,2.72,4.92,6.83,2.05,8.64-3.4,2.15-3.33-3.41-4.94-5.38-3.5-4.24-5.12-10.09-10.88-12.37,1.02-1.75,1.47-3.9,3.49-4.95Z"/>
              <path class="cls-1" d="M189.26,121.63c5.17,4.21,9.97,1.16,14.53-1.11,2.69-1.34,1.21-4,.4-6.1-.42-1.08-.5-2.07.6-2.7,1.1-.63,1.95.03,2.73.8,2.83,2.76,2.66,8.23-.35,10.69-7.2,5.88-17.44,5.34-23.7-1.58-1.84-2.03-3.23-2.31-5.85-1.67-6.52,1.59-12.96,1.55-18.03-3.93-4.13-4.46-4.13-11.75-.05-14.55,1.06-.72,2.17-1.46,3.42-.51.96.73,1.25,1.88.28,2.67-3.8,3.11-3.43,6.35-.38,9.6,3.99,4.25,8.99,5,14.07,2.72,6.06-2.72,6.62-5.7,3.02-11.69-3.05-5.07-2.35-11.53,1.52-14.17,4.71-3.21,11.82-2.08,15.29,2.43,3.09,4.01,2.38,9.59-1.64,12.91-1.85,1.53-4.04,2.09-6.39,2.33-2.23.22-2.4,1.97-2.51,3.7-.99,3.99,1.05,7.07,3.05,10.17Z"/>
              <path class="cls-1" d="M186.17,64c-.32.39-.68,1.24-1.31,1.53-6.35,2.93-12.75,5.77-19.13,8.65-1.27.57-1.98-.12-2.35-1.15-.44-1.24-.19-3.11.77-3.33,6.94-1.57,12.73-6,19.62-7.59,1.02-.24,2.04.21,2.4,1.89Z"/>
              <path class="cls-1" d="M209.13,92.02c-1.37,1.84-7.49,2.84-9.29-2.23-.76-2.16-.2-4.58,2.06-6.02,2.99-1.92,6.82-.56,7.89,1.3s.71,5.11-.66,6.95Z"/>
              <path class="cls-1" d="M178.13,76.08c4.12.08,5.62,1.92,5.72,5.09.1,3.46-2.14,4.95-5.08,4.88-3.18-.08-5.66-1.83-5.43-5.41.21-3.22,2.51-4.5,4.79-4.56Z"/>
              <path class="cls-13" d="M188.85,103.93c-5.06.02-6.8-2.2-6.94-6.21-.16-4.61,2.92-5.85,6.43-5.69,3.53.16,6.52,2,6.36,6.19-.15,4.14-2.99,5.57-5.85,5.71Z"/>
              <!-- <animateTransform attributeName="transform" type="translate" from="0,0" to="1,1" dur="0.3s" repeatCount="indefinite" /> -->
            </g>
            <g>
              <path class="cls-1" d="M116.86,93.3c.74,1.44,1.71,2.83,2.16,4.37.39,1.34.59,3.13-.88,4-2.14,1.26-3.48,2.63-2.83,5.36.39,1.67-1.06,2.63-2.15,3.54-1.53,1.28-2.07,2.48-.51,4.15.54.57.78,1.45,1.05,2.23.23.69-1.22,1.78-1.97,1.53-4.32-1.43-6.02-5.52-3.39-9.06,1.31-1.76,2.34-3.3,2.01-5.53-.2-1.36.34-2.53,1.44-3.26,2.37-1.56,2.55-3.36,1.11-5.69-1.41-2.28-.77-4.24,1.44-5.68,1.03-.67,2.13-1.23,3.16-1.89,1.17-.76,1.59-1.54.68-3-.6-.95-.67-2.48,1.07-2.94,1.45-.38,2.43.41,3.12,1.52,2.13,3.4,1.45,5.94-2.02,7.97-1.05.62-2.42.72-3.48,2.38Z"/>
              <path class="cls-1" d="M256.62,101.7c-1.72-.14-2.34-.19-2.97-.24-.71-.05-1.08-.46-1.25-1.13-.19-.74.22-1.47.7-1.58,3.72-.83,4.15-4.92,6.82-6.77.66-.46,1.17-1.23,1.06-2.16-.42-3.29.72-5.51,3.96-6.84,1.96-.8,1.06-2.89,1.12-4.49.04-1.16-.53-2.75,1.11-3.15,1.46-.36,2.11.94,2.69,2.07,2.19,4.25,1.89,6.37-2.28,8.83-2.18,1.28-3.05,2.58-2.7,4.9.24,1.62-.49,2.78-1.63,3.84-1.05.98-2.13,1.87-2.53,3.44-.66,2.61-2.56,3.6-4.11,3.27Z"/>
              <!-- <animateTransform attributeName="transform" type="translate" from="0,0" to="2,0" dur="0.3s" repeatCount="indefinite" /> -->
            </g>
          </g>
        </g>
      </g>
    </g>
  </g>
</svg>