<?xml version="1.0" encoding="UTF-8"?>
<svg id="_レイヤー_2" data-name="レイヤー 2" xmlns="http://www.w3.org/2000/svg" viewBox="0 0 215.24 212.12">
  <defs>
    <style>
      .cls-1 {
        fill: #231815;
      }

      .cls-1, .cls-2, .cls-3, .cls-4, .cls-5, .cls-6, .cls-7, .cls-8, .cls-9, .cls-10 {
        stroke-width: 0px;
      }

      .cls-2 {
        fill: #f6d798;
      }

      .cls-3 {
        fill: #716f5b;
      }

      .cls-4 {
        fill: #fbee1c;
      }

      .cls-5 {
        fill: #615f52;
      }

      .cls-6 {
        fill: #f91c46;
      }

      .cls-7 {
        fill: #f8d999;
      }

      .cls-8 {
        fill: #f89009;
      }

      .cls-9 {
        fill: #f7d898;
      }

      .cls-10 {
        fill: #f89008;
      }
    </style>
  </defs>
  <g id="design">
    <g>
      <path class="cls-1" d="M209.26,203.48c-3.52-.04-7.11.56-10.84-1.48,5.28-6.07,10.44-12.09,14.25-19.06,3.66-6.7.77-13.64-6.69-16.05-5.22-3.3-11.55-2.5-17.1-4.65-5.07-1.96-10.08-7.62-8.45-10.46,2.58-4.51.04-6.63-3.37-8.21-6.79-3.14-11.92-8.27-16.99-13.49-3.21-3.3-4.78-7.02-3.14-11.86,1.21-3.57,1.59-7.42,2.34-11.14-.42-12-.87-24-2.3-35.93.94-1.45.44-2.83-.17-4.22.81-8.54.78-16.99-2.44-25.14-2.85-4.68-7.05-9.11-11.85-10.08-9.3-1.86-15.87-7.87-23.38-12.43-7.04-4.26-12.87-9.98-19.18-17.5l-7.21-1.79-4.53,21.15c-.95,4.45-3.31,8.48-6.72,11.49l-5.39,4.76c-4,3.53-9.43,4.95-14.64,3.83l-5.72-1.22c-2.59.2-6.59-6.93-8.73-5.45l-2.89,4.13c-2.24,1.55-4.69,2.77-7.28,3.63l1-1c-3.25,1.08-5.9,3.49-7.29,6.62l-3.53,6.69c1.47,4.91,7.65,7.01,9.91,7.39,2.26.38,4.87,1.24,9.4.03,2.95-.79,8.9-3.72,13.51-5.18,3.95-.91,7.55.62,11.23,1.6,10.24,5.15,20.85,4.6,31.58,1.98h0c1.98-.05,4.42.2,4,2.7-.43,2.51-12.52,34.27-12.77,36.42-.25,2.15-2.72,4.34.59,6.06h0c-.33.72-.51,1.92-1.03,2.08-11.11,3.56-19.6,11.67-29.69,16.96-2.03,1.06-5.27,2.29-4.36,4.6,2.31,5.83-2.11,6.61-5.35,8.31-4.58,2.4-9.28,4.59-13.98,6.89-1.6-2.42-1.09-5.07-1.8-7.42-2.18-7.21-4-14.79-12.5-17.42C13.17,115.72-.54,126.37.02,139.94c.3,7.48,1.22,15,2.7,22.34,3.1,15.36,20.42,21.44,31.94,10.68,10.27-9.6,22.54-14.87,35.14-19.91,2.83-1.13,6.07-2.48,8.87.11,4.17,3.86,8.1,2.69,12.6.42,11.16-5.62,22.42-11.1,34.79-13.7,5.75,9.41,10.19,19.67,18.46,27.43,3.2,3,6.67,5.22,10.48,2.22,3.56-2.81,4.97-.85,7.02,1.49,2.5,2.86,3.92,7,8.48,7.6h0c1.16.98,1.58,2.15.93,3.59-9.89,4.27-9.35,12.43-7.39,21.22-1.51,0-2.55-.03-3.58,0-16.95.51-33.89-.07-50.88.73-13.06.62-26.28.98-39.53-.21-15.17-1.36-30.53-.63-45.81-.72-2.4-.01-4.91.65-4.84,3.7.07,3.08,2.58,3.47,5.01,3.38,7.54-.27,15.1.84,22.55.65,19.9-.51,39.74,2.24,59.62.62,13.58-1.11,27.18-.77,40.79-.68,10.84.07,21.68.14,32.52.02,9.83-.11,19.59,2.01,29.46.75,2.75-.35,6-.29,5.88-4.04-.12-3.43-3.08-4.14-5.98-4.17ZM90.78,35.23c-2.25-.07-3.44-1.14-3.03-3.64.56-1.21-.13-3.9,2.18-3.45,2.53.5,3.93,3.12,4.22,5.47.21,1.68-1.95,1.67-3.37,1.62Z"/>
      <path class="cls-3" d="M151.79,117.11c-2.03,5.81-3.08,6.34-11.48,12.52-8.4,6.18-30.13,8.55-44.53,14.87-3.94,1.73-7.31,6.13-11.79,4.92-4.35-1.18-5.61-6.46-8.63-9.57-2.31-2.38-5.09-4.29-7.5-6.57-1.85-1.74-2.33-3.57.71-4.69,9.73-3.58,16.44-12.1,26.18-15.82,2.15-.82,4.67-1.58,6.6-3.18,1.34-.78,2.78.07,4.14.43,1.48.36,3,.43,4.51.55,4.71,1.24,21.43,4.4,25.17,4.19s11.13-.41,12.82-.93,4.38-2.28,3.82,3.28Z"/>
      <path class="cls-10" d="M34.35,149.85c.19,3.93-4.28,5.53-7.11,7.82-3.82,3.1-4.52,5.74-1.21,9.24,2.78,2.94,1.02,4.25-1.69,5.38-5.25,2.19-11.12.55-13.34-4.74-4.33-10.31-5.91-21.29-5.06-32.4.46-6,6.79-10.59,12.97-10.61,5.49-.02,12.29,5.34,13.6,11.28.94,4.25,1.17,8.65,1.84,14.02Z"/>
      <path class="cls-5" d="M144.19,133.54c4.81-3.67,8.45-1.71,12.01,2.17,2.24,2.44,4.89,4.55,7.55,6.55,2.65,2,5.55,3.67,8.64,5.68-.83,2.44-2.99,3.61-5.12,4.72-4.3,2.25-8.19,5.09-11.42,8.66-3.05,3.37-4.9,4.12-8.76.12-5.67-5.89-8.91-13-13.03-19.71-1.53-2.49-.99-3.61,1.43-4.48,2.43-.87,6.15-1.65,8.7-3.7Z"/>
      <path class="cls-9" d="M31.79,166.95c-.85-.91-1.7-1.77-2.48-2.69-.99-1.18-.62-2.11.37-3.23,8.94-10.21,20.71-16.08,32.98-20.98,3.83-1.53,6.26,2.39,8.7,4.74.98.94-.23,1.79-1.28,2.14-13.15,4.43-25.79,9.82-36.42,19.04-.44.38-1.06.57-1.86.98Z"/>
      <path class="cls-8" d="M199.54,183.61c2.66-1.24,4.18-3.16,3.8-6.24,1.03-2.12,1.75-4.83,5.02-2.52,2.86,2.32.55,4.68-.4,6.51-2.19,4.18-4.82,8.16-7.57,12.01-8.04,11.26-16.45,10.66-28.14,7.6-5.39-1.41-6.54-7.68-2.61-12.19,1.49-1.71,3.27-3.15,4.92-4.72,4.44-1.49,8.93-1.24,13.43-.33,3.86.76,7.71.93,11.55-.12Z"/>
      <path class="cls-7" d="M199.44,170.19c.99,6.86-2.13,10.47-8.37,9.48-4.91-.78-9.86-1.45-14.44-3.57-2.3-1.56-5.51-1.63-7.12-4.33-.56-.86-1.08-1.76-1.7-2.58-5.27-6.98-5.05-7.43,3.05-11.47,2.58-1.29,4.29-.95,5.87,1.18,2.34,3.16,5.44,5.37,8.85,7.22,4.35,2.26,9.45,2.04,13.86,4.09Z"/>
      <path class="cls-6" d="M124.09,27.39c-6.89,1.63-11.74,2.78-16.6,3.94-2.7.65-4.91-.23-6.78-2.15-2.46-2.53-4.94-5.05-7.35-7.63-1.79-1.91.19-14.6,2.36-15.61,1-.46,1.59.21,2.15.76,7.54,7.4,15.28,14.56,26.22,20.69Z"/>
      <path class="cls-4" d="M145.91,38.47c-7.11-4.68-14.58-6.49-23.16-4.34-8.51,2.14-17.21,3.68-25.89,5.01-4.71.72-9.58.36-14.37.67-6.33.4-6.9,5.12-6.95,9.88-.06,5.34,4.36,4.81,7.71,5.2,2.64.31,4.79,1.19,11.19.73s13.33-3.93,20.02-2.46c4.42.57,19.77-.04,22.74-1.73s4.79-2.86,6.64-5.01c1.42-2.47,5.55-4.22,2.07-7.96Z"/>
      <path class="cls-2" d="M60.81,50.76c-2.23-.46-.78-.55-5.16,2.19-9.37,5.86-12.85,3.69-16.2,3.07-6.85-2.96-7.51-6.61-2.19-11.35.95-.85,1.57-.3,2.13-.03,5.55,2.68,7.01-2.42,8.26-7.37,4.26,5.8,10.39,7.9,16.51,8.49,2.18.21,4.14.5,5.21,2.68-1.55,5.54-5.4,2.63-8.55,2.32Z"/>
    </g>
  </g>
</svg>