<?xml version="1.0" encoding="UTF-8"?>
<svg id="_レイヤー_2" data-name="レイヤー 2" xmlns="http://www.w3.org/2000/svg" viewBox="0 0 82.76 73.63">
  <defs>
    <style>
      .cls-1 {
        fill: #231815;
      }

      .cls-1, .cls-2, .cls-3, .cls-4 {
        stroke-width: 0px;
      }

      .cls-2 {
        fill: #964628;
      }

      .cls-3 {
        fill: #56411c;
      }

      .cls-4 {
        fill: #faa2ad;
      }
    </style>
  </defs>
  <g id="design">
    <g>
      <path class="cls-1" d="M25.42,73.52l27.93-4.23c4.79-.16,13.35,1.01,15.15-3.43l5.25-12.99c.08-.21.17-.42.27-.62l1.24-2.63c.68-1.45,1.07-3.03,1.14-4.63.2-4.34,1-4.46,1.83-8.99.09-.47.19-.94.33-1.4l2.79-9.31c1.22-4.07,1.91-6.85,1-11-.08-.37-.93-1.57-2.42-2.16-4.43-1.75-12.05-3.62-14.97-4.54l-9.88-3.12c-2.49-.79-5.03-1.38-7.61-1.78L32.13.34C27.67-.35,23.11.02,18.81,1.41l-1.22.4c-4.33,1.4-7.52,5.1-8.24,9.59-.18,1.13-.43,2.48-.83,4.15-1.65,6.85-6.03,31.38-7.34,35.14-1.31,3.76-1.89,11.32.18,12.8,2.07,1.48,5.91,2.77,9.16,3.11,1.96.21,4.46,2,5.55,2.85.35.28.67.59.96.93h0c2.06,2.44,5.24,3.63,8.39,3.15Z"/>
      <path class="cls-3" d="M52.84,53.97c-2.88,1.14-4.96,1.37-6.88-.95,2.03.52,4.22-1.45,6.88.95Z"/>
      <path class="cls-2" d="M47.8,20.19c-1.15-.4-1.5-3.77-2.23-4.06-1.01-.4-3.84,4.76-4.68,1.49-.56-2.18.29-5,1.25-7.2,1.11-2.53,3.68-1.26,5.57-.88,2.43.49,4.74,1.53,7.15,2.19,2.03.56,3.43,1.39,3.02,3.85-.37,2.22-1.72,4.74-3.5,4.74-1.42,0-2.21-3.69-2.87-3.57s-2.46,3.87-3.71,3.44Z"/>
      <path class="cls-4" d="M71.89,13.69c-8.94-2.02-10.82-3.25-13.28,5.27-.62,2.16-2.69,4.89-4.37,4.94-1.36.04-.76-3.56-2.76-3.57-1.13,0-2.31,3.39-4.65,2.68-1.42-.43-1.87-2.3-2.94-2.37s-2.72,1.35-3.45,1.17c-3.29-.81-3.1-3.16-2.37-10.66.29-2.94-.07-3.57-.95-4.01s-5.81-1.04-8.62-1.53c-2.8-.49-4.24-.21-6.29-.71-6.42-1.56-6.08,2.04-6.78,5.09-2.05,8.88-8.59,39.45-9.09,41.88s-2,8.63-.14,9.92,2.88.8,5.84,1.15c.73.08,2.41.19,3.12.19s2.53.49,3.41-1.29,1.98-7.17,6.43-6.47c3.6.57,5.18-.76,6.92-3.51,1.39-2.2,4.32-3.4,6.65-2.22,3,1.53,6.11.95,9.11,1.5,3.59.66,7.1.48,7.9,5.21.24,1.4,2.36,2.16,2.93,1.36,3.47-4.9,8.66-6.54,13.98-8.14.34-.1.53-1.09.58-1.68.67-8.15,3.66-15.78,5.44-23.68,1.93-8.58,2.1-8.55-6.61-10.52Z"/>
    </g>
  </g>
</svg>