<?xml version="1.0" encoding="UTF-8"?>
<svg id="_レイヤー_2" data-name="レイヤー 2" xmlns="http://www.w3.org/2000/svg" viewBox="0 0 136.45 148">
  <defs>
    <style>
      .cls-1 {
        fill: #231815;
      }

      .cls-1, .cls-2, .cls-3, .cls-4, .cls-5 {
        stroke-width: 0px;
      }

      .cls-2 {
        fill: #100e0f;
      }

      .cls-3 {
        fill: #974729;
      }

      .cls-4 {
        fill: #faa2ad;
      }

      .cls-5 {
        fill: #f03c3c;
      }
    </style>
  </defs>
  <g id="design">
    <g>
      <path class="cls-1" d="M94.47,147.91c7.51.64,11.3-2.04,11.42-7.77.09-4.82,1.18-9.22,2.85-13.6h0c2.6-4.81,4.66-9.83,6.08-15.12,0,0,0,0,0,0,2.49-7.11,4.99-14.23,7.48-21.34.41-1.33-.22-3,1.29-3.97h0c2.08-1.51,1.99-4,2.59-6.11,4.29-15.12.93-17.42-10.15-19.21-.22-.04-.36-.63-.49-.88,3.04-3.48,6.17-6.83,9.02-10.39,2.86-3.59,5.7-7.24,8.11-11.14,7.98-12.86,2.97-24.61-11.68-27.5-3.78-.74-8.96-1.94-12.48.52-8.46,5.91-13.7,11.93-14.95,22.73-.31,2.68-.6,5.42-1.38,7.98-2.97,9.8-2.96,9.47-12.94,6.76-4.42-1.2-3.1-2.57-1.32-4.84,3.22-4.11,6.16-8.38,8.6-13.04,9.15-17.46,5.07-26.42-14-30.16-17.33-3.4-26.05,3.62-26.17,21.31-.04,5.2.48,10.41.75,15.62.2,3.89-.65,6.2-5.27,3.95-3.43-1.67-7.25-2.04-11.01-2.41-8.65-.87-11.46,1.47-13.7,9.96-3.66,13.9-7.83,27.66-11.51,41.55C3,100.67,1.4,110.77.1,120.9c-.61,4.77,1.47,7.57,6.42,8h0c2.75,2.85,8.43.66,9.91,5.7"/>
      <path class="cls-4" d="M107.76,57.83c8.6-4.27,13.04-12.08,18.4-19.22,4.04-5.37,4.8-14.18,1.49-19.77-2.42-4.09-12.52-6.42-15.61-3.11-3.94,4.21-8.2,8.33-10.23,13.98,0,0,0,.01,0,.02-1.2,8.29-3.82,16.22-6.07,24.24-.63,2.25-.94,4.74-4.04,4.47-4.05-.36-5.21,2.43-6.43,5.31-1.33,2.6.17,4.21,1.9,5.9,3.88,3.76,6.32,8.45,8.74,13.14-2.45-3.11-4.55-6.44-6.7-9.73-1.7-2.59-3.59-5.23-7.44-4.36-3.4-.52-6.79-1.12-10.21-1.54-6.89-.85-7.81-2.56-5.34-9.24.83-2.24,2.98-4.33,1.72-7.04-1.48-3.18.51-4.96,2.32-7.08,4.69-5.48,10.07-10.6,12.77-17.39,1.83-4.62,5.25-9.59.78-14.72-6.24-7.15-13.16-9.6-23.4-4.81-1.03.34-1.6.84-2.1,1.27-5.06,2.7-5.01,9.16-5.15,13.52-.22,7.08.08,14.2.67,21.26.46,5.47-2.2,6.85-6.74,5.99-4.52-.85-8.92-2.31-13.41-3.3-7.29-1.6-8.29-.79-9.97,6.27-.91,3.85-2.5,7.53-3.51,11.35-3.53,13.28-7.42,26.49-10.17,39.93-1.08,5.26-2.92,12.02-3.59,15.67s2.15,4.94,5.74,6.36,16.22,4.64,17.97,5c3.37.97,10.98-.15,10.98-.15,4.11,0,7.99,1,11.73,2.66,3.53,1.17,6.55,3.98,10.47,3.83,8.68-.34,16.93,1.79,25.32,3.56,11.42,2.41,11.82,2.07,13.4-9.51,1-7.31,5.89-12.71,8.12-19.34,3.29-4.09,2.87-9.28,4.22-13.95-.39-3.53,7.43-24.87,8.64-28.47-4.8-1.4-9.66-2.62-14.37-4.26-4.33-1.51-4.65-4.89-.93-6.74ZM101.96,30c.42.8.59,1.6.63,2.36-.07-.75-.26-1.56-.63-2.36Z"/>
      <path class="cls-3" d="M77.33,61.34c-.69-.12-3.13,2.18-3.9,2.28s-.55-2.41-1.31-2.45c-1.04-.06-2.4,3.13-2.91,1.85-.79-1.99.18-5.3,1.41-7.36,2.08-3.49,5.25-2.29,7.73-1.43,2.38.83,7,.77,6.45,3.97-.54,3.17-3.23,8.16-6.54,7.33-.71-.18.29-3.7-.93-4.19Z"/>
      <path class="cls-2" d="M85.28,63.75c1.48,5.32,7.28,7.54,9.12,12.61.2.55.8.95,1.16,1.46,1.88,2.72,4.92,6.83,2.05,8.64-3.4,2.15-3.33-3.41-4.94-5.38-3.5-4.24-5.12-10.09-10.88-12.37,1.02-1.75,1.47-3.9,3.49-4.95Z"/>
      <path class="cls-1" d="M65,121.63c5.17,4.21,9.97,1.16,14.53-1.11,2.69-1.34,1.21-4,.4-6.1-.42-1.08-.5-2.07.6-2.7,1.1-.63,1.95.03,2.73.8,2.83,2.76,2.66,8.23-.35,10.69-7.2,5.88-17.44,5.34-23.7-1.58-1.84-2.03-3.23-2.31-5.85-1.67-6.52,1.59-12.96,1.55-18.03-3.93-4.13-4.46-4.13-11.75-.05-14.55,1.06-.72,2.17-1.46,3.42-.51.96.73,1.25,1.88.28,2.67-3.8,3.11-3.43,6.35-.38,9.6,3.99,4.25,8.99,5,14.07,2.72,6.06-2.72,6.62-5.7,3.02-11.69-3.05-5.07-2.35-11.53,1.52-14.17,4.71-3.21,11.82-2.08,15.29,2.43,3.09,4.01,2.38,9.59-1.64,12.91-1.85,1.53-4.04,2.09-6.39,2.33-2.23.22-2.4,1.97-2.51,3.7-.99,3.99,1.05,7.07,3.05,10.17Z"/>
      <path class="cls-1" d="M61.92,64c-.32.39-.68,1.24-1.31,1.53-6.35,2.93-12.75,5.77-19.13,8.65-1.27.57-1.98-.12-2.35-1.15-.44-1.24-.19-3.11.77-3.33,6.94-1.57,12.73-6,19.62-7.59,1.02-.24,2.04.21,2.4,1.89Z"/>
      <path class="cls-1" d="M84.88,92.02c-1.37,1.84-7.49,2.84-9.29-2.23-.76-2.16-.2-4.58,2.06-6.02,2.99-1.92,6.82-.56,7.89,1.3s.71,5.11-.66,6.95Z"/>
      <path class="cls-1" d="M53.88,76.08c4.12.08,5.62,1.92,5.72,5.09.1,3.46-2.14,4.95-5.08,4.88-3.18-.08-5.66-1.83-5.43-5.41.21-3.22,2.51-4.5,4.79-4.56Z"/>
      <path class="cls-5" d="M64.59,103.93c-5.06.02-6.8-2.2-6.94-6.21-.16-4.61,2.92-5.85,6.43-5.69,3.53.16,6.52,2,6.36,6.19-.15,4.14-2.99,5.57-5.85,5.71Z"/>
    </g>
  </g>
</svg>