<?xml version="1.0" encoding="UTF-8"?>
<svg id="_レイヤー_2" data-name="レイヤー 2" xmlns="http://www.w3.org/2000/svg" viewBox="0 0 262.46 256.35">
  <defs>
    <style>
      .cls-1 {
        fill: #fff;
      }

      .cls-2 {
        fill: #faa2ad;
      }

      .cls-3 {
        fill: #050303;
      }

      .cls-4 {
        fill: #060505;
      }

      .cls-5 {
        fill: #9a4729;
      }

      .cls-6 {
        fill: #e65992;
      }

      .cls-7 {
        fill: #231815;
      }

      .cls-8 {
        fill: #ea5a95;
      }

      .cls-9 {
        fill: #f03c3c;
      }
    </style>
  </defs>
  <g id="design">
    <g>
      <path class="cls-7" d="M258.45,216.65c-3.38-2.79-7.34-4.35-11.34-5.97-5.76-2.35-11.89-4.34-14.94-10.58-1.63-3.07-3.18-6.14-.32-9.36,2.13-2.06,3.68-4.54,5.06-7.12,3.24-6.05,6.86-12.17,7.4-19.02,.73-9.22,.19-18.5,1.09-27.77,.9-9.25-2.27-18.28-2.84-27.44-.84-13.58-4.34-26.54-7.68-39.57-.37-1.43-1.33-2.81-2.57-3.17-4.8-1.39-8.8-4.57-13.84-5.54-5.92-1.14-11.99-2.25-17.36-5.9,1.85-2.14,3.46-3.99,4.24-6.32,2.48-7.49,4.26-15.33,3.1-23.05-1.62-10.76-5.05-16.17-16.06-18.11-3.08-.54-5.92,1.16-8.81,.73-4.56-.67-7.41,1.69-9.7,4.89-2.39,3.33-4.25,7.04-5.23,11.08-1.44,5.88-3.49,11.67-2.79,17.89,.17,1.54-.69,2.65-2.12,1.94-4.25-2.11-8.39-.67-12.76,.26,1.27-4.42,5.24-7.25,5.07-11.94-.16-4.38-.04-8.77-.05-13.16,0-.88,.02-1.76,0-2.63-.18-5.18-4.62-13.59-10.71-15.18-3.52-.92-7-1.74-10.75-1.54-8.76,.46-17.76,7.15-18.54,15.91-.08,.89-.46,1.66-.67,2.48-2.31,8.76-3.39,17.42,3.03,25.15,.22,.27,.4,.58,.57,.88,3.17,5.48,2.94,6.01-3.18,7.33-1.35,.29-2.68,.75-4,1.12-3.86,1.08-4.44,2.48-4.91,6.86-.28,2.58,.39,4.89,1.2,7.12,1.1,3.02,.25,4.62-2.71,5.47-4.79,1.37-7.24,4.71-8.67,9.42-1.89,6.22-2.71,12.1,1.69,17.61,.56,.7,.92,1.47,.59,2.49-.76,.23-1.59,.44-2.38,.75-3.28,1.28-6.22,2.81-10.23,2.11-3.2-.56-6.9,.89-8.83,4.44-1.72,3.16-4.3,4.24-8.23,3.18,1.69-3.99-1.67-6.39-2.85-9.38,2.94-1.8,5.73-3.26,8.21-5.11,2.29-1.71,2.03-3.68-.52-4.79-2.92-1.27-6.1-2.01-9.19-1.03-2.75,.87-3.82-.29-4.73-2.53-1.96-4.79-5.83-6.47-10.23-4.15-2.18,1.15-3.8,1.46-6.14,.3-1.56-.77-3.85-.52-5.7-.14-5.87,1.19-9.16,10.79-4.63,14.53,2.86,2.36,2.67,4.43,2.43,7.33-.49,5.79,1.65,8.25,7.5,8.92,2.41,.28,4.88,.32,6.88-1.51,.64-.59,1.47-1.42,2.17-.45,2.36,3.24,6.09,2.82,9.58,3.53-2.44,5.62-3.56,10.97,.26,16.23,1.26,1.73,.92,3.74-.15,5.4-2.34,3.62-3.56,7.82-6.17,11.31-2.33,3.12-3.39,6.73-3.26,10.74,.17,5.61,.12,11.23,.03,16.84-.09,5.43-.29,10.77,4.08,15.08,1.12,1.11,1.34,3.05-1.2,3.79-.96,.28-1.98,.57-2.89,.96-6.79,2.94-14.66,2.49-21.02,6.82-1.44,.98-3.31,.44-5.71,.44,1.92-5.61,.7-11.12,1.92-16.28,1.32-5.62,.27-10.8-1.99-15.64-2.73-5.82-9.14-10.46-17.28-5.96-3.47,1.92-5.46,4.9-6.38,8.49-.99,3.85-1.66,7.82-2.05,11.78-.49,4.86-.11,9.55,2.09,14.21,2.53,5.34,5.54,10.28,8.83,15.16,3.36,4.98,7,6.27,12.06,2.83,2.8-1.9,5.82-3.03,8.95-3.96,1.97-.59,4.13,.08,6.21-.71,8.35-3.16,17.19-4.98,25.26-8.95,2.18-1.07,8.28-.14,9.7,1.42,.7,.77,.63,1.61,.15,2.4-3.35,5.45-3.4,11.27-3.07,17.51,.36,6.77,2.43,12.73,4.99,18.82,4.48,10.69,14.01,11.44,24,7.65,6.08-2.31,11.44-6.5,18.05-7.47,5.01-.74,9.3-2.94,13.05-6.07,3.6-3.01,7.15-4.84,11.87-2.74,.89,.4,2.11,.26,3.13,.09,7.68-1.3,15.5-1.88,22.95-4.36,3.14-1.04,6.34-1.73,9.67-1.91,8-.44,15.04-3.71,21.29-8.38,3.63-2.71,7.13-5.58,11.21-7.51,3.11-1.47,6.17-2.87,8.21-5.85,2.02,1.58,1.53,3.09,.83,4.84-.83,2.08-1.59,4.26-1.87,6.46-.3,2.38-.09,4.87,2.36,6.37,2.2,1.35,4.52,1.84,6.83,.41,1.29-.8,2.39-1.89,3.82-3.05,3.31,3.65,7.47,6.09,11.83,8.31,5.15,2.62,10.07,2.16,14.79-.72,6.39-3.89,6.78-11.36,1.08-16.05Zm-143.61,16.08c-.2,1.23-1.18,.96-1.97,1.2-5.03,1.55-10.27,2.27-15.25,4.07-3.02,1.09-2.81-1.43-2.73-3.41-.54-3.4,1.61-6.21,2.3-9.37,.51-2.33,3.01-2.53,4.74-1.39,3.7,2.44,7.33,4.91,11.6,6.32,1.04,.34,1.5,1.37,1.3,2.59Z"/>
      <path class="cls-4" d="M232.17,200.09c-3.24-4.38-3.3-6.18-.32-9.36-1.78,3.19-.14,6.25,.32,9.36Z"/>
      <path class="cls-2" d="M222.1,147.59c.94-2.36-.3-3.94-2.14-4.97-1.71-.96-1.91,.36-1.86,1.68-.92,3.65-.68,7.31-.08,10.98-.51,4.41,.79,8.42,2.05,12.62,1.99,6.62,2.94,13.55,4.4,20.34,.58,2.7,1.58,5.33,1.96,8.06,1.02,7.2,5.5,11.78,11.45,15.04,3.97,2.17,8.28,3.75,12.49,5.44,1.32,.53,2.62,1.07,3.63,2.02,1.57,1.48,4.72,2.24,3.99,4.97-.81,3.03-2.67,5.82-6.08,6.67-2.21,.55-4.49,.6-6.66-.54-4.65-2.46-9.13-5.11-12.49-9.3-.65-.81-1.36-1.67-2.22-2.21-2.04-1.27-3.63-.58-4.31,1.78-.29,1-.37,2.07-.63,3.08-.26,1.02-1.06,1.31-2.01,1.22-1.09-.11-1.4-.94-1.49-1.84-.12-1.25,.09-2.49,.76-3.55,2.49-3.99,2.09-8.18,.23-12.07-3.02-6.32-3.96-12.84-4.07-19.81-.09-5.88-.94-11.88-3.75-17.32-1.51-2.92-1.22-6.15-1.28-9.3-.08-3.86,.01-7.72-.12-11.58-.06-1.77-.44-3.83-2.83-3.57-2.21,.24-1.69,2.07-1.58,3.7,.21,2.97,.21,5.96,.19,8.94-.03,5.44,.49,10.67,2.16,16,1.86,5.95,2.94,12.25,2.98,18.6,.02,2.45,.12,4.87,.84,7.28,1.57,5.26-.14,9.21-5.23,11.16-4.01,1.54-7.7,3.6-10.7,6.47-5,4.79-11.46,6.54-17.42,9.36-.32,.15-.65,.39-.97,.39-12.05,.02-23.07,5.85-35.05,6.27-.53,.02-1.06,.17-1.57,.09-10.66-1.63-21.43-2.79-30.99-8.47-2.18-1.3-3.61-2.79-4.38-5.46-1.88-6.52-3.56-13.08-6.46-19.34-2.47-5.35-3.03-11.52-3.53-17.39-.54-6.32,2.2-12.3,3.81-18.35,.62-2.3,1.9-4.49,2.37-6.9,1.9-9.64,7.57-16.65,15.16-22.53,6.37-4.95,13.03-9.3,20.54-12.29,1.27-.5,2.94-.92,2.83-2.67-.11-1.63-1.15-2.89-2.74-3.55-4.1-1.7-8.36-3.01-11.99-5.76-1.13-.86-2.7-.01-4.06,.34-5.03,1.32-8.96,4.7-13.43,7.06-1.2,.63-2.1,1.92-3.77,1.76-1.22-8.16-7.66-9.19-14.46-9.98,1.03-2.96,3.43-3.08,5.53-3.62,5.34-1.39,6.07-2.85,3.85-7.77-.5-1.11-1.1-2.18-1.69-3.25-2.39-4.3-1.87-11.98,1.14-15.72,1.34-1.66,3.05-2.86,5.05-3.67,5.12-2.06,6.72-4.53,4.98-9.69-3.15-9.34,.2-10.59,8.73-10.51,7.21,.07,6.88,.28,4.52-6.58-1.45-4.2-4.33-7.69-5.53-11.77-2.3-7.82-2.19-15.73,1.26-23.48,4.72-10.63,14.86-11.58,23.34-7.96,1.76,.75,2.69,2.17,3.49,3.75,3.68,7.31,4.49,15.13,3.28,23.05-.67,4.37-3.81,7.79-6.43,11.3-2.31,3.08-4.76,6.07-6.86,9.29-2.35,3.6-1.36,5.7,3,6.52,5.23,.99,9.33,4.56,14.53,5.84,4.85,1.19,9.78-.03,14.55,1.51,1.68,.54,3.04-1.37,4.33-2.48-2.77-9.32-5.35-18.7-4.12-28.4,.96-7.55,2.22-15.26,7.78-21.27,1.64-1.77,3.44-2.8,5.99-2.56,2.26,.21,4.56,.05,6.84,.07,4.57,.04,9.14,2.86,10.41,7.29,2.66,9.26,3.79,18.9-.74,27.7-3.32,6.45-8.11,12.22-13.43,17.36-.38,.36-.83,.65-1.21,1.02-1.54,1.49-3.02,3.1-2.61,5.44,.48,2.75,3.27,2.7,5.02,3,3.56,.61,6.73,1.52,9.53,3.94,2.1,1.82,4.63,1.07,7.01,.31,4.65-1.49,9.07-3.61,13.96-4.5,3.28-.6,6.7,.27,9.86-1.19,1.43-.66,1.63,.53,2.07,1.53,1.91,4.36,3.09,8.97,3.81,13.6,1.3,8.28,3.02,16.47,3.61,24.89,.47,6.76,2.48,13.38,2.7,20.27,.13,4.25-.4,8.39-.7,12.57-.19,2.62-.69,5.31-.36,7.87,1.45,11.25-3.62,20.62-8.23,30.16-.63,1.3-1.36,2.43-2.65,3.21-2.6-1.43-.79-4.18-1.82-6.05-.7-1.72,.32-3.69-.75-5.36-1.07-6.03-4.08-11.58-4.43-17.8-.59-3.49-.46-6.98-.08-10.47Z"/>
      <path class="cls-2" d="M96.7,133.05c-3.23,6.1-5.96,11.72-8.3,17.54-3.82,9.51-6.33,19.26-6.18,29.58,.08,5.47,1.7,10.7,2.69,16.01,.5,2.67-.42,3.46-2.39,5.22-4.03,3.59-7.33,2.8-11.52,.89-3.32-1.51-6.3-3.01-7.74-6.56-.2-.48-.42-1-.77-1.37-5.84-6.18-6.07-13.87-5.61-21.62,.31-5.22-.78-10.54,1.07-15.65,.24-.65,.13-1.51,.52-2.01,4.77-6.14,6.92-13.68,10.97-20.22,1.18-1.91,2.54-2.43,4.32-1.77,6.88,2.55,13.68,2.56,20.5-.18,.42-.17,1,.04,2.45,.13Z"/>
      <path class="cls-5" d="M138.34,120.15c-1.47,1.09-2.34,2.17-3.42,2.45-8.45,2.25-14.04,8.84-20.65,13.78-4.77,3.57-8.32,8.66-10,14.46-2.08,7.19-4.96,14.09-6.81,21.38-1.79,7.07-1.19,13.72,0,20.66,1.39,8.15,5.5,15.41,7.16,23.45,.24,1.15,1.21,2.17,.3,3.62-4.55-.74-7.48-3.12-7.83-7.95-.28-3.92-1.93-7.28-4.91-9.51-2.78-2.09-3.5-4.77-4.38-7.77-4.44-15.18-2.09-29.7,3.89-43.92,3.19-7.57,6.59-15.02,11.73-21.54,1.1-1.4,2.27-2.66,3.74-3.64,3.77-2.52,7.45-5.2,11.35-7.51,3.42-2.02,6.56-4.9,11.25-1.45,2.05,1.51,5.63,1.18,8.57,3.46Z"/>
      <path class="cls-2" d="M128.64,236.62c-4.54,2.82-8.96,4.5-13.39,5.85-5.75,1.75-10.9,4.67-16.24,7.18-10.81,5.08-17.55,2.29-21.74-8.9-2.33-6.22-2.55-12.61-2.77-19.06-.25-7.34,4.33-11.97,9.47-16.08,2.71-2.17,5.51-1.04,7.05,2.56,3,6.98,3.87,14.14,.62,21.25-1.61,3.53-.92,7.24-1.54,10.84-.44,2.5,1.28,3.48,4.2,2.85,8.21-1.77,16.35-3.77,24.09-7.12,3.24-1.4,6.4-1.57,10.25,.64Z"/>
      <path class="cls-2" d="M22.15,184.4c-.05,3.33-.22,6.68,.66,9.92,.88,3.26-.54,6.21-1.01,9.28-.8,5.21,1.1,7.32,6.21,6.6,1.21-.17,2.54-.17,3.59-.68,9.13-4.45,19.8-4.42,28.61-9.76,.66-.4,1.24-.53,1.79,.19,.7,.93,.21,1.67-.43,2.27-2.49,2.37-5.84,3.13-8.92,4.14-8.44,2.76-16.81,5.79-25.63,7.28-2.19,.37-4.22,1.08-6.08,2.72-2.4,2.11-4.85,1.28-6.1-1.77-1.81-4.43-4.83-8.07-7.31-12.07-2.79-4.5-3.88-9.21-2.79-14.49,.7-3.4,.5-6.95,1.51-10.35,1.02-3.45,2.8-6.03,6.48-6.76,2.13-.42,7.96,2.61,9.02,4.63,.77,1.46,.32,3.1,.37,4.66,.04,1.4,0,2.8,0,4.2Z"/>
      <path class="cls-2" d="M65.53,130.99c-2.61-6.68-.51-11.95,5.58-13.55,3.94-1.04,7.69-1.89,10.34-5.35,.67-.87,2.14-1.1,3.2-1.69,2.24-1.25,3.77-1.73,3.94,1.91,.14,2.95,1.67,3.78,4.55,3.31,.33-.05,.63-.34,.96-.4,3.57-.67,8.51,1.35,9.02,3.66,.61,2.77-2.94,8.16-6.24,8.77-2.78,.51-5.38,1.43-8,2.34-3.88,1.34-7.6,.38-11.32-.54-6.17-1.52-6.93-1.48-12.04,1.54Z"/>
      <path class="cls-2" d="M189.32,70.35c2.38-3.98,5.67-6.57,8.3-9.67,.96-1.13,2.56-.41,3.91,.16,5.15,2.17,10.58,3.46,16.06,4.45,2.47,.45,4.56,1.41,6.54,2.79-.74,1.53-2.05,1.45-3.24,1.54-5.62,.46-10.77,2.57-15.94,4.57-2.52,.98-4.56,1.2-6.51-1.15-2.19-2.63-5.58-2.28-9.11-2.69Z"/>
      <path class="cls-2" d="M143.37,55.64c.03-.38-.01-.59,.07-.71,3.61-5.48,15.44-8.49,21.21-5.67,1.84,.9,1.93,2.37,2.26,3.79,.66,2.83,3.23,6.56,1.22,8.34-2.4,2.12-6.63,1.17-10.03,.42-5.3-1.17-9.94-3.95-14.73-6.16Z"/>
      <path class="cls-3" d="M218.02,155.28c-.94-3.67-1.42-7.33,.08-10.98-.03,3.66-.05,7.32-.08,10.98Z"/>
      <path class="cls-3" d="M222.1,147.59c.03,3.49,.05,6.98,.08,10.47-1.5-3.48-1.37-6.97-.08-10.47Z"/>
      <path class="cls-1" d="M67.01,97.2c-.63-.03-1.28-.07-1.93-.1q-6.43-.35-8.22-6.52c-.57-1.97-3.73-2.68-5.26-1.18-3.78,3.72-4.78,4.17-7.75,.91-2.5-2.75-4.18-1.65-6.09-.06-3.97,3.33-3.85,6.23,.73,9.18,2.51,1.61,3.54,2.83,1.9,5.77-1.89,3.41-1.43,4.06,2.81,6.66,1.44,1.09,2.88,1.4,4.32,0q3.76-2.83,7.92-.02c.71,.47,1.52,.84,2.34,1.07,1.56,.42,3.21,2.05,4.72,.02,1.38-1.87,2.42-3.86,1.25-6.29-.66-1.37-2.75-2.43-2.01-3.95,.69-1.42,2.47-2.33,3.79-3.43,.64-.52,1.64-.72,1.48-2.06Z"/>
      <path class="cls-3" d="M226.61,175.86c1.22,1.65,.74,3.54,.75,5.36-1.55-1.6-.53-3.57-.75-5.36Z"/>
      <path class="cls-7" d="M185.07,122.3c-1.5-.38-4.27,1.19-4.63-1.59-.41-3.14,2.46-2.65,4.47-2.83,1.62-.14,2.94-.92,4.23-1.87,4.98-3.67,7.08-8.99,7.59-14.76,.3-3.39-.65-7.02-4.33-8.85-1.8-.89-2.9-2.48-4.14-3.93-.91-1.07-1.09-2.21-.11-3.29,1.08-1.2,2.29-.84,3.17,.19,2.3,2.7,5.5,4.25,8.11,6.53,3.92,3.44,4.7,8.09,4.02,12.95-1.49,10.72-6.66,17.75-18.38,17.46Z"/>
      <path class="cls-7" d="M175.55,94.96c-2.87-2.05-7.44,.95-11-2.41-3.35-3.18-3.22-7.05,.81-9.21,1.9-1.01,3.94-1.54,6.04-.81,1.7,.59,3.42,.5,5.16,.57,5.1,.2,6.93,1.91,6.87,6.39-.05,3.98-2.06,5.52-7.89,5.48Z"/>
      <path class="cls-7" d="M119.84,86.36c-.54,0-1.77,.13-2.96-.03-2.28-.3-4.41-.88-5.43-3.38-.92-2.27,.02-4.1,1.26-5.79,2.9-3.94,7.23-3.73,11.38-3.46,3.75,.24,5.07,3.22,5.99,6.33,.9,3.03-.26,4.98-3.34,5.77-.34,.09-.68,.17-1.02,.19-1.73,.12-3.47,.22-5.89,.36Z"/>
      <path class="cls-7" d="M139.1,106.6c-5.54,.05-7.33-2.46-5.11-7.35,.92-2.03,.69-3.25-.82-4.51-2.37-1.98-2.97-4.23-1.15-6.88,1.57-2.29,3.86-2.53,7.39-1.47,2.83,.85,4.94,2.54,6.95,4.52,.93,.92,1.7,1.98,.63,3.17-1.32,1.48-1.93,.08-2.85-.75-1.66-1.52-3.45-2.94-5.35-4.16-1.23-.79-2.77-.86-3.71,.61-1,1.56,.52,2.18,1.4,2.86,1.29,.98,2.29,2.13,2.97,3.59,.84,1.79,1.19,3.37-1.32,4.1-.85,.25-1.77,.77-1.55,1.76,.29,1.33,1.55,1.12,2.59,1.15,1.44,.04,3.77-.9,3.74,1.4-.03,2.35-2.51,1.8-3.82,1.95Z"/>
      <path class="cls-7" d="M147.01,85.99c-3.63-.19-6.32-.58-8.48-2.72-1.89-1.87-2.98-3.84-1.82-6.56,1.13-2.66,2.88-4.37,5.92-4.32,2.85,.04,5.53,.43,7.78,2.53,2.32,2.17,3.26,4.83,2.12,7.47-1.18,2.73-3.26,4.05-5.51,3.61Z"/>
      <path class="cls-7" d="M134.61,65.23c-1.94-.31-3.75,.04-5.48,.99-1.66,.92-3.68,1.36-4.35-.78-.53-1.68,1.63-1.76,2.83-2.31,2.88-1.32,5.72-2.38,8.94-1,1.07,.46,2.69,.2,2.49,1.94-.19,1.71-1.7,1.39-2.88,1.37-.52-.01-1.03-.13-1.55-.2Z"/>
      <path class="cls-7" d="M169.06,78.21c-.72-.07-1.29-.32-1.67-1.02-1.46-2.66-3.28-4.87-6.58-5.3-.65-.09-1.35-.56-1.29-1.4,.07-.96,.78-1.52,1.65-1.72,3.32-.77,9.75,4.85,9.29,8.09-.12,.82-.76,1.08-1.4,1.34Z"/>
      <path class="cls-7" d="M135.82,71.99c-.42,2.35-1.1,4.12-3.6,4.02-2.12-.08-3.74-.81-3.7-3.37,.04-2.49,1.77-3.39,3.75-3.51,1.97-.12,3.03,1.34,3.55,2.86Z"/>
      <path class="cls-7" d="M160.39,81.39c-1.59-.1-3.23-.57-3.51-2.76-.29-2.23,1.27-3.31,3.02-3.46,1.69-.15,3.44,.47,3.59,2.79,.14,2.1-.64,3.33-3.11,3.43Z"/>
      <path class="cls-6" d="M173.11,86.6c1.56,0,3.13-.11,4.68,.03,1.5,.13,1.91,1.48,2.05,2.65,.19,1.57-1.07,2.19-2.33,2.14-3.44-.11-6.84-.67-10.16-1.59-.85-.24-1.54-1.06-1.35-1.97,.18-.85,.96-1.48,1.92-1.51,1.73-.06,3.46-.02,5.19-.02v.26Z"/>
      <path class="cls-8" d="M120.05,82.49c.27,0-.26,.05-.77,0-1.48-.17-3.74,.43-4.03-1.39-.35-2.18,1.78-3.19,3.65-3.69,1.31-.35,2.79-.48,4.12-.26,2.12,.35,3.49,2,3.32,4-.16,1.93-2.21,.9-3.42,1.18-.67,.15-1.38,.09-2.87,.17Z"/>
      <path class="cls-9" d="M143.94,75.8c.35,.06,1.29,.01,2.04,.38,1.84,.89,4.33,1.68,3.46,4.39-.85,2.64-2.96,1.64-4.8,.95-.64-.24-1.37-.32-2.05-.32-2.13,0-2.66-1.22-2.5-3.07,.18-2.14,1.63-2.42,3.86-2.32Z"/>
    </g>
  </g>
</svg>