<?xml version="1.0" encoding="UTF-8"?>
<svg id="_レイヤー_2" data-name="レイヤー 2" xmlns="http://www.w3.org/2000/svg" viewBox="0 0 703.87 631.5">
  <defs>
    <style>
      .cls-1 {
        fill: #fff;
      }

      .cls-2 {
        fill-rule: evenodd;
      }

      .cls-2, .cls-3 {
        fill: #ffa3bc;
      }

      .cls-4 {
        opacity: .4;
      }

      .cls-5 {
        opacity: .3;
      }

      .cls-6 {
        fill: #befacd;
      }

      .cls-7 {
        fill: #231815;
      }

      .cls-8 {
        fill: #ffb4c8;
      }
    </style>
  </defs>
  <g id="design">
    <g>
      <g>
        <polyline class="cls-2" points="217.45 194.19 215.15 189.91 212.15 186.19 209.01 182.56 206.16 178.71 203.49 174.74 201.72 170.22 198.49 166.57 196.42 162.24 193.97 158.12 192.36 153.57 190.01 149.4 188.34 144.91 185.79 140.8 184.58 136.12 182.87 131.66 181.62 127.04 179.58 122.67 178.17 118.09 177.52 113.32 175.64 108.84 174.78 104.12 174.03 99.38 173.56 94.6 173.22 89.81 172.63 85.04 172.54 80.23 173.37 75.46 173.02 70.64 173.78 65.89 174.51 61.16 175.45 56.42 176.97 51.84 177.86 47.06 180.11 42.75 182.47 38.56 184.87 34.42 187.11 30.12 189.87 26.13 193.13 22.53 197.02 19.61 200.8 16.64 204.74 13.89 208.9 11.49 212.76 8.47 217.52 7.34 221.7 4.71 226.41 3.53 231.22 2.89 235.92 1.61 240.78 1.55 245.61 1.5 250.43 1.76 255.2 2.48 259.99 3.08 264.71 4.17 269.24 5.88 273.83 7.44 277.75 10.37 282.23 12.25 285.76 15.6 290.05 17.96 292.95 21.9 296.52 25.13 299.56 28.86 302.74 32.52 304.95 36.84 306.82 41.29 308.8 45.66 310.72 50.12 313.33 54.34 314.51 59.1 315.86 63.78 317.55 68.36 318.76 73.08 319.41 77.93 320.87 82.6 321.31 87.47 322.39 92.22 323.76 96.93 324.11 101.8 324.62 106.64 324.82 111.52 325.64 116.33 326.14 121.18 325.87 126.08 326.19 130.94 326.27 135.81 326.1 140.68 326.12 145.54 326.84 150.42 326.41 155.28 326.51 160.16 326.13 165.02 325.87 169.88 325.54 174.74 324.44 179.52 324.41 184.42 322.99 189.13 322.58 193.98"/>
        <path class="cls-7" d="M217.45,195.69c-.53,0-1.05-.29-1.32-.79l-2.23-4.16-2.9-3.6-3.11-3.59s-.05-.06-.07-.09l-2.85-3.85-2.71-4.03c-.06-.09-.11-.19-.15-.29l-1.68-4.27-3.05-3.45c-.09-.1-.17-.22-.23-.35l-2.04-4.27-2.42-4.06c-.05-.09-.09-.18-.13-.27l-1.56-4.43-2.29-4.06c-.04-.07-.07-.14-.1-.21l-1.63-4.35-2.47-3.99c-.08-.13-.14-.27-.18-.41l-1.19-4.59-1.68-4.38s-.03-.1-.05-.15l-1.22-4.49-1.99-4.25c-.03-.06-.05-.13-.08-.2l-1.41-4.58c-.02-.08-.04-.16-.05-.24l-.62-4.58-1.81-4.3c-.04-.1-.07-.2-.09-.31l-.86-4.72-.76-4.78-.48-4.86-.34-4.82-.58-4.7c0-.05,0-.1-.01-.15l-.1-4.81c0-.1,0-.19,.02-.29l.8-4.6-.33-4.63c0-.11,0-.23,.01-.34l1.49-9.48,.94-4.79c.01-.06,.03-.12,.05-.19l1.49-4.48,.87-4.68c.03-.15,.08-.29,.15-.42l2.25-4.3,2.38-4.24,2.42-4.16,2.2-4.23c.03-.06,.06-.11,.1-.16l2.76-3.99c.04-.05,.08-.11,.12-.16l3.26-3.6c.06-.07,.14-.14,.21-.19l3.89-2.92,3.76-2.95,4.01-2.8s.07-.05,.11-.07l4.06-2.35,3.78-2.95c.17-.13,.37-.23,.58-.28l4.53-1.08,3.97-2.5c.13-.08,.28-.15,.44-.19l4.71-1.18c.05-.01,.11-.02,.16-.03l4.71-.63,4.6-1.26c.12-.03,.25-.05,.38-.05l9.69-.11,4.92,.27s.09,0,.14,.01l4.77,.72,4.76,.6c.05,0,.1,.02,.15,.03l4.72,1.08c.07,.02,.13,.03,.2,.06l4.53,1.71,4.54,1.54c.15,.05,.29,.12,.42,.22l3.77,2.82,4.31,1.8c.17,.07,.32,.17,.45,.3l3.39,3.22,4.12,2.26c.19,.11,.36,.25,.49,.43l2.81,3.82,3.46,3.13c.06,.05,.11,.1,.15,.16l3.05,3.72,3.15,3.63c.08,.09,.15,.19,.2,.3l2.21,4.31s.03,.07,.05,.1l1.87,4.45,1.96,4.33,1.9,4.38,2.54,4.13c.08,.13,.14,.27,.18,.42l1.18,4.75,1.32,4.57,1.67,4.53s.03,.1,.05,.15l1.21,4.72c.01,.06,.03,.11,.03,.17l.64,4.73,1.42,4.54c.03,.1,.05,.2,.06,.31l.44,4.78,1.05,4.65,1.35,4.62c.03,.1,.05,.21,.06,.31l.34,4.87,.5,4.79,.21,4.87,.8,4.72,.51,4.95c0,.08,0,.16,0,.23l-.26,4.81,.31,4.77,.08,4.94-.17,4.95,.02,4.7,.71,4.77c.02,.12,.02,.23,.01,.35l-.42,4.78,.1,4.8s0,.1,0,.15l-.39,4.86-.26,4.83-.32,4.88c0,.08-.02,.16-.03,.24l-1.06,4.62-.03,4.73c0,.14-.02,.28-.06,.42l-1.37,4.56-.4,4.69c-.07,.83-.8,1.44-1.62,1.37-.83-.07-1.44-.8-1.37-1.62l.41-4.85c0-.1,.03-.2,.06-.3l1.35-4.51,.03-4.68c0-.11,.01-.22,.04-.33l1.07-4.66,.32-4.74,.26-4.84,.38-4.82-.1-4.81c0-.05,0-.11,0-.16l.41-4.68-.7-4.7c-.01-.07-.02-.14-.02-.21l-.02-4.86,.17-4.93-.08-4.79-.32-4.79c0-.06,0-.12,0-.18l.26-4.78-.49-4.73-.8-4.72c-.01-.06-.02-.12-.02-.19l-.2-4.87-.5-4.75-.34-4.76-1.33-4.56-1.1-4.84c-.01-.06-.02-.13-.03-.19l-.43-4.72-1.41-4.51c-.02-.08-.04-.16-.05-.25l-.64-4.77-1.17-4.56-1.66-4.51s-.02-.07-.03-.1l-1.35-4.68-1.14-4.58-2.48-4.03c-.04-.06-.07-.12-.1-.19l-1.93-4.46-1.97-4.35-1.86-4.44-2.1-4.1-3.06-3.53-3-3.67-3.49-3.15c-.07-.07-.14-.14-.2-.22l-2.7-3.68-4-2.19c-.11-.06-.22-.14-.31-.23l-3.33-3.16-4.23-1.77c-.11-.05-.22-.11-.32-.18l-3.73-2.79-4.37-1.48-4.48-1.69-4.54-1.04-4.72-.59-4.74-.71-4.75-.26-9.4,.11-4.51,1.23c-.06,.02-.13,.03-.2,.04l-4.72,.64-4.4,1.1-3.97,2.5c-.14,.09-.29,.15-.45,.19l-4.45,1.06-3.6,2.82c-.05,.04-.11,.08-.17,.12l-4.1,2.37-3.89,2.71-3.71,2.92-3.8,2.86-3.1,3.42-2.65,3.83-2.19,4.21-2.44,4.2-2.35,4.18-2.12,4.06-.84,4.57c-.01,.07-.03,.14-.05,.2l-1.5,4.49-.91,4.64-1.46,9.26,.33,4.65c0,.12,0,.24-.02,.36l-.81,4.64,.09,4.58,.57,4.7,.35,4.86,.47,4.74,.74,4.65,.83,4.53,1.82,4.33c.05,.12,.09,.25,.1,.38l.63,4.65,1.34,4.36,2,4.27c.04,.08,.07,.16,.09,.24l1.23,4.55,1.68,4.39c.02,.05,.04,.11,.05,.16l1.15,4.45,2.43,3.92c.05,.08,.1,.17,.13,.26l1.64,4.38,2.29,4.07c.04,.08,.08,.16,.11,.24l1.55,4.41,2.38,3.99s.05,.08,.06,.12l1.98,4.14,3.09,3.49c.12,.13,.21,.28,.27,.45l1.72,4.37,2.58,3.84,2.77,3.75,3.11,3.59,3.03,3.75c.06,.07,.11,.15,.15,.23l2.3,4.28c.39,.73,.12,1.64-.61,2.03-.23,.12-.47,.18-.71,.18Z"/>
      </g>
      <g>
        <polyline class="cls-2" points="435.64 203.76 439.51 200.86 443.42 198.03 447.45 195.34 450.99 192.02 454.58 188.79 458.01 185.37 461.93 182.54 465.51 179.3 469.3 176.29 472.62 172.77 476.24 169.56 479.56 166.05 482.84 162.5 486.55 159.37 489.47 155.49 492.44 151.67 496.12 148.47 499.53 145.01 502.27 141 504.65 136.74 507.58 132.91 510.25 128.89 513.41 125.18 515.78 120.96 518.46 116.92 520.34 112.44 522.29 108.02 524.2 103.59 526.61 99.33 527.51 94.53 529.52 90.06 529.55 85.12 530.35 80.38 531.25 75.62 531.34 70.79 531.27 65.95 529.94 61.26 529.77 56.37 528.04 51.81 527.24 46.97 525.18 42.55 523.12 38.14 520.49 34.05 517.74 30.05 514.34 26.58 511.56 22.55 507.57 19.72 504.08 16.36 500.2 13.43 495.84 11.28 491.7 8.74 487.38 6.47 482.51 5.68 478.05 3.7 473.23 3.06 468.51 1.74 463.61 2.24 458.79 2.13 453.95 1.92 449.17 2.72 444.33 3.12 439.57 4.16 434.87 5.45 430.64 7.96 426.06 9.64 422.05 12.42 418.27 15.44 414.26 18.17 410.88 21.64 406.92 24.57 404.33 28.74 401.94 32.97 399.4 37.06 396.47 40.98 394.61 45.47 392.44 49.85 390.52 54.34 389.09 59.01 387.97 63.77 387 68.55 384.79 73 384.19 77.87 383.58 82.72 381.63 87.3 380.83 92.11 380.4 96.98 380.18 101.86 378.98 106.62 378.39 111.45 378.12 116.32 377.37 121.16 378.2 126.09 377.6 130.94 377.06 135.8 377.04 140.67 376.94 145.55 377.11 150.42 377.04 155.29 378.13 160.12 377.94 165 378.17 169.87 378.28 174.75 379.75 179.49 379.4 184.43 380.78 189.14 381.56 193.92"/>
        <path class="cls-7" d="M435.64,205.26c-.46,0-.91-.21-1.2-.6-.5-.66-.36-1.6,.3-2.1l3.87-2.9,3.94-2.85,3.97-2.66,3.45-3.23,3.62-3.25,3.37-3.37c.06-.06,.12-.11,.18-.15l3.86-2.78,3.51-3.19,3.78-3,3.25-3.44s.06-.06,.1-.09l3.57-3.17,3.28-3.46,3.27-3.53s.09-.09,.13-.13l3.58-3.03,2.82-3.74,2.98-3.84c.06-.08,.13-.15,.2-.21l3.64-3.17,3.28-3.32,2.62-3.85,2.35-4.2c.04-.06,.07-.12,.12-.18l2.91-3.79,2.64-3.98s.07-.1,.11-.14l3.06-3.6,2.3-4.09s.04-.06,.06-.09l2.6-3.93,1.83-4.35,3.86-8.86c.02-.05,.05-.1,.07-.15l2.29-4.04,.85-4.56c.02-.12,.06-.23,.11-.34l1.89-4.18,.02-4.63c0-.08,0-.16,.02-.24l.8-4.74,.88-4.66,.09-4.71-.07-4.59-1.28-4.5c-.03-.12-.05-.24-.06-.36l-.16-4.64-1.64-4.32c-.04-.09-.06-.19-.08-.29l-.76-4.64-3.99-8.55-2.58-4.01-2.65-3.85-3.31-3.38c-.06-.06-.11-.13-.16-.2l-2.63-3.81-3.77-2.68c-.06-.04-.12-.09-.17-.14l-3.43-3.3-3.69-2.79-4.24-2.09s-.08-.04-.12-.07l-4.09-2.52-4.06-2.13-4.63-.74c-.13-.02-.25-.06-.37-.11l-4.27-1.9-4.61-.61c-.07,0-.14-.02-.21-.04l-4.44-1.24-4.62,.47c-.06,0-.12,0-.19,0l-4.81-.11-4.72-.2-4.62,.78s-.08,.01-.13,.02l-4.75,.39-4.66,1.02-4.44,1.22-4.05,2.4c-.08,.05-.16,.09-.25,.12l-4.4,1.61-3.8,2.64-3.75,2.99s-.06,.05-.09,.07l-3.88,2.64-3.27,3.36c-.06,.06-.12,.11-.18,.16l-3.74,2.77-2.44,3.93-2.36,4.17-2.57,4.14s-.05,.07-.07,.11l-2.82,3.77-1.78,4.32s-.03,.06-.04,.09l-2.17,4.38-1.85,4.34-1.41,4.59-1.09,4.66-.96,4.74c-.03,.13-.07,.25-.13,.37l-2.09,4.22-1.18,9.47c-.02,.14-.05,.27-.11,.4l-1.88,4.41-.76,4.58-.42,4.81-.22,4.82c0,.1-.02,.2-.04,.3l-1.17,4.67-.58,4.75-.26,4.77s0,.1-.02,.15l-.71,4.6,.78,4.69c.02,.14,.03,.29,0,.43l-1.13,9.61-.02,4.8-.11,4.9,.17,4.78-.06,4.77,1.05,4.65c.03,.13,.04,.26,.04,.39l-.19,4.82,.23,4.8,.11,4.71,1.41,4.54c.06,.18,.08,.36,.06,.55l-.33,4.67,1.31,4.46c.02,.06,.03,.12,.04,.18l.78,4.78c.13,.82-.42,1.59-1.24,1.72-.82,.13-1.59-.42-1.72-1.24l-.77-4.69-1.36-4.63c-.05-.17-.07-.35-.06-.53l.33-4.66-1.39-4.47c-.04-.13-.06-.27-.07-.41l-.11-4.88-.23-4.83s0-.09,0-.13l.19-4.69-1.05-4.63c-.03-.12-.04-.23-.04-.35l.07-4.87-.17-4.8,.1-4.96,.02-4.85c0-.05,0-.11,0-.16l1.11-9.51-.79-4.71c-.03-.16-.03-.32,0-.48l.74-4.76,.27-4.8,.6-4.94c0-.06,.02-.12,.03-.18l1.16-4.61,.22-4.73,.43-4.93s0-.08,.01-.11l.8-4.81c.02-.12,.05-.23,.1-.34l1.87-4.38,1.18-9.51c.02-.17,.07-.33,.14-.48l2.12-4.27,.93-4.59,1.13-4.81,1.46-4.77c.02-.05,.03-.1,.06-.15l1.92-4.49,2.19-4.41,1.84-4.44c.05-.12,.11-.23,.19-.33l2.89-3.87,2.5-4.03,2.36-4.17,2.62-4.22c.1-.16,.23-.3,.38-.41l3.87-2.87,3.29-3.38c.07-.07,.15-.14,.23-.19l3.96-2.7,3.74-2.99s.05-.04,.08-.06l4-2.78c.1-.07,.22-.13,.34-.18l4.45-1.63,4.11-2.44c.12-.07,.24-.12,.37-.16l4.71-1.29,4.83-1.06c.06-.01,.13-.02,.2-.03l4.78-.4,4.71-.8c.1-.02,.21-.02,.31-.02l4.84,.21,4.69,.11,4.81-.49c.19-.02,.38,0,.56,.05l4.61,1.29,4.72,.62c.14,.02,.28,.06,.41,.12l4.29,1.91,4.68,.75c.16,.03,.32,.08,.46,.15l4.32,2.27s.06,.03,.09,.05l4.08,2.51,4.3,2.12c.08,.04,.17,.09,.24,.15l3.88,2.93s.09,.07,.14,.12l3.41,3.29,3.9,2.77c.14,.1,.27,.23,.37,.37l2.7,3.92,3.31,3.38c.06,.06,.12,.13,.16,.2l2.75,4,2.66,4.13c.04,.06,.07,.12,.1,.18l4.12,8.83c.06,.12,.1,.26,.12,.39l.77,4.7,1.67,4.42c.06,.15,.09,.32,.1,.48l.17,4.71,1.28,4.51c.04,.13,.06,.26,.06,.39l.07,4.84-.09,4.88c0,.08-.01,.17-.03,.25l-.9,4.76-.78,4.59-.02,4.82c0,.21-.05,.42-.13,.61l-1.94,4.3-.86,4.63c-.03,.16-.09,.32-.17,.46l-2.37,4.19-5.7,13.24c-.04,.09-.08,.17-.13,.25l-2.65,4-2.34,4.17c-.05,.08-.1,.16-.17,.24l-3.1,3.64-2.62,3.95s-.04,.06-.06,.08l-2.87,3.74-2.33,4.16s-.04,.08-.07,.11l-2.73,4.01c-.05,.08-.11,.15-.17,.21l-3.42,3.45s-.05,.05-.08,.08l-3.57,3.11-2.88,3.7-2.91,3.86c-.07,.09-.14,.17-.23,.24l-3.64,3.07-3.22,3.48-3.34,3.52s-.06,.06-.09,.09l-3.56,3.16-3.27,3.47c-.05,.05-.1,.1-.16,.15l-3.79,3.01-3.5,3.18s-.08,.07-.13,.11l-3.83,2.76-3.34,3.33-3.65,3.28-3.51,3.29c-.06,.06-.12,.11-.19,.15l-4.03,2.69-3.87,2.8-3.85,2.88c-.27,.2-.59,.3-.9,.3Z"/>
      </g>
      <g>
        <g>
          <polygon class="cls-3" points="462.58 146.05 460.69 153.11 456.29 158.9 451.02 163.98 444.83 167.93 438.26 171.2 431.45 173.92 424.54 176.38 417.51 178.48 410.33 179.97 403.14 181.36 395.95 182.81 388.71 184 381.39 184.48 374.09 185.16 366.78 185.6 359.46 186.14 352.12 186.01 344.79 185.76 337.46 185.71 330.13 185.48 322.84 184.61 315.58 183.61 308.29 182.81 301.11 181.35 293.91 180 286.8 178.24 279.73 176.3 272.83 173.82 266 171.15 259.5 167.77 253.3 163.86 247.69 159.14 243.52 153.12 241.73 146.05 243.39 138.91 247.79 133.05 253.38 128.33 259.44 124.22 266.03 121 272.77 118.12 279.69 115.71 286.8 113.91 293.89 112.05 301.05 110.44 308.32 109.52 315.57 108.45 322.84 107.58 330.13 106.73 337.46 106.56 344.79 106.15 352.12 106.05 359.45 106.17 366.78 106.24 374.1 106.69 381.4 107.38 388.7 108.09 395.95 109.23 403.14 110.69 410.38 111.86 417.46 113.79 424.54 115.7 431.41 118.28 438.18 121.08 444.67 124.46 451 128.15 456.58 132.93 460.59 139.04 462.58 146.05"/>
          <path class="cls-7" d="M359.46,187.64s-.02,0-.03,0l-7.34-.14-7.35-.25-7.29-.04-7.37-.24s-.09,0-.13,0l-7.29-.87-7.29-1-7.25-.79s-.09-.01-.14-.02l-7.18-1.47-7.18-1.34-7.2-1.78-7.1-1.95s-.07-.02-.11-.03l-6.9-2.48-6.87-2.69s-.1-.04-.15-.07l-6.5-3.38s-.07-.04-.11-.06l-6.2-3.91c-.06-.04-.11-.08-.17-.12l-5.61-4.72c-.1-.09-.19-.18-.27-.29l-4.17-6.02c-.1-.15-.18-.31-.22-.49l-1.79-7.07c-.06-.23-.06-.48,0-.71l1.66-7.14c.05-.2,.14-.39,.26-.56l4.4-5.86c.07-.09,.15-.17,.23-.25l5.59-4.71s.08-.07,.13-.1l6.06-4.11c.06-.04,.12-.08,.18-.11l6.59-3.22,6.81-2.91s.06-.03,.1-.04l6.92-2.42s.08-.03,.13-.04l7.11-1.79,7.08-1.86,7.21-1.62s.09-.02,.14-.02l7.28-.92,7.21-1.07,14.61-1.72s.09,0,.14,0l7.33-.17,7.27-.41,7.4-.1,14.7,.19,7.4,.45,14.66,1.4,7.33,1.14,7.25,1.48,7.18,1.16c.05,0,.1,.02,.15,.03l14.15,3.84s.09,.03,.14,.04l6.87,2.58,6.81,2.82s.08,.04,.12,.06l6.49,3.38,6.4,3.72c.08,.05,.15,.1,.22,.16l5.58,4.78c.11,.09,.2,.2,.28,.32l4.01,6.11c.08,.13,.15,.27,.19,.41l1.98,7.01c.07,.26,.08,.53,0,.79l-1.88,7.06c-.05,.19-.14,.37-.26,.52l-4.4,5.79c-.05,.06-.1,.12-.15,.17l-5.27,5.08c-.07,.07-.15,.13-.23,.18l-6.19,3.95s-.09,.05-.14,.08l-6.57,3.27s-.07,.03-.11,.05l-6.81,2.72-6.96,2.48-7.11,2.12s-.08,.02-.12,.03l-7.19,1.49-14.38,2.84-7.29,1.2s-.1,.01-.14,.02l-7.32,.48-7.26,.68-7.36,.44-7.3,.55s-.07,0-.11,0Zm-29.21-3.67l7.27,.23,7.29,.04,7.37,.25,7.25,.14,7.25-.54,7.34-.44,7.25-.68,7.29-.48,7.17-1.18,21.44-4.3,6.97-2.08,6.83-2.44,6.7-2.68,6.45-3.2,6-3.83,5.08-4.89,4.15-5.46,1.7-6.38-1.81-6.39-3.77-5.74-5.32-4.55-6.22-3.62-6.37-3.32-6.71-2.77-6.76-2.54-14.02-3.8-7.17-1.16-7.24-1.48-7.18-1.12-14.51-1.39-7.27-.45-14.6-.19-7.29,.1-7.26,.41-7.31,.17-14.49,1.7-7.2,1.07-7.24,.91-7.08,1.59-7.04,1.85-7.06,1.78-6.81,2.38-6.69,2.86-6.43,3.14-5.91,4.01-5.4,4.55-4.11,5.47-1.51,6.48,1.64,6.45,3.9,5.63,5.38,4.53,6.06,3.82,6.38,3.32,6.75,2.64,6.81,2.44,7.01,1.92,7.08,1.75,7.12,1.32,7.14,1.46,7.22,.79,7.3,1,7.19,.85Z"/>
        </g>
        <g>
          <polygon class="cls-7" points="159.92 547.56 164.22 553.09 164.67 560.21 163.28 567.23 161.02 574.02 158.01 580.52 154.57 586.81 150.72 592.86 146.45 598.61 142.14 604.03 137.57 609.23 132.59 614.04 127.45 618.65 121.99 622.9 116.23 626.73 109.98 629.67 103.34 631.5 96.61 630.5 92.36 625 91.78 617.89 93.13 610.86 95.49 604.09 98.44 597.56 101.94 591.3 105.87 585.31 109.96 579.42 114.36 574.07 118.93 568.87 123.86 564.02 129.03 559.42 134.52 555.22 140.26 551.37 146.47 548.31 153.16 546.64 159.92 547.56"/>
          <polygon class="cls-7" points="544.37 547.66 540.08 553.11 539.49 560.22 540.98 567.22 543.32 573.98 546.29 580.49 549.73 586.77 553.61 592.79 557.82 598.59 562.08 604.05 566.66 609.23 571.6 614.08 576.8 618.64 582.18 622.99 588 626.73 594.21 629.77 600.9 631.44 607.64 630.53 611.97 625.02 612.4 617.9 610.98 610.89 608.73 604.1 605.8 597.56 602.25 591.33 598.46 585.24 594.22 579.46 589.89 574.07 585.25 568.93 580.39 564 575.2 559.44 569.76 555.17 563.94 551.42 557.72 548.42 551.08 546.61 544.37 547.66"/>
        </g>
        <g>
          <polygon class="cls-8" points="352.12 132.62 344.88 132.04 337.65 132.67 330.42 133.17 323.17 132.53 315.92 132.26 308.7 132.94 301.51 134.06 294.28 134.29 287.06 134.83 279.8 134.62 272.6 135.39 265.35 135.65 258.2 136.83 251.02 137.79 243.84 138.66 236.55 138.76 229.48 140.53 222.19 140.77 215.25 143.14 208.12 144.35 200.92 145.21 193.84 146.72 186.74 148.13 179.92 150.68 172.7 151.65 165.9 154.17 158.71 155.38 151.89 157.84 144.99 160.05 138.27 162.75 131.53 165.39 125.09 168.72 118.16 170.95 111.98 174.77 105.35 177.67 98.93 181.02 92.96 185.14 86.65 188.69 80.45 192.46 75.27 197.61 69.14 201.52 63.98 206.61 58.22 211.05 53.91 216.95 49.06 222.28 44.06 227.51 39.93 233.44 35.36 239.06 31.32 245.08 27.46 251.22 24.85 258.03 21.22 264.31 18.79 271.14 16.6 278.03 13.88 284.74 12.09 291.75 9.27 298.48 8.37 305.71 7.53 312.9 6.32 320.01 4.46 327.05 3.85 334.26 2.78 341.43 2.04 348.64 1.91 355.88 2.15 363.13 2.58 370.37 1.5 377.54 2.33 384.69 3.14 391.82 2.39 399.04 3.02 406.19 4.13 413.29 5.53 420.33 5.89 427.52 7.04 434.6 8.66 441.59 9.87 448.67 12.98 455.25 14.65 462.22 16.55 469.15 19.21 475.81 21.96 482.44 25.19 488.85 28.38 495.29 32.93 500.92 36.4 507.2 40.49 513.1 44.67 518.95 50.22 523.62 54.37 529.55 60.1 533.93 65.45 538.68 71.06 543.11 76.13 548.27 82.13 552.22 88.45 555.65 94.7 559.13 100.98 562.54 106.84 566.78 113.78 568.88 120.13 572.19 126.83 574.72 133.21 578.06 140.06 580.17 146.71 582.87 153.8 584.21 160.45 586.98 167.37 588.84 174.21 591.01 181.36 591.94 188.37 593.4 195.24 595.52 202.47 595.86 209.49 597.18 216.55 598.37 223.6 599.62 230.67 600.75 237.82 601.3 244.92 602.15 251.94 603.82 259.14 603.79 266.24 604.79 273.37 605.46 280.51 606.01 287.63 606.89 294.83 606.5 301.96 607.42 309.1 608.07 316.26 608.33 323.44 607.86 330.62 607.64 337.78 607.74 344.94 608.5 352.12 608.67 359.28 608.72 366.45 608.82 373.6 607.66 380.78 608.59 387.91 607.13 395.07 607.11 402.25 607.31 409.37 606.29 416.55 606.33 423.7 605.92 430.85 605.45 438 605.08 445.11 604.1 452.22 603.24 459.36 602.7 466.43 601.47 473.67 601.59 480.66 599.78 487.88 599.57 494.78 597.36 502.03 597.18 508.97 595.32 515.98 593.83 522.84 591.7 529.91 590.46 536.98 589.18 543.9 587.29 550.74 585.12 557.21 581.86 564.16 580.05 570.94 577.75 577.46 574.75 584.08 572.05 590.86 569.67 597.09 566.1 603.74 563.35 609.87 559.62 615.61 555.28 621.83 551.73 627.75 547.71 633.69 543.67 638.93 538.76 644.15 533.87 649.75 529.35 654.58 524.05 659.32 518.67 664 513.22 668.18 507.37 671.3 500.85 675.25 494.89 678.31 488.42 681.54 482.05 684.3 475.46 686.78 468.77 689.83 462.26 691.3 455.23 694.07 448.57 695.29 441.49 697.06 434.54 697.89 427.42 699.07 420.36 699.88 413.25 700.05 406.07 701.66 399.02 701.77 391.85 701.3 384.67 701.89 377.52 702.37 370.37 701.42 363.14 701.21 355.92 701.56 348.67 701.12 341.44 700.71 334.21 700.04 327 699.01 319.82 696.67 312.88 696.32 305.58 694.98 298.45 692.38 291.64 690.48 284.66 688.39 277.72 685.69 271 683.27 264.15 679.18 258.08 676.4 251.38 672.78 245.1 669.04 238.9 664.61 233.15 660.37 227.29 655.73 221.73 650.56 216.65 646.12 210.85 640.03 206.77 634.95 201.61 629.38 196.99 623.15 193.25 617.28 189.05 611.21 185.15 605.46 180.67 598.69 177.96 592.31 174.59 585.78 171.48 579.16 168.6 572.72 165.27 565.99 162.59 559.31 159.76 552.1 158.49 545.45 155.54 538.25 154.39 531.35 152.23 524.3 150.66 517.28 148.92 510.4 146.59 503.41 144.66 496.22 143.74 489.14 142.17 482.01 140.94 474.69 140.92 467.64 139.1 460.44 138.4 453.26 137.48 446.1 136.37 438.9 135.62 431.65 135.55 424.4 135.52 417.24 134.18 410.04 133.36 402.76 133.97 395.56 132.98 388.33 132.6 381.08 132.77 373.84 132.98 366.6 133.11 359.37 131.93 352.12 132.62"/>
          <path class="cls-7" d="M366.45,610.32s-.01,0-.02,0l-14.32-.15-7.2-.17s-.08,0-.12,0l-7.1-.75-7.09-.1-7.11,.21-7.13,.47c-.05,0-.1,0-.15,0l-7.16-.26-7.23-.65-7.05-.91-7.06,.38c-.09,0-.18,0-.26,0l-7.12-.87-7.07-.54-7.15-.68-7.06-.99-7.09,.04c-.12,0-.24-.01-.36-.04l-6.93-1.66-7.02-.84-7.08-.54s-.08,0-.12-.01l-7.07-1.13-7.08-1.25-7.04-1.19-6.96-1.31-7.12-.34c-.13,0-.25-.03-.37-.06l-6.8-2.1-6.88-1.43-7.09-.92c-.09-.01-.18-.03-.26-.06l-6.84-2.18-6.86-1.84c-.06-.02-.12-.04-.19-.06l-6.51-2.7-6.94-1.31c-.1-.02-.19-.05-.29-.08l-6.59-2.68-6.79-2.1c-.09-.03-.17-.06-.25-.1l-6.3-3.29-6.61-2.5c-.05-.02-.11-.04-.16-.07l-6.23-3.24-6.8-2.07c-.16-.05-.31-.12-.44-.22l-5.79-4.18-6.2-3.36-6.26-3.49-6.3-3.42s-.07-.04-.11-.06l-6-3.94c-.09-.06-.17-.13-.25-.2l-5-5.1-5.54-4.37-5.37-4.77-5.69-4.34c-.12-.09-.23-.21-.32-.33l-4.03-5.78-5.4-4.54c-.1-.08-.18-.17-.25-.28l-4.18-5.85-4.1-5.91s-.06-.08-.08-.13l-3.41-6.17-4.46-5.53c-.07-.09-.13-.18-.18-.28l-6.42-12.84s-.03-.07-.05-.1l-2.75-6.63-2.66-6.68c-.02-.05-.04-.1-.05-.16l-1.9-6.93-1.65-6.86-3.04-6.44c-.06-.12-.1-.25-.12-.39l-1.21-7.09-1.6-6.9s-.01-.07-.02-.1l-1.15-7.08c0-.06-.01-.11-.02-.17l-.35-7.08-1.38-6.93-1.12-7.16s0-.07-.01-.1l-.63-7.15c0-.1,0-.19,0-.29l.74-7.06L.01,377.71c-.02-.13-.01-.26,0-.39l1.05-7.02-.41-7.08-.25-7.28,.13-7.32s0-.08,0-.13l.74-7.21,1.08-7.24,.6-7.12c0-.09,.02-.17,.04-.26l1.84-6.97,1.2-7.05,.82-7.12,.9-7.23c.02-.14,.05-.27,.11-.39l2.78-6.64,1.76-6.9c.02-.07,.04-.13,.06-.19l2.69-6.65,2.17-6.84,2.45-6.88c.03-.09,.07-.17,.11-.25l3.57-6.18,2.57-6.69c.04-.09,.08-.18,.13-.26l3.86-6.14,4.06-6.05s.05-.08,.08-.11l4.54-5.58,4.1-5.89c.04-.06,.09-.12,.15-.18l5-5.23,4.77-5.25,4.27-5.83c.08-.11,.18-.22,.29-.3l5.68-4.39,5.1-5.03c.08-.07,.16-.14,.25-.2l6-3.82,5.07-5.04c.08-.08,.18-.16,.28-.22l6.2-3.77,6.3-3.54,5.91-4.08c.05-.04,.1-.07,.16-.1l6.42-3.34s.06-.03,.09-.04l6.54-2.86,6.09-3.77c.1-.06,.21-.11,.33-.15l6.81-2.19,6.34-3.26s.09-.04,.14-.06l6.74-2.64,6.71-2.7s.07-.03,.1-.04l6.9-2.21,6.77-2.44c.08-.03,.17-.05,.26-.07l7.05-1.19,6.68-2.47c.1-.04,.21-.07,.32-.08l7.05-.94,6.67-2.49c.08-.03,.15-.05,.23-.07l7.1-1.41,7.06-1.51s.09-.02,.14-.02l7.2-.86,6.93-1.19,6.83-2.33c.14-.05,.29-.07,.43-.08l7.13-.23,6.91-1.73c.11-.03,.23-.04,.34-.05l7.21-.1,7.11-.86,7.16-.96,7.11-1.18c.06-.01,.13-.02,.19-.02l7.19-.25,7.15-.77c.07,0,.14,0,.2,0l7.19,.21,7.14-.53,7.2-.23,7.1-1.1,7.31-.7c.07,0,.13,0,.2,0l7.25,.27,7.21,.63,7.11-.49,7.2-.63c.08,0,.17,0,.25,0l7.11,.57,7.12-.68c.13-.01,.26,0,.39,.01l7.1,1.16,7.1-.13,14.49-.38s.07,0,.11,0l7.23,.37s.08,0,.13,.01l7.04,.97,7.12-.59c.1,0,.2,0,.29,0l7.2,.82s.07,0,.11,.02l7.02,1.31,14.37,.1s.09,0,.14,0l7.2,.75,7.23,1.12,7.14,.91,7.16,.7c.08,0,.15,.02,.23,.04l6.87,1.77,7.13,.02c.08,0,.17,0,.25,.02l7.14,1.23,7.08,1.57,7.13,.91c.07,0,.14,.02,.21,.04l6.99,1.93,6.91,2.33,6.95,1.72,7.02,1.57s.08,.02,.12,.03l6.8,2.12,7.09,1.13c.13,.02,.25,.06,.37,.11l6.48,2.88,7.03,1.24c.11,.02,.22,.05,.32,.1l6.68,2.83,6.69,2.67s.09,.04,.13,.06l6.44,3.33,6.53,2.84,6.57,3.13,6.37,3.37,6.7,2.68c.13,.05,.25,.12,.36,.21l5.7,4.44,6.01,3.87,5.88,4.2,6.18,3.7c.07,.04,.13,.08,.19,.13l5.57,4.63s.07,.07,.11,.1l4.98,5.05,5.96,4c.14,.09,.26,.2,.36,.33l4.37,5.71,5.09,5s.07,.07,.1,.11l4.64,5.56s.04,.05,.06,.08l4.24,5.87,4.4,5.7s.07,.09,.1,.14l3.74,6.21,3.63,6.3c.03,.06,.06,.11,.09,.17l2.72,6.56,4.01,5.95c.07,.1,.13,.22,.17,.34l2.42,6.85,2.67,6.67s.03,.08,.04,.12l2.09,6.94,1.89,6.95,2.57,6.74c.03,.08,.06,.17,.07,.26l1.34,7.13c.01,.07,.02,.14,.02,.2l.34,7.09,2.27,6.74c.03,.09,.05,.17,.06,.26l1.03,7.17,.68,7.29,.86,14.5c0,.05,0,.11,0,.16l-.35,7.2,.2,7.09,.95,7.15c.01,.1,.02,.2,0,.3l-.48,7.16-.59,7.06,.46,7.07s0,.08,0,.12l-.11,7.17c0,.1-.01,.21-.04,.31l-1.58,6.91-.17,7.02s0,.09,0,.13l-.8,7.11-1.2,7.14-.82,7.05c0,.07-.02,.13-.04,.2l-1.75,6.89-1.21,7.02c-.02,.11-.05,.22-.09,.32l-2.71,6.53-1.45,6.89c-.02,.11-.06,.22-.11,.33l-3.02,6.45-2.46,6.63-2.78,6.65s-.03,.07-.05,.1l-3.23,6.37-3.04,6.43c-.03,.07-.07,.13-.11,.19l-3.9,5.88-3.08,6.43c-.04,.08-.08,.15-.13,.22l-4.18,5.84s-.05,.07-.08,.1l-4.68,5.45-4.76,5.39-4.85,5.32c-.05,.06-.11,.11-.17,.16l-5.56,4.48-10.42,9.77c-.06,.05-.12,.1-.18,.15l-11.85,8.06s-.07,.04-.1,.06l-6.14,3.5-5.67,4.28s-.08,.06-.12,.08l-6.13,3.73c-.07,.04-.13,.08-.21,.1l-6.56,2.72-6.15,3.52c-.08,.05-.16,.08-.25,.11l-6.78,2.38-6.55,2.68-6.46,2.97s-.09,.04-.14,.06l-6.78,2.31s-.07,.02-.11,.03l-6.79,1.76-6.33,3.19c-.07,.04-.15,.07-.22,.09l-6.84,2.17-6.98,1.91s-.09,.02-.13,.03l-14.05,2.5-6.77,2.11s-.09,.03-.13,.04l-7.01,1.49-6.87,1.84c-.11,.03-.23,.05-.35,.05l-7.03,.18-6.69,2.15c-.13,.04-.27,.07-.42,.07l-7.05,.2-6.82,1.77c-.13,.03-.27,.05-.4,.05l-7.1-.12-6.92,1.2s-.1,.01-.14,.02l-7.14,.54-7.04,.85-7.08,.98s-.08,.01-.13,.01l-7.16,.37-7.13,.47-7.17,.4-7.16-.03-7.01,1.01c-.08,.01-.17,.02-.25,.01l-7.18-.2-6.97,.02-6.98,1.43c-.16,.03-.33,.04-.49,.02l-6.97-.9-6.93,1.13c-.08,.01-.16,.02-.24,.02Zm-21.41-3.32l7.11,.17,14.19,.15,7.02-1.15c.14-.02,.29-.03,.43,0l6.94,.9,6.88-1.41c.1-.02,.2-.03,.3-.03l7.16-.02,7.09,.19,6.99-1c.07-.01,.15-.02,.22-.02l7.18,.04,7.06-.4,7.13-.47,7.11-.37,7.04-.97,7.14-.86,7.14-.54,6.99-1.21c.09-.02,.19-.02,.28-.02l7.04,.12,6.79-1.77c.11-.03,.22-.04,.34-.05l7.01-.2,6.7-2.15c.14-.04,.28-.07,.42-.07l7.07-.18,6.77-1.81,7.02-1.49,6.79-2.12c.06-.02,.12-.03,.19-.05l14.06-2.5,6.86-1.87,6.67-2.11,6.37-3.21c.1-.05,.2-.09,.3-.11l6.89-1.79,6.66-2.26,6.45-2.96,6.68-2.73,6.73-2.36,6.11-3.5c.06-.03,.11-.06,.17-.08l6.54-2.71,5.97-3.63,5.68-4.29c.05-.04,.1-.07,.16-.11l6.17-3.52,11.71-7.96,10.37-9.73s.06-.05,.08-.07l5.51-4.44,4.75-5.22,4.73-5.36,4.62-5.39,4.06-5.68,3.06-6.4c.03-.06,.06-.12,.1-.18l3.9-5.87,3.01-6.37,3.23-6.36,2.73-6.54,2.46-6.64s.03-.08,.05-.11l2.97-6.35,1.44-6.86c.02-.09,.05-.18,.08-.27l2.7-6.51,1.2-6.91s.01-.08,.02-.11l1.74-6.85,.82-7.03,1.2-7.14,.79-6.97,.17-7.1c0-.1,.01-.2,.04-.3l1.57-6.9,.1-6.95-.47-7.12c0-.07,0-.15,0-.22l.59-7.14,.47-6.99-.94-7.08c0-.05-.01-.1-.01-.15l-.2-7.22s0-.08,0-.11l.35-7.17-.85-14.38-.66-7.16-1-6.96-2.29-6.81c-.04-.13-.07-.27-.08-.41l-.35-7.2-1.29-6.9-2.55-6.68s-.03-.09-.05-.14l-1.9-6.98-2.06-6.83-2.67-6.66-2.38-6.73-3.98-5.91c-.06-.08-.1-.17-.14-.26l-2.75-6.61-3.57-6.19-3.68-6.11-4.38-5.67-4.24-5.86-4.56-5.46-5.12-5.02c-.05-.05-.1-.1-.14-.16l-4.28-5.6-5.88-3.94c-.08-.06-.16-.12-.23-.19l-5.03-5.11-5.42-4.5-6.13-3.67s-.07-.04-.1-.07l-5.87-4.2-6.01-3.86s-.07-.05-.11-.08l-5.58-4.35-6.57-2.63s-.1-.04-.14-.07l-6.38-3.38-6.47-3.08-6.58-2.86-6.47-3.34-6.66-2.65-6.55-2.77-7.04-1.24c-.12-.02-.24-.06-.35-.11l-6.47-2.87-7.01-1.12c-.07-.01-.14-.03-.21-.05l-6.84-2.14-7-1.56-7.05-1.75s-.08-.02-.12-.04l-6.88-2.33-6.8-1.88-7.09-.91s-.09-.01-.13-.02l-7.07-1.57-6.94-1.2-7.19-.02c-.12,0-.25-.02-.37-.05l-6.93-1.79-7.09-.69-7.22-.92-7.2-1.12-7.06-.73-14.42-.1c-.09,0-.18,0-.27-.03l-7.1-1.33-7-.8-7.13,.59c-.11,0-.22,0-.33,0l-7.14-.98-7.11-.37-21.68,.51c-.09,0-.18,0-.27-.02l-7.04-1.15-7.06,.67c-.09,0-.18,0-.26,0l-7.11-.57-7.11,.62-7.25,.5c-.08,0-.16,0-.24,0l-7.25-.64-7.08-.26-7.12,.68-7.1,1.1c-.06,0-.12,.01-.18,.02l-7.23,.23-7.15,.53c-.05,0-.1,0-.16,0l-7.17-.21-7.1,.76s-.07,0-.11,0l-7.15,.25-7.06,1.17-7.22,.97-7.2,.87c-.05,0-.11,.01-.16,.01l-7.11,.1-6.89,1.73c-.1,.03-.21,.04-.32,.04l-7.07,.23-6.73,2.29c-.08,.03-.15,.05-.23,.06l-7.13,1.22-7.21,.86-7.01,1.5-7,1.39-6.71,2.5c-.11,.04-.21,.07-.33,.08l-7.05,.95-6.65,2.46c-.09,.03-.18,.06-.27,.07l-7.06,1.19-6.69,2.41-6.9,2.21-6.67,2.68-6.68,2.62-6.38,3.29c-.07,.04-.15,.07-.23,.09l-6.75,2.18-6.03,3.73c-.06,.04-.12,.07-.19,.1l-6.59,2.88-6.29,3.28-5.89,4.07s-.08,.05-.12,.07l-6.31,3.55-6,3.65-5.05,5.03c-.08,.08-.16,.14-.25,.2l-6,3.82-5.05,4.98s-.09,.08-.14,.12l-5.59,4.31-4.19,5.73s-.06,.08-.1,.12l-4.85,5.33-4.94,5.18-4.06,5.84s-.04,.06-.07,.09l-4.53,5.57-4,5.96-3.76,5.98-2.56,6.67c-.03,.07-.06,.15-.1,.21l-3.56,6.17-2.39,6.7-2.17,6.84s-.02,.07-.04,.11l-2.68,6.61-1.76,6.91c-.02,.07-.04,.14-.07,.21l-2.74,6.55-.88,7.02-.83,7.18-1.22,7.19s-.02,.09-.03,.13l-1.82,6.91-.6,7.08-1.08,7.26-.72,7.08-.13,7.18,.24,7.17,.42,7.2c0,.1,0,.21-.01,.31l-1.05,6.98,1.62,14.09c.01,.11,.01,.22,0,.33l-.74,7.08,.61,6.95,1.1,7.05,1.39,6.98c.01,.07,.02,.15,.03,.22l.35,7.1,1.13,6.95,1.61,6.94,1.19,6.97,3.02,6.4c.04,.09,.08,.19,.1,.29l1.67,6.97,1.87,6.8,2.62,6.59,2.72,6.56,6.33,12.66,4.44,5.5c.05,.07,.1,.14,.15,.22l3.44,6.22,4.04,5.83,4.06,5.68,5.41,4.55c.1,.08,.19,.18,.26,.29l4.01,5.75,5.55,4.24s.06,.05,.09,.07l5.35,4.75,5.54,4.37s.1,.08,.14,.13l4.96,5.05,5.81,3.82,6.26,3.4,6.26,3.49,6.27,3.4c.06,.03,.11,.06,.16,.1l5.66,4.09,6.69,2.04c.09,.03,.17,.06,.26,.1l6.28,3.26,6.61,2.5c.06,.02,.11,.05,.16,.07l6.26,3.27,6.72,2.08s.08,.03,.12,.04l6.51,2.64,6.94,1.31c.1,.02,.2,.05,.3,.09l6.56,2.72,6.83,1.84,6.78,2.15,7.01,.91s.07,.01,.11,.02l7.01,1.46s.09,.02,.14,.03l6.69,2.06,7.03,.34c.07,0,.14,.01,.21,.02l7.03,1.32,7.03,1.18,7.06,1.25,6.99,1.11,7.09,.55,7.17,.85c.06,0,.11,.02,.17,.03l6.84,1.64,7.02-.04c.08,0,.15,0,.22,.01l7.1,1,7.06,.67,7.11,.55,7.06,.86,7.07-.38c.09,0,.18,0,.27,.01l7.13,.92,7.09,.64,7,.26,7.1-.47,7.23-.22,7.23,.1s.09,0,.14,0l7.1,.75Z"/>
        </g>
        <g>
          <polygon class="cls-6" points="352.12 163.54 344.95 163.96 337.78 164.18 330.61 164.26 323.43 164.15 316.25 164.47 309.08 164.75 301.92 165.4 294.77 166 287.64 166.84 280.48 167.3 273.32 167.8 266.28 169.36 259.2 170.47 251.98 170.69 245.01 172.44 237.88 173.34 230.91 175.08 223.88 176.46 216.89 178.1 210.05 180.3 203.13 182.15 196.37 184.53 189.37 186.21 182.71 188.88 175.88 191.16 169.31 194.08 162.88 197.28 156.96 201.42 150.23 204.08 144.62 208.64 138.58 212.48 132.46 216.26 127.37 221.36 121.9 225.97 116.17 230.35 111.39 235.72 107.04 241.44 102.86 247.25 98.41 252.88 94.93 259.15 91.31 265.32 87.89 271.62 84.62 278.03 82.42 284.87 80.01 291.62 78.46 298.63 76.6 305.54 75.06 312.52 73.86 319.58 72.5 326.6 71.57 333.7 71.09 340.85 70.07 347.95 70.02 355.12 69.14 362.27 68.89 369.45 69.42 376.65 69.12 383.87 69.46 391.08 70.97 398.2 71.03 405.43 71.45 412.64 72.88 419.72 73.89 426.86 76.06 433.76 77.06 440.92 79.03 447.86 81.34 454.69 83.94 461.41 86.18 468.3 89.39 474.77 92.85 481.11 96.57 487.31 100.59 493.31 105.24 498.85 110.3 503.99 115.16 509.27 119.77 514.87 125.26 519.56 131.14 523.75 136.71 528.36 142.94 532.02 148.9 536.1 155.6 538.87 161.78 542.61 168.27 545.75 174.98 548.39 181.62 551.21 188.48 553.44 195.32 555.7 202.15 558.03 209.16 559.75 216.19 561.33 223.25 562.78 230.28 564.33 237.43 565.3 244.47 566.79 251.5 568.46 258.61 569.65 265.86 569.8 273 570.74 280.1 572.12 287.36 571.89 294.47 573.38 301.67 573.82 308.91 573.36 316.11 573.59 323.28 574.44 330.5 574.31 337.69 575.02 344.91 574.8 352.12 575.42 359.33 575.16 366.53 574.41 373.73 574.25 380.94 574.28 388.12 573.66 395.31 573.3 402.55 573.72 409.69 572.38 416.93 572.5 424.12 571.95 431.28 571.08 438.46 570.39 445.58 569.23 452.65 567.76 459.88 567.4 466.85 565.44 474.04 564.64 480.97 562.61 488.19 561.8 495.02 559.42 501.87 557.17 509 555.87 515.61 552.92 522.71 551.35 529.23 548.23 535.84 545.37 542.26 542.12 549.05 539.57 555.37 536.08 561.32 531.98 567.51 528.26 572.91 523.44 579.01 519.54 584.49 514.83 589.63 509.76 593.96 503.95 599.09 498.86 603.45 493.12 607.37 487.06 611.33 481.03 614.38 474.49 617.13 467.84 620.15 461.31 623.03 454.7 624.66 447.67 626.77 440.79 628.3 433.77 630.18 426.81 631.29 419.69 632.39 412.57 633.59 405.45 633.45 398.21 634.23 391.05 635.05 383.87 634.56 376.65 634.82 369.45 635.26 362.27 635.08 355.09 633.8 347.97 634.11 340.76 632.37 333.73 631.96 326.56 631.35 319.39 629.5 312.44 627.71 305.5 625.7 298.63 624.07 291.64 621.6 284.92 618.75 278.35 616.33 271.59 613.02 265.23 609.23 259.14 606.07 252.66 601.36 247.21 597.62 241.04 592.56 235.92 587.66 230.7 582.31 225.94 576.98 221.16 571.72 216.27 566.09 211.81 559.65 208.53 553.97 204.07 547.5 200.93 540.91 198.08 534.87 194.11 528.13 191.6 521.39 189.15 514.9 186.02 508.05 183.85 501.26 181.51 494.35 179.57 487.18 178.64 480.21 176.98 473.29 175.09 466.28 173.6 459.25 172.25 452.09 171.6 445.12 169.79 438 168.9 430.89 167.95 423.79 166.86 416.61 166.54 409.45 166.15 402.27 166.02 395.14 165.2 387.98 164.89 380.82 164.3 373.64 164.38 366.47 164.05 359.3 164.12 352.12 163.54"/>
          <path class="cls-7" d="M352.12,576.92s-.09,0-.13,0l-7.12-.61-7.13,.22c-.06,0-.13,0-.19,0l-7.11-.71-7.13,.14c-.07,0-.14,0-.21-.01l-7.11-.85-7.06-.23-7.17,.46c-.06,0-.12,0-.19,0l-7.2-.44c-.07,0-.14-.01-.22-.03l-6.94-1.45-7.07,.22c-.11,0-.22,0-.33-.03l-7.1-1.38-6.97-.92-7.16-.15c-.07,0-.15,0-.22-.02l-7.11-1.19s-.07-.01-.1-.02l-7.03-1.67-6.95-1.47-7.09-.96s-.08-.01-.12-.02l-7.03-1.55-7.04-1.45-7.06-1.58-7.04-1.73s-.09-.02-.13-.04l-6.83-2.34-13.68-4.48s-.08-.03-.12-.05l-6.64-2.82-6.67-2.63s-.07-.03-.1-.05l-6.49-3.14s-.08-.04-.12-.07l-6.08-3.68-6.6-2.72c-.1-.04-.19-.09-.28-.15l-5.92-4.05-6.18-3.63c-.07-.04-.14-.09-.2-.14l-5.52-4.57-5.84-4.15s-.07-.05-.1-.08l-5.49-4.69c-.07-.06-.13-.12-.18-.19l-4.61-5.6-4.81-5.22-5.03-5.1s-.06-.06-.08-.09l-4.65-5.54s-.07-.08-.1-.13l-4.02-6-3.76-6.26-3.49-6.4-3.24-6.52c-.03-.07-.06-.13-.08-.2l-2.23-6.89-2.57-6.64-2.34-6.89-1.99-7.01c-.02-.07-.03-.13-.04-.2l-.99-7.04-2.13-6.79c-.02-.08-.04-.16-.05-.24l-1.02-7.14-1.41-7c-.01-.07-.02-.14-.03-.21l-.42-7.21-.07-7.14-1.48-6.98c-.02-.08-.03-.16-.03-.24l-.34-7.21s0-.09,0-.13l.29-7.14-.52-7.12c0-.05,0-.11,0-.16l.25-7.18s0-.09,.01-.13l.87-7.06,.05-7.08c0-.07,0-.14,.02-.2l1.01-7.05,.48-7.09,.94-7.19,1.38-7.12,1.19-7.02,1.55-7.06,1.88-6.97,1.53-6.94c.01-.06,.03-.12,.05-.18l2.41-6.75,2.19-6.8c.02-.08,.05-.15,.09-.22l3.27-6.4,3.44-6.33,3.65-6.22,3.46-6.24c.04-.07,.08-.14,.14-.2l4.45-5.62,4.14-5.76,4.37-5.75s.05-.06,.07-.09l4.78-5.37c.06-.07,.13-.14,.21-.19l5.74-4.38,5.36-4.53,5.05-5.06c.08-.08,.17-.16,.27-.22l6.12-3.78,5.95-3.77,5.54-4.51c.12-.1,.25-.18,.4-.23l6.57-2.59,5.78-4.05c.06-.04,.13-.08,.19-.11l6.43-3.2,6.63-2.95s.09-.04,.13-.05l6.82-2.28,6.58-2.64c.07-.03,.14-.05,.21-.07l6.92-1.67,6.69-2.35s.07-.02,.11-.03l6.93-1.85,6.76-2.18s.08-.02,.12-.03l6.98-1.64,7.09-1.39,6.89-1.72c.06-.01,.12-.03,.18-.03l7.04-.89,6.89-1.73c.11-.03,.21-.04,.32-.04l7.12-.21,6.99-1.09,6.94-1.55c.07-.02,.15-.03,.22-.03l14.34-.96,7.05-.84,14.35-1.26,14.42-.6,7.27,.1,7.13-.07,7.14-.22,7.13-.42c.07,0,.14,0,.21,0l7.11,.58,7.11-.06,7.25,.33,7.1-.07s.09,0,.14,0l7.15,.59,7.11,.3s.07,0,.11,0l7.06,.81,7.1,.13,7.22,.39,7.16,.32c.05,0,.11,0,.16,.02l7.1,1.09,7.08,.95,7.1,.89c.06,0,.13,.02,.19,.04l6.85,1.78,7.03,.63s.1,.01,.15,.02l7.04,1.35,7.04,1.5,7,1.91,6.84,1.63,7.09,.92c.07,0,.14,.02,.21,.04l6.91,1.94,6.87,2.36,6.81,2.15c.07,.02,.13,.05,.2,.08l6.42,3.1,6.67,2.43,6.75,2.51c.11,.04,.21,.09,.3,.15l5.94,3.9,6.47,2.79,6.53,3.17c.1,.05,.19,.1,.27,.17l5.56,4.37,6.31,3.21c.09,.05,.17,.1,.25,.16l5.64,4.46s.06,.05,.09,.08l5.26,4.89,10.65,9.52s.07,.06,.1,.09l4.9,5.22,5.03,5.09c.08,.08,.15,.18,.22,.28l3.68,6.06,4.63,5.36c.09,.1,.16,.21,.21,.32l3.12,6.41,3.75,6.01s.04,.07,.06,.1l3.3,6.36c.03,.06,.06,.12,.08,.19l2.42,6.76,2.82,6.47,2.5,6.81c.02,.06,.04,.12,.05,.18l1.63,6.98,1.98,6.79,1.81,6.98,1.85,6.94c.02,.08,.04,.17,.05,.26l.61,7.17,.4,7.07,1.71,6.89c.03,.14,.05,.28,.04,.43l-.3,7.05,1.24,6.95c.01,.07,.02,.15,.02,.22l.19,7.18s0,.09,0,.13l-.45,7.18-.26,7.08,.49,7.14c0,.09,0,.18,0,.27l-1.59,14.24,.14,7.15c0,.09,0,.19-.02,.28l-1.2,7.12-2.2,14.22c0,.05-.02,.11-.03,.16l-1.88,6.96-1.51,6.96s-.02,.08-.03,.12l-2.1,6.82-1.62,6.98c-.02,.09-.05,.18-.09,.26l-2.88,6.61-3.03,6.56-2.73,6.6-3.08,6.6c-.03,.07-.07,.13-.11,.19l-3.97,6.03-3.91,6.04s-.04,.06-.06,.09l-4.36,5.74c-.04,.06-.09,.11-.14,.16l-5.05,5.01-4.26,5.72c-.05,.06-.1,.12-.15,.17l-5.14,5.07s-.05,.05-.07,.07l-5.48,4.71c-.05,.05-.11,.09-.17,.13l-6,3.84-5.31,4.74c-.07,.06-.15,.12-.22,.17l-6.18,3.72-5.87,4.05s-.08,.05-.13,.08l-6.32,3.49c-.06,.04-.13,.07-.2,.09l-6.71,2.51-6.35,3.21-6.69,2.9-6.47,3.1c-.1,.05-.21,.09-.32,.11l-6.94,1.53-6.47,2.89c-.11,.05-.22,.08-.34,.11l-7.03,1.28-6.75,2.21-6.81,2.38c-.11,.04-.22,.06-.33,.07l-7.08,.8-6.81,2c-.08,.02-.17,.04-.26,.05l-7.06,.78-6.85,1.93c-.11,.03-.22,.05-.33,.05l-7.12,.35-6.95,1.45-7.19,1.17-7.28,.7-7.12,.87-7.26,.55s-.09,0-.14,0l-7.09-.11-6.99,1.31c-.12,.02-.24,.03-.36,.02l-7.16-.41-7.11,.35-7.13,.61s-.09,0-.13,0l-7.21-.02-7.1,.15-7.14,.74s-.07,0-.1,0l-7.21,.26s-.04,0-.05,0Zm-7.21-3.62s.09,0,.13,0l7.12,.61,7.07-.26,7.15-.74s.08,0,.12,0l7.2-.15,7.18,.02,7.12-.61,7.25-.36c.05,0,.11,0,.16,0l7.06,.41,6.96-1.3c.1-.02,.2-.03,.3-.03l7.17,.12,7.12-.54,7.09-.87,7.22-.69,7.02-1.14,7-1.46c.08-.02,.15-.03,.23-.03l7.07-.35,6.81-1.91c.08-.02,.16-.04,.24-.05l7.05-.78,6.81-2c.08-.02,.17-.04,.25-.05l7.04-.79,6.68-2.33,6.88-2.25c.06-.02,.13-.04,.2-.05l6.95-1.27,6.45-2.88c.09-.04,.19-.07,.29-.09l6.92-1.53,6.37-3.05,6.66-2.89,6.35-3.21s.1-.05,.15-.07l6.69-2.5,6.16-3.4,5.89-4.06,6.14-3.7,5.3-4.73c.06-.05,.12-.1,.19-.14l6.01-3.84,5.36-4.61,5.03-4.95,4.26-5.72c.04-.06,.09-.12,.15-.17l5.05-5.02,4.26-5.62,3.88-6.01,3.91-5.95,3-6.44,2.73-6.59,3.04-6.58,2.81-6.45,1.6-6.9s.02-.07,.03-.1l2.09-6.81,1.52-6.96,1.87-6.95,2.19-14.15,1.18-7-.14-7.1c0-.06,0-.13,0-.19l1.59-14.21-.49-7.08c0-.05,0-.1,0-.16l.26-7.2,.44-7.15-.18-7-1.25-7.01c-.02-.11-.03-.22-.02-.33l.3-7-1.7-6.82c-.02-.09-.04-.18-.04-.28l-.41-7.17-.59-7-1.82-6.83-1.8-6.95-1.99-6.83-1.63-6.97-2.44-6.64-2.82-6.48-2.42-6.76-3.23-6.22-3.76-6.03s-.05-.09-.08-.14l-3.07-6.31-4.59-5.3c-.05-.06-.1-.13-.15-.2l-3.65-6.02-4.93-4.99-4.88-5.2-10.63-9.5-5.24-4.87-5.47-4.33-6.3-3.21c-.09-.04-.17-.1-.25-.16l-5.55-4.36-6.32-3.07-6.53-2.81c-.08-.03-.16-.08-.23-.12l-5.91-3.88-6.58-2.45-6.73-2.45s-.09-.04-.14-.06l-6.39-3.08-6.74-2.13-6.83-2.35-6.73-1.89-7.06-.91c-.05,0-.1-.02-.16-.03l-6.97-1.66-6.96-1.9-6.93-1.47-6.94-1.33-7.08-.64c-.08,0-.16-.02-.24-.04l-6.88-1.79-7.02-.88-7.12-.95-7.05-1.08-7.09-.32-7.18-.39-7.12-.13s-.1,0-.15,0l-7.08-.82-7.11-.3-7.14-.59-7.11,.07-7.25-.33-7.1,.07s-.09,0-.13,0l-7.07-.57-7.07,.42-7.21,.22-7.2,.07-7.22-.1-14.27,.59-7.07,.65-7.16,.6-7.08,.84-14.29,.96-6.92,1.54-7.17,1.13c-.06,0-.12,.02-.19,.02l-7.05,.21-6.82,1.72c-.06,.01-.12,.03-.18,.03l-7.04,.89-6.88,1.72-7.11,1.4-6.87,1.61-6.78,2.18-6.94,1.86-6.71,2.36s-.1,.03-.15,.04l-6.89,1.66-6.56,2.63-6.84,2.28-6.5,2.89-6.28,3.12-5.83,4.08c-.1,.07-.2,.12-.31,.17l-6.52,2.57-5.42,4.42s-.09,.07-.14,.1l-6.04,3.83-5.99,3.7-4.97,4.98s-.06,.06-.09,.09l-5.46,4.61-5.68,4.34-4.64,5.22-4.31,5.67-4.16,5.78-4.42,5.58-3.42,6.16-3.64,6.21-3.4,6.26-3.19,6.26-2.17,6.73-2.39,6.71-1.53,6.92-1.88,6.97-1.52,6.92-1.19,6.98-1.37,7.06-.92,7.01-.47,7.05s0,.07-.01,.11l-1,7.01-.05,7.07c0,.06,0,.12-.01,.17l-.88,7.08-.24,7.03,.52,7.13c0,.06,0,.11,0,.17l-.29,7.15,.33,7.02,1.48,7c.02,.1,.03,.2,.03,.3l.07,7.22,.41,7.03,1.41,6.98,1.01,7.1,2.13,6.79c.02,.08,.04,.16,.05,.24l.99,7.06,1.93,6.84,2.29,6.75,2.58,6.66,2.23,6.86,3.17,6.37,3.43,6.29,3.69,6.14,3.94,5.88,4.55,5.43,5.02,5.1,4.9,5.32,4.58,5.56,5.34,4.56,5.83,4.15s.06,.04,.09,.07l5.47,4.53,6.12,3.6s.06,.04,.09,.06l5.83,4,6.56,2.71c.07,.03,.14,.06,.2,.1l6.12,3.7,6.38,3.09,6.66,2.62,6.61,2.81,13.65,4.46,6.78,2.32,6.94,1.7,7.01,1.57,7.03,1.45,6.99,1.54,7.08,.96s.07,.01,.11,.02l7.04,1.49,7.02,1.67,6.95,1.17,7.14,.15c.06,0,.11,0,.17,.01l7.14,.94,7.03,1.36,7.08-.22c.12,0,.24,0,.35,.03l7.01,1.46,7,.43,7.15-.46s.1,0,.14,0l7.2,.23s.09,0,.13,0l7.07,.84,7.11-.13c.06,0,.12,0,.18,0l7.1,.7,7.12-.22s.03,0,.05,0Z"/>
        </g>
      </g>
      <g class="cls-4">
        <polygon class="cls-1" points="215.16 324.17 215.03 327.76 214.86 331.34 213.49 334.84 214.69 338.52 213.29 341.98 213.55 345.62 213.22 349.19 212.54 352.72 210.77 356.02 211.42 359.83 209.97 363.17 208.69 366.53 206.93 369.72 205.84 373.1 205.66 376.86 204.51 380.29 202.72 383.42 200.5 386.3 198.52 389.27 196.29 392.05 194.27 394.95 192.69 398.27 190.28 400.96 186.88 402.48 184.66 405.52 181.06 406.41 177.83 407.84 174.5 409.36 170.86 408.48 167.2 409.52 163.75 408.28 160.46 406.83 157.22 405.25 154.37 403.06 151.42 400.96 149.37 397.95 146.37 395.78 145 392.32 142.29 389.81 140.74 386.55 139.62 383.1 137.68 380.06 136.31 376.75 135.63 373.18 134.28 369.88 133.5 366.39 131.66 363.2 131.84 359.48 129.79 356.27 129.58 352.66 129.45 349.06 128.38 345.6 128.51 341.99 127.9 338.46 126.76 334.95 127.73 331.31 126.96 327.75 127.52 324.17 127.04 320.59 126.67 316.99 127.71 313.46 127.41 309.85 128.35 306.34 127.78 302.67 129.71 299.33 130.11 295.79 131.05 292.34 131.72 288.84 131.67 285.14 132.14 281.54 134.8 278.62 135.32 275.03 136.26 271.55 137.86 268.34 139.71 265.27 141.07 261.95 142.92 258.9 145.16 256.1 146.83 252.9 149.19 250.2 151.21 247.13 154.03 244.83 157.45 243.43 160.85 242.32 163.58 239.5 167.27 239.25 170.86 240.04 174.46 239.24 177.98 240.05 181.09 241.89 184.57 242.99 187.02 245.71 190.18 247.51 192.14 250.59 194.24 253.43 197.21 255.68 199.12 258.72 201.24 261.65 202.32 265.14 203.7 268.44 204.78 271.85 206.8 274.89 207.64 278.39 208.87 281.75 209.24 285.35 211.26 288.53 211.88 292.07 211.49 295.8 213.22 299.13 212.52 302.84 213.35 306.33 213.63 309.9 213.98 313.45 215.29 316.97 214.61 320.59 215.16 324.17"/>
      </g>
      <g class="cls-5">
        <polygon class="cls-1" points="167.3 406.61 167.05 410.28 166.29 413.91 166.64 417.6 165.66 421.18 164.82 424.75 164.93 428.47 164.5 432.13 163.51 435.67 162.3 439.14 161.74 442.81 159.59 445.92 158.55 449.44 156.98 452.74 155.59 456.15 153.79 459.37 151.22 462.05 148.51 464.51 146.09 467.24 143.45 469.87 140 471.27 136.37 471.81 132.81 472.11 129.05 472.8 125.47 471.64 122.52 469.3 119.58 467.17 117.14 464.47 114.32 462.11 112.28 459.06 110.42 455.92 108.65 452.73 107.42 449.28 105.04 446.3 104.32 442.66 103.83 438.99 102.7 435.52 100.94 432.17 100.53 428.51 100.55 424.8 100.11 421.18 99.17 417.6 99.7 413.9 99.22 410.26 98.85 406.61 98.53 402.94 99.56 399.32 99.34 395.64 99.5 391.98 100.43 388.4 100.38 384.68 101.44 381.15 102.65 377.68 102.81 373.92 104.36 370.57 105.9 367.24 107.49 363.96 108.15 360.22 109.95 357.01 112.24 354.11 113.93 350.78 116.67 348.27 119.24 345.62 122.64 344.08 125.93 342.67 129.13 340.76 132.81 340.31 136.48 340.89 140.16 341.57 143.29 343.62 145.89 346.24 149.01 348.24 151.2 351.19 153.61 353.97 155.25 357.27 157.65 360.14 158.61 363.76 160.33 367.01 161.67 370.44 162.57 374 163.01 377.67 163.68 381.26 165.3 384.67 165.77 388.31 165.34 392.05 166.72 395.59 166.05 399.31 166.08 402.96 167.3 406.61"/>
      </g>
    </g>
  </g>
</svg>