<?xml version="1.0" encoding="UTF-8"?><svg id="_レイヤー_2" xmlns="http://www.w3.org/2000/svg" width="627" height="3" viewBox="0 0 627 3"><defs><style>.cls-1{fill:#231815;stroke-width:0px;}</style></defs><g id="_レイヤー_1-2"><path class="cls-1" d="M624,1.5c0-.83.67-1.5,1.5-1.5h0c.83,0,1.5.67,1.5,1.5h0c0,.83-.67,1.5-1.5,1.5h0c-.83,0-1.5-.67-1.5-1.5ZM616,1.5c0-.83.67-1.5,1.5-1.5h0c.83,0,1.5.67,1.5,1.5h0c0,.83-.67,1.5-1.5,1.5h0c-.83,0-1.5-.67-1.5-1.5ZM608,1.5c0-.83.67-1.5,1.5-1.5h0c.83,0,1.5.67,1.5,1.5h0c0,.83-.67,1.5-1.5,1.5h0c-.83,0-1.5-.67-1.5-1.5ZM600,1.5c0-.83.67-1.5,1.5-1.5h0c.83,0,1.5.67,1.5,1.5h0c0,.83-.67,1.5-1.5,1.5h0c-.83,0-1.5-.67-1.5-1.5ZM592,1.5c0-.83.67-1.5,1.5-1.5h0c.83,0,1.5.67,1.5,1.5h0c0,.83-.67,1.5-1.5,1.5h0c-.83,0-1.5-.67-1.5-1.5ZM584,1.5c0-.83.67-1.5,1.5-1.5h0c.83,0,1.5.67,1.5,1.5h0c0,.83-.67,1.5-1.5,1.5h0c-.83,0-1.5-.67-1.5-1.5ZM576,1.5c0-.83.67-1.5,1.5-1.5h0c.83,0,1.5.67,1.5,1.5h0c0,.83-.67,1.5-1.5,1.5h0c-.83,0-1.5-.67-1.5-1.5ZM568,1.5c0-.83.67-1.5,1.5-1.5h0c.83,0,1.5.67,1.5,1.5h0c0,.83-.67,1.5-1.5,1.5h0c-.83,0-1.5-.67-1.5-1.5ZM560,1.5c0-.83.67-1.5,1.5-1.5h0c.83,0,1.5.67,1.5,1.5h0c0,.83-.67,1.5-1.5,1.5h0c-.83,0-1.5-.67-1.5-1.5ZM552,1.5c0-.83.67-1.5,1.5-1.5h0c.83,0,1.5.67,1.5,1.5h0c0,.83-.67,1.5-1.5,1.5h0c-.83,0-1.5-.67-1.5-1.5ZM544,1.5c0-.83.67-1.5,1.5-1.5h0c.83,0,1.5.67,1.5,1.5h0c0,.83-.67,1.5-1.5,1.5h0c-.83,0-1.5-.67-1.5-1.5ZM536,1.5c0-.83.67-1.5,1.5-1.5h0c.83,0,1.5.67,1.5,1.5h0c0,.83-.67,1.5-1.5,1.5h0c-.83,0-1.5-.67-1.5-1.5ZM528,1.5c0-.83.67-1.5,1.5-1.5h0c.83,0,1.5.67,1.5,1.5h0c0,.83-.67,1.5-1.5,1.5h0c-.83,0-1.5-.67-1.5-1.5ZM520,1.5c0-.83.67-1.5,1.5-1.5h0c.83,0,1.5.67,1.5,1.5h0c0,.83-.67,1.5-1.5,1.5h0c-.83,0-1.5-.67-1.5-1.5ZM512,1.5c0-.83.67-1.5,1.5-1.5h0c.83,0,1.5.67,1.5,1.5h0c0,.83-.67,1.5-1.5,1.5h0c-.83,0-1.5-.67-1.5-1.5ZM504,1.5c0-.83.67-1.5,1.5-1.5h0c.83,0,1.5.67,1.5,1.5h0c0,.83-.67,1.5-1.5,1.5h0c-.83,0-1.5-.67-1.5-1.5ZM496,1.5c0-.83.67-1.5,1.5-1.5h0c.83,0,1.5.67,1.5,1.5h0c0,.83-.67,1.5-1.5,1.5h0c-.83,0-1.5-.67-1.5-1.5ZM488,1.5c0-.83.67-1.5,1.5-1.5h0c.83,0,1.5.67,1.5,1.5h0c0,.83-.67,1.5-1.5,1.5h0c-.83,0-1.5-.67-1.5-1.5ZM480,1.5c0-.83.67-1.5,1.5-1.5h0c.83,0,1.5.67,1.5,1.5h0c0,.83-.67,1.5-1.5,1.5h0c-.83,0-1.5-.67-1.5-1.5ZM472,1.5c0-.83.67-1.5,1.5-1.5h0c.83,0,1.5.67,1.5,1.5h0c0,.83-.67,1.5-1.5,1.5h0c-.83,0-1.5-.67-1.5-1.5ZM464,1.5c0-.83.67-1.5,1.5-1.5h0c.83,0,1.5.67,1.5,1.5h0c0,.83-.67,1.5-1.5,1.5h0c-.83,0-1.5-.67-1.5-1.5ZM456,1.5c0-.83.67-1.5,1.5-1.5h0c.83,0,1.5.67,1.5,1.5h0c0,.83-.67,1.5-1.5,1.5h0c-.83,0-1.5-.67-1.5-1.5ZM448,1.5c0-.83.67-1.5,1.5-1.5h0c.83,0,1.5.67,1.5,1.5h0c0,.83-.67,1.5-1.5,1.5h0c-.83,0-1.5-.67-1.5-1.5ZM440,1.5c0-.83.67-1.5,1.5-1.5h0c.83,0,1.5.67,1.5,1.5h0c0,.83-.67,1.5-1.5,1.5h0c-.83,0-1.5-.67-1.5-1.5ZM432,1.5c0-.83.67-1.5,1.5-1.5h0c.83,0,1.5.67,1.5,1.5h0c0,.83-.67,1.5-1.5,1.5h0c-.83,0-1.5-.67-1.5-1.5ZM424,1.5c0-.83.67-1.5,1.5-1.5h0c.83,0,1.5.67,1.5,1.5h0c0,.83-.67,1.5-1.5,1.5h0c-.83,0-1.5-.67-1.5-1.5ZM416,1.5c0-.83.67-1.5,1.5-1.5h0c.83,0,1.5.67,1.5,1.5h0c0,.83-.67,1.5-1.5,1.5h0c-.83,0-1.5-.67-1.5-1.5ZM408,1.5c0-.83.67-1.5,1.5-1.5h0c.83,0,1.5.67,1.5,1.5h0c0,.83-.67,1.5-1.5,1.5h0c-.83,0-1.5-.67-1.5-1.5ZM400,1.5c0-.83.67-1.5,1.5-1.5h0c.83,0,1.5.67,1.5,1.5h0c0,.83-.67,1.5-1.5,1.5h0c-.83,0-1.5-.67-1.5-1.5ZM392,1.5c0-.83.67-1.5,1.5-1.5h0c.83,0,1.5.67,1.5,1.5h0c0,.83-.67,1.5-1.5,1.5h0c-.83,0-1.5-.67-1.5-1.5ZM384,1.5c0-.83.67-1.5,1.5-1.5h0c.83,0,1.5.67,1.5,1.5h0c0,.83-.67,1.5-1.5,1.5h0c-.83,0-1.5-.67-1.5-1.5ZM376,1.5c0-.83.67-1.5,1.5-1.5h0c.83,0,1.5.67,1.5,1.5h0c0,.83-.67,1.5-1.5,1.5h0c-.83,0-1.5-.67-1.5-1.5ZM368,1.5c0-.83.67-1.5,1.5-1.5h0c.83,0,1.5.67,1.5,1.5h0c0,.83-.67,1.5-1.5,1.5h0c-.83,0-1.5-.67-1.5-1.5ZM360,1.5c0-.83.67-1.5,1.5-1.5h0c.83,0,1.5.67,1.5,1.5h0c0,.83-.67,1.5-1.5,1.5h0c-.83,0-1.5-.67-1.5-1.5ZM352,1.5c0-.83.67-1.5,1.5-1.5h0c.83,0,1.5.67,1.5,1.5h0c0,.83-.67,1.5-1.5,1.5h0c-.83,0-1.5-.67-1.5-1.5ZM344,1.5c0-.83.67-1.5,1.5-1.5h0c.83,0,1.5.67,1.5,1.5h0c0,.83-.67,1.5-1.5,1.5h0c-.83,0-1.5-.67-1.5-1.5ZM336,1.5c0-.83.67-1.5,1.5-1.5h0c.83,0,1.5.67,1.5,1.5h0c0,.83-.67,1.5-1.5,1.5h0c-.83,0-1.5-.67-1.5-1.5ZM328,1.5c0-.83.67-1.5,1.5-1.5h0c.83,0,1.5.67,1.5,1.5h0c0,.83-.67,1.5-1.5,1.5h0c-.83,0-1.5-.67-1.5-1.5ZM320,1.5c0-.83.67-1.5,1.5-1.5h0c.83,0,1.5.67,1.5,1.5h0c0,.83-.67,1.5-1.5,1.5h0c-.83,0-1.5-.67-1.5-1.5ZM312,1.5c0-.83.67-1.5,1.5-1.5h0c.83,0,1.5.67,1.5,1.5h0c0,.83-.67,1.5-1.5,1.5h0c-.83,0-1.5-.67-1.5-1.5ZM304,1.5c0-.83.67-1.5,1.5-1.5h0c.83,0,1.5.67,1.5,1.5h0c0,.83-.67,1.5-1.5,1.5h0c-.83,0-1.5-.67-1.5-1.5ZM296,1.5c0-.83.67-1.5,1.5-1.5h0c.83,0,1.5.67,1.5,1.5h0c0,.83-.67,1.5-1.5,1.5h0c-.83,0-1.5-.67-1.5-1.5ZM288,1.5c0-.83.67-1.5,1.5-1.5h0c.83,0,1.5.67,1.5,1.5h0c0,.83-.67,1.5-1.5,1.5h0c-.83,0-1.5-.67-1.5-1.5ZM280,1.5c0-.83.67-1.5,1.5-1.5h0c.83,0,1.5.67,1.5,1.5h0c0,.83-.67,1.5-1.5,1.5h0c-.83,0-1.5-.67-1.5-1.5ZM272,1.5c0-.83.67-1.5,1.5-1.5h0c.83,0,1.5.67,1.5,1.5h0c0,.83-.67,1.5-1.5,1.5h0c-.83,0-1.5-.67-1.5-1.5ZM264,1.5c0-.83.67-1.5,1.5-1.5h0c.83,0,1.5.67,1.5,1.5h0c0,.83-.67,1.5-1.5,1.5h0c-.83,0-1.5-.67-1.5-1.5ZM256,1.5c0-.83.67-1.5,1.5-1.5h0c.83,0,1.5.67,1.5,1.5h0c0,.83-.67,1.5-1.5,1.5h0c-.83,0-1.5-.67-1.5-1.5ZM248,1.5c0-.83.67-1.5,1.5-1.5h0c.83,0,1.5.67,1.5,1.5h0c0,.83-.67,1.5-1.5,1.5h0c-.83,0-1.5-.67-1.5-1.5ZM240,1.5c0-.83.67-1.5,1.5-1.5h0c.83,0,1.5.67,1.5,1.5h0c0,.83-.67,1.5-1.5,1.5h0c-.83,0-1.5-.67-1.5-1.5ZM232,1.5c0-.83.67-1.5,1.5-1.5h0c.83,0,1.5.67,1.5,1.5h0c0,.83-.67,1.5-1.5,1.5h0c-.83,0-1.5-.67-1.5-1.5ZM224,1.5c0-.83.67-1.5,1.5-1.5h0c.83,0,1.5.67,1.5,1.5h0c0,.83-.67,1.5-1.5,1.5h0c-.83,0-1.5-.67-1.5-1.5ZM216,1.5c0-.83.67-1.5,1.5-1.5h0c.83,0,1.5.67,1.5,1.5h0c0,.83-.67,1.5-1.5,1.5h0c-.83,0-1.5-.67-1.5-1.5ZM208,1.5c0-.83.67-1.5,1.5-1.5h0c.83,0,1.5.67,1.5,1.5h0c0,.83-.67,1.5-1.5,1.5h0c-.83,0-1.5-.67-1.5-1.5ZM200,1.5c0-.83.67-1.5,1.5-1.5h0c.83,0,1.5.67,1.5,1.5h0c0,.83-.67,1.5-1.5,1.5h0c-.83,0-1.5-.67-1.5-1.5ZM192,1.5c0-.83.67-1.5,1.5-1.5h0c.83,0,1.5.67,1.5,1.5h0c0,.83-.67,1.5-1.5,1.5h0c-.83,0-1.5-.67-1.5-1.5ZM184,1.5c0-.83.67-1.5,1.5-1.5h0c.83,0,1.5.67,1.5,1.5h0c0,.83-.67,1.5-1.5,1.5h0c-.83,0-1.5-.67-1.5-1.5ZM176,1.5c0-.83.67-1.5,1.5-1.5h0c.83,0,1.5.67,1.5,1.5h0c0,.83-.67,1.5-1.5,1.5h0c-.83,0-1.5-.67-1.5-1.5ZM168,1.5c0-.83.67-1.5,1.5-1.5h0c.83,0,1.5.67,1.5,1.5h0c0,.83-.67,1.5-1.5,1.5h0c-.83,0-1.5-.67-1.5-1.5ZM160,1.5c0-.83.67-1.5,1.5-1.5h0c.83,0,1.5.67,1.5,1.5h0c0,.83-.67,1.5-1.5,1.5h0c-.83,0-1.5-.67-1.5-1.5ZM152,1.5c0-.83.67-1.5,1.5-1.5h0c.83,0,1.5.67,1.5,1.5h0c0,.83-.67,1.5-1.5,1.5h0c-.83,0-1.5-.67-1.5-1.5ZM144,1.5c0-.83.67-1.5,1.5-1.5h0c.83,0,1.5.67,1.5,1.5h0c0,.83-.67,1.5-1.5,1.5h0c-.83,0-1.5-.67-1.5-1.5ZM136,1.5c0-.83.67-1.5,1.5-1.5h0c.83,0,1.5.67,1.5,1.5h0c0,.83-.67,1.5-1.5,1.5h0c-.83,0-1.5-.67-1.5-1.5ZM128,1.5c0-.83.67-1.5,1.5-1.5h0c.83,0,1.5.67,1.5,1.5h0c0,.83-.67,1.5-1.5,1.5h0c-.83,0-1.5-.67-1.5-1.5ZM120,1.5c0-.83.67-1.5,1.5-1.5h0c.83,0,1.5.67,1.5,1.5h0c0,.83-.67,1.5-1.5,1.5h0c-.83,0-1.5-.67-1.5-1.5ZM112,1.5c0-.83.67-1.5,1.5-1.5h0c.83,0,1.5.67,1.5,1.5h0c0,.83-.67,1.5-1.5,1.5h0c-.83,0-1.5-.67-1.5-1.5ZM104,1.5c0-.83.67-1.5,1.5-1.5h0c.83,0,1.5.67,1.5,1.5h0c0,.83-.67,1.5-1.5,1.5h0c-.83,0-1.5-.67-1.5-1.5ZM96,1.5c0-.83.67-1.5,1.5-1.5h0c.83,0,1.5.67,1.5,1.5h0c0,.83-.67,1.5-1.5,1.5h0c-.83,0-1.5-.67-1.5-1.5ZM88,1.5c0-.83.67-1.5,1.5-1.5h0c.83,0,1.5.67,1.5,1.5h0c0,.83-.67,1.5-1.5,1.5h0c-.83,0-1.5-.67-1.5-1.5ZM80,1.5c0-.83.67-1.5,1.5-1.5h0c.83,0,1.5.67,1.5,1.5h0c0,.83-.67,1.5-1.5,1.5h0c-.83,0-1.5-.67-1.5-1.5ZM72,1.5c0-.83.67-1.5,1.5-1.5h0c.83,0,1.5.67,1.5,1.5h0c0,.83-.67,1.5-1.5,1.5h0c-.83,0-1.5-.67-1.5-1.5ZM64,1.5c0-.83.67-1.5,1.5-1.5h0c.83,0,1.5.67,1.5,1.5h0c0,.83-.67,1.5-1.5,1.5h0c-.83,0-1.5-.67-1.5-1.5ZM56,1.5c0-.83.67-1.5,1.5-1.5h0c.83,0,1.5.67,1.5,1.5h0c0,.83-.67,1.5-1.5,1.5h0c-.83,0-1.5-.67-1.5-1.5ZM48,1.5c0-.83.67-1.5,1.5-1.5h0c.83,0,1.5.67,1.5,1.5h0c0,.83-.67,1.5-1.5,1.5h0c-.83,0-1.5-.67-1.5-1.5ZM40,1.5c0-.83.67-1.5,1.5-1.5h0c.83,0,1.5.67,1.5,1.5h0c0,.83-.67,1.5-1.5,1.5h0c-.83,0-1.5-.67-1.5-1.5ZM32,1.5c0-.83.67-1.5,1.5-1.5h0c.83,0,1.5.67,1.5,1.5h0c0,.83-.67,1.5-1.5,1.5h0c-.83,0-1.5-.67-1.5-1.5ZM24,1.5c0-.83.67-1.5,1.5-1.5h0c.83,0,1.5.67,1.5,1.5h0c0,.83-.67,1.5-1.5,1.5h0c-.83,0-1.5-.67-1.5-1.5ZM16,1.5c0-.83.67-1.5,1.5-1.5h0c.83,0,1.5.67,1.5,1.5h0c0,.83-.67,1.5-1.5,1.5h0c-.83,0-1.5-.67-1.5-1.5ZM8,1.5c0-.83.67-1.5,1.5-1.5h0c.83,0,1.5.67,1.5,1.5h0c0,.83-.67,1.5-1.5,1.5h0c-.83,0-1.5-.67-1.5-1.5ZM0,1.5C0,.67.67,0,1.5,0h0c.83,0,1.5.67,1.5,1.5h0c0,.83-.67,1.5-1.5,1.5h0c-.83,0-1.5-.67-1.5-1.5Z"/></g></svg>