<?xml version="1.0" encoding="UTF-8"?><svg id="_レイヤー_2" xmlns="http://www.w3.org/2000/svg" width="195.73" height="225.23" viewBox="0 0 195.73 225.23"><defs><style>.cls-1{fill:#0f4877;}.cls-1,.cls-2,.cls-3,.cls-4,.cls-5,.cls-6,.cls-7,.cls-8,.cls-9,.cls-10,.cls-11,.cls-12,.cls-13,.cls-14,.cls-15,.cls-16,.cls-17,.cls-18,.cls-19,.cls-20,.cls-21,.cls-22,.cls-23,.cls-24,.cls-25{stroke-width:0px;}.cls-2{fill:#231815;}.cls-3{fill:#f5f5f5;}.cls-4{fill:#fdfdfd;}.cls-5{fill:#f8f8f8;}.cls-6{fill:#1d1d1d;}.cls-7{fill:#dd8e97;}.cls-8{fill:#faa2ad;}.cls-9{fill:#060606;}.cls-10{fill:#f4f4f4;}.cls-11{fill:#847d7d;}.cls-12{fill:#157acc;}.cls-13{fill:#f03c3c;}.cls-14{fill:#f2f2f2;}.cls-15{fill:#ef9aa4;}.cls-16{fill:#e1ae16;}.cls-17{fill:#167ed2;}.cls-18{fill:#99440f;}.cls-19{fill:#813d22;}.cls-20{fill:#f9f9f9;}.cls-21{fill:#994729;}.cls-22{fill:#efefef;}.cls-23{fill:#dadada;}.cls-24{fill:#e7e7e7;}.cls-25{fill:#f7f7f7;}</style></defs><g id="_レイヤー_1-2"><path class="cls-2" d="M45.58,151.41c-.23-1.33-.5-2.65-.68-3.99-.07-.57,0-1.18.1-1.75.2-1.19.47-2.37.71-3.55-4.25-.9-7.1-5.59-6.23-11.35,1.81-2.01,4.28-3.43,7.13-4.23,1.63-.46,1.94-.72,1.95-2.58.02-7.19.06-14.39-.03-21.58-.02-1.69-.52-3.38-.79-5.06-.27-1.7.53-3.5-.51-5.16-.17-.27.2-.85.21-1.29.09-4.64.16-9.28.24-13.92-1.05-1.04-.7-2.38-.63-3.57.13-2.08.1-4.3.87-6.16.64-1.52.46-2.91.61-4.37.44-4.24,1.13-8.42,3.06-12.29.22-.43.64-.76.92-1.09,5.66-.6,11.22-1.3,16.85-.94.34.02.7-.16.96-.22-2.2-2.57-4.44-5.09-6.55-7.7-.75-.93-1.17-2.14-1.79-3.18-.5-.84-.97-1.74-1.65-2.43-2.31-2.36-3.64-5.16-4.3-8.38-.36-1.76-.84-3.62-1.76-5.13-2.09-3.41-1.06-6.59.33-9.75,1.12-2.55,2.48-5,3.85-7.43.32-.57,1.09-.96,1.73-1.27,3.88-1.9,7.91-3.24,12.32-3.01.38.02.82-.11,1.13.05,2.92,1.52,6.03,2.79,8.65,4.72,3.19,2.36,6.11,5.15,8.87,8.02,3.21,3.35,5.15,7.35,5.06,12.18-.09,4.67-.07,9.34.01,14.01.03,1.58-.21,3.15.63,4.76.42.81-.42,2.29-.7,3.52,2.58,2.3,5.5,3.24,8.91,2.61,1.28-2-.22-3.83-.59-5.64-.41-1.97-.55-3.88-.61-5.85-.05-1.58.05-3.12-.52-4.77-.5-1.43-.04-3.47.63-4.95.62-1.37.72-2.67.6-3.99-.24-2.59.45-4.92,1.81-7.01,1.93-2.96,3.17-6.41,5.8-8.85,4.6-4.26,9.83-6.07,16.26-4.51,4.04.98,7.37,3.06,10.78,5.1,2.45,1.46,3.3,4.16,3.97,6.82.44,1.76.9,3.51,1.35,5.27.06.23.22.51.15.69-1.38,3.39.03,7.18-1.49,10.51-1.26,2.75-2.61,5.48-4.13,8.09-1.98,3.42-4.01,6.78-7.01,9.53-1.36,1.25-3.17,2.94-2.33,5.53,4.3.57,8.47,1.67,11.97,4.11.03,2.39-.17,4.29-.65,6.26-1.08,4.42-1.54,8.96-1.64,13.53-.07,3.08-.6,6.16-.73,9.24-.13,3.02-.03,6.04-.03,9.38,1.88,1.08,3.93,2.16,5.87,3.4,1.86,1.19,3.77,2.37,5.36,3.86,2.36,2.22,4.8,4.27,7.53,6.01.94.6,1.75,1.48,2.43,2.37,1.58,2.06,3.37,3.86,5.42,5.49,2.09,1.66,2.96,4.13,3.1,6.9h3.06c.88.83,1.71,1.6,2.33,2.18,2.69.34,5.19.42,7.54,1.06,1.37.38,2.52,1.21,3.05,3.22.84,3.18.21,6.08-.32,9.04-.13.7-.52,1.77-1.73,2.17-.88.29-1.38.34-2.29.05-1.85-.58-3.84-.96-5.77-.93-2.18.03-4.48.24-6.49,1.01-2.55.98-4.58.07-6.55-1.04-.93-.53-1.75-.91-2.76-.81-2.33.24-4.68-.26-7.01.68-1.18.48-2.71.08-4.33.08,0,.7-.21,1.38.03,1.84,2.74,5.26,5.03,10.72,6.95,16.51,1.31-.31,2.46-.61,3.62-.86,2.4-.5,4.75.26,6.94.86,4.28,1.17,8.34,3.12,12.61,4.35,2.98.86,4.99,2.78,6.76,4.96,2.86,3.52,5.77,7.12,7.5,11.33,1.33,3.23,2.7,6.48,3.75,9.82.94,3.02.45,6.28-.67,9.09-1.97,4.97-4.33,9.84-8.19,13.72-2.27,2.28-5.09,3.73-8.06,4.92-1.81.72-3.57,1.58-5.3,2.47-3.53,1.82-7.28,2.5-11.22,2.92-6.04.66-11.41-1.34-16.8-3.39-6.8-2.58-11.86-7.34-16.38-12.95-2.35-2.92-3.13-6.28-4.23-9.57-.72-2.16-.84-4.52-1.52-6.74-.2-.64.12-1.44.24-2.16.12-.72.41-1.44.41-2.15,0-3.36,1.28-6.3,2.93-9.23-1.3-.3-2.31-.01-3.46.73-4.34,2.79-9.04,4.72-14.37,5.28-1.07,2.86-2.17,5.8-3.31,8.84.98,1.68,2.02,3.46,2.98,5.1-.29,1.32-.55,2.5-.81,3.66,2.25,1.09,3.96,2.57,3.82,5.04-.14,2.5-.05,5.27-2.64,6.8-4.63,0-9.18.02-13.72,0-3.65-.03-5.86-2.1-6.19-5.86-.12-1.38-.02-2.77-.02-4.19-1.94-2.05-3.91-4.13-6.17-6.52-4.1.24-8.32-1.28-12.57-3.21-.47,4.38-1.33,8.49-3.56,11.98-2.83,4.41-5.72,8.99-11.47,10.25-.58.13-1.15.43-1.64.78-4.08,2.9-8.93,3.96-13.62,4.92-3.29.68-6.85.56-10.35-.43-3.96-1.12-8.14-1.47-11.67-3.89-1.96-1.34-4.09-2.39-5.77-4.2-1.13-1.21-2.85-1.83-4.13-2.92-3.75-3.19-5.87-7.44-7.45-12-.24-.68-.29-1.45-.29-2.18-.01-4.67-.04-9.34.06-14.01.03-1.45.1-3.08.78-4.28,1.4-2.48,1.95-5.22,2.95-7.81.09-.22.01-.53.14-.7,3.28-4.32,5.69-9.33,9.87-12.92,1.91-1.64,3.99-2.93,6.7-3.53,3.39-.75,6.75-1.89,10.07-2.98,3.35-1.09,6.48-1.21,9.79-.11,1.61.53,3.33.72,5.01,1.06l.81.75c.31.92.78.94,1.54.26-.57-.43-1.04-.78-1.51-1.13-.23.05-.44.02-.65-.07ZM156.88,181.82l.73.78c-.02,2.61.61,4.96,2.75,7.36.7-3.53-.81-5.53-2.74-7.37.01-.25.01-.5,0-.75-.25-.25-.51-.5-.76-.76-.18-.82-.26-1.68-.57-2.45-1.25-3.1-2.97-6.08-3.75-9.29-.63-2.6-1.61-5.05-2.6-7.45-1.73-4.19-3.39-8.42-5.22-12.57-1.01-2.29-2.03-4.57-3.07-6.93-1.42.08-2.58.15-3.86.23.54,1.47.86,2.62,1.36,3.7,2.22,4.78,4.54,9.51,6.73,14.31,1.84,4.03,3.65,8.07,5.87,11.92,1.31,2.29,2.37,4.73,3.62,7.05.32.59.98.99,1.48,1.47-.01.25,0,.5.02.75ZM97.76,53.82c-.09-.21-.19-.41-.28-.62-.11.11-.22.22-.34.32.21.1.41.2.62.29-.24,1.55.54,2.7,1.34,4.1,1-.81,1.73-1.41,2.26-1.85,1.8.16,1.49,3.49,3.86,1.96-.27-3.01-1.16-4.06-3.67-4.2-1.26-.07-2.52-.02-3.78-.02ZM37.2,215.04c-.26-1.43-.66-2.86-.75-4.3-.33-5.07-.56-10.15-.81-15.23-.04-.72,0-1.44,0-2.04-2.01-.95-2.74.5-3.58,1.46-2.93,3.36-5.82,6.75-8.65,10.19-1.58,1.91-3,3.95-4.74,6.27,2.93,1.01,5.38,2.09,7.93,2.67,3.19.73,6.28,2,9.63,1.95.33.67.9.97,1.44.43.54-.54.23-1.1-.46-1.4ZM91.38,50.81c.95-4.57.73-8.7.35-12.83-.07-.81.32-1.66.46-2.49.11-.6.42-1.31.21-1.8-1.23-2.9-.7-5.92-.67-8.87.06-4.8-2.67-8.03-5.8-11.08-.87-.85-2.09-1.36-2.87-2.28-2.47-2.89-5.58-4.74-9.02-6.23-.96-.41-1.82-.63-2.81-.71-2.17-.17-4.04,1.04-5.98,1.35-2.41.39-3.46,1.52-4.36,3.36-.27.54-.52,1.1-.86,1.59-2.24,3.3-3.18,6.71-1.25,10.54.53,1.06.71,2.29,1.09,3.44.99,3.02,1.96,6.03,4.51,8.23.7.6,1.03,1.63,1.51,2.47.54.94.91,2.02,1.61,2.83,2.36,2.74,4.85,5.38,7.25,8.09.96,1.09,1.8,2.29,2.6,3.32-.62,1.84-1.56,3.25-3.27,3.27-3.24.05-6.48-.25-9.71-.4-.45-.02-.91-.11-1.35-.04-2.75.47-5.48.97-8.28,1.48-.95,3.52-1.9,7.06-1.72,10.79.03.59-.21,1.19-.34,1.78-.38,1.78-.93,3.54-1.1,5.33-.17,1.82-.39,3.73.68,5.44-.35,4.46.76,8.98-.68,13.41-.28.87.04,1.97.18,2.95.51,3.39,1.29,6.74,1.2,10.19-.02.92-.42,1.83-.4,2.74.03,1.21.41,2.42.43,3.63.07,3.66.32,7.35-.03,10.97-.36,3.83,1.25,7.23,1.66,10.88.38,3.36,1.42,6.61,3.35,9.48,1.49,2.22,2.92,4.44,3.49,7.15.24,1.15.89,2.33,1.67,3.21,1.28,1.44,1.99,3.13,2.35,4.88.37,1.79,1.44,3.11,2.42,4.44,3.99,5.47,8.16,10.8,12.22,16.22.79,1.06,1.5,2.24,1.97,3.47,1.73,4.49,3.35,9.02,5.01,13.53-.49,2.14,1.03,3.29,2.38,4.34,1.71,1.33,3.29,3.09,5.57,3.32,2.25.23,4.54.13,6.81.01.62-.03,1.43-.54,1.76-1.07.48-.77.27-1.68-.53-2.32-.94-.76-1.67-1.61-3.04-1.99-2.49-.69-3.78-2.24-4.45-4.82-1.5-5.81-4.62-10.66-8.44-15.16-.69-.81-1.18-1.85-1.54-2.86-1.32-3.76-2.91-7.28-6.73-9.24-.66-.34-1.16-.97-1.55-1.31-.64-6.13,1.68-6.44,5.33-8.12.21-.1.52.04.75-.03,2.29-.74,4.69-1.26,6.82-2.33,2.96-1.49,6.1-2.24,9.27-2.98.94-.22,1.86-.67,2.79-.67.93,0,1.9.34,2.78.71.64.27,1.23.76,1.7,1.28.47.52.76,1.2.97,1.54h8.9c-.02-.43.03-.7-.06-.92-1.01-2.57-.83-2.9,1.68-3.46.79-.18,1.52-.6,2.53-1.01-.59-.3-.81-.51-1.02-.51-2.86.08-5.77.4-7.95-2.13-.18-.21-.71-.08-1.05-.2-2.65-.88-5.39-.76-8.1-.65-2.38.1-4.72-.13-6.95-.86-.96-.31-2.26-1.18-2.45-2.02-.84-3.63-1.45-7.35,1.22-10.4-2-1.03-4.29-1.66-5.77-3.11-2.52-2.49-5.4-4.19-8.54-5.65-2.94-1.37-5.49-3.34-7.6-5.82-.91-1.07-.92-2.5-.13-3.37.91-1,1.91-.99,3.16.41,2.26,2.56,5.12,4.28,8.12,5.68,2.62,1.22,4.93,2.67,6.94,4.75.9.93,2.17,1.95,3.36,2.07,2.58.26,4.52,1.75,6.66,2.82,2.58,1.29,5.02,2.89,7.51,4.37,2.25,1.33,4.27,2.77,4.98,5.6.37,1.47,1.47,2.75,2.18,3.99,1.69,0,3.09.12,4.47-.03,2.24-.24,3.38-1.25,3.68-3.71.13-1.12.02-2.26.02-3.33-1.09-1.7-2.53-2.41-4.5-2.1-.86.14-1.79-.08-2.64.08-3.41.61-5.93-1.13-8.39-3.05-.4-.31-.69-.75-1.08-1.06-2.98-2.28-5.4-5.39-9.53-5.91-.87-.11-1.68-.96-2.46-1.56-1.48-1.13-2.77-2.59-4.39-3.41-2.62-1.34-4.67-3.26-6.61-5.35-2.3-2.47-4.82-4.6-8.2-5.72,0-.69-.1-1.33.02-1.92.24-1.13,1.11-1.91,2.16-1.5,1.78.7,3.75.94,5.24,2.39,2.32,2.26,4.7,4.48,7.24,6.49,3.62,2.87,7.03,6.1,11.54,7.65,2.86.99,5.04,3.03,7.17,5.05,2.34,2.21,4.73,3.91,8.22,3.37,1.7-.26,3.48-.05,5.51-.05.24-.9.58-1.68.63-2.48.22-4.3-.66-8.72,1.51-12.79.11-.2.06-.51.01-.75-.38-1.83.82-2.75,1.99-3.59,2.46-.22,4.58.57,6.84,1.3,6.2,2,10.71,4.34,14.87,8.22,2.43,2.27,5.25,4.12,7.68,6.39,3.08,2.87,6,5.93,5.76,10.64-.1,1.85.45,3.4,2.03,4.42,2.96.07,5.79-.03,7.82-2.71,0-.44,0-.94,0-1.43-.04-3.68-.87-5.18-4.39-5.55-2.4-.26-3.47-1.57-4.76-2.93,1.18-2.8,1.06-3.09-1.14-4.99-1.24-1.07-2.64-2.11-3.46-3.48-1.46-2.44-3.61-3.97-5.9-5.43-.51-.33-1.04-.66-1.48-1.08-3.22-3.06-6.63-5.86-10.56-7.98-1.6-.86-3.15-1.81-4.74-2.69-1.3-.72-2.46-3.11-2.1-4.51.15-.58.62-1.12.64-1.68.06-2.9-.09-5.81.03-8.71.13-2.95.49-5.9.77-8.85.14-1.45-.5-3.03.69-4.32-.45-3.64.7-7.04,1.54-10.49.08-.32-.08-.69-.13-.98-2.18-.76-4.15-1.53-6.39-1.81-5.39-.68-7.09-6.29-4.38-9.78,1.06-1.37,2-2.86,3.24-4.05,2.08-2,3.8-4.16,4.78-6.91.32-.9,1.06-1.63,1.55-2.48,2.07-3.62,3.94-7.18,3.79-11.67-.09-2.61.39-5.15-.85-7.64-.35-.69-.05-1.71-.05-2.25-2.32-3.2-5.3-4.92-8.47-6.37-3.05-1.4-6.39-1.62-9.43-.77-3.13.87-6.03,2.68-7.61,5.91-.74,1.52-1.68,2.95-2.55,4.4-1.03,1.71-1.76,3.47-1.57,5.56.08.94-.25,1.92-.42,2.88-.34,1.91-1.35,4-.89,5.69.75,2.75.39,5.43.61,8.14.05.61-.04,1.32.25,1.81,1.54,2.62,1.15,5.49,1.29,8.31.09,1.89-.47,3.12-2.45,3.64.16,1.15.21,2.28.47,3.34.61,2.43-.63,4.01-2.71,2.96-2.45-1.24-4.73-1.4-7.23-.68-.2.06-.46-.11-.91-.23-.5-1.6-.98-3.34-1.6-5.02-.69-1.89-.98-4.14-4.1-4.54ZM48.55,181.51c.99.38,1.77.66,2.54.97,3,1.21,5.94,2.62,9.01,3.58,1.81.57,3.11,2.28,4.79,2.42,2.47.2,4.24,1.7,6.38,2.44,3.39,1.17,6.64,3.03,10.4,2.1-1.24-7.88-5.53-14.13-10.49-20.45-2.03.39-4.42.82-6.78,1.32-2.83.6-5.62,1.59-8.48,1.79-2.63.18-5,.81-7.37,1.94v3.89ZM129.22,114.44c-1.84,2.55-.93,5.39-1.17,8.06-.25,2.78-.47,5.55-.7,8.24,4.75,1.26,9.35,1.41,13.92,1.08,4.48-.32,8.93-1.03,13.56-1.59-1.24-2.03-1.28-1.97-2.56-2.96-2.05-1.6-4.02-3.29-6.02-4.94-1.43-1.18-2.72-2.59-4.31-3.49-3.89-2.2-7.62-5-12.72-4.4ZM40.3,216.09c7.58-2.27,7.96-2.46,12.99-6.44-1.04-3.36-3.48-6.01-5.25-9.03-1.77-3.02-3.52-6.06-5.36-9.22-1.71.47-3.22.88-4.86,1.33.29,5.85.47,11.57.93,17.28.16,1.99.99,3.94,1.56,6.07ZM128.95,194.34c.11,4.63,2.23,9.41,5.51,12.4,1.32,1.2,1.49,1.18,3.15.06,4.37-2.94,8.15-6.78,13.03-8.53v-5.16c-2.25.34-4.3.27-6.4.59-2.85.43-5.91.59-8.91-.25-2.09-.59-4.43-.68-6.38.88ZM133.11,179.37c-1.16,3.33-2.27,6.4-3.29,9.49-.21.62-.12,1.34-.15,1.76,7.4,1.39,14.51,1.07,21.71-.01.28-.67.62-1.44.91-2.23.08-.22.01-.5.01-.83-5.95-3.79-12.24-6.76-19.2-8.18ZM141.9,166.37c-2.84-1.22-5.34-.09-7.78.39-3.63.71-7.36,1.2-10.8,2.72-2.94,1.3-5.89,2.79-9.08,3.17-2.35.28-4.43,1.04-6.82,1.99.38,2.13.76,4.26,1.09,6.09,4.12-.74,7.91-2.1,11.55-4.03,3.47-1.84,7.21-3.17,10.77-4.84,3.67-1.73,7.28-3.6,11.08-5.49ZM100.81,193.15c2.06-4.25,3.51-8,3.66-12.09.06-1.51-.42-3.13-1.55-4.32-3.61-3.84-7.97-5.86-13.6-5.41.22,3.23,3.25,4.37,4.35,6.75,1.16,2.51,2.83,4.78,4.04,7.27,1.11,2.3,1.91,4.75,3.1,7.8ZM27.45,188.79c-.09-.28-.17-.57-.26-.85-1.1,0-2.31-.29-3.29.05-3.3,1.14-6.67.62-10.01.7-2.22.06-4.42.03-6.59.68-1.68.5-2.07.77-1.96,2.53.21,3.34,1.48,6.16,4.48,8.24,5.89-3.71,12.16-6.92,17.64-11.35ZM7.73,175.92c-.85,3.76-1.66,7.37-2.48,10.96,3.35-.17,6.41-.61,9.42-.4,4.01.27,7.78-1.12,11.96-.95-.48-1.43-.85-2.54-1.16-3.48-4.69-1.47-9.22-2.75-13.34-5.15-1.27-.74-2.54-1.59-4.41-.98ZM61.34,195.73c-2.64-1.12-5.12-2.47-7.77-3.2-2.73-.76-4.82-3.28-8.1-3.03,0,.84-.24,1.6.04,2.04,3.31,5.4,6.21,11.07,9.98,16.05,4.24-2.93,6.08-6.85,5.85-11.87ZM179.04,175.93c-3.37-3.02-6.31-5.86-10.54-6.95-2.19,5.02-1.79,10.32-1.74,15.49,1.69.66,3.25,1.28,4.9,1.93,2.33-3.57,5.83-6.32,7.38-10.47ZM91.22,157.6c1.87,0,3.75,0,5.62,0,1.14,0,2.41-.35,3.38.05,3.9,1.61,7.96,1.44,12.03,1.46,1.12,0,2.32-.15,3.35.17,3.2.99,6.45,1.33,9.79,1.38,3.2.05,6.52.02,9.56.86,2.27.62,4.35.35,6.51.66.74-2.12-.61-3.52-1.82-3.72-3.72-.62-7.4-2.28-11.2-1.5-1.7.35-3.36.7-5.07.62-4.21-.19-8.41.28-12.66-.6-3.09-.64-6.43.12-9.58-.88-1.03-.33-2.09-.58-3.16-.74-2.55-.37-4.7.91-6.76,2.25ZM137.36,209.99c4.21,2.14,7.87,4,11.74,5.96.52-.94,1.25-1.95,1.65-3.07.86-2.39,1.37-4.92,2.38-7.23.84-1.93.8-3.44-.99-5.1-5.65,1.45-9.53,5.91-14.78,9.44ZM26.41,174.56c-3.16-3.35-6.87-6.48-9.68-10.17-2.07,1.94-3.97,3.78-5.93,5.55-1.07.97-1.15,2.07-.96,2.79,5.2,3.08,10.25,5.36,15.71,6.55.26-1.41.55-2.96.87-4.72ZM28.75,190.91c-5.38,4.38-11.56,7.57-17.55,11.21.89,3.21,2.56,5.75,5.2,7.71,4.51-5.33,8.92-10.52,13.31-15.73,1.04-1.24.96-1.45-.96-3.19ZM133.61,175.86c3.26,2.62,6.96,2.88,10.07,4.45,3.06,1.55,6.15,3.02,9.96,4.89-2.88-5.74-5.36-10.69-8.02-16.01-3.78,2.58-8.4,3.07-12.02,6.66ZM164.57,206.33v13.31c4.93.54,8.05-2.38,11.37-5.32-2.38-3.23-3.75-7.11-6.85-10.05-1.61.73-3.14,1.43-4.52,2.06ZM155.79,205.16c-1.57,4.41-3.01,8.47-4.42,12.41,3.5,2.59,7.09,2.4,10.74,1.89,0-3.75-.02-7.26.01-10.78,0-.9.07-1.95-.87-2.24-1.8-.57-3.68-.87-5.47-1.27ZM35.09,188.61c1.83-.41,4.22-.82,6.51-1.52.86-.26,2.08-1.13,2.16-1.85.33-2.65,1.35-5.32-.18-8.05-.75-1.33-1.72-1.93-3.02-2.16-1.86-.34-7.27.18-8.83.72-1.23.43-2.16,2.43-1.81,3.83.17.7.36,1.43.36,2.14-.02,1.89.82,3.48,1.46,5.18.57,1.51,1.47,1.82,3.35,1.69ZM27.79,158.26c-3.19.09-5.99.72-8.26,2.89-.9.86-.96,1.72-.12,2.6,2.97,3.12,6.04,6.14,9.08,9.07q3.5-1.72,2.62-5.44c-.06-.24.03-.52-.03-.75-.76-2.8-1.47-5.62-3.28-8.37ZM138.33,154.16c-1.62-3.56-2.85-6.34-4.15-9.08-.92-1.94-.96-1.88-3.31-1.36-1.89.42-3.79.73-5.85,1.12.08,2.95-.3,5.56-3.35,6.86-.34.15-.29,1.23-.49,2.25,5.75-.62,11.11-1.86,17.16.21ZM105.62,163.48c-2.82-1.48-5.52-1.44-8.23-1.38-2.59.06-5.07-1.06-7.7-.71-2.63.34-5.18-1.41-8.24-.42.65.77,1.05,1.36,1.57,1.82.73.64,1.91,1.02,2.25,1.8,1.11,2.5,3.27,2.67,5.46,2.83,1.95.14,3.92-.17,5.83.67.7.3,1.75.16,2.51-.13,1.47-.56,2.91-1.26,4.23-2.11.88-.57,1.51-1.52,2.31-2.36ZM30.15,157.42c1.97,3.39,2.97,7,4.01,10.6.25.87.17,2.29,1.43,2.44,3.43-3.61,6.34-7.35,8.59-11.76-2.85-1.92-6.16-1.7-9.14-2.56-1.53-.45-3.2-.1-4.9,1.28ZM185.83,203.3c-3.74-2.15-7.41-4.38-11.84-4.96-.31.63-.42,1.18-.75,1.47-2,1.71-1.32,3.48-.21,5.28,1.21,1.97,2.41,3.95,3.66,5.9.32.49.83.87,1.41,1.46,2.91-2.81,5.84-5.26,7.73-9.15ZM188.68,189.08c0-.48.17-1.05-.03-1.43-1.52-2.97-3.14-5.89-5.69-8.15-1.25-1.11-2.11-1.03-3.1.29-1.32,1.77-2.51,3.66-3.95,5.32-1.98,2.26-2.07,2.2-.72,4.73.23.43.64.76,1.15,1.35,3.89-.66,7.88-1.34,12.34-2.09ZM154.68,193.24c-.4,3.25,1.12,5.64,2.86,7.42,2.9,2.95,7.15,1.95,9.19-.26.77-.83,1.57-1.63,2.4-2.4,1.52-1.43,1.98-3.26,2.14-5.24.11-1.4-.52-2.02-1.81-2.74-1.76-.98-3.31-.49-5.19-.54,3.18,3.41,3.23,3.81,1.16,7.43h-4.59c-1.03-1.2-2.06-2.4-3.15-3.67h-3.01ZM158.24,137.55c.05-1.97-.06-2.91-.62-3.05-.94-.24-1.93-.27-2.89-.38-.12-.01-.31-.06-.37,0-1.14,1.16-2.6.6-3.93.77-2.3.29-4.71.25-6.87.98-3,1.01-5.97.15-8.92.52-2.05-1.49-4.28-.43-6.63-.86.09,1.58.15,2.75.23,4.12,3.8-.35,7.24-.83,10.69-.96,4.16-.16,8.33-.03,12.49-.03,2.33,0,4.69.15,6.81-1.1ZM156.83,166.89c0,.65-.16,1.3.03,1.83,1.6,4.42,3.3,8.8,5.62,12.9.27.48,1.05.68,1.66,1.06.37-5.2.72-10.07,1.06-14.86-2.78-1.17-5.4-1.41-8.37-.93ZM175,194.11c.17.74.15,1.11.28,1.18,3.79,1.87,7.59,3.7,11.64,5.67.89-2.79,1.73-5.41,2.52-7.87-.69-1.76-2.06-1.48-3.28-1.34-.95.11-1.87.49-2.82.69-2.72.56-5.44,1.1-8.35,1.68ZM45.24,171.16c2.33-2.63,5.05-4.98,6.8-7.91,1.36-2.27,3.01-4.15,4.94-6.25-1.27-.31-2.51-1.02-3.48-.75-1.2.34-2.28,1.39-3.21,2.32-1.12,1.12-2.02,2.45-3.04,3.67-.56.67-1.27,1.23-1.74,1.95-1.46,2.27-2.84,4.6-4.29,6.95h4.02ZM62.15,170.35c-.05-3.29-1.56-5.64-3.25-7.88-.26-.35-1.09-.27-1.92-.44-.75,4.17-4.16,6.39-6.78,9.69,4.4.72,7.95-.86,11.95-1.38ZM109.48,140.12c-.5-.88-.69-1.31-.97-1.68-1.64-2.17-4.29-2.78-6.45-4.15-1.67-1.06-3.39-1.16-4.88.18v4.83c2.13.29,4.05.66,5.99.79,1.96.13,3.93.03,6.31.03ZM51.1,137.76c-.12-1.59.11-3.19-.42-4.46-.53-1.25-.21-3.09-2.11-3.76-1.73.87-3.56,1.78-5.4,2.7,0,.59-.04,1.09,0,1.59.36,4,2.58,5.39,6.51,4.15.57-.18,1.19-.19,1.41-.22ZM50.46,143.97c-.13.12-.27.19-.3.29-.08.22-.06.48-.16.7-1.17,2.68-1.15,2.91.83,4.74,2.06,1.9,4.68,2.56,7.59,3.47-.96-3.58-1.89-6.71-4.24-9.2h-3.72ZM116.52,163.98c-2.39-.33-4.28-.59-6.63-.92-1.36,3.32-3.61,6.35-7.43,7.99,1.04.11,1.98.02,2.88-.2,2.45-.6,4.67-2.06,7.32-1.95.32.01.8-.15.97-.4.93-1.37,1.79-2.79,2.89-4.52ZM93.31,205.94c-.05,1.4-.64,2.61.52,3.36.65.42,1.59.47,2.41.56,2.54.29,5.15-.52,7.67.68.58.28,1.72-.1,2.36-.54,1.14-.78.51-1.96.47-3.07-4.54-.41-8.97.51-13.42-.99ZM47.47,185.46c.38.97.42,1.47.66,1.59,4.74,2.38,9.49,4.71,14.25,7.06,1.03-1.65.41-2.61-.92-3.14-4.44-1.79-8.91-3.51-13.99-5.51ZM180.28,134.08c-1.33.29-2.24-1.64-3.65-.39-.13,1.92-.26,3.78-.39,5.61h4.04v-5.22ZM123.72,164.81q-2.7-.43-3.16.91c1.01-.29,1.98-.57,3.16-.91ZM66.28,168.01q-.23,1.64,1.05,1.25c-.32-.38-.64-.75-1.05-1.25Z"/><path class="cls-8" d="M91.38,50.81c3.12.4,3.41,2.65,4.1,4.54.62,1.69,1.1,3.43,1.6,5.02.45.12.71.29.91.23,2.51-.73,4.78-.56,7.23.68,2.08,1.05,3.32-.53,2.71-2.96-.27-1.07-.32-2.19-.47-3.34,1.98-.51,2.54-1.75,2.45-3.64-.14-2.83.25-5.69-1.29-8.31-.28-.48-.2-1.2-.25-1.81-.21-2.7.15-5.38-.61-8.14-.46-1.69.55-3.78.89-5.69.17-.96.5-1.94.42-2.88-.19-2.09.55-3.85,1.57-5.56.87-1.46,1.81-2.88,2.55-4.4,1.58-3.23,4.49-5.04,7.61-5.91,3.04-.85,6.38-.63,9.43.77,3.17,1.45,6.15,3.16,8.47,6.37,0,.54-.29,1.55.05,2.25,1.24,2.49.77,5.03.85,7.64.15,4.49-1.72,8.05-3.79,11.67-.48.85-1.22,1.58-1.55,2.48-.99,2.75-2.7,4.91-4.78,6.91-1.24,1.19-2.18,2.68-3.24,4.05-2.71,3.49-1.01,9.11,4.38,9.78,2.24.28,4.21,1.05,6.39,1.81.04.29.2.66.13.98-.84,3.45-1.99,6.85-1.54,10.49-1.19,1.28-.55,2.86-.69,4.32-.28,2.95-.64,5.89-.77,8.85-.13,2.9.02,5.81-.03,8.71-.01.56-.49,1.1-.64,1.68-.36,1.4.8,3.79,2.1,4.51,1.59.88,3.14,1.82,4.74,2.69,3.93,2.13,7.34,4.92,10.56,7.98.44.42.97.75,1.48,1.08,2.29,1.46,4.43,2.99,5.9,5.43.82,1.36,2.22,2.41,3.46,3.48,2.2,1.89,2.32,2.19,1.14,4.99,1.29,1.36,2.36,2.68,4.76,2.93,3.52.37,4.35,1.87,4.39,5.55,0,.5,0,.99,0,1.43-2.02,2.68-4.86,2.79-7.82,2.71-1.58-1.03-2.12-2.58-2.03-4.42.24-4.71-2.68-7.78-5.76-10.64-2.43-2.27-5.25-4.12-7.68-6.39-4.17-3.88-8.67-6.22-14.87-8.22-2.26-.73-4.38-1.52-6.84-1.3-1.17.85-2.37,1.77-1.99,3.59.05.24.09.55-.01.75-2.17,4.07-1.28,8.49-1.51,12.79-.04.8-.39,1.58-.63,2.48-2.03,0-3.81-.22-5.51.05-3.49.54-5.88-1.16-8.22-3.37-2.13-2.02-4.32-4.06-7.17-5.05-4.52-1.56-7.92-4.79-11.54-7.65-2.54-2.01-4.92-4.23-7.24-6.49-1.5-1.46-3.47-1.7-5.24-2.39-1.04-.41-1.92.37-2.16,1.5-.12.59-.02,1.23-.02,1.92,3.38,1.12,5.9,3.25,8.2,5.72,1.94,2.08,3.99,4.01,6.61,5.35,1.62.83,2.91,2.29,4.39,3.41.78.59,1.58,1.45,2.46,1.56,4.13.51,6.55,3.63,9.53,5.91.4.3.69.75,1.08,1.06,2.46,1.92,4.98,3.66,8.39,3.05.86-.15,1.78.06,2.64-.08,1.97-.31,3.42.4,4.5,2.1,0,1.07.11,2.21-.02,3.33-.3,2.46-1.44,3.47-3.68,3.71-1.37.15-2.77.03-4.47.03-.7-1.24-1.81-2.52-2.18-3.99-.71-2.84-2.73-4.27-4.98-5.6-2.49-1.48-4.92-3.08-7.51-4.37-2.14-1.07-4.08-2.55-6.66-2.82-1.19-.12-2.45-1.14-3.36-2.07-2.01-2.08-4.33-3.53-6.94-4.75-3-1.4-5.85-3.12-8.12-5.68-1.24-1.41-2.25-1.41-3.16-.41-.79.87-.78,2.3.13,3.37,2.11,2.48,4.66,4.45,7.6,5.82,3.14,1.46,6.02,3.16,8.54,5.65,1.47,1.45,3.77,2.08,5.77,3.11-2.67,3.06-2.06,6.78-1.22,10.4.19.84,1.49,1.7,2.45,2.02,2.23.73,4.57.96,6.95.86,2.72-.11,5.45-.23,8.1.65.34.11.87-.01,1.05.2,2.18,2.53,5.09,2.21,7.95,2.13.21,0,.43.2,1.02.51-1.01.41-1.74.84-2.53,1.01-2.51.56-2.7.89-1.68,3.46.09.22.04.49.06.92h-8.9c-.2-.33-.5-1.02-.97-1.54-.47-.52-1.06-1.01-1.7-1.28-.88-.37-1.85-.71-2.78-.71-.93,0-1.86.45-2.79.67-3.17.74-6.3,1.49-9.27,2.98-2.13,1.07-4.53,1.59-6.82,2.33-.23.07-.54-.06-.75.03-3.65,1.68-5.97,1.99-5.33,8.12.39.34.89.98,1.55,1.31,3.81,1.96,5.4,5.47,6.73,9.24.36,1.01.85,2.05,1.54,2.86,3.82,4.5,6.94,9.36,8.44,15.16.67,2.58,1.96,4.12,4.45,4.82,1.37.38,2.1,1.23,3.04,1.99.8.64,1.01,1.55.53,2.32-.33.53-1.14,1.03-1.76,1.07-2.27.12-4.56.22-6.81-.01-2.28-.23-3.86-1.99-5.57-3.32-1.35-1.05-2.86-2.2-2.38-4.34-1.66-4.51-3.28-9.04-5.01-13.53-.47-1.23-1.18-2.41-1.97-3.47-4.05-5.42-8.23-10.75-12.22-16.22-.97-1.33-2.05-2.66-2.42-4.44-.36-1.76-1.07-3.45-2.35-4.88-.79-.88-1.43-2.06-1.67-3.21-.57-2.71-2-4.93-3.49-7.15-1.93-2.87-2.98-6.13-3.35-9.48-.41-3.65-2.02-7.05-1.66-10.88.34-3.63.1-7.31.03-10.97-.02-1.21-.41-2.42-.43-3.63-.02-.91.38-1.82.4-2.74.09-3.45-.69-6.81-1.2-10.19-.15-.98-.47-2.07-.18-2.95,1.44-4.43.33-8.95.68-13.41-1.07-1.7-.85-3.62-.68-5.44.17-1.8.72-3.56,1.1-5.33.13-.59.36-1.19.34-1.78-.19-3.73.77-7.27,1.72-10.79,2.8-.5,5.54-1.01,8.28-1.48.44-.07.9.02,1.35.04,3.24.15,6.48.45,9.71.4,1.71-.03,2.65-1.44,3.27-3.27-.8-1.03-1.64-2.23-2.6-3.32-2.39-2.72-4.89-5.35-7.25-8.09-.69-.81-1.07-1.89-1.61-2.83-.48-.84-.82-1.87-1.51-2.47-2.55-2.2-3.52-5.21-4.51-8.23-.38-1.14-.56-2.38-1.09-3.44-1.93-3.82-.99-7.24,1.25-10.54.34-.5.6-1.05.86-1.59.9-1.84,1.95-2.98,4.36-3.36,1.94-.31,3.81-1.52,5.98-1.35.99.08,1.86.29,2.81.71,3.44,1.49,6.55,3.34,9.02,6.23.78.91,2,1.43,2.87,2.28,3.13,3.05,5.85,6.27,5.8,11.08-.04,2.95-.56,5.98.67,8.87.2.48-.11,1.2-.21,1.8-.15.83-.54,1.68-.46,2.49.38,4.13.6,8.26-.35,12.83ZM85.63,90.31c0,1.15.05,2.13-.01,3.12-.11,1.91.71,3.48,2.17,4.47,2.92,1.98,6.14,3.55,9.67,1.84,1.64-.8,2.76-.37,4.14.26,2.11.97,4.34,1.66,6.7,1.51.93-.06,2.27-.28,2.67-.91,1.27-2.01,3.33-3.79,2.71-6.59-.05-.22-.21-.42-.33-.67h-2.43c-.12.37-.15.63-.28.83-2.42,3.63-1.08,4-6.16,2.85-.12-.03-.25,0-.38-.02-1.07-.22-1.84-.75-1.81-1.96.03-1.21-.35-2.97,1.21-3.18,2.5-.34,3.31-2.45,4.84-3.59.97-6.63-3.82-11.55-10.9-10.1-5.23,3.33-4.6,10.53,1.31,13.34-.37,1.21-.66,2.5-1.19,3.68-.21.47-.92.95-1.45,1.01-1.24.15-2.64.39-3.75-.02-1.37-.51-3.16-.93-3.04-3.18.05-.89-.56-1.8-.86-2.68h-2.83ZM78.06,74.96c-.14-2.23.03-3.88,2.59-3.86.63,0,1.3-.61,1.89-1.02,2.97-2.1,5.89-4.27,9.28-5.7.43-.18.79-.58,1.15-.92,1.75-1.68,1.61-2.58-.67-4.31-.96.74-1.87,1.6-2.91,2.22-3.95,2.32-7.88,4.69-11.94,6.78-1.61.83-2.48,2.13-2.96,3.54-.32.93.45,2.22.71,3.26h2.87ZM113.7,64.21c-.54.54-1.32.98-1.46,1.56-.22.91-.4,2.11.67,2.72,3.12,1.76,5.14,4.7,7.71,7.05.46.42.89.89,1.36,1.31.76.69,1.54.7,2.35.04.79-.64.93-1.43.55-2.32-.24-.56-.47-1.17-.88-1.59-2.46-2.53-4.93-5.06-7.5-7.47-.66-.62-1.71-.81-2.81-1.3ZM111.86,81.84c1.99-.05,3.41-1.35,3.35-3.07-.06-1.71-2.21-3.79-3.87-3.74-1.67.05-3.05,1.47-2.98,3.05.11,2.39,1.43,3.81,3.5,3.76ZM87.23,75.05c-.07,3.88.02,3.9,2.31,4.99,1.98.94,2.59-.69,3.68-1.61,0-.89.04-1.76,0-2.63-.11-1.83-1.21-2.74-2.95-2.26-1.01.28-1.92.94-3.03,1.5Z"/><path class="cls-16" d="M48.55,181.51v-3.89c2.37-1.14,4.74-1.76,7.37-1.94,2.85-.2,5.65-1.19,8.48-1.79,2.37-.5,4.75-.92,6.78-1.32,4.96,6.33,9.25,12.57,10.49,20.45-3.76.94-7.02-.93-10.4-2.1-2.14-.74-3.91-2.24-6.38-2.44-1.68-.14-2.98-1.85-4.79-2.42-3.08-.96-6.01-2.37-9.01-3.58-.77-.31-1.55-.6-2.54-.97Z"/><path class="cls-25" d="M40.3,216.09c-.57-2.14-1.4-4.08-1.56-6.07-.45-5.71-.63-11.43-.93-17.28,1.65-.45,3.15-.86,4.86-1.33,1.84,3.16,3.59,6.2,5.36,9.22,1.77,3.02,4.21,5.67,5.25,9.03-5.03,3.98-5.41,4.17-12.99,6.44Z"/><path class="cls-20" d="M36.22,216.01c-3.35.06-6.44-1.22-9.63-1.95-2.56-.58-5-1.66-7.93-2.67,1.74-2.32,3.17-4.35,4.74-6.27,2.83-3.44,5.73-6.83,8.65-10.19.84-.96,1.57-2.41,3.58-1.46,0,.59-.03,1.32,0,2.04.25,5.08.48,10.15.81,15.23.09,1.44.49,2.87.75,4.3-.33.32-.65.64-.98.97Z"/><path class="cls-3" d="M128.95,194.34c1.95-1.56,4.29-1.47,6.38-.88,3,.85,6.06.68,8.91.25,2.1-.32,4.15-.25,6.4-.59v5.16c-4.88,1.75-8.65,5.59-13.03,8.53-1.66,1.11-1.83,1.14-3.15-.06-3.28-2.99-5.41-7.78-5.51-12.4Z"/><path class="cls-3" d="M133.11,179.37c6.96,1.41,13.25,4.39,19.2,8.18,0,.33.07.6-.01.83-.29.79-.64,1.57-.91,2.23-7.2,1.08-14.32,1.41-21.71.01.03-.42-.06-1.13.15-1.76,1.02-3.09,2.13-6.16,3.29-9.49Z"/><path class="cls-17" d="M141.9,166.37c-3.8,1.89-7.4,3.76-11.08,5.49-3.56,1.68-7.3,3-10.77,4.84-3.64,1.93-7.43,3.29-11.55,4.03-.33-1.84-.71-3.96-1.09-6.09,2.39-.95,4.47-1.71,6.82-1.99,3.19-.38,6.13-1.87,9.08-3.17,3.45-1.52,7.17-2,10.8-2.72,2.44-.48,4.94-1.61,7.78-.39Z"/><path class="cls-16" d="M100.81,193.15c-1.19-3.05-1.99-5.5-3.1-7.8-1.21-2.49-2.88-4.76-4.04-7.27-1.1-2.38-4.13-3.52-4.35-6.75,5.64-.44,9.99,1.57,13.6,5.41,1.13,1.2,1.6,2.82,1.55,4.32-.15,4.09-1.6,7.83-3.66,12.09Z"/><path class="cls-14" d="M27.45,188.79c-5.48,4.43-11.75,7.65-17.64,11.35-3-2.09-4.26-4.91-4.48-8.24-.11-1.76.28-2.03,1.96-2.53,2.17-.64,4.37-.62,6.59-.68,3.34-.09,6.71.43,10.01-.7.99-.34,2.19-.05,3.29-.05.09.28.17.57.26.85Z"/><path class="cls-20" d="M7.73,175.92c1.87-.62,3.14.24,4.41.98,4.12,2.4,8.65,3.68,13.34,5.15.31.94.68,2.05,1.16,3.48-4.18-.17-7.94,1.22-11.96.95-3.02-.2-6.07.24-9.42.4.81-3.59,1.63-7.2,2.48-10.96Z"/><path class="cls-25" d="M61.34,195.73c.22,5.01-1.61,8.93-5.85,11.87-3.77-4.99-6.66-10.65-9.98-16.05-.27-.44-.04-1.2-.04-2.04,3.28-.26,5.37,2.27,8.1,3.03,2.65.73,5.13,2.09,7.77,3.2Z"/><path class="cls-5" d="M179.04,175.93c-1.55,4.15-5.05,6.89-7.38,10.47-1.65-.65-3.21-1.26-4.9-1.93-.05-5.17-.45-10.47,1.74-15.49,4.23,1.09,7.17,3.93,10.54,6.95Z"/><path class="cls-12" d="M91.22,157.6c2.06-1.34,4.21-2.62,6.76-2.25,1.07.16,2.13.41,3.16.74,3.15,1.01,6.48.24,9.58.88,4.24.88,8.44.41,12.66.6,1.71.08,3.37-.27,5.07-.62,3.81-.78,7.48.88,11.2,1.5,1.21.2,2.56,1.6,1.82,3.72-2.16-.31-4.24-.03-6.51-.66-3.04-.84-6.36-.81-9.56-.86-3.34-.05-6.58-.39-9.79-1.38-1.04-.32-2.23-.16-3.35-.17-4.06-.02-8.12.14-12.03-1.46-.97-.4-2.25-.05-3.38-.05-1.87,0-3.75,0-5.62,0Z"/><path class="cls-3" d="M137.36,209.99c5.25-3.53,9.13-8,14.78-9.44,1.79,1.67,1.83,3.18.99,5.1-1.01,2.31-1.52,4.84-2.38,7.23-.41,1.12-1.13,2.12-1.65,3.07-3.86-1.96-7.52-3.82-11.74-5.96Z"/><path class="cls-25" d="M26.41,174.56c-.32,1.76-.61,3.31-.87,4.72-5.46-1.19-10.51-3.47-15.71-6.55-.18-.72-.11-1.82.96-2.79,1.96-1.77,3.86-3.6,5.93-5.55,2.81,3.69,6.52,6.82,9.68,10.17Z"/><path class="cls-10" d="M28.75,190.91c1.92,1.74,2,1.95.96,3.19-4.39,5.21-8.8,10.4-13.31,15.73-2.64-1.96-4.31-4.5-5.2-7.71,6-3.64,12.17-6.83,17.55-11.21Z"/><path class="cls-25" d="M133.61,175.86c3.62-3.6,8.23-4.08,12.02-6.66,2.66,5.32,5.15,10.27,8.02,16.01-3.82-1.87-6.91-3.35-9.96-4.89-3.11-1.58-6.81-1.84-10.07-4.45Z"/><path class="cls-5" d="M164.57,206.33c1.37-.63,2.91-1.32,4.52-2.06,3.1,2.94,4.47,6.82,6.85,10.05-3.31,2.93-6.43,5.86-11.37,5.32v-13.31Z"/><path class="cls-22" d="M155.79,205.16c1.79.4,3.67.71,5.47,1.27.94.3.88,1.34.87,2.24-.03,3.51-.01,7.03-.01,10.78-3.65.51-7.23.7-10.74-1.89,1.4-3.94,2.85-8,4.42-12.41Z"/><path class="cls-12" d="M156.87,181.07c-.5-.49-1.16-.89-1.48-1.47-1.26-2.32-2.31-4.76-3.62-7.05-2.21-3.85-4.02-7.89-5.87-11.92-2.19-4.79-4.51-9.53-6.73-14.31-.5-1.07-.83-2.23-1.36-3.7,1.28-.08,2.44-.15,3.86-.23,1.04,2.35,2.07,4.64,3.07,6.93,1.83,4.15,3.49,8.38,5.22,12.57.99,2.4,1.96,4.85,2.6,7.45.78,3.21,2.5,6.19,3.75,9.29.31.77.39,1.63.57,2.45h0Z"/><path class="cls-11" d="M35.09,188.61c-1.88.12-2.78-.18-3.35-1.69-.64-1.7-1.48-3.29-1.46-5.18,0-.71-.18-1.44-.36-2.14-.34-1.4.58-3.41,1.81-3.83,1.56-.54,6.97-1.06,8.83-.72,1.3.24,2.27.83,3.02,2.16,1.53,2.72.5,5.39.18,8.05-.09.71-1.3,1.58-2.16,1.85-2.3.7-4.68,1.11-6.51,1.52ZM39.73,184.86c.93-.99,2.38-1.59,1.9-3.12-.39-1.23-.93-2.51-1.73-3.5-1.36-1.66-3.76-1.2-5.73.88-1.61,1.7-1.26,2.76,1.93,5.74h3.63Z"/><path class="cls-5" d="M27.79,158.26c1.82,2.74,2.52,5.57,3.28,8.37.06.24-.02.51.03.75q.87,3.72-2.62,5.44c-3.04-2.94-6.1-5.96-9.08-9.07-.83-.87-.78-1.74.12-2.6,2.28-2.16,5.07-2.8,8.26-2.89Z"/><path class="cls-14" d="M105.62,163.48c-.8.84-1.43,1.79-2.31,2.36-1.31.86-2.76,1.55-4.23,2.11-.76.29-1.82.44-2.51.13-1.92-.84-3.88-.53-5.83-.67-2.19-.16-4.35-.33-5.46-2.83-.35-.78-1.53-1.16-2.25-1.8-.52-.46-.92-1.05-1.57-1.82,3.06-.98,5.61.77,8.24.42,2.64-.35,5.11.77,7.7.71,2.71-.06,5.41-.1,8.23,1.38Z"/><path class="cls-3" d="M30.15,157.42c1.69-1.38,3.36-1.73,4.9-1.28,2.98.86,6.29.64,9.14,2.56-2.25,4.41-5.17,8.15-8.59,11.76-1.27-.15-1.18-1.56-1.43-2.44-1.04-3.6-2.04-7.2-4.01-10.6Z"/><path class="cls-25" d="M185.83,203.3c-1.89,3.89-4.83,6.35-7.73,9.15-.58-.59-1.09-.97-1.41-1.46-1.25-1.95-2.45-3.93-3.66-5.9-1.11-1.8-1.79-3.57.21-5.28.34-.29.44-.84.75-1.47,4.43.59,8.1,2.81,11.84,4.96Z"/><path class="cls-25" d="M188.68,189.08c-4.46.76-8.45,1.43-12.34,2.09-.51-.59-.92-.92-1.15-1.35-1.35-2.53-1.25-2.47.72-4.73,1.45-1.66,2.63-3.55,3.95-5.32.99-1.32,1.85-1.39,3.1-.29,2.55,2.26,4.17,5.18,5.69,8.15.2.38.03.95.03,1.43Z"/><path class="cls-11" d="M154.68,193.24h3.01c1.09,1.27,2.12,2.47,3.15,3.67h4.59c2.07-3.61,2.02-4.02-1.16-7.43,1.88.05,3.44-.44,5.19.54,1.28.72,1.92,1.34,1.81,2.74-.16,1.98-.62,3.81-2.14,5.24-.82.77-1.63,1.57-2.4,2.4-2.04,2.2-6.29,3.21-9.19.26-1.74-1.78-3.26-4.17-2.86-7.42Z"/><path class="cls-12" d="M158.24,137.55c-2.13,1.26-4.48,1.1-6.81,1.1-4.16,0-8.33-.13-12.49.03-3.45.13-6.89.6-10.69.96-.07-1.37-.14-2.54-.23-4.12,2.35.43,4.58-.63,6.63.86,2.95-.37,5.92.49,8.92-.52,2.15-.72,4.57-.69,6.87-.98,1.32-.17,2.79.39,3.93-.77.06-.06.25-.02.37,0,.97.11,1.96.14,2.89.38.57.14.67,1.08.62,3.05Z"/><path class="cls-14" d="M156.83,166.89c2.97-.48,5.59-.24,8.37.93-.34,4.78-.69,9.65-1.06,14.86-.61-.37-1.39-.57-1.66-1.06-2.32-4.1-4.02-8.48-5.62-12.9-.19-.53-.03-1.18-.03-1.83Z"/><path class="cls-10" d="M175,194.11c2.91-.58,5.63-1.11,8.35-1.68.95-.2,1.87-.58,2.82-.69,1.22-.14,2.58-.41,3.28,1.34-.79,2.46-1.63,5.08-2.52,7.87-4.06-1.97-7.86-3.8-11.64-5.67-.13-.07-.11-.44-.28-1.18Z"/><path class="cls-12" d="M45.24,171.16h-4.02c1.44-2.36,2.82-4.68,4.29-6.95.47-.72,1.18-1.28,1.74-1.95,1.02-1.22,1.92-2.56,3.04-3.67.94-.94,2.01-1.98,3.21-2.32.97-.27,2.21.44,3.48.75-1.93,2.1-3.58,3.97-4.94,6.25-1.75,2.93-4.47,5.27-6.8,7.91Z"/><path class="cls-14" d="M62.15,170.35c-4,.51-7.55,2.1-11.95,1.38,2.62-3.3,6.03-5.52,6.78-9.69.83.17,1.65.09,1.92.44,1.69,2.24,3.21,4.59,3.25,7.88Z"/><path class="cls-24" d="M109.48,140.12c-2.38,0-4.35.1-6.31-.03-1.94-.13-3.86-.5-5.99-.79v-4.83c1.49-1.34,3.21-1.24,4.88-.18,2.16,1.37,4.81,1.98,6.45,4.15.28.37.47.8.97,1.68Z"/><path class="cls-15" d="M51.1,137.76c-.22.03-.84.04-1.41.22-3.93,1.24-6.15-.15-6.51-4.15-.05-.5,0-1,0-1.59,1.84-.92,3.67-1.83,5.4-2.7,1.89.67,1.58,2.51,2.11,3.76.53,1.27.31,2.86.42,4.46Z"/><path class="cls-18" d="M50.46,143.97h3.72c2.35,2.48,3.28,5.61,4.24,9.2-2.91-.91-5.52-1.57-7.59-3.47-1.98-1.82-2-2.05-.83-4.74.09-.21.08-.47.16-.7.04-.1.17-.17.3-.29Z"/><path class="cls-7" d="M116.52,163.98c-1.09,1.73-1.95,3.15-2.89,4.52-.17.25-.64.41-.97.4-2.65-.11-4.87,1.35-7.32,1.95-.91.22-1.84.31-2.88.2,3.82-1.64,6.06-4.68,7.43-7.99,2.35.33,4.24.59,6.63.92Z"/><path class="cls-11" d="M93.31,205.94c4.45,1.5,8.88.58,13.42.99.04,1.11.67,2.29-.47,3.07-.64.44-1.78.82-2.36.54-2.51-1.2-5.13-.39-7.67-.68-.82-.09-1.75-.14-2.41-.56-1.17-.75-.57-1.96-.52-3.36Z"/><path class="cls-23" d="M47.47,185.46c5.08,1.99,9.55,3.71,13.99,5.51,1.32.54,1.94,1.49.92,3.14-4.76-2.34-9.51-4.68-14.25-7.06-.23-.12-.27-.62-.66-1.59Z"/><path class="cls-21" d="M97.76,53.82c1.26,0,2.52-.05,3.78.02,2.51.14,3.41,1.19,3.67,4.2-2.37,1.53-2.06-1.8-3.86-1.96-.53.44-1.27,1.03-2.26,1.85-.8-1.41-1.58-2.55-1.34-4.1,0,0,0,0,0,0Z"/><path class="cls-20" d="M180.28,134.08v5.22h-4.04c.13-1.84.26-3.7.39-5.61,1.41-1.25,2.32.68,3.65.39Z"/><path class="cls-1" d="M157.63,182.58c1.93,1.84,3.45,3.84,2.74,7.37-2.15-2.4-2.78-4.75-2.75-7.36h.01Z"/><path class="cls-24" d="M123.72,164.81c-1.18.34-2.14.62-3.16.91q.45-1.34,3.16-.91Z"/><path class="cls-6" d="M66.28,168.01c.41.49.73.86,1.05,1.25q-1.28.39-1.05-1.25Z"/><path class="cls-23" d="M46.24,151.49c.47.35.94.7,1.51,1.13-.76.69-1.23.66-1.54-.26l.03-.88Z"/><path class="cls-23" d="M36.22,216.01c.33-.32.65-.64.98-.97.69.3,1,.86.46,1.4-.53.54-1.11.24-1.44-.43Z"/><path class="cls-4" d="M46.24,151.49l-.03.88-.81-.75.19-.2c.21.09.43.12.65.07Z"/><path class="cls-12" d="M156.88,181.82c-.03-.25-.03-.5-.02-.75h0c.25.25.51.51.76.76-.25,0-.49,0-.74-.01Z"/><path class="cls-1" d="M156.88,181.82c.25.01.49.02.74.01.02.25.02.5,0,.75h-.01c-.24-.25-.49-.51-.73-.76Z"/><path class="cls-19" d="M97.76,53.81c-.21-.1-.41-.2-.62-.29.11-.11.22-.22.34-.32l.28.62s0,0,0,0Z"/><path class="cls-2" d="M85.63,90.31h2.83c.3.87.9,1.79.86,2.68-.12,2.25,1.68,2.67,3.04,3.18,1.11.41,2.5.18,3.75.02.53-.06,1.24-.54,1.45-1.01.53-1.18.82-2.47,1.19-3.68-5.91-2.82-6.54-10.02-1.31-13.34,7.08-1.45,11.87,3.47,10.9,10.1-1.53,1.15-2.34,3.25-4.84,3.59-1.55.21-1.18,1.97-1.21,3.18-.03,1.2.74,1.74,1.81,1.96.12.02.26,0,.38.02,5.07,1.15,3.73.78,6.16-2.85.13-.19.16-.45.28-.83h2.43c.12.25.28.45.33.67.62,2.8-1.44,4.58-2.71,6.59-.4.63-1.74.85-2.67.91-2.35.15-4.58-.54-6.7-1.51-1.38-.63-2.5-1.05-4.14-.26-3.53,1.72-6.75.14-9.67-1.84-1.47-.99-2.28-2.56-2.17-4.47.06-.98.01-1.97.01-3.12ZM97.74,84.34c-.21,1.91.91,2.81,2.46,3.62,1.19.62,2.11,1.1,3.25-.04,1.17-1.18,1.48-2.12.92-3.6-.59-1.56-2.01-2.47-3.91-2.51-2.06-.04-2.68.54-2.72,2.53Z"/><path class="cls-2" d="M78.06,74.96h-2.87c-.26-1.04-1.03-2.33-.71-3.26.48-1.41,1.35-2.71,2.96-3.54,4.07-2.1,8-4.46,11.94-6.78,1.05-.62,1.95-1.48,2.91-2.22,2.28,1.72,2.43,2.63.67,4.31-.35.34-.71.73-1.15.92-3.38,1.44-6.31,3.6-9.28,5.7-.59.42-1.26,1.03-1.89,1.02-2.56-.02-2.73,1.63-2.59,3.86Z"/><path class="cls-2" d="M113.7,64.21c1.09.49,2.15.68,2.81,1.3,2.57,2.41,5.04,4.94,7.5,7.47.41.42.64,1.03.88,1.59.38.89.24,1.68-.55,2.32-.81.66-1.59.65-2.35-.04-.47-.42-.89-.89-1.36-1.31-2.57-2.35-4.59-5.29-7.71-7.05-1.08-.61-.89-1.8-.67-2.72.14-.59.92-1.02,1.46-1.56Z"/><path class="cls-2" d="M111.86,81.84c-2.07.05-3.39-1.37-3.5-3.76-.07-1.58,1.31-3,2.98-3.05,1.66-.05,3.81,2.03,3.87,3.74.06,1.73-1.36,3.03-3.35,3.07Z"/><path class="cls-2" d="M87.23,75.05c1.11-.57,2.02-1.22,3.03-1.5,1.74-.48,2.84.43,2.95,2.26.05.86,0,1.74,0,2.63-1.09.92-1.71,2.55-3.68,1.61-2.29-1.09-2.39-1.12-2.31-4.99Z"/><path class="cls-9" d="M39.73,184.86h-3.63c-3.19-2.99-3.55-4.04-1.93-5.74,1.97-2.08,4.37-2.53,5.73-.88.81.98,1.35,2.26,1.73,3.5.48,1.53-.97,2.13-1.9,3.12Z"/><path class="cls-13" d="M97.74,84.34c.04-1.99.66-2.57,2.72-2.53,1.9.04,3.32.95,3.91,2.51.56,1.49.25,2.42-.92,3.6-1.13,1.14-2.06.66-3.25.04-1.55-.81-2.67-1.71-2.46-3.62Z"/></g></svg>